<svg xmlns="http://www.w3.org/2000/svg"><g><circle cx="49.440736323595054" cy="172.52567079332138" r="2" style="fill: steelblue;"></circle><circle cx="10.254172980785375" cy="141.91656311353046" r="2" style="fill: steelblue;"></circle><circle cx="80.15161976218224" cy="146.27120229932996" r="2" style="fill: steelblue;"></circle><circle cx="9.613199532032018" cy="169.80494393242728" r="2" style="fill: steelblue;"></circle><circle cx="108.55166837573051" cy="88.94807762569852" r="2" style="fill: steelblue;"></circle><circle cx="112.83165998756886" cy="131.3831607500712" r="2" style="fill: steelblue;"></circle><circle cx="92.46920133009553" cy="84.31475195619795" r="2" style="fill: steelblue;"></circle><circle cx="111.56646478921175" cy="151.8106824821896" r="2" style="fill: steelblue;"></circle><circle cx="68.11802685260773" cy="134.24925340546503" r="2" style="fill: steelblue;"></circle><circle cx="30.115744471549995" cy="121.72932260566287" r="2" style="fill: steelblue;"></circle><circle cx="137.38078102469444" cy="129.15521032280392" r="2" style="fill: steelblue;"></circle><circle cx="194.20305490493774" cy="142.41471224360996" r="2" style="fill: steelblue;"></circle><circle cx="50.89091360569" cy="160.16119718551636" r="2" style="fill: steelblue;"></circle><circle cx="149.9470718204975" cy="139.23411568005878" r="2" style="fill: steelblue;"></circle><circle cx="71.10303491353989" cy="158.49684675534564" r="2" style="fill: steelblue;"></circle><circle cx="93.50275192409754" cy="186.8405408329434" r="2" style="fill: steelblue;"></circle><circle cx="86.59608606249094" cy="97.00134230984581" r="2" style="fill: steelblue;"></circle><circle cx="18.793410062789924" cy="60.67094537946913" r="2" style="fill: steelblue;"></circle><circle cx="105.19089587032795" cy="98.83252696858511" r="2" style="fill: steelblue;"></circle><circle cx="138.18229958415031" cy="136.70179082287683" r="2" style="fill: steelblue;"></circle><circle cx="114.32687882333994" cy="147.23930425114102" r="2" style="fill: steelblue;"></circle><circle cx="162.0138719677925" cy="50.30138625038993" r="2" style="fill: steelblue;"></circle><circle cx="67.83742681145668" cy="103.75517358382542" r="2" style="fill: steelblue;"></circle><circle cx="123.74667674303055" cy="152.64613760842218" r="2" style="fill: steelblue;"></circle><circle cx="71.88305296003819" cy="154.65540687243143" r="2" style="fill: steelblue;"></circle><circle cx="25.144799053668983" cy="158.2427720228831" r="2" style="fill: steelblue;"></circle><circle cx="17.015425860881813" cy="183.43775139914618" r="2" style="fill: steelblue;"></circle><circle cx="99.38033655053005" cy="65.61642554071214" r="2" style="fill: steelblue;"></circle><circle cx="111.11164502799511" cy="148.7079792552524" r="2" style="fill: steelblue;"></circle><circle cx="0.12393146753311712" cy="110.32801343955927" r="2" style="fill: steelblue;"></circle><circle cx="163.54915350675583" cy="37.28935453626845" r="2" style="fill: steelblue;"></circle><circle cx="83.43529365956783" cy="75.14710889922247" r="2" style="fill: steelblue;"></circle><circle cx="124.57106672227383" cy="49.571990966796875" r="2" style="fill: steelblue;"></circle><circle cx="171.48727774620056" cy="65.47191076808505" r="2" style="fill: steelblue;"></circle><circle cx="70.32260149717331" cy="57.99845854441325" r="2" style="fill: steelblue;"></circle><circle cx="144.1575162112713" cy="148.73717890845404" r="2" style="fill: steelblue;"></circle><circle cx="69.76529434323311" cy="125.22715826829274" r="2" style="fill: steelblue;"></circle><circle cx="41.48950651288033" cy="141.43745435608758" r="2" style="fill: steelblue;"></circle><circle cx="91.30097310990095" cy="114.07726382215817" r="2" style="fill: steelblue;"></circle><circle cx="110.43182518333197" cy="142.33257704310947" r="2" style="fill: steelblue;"></circle><circle cx="81.62057623267174" cy="183.42872460683185" r="2" style="fill: steelblue;"></circle><circle cx="189.0357419848442" cy="93.09377604060703" r="2" style="fill: steelblue;"></circle><circle cx="130.81939555704594" cy="67.07463661829631" r="2" style="fill: steelblue;"></circle><circle cx="76.14837810397148" cy="90.73271519607968" r="2" style="fill: steelblue;"></circle><circle cx="155.1586113870144" cy="81.0658468140496" r="2" style="fill: steelblue;"></circle><circle cx="90.50129391252995" cy="53.840816020965576" r="2" style="fill: steelblue;"></circle><circle cx="98.8541123457253" cy="92.57164597511292" r="2" style="fill: steelblue;"></circle><circle cx="88.89902886003256" cy="166.3691500822703" r="2" style="fill: steelblue;"></circle><circle cx="82.71497152745724" cy="169.3590349621243" r="2" style="fill: steelblue;"></circle><circle cx="110.26028487831354" cy="107.04997057716051" r="2" style="fill: steelblue;"></circle><circle cx="104.81566740199924" cy="110.25433283713129" r="2" style="fill: steelblue;"></circle><circle cx="27.506692707538612" cy="68.10947590404086" r="2" style="fill: steelblue;"></circle><circle cx="89.16967865079641" cy="156.44385417302448" r="2" style="fill: steelblue;"></circle><circle cx="93.60121507197618" cy="106.03538362516298" r="2" style="fill: steelblue;"></circle><circle cx="51.02372393012047" cy="139.34732476870218" r="2" style="fill: steelblue;"></circle><circle cx="78.1259186565876" cy="108.23817199303045" r="2" style="fill: steelblue;"></circle><circle cx="31.70063197612763" cy="130.09108768569098" r="2" style="fill: steelblue;"></circle><circle cx="78.49367186427116" cy="144.75637012057834" r="2" style="fill: steelblue;"></circle><circle cx="1.4002233743667658" cy="82.4849373764462" r="2" style="fill: steelblue;"></circle><circle cx="33.38712304830552" cy="76.08560058805678" r="2" style="fill: steelblue;"></circle><circle cx="47.03200832009316" cy="163.09133503172134" r="2" style="fill: steelblue;"></circle><circle cx="96.5886992868036" cy="102.4139126141866" r="2" style="fill: steelblue;"></circle><circle cx="60.1120688021183" cy="113.36448022888766" r="2" style="fill: steelblue;"></circle><circle cx="72.21745550632477" cy="184.91396639082168" r="2" style="fill: steelblue;"></circle><circle cx="89.38279040157795" cy="174.54381783803302" r="2" style="fill: steelblue;"></circle><circle cx="60.5245441198349" cy="193.5998731189304" r="2" style="fill: steelblue;"></circle><circle cx="43.34254041314126" cy="137.48843140072293" r="2" style="fill: steelblue;"></circle><circle cx="27.654527127742774" cy="180.9952523973253" r="2" style="fill: steelblue;"></circle><circle cx="80.18565028905869" cy="147.10053470399643" r="2" style="fill: steelblue;"></circle><circle cx="49.672132730484016" cy="88.77154522471957" r="2" style="fill: steelblue;"></circle><circle cx="38.49729374051095" cy="108.48593235843711" r="2" style="fill: steelblue;"></circle><circle cx="159.16834622621536" cy="56.916061374876236" r="2" style="fill: steelblue;"></circle><circle cx="179.22372967004776" cy="143.0518825848897" r="2" style="fill: steelblue;"></circle><circle cx="128.34412083029747" cy="123.1525954273012" r="2" style="fill: steelblue;"></circle><circle cx="129.9037452787161" cy="85.98280615276761" r="2" style="fill: steelblue;"></circle><circle cx="158.55709686875343" cy="35.68424781163533" r="2" style="fill: steelblue;"></circle><circle cx="126.94803662598133" cy="118.03553170628018" r="2" style="fill: steelblue;"></circle><circle cx="175.70669054985046" cy="53.507215446896026" r="2" style="fill: steelblue;"></circle><circle cx="150.24513229727745" cy="39.618055025736496" r="2" style="fill: steelblue;"></circle><circle cx="175.00185817480087" cy="33.79352225197687" r="2" style="fill: steelblue;"></circle><circle cx="60.691604763269424" cy="71.06169727113512" r="2" style="fill: steelblue;"></circle><circle cx="155.79719692468643" cy="60.499240954716996" r="2" style="fill: steelblue;"></circle><circle cx="139.1255058348179" cy="150.79942014482285" r="2" style="fill: steelblue;"></circle><circle cx="106.78302021697164" cy="104.02576542562909" r="2" style="fill: steelblue;"></circle><circle cx="88.24304435402155" cy="134.66589483949872" r="2" style="fill: steelblue;"></circle><circle cx="64.86565470695496" cy="63.83412414126926" r="2" style="fill: steelblue;"></circle><circle cx="78.85307297110558" cy="100.26812470621533" r="2" style="fill: steelblue;"></circle><circle cx="107.83716235309839" cy="147.5243866443634" r="2" style="fill: steelblue;"></circle><circle cx="118.9107321202755" cy="64.8241572909885" r="2" style="fill: steelblue;"></circle><circle cx="133.16590189933777" cy="112.7406879224711" r="2" style="fill: steelblue;"></circle><circle cx="160.61067059636116" cy="85.25123695532481" r="2" style="fill: steelblue;"></circle><circle cx="175.4849687218666" cy="86.48454315132565" r="2" style="fill: steelblue;"></circle><circle cx="144.35746744275093" cy="123.79016644424863" r="2" style="fill: steelblue;"></circle><circle cx="145.77519372105598" cy="85.86267133553822" r="2" style="fill: steelblue;"></circle><circle cx="125.96413902938366" cy="39.18867641025119" r="2" style="fill: steelblue;"></circle><circle cx="147.0668487250805" cy="66.45509931776259" r="2" style="fill: steelblue;"></circle><circle cx="187.1885046362877" cy="77.31500599119398" r="2" style="fill: steelblue;"></circle><circle cx="57.17853680253029" cy="148.35773242844476" r="2" style="fill: steelblue;"></circle><circle cx="79.9081776291132" cy="31.408839755588104" r="2" style="fill: steelblue;"></circle><circle cx="116.96953177452087" cy="20.684666103786896" r="2" style="fill: steelblue;"></circle><circle cx="117.42750033736229" cy="108.07867844899495" r="2" style="fill: steelblue;"></circle><circle cx="125.44469013810158" cy="63.92151448461745" r="2" style="fill: steelblue;"></circle><circle cx="112.44041975587606" cy="145.45768168237473" r="2" style="fill: steelblue;"></circle><circle cx="102.87044979631901" cy="19.891043504079175" r="2" style="fill: steelblue;"></circle><circle cx="158.92952159047127" cy="80.7776583565606" r="2" style="fill: steelblue;"></circle><circle cx="164.10452723503113" cy="80.72925276226468" r="2" style="fill: steelblue;"></circle><circle cx="135.22327914834023" cy="94.16867792606354" r="2" style="fill: steelblue;"></circle><circle cx="170.67334651947021" cy="118.95300696293512" r="2" style="fill: steelblue;"></circle><circle cx="81.70211724936962" cy="49.76828230751886" r="2" style="fill: steelblue;"></circle><circle cx="140.07722437381744" cy="21.111276414659287" r="2" style="fill: steelblue;"></circle><circle cx="134.89887714385986" cy="52.399290932549356" r="2" style="fill: steelblue;"></circle><circle cx="96.68241362087429" cy="103.74350845813751" r="2" style="fill: steelblue;"></circle><circle cx="35.9629899263382" cy="137.6202619738049" r="2" style="fill: steelblue;"></circle><circle cx="24.327798187732704" cy="78.90260219573975" r="2" style="fill: steelblue;"></circle><circle cx="35.54160743951798" cy="67.95788804690044" r="2" style="fill: steelblue;"></circle><circle cx="37.58175894618035" cy="149.4210660457611" r="2" style="fill: steelblue;"></circle><circle cx="59.596794098615646" cy="145.83131339814926" r="2" style="fill: steelblue;"></circle><circle cx="101.97493797168136" cy="106.68147231141725" r="2" style="fill: steelblue;"></circle></g></svg>