<svg xmlns="http://www.w3.org/2000/svg"><g transform="translate(40,20)"><circle cx="431.36942625045776" cy="156.47526495158672" r="3" style="fill: steelblue;"></circle><circle cx="348.7976217269898" cy="99.75470826029778" r="3" style="fill: steelblue;"></circle><circle cx="349.7120136022568" cy="81.86119645833969" r="3" style="fill: steelblue;"></circle><circle cx="185.76553702354434" cy="161.92405298352242" r="3" style="fill: steelblue;"></circle><circle cx="294.1421502828598" cy="138.30404840409756" r="3" style="fill: steelblue;"></circle><circle cx="424.4033718109131" cy="132.44999460875988" r="3" style="fill: steelblue;"></circle><circle cx="342.68349051475525" cy="112.57060468196869" r="3" style="fill: steelblue;"></circle><circle cx="263.71619269251823" cy="73.49352538585663" r="3" style="fill: steelblue;"></circle><circle cx="267.6593081653118" cy="71.5974435210228" r="3" style="fill: steelblue;"></circle><circle cx="369.78047132492065" cy="95.12451216578484" r="3" style="fill: steelblue;"></circle><circle cx="243.07968920096755" cy="129.83569651842117" r="3" style="fill: steelblue;"></circle><circle cx="260.06693333387375" cy="68.6019018292427" r="3" style="fill: steelblue;"></circle><circle cx="166.05915516614914" cy="234.1407373547554" r="3" style="fill: steelblue;"></circle><circle cx="324.08249616622925" cy="122.2244992852211" r="3" style="fill: steelblue;"></circle><circle cx="288.2930079102516" cy="166.80122269317508" r="3" style="fill: steelblue;"></circle><circle cx="255.47902487218383" cy="192.9009098559618" r="3" style="fill: steelblue;"></circle><circle cx="242.9797243885696" cy="181.76303328946233" r="3" style="fill: steelblue;"></circle><circle cx="304.25308138132095" cy="227.10238471627235" r="3" style="fill: steelblue;"></circle><circle cx="326.3139599561691" cy="105.76800927519798" r="3" style="fill: steelblue;"></circle><circle cx="428.43632340431213" cy="150.5058828741312" r="3" style="fill: steelblue;"></circle><circle cx="194.29940074682236" cy="202.80740223824978" r="3" style="fill: steelblue;"></circle><circle cx="125.9509527683258" cy="205.62192499637604" r="3" style="fill: steelblue;"></circle><circle cx="297.64484256505966" cy="173.87703930726275" r="3" style="fill: steelblue;"></circle><circle cx="386.5099632740021" cy="140.8002644777298" r="3" style="fill: steelblue;"></circle><circle cx="215.19817650318146" cy="93.87668967247009" r="3" style="fill: steelblue;"></circle><circle cx="141.32957696914673" cy="123.69115501642227" r="3" style="fill: steelblue;"></circle><circle cx="139.6068924665451" cy="241.6727177798748" r="3" style="fill: steelblue;"></circle><circle cx="323.54359567165375" cy="74.36216175556183" r="3" style="fill: steelblue;"></circle><circle cx="350.89550256729126" cy="187.47574891895056" r="3" style="fill: steelblue;"></circle><circle cx="378.42068016529083" cy="224.55556094646454" r="3" style="fill: steelblue;"></circle><circle cx="274.77584570646286" cy="216.82740300893784" r="3" style="fill: steelblue;"></circle><circle cx="215.78342109918594" cy="122.60991781949997" r="3" style="fill: steelblue;"></circle><circle cx="393.85776758193975" cy="203.92303243279457" r="3" style="fill: steelblue;"></circle><circle cx="116.74394845962526" cy="217.40197129547596" r="3" style="fill: steelblue;"></circle><circle cx="251.43247559666634" cy="142.81093403697014" r="3" style="fill: steelblue;"></circle><circle cx="225.0703876465559" cy="246.84790819883347" r="3" style="fill: steelblue;"></circle><circle cx="62.006106376647956" cy="231.23050928115845" r="3" style="fill: steelblue;"></circle><circle cx="219.92453947663307" cy="214.558195322752" r="3" style="fill: steelblue;"></circle><circle cx="324.6595376729965" cy="297.8746101260185" r="3" style="fill: steelblue;"></circle><circle cx="261.1225390434265" cy="125.89400708675385" r="3" style="fill: steelblue;"></circle><circle cx="144.70674633979797" cy="141.5440570563078" r="3" style="fill: steelblue;"></circle><circle cx="231.80465452373028" cy="222.46612310409546" r="3" style="fill: steelblue;"></circle><circle cx="166.8634915351868" cy="248.24314936995506" r="3" style="fill: steelblue;"></circle><circle cx="168.7180691957474" cy="222.19403013586998" r="3" style="fill: steelblue;"></circle><circle cx="172.4933186173439" cy="205.2126720547676" r="3" style="fill: steelblue;"></circle><circle cx="254.58428911864758" cy="288.1643369793892" r="3" style="fill: steelblue;"></circle><circle cx="275.5385921895504" cy="157.86169730126858" r="3" style="fill: steelblue;"></circle><circle cx="118.64747643470764" cy="253.66368293762207" r="3" style="fill: steelblue;"></circle><circle cx="367.4148166179657" cy="189.65745512396097" r="3" style="fill: steelblue;"></circle><circle cx="178.28969299793246" cy="212.93423771858215" r="3" style="fill: steelblue;"></circle><circle cx="329.5131558179856" cy="211.41509674489498" r="3" style="fill: steelblue;"></circle><circle cx="305.6798243522644" cy="185.55966075509787" r="3" style="fill: steelblue;"></circle><circle cx="261.3422544300556" cy="146.89830280840397" r="3" style="fill: steelblue;"></circle><circle cx="63.8569736480713" cy="270.29723078012466" r="3" style="fill: steelblue;"></circle><circle cx="71.2654495239258" cy="203.21330167353153" r="3" style="fill: steelblue;"></circle><circle cx="165.03181546926498" cy="195.77873460948467" r="3" style="fill: steelblue;"></circle><circle cx="228.7767802923918" cy="221.39597907662392" r="3" style="fill: steelblue;"></circle><circle cx="171.5987527370453" cy="324.6814340353012" r="3" style="fill: steelblue;"></circle><circle cx="154.20660316944122" cy="169.44054821506143" r="3" style="fill: steelblue;"></circle><circle cx="309.71518099308014" cy="187.18181904405355" r="3" style="fill: steelblue;"></circle><circle cx="113.75560104846956" cy="71.7078223824501" r="3" style="fill: steelblue;"></circle><circle cx="345.8172047138214" cy="128.67842391133308" r="3" style="fill: steelblue;"></circle><circle cx="226.99266873300076" cy="158.66084229201078" r="3" style="fill: steelblue;"></circle><circle cx="392.8524219989777" cy="95.58674842119217" r="3" style="fill: steelblue;"></circle><circle cx="297.9501673579216" cy="74.20593947172165" r="3" style="fill: steelblue;"></circle><circle cx="317.32453644275665" cy="86.084945499897" r="3" style="fill: steelblue;"></circle><circle cx="178.9759674668312" cy="141.12004190683365" r="3" style="fill: steelblue;"></circle><circle cx="339.2795526981354" cy="127.01105326414108" r="3" style="fill: steelblue;"></circle><circle cx="499.2885732650757" cy="62.33144998550415" r="3" style="fill: steelblue;"></circle><circle cx="272.31799453496933" cy="123.62873703241348" r="3" style="fill: steelblue;"></circle><circle cx="376.5344077348709" cy="130.13008534908295" r="3" style="fill: steelblue;"></circle><circle cx="269.30842861533165" cy="253.65152582526207" r="3" style="fill: steelblue;"></circle><circle cx="313.1167942285538" cy="149.50540624558926" r="3" style="fill: steelblue;"></circle><circle cx="352.6793771982193" cy="213.5876003652811" r="3" style="fill: steelblue;"></circle><circle cx="192.96943634748462" cy="174.67206606233958" r="3" style="fill: steelblue;"></circle><circle cx="205.30747041106227" cy="246.76069617271423" r="3" style="fill: steelblue;"></circle><circle cx="167.51123160123825" cy="172.44758906308562" r="3" style="fill: steelblue;"></circle><circle cx="128.0721598863602" cy="184.0205630287528" r="3" style="fill: steelblue;"></circle><circle cx="109.91372108459474" cy="175.01476220786572" r="3" style="fill: steelblue;"></circle><circle cx="124.23010110855103" cy="161.84867341071367" r="3" style="fill: steelblue;"></circle><circle cx="160.9201276302338" cy="178.08012254536152" r="3" style="fill: steelblue;"></circle><circle cx="361.6910809278488" cy="209.10356864333153" r="3" style="fill: steelblue;"></circle><circle cx="163.35110306739807" cy="225.99498182535172" r="3" style="fill: steelblue;"></circle><circle cx="314.38752204179764" cy="214.22485783696175" r="3" style="fill: steelblue;"></circle><circle cx="138.0611085891724" cy="212.23343051970005" r="3" style="fill: steelblue;"></circle><circle cx="337.6993292570114" cy="78.66848111152649" r="3" style="fill: steelblue;"></circle><circle cx="271.58094361424446" cy="125.69540441036224" r="3" style="fill: steelblue;"></circle><circle cx="331.98930859565735" cy="131.9915473461151" r="3" style="fill: steelblue;"></circle><circle cx="331.40911996364594" cy="116.96134582161903" r="3" style="fill: steelblue;"></circle><circle cx="378.60938251018524" cy="106.14504665136337" r="3" style="fill: steelblue;"></circle><circle cx="401.96526288986206" cy="163.5745583102107" r="3" style="fill: steelblue;"></circle><circle cx="361.2052345275879" cy="145.85131257772446" r="3" style="fill: steelblue;"></circle><circle cx="349.0073347091675" cy="154.28392849862576" r="3" style="fill: steelblue;"></circle><circle cx="274.41383466124535" cy="106.38980567455292" r="3" style="fill: steelblue;"></circle><circle cx="160.67164778709414" cy="232.81307220458984" r="3" style="fill: steelblue;"></circle><circle cx="288.19948822259903" cy="193.01024563610554" r="3" style="fill: steelblue;"></circle><circle cx="176.11120730638504" cy="225.38369968533516" r="3" style="fill: steelblue;"></circle><circle cx="83.9286231994629" cy="228.14892902970314" r="3" style="fill: steelblue;"></circle><circle cx="152.08052337169647" cy="202.33653709292412" r="3" style="fill: steelblue;"></circle><circle cx="363.4935700893402" cy="244.73178833723068" r="3" style="fill: steelblue;"></circle><circle cx="194.05147969722748" cy="204.96333129703999" r="3" style="fill: steelblue;"></circle><circle cx="218.56059595942497" cy="225.6507858633995" r="3" style="fill: steelblue;"></circle><circle cx="174.22840833663943" cy="154.62770462036133" r="3" style="fill: steelblue;"></circle><circle cx="132.44726300239563" cy="236.2605758011341" r="3" style="fill: steelblue;"></circle><circle cx="127.26636171340944" cy="122.9314997792244" r="3" style="fill: steelblue;"></circle><circle cx="174.1832399368286" cy="188.29511012881994" r="3" style="fill: steelblue;"></circle><circle cx="362.1015751361847" cy="169.78297159075737" r="3" style="fill: steelblue;"></circle><circle cx="258.2647727429867" cy="133.0752618610859" r="3" style="fill: steelblue;"></circle><circle cx="288.43453019857407" cy="54.62832599878311" r="3" style="fill: steelblue;"></circle><circle cx="335.73715031147003" cy="169.24666743725538" r="3" style="fill: steelblue;"></circle><circle cx="424.0862452983856" cy="66.28896296024323" r="3" style="fill: steelblue;"></circle><circle cx="320.4642409086228" cy="23.92885833978653" r="3" style="fill: steelblue;"></circle><circle cx="59.57411170005799" cy="292.5366625189781" r="3" style="fill: steelblue;"></circle><circle cx="237.89125523529947" cy="252.2064983844757" r="3" style="fill: steelblue;"></circle><circle cx="162.4065899848938" cy="136.4907741546631" r="3" style="fill: steelblue;"></circle><circle cx="200.31062453985217" cy="309.5369890332222" r="3" style="fill: steelblue;"></circle><circle cx="241.0009609395638" cy="266.4896607398987" r="3" style="fill: steelblue;"></circle><circle cx="240.03805607557297" cy="234.6432365477085" r="3" style="fill: steelblue;"></circle></g></svg>