<svg xmlns="http://www.w3.org/2000/svg"><rect width="200" height="200" fill="white"></rect><g><circle cx="49.440736323595054" cy="189.64693281385635" r="2" style="fill: steelblue;"></circle><circle cx="10.254172980785375" cy="150.21019842889572" r="2" style="fill: steelblue;"></circle><circle cx="80.15161976218224" cy="182.26556645499335" r="2" style="fill: steelblue;"></circle><circle cx="9.613199532032018" cy="159.15728939904108" r="2" style="fill: steelblue;"></circle><circle cx="108.55166837573051" cy="154.5184420214759" r="2" style="fill: steelblue;"></circle><circle cx="112.83165998756886" cy="152.43486563364664" r="2" style="fill: steelblue;"></circle><circle cx="92.46920133009553" cy="107.88470009962717" r="2" style="fill: steelblue;"></circle><circle cx="111.56646478921175" cy="189.52781624264188" r="2" style="fill: steelblue;"></circle><circle cx="68.11802685260773" cy="86.7094380988015" r="2" style="fill: steelblue;"></circle><circle cx="30.115744471549995" cy="141.29770464367337" r="2" style="fill: steelblue;"></circle><circle cx="137.38078102469444" cy="137.10881769657135" r="2" style="fill: steelblue;"></circle><circle cx="194.20305490493774" cy="121.50108814239502" r="2" style="fill: steelblue;"></circle><circle cx="50.89091360569" cy="57.25596348444621" r="2" style="fill: steelblue;"></circle><circle cx="149.9470718204975" cy="187.36073043611313" r="2" style="fill: steelblue;"></circle><circle cx="71.10303491353989" cy="90.64758320649464" r="2" style="fill: steelblue;"></circle><circle cx="93.50275192409754" cy="155.61590592066446" r="2" style="fill: steelblue;"></circle><circle cx="86.59608606249094" cy="161.9087689452701" r="2" style="fill: steelblue;"></circle><circle cx="18.793410062789924" cy="160.50245695643954" r="2" style="fill: steelblue;"></circle><circle cx="105.19089587032795" cy="65.64475761519537" r="2" style="fill: steelblue;"></circle><circle cx="138.18229958415031" cy="97.50138305955463" r="2" style="fill: steelblue;"></circle><circle cx="114.32687882333994" cy="118.28005231089062" r="2" style="fill: steelblue;"></circle><circle cx="162.0138719677925" cy="108.55088672704167" r="2" style="fill: steelblue;"></circle><circle cx="67.83742681145668" cy="91.85014830695258" r="2" style="fill: steelblue;"></circle><circle cx="123.74667674303055" cy="123.58466784159342" r="2" style="fill: steelblue;"></circle><circle cx="71.88305296003819" cy="181.8968388769362" r="2" style="fill: steelblue;"></circle><circle cx="25.144799053668983" cy="184.99832020865546" r="2" style="fill: steelblue;"></circle><circle cx="17.015425860881813" cy="156.10945887035794" r="2" style="fill: steelblue;"></circle><circle cx="99.38033655053005" cy="133.09863871998257" r="2" style="fill: steelblue;"></circle><circle cx="111.11164502799511" cy="134.24921366903516" r="2" style="fill: steelblue;"></circle><circle cx="0.12393146753311712" cy="96.87744246588812" r="2" style="fill: steelblue;"></circle><circle cx="163.54915350675583" cy="59.40194262398612" r="2" style="fill: steelblue;"></circle><circle cx="83.43529365956783" cy="92.33189788129594" r="2" style="fill: steelblue;"></circle><circle cx="124.57106672227383" cy="56.674900982115005" r="2" style="fill: steelblue;"></circle><circle cx="171.48727774620056" cy="77.8088437186347" r="2" style="fill: steelblue;"></circle><circle cx="70.32260149717331" cy="86.70820792516072" r="2" style="fill: steelblue;"></circle><circle cx="144.1575162112713" cy="183.61033995946246" r="2" style="fill: steelblue;"></circle><circle cx="69.76529434323311" cy="166.98004139794241" r="2" style="fill: steelblue;"></circle><circle cx="41.48950651288033" cy="68.58265068795946" r="2" style="fill: steelblue;"></circle><circle cx="91.30097310990095" cy="139.8671633667416" r="2" style="fill: steelblue;"></circle><circle cx="110.43182518333197" cy="74.52261116769579" r="2" style="fill: steelblue;"></circle><circle cx="81.62057623267174" cy="130.06757199764252" r="2" style="fill: steelblue;"></circle><circle cx="189.0357419848442" cy="54.387145572238495" r="2" style="fill: steelblue;"></circle><circle cx="130.81939555704594" cy="72.14348514874776" r="2" style="fill: steelblue;"></circle><circle cx="76.14837810397148" cy="72.09060589472453" r="2" style="fill: steelblue;"></circle><circle cx="155.1586113870144" cy="90.75199067592621" r="2" style="fill: steelblue;"></circle><circle cx="90.50129391252995" cy="124.10277790493436" r="2" style="fill: steelblue;"></circle><circle cx="98.8541123457253" cy="86.85181207127042" r="2" style="fill: steelblue;"></circle><circle cx="88.89902886003256" cy="171.7739701271057" r="2" style="fill: steelblue;"></circle><circle cx="82.71497152745724" cy="186.2087978257073" r="2" style="fill: steelblue;"></circle><circle cx="110.26028487831354" cy="160.99477807680765" r="2" style="fill: steelblue;"></circle><circle cx="104.81566740199924" cy="89.719091852506" r="2" style="fill: steelblue;"></circle><circle cx="27.506692707538612" cy="125.97526278760698" r="2" style="fill: steelblue;"></circle><circle cx="89.16967865079641" cy="156.86444772614374" r="2" style="fill: steelblue;"></circle><circle cx="93.60121507197618" cy="122.78804348574744" r="2" style="fill: steelblue;"></circle><circle cx="51.02372393012047" cy="92.91843242115445" r="2" style="fill: steelblue;"></circle><circle cx="78.1259186565876" cy="133.34956930743323" r="2" style="fill: steelblue;"></circle><circle cx="31.70063197612763" cy="176.90759234958225" r="2" style="fill: steelblue;"></circle><circle cx="78.49367186427116" cy="117.3078753054142" r="2" style="fill: steelblue;"></circle><circle cx="1.4002233743667658" cy="142.5992614693112" r="2" style="fill: steelblue;"></circle><circle cx="33.38712304830552" cy="137.60935763518015" r="2" style="fill: steelblue;"></circle><circle cx="47.03200832009316" cy="73.98586140738593" r="2" style="fill: steelblue;"></circle><circle cx="96.5886992868036" cy="53.04741859436035" r="2" style="fill: steelblue;"></circle><circle cx="60.1120688021183" cy="179.7645025783115" r="2" style="fill: steelblue;"></circle><circle cx="72.21745550632477" cy="197.71207703484427" r="2" style="fill: steelblue;"></circle><circle cx="89.38279040157795" cy="179.21254369947647" r="2" style="fill: steelblue;"></circle><circle cx="60.5245441198349" cy="195.51785124672782" r="2" style="fill: steelblue;"></circle><circle cx="43.34254041314126" cy="102.50826428333917" r="2" style="fill: steelblue;"></circle><circle cx="27.654527127742774" cy="144.04041237301297" r="2" style="fill: steelblue;"></circle><circle cx="80.18565028905869" cy="107.57108198271857" r="2" style="fill: steelblue;"></circle><circle cx="49.672132730484016" cy="153.22551793522305" r="2" style="fill: steelblue;"></circle><circle cx="38.49729374051095" cy="176.06814702351886" r="2" style="fill: steelblue;"></circle><circle cx="159.16834622621536" cy="60.30041641659207" r="2" style="fill: steelblue;"></circle><circle cx="179.22372967004776" cy="98.86386907762952" r="2" style="fill: steelblue;"></circle><circle cx="128.34412083029747" cy="73.87164235115051" r="2" style="fill: steelblue;"></circle><circle cx="129.9037452787161" cy="54.65043253368802" r="2" style="fill: steelblue;"></circle><circle cx="158.55709686875343" cy="124.19775790638394" r="2" style="fill: steelblue;"></circle><circle cx="126.94803662598133" cy="106.72048976023991" r="2" style="fill: steelblue;"></circle><circle cx="175.70669054985046" cy="62.36480342017279" r="2" style="fill: steelblue;"></circle><circle cx="150.24513229727745" cy="38.92539607153998" r="2" style="fill: steelblue;"></circle><circle cx="175.00185817480087" cy="162.97178798251682" r="2" style="fill: steelblue;"></circle><circle cx="60.691604763269424" cy="16.05015330844455" r="2" style="fill: steelblue;"></circle><circle cx="155.79719692468643" cy="48.853748374515106" r="2" style="fill: steelblue;"></circle><circle cx="139.1255058348179" cy="108.09868408573999" r="2" style="fill: steelblue;"></circle><circle cx="106.78302021697164" cy="69.82316904597812" r="2" style="fill: steelblue;"></circle><circle cx="88.24304435402155" cy="185.19178364011978" r="2" style="fill: steelblue;"></circle><circle cx="64.86565470695496" cy="153.2506313588884" r="2" style="fill: steelblue;"></circle><circle cx="78.85307297110558" cy="131.24686645136939" r="2" style="fill: steelblue;"></circle><circle cx="107.83716235309839" cy="64.58419892523024" r="2" style="fill: steelblue;"></circle><circle cx="118.9107321202755" cy="137.17000517580243" r="2" style="fill: steelblue;"></circle><circle cx="133.16590189933777" cy="11.724869410196948" r="2" style="fill: steelblue;"></circle><circle cx="160.61067059636116" cy="41.03200965457492" r="2" style="fill: steelblue;"></circle><circle cx="175.4849687218666" cy="44.63202423519559" r="2" style="fill: steelblue;"></circle><circle cx="144.35746744275093" cy="24.660964806874585" r="2" style="fill: steelblue;"></circle><circle cx="145.77519372105598" cy="92.54357881016202" r="2" style="fill: steelblue;"></circle><circle cx="125.96413902938366" cy="82.2710394859314" r="2" style="fill: steelblue;"></circle><circle cx="147.0668487250805" cy="48.5544999440511" r="2" style="fill: steelblue;"></circle><circle cx="187.1885046362877" cy="33.939500649770096" r="2" style="fill: steelblue;"></circle><circle cx="57.17853680253029" cy="117.20537187324629" r="2" style="fill: steelblue;"></circle><circle cx="79.9081776291132" cy="161.8003315395779" r="2" style="fill: steelblue;"></circle><circle cx="116.96953177452087" cy="65.54338335990906" r="2" style="fill: steelblue;"></circle><circle cx="117.42750033736229" cy="129.69772517681122" r="2" style="fill: steelblue;"></circle><circle cx="125.44469013810158" cy="82.9673707485199" r="2" style="fill: steelblue;"></circle><circle cx="112.44041975587606" cy="73.17587402131822" r="2" style="fill: steelblue;"></circle><circle cx="102.87044979631901" cy="89.93602130148146" r="2" style="fill: steelblue;"></circle><circle cx="158.92952159047127" cy="86.0108368926578" r="2" style="fill: steelblue;"></circle><circle cx="164.10452723503113" cy="75.43547948201497" r="2" style="fill: steelblue;"></circle><circle cx="135.22327914834023" cy="69.66552800602383" r="2" style="fill: steelblue;"></circle><circle cx="170.67334651947021" cy="117.27254341046014" r="2" style="fill: steelblue;"></circle><circle cx="81.70211724936962" cy="75.17330514060126" r="2" style="fill: steelblue;"></circle><circle cx="140.07722437381744" cy="66.85765584309895" r="2" style="fill: steelblue;"></circle><circle cx="134.89887714385986" cy="76.55754685401917" r="2" style="fill: steelblue;"></circle><circle cx="96.68241362087429" cy="131.67632619539896" r="2" style="fill: steelblue;"></circle><circle cx="35.9629899263382" cy="131.69049223264057" r="2" style="fill: steelblue;"></circle><circle cx="24.327798187732704" cy="90.96100926399231" r="2" style="fill: steelblue;"></circle><circle cx="35.54160743951798" cy="138.35177322228748" r="2" style="fill: steelblue;"></circle><circle cx="37.58175894618035" cy="166.29312104649014" r="2" style="fill: steelblue;"></circle><circle cx="59.596794098615646" cy="125.29161903593274" r="2" style="fill: steelblue;"></circle><circle cx="101.97493797168136" cy="96.65715363290575" r="2" style="fill: steelblue;"></circle></g></svg>