<svg xmlns="http://www.w3.org/2000/svg"><g><circle cx="18.77364441752434" cy="68.31309795379639" r="2" style="fill: steelblue;"></circle><circle cx="10.092175751924518" cy="49.01090322269334" r="2" style="fill: steelblue;"></circle><circle cx="27.72262617945671" cy="82.2656942738427" r="2" style="fill: steelblue;"></circle><circle cx="8.122126758098606" cy="61.410747634039986" r="2" style="fill: steelblue;"></circle><circle cx="21.546959131956104" cy="34.70790982246399" r="2" style="fill: steelblue;"></circle><circle cx="22.679667174816135" cy="55.45826355616252" r="2" style="fill: steelblue;"></circle><circle cx="42.12454725056887" cy="64.72678747442033" r="2" style="fill: steelblue;"></circle><circle cx="52.482656855136156" cy="48.39637767937448" r="2" style="fill: steelblue;"></circle><circle cx="24.81712512671948" cy="46.869658099280464" r="2" style="fill: steelblue;"></circle><circle cx="16.491784900426868" cy="56.21754477421443" r="2" style="fill: steelblue;"></circle><circle cx="23.789775744080547" cy="65.12721478939056" r="2" style="fill: steelblue;"></circle><circle cx="45.28168747201562" cy="30.76473391718335" r="2" style="fill: steelblue;"></circle><circle cx="23.925661295652393" cy="75.02628631061978" r="2" style="fill: steelblue;"></circle><circle cx="45.87369570508599" cy="33.048585222827064" r="2" style="fill: steelblue;"></circle><circle cx="24.52282160520554" cy="58.7404727935791" r="2" style="fill: steelblue;"></circle><circle cx="65.02355560660362" cy="50.700348450077904" r="2" style="fill: steelblue;"></circle><circle cx="42.20682540908456" cy="60.56431531906128" r="2" style="fill: steelblue;"></circle><circle cx="43.2642444036901" cy="50.65390898121728" r="2" style="fill: steelblue;"></circle><circle cx="40.58154411613941" cy="36.364609334203934" r="2" style="fill: steelblue;"></circle><circle cx="59.237853810191154" cy="51.619025733735825" r="2" style="fill: steelblue;"></circle><circle cx="70.09104192256927" cy="30.490760339630974" r="2" style="fill: steelblue;"></circle><circle cx="86.59239411354065" cy="29.239372412363686" r="2" style="fill: steelblue;"></circle><circle cx="59.1544222086668" cy="17.294455899132622" r="2" style="fill: steelblue;"></circle><circle cx="37.10161913186312" cy="50.195668472184074" r="2" style="fill: steelblue;"></circle><circle cx="55.01941051334143" cy="64.08722632461124" r="2" style="fill: steelblue;"></circle><circle cx="68.57640780508518" cy="57.01695730288824" r="2" style="fill: steelblue;"></circle><circle cx="40.96733424812555" cy="76.37870245509677" r="2" style="fill: steelblue;"></circle><circle cx="22.28404507040978" cy="80.7047446568807" r="2" style="fill: steelblue;"></circle><circle cx="33.766987919807434" cy="81.58115479681227" r="2" style="fill: steelblue;"></circle><circle cx="36.75711918622255" cy="47.465148857898185" r="2" style="fill: steelblue;"></circle><circle cx="82.30990096926689" cy="19.2877858877182" r="2" style="fill: steelblue;"></circle><circle cx="63.49350344389677" cy="11.357025305430103" r="2" style="fill: steelblue;"></circle><circle cx="49.47529030032456" cy="10.183651579750908" r="2" style="fill: steelblue;"></circle><circle cx="22.28951565921307" cy="24.73451958762275" r="2" style="fill: steelblue;"></circle><circle cx="21.930710598826412" cy="43.341713812616135" r="2" style="fill: steelblue;"></circle><circle cx="37.22610529512167" cy="30.561064018143547" r="2" style="fill: steelblue;"></circle><circle cx="43.18931624293327" cy="65.92477626270718" r="2" style="fill: steelblue;"></circle><circle cx="5.548692494630816" cy="53.95823816458385" r="2" style="fill: steelblue;"></circle><circle cx="28.197554126381874" cy="43.36403792517053" r="2" style="fill: steelblue;"></circle><circle cx="60.103143751621246" cy="71.14253706402249" r="2" style="fill: steelblue;"></circle><circle cx="31.554029509425163" cy="58.90392694208357" r="2" style="fill: steelblue;"></circle><circle cx="38.595583476126194" cy="56.878324349721275" r="2" style="fill: steelblue;"></circle><circle cx="46.57870549708605" cy="0.8089138401879192" r="2" style="fill: steelblue;"></circle><circle cx="81.25988319516182" cy="44.19508761105438" r="2" style="fill: steelblue;"></circle><circle cx="55.787788424640894" cy="53.01344411240684" r="2" style="fill: steelblue;"></circle><circle cx="88.25704008340836" cy="17.721299661530388" r="2" style="fill: steelblue;"></circle><circle cx="61.07336021959782" cy="42.656636238098145" r="2" style="fill: steelblue;"></circle><circle cx="10.087511688470844" cy="27.793449825710724" r="2" style="fill: steelblue;"></circle><circle cx="48.06002096738666" cy="55.889856649769676" r="2" style="fill: steelblue;"></circle><circle cx="40.497903898358345" cy="26.70749624570211" r="2" style="fill: steelblue;"></circle><circle cx="69.67574842274189" cy="50.744332952631844" r="2" style="fill: steelblue;"></circle><circle cx="46.964475605636835" cy="39.22022357583046" r="2" style="fill: steelblue;"></circle><circle cx="82.71610289812088" cy="20.227302445305718" r="2" style="fill: steelblue;"></circle><circle cx="30.397574603557587" cy="29.281183414989055" r="2" style="fill: steelblue;"></circle><circle cx="49.994825571775436" cy="51.894408298863304" r="2" style="fill: steelblue;"></circle><circle cx="27.169396355748177" cy="78.59651843706767" r="2" style="fill: steelblue;"></circle><circle cx="44.55640558153391" cy="48.25735398464733" r="2" style="fill: steelblue;"></circle><circle cx="55.75763359665871" cy="52.27552867598004" r="2" style="fill: steelblue;"></circle><circle cx="73.19408394396305" cy="56.9838328493966" r="2" style="fill: steelblue;"></circle><circle cx="28.61555591225624" cy="46.19532364110152" r="2" style="fill: steelblue;"></circle><circle cx="33.73589664697647" cy="57.09336631827884" r="2" style="fill: steelblue;"></circle><circle cx="36.65555287152529" cy="67.5916035970052" r="2" style="fill: steelblue;"></circle><circle cx="12.640117853879932" cy="54.72557428810332" r="2" style="fill: steelblue;"></circle><circle cx="18.518186360597614" cy="65.20281334718068" r="2" style="fill: steelblue;"></circle><circle cx="20.529517158865932" cy="77.60165068838332" r="2" style="fill: steelblue;"></circle><circle cx="50.68120384821668" cy="45.15384438758095" r="2" style="fill: steelblue;"></circle><circle cx="16.226264834403995" cy="61.50060660309262" r="2" style="fill: steelblue;"></circle><circle cx="19.223074615001682" cy="90.96373054716322" r="2" style="fill: steelblue;"></circle><circle cx="60.76844707131386" cy="70.00679704878065" r="2" style="fill: steelblue;"></circle><circle cx="44.157145731151104" cy="71.52709298663669" r="2" style="fill: steelblue;"></circle><circle cx="21.839874982833866" cy="36.123122771581016" r="2" style="fill: steelblue;"></circle><circle cx="54.374390468001366" cy="33.08233221371969" r="2" style="fill: steelblue;"></circle><circle cx="77.35967375338078" cy="52.464761005507576" r="2" style="fill: steelblue;"></circle><circle cx="73.16131629049778" cy="50.08112531569269" r="2" style="fill: steelblue;"></circle><circle cx="77.46240049600601" cy="21.01415329509312" r="2" style="fill: steelblue;"></circle><circle cx="75.32361820340157" cy="12.331720193227136" r="2" style="fill: steelblue;"></circle><circle cx="76.79305337369442" cy="32.92284177409278" r="2" style="fill: steelblue;"></circle><circle cx="76.1708665639162" cy="28.1172106663386" r="2" style="fill: steelblue;"></circle><circle cx="99.15905371308327" cy="17.14820762475332" r="2" style="fill: steelblue;"></circle><circle cx="84.94728729128838" cy="34.543258614010284" r="2" style="fill: steelblue;"></circle><circle cx="78.57625856995583" cy="16.50309496455723" r="2" style="fill: steelblue;"></circle><circle cx="97.28086292743683" cy="24.355682399537827" r="2" style="fill: steelblue;"></circle><circle cx="50.803859322331846" cy="18.22863949669732" r="2" style="fill: steelblue;"></circle><circle cx="39.8725189268589" cy="59.54763227038913" r="2" style="fill: steelblue;"></circle><circle cx="5.827374011278155" cy="65.65557519594829" r="2" style="fill: steelblue;"></circle><circle cx="45.47386867925525" cy="54.871281153625915" r="2" style="fill: steelblue;"></circle><circle cx="47.13931395672262" cy="48.148296525081" r="2" style="fill: steelblue;"></circle><circle cx="52.75513669475913" cy="30.490470594829986" r="2" style="fill: steelblue;"></circle><circle cx="56.66586076840758" cy="55.721004969543884" r="2" style="fill: steelblue;"></circle><circle cx="68.64220015704632" cy="28.33817501862844" r="2" style="fill: steelblue;"></circle><circle cx="80.90262413024902" cy="26.350090238783096" r="2" style="fill: steelblue;"></circle><circle cx="82.62165933847427" cy="16.788720422320903" r="2" style="fill: steelblue;"></circle><circle cx="53.82527499459684" cy="22.017049458291794" r="2" style="fill: steelblue;"></circle><circle cx="82.5751006603241" cy="7.229436768425835" r="2" style="fill: steelblue;"></circle><circle cx="78.67328748106956" cy="45.78335082365407" r="2" style="fill: steelblue;"></circle><circle cx="76.53436176478863" cy="2.2941357559628006" r="2" style="fill: steelblue;"></circle><circle cx="71.56208455562592" cy="0.9786215093400719" r="2" style="fill: steelblue;"></circle><circle cx="91.19991883635521" cy="42.04924566050371" r="2" style="fill: steelblue;"></circle><circle cx="44.10180374979973" cy="34.13751572370529" r="2" style="fill: steelblue;"></circle><circle cx="27.93262079358101" cy="20.0271252128813" r="2" style="fill: steelblue;"></circle><circle cx="38.83060645312071" cy="17.857082353697884" r="2" style="fill: steelblue;"></circle><circle cx="78.92517298460007" cy="51.033477154042984" r="2" style="fill: steelblue;"></circle><circle cx="45.698613580316305" cy="43.68602330279019" r="2" style="fill: steelblue;"></circle><circle cx="57.93696194887161" cy="27.915796637535095" r="2" style="fill: steelblue;"></circle><circle cx="94.73448544740677" cy="67.92498562071059" r="2" style="fill: steelblue;"></circle><circle cx="77.45325863361359" cy="66.52667721112569" r="2" style="fill: steelblue;"></circle><circle cx="19.457924365997318" cy="19.397875666618347" r="2" style="fill: steelblue;"></circle><circle cx="77.71980315446854" cy="52.72241036097209" r="2" style="fill: steelblue;"></circle><circle cx="88.68111968040466" cy="36.67820427152846" r="2" style="fill: steelblue;"></circle><circle cx="84.10805761814117" cy="17.614352371957565" r="2" style="fill: steelblue;"></circle><circle cx="88.72980549931526" cy="20.368663138813446" r="2" style="fill: steelblue;"></circle><circle cx="86.99582815170288" cy="8.640152878231477" r="2" style="fill: steelblue;"></circle><circle cx="30.394836515188217" cy="45.276966266747976" r="2" style="fill: steelblue;"></circle><circle cx="52.719716867432" cy="52.9746456278695" r="2" style="fill: steelblue;"></circle><circle cx="38.11027966439724" cy="62.34507030910916" r="2" style="fill: steelblue;"></circle><circle cx="17.902302742004398" cy="57.28318062093523" r="2" style="fill: steelblue;"></circle><circle cx="18.58516335487366" cy="67.78859694798787" r="2" style="fill: steelblue;"></circle><circle cx="49.591471860185266" cy="57.5536201397578" r="2" style="fill: steelblue;"></circle></g></svg>