<svg xmlns="http://www.w3.org/2000/svg"><g><circle cx="37.54728883504868" cy="174.69677180051804" r="2" style="fill: steelblue;"></circle><circle cx="20.184351503849037" cy="177.8316631913185" r="2" style="fill: steelblue;"></circle><circle cx="55.44525235891342" cy="118.41812022030354" r="2" style="fill: steelblue;"></circle><circle cx="16.24425351619721" cy="131.85142576694489" r="2" style="fill: steelblue;"></circle><circle cx="43.09391826391221" cy="150.24134367704391" r="2" style="fill: steelblue;"></circle><circle cx="45.35933434963227" cy="179.37252521514893" r="2" style="fill: steelblue;"></circle><circle cx="84.24909450113773" cy="118.91025900840759" r="2" style="fill: steelblue;"></circle><circle cx="104.96531371027231" cy="26.545456051826477" r="2" style="fill: steelblue;"></circle><circle cx="49.63425025343896" cy="64.13623541593552" r="2" style="fill: steelblue;"></circle><circle cx="32.983569800853736" cy="100.04337355494499" r="2" style="fill: steelblue;"></circle><circle cx="47.579551488161094" cy="121.03734575212002" r="2" style="fill: steelblue;"></circle><circle cx="90.56337494403124" cy="162.18737736344337" r="2" style="fill: steelblue;"></circle><circle cx="47.851322591304786" cy="87.1374424546957" r="2" style="fill: steelblue;"></circle><circle cx="91.74739141017199" cy="59.502752870321274" r="2" style="fill: steelblue;"></circle><circle cx="49.04564321041108" cy="101.64573069196194" r="2" style="fill: steelblue;"></circle><circle cx="130.04711121320724" cy="89.0678133815527" r="2" style="fill: steelblue;"></circle><circle cx="84.41365081816912" cy="146.96379974484444" r="2" style="fill: steelblue;"></circle><circle cx="86.5284888073802" cy="143.99970918893814" r="2" style="fill: steelblue;"></circle><circle cx="81.16308823227882" cy="65.49997106194496" r="2" style="fill: steelblue;"></circle><circle cx="118.47570762038231" cy="123.88588152825832" r="2" style="fill: steelblue;"></circle><circle cx="140.18208384513855" cy="90.76609965413809" r="2" style="fill: steelblue;"></circle><circle cx="173.1847882270813" cy="119.0523061901331" r="2" style="fill: steelblue;"></circle><circle cx="118.3088444173336" cy="113.01596779376268" r="2" style="fill: steelblue;"></circle><circle cx="74.20323826372623" cy="99.2728436482139" r="2" style="fill: steelblue;"></circle><circle cx="110.03882102668285" cy="77.10953839123249" r="2" style="fill: steelblue;"></circle><circle cx="137.15281561017036" cy="161.61780655384064" r="2" style="fill: steelblue;"></circle><circle cx="81.9346684962511" cy="134.62030738592148" r="2" style="fill: steelblue;"></circle><circle cx="44.56809014081956" cy="124.18193034827709" r="2" style="fill: steelblue;"></circle><circle cx="67.53397583961487" cy="195.7377403974533" r="2" style="fill: steelblue;"></circle><circle cx="73.5142383724451" cy="118.11507530510426" r="2" style="fill: steelblue;"></circle><circle cx="164.61980193853378" cy="91.22204165905714" r="2" style="fill: steelblue;"></circle><circle cx="126.98700688779354" cy="57.089122384786606" r="2" style="fill: steelblue;"></circle><circle cx="98.95058060064912" cy="35.10022759437561" r="2" style="fill: steelblue;"></circle><circle cx="44.57903131842614" cy="68.54167431592941" r="2" style="fill: steelblue;"></circle><circle cx="43.861421197652824" cy="76.9146703183651" r="2" style="fill: steelblue;"></circle><circle cx="74.45221059024334" cy="121.97572402656078" r="2" style="fill: steelblue;"></circle><circle cx="86.37863248586655" cy="131.50244802236557" r="2" style="fill: steelblue;"></circle><circle cx="11.097384989261633" cy="122.02630415558815" r="2" style="fill: steelblue;"></circle><circle cx="56.39510825276375" cy="160.36277115345" r="2" style="fill: steelblue;"></circle><circle cx="120.20628750324249" cy="190.34442156553268" r="2" style="fill: steelblue;"></circle><circle cx="63.10805901885033" cy="123.58686737716198" r="2" style="fill: steelblue;"></circle><circle cx="77.19116695225239" cy="51.672524213790894" r="2" style="fill: steelblue;"></circle><circle cx="93.1574109941721" cy="68.23098883032799" r="2" style="fill: steelblue;"></circle><circle cx="162.51976639032364" cy="41.23188778758049" r="2" style="fill: steelblue;"></circle><circle cx="111.57557684928179" cy="50.300831347703934" r="2" style="fill: steelblue;"></circle><circle cx="176.5140801668167" cy="64.3365815281868" r="2" style="fill: steelblue;"></circle><circle cx="122.14672043919563" cy="43.61208379268646" r="2" style="fill: steelblue;"></circle><circle cx="20.175023376941688" cy="180.81454783678055" r="2" style="fill: steelblue;"></circle><circle cx="96.12004193477333" cy="88.98427095264196" r="2" style="fill: steelblue;"></circle><circle cx="80.99580779671669" cy="163.25668841600418" r="2" style="fill: steelblue;"></circle><circle cx="139.35149684548378" cy="186.10626310110092" r="2" style="fill: steelblue;"></circle><circle cx="93.92895121127367" cy="185.93029528856277" r="2" style="fill: steelblue;"></circle><circle cx="165.43220579624176" cy="107.61906988918781" r="2" style="fill: steelblue;"></circle><circle cx="60.79514920711517" cy="94.40905451774597" r="2" style="fill: steelblue;"></circle><circle cx="99.98965114355087" cy="124.6212687343359" r="2" style="fill: steelblue;"></circle><circle cx="54.33879271149635" cy="196.8482568860054" r="2" style="fill: steelblue;"></circle><circle cx="89.11281116306782" cy="104.65029058977962" r="2" style="fill: steelblue;"></circle><circle cx="111.51526719331741" cy="109.57472063601017" r="2" style="fill: steelblue;"></circle><circle cx="146.3881678879261" cy="119.8621079325676" r="2" style="fill: steelblue;"></circle><circle cx="57.23111182451248" cy="161.0506795346737" r="2" style="fill: steelblue;"></circle><circle cx="67.47179329395294" cy="67.90976822376251" r="2" style="fill: steelblue;"></circle><circle cx="73.31110574305058" cy="164.38160687685013" r="2" style="fill: steelblue;"></circle><circle cx="25.280235707759864" cy="180.2195444703102" r="2" style="fill: steelblue;"></circle><circle cx="37.03637272119523" cy="146.1723618209362" r="2" style="fill: steelblue;"></circle><circle cx="41.059034317731864" cy="150.89353397488594" r="2" style="fill: steelblue;"></circle><circle cx="101.36240769643337" cy="188.09743076562881" r="2" style="fill: steelblue;"></circle><circle cx="32.45252966880799" cy="170.48000395298004" r="2" style="fill: steelblue;"></circle><circle cx="38.446149230003364" cy="69.09401006996632" r="2" style="fill: steelblue;"></circle><circle cx="121.53689414262772" cy="198.7505316734314" r="2" style="fill: steelblue;"></circle><circle cx="88.31429146230221" cy="97.96504247933626" r="2" style="fill: steelblue;"></circle><circle cx="43.67974996566773" cy="138.00245374441147" r="2" style="fill: steelblue;"></circle><circle cx="108.74878093600273" cy="60.109781473875046" r="2" style="fill: steelblue;"></circle><circle cx="154.71934750676155" cy="41.78956747055054" r="2" style="fill: steelblue;"></circle><circle cx="146.32263258099556" cy="48.46324622631073" r="2" style="fill: steelblue;"></circle><circle cx="154.92480099201202" cy="43.772535771131516" r="2" style="fill: steelblue;"></circle><circle cx="150.64723640680313" cy="28.18310856819153" r="2" style="fill: steelblue;"></circle><circle cx="153.58610674738884" cy="79.34063524007797" r="2" style="fill: steelblue;"></circle><circle cx="152.3417331278324" cy="70.95953300595284" r="2" style="fill: steelblue;"></circle><circle cx="198.31810742616653" cy="73.88790547847748" r="2" style="fill: steelblue;"></circle><circle cx="169.89457458257675" cy="25.224237143993378" r="2" style="fill: steelblue;"></circle><circle cx="157.15251713991165" cy="32.628944516181946" r="2" style="fill: steelblue;"></circle><circle cx="194.56172585487366" cy="6.261809170246124" r="2" style="fill: steelblue;"></circle><circle cx="101.60771864466369" cy="21.059615910053253" r="2" style="fill: steelblue;"></circle><circle cx="79.7450378537178" cy="107.73201137781143" r="2" style="fill: steelblue;"></circle><circle cx="11.65474802255631" cy="147.5938804447651" r="2" style="fill: steelblue;"></circle><circle cx="90.9477373585105" cy="153.92974615097046" r="2" style="fill: steelblue;"></circle><circle cx="94.27862791344523" cy="111.67180296033621" r="2" style="fill: steelblue;"></circle><circle cx="105.51027338951826" cy="110.74547972530127" r="2" style="fill: steelblue;"></circle><circle cx="113.33172153681517" cy="123.65417964756489" r="2" style="fill: steelblue;"></circle><circle cx="137.28440031409264" cy="49.98963922262192" r="2" style="fill: steelblue;"></circle><circle cx="161.80524826049805" cy="77.47292555868626" r="2" style="fill: steelblue;"></circle><circle cx="165.24331867694855" cy="7.165259122848511" r="2" style="fill: steelblue;"></circle><circle cx="107.65054998919368" cy="87.84686997532845" r="2" style="fill: steelblue;"></circle><circle cx="165.1502013206482" cy="12.053845822811127" r="2" style="fill: steelblue;"></circle><circle cx="157.34657496213913" cy="53.521545976400375" r="2" style="fill: steelblue;"></circle><circle cx="153.06872352957726" cy="1.1205807328224182" r="2" style="fill: steelblue;"></circle><circle cx="143.12416911125183" cy="93.00275044515729" r="2" style="fill: steelblue;"></circle><circle cx="182.39983767271042" cy="87.7218659967184" r="2" style="fill: steelblue;"></circle><circle cx="88.20360749959946" cy="79.31797988712788" r="2" style="fill: steelblue;"></circle><circle cx="55.86524158716202" cy="71.30310721695423" r="2" style="fill: steelblue;"></circle><circle cx="77.66121290624142" cy="71.57514840364456" r="2" style="fill: steelblue;"></circle><circle cx="157.85034596920013" cy="46.610212326049805" r="2" style="fill: steelblue;"></circle><circle cx="91.39722716063261" cy="102.66738166101277" r="2" style="fill: steelblue;"></circle><circle cx="115.87392389774323" cy="58.741288632154465" r="2" style="fill: steelblue;"></circle><circle cx="189.46897089481354" cy="77.39743813872337" r="2" style="fill: steelblue;"></circle><circle cx="154.90651726722717" cy="182.97376334667206" r="2" style="fill: steelblue;"></circle><circle cx="38.915848731994636" cy="78.31860184669495" r="2" style="fill: steelblue;"></circle><circle cx="155.43960630893707" cy="144.5682555437088" r="2" style="fill: steelblue;"></circle><circle cx="177.36223936080933" cy="98.41691448818892" r="2" style="fill: steelblue;"></circle><circle cx="168.21611523628235" cy="40.92392921447754" r="2" style="fill: steelblue;"></circle><circle cx="177.45961099863052" cy="81.05049692094326" r="2" style="fill: steelblue;"></circle><circle cx="173.99165630340576" cy="67.04642102122307" r="2" style="fill: steelblue;"></circle><circle cx="60.789673030376434" cy="148.86659979820251" r="2" style="fill: steelblue;"></circle><circle cx="105.439433734864" cy="165.68440794944763" r="2" style="fill: steelblue;"></circle><circle cx="76.22055932879448" cy="98.99427522905171" r="2" style="fill: steelblue;"></circle><circle cx="35.804605484008796" cy="138.61914202570915" r="2" style="fill: steelblue;"></circle><circle cx="37.17032670974732" cy="171.05223089456558" r="2" style="fill: steelblue;"></circle><circle cx="99.18294372037053" cy="133.81073474884033" r="2" style="fill: steelblue;"></circle></g></svg>