<svg xmlns="http://www.w3.org/2000/svg"><g><circle cx="121.61954823467467" cy="155.16088008880615" r="2" style="fill: steelblue;"></circle><circle cx="87.00083030594719" cy="166.17728620767593" r="2" style="fill: steelblue;"></circle><circle cx="89.8856586880154" cy="92.01553221791983" r="2" style="fill: steelblue;"></circle><circle cx="78.96788252724541" cy="141.37863591313362" r="2" style="fill: steelblue;"></circle><circle cx="34.85655122333103" cy="168.9161792397499" r="2" style="fill: steelblue;"></circle><circle cx="88.51338260703616" cy="109.16293542832136" r="2" style="fill: steelblue;"></circle><circle cx="134.28691360685562" cy="138.9871597290039" r="2" style="fill: steelblue;"></circle><circle cx="70.77695594893562" cy="189.89330381155014" r="2" style="fill: steelblue;"></circle><circle cx="87.09773586855995" cy="141.8611280620098" r="2" style="fill: steelblue;"></circle><circle cx="170.34140560362076" cy="148.88495430350304" r="2" style="fill: steelblue;"></circle><circle cx="102.5827071732945" cy="130.7536330074072" r="2" style="fill: steelblue;"></circle><circle cx="127.34911176893446" cy="76.83318704366684" r="2" style="fill: steelblue;"></circle><circle cx="74.32587941487631" cy="130.2406121045351" r="2" style="fill: steelblue;"></circle><circle cx="82.46574799219766" cy="90.33271335065365" r="2" style="fill: steelblue;"></circle><circle cx="86.78204152319167" cy="162.3643510043621" r="2" style="fill: steelblue;"></circle><circle cx="21.147463056776257" cy="139.78559002280235" r="2" style="fill: steelblue;"></circle><circle cx="129.28371462557052" cy="72.74463437497616" r="2" style="fill: steelblue;"></circle><circle cx="146.09742495748733" cy="123.07642623782158" r="2" style="fill: steelblue;"></circle><circle cx="127.36736403571234" cy="117.28104054927826" r="2" style="fill: steelblue;"></circle><circle cx="140.88137613402472" cy="40.71919471025467" r="2" style="fill: steelblue;"></circle><circle cx="182.95236428578693" cy="65.58215841650963" r="2" style="fill: steelblue;"></circle><circle cx="142.00426472557913" cy="117.83194579184055" r="2" style="fill: steelblue;"></circle><circle cx="41.00339942508274" cy="144.8274500668049" r="2" style="fill: steelblue;"></circle><circle cx="73.16012846099007" cy="143.2848446071148" r="2" style="fill: steelblue;"></circle><circle cx="46.05933692720201" cy="157.74693563580513" r="2" style="fill: steelblue;"></circle><circle cx="118.62331380446751" cy="183.77107232809067" r="2" style="fill: steelblue;"></circle><circle cx="73.71679610676235" cy="144.97119411826134" r="2" style="fill: steelblue;"></circle><circle cx="96.17303477393257" cy="94.42638177424669" r="2" style="fill: steelblue;"></circle><circle cx="95.55372099081674" cy="179.4968605041504" r="2" style="fill: steelblue;"></circle><circle cx="150.62595076031155" cy="104.87057957798243" r="2" style="fill: steelblue;"></circle><circle cx="114.03849182857407" cy="46.60442695021629" r="2" style="fill: steelblue;"></circle><circle cx="84.30497348308563" cy="22.013603150844574" r="2" style="fill: steelblue;"></circle><circle cx="159.82827213075424" cy="62.952617555856705" r="2" style="fill: steelblue;"></circle><circle cx="156.21655186017352" cy="60.88312566280365" r="2" style="fill: steelblue;"></circle><circle cx="115.45570774210823" cy="69.26894783973694" r="2" style="fill: steelblue;"></circle><circle cx="102.82138486703236" cy="49.86850395798683" r="2" style="fill: steelblue;"></circle><circle cx="45.9219151073032" cy="65.9898392856121" r="2" style="fill: steelblue;"></circle><circle cx="71.8380974398719" cy="113.36106844246387" r="2" style="fill: steelblue;"></circle><circle cx="52.5924629635281" cy="161.21644750237465" r="2" style="fill: steelblue;"></circle><circle cx="54.799669318728974" cy="161.76239997148514" r="2" style="fill: steelblue;"></circle><circle cx="85.12121107843187" cy="99.48464997578412" r="2" style="fill: steelblue;"></circle><circle cx="146.46363920635648" cy="134.19728204607964" r="2" style="fill: steelblue;"></circle><circle cx="106.55015334486961" cy="15.108054876327515" r="2" style="fill: steelblue;"></circle><circle cx="155.27875224749246" cy="76.26281715929508" r="2" style="fill: steelblue;"></circle><circle cx="129.73345981703864" cy="57.017045468091965" r="2" style="fill: steelblue;"></circle><circle cx="167.18200842539468" cy="113.94324004650116" r="2" style="fill: steelblue;"></circle><circle cx="165.30576348304749" cy="94.29711326956749" r="2" style="fill: steelblue;"></circle><circle cx="67.17816326353285" cy="34.635281562805176" r="2" style="fill: steelblue;"></circle><circle cx="51.840762297312416" cy="145.14891281723976" r="2" style="fill: steelblue;"></circle><circle cx="112.81230331708987" cy="138.09282928705215" r="2" style="fill: steelblue;"></circle><circle cx="22.228691313001843" cy="89.50494825839996" r="2" style="fill: steelblue;"></circle><circle cx="75.38895474539864" cy="85.92202924191952" r="2" style="fill: steelblue;"></circle><circle cx="110.5413503634433" cy="65.68775922060013" r="2" style="fill: steelblue;"></circle><circle cx="91.42283764150407" cy="46.12585753202438" r="2" style="fill: steelblue;"></circle><circle cx="111.34991013548441" cy="125.85951052606106" r="2" style="fill: steelblue;"></circle><circle cx="81.11354377534654" cy="184.79484915733337" r="2" style="fill: steelblue;"></circle><circle cx="129.9162424272961" cy="179.70796525478363" r="2" style="fill: steelblue;"></circle><circle cx="88.34241992897456" cy="87.25109361112118" r="2" style="fill: steelblue;"></circle><circle cx="105.93245385421646" cy="136.81528195738792" r="2" style="fill: steelblue;"></circle><circle cx="69.16602121459114" cy="118.96839775145054" r="2" style="fill: steelblue;"></circle><circle cx="84.02213950951894" cy="108.63450579345226" r="2" style="fill: steelblue;"></circle><circle cx="49.71721437242296" cy="33.61365795135498" r="2" style="fill: steelblue;"></circle><circle cx="22.187219725714787" cy="180.41411638259888" r="2" style="fill: steelblue;"></circle><circle cx="122.27735088931189" cy="155.097546428442" r="2" style="fill: steelblue;"></circle><circle cx="76.62165496084425" cy="92.42248432710767" r="2" style="fill: steelblue;"></circle><circle cx="70.83092464341057" cy="71.84170596301556" r="2" style="fill: steelblue;"></circle><circle cx="78.55240503946939" cy="106.93051191046834" r="2" style="fill: steelblue;"></circle><circle cx="79.347163438797" cy="171.59635424613953" r="2" style="fill: steelblue;"></circle><circle cx="91.40988190968831" cy="182.36510306596756" r="2" style="fill: steelblue;"></circle><circle cx="58.35306975576613" cy="105.60140004381537" r="2" style="fill: steelblue;"></circle><circle cx="62.805400954352486" cy="155.79886958003044" r="2" style="fill: steelblue;"></circle><circle cx="111.15480793523602" cy="42.85060465335846" r="2" style="fill: steelblue;"></circle><circle cx="162.17645009358722" cy="78.50332781672478" r="2" style="fill: steelblue;"></circle><circle cx="156.44850002394782" cy="48.82042706012726" r="2" style="fill: steelblue;"></circle><circle cx="125.37346945868597" cy="65.44473245739937" r="2" style="fill: steelblue;"></circle><circle cx="153.49125862121582" cy="100.82907540490851" r="2" style="fill: steelblue;"></circle><circle cx="105.69813847541809" cy="48.846038430929184" r="2" style="fill: steelblue;"></circle><circle cx="117.62432919608221" cy="58.862897008657455" r="2" style="fill: steelblue;"></circle><circle cx="167.98863146040176" cy="89.41477574408054" r="2" style="fill: steelblue;"></circle><circle cx="161.67232394218445" cy="101.33758143056184" r="2" style="fill: steelblue;"></circle><circle cx="106.56592870752017" cy="105.930470302701" r="2" style="fill: steelblue;"></circle><circle cx="129.3969733847512" cy="36.50773912668228" r="2" style="fill: steelblue;"></circle><circle cx="132.3944197760688" cy="61.065154522657394" r="2" style="fill: steelblue;"></circle><circle cx="111.66492140748434" cy="152.31165140867233" r="2" style="fill: steelblue;"></circle><circle cx="66.79257419374254" cy="172.8205069899559" r="2" style="fill: steelblue;"></circle><circle cx="72.34279645813835" cy="131.35117515921593" r="2" style="fill: steelblue;"></circle><circle cx="96.90782924493153" cy="130.43681383132935" r="2" style="fill: steelblue;"></circle><circle cx="105.96961817807622" cy="64.57988396286964" r="2" style="fill: steelblue;"></circle><circle cx="86.12096971935695" cy="133.11702236533165" r="2" style="fill: steelblue;"></circle><circle cx="156.01433979140387" cy="72.02233970165253" r="2" style="fill: steelblue;"></circle><circle cx="177.63664325078327" cy="60.13178303837776" r="2" style="fill: steelblue;"></circle><circle cx="101.94593750768237" cy="64.85781669616699" r="2" style="fill: steelblue;"></circle><circle cx="161.77418165736728" cy="67.84631535410881" r="2" style="fill: steelblue;"></circle><circle cx="111.7736188073953" cy="39.30096551775932" r="2" style="fill: steelblue;"></circle><circle cx="142.17090275552536" cy="54.03672382235527" r="2" style="fill: steelblue;"></circle><circle cx="168.86201832029556" cy="21.139322221279144" r="2" style="fill: steelblue;"></circle><circle cx="157.59433640374075" cy="29.59929257631302" r="2" style="fill: steelblue;"></circle><circle cx="155.33291631274753" cy="53.911714255809784" r="2" style="fill: steelblue;"></circle><circle cx="146.20666702588397" cy="85.79735495150089" r="2" style="fill: steelblue;"></circle><circle cx="133.32486318217383" cy="65.14277905225754" r="2" style="fill: steelblue;"></circle><circle cx="124.05299312538571" cy="18.20552945137024" r="2" style="fill: steelblue;"></circle><circle cx="140.72760608461166" cy="82.14737139642239" r="2" style="fill: steelblue;"></circle><circle cx="127.50810219181908" cy="51.16446539759636" r="2" style="fill: steelblue;"></circle><circle cx="126.4910962846544" cy="112.94311136007309" r="2" style="fill: steelblue;"></circle><circle cx="186.00647979312473" cy="110.86629368364811" r="2" style="fill: steelblue;"></circle><circle cx="144.51635546154446" cy="83.52148197591305" r="2" style="fill: steelblue;"></circle><circle cx="151.85832977294922" cy="88.44848945736885" r="2" style="fill: steelblue;"></circle><circle cx="125.62246455086601" cy="114.88176360726357" r="2" style="fill: steelblue;"></circle><circle cx="121.00459552473492" cy="78.44504006206989" r="2" style="fill: steelblue;"></circle><circle cx="135.65885689523483" cy="80.91165348887444" r="2" style="fill: steelblue;"></circle><circle cx="151.49656931559244" cy="37.663521617650986" r="2" style="fill: steelblue;"></circle><circle cx="144.97750335269504" cy="63.674310594797134" r="2" style="fill: steelblue;"></circle><circle cx="69.12723183631897" cy="107.01999524608254" r="2" style="fill: steelblue;"></circle><circle cx="96.9882325993644" cy="162.00572848320007" r="2" style="fill: steelblue;"></circle><circle cx="47.25121789508396" cy="180.2736058831215" r="2" style="fill: steelblue;"></circle><circle cx="36.13342179192437" cy="79.36909832060337" r="2" style="fill: steelblue;"></circle><circle cx="61.199085579978096" cy="164.4480362534523" r="2" style="fill: steelblue;"></circle><circle cx="146.32383982340497" cy="90.45514594763517" r="2" style="fill: steelblue;"></circle></g></svg>