<svg xmlns="http://www.w3.org/2000/svg"><g transform="translate(40,20)"><circle cx="417.72736608982086" cy="183.0099026672542" r="3" style="fill: steelblue;"></circle><circle cx="329.9423038959503" cy="124.46326268836856" r="3" style="fill: steelblue;"></circle><circle cx="465.0030791759491" cy="172.65454555745237" r="3" style="fill: steelblue;"></circle><circle cx="427.63177156448364" cy="143.85081240907311" r="3" style="fill: steelblue;"></circle><circle cx="431.95421397686005" cy="72.60804455727339" r="3" style="fill: steelblue;"></circle><circle cx="473.13918471336365" cy="39.633044227957726" r="3" style="fill: steelblue;"></circle><circle cx="290.9536678344011" cy="39.8918978869915" r="3" style="fill: steelblue;"></circle><circle cx="377.66568660736084" cy="119.88789420574903" r="3" style="fill: steelblue;"></circle><circle cx="392.4568623304367" cy="87.59341314435005" r="3" style="fill: steelblue;"></circle><circle cx="495.0160324573517" cy="65.7129317522049" r="3" style="fill: steelblue;"></circle><circle cx="432.67385959625244" cy="72.65375759452581" r="3" style="fill: steelblue;"></circle><circle cx="322.43172079324717" cy="187.77824770659208" r="3" style="fill: steelblue;"></circle><circle cx="371.3753119111061" cy="103.22293005883694" r="3" style="fill: steelblue;"></circle><circle cx="289.16010707616806" cy="78.57298962771893" r="3" style="fill: steelblue;"></circle><circle cx="405.05772829055786" cy="195.74544923380017" r="3" style="fill: steelblue;"></circle><circle cx="273.671755939722" cy="91.81070812046528" r="3" style="fill: steelblue;"></circle><circle cx="325.65192729234695" cy="42.66353435814381" r="3" style="fill: steelblue;"></circle><circle cx="318.64895671606064" cy="87.64769248664379" r="3" style="fill: steelblue;"></circle><circle cx="463.67765665054316" cy="78.58481556177139" r="3" style="fill: steelblue;"></circle><circle cx="472.14324474334717" cy="205.0590144470334" r="3" style="fill: steelblue;"></circle><circle cx="309.89646390080446" cy="76.59233473241329" r="3" style="fill: steelblue;"></circle><circle cx="469.2459762096405" cy="54.04701940715313" r="3" style="fill: steelblue;"></circle><circle cx="350.2136930823326" cy="83.39275531470776" r="3" style="fill: steelblue;"></circle><circle cx="459.5446586608887" cy="40.13655260205269" r="3" style="fill: steelblue;"></circle><circle cx="200.68800151348114" cy="151.36248893104494" r="3" style="fill: steelblue;"></circle><circle cx="305.8133002370596" cy="124.22694284468889" r="3" style="fill: steelblue;"></circle><circle cx="334.708122164011" cy="137.77053514495492" r="3" style="fill: steelblue;"></circle><circle cx="236.3959193229675" cy="148.6298881471157" r="3" style="fill: steelblue;"></circle><circle cx="200.75160562992096" cy="174.35092173836892" r="3" style="fill: steelblue;"></circle><circle cx="292.0863155275583" cy="230.59550877660513" r="3" style="fill: steelblue;"></circle><circle cx="317.31649450957775" cy="159.79130445048213" r="3" style="fill: steelblue;"></circle><circle cx="319.73259150981903" cy="129.46562953293324" r="3" style="fill: steelblue;"></circle><circle cx="341.57855808734894" cy="210.7436672784388" r="3" style="fill: steelblue;"></circle><circle cx="58.579015731811516" cy="181.74373807851225" r="3" style="fill: steelblue;"></circle><circle cx="323.1938995420933" cy="251.96658838540316" r="3" style="fill: steelblue;"></circle><circle cx="202.95799970626828" cy="55.30114211142063" r="3" style="fill: steelblue;"></circle><circle cx="188.8749361038208" cy="243.44579428434372" r="3" style="fill: steelblue;"></circle><circle cx="208.66400599479675" cy="184.70034953206778" r="3" style="fill: steelblue;"></circle><circle cx="192.36235320568085" cy="108.04183520376682" r="3" style="fill: steelblue;"></circle><circle cx="410.48823595046997" cy="232.74554051458836" r="3" style="fill: steelblue;"></circle><circle cx="405.5218040943146" cy="131.6043079830706" r="3" style="fill: steelblue;"></circle><circle cx="207.25050866603848" cy="141.53100941330194" r="3" style="fill: steelblue;"></circle><circle cx="198.20260405540463" cy="188.8266405556351" r="3" style="fill: steelblue;"></circle><circle cx="266.5011964738369" cy="231.28699343651533" r="3" style="fill: steelblue;"></circle><circle cx="147.4622905254364" cy="191.55290462076664" r="3" style="fill: steelblue;"></circle><circle cx="221.334707736969" cy="158.1702469382435" r="3" style="fill: steelblue;"></circle><circle cx="193.62610280513763" cy="313.2495630532503" r="3" style="fill: steelblue;"></circle><circle cx="291.08879026025534" cy="265.3480565175414" r="3" style="fill: steelblue;"></circle><circle cx="119.06064748764038" cy="175.20708090778498" r="3" style="fill: steelblue;"></circle><circle cx="260.13087183237076" cy="225.90724304318428" r="3" style="fill: steelblue;"></circle><circle cx="399.24330711364746" cy="153.27034327201545" r="3" style="fill: steelblue;"></circle><circle cx="237.19139099121094" cy="186.5649673389271" r="3" style="fill: steelblue;"></circle><circle cx="315.3746780008077" cy="247.91338965296745" r="3" style="fill: steelblue;"></circle><circle cx="186.08288168907166" cy="188.05666891857982" r="3" style="fill: steelblue;"></circle><circle cx="230.27590066194534" cy="184.69365425407887" r="3" style="fill: steelblue;"></circle><circle cx="448.11317324638367" cy="239.3635978922248" r="3" style="fill: steelblue;"></circle><circle cx="415.2603954076767" cy="241.13815296441317" r="3" style="fill: steelblue;"></circle><circle cx="270.72623893618584" cy="235.07134448736906" r="3" style="fill: steelblue;"></circle><circle cx="230.46255111694336" cy="293.8416015356779" r="3" style="fill: steelblue;"></circle><circle cx="266.98147505521774" cy="123.42893024906516" r="3" style="fill: steelblue;"></circle><circle cx="480.2382230758667" cy="159.26199448294938" r="3" style="fill: steelblue;"></circle><circle cx="271.8162976205349" cy="36.74708604812622" r="3" style="fill: steelblue;"></circle><circle cx="488.07728290557856" cy="167.9230292327702" r="3" style="fill: steelblue;"></circle><circle cx="375.202077627182" cy="221.07840906828642" r="3" style="fill: steelblue;"></circle><circle cx="426.5413910150528" cy="45.45806646347046" r="3" style="fill: steelblue;"></circle><circle cx="435.0666582584381" cy="66.17621630430222" r="3" style="fill: steelblue;"></circle><circle cx="450.35861134529114" cy="101.57379247248173" r="3" style="fill: steelblue;"></circle><circle cx="288.4808801114559" cy="153.00396801903844" r="3" style="fill: steelblue;"></circle><circle cx="422.00391590595245" cy="38.565802574157715" r="3" style="fill: steelblue;"></circle><circle cx="517.593777179718" cy="163.47193573601544" r="3" style="fill: steelblue;"></circle><circle cx="421.37148678302765" cy="108.55340790003538" r="3" style="fill: steelblue;"></circle><circle cx="368.65618228912354" cy="197.38879445940256" r="3" style="fill: steelblue;"></circle><circle cx="144.44283843040466" cy="98.19639958441257" r="3" style="fill: steelblue;"></circle><circle cx="367.6186010241508" cy="222.800418920815" r="3" style="fill: steelblue;"></circle><circle cx="143.292635679245" cy="170.72067591361701" r="3" style="fill: steelblue;"></circle><circle cx="382.41190910339355" cy="112.91578244417906" r="3" style="fill: steelblue;"></circle><circle cx="262.5616393983364" cy="96.99666053056717" r="3" style="fill: steelblue;"></circle><circle cx="179.0974259376526" cy="197.7970564737916" r="3" style="fill: steelblue;"></circle><circle cx="96.81884050369263" cy="148.6821400001645" r="3" style="fill: steelblue;"></circle><circle cx="90.50976634025574" cy="192.44844857603312" r="3" style="fill: steelblue;"></circle><circle cx="280.67779764533043" cy="197.94234139844775" r="3" style="fill: steelblue;"></circle><circle cx="94.62609887123108" cy="201.01353777572513" r="3" style="fill: steelblue;"></circle><circle cx="194.70341205596924" cy="257.86130148917437" r="3" style="fill: steelblue;"></circle><circle cx="291.8673360720277" cy="138.69855804368854" r="3" style="fill: steelblue;"></circle><circle cx="384.89117324352264" cy="103.17702796310186" r="3" style="fill: steelblue;"></circle><circle cx="422.0234870910644" cy="93.96544676274061" r="3" style="fill: steelblue;"></circle><circle cx="408.2004636526108" cy="176.06064885039814" r="3" style="fill: steelblue;"></circle><circle cx="243.6743125319481" cy="210.47652112320065" r="3" style="fill: steelblue;"></circle><circle cx="289.81441855430603" cy="254.57492396235466" r="3" style="fill: steelblue;"></circle><circle cx="424.12129640579224" cy="206.74506733193994" r="3" style="fill: steelblue;"></circle><circle cx="378.51395308971405" cy="192.61746034026146" r="3" style="fill: steelblue;"></circle><circle cx="340.15941470861435" cy="97.52272553741932" r="3" style="fill: steelblue;"></circle><circle cx="282.62118324637413" cy="230.2538800984621" r="3" style="fill: steelblue;"></circle><circle cx="226.11631304025647" cy="173.63569348235615" r="3" style="fill: steelblue;"></circle><circle cx="375.56272745132446" cy="193.58899276703596" r="3" style="fill: steelblue;"></circle><circle cx="217.85218119621274" cy="215.07674427703023" r="3" style="fill: steelblue;"></circle><circle cx="298.0517691001296" cy="189.94299178011715" r="3" style="fill: steelblue;"></circle><circle cx="273.4004482626915" cy="229.9967149272561" r="3" style="fill: steelblue;"></circle><circle cx="209.01409685611725" cy="237.76167929172516" r="3" style="fill: steelblue;"></circle><circle cx="277.4747371673584" cy="174.6960137214046" r="3" style="fill: steelblue;"></circle><circle cx="353.6987766623497" cy="111.72600481659174" r="3" style="fill: steelblue;"></circle><circle cx="181.87218010425568" cy="231.04921001940966" r="3" style="fill: steelblue;"></circle><circle cx="221.64852619171143" cy="170.15628215158358" r="3" style="fill: steelblue;"></circle><circle cx="97.15213179588318" cy="116.47062301635742" r="3" style="fill: steelblue;"></circle><circle cx="207.27137625217438" cy="272.4971270188689" r="3" style="fill: steelblue;"></circle><circle cx="381.46813809871674" cy="243.81125085055828" r="3" style="fill: steelblue;"></circle><circle cx="507.36225843429565" cy="245.48080675303936" r="3" style="fill: steelblue;"></circle><circle cx="368.9957857131958" cy="18.542488291859627" r="3" style="fill: steelblue;"></circle><circle cx="404.9647629261017" cy="47.75298871099949" r="3" style="fill: steelblue;"></circle><circle cx="416.6475623846054" cy="76.1780098080635" r="3" style="fill: steelblue;"></circle><circle cx="517.1347618103027" cy="17.025000602006912" r="3" style="fill: steelblue;"></circle><circle cx="316.4160590618849" cy="13.085426017642021" r="3" style="fill: steelblue;"></circle><circle cx="364.8401990532875" cy="56.39302656054497" r="3" style="fill: steelblue;"></circle><circle cx="312.3966917395591" cy="291.46282859146595" r="3" style="fill: steelblue;"></circle><circle cx="143.9010500907898" cy="130.9180191718042" r="3" style="fill: steelblue;"></circle><circle cx="274.8260222375393" cy="289.4358869642019" r="3" style="fill: steelblue;"></circle><circle cx="240.37340730428693" cy="279.7966033220291" r="3" style="fill: steelblue;"></circle><circle cx="175.5110263824463" cy="186.7903429782018" r="3" style="fill: steelblue;"></circle></g></svg>