<svg xmlns="http://www.w3.org/2000/svg"><g><circle cx="40.13993516564369" cy="68.31309795379639" r="2" style="fill: steelblue;"></circle><circle cx="21.13747708499432" cy="49.01090322269334" r="2" style="fill: steelblue;"></circle><circle cx="41.410703398287296" cy="82.2656942738427" r="2" style="fill: steelblue;"></circle><circle cx="41.934376768767834" cy="61.410747634039986" r="2" style="fill: steelblue;"></circle><circle cx="31.376908719539642" cy="34.70790982246399" r="2" style="fill: steelblue;"></circle><circle cx="52.29633180424571" cy="55.45826355616252" r="2" style="fill: steelblue;"></circle><circle cx="73.84800277650356" cy="64.72678747442033" r="2" style="fill: steelblue;"></circle><circle cx="66.10059291124344" cy="48.39637767937448" r="2" style="fill: steelblue;"></circle><circle cx="63.02329171448946" cy="46.869658099280464" r="2" style="fill: steelblue;"></circle><circle cx="39.22432400286198" cy="56.21754477421443" r="2" style="fill: steelblue;"></circle><circle cx="43.52963361889124" cy="65.12721478939056" r="2" style="fill: steelblue;"></circle><circle cx="29.642115533351898" cy="30.76473391718335" r="2" style="fill: steelblue;"></circle><circle cx="62.995229102671146" cy="75.02628631061978" r="2" style="fill: steelblue;"></circle><circle cx="66.54906384646893" cy="33.048585222827064" r="2" style="fill: steelblue;"></circle><circle cx="21.29430435597897" cy="58.7404727935791" r="2" style="fill: steelblue;"></circle><circle cx="22.47245162725449" cy="50.700348450077904" r="2" style="fill: steelblue;"></circle><circle cx="52.03125877305865" cy="60.56431531906128" r="2" style="fill: steelblue;"></circle><circle cx="75.31152404844761" cy="50.65390898121728" r="2" style="fill: steelblue;"></circle><circle cx="42.33862664550543" cy="36.364609334203934" r="2" style="fill: steelblue;"></circle><circle cx="51.836681040003896" cy="51.619025733735825" r="2" style="fill: steelblue;"></circle><circle cx="45.81391690298915" cy="30.490760339630974" r="2" style="fill: steelblue;"></circle><circle cx="67.80821941792965" cy="29.239372412363686" r="2" style="fill: steelblue;"></circle><circle cx="74.24517646431923" cy="17.294455899132622" r="2" style="fill: steelblue;"></circle><circle cx="14.118011295795444" cy="50.195668472184074" r="2" style="fill: steelblue;"></circle><circle cx="25.759651511907578" cy="64.08722632461124" r="2" style="fill: steelblue;"></circle><circle cx="19.22787092626095" cy="57.01695730288824" r="2" style="fill: steelblue;"></circle><circle cx="45.346732437610626" cy="76.37870245509677" r="2" style="fill: steelblue;"></circle><circle cx="21.943249925971035" cy="80.7047446568807" r="2" style="fill: steelblue;"></circle><circle cx="34.483253210783005" cy="81.58115479681227" r="2" style="fill: steelblue;"></circle><circle cx="81.4960852265358" cy="47.465148857898185" r="2" style="fill: steelblue;"></circle><circle cx="41.99958052486181" cy="19.2877858877182" r="2" style="fill: steelblue;"></circle><circle cx="57.946169935166836" cy="11.357025305430103" r="2" style="fill: steelblue;"></circle><circle cx="68.23710091412067" cy="10.183651579750908" r="2" style="fill: steelblue;"></circle><circle cx="55.351061932742596" cy="24.73451958762275" r="2" style="fill: steelblue;"></circle><circle cx="79.34523485600948" cy="43.341713812616135" r="2" style="fill: steelblue;"></circle><circle cx="34.82839949429035" cy="30.561064018143547" r="2" style="fill: steelblue;"></circle><circle cx="52.063336316496134" cy="65.92477626270718" r="2" style="fill: steelblue;"></circle><circle cx="0.3024742007255582" cy="53.95823816458385" r="2" style="fill: steelblue;"></circle><circle cx="13.87368813157082" cy="43.36403792517053" r="2" style="fill: steelblue;"></circle><circle cx="31.005588546395302" cy="71.14253706402249" r="2" style="fill: steelblue;"></circle><circle cx="7.258123904466632" cy="58.90392694208357" r="2" style="fill: steelblue;"></circle><circle cx="71.92235924303532" cy="56.878324349721275" r="2" style="fill: steelblue;"></circle><circle cx="77.5073479861021" cy="0.8089138401879192" r="2" style="fill: steelblue;"></circle><circle cx="50.38677331758663" cy="44.19508761105438" r="2" style="fill: steelblue;"></circle><circle cx="58.318773470818996" cy="53.01344411240684" r="2" style="fill: steelblue;"></circle><circle cx="60.702140629291534" cy="17.721299661530388" r="2" style="fill: steelblue;"></circle><circle cx="63.45237623900175" cy="42.656636238098145" r="2" style="fill: steelblue;"></circle><circle cx="5.1159404218196896" cy="27.793449825710724" r="2" style="fill: steelblue;"></circle><circle cx="55.66911231726408" cy="55.889856649769676" r="2" style="fill: steelblue;"></circle><circle cx="44.920533150434494" cy="26.70749624570211" r="2" style="fill: steelblue;"></circle><circle cx="50.336524564772844" cy="50.744332952631844" r="2" style="fill: steelblue;"></circle><circle cx="60.70739142596722" cy="39.22022357583046" r="2" style="fill: steelblue;"></circle><circle cx="27.229276672005653" cy="20.227302445305718" r="2" style="fill: steelblue;"></circle><circle cx="20.551796257495884" cy="29.281183414989055" r="2" style="fill: steelblue;"></circle><circle cx="36.256605945527554" cy="51.894408298863304" r="2" style="fill: steelblue;"></circle><circle cx="1.6530409455299404" cy="78.59651843706767" r="2" style="fill: steelblue;"></circle><circle cx="37.92556952685118" cy="48.25735398464733" r="2" style="fill: steelblue;"></circle><circle cx="44.59347827360034" cy="52.27552867598004" r="2" style="fill: steelblue;"></circle><circle cx="52.88381869904697" cy="56.9838328493966" r="2" style="fill: steelblue;"></circle><circle cx="56.55291462317109" cy="46.19532364110152" r="2" style="fill: steelblue;"></circle><circle cx="38.13251685351133" cy="57.09336631827884" r="2" style="fill: steelblue;"></circle><circle cx="49.02234657201916" cy="67.5916035970052" r="2" style="fill: steelblue;"></circle><circle cx="22.87085093557835" cy="54.72557428810332" r="2" style="fill: steelblue;"></circle><circle cx="2.321544289588931" cy="65.20281334718068" r="2" style="fill: steelblue;"></circle><circle cx="10.947629064321521" cy="77.60165068838332" r="2" style="fill: steelblue;"></circle><circle cx="29.92471419274807" cy="45.15384438758095" r="2" style="fill: steelblue;"></circle><circle cx="3.9655707776546505" cy="61.50060660309262" r="2" style="fill: steelblue;"></circle><circle cx="11.777597665786747" cy="90.96373054716322" r="2" style="fill: steelblue;"></circle><circle cx="46.1834114510566" cy="70.00679704878065" r="2" style="fill: steelblue;"></circle><circle cx="17.2628790140152" cy="71.52709298663669" r="2" style="fill: steelblue;"></circle><circle cx="73.59387651085854" cy="36.123122771581016" r="2" style="fill: steelblue;"></circle><circle cx="96.83225974440575" cy="33.08233221371969" r="2" style="fill: steelblue;"></circle><circle cx="93.12372952699661" cy="52.464761005507576" r="2" style="fill: steelblue;"></circle><circle cx="54.34363167732954" cy="50.08112531569269" r="2" style="fill: steelblue;"></circle><circle cx="83.90581905841827" cy="21.01415329509312" r="2" style="fill: steelblue;"></circle><circle cx="26.68212465941906" cy="12.331720193227136" r="2" style="fill: steelblue;"></circle><circle cx="81.19284100830555" cy="32.92284177409278" r="2" style="fill: steelblue;"></circle><circle cx="73.47132004797459" cy="28.1172106663386" r="2" style="fill: steelblue;"></circle><circle cx="64.45701345801353" cy="17.14820762475332" r="2" style="fill: steelblue;"></circle><circle cx="87.56362199783325" cy="34.543258614010284" r="2" style="fill: steelblue;"></circle><circle cx="41.69659707695246" cy="16.50309496455723" r="2" style="fill: steelblue;"></circle><circle cx="82.89661929011345" cy="24.355682399537827" r="2" style="fill: steelblue;"></circle><circle cx="27.26118005812168" cy="18.22863949669732" r="2" style="fill: steelblue;"></circle><circle cx="17.317990958690647" cy="59.54763227038913" r="2" style="fill: steelblue;"></circle><circle cx="45.0300557538867" cy="65.65557519594829" r="2" style="fill: steelblue;"></circle><circle cx="46.554320910945535" cy="54.871281153625915" r="2" style="fill: steelblue;"></circle><circle cx="62.899366207420826" cy="48.148296525081" r="2" style="fill: steelblue;"></circle><circle cx="54.50519332662225" cy="30.490470594829986" r="2" style="fill: steelblue;"></circle><circle cx="58.813878521323204" cy="55.721004969543884" r="2" style="fill: steelblue;"></circle><circle cx="65.06856083869934" cy="28.33817501862844" r="2" style="fill: steelblue;"></circle><circle cx="59.11391992121935" cy="26.350090238783096" r="2" style="fill: steelblue;"></circle><circle cx="52.75250896811485" cy="16.788720422320903" r="2" style="fill: steelblue;"></circle><circle cx="71.80277183651924" cy="22.017049458291794" r="2" style="fill: steelblue;"></circle><circle cx="77.43457071483135" cy="7.229436768425835" r="2" style="fill: steelblue;"></circle><circle cx="78.96015532314777" cy="45.78335082365407" r="2" style="fill: steelblue;"></circle><circle cx="72.73613028228283" cy="2.2941357559628006" r="2" style="fill: steelblue;"></circle><circle cx="78.4857377409935" cy="0.9786215093400719" r="2" style="fill: steelblue;"></circle><circle cx="14.792352169752125" cy="42.04924566050371" r="2" style="fill: steelblue;"></circle><circle cx="16.62603318691254" cy="34.13751572370529" r="2" style="fill: steelblue;"></circle><circle cx="89.79546576738358" cy="20.0271252128813" r="2" style="fill: steelblue;"></circle><circle cx="90.12355208396912" cy="17.857082353697884" r="2" style="fill: steelblue;"></circle><circle cx="65.07910527288914" cy="51.033477154042984" r="2" style="fill: steelblue;"></circle><circle cx="46.6153409332037" cy="43.68602330279019" r="2" style="fill: steelblue;"></circle><circle cx="12.23004907369614" cy="27.915796637535095" r="2" style="fill: steelblue;"></circle><circle cx="77.51004137098789" cy="67.92498562071059" r="2" style="fill: steelblue;"></circle><circle cx="28.962920606136322" cy="66.52667721112569" r="2" style="fill: steelblue;"></circle><circle cx="50.08733564754948" cy="19.397875666618347" r="2" style="fill: steelblue;"></circle><circle cx="55.883955396711826" cy="52.72241036097209" r="2" style="fill: steelblue;"></circle><circle cx="40.88849499821663" cy="36.67820427152846" r="2" style="fill: steelblue;"></circle><circle cx="72.47589081525803" cy="17.614352371957565" r="2" style="fill: steelblue;"></circle><circle cx="55.462946370244026" cy="20.368663138813446" r="2" style="fill: steelblue;"></circle><circle cx="85.39767116308212" cy="8.640152878231477" r="2" style="fill: steelblue;"></circle><circle cx="33.80422592163086" cy="45.276966266747976" r="2" style="fill: steelblue;"></circle><circle cx="37.976052798330784" cy="52.9746456278695" r="2" style="fill: steelblue;"></circle><circle cx="32.139986008405685" cy="62.34507030910916" r="2" style="fill: steelblue;"></circle><circle cx="3.18204537034035" cy="57.28318062093523" r="2" style="fill: steelblue;"></circle><circle cx="30.622893199324608" cy="67.78859694798787" r="2" style="fill: steelblue;"></circle><circle cx="30.931272730231285" cy="57.5536201397578" r="2" style="fill: steelblue;"></circle></g></svg>