<svg xmlns="http://www.w3.org/2000/svg"><g><circle cx="18.77364441752434" cy="75.27963183820248" r="2" style="fill: steelblue;"></circle><circle cx="10.092175751924518" cy="94.87291350960732" r="2" style="fill: steelblue;"></circle><circle cx="27.72262617945671" cy="59.92419011890888" r="2" style="fill: steelblue;"></circle><circle cx="8.122126758098606" cy="95.193400233984" r="2" style="fill: steelblue;"></circle><circle cx="21.546959131956104" cy="45.72416581213474" r="2" style="fill: steelblue;"></circle><circle cx="22.679667174816135" cy="43.58417000621557" r="2" style="fill: steelblue;"></circle><circle cx="42.12454725056887" cy="53.765399334952235" r="2" style="fill: steelblue;"></circle><circle cx="52.482656855136156" cy="44.216767605394125" r="2" style="fill: steelblue;"></circle><circle cx="24.81712512671948" cy="65.94098657369614" r="2" style="fill: steelblue;"></circle><circle cx="16.491784900426868" cy="84.942127764225" r="2" style="fill: steelblue;"></circle><circle cx="23.789775744080547" cy="31.30960948765278" r="2" style="fill: steelblue;"></circle><circle cx="45.28168747201562" cy="2.898472547531128" r="2" style="fill: steelblue;"></circle><circle cx="23.925661295652393" cy="74.554543197155" r="2" style="fill: steelblue;"></circle><circle cx="45.87369570508599" cy="25.026464089751244" r="2" style="fill: steelblue;"></circle><circle cx="24.52282160520554" cy="64.44848254323006" r="2" style="fill: steelblue;"></circle><circle cx="65.02355560660362" cy="53.24862403795123" r="2" style="fill: steelblue;"></circle><circle cx="42.20682540908456" cy="56.70195696875453" r="2" style="fill: steelblue;"></circle><circle cx="43.2642444036901" cy="90.60329496860504" r="2" style="fill: steelblue;"></circle><circle cx="40.58154411613941" cy="47.404552064836025" r="2" style="fill: steelblue;"></circle><circle cx="59.237853810191154" cy="30.908850207924843" r="2" style="fill: steelblue;"></circle><circle cx="70.09104192256927" cy="42.83656058833003" r="2" style="fill: steelblue;"></circle><circle cx="86.59239411354065" cy="18.993064016103745" r="2" style="fill: steelblue;"></circle><circle cx="59.1544222086668" cy="66.08128659427166" r="2" style="fill: steelblue;"></circle><circle cx="37.10161913186312" cy="38.126661628484726" r="2" style="fill: steelblue;"></circle><circle cx="55.01941051334143" cy="64.05847351998091" r="2" style="fill: steelblue;"></circle><circle cx="68.57640780508518" cy="87.42760047316551" r="2" style="fill: steelblue;"></circle><circle cx="40.96733424812555" cy="91.4922870695591" r="2" style="fill: steelblue;"></circle><circle cx="22.28404507040978" cy="50.30983172473498" r="2" style="fill: steelblue;"></circle><circle cx="33.766987919807434" cy="44.444177486002445" r="2" style="fill: steelblue;"></circle><circle cx="36.75711918622255" cy="99.93803426623344" r="2" style="fill: steelblue;"></circle><circle cx="82.30990096926689" cy="18.225423246622086" r="2" style="fill: steelblue;"></circle><circle cx="63.49350344389677" cy="58.28235317021608" r="2" style="fill: steelblue;"></circle><circle cx="49.47529030032456" cy="37.71446663886309" r="2" style="fill: steelblue;"></circle><circle cx="22.28951565921307" cy="14.25636112689972" r="2" style="fill: steelblue;"></circle><circle cx="21.930710598826412" cy="64.83869925141335" r="2" style="fill: steelblue;"></circle><circle cx="37.22610529512167" cy="27.921241894364357" r="2" style="fill: steelblue;"></circle><circle cx="43.18931624293327" cy="65.11735282838345" r="2" style="fill: steelblue;"></circle><circle cx="5.548692494630816" cy="79.25524674355984" r="2" style="fill: steelblue;"></circle><circle cx="28.197554126381874" cy="54.349513445049524" r="2" style="fill: steelblue;"></circle><circle cx="60.103143751621246" cy="44.78408740833402" r="2" style="fill: steelblue;"></circle><circle cx="31.554029509425163" cy="59.18971188366413" r="2" style="fill: steelblue;"></circle><circle cx="38.595583476126194" cy="5.482129007577896" r="2" style="fill: steelblue;"></circle><circle cx="46.57870549708605" cy="34.59030222147703" r="2" style="fill: steelblue;"></circle><circle cx="81.25988319516182" cy="61.92581094801426" r="2" style="fill: steelblue;"></circle><circle cx="55.787788424640894" cy="22.420694306492805" r="2" style="fill: steelblue;"></circle><circle cx="88.25704008340836" cy="54.74935304373503" r="2" style="fill: steelblue;"></circle><circle cx="61.07336021959782" cy="50.57294382713735" r="2" style="fill: steelblue;"></circle><circle cx="10.087511688470844" cy="55.55048556998372" r="2" style="fill: steelblue;"></circle><circle cx="48.06002096738666" cy="58.64251423627138" r="2" style="fill: steelblue;"></circle><circle cx="40.497903898358345" cy="44.86985756084323" r="2" style="fill: steelblue;"></circle><circle cx="69.67574842274189" cy="47.59216629900038" r="2" style="fill: steelblue;"></circle><circle cx="46.964475605636835" cy="86.2466536462307" r="2" style="fill: steelblue;"></circle><circle cx="82.71610289812088" cy="55.41516067460179" r="2" style="fill: steelblue;"></circle><circle cx="30.397574603557587" cy="53.19939246401191" r="2" style="fill: steelblue;"></circle><circle cx="49.994825571775436" cy="74.48813803493977" r="2" style="fill: steelblue;"></circle><circle cx="27.169396355748177" cy="60.9370406717062" r="2" style="fill: steelblue;"></circle><circle cx="44.55640558153391" cy="84.14968401193619" r="2" style="fill: steelblue;"></circle><circle cx="55.75763359665871" cy="60.75316406786442" r="2" style="fill: steelblue;"></circle><circle cx="73.19408394396305" cy="99.29988831281662" r="2" style="fill: steelblue;"></circle><circle cx="28.61555591225624" cy="83.30643847584724" r="2" style="fill: steelblue;"></circle><circle cx="33.73589664697647" cy="76.48399583995342" r="2" style="fill: steelblue;"></circle><circle cx="36.65555287152529" cy="51.7056503565982" r="2" style="fill: steelblue;"></circle><circle cx="12.640117853879932" cy="69.94396559894085" r="2" style="fill: steelblue;"></circle><circle cx="18.518186360597614" cy="63.891272246837616" r="2" style="fill: steelblue;"></circle><circle cx="20.529517158865932" cy="55.308604799211025" r="2" style="fill: steelblue;"></circle><circle cx="50.68120384821668" cy="69.73772794008255" r="2" style="fill: steelblue;"></circle><circle cx="16.226264834403995" cy="78.32872979342937" r="2" style="fill: steelblue;"></circle><circle cx="19.223074615001682" cy="86.17273643612862" r="2" style="fill: steelblue;"></circle><circle cx="60.76844707131386" cy="59.90717485547066" r="2" style="fill: steelblue;"></circle><circle cx="44.157145731151104" cy="75.163933634758" r="2" style="fill: steelblue;"></circle><circle cx="21.839874982833866" cy="80.75135312974453" r="2" style="fill: steelblue;"></circle><circle cx="54.374390468001366" cy="20.41582688689232" r="2" style="fill: steelblue;"></circle><circle cx="77.35967375338078" cy="10.38813516497612" r="2" style="fill: steelblue;"></circle><circle cx="73.16131629049778" cy="35.827939584851265" r="2" style="fill: steelblue;"></circle><circle cx="77.46240049600601" cy="35.048127360641956" r="2" style="fill: steelblue;"></circle><circle cx="75.32361820340157" cy="20.721451565623283" r="2" style="fill: steelblue;"></circle><circle cx="76.79305337369442" cy="36.525981687009335" r="2" style="fill: steelblue;"></circle><circle cx="76.1708665639162" cy="12.146654725074768" r="2" style="fill: steelblue;"></circle><circle cx="99.15905371308327" cy="24.877433851361275" r="2" style="fill: steelblue;"></circle><circle cx="84.94728729128838" cy="12.499070912599564" r="2" style="fill: steelblue;"></circle><circle cx="78.57625856995583" cy="69.65419761836529" r="2" style="fill: steelblue;"></circle><circle cx="97.28086292743683" cy="22.101401537656784" r="2" style="fill: steelblue;"></circle><circle cx="50.803859322331846" cy="30.437247082591057" r="2" style="fill: steelblue;"></circle><circle cx="39.8725189268589" cy="46.60848989151418" r="2" style="fill: steelblue;"></circle><circle cx="5.827374011278155" cy="55.878477822989225" r="2" style="fill: steelblue;"></circle><circle cx="45.47386867925525" cy="67.56717264652252" r="2" style="fill: steelblue;"></circle><circle cx="47.13931395672262" cy="60.57346351444721" r="2" style="fill: steelblue;"></circle><circle cx="52.75513669475913" cy="46.081418823450804" r="2" style="fill: steelblue;"></circle><circle cx="56.66586076840758" cy="40.54463393986225" r="2" style="fill: steelblue;"></circle><circle cx="68.64220015704632" cy="33.417049050331116" r="2" style="fill: steelblue;"></circle><circle cx="80.90262413024902" cy="19.69466470181942" r="2" style="fill: steelblue;"></circle><circle cx="82.62165933847427" cy="12.257515639066696" r="2" style="fill: steelblue;"></circle><circle cx="53.82527499459684" cy="27.821266278624535" r="2" style="fill: steelblue;"></circle><circle cx="82.5751006603241" cy="27.112403139472008" r="2" style="fill: steelblue;"></circle><circle cx="78.67328748106956" cy="37.01793048530817" r="2" style="fill: steelblue;"></circle><circle cx="76.53436176478863" cy="26.466575637459755" r="2" style="fill: steelblue;"></circle><circle cx="71.56208455562592" cy="6.405747681856155" r="2" style="fill: steelblue;"></circle><circle cx="91.19991883635521" cy="71.41073159873486" r="2" style="fill: steelblue;"></circle><circle cx="44.10180374979973" cy="60.0459111854434" r="2" style="fill: steelblue;"></circle><circle cx="27.93262079358101" cy="41.51523411273956" r="2" style="fill: steelblue;"></circle><circle cx="38.83060645312071" cy="41.286249831318855" r="2" style="fill: steelblue;"></circle><circle cx="78.92517298460007" cy="37.27765493094921" r="2" style="fill: steelblue;"></circle><circle cx="45.698613580316305" cy="43.77979012206197" r="2" style="fill: steelblue;"></circle><circle cx="57.93696194887161" cy="48.564775101840496" r="2" style="fill: steelblue;"></circle><circle cx="94.73448544740677" cy="20.535239204764366" r="2" style="fill: steelblue;"></circle><circle cx="77.45325863361359" cy="17.947736382484436" r="2" style="fill: steelblue;"></circle><circle cx="19.457924365997318" cy="32.38836042582989" r="2" style="fill: steelblue;"></circle><circle cx="77.71980315446854" cy="14.663326740264893" r="2" style="fill: steelblue;"></circle><circle cx="88.68111968040466" cy="59.14894137531519" r="2" style="fill: steelblue;"></circle><circle cx="84.10805761814117" cy="29.961387813091278" r="2" style="fill: steelblue;"></circle><circle cx="88.72980549931526" cy="32.55056142807007" r="2" style="fill: steelblue;"></circle><circle cx="86.99582815170288" cy="51.65879318956286" r="2" style="fill: steelblue;"></circle><circle cx="30.394836515188217" cy="82.0185050368309" r="2" style="fill: steelblue;"></circle><circle cx="52.719716867432" cy="87.83610090613365" r="2" style="fill: steelblue;"></circle><circle cx="38.11027966439724" cy="82.22919628024101" r="2" style="fill: steelblue;"></circle><circle cx="17.902302742004398" cy="81.20912052690983" r="2" style="fill: steelblue;"></circle><circle cx="18.58516335487366" cy="70.20160295069218" r="2" style="fill: steelblue;"></circle><circle cx="49.591471860185266" cy="49.01253101415932" r="2" style="fill: steelblue;"></circle></g></svg>