<svg xmlns="http://www.w3.org/2000/svg"><g><circle cx="80.27987033128738" cy="150.55926367640495" r="2" style="fill: steelblue;"></circle><circle cx="42.27495416998864" cy="189.74582701921463" r="2" style="fill: steelblue;"></circle><circle cx="82.82140679657459" cy="119.84838023781776" r="2" style="fill: steelblue;"></circle><circle cx="83.86875353753567" cy="190.386800467968" r="2" style="fill: steelblue;"></circle><circle cx="62.753817439079285" cy="91.44833162426949" r="2" style="fill: steelblue;"></circle><circle cx="104.59266360849142" cy="87.16834001243114" r="2" style="fill: steelblue;"></circle><circle cx="147.69600555300713" cy="107.53079866990447" r="2" style="fill: steelblue;"></circle><circle cx="132.20118582248688" cy="88.43353521078825" r="2" style="fill: steelblue;"></circle><circle cx="126.04658342897892" cy="131.88197314739227" r="2" style="fill: steelblue;"></circle><circle cx="78.44864800572395" cy="169.88425552845" r="2" style="fill: steelblue;"></circle><circle cx="87.05926723778248" cy="62.61921897530556" r="2" style="fill: steelblue;"></circle><circle cx="59.284231066703796" cy="5.796945095062256" r="2" style="fill: steelblue;"></circle><circle cx="125.99045820534229" cy="149.10908639431" r="2" style="fill: steelblue;"></circle><circle cx="133.09812769293785" cy="50.05292817950249" r="2" style="fill: steelblue;"></circle><circle cx="42.58860871195794" cy="128.8969650864601" r="2" style="fill: steelblue;"></circle><circle cx="44.94490325450898" cy="106.49724807590246" r="2" style="fill: steelblue;"></circle><circle cx="104.0625175461173" cy="113.40391393750906" r="2" style="fill: steelblue;"></circle><circle cx="150.62304809689522" cy="181.20658993721008" r="2" style="fill: steelblue;"></circle><circle cx="84.67725329101086" cy="94.80910412967205" r="2" style="fill: steelblue;"></circle><circle cx="103.67336208000779" cy="61.817700415849686" r="2" style="fill: steelblue;"></circle><circle cx="91.6278338059783" cy="85.67312117666006" r="2" style="fill: steelblue;"></circle><circle cx="135.6164388358593" cy="37.98612803220749" r="2" style="fill: steelblue;"></circle><circle cx="148.49035292863846" cy="132.16257318854332" r="2" style="fill: steelblue;"></circle><circle cx="28.23602259159089" cy="76.25332325696945" r="2" style="fill: steelblue;"></circle><circle cx="51.519303023815155" cy="128.11694703996181" r="2" style="fill: steelblue;"></circle><circle cx="38.4557418525219" cy="174.85520094633102" r="2" style="fill: steelblue;"></circle><circle cx="90.69346487522125" cy="182.9845741391182" r="2" style="fill: steelblue;"></circle><circle cx="43.88649985194207" cy="100.61966344946995" r="2" style="fill: steelblue;"></circle><circle cx="68.96650642156601" cy="88.88835497200489" r="2" style="fill: steelblue;"></circle><circle cx="162.9921704530716" cy="199.8760685324669" r="2" style="fill: steelblue;"></circle><circle cx="83.99916104972363" cy="36.45084649324417" r="2" style="fill: steelblue;"></circle><circle cx="115.89233987033367" cy="116.56470634043217" r="2" style="fill: steelblue;"></circle><circle cx="136.47420182824135" cy="75.42893327772617" r="2" style="fill: steelblue;"></circle><circle cx="110.70212386548519" cy="28.51272225379944" r="2" style="fill: steelblue;"></circle><circle cx="158.69046971201897" cy="129.6773985028267" r="2" style="fill: steelblue;"></circle><circle cx="69.6567989885807" cy="55.842483788728714" r="2" style="fill: steelblue;"></circle><circle cx="104.12667263299227" cy="130.2347056567669" r="2" style="fill: steelblue;"></circle><circle cx="0.6049484014511164" cy="158.51049348711967" r="2" style="fill: steelblue;"></circle><circle cx="27.74737626314164" cy="108.69902689009905" r="2" style="fill: steelblue;"></circle><circle cx="62.011177092790604" cy="89.56817481666803" r="2" style="fill: steelblue;"></circle><circle cx="14.516247808933263" cy="118.37942376732826" r="2" style="fill: steelblue;"></circle><circle cx="143.84471848607063" cy="10.964258015155792" r="2" style="fill: steelblue;"></circle><circle cx="155.0146959722042" cy="69.18060444295406" r="2" style="fill: steelblue;"></circle><circle cx="100.77354663517326" cy="123.85162189602852" r="2" style="fill: steelblue;"></circle><circle cx="116.63754694163799" cy="44.84138861298561" r="2" style="fill: steelblue;"></circle><circle cx="121.40428125858307" cy="109.49870608747005" r="2" style="fill: steelblue;"></circle><circle cx="126.9047524780035" cy="101.1458876542747" r="2" style="fill: steelblue;"></circle><circle cx="10.231880843639379" cy="111.10097113996744" r="2" style="fill: steelblue;"></circle><circle cx="111.33822463452816" cy="117.28502847254276" r="2" style="fill: steelblue;"></circle><circle cx="89.84106630086899" cy="89.73971512168646" r="2" style="fill: steelblue;"></circle><circle cx="100.67304912954569" cy="95.18433259800076" r="2" style="fill: steelblue;"></circle><circle cx="121.41478285193443" cy="172.4933072924614" r="2" style="fill: steelblue;"></circle><circle cx="54.45855334401131" cy="110.83032134920359" r="2" style="fill: steelblue;"></circle><circle cx="41.10359251499177" cy="106.39878492802382" r="2" style="fill: steelblue;"></circle><circle cx="72.51321189105511" cy="148.97627606987953" r="2" style="fill: steelblue;"></circle><circle cx="3.306081891059881" cy="121.8740813434124" r="2" style="fill: steelblue;"></circle><circle cx="75.85113905370235" cy="168.29936802387238" r="2" style="fill: steelblue;"></circle><circle cx="89.18695654720068" cy="121.50632813572884" r="2" style="fill: steelblue;"></circle><circle cx="105.76763739809394" cy="198.59977662563324" r="2" style="fill: steelblue;"></circle><circle cx="113.10582924634218" cy="166.6128769516945" r="2" style="fill: steelblue;"></circle><circle cx="76.26503370702267" cy="152.96799167990685" r="2" style="fill: steelblue;"></circle><circle cx="98.04469314403832" cy="103.4113007131964" r="2" style="fill: steelblue;"></circle><circle cx="45.7417018711567" cy="139.8879311978817" r="2" style="fill: steelblue;"></circle><circle cx="4.643088579177862" cy="127.78254449367523" r="2" style="fill: steelblue;"></circle><circle cx="21.895258128643043" cy="110.61720959842205" r="2" style="fill: steelblue;"></circle><circle cx="59.84942838549614" cy="139.4754558801651" r="2" style="fill: steelblue;"></circle><circle cx="7.931141555309301" cy="156.65745958685875" r="2" style="fill: steelblue;"></circle><circle cx="23.555195331573493" cy="172.34547287225723" r="2" style="fill: steelblue;"></circle><circle cx="92.3668229021132" cy="119.81434971094131" r="2" style="fill: steelblue;"></circle><circle cx="34.5257580280304" cy="150.327867269516" r="2" style="fill: steelblue;"></circle><circle cx="147.18775302171707" cy="161.50270625948906" r="2" style="fill: steelblue;"></circle><circle cx="193.6645194888115" cy="40.83165377378464" r="2" style="fill: steelblue;"></circle><circle cx="186.24745905399323" cy="20.77627032995224" r="2" style="fill: steelblue;"></circle><circle cx="108.68726335465908" cy="71.65587916970253" r="2" style="fill: steelblue;"></circle><circle cx="167.81163811683655" cy="70.09625472128391" r="2" style="fill: steelblue;"></circle><circle cx="53.36424931883812" cy="41.44290313124657" r="2" style="fill: steelblue;"></circle><circle cx="162.3856820166111" cy="73.05196337401867" r="2" style="fill: steelblue;"></circle><circle cx="146.94264009594917" cy="24.293309450149536" r="2" style="fill: steelblue;"></circle><circle cx="128.91402691602707" cy="49.75486770272255" r="2" style="fill: steelblue;"></circle><circle cx="175.1272439956665" cy="24.998141825199127" r="2" style="fill: steelblue;"></circle><circle cx="83.39319415390491" cy="139.30839523673058" r="2" style="fill: steelblue;"></circle><circle cx="165.7932385802269" cy="44.20280307531357" r="2" style="fill: steelblue;"></circle><circle cx="54.52236011624336" cy="60.874494165182114" r="2" style="fill: steelblue;"></circle><circle cx="34.635981917381294" cy="93.21697978302836" r="2" style="fill: steelblue;"></circle><circle cx="90.0601115077734" cy="111.75695564597845" r="2" style="fill: steelblue;"></circle><circle cx="93.10864182189107" cy="135.13434529304504" r="2" style="fill: steelblue;"></circle><circle cx="125.79873241484165" cy="121.14692702889442" r="2" style="fill: steelblue;"></circle><circle cx="109.0103866532445" cy="92.16283764690161" r="2" style="fill: steelblue;"></circle><circle cx="117.62775704264641" cy="81.0892678797245" r="2" style="fill: steelblue;"></circle><circle cx="130.13712167739868" cy="66.83409810066223" r="2" style="fill: steelblue;"></circle><circle cx="118.2278398424387" cy="39.38932940363884" r="2" style="fill: steelblue;"></circle><circle cx="105.5050179362297" cy="24.515031278133392" r="2" style="fill: steelblue;"></circle><circle cx="143.60554367303848" cy="55.64253255724907" r="2" style="fill: steelblue;"></circle><circle cx="154.8691414296627" cy="54.224806278944016" r="2" style="fill: steelblue;"></circle><circle cx="157.92031064629555" cy="74.03586097061634" r="2" style="fill: steelblue;"></circle><circle cx="145.47226056456566" cy="52.93315127491951" r="2" style="fill: steelblue;"></circle><circle cx="156.971475481987" cy="12.81149536371231" r="2" style="fill: steelblue;"></circle><circle cx="29.58470433950425" cy="142.8214631974697" r="2" style="fill: steelblue;"></circle><circle cx="33.25206637382508" cy="120.0918223708868" r="2" style="fill: steelblue;"></circle><circle cx="179.59093153476715" cy="83.03046822547913" r="2" style="fill: steelblue;"></circle><circle cx="180.24710416793823" cy="82.57249966263771" r="2" style="fill: steelblue;"></circle><circle cx="130.15821054577827" cy="74.55530986189842" r="2" style="fill: steelblue;"></circle><circle cx="93.2306818664074" cy="87.55958024412394" r="2" style="fill: steelblue;"></circle><circle cx="24.46009814739228" cy="97.12955020368099" r="2" style="fill: steelblue;"></circle><circle cx="155.02008274197578" cy="41.07047840952873" r="2" style="fill: steelblue;"></circle><circle cx="57.925841212272644" cy="35.89547276496887" r="2" style="fill: steelblue;"></circle><circle cx="100.17467129509896" cy="64.77672085165977" r="2" style="fill: steelblue;"></circle><circle cx="111.76791079342365" cy="29.326653480529785" r="2" style="fill: steelblue;"></circle><circle cx="81.77698999643326" cy="118.29788275063038" r="2" style="fill: steelblue;"></circle><circle cx="144.95178163051605" cy="59.922775626182556" r="2" style="fill: steelblue;"></circle><circle cx="110.92589274048805" cy="65.10112285614014" r="2" style="fill: steelblue;"></circle><circle cx="170.79534232616425" cy="103.31758637912571" r="2" style="fill: steelblue;"></circle><circle cx="67.60845184326172" cy="164.0370100736618" r="2" style="fill: steelblue;"></circle><circle cx="75.95210559666157" cy="175.6722018122673" r="2" style="fill: steelblue;"></circle><circle cx="64.27997201681137" cy="164.45839256048203" r="2" style="fill: steelblue;"></circle><circle cx="6.3640907406807" cy="162.41824105381966" r="2" style="fill: steelblue;"></circle><circle cx="61.245786398649216" cy="140.40320590138435" r="2" style="fill: steelblue;"></circle><circle cx="61.86254546046257" cy="98.02506202831864" r="2" style="fill: steelblue;"></circle></g></svg>