<svg xmlns="http://www.w3.org/2000/svg"><g><circle cx="14.455294609069824" cy="77.96299457550049" r="2" style="fill: steelblue;"></circle><circle cx="50.79420683905482" cy="59.6589669585228" r="2" style="fill: steelblue;"></circle><circle cx="33.27045738697052" cy="61.341821402311325" r="2" style="fill: steelblue;"></circle><circle cx="18.192291259765625" cy="54.03400883078575" r="2" style="fill: steelblue;"></circle><circle cx="34.84492748975754" cy="58.83096754550934" r="2" style="fill: steelblue;"></circle><circle cx="63.26363533735275" cy="76.35443806648254" r="2" style="fill: steelblue;"></circle><circle cx="24.96059536933899" cy="36.30523681640625" r="2" style="fill: steelblue;"></circle><circle cx="60.51061674952507" cy="43.659765273332596" r="2" style="fill: steelblue;"></circle><circle cx="34.012214839458466" cy="55.857522413134575" r="2" style="fill: steelblue;"></circle><circle cx="37.13478595018387" cy="45.384445786476135" r="2" style="fill: steelblue;"></circle><circle cx="58.56676027178764" cy="77.95657515525818" r="2" style="fill: steelblue;"></circle><circle cx="40.83548113703728" cy="64.82372432947159" r="2" style="fill: steelblue;"></circle><circle cx="51.101985946297646" cy="91.24099314212799" r="2" style="fill: steelblue;"></circle><circle cx="33.30651968717575" cy="62.15927302837372" r="2" style="fill: steelblue;"></circle><circle cx="42.061732709407806" cy="43.00777465105057" r="2" style="fill: steelblue;"></circle><circle cx="13.740023970603943" cy="73.84037971496582" r="2" style="fill: steelblue;"></circle><circle cx="44.281017780303955" cy="72.02651798725128" r="2" style="fill: steelblue;"></circle><circle cx="30.20695447921753" cy="57.89051726460457" r="2" style="fill: steelblue;"></circle><circle cx="64.14172500371933" cy="31.53521418571472" r="2" style="fill: steelblue;"></circle><circle cx="72.31239527463913" cy="40.7518744468689" r="2" style="fill: steelblue;"></circle><circle cx="66.16838127374649" cy="41.87542125582695" r="2" style="fill: steelblue;"></circle><circle cx="32.03022927045822" cy="39.04068097472191" r="2" style="fill: steelblue;"></circle><circle cx="37.95551881194115" cy="55.399364605546" r="2" style="fill: steelblue;"></circle><circle cx="38.87124061584473" cy="53.55382077395916" r="2" style="fill: steelblue;"></circle><circle cx="16.813132166862488" cy="43.25411170721054" r="2" style="fill: steelblue;"></circle><circle cx="55.79223595559597" cy="71.51899933815002" r="2" style="fill: steelblue;"></circle><circle cx="33.18971544504166" cy="70.22558003664017" r="2" style="fill: steelblue;"></circle><circle cx="48.63825226202607" cy="77.92846858501434" r="2" style="fill: steelblue;"></circle><circle cx="18.0417001247406" cy="42.9277777671814" r="2" style="fill: steelblue;"></circle><circle cx="65.67257046699524" cy="50.22773137316108" r="2" style="fill: steelblue;"></circle><circle cx="60.840655118227005" cy="9.292793273925781" r="2" style="fill: steelblue;"></circle><circle cx="72.47530072927475" cy="9.970930218696594" r="2" style="fill: steelblue;"></circle><circle cx="73.06648790836334" cy="41.1520317196846" r="2" style="fill: steelblue;"></circle><circle cx="48.41947853565216" cy="44.26210708916187" r="2" style="fill: steelblue;"></circle><circle cx="56.01290389895439" cy="41.21790677309036" r="2" style="fill: steelblue;"></circle><circle cx="58.09464007616043" cy="55.547669157385826" r="2" style="fill: steelblue;"></circle><circle cx="40.8977136015892" cy="69.98981982469559" r="2" style="fill: steelblue;"></circle><circle cx="42.74080619215965" cy="64.89157229661942" r="2" style="fill: steelblue;"></circle><circle cx="26.266349852085114" cy="62.05235719680786" r="2" style="fill: steelblue;"></circle><circle cx="47.48634807765484" cy="68.03193390369415" r="2" style="fill: steelblue;"></circle><circle cx="72.45334386825562" cy="62.63139992952347" r="2" style="fill: steelblue;"></circle><circle cx="75.39635896682739" cy="44.64488476514816" r="2" style="fill: steelblue;"></circle><circle cx="56.088144704699516" cy="33.31102281808853" r="2" style="fill: steelblue;"></circle><circle cx="68.36737394332886" cy="56.66622593998909" r="2" style="fill: steelblue;"></circle><circle cx="55.74011541903019" cy="46.843716874718666" r="2" style="fill: steelblue;"></circle><circle cx="75.50442218780518" cy="70.66988199949265" r="2" style="fill: steelblue;"></circle><circle cx="31.662018597126007" cy="34.81080383062363" r="2" style="fill: steelblue;"></circle><circle cx="19.14512813091278" cy="67.2365054488182" r="2" style="fill: steelblue;"></circle><circle cx="24.706822633743286" cy="72.57867157459259" r="2" style="fill: steelblue;"></circle><circle cx="20.553845167160034" cy="62.84918040037155" r="2" style="fill: steelblue;"></circle><circle cx="54.40408103168011" cy="65.52006155252457" r="2" style="fill: steelblue;"></circle><circle cx="19.98373568058014" cy="37.87057027220726" r="2" style="fill: steelblue;"></circle><circle cx="37.879637628793716" cy="42.834681272506714" r="2" style="fill: steelblue;"></circle><circle cx="45.10496035218239" cy="49.31806530803442" r="2" style="fill: steelblue;"></circle><circle cx="57.936666905879974" cy="57.942015677690506" r="2" style="fill: steelblue;"></circle><circle cx="32.34524875879288" cy="62.84809708595276" r="2" style="fill: steelblue;"></circle><circle cx="54.21577990055084" cy="64.18083310127258" r="2" style="fill: steelblue;"></circle><circle cx="36.93167269229889" cy="55.80214820802212" r="2" style="fill: steelblue;"></circle><circle cx="66.23155474662781" cy="67.73124635219574" r="2" style="fill: steelblue;"></circle><circle cx="38.17470893263817" cy="70.08515894412994" r="2" style="fill: steelblue;"></circle><circle cx="19.64544653892517" cy="79.3896347284317" r="2" style="fill: steelblue;"></circle><circle cx="25.794024765491486" cy="54.73991148173809" r="2" style="fill: steelblue;"></circle><circle cx="4.609659314155579" cy="76.75122618675232" r="2" style="fill: steelblue;"></circle><circle cx="7.538917660713196" cy="54.29356284439564" r="2" style="fill: steelblue;"></circle><circle cx="38.16690444946289" cy="63.05438280105591" r="2" style="fill: steelblue;"></circle><circle cx="24.971702694892883" cy="82.14889168739319" r="2" style="fill: steelblue;"></circle><circle cx="23.917585611343384" cy="48.402261920273304" r="2" style="fill: steelblue;"></circle><circle cx="60.450179874897" cy="52.27547809481621" r="2" style="fill: steelblue;"></circle><circle cx="17.391332983970642" cy="73.78451079130173" r="2" style="fill: steelblue;"></circle><circle cx="47.57793713361025" cy="80.6109607219696" r="2" style="fill: steelblue;"></circle><circle cx="14.643409848213196" cy="26.97260081768036" r="2" style="fill: steelblue;"></circle><circle cx="64.3913671374321" cy="17.594102025032043" r="2" style="fill: steelblue;"></circle><circle cx="61.11847534775734" cy="37.42448687553406" r="2" style="fill: steelblue;"></circle><circle cx="77.02809870243073" cy="72.36301004886627" r="2" style="fill: steelblue;"></circle><circle cx="53.05855888873339" cy="54.67668958008289" r="2" style="fill: steelblue;"></circle><circle cx="45.89683152735233" cy="56.4179353415966" r="2" style="fill: steelblue;"></circle><circle cx="72.8761613368988" cy="58.518023788928986" r="2" style="fill: steelblue;"></circle><circle cx="53.77677530050278" cy="40.91363921761513" r="2" style="fill: steelblue;"></circle><circle cx="47.96872306615114" cy="31.518247723579407" r="2" style="fill: steelblue;"></circle><circle cx="64.6350085735321" cy="20.711255073547363" r="2" style="fill: steelblue;"></circle><circle cx="74.67431426048279" cy="30.84801882505417" r="2" style="fill: steelblue;"></circle><circle cx="92.24546253681183" cy="56.96817860007286" r="2" style="fill: steelblue;"></circle><circle cx="56.61469027400017" cy="48.3757097274065" r="2" style="fill: steelblue;"></circle><circle cx="40.535734593868256" cy="79.85512018203735" r="2" style="fill: steelblue;"></circle><circle cx="34.10608768463135" cy="60.975464433431625" r="2" style="fill: steelblue;"></circle><circle cx="41.484442353248596" cy="68.43589544296265" r="2" style="fill: steelblue;"></circle><circle cx="47.25682307034731" cy="60.55543124675751" r="2" style="fill: steelblue;"></circle><circle cx="66.40995591878891" cy="63.56920599937439" r="2" style="fill: steelblue;"></circle><circle cx="56.730351597070694" cy="25.613585114479065" r="2" style="fill: steelblue;"></circle><circle cx="59.373778104782104" cy="67.01485812664032" r="2" style="fill: steelblue;"></circle><circle cx="55.32130151987076" cy="37.64584884047508" r="2" style="fill: steelblue;"></circle><circle cx="63.79447430372238" cy="62.0198979973793" r="2" style="fill: steelblue;"></circle><circle cx="49.69175551086664" cy="30.5345818400383" r="2" style="fill: steelblue;"></circle><circle cx="52.33028568327427" cy="30.473831295967102" r="2" style="fill: steelblue;"></circle><circle cx="55.59246987104416" cy="22.610384225845337" r="2" style="fill: steelblue;"></circle><circle cx="58.97243693470955" cy="18.97335648536682" r="2" style="fill: steelblue;"></circle><circle cx="61.074621975421906" cy="34.48998034000397" r="2" style="fill: steelblue;"></circle><circle cx="34.71137881278992" cy="39.25054892897606" r="2" style="fill: steelblue;"></circle><circle cx="68.5273602604866" cy="44.16503123939037" r="2" style="fill: steelblue;"></circle><circle cx="65.68276137113571" cy="68.15562695264816" r="2" style="fill: steelblue;"></circle><circle cx="49.95317311550025" cy="36.715395748615265" r="2" style="fill: steelblue;"></circle><circle cx="56.92307651042938" cy="37.789708375930786" r="2" style="fill: steelblue;"></circle><circle cx="66.40593707561493" cy="43.102799355983734" r="2" style="fill: steelblue;"></circle><circle cx="85.61111092567444" cy="46.02564573287964" r="2" style="fill: steelblue;"></circle><circle cx="79.703289270401" cy="41.86473563313484" r="2" style="fill: steelblue;"></circle><circle cx="73.63985180854797" cy="17.196151614189148" r="2" style="fill: steelblue;"></circle><circle cx="72.54918068647385" cy="38.716042786836624" r="2" style="fill: steelblue;"></circle><circle cx="64.80840742588043" cy="56.25912547111511" r="2" style="fill: steelblue;"></circle><circle cx="58.88036862015724" cy="34.87640470266342" r="2" style="fill: steelblue;"></circle><circle cx="41.68143644928932" cy="56.59109875559807" r="2" style="fill: steelblue;"></circle><circle cx="70.68994045257568" cy="17.972740530967712" r="2" style="fill: steelblue;"></circle><circle cx="53.10046374797821" cy="35.2172926068306" r="2" style="fill: steelblue;"></circle><circle cx="20.425590872764587" cy="49.9204360647127" r="2" style="fill: steelblue;"></circle><circle cx="57.62682631611824" cy="62.24094554781914" r="2" style="fill: steelblue;"></circle><circle cx="33.58806073665619" cy="72.44293242692947" r="2" style="fill: steelblue;"></circle><circle cx="40.21695479750633" cy="66.20021760463715" r="2" style="fill: steelblue;"></circle><circle cx="27.112555503845215" cy="51.38602200895548" r="2" style="fill: steelblue;"></circle><circle cx="53.40318977832794" cy="72.41701185703278" r="2" style="fill: steelblue;"></circle></g></svg>