<svg xmlns="http://www.w3.org/2000/svg"><g><circle cx="25.30322819948197" cy="162.45271116495132" r="2" style="fill: steelblue;"></circle><circle cx="22.168336808681495" cy="179.81564849615097" r="2" style="fill: steelblue;"></circle><circle cx="81.58187977969646" cy="144.55474764108658" r="2" style="fill: steelblue;"></circle><circle cx="68.14857423305511" cy="183.7557464838028" r="2" style="fill: steelblue;"></circle><circle cx="49.75865632295609" cy="156.9060817360878" r="2" style="fill: steelblue;"></circle><circle cx="20.62747478485108" cy="154.64066565036774" r="2" style="fill: steelblue;"></circle><circle cx="81.08974099159241" cy="115.75090549886227" r="2" style="fill: steelblue;"></circle><circle cx="173.45454394817352" cy="95.03468628972769" r="2" style="fill: steelblue;"></circle><circle cx="135.86376458406448" cy="150.36574974656105" r="2" style="fill: steelblue;"></circle><circle cx="99.95662644505501" cy="167.01643019914627" r="2" style="fill: steelblue;"></circle><circle cx="78.96265424787998" cy="152.4204485118389" r="2" style="fill: steelblue;"></circle><circle cx="37.81262263655663" cy="109.43662505596876" r="2" style="fill: steelblue;"></circle><circle cx="112.8625575453043" cy="152.14867740869522" r="2" style="fill: steelblue;"></circle><circle cx="140.49724712967873" cy="108.25260858982801" r="2" style="fill: steelblue;"></circle><circle cx="98.35426930803806" cy="150.95435678958893" r="2" style="fill: steelblue;"></circle><circle cx="110.9321866184473" cy="69.95288878679276" r="2" style="fill: steelblue;"></circle><circle cx="53.03620025515556" cy="115.58634918183088" r="2" style="fill: steelblue;"></circle><circle cx="56.00029081106186" cy="113.4715111926198" r="2" style="fill: steelblue;"></circle><circle cx="134.50002893805504" cy="118.83691176772118" r="2" style="fill: steelblue;"></circle><circle cx="76.11411847174168" cy="81.52429237961769" r="2" style="fill: steelblue;"></circle><circle cx="109.23390034586191" cy="59.81791615486145" r="2" style="fill: steelblue;"></circle><circle cx="80.9476938098669" cy="26.8152117729187" r="2" style="fill: steelblue;"></circle><circle cx="86.98403220623732" cy="81.6911555826664" r="2" style="fill: steelblue;"></circle><circle cx="100.7271563517861" cy="125.79676173627377" r="2" style="fill: steelblue;"></circle><circle cx="122.89046160876751" cy="89.96117897331715" r="2" style="fill: steelblue;"></circle><circle cx="38.38219344615937" cy="62.847184389829636" r="2" style="fill: steelblue;"></circle><circle cx="65.37969261407852" cy="118.0653315037489" r="2" style="fill: steelblue;"></circle><circle cx="75.81806965172291" cy="155.43190985918045" r="2" style="fill: steelblue;"></circle><circle cx="4.262259602546697" cy="132.46602416038513" r="2" style="fill: steelblue;"></circle><circle cx="81.88492469489574" cy="126.4857616275549" r="2" style="fill: steelblue;"></circle><circle cx="108.77795834094286" cy="35.38019806146622" r="2" style="fill: steelblue;"></circle><circle cx="142.9108776152134" cy="73.01299311220646" r="2" style="fill: steelblue;"></circle><circle cx="164.8997724056244" cy="101.04941939935088" r="2" style="fill: steelblue;"></circle><circle cx="131.4583256840706" cy="155.42096868157387" r="2" style="fill: steelblue;"></circle><circle cx="123.0853296816349" cy="156.13857880234718" r="2" style="fill: steelblue;"></circle><circle cx="78.02427597343922" cy="125.54778940975666" r="2" style="fill: steelblue;"></circle><circle cx="68.49755197763443" cy="113.62136751413345" r="2" style="fill: steelblue;"></circle><circle cx="77.97369584441185" cy="188.90261501073837" r="2" style="fill: steelblue;"></circle><circle cx="39.637228846549995" cy="143.60489174723625" r="2" style="fill: steelblue;"></circle><circle cx="9.655578434467321" cy="79.79371249675751" r="2" style="fill: steelblue;"></circle><circle cx="76.41313262283802" cy="136.89194098114967" r="2" style="fill: steelblue;"></circle><circle cx="148.3274757862091" cy="122.80883304774761" r="2" style="fill: steelblue;"></circle><circle cx="131.769011169672" cy="106.8425890058279" r="2" style="fill: steelblue;"></circle><circle cx="158.7681122124195" cy="37.48023360967636" r="2" style="fill: steelblue;"></circle><circle cx="149.69916865229607" cy="88.42442315071821" r="2" style="fill: steelblue;"></circle><circle cx="135.6634184718132" cy="23.48591983318329" r="2" style="fill: steelblue;"></circle><circle cx="156.38791620731354" cy="77.85327956080437" r="2" style="fill: steelblue;"></circle><circle cx="19.18545216321946" cy="179.82497662305832" r="2" style="fill: steelblue;"></circle><circle cx="111.01572904735804" cy="103.87995806522667" r="2" style="fill: steelblue;"></circle><circle cx="36.743311583995826" cy="119.00419220328331" r="2" style="fill: steelblue;"></circle><circle cx="13.893736898899084" cy="60.64850315451622" r="2" style="fill: steelblue;"></circle><circle cx="14.06970471143723" cy="106.07104878872633" r="2" style="fill: steelblue;"></circle><circle cx="92.38093011081219" cy="34.56779420375824" r="2" style="fill: steelblue;"></circle><circle cx="105.59094548225403" cy="139.20485079288483" r="2" style="fill: steelblue;"></circle><circle cx="75.3787312656641" cy="100.01034885644913" r="2" style="fill: steelblue;"></circle><circle cx="3.1517431139946037" cy="145.66120728850365" r="2" style="fill: steelblue;"></circle><circle cx="95.34970941022038" cy="110.88718883693218" r="2" style="fill: steelblue;"></circle><circle cx="90.42527936398983" cy="88.48473280668259" r="2" style="fill: steelblue;"></circle><circle cx="80.1378920674324" cy="53.6118321120739" r="2" style="fill: steelblue;"></circle><circle cx="38.949320465326316" cy="142.76888817548752" r="2" style="fill: steelblue;"></circle><circle cx="132.0902317762375" cy="132.52820670604706" r="2" style="fill: steelblue;"></circle><circle cx="35.61839312314988" cy="126.68889425694942" r="2" style="fill: steelblue;"></circle><circle cx="19.780455529689796" cy="174.71976429224014" r="2" style="fill: steelblue;"></circle><circle cx="53.8276381790638" cy="162.96362727880478" r="2" style="fill: steelblue;"></circle><circle cx="49.10646602511407" cy="158.94096568226814" r="2" style="fill: steelblue;"></circle><circle cx="11.90256923437119" cy="98.63759230356663" r="2" style="fill: steelblue;"></circle><circle cx="29.519996047019966" cy="167.54747033119202" r="2" style="fill: steelblue;"></circle><circle cx="130.90598993003368" cy="161.55385076999664" r="2" style="fill: steelblue;"></circle><circle cx="1.249468326568609" cy="78.46310585737228" r="2" style="fill: steelblue;"></circle><circle cx="102.03495752066374" cy="111.68570853769779" r="2" style="fill: steelblue;"></circle><circle cx="61.99754625558853" cy="156.32025003433228" r="2" style="fill: steelblue;"></circle><circle cx="139.89021852612495" cy="91.25121906399727" r="2" style="fill: steelblue;"></circle><circle cx="158.21043252944946" cy="45.28065249323845" r="2" style="fill: steelblue;"></circle><circle cx="151.53675377368927" cy="53.67736741900444" r="2" style="fill: steelblue;"></circle><circle cx="156.22746422886848" cy="45.075199007987976" r="2" style="fill: steelblue;"></circle><circle cx="171.81689143180847" cy="49.35276359319687" r="2" style="fill: steelblue;"></circle><circle cx="120.65936475992203" cy="46.41389325261116" r="2" style="fill: steelblue;"></circle><circle cx="129.04046699404716" cy="47.65826687216759" r="2" style="fill: steelblue;"></circle><circle cx="126.11209452152252" cy="1.6818925738334656" r="2" style="fill: steelblue;"></circle><circle cx="174.77576285600662" cy="30.10542541742325" r="2" style="fill: steelblue;"></circle><circle cx="167.37105548381805" cy="42.84748286008835" r="2" style="fill: steelblue;"></circle><circle cx="193.73819082975388" cy="5.438274145126343" r="2" style="fill: steelblue;"></circle><circle cx="178.94038408994675" cy="98.39228135533631" r="2" style="fill: steelblue;"></circle><circle cx="92.26798862218857" cy="120.2549621462822" r="2" style="fill: steelblue;"></circle><circle cx="52.40611955523491" cy="188.3452519774437" r="2" style="fill: steelblue;"></circle><circle cx="46.07025384902955" cy="109.0522626414895" r="2" style="fill: steelblue;"></circle><circle cx="88.32819703966379" cy="105.72137208655477" r="2" style="fill: steelblue;"></circle><circle cx="89.25452027469873" cy="94.48972661048174" r="2" style="fill: steelblue;"></circle><circle cx="76.34582035243511" cy="86.66827846318483" r="2" style="fill: steelblue;"></circle><circle cx="150.01036077737808" cy="62.715599685907364" r="2" style="fill: steelblue;"></circle><circle cx="122.52707444131374" cy="38.19475173950195" r="2" style="fill: steelblue;"></circle><circle cx="192.8347408771515" cy="34.75668132305145" r="2" style="fill: steelblue;"></circle><circle cx="112.15313002467155" cy="92.34945001080632" r="2" style="fill: steelblue;"></circle><circle cx="187.94615417718887" cy="34.84979867935181" r="2" style="fill: steelblue;"></circle><circle cx="146.47845402359962" cy="42.65342503786087" r="2" style="fill: steelblue;"></circle><circle cx="198.87941926717758" cy="46.931276470422745" r="2" style="fill: steelblue;"></circle><circle cx="106.99724955484271" cy="56.87583088874817" r="2" style="fill: steelblue;"></circle><circle cx="112.2781340032816" cy="17.60016232728958" r="2" style="fill: steelblue;"></circle><circle cx="120.68202011287212" cy="111.79639250040054" r="2" style="fill: steelblue;"></circle><circle cx="128.69689278304577" cy="144.13475841283798" r="2" style="fill: steelblue;"></circle><circle cx="128.42485159635544" cy="122.33878709375858" r="2" style="fill: steelblue;"></circle><circle cx="153.3897876739502" cy="42.149654030799866" r="2" style="fill: steelblue;"></circle><circle cx="97.33261833898723" cy="108.60277283936739" r="2" style="fill: steelblue;"></circle><circle cx="141.25871136784554" cy="84.12607610225677" r="2" style="fill: steelblue;"></circle><circle cx="122.60256186127663" cy="10.531029105186462" r="2" style="fill: steelblue;"></circle><circle cx="17.02623665332795" cy="45.09348273277283" r="2" style="fill: steelblue;"></circle><circle cx="121.68139815330505" cy="161.08415126800537" r="2" style="fill: steelblue;"></circle><circle cx="55.4317444562912" cy="44.56039369106293" r="2" style="fill: steelblue;"></circle><circle cx="101.58308551181108" cy="22.637760639190674" r="2" style="fill: steelblue;"></circle><circle cx="159.07607078552246" cy="31.78388476371765" r="2" style="fill: steelblue;"></circle><circle cx="118.94950307905674" cy="22.540389001369476" r="2" style="fill: steelblue;"></circle><circle cx="132.95357897877693" cy="26.00834369659424" r="2" style="fill: steelblue;"></circle><circle cx="51.133400201797485" cy="139.21032696962357" r="2" style="fill: steelblue;"></circle><circle cx="34.315592050552375" cy="94.560566265136" r="2" style="fill: steelblue;"></circle><circle cx="101.00572477094829" cy="123.77944067120552" r="2" style="fill: steelblue;"></circle><circle cx="61.38085797429085" cy="164.1953945159912" r="2" style="fill: steelblue;"></circle><circle cx="28.947769105434425" cy="162.82967329025269" r="2" style="fill: steelblue;"></circle><circle cx="66.18926525115967" cy="100.81705627962947" r="2" style="fill: steelblue;"></circle></g></svg>