<svg xmlns="http://www.w3.org/2000/svg"><g transform="translate(40,20)"><circle cx="393.62398624420166" cy="156.47526495158672" r="3" style="fill: steelblue;"></circle><circle cx="257.02696792781353" cy="99.75470826029778" r="3" style="fill: steelblue;"></circle><circle cx="418.94790172576904" cy="81.86119645833969" r="3" style="fill: steelblue;"></circle><circle cx="211.429093927145" cy="161.92405298352242" r="3" style="fill: steelblue;"></circle><circle cx="229.57611769437793" cy="138.30404840409756" r="3" style="fill: steelblue;"></circle><circle cx="337.9445457458496" cy="132.44999460875988" r="3" style="fill: steelblue;"></circle><circle cx="443.56539487838745" cy="112.57060468196869" r="3" style="fill: steelblue;"></circle><circle cx="357.23737120628357" cy="73.49352538585663" r="3" style="fill: steelblue;"></circle><circle cx="414.40441846847534" cy="71.5974435210228" r="3" style="fill: steelblue;"></circle><circle cx="294.48714047670364" cy="95.12451216578484" r="3" style="fill: steelblue;"></circle><circle cx="427.0844900608063" cy="129.83569651842117" r="3" style="fill: steelblue;"></circle><circle cx="289.9786913394928" cy="68.6019018292427" r="3" style="fill: steelblue;"></circle><circle cx="348.48902463912964" cy="234.1407373547554" r="3" style="fill: steelblue;"></circle><circle cx="249.88758578896523" cy="122.2244992852211" r="3" style="fill: steelblue;"></circle><circle cx="439.8680591583252" cy="166.80122269317508" r="3" style="fill: steelblue;"></circle><circle cx="243.26963094994426" cy="192.9009098559618" r="3" style="fill: steelblue;"></circle><circle cx="221.64198026061058" cy="181.76303328946233" r="3" style="fill: steelblue;"></circle><circle cx="209.26655396819115" cy="227.10238471627235" r="3" style="fill: steelblue;"></circle><circle cx="462.7983355522156" cy="105.76800927519798" r="3" style="fill: steelblue;"></circle><circle cx="200.9906002879143" cy="150.5058828741312" r="3" style="fill: steelblue;"></circle><circle cx="313.56598824262625" cy="202.80740223824978" r="3" style="fill: steelblue;"></circle><circle cx="268.81619185209274" cy="205.62192499637604" r="3" style="fill: steelblue;"></circle><circle cx="161.40826284885406" cy="173.87703930726275" r="3" style="fill: steelblue;"></circle><circle cx="397.256555557251" cy="140.8002644777298" r="3" style="fill: steelblue;"></circle><circle cx="216.0282263159752" cy="93.87668967247009" r="3" style="fill: steelblue;"></circle><circle cx="274.5750577747822" cy="123.69115501642227" r="3" style="fill: steelblue;"></circle><circle cx="267.20730006694794" cy="241.6727177798748" r="3" style="fill: steelblue;"></circle><circle cx="319.1680544614792" cy="74.36216175556183" r="3" style="fill: steelblue;"></circle><circle cx="254.12651203572753" cy="187.47574891895056" r="3" style="fill: steelblue;"></circle><circle cx="156.52662456035617" cy="224.55556094646454" r="3" style="fill: steelblue;"></circle><circle cx="190.5157068371773" cy="216.82740300893784" r="3" style="fill: steelblue;"></circle><circle cx="210.0744889676571" cy="122.60991781949997" r="3" style="fill: steelblue;"></circle><circle cx="132.20129549503326" cy="203.92303243279457" r="3" style="fill: steelblue;"></circle><circle cx="255.88317565619946" cy="217.40197129547596" r="3" style="fill: steelblue;"></circle><circle cx="253.57703357934955" cy="142.81093403697014" r="3" style="fill: steelblue;"></circle><circle cx="265.9503945708275" cy="246.84790819883347" r="3" style="fill: steelblue;"></circle><circle cx="16.90440416336061" cy="231.23050928115845" r="3" style="fill: steelblue;"></circle><circle cx="188.38135689496994" cy="214.558195322752" r="3" style="fill: steelblue;"></circle><circle cx="254.67190012335777" cy="297.8746101260185" r="3" style="fill: steelblue;"></circle><circle cx="329.67987298965454" cy="125.89400708675385" r="3" style="fill: steelblue;"></circle><circle cx="254.92882780730724" cy="141.5440570563078" r="3" style="fill: steelblue;"></circle><circle cx="241.93026973865926" cy="222.46612310409546" r="3" style="fill: steelblue;"></circle><circle cx="128.22274804115295" cy="248.24314936995506" r="3" style="fill: steelblue;"></circle><circle cx="246.50880709290504" cy="222.19403013586998" r="3" style="fill: steelblue;"></circle><circle cx="328.1688416004181" cy="205.2126720547676" r="3" style="fill: steelblue;"></circle><circle cx="27.862229347229018" cy="288.1643369793892" r="3" style="fill: steelblue;"></circle><circle cx="219.4082947075367" cy="157.86169730126858" r="3" style="fill: steelblue;"></circle><circle cx="133.32073330879214" cy="253.66368293762207" r="3" style="fill: steelblue;"></circle><circle cx="128.61928582191467" cy="189.65745512396097" r="3" style="fill: steelblue;"></circle><circle cx="280.7435327768326" cy="212.93423771858215" r="3" style="fill: steelblue;"></circle><circle cx="288.9721745252609" cy="211.41509674489498" r="3" style="fill: steelblue;"></circle><circle cx="80.78620076179506" cy="185.55966075509787" r="3" style="fill: steelblue;"></circle><circle cx="139.38575327396393" cy="146.89830280840397" r="3" style="fill: steelblue;"></circle><circle cx="207.57632419466972" cy="270.29723078012466" r="3" style="fill: steelblue;"></circle><circle cx="80.36625623703004" cy="203.21330167353153" r="3" style="fill: steelblue;"></circle><circle cx="184.99078541994095" cy="195.77873460948467" r="3" style="fill: steelblue;"></circle><circle cx="113.90168309211732" cy="221.39597907662392" r="3" style="fill: steelblue;"></circle><circle cx="87.18391299247743" cy="324.6814340353012" r="3" style="fill: steelblue;"></circle><circle cx="160.89342176914215" cy="169.44054821506143" r="3" style="fill: steelblue;"></circle><circle cx="243.5647471435368" cy="187.18181904405355" r="3" style="fill: steelblue;"></circle><circle cx="247.978074811399" cy="71.7078223824501" r="3" style="fill: steelblue;"></circle><circle cx="155.76936542987826" cy="128.67842391133308" r="3" style="fill: steelblue;"></circle><circle cx="275.9549604356289" cy="158.66084229201078" r="3" style="fill: steelblue;"></circle><circle cx="242.90921162813902" cy="95.58674842119217" r="3" style="fill: steelblue;"></circle><circle cx="207.56728515028956" cy="74.20593947172165" r="3" style="fill: steelblue;"></circle><circle cx="283.8483998179436" cy="86.084945499897" r="3" style="fill: steelblue;"></circle><circle cx="370.4195433855057" cy="141.12004190683365" r="3" style="fill: steelblue;"></circle><circle cx="405.2620196342468" cy="127.01105326414108" r="3" style="fill: steelblue;"></circle><circle cx="284.6832686662674" cy="62.33144998550415" r="3" style="fill: steelblue;"></circle><circle cx="240.88127749040723" cy="123.62873703241348" r="3" style="fill: steelblue;"></circle><circle cx="231.14318881183863" cy="130.13008534908295" r="3" style="fill: steelblue;"></circle><circle cx="211.17186561226845" cy="253.65152582526207" r="3" style="fill: steelblue;"></circle><circle cx="282.4332797527313" cy="149.50540624558926" r="3" style="fill: steelblue;"></circle><circle cx="276.68279349803925" cy="213.5876003652811" r="3" style="fill: steelblue;"></circle><circle cx="59.67818140983583" cy="174.67206606233958" r="3" style="fill: steelblue;"></circle><circle cx="57.03250408172608" cy="246.76069617271423" r="3" style="fill: steelblue;"></circle><circle cx="277.71680295467377" cy="172.44758906308562" r="3" style="fill: steelblue;"></circle><circle cx="30.87796211242677" cy="184.0205630287528" r="3" style="fill: steelblue;"></circle><circle cx="92.87263691425325" cy="175.01476220786572" r="3" style="fill: steelblue;"></circle><circle cx="323.581405878067" cy="161.84867341071367" r="3" style="fill: steelblue;"></circle><circle cx="103.1025016307831" cy="178.08012254536152" r="3" style="fill: steelblue;"></circle><circle cx="133.50847899913788" cy="209.10356864333153" r="3" style="fill: steelblue;"></circle><circle cx="81.32536053657533" cy="225.99498182535172" r="3" style="fill: steelblue;"></circle><circle cx="237.3948759958148" cy="214.22485783696175" r="3" style="fill: steelblue;"></circle><circle cx="240.83281032275409" cy="212.23343051970005" r="3" style="fill: steelblue;"></circle><circle cx="175.6059864163399" cy="78.66848111152649" r="3" style="fill: steelblue;"></circle><circle cx="374.5206141471863" cy="125.69540441036224" r="3" style="fill: steelblue;"></circle><circle cx="377.14788258075714" cy="131.9915473461151" r="3" style="fill: steelblue;"></circle><circle cx="487.66920804977417" cy="116.96134582161903" r="3" style="fill: steelblue;"></circle><circle cx="370.17354011535645" cy="106.14504665136337" r="3" style="fill: steelblue;"></circle><circle cx="294.1396379470825" cy="163.5745583102107" r="3" style="fill: steelblue;"></circle><circle cx="356.3948714733124" cy="145.85131257772446" r="3" style="fill: steelblue;"></circle><circle cx="401.9235098361969" cy="154.28392849862576" r="3" style="fill: steelblue;"></circle><circle cx="327.6500129699707" cy="106.38980567455292" r="3" style="fill: steelblue;"></circle><circle cx="198.81196707487106" cy="232.81307220458984" r="3" style="fill: steelblue;"></circle><circle cx="176.47789657115936" cy="193.01024563610554" r="3" style="fill: steelblue;"></circle><circle cx="209.93598192930222" cy="225.38369968533516" r="3" style="fill: steelblue;"></circle><circle cx="254.6406602114439" cy="228.14892902970314" r="3" style="fill: steelblue;"></circle><circle cx="179.65816497802734" cy="202.33653709292412" r="3" style="fill: steelblue;"></circle><circle cx="59.519984722137465" cy="244.73178833723068" r="3" style="fill: steelblue;"></circle><circle cx="134.02484893798828" cy="204.96333129703999" r="3" style="fill: steelblue;"></circle><circle cx="213.76069799065593" cy="225.6507858633995" r="3" style="fill: steelblue;"></circle><circle cx="220.00464141368866" cy="154.62770462036133" r="3" style="fill: steelblue;"></circle><circle cx="23.25285315513612" cy="236.2605758011341" r="3" style="fill: steelblue;"></circle><circle cx="104.02210593223572" cy="122.9314997792244" r="3" style="fill: steelblue;"></circle><circle cx="38.18648099899293" cy="188.29511012881994" r="3" style="fill: steelblue;"></circle><circle cx="400.9222233295441" cy="169.78297159075737" r="3" style="fill: steelblue;"></circle><circle cx="438.4981298446655" cy="133.0752618610859" r="3" style="fill: steelblue;"></circle><circle cx="269.70270439982414" cy="54.62832599878311" r="3" style="fill: steelblue;"></circle><circle cx="261.4705131947994" cy="169.24666743725538" r="3" style="fill: steelblue;"></circle><circle cx="337.97462224960327" cy="66.28896296024323" r="3" style="fill: steelblue;"></circle><circle cx="336.91321849823" cy="23.92885833978653" r="3" style="fill: steelblue;"></circle><circle cx="306.6632696986199" cy="292.5366625189781" r="3" style="fill: steelblue;"></circle><circle cx="241.48806399665776" cy="252.2064983844757" r="3" style="fill: steelblue;"></circle><circle cx="246.69001433998346" cy="136.4907741546631" r="3" style="fill: steelblue;"></circle><circle cx="273.60753804445267" cy="309.5369890332222" r="3" style="fill: steelblue;"></circle><circle cx="123.75780880451202" cy="266.4896607398987" r="3" style="fill: steelblue;"></circle><circle cx="84.44603919982912" cy="234.6432365477085" r="3" style="fill: steelblue;"></circle></g></svg>