<svg xmlns="http://www.w3.org/2000/svg"><g><circle cx="28.91058921813965" cy="172.52567079332138" r="2" style="fill: steelblue;"></circle><circle cx="101.58841367810965" cy="141.91656311353046" r="2" style="fill: steelblue;"></circle><circle cx="66.54091477394104" cy="146.27120229932996" r="2" style="fill: steelblue;"></circle><circle cx="36.38458251953125" cy="169.80494393242728" r="2" style="fill: steelblue;"></circle><circle cx="69.68985497951508" cy="88.94807762569852" r="2" style="fill: steelblue;"></circle><circle cx="126.5272706747055" cy="131.3831607500712" r="2" style="fill: steelblue;"></circle><circle cx="49.92119073867798" cy="84.31475195619795" r="2" style="fill: steelblue;"></circle><circle cx="121.02123349905014" cy="151.8106824821896" r="2" style="fill: steelblue;"></circle><circle cx="68.02442967891693" cy="134.24925340546503" r="2" style="fill: steelblue;"></circle><circle cx="74.26957190036774" cy="121.72932260566287" r="2" style="fill: steelblue;"></circle><circle cx="117.13352054357529" cy="129.15521032280392" r="2" style="fill: steelblue;"></circle><circle cx="81.67096227407455" cy="142.41471224360996" r="2" style="fill: steelblue;"></circle><circle cx="102.20397189259529" cy="160.16119718551636" r="2" style="fill: steelblue;"></circle><circle cx="66.6130393743515" cy="139.23411568005878" r="2" style="fill: steelblue;"></circle><circle cx="84.12346541881561" cy="158.49684675534564" r="2" style="fill: steelblue;"></circle><circle cx="27.480047941207886" cy="186.8405408329434" r="2" style="fill: steelblue;"></circle><circle cx="88.56203556060791" cy="97.00134230984581" r="2" style="fill: steelblue;"></circle><circle cx="60.41390895843506" cy="60.67094537946913" r="2" style="fill: steelblue;"></circle><circle cx="128.28345000743866" cy="98.83252696858511" r="2" style="fill: steelblue;"></circle><circle cx="144.62479054927826" cy="136.70179082287683" r="2" style="fill: steelblue;"></circle><circle cx="132.33676254749298" cy="147.23930425114102" r="2" style="fill: steelblue;"></circle><circle cx="64.06045854091644" cy="50.30138625038993" r="2" style="fill: steelblue;"></circle><circle cx="75.9110376238823" cy="103.75517358382542" r="2" style="fill: steelblue;"></circle><circle cx="77.74248123168945" cy="152.64613760842218" r="2" style="fill: steelblue;"></circle><circle cx="33.626264333724976" cy="154.65540687243143" r="2" style="fill: steelblue;"></circle><circle cx="111.58447191119194" cy="158.2427720228831" r="2" style="fill: steelblue;"></circle><circle cx="66.37943089008331" cy="183.43775139914618" r="2" style="fill: steelblue;"></circle><circle cx="97.27650452405214" cy="65.61642554071214" r="2" style="fill: steelblue;"></circle><circle cx="36.0834002494812" cy="148.7079792552524" r="2" style="fill: steelblue;"></circle><circle cx="131.34514093399048" cy="110.32801343955927" r="2" style="fill: steelblue;"></circle><circle cx="121.68131023645401" cy="37.28935453626845" r="2" style="fill: steelblue;"></circle><circle cx="144.9506014585495" cy="75.14710889922247" r="2" style="fill: steelblue;"></circle><circle cx="146.13297581672668" cy="49.571990966796875" r="2" style="fill: steelblue;"></circle><circle cx="96.83895707130432" cy="65.47191076808505" r="2" style="fill: steelblue;"></circle><circle cx="112.02580779790878" cy="57.99845854441325" r="2" style="fill: steelblue;"></circle><circle cx="116.18928015232086" cy="148.73717890845404" r="2" style="fill: steelblue;"></circle><circle cx="81.7954272031784" cy="125.22715826829274" r="2" style="fill: steelblue;"></circle><circle cx="85.4816123843193" cy="141.43745435608758" r="2" style="fill: steelblue;"></circle><circle cx="52.53269970417023" cy="114.07726382215817" r="2" style="fill: steelblue;"></circle><circle cx="94.97269615530968" cy="142.33257704310947" r="2" style="fill: steelblue;"></circle><circle cx="144.90668773651123" cy="183.42872460683185" r="2" style="fill: steelblue;"></circle><circle cx="150.79271793365479" cy="93.09377604060703" r="2" style="fill: steelblue;"></circle><circle cx="112.17628940939903" cy="67.07463661829631" r="2" style="fill: steelblue;"></circle><circle cx="136.73474788665771" cy="90.73271519607968" r="2" style="fill: steelblue;"></circle><circle cx="111.48023083806038" cy="81.0658468140496" r="2" style="fill: steelblue;"></circle><circle cx="151.00884437561035" cy="53.840816020965576" r="2" style="fill: steelblue;"></circle><circle cx="63.324037194252014" cy="92.57164597511292" r="2" style="fill: steelblue;"></circle><circle cx="38.29025626182556" cy="166.3691500822703" r="2" style="fill: steelblue;"></circle><circle cx="49.41364526748657" cy="169.3590349621243" r="2" style="fill: steelblue;"></circle><circle cx="41.10769033432007" cy="107.04997057716051" r="2" style="fill: steelblue;"></circle><circle cx="108.80816206336021" cy="110.25433283713129" r="2" style="fill: steelblue;"></circle><circle cx="39.96747136116028" cy="68.10947590404086" r="2" style="fill: steelblue;"></circle><circle cx="75.75927525758743" cy="156.44385417302448" r="2" style="fill: steelblue;"></circle><circle cx="90.20992070436478" cy="106.03538362516298" r="2" style="fill: steelblue;"></circle><circle cx="115.87333381175995" cy="139.34732476870218" r="2" style="fill: steelblue;"></circle><circle cx="64.69049751758575" cy="108.23817199303045" r="2" style="fill: steelblue;"></circle><circle cx="108.43155980110168" cy="130.09108768569098" r="2" style="fill: steelblue;"></circle><circle cx="73.86334538459778" cy="144.75637012057834" r="2" style="fill: steelblue;"></circle><circle cx="132.46310949325562" cy="82.4849373764462" r="2" style="fill: steelblue;"></circle><circle cx="76.34941786527634" cy="76.08560058805678" r="2" style="fill: steelblue;"></circle><circle cx="39.29089307785034" cy="163.09133503172134" r="2" style="fill: steelblue;"></circle><circle cx="51.58804953098297" cy="102.4139126141866" r="2" style="fill: steelblue;"></circle><circle cx="9.219318628311157" cy="113.36448022888766" r="2" style="fill: steelblue;"></circle><circle cx="15.077835321426392" cy="184.91396639082168" r="2" style="fill: steelblue;"></circle><circle cx="76.33380889892578" cy="174.54381783803302" r="2" style="fill: steelblue;"></circle><circle cx="49.94340538978577" cy="193.5998731189304" r="2" style="fill: steelblue;"></circle><circle cx="47.83517122268677" cy="137.48843140072293" r="2" style="fill: steelblue;"></circle><circle cx="120.900359749794" cy="180.9952523973253" r="2" style="fill: steelblue;"></circle><circle cx="34.782665967941284" cy="147.10053470399643" r="2" style="fill: steelblue;"></circle><circle cx="95.1558742672205" cy="88.77154522471957" r="2" style="fill: steelblue;"></circle><circle cx="29.28681969642639" cy="108.48593235843711" r="2" style="fill: steelblue;"></circle><circle cx="128.7827342748642" cy="56.916061374876236" r="2" style="fill: steelblue;"></circle><circle cx="122.23695069551468" cy="143.0518825848897" r="2" style="fill: steelblue;"></circle><circle cx="154.05619740486145" cy="123.1525954273012" r="2" style="fill: steelblue;"></circle><circle cx="106.11711777746677" cy="85.98280615276761" r="2" style="fill: steelblue;"></circle><circle cx="91.79366305470467" cy="35.68424781163533" r="2" style="fill: steelblue;"></circle><circle cx="145.7523226737976" cy="118.03553170628018" r="2" style="fill: steelblue;"></circle><circle cx="107.55355060100555" cy="53.507215446896026" r="2" style="fill: steelblue;"></circle><circle cx="95.93744613230228" cy="39.618055025736496" r="2" style="fill: steelblue;"></circle><circle cx="129.2700171470642" cy="33.79352225197687" r="2" style="fill: steelblue;"></circle><circle cx="149.34862852096558" cy="71.06169727113512" r="2" style="fill: steelblue;"></circle><circle cx="184.49092507362366" cy="60.499240954716996" r="2" style="fill: steelblue;"></circle><circle cx="113.22938054800034" cy="150.79942014482285" r="2" style="fill: steelblue;"></circle><circle cx="81.07146918773651" cy="104.02576542562909" r="2" style="fill: steelblue;"></circle><circle cx="68.2121753692627" cy="134.66589483949872" r="2" style="fill: steelblue;"></circle><circle cx="82.96888470649719" cy="63.83412414126926" r="2" style="fill: steelblue;"></circle><circle cx="94.51364614069462" cy="100.26812470621533" r="2" style="fill: steelblue;"></circle><circle cx="132.81991183757782" cy="147.5243866443634" r="2" style="fill: steelblue;"></circle><circle cx="113.46070319414139" cy="64.8241572909885" r="2" style="fill: steelblue;"></circle><circle cx="118.74755620956421" cy="112.7406879224711" r="2" style="fill: steelblue;"></circle><circle cx="110.64260303974152" cy="85.25123695532481" r="2" style="fill: steelblue;"></circle><circle cx="127.58894860744476" cy="86.48454315132565" r="2" style="fill: steelblue;"></circle><circle cx="99.38351102173328" cy="123.79016644424863" r="2" style="fill: steelblue;"></circle><circle cx="104.66057136654854" cy="85.86267133553822" r="2" style="fill: steelblue;"></circle><circle cx="111.18493974208832" cy="39.18867641025119" r="2" style="fill: steelblue;"></circle><circle cx="117.9448738694191" cy="66.45509931776259" r="2" style="fill: steelblue;"></circle><circle cx="122.14924395084381" cy="77.31500599119398" r="2" style="fill: steelblue;"></circle><circle cx="69.42275762557983" cy="148.35773242844476" r="2" style="fill: steelblue;"></circle><circle cx="137.0547205209732" cy="31.408839755588104" r="2" style="fill: steelblue;"></circle><circle cx="131.36552274227142" cy="20.684666103786896" r="2" style="fill: steelblue;"></circle><circle cx="99.9063462310005" cy="108.07867844899495" r="2" style="fill: steelblue;"></circle><circle cx="113.84615302085876" cy="63.92151448461745" r="2" style="fill: steelblue;"></circle><circle cx="132.81187415122986" cy="145.45768168237473" r="2" style="fill: steelblue;"></circle><circle cx="171.22222185134888" cy="19.891043504079175" r="2" style="fill: steelblue;"></circle><circle cx="159.406578540802" cy="80.7776583565606" r="2" style="fill: steelblue;"></circle><circle cx="147.27970361709595" cy="80.72925276226468" r="2" style="fill: steelblue;"></circle><circle cx="145.0983613729477" cy="94.16867792606354" r="2" style="fill: steelblue;"></circle><circle cx="129.61681485176086" cy="118.95300696293512" r="2" style="fill: steelblue;"></circle><circle cx="117.76073724031448" cy="49.76828230751886" r="2" style="fill: steelblue;"></circle><circle cx="83.36287289857864" cy="21.111276414659287" r="2" style="fill: steelblue;"></circle><circle cx="141.37988090515137" cy="52.399290932549356" r="2" style="fill: steelblue;"></circle><circle cx="106.20092749595642" cy="103.74350845813751" r="2" style="fill: steelblue;"></circle><circle cx="40.851181745529175" cy="137.6202619738049" r="2" style="fill: steelblue;"></circle><circle cx="115.25365263223648" cy="78.90260219573975" r="2" style="fill: steelblue;"></circle><circle cx="67.17612147331238" cy="67.95788804690044" r="2" style="fill: steelblue;"></circle><circle cx="80.43390959501266" cy="149.4210660457611" r="2" style="fill: steelblue;"></circle><circle cx="54.22511100769043" cy="145.83131339814926" r="2" style="fill: steelblue;"></circle><circle cx="106.80637955665588" cy="106.68147231141725" r="2" style="fill: steelblue;"></circle></g></svg>