<svg xmlns="http://www.w3.org/2000/svg"><g><circle cx="27.710186110602486" cy="85.54470539093018" r="2" style="fill: steelblue;"></circle><circle cx="29.15951775179969" cy="49.20579316094518" r="2" style="fill: steelblue;"></circle><circle cx="77.62227290206485" cy="66.72954261302948" r="2" style="fill: steelblue;"></circle><circle cx="54.8153204532961" cy="81.80770874023438" r="2" style="fill: steelblue;"></circle><circle cx="34.7499003012975" cy="65.15507251024246" r="2" style="fill: steelblue;"></circle><circle cx="47.45623386568493" cy="36.73636466264725" r="2" style="fill: steelblue;"></circle><circle cx="32.042288117938575" cy="75.03940463066101" r="2" style="fill: steelblue;"></circle><circle cx="45.844193134042946" cy="39.48938325047493" r="2" style="fill: steelblue;"></circle><circle cx="42.7780763970481" cy="65.98778516054153" r="2" style="fill: steelblue;"></circle><circle cx="58.548781813846695" cy="62.86521404981613" r="2" style="fill: steelblue;"></circle><circle cx="32.99485974841648" cy="41.43323972821236" r="2" style="fill: steelblue;"></circle><circle cx="78.46622831291621" cy="59.16451886296272" r="2" style="fill: steelblue;"></circle><circle cx="33.77832141187456" cy="48.898014053702354" r="2" style="fill: steelblue;"></circle><circle cx="21.878735886679753" cy="66.69348031282425" r="2" style="fill: steelblue;"></circle><circle cx="52.68156445688671" cy="57.938267290592194" r="2" style="fill: steelblue;"></circle><circle cx="49.51535248094135" cy="86.25997602939606" r="2" style="fill: steelblue;"></circle><circle cx="53.19747784071498" cy="55.718982219696045" r="2" style="fill: steelblue;"></circle><circle cx="72.46433032883537" cy="69.79304552078247" r="2" style="fill: steelblue;"></circle><circle cx="86.00637316703796" cy="35.85827499628067" r="2" style="fill: steelblue;"></circle><circle cx="79.97299234072366" cy="27.68760472536087" r="2" style="fill: steelblue;"></circle><circle cx="42.328499257564545" cy="33.83161872625351" r="2" style="fill: steelblue;"></circle><circle cx="82.76629447937012" cy="67.96977072954178" r="2" style="fill: steelblue;"></circle><circle cx="22.55104316605462" cy="62.04448118805885" r="2" style="fill: steelblue;"></circle><circle cx="40.668588545587326" cy="61.12875938415527" r="2" style="fill: steelblue;"></circle><circle cx="49.89111257923974" cy="83.18686783313751" r="2" style="fill: steelblue;"></circle><circle cx="58.23770848413309" cy="44.20776404440403" r="2" style="fill: steelblue;"></circle><circle cx="58.47134648097886" cy="66.81028455495834" r="2" style="fill: steelblue;"></circle><circle cx="31.00249336825477" cy="51.36174773797393" r="2" style="fill: steelblue;"></circle><circle cx="32.945288552178276" cy="81.9582998752594" r="2" style="fill: steelblue;"></circle><circle cx="51.497826973597206" cy="34.32742953300476" r="2" style="fill: steelblue;"></circle><circle cx="81.44056962596046" cy="39.159344881772995" r="2" style="fill: steelblue;"></circle><circle cx="83.3243578672409" cy="27.52469927072525" r="2" style="fill: steelblue;"></circle><circle cx="57.25776093701521" cy="26.933512091636658" r="2" style="fill: steelblue;"></circle><circle cx="57.97164473268721" cy="51.58052146434784" r="2" style="fill: steelblue;"></circle><circle cx="64.50184517436557" cy="43.98709610104561" r="2" style="fill: steelblue;"></circle><circle cx="44.76619097921583" cy="41.90535992383957" r="2" style="fill: steelblue;"></circle><circle cx="25.41986438963148" cy="59.1022863984108" r="2" style="fill: steelblue;"></circle><circle cx="25.464716884824963" cy="57.25919380784035" r="2" style="fill: steelblue;"></circle><circle cx="22.400240103403725" cy="73.73365014791489" r="2" style="fill: steelblue;"></circle><circle cx="33.809199929237366" cy="52.51365192234516" r="2" style="fill: steelblue;"></circle><circle cx="42.40550845861435" cy="27.546656131744385" r="2" style="fill: steelblue;"></circle><circle cx="88.70503306388855" cy="24.603641033172607" r="2" style="fill: steelblue;"></circle><circle cx="46.164607836140526" cy="43.911855295300484" r="2" style="fill: steelblue;"></circle><circle cx="65.46692964103487" cy="31.632626056671143" r="2" style="fill: steelblue;"></circle><circle cx="81.03873332341512" cy="44.25988458096981" r="2" style="fill: steelblue;"></circle><circle cx="57.04812126027213" cy="24.495577812194824" r="2" style="fill: steelblue;"></circle><circle cx="75.84745188554128" cy="68.337981402874" r="2" style="fill: steelblue;"></circle><circle cx="37.465646862983704" cy="80.85487186908722" r="2" style="fill: steelblue;"></circle><circle cx="53.102091782622864" cy="75.29317736625671" r="2" style="fill: steelblue;"></circle><circle cx="27.196953694025677" cy="79.44615483283997" r="2" style="fill: steelblue;"></circle><circle cx="42.66497244437535" cy="45.59591896831989" r="2" style="fill: steelblue;"></circle><circle cx="72.79928194151985" cy="80.01626431941986" r="2" style="fill: steelblue;"></circle><circle cx="57.132924389508034" cy="62.120362371206284" r="2" style="fill: steelblue;"></circle><circle cx="52.04137787222862" cy="54.89503964781761" r="2" style="fill: steelblue;"></circle><circle cx="64.00686088535521" cy="42.063333094120026" r="2" style="fill: steelblue;"></circle><circle cx="28.07903620931837" cy="67.65475124120712" r="2" style="fill: steelblue;"></circle><circle cx="26.551832755406696" cy="45.78422009944916" r="2" style="fill: steelblue;"></circle><circle cx="41.38578805658552" cy="63.06832730770111" r="2" style="fill: steelblue;"></circle><circle cx="41.6929531428549" cy="33.76844525337219" r="2" style="fill: steelblue;"></circle><circle cx="69.48843598365784" cy="61.82529106736183" r="2" style="fill: steelblue;"></circle><circle cx="27.91741159227159" cy="80.35455346107483" r="2" style="fill: steelblue;"></circle><circle cx="64.39396325084898" cy="74.20597523450851" r="2" style="fill: steelblue;"></circle><circle cx="62.76163458824158" cy="95.39034068584442" r="2" style="fill: steelblue;"></circle><circle cx="31.91172745492723" cy="92.4610823392868" r="2" style="fill: steelblue;"></circle><circle cx="30.240340365303886" cy="61.83309555053711" r="2" style="fill: steelblue;"></circle><circle cx="17.41789115799798" cy="75.02829730510712" r="2" style="fill: steelblue;"></circle><circle cx="60.953427106142044" cy="76.08241438865662" r="2" style="fill: steelblue;"></circle><circle cx="36.98665234777662" cy="39.549820125103" r="2" style="fill: steelblue;"></circle><circle cx="17.675062020619713" cy="82.60866701602936" r="2" style="fill: steelblue;"></circle><circle cx="29.937754074732464" cy="52.42206286638975" r="2" style="fill: steelblue;"></circle><circle cx="8.493648635016546" cy="85.3565901517868" r="2" style="fill: steelblue;"></circle><circle cx="78.00471782684326" cy="35.6086328625679" r="2" style="fill: steelblue;"></circle><circle cx="60.643037574158775" cy="38.88152465224266" r="2" style="fill: steelblue;"></circle><circle cx="72.30642603503334" cy="22.971901297569275" r="2" style="fill: steelblue;"></circle><circle cx="84.37059985266792" cy="46.94144111126661" r="2" style="fill: steelblue;"></circle><circle cx="54.14555128663778" cy="54.10316847264767" r="2" style="fill: steelblue;"></circle><circle cx="59.86942847569784" cy="27.123838663101196" r="2" style="fill: steelblue;"></circle><circle cx="92.04255872302585" cy="46.22322469949722" r="2" style="fill: steelblue;"></circle><circle cx="83.30309391021729" cy="52.03127693384886" r="2" style="fill: steelblue;"></circle><circle cx="70.50662073824141" cy="35.364991426467896" r="2" style="fill: steelblue;"></circle><circle cx="78.93575562371147" cy="25.325685739517212" r="2" style="fill: steelblue;"></circle><circle cx="96.87510463926527" cy="7.754537463188171" r="2" style="fill: steelblue;"></circle><circle cx="64.41685060660043" cy="43.38530972599983" r="2" style="fill: steelblue;"></circle><circle cx="35.6816119617886" cy="59.464265406131744" r="2" style="fill: steelblue;"></circle><circle cx="74.31576318211025" cy="65.89391231536865" r="2" style="fill: steelblue;"></circle><circle cx="43.9273069302241" cy="58.515557646751404" r="2" style="fill: steelblue;"></circle><circle cx="67.34902494483524" cy="52.74317692965269" r="2" style="fill: steelblue;"></circle><circle cx="70.60611082447899" cy="33.59004408121109" r="2" style="fill: steelblue;"></circle><circle cx="59.973417884773674" cy="43.269648402929306" r="2" style="fill: steelblue;"></circle><circle cx="72.18534582191043" cy="40.626221895217896" r="2" style="fill: steelblue;"></circle><circle cx="85.55828200446236" cy="44.67869848012924" r="2" style="fill: steelblue;"></circle><circle cx="82.45167798466152" cy="36.20552569627762" r="2" style="fill: steelblue;"></circle><circle cx="37.49369581540425" cy="50.30824448913336" r="2" style="fill: steelblue;"></circle><circle cx="38.633661137686836" cy="47.66971431672573" r="2" style="fill: steelblue;"></circle><circle cx="56.98458281242185" cy="44.40753012895584" r="2" style="fill: steelblue;"></circle><circle cx="46.78480409913593" cy="41.02756306529045" r="2" style="fill: steelblue;"></circle><circle cx="77.54273381498125" cy="38.925378024578094" r="2" style="fill: steelblue;"></circle><circle cx="62.571555376052856" cy="65.28862118721008" r="2" style="fill: steelblue;"></circle><circle cx="83.85986089706421" cy="31.472639739513397" r="2" style="fill: steelblue;"></circle><circle cx="28.015351957745022" cy="34.31723862886429" r="2" style="fill: steelblue;"></circle><circle cx="76.35636130968729" cy="50.04682688449975" r="2" style="fill: steelblue;"></circle><circle cx="54.328106654187046" cy="43.07692348957062" r="2" style="fill: steelblue;"></circle><circle cx="63.97067507108053" cy="33.59406292438507" r="2" style="fill: steelblue;"></circle><circle cx="26.703109343846638" cy="14.388889074325562" r="2" style="fill: steelblue;"></circle><circle cx="75.69276127550337" cy="20.296710729599" r="2" style="fill: steelblue;"></circle><circle cx="59.360468139251076" cy="26.360148191452026" r="2" style="fill: steelblue;"></circle><circle cx="63.84903440872828" cy="27.450819313526154" r="2" style="fill: steelblue;"></circle><circle cx="61.20733461446232" cy="35.19159257411957" r="2" style="fill: steelblue;"></circle><circle cx="53.375636330909195" cy="41.11963137984276" r="2" style="fill: steelblue;"></circle><circle cx="47.98773924509684" cy="58.31856355071068" r="2" style="fill: steelblue;"></circle><circle cx="74.3682798412111" cy="29.310059547424316" r="2" style="fill: steelblue;"></circle><circle cx="73.46788379881117" cy="46.89953625202179" r="2" style="fill: steelblue;"></circle><circle cx="37.43299345175426" cy="79.57440912723541" r="2" style="fill: steelblue;"></circle><circle cx="39.29961224397023" cy="42.37317368388176" r="2" style="fill: steelblue;"></circle><circle cx="50.54762835303942" cy="66.41193926334381" r="2" style="fill: steelblue;"></circle><circle cx="24.558696481916638" cy="59.78304520249367" r="2" style="fill: steelblue;"></circle><circle cx="54.11327506105105" cy="72.88744449615479" r="2" style="fill: steelblue;"></circle><circle cx="36.47091653611925" cy="46.59681022167206" r="2" style="fill: steelblue;"></circle></g></svg>