<svg xmlns="http://www.w3.org/2000/svg"><g transform="translate(40,20)"><circle cx="329.3165596042361" cy="79.20921053737402" r="3" style="fill: steelblue;"></circle><circle cx="234.36857383831273" cy="178.15300980582833" r="3" style="fill: steelblue;"></circle><circle cx="474.20211451394226" cy="125.46361349523067" r="3" style="fill: steelblue;"></circle><circle cx="424.9987833840507" cy="200.08052601478994" r="3" style="fill: steelblue;"></circle><circle cx="451.8415955134801" cy="69.25693079829216" r="3" style="fill: steelblue;"></circle><circle cx="536.7818135874613" cy="159.61655899882317" r="3" style="fill: steelblue;"></circle><circle cx="350.3687085424151" cy="138.0756233818829" r="3" style="fill: steelblue;"></circle><circle cx="467.0302018097469" cy="100.62323249876499" r="3" style="fill: steelblue;"></circle><circle cx="402.67960105623524" cy="89.61824905127287" r="3" style="fill: steelblue;"></circle><circle cx="513.2964221068792" cy="43.97231452167034" r="3" style="fill: steelblue;"></circle><circle cx="402.04160698822574" cy="34.422774985432625" r="3" style="fill: steelblue;"></circle><circle cx="384.61772816521784" cy="128.53657333180308" r="3" style="fill: steelblue;"></circle><circle cx="315.5765760796411" cy="157.87961515598" r="3" style="fill: steelblue;"></circle><circle cx="365.03622676645006" cy="91.42382927238941" r="3" style="fill: steelblue;"></circle><circle cx="251.60369836858342" cy="93.70744060724974" r="3" style="fill: steelblue;"></circle><circle cx="226.1432281535651" cy="6.225315108895302" r="3" style="fill: steelblue;"></circle><circle cx="424.16460105351047" cy="79.8164077103138" r="3" style="fill: steelblue;"></circle><circle cx="269.83346988047873" cy="35.82807928323746" r="3" style="fill: steelblue;"></circle><circle cx="300.63200673886706" cy="201.9804138224572" r="3" style="fill: steelblue;"></circle><circle cx="533.2542872428895" cy="97.49284777790308" r="3" style="fill: steelblue;"></circle><circle cx="210.81824410174573" cy="220.58527935296297" r="3" style="fill: steelblue;"></circle><circle cx="235.00224050932698" cy="167.38060414791107" r="3" style="fill: steelblue;"></circle><circle cx="209.05177812491144" cy="111.11374218016863" r="3" style="fill: steelblue;"></circle><circle cx="386.2131444045476" cy="112.43280973285437" r="3" style="fill: steelblue;"></circle><circle cx="163.32842064755303" cy="179.38729603774846" r="3" style="fill: steelblue;"></circle><circle cx="107.40072446210044" cy="222.32936015352607" r="3" style="fill: steelblue;"></circle><circle cx="131.85358490262715" cy="150.25392659008503" r="3" style="fill: steelblue;"></circle><circle cx="518.1635509218489" cy="242.03082844614983" r="3" style="fill: steelblue;"></circle><circle cx="412.7299416916712" cy="203.51559966802597" r="3" style="fill: steelblue;"></circle><circle cx="148.64899341549193" cy="268.49943324923515" r="3" style="fill: steelblue;"></circle><circle cx="174.81013553483146" cy="264.9091539904475" r="3" style="fill: steelblue;"></circle><circle cx="252.61703885027342" cy="167.8073751507327" r="3" style="fill: steelblue;"></circle><circle cx="228.3533449125077" cy="171.95981267723255" r="3" style="fill: steelblue;"></circle><circle cx="115.39717503956386" cy="105.69862481206656" r="3" style="fill: steelblue;"></circle><circle cx="263.8340225815773" cy="157.43298241868615" r="3" style="fill: steelblue;"></circle><circle cx="381.78247613566265" cy="206.1992783099413" r="3" style="fill: steelblue;"></circle><circle cx="80.39903742926461" cy="222.55287617444992" r="3" style="fill: steelblue;"></circle><circle cx="61.90976219517844" cy="316.2008833140135" r="3" style="fill: steelblue;"></circle><circle cx="111.98128989764622" cy="293.32436360418797" r="3" style="fill: steelblue;"></circle><circle cx="90.5957806961877" cy="280.1398226991296" r="3" style="fill: steelblue;"></circle><circle cx="95.90425550937653" cy="259.5203874632716" r="3" style="fill: steelblue;"></circle><circle cx="219.32814564023698" cy="184.83082922175527" r="3" style="fill: steelblue;"></circle><circle cx="212.09703562515122" cy="173.57446053647436" r="3" style="fill: steelblue;"></circle><circle cx="197.10128973637308" cy="145.46874882653356" r="3" style="fill: steelblue;"></circle><circle cx="151.38636972223009" cy="181.46925898035988" r="3" style="fill: steelblue;"></circle><circle cx="130.06984310490745" cy="305.4241195321083" r="3" style="fill: steelblue;"></circle><circle cx="214.58000632269042" cy="203.85986538603902" r="3" style="fill: steelblue;"></circle><circle cx="128.6587406056268" cy="202.84572960808873" r="3" style="fill: steelblue;"></circle><circle cx="139.4870981148311" cy="200.76802903786302" r="3" style="fill: steelblue;"></circle><circle cx="125.57618124144417" cy="131.16572489961982" r="3" style="fill: steelblue;"></circle><circle cx="54.82559221131461" cy="182.59174197446555" r="3" style="fill: steelblue;"></circle><circle cx="285.7747605443001" cy="245.55871840566397" r="3" style="fill: steelblue;"></circle><circle cx="91.46335652896336" cy="197.6376100908965" r="3" style="fill: steelblue;"></circle><circle cx="160.09901033980506" cy="238.10628075152636" r="3" style="fill: steelblue;"></circle><circle cx="147.69319781235285" cy="229.23269048333168" r="3" style="fill: steelblue;"></circle><circle cx="132.7538300412042" cy="211.3994687795639" r="3" style="fill: steelblue;"></circle><circle cx="135.717017693179" cy="238.46718687564135" r="3" style="fill: steelblue;"></circle><circle cx="108.6323526927403" cy="200.72741406038404" r="3" style="fill: steelblue;"></circle><circle cx="10.890479769025523" cy="133.8219542056322" r="3" style="fill: steelblue;"></circle><circle cx="94.33748526232583" cy="177.3364262888208" r="3" style="fill: steelblue;"></circle><circle cx="409.28620372499745" cy="159.17223407886922" r="3" style="fill: steelblue;"></circle><circle cx="473.93133401870733" cy="57.27096199989319" r="3" style="fill: steelblue;"></circle><circle cx="391.7665930305209" cy="119.26640029996634" r="3" style="fill: steelblue;"></circle><circle cx="296.825555562973" cy="94.19670440256596" r="3" style="fill: steelblue;"></circle><circle cx="395.067583833422" cy="287.5643253326416" r="3" style="fill: steelblue;"></circle><circle cx="351.39838942459653" cy="165.21760560572147" r="3" style="fill: steelblue;"></circle><circle cx="340.46851796763286" cy="147.26121230050921" r="3" style="fill: steelblue;"></circle><circle cx="149.37115520238876" cy="155.13354721479118" r="3" style="fill: steelblue;"></circle><circle cx="197.39798324448722" cy="225.55656237527728" r="3" style="fill: steelblue;"></circle><circle cx="279.367599274431" cy="231.46181385964155" r="3" style="fill: steelblue;"></circle><circle cx="442.49764527593345" cy="101.44844017922878" r="3" style="fill: steelblue;"></circle><circle cx="259.50988303337783" cy="241.9471863657236" r="3" style="fill: steelblue;"></circle><circle cx="407.98009821346835" cy="201.6858753748238" r="3" style="fill: steelblue;"></circle><circle cx="61.92193559237889" cy="187.8908467013389" r="3" style="fill: steelblue;"></circle><circle cx="216.64247034915857" cy="203.38472882285714" r="3" style="fill: steelblue;"></circle><circle cx="252.84204984349864" cy="233.14791563898325" r="3" style="fill: steelblue;"></circle><circle cx="34.54133289200919" cy="286.417418345809" r="3" style="fill: steelblue;"></circle><circle cx="0.8219422612871358" cy="216.15703096613288" r="3" style="fill: steelblue;"></circle><circle cx="44.199136069842744" cy="243.15163884311914" r="3" style="fill: steelblue;"></circle><circle cx="63.738404171807424" cy="215.01862835139036" r="3" style="fill: steelblue;"></circle><circle cx="121.79969225611005" cy="274.550100043416" r="3" style="fill: steelblue;"></circle><circle cx="104.27981717245919" cy="304.3841674923897" r="3" style="fill: steelblue;"></circle><circle cx="284.1022173847471" cy="231.5435979515314" r="3" style="fill: steelblue;"></circle><circle cx="241.92184080502818" cy="166.09644151758403" r="3" style="fill: steelblue;"></circle><circle cx="387.84473598003393" cy="152.32171136885881" r="3" style="fill: steelblue;"></circle><circle cx="303.8783149634089" cy="152.8368240222335" r="3" style="fill: steelblue;"></circle><circle cx="309.65363208736693" cy="113.54736816138029" r="3" style="fill: steelblue;"></circle><circle cx="123.72320396559579" cy="133.4617456421256" r="3" style="fill: steelblue;"></circle><circle cx="257.95804502708575" cy="117.47030559927225" r="3" style="fill: steelblue;"></circle><circle cx="374.56232964992523" cy="66.87994413077831" r="3" style="fill: steelblue;"></circle><circle cx="438.1362124851772" cy="79.38069961965084" r="3" style="fill: steelblue;"></circle><circle cx="126.77699089050293" cy="5.184945836663246" r="3" style="fill: steelblue;"></circle><circle cx="236.580043256815" cy="40.42804166674614" r="3" style="fill: steelblue;"></circle><circle cx="261.0961950889656" cy="69.32183001190424" r="3" style="fill: steelblue;"></circle><circle cx="262.78223646538595" cy="131.1877534724772" r="3" style="fill: steelblue;"></circle><circle cx="272.29609410677637" cy="179.9035120755434" r="3" style="fill: steelblue;"></circle><circle cx="20.55374315806797" cy="232.9136135056615" r="3" style="fill: steelblue;"></circle><circle cx="238.16380445978473" cy="224.20429550111294" r="3" style="fill: steelblue;"></circle><circle cx="168.11768685068404" cy="197.71205023862422" r="3" style="fill: steelblue;"></circle><circle cx="108.55939277580806" cy="196.3400397915393" r="3" style="fill: steelblue;"></circle><circle cx="158.07759991713934" cy="224.96308172121644" r="3" style="fill: steelblue;"></circle><circle cx="129.3413244826453" cy="209.55428080633283" r="3" style="fill: steelblue;"></circle><circle cx="342.52497145107816" cy="261.9776392355561" r="3" style="fill: steelblue;"></circle><circle cx="5.620858669280998" cy="192.36536878161132" r="3" style="fill: steelblue;"></circle><circle cx="126.1243634564536" cy="309.8540596663952" r="3" style="fill: steelblue;"></circle><circle cx="47.65631190368107" cy="280.5998606607318" r="3" style="fill: steelblue;"></circle><circle cx="305.6733565245356" cy="117.94361025094986" r="3" style="fill: steelblue;"></circle><circle cx="478.9230016299657" cy="77.47101988643408" r="3" style="fill: steelblue;"></circle><circle cx="331.72400695937023" cy="64.25294391810894" r="3" style="fill: steelblue;"></circle><circle cx="414.7358853476389" cy="15.940913185477257" r="3" style="fill: steelblue;"></circle><circle cx="471.2550718443735" cy="154.9910883884877" r="3" style="fill: steelblue;"></circle><circle cx="297.2167940650668" cy="78.63925136625767" r="3" style="fill: steelblue;"></circle><circle cx="322.09040113857816" cy="213.12647564336658" r="3" style="fill: steelblue;"></circle><circle cx="296.34348788431714" cy="298.4524641185999" r="3" style="fill: steelblue;"></circle><circle cx="222.9042362528188" cy="223.00222255289555" r="3" style="fill: steelblue;"></circle><circle cx="148.90483592237746" cy="340.78470543026924" r="3" style="fill: steelblue;"></circle><circle cx="361.8544639859881" cy="260.7193963602185" r="3" style="fill: steelblue;"></circle><circle cx="228.5549729104553" cy="211.83526813983917" r="3" style="fill: steelblue;"></circle></g></svg>