<svg xmlns="http://www.w3.org/2000/svg"><g><circle cx="29.540759325027466" cy="144.57962777879501" r="2" style="fill: steelblue;"></circle><circle cx="60.69957613945007" cy="141.6809644964006" r="2" style="fill: steelblue;"></circle><circle cx="119.40479725599289" cy="44.7554541958703" r="2" style="fill: steelblue;"></circle><circle cx="82.10919499397278" cy="90.3693590934078" r="2" style="fill: steelblue;"></circle><circle cx="112.76056617498398" cy="130.500199397405" r="2" style="fill: steelblue;"></circle><circle cx="34.10390019416809" cy="105.08753226863013" r="2" style="fill: steelblue;"></circle><circle cx="99.544364400208" cy="135.91542376412286" r="2" style="fill: steelblue;"></circle><circle cx="115.84897190332413" cy="108.3116137319141" r="2" style="fill: steelblue;"></circle><circle cx="69.41529214382172" cy="114.4438472059038" r="2" style="fill: steelblue;"></circle><circle cx="69.19999122619629" cy="82.90243637230661" r="2" style="fill: steelblue;"></circle><circle cx="75.74281990528107" cy="134.01028050316705" r="2" style="fill: steelblue;"></circle><circle cx="91.09385758638382" cy="43.06754337416756" r="2" style="fill: steelblue;"></circle><circle cx="90.29463604092598" cy="132.44335717625088" r="2" style="fill: steelblue;"></circle><circle cx="46.67617082595825" cy="156.24252822664047" r="2" style="fill: steelblue;"></circle><circle cx="108.83572176098824" cy="94.63687108622658" r="2" style="fill: steelblue;"></circle><circle cx="29.53163981437683" cy="100.96929503811731" r="2" style="fill: steelblue;"></circle><circle cx="53.622815012931824" cy="93.60504431857004" r="2" style="fill: steelblue;"></circle><circle cx="134.58853363990784" cy="55.07133934232924" r="2" style="fill: steelblue;"></circle><circle cx="101.10188210383058" cy="27.987253665924072" r="2" style="fill: steelblue;"></circle><circle cx="157.826167345047" cy="40.05401531855266" r="2" style="fill: steelblue;"></circle><circle cx="99.33166084811091" cy="115.34300148487091" r="2" style="fill: steelblue;"></circle><circle cx="109.11305099725723" cy="34.467411041259766" r="2" style="fill: steelblue;"></circle><circle cx="119.67785209417343" cy="154.89791366789078" r="2" style="fill: steelblue;"></circle><circle cx="57.000166177749634" cy="118.66282290882535" r="2" style="fill: steelblue;"></circle><circle cx="122.64337688684464" cy="100.21777484152052" r="2" style="fill: steelblue;"></circle><circle cx="60.16100347042084" cy="83.52458303173383" r="2" style="fill: steelblue;"></circle><circle cx="79.23955023288727" cy="83.05730703804228" r="2" style="fill: steelblue;"></circle><circle cx="79.35323864221573" cy="137.99501326349045" r="2" style="fill: steelblue;"></circle><circle cx="47.576236724853516" cy="134.10942289564346" r="2" style="fill: steelblue;"></circle><circle cx="108.7610237300396" cy="97.00434605280559" r="2" style="fill: steelblue;"></circle><circle cx="145.08269429206848" cy="37.118860748079086" r="2" style="fill: steelblue;"></circle><circle cx="143.00574660301208" cy="33.35128426551819" r="2" style="fill: steelblue;"></circle><circle cx="162.74623274803162" cy="85.48447812596957" r="2" style="fill: steelblue;"></circle><circle cx="94.89885866641998" cy="84.05671053462558" r="2" style="fill: steelblue;"></circle><circle cx="110.19947156310081" cy="70.99630965126886" r="2" style="fill: steelblue;"></circle><circle cx="83.86740237474442" cy="110.46761804156833" r="2" style="fill: steelblue;"></circle><circle cx="101.90729312598705" cy="149.16027122073703" r="2" style="fill: steelblue;"></circle><circle cx="64.82284963130951" cy="149.07056623035007" r="2" style="fill: steelblue;"></circle><circle cx="39.07608389854431" cy="155.19951979319256" r="2" style="fill: steelblue;"></circle><circle cx="42.25280284881592" cy="132.38160014152527" r="2" style="fill: steelblue;"></circle><circle cx="18.91370415687561" cy="115.1889830827713" r="2" style="fill: steelblue;"></circle><circle cx="130.31090199947357" cy="22.5899338722229" r="2" style="fill: steelblue;"></circle><circle cx="47.8277325630188" cy="107.67078432771895" r="2" style="fill: steelblue;"></circle><circle cx="125.00604689121246" cy="69.06614071793027" r="2" style="fill: steelblue;"></circle><circle cx="136.38231754302979" cy="37.922533353169776" r="2" style="fill: steelblue;"></circle><circle cx="127.56921648979187" cy="85.90375747945573" r="2" style="fill: steelblue;"></circle><circle cx="151.73389315605164" cy="48.305096228917456" r="2" style="fill: steelblue;"></circle><circle cx="54.63104844093323" cy="125.06870627403259" r="2" style="fill: steelblue;"></circle><circle cx="53.17060351371765" cy="93.79581643475427" r="2" style="fill: steelblue;"></circle><circle cx="68.99988055229187" cy="145.60609261194864" r="2" style="fill: steelblue;"></circle><circle cx="116.91694110631943" cy="114.6700551112493" r="2" style="fill: steelblue;"></circle><circle cx="146.33714854717255" cy="54.40143611696031" r="2" style="fill: steelblue;"></circle><circle cx="126.0770708322525" cy="85.73415122098393" r="2" style="fill: steelblue;"></circle><circle cx="75.50497353076935" cy="95.91724425554276" r="2" style="fill: steelblue;"></circle><circle cx="95.16856111586094" cy="71.98627822928958" r="2" style="fill: steelblue;"></circle><circle cx="109.7198136150837" cy="143.84192758136325" r="2" style="fill: steelblue;"></circle><circle cx="106.30350410938263" cy="146.89633448918661" r="2" style="fill: steelblue;"></circle><circle cx="54.04421091079712" cy="117.22842388682895" r="2" style="fill: steelblue;"></circle><circle cx="88.8358898460865" cy="116.61409371429019" r="2" style="fill: steelblue;"></circle><circle cx="77.05083936452866" cy="61.023128032684326" r="2" style="fill: steelblue;"></circle><circle cx="114.03232663869858" cy="144.16517681545682" r="2" style="fill: steelblue;"></circle><circle cx="84.04288291931152" cy="71.21207349830203" r="2" style="fill: steelblue;"></circle><circle cx="32.67391324043274" cy="74.47673082351685" r="2" style="fill: steelblue;"></circle><circle cx="31.942975521087646" cy="136.17654509014554" r="2" style="fill: steelblue;"></circle><circle cx="62.99528777599335" cy="139.51931926939224" r="2" style="fill: steelblue;"></circle><circle cx="81.01856857538223" cy="165.16421768400406" r="2" style="fill: steelblue;"></circle><circle cx="52.85221040248871" cy="78.09314578771591" r="2" style="fill: steelblue;"></circle><circle cx="81.01634979248047" cy="126.02669530444675" r="2" style="fill: steelblue;"></circle><circle cx="38.42056393623352" cy="164.64987595876056" r="2" style="fill: steelblue;"></circle><circle cx="69.89798843860626" cy="140.12449185053507" r="2" style="fill: steelblue;"></circle><circle cx="40.86424112319946" cy="183.0127027299669" r="2" style="fill: steelblue;"></circle><circle cx="105.16527034342289" cy="43.99056434631348" r="2" style="fill: steelblue;"></circle><circle cx="117.10119992494583" cy="78.71392485168245" r="2" style="fill: steelblue;"></circle><circle cx="144.54109370708466" cy="55.387147929933334" r="2" style="fill: steelblue;"></circle><circle cx="132.0667177438736" cy="31.25880029466417" r="2" style="fill: steelblue;"></circle><circle cx="68.67731213569641" cy="91.70889742672443" r="2" style="fill: steelblue;"></circle><circle cx="128.20844650268555" cy="80.26114304860432" r="2" style="fill: steelblue;"></circle><circle cx="138.6093556880951" cy="15.914882553948306" r="2" style="fill: steelblue;"></circle><circle cx="137.0095580816269" cy="33.39381217956543" r="2" style="fill: steelblue;"></circle><circle cx="154.39093708992004" cy="58.98675852351718" r="2" style="fill: steelblue;"></circle><circle cx="166.72571301460266" cy="42.12848875257704" r="2" style="fill: steelblue;"></circle><circle cx="158.38727951049805" cy="6.24979072146945" r="2" style="fill: steelblue;"></circle><circle cx="102.88958549499512" cy="71.16629878679912" r="2" style="fill: steelblue;"></circle><circle cx="78.33388447761536" cy="128.6367760764228" r="2" style="fill: steelblue;"></circle><circle cx="70.2731728553772" cy="51.3684736357795" r="2" style="fill: steelblue;"></circle><circle cx="103.31694036722183" cy="112.1453861395518" r="2" style="fill: steelblue;"></circle><circle cx="86.78161948919296" cy="65.30195011032953" r="2" style="fill: steelblue;"></circle><circle cx="69.07244324684143" cy="58.78777835104201" r="2" style="fill: steelblue;"></circle><circle cx="61.109864711761475" cy="80.05316423045265" r="2" style="fill: steelblue;"></circle><circle cx="135.98717749118805" cy="55.62930835617914" r="2" style="fill: steelblue;"></circle><circle cx="123.15737903118134" cy="28.883435991075302" r="2" style="fill: steelblue;"></circle><circle cx="183.97982716560364" cy="35.09664403067696" r="2" style="fill: steelblue;"></circle><circle cx="171.41740918159485" cy="125.0126083691915" r="2" style="fill: steelblue;"></circle><circle cx="118.08044910430908" cy="122.73267772462633" r="2" style="fill: steelblue;"></circle><circle cx="119.51431035995483" cy="86.0308343751563" r="2" style="fill: steelblue;"></circle><circle cx="108.44259113073349" cy="106.43039180172815" r="2" style="fill: steelblue;"></circle><circle cx="150.6758213043213" cy="44.914532370037506" r="2" style="fill: steelblue;"></circle><circle cx="160.82406640052795" cy="74.85688924789429" r="2" style="fill: steelblue;"></circle><circle cx="121.73947095870972" cy="32.28027820587158" r="2" style="fill: steelblue;"></circle><circle cx="111.50742471218109" cy="143.96929608450995" r="2" style="fill: steelblue;"></circle><circle cx="104.5810516923666" cy="47.28727738062541" r="2" style="fill: steelblue;"></circle><circle cx="81.73001706600189" cy="91.34378669162591" r="2" style="fill: steelblue;"></circle><circle cx="111.32893338799477" cy="72.05864985783894" r="2" style="fill: steelblue;"></circle><circle cx="173.19093346595764" cy="146.59378131230673" r="2" style="fill: steelblue;"></circle><circle cx="74.04550611972809" cy="48.614477448993256" r="2" style="fill: steelblue;"></circle><circle cx="135.36517024040222" cy="81.27906372149785" r="2" style="fill: steelblue;"></circle><circle cx="144.0244495868683" cy="72.30193118254344" r="2" style="fill: steelblue;"></circle><circle cx="155.5930197238922" cy="77.58533077107536" r="2" style="fill: steelblue;"></circle><circle cx="129.6737551689148" cy="93.24872733818161" r="2" style="fill: steelblue;"></circle><circle cx="118.13419312238693" cy="104.02452150980632" r="2" style="fill: steelblue;"></circle><circle cx="164.1545832157135" cy="51.26344031757779" r="2" style="fill: steelblue;"></circle><circle cx="71.82250022888184" cy="53.064232402377655" r="2" style="fill: steelblue;"></circle><circle cx="57.03074336051941" cy="125.13401309649149" r="2" style="fill: steelblue;"></circle><circle cx="62.82018721103668" cy="121.40077551205954" r="2" style="fill: steelblue;"></circle><circle cx="103.16580645740032" cy="98.90474329392116" r="2" style="fill: steelblue;"></circle><circle cx="130.10840713977814" cy="150.88260703616672" r="2" style="fill: steelblue;"></circle><circle cx="120.08136808872223" cy="91.7734498778979" r="2" style="fill: steelblue;"></circle><circle cx="50.09171962738037" cy="127.0581669277615" r="2" style="fill: steelblue;"></circle></g></svg>