<svg xmlns="http://www.w3.org/2000/svg"><rect width="200" height="200" fill="white"></rect><g><circle cx="80.27987033128738" cy="101.05227646417916" r="2" style="fill: steelblue;"></circle><circle cx="42.27495416998864" cy="109.38380509614944" r="2" style="fill: steelblue;"></circle><circle cx="82.82140679657459" cy="116.64752513170242" r="2" style="fill: steelblue;"></circle><circle cx="83.86875353753567" cy="124.04522337019444" r="2" style="fill: steelblue;"></circle><circle cx="62.753817439079285" cy="148.82345348596573" r="2" style="fill: steelblue;"></circle><circle cx="104.59266360849142" cy="106.26224838197231" r="2" style="fill: steelblue;"></circle><circle cx="147.69600555300713" cy="121.0596639662981" r="2" style="fill: steelblue;"></circle><circle cx="132.20118582248688" cy="109.13601368665695" r="2" style="fill: steelblue;"></circle><circle cx="126.04658342897892" cy="149.0792952477932" r="2" style="fill: steelblue;"></circle><circle cx="78.44864800572395" cy="105.32843824476004" r="2" style="fill: steelblue;"></circle><circle cx="87.05926723778248" cy="71.94705344736576" r="2" style="fill: steelblue;"></circle><circle cx="59.284231066703796" cy="136.15142032504082" r="2" style="fill: steelblue;"></circle><circle cx="125.99045820534229" cy="154.24632132053375" r="2" style="fill: steelblue;"></circle><circle cx="133.09812769293785" cy="163.18000704050064" r="2" style="fill: steelblue;"></circle><circle cx="42.58860871195794" cy="121.64571546018124" r="2" style="fill: steelblue;"></circle><circle cx="44.94490325450898" cy="184.54257994890213" r="2" style="fill: steelblue;"></circle><circle cx="104.0625175461173" cy="138.2777415215969" r="2" style="fill: steelblue;"></circle><circle cx="150.62304809689522" cy="98.44321084674448" r="2" style="fill: steelblue;"></circle><circle cx="84.67725329101086" cy="123.4603751450777" r="2" style="fill: steelblue;"></circle><circle cx="103.67336208000779" cy="80.38996383547783" r="2" style="fill: steelblue;"></circle><circle cx="91.6278338059783" cy="42.684683948755264" r="2" style="fill: steelblue;"></circle><circle cx="135.6164388358593" cy="62.17051520943642" r="2" style="fill: steelblue;"></circle><circle cx="148.49035292863846" cy="176.08551532030106" r="2" style="fill: steelblue;"></circle><circle cx="28.23602259159089" cy="94.31450571864843" r="2" style="fill: steelblue;"></circle><circle cx="51.519303023815155" cy="144.0410003066063" r="2" style="fill: steelblue;"></circle><circle cx="38.4557418525219" cy="131.5096192061901" r="2" style="fill: steelblue;"></circle><circle cx="90.69346487522125" cy="148.40687662363052" r="2" style="fill: steelblue;"></circle><circle cx="43.88649985194207" cy="112.6907266676426" r="2" style="fill: steelblue;"></circle><circle cx="68.96650642156601" cy="165.6997561454773" r="2" style="fill: steelblue;"></circle><circle cx="162.9921704530716" cy="130.01576848328114" r="2" style="fill: steelblue;"></circle><circle cx="83.99916104972363" cy="103.95849766209722" r="2" style="fill: steelblue;"></circle><circle cx="115.89233987033367" cy="79.33616116642952" r="2" style="fill: steelblue;"></circle><circle cx="136.47420182824135" cy="12.170886993408203" r="2" style="fill: steelblue;"></circle><circle cx="110.70212386548519" cy="115.18828421831131" r="2" style="fill: steelblue;"></circle><circle cx="158.69046971201897" cy="85.65844632685184" r="2" style="fill: steelblue;"></circle><circle cx="69.6567989885807" cy="38.608381897211075" r="2" style="fill: steelblue;"></circle><circle cx="104.12667263299227" cy="92.87491105496883" r="2" style="fill: steelblue;"></circle><circle cx="0.6049484014511164" cy="29.0681853890419" r="2" style="fill: steelblue;"></circle><circle cx="27.74737626314164" cy="144.93523761630058" r="2" style="fill: steelblue;"></circle><circle cx="62.011177092790604" cy="151.44771188497543" r="2" style="fill: steelblue;"></circle><circle cx="14.516247808933263" cy="82.23884403705597" r="2" style="fill: steelblue;"></circle><circle cx="143.84471848607063" cy="140.4069870710373" r="2" style="fill: steelblue;"></circle><circle cx="155.0146959722042" cy="32.153940200805664" r="2" style="fill: steelblue;"></circle><circle cx="100.77354663517326" cy="85.53031403571367" r="2" style="fill: steelblue;"></circle><circle cx="116.63754694163799" cy="60.36006882786751" r="2" style="fill: steelblue;"></circle><circle cx="121.40428125858307" cy="45.76074182987213" r="2" style="fill: steelblue;"></circle><circle cx="126.9047524780035" cy="86.83499079197645" r="2" style="fill: steelblue;"></circle><circle cx="10.231880843639379" cy="35.31990051269531" r="2" style="fill: steelblue;"></circle><circle cx="111.33822463452816" cy="144.64765638113022" r="2" style="fill: steelblue;"></circle><circle cx="89.84106630086899" cy="181.14858716726303" r="2" style="fill: steelblue;"></circle><circle cx="100.67304912954569" cy="186.35391294956207" r="2" style="fill: steelblue;"></circle><circle cx="121.41478285193443" cy="138.14688324928284" r="2" style="fill: steelblue;"></circle><circle cx="54.45855334401131" cy="85.27739383280277" r="2" style="fill: steelblue;"></circle><circle cx="41.10359251499177" cy="32.833172380924225" r="2" style="fill: steelblue;"></circle><circle cx="72.51321189105511" cy="101.60842260811478" r="2" style="fill: steelblue;"></circle><circle cx="3.306081891059881" cy="126.39386244118214" r="2" style="fill: steelblue;"></circle><circle cx="75.85113905370235" cy="122.61733263731003" r="2" style="fill: steelblue;"></circle><circle cx="89.18695654720068" cy="122.10870571434498" r="2" style="fill: steelblue;"></circle><circle cx="105.76763739809394" cy="100.69879757938907" r="2" style="fill: steelblue;"></circle><circle cx="113.10582924634218" cy="156.99114874005318" r="2" style="fill: steelblue;"></circle><circle cx="76.26503370702267" cy="131.76014497876167" r="2" style="fill: steelblue;"></circle><circle cx="98.04469314403832" cy="169.49471682310104" r="2" style="fill: steelblue;"></circle><circle cx="45.7417018711567" cy="145.0628623366356" r="2" style="fill: steelblue;"></circle><circle cx="4.643088579177862" cy="144.18356716632843" r="2" style="fill: steelblue;"></circle><circle cx="21.895258128643043" cy="182.41596817970276" r="2" style="fill: steelblue;"></circle><circle cx="59.84942838549614" cy="149.9672293663025" r="2" style="fill: steelblue;"></circle><circle cx="7.931141555309301" cy="106.03020377457142" r="2" style="fill: steelblue;"></circle><circle cx="23.555195331573493" cy="168.15772503614426" r="2" style="fill: steelblue;"></circle><circle cx="92.3668229021132" cy="131.7717120051384" r="2" style="fill: steelblue;"></circle><circle cx="34.5257580280304" cy="171.76002860069275" r="2" style="fill: steelblue;"></circle><circle cx="147.18775302171707" cy="117.46274530887604" r="2" style="fill: steelblue;"></circle><circle cx="193.6645194888115" cy="81.25572316348553" r="2" style="fill: steelblue;"></circle><circle cx="186.24745905399323" cy="59.902167320251465" r="2" style="fill: steelblue;"></circle><circle cx="108.68726335465908" cy="29.32692915201187" r="2" style="fill: steelblue;"></circle><circle cx="167.81163811683655" cy="63.23460340499878" r="2" style="fill: steelblue;"></circle><circle cx="53.36424931883812" cy="62.361570447683334" r="2" style="fill: steelblue;"></circle><circle cx="162.3856820166111" cy="16.506320238113403" r="2" style="fill: steelblue;"></circle><circle cx="146.94264009594917" cy="54.80884611606598" r="2" style="fill: steelblue;"></circle><circle cx="128.91402691602707" cy="92.34962649643421" r="2" style="fill: steelblue;"></circle><circle cx="175.1272439956665" cy="16.211828589439392" r="2" style="fill: steelblue;"></circle><circle cx="83.39319415390491" cy="39.130205661058426" r="2" style="fill: steelblue;"></circle><circle cx="165.7932385802269" cy="43.212077021598816" r="2" style="fill: steelblue;"></circle><circle cx="54.52236011624336" cy="32.382166385650635" r="2" style="fill: steelblue;"></circle><circle cx="34.635981917381294" cy="125.38693509995937" r="2" style="fill: steelblue;"></circle><circle cx="90.0601115077734" cy="131.14950843155384" r="2" style="fill: steelblue;"></circle><circle cx="93.10864182189107" cy="157.06888064742088" r="2" style="fill: steelblue;"></circle><circle cx="125.79873241484165" cy="52.28967070579529" r="2" style="fill: steelblue;"></circle><circle cx="109.0103866532445" cy="172.20441848039627" r="2" style="fill: steelblue;"></circle><circle cx="117.62775704264641" cy="153.35291102528572" r="2" style="fill: steelblue;"></circle><circle cx="130.13712167739868" cy="15.708027780056" r="2" style="fill: steelblue;"></circle><circle cx="118.2278398424387" cy="60.639044642448425" r="2" style="fill: steelblue;"></circle><circle cx="105.5050179362297" cy="58.56570079922676" r="2" style="fill: steelblue;"></circle><circle cx="143.60554367303848" cy="13.288235664367676" r="2" style="fill: steelblue;"></circle><circle cx="154.8691414296627" cy="57.47174695134163" r="2" style="fill: steelblue;"></circle><circle cx="157.92031064629555" cy="102.90407869033515" r="2" style="fill: steelblue;"></circle><circle cx="145.47226056456566" cy="46.15011289715767" r="2" style="fill: steelblue;"></circle><circle cx="156.971475481987" cy="74.97385926544666" r="2" style="fill: steelblue;"></circle><circle cx="29.58470433950425" cy="99.93009493482532" r="2" style="fill: steelblue;"></circle><circle cx="33.25206637382508" cy="56.3211128115654" r="2" style="fill: steelblue;"></circle><circle cx="179.59093153476715" cy="163.19426000118256" r="2" style="fill: steelblue;"></circle><circle cx="180.24710416793823" cy="95.51546340808272" r="2" style="fill: steelblue;"></circle><circle cx="130.15821054577827" cy="97.40155227482319" r="2" style="fill: steelblue;"></circle><circle cx="93.2306818664074" cy="86.91847920417786" r="2" style="fill: steelblue;"></circle><circle cx="24.46009814739228" cy="66.2940502166748" r="2" style="fill: steelblue;"></circle><circle cx="155.02008274197578" cy="27.13458091020584" r="2" style="fill: steelblue;"></circle><circle cx="57.925841212272644" cy="17.008765041828156" r="2" style="fill: steelblue;"></circle><circle cx="100.17467129509896" cy="73.83430600166321" r="2" style="fill: steelblue;"></circle><circle cx="111.76791079342365" cy="82.74054564535618" r="2" style="fill: steelblue;"></circle><circle cx="81.77698999643326" cy="136.32725775241852" r="2" style="fill: steelblue;"></circle><circle cx="144.95178163051605" cy="32.249024510383606" r="2" style="fill: steelblue;"></circle><circle cx="110.92589274048805" cy="91.52819253504276" r="2" style="fill: steelblue;"></circle><circle cx="170.79534232616425" cy="71.9985369592905" r="2" style="fill: steelblue;"></circle><circle cx="67.60845184326172" cy="55.93526214361191" r="2" style="fill: steelblue;"></circle><circle cx="75.95210559666157" cy="154.5889511704445" r="2" style="fill: steelblue;"></circle><circle cx="64.27997201681137" cy="127.29988284409046" r="2" style="fill: steelblue;"></circle><circle cx="6.3640907406807" cy="158.48445370793343" r="2" style="fill: steelblue;"></circle><circle cx="61.245786398649216" cy="135.96214205026627" r="2" style="fill: steelblue;"></circle><circle cx="61.86254546046257" cy="111.92104537039995" r="2" style="fill: steelblue;"></circle></g></svg>