<svg xmlns="http://www.w3.org/2000/svg"><g><circle cx="45.8075761795044" cy="171.08941078186035" r="2" style="fill: steelblue;"></circle><circle cx="75.74971802532673" cy="98.41158632189035" r="2" style="fill: steelblue;"></circle><circle cx="80.91256432235241" cy="133.45908522605896" r="2" style="fill: steelblue;"></circle><circle cx="119.01168935000896" cy="163.61541748046875" r="2" style="fill: steelblue;"></circle><circle cx="47.278875857591636" cy="130.31014502048492" r="2" style="fill: steelblue;"></circle><circle cx="125.4985224455595" cy="73.4727293252945" r="2" style="fill: steelblue;"></circle><circle cx="85.67987512797117" cy="150.07880926132202" r="2" style="fill: steelblue;"></circle><circle cx="145.82545906305313" cy="78.97876650094986" r="2" style="fill: steelblue;"></circle><circle cx="28.359456360340126" cy="131.97557032108307" r="2" style="fill: steelblue;"></circle><circle cx="58.69817212224007" cy="125.73042809963226" r="2" style="fill: steelblue;"></circle><circle cx="114.15607333183289" cy="82.86647945642471" r="2" style="fill: steelblue;"></circle><circle cx="67.08068251609802" cy="118.32903772592545" r="2" style="fill: steelblue;"></circle><circle cx="81.80911876261234" cy="97.79602810740471" r="2" style="fill: steelblue;"></circle><circle cx="85.93026772141457" cy="133.3869606256485" r="2" style="fill: steelblue;"></circle><circle cx="21.84127867221833" cy="115.87653458118439" r="2" style="fill: steelblue;"></circle><circle cx="65.1525542140007" cy="172.51995205879211" r="2" style="fill: steelblue;"></circle><circle cx="124.03578720986843" cy="111.43796443939209" r="2" style="fill: steelblue;"></circle><circle cx="154.48181182146072" cy="139.58609104156494" r="2" style="fill: steelblue;"></circle><circle cx="152.05323919653893" cy="71.71654999256134" r="2" style="fill: steelblue;"></circle><circle cx="125.40743537247181" cy="55.37520945072174" r="2" style="fill: steelblue;"></circle><circle cx="145.9514930844307" cy="67.66323745250702" r="2" style="fill: steelblue;"></circle><circle cx="108.55296663939953" cy="135.93954145908356" r="2" style="fill: steelblue;"></circle><circle cx="95.68420322611928" cy="124.0889623761177" r="2" style="fill: steelblue;"></circle><circle cx="63.606759905815125" cy="122.25751876831055" r="2" style="fill: steelblue;"></circle><circle cx="133.20103883743286" cy="166.37373566627502" r="2" style="fill: steelblue;"></circle><circle cx="42.635558545589454" cy="88.41552808880806" r="2" style="fill: steelblue;"></circle><circle cx="59.7652405500412" cy="133.6205691099167" r="2" style="fill: steelblue;"></circle><circle cx="73.78750331699848" cy="102.72349547594786" r="2" style="fill: steelblue;"></circle><circle cx="71.93444892764091" cy="163.9165997505188" r="2" style="fill: steelblue;"></circle><circle cx="165.76640903949738" cy="68.65485906600952" r="2" style="fill: steelblue;"></circle><circle cx="85.86125299334526" cy="78.31868976354599" r="2" style="fill: steelblue;"></circle><circle cx="175.87583363056183" cy="55.0493985414505" r="2" style="fill: steelblue;"></circle><circle cx="189.05957639217377" cy="53.867024183273315" r="2" style="fill: steelblue;"></circle><circle cx="98.60150425229222" cy="103.16104292869568" r="2" style="fill: steelblue;"></circle><circle cx="103.70043027214706" cy="87.97419220209122" r="2" style="fill: steelblue;"></circle><circle cx="91.09783582389355" cy="83.81071984767914" r="2" style="fill: steelblue;"></circle><circle cx="15.169224143028265" cy="118.2045727968216" r="2" style="fill: steelblue;"></circle><circle cx="92.83944303169847" cy="114.5183876156807" r="2" style="fill: steelblue;"></circle><circle cx="39.88148123025895" cy="147.46730029582977" r="2" style="fill: steelblue;"></circle><circle cx="134.5412641763687" cy="105.02730384469032" r="2" style="fill: steelblue;"></circle><circle cx="72.50966355204582" cy="55.09331226348877" r="2" style="fill: steelblue;"></circle><circle cx="129.23827432096004" cy="49.207282066345215" r="2" style="fill: steelblue;"></circle><circle cx="134.5892794430256" cy="87.82371059060097" r="2" style="fill: steelblue;"></circle><circle cx="166.02155417203903" cy="63.265252113342285" r="2" style="fill: steelblue;"></circle><circle cx="184.20298248529434" cy="88.51976916193962" r="2" style="fill: steelblue;"></circle><circle cx="100.59766427148134" cy="48.99115562438965" r="2" style="fill: steelblue;"></circle><circle cx="126.88349410891533" cy="136.675962805748" r="2" style="fill: steelblue;"></circle><circle cx="35.94763427972794" cy="161.70974373817444" r="2" style="fill: steelblue;"></circle><circle cx="63.358402252197266" cy="150.58635473251343" r="2" style="fill: steelblue;"></circle><circle cx="77.1917387843132" cy="158.89230966567993" r="2" style="fill: steelblue;"></circle><circle cx="125.98714269697666" cy="91.19183793663979" r="2" style="fill: steelblue;"></circle><circle cx="111.58323138952255" cy="160.03252863883972" r="2" style="fill: steelblue;"></circle><circle cx="59.70539003610611" cy="124.24072474241257" r="2" style="fill: steelblue;"></circle><circle cx="23.255339264869697" cy="109.79007929563522" r="2" style="fill: steelblue;"></circle><circle cx="38.50723654031754" cy="84.12666618824005" r="2" style="fill: steelblue;"></circle><circle cx="46.74432277679444" cy="135.30950248241425" r="2" style="fill: steelblue;"></circle><circle cx="77.08231955766678" cy="91.56844019889832" r="2" style="fill: steelblue;"></circle><circle cx="86.64253298193216" cy="126.13665461540222" r="2" style="fill: steelblue;"></circle><circle cx="56.78289234638214" cy="67.53689050674438" r="2" style="fill: steelblue;"></circle><circle cx="79.81655783951283" cy="123.65058213472366" r="2" style="fill: steelblue;"></circle><circle cx="34.82643365859986" cy="160.70910692214966" r="2" style="fill: steelblue;"></circle><circle cx="59.688082337379456" cy="148.41195046901703" r="2" style="fill: steelblue;"></circle><circle cx="49.70129057765008" cy="190.78068137168884" r="2" style="fill: steelblue;"></circle><circle cx="36.84810400009156" cy="184.9221646785736" r="2" style="fill: steelblue;"></circle><circle cx="72.02135622501373" cy="123.66619110107422" r="2" style="fill: steelblue;"></circle><circle cx="3.05959433317185" cy="150.05659461021423" r="2" style="fill: steelblue;"></circle><circle cx="67.23198890686035" cy="152.16482877731323" r="2" style="fill: steelblue;"></circle><circle cx="51.34768262505531" cy="79.099640250206" r="2" style="fill: steelblue;"></circle><circle cx="35.64192950725556" cy="165.21733403205872" r="2" style="fill: steelblue;"></circle><circle cx="59.56060662865639" cy="104.8441257327795" r="2" style="fill: steelblue;"></circle><circle cx="121.45997621119022" cy="170.7131803035736" r="2" style="fill: steelblue;"></circle><circle cx="128.81999872624874" cy="71.2172657251358" r="2" style="fill: steelblue;"></circle><circle cx="100.15148513193708" cy="77.76304930448532" r="2" style="fill: steelblue;"></circle><circle cx="90.80181960016489" cy="45.94380259513855" r="2" style="fill: steelblue;"></circle><circle cx="123.62513914704323" cy="93.88288222253323" r="2" style="fill: steelblue;"></circle><circle cx="194.76103633642197" cy="108.20633694529533" r="2" style="fill: steelblue;"></circle><circle cx="89.265451207757" cy="54.24767732620239" r="2" style="fill: steelblue;"></circle><circle cx="137.9953272640705" cy="92.44644939899445" r="2" style="fill: steelblue;"></circle><circle cx="132.78323262929916" cy="104.06255386769772" r="2" style="fill: steelblue;"></circle><circle cx="55.86855337023735" cy="70.72998285293579" r="2" style="fill: steelblue;"></circle><circle cx="153.0022829771042" cy="50.651371479034424" r="2" style="fill: steelblue;"></circle><circle cx="199.62736070156097" cy="15.509074926376343" r="2" style="fill: steelblue;"></circle><circle cx="71.68126702308655" cy="86.77061945199966" r="2" style="fill: steelblue;"></circle><circle cx="32.44829028844834" cy="118.92853081226349" r="2" style="fill: steelblue;"></circle><circle cx="92.38132359459996" cy="131.7878246307373" r="2" style="fill: steelblue;"></circle><circle cx="128.885405510664" cy="117.03111529350281" r="2" style="fill: steelblue;"></circle><circle cx="43.37190687656403" cy="105.48635385930538" r="2" style="fill: steelblue;"></circle><circle cx="72.96994179487228" cy="67.18008816242218" r="2" style="fill: steelblue;"></circle><circle cx="70.99843248724937" cy="86.53929680585861" r="2" style="fill: steelblue;"></circle><circle cx="115.11448994278908" cy="81.25244379043579" r="2" style="fill: steelblue;"></circle><circle cx="126.14505216479301" cy="89.35739696025848" r="2" style="fill: steelblue;"></circle><circle cx="163.33909183740616" cy="72.41105139255524" r="2" style="fill: steelblue;"></circle><circle cx="161.78271770477295" cy="100.61648897826672" r="2" style="fill: steelblue;"></circle><circle cx="103.75258643180132" cy="95.33942863345146" r="2" style="fill: steelblue;"></circle><circle cx="164.54464048147202" cy="88.81506025791168" r="2" style="fill: steelblue;"></circle><circle cx="64.10225704312325" cy="82.0551261305809" r="2" style="fill: steelblue;"></circle><circle cx="154.7533556818962" cy="77.85075604915619" r="2" style="fill: steelblue;"></circle><circle cx="86.81326862424612" cy="130.57724237442017" r="2" style="fill: steelblue;"></circle><circle cx="123.24850670993328" cy="62.945279479026794" r="2" style="fill: steelblue;"></circle><circle cx="61.264677345752716" cy="68.63447725772858" r="2" style="fill: steelblue;"></circle><circle cx="114.8550970479846" cy="100.0936537689995" r="2" style="fill: steelblue;"></circle><circle cx="81.82960599660873" cy="86.15384697914124" r="2" style="fill: steelblue;"></circle><circle cx="129.81368824839592" cy="67.18812584877014" r="2" style="fill: steelblue;"></circle><circle cx="105.34661207348108" cy="28.777778148651123" r="2" style="fill: steelblue;"></circle><circle cx="131.42516687512398" cy="40.593421459198" r="2" style="fill: steelblue;"></circle><circle cx="100.8035731734708" cy="52.72029638290405" r="2" style="fill: steelblue;"></circle><circle cx="145.35230994224548" cy="54.90163862705231" r="2" style="fill: steelblue;"></circle><circle cx="148.98322001099586" cy="70.38318514823914" r="2" style="fill: steelblue;"></circle><circle cx="149.90944266319275" cy="82.23926275968552" r="2" style="fill: steelblue;"></circle><circle cx="134.20523926615715" cy="116.63712710142136" r="2" style="fill: steelblue;"></circle><circle cx="158.61078947782516" cy="58.62011909484863" r="2" style="fill: steelblue;"></circle><circle cx="123.94859306514263" cy="93.79907250404358" r="2" style="fill: steelblue;"></circle><circle cx="48.63484054803849" cy="159.14881825447083" r="2" style="fill: steelblue;"></circle><circle cx="70.64396925270557" cy="84.74634736776352" r="2" style="fill: steelblue;"></circle><circle cx="63.29604461789131" cy="132.82387852668762" r="2" style="fill: steelblue;"></circle><circle cx="137.84728422760963" cy="119.56609040498734" r="2" style="fill: steelblue;"></circle><circle cx="84.2258132994175" cy="145.77488899230957" r="2" style="fill: steelblue;"></circle><circle cx="61.71027049422264" cy="93.19362044334412" r="2" style="fill: steelblue;"></circle></g></svg>