<svg xmlns="http://www.w3.org/2000/svg"><g><circle cx="121.61954823467467" cy="155.92598915100098" r="2" style="fill: steelblue;"></circle><circle cx="87.00083030594719" cy="119.3179339170456" r="2" style="fill: steelblue;"></circle><circle cx="89.8856586880154" cy="122.68364280462265" r="2" style="fill: steelblue;"></circle><circle cx="78.96788252724541" cy="108.0680176615715" r="2" style="fill: steelblue;"></circle><circle cx="34.85655122333103" cy="117.66193509101868" r="2" style="fill: steelblue;"></circle><circle cx="88.51338260703616" cy="152.7088761329651" r="2" style="fill: steelblue;"></circle><circle cx="134.28691360685562" cy="72.6104736328125" r="2" style="fill: steelblue;"></circle><circle cx="70.77695594893562" cy="87.31953054666519" r="2" style="fill: steelblue;"></circle><circle cx="87.09773586855995" cy="111.71504482626915" r="2" style="fill: steelblue;"></circle><circle cx="170.34140560362076" cy="90.76889157295227" r="2" style="fill: steelblue;"></circle><circle cx="102.5827071732945" cy="155.91315031051636" r="2" style="fill: steelblue;"></circle><circle cx="127.34911176893446" cy="129.64744865894318" r="2" style="fill: steelblue;"></circle><circle cx="74.32587941487631" cy="182.48198628425598" r="2" style="fill: steelblue;"></circle><circle cx="82.46574799219766" cy="124.31854605674744" r="2" style="fill: steelblue;"></circle><circle cx="86.78204152319167" cy="86.01554930210114" r="2" style="fill: steelblue;"></circle><circle cx="21.147463056776257" cy="147.68075942993164" r="2" style="fill: steelblue;"></circle><circle cx="129.28371462557052" cy="144.05303597450256" r="2" style="fill: steelblue;"></circle><circle cx="146.09742495748733" cy="115.78103452920914" r="2" style="fill: steelblue;"></circle><circle cx="127.36736403571234" cy="63.07042837142944" r="2" style="fill: steelblue;"></circle><circle cx="140.88137613402472" cy="81.5037488937378" r="2" style="fill: steelblue;"></circle><circle cx="182.95236428578693" cy="83.7508425116539" r="2" style="fill: steelblue;"></circle><circle cx="142.00426472557913" cy="78.08136194944382" r="2" style="fill: steelblue;"></circle><circle cx="41.00339942508274" cy="110.798729211092" r="2" style="fill: steelblue;"></circle><circle cx="73.16012846099007" cy="107.10764154791832" r="2" style="fill: steelblue;"></circle><circle cx="46.05933692720201" cy="86.50822341442108" r="2" style="fill: steelblue;"></circle><circle cx="118.62331380446751" cy="143.03799867630005" r="2" style="fill: steelblue;"></circle><circle cx="73.71679610676235" cy="140.45116007328033" r="2" style="fill: steelblue;"></circle><circle cx="96.17303477393257" cy="155.8569371700287" r="2" style="fill: steelblue;"></circle><circle cx="95.55372099081674" cy="85.8555555343628" r="2" style="fill: steelblue;"></circle><circle cx="150.62595076031155" cy="100.45546274632215" r="2" style="fill: steelblue;"></circle><circle cx="114.03849182857407" cy="18.585586547851562" r="2" style="fill: steelblue;"></circle><circle cx="84.30497348308563" cy="19.94186043739319" r="2" style="fill: steelblue;"></circle><circle cx="159.82827213075424" cy="82.3040634393692" r="2" style="fill: steelblue;"></circle><circle cx="156.21655186017352" cy="88.52421417832375" r="2" style="fill: steelblue;"></circle><circle cx="115.45570774210823" cy="82.43581354618073" r="2" style="fill: steelblue;"></circle><circle cx="102.82138486703236" cy="111.09533831477165" r="2" style="fill: steelblue;"></circle><circle cx="45.9219151073032" cy="139.97963964939117" r="2" style="fill: steelblue;"></circle><circle cx="71.8380974398719" cy="129.78314459323883" r="2" style="fill: steelblue;"></circle><circle cx="52.5924629635281" cy="124.10471439361572" r="2" style="fill: steelblue;"></circle><circle cx="54.799669318728974" cy="136.0638678073883" r="2" style="fill: steelblue;"></circle><circle cx="85.12121107843187" cy="125.26279985904694" r="2" style="fill: steelblue;"></circle><circle cx="146.46363920635648" cy="89.28976953029633" r="2" style="fill: steelblue;"></circle><circle cx="106.55015334486961" cy="66.62204563617706" r="2" style="fill: steelblue;"></circle><circle cx="155.27875224749246" cy="113.33245187997818" r="2" style="fill: steelblue;"></circle><circle cx="129.73345981703864" cy="93.68743374943733" r="2" style="fill: steelblue;"></circle><circle cx="167.18200842539468" cy="141.3397639989853" r="2" style="fill: steelblue;"></circle><circle cx="165.30576348304749" cy="69.62160766124725" r="2" style="fill: steelblue;"></circle><circle cx="67.17816326353285" cy="134.4730108976364" r="2" style="fill: steelblue;"></circle><circle cx="51.840762297312416" cy="145.15734314918518" r="2" style="fill: steelblue;"></circle><circle cx="112.81230331708987" cy="125.6983608007431" r="2" style="fill: steelblue;"></circle><circle cx="22.228691313001843" cy="131.04012310504913" r="2" style="fill: steelblue;"></circle><circle cx="75.38895474539864" cy="75.74114054441452" r="2" style="fill: steelblue;"></circle><circle cx="110.5413503634433" cy="85.66936254501343" r="2" style="fill: steelblue;"></circle><circle cx="91.42283764150407" cy="98.63613061606884" r="2" style="fill: steelblue;"></circle><circle cx="111.34991013548441" cy="115.88403135538101" r="2" style="fill: steelblue;"></circle><circle cx="81.11354377534654" cy="125.69619417190552" r="2" style="fill: steelblue;"></circle><circle cx="129.9162424272961" cy="128.36166620254517" r="2" style="fill: steelblue;"></circle><circle cx="88.34241992897456" cy="111.60429641604424" r="2" style="fill: steelblue;"></circle><circle cx="105.93245385421646" cy="135.46249270439148" r="2" style="fill: steelblue;"></circle><circle cx="69.16602121459114" cy="140.1703178882599" r="2" style="fill: steelblue;"></circle><circle cx="84.02213950951894" cy="158.7792694568634" r="2" style="fill: steelblue;"></circle><circle cx="49.71721437242296" cy="109.47982296347618" r="2" style="fill: steelblue;"></circle><circle cx="22.187219725714787" cy="153.50245237350464" r="2" style="fill: steelblue;"></circle><circle cx="122.27735088931189" cy="108.58712568879128" r="2" style="fill: steelblue;"></circle><circle cx="76.62165496084425" cy="126.10876560211182" r="2" style="fill: steelblue;"></circle><circle cx="70.83092464341057" cy="164.29778337478638" r="2" style="fill: steelblue;"></circle><circle cx="78.55240503946939" cy="96.80452384054661" r="2" style="fill: steelblue;"></circle><circle cx="79.347163438797" cy="104.55095618963242" r="2" style="fill: steelblue;"></circle><circle cx="91.40988190968831" cy="147.56902158260345" r="2" style="fill: steelblue;"></circle><circle cx="58.35306975576613" cy="161.2219214439392" r="2" style="fill: steelblue;"></circle><circle cx="62.805400954352486" cy="53.94520163536072" r="2" style="fill: steelblue;"></circle><circle cx="111.15480793523602" cy="35.18820405006409" r="2" style="fill: steelblue;"></circle><circle cx="162.17645009358722" cy="74.84897375106812" r="2" style="fill: steelblue;"></circle><circle cx="156.44850002394782" cy="144.72602009773254" r="2" style="fill: steelblue;"></circle><circle cx="125.37346945868597" cy="109.35337916016579" r="2" style="fill: steelblue;"></circle><circle cx="153.49125862121582" cy="112.8358706831932" r="2" style="fill: steelblue;"></circle><circle cx="105.69813847541809" cy="117.03604757785797" r="2" style="fill: steelblue;"></circle><circle cx="117.62432919608221" cy="81.82727843523026" r="2" style="fill: steelblue;"></circle><circle cx="167.98863146040176" cy="63.03649544715881" r="2" style="fill: steelblue;"></circle><circle cx="161.67232394218445" cy="41.42251014709473" r="2" style="fill: steelblue;"></circle><circle cx="106.56592870752017" cy="61.69603765010834" r="2" style="fill: steelblue;"></circle><circle cx="129.3969733847512" cy="113.93635720014572" r="2" style="fill: steelblue;"></circle><circle cx="132.3944197760688" cy="96.751419454813" r="2" style="fill: steelblue;"></circle><circle cx="111.66492140748434" cy="159.7102403640747" r="2" style="fill: steelblue;"></circle><circle cx="66.79257419374254" cy="121.95092886686325" r="2" style="fill: steelblue;"></circle><circle cx="72.34279645813835" cy="136.8717908859253" r="2" style="fill: steelblue;"></circle><circle cx="96.90782924493153" cy="121.11086249351501" r="2" style="fill: steelblue;"></circle><circle cx="105.96961817807622" cy="127.13841199874878" r="2" style="fill: steelblue;"></circle><circle cx="86.12096971935695" cy="51.22717022895813" r="2" style="fill: steelblue;"></circle><circle cx="156.01433979140387" cy="134.02971625328064" r="2" style="fill: steelblue;"></circle><circle cx="177.63664325078327" cy="75.29169768095016" r="2" style="fill: steelblue;"></circle><circle cx="101.94593750768237" cy="124.0397959947586" r="2" style="fill: steelblue;"></circle><circle cx="161.77418165736728" cy="61.0691636800766" r="2" style="fill: steelblue;"></circle><circle cx="111.7736188073953" cy="60.947662591934204" r="2" style="fill: steelblue;"></circle><circle cx="142.17090275552536" cy="45.220768451690674" r="2" style="fill: steelblue;"></circle><circle cx="168.86201832029556" cy="37.94671297073364" r="2" style="fill: steelblue;"></circle><circle cx="157.59433640374075" cy="68.97996068000793" r="2" style="fill: steelblue;"></circle><circle cx="155.33291631274753" cy="78.50109785795212" r="2" style="fill: steelblue;"></circle><circle cx="146.20666702588397" cy="88.33006247878075" r="2" style="fill: steelblue;"></circle><circle cx="133.32486318217383" cy="136.31125390529633" r="2" style="fill: steelblue;"></circle><circle cx="124.05299312538571" cy="73.43079149723053" r="2" style="fill: steelblue;"></circle><circle cx="140.72760608461166" cy="75.57941675186157" r="2" style="fill: steelblue;"></circle><circle cx="127.50810219181908" cy="86.20559871196747" r="2" style="fill: steelblue;"></circle><circle cx="126.4910962846544" cy="92.05129146575928" r="2" style="fill: steelblue;"></circle><circle cx="186.00647979312473" cy="83.72947126626968" r="2" style="fill: steelblue;"></circle><circle cx="144.51635546154446" cy="34.392303228378296" r="2" style="fill: steelblue;"></circle><circle cx="151.85832977294922" cy="77.43208557367325" r="2" style="fill: steelblue;"></circle><circle cx="125.62246455086601" cy="112.51825094223022" r="2" style="fill: steelblue;"></circle><circle cx="121.00459552473492" cy="69.75280940532684" r="2" style="fill: steelblue;"></circle><circle cx="135.65885689523483" cy="113.18219751119614" r="2" style="fill: steelblue;"></circle><circle cx="151.49656931559244" cy="35.945481061935425" r="2" style="fill: steelblue;"></circle><circle cx="144.97750335269504" cy="70.4345852136612" r="2" style="fill: steelblue;"></circle><circle cx="69.12723183631897" cy="99.8408721294254" r="2" style="fill: steelblue;"></circle><circle cx="96.9882325993644" cy="124.48189109563828" r="2" style="fill: steelblue;"></circle><circle cx="47.25121789508396" cy="144.88586485385895" r="2" style="fill: steelblue;"></circle><circle cx="36.13342179192437" cy="132.4004352092743" r="2" style="fill: steelblue;"></circle><circle cx="61.199085579978096" cy="102.77204401791096" r="2" style="fill: steelblue;"></circle><circle cx="146.32383982340497" cy="144.83402371406555" r="2" style="fill: steelblue;"></circle></g></svg>