<svg xmlns="http://www.w3.org/2000/svg"><g transform="translate(40,20)"><circle cx="196.90952092409134" cy="70.68398334085941" r="3" style="fill: steelblue;"></circle><circle cx="383.47496330738073" cy="205.0846742466092" r="3" style="fill: steelblue;"></circle><circle cx="414.53951239585876" cy="176.97226664749905" r="3" style="fill: steelblue;"></circle><circle cx="338.3078062534332" cy="39.74576219916344" r="3" style="fill: steelblue;"></circle><circle cx="426.39296293258667" cy="88.87265454977751" r="3" style="fill: steelblue;"></circle><circle cx="389.37170147895813" cy="107.55477491766214" r="3" style="fill: steelblue;"></circle><circle cx="177.83899694681168" cy="140.50105139613152" r="3" style="fill: steelblue;"></circle><circle cx="259.2518837749958" cy="65.0139108300209" r="3" style="fill: steelblue;"></circle><circle cx="453.3317470550537" cy="100.54112896323204" r="3" style="fill: steelblue;"></circle><circle cx="392.78822779655457" cy="118.91793943941593" r="3" style="fill: steelblue;"></circle><circle cx="411.69304490089417" cy="14.803680777549744" r="3" style="fill: steelblue;"></circle><circle cx="281.9905185699463" cy="85.86972784250975" r="3" style="fill: steelblue;"></circle><circle cx="264.3066497147083" cy="98.61380811780691" r="3" style="fill: steelblue;"></circle><circle cx="470.3239345550537" cy="139.28402652963996" r="3" style="fill: steelblue;"></circle><circle cx="335.82231044769287" cy="145.9726059809327" r="3" style="fill: steelblue;"></circle><circle cx="433.07652711868286" cy="161.55206232797354" r="3" style="fill: steelblue;"></circle><circle cx="452.6941680908203" cy="281.54055047780275" r="3" style="fill: steelblue;"></circle><circle cx="351.4238530397415" cy="147.52276167273521" r="3" style="fill: steelblue;"></circle><circle cx="360.14544010162354" cy="69.84101068228483" r="3" style="fill: steelblue;"></circle><circle cx="363.7579196691513" cy="244.42648626863956" r="3" style="fill: steelblue;"></circle><circle cx="266.56703889369965" cy="57.34054856002331" r="3" style="fill: steelblue;"></circle><circle cx="267.6631124317646" cy="283.25079306960106" r="3" style="fill: steelblue;"></circle><circle cx="127.22881078720094" cy="29.996198788285255" r="3" style="fill: steelblue;"></circle><circle cx="400.56720614433294" cy="35.4656346142292" r="3" style="fill: steelblue;"></circle><circle cx="224.27225276827812" cy="105.1833426579833" r="3" style="fill: steelblue;"></circle><circle cx="244.5674893073738" cy="257.4866592884064" r="3" style="fill: steelblue;"></circle><circle cx="156.2189215421677" cy="148.26657152734697" r="3" style="fill: steelblue;"></circle><circle cx="173.43613743782046" cy="102.5325732305646" r="3" style="fill: steelblue;"></circle><circle cx="299.90418344736105" cy="215.66423699259758" r="3" style="fill: steelblue;"></circle><circle cx="293.5350412130356" cy="183.24656640179455" r="3" style="fill: steelblue;"></circle><circle cx="257.2448080033064" cy="173.76964803843293" r="3" style="fill: steelblue;"></circle><circle cx="254.84146267175674" cy="208.91736233606935" r="3" style="fill: steelblue;"></circle><circle cx="277.97870725393295" cy="133.04887125268579" r="3" style="fill: steelblue;"></circle><circle cx="303.3938446640969" cy="116.11420214176178" r="3" style="fill: steelblue;"></circle><circle cx="141.688688993454" cy="163.77299181185663" r="3" style="fill: steelblue;"></circle><circle cx="181.65298193693164" cy="180.8594467700459" r="3" style="fill: steelblue;"></circle><circle cx="164.9443084001541" cy="239.45269007235765" r="3" style="fill: steelblue;"></circle><circle cx="211.26755565404892" cy="118.80864407867193" r="3" style="fill: steelblue;"></circle><circle cx="129.43789601325992" cy="200.63661709427834" r="3" style="fill: steelblue;"></circle><circle cx="194.99997586011887" cy="164.78554992936552" r="3" style="fill: steelblue;"></circle><circle cx="236.47167641669512" cy="138.83559610694647" r="3" style="fill: steelblue;"></circle><circle cx="122.77165889739992" cy="139.70151329413056" r="3" style="fill: steelblue;"></circle><circle cx="117.06367671489716" cy="220.1177996583283" r="3" style="fill: steelblue;"></circle><circle cx="146.24244511127472" cy="203.75557355582714" r="3" style="fill: steelblue;"></circle><circle cx="279.61031287908554" cy="215.75766447931528" r="3" style="fill: steelblue;"></circle><circle cx="88.06074500083925" cy="215.0618640705943" r="3" style="fill: steelblue;"></circle><circle cx="137.5046306848526" cy="333.71659107506275" r="3" style="fill: steelblue;"></circle><circle cx="331.8892711400986" cy="173.59361656126566" r="3" style="fill: steelblue;"></circle><circle cx="321.2840133905411" cy="274.6172549203038" r="3" style="fill: steelblue;"></circle><circle cx="281.5710702538491" cy="217.8871214389801" r="3" style="fill: steelblue;"></circle><circle cx="255.56561551988125" cy="194.56952014006674" r="3" style="fill: steelblue;"></circle><circle cx="283.51443350315094" cy="152.03466680832207" r="3" style="fill: steelblue;"></circle><circle cx="52.220156192779555" cy="189.34785360470414" r="3" style="fill: steelblue;"></circle><circle cx="55.80566167831422" cy="99.87459350377321" r="3" style="fill: steelblue;"></circle><circle cx="205.82394540309906" cy="326.7697349190712" r="3" style="fill: steelblue;"></circle><circle cx="79.86403942108154" cy="253.86045891791582" r="3" style="fill: steelblue;"></circle><circle cx="145.72350919246676" cy="216.02473566308618" r="3" style="fill: steelblue;"></circle><circle cx="83.25544238090517" cy="226.35559849441051" r="3" style="fill: steelblue;"></circle><circle cx="146.8714410066605" cy="234.38581842929125" r="3" style="fill: steelblue;"></circle><circle cx="326.59509122371674" cy="233.7938567623496" r="3" style="fill: steelblue;"></circle><circle cx="407.9889142513275" cy="91.1583911627531" r="3" style="fill: steelblue;"></circle><circle cx="201.5855321288109" cy="141.35532844811678" r="3" style="fill: steelblue;"></circle><circle cx="349.8978102207184" cy="62.870561331510544" r="3" style="fill: steelblue;"></circle><circle cx="157.8186357021332" cy="90.37684947252274" r="3" style="fill: steelblue;"></circle><circle cx="290.3975495696068" cy="36.796097829937935" r="3" style="fill: steelblue;"></circle><circle cx="368.625950217247" cy="60.95788925886154" r="3" style="fill: steelblue;"></circle><circle cx="381.0219222307205" cy="232.8309427946806" r="3" style="fill: steelblue;"></circle><circle cx="156.25431776046753" cy="49.99689124524593" r="3" style="fill: steelblue;"></circle><circle cx="329.90893363952637" cy="117.1606082469225" r="3" style="fill: steelblue;"></circle><circle cx="256.01356118917465" cy="35.548702999949455" r="3" style="fill: steelblue;"></circle><circle cx="427.4471068382263" cy="77.93086878955364" r="3" style="fill: steelblue;"></circle><circle cx="301.3442748785019" cy="158.30159042961895" r="3" style="fill: steelblue;"></circle><circle cx="152.66624629497528" cy="221.64987744763494" r="3" style="fill: steelblue;"></circle><circle cx="279.27779495716095" cy="265.57238418608904" r="3" style="fill: steelblue;"></circle><circle cx="134.3941444158554" cy="161.15735629573464" r="3" style="fill: steelblue;"></circle><circle cx="190.8280947804451" cy="254.28986940532923" r="3" style="fill: steelblue;"></circle><circle cx="33.060564994812026" cy="282.56377410143614" r="3" style="fill: steelblue;"></circle><circle cx="154.25373852252963" cy="346.1387112736702" r="3" style="fill: steelblue;"></circle><circle cx="130.1482880115509" cy="242.38958321511745" r="3" style="fill: steelblue;"></circle><circle cx="130.3272181749344" cy="323.19067530333996" r="3" style="fill: steelblue;"></circle><circle cx="196.29976987838745" cy="236.42023764550686" r="3" style="fill: steelblue;"></circle><circle cx="117.4301826953888" cy="191.06016932055354" r="3" style="fill: steelblue;"></circle><circle cx="129.1110062599182" cy="275.95090605318546" r="3" style="fill: steelblue;"></circle><circle cx="255.9438293427229" cy="151.00667597725987" r="3" style="fill: steelblue;"></circle><circle cx="346.0367614030838" cy="158.93527697771788" r="3" style="fill: steelblue;"></circle><circle cx="330.76678454875946" cy="84.94489938020706" r="3" style="fill: steelblue;"></circle><circle cx="264.4340389966965" cy="64.09541256725788" r="3" style="fill: steelblue;"></circle><circle cx="354.7678345441818" cy="151.44837363623083" r="3" style="fill: steelblue;"></circle><circle cx="348.93462002277374" cy="104.08746842294931" r="3" style="fill: steelblue;"></circle><circle cx="399.9106192588806" cy="59.02824103832245" r="3" style="fill: steelblue;"></circle><circle cx="356.35726690292364" cy="117.28362664580345" r="3" style="fill: steelblue;"></circle><circle cx="486.40708565711975" cy="203.5648526623845" r="3" style="fill: steelblue;"></circle><circle cx="411.3544428348541" cy="38.67896385490894" r="3" style="fill: steelblue;"></circle><circle cx="407.09291338920593" cy="91.55018553137779" r="3" style="fill: steelblue;"></circle><circle cx="277.2948311269284" cy="253.85898556560278" r="3" style="fill: steelblue;"></circle><circle cx="166.57988369464877" cy="261.6290479898453" r="3" style="fill: steelblue;"></circle><circle cx="213.65984916687015" cy="291.2219028919935" r="3" style="fill: steelblue;"></circle><circle cx="148.8647156953812" cy="206.07489086687565" r="3" style="fill: steelblue;"></circle><circle cx="170.77330738306048" cy="251.54026802629232" r="3" style="fill: steelblue;"></circle><circle cx="225.15726886689663" cy="74.18285608291626" r="3" style="fill: steelblue;"></circle><circle cx="269.59604635834694" cy="102.36987210810184" r="3" style="fill: steelblue;"></circle><circle cx="237.89557331241667" cy="215.3374950401485" r="3" style="fill: steelblue;"></circle><circle cx="339.9584019184113" cy="214.62636459618807" r="3" style="fill: steelblue;"></circle><circle cx="240.97154185641557" cy="272.11404889822006" r="3" style="fill: steelblue;"></circle><circle cx="129.0843629837036" cy="211.95829957723618" r="3" style="fill: steelblue;"></circle><circle cx="186.76923304796222" cy="207.41901518777013" r="3" style="fill: steelblue;"></circle><circle cx="454.3660068511963" cy="78.05852890014648" r="3" style="fill: steelblue;"></circle><circle cx="310.58197259902954" cy="230.28616346418858" r="3" style="fill: steelblue;"></circle><circle cx="149.04262661933902" cy="73.38838018476963" r="3" style="fill: steelblue;"></circle><circle cx="454.64547514915466" cy="89.44787476211786" r="3" style="fill: steelblue;"></circle><circle cx="329.9905890226364" cy="139.27659783512354" r="3" style="fill: steelblue;"></circle><circle cx="430.55954217910767" cy="147.38855948671699" r="3" style="fill: steelblue;"></circle><circle cx="301.98978871107107" cy="279.0049893781543" r="3" style="fill: steelblue;"></circle><circle cx="72.38403797149658" cy="336.56742349267006" r="3" style="fill: steelblue;"></circle><circle cx="208.6226047575474" cy="247.43874203413725" r="3" style="fill: steelblue;"></circle><circle cx="279.47355598211294" cy="276.93129163235426" r="3" style="fill: steelblue;"></circle><circle cx="258.5512360185385" cy="259.3579340726137" r="3" style="fill: steelblue;"></circle><circle cx="127.4004900455475" cy="236.88821606338024" r="3" style="fill: steelblue;"></circle></g></svg>