<svg xmlns="http://www.w3.org/2000/svg"><rect width="200" height="200" fill="white"></rect><g><circle cx="63.37380409240723" cy="162.45271116495132" r="2" style="fill: steelblue;"></circle><circle cx="101.97819355461333" cy="179.81564849615097" r="2" style="fill: steelblue;"></circle><circle cx="35.46861145231458" cy="144.55474764108658" r="2" style="fill: steelblue;"></circle><circle cx="77.17850473192003" cy="183.7557464838028" r="2" style="fill: steelblue;"></circle><circle cx="130.58418035507202" cy="156.9060817360878" r="2" style="fill: steelblue;"></circle><circle cx="89.08347288767496" cy="154.64066565036774" r="2" style="fill: steelblue;"></circle><circle cx="70.54642505115932" cy="115.75090549886227" r="2" style="fill: steelblue;"></circle><circle cx="103.20724464125104" cy="95.03468628972769" r="2" style="fill: steelblue;"></circle><circle cx="106.26068380143907" cy="150.36574974656105" r="2" style="fill: steelblue;"></circle><circle cx="87.56491045157114" cy="167.01643019914627" r="2" style="fill: steelblue;"></circle><circle cx="69.74557042121887" cy="152.4204485118389" r="2" style="fill: steelblue;"></circle><circle cx="138.4705321656333" cy="109.43662505596876" r="2" style="fill: steelblue;"></circle><circle cx="49.947427378760445" cy="152.14867740869522" r="2" style="fill: steelblue;"></circle><circle cx="133.90282955434586" cy="108.25260858982801" r="2" style="fill: steelblue;"></circle><circle cx="82.5190544128418" cy="150.95435678958893" r="2" style="fill: steelblue;"></circle><circle cx="98.59930309984419" cy="69.95288878679276" r="2" style="fill: steelblue;"></circle><circle cx="78.87136936187744" cy="115.58634918183088" r="2" style="fill: steelblue;"></circle><circle cx="98.69218203756544" cy="113.4715111926198" r="2" style="fill: steelblue;"></circle><circle cx="127.27078133159213" cy="118.83691176772118" r="2" style="fill: steelblue;"></circle><circle cx="96.76194853252834" cy="81.52429237961769" r="2" style="fill: steelblue;"></circle><circle cx="139.01847932073807" cy="59.81791615486145" r="2" style="fill: steelblue;"></circle><circle cx="141.52125517527264" cy="26.8152117729187" r="2" style="fill: steelblue;"></circle><circle cx="165.41108820173477" cy="81.6911555826664" r="2" style="fill: steelblue;"></circle><circle cx="99.60866305563185" cy="125.79676173627377" r="2" style="fill: steelblue;"></circle><circle cx="71.82554735077751" cy="89.96117897331715" r="2" style="fill: steelblue;"></circle><circle cx="85.96608539422353" cy="62.847184389829636" r="2" style="fill: steelblue;"></circle><circle cx="47.24259508980645" cy="118.0653315037489" r="2" style="fill: steelblue;"></circle><circle cx="38.5905106862386" cy="155.43190985918045" r="2" style="fill: steelblue;"></circle><circle cx="36.837690406375465" cy="132.46602416038513" r="2" style="fill: steelblue;"></circle><circle cx="105.06970228420363" cy="126.4857616275549" r="2" style="fill: steelblue;"></circle><circle cx="161.4244282245636" cy="35.38019806146622" r="2" style="fill: steelblue;"></circle><circle cx="177.2859493891398" cy="73.01299311220646" r="2" style="fill: steelblue;"></circle><circle cx="179.6326968404982" cy="101.04941939935088" r="2" style="fill: steelblue;"></circle><circle cx="150.5309608247545" cy="155.42096868157387" r="2" style="fill: steelblue;"></circle><circle cx="113.31657237476773" cy="156.13857880234718" r="2" style="fill: steelblue;"></circle><circle cx="138.87787196371292" cy="125.54778940975666" r="2" style="fill: steelblue;"></circle><circle cx="68.15044747458565" cy="113.62136751413345" r="2" style="fill: steelblue;"></circle><circle cx="92.0835236708323" cy="188.90261501073837" r="2" style="fill: steelblue;"></circle><circle cx="113.27192414965894" cy="143.60489174723625" r="2" style="fill: steelblue;"></circle><circle cx="57.714925871955025" cy="79.79371249675751" r="2" style="fill: steelblue;"></circle><circle cx="82.19214611583286" cy="136.89194098114967" r="2" style="fill: steelblue;"></circle><circle cx="86.24335130055745" cy="122.80883304774761" r="2" style="fill: steelblue;"></circle><circle cx="198.38217231962417" cy="106.8425890058279" r="2" style="fill: steelblue;"></circle><circle cx="111.60982477789123" cy="37.48023360967636" r="2" style="fill: steelblue;"></circle><circle cx="93.97311177518633" cy="88.42442315071821" r="2" style="fill: steelblue;"></circle><circle cx="164.55740067693924" cy="23.48591983318329" r="2" style="fill: steelblue;"></circle><circle cx="114.68672752380371" cy="77.85327956080437" r="2" style="fill: steelblue;"></circle><circle cx="144.41310034857855" cy="179.82497662305832" r="2" style="fill: steelblue;"></circle><circle cx="88.22028670046065" cy="103.87995806522667" r="2" style="fill: steelblue;"></circle><circle cx="146.58500750859577" cy="119.00419220328331" r="2" style="fill: steelblue;"></circle><circle cx="98.51133409473631" cy="60.64850315451622" r="2" style="fill: steelblue;"></circle><circle cx="121.55955284833908" cy="106.07104878872633" r="2" style="fill: steelblue;"></circle><circle cx="159.54539510938858" cy="34.56779420375824" r="2" style="fill: steelblue;"></circle><circle cx="141.43763317002188" cy="139.20485079288483" r="2" style="fill: steelblue;"></circle><circle cx="96.21118340227339" cy="100.01034885644913" r="2" style="fill: steelblue;"></circle><circle cx="42.80696312586466" cy="145.66120728850365" r="2" style="fill: steelblue;"></circle><circle cx="103.48529203070534" cy="110.88718883693218" r="2" style="fill: steelblue;"></circle><circle cx="95.44894264803993" cy="88.48473280668259" r="2" style="fill: steelblue;"></circle><circle cx="86.0323343012068" cy="53.6118321120739" r="2" style="fill: steelblue;"></circle><circle cx="107.60935271779697" cy="142.76888817548752" r="2" style="fill: steelblue;"></circle><circle cx="85.8132673634423" cy="132.52820670604706" r="2" style="fill: steelblue;"></circle><circle cx="64.81679280598959" cy="126.68889425694942" r="2" style="fill: steelblue;"></circle><circle cx="90.54885142379337" cy="174.71976429224014" r="2" style="fill: steelblue;"></circle><circle cx="69.59437330563864" cy="162.96362727880478" r="2" style="fill: steelblue;"></circle><circle cx="44.796698623233375" cy="158.94096568226814" r="2" style="fill: steelblue;"></circle><circle cx="109.6923112248381" cy="98.63759230356663" r="2" style="fill: steelblue;"></circle><circle cx="76.99878679381477" cy="167.54747033119202" r="2" style="fill: steelblue;"></circle><circle cx="18.072538905673557" cy="161.55385076999664" r="2" style="fill: steelblue;"></circle><circle cx="59.98640590243869" cy="78.46310585737228" r="2" style="fill: steelblue;"></circle><circle cx="56.945814026726616" cy="111.68570853769779" r="2" style="fill: steelblue;"></circle><circle cx="127.75375445683797" cy="156.32025003433228" r="2" style="fill: steelblue;"></circle><circle cx="133.8353355725606" cy="91.25121906399727" r="2" style="fill: steelblue;"></circle><circle cx="95.07047798898485" cy="45.28065249323845" r="2" style="fill: steelblue;"></circle><circle cx="99.83774936861461" cy="53.67736741900444" r="2" style="fill: steelblue;"></circle><circle cx="157.97169340981375" cy="45.075199007987976" r="2" style="fill: steelblue;"></circle><circle cx="175.33655961354572" cy="49.35276359319687" r="2" style="fill: steelblue;"></circle><circle cx="134.15431645181442" cy="46.41389325261116" r="2" style="fill: steelblue;"></circle><circle cx="143.7655786673228" cy="47.65826687216759" r="2" style="fill: steelblue;"></circle><circle cx="165.70358475049335" cy="1.6818925738334656" r="2" style="fill: steelblue;"></circle><circle cx="130.91348277197943" cy="30.10542541742325" r="2" style="fill: steelblue;"></circle><circle cx="166.99381007088553" cy="42.84748286008835" r="2" style="fill: steelblue;"></circle><circle cx="151.28863520092435" cy="5.438274145126343" r="2" style="fill: steelblue;"></circle><circle cx="163.54272100660538" cy="98.39228135533631" r="2" style="fill: steelblue;"></circle><circle cx="80.90473545922173" cy="120.2549621462822" r="2" style="fill: steelblue;"></circle><circle cx="68.68884960810342" cy="188.3452519774437" r="2" style="fill: steelblue;"></circle><circle cx="90.25743769274818" cy="109.0522626414895" r="2" style="fill: steelblue;"></circle><circle cx="103.703406949838" cy="105.72137208655477" r="2" style="fill: steelblue;"></circle><circle cx="139.01905881034003" cy="94.48972661048174" r="2" style="fill: steelblue;"></circle><circle cx="88.55799006091225" cy="86.66827846318483" r="2" style="fill: steelblue;"></circle><circle cx="143.3236499627431" cy="62.715599685907364" r="2" style="fill: steelblue;"></circle><circle cx="147.2998195224338" cy="38.19475173950195" r="2" style="fill: steelblue;"></circle><circle cx="166.4225591553582" cy="34.75668132305145" r="2" style="fill: steelblue;"></circle><circle cx="155.9659010834164" cy="92.34945001080632" r="2" style="fill: steelblue;"></circle><circle cx="185.54112646314834" cy="34.84979867935181" r="2" style="fill: steelblue;"></circle><circle cx="108.43329835269186" cy="42.65342503786087" r="2" style="fill: steelblue;"></circle><circle cx="195.4117284880744" cy="46.931276470422745" r="2" style="fill: steelblue;"></circle><circle cx="198.04275698131985" cy="56.87583088874817" r="2" style="fill: steelblue;"></circle><circle cx="115.90150867899258" cy="17.60016232728958" r="2" style="fill: steelblue;"></circle><circle cx="131.72496855258942" cy="111.79639250040054" r="2" style="fill: steelblue;"></circle><circle cx="159.9457495742374" cy="144.13475841283798" r="2" style="fill: steelblue;"></circle><circle cx="164.28583529260422" cy="122.33878709375858" r="2" style="fill: steelblue;"></circle><circle cx="97.93304569191402" cy="42.149654030799866" r="2" style="fill: steelblue;"></circle><circle cx="112.62795339441962" cy="108.60277283936739" r="2" style="fill: steelblue;"></circle><circle cx="144.1684067249298" cy="84.12607610225677" r="2" style="fill: steelblue;"></circle><circle cx="64.15002875857883" cy="10.531029105186462" r="2" style="fill: steelblue;"></circle><circle cx="66.94664557774863" cy="45.09348273277283" r="2" style="fill: steelblue;"></circle><circle cx="161.2042486667633" cy="161.08415126800537" r="2" style="fill: steelblue;"></circle><circle cx="94.55517927805582" cy="44.56039369106293" r="2" style="fill: steelblue;"></circle><circle cx="126.64359145694308" cy="22.637760639190674" r="2" style="fill: steelblue;"></circle><circle cx="164.77129525608487" cy="31.78388476371765" r="2" style="fill: steelblue;"></circle><circle cx="159.2626737223731" cy="22.540389001369476" r="2" style="fill: steelblue;"></circle><circle cx="182.71969424353705" cy="26.00834369659424" r="2" style="fill: steelblue;"></circle><circle cx="109.44606746650405" cy="139.21032696962357" r="2" style="fill: steelblue;"></circle><circle cx="94.050708744261" cy="94.560566265136" r="2" style="fill: steelblue;"></circle><circle cx="75.30985938178169" cy="123.77944067120552" r="2" style="fill: steelblue;"></circle><circle cx="85.43363875812953" cy="164.1953945159912" r="2" style="fill: steelblue;"></circle><circle cx="64.42280610402426" cy="162.82967329025269" r="2" style="fill: steelblue;"></circle><circle cx="84.8927597204844" cy="100.81705627962947" r="2" style="fill: steelblue;"></circle></g></svg>