<svg xmlns="http://www.w3.org/2000/svg"><rect width="200" height="200" fill="white"></rect><g><circle cx="41.007900983095176" cy="144.57962777879501" r="2" style="fill: steelblue;"></circle><circle cx="142.1154834330082" cy="141.6809644964006" r="2" style="fill: steelblue;"></circle><circle cx="84.49775204062462" cy="44.7554541958703" r="2" style="fill: steelblue;"></circle><circle cx="22.3121926188469" cy="90.3693590934078" r="2" style="fill: steelblue;"></circle><circle cx="17.547397315502174" cy="130.500199397405" r="2" style="fill: steelblue;"></circle><circle cx="69.08937953412533" cy="105.08753226863013" r="2" style="fill: steelblue;"></circle><circle cx="131.5229520201683" cy="135.91542376412286" r="2" style="fill: steelblue;"></circle><circle cx="76.6860343515873" cy="108.3116137319141" r="2" style="fill: steelblue;"></circle><circle cx="57.86208659410477" cy="114.4438472059038" r="2" style="fill: steelblue;"></circle><circle cx="43.84116306900979" cy="82.90243637230661" r="2" style="fill: steelblue;"></circle><circle cx="114.33230843394995" cy="134.01028050316705" r="2" style="fill: steelblue;"></circle><circle cx="78.38269732892513" cy="43.06754337416756" r="2" style="fill: steelblue;"></circle><circle cx="149.86992850899696" cy="132.44335717625088" r="2" style="fill: steelblue;"></circle><circle cx="54.140279442071915" cy="156.24252822664047" r="2" style="fill: steelblue;"></circle><circle cx="61.79802715778351" cy="94.63687108622658" r="2" style="fill: steelblue;"></circle><circle cx="101.73792033456266" cy="100.96929503811731" r="2" style="fill: steelblue;"></circle><circle cx="104.67185163870454" cy="93.60504431857004" r="2" style="fill: steelblue;"></circle><circle cx="90.27575645595789" cy="55.07133934232924" r="2" style="fill: steelblue;"></circle><circle cx="118.23126338422298" cy="27.987253665924072" r="2" style="fill: steelblue;"></circle><circle cx="151.78239941596985" cy="40.05401531855266" r="2" style="fill: steelblue;"></circle><circle cx="79.07136939466" cy="115.34300148487091" r="2" style="fill: steelblue;"></circle><circle cx="81.47629015147686" cy="34.467411041259766" r="2" style="fill: steelblue;"></circle><circle cx="95.84957584738731" cy="154.89791366789078" r="2" style="fill: steelblue;"></circle><circle cx="138.57755661010742" cy="118.66282290882535" r="2" style="fill: steelblue;"></circle><circle cx="81.15593567490578" cy="100.21777484152052" r="2" style="fill: steelblue;"></circle><circle cx="78.99841703474522" cy="83.52458303173383" r="2" style="fill: steelblue;"></circle><circle cx="109.1688483953476" cy="83.05730703804228" r="2" style="fill: steelblue;"></circle><circle cx="43.009007722139366" cy="137.99501326349045" r="2" style="fill: steelblue;"></circle><circle cx="38.719812780618675" cy="134.10942289564346" r="2" style="fill: steelblue;"></circle><circle cx="12.064246833324438" cy="97.00434605280559" r="2" style="fill: steelblue;"></circle><circle cx="186.51670813560486" cy="37.118860748079086" r="2" style="fill: steelblue;"></circle><circle cx="136.3301858305931" cy="33.35128426551819" r="2" style="fill: steelblue;"></circle><circle cx="70.87153419852257" cy="85.48447812596957" r="2" style="fill: steelblue;"></circle><circle cx="58.271436393260956" cy="84.05671053462558" r="2" style="fill: steelblue;"></circle><circle cx="158.4244802594185" cy="70.99630965126886" r="2" style="fill: steelblue;"></circle><circle cx="171.72127068042755" cy="110.46761804156833" r="2" style="fill: steelblue;"></circle><circle cx="72.56447561085224" cy="149.16027122073703" r="2" style="fill: steelblue;"></circle><circle cx="26.427409052848823" cy="149.07056623035007" r="2" style="fill: steelblue;"></circle><circle cx="77.941719815135" cy="155.19951979319256" r="2" style="fill: steelblue;"></circle><circle cx="54.33805137872696" cy="132.38160014152527" r="2" style="fill: steelblue;"></circle><circle cx="94.60672540590167" cy="115.1889830827713" r="2" style="fill: steelblue;"></circle><circle cx="66.74205735325813" cy="22.5899338722229" r="2" style="fill: steelblue;"></circle><circle cx="31.91394209861756" cy="107.67078432771895" r="2" style="fill: steelblue;"></circle><circle cx="189.04502540826797" cy="69.06614071793027" r="2" style="fill: steelblue;"></circle><circle cx="97.29596730321646" cy="37.922533353169776" r="2" style="fill: steelblue;"></circle><circle cx="111.44989114254713" cy="85.90375747945573" r="2" style="fill: steelblue;"></circle><circle cx="123.83723855018616" cy="48.305096228917456" r="2" style="fill: steelblue;"></circle><circle cx="93.66633873432875" cy="125.06870627403259" r="2" style="fill: steelblue;"></circle><circle cx="66.16934984922409" cy="93.79581643475427" r="2" style="fill: steelblue;"></circle><circle cx="144.60640251636505" cy="145.60609261194864" r="2" style="fill: steelblue;"></circle><circle cx="89.56089466810226" cy="114.6700551112493" r="2" style="fill: steelblue;"></circle><circle cx="152.64437198638916" cy="54.40143611696031" r="2" style="fill: steelblue;"></circle><circle cx="130.14382533729076" cy="85.73415122098393" r="2" style="fill: steelblue;"></circle><circle cx="48.248222470283515" cy="95.91724425554276" r="2" style="fill: steelblue;"></circle><circle cx="59.702447056770325" cy="71.98627822928958" r="2" style="fill: steelblue;"></circle><circle cx="24.254164099693305" cy="143.84192758136325" r="2" style="fill: steelblue;"></circle><circle cx="96.51260673999786" cy="146.89633448918661" r="2" style="fill: steelblue;"></circle><circle cx="84.29003171622753" cy="117.22842388682895" r="2" style="fill: steelblue;"></circle><circle cx="93.63102577626705" cy="116.61409371429019" r="2" style="fill: steelblue;"></circle><circle cx="88.57291042804718" cy="61.023128032684326" r="2" style="fill: steelblue;"></circle><circle cx="49.63782653212548" cy="144.16517681545682" r="2" style="fill: steelblue;"></circle><circle cx="46.65516167879105" cy="71.21207349830203" r="2" style="fill: steelblue;"></circle><circle cx="13.194708526134496" cy="74.47673082351685" r="2" style="fill: steelblue;"></circle><circle cx="28.44317853450776" cy="136.17654509014554" r="2" style="fill: steelblue;"></circle><circle cx="27.915088832378395" cy="139.51931926939224" r="2" style="fill: steelblue;"></circle><circle cx="38.47299739718438" cy="165.16421768400406" r="2" style="fill: steelblue;"></circle><circle cx="24.430638551712043" cy="78.09314578771591" r="2" style="fill: steelblue;"></circle><circle cx="6.249150633811956" cy="126.02669530444675" r="2" style="fill: steelblue;"></circle><circle cx="34.272676706314094" cy="164.64987595876056" r="2" style="fill: steelblue;"></circle><circle cx="88.77096083015203" cy="140.12449185053507" r="2" style="fill: steelblue;"></circle><circle cx="29.020769894123084" cy="183.0127027299669" r="2" style="fill: steelblue;"></circle><circle cx="173.775015771389" cy="43.99056434631348" r="2" style="fill: steelblue;"></circle><circle cx="137.80413046479225" cy="78.71392485168245" r="2" style="fill: steelblue;"></circle><circle cx="90.99266529083252" cy="55.387147929933334" r="2" style="fill: steelblue;"></circle><circle cx="177.45400071144104" cy="31.25880029466417" r="2" style="fill: steelblue;"></circle><circle cx="110.58762520551682" cy="91.70889742672443" r="2" style="fill: steelblue;"></circle><circle cx="145.9766834974289" cy="80.26114304860432" r="2" style="fill: steelblue;"></circle><circle cx="86.2151900306344" cy="15.914882553948306" r="2" style="fill: steelblue;"></circle><circle cx="169.28963214159012" cy="33.39381217956543" r="2" style="fill: steelblue;"></circle><circle cx="154.8212267458439" cy="58.98675852351718" r="2" style="fill: steelblue;"></circle><circle cx="150.4137948155403" cy="42.12848875257704" r="2" style="fill: steelblue;"></circle><circle cx="50.30035823583603" cy="6.24979072146945" r="2" style="fill: steelblue;"></circle><circle cx="94.32767927646637" cy="71.16629878679912" r="2" style="fill: steelblue;"></circle><circle cx="74.74605962634087" cy="128.6367760764228" r="2" style="fill: steelblue;"></circle><circle cx="139.3281988799572" cy="51.3684736357795" r="2" style="fill: steelblue;"></circle><circle cx="42.95727834105492" cy="112.1453861395518" r="2" style="fill: steelblue;"></circle><circle cx="104.57501085475087" cy="65.30195011032953" r="2" style="fill: steelblue;"></circle><circle cx="66.3703702390194" cy="58.78777835104201" r="2" style="fill: steelblue;"></circle><circle cx="25.727538764476783" cy="80.05316423045265" r="2" style="fill: steelblue;"></circle><circle cx="92.30180121958256" cy="55.62930835617914" r="2" style="fill: steelblue;"></circle><circle cx="153.46704646945" cy="28.883435991075302" r="2" style="fill: steelblue;"></circle><circle cx="101.7937661614269" cy="35.09664403067696" r="2" style="fill: steelblue;"></circle><circle cx="122.03810773789883" cy="125.0126083691915" r="2" style="fill: steelblue;"></circle><circle cx="93.8421887345612" cy="122.73267772462633" r="2" style="fill: steelblue;"></circle><circle cx="114.06341418623924" cy="86.0308343751563" r="2" style="fill: steelblue;"></circle><circle cx="173.73879104852676" cy="106.43039180172815" r="2" style="fill: steelblue;"></circle><circle cx="164.26679342985153" cy="44.914532370037506" r="2" style="fill: steelblue;"></circle><circle cx="134.7086861729622" cy="74.85688924789429" r="2" style="fill: steelblue;"></circle><circle cx="63.317982852458954" cy="32.28027820587158" r="2" style="fill: steelblue;"></circle><circle cx="122.39617705345154" cy="143.96929608450995" r="2" style="fill: steelblue;"></circle><circle cx="142.6715761423111" cy="47.28727738062541" r="2" style="fill: steelblue;"></circle><circle cx="138.213312625885" cy="91.34378669162591" r="2" style="fill: steelblue;"></circle><circle cx="131.1968456953764" cy="72.05864985783894" r="2" style="fill: steelblue;"></circle><circle cx="153.02683636546135" cy="146.59378131230673" r="2" style="fill: steelblue;"></circle><circle cx="147.41517454385757" cy="48.614477448993256" r="2" style="fill: steelblue;"></circle><circle cx="119.60492879152298" cy="81.27906372149785" r="2" style="fill: steelblue;"></circle><circle cx="64.74385634064674" cy="72.30193118254344" r="2" style="fill: steelblue;"></circle><circle cx="65.0074690580368" cy="77.58533077107536" r="2" style="fill: steelblue;"></circle><circle cx="126.62581019103527" cy="93.24872733818161" r="2" style="fill: steelblue;"></circle><circle cx="89.08072337508202" cy="104.02452150980632" r="2" style="fill: steelblue;"></circle><circle cx="127.2127091884613" cy="51.26344031757779" r="2" style="fill: steelblue;"></circle><circle cx="158.87795984745026" cy="53.064232402377655" r="2" style="fill: steelblue;"></circle><circle cx="124.6169175952673" cy="125.13401309649149" r="2" style="fill: steelblue;"></circle><circle cx="74.98511895537376" cy="121.40077551205954" r="2" style="fill: steelblue;"></circle><circle cx="23.6840307712555" cy="98.90474329392116" r="2" style="fill: steelblue;"></circle><circle cx="81.25578463077545" cy="150.88260703616672" r="2" style="fill: steelblue;"></circle><circle cx="95.79395307227969" cy="91.7734498778979" r="2" style="fill: steelblue;"></circle><circle cx="157.27918446063995" cy="127.0581669277615" r="2" style="fill: steelblue;"></circle></g></svg>