<svg xmlns="http://www.w3.org/2000/svg"><g><circle cx="121.61954823467467" cy="78.38045176532533" r="2" style="fill: steelblue;"></circle><circle cx="87.00083030594719" cy="112.9991696940528" r="2" style="fill: steelblue;"></circle><circle cx="89.8856586880154" cy="110.11434131198459" r="2" style="fill: steelblue;"></circle><circle cx="78.96788252724541" cy="121.03211747275458" r="2" style="fill: steelblue;"></circle><circle cx="34.85655122333103" cy="165.14344877666898" r="2" style="fill: steelblue;"></circle><circle cx="88.51338260703616" cy="111.48661739296384" r="2" style="fill: steelblue;"></circle><circle cx="134.28691360685562" cy="65.7130863931444" r="2" style="fill: steelblue;"></circle><circle cx="70.77695594893562" cy="129.2230440510644" r="2" style="fill: steelblue;"></circle><circle cx="87.09773586855995" cy="112.90226413144006" r="2" style="fill: steelblue;"></circle><circle cx="170.34140560362076" cy="29.658594396379257" r="2" style="fill: steelblue;"></circle><circle cx="102.5827071732945" cy="97.4172928267055" r="2" style="fill: steelblue;"></circle><circle cx="127.34911176893446" cy="72.65088823106554" r="2" style="fill: steelblue;"></circle><circle cx="74.32587941487631" cy="125.67412058512369" r="2" style="fill: steelblue;"></circle><circle cx="82.46574799219766" cy="117.53425200780234" r="2" style="fill: steelblue;"></circle><circle cx="86.78204152319167" cy="113.21795847680833" r="2" style="fill: steelblue;"></circle><circle cx="21.147463056776257" cy="178.85253694322373" r="2" style="fill: steelblue;"></circle><circle cx="129.28371462557052" cy="70.71628537442949" r="2" style="fill: steelblue;"></circle><circle cx="146.09742495748733" cy="53.90257504251268" r="2" style="fill: steelblue;"></circle><circle cx="127.36736403571234" cy="72.63263596428766" r="2" style="fill: steelblue;"></circle><circle cx="140.88137613402472" cy="59.11862386597528" r="2" style="fill: steelblue;"></circle><circle cx="182.95236428578693" cy="17.04763571421306" r="2" style="fill: steelblue;"></circle><circle cx="142.00426472557913" cy="57.99573527442086" r="2" style="fill: steelblue;"></circle><circle cx="41.00339942508274" cy="158.99660057491727" r="2" style="fill: steelblue;"></circle><circle cx="73.16012846099007" cy="126.83987153900995" r="2" style="fill: steelblue;"></circle><circle cx="46.05933692720201" cy="153.940663072798" r="2" style="fill: steelblue;"></circle><circle cx="118.62331380446751" cy="81.37668619553249" r="2" style="fill: steelblue;"></circle><circle cx="73.71679610676235" cy="126.28320389323764" r="2" style="fill: steelblue;"></circle><circle cx="96.17303477393257" cy="103.82696522606744" r="2" style="fill: steelblue;"></circle><circle cx="95.55372099081674" cy="104.44627900918326" r="2" style="fill: steelblue;"></circle><circle cx="150.62595076031155" cy="49.374049239688446" r="2" style="fill: steelblue;"></circle><circle cx="114.03849182857407" cy="85.96150817142593" r="2" style="fill: steelblue;"></circle><circle cx="84.30497348308563" cy="115.69502651691437" r="2" style="fill: steelblue;"></circle><circle cx="159.82827213075424" cy="40.17172786924574" r="2" style="fill: steelblue;"></circle><circle cx="156.21655186017352" cy="43.78344813982646" r="2" style="fill: steelblue;"></circle><circle cx="115.45570774210823" cy="84.54429225789177" r="2" style="fill: steelblue;"></circle><circle cx="102.82138486703236" cy="97.17861513296764" r="2" style="fill: steelblue;"></circle><circle cx="45.9219151073032" cy="154.0780848926968" r="2" style="fill: steelblue;"></circle><circle cx="71.8380974398719" cy="128.1619025601281" r="2" style="fill: steelblue;"></circle><circle cx="52.5924629635281" cy="147.4075370364719" r="2" style="fill: steelblue;"></circle><circle cx="54.799669318728974" cy="145.20033068127103" r="2" style="fill: steelblue;"></circle><circle cx="85.12121107843187" cy="114.87878892156813" r="2" style="fill: steelblue;"></circle><circle cx="146.46363920635648" cy="53.536360793643524" r="2" style="fill: steelblue;"></circle><circle cx="106.55015334486961" cy="93.44984665513039" r="2" style="fill: steelblue;"></circle><circle cx="155.27875224749246" cy="44.721247752507544" r="2" style="fill: steelblue;"></circle><circle cx="129.73345981703864" cy="70.26654018296136" r="2" style="fill: steelblue;"></circle><circle cx="167.18200842539468" cy="32.81799157460532" r="2" style="fill: steelblue;"></circle><circle cx="165.30576348304749" cy="34.694236516952515" r="2" style="fill: steelblue;"></circle><circle cx="67.17816326353285" cy="132.82183673646713" r="2" style="fill: steelblue;"></circle><circle cx="51.840762297312416" cy="148.1592377026876" r="2" style="fill: steelblue;"></circle><circle cx="112.81230331708987" cy="87.18769668291013" r="2" style="fill: steelblue;"></circle><circle cx="22.228691313001843" cy="177.77130868699814" r="2" style="fill: steelblue;"></circle><circle cx="75.38895474539864" cy="124.61104525460138" r="2" style="fill: steelblue;"></circle><circle cx="110.5413503634433" cy="89.4586496365567" r="2" style="fill: steelblue;"></circle><circle cx="91.42283764150407" cy="108.57716235849593" r="2" style="fill: steelblue;"></circle><circle cx="111.34991013548441" cy="88.65008986451559" r="2" style="fill: steelblue;"></circle><circle cx="81.11354377534654" cy="118.88645622465346" r="2" style="fill: steelblue;"></circle><circle cx="129.9162424272961" cy="70.08375757270389" r="2" style="fill: steelblue;"></circle><circle cx="88.34241992897456" cy="111.65758007102542" r="2" style="fill: steelblue;"></circle><circle cx="105.93245385421646" cy="94.06754614578354" r="2" style="fill: steelblue;"></circle><circle cx="69.16602121459114" cy="130.83397878540887" r="2" style="fill: steelblue;"></circle><circle cx="84.02213950951894" cy="115.97786049048106" r="2" style="fill: steelblue;"></circle><circle cx="49.71721437242296" cy="150.28278562757706" r="2" style="fill: steelblue;"></circle><circle cx="22.187219725714787" cy="177.81278027428522" r="2" style="fill: steelblue;"></circle><circle cx="122.27735088931189" cy="77.72264911068811" r="2" style="fill: steelblue;"></circle><circle cx="76.62165496084425" cy="123.37834503915575" r="2" style="fill: steelblue;"></circle><circle cx="70.83092464341057" cy="129.16907535658942" r="2" style="fill: steelblue;"></circle><circle cx="78.55240503946939" cy="121.44759496053061" r="2" style="fill: steelblue;"></circle><circle cx="79.347163438797" cy="120.652836561203" r="2" style="fill: steelblue;"></circle><circle cx="91.40988190968831" cy="108.59011809031169" r="2" style="fill: steelblue;"></circle><circle cx="58.35306975576613" cy="141.64693024423386" r="2" style="fill: steelblue;"></circle><circle cx="62.805400954352486" cy="137.19459904564752" r="2" style="fill: steelblue;"></circle><circle cx="111.15480793523602" cy="88.84519206476398" r="2" style="fill: steelblue;"></circle><circle cx="162.17645009358722" cy="37.823549906412765" r="2" style="fill: steelblue;"></circle><circle cx="156.44850002394782" cy="43.551499976052185" r="2" style="fill: steelblue;"></circle><circle cx="125.37346945868597" cy="74.62653054131403" r="2" style="fill: steelblue;"></circle><circle cx="153.49125862121582" cy="46.50874137878418" r="2" style="fill: steelblue;"></circle><circle cx="105.69813847541809" cy="94.30186152458191" r="2" style="fill: steelblue;"></circle><circle cx="117.62432919608221" cy="82.37567080391779" r="2" style="fill: steelblue;"></circle><circle cx="167.98863146040176" cy="32.01136853959825" r="2" style="fill: steelblue;"></circle><circle cx="161.67232394218445" cy="38.32767605781555" r="2" style="fill: steelblue;"></circle><circle cx="106.56592870752017" cy="93.43407129247983" r="2" style="fill: steelblue;"></circle><circle cx="129.3969733847512" cy="70.6030266152488" r="2" style="fill: steelblue;"></circle><circle cx="132.3944197760688" cy="67.60558022393121" r="2" style="fill: steelblue;"></circle><circle cx="111.66492140748434" cy="88.33507859251566" r="2" style="fill: steelblue;"></circle><circle cx="66.79257419374254" cy="133.20742580625748" r="2" style="fill: steelblue;"></circle><circle cx="72.34279645813835" cy="127.65720354186163" r="2" style="fill: steelblue;"></circle><circle cx="96.90782924493153" cy="103.09217075506847" r="2" style="fill: steelblue;"></circle><circle cx="105.96961817807622" cy="94.03038182192378" r="2" style="fill: steelblue;"></circle><circle cx="86.12096971935695" cy="113.87903028064304" r="2" style="fill: steelblue;"></circle><circle cx="156.01433979140387" cy="43.98566020859613" r="2" style="fill: steelblue;"></circle><circle cx="177.63664325078327" cy="22.363356749216724" r="2" style="fill: steelblue;"></circle><circle cx="101.94593750768237" cy="98.05406249231763" r="2" style="fill: steelblue;"></circle><circle cx="161.77418165736728" cy="38.22581834263272" r="2" style="fill: steelblue;"></circle><circle cx="111.7736188073953" cy="88.2263811926047" r="2" style="fill: steelblue;"></circle><circle cx="142.17090275552536" cy="57.829097244474625" r="2" style="fill: steelblue;"></circle><circle cx="168.86201832029556" cy="31.137981679704453" r="2" style="fill: steelblue;"></circle><circle cx="157.59433640374075" cy="42.40566359625924" r="2" style="fill: steelblue;"></circle><circle cx="155.33291631274753" cy="44.66708368725247" r="2" style="fill: steelblue;"></circle><circle cx="146.20666702588397" cy="53.79333297411601" r="2" style="fill: steelblue;"></circle><circle cx="133.32486318217383" cy="66.67513681782617" r="2" style="fill: steelblue;"></circle><circle cx="124.05299312538571" cy="75.94700687461429" r="2" style="fill: steelblue;"></circle><circle cx="140.72760608461166" cy="59.27239391538832" r="2" style="fill: steelblue;"></circle><circle cx="127.50810219181908" cy="72.49189780818092" r="2" style="fill: steelblue;"></circle><circle cx="126.4910962846544" cy="73.5089037153456" r="2" style="fill: steelblue;"></circle><circle cx="186.00647979312473" cy="13.993520206875276" r="2" style="fill: steelblue;"></circle><circle cx="144.51635546154446" cy="55.483644538455536" r="2" style="fill: steelblue;"></circle><circle cx="151.85832977294922" cy="48.14167022705078" r="2" style="fill: steelblue;"></circle><circle cx="125.62246455086601" cy="74.37753544913399" r="2" style="fill: steelblue;"></circle><circle cx="121.00459552473492" cy="78.99540447526508" r="2" style="fill: steelblue;"></circle><circle cx="135.65885689523483" cy="64.34114310476515" r="2" style="fill: steelblue;"></circle><circle cx="151.49656931559244" cy="48.50343068440757" r="2" style="fill: steelblue;"></circle><circle cx="144.97750335269504" cy="55.02249664730496" r="2" style="fill: steelblue;"></circle><circle cx="69.12723183631897" cy="130.87276816368103" r="2" style="fill: steelblue;"></circle><circle cx="96.9882325993644" cy="103.01176740063562" r="2" style="fill: steelblue;"></circle><circle cx="47.25121789508396" cy="152.74878210491605" r="2" style="fill: steelblue;"></circle><circle cx="36.13342179192437" cy="163.86657820807562" r="2" style="fill: steelblue;"></circle><circle cx="61.199085579978096" cy="138.8009144200219" r="2" style="fill: steelblue;"></circle><circle cx="146.32383982340497" cy="53.67616017659505" r="2" style="fill: steelblue;"></circle></g></svg>