<svg xmlns="http://www.w3.org/2000/svg"><g><circle cx="27.710186110602486" cy="81.22635558247566" r="2" style="fill: steelblue;"></circle><circle cx="29.15951775179969" cy="89.90782424807549" r="2" style="fill: steelblue;"></circle><circle cx="77.62227290206485" cy="72.27737382054329" r="2" style="fill: steelblue;"></circle><circle cx="54.8153204532961" cy="91.8778732419014" r="2" style="fill: steelblue;"></circle><circle cx="34.7499003012975" cy="78.4530408680439" r="2" style="fill: steelblue;"></circle><circle cx="47.45623386568493" cy="77.32033282518387" r="2" style="fill: steelblue;"></circle><circle cx="32.042288117938575" cy="57.87545274943113" r="2" style="fill: steelblue;"></circle><circle cx="45.844193134042946" cy="47.517343144863844" r="2" style="fill: steelblue;"></circle><circle cx="42.7780763970481" cy="75.18287487328053" r="2" style="fill: steelblue;"></circle><circle cx="58.548781813846695" cy="83.50821509957314" r="2" style="fill: steelblue;"></circle><circle cx="32.99485974841648" cy="76.21022425591946" r="2" style="fill: steelblue;"></circle><circle cx="78.46622831291621" cy="54.71831252798438" r="2" style="fill: steelblue;"></circle><circle cx="33.77832141187456" cy="76.07433870434761" r="2" style="fill: steelblue;"></circle><circle cx="21.878735886679753" cy="54.12630429491401" r="2" style="fill: steelblue;"></circle><circle cx="52.68156445688671" cy="75.47717839479446" r="2" style="fill: steelblue;"></circle><circle cx="49.51535248094135" cy="34.97644439339638" r="2" style="fill: steelblue;"></circle><circle cx="53.19747784071498" cy="57.79317459091544" r="2" style="fill: steelblue;"></circle><circle cx="72.46433032883537" cy="56.7357555963099" r="2" style="fill: steelblue;"></circle><circle cx="86.00637316703796" cy="59.41845588386059" r="2" style="fill: steelblue;"></circle><circle cx="79.97299234072366" cy="40.762146189808846" r="2" style="fill: steelblue;"></circle><circle cx="42.328499257564545" cy="29.908958077430725" r="2" style="fill: steelblue;"></circle><circle cx="82.76629447937012" cy="13.40760588645935" r="2" style="fill: steelblue;"></circle><circle cx="22.55104316605462" cy="40.8455777913332" r="2" style="fill: steelblue;"></circle><circle cx="40.668588545587326" cy="62.89838086813688" r="2" style="fill: steelblue;"></circle><circle cx="49.89111257923974" cy="44.98058948665857" r="2" style="fill: steelblue;"></circle><circle cx="58.23770848413309" cy="31.423592194914818" r="2" style="fill: steelblue;"></circle><circle cx="58.47134648097886" cy="59.03266575187445" r="2" style="fill: steelblue;"></circle><circle cx="31.00249336825477" cy="77.71595492959023" r="2" style="fill: steelblue;"></circle><circle cx="32.945288552178276" cy="66.23301208019257" r="2" style="fill: steelblue;"></circle><circle cx="51.497826973597206" cy="63.24288081377745" r="2" style="fill: steelblue;"></circle><circle cx="81.44056962596046" cy="17.69009903073311" r="2" style="fill: steelblue;"></circle><circle cx="83.3243578672409" cy="36.50649655610323" r="2" style="fill: steelblue;"></circle><circle cx="57.25776093701521" cy="50.52470969967544" r="2" style="fill: steelblue;"></circle><circle cx="57.97164473268721" cy="77.71048434078693" r="2" style="fill: steelblue;"></circle><circle cx="64.50184517436557" cy="78.06928940117359" r="2" style="fill: steelblue;"></circle><circle cx="44.76619097921583" cy="62.77389470487833" r="2" style="fill: steelblue;"></circle><circle cx="25.41986438963148" cy="56.81068375706673" r="2" style="fill: steelblue;"></circle><circle cx="25.464716884824963" cy="94.45130750536919" r="2" style="fill: steelblue;"></circle><circle cx="22.400240103403725" cy="71.80244587361813" r="2" style="fill: steelblue;"></circle><circle cx="33.809199929237366" cy="39.896856248378754" r="2" style="fill: steelblue;"></circle><circle cx="42.40550845861435" cy="68.44597049057484" r="2" style="fill: steelblue;"></circle><circle cx="88.70503306388855" cy="61.404416523873806" r="2" style="fill: steelblue;"></circle><circle cx="46.164607836140526" cy="53.42129450291395" r="2" style="fill: steelblue;"></circle><circle cx="65.46692964103487" cy="18.74011680483818" r="2" style="fill: steelblue;"></circle><circle cx="81.03873332341512" cy="44.212211575359106" r="2" style="fill: steelblue;"></circle><circle cx="57.04812126027213" cy="11.742959916591644" r="2" style="fill: steelblue;"></circle><circle cx="75.84745188554128" cy="38.92663978040218" r="2" style="fill: steelblue;"></circle><circle cx="37.465646862983704" cy="89.91248831152916" r="2" style="fill: steelblue;"></circle><circle cx="53.102091782622864" cy="51.93997903261334" r="2" style="fill: steelblue;"></circle><circle cx="27.196953694025677" cy="59.502096101641655" r="2" style="fill: steelblue;"></circle><circle cx="42.66497244437535" cy="30.32425157725811" r="2" style="fill: steelblue;"></circle><circle cx="72.79928194151985" cy="53.035524394363165" r="2" style="fill: steelblue;"></circle><circle cx="57.132924389508034" cy="17.28389710187912" r="2" style="fill: steelblue;"></circle><circle cx="52.04137787222862" cy="69.60242539644241" r="2" style="fill: steelblue;"></circle><circle cx="64.00686088535521" cy="50.005174428224564" r="2" style="fill: steelblue;"></circle><circle cx="28.07903620931837" cy="72.83060364425182" r="2" style="fill: steelblue;"></circle><circle cx="26.551832755406696" cy="55.44359441846609" r="2" style="fill: steelblue;"></circle><circle cx="41.38578805658552" cy="44.24236640334129" r="2" style="fill: steelblue;"></circle><circle cx="41.6929531428549" cy="26.80591605603695" r="2" style="fill: steelblue;"></circle><circle cx="69.48843598365784" cy="71.38444408774376" r="2" style="fill: steelblue;"></circle><circle cx="27.91741159227159" cy="66.26410335302353" r="2" style="fill: steelblue;"></circle><circle cx="64.39396325084898" cy="63.34444712847471" r="2" style="fill: steelblue;"></circle><circle cx="62.76163458824158" cy="87.35988214612007" r="2" style="fill: steelblue;"></circle><circle cx="31.91172745492723" cy="81.48181363940239" r="2" style="fill: steelblue;"></circle><circle cx="30.240340365303886" cy="79.47048284113407" r="2" style="fill: steelblue;"></circle><circle cx="17.41789115799798" cy="49.31879615178332" r="2" style="fill: steelblue;"></circle><circle cx="60.953427106142044" cy="83.77373516559601" r="2" style="fill: steelblue;"></circle><circle cx="36.98665234777662" cy="80.77692538499832" r="2" style="fill: steelblue;"></circle><circle cx="17.675062020619713" cy="39.23155292868614" r="2" style="fill: steelblue;"></circle><circle cx="29.937754074732464" cy="55.842854268848896" r="2" style="fill: steelblue;"></circle><circle cx="8.493648635016546" cy="78.16012501716614" r="2" style="fill: steelblue;"></circle><circle cx="78.00471782684326" cy="45.625609531998634" r="2" style="fill: steelblue;"></circle><circle cx="60.643037574158775" cy="22.640326246619225" r="2" style="fill: steelblue;"></circle><circle cx="72.30642603503334" cy="26.83868370950222" r="2" style="fill: steelblue;"></circle><circle cx="84.37059985266792" cy="22.537599503993988" r="2" style="fill: steelblue;"></circle><circle cx="54.14555128663778" cy="24.676381796598434" r="2" style="fill: steelblue;"></circle><circle cx="59.86942847569784" cy="23.20694662630558" r="2" style="fill: steelblue;"></circle><circle cx="92.04255872302585" cy="23.829133436083794" r="2" style="fill: steelblue;"></circle><circle cx="83.30309391021729" cy="0.8409462869167328" r="2" style="fill: steelblue;"></circle><circle cx="70.50662073824141" cy="15.052712708711624" r="2" style="fill: steelblue;"></circle><circle cx="78.93575562371147" cy="21.423741430044174" r="2" style="fill: steelblue;"></circle><circle cx="96.87510463926527" cy="2.7191370725631714" r="2" style="fill: steelblue;"></circle><circle cx="64.41685060660043" cy="49.196140677668154" r="2" style="fill: steelblue;"></circle><circle cx="35.6816119617886" cy="60.1274810731411" r="2" style="fill: steelblue;"></circle><circle cx="74.31576318211025" cy="94.17262598872185" r="2" style="fill: steelblue;"></circle><circle cx="43.9273069302241" cy="54.52613132074475" r="2" style="fill: steelblue;"></circle><circle cx="67.34902494483524" cy="52.86068604327738" r="2" style="fill: steelblue;"></circle><circle cx="70.60611082447899" cy="47.24486330524087" r="2" style="fill: steelblue;"></circle><circle cx="59.973417884773674" cy="43.33413923159242" r="2" style="fill: steelblue;"></circle><circle cx="72.18534582191043" cy="31.357799842953682" r="2" style="fill: steelblue;"></circle><circle cx="85.55828200446236" cy="19.097375869750977" r="2" style="fill: steelblue;"></circle><circle cx="82.45167798466152" cy="17.378340661525726" r="2" style="fill: steelblue;"></circle><circle cx="37.49369581540425" cy="46.17472500540316" r="2" style="fill: steelblue;"></circle><circle cx="38.633661137686836" cy="17.424899339675903" r="2" style="fill: steelblue;"></circle><circle cx="56.98458281242185" cy="21.326712518930435" r="2" style="fill: steelblue;"></circle><circle cx="46.78480409913593" cy="23.465638235211372" r="2" style="fill: steelblue;"></circle><circle cx="77.54273381498125" cy="28.437915444374084" r="2" style="fill: steelblue;"></circle><circle cx="62.571555376052856" cy="8.80008116364479" r="2" style="fill: steelblue;"></circle><circle cx="83.85986089706421" cy="55.89819625020027" r="2" style="fill: steelblue;"></circle><circle cx="28.015351957745022" cy="72.06737920641899" r="2" style="fill: steelblue;"></circle><circle cx="76.35636130968729" cy="61.16939354687929" r="2" style="fill: steelblue;"></circle><circle cx="54.328106654187046" cy="21.074827015399933" r="2" style="fill: steelblue;"></circle><circle cx="63.97067507108053" cy="54.301386419683695" r="2" style="fill: steelblue;"></circle><circle cx="26.703109343846638" cy="42.06303805112839" r="2" style="fill: steelblue;"></circle><circle cx="75.69276127550337" cy="5.265514552593231" r="2" style="fill: steelblue;"></circle><circle cx="59.360468139251076" cy="22.546741366386414" r="2" style="fill: steelblue;"></circle><circle cx="63.84903440872828" cy="80.54207563400269" r="2" style="fill: steelblue;"></circle><circle cx="61.20733461446232" cy="22.280196845531464" r="2" style="fill: steelblue;"></circle><circle cx="53.375636330909195" cy="11.318880319595337" r="2" style="fill: steelblue;"></circle><circle cx="47.98773924509684" cy="15.891942381858826" r="2" style="fill: steelblue;"></circle><circle cx="74.3682798412111" cy="11.270194500684738" r="2" style="fill: steelblue;"></circle><circle cx="73.46788379881117" cy="13.00417184829712" r="2" style="fill: steelblue;"></circle><circle cx="37.43299345175426" cy="69.60516348481178" r="2" style="fill: steelblue;"></circle><circle cx="39.29961224397023" cy="47.280283132568" r="2" style="fill: steelblue;"></circle><circle cx="50.54762835303942" cy="61.88972033560276" r="2" style="fill: steelblue;"></circle><circle cx="24.558696481916638" cy="82.0976972579956" r="2" style="fill: steelblue;"></circle><circle cx="54.11327506105105" cy="81.41483664512634" r="2" style="fill: steelblue;"></circle><circle cx="36.47091653611925" cy="50.408528139814734" r="2" style="fill: steelblue;"></circle></g></svg>