<svg xmlns="http://www.w3.org/2000/svg"><g><circle cx="80.27987033128738" cy="174.98740404844284" r="2" style="fill: steelblue;"></circle><circle cx="42.27495416998864" cy="91.57656170427799" r="2" style="fill: steelblue;"></circle><circle cx="82.82140679657459" cy="101.49789173156023" r="2" style="fill: steelblue;"></circle><circle cx="83.86875353753567" cy="193.34822744131088" r="2" style="fill: steelblue;"></circle><circle cx="62.753817439079285" cy="195.3257754445076" r="2" style="fill: steelblue;"></circle><circle cx="104.59266360849142" cy="193.73099356889725" r="2" style="fill: steelblue;"></circle><circle cx="147.69600555300713" cy="139.25812244415283" r="2" style="fill: steelblue;"></circle><circle cx="132.20118582248688" cy="119.81290057301521" r="2" style="fill: steelblue;"></circle><circle cx="126.04658342897892" cy="116.54825918376446" r="2" style="fill: steelblue;"></circle><circle cx="78.44864800572395" cy="116.12073183059692" r="2" style="fill: steelblue;"></circle><circle cx="87.05926723778248" cy="111.38151157647371" r="2" style="fill: steelblue;"></circle><circle cx="59.284231066703796" cy="121.30567654967308" r="2" style="fill: steelblue;"></circle><circle cx="125.99045820534229" cy="132.91935846209526" r="2" style="fill: steelblue;"></circle><circle cx="133.09812769293785" cy="106.4589437097311" r="2" style="fill: steelblue;"></circle><circle cx="42.58860871195794" cy="139.40671682357788" r="2" style="fill: steelblue;"></circle><circle cx="44.94490325450898" cy="109.79529321193695" r="2" style="fill: steelblue;"></circle><circle cx="104.0625175461173" cy="93.20546165108681" r="2" style="fill: steelblue;"></circle><circle cx="150.62304809689522" cy="133.29603374004364" r="2" style="fill: steelblue;"></circle><circle cx="84.67725329101086" cy="154.89331483840942" r="2" style="fill: steelblue;"></circle><circle cx="103.67336208000779" cy="105.02574304118752" r="2" style="fill: steelblue;"></circle><circle cx="91.6278338059783" cy="137.4772809445858" r="2" style="fill: steelblue;"></circle><circle cx="135.6164388358593" cy="55.91748133301735" r="2" style="fill: steelblue;"></circle><circle cx="148.49035292863846" cy="127.65700221061707" r="2" style="fill: steelblue;"></circle><circle cx="28.23602259159089" cy="151.31331831216812" r="2" style="fill: steelblue;"></circle><circle cx="51.519303023815155" cy="149.2062084376812" r="2" style="fill: steelblue;"></circle><circle cx="38.4557418525219" cy="69.5377703756094" r="2" style="fill: steelblue;"></circle><circle cx="90.69346487522125" cy="141.27294570207596" r="2" style="fill: steelblue;"></circle><circle cx="43.88649985194207" cy="121.52498625218868" r="2" style="fill: steelblue;"></circle><circle cx="68.96650642156601" cy="61.77925169467926" r="2" style="fill: steelblue;"></circle><circle cx="162.9921704530716" cy="55.294232815504074" r="2" style="fill: steelblue;"></circle><circle cx="83.99916104972363" cy="83.79559256136417" r="2" style="fill: steelblue;"></circle><circle cx="115.89233987033367" cy="40.10075181722641" r="2" style="fill: steelblue;"></circle><circle cx="136.47420182824135" cy="86.13265994936228" r="2" style="fill: steelblue;"></circle><circle cx="110.70212386548519" cy="97.55544471554458" r="2" style="fill: steelblue;"></circle><circle cx="158.69046971201897" cy="107.02203577384353" r="2" style="fill: steelblue;"></circle><circle cx="69.6567989885807" cy="104.39463974907994" r="2" style="fill: steelblue;"></circle><circle cx="104.12667263299227" cy="108.81739147007465" r="2" style="fill: steelblue;"></circle><circle cx="0.6049484014511164" cy="144.8950082063675" r="2" style="fill: steelblue;"></circle><circle cx="27.74737626314164" cy="173.68024438619614" r="2" style="fill: steelblue;"></circle><circle cx="62.011177092790604" cy="168.12776625156403" r="2" style="fill: steelblue;"></circle><circle cx="14.516247808933263" cy="143.23199018836021" r="2" style="fill: steelblue;"></circle><circle cx="143.84471848607063" cy="16.67676717042923" r="2" style="fill: steelblue;"></circle><circle cx="155.0146959722042" cy="125.34583956003189" r="2" style="fill: steelblue;"></circle><circle cx="100.77354663517326" cy="110.58018486946821" r="2" style="fill: steelblue;"></circle><circle cx="116.63754694163799" cy="79.89454679191113" r="2" style="fill: steelblue;"></circle><circle cx="121.40428125858307" cy="67.58440136909485" r="2" style="fill: steelblue;"></circle><circle cx="126.9047524780035" cy="53.839048743247986" r="2" style="fill: steelblue;"></circle><circle cx="10.231880843639379" cy="152.88256332278252" r="2" style="fill: steelblue;"></circle><circle cx="111.33822463452816" cy="56.69703185558319" r="2" style="fill: steelblue;"></circle><circle cx="89.84106630086899" cy="52.22744718194008" r="2" style="fill: steelblue;"></circle><circle cx="100.67304912954569" cy="80.30994273722172" r="2" style="fill: steelblue;"></circle><circle cx="121.41478285193443" cy="117.18283072113991" r="2" style="fill: steelblue;"></circle><circle cx="54.45855334401131" cy="128.71168591082096" r="2" style="fill: steelblue;"></circle><circle cx="41.10359251499177" cy="64.01244029402733" r="2" style="fill: steelblue;"></circle><circle cx="72.51321189105511" cy="160.93300506472588" r="2" style="fill: steelblue;"></circle><circle cx="3.306081891059881" cy="153.7678562104702" r="2" style="fill: steelblue;"></circle><circle cx="75.85113905370235" cy="41.821303218603134" r="2" style="fill: steelblue;"></circle><circle cx="89.18695654720068" cy="98.98475781083107" r="2" style="fill: steelblue;"></circle><circle cx="105.76763739809394" cy="124.12179112434387" r="2" style="fill: steelblue;"></circle><circle cx="113.10582924634218" cy="84.68381818383932" r="2" style="fill: steelblue;"></circle><circle cx="76.26503370702267" cy="107.11092306300998" r="2" style="fill: steelblue;"></circle><circle cx="98.04469314403832" cy="143.31383854150772" r="2" style="fill: steelblue;"></circle><circle cx="45.7417018711567" cy="112.57267408072948" r="2" style="fill: steelblue;"></circle><circle cx="4.643088579177862" cy="168.79877299070358" r="2" style="fill: steelblue;"></circle><circle cx="21.895258128643043" cy="94.5838931016624" r="2" style="fill: steelblue;"></circle><circle cx="59.84942838549614" cy="162.49764189124107" r="2" style="fill: steelblue;"></circle><circle cx="7.931141555309301" cy="162.3062364757061" r="2" style="fill: steelblue;"></circle><circle cx="23.555195331573493" cy="157.85725638270378" r="2" style="fill: steelblue;"></circle><circle cx="92.3668229021132" cy="104.8152063973248" r="2" style="fill: steelblue;"></circle><circle cx="34.5257580280304" cy="154.79972809553146" r="2" style="fill: steelblue;"></circle><circle cx="147.18775302171707" cy="149.6593564748764" r="2" style="fill: steelblue;"></circle><circle cx="193.6645194888115" cy="65.2341641485691" r="2" style="fill: steelblue;"></circle><circle cx="186.24745905399323" cy="53.12587916851044" r="2" style="fill: steelblue;"></circle><circle cx="108.68726335465908" cy="132.4268825352192" r="2" style="fill: steelblue;"></circle><circle cx="167.81163811683655" cy="93.71018121019006" r="2" style="fill: steelblue;"></circle><circle cx="53.36424931883812" cy="105.53168170154095" r="2" style="fill: steelblue;"></circle><circle cx="162.3856820166111" cy="68.76719780266285" r="2" style="fill: steelblue;"></circle><circle cx="146.94264009594917" cy="129.83923815190792" r="2" style="fill: steelblue;"></circle><circle cx="128.91402691602707" cy="61.40795946121216" r="2" style="fill: steelblue;"></circle><circle cx="175.1272439956665" cy="56.94560557603836" r="2" style="fill: steelblue;"></circle><circle cx="83.39319415390491" cy="94.73499553278089" r="2" style="fill: steelblue;"></circle><circle cx="165.7932385802269" cy="21.435102820396423" r="2" style="fill: steelblue;"></circle><circle cx="54.52236011624336" cy="95.69710716605186" r="2" style="fill: steelblue;"></circle><circle cx="34.635981917381294" cy="93.21218812838197" r="2" style="fill: steelblue;"></circle><circle cx="90.0601115077734" cy="115.23943059146404" r="2" style="fill: steelblue;"></circle><circle cx="93.10864182189107" cy="115.03417640924454" r="2" style="fill: steelblue;"></circle><circle cx="125.79873241484165" cy="108.92481207847595" r="2" style="fill: steelblue;"></circle><circle cx="109.0103866532445" cy="118.07989366352558" r="2" style="fill: steelblue;"></circle><circle cx="117.62775704264641" cy="102.8099415358156" r="2" style="fill: steelblue;"></circle><circle cx="130.13712167739868" cy="95.84529735147953" r="2" style="fill: steelblue;"></circle><circle cx="118.2278398424387" cy="33.31795930862427" r="2" style="fill: steelblue;"></circle><circle cx="105.5050179362297" cy="81.01788945496082" r="2" style="fill: steelblue;"></circle><circle cx="143.60554367303848" cy="79.83900085091591" r="2" style="fill: steelblue;"></circle><circle cx="154.8691414296627" cy="65.57781845331192" r="2" style="fill: steelblue;"></circle><circle cx="157.92031064629555" cy="104.65554231777787" r="2" style="fill: steelblue;"></circle><circle cx="145.47226056456566" cy="31.78165704011917" r="2" style="fill: steelblue;"></circle><circle cx="156.971475481987" cy="40.984148532152176" r="2" style="fill: steelblue;"></circle><circle cx="29.58470433950425" cy="40.45732915401459" r="2" style="fill: steelblue;"></circle><circle cx="33.25206637382508" cy="91.76706373691559" r="2" style="fill: steelblue;"></circle><circle cx="179.59093153476715" cy="99.21072949655354" r="2" style="fill: steelblue;"></circle><circle cx="180.24710416793823" cy="52.730692923069" r="2" style="fill: steelblue;"></circle><circle cx="130.15821054577827" cy="75.92341341078281" r="2" style="fill: steelblue;"></circle><circle cx="93.2306818664074" cy="56.89393952488899" r="2" style="fill: steelblue;"></circle><circle cx="24.46009814739228" cy="71.08442150056362" r="2" style="fill: steelblue;"></circle><circle cx="155.02008274197578" cy="59.31161940097809" r="2" style="fill: steelblue;"></circle><circle cx="57.925841212272644" cy="126.56165882945061" r="2" style="fill: steelblue;"></circle><circle cx="100.17467129509896" cy="75.439028814435" r="2" style="fill: steelblue;"></circle><circle cx="111.76791079342365" cy="58.394382148981094" r="2" style="fill: steelblue;"></circle><circle cx="81.77698999643326" cy="26.598340272903442" r="2" style="fill: steelblue;"></circle><circle cx="144.95178163051605" cy="100.13406382640824" r="2" style="fill: steelblue;"></circle><circle cx="110.92589274048805" cy="15.371619164943695" r="2" style="fill: steelblue;"></circle><circle cx="170.79534232616425" cy="117.28149689733982" r="2" style="fill: steelblue;"></circle><circle cx="67.60845184326172" cy="170.30261307954788" r="2" style="fill: steelblue;"></circle><circle cx="75.95210559666157" cy="152.49904468655586" r="2" style="fill: steelblue;"></circle><circle cx="64.27997201681137" cy="121.98888547718525" r="2" style="fill: steelblue;"></circle><circle cx="6.3640907406807" cy="156.0128390789032" r="2" style="fill: steelblue;"></circle><circle cx="61.245786398649216" cy="163.65085393190384" r="2" style="fill: steelblue;"></circle><circle cx="61.86254546046257" cy="166.51833653450012" r="2" style="fill: steelblue;"></circle></g></svg>