<svg xmlns="http://www.w3.org/2000/svg"><rect width="200" height="200" fill="white"></rect><g><circle cx="41.007900983095176" cy="171.08941078186035" r="2" style="fill: steelblue;"></circle><circle cx="142.1154834330082" cy="98.41158632189035" r="2" style="fill: steelblue;"></circle><circle cx="84.49775204062462" cy="133.45908522605896" r="2" style="fill: steelblue;"></circle><circle cx="22.3121926188469" cy="163.61541748046875" r="2" style="fill: steelblue;"></circle><circle cx="17.547397315502174" cy="130.31014502048492" r="2" style="fill: steelblue;"></circle><circle cx="69.08937953412533" cy="73.4727293252945" r="2" style="fill: steelblue;"></circle><circle cx="131.5229520201683" cy="150.07880926132202" r="2" style="fill: steelblue;"></circle><circle cx="76.6860343515873" cy="78.97876650094986" r="2" style="fill: steelblue;"></circle><circle cx="57.86208659410477" cy="131.97557032108307" r="2" style="fill: steelblue;"></circle><circle cx="43.84116306900979" cy="125.73042809963226" r="2" style="fill: steelblue;"></circle><circle cx="114.33230843394995" cy="82.86647945642471" r="2" style="fill: steelblue;"></circle><circle cx="78.38269732892513" cy="118.32903772592545" r="2" style="fill: steelblue;"></circle><circle cx="149.86992850899696" cy="97.79602810740471" r="2" style="fill: steelblue;"></circle><circle cx="54.140279442071915" cy="133.3869606256485" r="2" style="fill: steelblue;"></circle><circle cx="61.79802715778351" cy="115.87653458118439" r="2" style="fill: steelblue;"></circle><circle cx="101.73792033456266" cy="172.51995205879211" r="2" style="fill: steelblue;"></circle><circle cx="104.67185163870454" cy="111.43796443939209" r="2" style="fill: steelblue;"></circle><circle cx="90.27575645595789" cy="139.58609104156494" r="2" style="fill: steelblue;"></circle><circle cx="118.23126338422298" cy="71.71654999256134" r="2" style="fill: steelblue;"></circle><circle cx="151.78239941596985" cy="55.37520945072174" r="2" style="fill: steelblue;"></circle><circle cx="79.07136939466" cy="67.66323745250702" r="2" style="fill: steelblue;"></circle><circle cx="81.47629015147686" cy="135.93954145908356" r="2" style="fill: steelblue;"></circle><circle cx="95.84957584738731" cy="124.0889623761177" r="2" style="fill: steelblue;"></circle><circle cx="138.57755661010742" cy="122.25751876831055" r="2" style="fill: steelblue;"></circle><circle cx="81.15593567490578" cy="166.37373566627502" r="2" style="fill: steelblue;"></circle><circle cx="78.99841703474522" cy="88.41552808880806" r="2" style="fill: steelblue;"></circle><circle cx="109.1688483953476" cy="133.6205691099167" r="2" style="fill: steelblue;"></circle><circle cx="43.009007722139366" cy="102.72349547594786" r="2" style="fill: steelblue;"></circle><circle cx="38.719812780618675" cy="163.9165997505188" r="2" style="fill: steelblue;"></circle><circle cx="12.064246833324438" cy="68.65485906600952" r="2" style="fill: steelblue;"></circle><circle cx="186.51670813560486" cy="78.31868976354599" r="2" style="fill: steelblue;"></circle><circle cx="136.3301858305931" cy="55.0493985414505" r="2" style="fill: steelblue;"></circle><circle cx="70.87153419852257" cy="53.867024183273315" r="2" style="fill: steelblue;"></circle><circle cx="58.271436393260956" cy="103.16104292869568" r="2" style="fill: steelblue;"></circle><circle cx="158.4244802594185" cy="87.97419220209122" r="2" style="fill: steelblue;"></circle><circle cx="171.72127068042755" cy="83.81071984767914" r="2" style="fill: steelblue;"></circle><circle cx="72.56447561085224" cy="118.2045727968216" r="2" style="fill: steelblue;"></circle><circle cx="26.427409052848823" cy="114.5183876156807" r="2" style="fill: steelblue;"></circle><circle cx="77.941719815135" cy="147.46730029582977" r="2" style="fill: steelblue;"></circle><circle cx="54.33805137872696" cy="105.02730384469032" r="2" style="fill: steelblue;"></circle><circle cx="94.60672540590167" cy="55.09331226348877" r="2" style="fill: steelblue;"></circle><circle cx="66.74205735325813" cy="49.207282066345215" r="2" style="fill: steelblue;"></circle><circle cx="31.91394209861756" cy="87.82371059060097" r="2" style="fill: steelblue;"></circle><circle cx="189.04502540826797" cy="63.265252113342285" r="2" style="fill: steelblue;"></circle><circle cx="97.29596730321646" cy="88.51976916193962" r="2" style="fill: steelblue;"></circle><circle cx="111.44989114254713" cy="48.99115562438965" r="2" style="fill: steelblue;"></circle><circle cx="123.83723855018616" cy="136.675962805748" r="2" style="fill: steelblue;"></circle><circle cx="93.66633873432875" cy="161.70974373817444" r="2" style="fill: steelblue;"></circle><circle cx="66.16934984922409" cy="150.58635473251343" r="2" style="fill: steelblue;"></circle><circle cx="144.60640251636505" cy="158.89230966567993" r="2" style="fill: steelblue;"></circle><circle cx="89.56089466810226" cy="91.19183793663979" r="2" style="fill: steelblue;"></circle><circle cx="152.64437198638916" cy="160.03252863883972" r="2" style="fill: steelblue;"></circle><circle cx="130.14382533729076" cy="124.24072474241257" r="2" style="fill: steelblue;"></circle><circle cx="48.248222470283515" cy="109.79007929563522" r="2" style="fill: steelblue;"></circle><circle cx="59.702447056770325" cy="84.12666618824005" r="2" style="fill: steelblue;"></circle><circle cx="24.254164099693305" cy="135.30950248241425" r="2" style="fill: steelblue;"></circle><circle cx="96.51260673999786" cy="91.56844019889832" r="2" style="fill: steelblue;"></circle><circle cx="84.29003171622753" cy="126.13665461540222" r="2" style="fill: steelblue;"></circle><circle cx="93.63102577626705" cy="67.53689050674438" r="2" style="fill: steelblue;"></circle><circle cx="88.57291042804718" cy="123.65058213472366" r="2" style="fill: steelblue;"></circle><circle cx="49.63782653212548" cy="160.70910692214966" r="2" style="fill: steelblue;"></circle><circle cx="46.65516167879105" cy="148.41195046901703" r="2" style="fill: steelblue;"></circle><circle cx="13.194708526134496" cy="190.78068137168884" r="2" style="fill: steelblue;"></circle><circle cx="28.44317853450776" cy="184.9221646785736" r="2" style="fill: steelblue;"></circle><circle cx="27.915088832378395" cy="123.66619110107422" r="2" style="fill: steelblue;"></circle><circle cx="38.47299739718438" cy="150.05659461021423" r="2" style="fill: steelblue;"></circle><circle cx="24.430638551712043" cy="152.16482877731323" r="2" style="fill: steelblue;"></circle><circle cx="6.249150633811956" cy="79.099640250206" r="2" style="fill: steelblue;"></circle><circle cx="34.272676706314094" cy="165.21733403205872" r="2" style="fill: steelblue;"></circle><circle cx="88.77096083015203" cy="104.8441257327795" r="2" style="fill: steelblue;"></circle><circle cx="29.020769894123084" cy="170.7131803035736" r="2" style="fill: steelblue;"></circle><circle cx="173.775015771389" cy="71.2172657251358" r="2" style="fill: steelblue;"></circle><circle cx="137.80413046479225" cy="77.76304930448532" r="2" style="fill: steelblue;"></circle><circle cx="90.99266529083252" cy="45.94380259513855" r="2" style="fill: steelblue;"></circle><circle cx="177.45400071144104" cy="93.88288222253323" r="2" style="fill: steelblue;"></circle><circle cx="110.58762520551682" cy="108.20633694529533" r="2" style="fill: steelblue;"></circle><circle cx="145.9766834974289" cy="54.24767732620239" r="2" style="fill: steelblue;"></circle><circle cx="86.2151900306344" cy="92.44644939899445" r="2" style="fill: steelblue;"></circle><circle cx="169.28963214159012" cy="104.06255386769772" r="2" style="fill: steelblue;"></circle><circle cx="154.8212267458439" cy="70.72998285293579" r="2" style="fill: steelblue;"></circle><circle cx="150.4137948155403" cy="50.651371479034424" r="2" style="fill: steelblue;"></circle><circle cx="50.30035823583603" cy="15.509074926376343" r="2" style="fill: steelblue;"></circle><circle cx="94.32767927646637" cy="86.77061945199966" r="2" style="fill: steelblue;"></circle><circle cx="74.74605962634087" cy="118.92853081226349" r="2" style="fill: steelblue;"></circle><circle cx="139.3281988799572" cy="131.7878246307373" r="2" style="fill: steelblue;"></circle><circle cx="42.95727834105492" cy="117.03111529350281" r="2" style="fill: steelblue;"></circle><circle cx="104.57501085475087" cy="105.48635385930538" r="2" style="fill: steelblue;"></circle><circle cx="66.3703702390194" cy="67.18008816242218" r="2" style="fill: steelblue;"></circle><circle cx="25.727538764476783" cy="86.53929680585861" r="2" style="fill: steelblue;"></circle><circle cx="92.30180121958256" cy="81.25244379043579" r="2" style="fill: steelblue;"></circle><circle cx="153.46704646945" cy="89.35739696025848" r="2" style="fill: steelblue;"></circle><circle cx="101.7937661614269" cy="72.41105139255524" r="2" style="fill: steelblue;"></circle><circle cx="122.03810773789883" cy="100.61648897826672" r="2" style="fill: steelblue;"></circle><circle cx="93.8421887345612" cy="95.33942863345146" r="2" style="fill: steelblue;"></circle><circle cx="114.06341418623924" cy="88.81506025791168" r="2" style="fill: steelblue;"></circle><circle cx="173.73879104852676" cy="82.0551261305809" r="2" style="fill: steelblue;"></circle><circle cx="164.26679342985153" cy="77.85075604915619" r="2" style="fill: steelblue;"></circle><circle cx="134.7086861729622" cy="130.57724237442017" r="2" style="fill: steelblue;"></circle><circle cx="63.317982852458954" cy="62.945279479026794" r="2" style="fill: steelblue;"></circle><circle cx="122.39617705345154" cy="68.63447725772858" r="2" style="fill: steelblue;"></circle><circle cx="142.6715761423111" cy="100.0936537689995" r="2" style="fill: steelblue;"></circle><circle cx="138.213312625885" cy="86.15384697914124" r="2" style="fill: steelblue;"></circle><circle cx="131.1968456953764" cy="67.18812584877014" r="2" style="fill: steelblue;"></circle><circle cx="153.02683636546135" cy="28.777778148651123" r="2" style="fill: steelblue;"></circle><circle cx="147.41517454385757" cy="40.593421459198" r="2" style="fill: steelblue;"></circle><circle cx="119.60492879152298" cy="52.72029638290405" r="2" style="fill: steelblue;"></circle><circle cx="64.74385634064674" cy="54.90163862705231" r="2" style="fill: steelblue;"></circle><circle cx="65.0074690580368" cy="70.38318514823914" r="2" style="fill: steelblue;"></circle><circle cx="126.62581019103527" cy="82.23926275968552" r="2" style="fill: steelblue;"></circle><circle cx="89.08072337508202" cy="116.63712710142136" r="2" style="fill: steelblue;"></circle><circle cx="127.2127091884613" cy="58.62011909484863" r="2" style="fill: steelblue;"></circle><circle cx="158.87795984745026" cy="93.79907250404358" r="2" style="fill: steelblue;"></circle><circle cx="124.6169175952673" cy="159.14881825447083" r="2" style="fill: steelblue;"></circle><circle cx="74.98511895537376" cy="84.74634736776352" r="2" style="fill: steelblue;"></circle><circle cx="23.6840307712555" cy="132.82387852668762" r="2" style="fill: steelblue;"></circle><circle cx="81.25578463077545" cy="119.56609040498734" r="2" style="fill: steelblue;"></circle><circle cx="95.79395307227969" cy="145.77488899230957" r="2" style="fill: steelblue;"></circle><circle cx="157.27918446063995" cy="93.19362044334412" r="2" style="fill: steelblue;"></circle></g></svg>