<svg xmlns="http://www.w3.org/2000/svg"><g><circle cx="41.007900983095176" cy="155.16088008880615" r="2" style="fill: steelblue;"></circle><circle cx="142.1154834330082" cy="166.17728620767593" r="2" style="fill: steelblue;"></circle><circle cx="84.49775204062462" cy="92.01553221791983" r="2" style="fill: steelblue;"></circle><circle cx="22.3121926188469" cy="141.37863591313362" r="2" style="fill: steelblue;"></circle><circle cx="17.547397315502174" cy="168.9161792397499" r="2" style="fill: steelblue;"></circle><circle cx="69.08937953412533" cy="109.16293542832136" r="2" style="fill: steelblue;"></circle><circle cx="131.5229520201683" cy="138.9871597290039" r="2" style="fill: steelblue;"></circle><circle cx="76.6860343515873" cy="189.89330381155014" r="2" style="fill: steelblue;"></circle><circle cx="57.86208659410477" cy="141.8611280620098" r="2" style="fill: steelblue;"></circle><circle cx="43.84116306900979" cy="148.88495430350304" r="2" style="fill: steelblue;"></circle><circle cx="114.33230843394995" cy="130.7536330074072" r="2" style="fill: steelblue;"></circle><circle cx="78.38269732892513" cy="76.83318704366684" r="2" style="fill: steelblue;"></circle><circle cx="149.86992850899696" cy="130.2406121045351" r="2" style="fill: steelblue;"></circle><circle cx="54.140279442071915" cy="90.33271335065365" r="2" style="fill: steelblue;"></circle><circle cx="61.79802715778351" cy="162.3643510043621" r="2" style="fill: steelblue;"></circle><circle cx="101.73792033456266" cy="139.78559002280235" r="2" style="fill: steelblue;"></circle><circle cx="104.67185163870454" cy="72.74463437497616" r="2" style="fill: steelblue;"></circle><circle cx="90.27575645595789" cy="123.07642623782158" r="2" style="fill: steelblue;"></circle><circle cx="118.23126338422298" cy="117.28104054927826" r="2" style="fill: steelblue;"></circle><circle cx="151.78239941596985" cy="40.71919471025467" r="2" style="fill: steelblue;"></circle><circle cx="79.07136939466" cy="65.58215841650963" r="2" style="fill: steelblue;"></circle><circle cx="81.47629015147686" cy="117.83194579184055" r="2" style="fill: steelblue;"></circle><circle cx="95.84957584738731" cy="144.8274500668049" r="2" style="fill: steelblue;"></circle><circle cx="138.57755661010742" cy="143.2848446071148" r="2" style="fill: steelblue;"></circle><circle cx="81.15593567490578" cy="157.74693563580513" r="2" style="fill: steelblue;"></circle><circle cx="78.99841703474522" cy="183.77107232809067" r="2" style="fill: steelblue;"></circle><circle cx="109.1688483953476" cy="144.97119411826134" r="2" style="fill: steelblue;"></circle><circle cx="43.009007722139366" cy="94.42638177424669" r="2" style="fill: steelblue;"></circle><circle cx="38.719812780618675" cy="179.4968605041504" r="2" style="fill: steelblue;"></circle><circle cx="12.064246833324438" cy="104.87057957798243" r="2" style="fill: steelblue;"></circle><circle cx="186.51670813560486" cy="46.60442695021629" r="2" style="fill: steelblue;"></circle><circle cx="136.3301858305931" cy="22.013603150844574" r="2" style="fill: steelblue;"></circle><circle cx="70.87153419852257" cy="62.952617555856705" r="2" style="fill: steelblue;"></circle><circle cx="58.271436393260956" cy="60.88312566280365" r="2" style="fill: steelblue;"></circle><circle cx="158.4244802594185" cy="69.26894783973694" r="2" style="fill: steelblue;"></circle><circle cx="171.72127068042755" cy="49.86850395798683" r="2" style="fill: steelblue;"></circle><circle cx="72.56447561085224" cy="65.9898392856121" r="2" style="fill: steelblue;"></circle><circle cx="26.427409052848823" cy="113.36106844246387" r="2" style="fill: steelblue;"></circle><circle cx="77.941719815135" cy="161.21644750237465" r="2" style="fill: steelblue;"></circle><circle cx="54.33805137872696" cy="161.76239997148514" r="2" style="fill: steelblue;"></circle><circle cx="94.60672540590167" cy="99.48464997578412" r="2" style="fill: steelblue;"></circle><circle cx="66.74205735325813" cy="134.19728204607964" r="2" style="fill: steelblue;"></circle><circle cx="31.91394209861756" cy="15.108054876327515" r="2" style="fill: steelblue;"></circle><circle cx="189.04502540826797" cy="76.26281715929508" r="2" style="fill: steelblue;"></circle><circle cx="97.29596730321646" cy="57.017045468091965" r="2" style="fill: steelblue;"></circle><circle cx="111.44989114254713" cy="113.94324004650116" r="2" style="fill: steelblue;"></circle><circle cx="123.83723855018616" cy="94.29711326956749" r="2" style="fill: steelblue;"></circle><circle cx="93.66633873432875" cy="34.635281562805176" r="2" style="fill: steelblue;"></circle><circle cx="66.16934984922409" cy="145.14891281723976" r="2" style="fill: steelblue;"></circle><circle cx="144.60640251636505" cy="138.09282928705215" r="2" style="fill: steelblue;"></circle><circle cx="89.56089466810226" cy="89.50494825839996" r="2" style="fill: steelblue;"></circle><circle cx="152.64437198638916" cy="85.92202924191952" r="2" style="fill: steelblue;"></circle><circle cx="130.14382533729076" cy="65.68775922060013" r="2" style="fill: steelblue;"></circle><circle cx="48.248222470283515" cy="46.12585753202438" r="2" style="fill: steelblue;"></circle><circle cx="59.702447056770325" cy="125.85951052606106" r="2" style="fill: steelblue;"></circle><circle cx="24.254164099693305" cy="184.79484915733337" r="2" style="fill: steelblue;"></circle><circle cx="96.51260673999786" cy="179.70796525478363" r="2" style="fill: steelblue;"></circle><circle cx="84.29003171622753" cy="87.25109361112118" r="2" style="fill: steelblue;"></circle><circle cx="93.63102577626705" cy="136.81528195738792" r="2" style="fill: steelblue;"></circle><circle cx="88.57291042804718" cy="118.96839775145054" r="2" style="fill: steelblue;"></circle><circle cx="49.63782653212548" cy="108.63450579345226" r="2" style="fill: steelblue;"></circle><circle cx="46.65516167879105" cy="33.61365795135498" r="2" style="fill: steelblue;"></circle><circle cx="13.194708526134496" cy="180.41411638259888" r="2" style="fill: steelblue;"></circle><circle cx="28.44317853450776" cy="155.097546428442" r="2" style="fill: steelblue;"></circle><circle cx="27.915088832378395" cy="92.42248432710767" r="2" style="fill: steelblue;"></circle><circle cx="38.47299739718438" cy="71.84170596301556" r="2" style="fill: steelblue;"></circle><circle cx="24.430638551712043" cy="106.93051191046834" r="2" style="fill: steelblue;"></circle><circle cx="6.249150633811956" cy="171.59635424613953" r="2" style="fill: steelblue;"></circle><circle cx="34.272676706314094" cy="182.36510306596756" r="2" style="fill: steelblue;"></circle><circle cx="88.77096083015203" cy="105.60140004381537" r="2" style="fill: steelblue;"></circle><circle cx="29.020769894123084" cy="155.79886958003044" r="2" style="fill: steelblue;"></circle><circle cx="173.775015771389" cy="42.85060465335846" r="2" style="fill: steelblue;"></circle><circle cx="137.80413046479225" cy="78.50332781672478" r="2" style="fill: steelblue;"></circle><circle cx="90.99266529083252" cy="48.82042706012726" r="2" style="fill: steelblue;"></circle><circle cx="177.45400071144104" cy="65.44473245739937" r="2" style="fill: steelblue;"></circle><circle cx="110.58762520551682" cy="100.82907540490851" r="2" style="fill: steelblue;"></circle><circle cx="145.9766834974289" cy="48.846038430929184" r="2" style="fill: steelblue;"></circle><circle cx="86.2151900306344" cy="58.862897008657455" r="2" style="fill: steelblue;"></circle><circle cx="169.28963214159012" cy="89.41477574408054" r="2" style="fill: steelblue;"></circle><circle cx="154.8212267458439" cy="101.33758143056184" r="2" style="fill: steelblue;"></circle><circle cx="150.4137948155403" cy="105.930470302701" r="2" style="fill: steelblue;"></circle><circle cx="50.30035823583603" cy="36.50773912668228" r="2" style="fill: steelblue;"></circle><circle cx="94.32767927646637" cy="61.065154522657394" r="2" style="fill: steelblue;"></circle><circle cx="74.74605962634087" cy="152.31165140867233" r="2" style="fill: steelblue;"></circle><circle cx="139.3281988799572" cy="172.8205069899559" r="2" style="fill: steelblue;"></circle><circle cx="42.95727834105492" cy="131.35117515921593" r="2" style="fill: steelblue;"></circle><circle cx="104.57501085475087" cy="130.43681383132935" r="2" style="fill: steelblue;"></circle><circle cx="66.3703702390194" cy="64.57988396286964" r="2" style="fill: steelblue;"></circle><circle cx="25.727538764476783" cy="133.11702236533165" r="2" style="fill: steelblue;"></circle><circle cx="92.30180121958256" cy="72.02233970165253" r="2" style="fill: steelblue;"></circle><circle cx="153.46704646945" cy="60.13178303837776" r="2" style="fill: steelblue;"></circle><circle cx="101.7937661614269" cy="64.85781669616699" r="2" style="fill: steelblue;"></circle><circle cx="122.03810773789883" cy="67.84631535410881" r="2" style="fill: steelblue;"></circle><circle cx="93.8421887345612" cy="39.30096551775932" r="2" style="fill: steelblue;"></circle><circle cx="114.06341418623924" cy="54.03672382235527" r="2" style="fill: steelblue;"></circle><circle cx="173.73879104852676" cy="21.139322221279144" r="2" style="fill: steelblue;"></circle><circle cx="164.26679342985153" cy="29.59929257631302" r="2" style="fill: steelblue;"></circle><circle cx="134.7086861729622" cy="53.911714255809784" r="2" style="fill: steelblue;"></circle><circle cx="63.317982852458954" cy="85.79735495150089" r="2" style="fill: steelblue;"></circle><circle cx="122.39617705345154" cy="65.14277905225754" r="2" style="fill: steelblue;"></circle><circle cx="142.6715761423111" cy="18.20552945137024" r="2" style="fill: steelblue;"></circle><circle cx="138.213312625885" cy="82.14737139642239" r="2" style="fill: steelblue;"></circle><circle cx="131.1968456953764" cy="51.16446539759636" r="2" style="fill: steelblue;"></circle><circle cx="153.02683636546135" cy="112.94311136007309" r="2" style="fill: steelblue;"></circle><circle cx="147.41517454385757" cy="110.86629368364811" r="2" style="fill: steelblue;"></circle><circle cx="119.60492879152298" cy="83.52148197591305" r="2" style="fill: steelblue;"></circle><circle cx="64.74385634064674" cy="88.44848945736885" r="2" style="fill: steelblue;"></circle><circle cx="65.0074690580368" cy="114.88176360726357" r="2" style="fill: steelblue;"></circle><circle cx="126.62581019103527" cy="78.44504006206989" r="2" style="fill: steelblue;"></circle><circle cx="89.08072337508202" cy="80.91165348887444" r="2" style="fill: steelblue;"></circle><circle cx="127.2127091884613" cy="37.663521617650986" r="2" style="fill: steelblue;"></circle><circle cx="158.87795984745026" cy="63.674310594797134" r="2" style="fill: steelblue;"></circle><circle cx="124.6169175952673" cy="107.01999524608254" r="2" style="fill: steelblue;"></circle><circle cx="74.98511895537376" cy="162.00572848320007" r="2" style="fill: steelblue;"></circle><circle cx="23.6840307712555" cy="180.2736058831215" r="2" style="fill: steelblue;"></circle><circle cx="81.25578463077545" cy="79.36909832060337" r="2" style="fill: steelblue;"></circle><circle cx="95.79395307227969" cy="164.4480362534523" r="2" style="fill: steelblue;"></circle><circle cx="157.27918446063995" cy="90.45514594763517" r="2" style="fill: steelblue;"></circle></g></svg>