<svg xmlns="http://www.w3.org/2000/svg"><g transform="translate(40,20)"><circle cx="240.7090982235968" cy="156.47526495158672" r="3" style="fill: steelblue;"></circle><circle cx="436.7958866804838" cy="99.75470826029778" r="3" style="fill: steelblue;"></circle><circle cx="509.6636165678501" cy="81.86119645833969" r="3" style="fill: steelblue;"></circle><circle cx="384.14502561092377" cy="161.92405298352242" r="3" style="fill: steelblue;"></circle><circle cx="155.499856621027" cy="138.30404840409756" r="3" style="fill: steelblue;"></circle><circle cx="527.7268056571484" cy="132.44999460875988" r="3" style="fill: steelblue;"></circle><circle cx="343.77609852701426" cy="112.57060468196869" r="3" style="fill: steelblue;"></circle><circle cx="354.11655742675066" cy="73.49352538585663" r="3" style="fill: steelblue;"></circle><circle cx="399.554970189929" cy="71.5974435210228" r="3" style="fill: steelblue;"></circle><circle cx="274.04840076807886" cy="95.12451216578484" r="3" style="fill: steelblue;"></circle><circle cx="107.96617761254312" cy="129.83569651842117" r="3" style="fill: steelblue;"></circle><circle cx="182.17198111116886" cy="68.6019018292427" r="3" style="fill: steelblue;"></circle><circle cx="457.2930496931076" cy="234.1407373547554" r="3" style="fill: steelblue;"></circle><circle cx="260.6301095383242" cy="122.2244992852211" r="3" style="fill: steelblue;"></circle><circle cx="397.16862224042416" cy="166.80122269317508" r="3" style="fill: steelblue;"></circle><circle cx="471.95096656680107" cy="192.9009098559618" r="3" style="fill: steelblue;"></circle><circle cx="85.51228612661363" cy="181.76303328946233" r="3" style="fill: steelblue;"></circle><circle cx="509.0992261469364" cy="227.10238471627235" r="3" style="fill: steelblue;"></circle><circle cx="374.72276732325554" cy="105.76800927519798" r="3" style="fill: steelblue;"></circle><circle cx="273.0202910886146" cy="150.5058828741312" r="3" style="fill: steelblue;"></circle><circle cx="457.75860741734505" cy="202.80740223824978" r="3" style="fill: steelblue;"></circle><circle cx="161.23805724084377" cy="205.62192499637604" r="3" style="fill: steelblue;"></circle><circle cx="212.01548248529434" cy="173.87703930726275" r="3" style="fill: steelblue;"></circle><circle cx="365.3200723975897" cy="140.8002644777298" r="3" style="fill: steelblue;"></circle><circle cx="248.76084996387362" cy="93.87668967247009" r="3" style="fill: steelblue;"></circle><circle cx="95.52540823817255" cy="123.69115501642227" r="3" style="fill: steelblue;"></circle><circle cx="301.6527955234051" cy="241.6727177798748" r="3" style="fill: steelblue;"></circle><circle cx="352.3173265904188" cy="74.36216175556183" r="3" style="fill: steelblue;"></circle><circle cx="419.1918783634901" cy="187.47574891895056" r="3" style="fill: steelblue;"></circle><circle cx="223.4294569864869" cy="224.55556094646454" r="3" style="fill: steelblue;"></circle><circle cx="281.7883186787367" cy="216.82740300893784" r="3" style="fill: steelblue;"></circle><circle cx="205.21844632923603" cy="122.60991781949997" r="3" style="fill: steelblue;"></circle><circle cx="160.35346135497093" cy="203.92303243279457" r="3" style="fill: steelblue;"></circle><circle cx="174.5082025229931" cy="217.40197129547596" r="3" style="fill: steelblue;"></circle><circle cx="252.93043607845902" cy="142.81093403697014" r="3" style="fill: steelblue;"></circle><circle cx="326.1558762565255" cy="246.84790819883347" r="3" style="fill: steelblue;"></circle><circle cx="206.79957333952188" cy="231.23050928115845" r="3" style="fill: steelblue;"></circle><circle cx="239.41681997850537" cy="214.558195322752" r="3" style="fill: steelblue;"></circle><circle cx="213.33391226828098" cy="297.8746101260185" r="3" style="fill: steelblue;"></circle><circle cx="262.7203699015081" cy="125.89400708675385" r="3" style="fill: steelblue;"></circle><circle cx="61.21811091899873" cy="141.5440570563078" r="3" style="fill: steelblue;"></circle><circle cx="54.97038781642915" cy="222.46612310409546" r="3" style="fill: steelblue;"></circle><circle cx="275.39679480716586" cy="248.24314936995506" r="3" style="fill: steelblue;"></circle><circle cx="186.33712649345398" cy="222.19403013586998" r="3" style="fill: steelblue;"></circle><circle cx="316.99068758636713" cy="205.2126720547676" r="3" style="fill: steelblue;"></circle><circle cx="239.41888444125652" cy="288.1643369793892" r="3" style="fill: steelblue;"></circle><circle cx="327.06519540399313" cy="157.86169730126858" r="3" style="fill: steelblue;"></circle><circle cx="253.78319246694446" cy="253.66368293762207" r="3" style="fill: steelblue;"></circle><circle cx="311.7593968100846" cy="189.65745512396097" r="3" style="fill: steelblue;"></circle><circle cx="188.58142632991076" cy="212.93423771858215" r="3" style="fill: steelblue;"></circle><circle cx="195.53595509380102" cy="211.41509674489498" r="3" style="fill: steelblue;"></circle><circle cx="398.60392928123474" cy="185.55966075509787" r="3" style="fill: steelblue;"></circle><circle cx="221.90248880535364" cy="146.89830280840397" r="3" style="fill: steelblue;"></circle><circle cx="150.95978870987892" cy="270.29723078012466" r="3" style="fill: steelblue;"></circle><circle cx="293.54210475459695" cy="203.21330167353153" r="3" style="fill: steelblue;"></circle><circle cx="117.50019349157812" cy="195.77873460948467" r="3" style="fill: steelblue;"></circle><circle cx="331.7529993876815" cy="221.39597907662392" r="3" style="fill: steelblue;"></circle><circle cx="243.96175861358643" cy="324.6814340353012" r="3" style="fill: steelblue;"></circle><circle cx="191.83658871799707" cy="169.44054821506143" r="3" style="fill: steelblue;"></circle><circle cx="238.80496451631188" cy="187.18181904405355" r="3" style="fill: steelblue;"></circle><circle cx="407.3160023242235" cy="71.7078223824501" r="3" style="fill: steelblue;"></circle><circle cx="296.5295357443392" cy="128.67842391133308" r="3" style="fill: steelblue;"></circle><circle cx="444.990501254797" cy="158.66084229201078" r="3" style="fill: steelblue;"></circle><circle cx="448.6754138767719" cy="95.58674842119217" r="3" style="fill: steelblue;"></circle><circle cx="430.3331074118614" cy="74.20593947172165" r="3" style="fill: steelblue;"></circle><circle cx="446.5311688184738" cy="86.084945499897" r="3" style="fill: steelblue;"></circle><circle cx="158.26178088784218" cy="141.12004190683365" r="3" style="fill: steelblue;"></circle><circle cx="444.9619357287884" cy="127.01105326414108" r="3" style="fill: steelblue;"></circle><circle cx="243.86507838964462" cy="62.33144998550415" r="3" style="fill: steelblue;"></circle><circle cx="253.22138325311244" cy="123.62873703241348" r="3" style="fill: steelblue;"></circle><circle cx="344.94907043874264" cy="130.13008534908295" r="3" style="fill: steelblue;"></circle><circle cx="74.6583116054535" cy="253.65152582526207" r="3" style="fill: steelblue;"></circle><circle cx="274.9884850624949" cy="149.50540624558926" r="3" style="fill: steelblue;"></circle><circle cx="192.5291769951582" cy="213.5876003652811" r="3" style="fill: steelblue;"></circle><circle cx="136.27655513584614" cy="174.67206606233958" r="3" style="fill: steelblue;"></circle><circle cx="210.7350528985262" cy="246.76069617271423" r="3" style="fill: steelblue;"></circle><circle cx="126.02281875908376" cy="172.44758906308562" r="3" style="fill: steelblue;"></circle><circle cx="178.72918143868446" cy="184.0205630287528" r="3" style="fill: steelblue;"></circle><circle cx="95.36697015166284" cy="175.01476220786572" r="3" style="fill: steelblue;"></circle><circle cx="133.4661700576544" cy="161.84867341071367" r="3" style="fill: steelblue;"></circle><circle cx="301.2570573762059" cy="178.08012254536152" r="3" style="fill: steelblue;"></circle><circle cx="231.56367911025882" cy="209.10356864333153" r="3" style="fill: steelblue;"></circle><circle cx="137.6877424120903" cy="225.99498182535172" r="3" style="fill: steelblue;"></circle><circle cx="257.0519674848765" cy="214.22485783696175" r="3" style="fill: steelblue;"></circle><circle cx="260.7877794234082" cy="212.23343051970005" r="3" style="fill: steelblue;"></circle><circle cx="388.87315325438976" cy="78.66848111152649" r="3" style="fill: steelblue;"></circle><circle cx="359.902338758111" cy="125.69540441036224" r="3" style="fill: steelblue;"></circle><circle cx="281.24735651537776" cy="131.9915473461151" r="3" style="fill: steelblue;"></circle><circle cx="367.1986882388592" cy="116.96134582161903" r="3" style="fill: steelblue;"></circle><circle cx="317.26357888430357" cy="106.14504665136337" r="3" style="fill: steelblue;"></circle><circle cx="320.1831013709307" cy="163.5745583102107" r="3" style="fill: steelblue;"></circle><circle cx="345.8876994252205" cy="145.85131257772446" r="3" style="fill: steelblue;"></circle><circle cx="108.27054128050806" cy="154.28392849862576" r="3" style="fill: steelblue;"></circle><circle cx="467.55050763487816" cy="106.38980567455292" r="3" style="fill: steelblue;"></circle><circle cx="98.42227444052698" cy="232.81307220458984" r="3" style="fill: steelblue;"></circle><circle cx="253.97539244033396" cy="193.01024563610554" r="3" style="fill: steelblue;"></circle><circle cx="376.65043741464615" cy="225.38369968533516" r="3" style="fill: steelblue;"></circle><circle cx="389.82391253113747" cy="228.14892902970314" r="3" style="fill: steelblue;"></circle><circle cx="248.7285503000021" cy="202.33653709292412" r="3" style="fill: steelblue;"></circle><circle cx="177.55894035100937" cy="244.73178833723068" r="3" style="fill: steelblue;"></circle><circle cx="297.3997809737921" cy="204.96333129703999" r="3" style="fill: steelblue;"></circle><circle cx="197.48841885477304" cy="225.6507858633995" r="3" style="fill: steelblue;"></circle><circle cx="52.01208561658861" cy="154.62770462036133" r="3" style="fill: steelblue;"></circle><circle cx="122.9712460935116" cy="236.2605758011341" r="3" style="fill: steelblue;"></circle><circle cx="325.6986417621374" cy="122.9314997792244" r="3" style="fill: steelblue;"></circle><circle cx="59.74125310778619" cy="188.29511012881994" r="3" style="fill: steelblue;"></circle><circle cx="353.6043292656541" cy="169.78297159075737" r="3" style="fill: steelblue;"></circle><circle cx="514.8115669190884" cy="133.0752618610859" r="3" style="fill: steelblue;"></circle><circle cx="270.22125202958705" cy="54.62832599878311" r="3" style="fill: steelblue;"></circle><circle cx="319.71085488796234" cy="169.24666743725538" r="3" style="fill: steelblue;"></circle><circle cx="428.30574966967106" cy="66.28896296024323" r="3" style="fill: steelblue;"></circle><circle cx="289.7636764962226" cy="23.92885833978653" r="3" style="fill: steelblue;"></circle><circle cx="213.82080864161253" cy="292.5366625189781" r="3" style="fill: steelblue;"></circle><circle cx="312.1947671100497" cy="252.2064983844757" r="3" style="fill: steelblue;"></circle><circle cx="130.15490256249907" cy="136.4907741546631" r="3" style="fill: steelblue;"></circle><circle cx="30.015041381120696" cy="309.5369890332222" r="3" style="fill: steelblue;"></circle><circle cx="287.53360661678016" cy="266.4896607398987" r="3" style="fill: steelblue;"></circle><circle cx="237.59795285761356" cy="234.6432365477085" r="3" style="fill: steelblue;"></circle></g></svg>