<svg xmlns="http://www.w3.org/2000/svg"><g><circle cx="22.9037880897522" cy="68.40433776378632" r="2" style="fill: steelblue;"></circle><circle cx="37.874859012663364" cy="85.63632037904527" r="2" style="fill: steelblue;"></circle><circle cx="40.456282161176205" cy="59.75811117225223" r="2" style="fill: steelblue;"></circle><circle cx="59.50584467500448" cy="36.254936787817215" r="2" style="fill: steelblue;"></circle><circle cx="23.639437928795818" cy="68.06416246626112" r="2" style="fill: steelblue;"></circle><circle cx="62.74926122277975" cy="64.23604753282335" r="2" style="fill: steelblue;"></circle><circle cx="42.839937563985586" cy="31.982428663306774" r="2" style="fill: steelblue;"></circle><circle cx="72.91272953152657" cy="46.96550650729073" r="2" style="fill: steelblue;"></circle><circle cx="14.179728180170063" cy="47.299008982049095" r="2" style="fill: steelblue;"></circle><circle cx="29.349086061120033" cy="28.345140483644272" r="2" style="fill: steelblue;"></circle><circle cx="57.07803666591644" cy="53.757917715443504" r="2" style="fill: steelblue;"></circle><circle cx="33.54034125804901" cy="34.996179408497284" r="2" style="fill: steelblue;"></circle><circle cx="40.90455938130617" cy="62.291283739937676" r="2" style="fill: steelblue;"></circle><circle cx="42.96513386070728" cy="72.12312122186025" r="2" style="fill: steelblue;"></circle><circle cx="10.920639336109165" cy="41.80290235413445" r="2" style="fill: steelblue;"></circle><circle cx="32.57627710700035" cy="18.74540514416165" r="2" style="fill: steelblue;"></circle><circle cx="62.017893604934216" cy="84.33006472057767" r="2" style="fill: steelblue;"></circle><circle cx="77.24090591073036" cy="76.72495908207364" r="2" style="fill: steelblue;"></circle><circle cx="76.02661959826946" cy="32.62800160381529" r="2" style="fill: steelblue;"></circle><circle cx="62.703717686235905" cy="46.97572622034285" r="2" style="fill: steelblue;"></circle><circle cx="72.97574654221535" cy="28.990764750374687" r="2" style="fill: steelblue;"></circle><circle cx="54.276483319699764" cy="51.080228719446396" r="2" style="fill: steelblue;"></circle><circle cx="47.84210161305964" cy="24.713960952228973" r="2" style="fill: steelblue;"></circle><circle cx="31.803379952907562" cy="51.36492037110858" r="2" style="fill: steelblue;"></circle><circle cx="66.60051941871643" cy="19.510306583510506" r="2" style="fill: steelblue;"></circle><circle cx="21.317779272794727" cy="47.07406436403593" r="2" style="fill: steelblue;"></circle><circle cx="29.8826202750206" cy="70.70827583471934" r="2" style="fill: steelblue;"></circle><circle cx="36.89375165849924" cy="46.39259887238344" r="2" style="fill: steelblue;"></circle><circle cx="35.96722446382046" cy="62.609226504961654" r="2" style="fill: steelblue;"></circle><circle cx="82.88320451974869" cy="62.35476599799262" r="2" style="fill: steelblue;"></circle><circle cx="42.93062649667263" cy="28.892307811313213" r="2" style="fill: steelblue;"></circle><circle cx="87.93791681528091" cy="37.94409806529681" r="2" style="fill: steelblue;"></circle><circle cx="94.52978819608688" cy="45.6528572158681" r="2" style="fill: steelblue;"></circle><circle cx="49.30075212614611" cy="52.9027897450659" r="2" style="fill: steelblue;"></circle><circle cx="51.85021513607353" cy="34.17076766490936" r="2" style="fill: steelblue;"></circle><circle cx="45.54891791194677" cy="67.79439515537686" r="2" style="fill: steelblue;"></circle><circle cx="7.584612071514132" cy="14.983312288920093" r="2" style="fill: steelblue;"></circle><circle cx="46.41972151584923" cy="52.67490131987466" r="2" style="fill: steelblue;"></circle><circle cx="19.940740615129474" cy="37.69014171428151" r="2" style="fill: steelblue;"></circle><circle cx="67.27063208818436" cy="29.91050581137339" r="2" style="fill: steelblue;"></circle><circle cx="36.25483177602291" cy="39.5460006263521" r="2" style="fill: steelblue;"></circle><circle cx="64.61913716048002" cy="12.184854348500574" r="2" style="fill: steelblue;"></circle><circle cx="67.2946397215128" cy="22.288035353024803" r="2" style="fill: steelblue;"></circle><circle cx="83.01077708601952" cy="40.2879203359286" r="2" style="fill: steelblue;"></circle><circle cx="92.10149124264717" cy="31.24043610360887" r="2" style="fill: steelblue;"></circle><circle cx="50.29883213574067" cy="26.83508495489756" r="2" style="fill: steelblue;"></circle><circle cx="63.441747054457664" cy="45.08152889708678" r="2" style="fill: steelblue;"></circle><circle cx="17.97381713986397" cy="66.94790654712253" r="2" style="fill: steelblue;"></circle><circle cx="31.679201126098633" cy="57.74621185329225" r="2" style="fill: steelblue;"></circle><circle cx="38.5958693921566" cy="69.92750300301445" r="2" style="fill: steelblue;"></circle><circle cx="62.99357134848833" cy="56.81790759166082" r="2" style="fill: steelblue;"></circle><circle cx="55.791615694761276" cy="37.121142115857864" r="2" style="fill: steelblue;"></circle><circle cx="29.852695018053055" cy="38.25342423386044" r="2" style="fill: steelblue;"></circle><circle cx="11.627669632434849" cy="52.61044220791923" r="2" style="fill: steelblue;"></circle><circle cx="19.25361827015877" cy="12.804928090837265" r="2" style="fill: steelblue;"></circle><circle cx="23.37216138839722" cy="46.850228640768265" r="2" style="fill: steelblue;"></circle><circle cx="38.54115977883339" cy="51.227359887626434" r="2" style="fill: steelblue;"></circle><circle cx="43.32126649096608" cy="53.78307501475017" r="2" style="fill: steelblue;"></circle><circle cx="28.39144617319107" cy="79.56427269511752" r="2" style="fill: steelblue;"></circle><circle cx="39.90827891975641" cy="72.91140092743767" r="2" style="fill: steelblue;"></circle><circle cx="17.41321682929993" cy="70.99287807941437" r="2" style="fill: steelblue;"></circle><circle cx="29.844041168689728" cy="56.52818928162257" r="2" style="fill: steelblue;"></circle><circle cx="24.85064528882504" cy="50.26704834567176" r="2" style="fill: steelblue;"></circle><circle cx="18.42405200004578" cy="60.41507356696658" r="2" style="fill: steelblue;"></circle><circle cx="36.01067811250687" cy="90.76388610733879" r="2" style="fill: steelblue;"></circle><circle cx="1.529797166585925" cy="72.80553645557828" r="2" style="fill: steelblue;"></circle><circle cx="33.615994453430176" cy="66.55080715815227" r="2" style="fill: steelblue;"></circle><circle cx="25.673841312527657" cy="73.56570098135207" r="2" style="fill: steelblue;"></circle><circle cx="17.82096475362778" cy="84.20376247829861" r="2" style="fill: steelblue;"></circle><circle cx="29.780303314328194" cy="66.88412792152829" r="2" style="fill: steelblue;"></circle><circle cx="60.72998810559511" cy="63.034361600875854" r="2" style="fill: steelblue;"></circle><circle cx="64.40999936312437" cy="17.37601823276944" r="2" style="fill: steelblue;"></circle><circle cx="50.07574256596854" cy="66.23513930373721" r="2" style="fill: steelblue;"></circle><circle cx="45.400909800082445" cy="24.561262130737305" r="2" style="fill: steelblue;"></circle><circle cx="61.812569573521614" cy="40.77084047926797" r="2" style="fill: steelblue;"></circle><circle cx="97.38051816821098" cy="54.824247294002106" r="2" style="fill: steelblue;"></circle><circle cx="44.6327256038785" cy="59.60904492272271" r="2" style="fill: steelblue;"></circle><circle cx="68.99766363203526" cy="66.63765443695915" r="2" style="fill: steelblue;"></circle><circle cx="66.39161631464958" cy="31.591770715183685" r="2" style="fill: steelblue;"></circle><circle cx="27.934276685118675" cy="44.499813000826784" r="2" style="fill: steelblue;"></circle><circle cx="76.5011414885521" cy="20.504442519611786" r="2" style="fill: steelblue;"></circle><circle cx="99.81368035078049" cy="3.5626815425025105" r="2" style="fill: steelblue;"></circle><circle cx="35.840633511543274" cy="44.66424205650886" r="2" style="fill: steelblue;"></circle><circle cx="16.22414514422417" cy="53.92205235030916" r="2" style="fill: steelblue;"></circle><circle cx="46.19066179729998" cy="49.2409879134761" r="2" style="fill: steelblue;"></circle><circle cx="64.442702755332" cy="50.392122483915756" r="2" style="fill: steelblue;"></circle><circle cx="21.685953438282016" cy="54.309877422120834" r="2" style="fill: steelblue;"></circle><circle cx="36.48497089743614" cy="63.948486579789055" r="2" style="fill: steelblue;"></circle><circle cx="35.49921624362469" cy="31.729686756928764" r="2" style="fill: steelblue;"></circle><circle cx="57.55724497139454" cy="35.06112943092982" r="2" style="fill: steelblue;"></circle><circle cx="63.07252608239651" cy="56.624330745802986" r="2" style="fill: steelblue;"></circle><circle cx="81.66954591870308" cy="37.64854595065117" r="2" style="fill: steelblue;"></circle><circle cx="80.89135885238647" cy="28.710548414124382" r="2" style="fill: steelblue;"></circle><circle cx="51.87629321590066" cy="19.16279329193963" r="2" style="fill: steelblue;"></circle><circle cx="82.27232024073601" cy="23.2939084370931" r="2" style="fill: steelblue;"></circle><circle cx="32.05112852156162" cy="52.053687638706634" r="2" style="fill: steelblue;"></circle><circle cx="77.3766778409481" cy="0.8299840821160198" r="2" style="fill: steelblue;"></circle><circle cx="43.40663431212306" cy="52.65890823470222" r="2" style="fill: steelblue;"></circle><circle cx="61.62425335496664" cy="26.832977268430923" r="2" style="fill: steelblue;"></circle><circle cx="30.632338672876358" cy="76.37491424878439" r="2" style="fill: steelblue;"></circle><circle cx="57.4275485239923" cy="53.27381706900067" r="2" style="fill: steelblue;"></circle><circle cx="40.91480299830437" cy="53.328137596448265" r="2" style="fill: steelblue;"></circle><circle cx="64.90684412419796" cy="27.140197820133636" r="2" style="fill: steelblue;"></circle><circle cx="52.67330603674054" cy="22.857065995534263" r="2" style="fill: steelblue;"></circle><circle cx="65.71258343756199" cy="85.36538746621873" r="2" style="fill: steelblue;"></circle><circle cx="50.4017865867354" cy="18.77427366044786" r="2" style="fill: steelblue;"></circle><circle cx="72.67615497112274" cy="43.373119251595604" r="2" style="fill: steelblue;"></circle><circle cx="74.49161000549793" cy="36.92866464455923" r="2" style="fill: steelblue;"></circle><circle cx="74.95472133159637" cy="37.8787593709098" r="2" style="fill: steelblue;"></circle><circle cx="67.10261963307858" cy="11.962992615169954" r="2" style="fill: steelblue;"></circle><circle cx="79.30539473891258" cy="61.383034785588585" r="2" style="fill: steelblue;"></circle><circle cx="61.974296532571316" cy="42.978637086020576" r="2" style="fill: steelblue;"></circle><circle cx="24.317420274019245" cy="63.6735286977556" r="2" style="fill: steelblue;"></circle><circle cx="35.32198462635279" cy="77.33636365996468" r="2" style="fill: steelblue;"></circle><circle cx="31.648022308945656" cy="77.76108317905002" r="2" style="fill: steelblue;"></circle><circle cx="68.92364211380482" cy="71.27936283747356" r="2" style="fill: steelblue;"></circle><circle cx="42.11290664970875" cy="64.0561044216156" r="2" style="fill: steelblue;"></circle><circle cx="30.85513524711132" cy="60.17238001028697" r="2" style="fill: steelblue;"></circle></g></svg>