<svg xmlns="http://www.w3.org/2000/svg"><g transform="translate(40,20)"><circle cx="347.1727055311203" cy="99.17207825928926" r="3" style="fill: steelblue;"></circle><circle cx="61.64798185229303" cy="29.49601523578167" r="3" style="fill: steelblue;"></circle><circle cx="329.902099147439" cy="127.84326327964664" r="3" style="fill: steelblue;"></circle><circle cx="416.02401182055473" cy="41.6700255125761" r="3" style="fill: steelblue;"></circle><circle cx="465.0138285756111" cy="55.32418116927147" r="3" style="fill: steelblue;"></circle><circle cx="464.8269456624985" cy="89.86319061368704" r="3" style="fill: steelblue;"></circle><circle cx="393.9487040787935" cy="174.57856633409392" r="3" style="fill: steelblue;"></circle><circle cx="261.058528306894" cy="39.65204134583473" r="3" style="fill: steelblue;"></circle><circle cx="383.5574910789728" cy="169.1036383388564" r="3" style="fill: steelblue;"></circle><circle cx="154.25846323370934" cy="261.52745839208364" r="3" style="fill: steelblue;"></circle><circle cx="455.4861192405224" cy="1.1917829513549805" r="3" style="fill: steelblue;"></circle><circle cx="298.7077199667692" cy="160.2845303248614" r="3" style="fill: steelblue;"></circle><circle cx="341.14794440567493" cy="173.20316984551027" r="3" style="fill: steelblue;"></circle><circle cx="271.39689146890305" cy="203.5912067629397" r="3" style="fill: steelblue;"></circle><circle cx="231.99628841131926" cy="71.33287116885185" r="3" style="fill: steelblue;"></circle><circle cx="412.32151731848717" cy="36.12115904688835" r="3" style="fill: steelblue;"></circle><circle cx="461.1041736602783" cy="123.31199757754803" r="3" style="fill: steelblue;"></circle><circle cx="433.55835646390915" cy="202.12798700667918" r="3" style="fill: steelblue;"></circle><circle cx="384.36290815472603" cy="130.95681853592396" r="3" style="fill: steelblue;"></circle><circle cx="309.733655937016" cy="119.9297022074461" r="3" style="fill: steelblue;"></circle><circle cx="443.24637472629547" cy="182.53819849342108" r="3" style="fill: steelblue;"></circle><circle cx="424.13267835974693" cy="79.08583357930183" r="3" style="fill: steelblue;"></circle><circle cx="360.3059273958206" cy="191.75377925857902" r="3" style="fill: steelblue;"></circle><circle cx="227.72417820990086" cy="188.04829574655741" r="3" style="fill: steelblue;"></circle><circle cx="229.6264511346817" cy="113.58634028583765" r="3" style="fill: steelblue;"></circle><circle cx="378.5890609771013" cy="131.38592587783933" r="3" style="fill: steelblue;"></circle><circle cx="95.6636291742325" cy="110.0758632645011" r="3" style="fill: steelblue;"></circle><circle cx="476.64911046624184" cy="124.72755340859294" r="3" style="fill: steelblue;"></circle><circle cx="345.3360377624631" cy="120.62307093292475" r="3" style="fill: steelblue;"></circle><circle cx="247.54241209477186" cy="274.57465156912804" r="3" style="fill: steelblue;"></circle><circle cx="386.9627331197262" cy="161.04093049652874" r="3" style="fill: steelblue;"></circle><circle cx="269.19005072442815" cy="211.12519381567836" r="3" style="fill: steelblue;"></circle><circle cx="112.70778335630895" cy="202.04559010453522" r="3" style="fill: steelblue;"></circle><circle cx="401.7235663533211" cy="104.70643937587738" r="3" style="fill: steelblue;"></circle><circle cx="134.8287154734135" cy="43.64752508699894" r="3" style="fill: steelblue;"></circle><circle cx="118.51997271180154" cy="221.5627540834248" r="3" style="fill: steelblue;"></circle><circle cx="137.17635914683342" cy="174.86479712060827" r="3" style="fill: steelblue;"></circle><circle cx="267.3632946086582" cy="177.5422103353776" r="3" style="fill: steelblue;"></circle><circle cx="223.48613038659096" cy="159.4922530464828" r="3" style="fill: steelblue;"></circle><circle cx="373.02268601953983" cy="231.47707544267178" r="3" style="fill: steelblue;"></circle><circle cx="294.95688535273075" cy="301.8294397741556" r="3" style="fill: steelblue;"></circle><circle cx="129.57767777144912" cy="251.86482928693295" r="3" style="fill: steelblue;"></circle><circle cx="359.9477116763592" cy="225.1028448343277" r="3" style="fill: steelblue;"></circle><circle cx="142.41356670856476" cy="220.7463930360973" r="3" style="fill: steelblue;"></circle><circle cx="296.01417945697904" cy="204.88820988684893" r="3" style="fill: steelblue;"></circle><circle cx="265.35026913508773" cy="187.802918208763" r="3" style="fill: steelblue;"></circle><circle cx="263.47751727327704" cy="254.87038977444172" r="3" style="fill: steelblue;"></circle><circle cx="237.02888030558825" cy="208.61952677369118" r="3" style="fill: steelblue;"></circle><circle cx="144.18146096169949" cy="222.57881304249167" r="3" style="fill: steelblue;"></circle><circle cx="267.60402124375105" cy="224.44916535168886" r="3" style="fill: steelblue;"></circle><circle cx="373.1999632716179" cy="209.1265620663762" r="3" style="fill: steelblue;"></circle><circle cx="121.06188207864763" cy="240.10016974061728" r="3" style="fill: steelblue;"></circle><circle cx="124.65158298611642" cy="222.751325648278" r="3" style="fill: steelblue;"></circle><circle cx="278.6908594937995" cy="251.61315985023975" r="3" style="fill: steelblue;"></circle><circle cx="269.77134004438994" cy="331.4552169293165" r="3" style="fill: steelblue;"></circle><circle cx="233.34184790030122" cy="239.41144924610853" r="3" style="fill: steelblue;"></circle><circle cx="117.38326594233514" cy="126.32698165252805" r="3" style="fill: steelblue;"></circle><circle cx="203.20631179958582" cy="164.43319218233228" r="3" style="fill: steelblue;"></circle><circle cx="82.52968311309816" cy="277.1178076043725" r="3" style="fill: steelblue;"></circle><circle cx="436.58383794128895" cy="216.15374200046062" r="3" style="fill: steelblue;"></circle><circle cx="349.21154983341694" cy="95.33408023416996" r="3" style="fill: steelblue;"></circle><circle cx="298.59435053542256" cy="106.13779462873936" r="3" style="fill: steelblue;"></circle><circle cx="313.9291924238205" cy="82.721858471632" r="3" style="fill: steelblue;"></circle><circle cx="219.7784860432148" cy="110.34509558230639" r="3" style="fill: steelblue;"></circle><circle cx="406.83855570852757" cy="254.10442911088467" r="3" style="fill: steelblue;"></circle><circle cx="411.03494212031364" cy="47.576603665947914" r="3" style="fill: steelblue;"></circle><circle cx="182.86001801490784" cy="159.92022277787328" r="3" style="fill: steelblue;"></circle><circle cx="510.032534301281" cy="113.4518675506115" r="3" style="fill: steelblue;"></circle><circle cx="380.8320079743862" cy="76.62958577275276" r="3" style="fill: steelblue;"></circle><circle cx="416.69336043298244" cy="46.31134606897831" r="3" style="fill: steelblue;"></circle><circle cx="154.8556436598301" cy="274.28774554282427" r="3" style="fill: steelblue;"></circle><circle cx="160.97521416842937" cy="183.13524355180562" r="3" style="fill: steelblue;"></circle><circle cx="297.0603943616152" cy="272.67838194966316" r="3" style="fill: steelblue;"></circle><circle cx="165.80577537417412" cy="211.7225306108594" r="3" style="fill: steelblue;"></circle><circle cx="19.203895032405867" cy="143.98069232702255" r="3" style="fill: steelblue;"></circle><circle cx="219.69670716673136" cy="136.44654881209135" r="3" style="fill: steelblue;"></circle><circle cx="26.273158639669433" cy="278.1660195440054" r="3" style="fill: steelblue;"></circle><circle cx="277.0085800951347" cy="260.9332084655762" r="3" style="fill: steelblue;"></circle><circle cx="143.37931282818317" cy="280.47670535743237" r="3" style="fill: steelblue;"></circle><circle cx="197.17290557920933" cy="273.35963789373636" r="3" style="fill: steelblue;"></circle><circle cx="95.69794803857805" cy="236.65002193301916" r="3" style="fill: steelblue;"></circle><circle cx="174.95912544429302" cy="240.81478472799063" r="3" style="fill: steelblue;"></circle><circle cx="429.20524187386036" cy="113.7206370010972" r="3" style="fill: steelblue;"></circle><circle cx="134.09174501895907" cy="100.69870594888926" r="3" style="fill: steelblue;"></circle><circle cx="368.9611007273197" cy="191.9046837836504" r="3" style="fill: steelblue;"></circle><circle cx="429.93648916482925" cy="122.45664484798908" r="3" style="fill: steelblue;"></circle><circle cx="266.8655316741206" cy="219.700697530061" r="3" style="fill: steelblue;"></circle><circle cx="283.8357263524085" cy="231.20727594941854" r="3" style="fill: steelblue;"></circle><circle cx="428.39068181812763" cy="37.56089806556702" r="3" style="fill: steelblue;"></circle><circle cx="367.9464713484049" cy="189.61588474921882" r="3" style="fill: steelblue;"></circle><circle cx="485.51299318671227" cy="145.7116368226707" r="3" style="fill: steelblue;"></circle><circle cx="426.23583532869816" cy="49.213146045804024" r="3" style="fill: steelblue;"></circle><circle cx="395.83823315799236" cy="41.14358238875866" r="3" style="fill: steelblue;"></circle><circle cx="517.02038615942" cy="135.6758877635002" r="3" style="fill: steelblue;"></circle><circle cx="352.75813590735197" cy="218.57671225443482" r="3" style="fill: steelblue;"></circle><circle cx="299.2975905351341" cy="310.4610938578844" r="3" style="fill: steelblue;"></circle><circle cx="60.350121259689345" cy="268.62634364515543" r="3" style="fill: steelblue;"></circle><circle cx="224.8344785347581" cy="210.1718794554472" r="3" style="fill: steelblue;"></circle><circle cx="249.56730932928622" cy="250.92191640287638" r="3" style="fill: steelblue;"></circle><circle cx="218.3959548175335" cy="136.84022724628448" r="3" style="fill: steelblue;"></circle><circle cx="375.7333532720804" cy="151.41207603737712" r="3" style="fill: steelblue;"></circle><circle cx="187.0622231438756" cy="267.2076031565666" r="3" style="fill: steelblue;"></circle><circle cx="295.0659297220409" cy="283.5262708365917" r="3" style="fill: steelblue;"></circle><circle cx="201.82692881673574" cy="206.67874366044998" r="3" style="fill: steelblue;"></circle><circle cx="309.65510576963425" cy="293.75721625983715" r="3" style="fill: steelblue;"></circle><circle cx="219.75763019174337" cy="306.31255097687244" r="3" style="fill: steelblue;"></circle><circle cx="385.6417988240719" cy="51.78355909883976" r="3" style="fill: steelblue;"></circle><circle cx="237.07079065963626" cy="71.14294562488794" r="3" style="fill: steelblue;"></circle><circle cx="233.88697419315577" cy="84.0711884200573" r="3" style="fill: steelblue;"></circle><circle cx="463.33942607045174" cy="80.63744958490133" r="3" style="fill: steelblue;"></circle><circle cx="259.7824080660939" cy="34.37371104955673" r="3" style="fill: steelblue;"></circle><circle cx="441.4650325477123" cy="28.911133483052254" r="3" style="fill: steelblue;"></circle><circle cx="125.19359372556211" cy="223.2458178885281" r="3" style="fill: steelblue;"></circle><circle cx="82.06651926040651" cy="250.74879750609398" r="3" style="fill: steelblue;"></circle><circle cx="128.6347840726376" cy="266.33321419358253" r="3" style="fill: steelblue;"></circle><circle cx="204.33528374880552" cy="244.07531339675188" r="3" style="fill: steelblue;"></circle><circle cx="320.71462634950876" cy="160.4303514584899" r="3" style="fill: steelblue;"></circle><circle cx="152.1683418005705" cy="164.26444118842483" r="3" style="fill: steelblue;"></circle></g></svg>