<svg xmlns="http://www.w3.org/2000/svg"><g transform="translate(40,20)"><circle cx="417.72736608982086" cy="126.56762550274533" r="3" style="fill: steelblue;"></circle><circle cx="329.9423038959503" cy="122.73342675632902" r="3" style="fill: steelblue;"></circle><circle cx="465.0030791759491" cy="174.34406007329625" r="3" style="fill: steelblue;"></circle><circle cx="427.63177156448364" cy="190.47006774279805" r="3" style="fill: steelblue;"></circle><circle cx="431.95421397686005" cy="93.16820916202335" r="3" style="fill: steelblue;"></circle><circle cx="473.13918471336365" cy="54.03641793462965" r="3" style="fill: steelblue;"></circle><circle cx="290.9536678344011" cy="204.97428394026224" r="3" style="fill: steelblue;"></circle><circle cx="377.66568660736084" cy="160.6771397093932" r="3" style="fill: steelblue;"></circle><circle cx="392.4568623304367" cy="42.81268947654302" r="3" style="fill: steelblue;"></circle><circle cx="495.0160324573517" cy="161.9319078202049" r="3" style="fill: steelblue;"></circle><circle cx="432.67385959625244" cy="78.7232486738099" r="3" style="fill: steelblue;"></circle><circle cx="322.43172079324717" cy="23.55747852060529" r="3" style="fill: steelblue;"></circle><circle cx="371.3753119111061" cy="82.63703452216254" r="3" style="fill: steelblue;"></circle><circle cx="289.16010707616806" cy="118.0511362850666" r="3" style="fill: steelblue;"></circle><circle cx="405.05772829055786" cy="153.47879303412304" r="3" style="fill: steelblue;"></circle><circle cx="273.671755939722" cy="33.29696026113299" r="3" style="fill: steelblue;"></circle><circle cx="325.65192729234695" cy="133.5715686281522" r="3" style="fill: steelblue;"></circle><circle cx="318.64895671606064" cy="92.32929944992065" r="3" style="fill: steelblue;"></circle><circle cx="463.67765665054316" cy="186.64807884229555" r="3" style="fill: steelblue;"></circle><circle cx="472.14324474334717" cy="101.57695098055734" r="3" style="fill: steelblue;"></circle><circle cx="309.89646390080446" cy="110.83448280890781" r="3" style="fill: steelblue;"></circle><circle cx="469.2459762096405" cy="247.71875821881827" r="3" style="fill: steelblue;"></circle><circle cx="350.2136930823326" cy="55.48856092823877" r="3" style="fill: steelblue;"></circle><circle cx="459.5446586608887" cy="175.720697020491" r="3" style="fill: steelblue;"></circle><circle cx="200.68800151348114" cy="145.02857931786116" r="3" style="fill: steelblue;"></circle><circle cx="305.8133002370596" cy="156.34376427365675" r="3" style="fill: steelblue;"></circle><circle cx="334.708122164011" cy="86.47407276762857" r="3" style="fill: steelblue;"></circle><circle cx="236.3959193229675" cy="162.12445845206577" r="3" style="fill: steelblue;"></circle><circle cx="200.75160562992096" cy="60.727836522791115" r="3" style="fill: steelblue;"></circle><circle cx="292.0863155275583" cy="202.16344934370784" r="3" style="fill: steelblue;"></circle><circle cx="317.31649450957775" cy="153.67128100867075" r="3" style="fill: steelblue;"></circle><circle cx="319.73259150981903" cy="97.0543243818813" r="3" style="fill: steelblue;"></circle><circle cx="341.57855808734894" cy="139.55898413227663" r="3" style="fill: steelblue;"></circle><circle cx="58.579015731811516" cy="164.2517734732893" r="3" style="fill: steelblue;"></circle><circle cx="323.1938995420933" cy="64.06314108106824" r="3" style="fill: steelblue;"></circle><circle cx="202.95799970626828" cy="228.4416135814455" r="3" style="fill: steelblue;"></circle><circle cx="188.8749361038208" cy="81.79987486865787" r="3" style="fill: steelblue;"></circle><circle cx="208.66400599479675" cy="180.4104440742069" r="3" style="fill: steelblue;"></circle><circle cx="192.36235320568085" cy="144.94131470306053" r="3" style="fill: steelblue;"></circle><circle cx="410.48823595046997" cy="182.9909402463171" r="3" style="fill: steelblue;"></circle><circle cx="405.5218040943146" cy="193.13701507118014" r="3" style="fill: steelblue;"></circle><circle cx="207.25050866603848" cy="119.7917636897829" r="3" style="fill: steelblue;"></circle><circle cx="198.20260405540463" cy="216.01465029848947" r="3" style="fill: steelblue;"></circle><circle cx="266.5011964738369" cy="235.19857244359122" r="3" style="fill: steelblue;"></circle><circle cx="147.4622905254364" cy="101.14933401346207" r="3" style="fill: steelblue;"></circle><circle cx="221.334707736969" cy="205.92207395368155" r="3" style="fill: steelblue;"></circle><circle cx="193.62610280513763" cy="214.72016904089185" r="3" style="fill: steelblue;"></circle><circle cx="291.08879026025534" cy="143.04721020162106" r="3" style="fill: steelblue;"></circle><circle cx="119.06064748764038" cy="175.11690217587682" r="3" style="fill: steelblue;"></circle><circle cx="260.13087183237076" cy="83.979109260771" r="3" style="fill: steelblue;"></circle><circle cx="399.24330711364746" cy="173.8362069759104" r="3" style="fill: steelblue;"></circle><circle cx="237.19139099121094" cy="103.83276492357254" r="3" style="fill: steelblue;"></circle><circle cx="315.3746780008077" cy="311.5898761484358" r="3" style="fill: steelblue;"></circle><circle cx="186.08288168907166" cy="192.7617752717601" r="3" style="fill: steelblue;"></circle><circle cx="230.27590066194534" cy="167.469183045129" r="3" style="fill: steelblue;"></circle><circle cx="448.11317324638367" cy="159.9311569498645" r="3" style="fill: steelblue;"></circle><circle cx="415.2603954076767" cy="186.72499739461477" r="3" style="fill: steelblue;"></circle><circle cx="270.72623893618584" cy="210.08256011539038" r="3" style="fill: steelblue;"></circle><circle cx="230.46255111694336" cy="253.55697108639612" r="3" style="fill: steelblue;"></circle><circle cx="266.98147505521774" cy="94.15761811865701" r="3" style="fill: steelblue;"></circle><circle cx="480.2382230758667" cy="239.53404708041086" r="3" style="fill: steelblue;"></circle><circle cx="271.8162976205349" cy="74.77628125084772" r="3" style="fill: steelblue;"></circle><circle cx="488.07728290557856" cy="61.26826273070441" r="3" style="fill: steelblue;"></circle><circle cx="375.202077627182" cy="114.97571542859077" r="3" style="fill: steelblue;"></circle><circle cx="426.5413910150528" cy="161.8305956530902" r="3" style="fill: steelblue;"></circle><circle cx="435.0666582584381" cy="69.83263807164298" r="3" style="fill: steelblue;"></circle><circle cx="450.35861134529114" cy="130.2563115126557" r="3" style="fill: steelblue;"></circle><circle cx="288.4808801114559" cy="124.9225153691239" r="3" style="fill: steelblue;"></circle><circle cx="422.00391590595245" cy="84.62785366508695" r="3" style="fill: steelblue;"></circle><circle cx="517.593777179718" cy="113.78089479274222" r="3" style="fill: steelblue;"></circle><circle cx="421.37148678302765" cy="187.72579042447938" r="3" style="fill: steelblue;"></circle><circle cx="368.65618228912354" cy="139.8564361449745" r="3" style="fill: steelblue;"></circle><circle cx="144.44283843040466" cy="253.53234277831183" r="3" style="fill: steelblue;"></circle><circle cx="367.6186010241508" cy="83.15967039929495" r="3" style="fill: steelblue;"></circle><circle cx="143.292635679245" cy="250.22742665476267" r="3" style="fill: steelblue;"></circle><circle cx="382.41190910339355" cy="214.00285363197327" r="3" style="fill: steelblue;"></circle><circle cx="262.5616393983364" cy="217.25588805145685" r="3" style="fill: steelblue;"></circle><circle cx="179.0974259376526" cy="279.242256614897" r="3" style="fill: steelblue;"></circle><circle cx="96.81884050369263" cy="222.33321948183908" r="3" style="fill: steelblue;"></circle><circle cx="90.50976634025574" cy="267.5677084260517" r="3" style="fill: steelblue;"></circle><circle cx="280.67779764533043" cy="224.81212533182565" r="3" style="fill: steelblue;"></circle><circle cx="94.62609887123108" cy="152.23135039624242" r="3" style="fill: steelblue;"></circle><circle cx="194.70341205596924" cy="133.98120258417396" r="3" style="fill: steelblue;"></circle><circle cx="291.8673360720277" cy="186.6812604169051" r="3" style="fill: steelblue;"></circle><circle cx="384.89117324352264" cy="155.9137898251518" r="3" style="fill: steelblue;"></circle><circle cx="422.0234870910644" cy="146.38528254710968" r="3" style="fill: steelblue;"></circle><circle cx="408.2004636526108" cy="161.1128941592243" r="3" style="fill: steelblue;"></circle><circle cx="243.6743125319481" cy="69.03323796060351" r="3" style="fill: steelblue;"></circle><circle cx="289.81441855430603" cy="45.534783932897774" r="3" style="fill: steelblue;"></circle><circle cx="424.12129640579224" cy="109.32886161737973" r="3" style="fill: steelblue;"></circle><circle cx="378.51395308971405" cy="142.6857216904561" r="3" style="fill: steelblue;"></circle><circle cx="340.15941470861435" cy="101.61402093039618" r="3" style="fill: steelblue;"></circle><circle cx="282.62118324637413" cy="176.71674547923936" r="3" style="fill: steelblue;"></circle><circle cx="226.11631304025647" cy="120.3208290040493" r="3" style="fill: steelblue;"></circle><circle cx="375.56272745132446" cy="213.76053426000806" r="3" style="fill: steelblue;"></circle><circle cx="217.85218119621274" cy="270.1578531000349" r="3" style="fill: steelblue;"></circle><circle cx="298.0517691001296" cy="225.9594741794798" r="3" style="fill: steelblue;"></circle><circle cx="273.4004482626915" cy="244.1956642601225" r="3" style="fill: steelblue;"></circle><circle cx="209.01409685611725" cy="148.98326699104575" r="3" style="fill: steelblue;"></circle><circle cx="277.4747371673584" cy="270.94943589634363" r="3" style="fill: steelblue;"></circle><circle cx="353.6987766623497" cy="203.0252459976408" r="3" style="fill: steelblue;"></circle><circle cx="181.87218010425568" cy="266.104010409779" r="3" style="fill: steelblue;"></circle><circle cx="221.64852619171143" cy="192.13392146759566" r="3" style="fill: steelblue;"></circle><circle cx="97.15213179588318" cy="190.0883289674918" r="3" style="fill: steelblue;"></circle><circle cx="207.27137625217438" cy="265.04812240600586" r="3" style="fill: steelblue;"></circle><circle cx="381.46813809871674" cy="197.06052185760603" r="3" style="fill: steelblue;"></circle><circle cx="507.36225843429565" cy="136.31575033068657" r="3" style="fill: steelblue;"></circle><circle cx="368.9957857131958" cy="149.5675725138022" r="3" style="fill: steelblue;"></circle><circle cx="404.9647629261017" cy="46.3213599390454" r="3" style="fill: steelblue;"></circle><circle cx="416.6475623846054" cy="97.40156034628552" r="3" style="fill: steelblue;"></circle><circle cx="517.1347618103027" cy="29.83853154712255" r="3" style="fill: steelblue;"></circle><circle cx="316.4160590618849" cy="93.59390222364003" r="3" style="fill: steelblue;"></circle><circle cx="364.8401990532875" cy="237.67649895615045" r="3" style="fill: steelblue;"></circle><circle cx="312.3966917395591" cy="251.81130501959058" r="3" style="fill: steelblue;"></circle><circle cx="143.9010500907898" cy="129.18454549378822" r="3" style="fill: steelblue;"></circle><circle cx="274.8260222375393" cy="232.48024466964932" r="3" style="fill: steelblue;"></circle><circle cx="240.37340730428693" cy="242.48213089174692" r="3" style="fill: steelblue;"></circle><circle cx="175.5110263824463" cy="170.83830878966387" r="3" style="fill: steelblue;"></circle></g></svg>