<svg xmlns="http://www.w3.org/2000/svg"><g><circle cx="29.540759325027466" cy="119.72012966871262" r="2" style="fill: steelblue;"></circle><circle cx="60.69957613945007" cy="157.72504583001137" r="2" style="fill: steelblue;"></circle><circle cx="119.40479725599289" cy="117.17859320342541" r="2" style="fill: steelblue;"></circle><circle cx="82.10919499397278" cy="116.13124646246433" r="2" style="fill: steelblue;"></circle><circle cx="112.76056617498398" cy="137.24618256092072" r="2" style="fill: steelblue;"></circle><circle cx="34.10390019416809" cy="95.40733639150858" r="2" style="fill: steelblue;"></circle><circle cx="99.544364400208" cy="52.303994446992874" r="2" style="fill: steelblue;"></circle><circle cx="115.84897190332413" cy="67.79881417751312" r="2" style="fill: steelblue;"></circle><circle cx="69.41529214382172" cy="73.95341657102108" r="2" style="fill: steelblue;"></circle><circle cx="69.19999122619629" cy="121.55135199427605" r="2" style="fill: steelblue;"></circle><circle cx="75.74281990528107" cy="112.94073276221752" r="2" style="fill: steelblue;"></circle><circle cx="91.09385758638382" cy="140.7157689332962" r="2" style="fill: steelblue;"></circle><circle cx="90.29463604092598" cy="74.00954179465771" r="2" style="fill: steelblue;"></circle><circle cx="46.67617082595825" cy="66.90187230706215" r="2" style="fill: steelblue;"></circle><circle cx="108.83572176098824" cy="157.41139128804207" r="2" style="fill: steelblue;"></circle><circle cx="29.53163981437683" cy="155.05509674549103" r="2" style="fill: steelblue;"></circle><circle cx="53.622815012931824" cy="95.9374824538827" r="2" style="fill: steelblue;"></circle><circle cx="134.58853363990784" cy="49.37695190310478" r="2" style="fill: steelblue;"></circle><circle cx="101.10188210383058" cy="115.32274670898914" r="2" style="fill: steelblue;"></circle><circle cx="157.826167345047" cy="96.32663791999221" r="2" style="fill: steelblue;"></circle><circle cx="99.33166084811091" cy="108.3721661940217" r="2" style="fill: steelblue;"></circle><circle cx="109.11305099725723" cy="64.3835611641407" r="2" style="fill: steelblue;"></circle><circle cx="119.67785209417343" cy="51.50964707136154" r="2" style="fill: steelblue;"></circle><circle cx="57.000166177749634" cy="171.76397740840912" r="2" style="fill: steelblue;"></circle><circle cx="122.64337688684464" cy="148.48069697618484" r="2" style="fill: steelblue;"></circle><circle cx="60.16100347042084" cy="161.5442581474781" r="2" style="fill: steelblue;"></circle><circle cx="79.23955023288727" cy="109.30653512477875" r="2" style="fill: steelblue;"></circle><circle cx="79.35323864221573" cy="156.11350014805794" r="2" style="fill: steelblue;"></circle><circle cx="47.576236724853516" cy="131.033493578434" r="2" style="fill: steelblue;"></circle><circle cx="108.7610237300396" cy="37.007829546928406" r="2" style="fill: steelblue;"></circle><circle cx="145.08269429206848" cy="116.00083895027637" r="2" style="fill: steelblue;"></circle><circle cx="143.00574660301208" cy="84.10766012966633" r="2" style="fill: steelblue;"></circle><circle cx="162.74623274803162" cy="63.52579817175865" r="2" style="fill: steelblue;"></circle><circle cx="94.89885866641998" cy="89.29787613451481" r="2" style="fill: steelblue;"></circle><circle cx="110.19947156310081" cy="41.30953028798103" r="2" style="fill: steelblue;"></circle><circle cx="83.86740237474442" cy="130.3432010114193" r="2" style="fill: steelblue;"></circle><circle cx="101.90729312598705" cy="95.87332736700773" r="2" style="fill: steelblue;"></circle><circle cx="64.82284963130951" cy="199.3950515985489" r="2" style="fill: steelblue;"></circle><circle cx="39.07608389854431" cy="172.25262373685837" r="2" style="fill: steelblue;"></circle><circle cx="42.25280284881592" cy="137.9888229072094" r="2" style="fill: steelblue;"></circle><circle cx="18.91370415687561" cy="185.48375219106674" r="2" style="fill: steelblue;"></circle><circle cx="130.31090199947357" cy="56.15528151392937" r="2" style="fill: steelblue;"></circle><circle cx="47.8277325630188" cy="44.98530402779579" r="2" style="fill: steelblue;"></circle><circle cx="125.00604689121246" cy="99.22645336482674" r="2" style="fill: steelblue;"></circle><circle cx="136.38231754302979" cy="83.36245305836201" r="2" style="fill: steelblue;"></circle><circle cx="127.56921648979187" cy="78.59571874141693" r="2" style="fill: steelblue;"></circle><circle cx="151.73389315605164" cy="73.0952475219965" r="2" style="fill: steelblue;"></circle><circle cx="54.63104844093323" cy="189.76811915636063" r="2" style="fill: steelblue;"></circle><circle cx="53.17060351371765" cy="88.66177536547184" r="2" style="fill: steelblue;"></circle><circle cx="68.99988055229187" cy="110.15893369913101" r="2" style="fill: steelblue;"></circle><circle cx="116.91694110631943" cy="99.32695087045431" r="2" style="fill: steelblue;"></circle><circle cx="146.33714854717255" cy="78.58521714806557" r="2" style="fill: steelblue;"></circle><circle cx="126.0770708322525" cy="145.5414466559887" r="2" style="fill: steelblue;"></circle><circle cx="75.50497353076935" cy="158.89640748500824" r="2" style="fill: steelblue;"></circle><circle cx="95.16856111586094" cy="127.48678810894489" r="2" style="fill: steelblue;"></circle><circle cx="109.7198136150837" cy="196.69391810894012" r="2" style="fill: steelblue;"></circle><circle cx="106.30350410938263" cy="124.14886094629765" r="2" style="fill: steelblue;"></circle><circle cx="54.04421091079712" cy="110.81304345279932" r="2" style="fill: steelblue;"></circle><circle cx="88.8358898460865" cy="94.23236260190606" r="2" style="fill: steelblue;"></circle><circle cx="77.05083936452866" cy="86.89417075365782" r="2" style="fill: steelblue;"></circle><circle cx="114.03232663869858" cy="123.73496629297733" r="2" style="fill: steelblue;"></circle><circle cx="84.04288291931152" cy="101.95530685596168" r="2" style="fill: steelblue;"></circle><circle cx="32.67391324043274" cy="154.2582981288433" r="2" style="fill: steelblue;"></circle><circle cx="31.942975521087646" cy="195.35691142082214" r="2" style="fill: steelblue;"></circle><circle cx="62.99528777599335" cy="178.10474187135696" r="2" style="fill: steelblue;"></circle><circle cx="81.01856857538223" cy="140.15057161450386" r="2" style="fill: steelblue;"></circle><circle cx="52.85221040248871" cy="192.0688584446907" r="2" style="fill: steelblue;"></circle><circle cx="81.01634979248047" cy="176.4448046684265" r="2" style="fill: steelblue;"></circle><circle cx="38.42056393623352" cy="107.6331770978868" r="2" style="fill: steelblue;"></circle><circle cx="69.89798843860626" cy="165.4742419719696" r="2" style="fill: steelblue;"></circle><circle cx="40.86424112319946" cy="52.81224697828293" r="2" style="fill: steelblue;"></circle><circle cx="105.16527034342289" cy="6.335480511188507" r="2" style="fill: steelblue;"></circle><circle cx="117.10119992494583" cy="13.752540946006775" r="2" style="fill: steelblue;"></circle><circle cx="144.54109370708466" cy="91.31273664534092" r="2" style="fill: steelblue;"></circle><circle cx="132.0667177438736" cy="32.18836188316345" r="2" style="fill: steelblue;"></circle><circle cx="68.67731213569641" cy="146.63575068116188" r="2" style="fill: steelblue;"></circle><circle cx="128.20844650268555" cy="37.6143179833889" r="2" style="fill: steelblue;"></circle><circle cx="138.6093556880951" cy="53.05735990405083" r="2" style="fill: steelblue;"></circle><circle cx="137.0095580816269" cy="71.08597308397293" r="2" style="fill: steelblue;"></circle><circle cx="154.39093708992004" cy="24.872756004333496" r="2" style="fill: steelblue;"></circle><circle cx="166.72571301460266" cy="116.60680584609509" r="2" style="fill: steelblue;"></circle><circle cx="158.38727951049805" cy="34.2067614197731" r="2" style="fill: steelblue;"></circle><circle cx="102.88958549499512" cy="145.47763988375664" r="2" style="fill: steelblue;"></circle><circle cx="78.33388447761536" cy="165.3640180826187" r="2" style="fill: steelblue;"></circle><circle cx="70.2731728553772" cy="109.9398884922266" r="2" style="fill: steelblue;"></circle><circle cx="103.31694036722183" cy="106.89135817810893" r="2" style="fill: steelblue;"></circle><circle cx="86.78161948919296" cy="74.20126758515835" r="2" style="fill: steelblue;"></circle><circle cx="69.07244324684143" cy="90.9896133467555" r="2" style="fill: steelblue;"></circle><circle cx="61.109864711761475" cy="82.37224295735359" r="2" style="fill: steelblue;"></circle><circle cx="135.98717749118805" cy="69.86287832260132" r="2" style="fill: steelblue;"></circle><circle cx="123.15737903118134" cy="81.7721601575613" r="2" style="fill: steelblue;"></circle><circle cx="183.97982716560364" cy="94.4949820637703" r="2" style="fill: steelblue;"></circle><circle cx="171.41740918159485" cy="56.39445632696152" r="2" style="fill: steelblue;"></circle><circle cx="118.08044910430908" cy="45.130858570337296" r="2" style="fill: steelblue;"></circle><circle cx="119.51431035995483" cy="42.07968935370445" r="2" style="fill: steelblue;"></circle><circle cx="108.44259113073349" cy="54.52773943543434" r="2" style="fill: steelblue;"></circle><circle cx="150.6758213043213" cy="43.028524518013" r="2" style="fill: steelblue;"></circle><circle cx="160.82406640052795" cy="170.41529566049576" r="2" style="fill: steelblue;"></circle><circle cx="121.73947095870972" cy="166.74793362617493" r="2" style="fill: steelblue;"></circle><circle cx="111.50742471218109" cy="20.40906846523285" r="2" style="fill: steelblue;"></circle><circle cx="104.5810516923666" cy="19.752895832061768" r="2" style="fill: steelblue;"></circle><circle cx="81.73001706600189" cy="69.84178945422173" r="2" style="fill: steelblue;"></circle><circle cx="111.32893338799477" cy="106.7693181335926" r="2" style="fill: steelblue;"></circle><circle cx="173.19093346595764" cy="175.53990185260773" r="2" style="fill: steelblue;"></circle><circle cx="74.04550611972809" cy="44.979917258024216" r="2" style="fill: steelblue;"></circle><circle cx="135.36517024040222" cy="142.07415878772736" r="2" style="fill: steelblue;"></circle><circle cx="144.0244495868683" cy="99.82532870490104" r="2" style="fill: steelblue;"></circle><circle cx="155.5930197238922" cy="88.23208920657635" r="2" style="fill: steelblue;"></circle><circle cx="129.6737551689148" cy="118.22301000356674" r="2" style="fill: steelblue;"></circle><circle cx="118.13419312238693" cy="55.04821836948395" r="2" style="fill: steelblue;"></circle><circle cx="164.1545832157135" cy="89.07410725951195" r="2" style="fill: steelblue;"></circle><circle cx="71.82250022888184" cy="29.204657673835754" r="2" style="fill: steelblue;"></circle><circle cx="57.03074336051941" cy="132.39154815673828" r="2" style="fill: steelblue;"></circle><circle cx="62.82018721103668" cy="124.04789440333843" r="2" style="fill: steelblue;"></circle><circle cx="103.16580645740032" cy="135.72002798318863" r="2" style="fill: steelblue;"></circle><circle cx="130.10840713977814" cy="193.6359092593193" r="2" style="fill: steelblue;"></circle><circle cx="120.08136808872223" cy="138.75421360135078" r="2" style="fill: steelblue;"></circle><circle cx="50.09171962738037" cy="138.13745453953743" r="2" style="fill: steelblue;"></circle></g></svg>