<svg xmlns="http://www.w3.org/2000/svg"><g><circle cx="12.506297975778583" cy="90.44834971427917" r="2" style="fill: steelblue;"></circle><circle cx="54.211719147861004" cy="69.70751285552979" r="2" style="fill: steelblue;"></circle><circle cx="49.251054134219885" cy="79.62575554847717" r="2" style="fill: steelblue;"></circle><circle cx="3.3258862793445614" cy="73.68740108278062" r="2" style="fill: steelblue;"></circle><circle cx="2.3371122777462032" cy="62.06546351313591" r="2" style="fill: steelblue;"></circle><circle cx="3.134503215551379" cy="67.78377128971947" r="2" style="fill: steelblue;"></circle><circle cx="30.370938777923584" cy="58.56482063730557" r="2" style="fill: steelblue;"></circle><circle cx="40.09354971349239" cy="68.7226073609458" r="2" style="fill: steelblue;"></circle><circle cx="41.72587040811777" cy="57.53821424312062" r="2" style="fill: steelblue;"></circle><circle cx="41.93963408470154" cy="65.42380402485529" r="2" style="fill: steelblue;"></circle><circle cx="44.30924421176314" cy="86.58145533667671" r="2" style="fill: steelblue;"></circle><circle cx="39.34716172516346" cy="51.82305433683925" r="2" style="fill: steelblue;"></circle><circle cx="33.54032076895237" cy="88.55650160047743" r="2" style="fill: steelblue;"></circle><circle cx="46.77052814513445" cy="56.78049485302634" r="2" style="fill: steelblue;"></circle><circle cx="30.29664158821106" cy="75.19490851296318" r="2" style="fill: steelblue;"></circle><circle cx="45.102353394031525" cy="93.48822302288478" r="2" style="fill: steelblue;"></circle><circle cx="53.397269174456596" cy="40.6709760427475" r="2" style="fill: steelblue;"></circle><circle cx="33.35198312997818" cy="51.212585634655426" r="2" style="fill: steelblue;"></circle><circle cx="22.55334258079529" cy="59.50590098897616" r="2" style="fill: steelblue;"></circle><circle cx="47.48712847940624" cy="46.18309769365523" r="2" style="fill: steelblue;"></circle><circle cx="31.2613595277071" cy="50.516689817110695" r="2" style="fill: steelblue;"></circle><circle cx="72.04125933349133" cy="51.94230957163705" r="2" style="fill: steelblue;"></circle><circle cx="36.17149889469147" cy="41.32097131676144" r="2" style="fill: steelblue;"></circle><circle cx="24.343340843915943" cy="60.837818102704155" r="2" style="fill: steelblue;"></circle><circle cx="25.3968957811594" cy="77.60909696420033" r="2" style="fill: steelblue;"></circle><circle cx="65.2311148121953" cy="72.07136849562326" r="2" style="fill: steelblue;"></circle><circle cx="29.36352714896202" cy="95.15022569232517" r="2" style="fill: steelblue;"></circle><circle cx="39.23750687390566" cy="90.01041452089945" r="2" style="fill: steelblue;"></circle><circle cx="69.11037415266037" cy="66.37320336368349" r="2" style="fill: steelblue;"></circle><circle cx="72.35288359224796" cy="39.34943841563331" r="2" style="fill: steelblue;"></circle><circle cx="58.10220371931791" cy="47.20378584331936" r="2" style="fill: steelblue;"></circle><circle cx="79.9496240913868" cy="22.763550281524658" r="2" style="fill: steelblue;"></circle><circle cx="56.93367002531886" cy="52.44901983274354" r="2" style="fill: steelblue;"></circle><circle cx="51.22227764222771" cy="48.371440006626976" r="2" style="fill: steelblue;"></circle><circle cx="46.48898211307824" cy="54.48949512922101" r="2" style="fill: steelblue;"></circle><circle cx="47.80268012546003" cy="24.44352706273397" r="2" style="fill: steelblue;"></circle><circle cx="45.59130426496267" cy="57.73651144570775" r="2" style="fill: steelblue;"></circle><circle cx="27.552495896816254" cy="84.26704340510898" r="2" style="fill: steelblue;"></circle><circle cx="13.159877806901935" cy="75.43466654088762" r="2" style="fill: steelblue;"></circle><circle cx="15.93611687421799" cy="55.48519562257247" r="2" style="fill: steelblue;"></circle><circle cx="28.384004905819893" cy="84.40582619773018" r="2" style="fill: steelblue;"></circle><circle cx="91.66161641478539" cy="89.64651823043823" r="2" style="fill: steelblue;"></circle><circle cx="37.327080219984055" cy="57.31190885934565" r="2" style="fill: steelblue;"></circle><circle cx="44.709907565265894" cy="16.426516903771294" r="2" style="fill: steelblue;"></circle><circle cx="60.05272660404444" cy="57.366473600268364" r="2" style="fill: steelblue;"></circle><circle cx="66.20779931545258" cy="57.5500519739257" r="2" style="fill: steelblue;"></circle><circle cx="73.080475628376" cy="67.5139104326566" r="2" style="fill: steelblue;"></circle><circle cx="23.558718338608745" cy="86.46536866823831" r="2" style="fill: steelblue;"></circle><circle cx="71.6514840722084" cy="47.26863072978126" r="2" style="fill: steelblue;"></circle><circle cx="73.88627640902996" cy="91.33677019013298" r="2" style="fill: steelblue;"></circle><circle cx="59.84502863138914" cy="44.98515609237883" r="2" style="fill: steelblue;"></circle><circle cx="41.408584639430046" cy="63.47441093789206" r="2" style="fill: steelblue;"></circle><circle cx="35.64415704458952" cy="60.51211762759421" r="2" style="fill: steelblue;"></circle><circle cx="67.99377985298634" cy="39.94413548045688" r="2" style="fill: steelblue;"></circle><circle cx="19.533497467637066" cy="70.98214162720573" r="2" style="fill: steelblue;"></circle><circle cx="23.116071894764904" cy="73.38201337390475" r="2" style="fill: steelblue;"></circle><circle cx="79.08934839069843" cy="39.59069152673086" r="2" style="fill: steelblue;"></circle><circle cx="50.507621094584465" cy="70.8799080716239" r="2" style="fill: steelblue;"></circle><circle cx="37.939104437828064" cy="52.675205386347244" r="2" style="fill: steelblue;"></circle><circle cx="57.65809090808034" cy="61.273928317758774" r="2" style="fill: steelblue;"></circle><circle cx="46.44453846849501" cy="57.86623536712594" r="2" style="fill: steelblue;"></circle><circle cx="28.34308072924614" cy="58.00199715627564" r="2" style="fill: steelblue;"></circle><circle cx="43.71366295963526" cy="96.67144881354439" r="2" style="fill: steelblue;"></circle><circle cx="15.600613504648212" cy="93.36597389645046" r="2" style="fill: steelblue;"></circle><circle cx="52.7080534491688" cy="86.61232391993204" r="2" style="fill: steelblue;"></circle><circle cx="18.751179054379467" cy="66.50967564847734" r="2" style="fill: steelblue;"></circle><circle cx="18.846881762146953" cy="84.22523736953735" r="2" style="fill: steelblue;"></circle><circle cx="21.071371808648113" cy="54.379076179530884" r="2" style="fill: steelblue;"></circle><circle cx="47.5923968013376" cy="93.68360373708937" r="2" style="fill: steelblue;"></circle><circle cx="22.60013595223427" cy="92.67761641078525" r="2" style="fill: steelblue;"></circle><circle cx="25.170321762561798" cy="65.84180643161137" r="2" style="fill: steelblue;"></circle><circle cx="67.38291792571545" cy="48.580009904172684" r="2" style="fill: steelblue;"></circle><circle cx="73.43706041574478" cy="27.70662970013088" r="2" style="fill: steelblue;"></circle><circle cx="33.786558732390404" cy="36.362169517411125" r="2" style="fill: steelblue;"></circle><circle cx="53.14490939490497" cy="35.87821622689565" r="2" style="fill: steelblue;"></circle><circle cx="47.23415914922953" cy="54.91796617085735" r="2" style="fill: steelblue;"></circle><circle cx="65.61640109866858" cy="84.16962954733107" r="2" style="fill: steelblue;"></circle><circle cx="35.08038092404604" cy="31.589471631579926" r="2" style="fill: steelblue;"></circle><circle cx="69.29602026939392" cy="44.193620483080544" r="2" style="fill: steelblue;"></circle><circle cx="71.52719721198082" cy="50.70982707871331" r="2" style="fill: steelblue;"></circle><circle cx="52.63250223360956" cy="12.09024588267008" r="2" style="fill: steelblue;"></circle><circle cx="89.28244858980179" cy="17.46729016304016" r="2" style="fill: steelblue;"></circle><circle cx="52.15144641697407" cy="22.8417350186242" r="2" style="fill: steelblue;"></circle><circle cx="53.393905935809016" cy="64.10409841272566" r="2" style="fill: steelblue;"></circle><circle cx="42.38028470426798" cy="62.29984760284424" r="2" style="fill: steelblue;"></circle><circle cx="42.48291179537773" cy="54.2163901651899" r="2" style="fill: steelblue;"></circle><circle cx="45.537593960762024" cy="50.695344391796326" r="2" style="fill: steelblue;"></circle><circle cx="40.96005316823721" cy="77.96256906456418" r="2" style="fill: steelblue;"></circle><circle cx="48.5950292320922" cy="80.4438591003418" r="2" style="fill: steelblue;"></circle><circle cx="52.077351324260235" cy="25.12874537044101" r="2" style="fill: steelblue;"></circle><circle cx="83.34102034568787" cy="71.04837066597409" r="2" style="fill: steelblue;"></circle><circle cx="59.49105527251959" cy="48.733764224582245" r="2" style="fill: steelblue;"></circle><circle cx="60.080499574542046" cy="9.339190191692781" r="2" style="fill: steelblue;"></circle><circle cx="67.21109077334404" cy="55.81293733687036" r="2" style="fill: steelblue;"></circle><circle cx="47.672228841111064" cy="47.346495919757416" r="2" style="fill: steelblue;"></circle><circle cx="84.10917147994041" cy="22.06001016828749" r="2" style="fill: steelblue;"></circle><circle cx="79.50792573392391" cy="16.287164555655586" r="2" style="fill: steelblue;"></circle><circle cx="79.7713354229927" cy="53.776590360535515" r="2" style="fill: steelblue;"></circle><circle cx="54.116468131542206" cy="76.48697661028969" r="2" style="fill: steelblue;"></circle><circle cx="50.39463525172323" cy="59.671077463361954" r="2" style="fill: steelblue;"></circle><circle cx="73.6346535384655" cy="29.889947838253438" r="2" style="fill: steelblue;"></circle><circle cx="62.03829329460859" cy="35.30156943533156" r="2" style="fill: steelblue;"></circle><circle cx="71.5530302375555" cy="22.17779225773282" r="2" style="fill: steelblue;"></circle><circle cx="64.45778924971819" cy="26.922716034783257" r="2" style="fill: steelblue;"></circle><circle cx="70.34419029951096" cy="27.852591541078354" r="2" style="fill: steelblue;"></circle><circle cx="36.719170585274696" cy="40.776211354467605" r="2" style="fill: steelblue;"></circle><circle cx="62.2804855927825" cy="53.31557140582137" r="2" style="fill: steelblue;"></circle><circle cx="70.80280892550945" cy="35.25511920452118" r="2" style="fill: steelblue;"></circle><circle cx="86.70082986354828" cy="53.689127787947655" r="2" style="fill: steelblue;"></circle><circle cx="49.93296808679588" cy="42.19918532503976" r="2" style="fill: steelblue;"></circle><circle cx="92.31419041752815" cy="44.52314807309045" r="2" style="fill: steelblue;"></circle><circle cx="41.35925155133009" cy="30.527654621336197" r="2" style="fill: steelblue;"></circle><circle cx="14.848693460226063" cy="60.878671291801666" r="2" style="fill: steelblue;"></circle><circle cx="23.750477656722072" cy="79.99091512627072" r="2" style="fill: steelblue;"></circle><circle cx="39.005557261407375" cy="58.71949344873428" r="2" style="fill: steelblue;"></circle><circle cx="21.993580460548404" cy="43.88915499051412" r="2" style="fill: steelblue;"></circle><circle cx="18.174573034048084" cy="46.87459187375175" r="2" style="fill: steelblue;"></circle><circle cx="16.740831732749943" cy="80.46217428313362" r="2" style="fill: steelblue;"></circle></g></svg>