<svg xmlns="http://www.w3.org/2000/svg"><g><circle cx="24.720368161797527" cy="59.86006483435631" r="2" style="fill: steelblue;"></circle><circle cx="5.127086490392688" cy="78.86252291500568" r="2" style="fill: steelblue;"></circle><circle cx="40.07580988109112" cy="58.589296601712704" r="2" style="fill: steelblue;"></circle><circle cx="4.806599766016009" cy="58.065623231232166" r="2" style="fill: steelblue;"></circle><circle cx="54.27583418786526" cy="68.62309128046036" r="2" style="fill: steelblue;"></circle><circle cx="56.41582999378443" cy="47.70366819575429" r="2" style="fill: steelblue;"></circle><circle cx="46.234600665047765" cy="26.151997223496437" r="2" style="fill: steelblue;"></circle><circle cx="55.783232394605875" cy="33.89940708875656" r="2" style="fill: steelblue;"></circle><circle cx="34.05901342630386" cy="36.97670828551054" r="2" style="fill: steelblue;"></circle><circle cx="15.057872235774997" cy="60.77567599713802" r="2" style="fill: steelblue;"></circle><circle cx="68.69039051234722" cy="56.47036638110876" r="2" style="fill: steelblue;"></circle><circle cx="97.10152745246887" cy="70.3578844666481" r="2" style="fill: steelblue;"></circle><circle cx="25.445456802845" cy="37.004770897328854" r="2" style="fill: steelblue;"></circle><circle cx="74.97353591024876" cy="33.450936153531075" r="2" style="fill: steelblue;"></circle><circle cx="35.55151745676994" cy="78.70569564402103" r="2" style="fill: steelblue;"></circle><circle cx="46.75137596204877" cy="77.52754837274551" r="2" style="fill: steelblue;"></circle><circle cx="43.29804303124547" cy="47.96874122694135" r="2" style="fill: steelblue;"></circle><circle cx="9.396705031394962" cy="24.68847595155239" r="2" style="fill: steelblue;"></circle><circle cx="52.595447935163975" cy="57.66137335449457" r="2" style="fill: steelblue;"></circle><circle cx="69.09114979207516" cy="48.163318959996104" r="2" style="fill: steelblue;"></circle><circle cx="57.16343941166997" cy="54.18608309701085" r="2" style="fill: steelblue;"></circle><circle cx="81.00693598389626" cy="32.19178058207035" r="2" style="fill: steelblue;"></circle><circle cx="33.91871340572834" cy="25.75482353568077" r="2" style="fill: steelblue;"></circle><circle cx="61.873338371515274" cy="85.88198870420456" r="2" style="fill: steelblue;"></circle><circle cx="35.94152648001909" cy="74.24034848809242" r="2" style="fill: steelblue;"></circle><circle cx="12.572399526834491" cy="80.77212907373905" r="2" style="fill: steelblue;"></circle><circle cx="8.507712930440906" cy="54.653267562389374" r="2" style="fill: steelblue;"></circle><circle cx="49.69016827526502" cy="78.05675007402897" r="2" style="fill: steelblue;"></circle><circle cx="55.555822513997555" cy="65.516746789217" r="2" style="fill: steelblue;"></circle><circle cx="0.06196573376655856" cy="18.503914773464203" r="2" style="fill: steelblue;"></circle><circle cx="81.77457675337791" cy="58.00041947513819" r="2" style="fill: steelblue;"></circle><circle cx="41.71764682978392" cy="42.053830064833164" r="2" style="fill: steelblue;"></circle><circle cx="62.28553336113691" cy="31.762899085879326" r="2" style="fill: steelblue;"></circle><circle cx="85.74363887310028" cy="44.648938067257404" r="2" style="fill: steelblue;"></circle><circle cx="35.161300748586655" cy="20.654765143990517" r="2" style="fill: steelblue;"></circle><circle cx="72.07875810563564" cy="65.17160050570965" r="2" style="fill: steelblue;"></circle><circle cx="34.882647171616554" cy="47.936663683503866" r="2" style="fill: steelblue;"></circle><circle cx="20.744753256440166" cy="99.69752579927444" r="2" style="fill: steelblue;"></circle><circle cx="45.650486554950476" cy="86.12631186842918" r="2" style="fill: steelblue;"></circle><circle cx="55.21591259166598" cy="68.9944114536047" r="2" style="fill: steelblue;"></circle><circle cx="40.81028811633587" cy="92.74187609553337" r="2" style="fill: steelblue;"></circle><circle cx="94.5178709924221" cy="28.077640756964684" r="2" style="fill: steelblue;"></circle><circle cx="65.40969777852297" cy="22.492652013897896" r="2" style="fill: steelblue;"></circle><circle cx="38.07418905198574" cy="49.61322668241337" r="2" style="fill: steelblue;"></circle><circle cx="77.5793056935072" cy="41.681226529181004" r="2" style="fill: steelblue;"></circle><circle cx="45.25064695626497" cy="39.297859370708466" r="2" style="fill: steelblue;"></circle><circle cx="49.42705617286265" cy="36.54762376099825" r="2" style="fill: steelblue;"></circle><circle cx="44.44951443001628" cy="94.88405957818031" r="2" style="fill: steelblue;"></circle><circle cx="41.35748576372862" cy="44.33088768273592" r="2" style="fill: steelblue;"></circle><circle cx="55.13014243915677" cy="55.079466849565506" r="2" style="fill: steelblue;"></circle><circle cx="52.40783370099962" cy="49.663475435227156" r="2" style="fill: steelblue;"></circle><circle cx="13.753346353769306" cy="39.29260857403278" r="2" style="fill: steelblue;"></circle><circle cx="44.58483932539821" cy="72.77072332799435" r="2" style="fill: steelblue;"></circle><circle cx="46.80060753598809" cy="79.44820374250412" r="2" style="fill: steelblue;"></circle><circle cx="25.511861965060234" cy="63.743394054472446" r="2" style="fill: steelblue;"></circle><circle cx="39.0629593282938" cy="98.34695905447006" r="2" style="fill: steelblue;"></circle><circle cx="15.850315988063816" cy="62.07443047314882" r="2" style="fill: steelblue;"></circle><circle cx="39.24683593213558" cy="55.40652172639966" r="2" style="fill: steelblue;"></circle><circle cx="0.7001116871833829" cy="47.11618130095303" r="2" style="fill: steelblue;"></circle><circle cx="16.69356152415276" cy="43.44708537682891" r="2" style="fill: steelblue;"></circle><circle cx="23.51600416004658" cy="61.86748314648867" r="2" style="fill: steelblue;"></circle><circle cx="48.2943496434018" cy="50.97765342798084" r="2" style="fill: steelblue;"></circle><circle cx="30.05603440105915" cy="77.12914906442165" r="2" style="fill: steelblue;"></circle><circle cx="36.108727753162384" cy="97.67845571041107" r="2" style="fill: steelblue;"></circle><circle cx="44.691395200788975" cy="89.05237093567848" r="2" style="fill: steelblue;"></circle><circle cx="30.26227205991745" cy="70.07528580725193" r="2" style="fill: steelblue;"></circle><circle cx="21.67127020657063" cy="96.03442922234535" r="2" style="fill: steelblue;"></circle><circle cx="13.827263563871387" cy="88.22240233421326" r="2" style="fill: steelblue;"></circle><circle cx="40.09282514452934" cy="53.8165885489434" r="2" style="fill: steelblue;"></circle><circle cx="24.836066365242008" cy="82.7371209859848" r="2" style="fill: steelblue;"></circle><circle cx="19.248646870255474" cy="26.406123489141464" r="2" style="fill: steelblue;"></circle><circle cx="79.58417311310768" cy="3.1677402555942535" r="2" style="fill: steelblue;"></circle><circle cx="89.61186483502388" cy="6.8762704730033875" r="2" style="fill: steelblue;"></circle><circle cx="64.17206041514874" cy="45.65636832267046" r="2" style="fill: steelblue;"></circle><circle cx="64.95187263935804" cy="16.094180941581726" r="2" style="fill: steelblue;"></circle><circle cx="79.27854843437672" cy="73.31787534058094" r="2" style="fill: steelblue;"></circle><circle cx="63.474018312990665" cy="18.80715899169445" r="2" style="fill: steelblue;"></circle><circle cx="87.85334527492523" cy="26.528679952025414" r="2" style="fill: steelblue;"></circle><circle cx="75.12256614863873" cy="35.542986541986465" r="2" style="fill: steelblue;"></circle><circle cx="87.50092908740044" cy="12.436378002166748" r="2" style="fill: steelblue;"></circle><circle cx="30.345802381634712" cy="58.30340292304754" r="2" style="fill: steelblue;"></circle><circle cx="77.89859846234322" cy="17.10338070988655" r="2" style="fill: steelblue;"></circle><circle cx="69.56275291740894" cy="72.73881994187832" r="2" style="fill: steelblue;"></circle><circle cx="53.39151010848582" cy="82.68200904130936" r="2" style="fill: steelblue;"></circle><circle cx="44.121522177010775" cy="54.9699442461133" r="2" style="fill: steelblue;"></circle><circle cx="32.43282735347748" cy="53.445679089054465" r="2" style="fill: steelblue;"></circle><circle cx="39.42653648555279" cy="37.100633792579174" r="2" style="fill: steelblue;"></circle><circle cx="53.918581176549196" cy="45.49480667337775" r="2" style="fill: steelblue;"></circle><circle cx="59.45536606013775" cy="41.186121478676796" r="2" style="fill: steelblue;"></circle><circle cx="66.58295094966888" cy="34.93143916130066" r="2" style="fill: steelblue;"></circle><circle cx="80.30533529818058" cy="40.88608007878065" r="2" style="fill: steelblue;"></circle><circle cx="87.7424843609333" cy="47.24749103188515" r="2" style="fill: steelblue;"></circle><circle cx="72.17873372137547" cy="28.19722816348076" r="2" style="fill: steelblue;"></circle><circle cx="72.88759686052799" cy="22.565429285168648" r="2" style="fill: steelblue;"></circle><circle cx="62.98206951469183" cy="21.039844676852226" r="2" style="fill: steelblue;"></circle><circle cx="73.53342436254025" cy="27.26386971771717" r="2" style="fill: steelblue;"></circle><circle cx="93.59425231814384" cy="21.5142622590065" r="2" style="fill: steelblue;"></circle><circle cx="28.589268401265144" cy="85.20764783024788" r="2" style="fill: steelblue;"></circle><circle cx="39.9540888145566" cy="83.37396681308746" r="2" style="fill: steelblue;"></circle><circle cx="58.48476588726044" cy="10.204534232616425" r="2" style="fill: steelblue;"></circle><circle cx="58.713750168681145" cy="9.876447916030884" r="2" style="fill: steelblue;"></circle><circle cx="62.72234506905079" cy="34.92089472711086" r="2" style="fill: steelblue;"></circle><circle cx="56.22020987793803" cy="53.3846590667963" r="2" style="fill: steelblue;"></circle><circle cx="51.435224898159504" cy="87.76995092630386" r="2" style="fill: steelblue;"></circle><circle cx="79.46476079523563" cy="22.489958629012108" r="2" style="fill: steelblue;"></circle><circle cx="82.05226361751556" cy="71.03707939386368" r="2" style="fill: steelblue;"></circle><circle cx="67.61163957417011" cy="49.91266435245052" r="2" style="fill: steelblue;"></circle><circle cx="85.33667325973511" cy="44.116044603288174" r="2" style="fill: steelblue;"></circle><circle cx="40.85105862468481" cy="59.11150500178337" r="2" style="fill: steelblue;"></circle><circle cx="70.03861218690872" cy="27.524109184741974" r="2" style="fill: steelblue;"></circle><circle cx="67.44943857192993" cy="44.537053629755974" r="2" style="fill: steelblue;"></circle><circle cx="48.34120681043714" cy="14.602328836917877" r="2" style="fill: steelblue;"></circle><circle cx="17.9814949631691" cy="66.19577407836914" r="2" style="fill: steelblue;"></circle><circle cx="12.163899093866352" cy="62.023947201669216" r="2" style="fill: steelblue;"></circle><circle cx="17.77080371975899" cy="67.86001399159431" r="2" style="fill: steelblue;"></circle><circle cx="18.790879473090175" cy="96.81795462965965" r="2" style="fill: steelblue;"></circle><circle cx="29.798397049307823" cy="69.37710680067539" r="2" style="fill: steelblue;"></circle><circle cx="50.98746898584068" cy="69.06872726976871" r="2" style="fill: steelblue;"></circle></g></svg>