<svg xmlns="http://www.w3.org/2000/svg"><rect width="200" height="200" fill="white"></rect><g><circle cx="29.540759325027466" cy="155.92598915100098" r="2" style="fill: steelblue;"></circle><circle cx="60.69957613945007" cy="119.3179339170456" r="2" style="fill: steelblue;"></circle><circle cx="119.40479725599289" cy="122.68364280462265" r="2" style="fill: steelblue;"></circle><circle cx="82.10919499397278" cy="108.0680176615715" r="2" style="fill: steelblue;"></circle><circle cx="112.76056617498398" cy="117.66193509101868" r="2" style="fill: steelblue;"></circle><circle cx="34.10390019416809" cy="152.7088761329651" r="2" style="fill: steelblue;"></circle><circle cx="99.544364400208" cy="72.6104736328125" r="2" style="fill: steelblue;"></circle><circle cx="115.84897190332413" cy="87.31953054666519" r="2" style="fill: steelblue;"></circle><circle cx="69.41529214382172" cy="111.71504482626915" r="2" style="fill: steelblue;"></circle><circle cx="69.19999122619629" cy="90.76889157295227" r="2" style="fill: steelblue;"></circle><circle cx="75.74281990528107" cy="155.91315031051636" r="2" style="fill: steelblue;"></circle><circle cx="91.09385758638382" cy="129.64744865894318" r="2" style="fill: steelblue;"></circle><circle cx="90.29463604092598" cy="182.48198628425598" r="2" style="fill: steelblue;"></circle><circle cx="46.67617082595825" cy="124.31854605674744" r="2" style="fill: steelblue;"></circle><circle cx="108.83572176098824" cy="86.01554930210114" r="2" style="fill: steelblue;"></circle><circle cx="29.53163981437683" cy="147.68075942993164" r="2" style="fill: steelblue;"></circle><circle cx="53.622815012931824" cy="144.05303597450256" r="2" style="fill: steelblue;"></circle><circle cx="134.58853363990784" cy="115.78103452920914" r="2" style="fill: steelblue;"></circle><circle cx="101.10188210383058" cy="63.07042837142944" r="2" style="fill: steelblue;"></circle><circle cx="157.826167345047" cy="81.5037488937378" r="2" style="fill: steelblue;"></circle><circle cx="99.33166084811091" cy="83.7508425116539" r="2" style="fill: steelblue;"></circle><circle cx="109.11305099725723" cy="78.08136194944382" r="2" style="fill: steelblue;"></circle><circle cx="119.67785209417343" cy="110.798729211092" r="2" style="fill: steelblue;"></circle><circle cx="57.000166177749634" cy="107.10764154791832" r="2" style="fill: steelblue;"></circle><circle cx="122.64337688684464" cy="86.50822341442108" r="2" style="fill: steelblue;"></circle><circle cx="60.16100347042084" cy="143.03799867630005" r="2" style="fill: steelblue;"></circle><circle cx="79.23955023288727" cy="140.45116007328033" r="2" style="fill: steelblue;"></circle><circle cx="79.35323864221573" cy="155.8569371700287" r="2" style="fill: steelblue;"></circle><circle cx="47.576236724853516" cy="85.8555555343628" r="2" style="fill: steelblue;"></circle><circle cx="108.7610237300396" cy="100.45546274632215" r="2" style="fill: steelblue;"></circle><circle cx="145.08269429206848" cy="18.585586547851562" r="2" style="fill: steelblue;"></circle><circle cx="143.00574660301208" cy="19.94186043739319" r="2" style="fill: steelblue;"></circle><circle cx="162.74623274803162" cy="82.3040634393692" r="2" style="fill: steelblue;"></circle><circle cx="94.89885866641998" cy="88.52421417832375" r="2" style="fill: steelblue;"></circle><circle cx="110.19947156310081" cy="82.43581354618073" r="2" style="fill: steelblue;"></circle><circle cx="83.86740237474442" cy="111.09533831477165" r="2" style="fill: steelblue;"></circle><circle cx="101.90729312598705" cy="139.97963964939117" r="2" style="fill: steelblue;"></circle><circle cx="64.82284963130951" cy="129.78314459323883" r="2" style="fill: steelblue;"></circle><circle cx="39.07608389854431" cy="124.10471439361572" r="2" style="fill: steelblue;"></circle><circle cx="42.25280284881592" cy="136.0638678073883" r="2" style="fill: steelblue;"></circle><circle cx="18.91370415687561" cy="125.26279985904694" r="2" style="fill: steelblue;"></circle><circle cx="130.31090199947357" cy="89.28976953029633" r="2" style="fill: steelblue;"></circle><circle cx="47.8277325630188" cy="66.62204563617706" r="2" style="fill: steelblue;"></circle><circle cx="125.00604689121246" cy="113.33245187997818" r="2" style="fill: steelblue;"></circle><circle cx="136.38231754302979" cy="93.68743374943733" r="2" style="fill: steelblue;"></circle><circle cx="127.56921648979187" cy="141.3397639989853" r="2" style="fill: steelblue;"></circle><circle cx="151.73389315605164" cy="69.62160766124725" r="2" style="fill: steelblue;"></circle><circle cx="54.63104844093323" cy="134.4730108976364" r="2" style="fill: steelblue;"></circle><circle cx="53.17060351371765" cy="145.15734314918518" r="2" style="fill: steelblue;"></circle><circle cx="68.99988055229187" cy="125.6983608007431" r="2" style="fill: steelblue;"></circle><circle cx="116.91694110631943" cy="131.04012310504913" r="2" style="fill: steelblue;"></circle><circle cx="146.33714854717255" cy="75.74114054441452" r="2" style="fill: steelblue;"></circle><circle cx="126.0770708322525" cy="85.66936254501343" r="2" style="fill: steelblue;"></circle><circle cx="75.50497353076935" cy="98.63613061606884" r="2" style="fill: steelblue;"></circle><circle cx="95.16856111586094" cy="115.88403135538101" r="2" style="fill: steelblue;"></circle><circle cx="109.7198136150837" cy="125.69619417190552" r="2" style="fill: steelblue;"></circle><circle cx="106.30350410938263" cy="128.36166620254517" r="2" style="fill: steelblue;"></circle><circle cx="54.04421091079712" cy="111.60429641604424" r="2" style="fill: steelblue;"></circle><circle cx="88.8358898460865" cy="135.46249270439148" r="2" style="fill: steelblue;"></circle><circle cx="77.05083936452866" cy="140.1703178882599" r="2" style="fill: steelblue;"></circle><circle cx="114.03232663869858" cy="158.7792694568634" r="2" style="fill: steelblue;"></circle><circle cx="84.04288291931152" cy="109.47982296347618" r="2" style="fill: steelblue;"></circle><circle cx="32.67391324043274" cy="153.50245237350464" r="2" style="fill: steelblue;"></circle><circle cx="31.942975521087646" cy="108.58712568879128" r="2" style="fill: steelblue;"></circle><circle cx="62.99528777599335" cy="126.10876560211182" r="2" style="fill: steelblue;"></circle><circle cx="81.01856857538223" cy="164.29778337478638" r="2" style="fill: steelblue;"></circle><circle cx="52.85221040248871" cy="96.80452384054661" r="2" style="fill: steelblue;"></circle><circle cx="81.01634979248047" cy="104.55095618963242" r="2" style="fill: steelblue;"></circle><circle cx="38.42056393623352" cy="147.56902158260345" r="2" style="fill: steelblue;"></circle><circle cx="69.89798843860626" cy="161.2219214439392" r="2" style="fill: steelblue;"></circle><circle cx="40.86424112319946" cy="53.94520163536072" r="2" style="fill: steelblue;"></circle><circle cx="105.16527034342289" cy="35.18820405006409" r="2" style="fill: steelblue;"></circle><circle cx="117.10119992494583" cy="74.84897375106812" r="2" style="fill: steelblue;"></circle><circle cx="144.54109370708466" cy="144.72602009773254" r="2" style="fill: steelblue;"></circle><circle cx="132.0667177438736" cy="109.35337916016579" r="2" style="fill: steelblue;"></circle><circle cx="68.67731213569641" cy="112.8358706831932" r="2" style="fill: steelblue;"></circle><circle cx="128.20844650268555" cy="117.03604757785797" r="2" style="fill: steelblue;"></circle><circle cx="138.6093556880951" cy="81.82727843523026" r="2" style="fill: steelblue;"></circle><circle cx="137.0095580816269" cy="63.03649544715881" r="2" style="fill: steelblue;"></circle><circle cx="154.39093708992004" cy="41.42251014709473" r="2" style="fill: steelblue;"></circle><circle cx="166.72571301460266" cy="61.69603765010834" r="2" style="fill: steelblue;"></circle><circle cx="158.38727951049805" cy="113.93635720014572" r="2" style="fill: steelblue;"></circle><circle cx="102.88958549499512" cy="96.751419454813" r="2" style="fill: steelblue;"></circle><circle cx="78.33388447761536" cy="159.7102403640747" r="2" style="fill: steelblue;"></circle><circle cx="70.2731728553772" cy="121.95092886686325" r="2" style="fill: steelblue;"></circle><circle cx="103.31694036722183" cy="136.8717908859253" r="2" style="fill: steelblue;"></circle><circle cx="86.78161948919296" cy="121.11086249351501" r="2" style="fill: steelblue;"></circle><circle cx="69.07244324684143" cy="127.13841199874878" r="2" style="fill: steelblue;"></circle><circle cx="61.109864711761475" cy="51.22717022895813" r="2" style="fill: steelblue;"></circle><circle cx="135.98717749118805" cy="134.02971625328064" r="2" style="fill: steelblue;"></circle><circle cx="123.15737903118134" cy="75.29169768095016" r="2" style="fill: steelblue;"></circle><circle cx="183.97982716560364" cy="124.0397959947586" r="2" style="fill: steelblue;"></circle><circle cx="171.41740918159485" cy="61.0691636800766" r="2" style="fill: steelblue;"></circle><circle cx="118.08044910430908" cy="60.947662591934204" r="2" style="fill: steelblue;"></circle><circle cx="119.51431035995483" cy="45.220768451690674" r="2" style="fill: steelblue;"></circle><circle cx="108.44259113073349" cy="37.94671297073364" r="2" style="fill: steelblue;"></circle><circle cx="150.6758213043213" cy="68.97996068000793" r="2" style="fill: steelblue;"></circle><circle cx="160.82406640052795" cy="78.50109785795212" r="2" style="fill: steelblue;"></circle><circle cx="121.73947095870972" cy="88.33006247878075" r="2" style="fill: steelblue;"></circle><circle cx="111.50742471218109" cy="136.31125390529633" r="2" style="fill: steelblue;"></circle><circle cx="104.5810516923666" cy="73.43079149723053" r="2" style="fill: steelblue;"></circle><circle cx="81.73001706600189" cy="75.57941675186157" r="2" style="fill: steelblue;"></circle><circle cx="111.32893338799477" cy="86.20559871196747" r="2" style="fill: steelblue;"></circle><circle cx="173.19093346595764" cy="92.05129146575928" r="2" style="fill: steelblue;"></circle><circle cx="74.04550611972809" cy="83.72947126626968" r="2" style="fill: steelblue;"></circle><circle cx="135.36517024040222" cy="34.392303228378296" r="2" style="fill: steelblue;"></circle><circle cx="144.0244495868683" cy="77.43208557367325" r="2" style="fill: steelblue;"></circle><circle cx="155.5930197238922" cy="112.51825094223022" r="2" style="fill: steelblue;"></circle><circle cx="129.6737551689148" cy="69.75280940532684" r="2" style="fill: steelblue;"></circle><circle cx="118.13419312238693" cy="113.18219751119614" r="2" style="fill: steelblue;"></circle><circle cx="164.1545832157135" cy="35.945481061935425" r="2" style="fill: steelblue;"></circle><circle cx="71.82250022888184" cy="70.4345852136612" r="2" style="fill: steelblue;"></circle><circle cx="57.03074336051941" cy="99.8408721294254" r="2" style="fill: steelblue;"></circle><circle cx="62.82018721103668" cy="124.48189109563828" r="2" style="fill: steelblue;"></circle><circle cx="103.16580645740032" cy="144.88586485385895" r="2" style="fill: steelblue;"></circle><circle cx="130.10840713977814" cy="132.4004352092743" r="2" style="fill: steelblue;"></circle><circle cx="120.08136808872223" cy="102.77204401791096" r="2" style="fill: steelblue;"></circle><circle cx="50.09171962738037" cy="144.83402371406555" r="2" style="fill: steelblue;"></circle></g></svg>