<svg xmlns="http://www.w3.org/2000/svg"><g><circle cx="40.13993516564369" cy="77.58044004440308" r="2" style="fill: steelblue;"></circle><circle cx="21.13747708499432" cy="83.08864310383797" r="2" style="fill: steelblue;"></circle><circle cx="41.410703398287296" cy="46.00776610895991" r="2" style="fill: steelblue;"></circle><circle cx="41.934376768767834" cy="70.68931795656681" r="2" style="fill: steelblue;"></circle><circle cx="31.376908719539642" cy="84.45808961987495" r="2" style="fill: steelblue;"></circle><circle cx="52.29633180424571" cy="54.58146771416068" r="2" style="fill: steelblue;"></circle><circle cx="73.84800277650356" cy="69.49357986450195" r="2" style="fill: steelblue;"></circle><circle cx="66.10059291124344" cy="94.94665190577507" r="2" style="fill: steelblue;"></circle><circle cx="63.02329171448946" cy="70.9305640310049" r="2" style="fill: steelblue;"></circle><circle cx="39.22432400286198" cy="74.44247715175152" r="2" style="fill: steelblue;"></circle><circle cx="43.52963361889124" cy="65.3768165037036" r="2" style="fill: steelblue;"></circle><circle cx="29.642115533351898" cy="38.41659352183342" r="2" style="fill: steelblue;"></circle><circle cx="62.995229102671146" cy="65.12030605226755" r="2" style="fill: steelblue;"></circle><circle cx="66.54906384646893" cy="45.166356675326824" r="2" style="fill: steelblue;"></circle><circle cx="21.29430435597897" cy="81.18217550218105" r="2" style="fill: steelblue;"></circle><circle cx="22.47245162725449" cy="69.89279501140118" r="2" style="fill: steelblue;"></circle><circle cx="52.03125877305865" cy="36.37231718748808" r="2" style="fill: steelblue;"></circle><circle cx="75.31152404844761" cy="61.53821311891079" r="2" style="fill: steelblue;"></circle><circle cx="42.33862664550543" cy="58.64052027463913" r="2" style="fill: steelblue;"></circle><circle cx="51.836681040003896" cy="20.359597355127335" r="2" style="fill: steelblue;"></circle><circle cx="45.81391690298915" cy="32.791079208254814" r="2" style="fill: steelblue;"></circle><circle cx="67.80821941792965" cy="58.91597289592028" r="2" style="fill: steelblue;"></circle><circle cx="74.24517646431923" cy="72.41372503340244" r="2" style="fill: steelblue;"></circle><circle cx="14.118011295795444" cy="71.6424223035574" r="2" style="fill: steelblue;"></circle><circle cx="25.759651511907578" cy="78.87346781790257" r="2" style="fill: steelblue;"></circle><circle cx="19.22787092626095" cy="91.88553616404533" r="2" style="fill: steelblue;"></circle><circle cx="45.346732437610626" cy="72.48559705913067" r="2" style="fill: steelblue;"></circle><circle cx="21.943249925971035" cy="47.213190887123346" r="2" style="fill: steelblue;"></circle><circle cx="34.483253210783005" cy="89.7484302520752" r="2" style="fill: steelblue;"></circle><circle cx="81.4960852265358" cy="52.43528978899121" r="2" style="fill: steelblue;"></circle><circle cx="41.99958052486181" cy="23.302213475108147" r="2" style="fill: steelblue;"></circle><circle cx="57.946169935166836" cy="11.006801575422287" r="2" style="fill: steelblue;"></circle><circle cx="68.23710091412067" cy="31.476308777928352" r="2" style="fill: steelblue;"></circle><circle cx="55.351061932742596" cy="30.441562831401825" r="2" style="fill: steelblue;"></circle><circle cx="79.34523485600948" cy="34.63447391986847" r="2" style="fill: steelblue;"></circle><circle cx="34.82839949429035" cy="24.934251978993416" r="2" style="fill: steelblue;"></circle><circle cx="52.063336316496134" cy="32.99491964280605" r="2" style="fill: steelblue;"></circle><circle cx="0.3024742007255582" cy="56.68053422123194" r="2" style="fill: steelblue;"></circle><circle cx="13.87368813157082" cy="80.60822375118732" r="2" style="fill: steelblue;"></circle><circle cx="31.005588546395302" cy="80.88119998574257" r="2" style="fill: steelblue;"></circle><circle cx="7.258123904466632" cy="49.74232498789206" r="2" style="fill: steelblue;"></circle><circle cx="71.92235924303532" cy="67.09864102303982" r="2" style="fill: steelblue;"></circle><circle cx="77.5073479861021" cy="7.554027438163757" r="2" style="fill: steelblue;"></circle><circle cx="50.38677331758663" cy="38.13140857964754" r="2" style="fill: steelblue;"></circle><circle cx="58.318773470818996" cy="28.508522734045982" r="2" style="fill: steelblue;"></circle><circle cx="60.702140629291534" cy="56.97162002325058" r="2" style="fill: steelblue;"></circle><circle cx="63.45237623900175" cy="47.148556634783745" r="2" style="fill: steelblue;"></circle><circle cx="5.1159404218196896" cy="17.317640781402588" r="2" style="fill: steelblue;"></circle><circle cx="55.66911231726408" cy="72.57445640861988" r="2" style="fill: steelblue;"></circle><circle cx="44.920533150434494" cy="69.04641464352608" r="2" style="fill: steelblue;"></circle><circle cx="50.336524564772844" cy="44.75247412919998" r="2" style="fill: steelblue;"></circle><circle cx="60.70739142596722" cy="42.96101462095976" r="2" style="fill: steelblue;"></circle><circle cx="27.229276672005653" cy="32.843879610300064" r="2" style="fill: steelblue;"></circle><circle cx="20.551796257495884" cy="23.06292876601219" r="2" style="fill: steelblue;"></circle><circle cx="36.256605945527554" cy="62.92975526303053" r="2" style="fill: steelblue;"></circle><circle cx="1.6530409455299404" cy="92.39742457866669" r="2" style="fill: steelblue;"></circle><circle cx="37.92556952685118" cy="89.85398262739182" r="2" style="fill: steelblue;"></circle><circle cx="44.59347827360034" cy="43.62554680556059" r="2" style="fill: steelblue;"></circle><circle cx="52.88381869904697" cy="68.40764097869396" r="2" style="fill: steelblue;"></circle><circle cx="56.55291462317109" cy="59.48419887572527" r="2" style="fill: steelblue;"></circle><circle cx="38.13251685351133" cy="54.31725289672613" r="2" style="fill: steelblue;"></circle><circle cx="49.02234657201916" cy="16.80682897567749" r="2" style="fill: steelblue;"></circle><circle cx="22.87085093557835" cy="90.20705819129944" r="2" style="fill: steelblue;"></circle><circle cx="2.321544289588931" cy="77.548773214221" r="2" style="fill: steelblue;"></circle><circle cx="10.947629064321521" cy="46.211242163553834" r="2" style="fill: steelblue;"></circle><circle cx="29.92471419274807" cy="35.92085298150778" r="2" style="fill: steelblue;"></circle><circle cx="3.9655707776546505" cy="53.46525595523417" r="2" style="fill: steelblue;"></circle><circle cx="11.777597665786747" cy="85.79817712306976" r="2" style="fill: steelblue;"></circle><circle cx="46.1834114510566" cy="91.18255153298378" r="2" style="fill: steelblue;"></circle><circle cx="17.2628790140152" cy="52.80070002190769" r="2" style="fill: steelblue;"></circle><circle cx="73.59387651085854" cy="77.89943479001522" r="2" style="fill: steelblue;"></circle><circle cx="96.83225974440575" cy="21.42530232667923" r="2" style="fill: steelblue;"></circle><circle cx="93.12372952699661" cy="39.25166390836239" r="2" style="fill: steelblue;"></circle><circle cx="54.34363167732954" cy="24.41021353006363" r="2" style="fill: steelblue;"></circle><circle cx="83.90581905841827" cy="32.722366228699684" r="2" style="fill: steelblue;"></circle><circle cx="26.68212465941906" cy="50.414537702454254" r="2" style="fill: steelblue;"></circle><circle cx="81.19284100830555" cy="24.423019215464592" r="2" style="fill: steelblue;"></circle><circle cx="73.47132004797459" cy="29.431448504328728" r="2" style="fill: steelblue;"></circle><circle cx="64.45701345801353" cy="44.70738787204027" r="2" style="fill: steelblue;"></circle><circle cx="87.56362199783325" cy="50.66879071528092" r="2" style="fill: steelblue;"></circle><circle cx="41.69659707695246" cy="52.9652351513505" r="2" style="fill: steelblue;"></circle><circle cx="82.89661929011345" cy="18.25386956334114" r="2" style="fill: steelblue;"></circle><circle cx="27.26118005812168" cy="30.532577261328697" r="2" style="fill: steelblue;"></circle><circle cx="17.317990958690647" cy="76.15582570433617" r="2" style="fill: steelblue;"></circle><circle cx="45.0300557538867" cy="86.41025349497795" r="2" style="fill: steelblue;"></circle><circle cx="46.554320910945535" cy="65.67558757960796" r="2" style="fill: steelblue;"></circle><circle cx="62.899366207420826" cy="65.21840691566467" r="2" style="fill: steelblue;"></circle><circle cx="54.50519332662225" cy="32.28994198143482" r="2" style="fill: steelblue;"></circle><circle cx="58.813878521323204" cy="66.55851118266582" r="2" style="fill: steelblue;"></circle><circle cx="65.06856083869934" cy="36.01116985082626" r="2" style="fill: steelblue;"></circle><circle cx="59.11391992121935" cy="30.06589151918888" r="2" style="fill: steelblue;"></circle><circle cx="52.75250896811485" cy="32.428908348083496" r="2" style="fill: steelblue;"></circle><circle cx="71.80277183651924" cy="33.923157677054405" r="2" style="fill: steelblue;"></circle><circle cx="77.43457071483135" cy="19.65048275887966" r="2" style="fill: steelblue;"></circle><circle cx="78.96015532314777" cy="27.018361911177635" r="2" style="fill: steelblue;"></circle><circle cx="72.73613028228283" cy="10.569661110639572" r="2" style="fill: steelblue;"></circle><circle cx="78.4857377409935" cy="14.79964628815651" r="2" style="fill: steelblue;"></circle><circle cx="14.792352169752125" cy="26.955857127904892" r="2" style="fill: steelblue;"></circle><circle cx="16.62603318691254" cy="42.898677475750446" r="2" style="fill: steelblue;"></circle><circle cx="89.79546576738358" cy="32.57138952612877" r="2" style="fill: steelblue;"></circle><circle cx="90.12355208396912" cy="9.10276472568512" r="2" style="fill: steelblue;"></circle><circle cx="65.07910527288914" cy="41.07368569821119" r="2" style="fill: steelblue;"></circle><circle cx="46.6153409332037" cy="25.58223269879818" r="2" style="fill: steelblue;"></circle><circle cx="12.23004907369614" cy="56.471555680036545" r="2" style="fill: steelblue;"></circle><circle cx="77.51004137098789" cy="55.433146841824055" r="2" style="fill: steelblue;"></circle><circle cx="28.962920606136322" cy="41.760740987956524" r="2" style="fill: steelblue;"></circle><circle cx="50.08733564754948" cy="44.224244728684425" r="2" style="fill: steelblue;"></circle><circle cx="55.883955396711826" cy="57.44088180363178" r="2" style="fill: steelblue;"></circle><circle cx="40.88849499821663" cy="39.222520031034946" r="2" style="fill: steelblue;"></circle><circle cx="72.47589081525803" cy="40.45582674443722" r="2" style="fill: steelblue;"></circle><circle cx="55.462946370244026" cy="18.831760808825493" r="2" style="fill: steelblue;"></circle><circle cx="85.39767116308212" cy="31.837155297398567" r="2" style="fill: steelblue;"></circle><circle cx="33.80422592163086" cy="53.50999762304127" r="2" style="fill: steelblue;"></circle><circle cx="37.976052798330784" cy="81.00286424160004" r="2" style="fill: steelblue;"></circle><circle cx="32.139986008405685" cy="90.13680294156075" r="2" style="fill: steelblue;"></circle><circle cx="3.18204537034035" cy="39.684549160301685" r="2" style="fill: steelblue;"></circle><circle cx="30.622893199324608" cy="82.22401812672615" r="2" style="fill: steelblue;"></circle><circle cx="30.931272730231285" cy="45.22757297381759" r="2" style="fill: steelblue;"></circle></g></svg>