<svg xmlns="http://www.w3.org/2000/svg"><g transform="translate(40,20)"><circle cx="431.36942625045776" cy="193.98484374396503" r="3" style="fill: steelblue;"></circle><circle cx="348.7976217269898" cy="66.89155492931604" r="3" style="fill: steelblue;"></circle><circle cx="349.7120136022568" cy="19.662470743060112" r="3" style="fill: steelblue;"></circle><circle cx="185.76553702354434" cy="101.01711302995682" r="3" style="fill: steelblue;"></circle><circle cx="294.1421502828598" cy="249.2130558937788" r="3" style="fill: steelblue;"></circle><circle cx="424.4033718109131" cy="7.954848185181618" r="3" style="fill: steelblue;"></circle><circle cx="342.68349051475525" cy="127.18215836212039" r="3" style="fill: steelblue;"></circle><circle cx="263.71619269251823" cy="120.4800090752542" r="3" style="fill: steelblue;"></circle><circle cx="267.6593081653118" cy="91.02918598800898" r="3" style="fill: steelblue;"></circle><circle cx="369.78047132492065" cy="172.37603653920814" r="3" style="fill: steelblue;"></circle><circle cx="243.07968920096755" cy="280.02192191779613" r="3" style="fill: steelblue;"></circle><circle cx="260.06693333387375" cy="231.92556779831648" r="3" style="fill: steelblue;"></circle><circle cx="166.05915516614914" cy="53.60635668039322" r="3" style="fill: steelblue;"></circle><circle cx="324.08249616622925" cy="181.07307715108618" r="3" style="fill: steelblue;"></circle><circle cx="288.2930079102516" cy="92.57589299231768" r="3" style="fill: steelblue;"></circle><circle cx="255.47902487218383" cy="44.105855002999306" r="3" style="fill: steelblue;"></circle><circle cx="242.9797243885696" cy="294.5753701031208" r="3" style="fill: steelblue;"></circle><circle cx="304.25308138132095" cy="20.028279349207878" r="3" style="fill: steelblue;"></circle><circle cx="326.3139599561691" cy="107.12413229048252" r="3" style="fill: steelblue;"></circle><circle cx="428.43632340431213" cy="173.04240392404608" r="3" style="fill: steelblue;"></circle><circle cx="194.29940074682236" cy="53.304606303572655" r="3" style="fill: steelblue;"></circle><circle cx="125.9509527683258" cy="245.493851788342" r="3" style="fill: steelblue;"></circle><circle cx="297.64484256505966" cy="212.58255764842033" r="3" style="fill: steelblue;"></circle><circle cx="386.5099632740021" cy="113.21847159415483" r="3" style="fill: steelblue;"></circle><circle cx="215.19817650318146" cy="188.76611576415598" r="3" style="fill: steelblue;"></circle><circle cx="141.32957696914673" cy="288.0853835493326" r="3" style="fill: steelblue;"></circle><circle cx="139.6068924665451" cy="154.484299197793" r="3" style="fill: steelblue;"></circle><circle cx="323.54359567165375" cy="121.64617720991373" r="3" style="fill: steelblue;"></circle><circle cx="350.89550256729126" cy="78.30156031996012" r="3" style="fill: steelblue;"></circle><circle cx="378.42068016529083" cy="205.1846112124622" r="3" style="fill: steelblue;"></circle><circle cx="274.77584570646286" cy="167.3594230785966" r="3" style="fill: steelblue;"></circle><circle cx="215.78342109918594" cy="216.98804404586554" r="3" style="fill: steelblue;"></circle><circle cx="393.85776758193975" cy="246.06720097362995" r="3" style="fill: steelblue;"></circle><circle cx="116.74394845962526" cy="236.89283169806004" r="3" style="fill: steelblue;"></circle><circle cx="251.43247559666634" cy="186.06360624544322" r="3" style="fill: steelblue;"></circle><circle cx="225.0703876465559" cy="138.60267279669642" r="3" style="fill: steelblue;"></circle><circle cx="62.006106376647956" cy="215.96323950216174" r="3" style="fill: steelblue;"></circle><circle cx="219.92453947663307" cy="194.82243149541318" r="3" style="fill: steelblue;"></circle><circle cx="324.6595376729965" cy="211.72801982611418" r="3" style="fill: steelblue;"></circle><circle cx="261.1225390434265" cy="179.71827876754105" r="3" style="fill: steelblue;"></circle><circle cx="144.70674633979797" cy="310.32159477472305" r="3" style="fill: steelblue;"></circle><circle cx="231.80465452373028" cy="314.37104493379593" r="3" style="fill: steelblue;"></circle><circle cx="166.8634915351868" cy="171.5020774397999" r="3" style="fill: steelblue;"></circle><circle cx="168.7180691957474" cy="229.22593653202057" r="3" style="fill: steelblue;"></circle><circle cx="172.4933186173439" cy="144.54307286068797" r="3" style="fill: steelblue;"></circle><circle cx="254.58428911864758" cy="194.8210934177041" r="3" style="fill: steelblue;"></circle><circle cx="275.5385921895504" cy="138.01329927518964" r="3" style="fill: steelblue;"></circle><circle cx="118.64747643470764" cy="185.5108937714249" r="3" style="fill: steelblue;"></circle><circle cx="367.4148166179657" cy="147.93372428976" r="3" style="fill: steelblue;"></circle><circle cx="178.28969299793246" cy="227.77129774913192" r="3" style="fill: steelblue;"></circle><circle cx="329.5131558179856" cy="223.2637328095734" r="3" style="fill: steelblue;"></circle><circle cx="305.6798243522644" cy="91.6456013917923" r="3" style="fill: steelblue;"></circle><circle cx="261.3422544300556" cy="206.17431281134486" r="3" style="fill: steelblue;"></circle><circle cx="63.8569736480713" cy="252.15569250285625" r="3" style="fill: steelblue;"></circle><circle cx="71.2654495239258" cy="159.74122839979827" r="3" style="fill: steelblue;"></circle><circle cx="165.03181546926498" cy="273.84246718138456" r="3" style="fill: steelblue;"></circle><circle cx="228.7767802923918" cy="134.97490780428052" r="3" style="fill: steelblue;"></circle><circle cx="171.5987527370453" cy="191.87663793563843" r="3" style="fill: steelblue;"></circle><circle cx="154.20660316944122" cy="225.66147027537227" r="3" style="fill: steelblue;"></circle><circle cx="309.71518099308014" cy="195.21900448016822" r="3" style="fill: steelblue;"></circle><circle cx="113.75560104846956" cy="85.99888738244772" r="3" style="fill: steelblue;"></circle><circle cx="345.8172047138214" cy="157.80493053607643" r="3" style="fill: steelblue;"></circle><circle cx="226.99266873300076" cy="61.58023066818714" r="3" style="fill: steelblue;"></circle><circle cx="392.8524219989777" cy="59.191861376166344" r="3" style="fill: steelblue;"></circle><circle cx="297.9501673579216" cy="71.0803933441639" r="3" style="fill: steelblue;"></circle><circle cx="317.32453644275665" cy="60.58164983987808" r="3" style="fill: steelblue;"></circle><circle cx="178.9759674668312" cy="247.4229197949171" r="3" style="fill: steelblue;"></circle><circle cx="339.2795526981354" cy="61.5987453609705" r="3" style="fill: steelblue;"></circle><circle cx="499.2885732650757" cy="191.93930104374886" r="3" style="fill: steelblue;"></circle><circle cx="272.31799453496933" cy="185.87502937298268" r="3" style="fill: steelblue;"></circle><circle cx="376.5344077348709" cy="126.42189878970385" r="3" style="fill: steelblue;"></circle><circle cx="269.30842861533165" cy="301.6103535890579" r="3" style="fill: steelblue;"></circle><circle cx="313.1167942285538" cy="171.76672264467925" r="3" style="fill: steelblue;"></circle><circle cx="352.6793771982193" cy="225.21257046610117" r="3" style="fill: steelblue;"></circle><circle cx="192.96943634748462" cy="261.6726031526923" r="3" style="fill: steelblue;"></circle><circle cx="205.30747041106227" cy="213.4124657139182" r="3" style="fill: steelblue;"></circle><circle cx="167.51123160123825" cy="268.31854339689016" r="3" style="fill: steelblue;"></circle><circle cx="128.0721598863602" cy="234.1570120304823" r="3" style="fill: steelblue;"></circle><circle cx="109.91372108459474" cy="288.1880749017" r="3" style="fill: steelblue;"></circle><circle cx="124.23010110855103" cy="263.4941490367055" r="3" style="fill: steelblue;"></circle><circle cx="160.9201276302338" cy="154.74079614505172" r="3" style="fill: steelblue;"></circle><circle cx="361.6910809278488" cy="199.91243020631373" r="3" style="fill: steelblue;"></circle><circle cx="163.35110306739807" cy="260.75794473290443" r="3" style="fill: steelblue;"></circle><circle cx="314.38752204179764" cy="183.3922432968393" r="3" style="fill: steelblue;"></circle><circle cx="138.0611085891724" cy="180.97088370705023" r="3" style="fill: steelblue;"></circle><circle cx="337.6993292570114" cy="97.95258585363626" r="3" style="fill: steelblue;"></circle><circle cx="271.58094361424446" cy="116.72996561974287" r="3" style="fill: steelblue;"></circle><circle cx="331.98930859565735" cy="167.7100467029959" r="3" style="fill: steelblue;"></circle><circle cx="331.40911996364594" cy="112.00085021555424" r="3" style="fill: steelblue;"></circle><circle cx="378.60938251018524" cy="144.36619887128472" r="3" style="fill: steelblue;"></circle><circle cx="401.96526288986206" cy="142.4739157781005" r="3" style="fill: steelblue;"></circle><circle cx="361.2052345275879" cy="125.81352815032005" r="3" style="fill: steelblue;"></circle><circle cx="349.0073347091675" cy="279.8246491700411" r="3" style="fill: steelblue;"></circle><circle cx="274.41383466124535" cy="46.95800431072712" r="3" style="fill: steelblue;"></circle><circle cx="160.67164778709414" cy="286.20778508484364" r="3" style="fill: steelblue;"></circle><circle cx="288.19948822259903" cy="185.38631971459836" r="3" style="fill: steelblue;"></circle><circle cx="176.11120730638504" cy="105.87471649050713" r="3" style="fill: steelblue;"></circle><circle cx="83.9286231994629" cy="97.33635298907757" r="3" style="fill: steelblue;"></circle><circle cx="152.08052337169647" cy="188.78705073148012" r="3" style="fill: steelblue;"></circle><circle cx="363.4935700893402" cy="234.91550162434578" r="3" style="fill: steelblue;"></circle><circle cx="194.05147969722748" cy="157.2408827021718" r="3" style="fill: steelblue;"></circle><circle cx="218.56059595942497" cy="221.99824703857303" r="3" style="fill: steelblue;"></circle><circle cx="174.22840833663943" cy="316.28846302628517" r="3" style="fill: steelblue;"></circle><circle cx="132.44726300239563" cy="270.29641456902027" r="3" style="fill: steelblue;"></circle><circle cx="127.26636171340944" cy="138.89902848750353" r="3" style="fill: steelblue;"></circle><circle cx="174.1832399368286" cy="311.2788174301386" r="3" style="fill: steelblue;"></circle><circle cx="362.1015751361847" cy="120.81200880929828" r="3" style="fill: steelblue;"></circle><circle cx="258.2647727429867" cy="16.32583625614643" r="3" style="fill: steelblue;"></circle><circle cx="288.43453019857407" cy="174.85659590674913" r="3" style="fill: steelblue;"></circle><circle cx="335.73715031147003" cy="142.7800014615059" r="3" style="fill: steelblue;"></circle><circle cx="424.0862452983856" cy="72.39442151039839" r="3" style="fill: steelblue;"></circle><circle cx="320.4642409086228" cy="162.19020967837423" r="3" style="fill: steelblue;"></circle><circle cx="59.57411170005799" cy="211.4124388433993" r="3" style="fill: steelblue;"></circle><circle cx="237.89125523529947" cy="147.65153983607888" r="3" style="fill: steelblue;"></circle><circle cx="162.4065899848938" cy="265.6403409317136" r="3" style="fill: steelblue;"></circle><circle cx="200.31062453985217" cy="330.5458065122366" r="3" style="fill: steelblue;"></circle><circle cx="241.0009609395638" cy="163.63562534097582" r="3" style="fill: steelblue;"></circle><circle cx="240.03805607557297" cy="196.00132685154676" r="3" style="fill: steelblue;"></circle></g></svg>