<svg xmlns="http://www.w3.org/2000/svg"><g><circle cx="5.1765335930718335" cy="77.96299457550049" r="2" style="fill: steelblue;"></circle><circle cx="24.89490078555213" cy="59.6589669585228" r="2" style="fill: steelblue;"></circle><circle cx="8.867216772503324" cy="61.341821402311325" r="2" style="fill: steelblue;"></circle><circle cx="20.421355300479465" cy="54.03400883078575" r="2" style="fill: steelblue;"></circle><circle cx="22.740778989262054" cy="58.83096754550934" r="2" style="fill: steelblue;"></circle><circle cx="23.782567183176678" cy="76.35443806648254" r="2" style="fill: steelblue;"></circle><circle cx="46.057649950186416" cy="36.30523681640625" r="2" style="fill: steelblue;"></circle><circle cx="5.236091878679066" cy="43.659765273332596" r="2" style="fill: steelblue;"></circle><circle cx="56.64528095059925" cy="55.857522413134575" r="2" style="fill: steelblue;"></circle><circle cx="29.35114767816332" cy="45.384445786476135" r="2" style="fill: steelblue;"></circle><circle cx="31.445591151714325" cy="77.95657515525818" r="2" style="fill: steelblue;"></circle><circle cx="39.24945592880249" cy="64.82372432947159" r="2" style="fill: steelblue;"></circle><circle cx="71.37201825777689" cy="91.24099314212799" r="2" style="fill: steelblue;"></circle><circle cx="6.31963478194343" cy="62.15927302837372" r="2" style="fill: steelblue;"></circle><circle cx="54.67620839675268" cy="43.00777465105057" r="2" style="fill: steelblue;"></circle><circle cx="22.192047039667766" cy="73.84037971496582" r="2" style="fill: steelblue;"></circle><circle cx="19.045615527364944" cy="72.02651798725128" r="2" style="fill: steelblue;"></circle><circle cx="19.748771521780228" cy="57.89051726460457" r="2" style="fill: steelblue;"></circle><circle cx="67.17762119240231" cy="31.53521418571472" r="2" style="fill: steelblue;"></circle><circle cx="51.24930847022269" cy="40.7518744468689" r="2" style="fill: steelblue;"></circle><circle cx="40.859973844554695" cy="41.87542125582695" r="2" style="fill: steelblue;"></circle><circle cx="45.72455663647917" cy="39.04068097472191" r="2" style="fill: steelblue;"></circle><circle cx="54.07492584652371" cy="55.399364605546" r="2" style="fill: steelblue;"></circle><circle cx="38.20766607920329" cy="53.55382077395916" r="2" style="fill: steelblue;"></circle><circle cx="9.051580561531917" cy="43.25411170721054" r="2" style="fill: steelblue;"></circle><circle cx="7.500839895672271" cy="71.51899933815002" r="2" style="fill: steelblue;"></circle><circle cx="21.945270564821033" cy="70.22558003664017" r="2" style="fill: steelblue;"></circle><circle cx="33.45068064000872" cy="77.92846858501434" r="2" style="fill: steelblue;"></circle><circle cx="32.87539316548242" cy="42.9277777671814" r="2" style="fill: steelblue;"></circle><circle cx="51.56127876705594" cy="50.22773137316108" r="2" style="fill: steelblue;"></circle><circle cx="70.29902868800694" cy="9.292793273925781" r="2" style="fill: steelblue;"></circle><circle cx="53.83405105935203" cy="9.970930218696594" r="2" style="fill: steelblue;"></circle><circle cx="71.66254950894249" cy="41.1520317196846" r="2" style="fill: steelblue;"></circle><circle cx="61.09557814068265" cy="44.26210708916187" r="2" style="fill: steelblue;"></circle><circle cx="56.64589603741964" cy="41.21790677309036" r="2" style="fill: steelblue;"></circle><circle cx="8.19483002026876" cy="55.547669157385826" r="2" style="fill: steelblue;"></circle><circle cx="16.509979301028785" cy="69.98981982469559" r="2" style="fill: steelblue;"></circle><circle cx="65.70867465602028" cy="64.89157229661942" r="2" style="fill: steelblue;"></circle><circle cx="30.0664183166292" cy="62.05235719680786" r="2" style="fill: steelblue;"></circle><circle cx="62.73869441615211" cy="68.03193390369415" r="2" style="fill: steelblue;"></circle><circle cx="34.96621400117874" cy="62.63139992952347" r="2" style="fill: steelblue;"></circle><circle cx="72.80642721388075" cy="44.64488476514816" r="2" style="fill: steelblue;"></circle><circle cx="63.92825742562612" cy="33.31102281808853" r="2" style="fill: steelblue;"></circle><circle cx="63.954697052637734" cy="56.66622593998909" r="2" style="fill: steelblue;"></circle><circle cx="54.624004662036896" cy="46.843716874718666" r="2" style="fill: steelblue;"></circle><circle cx="37.94861104753283" cy="70.66988199949265" r="2" style="fill: steelblue;"></circle><circle cx="56.57409396436479" cy="34.81080383062363" r="2" style="fill: steelblue;"></circle><circle cx="14.113014936447147" cy="67.2365054488182" r="2" style="fill: steelblue;"></circle><circle cx="6.895601087146337" cy="72.57867157459259" r="2" style="fill: steelblue;"></circle><circle cx="19.502610961596172" cy="62.84918040037155" r="2" style="fill: steelblue;"></circle><circle cx="55.140454073747" cy="65.52006155252457" r="2" style="fill: steelblue;"></circle><circle cx="37.01236860619651" cy="37.87057027220726" r="2" style="fill: steelblue;"></circle><circle cx="21.567776136928135" cy="42.834681272506714" r="2" style="fill: steelblue;"></circle><circle cx="38.605978257126274" cy="49.31806530803442" r="2" style="fill: steelblue;"></circle><circle cx="53.540783789422775" cy="57.942015677690506" r="2" style="fill: steelblue;"></circle><circle cx="33.32521534628338" cy="62.84809708595276" r="2" style="fill: steelblue;"></circle><circle cx="11.546203825208877" cy="64.18083310127258" r="2" style="fill: steelblue;"></circle><circle cx="41.3460623472929" cy="55.80214820802212" r="2" style="fill: steelblue;"></circle><circle cx="28.70036926534441" cy="67.73124635219574" r="2" style="fill: steelblue;"></circle><circle cx="31.195321182409923" cy="70.08515894412994" r="2" style="fill: steelblue;"></circle><circle cx="63.00706929630704" cy="79.3896347284317" r="2" style="fill: steelblue;"></circle><circle cx="73.47629070281982" cy="54.73991148173809" r="2" style="fill: steelblue;"></circle><circle cx="10.117748710844253" cy="76.75122618675232" r="2" style="fill: steelblue;"></circle><circle cx="1.1439614825778563" cy="54.29356284439564" r="2" style="fill: steelblue;"></circle><circle cx="10.393728150261774" cy="63.05438280105591" r="2" style="fill: steelblue;"></circle><circle cx="2.2410743766360834" cy="82.14889168739319" r="2" style="fill: steelblue;"></circle><circle cx="48.74586785833041" cy="48.402261920273304" r="2" style="fill: steelblue;"></circle><circle cx="27.97979381349352" cy="52.27547809481621" r="2" style="fill: steelblue;"></circle><circle cx="46.21445900864071" cy="73.78451079130173" r="2" style="fill: steelblue;"></circle><circle cx="23.387241032388477" cy="80.6109607219696" r="2" style="fill: steelblue;"></circle><circle cx="11.965926488240562" cy="26.97260081768036" r="2" style="fill: steelblue;"></circle><circle cx="69.84979179170396" cy="17.594102025032043" r="2" style="fill: steelblue;"></circle><circle cx="50.56806546118524" cy="37.42448687553406" r="2" style="fill: steelblue;"></circle><circle cx="63.064178824424744" cy="72.36301004886627" r="2" style="fill: steelblue;"></circle><circle cx="72.67478373315599" cy="54.67668958008289" r="2" style="fill: steelblue;"></circle><circle cx="37.901121046808036" cy="56.4179353415966" r="2" style="fill: steelblue;"></circle><circle cx="46.63975511988004" cy="58.518023788928986" r="2" style="fill: steelblue;"></circle><circle cx="68.8175982899136" cy="40.91363921761513" r="2" style="fill: steelblue;"></circle><circle cx="80.53730196423001" cy="31.518247723579407" r="2" style="fill: steelblue;"></circle><circle cx="18.514106008741592" cy="20.711255073547363" r="2" style="fill: steelblue;"></circle><circle cx="91.97492334577773" cy="30.84801882505417" r="2" style="fill: steelblue;"></circle><circle cx="75.57312581274245" cy="56.96817860007286" r="2" style="fill: steelblue;"></circle><circle cx="45.95065795713001" cy="48.3757097274065" r="2" style="fill: steelblue;"></circle><circle cx="65.08841547701094" cy="79.85512018203735" r="2" style="fill: steelblue;"></circle><circle cx="7.4041081799401205" cy="60.975464433431625" r="2" style="fill: steelblue;"></circle><circle cx="23.374684320555794" cy="68.43589544296265" r="2" style="fill: steelblue;"></circle><circle cx="34.3765667743153" cy="60.55543124675751" r="2" style="fill: steelblue;"></circle><circle cx="67.70790053738487" cy="63.56920599937439" r="2" style="fill: steelblue;"></circle><circle cx="31.41499741209878" cy="25.613585114479065" r="2" style="fill: steelblue;"></circle><circle cx="94.13756529490152" cy="67.01485812664032" r="2" style="fill: steelblue;"></circle><circle cx="79.48399517271254" cy="37.64584884047508" r="2" style="fill: steelblue;"></circle><circle cx="77.6839878824022" cy="62.0198979973793" r="2" style="fill: steelblue;"></circle><circle cx="87.66951759656271" cy="30.5345818400383" r="2" style="fill: steelblue;"></circle><circle cx="53.72821059491899" cy="30.473831295967102" r="2" style="fill: steelblue;"></circle><circle cx="58.8644802570343" cy="22.610384225845337" r="2" style="fill: steelblue;"></circle><circle cx="75.72275002797446" cy="18.97335648536682" r="2" style="fill: steelblue;"></circle><circle cx="83.03024967511496" cy="34.48998034000397" r="2" style="fill: steelblue;"></circle><circle cx="41.39731406337685" cy="39.25054892897606" r="2" style="fill: steelblue;"></circle><circle cx="19.099834230211048" cy="44.16503123939037" r="2" style="fill: steelblue;"></circle><circle cx="67.22830832004547" cy="68.15562695264816" r="2" style="fill: steelblue;"></circle><circle cx="35.15113741159439" cy="36.715395748615265" r="2" style="fill: steelblue;"></circle><circle cx="58.51631462574005" cy="37.789708375930786" r="2" style="fill: steelblue;"></circle><circle cx="63.41206298934089" cy="43.102799355983734" r="2" style="fill: steelblue;"></circle><circle cx="55.03198934925927" cy="46.02564573287964" r="2" style="fill: steelblue;"></circle><circle cx="56.9945815536711" cy="41.86473563313484" r="2" style="fill: steelblue;"></circle><circle cx="62.282260258992515" cy="17.196151614189148" r="2" style="fill: steelblue;"></circle><circle cx="65.16723599698808" cy="38.716042786836624" r="2" style="fill: steelblue;"></circle><circle cx="41.36372829476993" cy="56.25912547111511" r="2" style="fill: steelblue;"></circle><circle cx="62.41334742969937" cy="34.87640470266342" r="2" style="fill: steelblue;"></circle><circle cx="66.57117207845053" cy="56.59109875559807" r="2" style="fill: steelblue;"></circle><circle cx="61.72122657299042" cy="17.972740530967712" r="2" style="fill: steelblue;"></circle><circle cx="34.16183690230052" cy="35.2172926068306" r="2" style="fill: steelblue;"></circle><circle cx="34.15475388367971" cy="49.9204360647127" r="2" style="fill: steelblue;"></circle><circle cx="54.519495368003845" cy="62.24094554781914" r="2" style="fill: steelblue;"></circle><circle cx="30.824113388856254" cy="72.44293242692947" r="2" style="fill: steelblue;"></circle><circle cx="16.853439476754932" cy="66.20021760463715" r="2" style="fill: steelblue;"></circle><circle cx="37.35419048203363" cy="51.38602200895548" r="2" style="fill: steelblue;"></circle><circle cx="51.67142318354713" cy="72.41701185703278" r="2" style="fill: steelblue;"></circle></g></svg>