<svg xmlns="http://www.w3.org/2000/svg"><g><circle cx="18.77364441752434" cy="87.34838590025902" r="2" style="fill: steelblue;"></circle><circle cx="10.092175751924518" cy="88.91583159565926" r="2" style="fill: steelblue;"></circle><circle cx="27.72262617945671" cy="59.20906011015177" r="2" style="fill: steelblue;"></circle><circle cx="8.122126758098606" cy="65.92571288347244" r="2" style="fill: steelblue;"></circle><circle cx="21.546959131956104" cy="75.12067183852196" r="2" style="fill: steelblue;"></circle><circle cx="22.679667174816135" cy="89.68626260757446" r="2" style="fill: steelblue;"></circle><circle cx="42.12454725056887" cy="59.455129504203796" r="2" style="fill: steelblue;"></circle><circle cx="52.482656855136156" cy="13.272728025913239" r="2" style="fill: steelblue;"></circle><circle cx="24.81712512671948" cy="32.06811770796776" r="2" style="fill: steelblue;"></circle><circle cx="16.491784900426868" cy="50.021686777472496" r="2" style="fill: steelblue;"></circle><circle cx="23.789775744080547" cy="60.51867287606001" r="2" style="fill: steelblue;"></circle><circle cx="45.28168747201562" cy="81.09368868172169" r="2" style="fill: steelblue;"></circle><circle cx="23.925661295652393" cy="43.56872122734785" r="2" style="fill: steelblue;"></circle><circle cx="45.87369570508599" cy="29.751376435160637" r="2" style="fill: steelblue;"></circle><circle cx="24.52282160520554" cy="50.82286534598097" r="2" style="fill: steelblue;"></circle><circle cx="65.02355560660362" cy="44.53390669077635" r="2" style="fill: steelblue;"></circle><circle cx="42.20682540908456" cy="73.48189987242222" r="2" style="fill: steelblue;"></circle><circle cx="43.2642444036901" cy="71.99985459446907" r="2" style="fill: steelblue;"></circle><circle cx="40.58154411613941" cy="32.74998553097248" r="2" style="fill: steelblue;"></circle><circle cx="59.237853810191154" cy="61.94294076412916" r="2" style="fill: steelblue;"></circle><circle cx="70.09104192256927" cy="45.383049827069044" r="2" style="fill: steelblue;"></circle><circle cx="86.59239411354065" cy="59.52615309506655" r="2" style="fill: steelblue;"></circle><circle cx="59.1544222086668" cy="56.50798389688134" r="2" style="fill: steelblue;"></circle><circle cx="37.10161913186312" cy="49.63642182410695" r="2" style="fill: steelblue;"></circle><circle cx="55.01941051334143" cy="38.554769195616245" r="2" style="fill: steelblue;"></circle><circle cx="68.57640780508518" cy="80.80890327692032" r="2" style="fill: steelblue;"></circle><circle cx="40.96733424812555" cy="67.31015369296074" r="2" style="fill: steelblue;"></circle><circle cx="22.28404507040978" cy="62.090965174138546" r="2" style="fill: steelblue;"></circle><circle cx="33.766987919807434" cy="97.86887019872665" r="2" style="fill: steelblue;"></circle><circle cx="36.75711918622255" cy="59.05753765255213" r="2" style="fill: steelblue;"></circle><circle cx="82.30990096926689" cy="45.61102082952857" r="2" style="fill: steelblue;"></circle><circle cx="63.49350344389677" cy="28.544561192393303" r="2" style="fill: steelblue;"></circle><circle cx="49.47529030032456" cy="17.550113797187805" r="2" style="fill: steelblue;"></circle><circle cx="22.28951565921307" cy="34.270837157964706" r="2" style="fill: steelblue;"></circle><circle cx="21.930710598826412" cy="38.45733515918255" r="2" style="fill: steelblue;"></circle><circle cx="37.22610529512167" cy="60.98786201328039" r="2" style="fill: steelblue;"></circle><circle cx="43.18931624293327" cy="65.75122401118279" r="2" style="fill: steelblue;"></circle><circle cx="5.548692494630816" cy="61.013152077794075" r="2" style="fill: steelblue;"></circle><circle cx="28.197554126381874" cy="80.181385576725" r="2" style="fill: steelblue;"></circle><circle cx="60.103143751621246" cy="95.17221078276634" r="2" style="fill: steelblue;"></circle><circle cx="31.554029509425163" cy="61.79343368858099" r="2" style="fill: steelblue;"></circle><circle cx="38.595583476126194" cy="25.836262106895447" r="2" style="fill: steelblue;"></circle><circle cx="46.57870549708605" cy="34.115494415163994" r="2" style="fill: steelblue;"></circle><circle cx="81.25988319516182" cy="20.615943893790245" r="2" style="fill: steelblue;"></circle><circle cx="55.787788424640894" cy="25.150415673851967" r="2" style="fill: steelblue;"></circle><circle cx="88.25704008340836" cy="32.1682907640934" r="2" style="fill: steelblue;"></circle><circle cx="61.07336021959782" cy="21.80604189634323" r="2" style="fill: steelblue;"></circle><circle cx="10.087511688470844" cy="90.40727391839027" r="2" style="fill: steelblue;"></circle><circle cx="48.06002096738666" cy="44.49213547632098" r="2" style="fill: steelblue;"></circle><circle cx="40.497903898358345" cy="81.62834420800209" r="2" style="fill: steelblue;"></circle><circle cx="69.67574842274189" cy="93.05313155055046" r="2" style="fill: steelblue;"></circle><circle cx="46.964475605636835" cy="92.96514764428139" r="2" style="fill: steelblue;"></circle><circle cx="82.71610289812088" cy="53.809534944593906" r="2" style="fill: steelblue;"></circle><circle cx="30.397574603557587" cy="47.204527258872986" r="2" style="fill: steelblue;"></circle><circle cx="49.994825571775436" cy="62.31063436716795" r="2" style="fill: steelblue;"></circle><circle cx="27.169396355748177" cy="98.4241284430027" r="2" style="fill: steelblue;"></circle><circle cx="44.55640558153391" cy="52.32514529488981" r="2" style="fill: steelblue;"></circle><circle cx="55.75763359665871" cy="54.787360318005085" r="2" style="fill: steelblue;"></circle><circle cx="73.19408394396305" cy="59.9310539662838" r="2" style="fill: steelblue;"></circle><circle cx="28.61555591225624" cy="80.52533976733685" r="2" style="fill: steelblue;"></circle><circle cx="33.73589664697647" cy="33.954884111881256" r="2" style="fill: steelblue;"></circle><circle cx="36.65555287152529" cy="82.19080343842506" r="2" style="fill: steelblue;"></circle><circle cx="12.640117853879932" cy="90.1097722351551" r="2" style="fill: steelblue;"></circle><circle cx="18.518186360597614" cy="73.0861809104681" r="2" style="fill: steelblue;"></circle><circle cx="20.529517158865932" cy="75.44676698744297" r="2" style="fill: steelblue;"></circle><circle cx="50.68120384821668" cy="94.04871538281441" r="2" style="fill: steelblue;"></circle><circle cx="16.226264834403995" cy="85.24000197649002" r="2" style="fill: steelblue;"></circle><circle cx="19.223074615001682" cy="34.54700503498316" r="2" style="fill: steelblue;"></circle><circle cx="60.76844707131386" cy="99.3752658367157" r="2" style="fill: steelblue;"></circle><circle cx="44.157145731151104" cy="48.98252123966813" r="2" style="fill: steelblue;"></circle><circle cx="21.839874982833866" cy="69.00122687220573" r="2" style="fill: steelblue;"></circle><circle cx="54.374390468001366" cy="30.054890736937523" r="2" style="fill: steelblue;"></circle><circle cx="77.35967375338078" cy="20.89478373527527" r="2" style="fill: steelblue;"></circle><circle cx="73.16131629049778" cy="24.231623113155365" r="2" style="fill: steelblue;"></circle><circle cx="77.46240049600601" cy="21.886267885565758" r="2" style="fill: steelblue;"></circle><circle cx="75.32361820340157" cy="14.091554284095764" r="2" style="fill: steelblue;"></circle><circle cx="76.79305337369442" cy="39.670317620038986" r="2" style="fill: steelblue;"></circle><circle cx="76.1708665639162" cy="35.47976650297642" r="2" style="fill: steelblue;"></circle><circle cx="99.15905371308327" cy="36.94395273923874" r="2" style="fill: steelblue;"></circle><circle cx="84.94728729128838" cy="12.612118571996689" r="2" style="fill: steelblue;"></circle><circle cx="78.57625856995583" cy="16.314472258090973" r="2" style="fill: steelblue;"></circle><circle cx="97.28086292743683" cy="3.130904585123062" r="2" style="fill: steelblue;"></circle><circle cx="50.803859322331846" cy="10.529807955026627" r="2" style="fill: steelblue;"></circle><circle cx="39.8725189268589" cy="53.866005688905716" r="2" style="fill: steelblue;"></circle><circle cx="5.827374011278155" cy="73.79694022238255" r="2" style="fill: steelblue;"></circle><circle cx="45.47386867925525" cy="76.96487307548523" r="2" style="fill: steelblue;"></circle><circle cx="47.13931395672262" cy="55.835901480168104" r="2" style="fill: steelblue;"></circle><circle cx="52.75513669475913" cy="55.37273986265063" r="2" style="fill: steelblue;"></circle><circle cx="56.66586076840758" cy="61.827089823782444" r="2" style="fill: steelblue;"></circle><circle cx="68.64220015704632" cy="24.99481961131096" r="2" style="fill: steelblue;"></circle><circle cx="80.90262413024902" cy="38.73646277934313" r="2" style="fill: steelblue;"></circle><circle cx="82.62165933847427" cy="3.5826295614242554" r="2" style="fill: steelblue;"></circle><circle cx="53.82527499459684" cy="43.92343498766422" r="2" style="fill: steelblue;"></circle><circle cx="82.5751006603241" cy="6.026922911405563" r="2" style="fill: steelblue;"></circle><circle cx="78.67328748106956" cy="26.760772988200188" r="2" style="fill: steelblue;"></circle><circle cx="76.53436176478863" cy="0.5602903664112091" r="2" style="fill: steelblue;"></circle><circle cx="71.56208455562592" cy="46.501375222578645" r="2" style="fill: steelblue;"></circle><circle cx="91.19991883635521" cy="43.8609329983592" r="2" style="fill: steelblue;"></circle><circle cx="44.10180374979973" cy="39.65898994356394" r="2" style="fill: steelblue;"></circle><circle cx="27.93262079358101" cy="35.651553608477116" r="2" style="fill: steelblue;"></circle><circle cx="38.83060645312071" cy="35.78757420182228" r="2" style="fill: steelblue;"></circle><circle cx="78.92517298460007" cy="23.305106163024902" r="2" style="fill: steelblue;"></circle><circle cx="45.698613580316305" cy="51.333690830506384" r="2" style="fill: steelblue;"></circle><circle cx="57.93696194887161" cy="29.370644316077232" r="2" style="fill: steelblue;"></circle><circle cx="94.73448544740677" cy="38.69871906936169" r="2" style="fill: steelblue;"></circle><circle cx="77.45325863361359" cy="91.48688167333603" r="2" style="fill: steelblue;"></circle><circle cx="19.457924365997318" cy="39.15930092334747" r="2" style="fill: steelblue;"></circle><circle cx="77.71980315446854" cy="72.2841277718544" r="2" style="fill: steelblue;"></circle><circle cx="88.68111968040466" cy="49.20845724409446" r="2" style="fill: steelblue;"></circle><circle cx="84.10805761814117" cy="20.46196460723877" r="2" style="fill: steelblue;"></circle><circle cx="88.72980549931526" cy="40.52524846047163" r="2" style="fill: steelblue;"></circle><circle cx="86.99582815170288" cy="33.523210510611534" r="2" style="fill: steelblue;"></circle><circle cx="30.394836515188217" cy="74.43329989910126" r="2" style="fill: steelblue;"></circle><circle cx="52.719716867432" cy="82.84220397472382" r="2" style="fill: steelblue;"></circle><circle cx="38.11027966439724" cy="49.497137614525855" r="2" style="fill: steelblue;"></circle><circle cx="17.902302742004398" cy="69.30957101285458" r="2" style="fill: steelblue;"></circle><circle cx="18.58516335487366" cy="85.52611544728279" r="2" style="fill: steelblue;"></circle><circle cx="49.591471860185266" cy="66.90536737442017" r="2" style="fill: steelblue;"></circle></g></svg>