<svg xmlns="http://www.w3.org/2000/svg"><g transform="translate(40,20)"><circle cx="298.5810197889805" cy="156.47526495158672" r="3" style="fill: steelblue;"></circle><circle cx="386.09273582696915" cy="99.75470826029778" r="3" style="fill: steelblue;"></circle><circle cx="413.69986832141876" cy="81.86119645833969" r="3" style="fill: steelblue;"></circle><circle cx="290.174318253994" cy="161.92405298352242" r="3" style="fill: steelblue;"></circle><circle cx="326.61661103367805" cy="138.30404840409756" r="3" style="fill: steelblue;"></circle><circle cx="335.64857974648476" cy="132.44999460875988" r="3" style="fill: steelblue;"></circle><circle cx="366.3196384906769" cy="112.57060468196869" r="3" style="fill: steelblue;"></circle><circle cx="426.60998940467834" cy="73.49352538585663" r="3" style="fill: steelblue;"></circle><circle cx="429.5353728532791" cy="71.5974435210228" r="3" style="fill: steelblue;"></circle><circle cx="393.2364669442177" cy="95.12451216578484" r="3" style="fill: steelblue;"></circle><circle cx="339.6820682287216" cy="129.83569651842117" r="3" style="fill: steelblue;"></circle><circle cx="434.1570657491684" cy="68.6019018292427" r="3" style="fill: steelblue;"></circle><circle cx="178.75429093837738" cy="234.1407373547554" r="3" style="fill: steelblue;"></circle><circle cx="351.4250582456589" cy="122.2244992852211" r="3" style="fill: steelblue;"></circle><circle cx="282.6495421305299" cy="166.80122269317508" r="3" style="fill: steelblue;"></circle><circle cx="242.3814533650875" cy="192.9009098559618" r="3" style="fill: steelblue;"></circle><circle cx="259.5656057819724" cy="181.76303328946233" r="3" style="fill: steelblue;"></circle><circle cx="189.61346358060837" cy="227.10238471627235" r="3" style="fill: steelblue;"></circle><circle cx="376.81507140398026" cy="105.76800927519798" r="3" style="fill: steelblue;"></circle><circle cx="307.79092356562614" cy="150.5058828741312" r="3" style="fill: steelblue;"></circle><circle cx="227.09715083241463" cy="202.80740223824978" r="3" style="fill: steelblue;"></circle><circle cx="222.75474429130554" cy="205.62192499637604" r="3" style="fill: steelblue;"></circle><circle cx="271.7325679259375" cy="173.87703930726275" r="3" style="fill: steelblue;"></circle><circle cx="322.76530623435974" cy="140.8002644777298" r="3" style="fill: steelblue;"></circle><circle cx="395.16167879104614" cy="93.87668967247009" r="3" style="fill: steelblue;"></circle><circle cx="349.1622179746628" cy="123.69115501642227" r="3" style="fill: steelblue;"></circle><circle cx="167.13352113962173" cy="241.6727177798748" r="3" style="fill: steelblue;"></circle><circle cx="425.2698075771332" cy="74.36216175556183" r="3" style="fill: steelblue;"></circle><circle cx="250.75170166790485" cy="187.47574891895056" r="3" style="fill: steelblue;"></circle><circle cx="193.5428488254547" cy="224.55556094646454" r="3" style="fill: steelblue;"></circle><circle cx="205.4662925004959" cy="216.82740300893784" r="3" style="fill: steelblue;"></circle><circle cx="350.8304125070572" cy="122.60991781949997" r="3" style="fill: steelblue;"></circle><circle cx="225.3758928179741" cy="203.92303243279457" r="3" style="fill: steelblue;"></circle><circle cx="204.57981571555138" cy="217.40197129547596" r="3" style="fill: steelblue;"></circle><circle cx="319.66313034296036" cy="142.81093403697014" r="3" style="fill: steelblue;"></circle><circle cx="159.1489416360855" cy="246.84790819883347" r="3" style="fill: steelblue;"></circle><circle cx="183.24435710906982" cy="231.23050928115845" r="3" style="fill: steelblue;"></circle><circle cx="208.96735578775406" cy="214.558195322752" r="3" style="fill: steelblue;"></circle><circle cx="80.4220300912857" cy="297.8746101260185" r="3" style="fill: steelblue;"></circle><circle cx="345.76353192329407" cy="125.89400708675385" r="3" style="fill: steelblue;"></circle><circle cx="321.61774054169655" cy="141.5440570563078" r="3" style="fill: steelblue;"></circle><circle cx="196.76655292510986" cy="222.46612310409546" r="3" style="fill: steelblue;"></circle><circle cx="156.9962838292122" cy="248.24314936995506" r="3" style="fill: steelblue;"></circle><circle cx="197.18635350465775" cy="222.19403013586998" r="3" style="fill: steelblue;"></circle><circle cx="223.3861631155014" cy="205.2126720547676" r="3" style="fill: steelblue;"></circle><circle cx="95.40359437465668" cy="288.1643369793892" r="3" style="fill: steelblue;"></circle><circle cx="296.4419527351856" cy="157.86169730126858" r="3" style="fill: steelblue;"></circle><circle cx="148.63317489624023" cy="253.66368293762207" r="3" style="fill: steelblue;"></circle><circle cx="247.3856406658888" cy="189.65745512396097" r="3" style="fill: steelblue;"></circle><circle cx="211.47289037704468" cy="212.93423771858215" r="3" style="fill: steelblue;"></circle><circle cx="213.8167078793049" cy="211.41509674489498" r="3" style="fill: steelblue;"></circle><circle cx="253.707951977849" cy="185.55966075509787" r="3" style="fill: steelblue;"></circle><circle cx="313.35690423846245" cy="146.89830280840397" r="3" style="fill: steelblue;"></circle><circle cx="122.96998679637909" cy="270.29723078012466" r="3" style="fill: steelblue;"></circle><circle cx="226.4709059894085" cy="203.21330167353153" r="3" style="fill: steelblue;"></circle><circle cx="237.94138088822365" cy="195.77873460948467" r="3" style="fill: steelblue;"></circle><circle cx="198.41763228178024" cy="221.39597907662392" r="3" style="fill: steelblue;"></circle><circle cx="39.06293034553528" cy="324.6814340353012" r="3" style="fill: steelblue;"></circle><circle cx="278.57743989676237" cy="169.44054821506143" r="3" style="fill: steelblue;"></circle><circle cx="251.2051934748888" cy="187.18181904405355" r="3" style="fill: steelblue;"></circle><circle cx="429.36507403850555" cy="71.7078223824501" r="3" style="fill: steelblue;"></circle><circle cx="341.4675745368004" cy="128.67842391133308" r="3" style="fill: steelblue;"></circle><circle cx="295.2089861780405" cy="158.66084229201078" r="3" style="fill: steelblue;"></circle><circle cx="392.52330243587494" cy="95.58674842119217" r="3" style="fill: steelblue;"></circle><circle cx="425.51083624362946" cy="74.20593947172165" r="3" style="fill: steelblue;"></circle><circle cx="407.18322694301605" cy="86.084945499897" r="3" style="fill: steelblue;"></circle><circle cx="322.27193534374237" cy="141.12004190683365" r="3" style="fill: steelblue;"></circle><circle cx="344.0400892496109" cy="127.01105326414108" r="3" style="fill: steelblue;"></circle><circle cx="443.83147716522217" cy="62.33144998550415" r="3" style="fill: steelblue;"></circle><circle cx="349.2585200071335" cy="123.62873703241348" r="3" style="fill: steelblue;"></circle><circle cx="339.22786831855774" cy="130.13008534908295" r="3" style="fill: steelblue;"></circle><circle cx="148.65193158388138" cy="253.65152582526207" r="3" style="fill: steelblue;"></circle><circle cx="309.3345160782337" cy="149.50540624558926" r="3" style="fill: steelblue;"></circle><circle cx="210.46484515070915" cy="213.5876003652811" r="3" style="fill: steelblue;"></circle><circle cx="270.50595521810465" cy="174.67206606233958" r="3" style="fill: steelblue;"></circle><circle cx="159.2834973335266" cy="246.76069617271423" r="3" style="fill: steelblue;"></circle><circle cx="273.93800544552505" cy="172.44758906308562" r="3" style="fill: steelblue;"></circle><circle cx="256.0825598984957" cy="184.0205630287528" r="3" style="fill: steelblue;"></circle><circle cx="269.97722402215004" cy="175.01476220786572" r="3" style="fill: steelblue;"></circle><circle cx="290.2906181663275" cy="161.84867341071367" r="3" style="fill: steelblue;"></circle><circle cx="265.24781093001366" cy="178.08012254536152" r="3" style="fill: steelblue;"></circle><circle cx="217.38306552171707" cy="209.10356864333153" r="3" style="fill: steelblue;"></circle><circle cx="191.32202804088593" cy="225.99498182535172" r="3" style="fill: steelblue;"></circle><circle cx="209.4816479086876" cy="214.22485783696175" r="3" style="fill: steelblue;"></circle><circle cx="212.55413576960564" cy="212.23343051970005" r="3" style="fill: steelblue;"></circle><circle cx="418.62577199935913" cy="78.66848111152649" r="3" style="fill: steelblue;"></circle><circle cx="346.0699474811554" cy="125.69540441036224" r="3" style="fill: steelblue;"></circle><circle cx="336.35589838027954" cy="131.9915473461151" r="3" style="fill: steelblue;"></circle><circle cx="359.54535216093063" cy="116.96134582161903" r="3" style="fill: steelblue;"></circle><circle cx="376.23335659503937" cy="106.14504665136337" r="3" style="fill: steelblue;"></circle><circle cx="287.6278243213892" cy="163.5745583102107" r="3" style="fill: steelblue;"></circle><circle cx="314.972260594368" cy="145.85131257772446" r="3" style="fill: steelblue;"></circle><circle cx="301.96193888783455" cy="154.28392849862576" r="3" style="fill: steelblue;"></circle><circle cx="375.85572838783264" cy="106.38980567455292" r="3" style="fill: steelblue;"></circle><circle cx="180.8026885986328" cy="232.81307220458984" r="3" style="fill: steelblue;"></circle><circle cx="242.21276387572289" cy="193.01024563610554" r="3" style="fill: steelblue;"></circle><circle cx="192.26514905691147" cy="225.38369968533516" r="3" style="fill: steelblue;"></circle><circle cx="187.99879521131516" cy="228.14892902970314" r="3" style="fill: steelblue;"></circle><circle cx="227.8236284852028" cy="202.33653709292412" r="3" style="fill: steelblue;"></circle><circle cx="162.41381227970123" cy="244.73178833723068" r="3" style="fill: steelblue;"></circle><circle cx="223.77086028456688" cy="204.96333129703999" r="3" style="fill: steelblue;"></circle><circle cx="191.85307323932648" cy="225.6507858633995" r="3" style="fill: steelblue;"></circle><circle cx="301.4315414428711" cy="154.62770462036133" r="3" style="fill: steelblue;"></circle><circle cx="175.4836830496788" cy="236.2605758011341" r="3" style="fill: steelblue;"></circle><circle cx="350.33425748348236" cy="122.9314997792244" r="3" style="fill: steelblue;"></circle><circle cx="249.4875443726778" cy="188.29511012881994" r="3" style="fill: steelblue;"></circle><circle cx="278.04912954568863" cy="169.78297159075737" r="3" style="fill: steelblue;"></circle><circle cx="334.6838817000389" cy="133.0752618610859" r="3" style="fill: steelblue;"></circle><circle cx="455.7162970304489" cy="54.62832599878311" r="3" style="fill: steelblue;"></circle><circle cx="278.8765702396631" cy="169.24666743725538" r="3" style="fill: steelblue;"></circle><circle cx="437.72560000419617" cy="66.28896296024323" r="3" style="fill: steelblue;"></circle><circle cx="503.08118999004364" cy="23.92885833978653" r="3" style="fill: steelblue;"></circle><circle cx="88.65772068500519" cy="292.5366625189781" r="3" style="fill: steelblue;"></circle><circle cx="150.8814024925232" cy="252.2064983844757" r="3" style="fill: steelblue;"></circle><circle cx="329.41423416137695" cy="136.4907741546631" r="3" style="fill: steelblue;"></circle><circle cx="62.42864549160004" cy="309.5369890332222" r="3" style="fill: steelblue;"></circle><circle cx="128.8445234298706" cy="266.4896607398987" r="3" style="fill: steelblue;"></circle><circle cx="177.97900646924973" cy="234.6432365477085" r="3" style="fill: steelblue;"></circle></g></svg>