<svg xmlns="http://www.w3.org/2000/svg"><g transform="translate(40,20)"><circle cx="280.73914736509323" cy="79.20921053737402" r="3" style="fill: steelblue;"></circle><circle cx="325.7203423976898" cy="178.15300980582833" r="3" style="fill: steelblue;"></circle><circle cx="288.39540123939514" cy="125.46361349523067" r="3" style="fill: steelblue;"></circle><circle cx="384.0794259309769" cy="200.08052601478994" r="3" style="fill: steelblue;"></circle><circle cx="157.85828769207" cy="69.25693079829216" r="3" style="fill: steelblue;"></circle><circle cx="370.39585053920746" cy="159.61655899882317" r="3" style="fill: steelblue;"></circle><circle cx="376.1918896436691" cy="138.0756233818829" r="3" style="fill: steelblue;"></circle><circle cx="471.47521018981934" cy="100.62323249876499" r="3" style="fill: steelblue;"></circle><circle cx="364.12584722042084" cy="89.61824905127287" r="3" style="fill: steelblue;"></circle><circle cx="277.9044994711876" cy="43.97231452167034" r="3" style="fill: steelblue;"></circle><circle cx="412.81184792518616" cy="34.422774985432625" r="3" style="fill: steelblue;"></circle><circle cx="464.4302988052368" cy="128.53657333180308" r="3" style="fill: steelblue;"></circle><circle cx="283.6656430363655" cy="157.87961515598" r="3" style="fill: steelblue;"></circle><circle cx="357.7128195762634" cy="91.42382927238941" r="3" style="fill: steelblue;"></circle><circle cx="327.6007318496704" cy="93.70744060724974" r="3" style="fill: steelblue;"></circle><circle cx="480.19453525543213" cy="6.225315108895302" r="3" style="fill: steelblue;"></circle><circle cx="347.18499720096594" cy="79.8164077103138" r="3" style="fill: steelblue;"></circle><circle cx="289.28098171949387" cy="35.82807928323746" r="3" style="fill: steelblue;"></circle><circle cx="305.9966826438904" cy="201.9804138224572" r="3" style="fill: steelblue;"></circle><circle cx="333.19725036621094" cy="97.49284777790308" r="3" style="fill: steelblue;"></circle><circle cx="315.7950961589813" cy="220.58527935296297" r="3" style="fill: steelblue;"></circle><circle cx="177.51145899295807" cy="167.38060414791107" r="3" style="fill: steelblue;"></circle><circle cx="243.85683076456192" cy="111.11374218016863" r="3" style="fill: steelblue;"></circle><circle cx="152.60022819042206" cy="112.43280973285437" r="3" style="fill: steelblue;"></circle><circle cx="329.51245844364166" cy="179.38729603774846" r="3" style="fill: steelblue;"></circle><circle cx="311.04959338903427" cy="222.32936015352607" r="3" style="fill: steelblue;"></circle><circle cx="73.1847667694092" cy="150.25392659008503" r="3" style="fill: steelblue;"></circle><circle cx="293.54911834001547" cy="242.03082844614983" r="3" style="fill: steelblue;"></circle><circle cx="191.25918835401535" cy="203.51559966802597" r="3" style="fill: steelblue;"></circle><circle cx="188.58030080795288" cy="268.49943324923515" r="3" style="fill: steelblue;"></circle><circle cx="285.79347521066666" cy="264.9091539904475" r="3" style="fill: steelblue;"></circle><circle cx="205.46393260359764" cy="167.8073751507327" r="3" style="fill: steelblue;"></circle><circle cx="228.55915479362014" cy="171.95981267723255" r="3" style="fill: steelblue;"></circle><circle cx="206.1751113831997" cy="105.69862481206656" r="3" style="fill: steelblue;"></circle><circle cx="271.10907822847366" cy="157.43298241868615" r="3" style="fill: steelblue;"></circle><circle cx="254.58742395043373" cy="206.1992783099413" r="3" style="fill: steelblue;"></circle><circle cx="202.93140649795535" cy="222.55287617444992" r="3" style="fill: steelblue;"></circle><circle cx="138.1953710317612" cy="316.2008833140135" r="3" style="fill: steelblue;"></circle><circle cx="381.22965037822723" cy="293.32436360418797" r="3" style="fill: steelblue;"></circle><circle cx="42.527636289596565" cy="280.1398226991296" r="3" style="fill: steelblue;"></circle><circle cx="194.2748138308525" cy="259.5203874632716" r="3" style="fill: steelblue;"></circle><circle cx="85.99424600601198" cy="184.83082922175527" r="3" style="fill: steelblue;"></circle><circle cx="296.9583088159561" cy="173.57446053647436" r="3" style="fill: steelblue;"></circle><circle cx="168.76454740762713" cy="145.46874882653356" r="3" style="fill: steelblue;"></circle><circle cx="274.1983996331692" cy="181.46925898035988" r="3" style="fill: steelblue;"></circle><circle cx="31.473573446273814" cy="305.4241195321083" r="3" style="fill: steelblue;"></circle><circle cx="142.18151807785034" cy="203.85986538603902" r="3" style="fill: steelblue;"></circle><circle cx="173.0852374434471" cy="202.84572960808873" r="3" style="fill: steelblue;"></circle><circle cx="110.71467339992525" cy="200.76802903786302" r="3" style="fill: steelblue;"></circle><circle cx="148.42984914779663" cy="131.16572489961982" r="3" style="fill: steelblue;"></circle><circle cx="130.58222472667697" cy="182.59174197446555" r="3" style="fill: steelblue;"></circle><circle cx="228.9275662600994" cy="245.55871840566397" r="3" style="fill: steelblue;"></circle><circle cx="79.87585902214052" cy="197.6376100908965" r="3" style="fill: steelblue;"></circle><circle cx="135.81981897354126" cy="238.10628075152636" r="3" style="fill: steelblue;"></circle><circle cx="98.0841511487961" cy="229.23269048333168" r="3" style="fill: steelblue;"></circle><circle cx="106.82412028312683" cy="211.3994687795639" r="3" style="fill: steelblue;"></circle><circle cx="104.14869725704193" cy="238.46718687564135" r="3" style="fill: steelblue;"></circle><circle cx="183.5532331466675" cy="200.72741406038404" r="3" style="fill: steelblue;"></circle><circle cx="64.48552250862123" cy="133.8219542056322" r="3" style="fill: steelblue;"></circle><circle cx="228.1574895232916" cy="177.3364262888208" r="3" style="fill: steelblue;"></circle><circle cx="199.704065322876" cy="159.17223407886922" r="3" style="fill: steelblue;"></circle><circle cx="404.57122564315796" cy="57.27096199989319" r="3" style="fill: steelblue;"></circle><circle cx="279.6971493959427" cy="119.26640029996634" r="3" style="fill: steelblue;"></circle><circle cx="373.3394855260849" cy="94.19670440256596" r="3" style="fill: steelblue;"></circle><circle cx="335.2031135559082" cy="287.5643253326416" r="3" style="fill: steelblue;"></circle><circle cx="388.7956076860428" cy="165.21760560572147" r="3" style="fill: steelblue;"></circle><circle cx="364.7229605913162" cy="147.26121230050921" r="3" style="fill: steelblue;"></circle><circle cx="189.8639926314354" cy="155.13354721479118" r="3" style="fill: steelblue;"></circle><circle cx="158.09021830558777" cy="225.55656237527728" r="3" style="fill: steelblue;"></circle><circle cx="330.6309932470322" cy="231.46181385964155" r="3" style="fill: steelblue;"></circle><circle cx="353.003146648407" cy="101.44844017922878" r="3" style="fill: steelblue;"></circle><circle cx="264.40629601478577" cy="241.9471863657236" r="3" style="fill: steelblue;"></circle><circle cx="110.36507427692415" cy="201.6858753748238" r="3" style="fill: steelblue;"></circle><circle cx="105.78404903411867" cy="187.8908467013389" r="3" style="fill: steelblue;"></circle><circle cx="171.40087723731995" cy="203.38472882285714" r="3" style="fill: steelblue;"></circle><circle cx="124.24167931079866" cy="233.14791563898325" r="3" style="fill: steelblue;"></circle><circle cx="156.62934422492984" cy="286.417418345809" r="3" style="fill: steelblue;"></circle><circle cx="122.44428634643556" cy="216.15703096613288" r="3" style="fill: steelblue;"></circle><circle cx="164.64669942855835" cy="243.15163884311914" r="3" style="fill: steelblue;"></circle><circle cx="306.42108857631683" cy="215.01862835139036" r="3" style="fill: steelblue;"></circle><circle cx="149.0152680873871" cy="274.550100043416" r="3" style="fill: steelblue;"></circle><circle cx="33.38341355323793" cy="304.3841674923897" r="3" style="fill: steelblue;"></circle><circle cx="204.1522318124771" cy="231.5435979515314" r="3" style="fill: steelblue;"></circle><circle cx="219.82205897569656" cy="166.09644151758403" r="3" style="fill: steelblue;"></circle><circle cx="316.0879397392273" cy="152.32171136885881" r="3" style="fill: steelblue;"></circle><circle cx="256.21415354311466" cy="152.8368240222335" r="3" style="fill: steelblue;"></circle><circle cx="112.89674878120422" cy="113.54736816138029" r="3" style="fill: steelblue;"></circle><circle cx="324.0222090482712" cy="133.4617456421256" r="3" style="fill: steelblue;"></circle><circle cx="291.50590538978577" cy="117.47030559927225" r="3" style="fill: steelblue;"></circle><circle cx="420.64831495285034" cy="66.87994413077831" r="3" style="fill: steelblue;"></circle><circle cx="368.66511940956116" cy="79.38069961965084" r="3" style="fill: steelblue;"></circle><circle cx="448.39948654174805" cy="5.184945836663246" r="3" style="fill: steelblue;"></circle><circle cx="177.74475306272507" cy="40.42804166674614" r="3" style="fill: steelblue;"></circle><circle cx="344.58617806434637" cy="69.32183001190424" r="3" style="fill: steelblue;"></circle><circle cx="105.52476882934572" cy="131.1877534724772" r="3" style="fill: steelblue;"></circle><circle cx="7.37288832664491" cy="179.9035120755434" r="3" style="fill: steelblue;"></circle><circle cx="132.32507944107056" cy="232.9136135056615" r="3" style="fill: steelblue;"></circle><circle cx="206.62520840764046" cy="224.20429550111294" r="3" style="fill: steelblue;"></circle><circle cx="82.85790324211122" cy="197.71205023862422" r="3" style="fill: steelblue;"></circle><circle cx="11.965330839157117" cy="196.3400397915393" r="3" style="fill: steelblue;"></circle><circle cx="181.6810154914856" cy="224.96308172121644" r="3" style="fill: steelblue;"></circle><circle cx="71.00906610488893" cy="209.55428080633283" r="3" style="fill: steelblue;"></circle><circle cx="66.80768966674806" cy="261.9776392355561" r="3" style="fill: steelblue;"></circle><circle cx="341.5916705131531" cy="192.36536878161132" r="3" style="fill: steelblue;"></circle><circle cx="337.4797546863556" cy="309.8540596663952" r="3" style="fill: steelblue;"></circle><circle cx="184.68176811933517" cy="280.5998606607318" r="3" style="fill: steelblue;"></circle><circle cx="320.5165797472" cy="117.94361025094986" r="3" style="fill: steelblue;"></circle><circle cx="384.4419175386429" cy="77.47101988643408" r="3" style="fill: steelblue;"></circle><circle cx="400.55206060409546" cy="64.25294391810894" r="3" style="fill: steelblue;"></circle><circle cx="333.77979040145874" cy="15.940913185477257" r="3" style="fill: steelblue;"></circle><circle cx="466.1682629585266" cy="154.9910883884877" r="3" style="fill: steelblue;"></circle><circle cx="301.56173944473267" cy="78.63925136625767" r="3" style="fill: steelblue;"></circle><circle cx="243.19173065945506" cy="213.12647564336658" r="3" style="fill: steelblue;"></circle><circle cx="353.8651102781296" cy="298.4524641185999" r="3" style="fill: steelblue;"></circle><circle cx="220.86397647857666" cy="223.00222255289555" r="3" style="fill: steelblue;"></circle><circle cx="119.74095046520233" cy="340.78470543026924" r="3" style="fill: steelblue;"></circle><circle cx="213.69678765535357" cy="260.7193963602185" r="3" style="fill: steelblue;"></circle><circle cx="95.99518418312074" cy="211.83526813983917" r="3" style="fill: steelblue;"></circle></g></svg>