<svg xmlns="http://www.w3.org/2000/svg"><rect width="200" height="200" fill="white"></rect><g><circle cx="44.07401084899902" cy="189.64693281385635" r="2" style="fill: steelblue;"></circle><circle cx="80.6820660829544" cy="150.21019842889572" r="2" style="fill: steelblue;"></circle><circle cx="77.31635719537735" cy="182.26556645499335" r="2" style="fill: steelblue;"></circle><circle cx="91.9319823384285" cy="159.15728939904108" r="2" style="fill: steelblue;"></circle><circle cx="82.33806490898132" cy="154.5184420214759" r="2" style="fill: steelblue;"></circle><circle cx="47.29112386703491" cy="152.43486563364664" r="2" style="fill: steelblue;"></circle><circle cx="127.3895263671875" cy="107.88470009962717" r="2" style="fill: steelblue;"></circle><circle cx="112.68046945333481" cy="189.52781624264188" r="2" style="fill: steelblue;"></circle><circle cx="88.28495517373085" cy="86.7094380988015" r="2" style="fill: steelblue;"></circle><circle cx="109.23110842704773" cy="141.29770464367337" r="2" style="fill: steelblue;"></circle><circle cx="44.08684968948364" cy="137.10881769657135" r="2" style="fill: steelblue;"></circle><circle cx="70.35255134105682" cy="121.50108814239502" r="2" style="fill: steelblue;"></circle><circle cx="17.51801371574402" cy="57.25596348444621" r="2" style="fill: steelblue;"></circle><circle cx="75.68145394325256" cy="187.36073043611313" r="2" style="fill: steelblue;"></circle><circle cx="113.98445069789886" cy="90.64758320649464" r="2" style="fill: steelblue;"></circle><circle cx="52.31924057006836" cy="155.61590592066446" r="2" style="fill: steelblue;"></circle><circle cx="55.94696402549744" cy="161.9087689452701" r="2" style="fill: steelblue;"></circle><circle cx="84.21896547079086" cy="160.50245695643954" r="2" style="fill: steelblue;"></circle><circle cx="136.92957162857056" cy="65.64475761519537" r="2" style="fill: steelblue;"></circle><circle cx="118.4962511062622" cy="97.50138305955463" r="2" style="fill: steelblue;"></circle><circle cx="116.2491574883461" cy="118.28005231089062" r="2" style="fill: steelblue;"></circle><circle cx="121.91863805055618" cy="108.55088672704167" r="2" style="fill: steelblue;"></circle><circle cx="89.201270788908" cy="91.85014830695258" r="2" style="fill: steelblue;"></circle><circle cx="92.89235845208168" cy="123.58466784159342" r="2" style="fill: steelblue;"></circle><circle cx="113.49177658557892" cy="181.8968388769362" r="2" style="fill: steelblue;"></circle><circle cx="56.96200132369995" cy="184.99832020865546" r="2" style="fill: steelblue;"></circle><circle cx="59.548839926719666" cy="156.10945887035794" r="2" style="fill: steelblue;"></circle><circle cx="44.14306282997131" cy="133.09863871998257" r="2" style="fill: steelblue;"></circle><circle cx="114.1444444656372" cy="134.24921366903516" r="2" style="fill: steelblue;"></circle><circle cx="99.54453725367785" cy="96.87744246588812" r="2" style="fill: steelblue;"></circle><circle cx="181.41441345214844" cy="59.40194262398612" r="2" style="fill: steelblue;"></circle><circle cx="180.0581395626068" cy="92.33189788129594" r="2" style="fill: steelblue;"></circle><circle cx="117.6959365606308" cy="56.674900982115005" r="2" style="fill: steelblue;"></circle><circle cx="111.47578582167625" cy="77.8088437186347" r="2" style="fill: steelblue;"></circle><circle cx="117.56418645381927" cy="86.70820792516072" r="2" style="fill: steelblue;"></circle><circle cx="88.90466168522835" cy="183.61033995946246" r="2" style="fill: steelblue;"></circle><circle cx="60.020360350608826" cy="166.98004139794241" r="2" style="fill: steelblue;"></circle><circle cx="70.21685540676117" cy="68.58265068795946" r="2" style="fill: steelblue;"></circle><circle cx="75.89528560638428" cy="139.8671633667416" r="2" style="fill: steelblue;"></circle><circle cx="63.936132192611694" cy="74.52261116769579" r="2" style="fill: steelblue;"></circle><circle cx="74.73720014095306" cy="130.06757199764252" r="2" style="fill: steelblue;"></circle><circle cx="110.71023046970367" cy="54.387145572238495" r="2" style="fill: steelblue;"></circle><circle cx="133.37795436382294" cy="72.14348514874776" r="2" style="fill: steelblue;"></circle><circle cx="86.66754812002182" cy="72.09060589472453" r="2" style="fill: steelblue;"></circle><circle cx="106.31256625056267" cy="90.75199067592621" r="2" style="fill: steelblue;"></circle><circle cx="58.66023600101471" cy="124.10277790493436" r="2" style="fill: steelblue;"></circle><circle cx="130.37839233875275" cy="86.85181207127042" r="2" style="fill: steelblue;"></circle><circle cx="65.52698910236359" cy="171.7739701271057" r="2" style="fill: steelblue;"></circle><circle cx="54.84265685081482" cy="186.2087978257073" r="2" style="fill: steelblue;"></circle><circle cx="74.3016391992569" cy="160.99477807680765" r="2" style="fill: steelblue;"></circle><circle cx="68.95987689495087" cy="89.719091852506" r="2" style="fill: steelblue;"></circle><circle cx="124.25885945558548" cy="125.97526278760698" r="2" style="fill: steelblue;"></circle><circle cx="114.33063745498657" cy="156.86444772614374" r="2" style="fill: steelblue;"></circle><circle cx="101.36386938393116" cy="122.78804348574744" r="2" style="fill: steelblue;"></circle><circle cx="84.11596864461899" cy="92.91843242115445" r="2" style="fill: steelblue;"></circle><circle cx="74.30380582809448" cy="133.34956930743323" r="2" style="fill: steelblue;"></circle><circle cx="71.63833379745483" cy="176.90759234958225" r="2" style="fill: steelblue;"></circle><circle cx="88.39570358395576" cy="117.3078753054142" r="2" style="fill: steelblue;"></circle><circle cx="64.53750729560852" cy="142.5992614693112" r="2" style="fill: steelblue;"></circle><circle cx="59.82968211174011" cy="137.60935763518015" r="2" style="fill: steelblue;"></circle><circle cx="41.2207305431366" cy="73.98586140738593" r="2" style="fill: steelblue;"></circle><circle cx="90.52017703652382" cy="53.04741859436035" r="2" style="fill: steelblue;"></circle><circle cx="46.49754762649536" cy="179.7645025783115" r="2" style="fill: steelblue;"></circle><circle cx="91.41287431120872" cy="197.71207703484427" r="2" style="fill: steelblue;"></circle><circle cx="73.89123439788818" cy="179.21254369947647" r="2" style="fill: steelblue;"></circle><circle cx="35.70221662521362" cy="195.51785124672782" r="2" style="fill: steelblue;"></circle><circle cx="103.19547615945339" cy="102.50826428333917" r="2" style="fill: steelblue;"></circle><circle cx="95.44904381036758" cy="144.04041237301297" r="2" style="fill: steelblue;"></circle><circle cx="52.430978417396545" cy="107.57108198271857" r="2" style="fill: steelblue;"></circle><circle cx="38.77807855606079" cy="153.22551793522305" r="2" style="fill: steelblue;"></circle><circle cx="146.05479836463928" cy="176.06814702351886" r="2" style="fill: steelblue;"></circle><circle cx="164.8117959499359" cy="60.30041641659207" r="2" style="fill: steelblue;"></circle><circle cx="125.15102624893188" cy="98.86386907762952" r="2" style="fill: steelblue;"></circle><circle cx="55.273979902267456" cy="73.87164235115051" r="2" style="fill: steelblue;"></circle><circle cx="90.64662083983421" cy="54.65043253368802" r="2" style="fill: steelblue;"></circle><circle cx="87.1641293168068" cy="124.19775790638394" r="2" style="fill: steelblue;"></circle><circle cx="82.96395242214203" cy="106.72048976023991" r="2" style="fill: steelblue;"></circle><circle cx="118.17272156476974" cy="62.36480342017279" r="2" style="fill: steelblue;"></circle><circle cx="136.9635045528412" cy="38.92539607153998" r="2" style="fill: steelblue;"></circle><circle cx="158.57748985290527" cy="162.97178798251682" r="2" style="fill: steelblue;"></circle><circle cx="138.30396234989166" cy="16.05015330844455" r="2" style="fill: steelblue;"></circle><circle cx="86.06364279985428" cy="48.853748374515106" r="2" style="fill: steelblue;"></circle><circle cx="103.248580545187" cy="108.09868408573999" r="2" style="fill: steelblue;"></circle><circle cx="40.28975963592529" cy="69.82316904597812" r="2" style="fill: steelblue;"></circle><circle cx="78.04907113313675" cy="185.19178364011978" r="2" style="fill: steelblue;"></circle><circle cx="63.12820911407471" cy="153.2506313588884" r="2" style="fill: steelblue;"></circle><circle cx="78.88913750648499" cy="131.24686645136939" r="2" style="fill: steelblue;"></circle><circle cx="72.86158800125122" cy="64.58419892523024" r="2" style="fill: steelblue;"></circle><circle cx="148.77282977104187" cy="137.17000517580243" r="2" style="fill: steelblue;"></circle><circle cx="65.97028374671936" cy="11.724869410196948" r="2" style="fill: steelblue;"></circle><circle cx="124.70830231904984" cy="41.03200965457492" r="2" style="fill: steelblue;"></circle><circle cx="75.9602040052414" cy="44.63202423519559" r="2" style="fill: steelblue;"></circle><circle cx="138.9308363199234" cy="24.660964806874585" r="2" style="fill: steelblue;"></circle><circle cx="139.0523374080658" cy="92.54357881016202" r="2" style="fill: steelblue;"></circle><circle cx="154.77923154830933" cy="82.2710394859314" r="2" style="fill: steelblue;"></circle><circle cx="162.05328702926636" cy="48.5544999440511" r="2" style="fill: steelblue;"></circle><circle cx="131.02003931999207" cy="33.939500649770096" r="2" style="fill: steelblue;"></circle><circle cx="121.49890214204788" cy="117.20537187324629" r="2" style="fill: steelblue;"></circle><circle cx="111.66993752121925" cy="161.8003315395779" r="2" style="fill: steelblue;"></circle><circle cx="63.688746094703674" cy="65.54338335990906" r="2" style="fill: steelblue;"></circle><circle cx="126.56920850276947" cy="129.69772517681122" r="2" style="fill: steelblue;"></circle><circle cx="124.42058324813843" cy="82.9673707485199" r="2" style="fill: steelblue;"></circle><circle cx="113.79440128803253" cy="73.17587402131822" r="2" style="fill: steelblue;"></circle><circle cx="107.94870853424072" cy="89.93602130148146" r="2" style="fill: steelblue;"></circle><circle cx="116.27052873373032" cy="86.0108368926578" r="2" style="fill: steelblue;"></circle><circle cx="165.6076967716217" cy="75.43547948201497" r="2" style="fill: steelblue;"></circle><circle cx="122.56791442632675" cy="69.66552800602383" r="2" style="fill: steelblue;"></circle><circle cx="87.48174905776978" cy="117.27254341046014" r="2" style="fill: steelblue;"></circle><circle cx="130.24719059467316" cy="75.17330514060126" r="2" style="fill: steelblue;"></circle><circle cx="86.81780248880386" cy="66.85765584309895" r="2" style="fill: steelblue;"></circle><circle cx="164.05451893806458" cy="76.55754685401917" r="2" style="fill: steelblue;"></circle><circle cx="129.5654147863388" cy="131.67632619539896" r="2" style="fill: steelblue;"></circle><circle cx="100.1591278705746" cy="131.69049223264057" r="2" style="fill: steelblue;"></circle><circle cx="75.51810890436172" cy="90.96100926399231" r="2" style="fill: steelblue;"></circle><circle cx="55.11413514614105" cy="138.35177322228748" r="2" style="fill: steelblue;"></circle><circle cx="67.59956479072571" cy="166.29312104649014" r="2" style="fill: steelblue;"></circle><circle cx="97.22795598208904" cy="125.29161903593274" r="2" style="fill: steelblue;"></circle><circle cx="55.16597628593445" cy="96.65715363290575" r="2" style="fill: steelblue;"></circle></g></svg>