<svg xmlns="http://www.w3.org/2000/svg"><g><circle cx="13.737164603339302" cy="68.31309795379639" r="2" style="fill: steelblue;"></circle><circle cx="29.041718443234764" cy="49.01090322269334" r="2" style="fill: steelblue;"></circle><circle cx="26.864398850335018" cy="82.2656942738427" r="2" style="fill: steelblue;"></circle><circle cx="15.097528033786354" cy="61.410747634039986" r="2" style="fill: steelblue;"></circle><circle cx="55.52596118715074" cy="34.70790982246399" r="2" style="fill: steelblue;"></circle><circle cx="34.3084196249644" cy="55.45826355616252" r="2" style="fill: steelblue;"></circle><circle cx="57.842624021901024" cy="64.72678747442033" r="2" style="fill: steelblue;"></circle><circle cx="24.0946587589052" cy="48.39637767937448" r="2" style="fill: steelblue;"></circle><circle cx="32.875373297267494" cy="46.869658099280464" r="2" style="fill: steelblue;"></circle><circle cx="39.135338697168564" cy="56.21754477421443" r="2" style="fill: steelblue;"></circle><circle cx="35.422394838598045" cy="65.12721478939056" r="2" style="fill: steelblue;"></circle><circle cx="28.792643878195022" cy="30.76473391718335" r="2" style="fill: steelblue;"></circle><circle cx="19.919401407241825" cy="75.02628631061978" r="2" style="fill: steelblue;"></circle><circle cx="30.382942159970604" cy="33.048585222827064" r="2" style="fill: steelblue;"></circle><circle cx="20.75157662232717" cy="58.7404727935791" r="2" style="fill: steelblue;"></circle><circle cx="6.579729583528309" cy="50.700348450077904" r="2" style="fill: steelblue;"></circle><circle cx="51.499328845077095" cy="60.56431531906128" r="2" style="fill: steelblue;"></circle><circle cx="69.66452731026543" cy="50.65390898121728" r="2" style="fill: steelblue;"></circle><circle cx="50.58373651570744" cy="36.364609334203934" r="2" style="fill: steelblue;"></circle><circle cx="31.64910458856159" cy="51.619025733735825" r="2" style="fill: steelblue;"></circle><circle cx="26.380347874429493" cy="30.490760339630974" r="2" style="fill: steelblue;"></circle><circle cx="74.84930687480504" cy="29.239372412363686" r="2" style="fill: steelblue;"></circle><circle cx="48.12241320808729" cy="17.294455899132622" r="2" style="fill: steelblue;"></circle><circle cx="23.676931195788914" cy="50.195668472184074" r="2" style="fill: steelblue;"></circle><circle cx="22.672296563784283" cy="64.08722632461124" r="2" style="fill: steelblue;"></circle><circle cx="20.878613988558453" cy="57.01695730288824" r="2" style="fill: steelblue;"></circle><circle cx="8.281124300426908" cy="76.37870245509677" r="2" style="fill: steelblue;"></circle><circle cx="67.19178722964394" cy="80.7047446568807" r="2" style="fill: steelblue;"></circle><circle cx="25.646010372373794" cy="81.58115479681227" r="2" style="fill: steelblue;"></circle><circle cx="44.835993280220364" cy="47.465148857898185" r="2" style="fill: steelblue;"></circle><circle cx="81.35532273186577" cy="19.2877858877182" r="2" style="fill: steelblue;"></circle><circle cx="62.42644555038876" cy="11.357025305430103" r="2" style="fill: steelblue;"></circle><circle cx="75.21400451660156" cy="10.183651579750908" r="2" style="fill: steelblue;"></circle><circle cx="67.26404461595747" cy="24.73451958762275" r="2" style="fill: steelblue;"></circle><circle cx="71.00077072779337" cy="43.341713812616135" r="2" style="fill: steelblue;"></circle><circle cx="25.631410545772976" cy="30.561064018143547" r="2" style="fill: steelblue;"></circle><circle cx="37.38642086585363" cy="65.92477626270718" r="2" style="fill: steelblue;"></circle><circle cx="29.28127282195621" cy="53.95823816458385" r="2" style="fill: steelblue;"></circle><circle cx="42.96136808892091" cy="43.36403792517053" r="2" style="fill: steelblue;"></circle><circle cx="28.833711478445267" cy="71.14253706402249" r="2" style="fill: steelblue;"></circle><circle cx="8.285637696584068" cy="58.90392694208357" r="2" style="fill: steelblue;"></circle><circle cx="53.45311197969649" cy="56.878324349721275" r="2" style="fill: steelblue;"></circle><circle cx="66.46268169085184" cy="0.8089138401879192" r="2" style="fill: steelblue;"></circle><circle cx="54.63364240196016" cy="44.19508761105438" r="2" style="fill: steelblue;"></circle><circle cx="59.4670765929752" cy="53.01344411240684" r="2" style="fill: steelblue;"></circle><circle cx="73.07959198951721" cy="17.721299661530388" r="2" style="fill: steelblue;"></circle><circle cx="53.71417701244354" cy="42.656636238098145" r="2" style="fill: steelblue;"></circle><circle cx="16.81542495886485" cy="27.793449825710724" r="2" style="fill: steelblue;"></circle><circle cx="15.320482518937856" cy="55.889856649769676" r="2" style="fill: steelblue;"></circle><circle cx="46.475014711419746" cy="26.70749624570211" r="2" style="fill: steelblue;"></circle><circle cx="44.87283358143436" cy="50.744332952631844" r="2" style="fill: steelblue;"></circle><circle cx="65.94526204797957" cy="39.22022357583046" r="2" style="fill: steelblue;"></circle><circle cx="21.778072913487755" cy="20.227302445305718" r="2" style="fill: steelblue;"></circle><circle cx="46.98230818741852" cy="29.281183414989055" r="2" style="fill: steelblue;"></circle><circle cx="30.326337615648907" cy="51.894408298863304" r="2" style="fill: steelblue;"></circle><circle cx="45.88091400348478" cy="78.59651843706767" r="2" style="fill: steelblue;"></circle><circle cx="34.9544561571545" cy="48.25735398464733" r="2" style="fill: steelblue;"></circle><circle cx="27.62181493971083" cy="52.27552867598004" r="2" style="fill: steelblue;"></circle><circle cx="58.7575313117769" cy="56.9838328493966" r="2" style="fill: steelblue;"></circle><circle cx="61.95719970597161" cy="46.19532364110152" r="2" style="fill: steelblue;"></circle><circle cx="18.45433248413934" cy="57.09336631827884" r="2" style="fill: steelblue;"></circle><circle cx="48.7930436929067" cy="67.5916035970052" r="2" style="fill: steelblue;"></circle><circle cx="43.317759885556164" cy="54.72557428810332" r="2" style="fill: steelblue;"></circle><circle cx="7.543016804589168" cy="65.20281334718068" r="2" style="fill: steelblue;"></circle><circle cx="12.72809108098348" cy="77.60165068838332" r="2" style="fill: steelblue;"></circle><circle cx="3.200063440534806" cy="45.15384438758095" r="2" style="fill: steelblue;"></circle><circle cx="31.255784299638538" cy="61.50060660309262" r="2" style="fill: steelblue;"></circle><circle cx="9.50237380133735" cy="90.96373054716322" r="2" style="fill: steelblue;"></circle><circle cx="26.449732648001778" cy="70.00679704878065" r="2" style="fill: steelblue;"></circle><circle cx="55.61422738764021" cy="71.52709298663669" r="2" style="fill: steelblue;"></circle><circle cx="45.757033820781444" cy="36.123122771581016" r="2" style="fill: steelblue;"></circle><circle cx="71.54196931256187" cy="33.08233221371969" r="2" style="fill: steelblue;"></circle><circle cx="28.474058707555137" cy="52.464761005507576" r="2" style="fill: steelblue;"></circle><circle cx="38.4237022863494" cy="50.08112531569269" r="2" style="fill: steelblue;"></circle><circle cx="57.008596923616196" cy="21.01415329509312" r="2" style="fill: steelblue;"></circle><circle cx="82.15787609418234" cy="12.331720193227136" r="2" style="fill: steelblue;"></circle><circle cx="40.982234146859916" cy="32.92284177409278" r="2" style="fill: steelblue;"></circle><circle cx="73.24639227655199" cy="28.1172106663386" r="2" style="fill: steelblue;"></circle><circle cx="80.19097248713175" cy="17.14820762475332" r="2" style="fill: steelblue;"></circle><circle cx="83.10323887401157" cy="34.543258614010284" r="2" style="fill: steelblue;"></circle><circle cx="64.46915136443245" cy="16.50309496455723" r="2" style="fill: steelblue;"></circle><circle cx="69.75037952264151" cy="24.355682399537827" r="2" style="fill: steelblue;"></circle><circle cx="24.60028992758857" cy="18.22863949669732" r="2" style="fill: steelblue;"></circle><circle cx="47.98711728718546" cy="59.54763227038913" r="2" style="fill: steelblue;"></circle><circle cx="32.66705258025064" cy="65.65557519594829" r="2" style="fill: steelblue;"></circle><circle cx="68.08293792936537" cy="54.871281153625915" r="2" style="fill: steelblue;"></circle><circle cx="49.86593764689234" cy="48.148296525081" r="2" style="fill: steelblue;"></circle><circle cx="26.2378066778183" cy="30.490470594829986" r="2" style="fill: steelblue;"></circle><circle cx="67.58792135450575" cy="55.721004969543884" r="2" style="fill: steelblue;"></circle><circle cx="43.62965603876445" cy="28.33817501862844" r="2" style="fill: steelblue;"></circle><circle cx="57.37438152233759" cy="26.350090238783096" r="2" style="fill: steelblue;"></circle><circle cx="56.757728424337174" cy="16.788720422320903" r="2" style="fill: steelblue;"></circle><circle cx="38.104916777875694" cy="22.017049458291794" r="2" style="fill: steelblue;"></circle><circle cx="57.06866433223089" cy="7.229436768425835" r="2" style="fill: steelblue;"></circle><circle cx="80.4056617948744" cy="45.78335082365407" r="2" style="fill: steelblue;"></circle><circle cx="66.7724503411187" cy="2.2941357559628006" r="2" style="fill: steelblue;"></circle><circle cx="61.34249700440301" cy="0.9786215093400719" r="2" style="fill: steelblue;"></circle><circle cx="25.821133785777622" cy="42.04924566050371" r="2" style="fill: steelblue;"></circle><circle cx="84.29558012220595" cy="34.13751572370529" r="2" style="fill: steelblue;"></circle><circle cx="89.65766694810655" cy="20.0271252128813" r="2" style="fill: steelblue;"></circle><circle cx="45.960660775502525" cy="17.857082353697884" r="2" style="fill: steelblue;"></circle><circle cx="68.03924275769127" cy="51.033477154042984" r="2" style="fill: steelblue;"></circle><circle cx="27.27115915881263" cy="43.68602330279019" r="2" style="fill: steelblue;"></circle><circle cx="90.05447824796042" cy="27.915796637535095" r="2" style="fill: steelblue;"></circle><circle cx="59.6111708217197" cy="67.92498562071059" r="2" style="fill: steelblue;"></circle><circle cx="59.63537361886766" cy="66.52667721112569" r="2" style="fill: steelblue;"></circle><circle cx="52.91566103696823" cy="19.397875666618347" r="2" style="fill: steelblue;"></circle><circle cx="40.52349651853244" cy="52.72241036097209" r="2" style="fill: steelblue;"></circle><circle cx="75.11585884624057" cy="36.67820427152846" r="2" style="fill: steelblue;"></circle><circle cx="89.44436179267036" cy="17.614352371957565" r="2" style="fill: steelblue;"></circle><circle cx="73.80035453372533" cy="20.368663138813446" r="2" style="fill: steelblue;"></circle><circle cx="48.128245770931244" cy="8.640152878231477" r="2" style="fill: steelblue;"></circle><circle cx="31.189869013097553" cy="45.276966266747976" r="2" style="fill: steelblue;"></circle><circle cx="60.54869890213013" cy="52.9746456278695" r="2" style="fill: steelblue;"></circle><circle cx="66.02105597654977" cy="62.34507030910916" r="2" style="fill: steelblue;"></circle><circle cx="25.289466977119446" cy="57.28318062093523" r="2" style="fill: steelblue;"></circle><circle cx="27.08434330092536" cy="67.78859694798787" r="2" style="fill: steelblue;"></circle><circle cx="46.659263844291374" cy="57.5536201397578" r="2" style="fill: steelblue;"></circle></g></svg>