<svg xmlns="http://www.w3.org/2000/svg"><g><circle cx="49.440736323595054" cy="144.57962777879501" r="2" style="fill: steelblue;"></circle><circle cx="10.254172980785375" cy="141.6809644964006" r="2" style="fill: steelblue;"></circle><circle cx="80.15161976218224" cy="44.7554541958703" r="2" style="fill: steelblue;"></circle><circle cx="9.613199532032018" cy="90.3693590934078" r="2" style="fill: steelblue;"></circle><circle cx="108.55166837573051" cy="130.500199397405" r="2" style="fill: steelblue;"></circle><circle cx="112.83165998756886" cy="105.08753226863013" r="2" style="fill: steelblue;"></circle><circle cx="92.46920133009553" cy="135.91542376412286" r="2" style="fill: steelblue;"></circle><circle cx="111.56646478921175" cy="108.3116137319141" r="2" style="fill: steelblue;"></circle><circle cx="68.11802685260773" cy="114.4438472059038" r="2" style="fill: steelblue;"></circle><circle cx="30.115744471549995" cy="82.90243637230661" r="2" style="fill: steelblue;"></circle><circle cx="137.38078102469444" cy="134.01028050316705" r="2" style="fill: steelblue;"></circle><circle cx="194.20305490493774" cy="43.06754337416756" r="2" style="fill: steelblue;"></circle><circle cx="50.89091360569" cy="132.44335717625088" r="2" style="fill: steelblue;"></circle><circle cx="149.9470718204975" cy="156.24252822664047" r="2" style="fill: steelblue;"></circle><circle cx="71.10303491353989" cy="94.63687108622658" r="2" style="fill: steelblue;"></circle><circle cx="93.50275192409754" cy="100.96929503811731" r="2" style="fill: steelblue;"></circle><circle cx="86.59608606249094" cy="93.60504431857004" r="2" style="fill: steelblue;"></circle><circle cx="18.793410062789924" cy="55.07133934232924" r="2" style="fill: steelblue;"></circle><circle cx="105.19089587032795" cy="27.987253665924072" r="2" style="fill: steelblue;"></circle><circle cx="138.18229958415031" cy="40.05401531855266" r="2" style="fill: steelblue;"></circle><circle cx="114.32687882333994" cy="115.34300148487091" r="2" style="fill: steelblue;"></circle><circle cx="162.0138719677925" cy="34.467411041259766" r="2" style="fill: steelblue;"></circle><circle cx="67.83742681145668" cy="154.89791366789078" r="2" style="fill: steelblue;"></circle><circle cx="123.74667674303055" cy="118.66282290882535" r="2" style="fill: steelblue;"></circle><circle cx="71.88305296003819" cy="100.21777484152052" r="2" style="fill: steelblue;"></circle><circle cx="25.144799053668983" cy="83.52458303173383" r="2" style="fill: steelblue;"></circle><circle cx="17.015425860881813" cy="83.05730703804228" r="2" style="fill: steelblue;"></circle><circle cx="99.38033655053005" cy="137.99501326349045" r="2" style="fill: steelblue;"></circle><circle cx="111.11164502799511" cy="134.10942289564346" r="2" style="fill: steelblue;"></circle><circle cx="0.12393146753311712" cy="97.00434605280559" r="2" style="fill: steelblue;"></circle><circle cx="163.54915350675583" cy="37.118860748079086" r="2" style="fill: steelblue;"></circle><circle cx="83.43529365956783" cy="33.35128426551819" r="2" style="fill: steelblue;"></circle><circle cx="124.57106672227383" cy="85.48447812596957" r="2" style="fill: steelblue;"></circle><circle cx="171.48727774620056" cy="84.05671053462558" r="2" style="fill: steelblue;"></circle><circle cx="70.32260149717331" cy="70.99630965126886" r="2" style="fill: steelblue;"></circle><circle cx="144.1575162112713" cy="110.46761804156833" r="2" style="fill: steelblue;"></circle><circle cx="69.76529434323311" cy="149.16027122073703" r="2" style="fill: steelblue;"></circle><circle cx="41.48950651288033" cy="149.07056623035007" r="2" style="fill: steelblue;"></circle><circle cx="91.30097310990095" cy="155.19951979319256" r="2" style="fill: steelblue;"></circle><circle cx="110.43182518333197" cy="132.38160014152527" r="2" style="fill: steelblue;"></circle><circle cx="81.62057623267174" cy="115.1889830827713" r="2" style="fill: steelblue;"></circle><circle cx="189.0357419848442" cy="22.5899338722229" r="2" style="fill: steelblue;"></circle><circle cx="130.81939555704594" cy="107.67078432771895" r="2" style="fill: steelblue;"></circle><circle cx="76.14837810397148" cy="69.06614071793027" r="2" style="fill: steelblue;"></circle><circle cx="155.1586113870144" cy="37.922533353169776" r="2" style="fill: steelblue;"></circle><circle cx="90.50129391252995" cy="85.90375747945573" r="2" style="fill: steelblue;"></circle><circle cx="98.8541123457253" cy="48.305096228917456" r="2" style="fill: steelblue;"></circle><circle cx="88.89902886003256" cy="125.06870627403259" r="2" style="fill: steelblue;"></circle><circle cx="82.71497152745724" cy="93.79581643475427" r="2" style="fill: steelblue;"></circle><circle cx="110.26028487831354" cy="145.60609261194864" r="2" style="fill: steelblue;"></circle><circle cx="104.81566740199924" cy="114.6700551112493" r="2" style="fill: steelblue;"></circle><circle cx="27.506692707538612" cy="54.40143611696031" r="2" style="fill: steelblue;"></circle><circle cx="89.16967865079641" cy="85.73415122098393" r="2" style="fill: steelblue;"></circle><circle cx="93.60121507197618" cy="95.91724425554276" r="2" style="fill: steelblue;"></circle><circle cx="51.02372393012047" cy="71.98627822928958" r="2" style="fill: steelblue;"></circle><circle cx="78.1259186565876" cy="143.84192758136325" r="2" style="fill: steelblue;"></circle><circle cx="31.70063197612763" cy="146.89633448918661" r="2" style="fill: steelblue;"></circle><circle cx="78.49367186427116" cy="117.22842388682895" r="2" style="fill: steelblue;"></circle><circle cx="1.4002233743667658" cy="116.61409371429019" r="2" style="fill: steelblue;"></circle><circle cx="33.38712304830552" cy="61.023128032684326" r="2" style="fill: steelblue;"></circle><circle cx="47.03200832009316" cy="144.16517681545682" r="2" style="fill: steelblue;"></circle><circle cx="96.5886992868036" cy="71.21207349830203" r="2" style="fill: steelblue;"></circle><circle cx="60.1120688021183" cy="74.47673082351685" r="2" style="fill: steelblue;"></circle><circle cx="72.21745550632477" cy="136.17654509014554" r="2" style="fill: steelblue;"></circle><circle cx="89.38279040157795" cy="139.51931926939224" r="2" style="fill: steelblue;"></circle><circle cx="60.5245441198349" cy="165.16421768400406" r="2" style="fill: steelblue;"></circle><circle cx="43.34254041314126" cy="78.09314578771591" r="2" style="fill: steelblue;"></circle><circle cx="27.654527127742774" cy="126.02669530444675" r="2" style="fill: steelblue;"></circle><circle cx="80.18565028905869" cy="164.64987595876056" r="2" style="fill: steelblue;"></circle><circle cx="49.672132730484016" cy="140.12449185053507" r="2" style="fill: steelblue;"></circle><circle cx="38.49729374051095" cy="183.0127027299669" r="2" style="fill: steelblue;"></circle><circle cx="159.16834622621536" cy="43.99056434631348" r="2" style="fill: steelblue;"></circle><circle cx="179.22372967004776" cy="78.71392485168245" r="2" style="fill: steelblue;"></circle><circle cx="128.34412083029747" cy="55.387147929933334" r="2" style="fill: steelblue;"></circle><circle cx="129.9037452787161" cy="31.25880029466417" r="2" style="fill: steelblue;"></circle><circle cx="158.55709686875343" cy="91.70889742672443" r="2" style="fill: steelblue;"></circle><circle cx="126.94803662598133" cy="80.26114304860432" r="2" style="fill: steelblue;"></circle><circle cx="175.70669054985046" cy="15.914882553948306" r="2" style="fill: steelblue;"></circle><circle cx="150.24513229727745" cy="33.39381217956543" r="2" style="fill: steelblue;"></circle><circle cx="175.00185817480087" cy="58.98675852351718" r="2" style="fill: steelblue;"></circle><circle cx="60.691604763269424" cy="42.12848875257704" r="2" style="fill: steelblue;"></circle><circle cx="155.79719692468643" cy="6.24979072146945" r="2" style="fill: steelblue;"></circle><circle cx="139.1255058348179" cy="71.16629878679912" r="2" style="fill: steelblue;"></circle><circle cx="106.78302021697164" cy="128.6367760764228" r="2" style="fill: steelblue;"></circle><circle cx="88.24304435402155" cy="51.3684736357795" r="2" style="fill: steelblue;"></circle><circle cx="64.86565470695496" cy="112.1453861395518" r="2" style="fill: steelblue;"></circle><circle cx="78.85307297110558" cy="65.30195011032953" r="2" style="fill: steelblue;"></circle><circle cx="107.83716235309839" cy="58.78777835104201" r="2" style="fill: steelblue;"></circle><circle cx="118.9107321202755" cy="80.05316423045265" r="2" style="fill: steelblue;"></circle><circle cx="133.16590189933777" cy="55.62930835617914" r="2" style="fill: steelblue;"></circle><circle cx="160.61067059636116" cy="28.883435991075302" r="2" style="fill: steelblue;"></circle><circle cx="175.4849687218666" cy="35.09664403067696" r="2" style="fill: steelblue;"></circle><circle cx="144.35746744275093" cy="125.0126083691915" r="2" style="fill: steelblue;"></circle><circle cx="145.77519372105598" cy="122.73267772462633" r="2" style="fill: steelblue;"></circle><circle cx="125.96413902938366" cy="86.0308343751563" r="2" style="fill: steelblue;"></circle><circle cx="147.0668487250805" cy="106.43039180172815" r="2" style="fill: steelblue;"></circle><circle cx="187.1885046362877" cy="44.914532370037506" r="2" style="fill: steelblue;"></circle><circle cx="57.17853680253029" cy="74.85688924789429" r="2" style="fill: steelblue;"></circle><circle cx="79.9081776291132" cy="32.28027820587158" r="2" style="fill: steelblue;"></circle><circle cx="116.96953177452087" cy="143.96929608450995" r="2" style="fill: steelblue;"></circle><circle cx="117.42750033736229" cy="47.28727738062541" r="2" style="fill: steelblue;"></circle><circle cx="125.44469013810158" cy="91.34378669162591" r="2" style="fill: steelblue;"></circle><circle cx="112.44041975587606" cy="72.05864985783894" r="2" style="fill: steelblue;"></circle><circle cx="102.87044979631901" cy="146.59378131230673" r="2" style="fill: steelblue;"></circle><circle cx="158.92952159047127" cy="48.614477448993256" r="2" style="fill: steelblue;"></circle><circle cx="164.10452723503113" cy="81.27906372149785" r="2" style="fill: steelblue;"></circle><circle cx="135.22327914834023" cy="72.30193118254344" r="2" style="fill: steelblue;"></circle><circle cx="170.67334651947021" cy="77.58533077107536" r="2" style="fill: steelblue;"></circle><circle cx="81.70211724936962" cy="93.24872733818161" r="2" style="fill: steelblue;"></circle><circle cx="140.07722437381744" cy="104.02452150980632" r="2" style="fill: steelblue;"></circle><circle cx="134.89887714385986" cy="51.26344031757779" r="2" style="fill: steelblue;"></circle><circle cx="96.68241362087429" cy="53.064232402377655" r="2" style="fill: steelblue;"></circle><circle cx="35.9629899263382" cy="125.13401309649149" r="2" style="fill: steelblue;"></circle><circle cx="24.327798187732704" cy="121.40077551205954" r="2" style="fill: steelblue;"></circle><circle cx="35.54160743951798" cy="98.90474329392116" r="2" style="fill: steelblue;"></circle><circle cx="37.58175894618035" cy="150.88260703616672" r="2" style="fill: steelblue;"></circle><circle cx="59.596794098615646" cy="91.7734498778979" r="2" style="fill: steelblue;"></circle><circle cx="101.97493797168136" cy="127.0581669277615" r="2" style="fill: steelblue;"></circle></g></svg>