<svg xmlns="http://www.w3.org/2000/svg"><g><circle cx="42.311105597764254" cy="94.82346640692818" r="2" style="fill: steelblue;"></circle><circle cx="13.162444531917576" cy="75.10509921444786" r="2" style="fill: steelblue;"></circle><circle cx="42.08755977451801" cy="91.13278322749667" r="2" style="fill: steelblue;"></circle><circle cx="10.917200893163685" cy="79.57864469952054" r="2" style="fill: steelblue;"></circle><circle cx="10.017118602991108" cy="77.25922101073795" r="2" style="fill: steelblue;"></circle><circle cx="13.019624352455143" cy="76.21743281682332" r="2" style="fill: steelblue;"></circle><circle cx="48.867103131487966" cy="53.942350049813584" r="2" style="fill: steelblue;"></circle><circle cx="70.76990716159344" cy="94.76390812132094" r="2" style="fill: steelblue;"></circle><circle cx="22.04552218317986" cy="43.35471904940075" r="2" style="fill: steelblue;"></circle><circle cx="40.74689485132694" cy="70.64885232183669" r="2" style="fill: steelblue;"></circle><circle cx="38.056909292936325" cy="68.55440884828568" r="2" style="fill: steelblue;"></circle><circle cx="28.431856259703636" cy="60.75054407119751" r="2" style="fill: steelblue;"></circle><circle cx="24.357521161437038" cy="28.627981742223106" r="2" style="fill: steelblue;"></circle><circle cx="38.412171602249146" cy="93.68036521805656" r="2" style="fill: steelblue;"></circle><circle cx="46.913319919258356" cy="45.32379160324732" r="2" style="fill: steelblue;"></circle><circle cx="40.8934123814106" cy="77.80795296033223" r="2" style="fill: steelblue;"></circle><circle cx="19.19229440391064" cy="80.95438447263506" r="2" style="fill: steelblue;"></circle><circle cx="42.64597240835428" cy="80.25122847821977" r="2" style="fill: steelblue;"></circle><circle cx="46.512401616200805" cy="32.82237880759769" r="2" style="fill: steelblue;"></circle><circle cx="41.20675306767225" cy="48.75069152977731" r="2" style="fill: steelblue;"></circle><circle cx="33.953049406409264" cy="59.14002615544531" r="2" style="fill: steelblue;"></circle><circle cx="39.88156020641327" cy="54.275443363520836" r="2" style="fill: steelblue;"></circle><circle cx="29.49846461415291" cy="45.92507415347629" r="2" style="fill: steelblue;"></circle><circle cx="47.95438186265528" cy="61.79233392079671" r="2" style="fill: steelblue;"></circle><circle cx="51.20032345876098" cy="90.9484194384681" r="2" style="fill: steelblue;"></circle><circle cx="34.864030964672565" cy="92.49916010432773" r="2" style="fill: steelblue;"></circle><circle cx="62.54955120384693" cy="78.05472943517897" r="2" style="fill: steelblue;"></circle><circle cx="65.67714847624302" cy="66.54931935999129" r="2" style="fill: steelblue;"></circle><circle cx="25.342215970158577" cy="67.12460683451758" r="2" style="fill: steelblue;"></circle><circle cx="60.89523173868656" cy="48.43872123294406" r="2" style="fill: steelblue;"></circle><circle cx="85.74599698185921" cy="29.70097131199306" r="2" style="fill: steelblue;"></circle><circle cx="77.00731717050076" cy="46.16594894064797" r="2" style="fill: steelblue;"></circle><circle cx="45.312762912362814" cy="28.337450491057503" r="2" style="fill: steelblue;"></circle><circle cx="64.02645464986563" cy="38.90442185931735" r="2" style="fill: steelblue;"></circle><circle cx="70.78002318739891" cy="43.35410396258036" r="2" style="fill: steelblue;"></circle><circle cx="96.42381146550179" cy="91.80516997973123" r="2" style="fill: steelblue;"></circle><circle cx="60.80967579036951" cy="83.49002069897121" r="2" style="fill: steelblue;"></circle><circle cx="57.928384467959404" cy="34.29132534397973" r="2" style="fill: steelblue;"></circle><circle cx="35.49271002411842" cy="69.9335816833708" r="2" style="fill: steelblue;"></circle><circle cx="6.979654729366305" cy="37.26130558384789" r="2" style="fill: steelblue;"></circle><circle cx="59.250941686332226" cy="65.03378599882126" r="2" style="fill: steelblue;"></circle><circle cx="91.34327173233032" cy="27.193572786119248" r="2" style="fill: steelblue;"></circle><circle cx="96.1583212018013" cy="36.07174257437388" r="2" style="fill: steelblue;"></circle><circle cx="91.9527143239975" cy="36.045302947362266" r="2" style="fill: steelblue;"></circle><circle cx="37.69229743629694" cy="45.375995337963104" r="2" style="fill: steelblue;"></circle><circle cx="31.670716777443886" cy="62.05138895246718" r="2" style="fill: steelblue;"></circle><circle cx="32.60548152029514" cy="43.42590603563521" r="2" style="fill: steelblue;"></circle><circle cx="8.614051342010502" cy="85.88698506355286" r="2" style="fill: steelblue;"></circle><circle cx="17.798497527837757" cy="93.10439891285365" r="2" style="fill: steelblue;"></circle><circle cx="30.580834671854973" cy="80.49738903840382" r="2" style="fill: steelblue;"></circle><circle cx="33.80212485790253" cy="44.859545926253" r="2" style="fill: steelblue;"></circle><circle cx="30.498362332582474" cy="62.98763139380349" r="2" style="fill: steelblue;"></circle><circle cx="33.91472175717354" cy="78.43222386307187" r="2" style="fill: steelblue;"></circle><circle cx="24.25533272325993" cy="61.39402174287372" r="2" style="fill: steelblue;"></circle><circle cx="40.11222459375858" cy="46.459216210577225" r="2" style="fill: steelblue;"></circle><circle cx="35.73652841150761" cy="66.67478465371661" r="2" style="fill: steelblue;"></circle><circle cx="54.51167766004801" cy="88.45379617479112" r="2" style="fill: steelblue;"></circle><circle cx="0.2448141574859647" cy="58.6539376527071" r="2" style="fill: steelblue;"></circle><circle cx="33.77436213195324" cy="71.2996307346556" r="2" style="fill: steelblue;"></circle><circle cx="29.831848293542862" cy="68.80467881759007" r="2" style="fill: steelblue;"></circle><circle cx="29.53389212489128" cy="36.99293070369296" r="2" style="fill: steelblue;"></circle><circle cx="32.297440990805626" cy="26.523709297180176" r="2" style="fill: steelblue;"></circle><circle cx="10.057869553565983" cy="89.88225128915575" r="2" style="fill: steelblue;"></circle><circle cx="13.262345641851429" cy="98.85603851742214" r="2" style="fill: steelblue;"></circle><circle cx="49.8306468478404" cy="89.60627184973823" r="2" style="fill: steelblue;"></circle><circle cx="28.42087224125862" cy="97.75892562336391" r="2" style="fill: steelblue;"></circle><circle cx="47.85305792465806" cy="51.25413214166959" r="2" style="fill: steelblue;"></circle><circle cx="19.918066635727886" cy="72.02020618650648" r="2" style="fill: steelblue;"></circle><circle cx="18.294657766819004" cy="53.785540991359284" r="2" style="fill: steelblue;"></circle><circle cx="65.79605229198933" cy="76.61275896761153" r="2" style="fill: steelblue;"></circle><circle cx="34.1405488550663" cy="88.03407351175943" r="2" style="fill: steelblue;"></circle><circle cx="70.71604132652283" cy="30.150208208296036" r="2" style="fill: steelblue;"></circle><circle cx="31.836317107081413" cy="49.43193453881476" r="2" style="fill: steelblue;"></circle><circle cx="79.76709231734276" cy="36.935821175575256" r="2" style="fill: steelblue;"></circle><circle cx="73.06845597922802" cy="27.32521626684401" r="2" style="fill: steelblue;"></circle><circle cx="45.627470780164" cy="62.09887895319197" r="2" style="fill: steelblue;"></circle><circle cx="73.11335317790508" cy="53.36024488011996" r="2" style="fill: steelblue;"></circle><circle cx="82.64335542917252" cy="31.182401710086395" r="2" style="fill: steelblue;"></circle><circle cx="74.59929138422012" cy="19.46269803576999" r="2" style="fill: steelblue;"></circle><circle cx="73.28266948461533" cy="81.48589399125841" r="2" style="fill: steelblue;"></circle><circle cx="94.4025844335556" cy="8.025076654222275" r="2" style="fill: steelblue;"></circle><circle cx="73.72392453253269" cy="24.426874187257553" r="2" style="fill: steelblue;"></circle><circle cx="65.71593061089516" cy="54.049342042869995" r="2" style="fill: steelblue;"></circle><circle cx="18.917269259691242" cy="34.91158452298906" r="2" style="fill: steelblue;"></circle><circle cx="33.5004098713398" cy="92.59589182005989" r="2" style="fill: steelblue;"></circle><circle cx="45.34581741318107" cy="76.6253156794442" r="2" style="fill: steelblue;"></circle><circle cx="63.67304474115372" cy="65.62343322568469" r="2" style="fill: steelblue;"></circle><circle cx="42.027982138097286" cy="32.29209946261512" r="2" style="fill: steelblue;"></circle><circle cx="58.376057259738445" cy="68.58500258790122" r="2" style="fill: steelblue;"></circle><circle cx="64.22889903187752" cy="5.862434705098474" r="2" style="fill: steelblue;"></circle><circle cx="69.90986801683903" cy="20.51600482728746" r="2" style="fill: steelblue;"></circle><circle cx="54.28480142727494" cy="22.316012117597793" r="2" style="fill: steelblue;"></circle><circle cx="74.27899092435837" cy="12.330482403437292" r="2" style="fill: steelblue;"></circle><circle cx="73.97123351693153" cy="46.27178940508101" r="2" style="fill: steelblue;"></circle><circle cx="27.378983050584793" cy="41.1355197429657" r="2" style="fill: steelblue;"></circle><circle cx="51.8913249950856" cy="24.27724997202555" r="2" style="fill: steelblue;"></circle><circle cx="89.81607779860497" cy="16.969750324885048" r="2" style="fill: steelblue;"></circle><circle cx="81.33978322148323" cy="58.602685936623146" r="2" style="fill: steelblue;"></circle><circle cx="69.05936561524868" cy="80.90016576978896" r="2" style="fill: steelblue;"></circle><circle cx="54.89205401390791" cy="32.77169167995453" r="2" style="fill: steelblue;"></circle><circle cx="51.31194852292538" cy="64.84886258840561" r="2" style="fill: steelblue;"></circle><circle cx="55.06521062925458" cy="41.48368537425995" r="2" style="fill: steelblue;"></circle><circle cx="82.90662169456482" cy="36.58793701065911" r="2" style="fill: steelblue;"></circle><circle cx="42.18062777072191" cy="44.96801065074073" r="2" style="fill: steelblue;"></circle><circle cx="28.59293781220913" cy="43.0054184463289" r="2" style="fill: steelblue;"></circle><circle cx="69.98423598706722" cy="37.717739741007485" r="2" style="fill: steelblue;"></circle><circle cx="50.787099183071405" cy="34.83276400301192" r="2" style="fill: steelblue;"></circle><circle cx="51.73828238621354" cy="58.63627170523007" r="2" style="fill: steelblue;"></circle><circle cx="75.04291012883186" cy="37.58665257030063" r="2" style="fill: steelblue;"></circle><circle cx="72.79597707092762" cy="33.42882792154948" r="2" style="fill: steelblue;"></circle><circle cx="78.51827442646027" cy="38.27877342700958" r="2" style="fill: steelblue;"></circle><circle cx="31.08302243053913" cy="65.83816309769948" r="2" style="fill: steelblue;"></circle><circle cx="36.96125391870737" cy="65.84524611632028" r="2" style="fill: steelblue;"></circle><circle cx="46.92488578148186" cy="45.480504631996155" r="2" style="fill: steelblue;"></circle><circle cx="21.539709717035297" cy="69.17588661114374" r="2" style="fill: steelblue;"></circle><circle cx="25.835436955094337" cy="83.14656052324507" r="2" style="fill: steelblue;"></circle><circle cx="43.18147636950016" cy="62.64580951796637" r="2" style="fill: steelblue;"></circle><circle cx="44.12336014211178" cy="48.32857681645287" r="2" style="fill: steelblue;"></circle></g></svg>