<svg xmlns="http://www.w3.org/2000/svg"><g><circle cx="9.551650285720829" cy="81.22635558247566" r="2" style="fill: steelblue;"></circle><circle cx="30.292487144470215" cy="89.90782424807549" r="2" style="fill: steelblue;"></circle><circle cx="20.37424445152283" cy="72.27737382054329" r="2" style="fill: steelblue;"></circle><circle cx="26.312598917219375" cy="91.8778732419014" r="2" style="fill: steelblue;"></circle><circle cx="37.93453648686409" cy="78.4530408680439" r="2" style="fill: steelblue;"></circle><circle cx="32.216228710280525" cy="77.32033282518387" r="2" style="fill: steelblue;"></circle><circle cx="41.43517936269443" cy="57.87545274943113" r="2" style="fill: steelblue;"></circle><circle cx="31.277392639054195" cy="47.517343144863844" r="2" style="fill: steelblue;"></circle><circle cx="42.46178575687939" cy="75.18287487328053" r="2" style="fill: steelblue;"></circle><circle cx="34.57619597514471" cy="83.50821509957314" r="2" style="fill: steelblue;"></circle><circle cx="13.418544663323297" cy="76.21022425591946" r="2" style="fill: steelblue;"></circle><circle cx="48.176945663160744" cy="54.71831252798438" r="2" style="fill: steelblue;"></circle><circle cx="11.443498399522571" cy="76.07433870434761" r="2" style="fill: steelblue;"></circle><circle cx="43.21950514697367" cy="54.12630429491401" r="2" style="fill: steelblue;"></circle><circle cx="24.80509148703681" cy="75.47717839479446" r="2" style="fill: steelblue;"></circle><circle cx="6.511776977115209" cy="34.97644439339638" r="2" style="fill: steelblue;"></circle><circle cx="59.3290239572525" cy="57.79317459091544" r="2" style="fill: steelblue;"></circle><circle cx="48.78741436534458" cy="56.7357555963099" r="2" style="fill: steelblue;"></circle><circle cx="40.49409901102384" cy="59.41845588386059" r="2" style="fill: steelblue;"></circle><circle cx="53.81690230634477" cy="40.762146189808846" r="2" style="fill: steelblue;"></circle><circle cx="49.483310182889305" cy="29.908958077430725" r="2" style="fill: steelblue;"></circle><circle cx="48.05769042836295" cy="13.40760588645935" r="2" style="fill: steelblue;"></circle><circle cx="58.67902868323856" cy="40.8455777913332" r="2" style="fill: steelblue;"></circle><circle cx="39.162181897295845" cy="62.89838086813688" r="2" style="fill: steelblue;"></circle><circle cx="22.390903035799663" cy="44.98058948665857" r="2" style="fill: steelblue;"></circle><circle cx="27.92863150437673" cy="31.423592194914818" r="2" style="fill: steelblue;"></circle><circle cx="4.849774307674834" cy="59.03266575187445" r="2" style="fill: steelblue;"></circle><circle cx="9.989585479100548" cy="77.71595492959023" r="2" style="fill: steelblue;"></circle><circle cx="33.62679663631651" cy="66.23301208019257" r="2" style="fill: steelblue;"></circle><circle cx="60.65056158436669" cy="63.24288081377745" r="2" style="fill: steelblue;"></circle><circle cx="52.79621415668064" cy="17.69009903073311" r="2" style="fill: steelblue;"></circle><circle cx="77.23644971847534" cy="36.50649655610323" r="2" style="fill: steelblue;"></circle><circle cx="47.55098016725646" cy="50.52470969967544" r="2" style="fill: steelblue;"></circle><circle cx="51.628559993373024" cy="77.71048434078693" r="2" style="fill: steelblue;"></circle><circle cx="45.51050487077898" cy="78.06928940117359" r="2" style="fill: steelblue;"></circle><circle cx="75.55647293726602" cy="62.77389470487833" r="2" style="fill: steelblue;"></circle><circle cx="42.26348855429226" cy="56.81068375706673" r="2" style="fill: steelblue;"></circle><circle cx="15.73295659489102" cy="94.45130750536919" r="2" style="fill: steelblue;"></circle><circle cx="24.56533345911238" cy="71.80244587361813" r="2" style="fill: steelblue;"></circle><circle cx="44.51480437742753" cy="39.896856248378754" r="2" style="fill: steelblue;"></circle><circle cx="15.59417380226983" cy="68.44597049057484" r="2" style="fill: steelblue;"></circle><circle cx="10.353481769561771" cy="61.404416523873806" r="2" style="fill: steelblue;"></circle><circle cx="42.68809114065436" cy="53.42129450291395" r="2" style="fill: steelblue;"></circle><circle cx="83.57348309622871" cy="18.74011680483818" r="2" style="fill: steelblue;"></circle><circle cx="42.633526399731636" cy="44.212211575359106" r="2" style="fill: steelblue;"></circle><circle cx="42.4499480260743" cy="11.742959916591644" r="2" style="fill: steelblue;"></circle><circle cx="32.4860895673434" cy="38.92663978040218" r="2" style="fill: steelblue;"></circle><circle cx="13.534631331761679" cy="89.91248831152916" r="2" style="fill: steelblue;"></circle><circle cx="52.73136927021874" cy="51.93997903261334" r="2" style="fill: steelblue;"></circle><circle cx="8.663229809867014" cy="59.502096101641655" r="2" style="fill: steelblue;"></circle><circle cx="55.01484390762117" cy="30.32425157725811" r="2" style="fill: steelblue;"></circle><circle cx="36.52558906210794" cy="53.035524394363165" r="2" style="fill: steelblue;"></circle><circle cx="39.4878823724058" cy="17.28389710187912" r="2" style="fill: steelblue;"></circle><circle cx="60.05586451954312" cy="69.60242539644241" r="2" style="fill: steelblue;"></circle><circle cx="29.017858372794258" cy="50.005174428224564" r="2" style="fill: steelblue;"></circle><circle cx="26.61798662609524" cy="72.83060364425182" r="2" style="fill: steelblue;"></circle><circle cx="60.40930847326914" cy="55.44359441846609" r="2" style="fill: steelblue;"></circle><circle cx="29.120091928376095" cy="44.24236640334129" r="2" style="fill: steelblue;"></circle><circle cx="47.32479461365276" cy="26.80591605603695" r="2" style="fill: steelblue;"></circle><circle cx="38.72607168224123" cy="71.38444408774376" r="2" style="fill: steelblue;"></circle><circle cx="42.13376463287407" cy="66.26410335302353" r="2" style="fill: steelblue;"></circle><circle cx="41.99800284372436" cy="63.34444712847471" r="2" style="fill: steelblue;"></circle><circle cx="3.328551186455623" cy="87.35988214612007" r="2" style="fill: steelblue;"></circle><circle cx="6.634026103549536" cy="81.48181363940239" r="2" style="fill: steelblue;"></circle><circle cx="13.387676080067953" cy="79.47048284113407" r="2" style="fill: steelblue;"></circle><circle cx="33.49032435152266" cy="49.31879615178332" r="2" style="fill: steelblue;"></circle><circle cx="15.77476263046265" cy="83.77373516559601" r="2" style="fill: steelblue;"></circle><circle cx="45.620923820469116" cy="80.77692538499832" r="2" style="fill: steelblue;"></circle><circle cx="6.316396262910633" cy="39.23155292868614" r="2" style="fill: steelblue;"></circle><circle cx="7.322383589214751" cy="55.842854268848896" r="2" style="fill: steelblue;"></circle><circle cx="34.158193568388626" cy="78.16012501716614" r="2" style="fill: steelblue;"></circle><circle cx="51.419990095827316" cy="45.625609531998634" r="2" style="fill: steelblue;"></circle><circle cx="72.29337029986912" cy="22.640326246619225" r="2" style="fill: steelblue;"></circle><circle cx="63.637830482588875" cy="26.83868370950222" r="2" style="fill: steelblue;"></circle><circle cx="64.12178377310434" cy="22.537599503993988" r="2" style="fill: steelblue;"></circle><circle cx="45.08203382914265" cy="24.676381796598434" r="2" style="fill: steelblue;"></circle><circle cx="15.830370452668935" cy="23.20694662630558" r="2" style="fill: steelblue;"></circle><circle cx="68.41052836842007" cy="23.829133436083794" r="2" style="fill: steelblue;"></circle><circle cx="55.806379516919456" cy="0.8409462869167328" r="2" style="fill: steelblue;"></circle><circle cx="49.29017292128669" cy="15.052712708711624" r="2" style="fill: steelblue;"></circle><circle cx="87.90975411732992" cy="21.423741430044174" r="2" style="fill: steelblue;"></circle><circle cx="82.53270983695984" cy="2.7191370725631714" r="2" style="fill: steelblue;"></circle><circle cx="77.15826498137581" cy="49.196140677668154" r="2" style="fill: steelblue;"></circle><circle cx="35.895901587274345" cy="60.1274810731411" r="2" style="fill: steelblue;"></circle><circle cx="37.70015239715576" cy="94.17262598872185" r="2" style="fill: steelblue;"></circle><circle cx="45.7836098348101" cy="54.52613132074475" r="2" style="fill: steelblue;"></circle><circle cx="49.30465560820368" cy="52.86068604327738" r="2" style="fill: steelblue;"></circle><circle cx="22.037430935435825" cy="47.24486330524087" r="2" style="fill: steelblue;"></circle><circle cx="19.556140899658207" cy="43.33413923159242" r="2" style="fill: steelblue;"></circle><circle cx="74.87125462955899" cy="31.357799842953682" r="2" style="fill: steelblue;"></circle><circle cx="28.951629334025913" cy="19.097375869750977" r="2" style="fill: steelblue;"></circle><circle cx="51.266235775417755" cy="17.378340661525726" r="2" style="fill: steelblue;"></circle><circle cx="90.66080980830722" cy="46.17472500540316" r="2" style="fill: steelblue;"></circle><circle cx="44.18706266312963" cy="17.424899339675903" r="2" style="fill: steelblue;"></circle><circle cx="52.653504080242584" cy="21.326712518930435" r="2" style="fill: steelblue;"></circle><circle cx="77.93998983171251" cy="23.465638235211372" r="2" style="fill: steelblue;"></circle><circle cx="83.7128354443444" cy="28.437915444374084" r="2" style="fill: steelblue;"></circle><circle cx="46.223409639464485" cy="8.80008116364479" r="2" style="fill: steelblue;"></circle><circle cx="23.513023389710323" cy="55.89819625020027" r="2" style="fill: steelblue;"></circle><circle cx="40.32892253663805" cy="72.06737920641899" r="2" style="fill: steelblue;"></circle><circle cx="70.11005216174657" cy="61.16939354687929" r="2" style="fill: steelblue;"></circle><circle cx="64.69843056466844" cy="21.074827015399933" r="2" style="fill: steelblue;"></circle><circle cx="77.82220774226718" cy="54.301386419683695" r="2" style="fill: steelblue;"></circle><circle cx="73.07728396521675" cy="42.06303805112839" r="2" style="fill: steelblue;"></circle><circle cx="72.14740845892165" cy="5.265514552593231" r="2" style="fill: steelblue;"></circle><circle cx="59.223788645532395" cy="22.546741366386414" r="2" style="fill: steelblue;"></circle><circle cx="46.68442859417862" cy="80.54207563400269" r="2" style="fill: steelblue;"></circle><circle cx="64.74488079547882" cy="22.280196845531464" r="2" style="fill: steelblue;"></circle><circle cx="46.310872212052345" cy="11.318880319595337" r="2" style="fill: steelblue;"></circle><circle cx="57.80081467496024" cy="15.891942381858826" r="2" style="fill: steelblue;"></circle><circle cx="55.47685192690955" cy="11.270194500684738" r="2" style="fill: steelblue;"></circle><circle cx="69.4723453786638" cy="13.00417184829712" r="2" style="fill: steelblue;"></circle><circle cx="39.12132870819834" cy="69.60516348481178" r="2" style="fill: steelblue;"></circle><circle cx="20.009084873729282" cy="47.280283132568" r="2" style="fill: steelblue;"></circle><circle cx="41.28050655126572" cy="61.88972033560276" r="2" style="fill: steelblue;"></circle><circle cx="56.11084500948588" cy="82.0976972579956" r="2" style="fill: steelblue;"></circle><circle cx="53.12540812624825" cy="81.41483664512634" r="2" style="fill: steelblue;"></circle><circle cx="19.53782571686639" cy="50.408528139814734" r="2" style="fill: steelblue;"></circle></g></svg>