<svg xmlns="http://www.w3.org/2000/svg"><g><circle cx="28.91058921813965" cy="101.05227646417916" r="2" style="fill: steelblue;"></circle><circle cx="101.58841367810965" cy="109.38380509614944" r="2" style="fill: steelblue;"></circle><circle cx="66.54091477394104" cy="116.64752513170242" r="2" style="fill: steelblue;"></circle><circle cx="36.38458251953125" cy="124.04522337019444" r="2" style="fill: steelblue;"></circle><circle cx="69.68985497951508" cy="148.82345348596573" r="2" style="fill: steelblue;"></circle><circle cx="126.5272706747055" cy="106.26224838197231" r="2" style="fill: steelblue;"></circle><circle cx="49.92119073867798" cy="121.0596639662981" r="2" style="fill: steelblue;"></circle><circle cx="121.02123349905014" cy="109.13601368665695" r="2" style="fill: steelblue;"></circle><circle cx="68.02442967891693" cy="149.0792952477932" r="2" style="fill: steelblue;"></circle><circle cx="74.26957190036774" cy="105.32843824476004" r="2" style="fill: steelblue;"></circle><circle cx="117.13352054357529" cy="71.94705344736576" r="2" style="fill: steelblue;"></circle><circle cx="81.67096227407455" cy="136.15142032504082" r="2" style="fill: steelblue;"></circle><circle cx="102.20397189259529" cy="154.24632132053375" r="2" style="fill: steelblue;"></circle><circle cx="66.6130393743515" cy="163.18000704050064" r="2" style="fill: steelblue;"></circle><circle cx="84.12346541881561" cy="121.64571546018124" r="2" style="fill: steelblue;"></circle><circle cx="27.480047941207886" cy="184.54257994890213" r="2" style="fill: steelblue;"></circle><circle cx="88.56203556060791" cy="138.2777415215969" r="2" style="fill: steelblue;"></circle><circle cx="60.41390895843506" cy="98.44321084674448" r="2" style="fill: steelblue;"></circle><circle cx="128.28345000743866" cy="123.4603751450777" r="2" style="fill: steelblue;"></circle><circle cx="144.62479054927826" cy="80.38996383547783" r="2" style="fill: steelblue;"></circle><circle cx="132.33676254749298" cy="42.684683948755264" r="2" style="fill: steelblue;"></circle><circle cx="64.06045854091644" cy="62.17051520943642" r="2" style="fill: steelblue;"></circle><circle cx="75.9110376238823" cy="176.08551532030106" r="2" style="fill: steelblue;"></circle><circle cx="77.74248123168945" cy="94.31450571864843" r="2" style="fill: steelblue;"></circle><circle cx="33.626264333724976" cy="144.0410003066063" r="2" style="fill: steelblue;"></circle><circle cx="111.58447191119194" cy="131.5096192061901" r="2" style="fill: steelblue;"></circle><circle cx="66.37943089008331" cy="148.40687662363052" r="2" style="fill: steelblue;"></circle><circle cx="97.27650452405214" cy="112.6907266676426" r="2" style="fill: steelblue;"></circle><circle cx="36.0834002494812" cy="165.6997561454773" r="2" style="fill: steelblue;"></circle><circle cx="131.34514093399048" cy="130.01576848328114" r="2" style="fill: steelblue;"></circle><circle cx="121.68131023645401" cy="103.95849766209722" r="2" style="fill: steelblue;"></circle><circle cx="144.9506014585495" cy="79.33616116642952" r="2" style="fill: steelblue;"></circle><circle cx="146.13297581672668" cy="12.170886993408203" r="2" style="fill: steelblue;"></circle><circle cx="96.83895707130432" cy="115.18828421831131" r="2" style="fill: steelblue;"></circle><circle cx="112.02580779790878" cy="85.65844632685184" r="2" style="fill: steelblue;"></circle><circle cx="116.18928015232086" cy="38.608381897211075" r="2" style="fill: steelblue;"></circle><circle cx="81.7954272031784" cy="92.87491105496883" r="2" style="fill: steelblue;"></circle><circle cx="85.4816123843193" cy="29.0681853890419" r="2" style="fill: steelblue;"></circle><circle cx="52.53269970417023" cy="144.93523761630058" r="2" style="fill: steelblue;"></circle><circle cx="94.97269615530968" cy="151.44771188497543" r="2" style="fill: steelblue;"></circle><circle cx="144.90668773651123" cy="82.23884403705597" r="2" style="fill: steelblue;"></circle><circle cx="150.79271793365479" cy="140.4069870710373" r="2" style="fill: steelblue;"></circle><circle cx="112.17628940939903" cy="32.153940200805664" r="2" style="fill: steelblue;"></circle><circle cx="136.73474788665771" cy="85.53031403571367" r="2" style="fill: steelblue;"></circle><circle cx="111.48023083806038" cy="60.36006882786751" r="2" style="fill: steelblue;"></circle><circle cx="151.00884437561035" cy="45.76074182987213" r="2" style="fill: steelblue;"></circle><circle cx="63.324037194252014" cy="86.83499079197645" r="2" style="fill: steelblue;"></circle><circle cx="38.29025626182556" cy="35.31990051269531" r="2" style="fill: steelblue;"></circle><circle cx="49.41364526748657" cy="144.64765638113022" r="2" style="fill: steelblue;"></circle><circle cx="41.10769033432007" cy="181.14858716726303" r="2" style="fill: steelblue;"></circle><circle cx="108.80816206336021" cy="186.35391294956207" r="2" style="fill: steelblue;"></circle><circle cx="39.96747136116028" cy="138.14688324928284" r="2" style="fill: steelblue;"></circle><circle cx="75.75927525758743" cy="85.27739383280277" r="2" style="fill: steelblue;"></circle><circle cx="90.20992070436478" cy="32.833172380924225" r="2" style="fill: steelblue;"></circle><circle cx="115.87333381175995" cy="101.60842260811478" r="2" style="fill: steelblue;"></circle><circle cx="64.69049751758575" cy="126.39386244118214" r="2" style="fill: steelblue;"></circle><circle cx="108.43155980110168" cy="122.61733263731003" r="2" style="fill: steelblue;"></circle><circle cx="73.86334538459778" cy="122.10870571434498" r="2" style="fill: steelblue;"></circle><circle cx="132.46310949325562" cy="100.69879757938907" r="2" style="fill: steelblue;"></circle><circle cx="76.34941786527634" cy="156.99114874005318" r="2" style="fill: steelblue;"></circle><circle cx="39.29089307785034" cy="131.76014497876167" r="2" style="fill: steelblue;"></circle><circle cx="51.58804953098297" cy="169.49471682310104" r="2" style="fill: steelblue;"></circle><circle cx="9.219318628311157" cy="145.0628623366356" r="2" style="fill: steelblue;"></circle><circle cx="15.077835321426392" cy="144.18356716632843" r="2" style="fill: steelblue;"></circle><circle cx="76.33380889892578" cy="182.41596817970276" r="2" style="fill: steelblue;"></circle><circle cx="49.94340538978577" cy="149.9672293663025" r="2" style="fill: steelblue;"></circle><circle cx="47.83517122268677" cy="106.03020377457142" r="2" style="fill: steelblue;"></circle><circle cx="120.900359749794" cy="168.15772503614426" r="2" style="fill: steelblue;"></circle><circle cx="34.782665967941284" cy="131.7717120051384" r="2" style="fill: steelblue;"></circle><circle cx="95.1558742672205" cy="171.76002860069275" r="2" style="fill: steelblue;"></circle><circle cx="29.28681969642639" cy="117.46274530887604" r="2" style="fill: steelblue;"></circle><circle cx="128.7827342748642" cy="81.25572316348553" r="2" style="fill: steelblue;"></circle><circle cx="122.23695069551468" cy="59.902167320251465" r="2" style="fill: steelblue;"></circle><circle cx="154.05619740486145" cy="29.32692915201187" r="2" style="fill: steelblue;"></circle><circle cx="106.11711777746677" cy="63.23460340499878" r="2" style="fill: steelblue;"></circle><circle cx="91.79366305470467" cy="62.361570447683334" r="2" style="fill: steelblue;"></circle><circle cx="145.7523226737976" cy="16.506320238113403" r="2" style="fill: steelblue;"></circle><circle cx="107.55355060100555" cy="54.80884611606598" r="2" style="fill: steelblue;"></circle><circle cx="95.93744613230228" cy="92.34962649643421" r="2" style="fill: steelblue;"></circle><circle cx="129.2700171470642" cy="16.211828589439392" r="2" style="fill: steelblue;"></circle><circle cx="149.34862852096558" cy="39.130205661058426" r="2" style="fill: steelblue;"></circle><circle cx="184.49092507362366" cy="43.212077021598816" r="2" style="fill: steelblue;"></circle><circle cx="113.22938054800034" cy="32.382166385650635" r="2" style="fill: steelblue;"></circle><circle cx="81.07146918773651" cy="125.38693509995937" r="2" style="fill: steelblue;"></circle><circle cx="68.2121753692627" cy="131.14950843155384" r="2" style="fill: steelblue;"></circle><circle cx="82.96888470649719" cy="157.06888064742088" r="2" style="fill: steelblue;"></circle><circle cx="94.51364614069462" cy="52.28967070579529" r="2" style="fill: steelblue;"></circle><circle cx="132.81991183757782" cy="172.20441848039627" r="2" style="fill: steelblue;"></circle><circle cx="113.46070319414139" cy="153.35291102528572" r="2" style="fill: steelblue;"></circle><circle cx="118.74755620956421" cy="15.708027780056" r="2" style="fill: steelblue;"></circle><circle cx="110.64260303974152" cy="60.639044642448425" r="2" style="fill: steelblue;"></circle><circle cx="127.58894860744476" cy="58.56570079922676" r="2" style="fill: steelblue;"></circle><circle cx="99.38351102173328" cy="13.288235664367676" r="2" style="fill: steelblue;"></circle><circle cx="104.66057136654854" cy="57.47174695134163" r="2" style="fill: steelblue;"></circle><circle cx="111.18493974208832" cy="102.90407869033515" r="2" style="fill: steelblue;"></circle><circle cx="117.9448738694191" cy="46.15011289715767" r="2" style="fill: steelblue;"></circle><circle cx="122.14924395084381" cy="74.97385926544666" r="2" style="fill: steelblue;"></circle><circle cx="69.42275762557983" cy="99.93009493482532" r="2" style="fill: steelblue;"></circle><circle cx="137.0547205209732" cy="56.3211128115654" r="2" style="fill: steelblue;"></circle><circle cx="131.36552274227142" cy="163.19426000118256" r="2" style="fill: steelblue;"></circle><circle cx="99.9063462310005" cy="95.51546340808272" r="2" style="fill: steelblue;"></circle><circle cx="113.84615302085876" cy="97.40155227482319" r="2" style="fill: steelblue;"></circle><circle cx="132.81187415122986" cy="86.91847920417786" r="2" style="fill: steelblue;"></circle><circle cx="171.22222185134888" cy="66.2940502166748" r="2" style="fill: steelblue;"></circle><circle cx="159.406578540802" cy="27.13458091020584" r="2" style="fill: steelblue;"></circle><circle cx="147.27970361709595" cy="17.008765041828156" r="2" style="fill: steelblue;"></circle><circle cx="145.0983613729477" cy="73.83430600166321" r="2" style="fill: steelblue;"></circle><circle cx="129.61681485176086" cy="82.74054564535618" r="2" style="fill: steelblue;"></circle><circle cx="117.76073724031448" cy="136.32725775241852" r="2" style="fill: steelblue;"></circle><circle cx="83.36287289857864" cy="32.249024510383606" r="2" style="fill: steelblue;"></circle><circle cx="141.37988090515137" cy="91.52819253504276" r="2" style="fill: steelblue;"></circle><circle cx="106.20092749595642" cy="71.9985369592905" r="2" style="fill: steelblue;"></circle><circle cx="40.851181745529175" cy="55.93526214361191" r="2" style="fill: steelblue;"></circle><circle cx="115.25365263223648" cy="154.5889511704445" r="2" style="fill: steelblue;"></circle><circle cx="67.17612147331238" cy="127.29988284409046" r="2" style="fill: steelblue;"></circle><circle cx="80.43390959501266" cy="158.48445370793343" r="2" style="fill: steelblue;"></circle><circle cx="54.22511100769043" cy="135.96214205026627" r="2" style="fill: steelblue;"></circle><circle cx="106.80637955665588" cy="111.92104537039995" r="2" style="fill: steelblue;"></circle></g></svg>