<svg xmlns="http://www.w3.org/2000/svg"><rect width="200" height="200" fill="white"></rect><g><circle cx="55.42037222120497" cy="172.52567079332138" r="2" style="fill: steelblue;"></circle><circle cx="58.31903550359938" cy="141.91656311353046" r="2" style="fill: steelblue;"></circle><circle cx="155.2445458041297" cy="146.27120229932996" r="2" style="fill: steelblue;"></circle><circle cx="109.6306409065922" cy="169.80494393242728" r="2" style="fill: steelblue;"></circle><circle cx="69.499800602595" cy="88.94807762569852" r="2" style="fill: steelblue;"></circle><circle cx="94.91246773136986" cy="131.3831607500712" r="2" style="fill: steelblue;"></circle><circle cx="64.08457623587715" cy="84.31475195619795" r="2" style="fill: steelblue;"></circle><circle cx="91.68838626808589" cy="151.8106824821896" r="2" style="fill: steelblue;"></circle><circle cx="85.5561527940962" cy="134.24925340546503" r="2" style="fill: steelblue;"></circle><circle cx="117.09756362769339" cy="121.72932260566287" r="2" style="fill: steelblue;"></circle><circle cx="65.98971949683296" cy="129.15521032280392" r="2" style="fill: steelblue;"></circle><circle cx="156.93245662583243" cy="142.41471224360996" r="2" style="fill: steelblue;"></circle><circle cx="67.55664282374912" cy="160.16119718551636" r="2" style="fill: steelblue;"></circle><circle cx="43.757471773359505" cy="139.23411568005878" r="2" style="fill: steelblue;"></circle><circle cx="105.36312891377342" cy="158.49684675534564" r="2" style="fill: steelblue;"></circle><circle cx="99.0307049618827" cy="186.8405408329434" r="2" style="fill: steelblue;"></circle><circle cx="106.39495568142996" cy="97.00134230984581" r="2" style="fill: steelblue;"></circle><circle cx="144.92866065767075" cy="60.67094537946913" r="2" style="fill: steelblue;"></circle><circle cx="172.01274633407593" cy="98.83252696858511" r="2" style="fill: steelblue;"></circle><circle cx="159.94598468144733" cy="136.70179082287683" r="2" style="fill: steelblue;"></circle><circle cx="84.65699851512909" cy="147.23930425114102" r="2" style="fill: steelblue;"></circle><circle cx="165.53258895874023" cy="50.30138625038993" r="2" style="fill: steelblue;"></circle><circle cx="45.10208633210924" cy="103.75517358382542" r="2" style="fill: steelblue;"></circle><circle cx="81.33717709117465" cy="152.64613760842218" r="2" style="fill: steelblue;"></circle><circle cx="99.78222515847948" cy="154.65540687243143" r="2" style="fill: steelblue;"></circle><circle cx="116.47541696826617" cy="158.2427720228831" r="2" style="fill: steelblue;"></circle><circle cx="116.94269296195772" cy="183.43775139914618" r="2" style="fill: steelblue;"></circle><circle cx="62.00498673650954" cy="65.61642554071214" r="2" style="fill: steelblue;"></circle><circle cx="65.89057710435655" cy="148.7079792552524" r="2" style="fill: steelblue;"></circle><circle cx="102.99565394719441" cy="110.32801343955927" r="2" style="fill: steelblue;"></circle><circle cx="162.88113925192093" cy="37.28935453626845" r="2" style="fill: steelblue;"></circle><circle cx="166.6487157344818" cy="75.14710889922247" r="2" style="fill: steelblue;"></circle><circle cx="114.51552187403043" cy="49.571990966796875" r="2" style="fill: steelblue;"></circle><circle cx="115.94328946537442" cy="65.47191076808505" r="2" style="fill: steelblue;"></circle><circle cx="129.00369034873114" cy="57.99845854441325" r="2" style="fill: steelblue;"></circle><circle cx="89.53238195843166" cy="148.73717890845404" r="2" style="fill: steelblue;"></circle><circle cx="50.83972877926296" cy="125.22715826829274" r="2" style="fill: steelblue;"></circle><circle cx="50.929433769649926" cy="141.43745435608758" r="2" style="fill: steelblue;"></circle><circle cx="44.80048020680745" cy="114.07726382215817" r="2" style="fill: steelblue;"></circle><circle cx="67.61839985847473" cy="142.33257704310947" r="2" style="fill: steelblue;"></circle><circle cx="84.8110169172287" cy="183.42872460683185" r="2" style="fill: steelblue;"></circle><circle cx="177.4100661277771" cy="93.09377604060703" r="2" style="fill: steelblue;"></circle><circle cx="92.32921567228105" cy="67.07463661829631" r="2" style="fill: steelblue;"></circle><circle cx="130.93385928206973" cy="90.73271519607968" r="2" style="fill: steelblue;"></circle><circle cx="162.07746664683023" cy="81.0658468140496" r="2" style="fill: steelblue;"></circle><circle cx="114.09624252054427" cy="53.840816020965576" r="2" style="fill: steelblue;"></circle><circle cx="151.69490377108255" cy="92.57164597511292" r="2" style="fill: steelblue;"></circle><circle cx="74.93129372596741" cy="166.3691500822703" r="2" style="fill: steelblue;"></circle><circle cx="106.20418356524573" cy="169.3590349621243" r="2" style="fill: steelblue;"></circle><circle cx="54.39390738805135" cy="107.04997057716051" r="2" style="fill: steelblue;"></circle><circle cx="85.3299448887507" cy="110.25433283713129" r="2" style="fill: steelblue;"></circle><circle cx="145.5985638830397" cy="68.10947590404086" r="2" style="fill: steelblue;"></circle><circle cx="114.26584877901607" cy="156.44385417302448" r="2" style="fill: steelblue;"></circle><circle cx="104.08275574445724" cy="106.03538362516298" r="2" style="fill: steelblue;"></circle><circle cx="128.01372177071042" cy="139.34732476870218" r="2" style="fill: steelblue;"></circle><circle cx="56.15807241863674" cy="108.23817199303045" r="2" style="fill: steelblue;"></circle><circle cx="53.10366551081339" cy="130.09108768569098" r="2" style="fill: steelblue;"></circle><circle cx="82.77157611317104" cy="144.75637012057834" r="2" style="fill: steelblue;"></circle><circle cx="83.3859062857098" cy="82.4849373764462" r="2" style="fill: steelblue;"></circle><circle cx="138.97687196731567" cy="76.08560058805678" r="2" style="fill: steelblue;"></circle><circle cx="55.83482318454318" cy="163.09133503172134" r="2" style="fill: steelblue;"></circle><circle cx="128.78792650169797" cy="102.4139126141866" r="2" style="fill: steelblue;"></circle><circle cx="125.52326917648315" cy="113.36448022888766" r="2" style="fill: steelblue;"></circle><circle cx="63.82345490985446" cy="184.91396639082168" r="2" style="fill: steelblue;"></circle><circle cx="60.48068073060777" cy="174.54381783803302" r="2" style="fill: steelblue;"></circle><circle cx="34.83578231599596" cy="193.5998731189304" r="2" style="fill: steelblue;"></circle><circle cx="121.90685421228409" cy="137.48843140072293" r="2" style="fill: steelblue;"></circle><circle cx="73.97330469555324" cy="180.9952523973253" r="2" style="fill: steelblue;"></circle><circle cx="35.350124041239425" cy="147.10053470399643" r="2" style="fill: steelblue;"></circle><circle cx="59.87550814946493" cy="88.77154522471957" r="2" style="fill: steelblue;"></circle><circle cx="16.987297270033093" cy="108.48593235843711" r="2" style="fill: steelblue;"></circle><circle cx="156.00943565368652" cy="56.916061374876236" r="2" style="fill: steelblue;"></circle><circle cx="121.28607514831755" cy="143.0518825848897" r="2" style="fill: steelblue;"></circle><circle cx="144.61285207006668" cy="123.1525954273012" r="2" style="fill: steelblue;"></circle><circle cx="168.74119970533584" cy="85.98280615276761" r="2" style="fill: steelblue;"></circle><circle cx="108.29110257327557" cy="35.68424781163533" r="2" style="fill: steelblue;"></circle><circle cx="119.73885695139568" cy="118.03553170628018" r="2" style="fill: steelblue;"></circle><circle cx="184.0851174460517" cy="53.507215446896026" r="2" style="fill: steelblue;"></circle><circle cx="166.60618782043457" cy="39.618055025736496" r="2" style="fill: steelblue;"></circle><circle cx="141.01324147648282" cy="33.79352225197687" r="2" style="fill: steelblue;"></circle><circle cx="157.87151124742294" cy="71.06169727113512" r="2" style="fill: steelblue;"></circle><circle cx="193.75020927853055" cy="60.499240954716996" r="2" style="fill: steelblue;"></circle><circle cx="128.83370121320087" cy="150.79942014482285" r="2" style="fill: steelblue;"></circle><circle cx="71.3632239235772" cy="104.02576542562909" r="2" style="fill: steelblue;"></circle><circle cx="148.6315263642205" cy="134.66589483949872" r="2" style="fill: steelblue;"></circle><circle cx="87.8546138604482" cy="63.83412414126926" r="2" style="fill: steelblue;"></circle><circle cx="134.69804988967047" cy="100.26812470621533" r="2" style="fill: steelblue;"></circle><circle cx="141.21222164895798" cy="147.5243866443634" r="2" style="fill: steelblue;"></circle><circle cx="119.94683576954735" cy="64.8241572909885" r="2" style="fill: steelblue;"></circle><circle cx="144.37069164382086" cy="112.7406879224711" r="2" style="fill: steelblue;"></circle><circle cx="171.1165640089247" cy="85.25123695532481" r="2" style="fill: steelblue;"></circle><circle cx="164.90335596932303" cy="86.48454315132565" r="2" style="fill: steelblue;"></circle><circle cx="74.9873916308085" cy="123.79016644424863" r="2" style="fill: steelblue;"></circle><circle cx="77.26732227537367" cy="85.86267133553822" r="2" style="fill: steelblue;"></circle><circle cx="113.9691656248437" cy="39.18867641025119" r="2" style="fill: steelblue;"></circle><circle cx="93.56960819827187" cy="66.45509931776259" r="2" style="fill: steelblue;"></circle><circle cx="155.0854676299625" cy="77.31500599119398" r="2" style="fill: steelblue;"></circle><circle cx="125.14311075210571" cy="148.35773242844476" r="2" style="fill: steelblue;"></circle><circle cx="167.71972179412842" cy="31.408839755588104" r="2" style="fill: steelblue;"></circle><circle cx="56.030703915490044" cy="20.684666103786896" r="2" style="fill: steelblue;"></circle><circle cx="152.71272261937457" cy="108.07867844899495" r="2" style="fill: steelblue;"></circle><circle cx="108.65621330837409" cy="63.92151448461745" r="2" style="fill: steelblue;"></circle><circle cx="127.94135014216106" cy="145.45768168237473" r="2" style="fill: steelblue;"></circle><circle cx="53.406218687693276" cy="19.891043504079175" r="2" style="fill: steelblue;"></circle><circle cx="151.38552255100674" cy="80.7776583565606" r="2" style="fill: steelblue;"></circle><circle cx="118.72093627850215" cy="80.72925276226468" r="2" style="fill: steelblue;"></circle><circle cx="127.69806881745656" cy="94.16867792606354" r="2" style="fill: steelblue;"></circle><circle cx="122.41466922892464" cy="118.95300696293512" r="2" style="fill: steelblue;"></circle><circle cx="106.75127266181839" cy="49.76828230751886" r="2" style="fill: steelblue;"></circle><circle cx="95.97547849019368" cy="21.111276414659287" r="2" style="fill: steelblue;"></circle><circle cx="148.7365596824222" cy="52.399290932549356" r="2" style="fill: steelblue;"></circle><circle cx="146.93576759762234" cy="103.74350845813751" r="2" style="fill: steelblue;"></circle><circle cx="74.86598690350851" cy="137.6202619738049" r="2" style="fill: steelblue;"></circle><circle cx="78.59922448794046" cy="78.90260219573975" r="2" style="fill: steelblue;"></circle><circle cx="101.09525670607884" cy="67.95788804690044" r="2" style="fill: steelblue;"></circle><circle cx="49.117392963833275" cy="149.4210660457611" r="2" style="fill: steelblue;"></circle><circle cx="108.2265501221021" cy="145.83131339814926" r="2" style="fill: steelblue;"></circle><circle cx="72.9418330722385" cy="106.68147231141725" r="2" style="fill: steelblue;"></circle></g></svg>