<svg xmlns="http://www.w3.org/2000/svg"><g><circle cx="19.103300571441657" cy="136.62619590759277" r="2" style="fill: steelblue;"></circle><circle cx="60.58497428894043" cy="98.02180644538667" r="2" style="fill: steelblue;"></circle><circle cx="40.74848890304566" cy="164.5313885476854" r="2" style="fill: steelblue;"></circle><circle cx="52.62519783443875" cy="122.82149526807997" r="2" style="fill: steelblue;"></circle><circle cx="75.86907297372818" cy="69.41581964492798" r="2" style="fill: steelblue;"></circle><circle cx="64.43245742056105" cy="110.91652711232504" r="2" style="fill: steelblue;"></circle><circle cx="82.87035872538885" cy="129.45357494884067" r="2" style="fill: steelblue;"></circle><circle cx="62.55478527810839" cy="96.79275535874896" r="2" style="fill: steelblue;"></circle><circle cx="84.92357151375877" cy="93.73931619856093" r="2" style="fill: steelblue;"></circle><circle cx="69.15239195028941" cy="112.43508954842886" r="2" style="fill: steelblue;"></circle><circle cx="26.837089326646595" cy="130.25442957878113" r="2" style="fill: steelblue;"></circle><circle cx="96.35389132632149" cy="61.5294678343667" r="2" style="fill: steelblue;"></circle><circle cx="22.886996799045143" cy="150.05257262123956" r="2" style="fill: steelblue;"></circle><circle cx="86.43901029394733" cy="66.09717044565413" r="2" style="fill: steelblue;"></circle><circle cx="49.61018297407362" cy="117.4809455871582" r="2" style="fill: steelblue;"></circle><circle cx="13.023553954230419" cy="101.40069690015581" r="2" style="fill: steelblue;"></circle><circle cx="118.658047914505" cy="121.12863063812256" r="2" style="fill: steelblue;"></circle><circle cx="97.57482873068916" cy="101.30781796243456" r="2" style="fill: steelblue;"></circle><circle cx="80.98819802204768" cy="72.72921866840787" r="2" style="fill: steelblue;"></circle><circle cx="107.63380461268954" cy="103.23805146747165" r="2" style="fill: steelblue;"></circle><circle cx="98.96662036577861" cy="60.98152067926195" r="2" style="fill: steelblue;"></circle><circle cx="96.1153808567259" cy="58.47874482472737" r="2" style="fill: steelblue;"></circle><circle cx="117.35805736647713" cy="34.588911798265244" r="2" style="fill: steelblue;"></circle><circle cx="78.32436379459169" cy="100.39133694436815" r="2" style="fill: steelblue;"></circle><circle cx="44.78180607159933" cy="128.17445264922247" r="2" style="fill: steelblue;"></circle><circle cx="55.85726300875346" cy="114.03391460577647" r="2" style="fill: steelblue;"></circle><circle cx="9.699548615349668" cy="152.75740491019354" r="2" style="fill: steelblue;"></circle><circle cx="19.979170958201095" cy="161.4094893137614" r="2" style="fill: steelblue;"></circle><circle cx="67.25359327263303" cy="163.16230959362454" r="2" style="fill: steelblue;"></circle><circle cx="121.30112316873338" cy="94.93029771579637" r="2" style="fill: steelblue;"></circle><circle cx="105.59242831336128" cy="38.5755717754364" r="2" style="fill: steelblue;"></circle><circle cx="154.47289943695068" cy="22.714050610860205" r="2" style="fill: steelblue;"></circle><circle cx="95.10196033451292" cy="20.367303159501816" r="2" style="fill: steelblue;"></circle><circle cx="103.25711998674605" cy="49.4690391752455" r="2" style="fill: steelblue;"></circle><circle cx="91.02100974155796" cy="86.68342762523227" r="2" style="fill: steelblue;"></circle><circle cx="151.11294587453204" cy="61.122128036287094" r="2" style="fill: steelblue;"></circle><circle cx="84.52697710858452" cy="131.84955252541437" r="2" style="fill: steelblue;"></circle><circle cx="31.46591318978204" cy="107.9164763291677" r="2" style="fill: steelblue;"></circle><circle cx="49.13066691822476" cy="86.72807585034106" r="2" style="fill: steelblue;"></circle><circle cx="89.02960875485506" cy="142.28507412804498" r="2" style="fill: steelblue;"></circle><circle cx="31.18834760453966" cy="117.80785388416714" r="2" style="fill: steelblue;"></circle><circle cx="20.706963539123542" cy="113.75664869944255" r="2" style="fill: steelblue;"></circle><circle cx="85.37618228130872" cy="1.6178276803758385" r="2" style="fill: steelblue;"></circle><circle cx="167.14696619245743" cy="88.39017522210877" r="2" style="fill: steelblue;"></circle><circle cx="85.26705279946327" cy="106.02688822481367" r="2" style="fill: steelblue;"></circle><circle cx="84.8998960521486" cy="35.442599323060776" r="2" style="fill: steelblue;"></circle><circle cx="64.9721791346868" cy="85.31327247619629" r="2" style="fill: steelblue;"></circle><circle cx="27.069262663523357" cy="55.58689965142145" r="2" style="fill: steelblue;"></circle><circle cx="105.46273854043748" cy="111.77971329953935" r="2" style="fill: steelblue;"></circle><circle cx="17.326459619734027" cy="53.41499249140422" r="2" style="fill: steelblue;"></circle><circle cx="110.02968781524234" cy="101.48866590526369" r="2" style="fill: steelblue;"></circle><circle cx="73.05117812421588" cy="78.44044715166092" r="2" style="fill: steelblue;"></circle><circle cx="78.9757647448116" cy="40.454604890611435" r="2" style="fill: steelblue;"></circle><circle cx="120.11172903908624" cy="58.56236682997811" r="2" style="fill: steelblue;"></circle><circle cx="58.035716745588516" cy="103.78881659772661" r="2" style="fill: steelblue;"></circle><circle cx="53.23597325219048" cy="157.19303687413534" r="2" style="fill: steelblue;"></circle><circle cx="120.81861694653828" cy="96.51470796929466" r="2" style="fill: steelblue;"></circle><circle cx="58.24018385675219" cy="104.55105735196008" r="2" style="fill: steelblue;"></circle><circle cx="94.64958922730553" cy="113.9676656987932" r="2" style="fill: steelblue;"></circle><circle cx="77.45214336448247" cy="92.39064728220303" r="2" style="fill: steelblue;"></circle><circle cx="84.26752926574814" cy="114.18673263655768" r="2" style="fill: steelblue;"></circle><circle cx="83.99600568744872" cy="135.1832071940104" r="2" style="fill: steelblue;"></circle><circle cx="6.657102372911246" cy="109.45114857620663" r="2" style="fill: steelblue;"></circle><circle cx="13.268052207099071" cy="130.40562669436136" r="2" style="fill: steelblue;"></circle><circle cx="26.775352160135906" cy="155.20330137676663" r="2" style="fill: steelblue;"></circle><circle cx="66.98064870304532" cy="90.3076887751619" r="2" style="fill: steelblue;"></circle><circle cx="31.5495252609253" cy="123.00121320618524" r="2" style="fill: steelblue;"></circle><circle cx="91.24184764093823" cy="181.92746109432645" r="2" style="fill: steelblue;"></circle><circle cx="12.632792525821266" cy="140.0135940975613" r="2" style="fill: steelblue;"></circle><circle cx="14.644767178429502" cy="143.05418597327338" r="2" style="fill: steelblue;"></circle><circle cx="68.31638713677725" cy="72.24624554316203" r="2" style="fill: steelblue;"></circle><circle cx="102.83998019165463" cy="66.16466442743938" r="2" style="fill: steelblue;"></circle><circle cx="144.58674059973825" cy="104.92952201101515" r="2" style="fill: steelblue;"></circle><circle cx="127.27566096517775" cy="100.16225063138538" r="2" style="fill: steelblue;"></circle><circle cx="128.24356754620868" cy="42.02830659018624" r="2" style="fill: steelblue;"></circle><circle cx="90.1640676582853" cy="24.663440386454273" r="2" style="fill: steelblue;"></circle><circle cx="31.66074090533787" cy="65.84568354818556" r="2" style="fill: steelblue;"></circle><circle cx="136.82105673684015" cy="56.2344213326772" r="2" style="fill: steelblue;"></circle><circle cx="111.61275903383891" cy="34.29641524950664" r="2" style="fill: steelblue;"></circle><circle cx="98.58034584257338" cy="69.08651722802057" r="2" style="fill: steelblue;"></circle><circle cx="175.81950823465985" cy="33.00618992911446" r="2" style="fill: steelblue;"></circle><circle cx="165.06541967391968" cy="48.71136479907565" r="2" style="fill: steelblue;"></circle><circle cx="154.31652996275162" cy="36.45727899339464" r="2" style="fill: steelblue;"></circle><circle cx="71.79180317454869" cy="119.09526454077826" r="2" style="fill: steelblue;"></circle><circle cx="75.40030479431152" cy="131.31115039189658" r="2" style="fill: steelblue;"></circle><circle cx="91.5672196696202" cy="109.74256230725183" r="2" style="fill: steelblue;"></circle><circle cx="98.60931121640736" cy="96.296593050162" r="2" style="fill: steelblue;"></circle><circle cx="44.07486187087165" cy="60.98094118965997" r="2" style="fill: steelblue;"></circle><circle cx="39.11228179931641" cy="111.44200993908777" r="2" style="fill: steelblue;"></circle><circle cx="149.74250925911798" cy="56.67635003725688" r="2" style="fill: steelblue;"></circle><circle cx="57.903258668051826" cy="52.70018047756619" r="2" style="fill: steelblue;"></circle><circle cx="102.53247155083551" cy="33.57744084464181" r="2" style="fill: steelblue;"></circle><circle cx="181.32161961661444" cy="44.03409891658359" r="2" style="fill: steelblue;"></circle><circle cx="88.37412532625926" cy="14.45887353685167" r="2" style="fill: steelblue;"></circle><circle cx="105.30700816048517" cy="91.56670164730814" r="2" style="fill: steelblue;"></circle><circle cx="155.87997966342502" cy="4.588271511925601" r="2" style="fill: steelblue;"></circle><circle cx="167.4256708886888" cy="1.9572430186801437" r="2" style="fill: steelblue;"></circle><circle cx="92.44681927892897" cy="84.09849132100742" r="2" style="fill: steelblue;"></circle><circle cx="47.026046779420646" cy="68.27503144741058" r="2" style="fill: steelblue;"></circle><circle cx="80.6578450732761" cy="40.0542504257626" r="2" style="fill: steelblue;"></circle><circle cx="140.22010432349313" cy="35.71416470739577" r="2" style="fill: steelblue;"></circle><circle cx="129.39686112933688" cy="102.06695430808597" r="2" style="fill: steelblue;"></circle><circle cx="155.64441548453436" cy="87.37204660558038" r="2" style="fill: steelblue;"></circle><circle cx="146.1545679304335" cy="55.83159327507019" r="2" style="fill: steelblue;"></circle><circle cx="144.2948169178433" cy="135.84997124142117" r="2" style="fill: steelblue;"></circle><circle cx="118.44757729106479" cy="133.05335442225137" r="2" style="fill: steelblue;"></circle><circle cx="93.36885718835724" cy="38.795751333236694" r="2" style="fill: steelblue;"></circle><circle cx="129.48976159095764" cy="105.44482072194418" r="2" style="fill: steelblue;"></circle><circle cx="92.62174442410469" cy="73.35640854305692" r="2" style="fill: steelblue;"></circle><circle cx="115.60162934992049" cy="35.22870474391513" r="2" style="fill: steelblue;"></circle><circle cx="110.9537038538191" cy="40.73732627762689" r="2" style="fill: steelblue;"></circle><circle cx="138.9446907573276" cy="17.280305756462955" r="2" style="fill: steelblue;"></circle><circle cx="78.24265741639668" cy="90.55393253349595" r="2" style="fill: steelblue;"></circle><circle cx="40.018169747458565" cy="105.949291255739" r="2" style="fill: steelblue;"></circle><circle cx="82.56101310253143" cy="124.69014061821832" r="2" style="fill: steelblue;"></circle><circle cx="112.22169001897176" cy="114.56636124187045" r="2" style="fill: steelblue;"></circle><circle cx="106.2508162524965" cy="135.57719389597574" r="2" style="fill: steelblue;"></circle><circle cx="39.07565143373278" cy="115.1072402795156" r="2" style="fill: steelblue;"></circle></g></svg>