<svg xmlns="http://www.w3.org/2000/svg"><g><circle cx="12.651614099740986" cy="77.96299457550049" r="2" style="fill: steelblue;"></circle><circle cx="11.084168404340748" cy="59.6589669585228" r="2" style="fill: steelblue;"></circle><circle cx="40.79093988984823" cy="61.341821402311325" r="2" style="fill: steelblue;"></circle><circle cx="34.07428711652756" cy="54.03400883078575" r="2" style="fill: steelblue;"></circle><circle cx="24.879328161478046" cy="58.83096754550934" r="2" style="fill: steelblue;"></circle><circle cx="10.31373739242554" cy="76.35443806648254" r="2" style="fill: steelblue;"></circle><circle cx="40.544870495796204" cy="36.30523681640625" r="2" style="fill: steelblue;"></circle><circle cx="86.72727197408676" cy="43.659765273332596" r="2" style="fill: steelblue;"></circle><circle cx="67.93188229203224" cy="55.857522413134575" r="2" style="fill: steelblue;"></circle><circle cx="49.978313222527504" cy="45.384445786476135" r="2" style="fill: steelblue;"></circle><circle cx="39.48132712393999" cy="77.95657515525818" r="2" style="fill: steelblue;"></circle><circle cx="18.906311318278316" cy="64.82372432947159" r="2" style="fill: steelblue;"></circle><circle cx="56.43127877265215" cy="91.24099314212799" r="2" style="fill: steelblue;"></circle><circle cx="70.24862356483936" cy="62.15927302837372" r="2" style="fill: steelblue;"></circle><circle cx="49.17713465401903" cy="43.00777465105057" r="2" style="fill: steelblue;"></circle><circle cx="55.46609330922365" cy="73.84037971496582" r="2" style="fill: steelblue;"></circle><circle cx="26.51810012757778" cy="72.02651798725128" r="2" style="fill: steelblue;"></circle><circle cx="28.00014540553093" cy="57.89051726460457" r="2" style="fill: steelblue;"></circle><circle cx="67.25001446902752" cy="31.53521418571472" r="2" style="fill: steelblue;"></circle><circle cx="38.05705923587084" cy="40.7518744468689" r="2" style="fill: steelblue;"></circle><circle cx="54.616950172930956" cy="41.87542125582695" r="2" style="fill: steelblue;"></circle><circle cx="40.47384690493345" cy="39.04068097472191" r="2" style="fill: steelblue;"></circle><circle cx="43.49201610311866" cy="55.399364605546" r="2" style="fill: steelblue;"></circle><circle cx="50.36357817589305" cy="53.55382077395916" r="2" style="fill: steelblue;"></circle><circle cx="61.445230804383755" cy="43.25411170721054" r="2" style="fill: steelblue;"></circle><circle cx="19.191096723079685" cy="71.51899933815002" r="2" style="fill: steelblue;"></circle><circle cx="32.68984630703926" cy="70.22558003664017" r="2" style="fill: steelblue;"></circle><circle cx="37.909034825861454" cy="77.92846858501434" r="2" style="fill: steelblue;"></circle><circle cx="2.1311298012733486" cy="42.9277777671814" r="2" style="fill: steelblue;"></circle><circle cx="40.94246234744787" cy="50.22773137316108" r="2" style="fill: steelblue;"></circle><circle cx="54.38897917047143" cy="9.292793273925781" r="2" style="fill: steelblue;"></circle><circle cx="71.4554388076067" cy="9.970930218696594" r="2" style="fill: steelblue;"></circle><circle cx="82.4498862028122" cy="41.1520317196846" r="2" style="fill: steelblue;"></circle><circle cx="65.7291628420353" cy="44.26210708916187" r="2" style="fill: steelblue;"></circle><circle cx="61.54266484081745" cy="41.21790677309036" r="2" style="fill: steelblue;"></circle><circle cx="39.01213798671961" cy="55.547669157385826" r="2" style="fill: steelblue;"></circle><circle cx="34.248775988817215" cy="69.98981982469559" r="2" style="fill: steelblue;"></circle><circle cx="38.986847922205925" cy="64.89157229661942" r="2" style="fill: steelblue;"></circle><circle cx="19.818614423274997" cy="62.05235719680786" r="2" style="fill: steelblue;"></circle><circle cx="4.8277892172336605" cy="68.03193390369415" r="2" style="fill: steelblue;"></circle><circle cx="38.20656631141901" cy="62.63139992952347" r="2" style="fill: steelblue;"></circle><circle cx="74.16373789310455" cy="44.64488476514816" r="2" style="fill: steelblue;"></circle><circle cx="65.884505584836" cy="33.31102281808853" r="2" style="fill: steelblue;"></circle><circle cx="79.38405610620975" cy="56.66622593998909" r="2" style="fill: steelblue;"></circle><circle cx="74.84958432614803" cy="46.843716874718666" r="2" style="fill: steelblue;"></circle><circle cx="67.8317092359066" cy="70.66988199949265" r="2" style="fill: steelblue;"></circle><circle cx="78.19395810365677" cy="34.81080383062363" r="2" style="fill: steelblue;"></circle><circle cx="9.59272608160973" cy="67.2365054488182" r="2" style="fill: steelblue;"></circle><circle cx="55.50786452367902" cy="72.57867157459259" r="2" style="fill: steelblue;"></circle><circle cx="18.371655791997913" cy="62.84918040037155" r="2" style="fill: steelblue;"></circle><circle cx="6.946868449449542" cy="65.52006155252457" r="2" style="fill: steelblue;"></circle><circle cx="7.034852355718615" cy="37.87057027220726" r="2" style="fill: steelblue;"></circle><circle cx="46.190465055406094" cy="42.834681272506714" r="2" style="fill: steelblue;"></circle><circle cx="52.795472741127014" cy="49.31806530803442" r="2" style="fill: steelblue;"></circle><circle cx="37.68936563283205" cy="57.942015677690506" r="2" style="fill: steelblue;"></circle><circle cx="1.5758715569973019" cy="62.84809708595276" r="2" style="fill: steelblue;"></circle><circle cx="47.67485470511019" cy="64.18083310127258" r="2" style="fill: steelblue;"></circle><circle cx="45.212639681994915" cy="55.80214820802212" r="2" style="fill: steelblue;"></circle><circle cx="40.0689460337162" cy="67.73124635219574" r="2" style="fill: steelblue;"></circle><circle cx="19.474660232663158" cy="70.08515894412994" r="2" style="fill: steelblue;"></circle><circle cx="66.04511588811874" cy="79.3896347284317" r="2" style="fill: steelblue;"></circle><circle cx="17.80919656157494" cy="54.73991148173809" r="2" style="fill: steelblue;"></circle><circle cx="9.890227764844898" cy="76.75122618675232" r="2" style="fill: steelblue;"></circle><circle cx="26.9138190895319" cy="54.29356284439564" r="2" style="fill: steelblue;"></circle><circle cx="24.553233012557033" cy="63.05438280105591" r="2" style="fill: steelblue;"></circle><circle cx="5.951284617185595" cy="82.14889168739319" r="2" style="fill: steelblue;"></circle><circle cx="14.759998023509983" cy="48.402261920273304" r="2" style="fill: steelblue;"></circle><circle cx="65.45299496501684" cy="52.27547809481621" r="2" style="fill: steelblue;"></circle><circle cx="0.6247341632843045" cy="73.78451079130173" r="2" style="fill: steelblue;"></circle><circle cx="51.01747876033187" cy="80.6109607219696" r="2" style="fill: steelblue;"></circle><circle cx="30.998773127794266" cy="26.97260081768036" r="2" style="fill: steelblue;"></circle><circle cx="69.94510926306248" cy="17.594102025032043" r="2" style="fill: steelblue;"></circle><circle cx="79.10521626472473" cy="37.42448687553406" r="2" style="fill: steelblue;"></circle><circle cx="75.76837688684464" cy="72.36301004886627" r="2" style="fill: steelblue;"></circle><circle cx="78.11373211443424" cy="54.67668958008289" r="2" style="fill: steelblue;"></circle><circle cx="85.90844571590424" cy="56.4179353415966" r="2" style="fill: steelblue;"></circle><circle cx="60.329682379961014" cy="58.518023788928986" r="2" style="fill: steelblue;"></circle><circle cx="64.52023349702358" cy="40.91363921761513" r="2" style="fill: steelblue;"></circle><circle cx="63.05604726076126" cy="31.518247723579407" r="2" style="fill: steelblue;"></circle><circle cx="87.38788142800331" cy="20.711255073547363" r="2" style="fill: steelblue;"></circle><circle cx="83.68552774190903" cy="30.84801882505417" r="2" style="fill: steelblue;"></circle><circle cx="96.86909541487694" cy="56.96817860007286" r="2" style="fill: steelblue;"></circle><circle cx="89.47019204497337" cy="48.3757097274065" r="2" style="fill: steelblue;"></circle><circle cx="46.133994311094284" cy="79.85512018203735" r="2" style="fill: steelblue;"></circle><circle cx="26.203059777617455" cy="60.975464433431625" r="2" style="fill: steelblue;"></circle><circle cx="23.035126924514774" cy="68.43589544296265" r="2" style="fill: steelblue;"></circle><circle cx="44.164098519831896" cy="60.55543124675751" r="2" style="fill: steelblue;"></circle><circle cx="44.62726013734937" cy="63.56920599937439" r="2" style="fill: steelblue;"></circle><circle cx="38.172910176217556" cy="25.613585114479065" r="2" style="fill: steelblue;"></circle><circle cx="75.00518038868904" cy="67.01485812664032" r="2" style="fill: steelblue;"></circle><circle cx="61.26353722065687" cy="37.64584884047508" r="2" style="fill: steelblue;"></circle><circle cx="96.41737043857574" cy="62.0198979973793" r="2" style="fill: steelblue;"></circle><circle cx="56.07656501233578" cy="30.5345818400383" r="2" style="fill: steelblue;"></circle><circle cx="93.97307708859444" cy="30.473831295967102" r="2" style="fill: steelblue;"></circle><circle cx="73.23922701179981" cy="22.610384225845337" r="2" style="fill: steelblue;"></circle><circle cx="99.43970963358879" cy="18.97335648536682" r="2" style="fill: steelblue;"></circle><circle cx="53.498624777421355" cy="34.48998034000397" r="2" style="fill: steelblue;"></circle><circle cx="56.1390670016408" cy="39.25054892897606" r="2" style="fill: steelblue;"></circle><circle cx="60.34101005643606" cy="44.16503123939037" r="2" style="fill: steelblue;"></circle><circle cx="64.34844639152288" cy="68.15562695264816" r="2" style="fill: steelblue;"></circle><circle cx="64.21242579817772" cy="36.715395748615265" r="2" style="fill: steelblue;"></circle><circle cx="76.6948938369751" cy="37.789708375930786" r="2" style="fill: steelblue;"></circle><circle cx="48.666309169493616" cy="43.102799355983734" r="2" style="fill: steelblue;"></circle><circle cx="70.62935568392277" cy="46.02564573287964" r="2" style="fill: steelblue;"></circle><circle cx="61.30128093063831" cy="41.86473563313484" r="2" style="fill: steelblue;"></circle><circle cx="8.513118326663974" cy="17.196151614189148" r="2" style="fill: steelblue;"></circle><circle cx="60.84069907665253" cy="38.716042786836624" r="2" style="fill: steelblue;"></circle><circle cx="27.7158722281456" cy="56.25912547111511" r="2" style="fill: steelblue;"></circle><circle cx="50.79154275590554" cy="34.87640470266342" r="2" style="fill: steelblue;"></circle><circle cx="79.53803539276123" cy="56.59109875559807" r="2" style="fill: steelblue;"></circle><circle cx="59.47475153952837" cy="17.972740530967712" r="2" style="fill: steelblue;"></circle><circle cx="66.47678948938847" cy="35.2172926068306" r="2" style="fill: steelblue;"></circle><circle cx="25.566700100898743" cy="49.9204360647127" r="2" style="fill: steelblue;"></circle><circle cx="17.157796025276188" cy="62.24094554781914" r="2" style="fill: steelblue;"></circle><circle cx="50.502862385474145" cy="72.44293242692947" r="2" style="fill: steelblue;"></circle><circle cx="30.690428987145424" cy="66.20021760463715" r="2" style="fill: steelblue;"></circle><circle cx="14.473884552717212" cy="51.38602200895548" r="2" style="fill: steelblue;"></circle><circle cx="33.094632625579834" cy="72.41701185703278" r="2" style="fill: steelblue;"></circle></g></svg>