<svg xmlns="http://www.w3.org/2000/svg"><rect width="200" height="200" fill="white"></rect><g><circle cx="41.007900983095176" cy="101.05227646417916" r="2" style="fill: steelblue;"></circle><circle cx="142.1154834330082" cy="109.38380509614944" r="2" style="fill: steelblue;"></circle><circle cx="84.49775204062462" cy="116.64752513170242" r="2" style="fill: steelblue;"></circle><circle cx="22.3121926188469" cy="124.04522337019444" r="2" style="fill: steelblue;"></circle><circle cx="17.547397315502174" cy="148.82345348596573" r="2" style="fill: steelblue;"></circle><circle cx="69.08937953412533" cy="106.26224838197231" r="2" style="fill: steelblue;"></circle><circle cx="131.5229520201683" cy="121.0596639662981" r="2" style="fill: steelblue;"></circle><circle cx="76.6860343515873" cy="109.13601368665695" r="2" style="fill: steelblue;"></circle><circle cx="57.86208659410477" cy="149.0792952477932" r="2" style="fill: steelblue;"></circle><circle cx="43.84116306900979" cy="105.32843824476004" r="2" style="fill: steelblue;"></circle><circle cx="114.33230843394995" cy="71.94705344736576" r="2" style="fill: steelblue;"></circle><circle cx="78.38269732892513" cy="136.15142032504082" r="2" style="fill: steelblue;"></circle><circle cx="149.86992850899696" cy="154.24632132053375" r="2" style="fill: steelblue;"></circle><circle cx="54.140279442071915" cy="163.18000704050064" r="2" style="fill: steelblue;"></circle><circle cx="61.79802715778351" cy="121.64571546018124" r="2" style="fill: steelblue;"></circle><circle cx="101.73792033456266" cy="184.54257994890213" r="2" style="fill: steelblue;"></circle><circle cx="104.67185163870454" cy="138.2777415215969" r="2" style="fill: steelblue;"></circle><circle cx="90.27575645595789" cy="98.44321084674448" r="2" style="fill: steelblue;"></circle><circle cx="118.23126338422298" cy="123.4603751450777" r="2" style="fill: steelblue;"></circle><circle cx="151.78239941596985" cy="80.38996383547783" r="2" style="fill: steelblue;"></circle><circle cx="79.07136939466" cy="42.684683948755264" r="2" style="fill: steelblue;"></circle><circle cx="81.47629015147686" cy="62.17051520943642" r="2" style="fill: steelblue;"></circle><circle cx="95.84957584738731" cy="176.08551532030106" r="2" style="fill: steelblue;"></circle><circle cx="138.57755661010742" cy="94.31450571864843" r="2" style="fill: steelblue;"></circle><circle cx="81.15593567490578" cy="144.0410003066063" r="2" style="fill: steelblue;"></circle><circle cx="78.99841703474522" cy="131.5096192061901" r="2" style="fill: steelblue;"></circle><circle cx="109.1688483953476" cy="148.40687662363052" r="2" style="fill: steelblue;"></circle><circle cx="43.009007722139366" cy="112.6907266676426" r="2" style="fill: steelblue;"></circle><circle cx="38.719812780618675" cy="165.6997561454773" r="2" style="fill: steelblue;"></circle><circle cx="12.064246833324438" cy="130.01576848328114" r="2" style="fill: steelblue;"></circle><circle cx="186.51670813560486" cy="103.95849766209722" r="2" style="fill: steelblue;"></circle><circle cx="136.3301858305931" cy="79.33616116642952" r="2" style="fill: steelblue;"></circle><circle cx="70.87153419852257" cy="12.170886993408203" r="2" style="fill: steelblue;"></circle><circle cx="58.271436393260956" cy="115.18828421831131" r="2" style="fill: steelblue;"></circle><circle cx="158.4244802594185" cy="85.65844632685184" r="2" style="fill: steelblue;"></circle><circle cx="171.72127068042755" cy="38.608381897211075" r="2" style="fill: steelblue;"></circle><circle cx="72.56447561085224" cy="92.87491105496883" r="2" style="fill: steelblue;"></circle><circle cx="26.427409052848823" cy="29.0681853890419" r="2" style="fill: steelblue;"></circle><circle cx="77.941719815135" cy="144.93523761630058" r="2" style="fill: steelblue;"></circle><circle cx="54.33805137872696" cy="151.44771188497543" r="2" style="fill: steelblue;"></circle><circle cx="94.60672540590167" cy="82.23884403705597" r="2" style="fill: steelblue;"></circle><circle cx="66.74205735325813" cy="140.4069870710373" r="2" style="fill: steelblue;"></circle><circle cx="31.91394209861756" cy="32.153940200805664" r="2" style="fill: steelblue;"></circle><circle cx="189.04502540826797" cy="85.53031403571367" r="2" style="fill: steelblue;"></circle><circle cx="97.29596730321646" cy="60.36006882786751" r="2" style="fill: steelblue;"></circle><circle cx="111.44989114254713" cy="45.76074182987213" r="2" style="fill: steelblue;"></circle><circle cx="123.83723855018616" cy="86.83499079197645" r="2" style="fill: steelblue;"></circle><circle cx="93.66633873432875" cy="35.31990051269531" r="2" style="fill: steelblue;"></circle><circle cx="66.16934984922409" cy="144.64765638113022" r="2" style="fill: steelblue;"></circle><circle cx="144.60640251636505" cy="181.14858716726303" r="2" style="fill: steelblue;"></circle><circle cx="89.56089466810226" cy="186.35391294956207" r="2" style="fill: steelblue;"></circle><circle cx="152.64437198638916" cy="138.14688324928284" r="2" style="fill: steelblue;"></circle><circle cx="130.14382533729076" cy="85.27739383280277" r="2" style="fill: steelblue;"></circle><circle cx="48.248222470283515" cy="32.833172380924225" r="2" style="fill: steelblue;"></circle><circle cx="59.702447056770325" cy="101.60842260811478" r="2" style="fill: steelblue;"></circle><circle cx="24.254164099693305" cy="126.39386244118214" r="2" style="fill: steelblue;"></circle><circle cx="96.51260673999786" cy="122.61733263731003" r="2" style="fill: steelblue;"></circle><circle cx="84.29003171622753" cy="122.10870571434498" r="2" style="fill: steelblue;"></circle><circle cx="93.63102577626705" cy="100.69879757938907" r="2" style="fill: steelblue;"></circle><circle cx="88.57291042804718" cy="156.99114874005318" r="2" style="fill: steelblue;"></circle><circle cx="49.63782653212548" cy="131.76014497876167" r="2" style="fill: steelblue;"></circle><circle cx="46.65516167879105" cy="169.49471682310104" r="2" style="fill: steelblue;"></circle><circle cx="13.194708526134496" cy="145.0628623366356" r="2" style="fill: steelblue;"></circle><circle cx="28.44317853450776" cy="144.18356716632843" r="2" style="fill: steelblue;"></circle><circle cx="27.915088832378395" cy="182.41596817970276" r="2" style="fill: steelblue;"></circle><circle cx="38.47299739718438" cy="149.9672293663025" r="2" style="fill: steelblue;"></circle><circle cx="24.430638551712043" cy="106.03020377457142" r="2" style="fill: steelblue;"></circle><circle cx="6.249150633811956" cy="168.15772503614426" r="2" style="fill: steelblue;"></circle><circle cx="34.272676706314094" cy="131.7717120051384" r="2" style="fill: steelblue;"></circle><circle cx="88.77096083015203" cy="171.76002860069275" r="2" style="fill: steelblue;"></circle><circle cx="29.020769894123084" cy="117.46274530887604" r="2" style="fill: steelblue;"></circle><circle cx="173.775015771389" cy="81.25572316348553" r="2" style="fill: steelblue;"></circle><circle cx="137.80413046479225" cy="59.902167320251465" r="2" style="fill: steelblue;"></circle><circle cx="90.99266529083252" cy="29.32692915201187" r="2" style="fill: steelblue;"></circle><circle cx="177.45400071144104" cy="63.23460340499878" r="2" style="fill: steelblue;"></circle><circle cx="110.58762520551682" cy="62.361570447683334" r="2" style="fill: steelblue;"></circle><circle cx="145.9766834974289" cy="16.506320238113403" r="2" style="fill: steelblue;"></circle><circle cx="86.2151900306344" cy="54.80884611606598" r="2" style="fill: steelblue;"></circle><circle cx="169.28963214159012" cy="92.34962649643421" r="2" style="fill: steelblue;"></circle><circle cx="154.8212267458439" cy="16.211828589439392" r="2" style="fill: steelblue;"></circle><circle cx="150.4137948155403" cy="39.130205661058426" r="2" style="fill: steelblue;"></circle><circle cx="50.30035823583603" cy="43.212077021598816" r="2" style="fill: steelblue;"></circle><circle cx="94.32767927646637" cy="32.382166385650635" r="2" style="fill: steelblue;"></circle><circle cx="74.74605962634087" cy="125.38693509995937" r="2" style="fill: steelblue;"></circle><circle cx="139.3281988799572" cy="131.14950843155384" r="2" style="fill: steelblue;"></circle><circle cx="42.95727834105492" cy="157.06888064742088" r="2" style="fill: steelblue;"></circle><circle cx="104.57501085475087" cy="52.28967070579529" r="2" style="fill: steelblue;"></circle><circle cx="66.3703702390194" cy="172.20441848039627" r="2" style="fill: steelblue;"></circle><circle cx="25.727538764476783" cy="153.35291102528572" r="2" style="fill: steelblue;"></circle><circle cx="92.30180121958256" cy="15.708027780056" r="2" style="fill: steelblue;"></circle><circle cx="153.46704646945" cy="60.639044642448425" r="2" style="fill: steelblue;"></circle><circle cx="101.7937661614269" cy="58.56570079922676" r="2" style="fill: steelblue;"></circle><circle cx="122.03810773789883" cy="13.288235664367676" r="2" style="fill: steelblue;"></circle><circle cx="93.8421887345612" cy="57.47174695134163" r="2" style="fill: steelblue;"></circle><circle cx="114.06341418623924" cy="102.90407869033515" r="2" style="fill: steelblue;"></circle><circle cx="173.73879104852676" cy="46.15011289715767" r="2" style="fill: steelblue;"></circle><circle cx="164.26679342985153" cy="74.97385926544666" r="2" style="fill: steelblue;"></circle><circle cx="134.7086861729622" cy="99.93009493482532" r="2" style="fill: steelblue;"></circle><circle cx="63.317982852458954" cy="56.3211128115654" r="2" style="fill: steelblue;"></circle><circle cx="122.39617705345154" cy="163.19426000118256" r="2" style="fill: steelblue;"></circle><circle cx="142.6715761423111" cy="95.51546340808272" r="2" style="fill: steelblue;"></circle><circle cx="138.213312625885" cy="97.40155227482319" r="2" style="fill: steelblue;"></circle><circle cx="131.1968456953764" cy="86.91847920417786" r="2" style="fill: steelblue;"></circle><circle cx="153.02683636546135" cy="66.2940502166748" r="2" style="fill: steelblue;"></circle><circle cx="147.41517454385757" cy="27.13458091020584" r="2" style="fill: steelblue;"></circle><circle cx="119.60492879152298" cy="17.008765041828156" r="2" style="fill: steelblue;"></circle><circle cx="64.74385634064674" cy="73.83430600166321" r="2" style="fill: steelblue;"></circle><circle cx="65.0074690580368" cy="82.74054564535618" r="2" style="fill: steelblue;"></circle><circle cx="126.62581019103527" cy="136.32725775241852" r="2" style="fill: steelblue;"></circle><circle cx="89.08072337508202" cy="32.249024510383606" r="2" style="fill: steelblue;"></circle><circle cx="127.2127091884613" cy="91.52819253504276" r="2" style="fill: steelblue;"></circle><circle cx="158.87795984745026" cy="71.9985369592905" r="2" style="fill: steelblue;"></circle><circle cx="124.6169175952673" cy="55.93526214361191" r="2" style="fill: steelblue;"></circle><circle cx="74.98511895537376" cy="154.5889511704445" r="2" style="fill: steelblue;"></circle><circle cx="23.6840307712555" cy="127.29988284409046" r="2" style="fill: steelblue;"></circle><circle cx="81.25578463077545" cy="158.48445370793343" r="2" style="fill: steelblue;"></circle><circle cx="95.79395307227969" cy="135.96214205026627" r="2" style="fill: steelblue;"></circle><circle cx="157.27918446063995" cy="111.92104537039995" r="2" style="fill: steelblue;"></circle></g></svg>