<svg xmlns="http://www.w3.org/2000/svg"><g><circle cx="22.03700542449951" cy="77.96299457550049" r="2" style="fill: steelblue;"></circle><circle cx="40.3410330414772" cy="59.6589669585228" r="2" style="fill: steelblue;"></circle><circle cx="38.658178597688675" cy="61.341821402311325" r="2" style="fill: steelblue;"></circle><circle cx="45.96599116921425" cy="54.03400883078575" r="2" style="fill: steelblue;"></circle><circle cx="41.16903245449066" cy="58.83096754550934" r="2" style="fill: steelblue;"></circle><circle cx="23.645561933517456" cy="76.35443806648254" r="2" style="fill: steelblue;"></circle><circle cx="63.69476318359375" cy="36.30523681640625" r="2" style="fill: steelblue;"></circle><circle cx="56.340234726667404" cy="43.659765273332596" r="2" style="fill: steelblue;"></circle><circle cx="44.142477586865425" cy="55.857522413134575" r="2" style="fill: steelblue;"></circle><circle cx="54.615554213523865" cy="45.384445786476135" r="2" style="fill: steelblue;"></circle><circle cx="22.04342484474182" cy="77.95657515525818" r="2" style="fill: steelblue;"></circle><circle cx="35.17627567052841" cy="64.82372432947159" r="2" style="fill: steelblue;"></circle><circle cx="8.75900685787201" cy="91.24099314212799" r="2" style="fill: steelblue;"></circle><circle cx="37.84072697162628" cy="62.15927302837372" r="2" style="fill: steelblue;"></circle><circle cx="56.99222534894943" cy="43.00777465105057" r="2" style="fill: steelblue;"></circle><circle cx="26.15962028503418" cy="73.84037971496582" r="2" style="fill: steelblue;"></circle><circle cx="27.97348201274872" cy="72.02651798725128" r="2" style="fill: steelblue;"></circle><circle cx="42.10948273539543" cy="57.89051726460457" r="2" style="fill: steelblue;"></circle><circle cx="68.46478581428528" cy="31.53521418571472" r="2" style="fill: steelblue;"></circle><circle cx="59.2481255531311" cy="40.7518744468689" r="2" style="fill: steelblue;"></circle><circle cx="58.12457874417305" cy="41.87542125582695" r="2" style="fill: steelblue;"></circle><circle cx="60.95931902527809" cy="39.04068097472191" r="2" style="fill: steelblue;"></circle><circle cx="44.600635394454" cy="55.399364605546" r="2" style="fill: steelblue;"></circle><circle cx="46.44617922604084" cy="53.55382077395916" r="2" style="fill: steelblue;"></circle><circle cx="56.74588829278946" cy="43.25411170721054" r="2" style="fill: steelblue;"></circle><circle cx="28.481000661849976" cy="71.51899933815002" r="2" style="fill: steelblue;"></circle><circle cx="29.774419963359833" cy="70.22558003664017" r="2" style="fill: steelblue;"></circle><circle cx="22.071531414985657" cy="77.92846858501434" r="2" style="fill: steelblue;"></circle><circle cx="57.0722222328186" cy="42.9277777671814" r="2" style="fill: steelblue;"></circle><circle cx="49.77226862683892" cy="50.22773137316108" r="2" style="fill: steelblue;"></circle><circle cx="90.70720672607422" cy="9.292793273925781" r="2" style="fill: steelblue;"></circle><circle cx="90.0290697813034" cy="9.970930218696594" r="2" style="fill: steelblue;"></circle><circle cx="58.8479682803154" cy="41.1520317196846" r="2" style="fill: steelblue;"></circle><circle cx="55.73789291083813" cy="44.26210708916187" r="2" style="fill: steelblue;"></circle><circle cx="58.78209322690964" cy="41.21790677309036" r="2" style="fill: steelblue;"></circle><circle cx="44.452330842614174" cy="55.547669157385826" r="2" style="fill: steelblue;"></circle><circle cx="30.010180175304413" cy="69.98981982469559" r="2" style="fill: steelblue;"></circle><circle cx="35.108427703380585" cy="64.89157229661942" r="2" style="fill: steelblue;"></circle><circle cx="37.94764280319214" cy="62.05235719680786" r="2" style="fill: steelblue;"></circle><circle cx="31.968066096305847" cy="68.03193390369415" r="2" style="fill: steelblue;"></circle><circle cx="37.36860007047653" cy="62.63139992952347" r="2" style="fill: steelblue;"></circle><circle cx="55.35511523485184" cy="44.64488476514816" r="2" style="fill: steelblue;"></circle><circle cx="66.68897718191147" cy="33.31102281808853" r="2" style="fill: steelblue;"></circle><circle cx="43.33377406001091" cy="56.66622593998909" r="2" style="fill: steelblue;"></circle><circle cx="53.156283125281334" cy="46.843716874718666" r="2" style="fill: steelblue;"></circle><circle cx="29.330118000507355" cy="70.66988199949265" r="2" style="fill: steelblue;"></circle><circle cx="65.18919616937637" cy="34.81080383062363" r="2" style="fill: steelblue;"></circle><circle cx="32.76349455118179" cy="67.2365054488182" r="2" style="fill: steelblue;"></circle><circle cx="27.42132842540741" cy="72.57867157459259" r="2" style="fill: steelblue;"></circle><circle cx="37.15081959962845" cy="62.84918040037155" r="2" style="fill: steelblue;"></circle><circle cx="34.47993844747543" cy="65.52006155252457" r="2" style="fill: steelblue;"></circle><circle cx="62.12942972779274" cy="37.87057027220726" r="2" style="fill: steelblue;"></circle><circle cx="57.165318727493286" cy="42.834681272506714" r="2" style="fill: steelblue;"></circle><circle cx="50.68193469196558" cy="49.31806530803442" r="2" style="fill: steelblue;"></circle><circle cx="42.057984322309494" cy="57.942015677690506" r="2" style="fill: steelblue;"></circle><circle cx="37.15190291404724" cy="62.84809708595276" r="2" style="fill: steelblue;"></circle><circle cx="35.81916689872742" cy="64.18083310127258" r="2" style="fill: steelblue;"></circle><circle cx="44.19785179197788" cy="55.80214820802212" r="2" style="fill: steelblue;"></circle><circle cx="32.26875364780426" cy="67.73124635219574" r="2" style="fill: steelblue;"></circle><circle cx="29.914841055870056" cy="70.08515894412994" r="2" style="fill: steelblue;"></circle><circle cx="20.6103652715683" cy="79.3896347284317" r="2" style="fill: steelblue;"></circle><circle cx="45.26008851826191" cy="54.73991148173809" r="2" style="fill: steelblue;"></circle><circle cx="23.24877381324768" cy="76.75122618675232" r="2" style="fill: steelblue;"></circle><circle cx="45.70643715560436" cy="54.29356284439564" r="2" style="fill: steelblue;"></circle><circle cx="36.94561719894409" cy="63.05438280105591" r="2" style="fill: steelblue;"></circle><circle cx="17.85110831260681" cy="82.14889168739319" r="2" style="fill: steelblue;"></circle><circle cx="51.597738079726696" cy="48.402261920273304" r="2" style="fill: steelblue;"></circle><circle cx="47.72452190518379" cy="52.27547809481621" r="2" style="fill: steelblue;"></circle><circle cx="26.215489208698273" cy="73.78451079130173" r="2" style="fill: steelblue;"></circle><circle cx="19.389039278030396" cy="80.6109607219696" r="2" style="fill: steelblue;"></circle><circle cx="73.02739918231964" cy="26.97260081768036" r="2" style="fill: steelblue;"></circle><circle cx="82.40589797496796" cy="17.594102025032043" r="2" style="fill: steelblue;"></circle><circle cx="62.57551312446594" cy="37.42448687553406" r="2" style="fill: steelblue;"></circle><circle cx="27.636989951133728" cy="72.36301004886627" r="2" style="fill: steelblue;"></circle><circle cx="45.32331041991711" cy="54.67668958008289" r="2" style="fill: steelblue;"></circle><circle cx="43.5820646584034" cy="56.4179353415966" r="2" style="fill: steelblue;"></circle><circle cx="41.481976211071014" cy="58.518023788928986" r="2" style="fill: steelblue;"></circle><circle cx="59.08636078238487" cy="40.91363921761513" r="2" style="fill: steelblue;"></circle><circle cx="68.4817522764206" cy="31.518247723579407" r="2" style="fill: steelblue;"></circle><circle cx="79.28874492645264" cy="20.711255073547363" r="2" style="fill: steelblue;"></circle><circle cx="69.15198117494583" cy="30.84801882505417" r="2" style="fill: steelblue;"></circle><circle cx="43.03182139992714" cy="56.96817860007286" r="2" style="fill: steelblue;"></circle><circle cx="51.6242902725935" cy="48.3757097274065" r="2" style="fill: steelblue;"></circle><circle cx="20.144879817962646" cy="79.85512018203735" r="2" style="fill: steelblue;"></circle><circle cx="39.024535566568375" cy="60.975464433431625" r="2" style="fill: steelblue;"></circle><circle cx="31.564104557037354" cy="68.43589544296265" r="2" style="fill: steelblue;"></circle><circle cx="39.44456875324249" cy="60.55543124675751" r="2" style="fill: steelblue;"></circle><circle cx="36.43079400062561" cy="63.56920599937439" r="2" style="fill: steelblue;"></circle><circle cx="74.38641488552094" cy="25.613585114479065" r="2" style="fill: steelblue;"></circle><circle cx="32.98514187335968" cy="67.01485812664032" r="2" style="fill: steelblue;"></circle><circle cx="62.35415115952492" cy="37.64584884047508" r="2" style="fill: steelblue;"></circle><circle cx="37.9801020026207" cy="62.0198979973793" r="2" style="fill: steelblue;"></circle><circle cx="69.4654181599617" cy="30.5345818400383" r="2" style="fill: steelblue;"></circle><circle cx="69.5261687040329" cy="30.473831295967102" r="2" style="fill: steelblue;"></circle><circle cx="77.38961577415466" cy="22.610384225845337" r="2" style="fill: steelblue;"></circle><circle cx="81.02664351463318" cy="18.97335648536682" r="2" style="fill: steelblue;"></circle><circle cx="65.51001965999603" cy="34.48998034000397" r="2" style="fill: steelblue;"></circle><circle cx="60.74945107102394" cy="39.25054892897606" r="2" style="fill: steelblue;"></circle><circle cx="55.83496876060963" cy="44.16503123939037" r="2" style="fill: steelblue;"></circle><circle cx="31.844373047351837" cy="68.15562695264816" r="2" style="fill: steelblue;"></circle><circle cx="63.284604251384735" cy="36.715395748615265" r="2" style="fill: steelblue;"></circle><circle cx="62.210291624069214" cy="37.789708375930786" r="2" style="fill: steelblue;"></circle><circle cx="56.897200644016266" cy="43.102799355983734" r="2" style="fill: steelblue;"></circle><circle cx="53.97435426712036" cy="46.02564573287964" r="2" style="fill: steelblue;"></circle><circle cx="58.13526436686516" cy="41.86473563313484" r="2" style="fill: steelblue;"></circle><circle cx="82.80384838581085" cy="17.196151614189148" r="2" style="fill: steelblue;"></circle><circle cx="61.283957213163376" cy="38.716042786836624" r="2" style="fill: steelblue;"></circle><circle cx="43.74087452888489" cy="56.25912547111511" r="2" style="fill: steelblue;"></circle><circle cx="65.12359529733658" cy="34.87640470266342" r="2" style="fill: steelblue;"></circle><circle cx="43.40890124440193" cy="56.59109875559807" r="2" style="fill: steelblue;"></circle><circle cx="82.02725946903229" cy="17.972740530967712" r="2" style="fill: steelblue;"></circle><circle cx="64.7827073931694" cy="35.2172926068306" r="2" style="fill: steelblue;"></circle><circle cx="50.0795639352873" cy="49.9204360647127" r="2" style="fill: steelblue;"></circle><circle cx="37.75905445218086" cy="62.24094554781914" r="2" style="fill: steelblue;"></circle><circle cx="27.557067573070526" cy="72.44293242692947" r="2" style="fill: steelblue;"></circle><circle cx="33.799782395362854" cy="66.20021760463715" r="2" style="fill: steelblue;"></circle><circle cx="48.61397799104452" cy="51.38602200895548" r="2" style="fill: steelblue;"></circle><circle cx="27.582988142967224" cy="72.41701185703278" r="2" style="fill: steelblue;"></circle></g></svg>