<svg xmlns="http://www.w3.org/2000/svg"><g transform="translate(40,20)"><circle cx="418.08858521282673" cy="222.37345866031114" r="3" style="fill: steelblue;"></circle><circle cx="230.71500135585666" cy="101.45141267114214" r="3" style="fill: steelblue;"></circle><circle cx="409.65156599879265" cy="81.31698270638782" r="3" style="fill: steelblue;"></circle><circle cx="353.1555990502238" cy="130.72642187277478" r="3" style="fill: steelblue;"></circle><circle cx="285.15971585176885" cy="73.63419069184198" r="3" style="fill: steelblue;"></circle><circle cx="332.42534033954144" cy="97.62945274511975" r="3" style="fill: steelblue;"></circle><circle cx="431.771884560585" cy="234.73398346039983" r="3" style="fill: steelblue;"></circle><circle cx="307.0652007870376" cy="181.96637162731753" r="3" style="fill: steelblue;"></circle><circle cx="392.50859923660755" cy="56.173867649502206" r="3" style="fill: steelblue;"></circle><circle cx="428.82716104388237" cy="95.4150375392702" r="3" style="fill: steelblue;"></circle><circle cx="432.27149963378906" cy="83.16191534201306" r="3" style="fill: steelblue;"></circle><circle cx="273.63020153017715" cy="167.22836759355334" r="3" style="fill: steelblue;"></circle><circle cx="238.0252891033888" cy="178.69013444417055" r="3" style="fill: steelblue;"></circle><circle cx="383.4153474122286" cy="45.16041278839111" r="3" style="fill: steelblue;"></circle><circle cx="393.36948774755" cy="132.33739137649536" r="3" style="fill: steelblue;"></circle><circle cx="378.51687267422676" cy="69.30225094159442" r="3" style="fill: steelblue;"></circle><circle cx="355.84478683769703" cy="56.58711327446832" r="3" style="fill: steelblue;"></circle><circle cx="311.3392748683691" cy="122.22528043720456" r="3" style="fill: steelblue;"></circle><circle cx="190.98614070564508" cy="116.57239993413287" r="3" style="fill: steelblue;"></circle><circle cx="432.531516328454" cy="114.23097799221676" r="3" style="fill: steelblue;"></circle><circle cx="193.74821081757545" cy="177.22506738371317" r="3" style="fill: steelblue;"></circle><circle cx="201.60163331776857" cy="176.5146493497822" r="3" style="fill: steelblue;"></circle><circle cx="227.32403453439474" cy="267.53688189718457" r="3" style="fill: steelblue;"></circle><circle cx="146.31132267415524" cy="90.37310712867311" r="3" style="fill: steelblue;"></circle><circle cx="266.88430388923734" cy="204.63835468722715" r="3" style="fill: steelblue;"></circle><circle cx="315.7578990608454" cy="191.48403470818369" r="3" style="fill: steelblue;"></circle><circle cx="346.70178674161434" cy="248.7469952967432" r="3" style="fill: steelblue;"></circle><circle cx="237.69705964252353" cy="237.58768869770896" r="3" style="fill: steelblue;"></circle><circle cx="451.8084888160229" cy="155.61765887671044" r="3" style="fill: steelblue;"></circle><circle cx="92.84710854291917" cy="159.74580662118063" r="3" style="fill: steelblue;"></circle><circle cx="265.7794095855206" cy="183.267254071931" r="3" style="fill: steelblue;"></circle><circle cx="230.57553319260478" cy="184.82497789793547" r="3" style="fill: steelblue;"></circle><circle cx="192.96931240707636" cy="169.82861566874715" r="3" style="fill: steelblue;"></circle><circle cx="366.8302834779024" cy="153.3558414214187" r="3" style="fill: steelblue;"></circle><circle cx="208.309764303267" cy="258.1647386153539" r="3" style="fill: steelblue;"></circle><circle cx="133.1618566811085" cy="232.26195615198878" r="3" style="fill: steelblue;"></circle><circle cx="205.9993664547801" cy="243.09165196286307" r="3" style="fill: steelblue;"></circle><circle cx="118.14563356339933" cy="213.06732503904237" r="3" style="fill: steelblue;"></circle><circle cx="184.41441513597965" cy="266.10506739881305" r="3" style="fill: steelblue;"></circle><circle cx="261.6206474415958" cy="223.61112675733034" r="3" style="fill: steelblue;"></circle><circle cx="194.01117961853743" cy="196.73132084103094" r="3" style="fill: steelblue;"></circle><circle cx="71.10761672258378" cy="270.4257766405741" r="3" style="fill: steelblue;"></circle><circle cx="196.07945948839188" cy="274.1253947218259" r="3" style="fill: steelblue;"></circle><circle cx="192.25674837827682" cy="255.21323002047006" r="3" style="fill: steelblue;"></circle><circle cx="63.41172203421594" cy="168.7710935042964" r="3" style="fill: steelblue;"></circle><circle cx="78.49952995777132" cy="292.92359120315973" r="3" style="fill: steelblue;"></circle><circle cx="162.71876737475395" cy="260.8766282598177" r="3" style="fill: steelblue;"></circle><circle cx="61.99072793126108" cy="134.8865835203065" r="3" style="fill: steelblue;"></circle><circle cx="288.68988052010536" cy="141.76036169131595" r="3" style="fill: steelblue;"></circle><circle cx="350.66583182662725" cy="167.5002322428756" r="3" style="fill: steelblue;"></circle><circle cx="250.15562589280307" cy="184.35561957044735" r="3" style="fill: steelblue;"></circle><circle cx="298.3038094639778" cy="166.2406449516614" r="3" style="fill: steelblue;"></circle><circle cx="115.45373506844045" cy="316.1536024676429" r="3" style="fill: steelblue;"></circle><circle cx="77.19973817467691" cy="313.82966372701856" r="3" style="fill: steelblue;"></circle><circle cx="263.80086155142635" cy="216.59559094243582" r="3" style="fill: steelblue;"></circle><circle cx="355.1963896304369" cy="298.2362707455953" r="3" style="fill: steelblue;"></circle><circle cx="114.92579586803915" cy="255.54957737525302" r="3" style="fill: steelblue;"></circle><circle cx="98.73001769185068" cy="296.03813919756146" r="3" style="fill: steelblue;"></circle><circle cx="282.7986280247569" cy="254.80554749568302" r="3" style="fill: steelblue;"></circle><circle cx="368.62488247454166" cy="138.31799642907248" r="3" style="fill: steelblue;"></circle><circle cx="257.95155650004745" cy="85.56274076302844" r="3" style="fill: steelblue;"></circle><circle cx="332.1240997686982" cy="219.34271065725218" r="3" style="fill: steelblue;"></circle><circle cx="414.66217048466206" cy="123.21438226434918" r="3" style="fill: steelblue;"></circle><circle cx="297.46447836980224" cy="247.71014352639514" r="3" style="fill: steelblue;"></circle><circle cx="335.24731758981943" cy="161.7793660196993" r="3" style="fill: steelblue;"></circle><circle cx="400.1453713327646" cy="111.07577300733989" r="3" style="fill: steelblue;"></circle><circle cx="306.8721622042358" cy="103.04134670231076" r="3" style="fill: steelblue;"></circle><circle cx="256.8997014127672" cy="248.72405330340064" r="3" style="fill: steelblue;"></circle><circle cx="258.2717720232904" cy="136.17013560401068" r="3" style="fill: steelblue;"></circle><circle cx="457.10749447345734" cy="184.06528441442384" r="3" style="fill: steelblue;"></circle><circle cx="400.15903048217297" cy="72.95094927151996" r="3" style="fill: steelblue;"></circle><circle cx="267.77331441873685" cy="154.68426628245248" r="3" style="fill: steelblue;"></circle><circle cx="371.48609206080437" cy="251.04965517918265" r="3" style="fill: steelblue;"></circle><circle cx="140.59241384267807" cy="168.9866143796179" r="3" style="fill: steelblue;"></circle><circle cx="167.20835275948048" cy="262.89268417490854" r="3" style="fill: steelblue;"></circle><circle cx="193.15226756036282" cy="226.3151237534152" r="3" style="fill: steelblue;"></circle><circle cx="194.65591058135033" cy="328.5718560218811" r="3" style="fill: steelblue;"></circle><circle cx="136.08134396374226" cy="250.02072503169376" r="3" style="fill: steelblue;"></circle><circle cx="68.99408966302873" cy="265.64462814066144" r="3" style="fill: steelblue;"></circle><circle cx="224.39456943422556" cy="265.5286548866166" r="3" style="fill: steelblue;"></circle><circle cx="380.24889908730984" cy="222.76866767141553" r="3" style="fill: steelblue;"></circle><circle cx="139.21651102602482" cy="273.88784454928503" r="3" style="fill: steelblue;"></circle><circle cx="285.5731829814613" cy="266.31694038709" r="3" style="fill: steelblue;"></circle><circle cx="216.29897363483906" cy="184.11048098156846" r="3" style="fill: steelblue;"></circle><circle cx="332.1847612783313" cy="125.71691390540866" r="3" style="fill: steelblue;"></circle><circle cx="216.78959157317877" cy="135.61412112580405" r="3" style="fill: steelblue;"></circle><circle cx="378.67891162633896" cy="178.60756731695596" r="3" style="fill: steelblue;"></circle><circle cx="353.394468203187" cy="120.05788501765994" r="3" style="fill: steelblue;"></circle><circle cx="387.27092899382114" cy="123.83867220746146" r="3" style="fill: steelblue;"></circle><circle cx="242.78013406321406" cy="90.79867270257739" r="3" style="fill: steelblue;"></circle><circle cx="420.3760602325201" cy="119.0276973777347" r="3" style="fill: steelblue;"></circle><circle cx="290.7654023543" cy="34.73614818520014" r="3" style="fill: steelblue;"></circle><circle cx="314.3957559764385" cy="83.38137964407605" r="3" style="fill: steelblue;"></circle><circle cx="284.7608860395849" cy="86.1434820625517" r="3" style="fill: steelblue;"></circle><circle cx="434.42293636500835" cy="170.2718687140279" r="3" style="fill: steelblue;"></circle><circle cx="87.29688718914987" cy="242.0315568645795" r="3" style="fill: steelblue;"></circle><circle cx="182.1359322220087" cy="211.5167644288805" r="3" style="fill: steelblue;"></circle><circle cx="283.1181407254189" cy="253.5136101974381" r="3" style="fill: steelblue;"></circle><circle cx="359.7473908960819" cy="239.31359706653487" r="3" style="fill: steelblue;"></circle><circle cx="216.86303716152906" cy="204.06473314182625" r="3" style="fill: steelblue;"></circle><circle cx="131.90950982272628" cy="175.26182180477514" r="3" style="fill: steelblue;"></circle><circle cx="127.14087747037412" cy="195.80842470491513" r="3" style="fill: steelblue;"></circle><circle cx="165.21512277424335" cy="129.65659134917786" r="3" style="fill: steelblue;"></circle><circle cx="284.2600048799068" cy="193.81474138936028" r="3" style="fill: steelblue;"></circle><circle cx="161.90738573670387" cy="266.3342091772291" r="3" style="fill: steelblue;"></circle><circle cx="183.47964853048325" cy="228.94586746891338" r="3" style="fill: steelblue;"></circle><circle cx="270.7230034272652" cy="55.50351407792834" r="3" style="fill: steelblue;"></circle><circle cx="477.2179466485977" cy="148.6968696117401" r="3" style="fill: steelblue;"></circle><circle cx="531.3919839262962" cy="253.39829756153952" r="3" style="fill: steelblue;"></circle><circle cx="445.07680132985115" cy="55.3223772181405" r="3" style="fill: steelblue;"></circle><circle cx="414.1419258713722" cy="136.1172108186616" r="3" style="fill: steelblue;"></circle><circle cx="524.2206086218357" cy="70.93363006909686" r="3" style="fill: steelblue;"></circle><circle cx="332.3853234574199" cy="154.26587768726876" r="3" style="fill: steelblue;"></circle><circle cx="67.69912585616113" cy="303.08441983328925" r="3" style="fill: steelblue;"></circle><circle cx="224.95203472673893" cy="214.7816450645526" r="3" style="fill: steelblue;"></circle><circle cx="162.8698629140854" cy="168.8597322338157" r="3" style="fill: steelblue;"></circle><circle cx="390.4093147069216" cy="182.4204951731695" r="3" style="fill: steelblue;"></circle><circle cx="333.2802039384842" cy="267.4256083038118" r="3" style="fill: steelblue;"></circle></g></svg>