<svg xmlns="http://www.w3.org/2000/svg"><g><circle cx="44.07401084899902" cy="180.89669942855835" r="2" style="fill: steelblue;"></circle><circle cx="80.6820660829544" cy="139.41502571105957" r="2" style="fill: steelblue;"></circle><circle cx="77.31635719537735" cy="159.25151109695435" r="2" style="fill: steelblue;"></circle><circle cx="91.9319823384285" cy="147.37480216556125" r="2" style="fill: steelblue;"></circle><circle cx="82.33806490898132" cy="124.13092702627182" r="2" style="fill: steelblue;"></circle><circle cx="47.29112386703491" cy="135.56754257943894" r="2" style="fill: steelblue;"></circle><circle cx="127.3895263671875" cy="117.12964127461115" r="2" style="fill: steelblue;"></circle><circle cx="112.68046945333481" cy="137.4452147218916" r="2" style="fill: steelblue;"></circle><circle cx="88.28495517373085" cy="115.07642848624124" r="2" style="fill: steelblue;"></circle><circle cx="109.23110842704773" cy="130.84760804971057" r="2" style="fill: steelblue;"></circle><circle cx="44.08684968948364" cy="173.16291067335342" r="2" style="fill: steelblue;"></circle><circle cx="70.35255134105682" cy="103.6461086736785" r="2" style="fill: steelblue;"></circle><circle cx="17.51801371574402" cy="177.11300320095486" r="2" style="fill: steelblue;"></circle><circle cx="75.68145394325256" cy="113.56098970605268" r="2" style="fill: steelblue;"></circle><circle cx="113.98445069789886" cy="150.38981702592636" r="2" style="fill: steelblue;"></circle><circle cx="52.31924057006836" cy="186.97644604576956" r="2" style="fill: steelblue;"></circle><circle cx="55.94696402549744" cy="81.341952085495" r="2" style="fill: steelblue;"></circle><circle cx="84.21896547079086" cy="102.42517126931085" r="2" style="fill: steelblue;"></circle><circle cx="136.92957162857056" cy="119.01180197795232" r="2" style="fill: steelblue;"></circle><circle cx="118.4962511062622" cy="92.36619538731046" r="2" style="fill: steelblue;"></circle><circle cx="116.2491574883461" cy="101.03337963422139" r="2" style="fill: steelblue;"></circle><circle cx="121.91863805055618" cy="103.8846191432741" r="2" style="fill: steelblue;"></circle><circle cx="89.201270788908" cy="82.64194263352287" r="2" style="fill: steelblue;"></circle><circle cx="92.89235845208168" cy="121.67563620540831" r="2" style="fill: steelblue;"></circle><circle cx="113.49177658557892" cy="155.21819392840067" r="2" style="fill: steelblue;"></circle><circle cx="56.96200132369995" cy="144.14273699124652" r="2" style="fill: steelblue;"></circle><circle cx="59.548839926719666" cy="190.30045138465033" r="2" style="fill: steelblue;"></circle><circle cx="44.14306282997131" cy="180.0208290417989" r="2" style="fill: steelblue;"></circle><circle cx="114.1444444656372" cy="132.74640672736697" r="2" style="fill: steelblue;"></circle><circle cx="99.54453725367785" cy="78.69887683126662" r="2" style="fill: steelblue;"></circle><circle cx="181.41441345214844" cy="94.40757168663872" r="2" style="fill: steelblue;"></circle><circle cx="180.0581395626068" cy="45.527100563049316" r="2" style="fill: steelblue;"></circle><circle cx="117.6959365606308" cy="104.89803966548708" r="2" style="fill: steelblue;"></circle><circle cx="111.47578582167625" cy="96.74288001325395" r="2" style="fill: steelblue;"></circle><circle cx="117.56418645381927" cy="108.97899025844202" r="2" style="fill: steelblue;"></circle><circle cx="88.90466168522835" cy="48.88705412546794" r="2" style="fill: steelblue;"></circle><circle cx="60.020360350608826" cy="115.4730228914155" r="2" style="fill: steelblue;"></circle><circle cx="70.21685540676117" cy="168.53408681021796" r="2" style="fill: steelblue;"></circle><circle cx="75.89528560638428" cy="150.86933308177524" r="2" style="fill: steelblue;"></circle><circle cx="63.936132192611694" cy="110.97039124514494" r="2" style="fill: steelblue;"></circle><circle cx="74.73720014095306" cy="168.81165239546036" r="2" style="fill: steelblue;"></circle><circle cx="110.71023046970367" cy="179.29303646087646" r="2" style="fill: steelblue;"></circle><circle cx="133.37795436382294" cy="114.6238177186913" r="2" style="fill: steelblue;"></circle><circle cx="86.66754812002182" cy="32.85303380754259" r="2" style="fill: steelblue;"></circle><circle cx="106.31256625056267" cy="114.73294720053673" r="2" style="fill: steelblue;"></circle><circle cx="58.66023600101471" cy="115.1001039478514" r="2" style="fill: steelblue;"></circle><circle cx="130.37839233875275" cy="135.0278208653132" r="2" style="fill: steelblue;"></circle><circle cx="65.52698910236359" cy="172.93073733647662" r="2" style="fill: steelblue;"></circle><circle cx="54.84265685081482" cy="94.53726145956252" r="2" style="fill: steelblue;"></circle><circle cx="74.3016391992569" cy="182.67354038026596" r="2" style="fill: steelblue;"></circle><circle cx="68.95987689495087" cy="89.97031218475766" r="2" style="fill: steelblue;"></circle><circle cx="124.25885945558548" cy="126.94882187578412" r="2" style="fill: steelblue;"></circle><circle cx="114.33063745498657" cy="121.02423525518842" r="2" style="fill: steelblue;"></circle><circle cx="101.36386938393116" cy="79.88827096091376" r="2" style="fill: steelblue;"></circle><circle cx="84.11596864461899" cy="141.96428325441147" r="2" style="fill: steelblue;"></circle><circle cx="74.30380582809448" cy="146.7640267478095" r="2" style="fill: steelblue;"></circle><circle cx="71.63833379745483" cy="79.18138305346172" r="2" style="fill: steelblue;"></circle><circle cx="88.39570358395576" cy="141.7598161432478" r="2" style="fill: steelblue;"></circle><circle cx="64.53750729560852" cy="105.35041077269449" r="2" style="fill: steelblue;"></circle><circle cx="59.82968211174011" cy="122.54785663551755" r="2" style="fill: steelblue;"></circle><circle cx="41.2207305431366" cy="115.73247073425188" r="2" style="fill: steelblue;"></circle><circle cx="90.52017703652382" cy="116.00399431255128" r="2" style="fill: steelblue;"></circle><circle cx="46.49754762649536" cy="193.34289762708877" r="2" style="fill: steelblue;"></circle><circle cx="91.41287431120872" cy="186.7319477929009" r="2" style="fill: steelblue;"></circle><circle cx="73.89123439788818" cy="173.22464783986408" r="2" style="fill: steelblue;"></circle><circle cx="35.70221662521362" cy="133.01935129695468" r="2" style="fill: steelblue;"></circle><circle cx="103.19547615945339" cy="168.4504747390747" r="2" style="fill: steelblue;"></circle><circle cx="95.44904381036758" cy="108.75815235906177" r="2" style="fill: steelblue;"></circle><circle cx="52.430978417396545" cy="187.36720747417874" r="2" style="fill: steelblue;"></circle><circle cx="38.77807855606079" cy="185.3552328215705" r="2" style="fill: steelblue;"></circle><circle cx="146.05479836463928" cy="131.68361286322275" r="2" style="fill: steelblue;"></circle><circle cx="164.8117959499359" cy="97.16001980834537" r="2" style="fill: steelblue;"></circle><circle cx="125.15102624893188" cy="55.41325940026176" r="2" style="fill: steelblue;"></circle><circle cx="55.273979902267456" cy="72.72433903482225" r="2" style="fill: steelblue;"></circle><circle cx="90.64662083983421" cy="71.7564324537913" r="2" style="fill: steelblue;"></circle><circle cx="87.1641293168068" cy="109.8359323417147" r="2" style="fill: steelblue;"></circle><circle cx="82.96395242214203" cy="168.33925909466214" r="2" style="fill: steelblue;"></circle><circle cx="118.17272156476974" cy="63.17894326315985" r="2" style="fill: steelblue;"></circle><circle cx="136.9635045528412" cy="88.38724096616109" r="2" style="fill: steelblue;"></circle><circle cx="158.57748985290527" cy="101.41965415742662" r="2" style="fill: steelblue;"></circle><circle cx="138.30396234989166" cy="24.18049176534016" r="2" style="fill: steelblue;"></circle><circle cx="86.06364279985428" cy="34.93458032608032" r="2" style="fill: steelblue;"></circle><circle cx="103.248580545187" cy="45.6834700372484" r="2" style="fill: steelblue;"></circle><circle cx="40.28975963592529" cy="128.20819682545132" r="2" style="fill: steelblue;"></circle><circle cx="78.04907113313675" cy="124.59969520568848" r="2" style="fill: steelblue;"></circle><circle cx="63.12820911407471" cy="108.4327803303798" r="2" style="fill: steelblue;"></circle><circle cx="78.88913750648499" cy="101.39068878359265" r="2" style="fill: steelblue;"></circle><circle cx="72.86158800125122" cy="155.92513812912836" r="2" style="fill: steelblue;"></circle><circle cx="148.77282977104187" cy="160.8877182006836" r="2" style="fill: steelblue;"></circle><circle cx="65.97028374671936" cy="50.25749074088202" r="2" style="fill: steelblue;"></circle><circle cx="124.70830231904984" cy="142.09674133194818" r="2" style="fill: steelblue;"></circle><circle cx="75.9602040052414" cy="97.46752844916449" r="2" style="fill: steelblue;"></circle><circle cx="138.9308363199234" cy="18.678380383385562" r="2" style="fill: steelblue;"></circle><circle cx="139.0523374080658" cy="111.62587467374073" r="2" style="fill: steelblue;"></circle><circle cx="154.77923154830933" cy="94.69299183951483" r="2" style="fill: steelblue;"></circle><circle cx="162.05328702926636" cy="44.12002033657498" r="2" style="fill: steelblue;"></circle><circle cx="131.02003931999207" cy="32.57432911131117" r="2" style="fill: steelblue;"></circle><circle cx="121.49890214204788" cy="107.55318072107103" r="2" style="fill: steelblue;"></circle><circle cx="111.66993752121925" cy="152.97395322057938" r="2" style="fill: steelblue;"></circle><circle cx="63.688746094703674" cy="119.34215492672391" r="2" style="fill: steelblue;"></circle><circle cx="126.56920850276947" cy="59.779895676506875" r="2" style="fill: steelblue;"></circle><circle cx="124.42058324813843" cy="70.60313887066312" r="2" style="fill: steelblue;"></circle><circle cx="113.79440128803253" cy="44.35558451546564" r="2" style="fill: steelblue;"></circle><circle cx="107.94870853424072" cy="53.84543206956651" r="2" style="fill: steelblue;"></circle><circle cx="116.27052873373032" cy="55.70518308215671" r="2" style="fill: steelblue;"></circle><circle cx="165.6076967716217" cy="81.55242270893521" r="2" style="fill: steelblue;"></circle><circle cx="122.56791442632675" cy="106.63114281164275" r="2" style="fill: steelblue;"></circle><circle cx="87.48174905776978" cy="70.51023840904236" r="2" style="fill: steelblue;"></circle><circle cx="130.24719059467316" cy="107.37825557589531" r="2" style="fill: steelblue;"></circle><circle cx="86.81780248880386" cy="84.39837065007951" r="2" style="fill: steelblue;"></circle><circle cx="164.05451893806458" cy="89.0462961461809" r="2" style="fill: steelblue;"></circle><circle cx="129.5654147863388" cy="61.055309242672394" r="2" style="fill: steelblue;"></circle><circle cx="100.1591278705746" cy="121.75734258360333" r="2" style="fill: steelblue;"></circle><circle cx="75.51810890436172" cy="159.98183025254144" r="2" style="fill: steelblue;"></circle><circle cx="55.11413514614105" cy="117.43898689746857" r="2" style="fill: steelblue;"></circle><circle cx="67.59956479072571" cy="87.77830998102824" r="2" style="fill: steelblue;"></circle><circle cx="97.22795598208904" cy="93.7491837475035" r="2" style="fill: steelblue;"></circle><circle cx="55.16597628593445" cy="160.92434856626724" r="2" style="fill: steelblue;"></circle></g></svg>