<svg xmlns="http://www.w3.org/2000/svg"><g transform="translate(40,20)"><circle cx="329.3165596042361" cy="127.53649966584311" r="3" style="fill: steelblue;"></circle><circle cx="234.36857383831273" cy="187.11837319036323" r="3" style="fill: steelblue;"></circle><circle cx="474.20211451394226" cy="162.99389799435932" r="3" style="fill: steelblue;"></circle><circle cx="424.9987833840507" cy="186.86059593326513" r="3" style="fill: steelblue;"></circle><circle cx="451.8415955134801" cy="107.3760911822319" r="3" style="fill: steelblue;"></circle><circle cx="536.7818135874613" cy="116.21228191587659" r="3" style="fill: steelblue;"></circle><circle cx="350.3687085424151" cy="119.0012204978201" r="3" style="fill: steelblue;"></circle><circle cx="467.0302018097469" cy="79.78464994165631" r="3" style="fill: steelblue;"></circle><circle cx="402.67960105623524" cy="63.92407748434278" r="3" style="fill: steelblue;"></circle><circle cx="513.2964221068792" cy="76.99633141358692" r="3" style="fill: steelblue;"></circle><circle cx="402.04160698822574" cy="130.20025110907022" r="3" style="fill: steelblue;"></circle><circle cx="384.61772816521784" cy="138.03518232372073" r="3" style="fill: steelblue;"></circle><circle cx="315.5765760796411" cy="149.01299277941388" r="3" style="fill: steelblue;"></circle><circle cx="365.03622676645006" cy="178.36424687670336" r="3" style="fill: steelblue;"></circle><circle cx="251.60369836858342" cy="225.91860509581034" r="3" style="fill: steelblue;"></circle><circle cx="226.1432281535651" cy="130.91793739133408" r="3" style="fill: steelblue;"></circle><circle cx="424.16460105351047" cy="148.5692399243514" r="3" style="fill: steelblue;"></circle><circle cx="269.83346988047873" cy="60.248606734805655" r="3" style="fill: steelblue;"></circle><circle cx="300.63200673886706" cy="140.02813978327646" r="3" style="fill: steelblue;"></circle><circle cx="533.2542872428895" cy="123.79697213570279" r="3" style="fill: steelblue;"></circle><circle cx="210.81824410174573" cy="195.19609085465265" r="3" style="fill: steelblue;"></circle><circle cx="235.00224050932698" cy="92.4431367052926" r="3" style="fill: steelblue;"></circle><circle cx="209.05177812491144" cy="291.49869001573984" r="3" style="fill: steelblue;"></circle><circle cx="386.2131444045476" cy="168.71269254220857" r="3" style="fill: steelblue;"></circle><circle cx="163.32842064755303" cy="189.83710733138855" r="3" style="fill: steelblue;"></circle><circle cx="107.40072446210044" cy="147.92516041133138" r="3" style="fill: steelblue;"></circle><circle cx="131.85358490262715" cy="243.02569735381337" r="3" style="fill: steelblue;"></circle><circle cx="518.1635509218489" cy="251.91875050465262" r="3" style="fill: steelblue;"></circle><circle cx="412.7299416916712" cy="256.0836697618166" r="3" style="fill: steelblue;"></circle><circle cx="148.64899341549193" cy="97.27121227317384" r="3" style="fill: steelblue;"></circle><circle cx="174.81013553483146" cy="245.43555991517172" r="3" style="fill: steelblue;"></circle><circle cx="252.61703885027342" cy="172.33635837005244" r="3" style="fill: steelblue;"></circle><circle cx="228.3533449125077" cy="257.21960845920773" r="3" style="fill: steelblue;"></circle><circle cx="115.39717503956386" cy="246.52818176481458" r="3" style="fill: steelblue;"></circle><circle cx="263.8340225815773" cy="118.86874337991077" r="3" style="fill: steelblue;"></circle><circle cx="381.78247613566265" cy="171.0159724785222" r="3" style="fill: steelblue;"></circle><circle cx="80.39903742926461" cy="245.0635623600748" r="3" style="fill: steelblue;"></circle><circle cx="61.90976219517844" cy="235.34452501270505" r="3" style="fill: steelblue;"></circle><circle cx="111.98128989764622" cy="234.65106139580405" r="3" style="fill: steelblue;"></circle><circle cx="90.5957806961877" cy="230.3525495032469" r="3" style="fill: steelblue;"></circle><circle cx="95.90425550937653" cy="186.64329457614156" r="3" style="fill: steelblue;"></circle><circle cx="219.32814564023698" cy="249.5725999275843" r="3" style="fill: steelblue;"></circle><circle cx="212.09703562515122" cy="229.13951550920802" r="3" style="fill: steelblue;"></circle><circle cx="197.10128973637308" cy="213.11726545294124" r="3" style="fill: steelblue;"></circle><circle cx="151.38636972223009" cy="211.55827326907053" r="3" style="fill: steelblue;"></circle><circle cx="130.06984310490745" cy="243.59995126724243" r="3" style="fill: steelblue;"></circle><circle cx="214.58000632269042" cy="236.8808823327223" r="3" style="fill: steelblue;"></circle><circle cx="128.6587406056268" cy="270.71069429318106" r="3" style="fill: steelblue;"></circle><circle cx="139.4870981148311" cy="206.3256944012311" r="3" style="fill: steelblue;"></circle><circle cx="125.57618124144417" cy="158.3137371473842" r="3" style="fill: steelblue;"></circle><circle cx="54.82559221131461" cy="201.08453618983424" r="3" style="fill: steelblue;"></circle><circle cx="285.7747605443001" cy="242.1693131327629" r="3" style="fill: steelblue;"></circle><circle cx="91.46335652896336" cy="217.83724592791663" r="3" style="fill: steelblue;"></circle><circle cx="160.09901033980506" cy="290.20079556438657" r="3" style="fill: steelblue;"></circle><circle cx="147.69319781235285" cy="120.64314633607864" r="3" style="fill: steelblue;"></circle><circle cx="132.7538300412042" cy="206.00805514388617" r="3" style="fill: steelblue;"></circle><circle cx="135.717017693179" cy="246.8719176120228" r="3" style="fill: steelblue;"></circle><circle cx="108.6323526927403" cy="146.71292031804722" r="3" style="fill: steelblue;"></circle><circle cx="10.890479769025523" cy="315.0363696946038" r="3" style="fill: steelblue;"></circle><circle cx="94.33748526232583" cy="236.94796404904787" r="3" style="fill: steelblue;"></circle><circle cx="409.28620372499745" cy="137.1933635738161" r="3" style="fill: steelblue;"></circle><circle cx="473.93133401870733" cy="223.80871242947046" r="3" style="fill: steelblue;"></circle><circle cx="391.7665930305209" cy="132.10264593362808" r="3" style="fill: steelblue;"></circle><circle cx="296.825555562973" cy="86.38937109046513" r="3" style="fill: steelblue;"></circle><circle cx="395.067583833422" cy="173.7407630102502" r="3" style="fill: steelblue;"></circle><circle cx="351.39838942459653" cy="128.7075090739462" r="3" style="fill: steelblue;"></circle><circle cx="340.46851796763286" cy="204.04512248933315" r="3" style="fill: steelblue;"></circle><circle cx="149.37115520238876" cy="67.4492402209176" r="3" style="fill: steelblue;"></circle><circle cx="197.39798324448722" cy="195.90964170897172" r="3" style="fill: steelblue;"></circle><circle cx="279.367599274431" cy="21.164745092391968" r="3" style="fill: steelblue;"></circle><circle cx="442.49764527593345" cy="161.56497225165367" r="3" style="fill: steelblue;"></circle><circle cx="259.50988303337783" cy="268.63386150863437" r="3" style="fill: steelblue;"></circle><circle cx="407.98009821346835" cy="232.44578474097784" r="3" style="fill: steelblue;"></circle><circle cx="61.92193559237889" cy="208.1175305777126" r="3" style="fill: steelblue;"></circle><circle cx="216.64247034915857" cy="281.24124308427173" r="3" style="fill: steelblue;"></circle><circle cx="252.84204984349864" cy="260.2835496266683" r="3" style="fill: steelblue;"></circle><circle cx="34.54133289200919" cy="147.87760749459267" r="3" style="fill: steelblue;"></circle><circle cx="0.8219422612871358" cy="215.8265169709921" r="3" style="fill: steelblue;"></circle><circle cx="44.199136069842744" cy="274.53917347722586" r="3" style="fill: steelblue;"></circle><circle cx="63.738404171807424" cy="177.04353212482397" r="3" style="fill: steelblue;"></circle><circle cx="121.79969225611005" cy="163.07798193560706" r="3" style="fill: steelblue;"></circle><circle cx="104.27981717245919" cy="239.40353964765865" r="3" style="fill: steelblue;"></circle><circle cx="284.1022173847471" cy="206.2515320463313" r="3" style="fill: steelblue;"></circle><circle cx="241.92184080502818" cy="182.47638622091876" r="3" style="fill: steelblue;"></circle><circle cx="387.84473598003393" cy="178.8280109564463" r="3" style="fill: steelblue;"></circle><circle cx="303.8783149634089" cy="205.91195186393128" r="3" style="fill: steelblue;"></circle><circle cx="309.65363208736693" cy="229.8394954866833" r="3" style="fill: steelblue;"></circle><circle cx="123.72320396559579" cy="205.24658987091647" r="3" style="fill: steelblue;"></circle><circle cx="257.95804502708575" cy="77.91841526826221" r="3" style="fill: steelblue;"></circle><circle cx="374.56232964992523" cy="69.95389858881634" r="3" style="fill: steelblue;"></circle><circle cx="438.1362124851772" cy="117.93851769632762" r="3" style="fill: steelblue;"></circle><circle cx="126.77699089050293" cy="171.58134136762885" r="3" style="fill: steelblue;"></circle><circle cx="236.580043256815" cy="214.91688924531138" r="3" style="fill: steelblue;"></circle><circle cx="261.0961950889656" cy="134.22615660561456" r="3" style="fill: steelblue;"></circle><circle cx="262.78223646538595" cy="229.42755950821768" r="3" style="fill: steelblue;"></circle><circle cx="272.29609410677637" cy="285.6932762596342" r="3" style="fill: steelblue;"></circle><circle cx="20.55374315806797" cy="246.47051675452124" r="3" style="fill: steelblue;"></circle><circle cx="238.16380445978473" cy="255.45711980925665" r="3" style="fill: steelblue;"></circle><circle cx="168.11768685068404" cy="266.3622564739651" r="3" style="fill: steelblue;"></circle><circle cx="108.55939277580806" cy="133.4448829293251" r="3" style="fill: steelblue;"></circle><circle cx="158.07759991713934" cy="240.92022329568863" r="3" style="fill: steelblue;"></circle><circle cx="129.3413244826453" cy="205.5694974131054" r="3" style="fill: steelblue;"></circle><circle cx="342.52497145107816" cy="194.880900801056" r="3" style="fill: steelblue;"></circle><circle cx="5.620858669280998" cy="201.95564234422312" r="3" style="fill: steelblue;"></circle><circle cx="126.1243634564536" cy="299.29387403859033" r="3" style="fill: steelblue;"></circle><circle cx="47.65631190368107" cy="241.9003169569704" r="3" style="fill: steelblue;"></circle><circle cx="305.6733565245356" cy="160.5536701778571" r="3" style="fill: steelblue;"></circle><circle cx="478.9230016299657" cy="170.4289321270254" r="3" style="fill: steelblue;"></circle><circle cx="331.72400695937023" cy="221.02365063296423" r="3" style="fill: steelblue;"></circle><circle cx="414.7358853476389" cy="111.47863417863846" r="3" style="fill: steelblue;"></circle><circle cx="471.2550718443735" cy="108.0484381980366" r="3" style="fill: steelblue;"></circle><circle cx="297.2167940650668" cy="203.9780900296238" r="3" style="fill: steelblue;"></circle><circle cx="322.09040113857816" cy="306.5276543299357" r="3" style="fill: steelblue;"></circle><circle cx="296.34348788431714" cy="220.24989873170853" r="3" style="fill: steelblue;"></circle><circle cx="222.9042362528188" cy="258.8666280110677" r="3" style="fill: steelblue;"></circle><circle cx="148.90483592237746" cy="221.30316744248069" r="3" style="fill: steelblue;"></circle><circle cx="361.8544639859881" cy="207.65119646158485" r="3" style="fill: steelblue;"></circle><circle cx="228.5549729104553" cy="224.1729593111409" r="3" style="fill: steelblue;"></circle></g></svg>