<svg xmlns="http://www.w3.org/2000/svg"><g><circle cx="18.77364441752434" cy="39.190225882662666" r="2" style="fill: steelblue;"></circle><circle cx="10.092175751924518" cy="56.4995848470264" r="2" style="fill: steelblue;"></circle><circle cx="27.72262617945671" cy="55.057170655992294" r="2" style="fill: steelblue;"></circle><circle cx="8.122126758098606" cy="60.51605873637729" r="2" style="fill: steelblue;"></circle><circle cx="21.546959131956104" cy="82.57172438833449" r="2" style="fill: steelblue;"></circle><circle cx="22.679667174816135" cy="55.74330869648192" r="2" style="fill: steelblue;"></circle><circle cx="42.12454725056887" cy="32.8565431965722" r="2" style="fill: steelblue;"></circle><circle cx="52.482656855136156" cy="64.6115220255322" r="2" style="fill: steelblue;"></circle><circle cx="24.81712512671948" cy="56.45113206572003" r="2" style="fill: steelblue;"></circle><circle cx="16.491784900426868" cy="14.829297198189629" r="2" style="fill: steelblue;"></circle><circle cx="23.789775744080547" cy="48.70864641335275" r="2" style="fill: steelblue;"></circle><circle cx="45.28168747201562" cy="36.32544411553277" r="2" style="fill: steelblue;"></circle><circle cx="23.925661295652393" cy="62.837060292561844" r="2" style="fill: steelblue;"></circle><circle cx="45.87369570508599" cy="58.76712600390117" r="2" style="fill: steelblue;"></circle><circle cx="24.52282160520554" cy="56.60897923840417" r="2" style="fill: steelblue;"></circle><circle cx="65.02355560660362" cy="89.42626847161186" r="2" style="fill: steelblue;"></circle><circle cx="42.20682540908456" cy="35.358142687214745" r="2" style="fill: steelblue;"></circle><circle cx="43.2642444036901" cy="26.95128752125634" r="2" style="fill: steelblue;"></circle><circle cx="40.58154411613941" cy="36.31631798214383" r="2" style="fill: steelblue;"></circle><circle cx="59.237853810191154" cy="29.55931193298764" r="2" style="fill: steelblue;"></circle><circle cx="70.09104192256927" cy="8.52381785710653" r="2" style="fill: steelblue;"></circle><circle cx="86.59239411354065" cy="28.99786763721043" r="2" style="fill: steelblue;"></circle><circle cx="59.1544222086668" cy="79.49830028745863" r="2" style="fill: steelblue;"></circle><circle cx="37.10161913186312" cy="63.419935769504974" r="2" style="fill: steelblue;"></circle><circle cx="55.01941051334143" cy="76.970331536399" r="2" style="fill: steelblue;"></circle><circle cx="68.57640780508518" cy="40.68834309776624" r="2" style="fill: steelblue;"></circle><circle cx="40.96733424812555" cy="63.14160194661882" r="2" style="fill: steelblue;"></circle><circle cx="22.28404507040978" cy="51.91348261303372" r="2" style="fill: steelblue;"></circle><circle cx="33.766987919807434" cy="52.22313950459163" r="2" style="fill: steelblue;"></circle><circle cx="36.75711918622255" cy="24.687024619844223" r="2" style="fill: steelblue;"></circle><circle cx="82.30990096926689" cy="42.98075408571297" r="2" style="fill: steelblue;"></circle><circle cx="63.49350344389677" cy="57.847513258457184" r="2" style="fill: steelblue;"></circle><circle cx="49.47529030032456" cy="20.08586393462287" r="2" style="fill: steelblue;"></circle><circle cx="22.28951565921307" cy="21.89172406991323" r="2" style="fill: steelblue;"></circle><circle cx="21.930710598826412" cy="42.272146128945884" r="2" style="fill: steelblue;"></circle><circle cx="37.22610529512167" cy="48.58930756648382" r="2" style="fill: steelblue;"></circle><circle cx="43.18931624293327" cy="77.0390424463484" r="2" style="fill: steelblue;"></circle><circle cx="5.548692494630816" cy="64.08095128006406" r="2" style="fill: steelblue;"></circle><circle cx="28.197554126381874" cy="73.70376851823595" r="2" style="fill: steelblue;"></circle><circle cx="60.103143751621246" cy="72.60016534063551" r="2" style="fill: steelblue;"></circle><circle cx="31.554029509425163" cy="57.439394460784065" r="2" style="fill: steelblue;"></circle><circle cx="38.595583476126194" cy="26.768180396821762" r="2" style="fill: steelblue;"></circle><circle cx="46.57870549708605" cy="46.72492332756519" r="2" style="fill: steelblue;"></circle><circle cx="81.25988319516182" cy="22.360623876253772" r="2" style="fill: steelblue;"></circle><circle cx="55.787788424640894" cy="35.13327009148068" r="2" style="fill: steelblue;"></circle><circle cx="88.25704008340836" cy="16.40899578730266" r="2" style="fill: steelblue;"></circle><circle cx="61.07336021959782" cy="17.347118258476257" r="2" style="fill: steelblue;"></circle><circle cx="10.087511688470844" cy="66.41091836823357" r="2" style="fill: steelblue;"></circle><circle cx="48.06002096738666" cy="74.0796188513438" r="2" style="fill: steelblue;"></circle><circle cx="40.497903898358345" cy="43.593848341455065" r="2" style="fill: steelblue;"></circle><circle cx="69.67574842274189" cy="88.88565434349907" r="2" style="fill: steelblue;"></circle><circle cx="46.964475605636835" cy="62.30552262730069" r="2" style="fill: steelblue;"></circle><circle cx="82.71610289812088" cy="44.72932481827835" r="2" style="fill: steelblue;"></circle><circle cx="30.397574603557587" cy="54.28858117924796" r="2" style="fill: steelblue;"></circle><circle cx="49.994825571775436" cy="44.325044932257796" r="2" style="fill: steelblue;"></circle><circle cx="27.169396355748177" cy="59.44322811232673" r="2" style="fill: steelblue;"></circle><circle cx="44.55640558153391" cy="35.041878786351944" r="2" style="fill: steelblue;"></circle><circle cx="55.75763359665871" cy="55.82879003551271" r="2" style="fill: steelblue;"></circle><circle cx="73.19408394396305" cy="47.03377307289177" r="2" style="fill: steelblue;"></circle><circle cx="28.61555591225624" cy="65.41698939270444" r="2" style="fill: steelblue;"></circle><circle cx="33.73589664697647" cy="57.98893024524053" r="2" style="fill: steelblue;"></circle><circle cx="36.65555287152529" cy="75.14139281378853" r="2" style="fill: steelblue;"></circle><circle cx="12.640117853879932" cy="88.90639013714261" r="2" style="fill: steelblue;"></circle><circle cx="18.518186360597614" cy="38.861324555344055" r="2" style="fill: steelblue;"></circle><circle cx="20.529517158865932" cy="61.68917251957787" r="2" style="fill: steelblue;"></circle><circle cx="50.68120384821668" cy="64.58453767829471" r="2" style="fill: steelblue;"></circle><circle cx="16.226264834403995" cy="60.723797480265304" r="2" style="fill: steelblue;"></circle><circle cx="19.223074615001682" cy="60.3264182806015" r="2" style="fill: steelblue;"></circle><circle cx="60.76844707131386" cy="54.295059045155845" r="2" style="fill: steelblue;"></circle><circle cx="44.157145731151104" cy="70.82346512211693" r="2" style="fill: steelblue;"></circle><circle cx="21.839874982833866" cy="68.59729952282376" r="2" style="fill: steelblue;"></circle><circle cx="54.374390468001366" cy="44.42259603238199" r="2" style="fill: steelblue;"></circle><circle cx="77.35967375338078" cy="18.911774953206383" r="2" style="fill: steelblue;"></circle><circle cx="73.16131629049778" cy="21.775749988026092" r="2" style="fill: steelblue;"></circle><circle cx="77.46240049600601" cy="37.31326527065701" r="2" style="fill: steelblue;"></circle><circle cx="75.32361820340157" cy="23.25437068939209" r="2" style="fill: steelblue;"></circle><circle cx="76.79305337369442" cy="47.150930762290955" r="2" style="fill: steelblue;"></circle><circle cx="76.1708665639162" cy="41.18783540195889" r="2" style="fill: steelblue;"></circle><circle cx="99.15905371308327" cy="16.005684269799126" r="2" style="fill: steelblue;"></circle><circle cx="84.94728729128838" cy="19.163838028907776" r="2" style="fill: steelblue;"></circle><circle cx="78.57625856995583" cy="46.717035646239914" r="2" style="fill: steelblue;"></circle><circle cx="97.28086292743683" cy="35.3015133076244" r="2" style="fill: steelblue;"></circle><circle cx="50.803859322331846" cy="33.80279011196561" r="2" style="fill: steelblue;"></circle><circle cx="39.8725189268589" cy="44.16753929625783" r="2" style="fill: steelblue;"></circle><circle cx="5.827374011278155" cy="66.60371290312874" r="2" style="fill: steelblue;"></circle><circle cx="45.47386867925525" cy="63.82860177093082" r="2" style="fill: steelblue;"></circle><circle cx="47.13931395672262" cy="51.54608537753423" r="2" style="fill: steelblue;"></circle><circle cx="52.75513669475913" cy="47.01519091096189" r="2" style="fill: steelblue;"></circle><circle cx="56.66586076840758" cy="56.93951514032152" r="2" style="fill: steelblue;"></circle><circle cx="68.64220015704632" cy="21.992830104298065" r="2" style="fill: steelblue;"></circle><circle cx="80.90262413024902" cy="11.181678374608362" r="2" style="fill: steelblue;"></circle><circle cx="82.62165933847427" cy="49.02703124615881" r="2" style="fill: steelblue;"></circle><circle cx="53.82527499459684" cy="19.11290917131636" r="2" style="fill: steelblue;"></circle><circle cx="82.5751006603241" cy="44.11319059630235" r="2" style="fill: steelblue;"></circle><circle cx="78.67328748106956" cy="28.914548622237312" r="2" style="fill: steelblue;"></circle><circle cx="76.53436176478863" cy="15.568990839852226" r="2" style="fill: steelblue;"></circle><circle cx="71.56208455562592" cy="21.20283179812962" r="2" style="fill: steelblue;"></circle><circle cx="91.19991883635521" cy="22.333541843626236" r="2" style="fill: steelblue;"></circle><circle cx="44.10180374979973" cy="26.896666487058006" r="2" style="fill: steelblue;"></circle><circle cx="27.93262079358101" cy="33.337568408913086" r="2" style="fill: steelblue;"></circle><circle cx="38.83060645312071" cy="37.973503437307144" r="2" style="fill: steelblue;"></circle><circle cx="78.92517298460007" cy="29.63619695769416" r="2" style="fill: steelblue;"></circle><circle cx="45.698613580316305" cy="36.24594890409046" r="2" style="fill: steelblue;"></circle><circle cx="57.93696194887161" cy="36.7544518576728" r="2" style="fill: steelblue;"></circle><circle cx="94.73448544740677" cy="6.996760103437638" r="2" style="fill: steelblue;"></circle><circle cx="77.45325863361359" cy="27.741822269227768" r="2" style="fill: steelblue;"></circle><circle cx="19.457924365997318" cy="24.07083511352539" r="2" style="fill: steelblue;"></circle><circle cx="77.71980315446854" cy="37.18876772456699" r="2" style="fill: steelblue;"></circle><circle cx="88.68111968040466" cy="39.49770223763254" r="2" style="fill: steelblue;"></circle><circle cx="84.10805761814117" cy="32.170571552382576" r="2" style="fill: steelblue;"></circle><circle cx="88.72980549931526" cy="24.251715342203784" r="2" style="fill: steelblue;"></circle><circle cx="86.99582815170288" cy="27.51124832365248" r="2" style="fill: steelblue;"></circle><circle cx="30.394836515188217" cy="65.43638408184052" r="2" style="fill: steelblue;"></circle><circle cx="52.719716867432" cy="51.50588370031781" r="2" style="fill: steelblue;"></circle><circle cx="38.11027966439724" cy="76.37439105245802" r="2" style="fill: steelblue;"></circle><circle cx="17.902302742004398" cy="81.93328910403781" r="2" style="fill: steelblue;"></circle><circle cx="18.58516335487366" cy="69.40045721001096" r="2" style="fill: steelblue;"></circle><circle cx="49.591471860185266" cy="26.838080088297524" r="2" style="fill: steelblue;"></circle></g></svg>