<svg xmlns="http://www.w3.org/2000/svg"><g transform="translate(40,20)"><circle cx="393.62398624420166" cy="183.0099026672542" r="3" style="fill: steelblue;"></circle><circle cx="257.02696792781353" cy="124.46326268836856" r="3" style="fill: steelblue;"></circle><circle cx="418.94790172576904" cy="172.65454555745237" r="3" style="fill: steelblue;"></circle><circle cx="211.429093927145" cy="143.85081240907311" r="3" style="fill: steelblue;"></circle><circle cx="229.57611769437793" cy="72.60804455727339" r="3" style="fill: steelblue;"></circle><circle cx="337.9445457458496" cy="39.633044227957726" r="3" style="fill: steelblue;"></circle><circle cx="443.56539487838745" cy="39.8918978869915" r="3" style="fill: steelblue;"></circle><circle cx="357.23737120628357" cy="119.88789420574903" r="3" style="fill: steelblue;"></circle><circle cx="414.40441846847534" cy="87.59341314435005" r="3" style="fill: steelblue;"></circle><circle cx="294.48714047670364" cy="65.7129317522049" r="3" style="fill: steelblue;"></circle><circle cx="427.0844900608063" cy="72.65375759452581" r="3" style="fill: steelblue;"></circle><circle cx="289.9786913394928" cy="187.77824770659208" r="3" style="fill: steelblue;"></circle><circle cx="348.48902463912964" cy="103.22293005883694" r="3" style="fill: steelblue;"></circle><circle cx="249.88758578896523" cy="78.57298962771893" r="3" style="fill: steelblue;"></circle><circle cx="439.8680591583252" cy="195.74544923380017" r="3" style="fill: steelblue;"></circle><circle cx="243.26963094994426" cy="91.81070812046528" r="3" style="fill: steelblue;"></circle><circle cx="221.64198026061058" cy="42.66353435814381" r="3" style="fill: steelblue;"></circle><circle cx="209.26655396819115" cy="87.64769248664379" r="3" style="fill: steelblue;"></circle><circle cx="462.7983355522156" cy="78.58481556177139" r="3" style="fill: steelblue;"></circle><circle cx="200.9906002879143" cy="205.0590144470334" r="3" style="fill: steelblue;"></circle><circle cx="313.56598824262625" cy="76.59233473241329" r="3" style="fill: steelblue;"></circle><circle cx="268.81619185209274" cy="54.04701940715313" r="3" style="fill: steelblue;"></circle><circle cx="161.40826284885406" cy="83.39275531470776" r="3" style="fill: steelblue;"></circle><circle cx="397.256555557251" cy="40.13655260205269" r="3" style="fill: steelblue;"></circle><circle cx="216.0282263159752" cy="151.36248893104494" r="3" style="fill: steelblue;"></circle><circle cx="274.5750577747822" cy="124.22694284468889" r="3" style="fill: steelblue;"></circle><circle cx="267.20730006694794" cy="137.77053514495492" r="3" style="fill: steelblue;"></circle><circle cx="319.1680544614792" cy="148.6298881471157" r="3" style="fill: steelblue;"></circle><circle cx="254.12651203572753" cy="174.35092173836892" r="3" style="fill: steelblue;"></circle><circle cx="156.52662456035617" cy="230.59550877660513" r="3" style="fill: steelblue;"></circle><circle cx="190.5157068371773" cy="159.79130445048213" r="3" style="fill: steelblue;"></circle><circle cx="210.0744889676571" cy="129.46562953293324" r="3" style="fill: steelblue;"></circle><circle cx="132.20129549503326" cy="210.7436672784388" r="3" style="fill: steelblue;"></circle><circle cx="255.88317565619946" cy="181.74373807851225" r="3" style="fill: steelblue;"></circle><circle cx="253.57703357934955" cy="251.96658838540316" r="3" style="fill: steelblue;"></circle><circle cx="265.9503945708275" cy="55.30114211142063" r="3" style="fill: steelblue;"></circle><circle cx="16.90440416336061" cy="243.44579428434372" r="3" style="fill: steelblue;"></circle><circle cx="188.38135689496994" cy="184.70034953206778" r="3" style="fill: steelblue;"></circle><circle cx="254.67190012335777" cy="108.04183520376682" r="3" style="fill: steelblue;"></circle><circle cx="329.67987298965454" cy="232.74554051458836" r="3" style="fill: steelblue;"></circle><circle cx="254.92882780730724" cy="131.6043079830706" r="3" style="fill: steelblue;"></circle><circle cx="241.93026973865926" cy="141.53100941330194" r="3" style="fill: steelblue;"></circle><circle cx="128.22274804115295" cy="188.8266405556351" r="3" style="fill: steelblue;"></circle><circle cx="246.50880709290504" cy="231.28699343651533" r="3" style="fill: steelblue;"></circle><circle cx="328.1688416004181" cy="191.55290462076664" r="3" style="fill: steelblue;"></circle><circle cx="27.862229347229018" cy="158.1702469382435" r="3" style="fill: steelblue;"></circle><circle cx="219.4082947075367" cy="313.2495630532503" r="3" style="fill: steelblue;"></circle><circle cx="133.32073330879214" cy="265.3480565175414" r="3" style="fill: steelblue;"></circle><circle cx="128.61928582191467" cy="175.20708090778498" r="3" style="fill: steelblue;"></circle><circle cx="280.7435327768326" cy="225.90724304318428" r="3" style="fill: steelblue;"></circle><circle cx="288.9721745252609" cy="153.27034327201545" r="3" style="fill: steelblue;"></circle><circle cx="80.78620076179506" cy="186.5649673389271" r="3" style="fill: steelblue;"></circle><circle cx="139.38575327396393" cy="247.91338965296745" r="3" style="fill: steelblue;"></circle><circle cx="207.57632419466972" cy="188.05666891857982" r="3" style="fill: steelblue;"></circle><circle cx="80.36625623703004" cy="184.69365425407887" r="3" style="fill: steelblue;"></circle><circle cx="184.99078541994095" cy="239.3635978922248" r="3" style="fill: steelblue;"></circle><circle cx="113.90168309211732" cy="241.13815296441317" r="3" style="fill: steelblue;"></circle><circle cx="87.18391299247743" cy="235.07134448736906" r="3" style="fill: steelblue;"></circle><circle cx="160.89342176914215" cy="293.8416015356779" r="3" style="fill: steelblue;"></circle><circle cx="243.5647471435368" cy="123.42893024906516" r="3" style="fill: steelblue;"></circle><circle cx="247.978074811399" cy="159.26199448294938" r="3" style="fill: steelblue;"></circle><circle cx="155.76936542987826" cy="36.74708604812622" r="3" style="fill: steelblue;"></circle><circle cx="275.9549604356289" cy="167.9230292327702" r="3" style="fill: steelblue;"></circle><circle cx="242.90921162813902" cy="221.07840906828642" r="3" style="fill: steelblue;"></circle><circle cx="207.56728515028956" cy="45.45806646347046" r="3" style="fill: steelblue;"></circle><circle cx="283.8483998179436" cy="66.17621630430222" r="3" style="fill: steelblue;"></circle><circle cx="370.4195433855057" cy="101.57379247248173" r="3" style="fill: steelblue;"></circle><circle cx="405.2620196342468" cy="153.00396801903844" r="3" style="fill: steelblue;"></circle><circle cx="284.6832686662674" cy="38.565802574157715" r="3" style="fill: steelblue;"></circle><circle cx="240.88127749040723" cy="163.47193573601544" r="3" style="fill: steelblue;"></circle><circle cx="231.14318881183863" cy="108.55340790003538" r="3" style="fill: steelblue;"></circle><circle cx="211.17186561226845" cy="197.38879445940256" r="3" style="fill: steelblue;"></circle><circle cx="282.4332797527313" cy="98.19639958441257" r="3" style="fill: steelblue;"></circle><circle cx="276.68279349803925" cy="222.800418920815" r="3" style="fill: steelblue;"></circle><circle cx="59.67818140983583" cy="170.72067591361701" r="3" style="fill: steelblue;"></circle><circle cx="57.03250408172608" cy="112.91578244417906" r="3" style="fill: steelblue;"></circle><circle cx="277.71680295467377" cy="96.99666053056717" r="3" style="fill: steelblue;"></circle><circle cx="30.87796211242677" cy="197.7970564737916" r="3" style="fill: steelblue;"></circle><circle cx="92.87263691425325" cy="148.6821400001645" r="3" style="fill: steelblue;"></circle><circle cx="323.581405878067" cy="192.44844857603312" r="3" style="fill: steelblue;"></circle><circle cx="103.1025016307831" cy="197.94234139844775" r="3" style="fill: steelblue;"></circle><circle cx="133.50847899913788" cy="201.01353777572513" r="3" style="fill: steelblue;"></circle><circle cx="81.32536053657533" cy="257.86130148917437" r="3" style="fill: steelblue;"></circle><circle cx="237.3948759958148" cy="138.69855804368854" r="3" style="fill: steelblue;"></circle><circle cx="240.83281032275409" cy="103.17702796310186" r="3" style="fill: steelblue;"></circle><circle cx="175.6059864163399" cy="93.96544676274061" r="3" style="fill: steelblue;"></circle><circle cx="374.5206141471863" cy="176.06064885039814" r="3" style="fill: steelblue;"></circle><circle cx="377.14788258075714" cy="210.47652112320065" r="3" style="fill: steelblue;"></circle><circle cx="487.66920804977417" cy="254.57492396235466" r="3" style="fill: steelblue;"></circle><circle cx="370.17354011535645" cy="206.74506733193994" r="3" style="fill: steelblue;"></circle><circle cx="294.1396379470825" cy="192.61746034026146" r="3" style="fill: steelblue;"></circle><circle cx="356.3948714733124" cy="97.52272553741932" r="3" style="fill: steelblue;"></circle><circle cx="401.9235098361969" cy="230.2538800984621" r="3" style="fill: steelblue;"></circle><circle cx="327.6500129699707" cy="173.63569348235615" r="3" style="fill: steelblue;"></circle><circle cx="198.81196707487106" cy="193.58899276703596" r="3" style="fill: steelblue;"></circle><circle cx="176.47789657115936" cy="215.07674427703023" r="3" style="fill: steelblue;"></circle><circle cx="209.93598192930222" cy="189.94299178011715" r="3" style="fill: steelblue;"></circle><circle cx="254.6406602114439" cy="229.9967149272561" r="3" style="fill: steelblue;"></circle><circle cx="179.65816497802734" cy="237.76167929172516" r="3" style="fill: steelblue;"></circle><circle cx="59.519984722137465" cy="174.6960137214046" r="3" style="fill: steelblue;"></circle><circle cx="134.02484893798828" cy="111.72600481659174" r="3" style="fill: steelblue;"></circle><circle cx="213.76069799065593" cy="231.04921001940966" r="3" style="fill: steelblue;"></circle><circle cx="220.00464141368866" cy="170.15628215158358" r="3" style="fill: steelblue;"></circle><circle cx="23.25285315513612" cy="116.47062301635742" r="3" style="fill: steelblue;"></circle><circle cx="104.02210593223572" cy="272.4971270188689" r="3" style="fill: steelblue;"></circle><circle cx="38.18648099899293" cy="243.81125085055828" r="3" style="fill: steelblue;"></circle><circle cx="400.9222233295441" cy="245.48080675303936" r="3" style="fill: steelblue;"></circle><circle cx="438.4981298446655" cy="18.542488291859627" r="3" style="fill: steelblue;"></circle><circle cx="269.70270439982414" cy="47.75298871099949" r="3" style="fill: steelblue;"></circle><circle cx="261.4705131947994" cy="76.1780098080635" r="3" style="fill: steelblue;"></circle><circle cx="337.97462224960327" cy="17.025000602006912" r="3" style="fill: steelblue;"></circle><circle cx="336.91321849823" cy="13.085426017642021" r="3" style="fill: steelblue;"></circle><circle cx="306.6632696986199" cy="56.39302656054497" r="3" style="fill: steelblue;"></circle><circle cx="241.48806399665776" cy="291.46282859146595" r="3" style="fill: steelblue;"></circle><circle cx="246.69001433998346" cy="130.9180191718042" r="3" style="fill: steelblue;"></circle><circle cx="273.60753804445267" cy="289.4358869642019" r="3" style="fill: steelblue;"></circle><circle cx="123.75780880451202" cy="279.7966033220291" r="3" style="fill: steelblue;"></circle><circle cx="84.44603919982912" cy="186.7903429782018" r="3" style="fill: steelblue;"></circle></g></svg>