<svg xmlns="http://www.w3.org/2000/svg"><g><circle cx="31.595662236213684" cy="39.190225882662666" r="2" style="fill: steelblue;"></circle><circle cx="14.363679620954725" cy="56.4995848470264" r="2" style="fill: steelblue;"></circle><circle cx="40.241888827747765" cy="55.057170655992294" r="2" style="fill: steelblue;"></circle><circle cx="63.745063212182785" cy="60.51605873637729" r="2" style="fill: steelblue;"></circle><circle cx="31.935837533738876" cy="82.57172438833449" r="2" style="fill: steelblue;"></circle><circle cx="35.763952467176644" cy="55.74330869648192" r="2" style="fill: steelblue;"></circle><circle cx="68.01757133669322" cy="32.8565431965722" r="2" style="fill: steelblue;"></circle><circle cx="53.03449349270927" cy="64.6115220255322" r="2" style="fill: steelblue;"></circle><circle cx="52.700991017950905" cy="56.45113206572003" r="2" style="fill: steelblue;"></circle><circle cx="71.65485951635573" cy="14.829297198189629" r="2" style="fill: steelblue;"></circle><circle cx="46.242082284556496" cy="48.70864641335275" r="2" style="fill: steelblue;"></circle><circle cx="65.00382059150272" cy="36.32544411553277" r="2" style="fill: steelblue;"></circle><circle cx="37.708716260062324" cy="62.837060292561844" r="2" style="fill: steelblue;"></circle><circle cx="27.87687877813975" cy="58.76712600390117" r="2" style="fill: steelblue;"></circle><circle cx="58.19709764586555" cy="56.60897923840417" r="2" style="fill: steelblue;"></circle><circle cx="81.25459485583835" cy="89.42626847161186" r="2" style="fill: steelblue;"></circle><circle cx="15.669935279422337" cy="35.358142687214745" r="2" style="fill: steelblue;"></circle><circle cx="23.275040917926365" cy="26.95128752125634" r="2" style="fill: steelblue;"></circle><circle cx="67.37199839618471" cy="36.31631798214383" r="2" style="fill: steelblue;"></circle><circle cx="53.02427377965715" cy="29.55931193298764" r="2" style="fill: steelblue;"></circle><circle cx="71.00923524962532" cy="8.52381785710653" r="2" style="fill: steelblue;"></circle><circle cx="48.919771280553604" cy="28.99786763721043" r="2" style="fill: steelblue;"></circle><circle cx="75.28603904777103" cy="79.49830028745863" r="2" style="fill: steelblue;"></circle><circle cx="48.63507962889141" cy="63.419935769504974" r="2" style="fill: steelblue;"></circle><circle cx="80.48969341648949" cy="76.970331536399" r="2" style="fill: steelblue;"></circle><circle cx="52.92593563596407" cy="40.68834309776624" r="2" style="fill: steelblue;"></circle><circle cx="29.29172416528066" cy="63.14160194661882" r="2" style="fill: steelblue;"></circle><circle cx="53.60740112761656" cy="51.91348261303372" r="2" style="fill: steelblue;"></circle><circle cx="37.390773495038346" cy="52.22313950459163" r="2" style="fill: steelblue;"></circle><circle cx="37.64523400200738" cy="24.687024619844223" r="2" style="fill: steelblue;"></circle><circle cx="71.10769218868678" cy="42.98075408571297" r="2" style="fill: steelblue;"></circle><circle cx="62.05590193470319" cy="57.847513258457184" r="2" style="fill: steelblue;"></circle><circle cx="54.3471427841319" cy="20.08586393462287" r="2" style="fill: steelblue;"></circle><circle cx="47.0972102549341" cy="21.89172406991323" r="2" style="fill: steelblue;"></circle><circle cx="65.82923233509064" cy="42.272146128945884" r="2" style="fill: steelblue;"></circle><circle cx="32.205604844623146" cy="48.58930756648382" r="2" style="fill: steelblue;"></circle><circle cx="85.01668771107991" cy="77.0390424463484" r="2" style="fill: steelblue;"></circle><circle cx="47.32509868012534" cy="64.08095128006406" r="2" style="fill: steelblue;"></circle><circle cx="62.30985828571849" cy="73.70376851823595" r="2" style="fill: steelblue;"></circle><circle cx="70.08949418862662" cy="72.60016534063551" r="2" style="fill: steelblue;"></circle><circle cx="60.4539993736479" cy="57.439394460784065" r="2" style="fill: steelblue;"></circle><circle cx="87.81514565149942" cy="26.768180396821762" r="2" style="fill: steelblue;"></circle><circle cx="77.71196464697519" cy="46.72492332756519" r="2" style="fill: steelblue;"></circle><circle cx="59.7120796640714" cy="22.360623876253772" r="2" style="fill: steelblue;"></circle><circle cx="68.75956389639113" cy="35.13327009148068" r="2" style="fill: steelblue;"></circle><circle cx="73.16491504510245" cy="16.40899578730266" r="2" style="fill: steelblue;"></circle><circle cx="54.91847110291322" cy="17.347118258476257" r="2" style="fill: steelblue;"></circle><circle cx="33.052093452877465" cy="66.41091836823357" r="2" style="fill: steelblue;"></circle><circle cx="42.25378814670774" cy="74.0796188513438" r="2" style="fill: steelblue;"></circle><circle cx="30.072496996985542" cy="43.593848341455065" r="2" style="fill: steelblue;"></circle><circle cx="43.18209240833918" cy="88.88565434349907" r="2" style="fill: steelblue;"></circle><circle cx="62.878857884142136" cy="62.30552262730069" r="2" style="fill: steelblue;"></circle><circle cx="61.74657576613956" cy="44.72932481827835" r="2" style="fill: steelblue;"></circle><circle cx="47.38955779208077" cy="54.28858117924796" r="2" style="fill: steelblue;"></circle><circle cx="87.19507190916273" cy="44.325044932257796" r="2" style="fill: steelblue;"></circle><circle cx="53.149771359231735" cy="59.44322811232673" r="2" style="fill: steelblue;"></circle><circle cx="48.77264011237356" cy="35.041878786351944" r="2" style="fill: steelblue;"></circle><circle cx="46.21692498524983" cy="55.82879003551271" r="2" style="fill: steelblue;"></circle><circle cx="20.435727304882473" cy="47.03377307289177" r="2" style="fill: steelblue;"></circle><circle cx="27.088599072562324" cy="65.41698939270444" r="2" style="fill: steelblue;"></circle><circle cx="29.007121920585632" cy="57.98893024524053" r="2" style="fill: steelblue;"></circle><circle cx="43.47181071837743" cy="75.14139281378853" r="2" style="fill: steelblue;"></circle><circle cx="49.73295165432824" cy="88.90639013714261" r="2" style="fill: steelblue;"></circle><circle cx="39.58492643303341" cy="38.861324555344055" r="2" style="fill: steelblue;"></circle><circle cx="9.2361138926612" cy="61.68917251957787" r="2" style="fill: steelblue;"></circle><circle cx="27.194463544421726" cy="64.58453767829471" r="2" style="fill: steelblue;"></circle><circle cx="33.44919284184773" cy="60.723797480265304" r="2" style="fill: steelblue;"></circle><circle cx="26.434299018647934" cy="60.3264182806015" r="2" style="fill: steelblue;"></circle><circle cx="15.79623752170139" cy="54.295059045155845" r="2" style="fill: steelblue;"></circle><circle cx="33.11587207847172" cy="70.82346512211693" r="2" style="fill: steelblue;"></circle><circle cx="36.965638399124146" cy="68.59729952282376" r="2" style="fill: steelblue;"></circle><circle cx="82.62398176723056" cy="44.42259603238199" r="2" style="fill: steelblue;"></circle><circle cx="33.76486069626278" cy="18.911774953206383" r="2" style="fill: steelblue;"></circle><circle cx="75.4387378692627" cy="21.775749988026092" r="2" style="fill: steelblue;"></circle><circle cx="59.22915952073203" cy="37.31326527065701" r="2" style="fill: steelblue;"></circle><circle cx="45.17575270599789" cy="23.25437068939209" r="2" style="fill: steelblue;"></circle><circle cx="40.39095507727729" cy="47.150930762290955" r="2" style="fill: steelblue;"></circle><circle cx="33.36234556304084" cy="41.18783540195889" r="2" style="fill: steelblue;"></circle><circle cx="68.40822928481631" cy="16.005684269799126" r="2" style="fill: steelblue;"></circle><circle cx="55.500186999173216" cy="19.163838028907776" r="2" style="fill: steelblue;"></circle><circle cx="79.49555748038821" cy="46.717035646239914" r="2" style="fill: steelblue;"></circle><circle cx="96.43731845749748" cy="35.3015133076244" r="2" style="fill: steelblue;"></circle><circle cx="55.33575794349114" cy="33.80279011196561" r="2" style="fill: steelblue;"></circle><circle cx="46.077947649690834" cy="44.16753929625783" r="2" style="fill: steelblue;"></circle><circle cx="50.7590120865239" cy="66.60371290312874" r="2" style="fill: steelblue;"></circle><circle cx="49.60787751608425" cy="63.82860177093082" r="2" style="fill: steelblue;"></circle><circle cx="45.69012257787916" cy="51.54608537753423" r="2" style="fill: steelblue;"></circle><circle cx="36.051513420210945" cy="47.01519091096189" r="2" style="fill: steelblue;"></circle><circle cx="68.27031324307123" cy="56.93951514032152" r="2" style="fill: steelblue;"></circle><circle cx="64.93887056907019" cy="21.992830104298065" r="2" style="fill: steelblue;"></circle><circle cx="43.375669254197014" cy="11.181678374608362" r="2" style="fill: steelblue;"></circle><circle cx="62.35145404934883" cy="49.02703124615881" r="2" style="fill: steelblue;"></circle><circle cx="71.28945158587563" cy="19.11290917131636" r="2" style="fill: steelblue;"></circle><circle cx="80.83720670806038" cy="44.11319059630235" r="2" style="fill: steelblue;"></circle><circle cx="76.70609156290689" cy="28.914548622237312" r="2" style="fill: steelblue;"></circle><circle cx="47.94631236129337" cy="15.568990839852226" r="2" style="fill: steelblue;"></circle><circle cx="99.17001591788399" cy="21.20283179812962" r="2" style="fill: steelblue;"></circle><circle cx="47.34109176529778" cy="22.333541843626236" r="2" style="fill: steelblue;"></circle><circle cx="73.16702273156908" cy="26.896666487058006" r="2" style="fill: steelblue;"></circle><circle cx="23.625085751215614" cy="33.337568408913086" r="2" style="fill: steelblue;"></circle><circle cx="46.726182930999336" cy="37.973503437307144" r="2" style="fill: steelblue;"></circle><circle cx="46.671862403551735" cy="29.63619695769416" r="2" style="fill: steelblue;"></circle><circle cx="72.85980217986636" cy="36.24594890409046" r="2" style="fill: steelblue;"></circle><circle cx="77.14293400446573" cy="36.7544518576728" r="2" style="fill: steelblue;"></circle><circle cx="14.634612533781263" cy="6.996760103437638" r="2" style="fill: steelblue;"></circle><circle cx="81.22572633955214" cy="27.741822269227768" r="2" style="fill: steelblue;"></circle><circle cx="56.626880748404396" cy="24.07083511352539" r="2" style="fill: steelblue;"></circle><circle cx="63.07133535544077" cy="37.18876772456699" r="2" style="fill: steelblue;"></circle><circle cx="62.1212406290902" cy="39.49770223763254" r="2" style="fill: steelblue;"></circle><circle cx="88.03700738483005" cy="32.170571552382576" r="2" style="fill: steelblue;"></circle><circle cx="38.616965214411415" cy="24.251715342203784" r="2" style="fill: steelblue;"></circle><circle cx="57.021362913979424" cy="27.51124832365248" r="2" style="fill: steelblue;"></circle><circle cx="36.32647130224439" cy="65.43638408184052" r="2" style="fill: steelblue;"></circle><circle cx="22.663636340035332" cy="51.50588370031781" r="2" style="fill: steelblue;"></circle><circle cx="22.238916820949978" cy="76.37439105245802" r="2" style="fill: steelblue;"></circle><circle cx="28.720637162526447" cy="81.93328910403781" r="2" style="fill: steelblue;"></circle><circle cx="35.9438955783844" cy="69.40045721001096" r="2" style="fill: steelblue;"></circle><circle cx="39.82761998971303" cy="26.838080088297524" r="2" style="fill: steelblue;"></circle></g></svg>