<svg xmlns="http://www.w3.org/2000/svg"><g><circle cx="98.94772353582084" cy="189.64693281385635" r="2" style="fill: steelblue;"></circle><circle cx="90.61619490385056" cy="150.21019842889572" r="2" style="fill: steelblue;"></circle><circle cx="83.35247486829758" cy="182.26556645499335" r="2" style="fill: steelblue;"></circle><circle cx="75.95477662980556" cy="159.15728939904108" r="2" style="fill: steelblue;"></circle><circle cx="51.17654651403427" cy="154.5184420214759" r="2" style="fill: steelblue;"></circle><circle cx="93.73775161802769" cy="152.43486563364664" r="2" style="fill: steelblue;"></circle><circle cx="78.9403360337019" cy="107.88470009962717" r="2" style="fill: steelblue;"></circle><circle cx="90.86398631334305" cy="189.52781624264188" r="2" style="fill: steelblue;"></circle><circle cx="50.9207047522068" cy="86.7094380988015" r="2" style="fill: steelblue;"></circle><circle cx="94.67156175523996" cy="141.29770464367337" r="2" style="fill: steelblue;"></circle><circle cx="128.05294655263424" cy="137.10881769657135" r="2" style="fill: steelblue;"></circle><circle cx="63.84857967495918" cy="121.50108814239502" r="2" style="fill: steelblue;"></circle><circle cx="45.753678679466255" cy="57.25596348444621" r="2" style="fill: steelblue;"></circle><circle cx="36.819992959499366" cy="187.36073043611313" r="2" style="fill: steelblue;"></circle><circle cx="78.35428453981876" cy="90.64758320649464" r="2" style="fill: steelblue;"></circle><circle cx="15.457420051097875" cy="155.61590592066446" r="2" style="fill: steelblue;"></circle><circle cx="61.72225847840309" cy="161.9087689452701" r="2" style="fill: steelblue;"></circle><circle cx="101.55678915325552" cy="160.50245695643954" r="2" style="fill: steelblue;"></circle><circle cx="76.5396248549223" cy="65.64475761519537" r="2" style="fill: steelblue;"></circle><circle cx="119.61003616452217" cy="97.50138305955463" r="2" style="fill: steelblue;"></circle><circle cx="157.31531605124474" cy="118.28005231089062" r="2" style="fill: steelblue;"></circle><circle cx="137.82948479056358" cy="108.55088672704167" r="2" style="fill: steelblue;"></circle><circle cx="23.91448467969895" cy="91.85014830695258" r="2" style="fill: steelblue;"></circle><circle cx="105.68549428135157" cy="123.58466784159342" r="2" style="fill: steelblue;"></circle><circle cx="55.95899969339371" cy="181.8968388769362" r="2" style="fill: steelblue;"></circle><circle cx="68.49038079380989" cy="184.99832020865546" r="2" style="fill: steelblue;"></circle><circle cx="51.593123376369476" cy="156.10945887035794" r="2" style="fill: steelblue;"></circle><circle cx="87.3092733323574" cy="133.09863871998257" r="2" style="fill: steelblue;"></circle><circle cx="34.30024385452271" cy="134.24921366903516" r="2" style="fill: steelblue;"></circle><circle cx="69.98423151671886" cy="96.87744246588812" r="2" style="fill: steelblue;"></circle><circle cx="96.04150233790278" cy="59.40194262398612" r="2" style="fill: steelblue;"></circle><circle cx="120.66383883357048" cy="92.33189788129594" r="2" style="fill: steelblue;"></circle><circle cx="187.8291130065918" cy="56.674900982115005" r="2" style="fill: steelblue;"></circle><circle cx="84.81171578168869" cy="77.8088437186347" r="2" style="fill: steelblue;"></circle><circle cx="114.34155367314816" cy="86.70820792516072" r="2" style="fill: steelblue;"></circle><circle cx="161.39161810278893" cy="183.61033995946246" r="2" style="fill: steelblue;"></circle><circle cx="107.12508894503117" cy="166.98004139794241" r="2" style="fill: steelblue;"></circle><circle cx="170.9318146109581" cy="68.58265068795946" r="2" style="fill: steelblue;"></circle><circle cx="55.06476238369942" cy="139.8671633667416" r="2" style="fill: steelblue;"></circle><circle cx="48.552288115024574" cy="74.52261116769579" r="2" style="fill: steelblue;"></circle><circle cx="117.76115596294403" cy="130.06757199764252" r="2" style="fill: steelblue;"></circle><circle cx="59.59301292896271" cy="54.387145572238495" r="2" style="fill: steelblue;"></circle><circle cx="167.84605979919434" cy="72.14348514874776" r="2" style="fill: steelblue;"></circle><circle cx="114.46968596428633" cy="72.09060589472453" r="2" style="fill: steelblue;"></circle><circle cx="139.6399311721325" cy="90.75199067592621" r="2" style="fill: steelblue;"></circle><circle cx="154.23925817012787" cy="124.10277790493436" r="2" style="fill: steelblue;"></circle><circle cx="113.16500920802355" cy="86.85181207127042" r="2" style="fill: steelblue;"></circle><circle cx="164.6800994873047" cy="171.7739701271057" r="2" style="fill: steelblue;"></circle><circle cx="55.35234361886978" cy="186.2087978257073" r="2" style="fill: steelblue;"></circle><circle cx="18.851412832736976" cy="160.99477807680765" r="2" style="fill: steelblue;"></circle><circle cx="13.646087050437933" cy="89.719091852506" r="2" style="fill: steelblue;"></circle><circle cx="61.85311675071716" cy="125.97526278760698" r="2" style="fill: steelblue;"></circle><circle cx="114.72260616719723" cy="156.86444772614374" r="2" style="fill: steelblue;"></circle><circle cx="167.16682761907578" cy="122.78804348574744" r="2" style="fill: steelblue;"></circle><circle cx="98.39157739188522" cy="92.91843242115445" r="2" style="fill: steelblue;"></circle><circle cx="73.60613755881786" cy="133.34956930743323" r="2" style="fill: steelblue;"></circle><circle cx="77.38266736268997" cy="176.90759234958225" r="2" style="fill: steelblue;"></circle><circle cx="77.89129428565502" cy="117.3078753054142" r="2" style="fill: steelblue;"></circle><circle cx="99.30120242061093" cy="142.5992614693112" r="2" style="fill: steelblue;"></circle><circle cx="43.00885125994683" cy="137.60935763518015" r="2" style="fill: steelblue;"></circle><circle cx="68.23985502123833" cy="73.98586140738593" r="2" style="fill: steelblue;"></circle><circle cx="30.505283176898963" cy="53.04741859436035" r="2" style="fill: steelblue;"></circle><circle cx="54.93713766336441" cy="179.7645025783115" r="2" style="fill: steelblue;"></circle><circle cx="55.81643283367157" cy="197.71207703484427" r="2" style="fill: steelblue;"></circle><circle cx="17.58403182029725" cy="179.21254369947647" r="2" style="fill: steelblue;"></circle><circle cx="50.03277063369751" cy="195.51785124672782" r="2" style="fill: steelblue;"></circle><circle cx="93.96979622542858" cy="102.50826428333917" r="2" style="fill: steelblue;"></circle><circle cx="31.84227496385575" cy="144.04041237301297" r="2" style="fill: steelblue;"></circle><circle cx="68.2282879948616" cy="107.57108198271857" r="2" style="fill: steelblue;"></circle><circle cx="28.239971399307258" cy="153.22551793522305" r="2" style="fill: steelblue;"></circle><circle cx="82.53725469112396" cy="176.06814702351886" r="2" style="fill: steelblue;"></circle><circle cx="118.74427683651447" cy="60.30041641659207" r="2" style="fill: steelblue;"></circle><circle cx="140.09783267974854" cy="98.86386907762952" r="2" style="fill: steelblue;"></circle><circle cx="170.67307084798813" cy="73.87164235115051" r="2" style="fill: steelblue;"></circle><circle cx="136.76539659500122" cy="54.65043253368802" r="2" style="fill: steelblue;"></circle><circle cx="137.63842955231667" cy="124.19775790638394" r="2" style="fill: steelblue;"></circle><circle cx="183.4936797618866" cy="106.72048976023991" r="2" style="fill: steelblue;"></circle><circle cx="145.19115388393402" cy="62.36480342017279" r="2" style="fill: steelblue;"></circle><circle cx="107.65037350356579" cy="38.92539607153998" r="2" style="fill: steelblue;"></circle><circle cx="183.7881714105606" cy="162.97178798251682" r="2" style="fill: steelblue;"></circle><circle cx="160.86979433894157" cy="16.05015330844455" r="2" style="fill: steelblue;"></circle><circle cx="156.78792297840118" cy="48.853748374515106" r="2" style="fill: steelblue;"></circle><circle cx="167.61783361434937" cy="108.09868408573999" r="2" style="fill: steelblue;"></circle><circle cx="74.61306490004063" cy="69.82316904597812" r="2" style="fill: steelblue;"></circle><circle cx="68.85049156844616" cy="185.19178364011978" r="2" style="fill: steelblue;"></circle><circle cx="42.931119352579124" cy="153.2506313588884" r="2" style="fill: steelblue;"></circle><circle cx="147.7103292942047" cy="131.24686645136939" r="2" style="fill: steelblue;"></circle><circle cx="27.795581519603736" cy="64.58419892523024" r="2" style="fill: steelblue;"></circle><circle cx="46.647088974714286" cy="137.17000517580243" r="2" style="fill: steelblue;"></circle><circle cx="184.291972219944" cy="11.724869410196948" r="2" style="fill: steelblue;"></circle><circle cx="139.36095535755157" cy="41.03200965457492" r="2" style="fill: steelblue;"></circle><circle cx="141.43429920077324" cy="44.63202423519559" r="2" style="fill: steelblue;"></circle><circle cx="186.71176433563232" cy="24.660964806874585" r="2" style="fill: steelblue;"></circle><circle cx="142.52825304865837" cy="92.54357881016202" r="2" style="fill: steelblue;"></circle><circle cx="97.09592130966485" cy="82.2710394859314" r="2" style="fill: steelblue;"></circle><circle cx="153.84988710284233" cy="48.5544999440511" r="2" style="fill: steelblue;"></circle><circle cx="125.02614073455334" cy="33.939500649770096" r="2" style="fill: steelblue;"></circle><circle cx="100.06990506517468" cy="117.20537187324629" r="2" style="fill: steelblue;"></circle><circle cx="143.6788871884346" cy="161.8003315395779" r="2" style="fill: steelblue;"></circle><circle cx="36.80573999881745" cy="65.54338335990906" r="2" style="fill: steelblue;"></circle><circle cx="104.48453659191728" cy="129.69772517681122" r="2" style="fill: steelblue;"></circle><circle cx="102.59844772517681" cy="82.9673707485199" r="2" style="fill: steelblue;"></circle><circle cx="113.08152079582214" cy="73.17587402131822" r="2" style="fill: steelblue;"></circle><circle cx="133.7059497833252" cy="89.93602130148146" r="2" style="fill: steelblue;"></circle><circle cx="172.86541908979416" cy="86.0108368926578" r="2" style="fill: steelblue;"></circle><circle cx="182.99123495817184" cy="75.43547948201497" r="2" style="fill: steelblue;"></circle><circle cx="126.16569399833679" cy="69.66552800602383" r="2" style="fill: steelblue;"></circle><circle cx="117.25945435464382" cy="117.27254341046014" r="2" style="fill: steelblue;"></circle><circle cx="63.67274224758148" cy="75.17330514060126" r="2" style="fill: steelblue;"></circle><circle cx="167.7509754896164" cy="66.85765584309895" r="2" style="fill: steelblue;"></circle><circle cx="108.47180746495724" cy="76.55754685401917" r="2" style="fill: steelblue;"></circle><circle cx="128.0014630407095" cy="131.67632619539896" r="2" style="fill: steelblue;"></circle><circle cx="144.0647378563881" cy="131.69049223264057" r="2" style="fill: steelblue;"></circle><circle cx="45.41104882955552" cy="90.96100926399231" r="2" style="fill: steelblue;"></circle><circle cx="72.70011715590954" cy="138.35177322228748" r="2" style="fill: steelblue;"></circle><circle cx="41.51554629206658" cy="166.29312104649014" r="2" style="fill: steelblue;"></circle><circle cx="64.03785794973373" cy="125.29161903593274" r="2" style="fill: steelblue;"></circle><circle cx="88.07895462960005" cy="96.65715363290575" r="2" style="fill: steelblue;"></circle></g></svg>