<svg xmlns="http://www.w3.org/2000/svg"><g><circle cx="13.737164603339302" cy="59.86006483435631" r="2" style="fill: steelblue;"></circle><circle cx="29.041718443234764" cy="78.86252291500568" r="2" style="fill: steelblue;"></circle><circle cx="26.864398850335018" cy="58.589296601712704" r="2" style="fill: steelblue;"></circle><circle cx="15.097528033786354" cy="58.065623231232166" r="2" style="fill: steelblue;"></circle><circle cx="55.52596118715074" cy="68.62309128046036" r="2" style="fill: steelblue;"></circle><circle cx="34.3084196249644" cy="47.70366819575429" r="2" style="fill: steelblue;"></circle><circle cx="57.842624021901024" cy="26.151997223496437" r="2" style="fill: steelblue;"></circle><circle cx="24.0946587589052" cy="33.89940708875656" r="2" style="fill: steelblue;"></circle><circle cx="32.875373297267494" cy="36.97670828551054" r="2" style="fill: steelblue;"></circle><circle cx="39.135338697168564" cy="60.77567599713802" r="2" style="fill: steelblue;"></circle><circle cx="35.422394838598045" cy="56.47036638110876" r="2" style="fill: steelblue;"></circle><circle cx="28.792643878195022" cy="70.3578844666481" r="2" style="fill: steelblue;"></circle><circle cx="19.919401407241825" cy="37.004770897328854" r="2" style="fill: steelblue;"></circle><circle cx="30.382942159970604" cy="33.450936153531075" r="2" style="fill: steelblue;"></circle><circle cx="20.75157662232717" cy="78.70569564402103" r="2" style="fill: steelblue;"></circle><circle cx="6.579729583528309" cy="77.52754837274551" r="2" style="fill: steelblue;"></circle><circle cx="51.499328845077095" cy="47.96874122694135" r="2" style="fill: steelblue;"></circle><circle cx="69.66452731026543" cy="24.68847595155239" r="2" style="fill: steelblue;"></circle><circle cx="50.58373651570744" cy="57.66137335449457" r="2" style="fill: steelblue;"></circle><circle cx="31.64910458856159" cy="48.163318959996104" r="2" style="fill: steelblue;"></circle><circle cx="26.380347874429493" cy="54.18608309701085" r="2" style="fill: steelblue;"></circle><circle cx="74.84930687480504" cy="32.19178058207035" r="2" style="fill: steelblue;"></circle><circle cx="48.12241320808729" cy="25.75482353568077" r="2" style="fill: steelblue;"></circle><circle cx="23.676931195788914" cy="85.88198870420456" r="2" style="fill: steelblue;"></circle><circle cx="22.672296563784283" cy="74.24034848809242" r="2" style="fill: steelblue;"></circle><circle cx="20.878613988558453" cy="80.77212907373905" r="2" style="fill: steelblue;"></circle><circle cx="8.281124300426908" cy="54.653267562389374" r="2" style="fill: steelblue;"></circle><circle cx="67.19178722964394" cy="78.05675007402897" r="2" style="fill: steelblue;"></circle><circle cx="25.646010372373794" cy="65.516746789217" r="2" style="fill: steelblue;"></circle><circle cx="44.835993280220364" cy="18.503914773464203" r="2" style="fill: steelblue;"></circle><circle cx="81.35532273186577" cy="58.00041947513819" r="2" style="fill: steelblue;"></circle><circle cx="62.42644555038876" cy="42.053830064833164" r="2" style="fill: steelblue;"></circle><circle cx="75.21400451660156" cy="31.762899085879326" r="2" style="fill: steelblue;"></circle><circle cx="67.26404461595747" cy="44.648938067257404" r="2" style="fill: steelblue;"></circle><circle cx="71.00077072779337" cy="20.654765143990517" r="2" style="fill: steelblue;"></circle><circle cx="25.631410545772976" cy="65.17160050570965" r="2" style="fill: steelblue;"></circle><circle cx="37.38642086585363" cy="47.936663683503866" r="2" style="fill: steelblue;"></circle><circle cx="29.28127282195621" cy="99.69752579927444" r="2" style="fill: steelblue;"></circle><circle cx="42.96136808892091" cy="86.12631186842918" r="2" style="fill: steelblue;"></circle><circle cx="28.833711478445267" cy="68.9944114536047" r="2" style="fill: steelblue;"></circle><circle cx="8.285637696584068" cy="92.74187609553337" r="2" style="fill: steelblue;"></circle><circle cx="53.45311197969649" cy="28.077640756964684" r="2" style="fill: steelblue;"></circle><circle cx="66.46268169085184" cy="22.492652013897896" r="2" style="fill: steelblue;"></circle><circle cx="54.63364240196016" cy="49.61322668241337" r="2" style="fill: steelblue;"></circle><circle cx="59.4670765929752" cy="41.681226529181004" r="2" style="fill: steelblue;"></circle><circle cx="73.07959198951721" cy="39.297859370708466" r="2" style="fill: steelblue;"></circle><circle cx="53.71417701244354" cy="36.54762376099825" r="2" style="fill: steelblue;"></circle><circle cx="16.81542495886485" cy="94.88405957818031" r="2" style="fill: steelblue;"></circle><circle cx="15.320482518937856" cy="44.33088768273592" r="2" style="fill: steelblue;"></circle><circle cx="46.475014711419746" cy="55.079466849565506" r="2" style="fill: steelblue;"></circle><circle cx="44.87283358143436" cy="49.663475435227156" r="2" style="fill: steelblue;"></circle><circle cx="65.94526204797957" cy="39.29260857403278" r="2" style="fill: steelblue;"></circle><circle cx="21.778072913487755" cy="72.77072332799435" r="2" style="fill: steelblue;"></circle><circle cx="46.98230818741852" cy="79.44820374250412" r="2" style="fill: steelblue;"></circle><circle cx="30.326337615648907" cy="63.743394054472446" r="2" style="fill: steelblue;"></circle><circle cx="45.88091400348478" cy="98.34695905447006" r="2" style="fill: steelblue;"></circle><circle cx="34.9544561571545" cy="62.07443047314882" r="2" style="fill: steelblue;"></circle><circle cx="27.62181493971083" cy="55.40652172639966" r="2" style="fill: steelblue;"></circle><circle cx="58.7575313117769" cy="47.11618130095303" r="2" style="fill: steelblue;"></circle><circle cx="61.95719970597161" cy="43.44708537682891" r="2" style="fill: steelblue;"></circle><circle cx="18.45433248413934" cy="61.86748314648867" r="2" style="fill: steelblue;"></circle><circle cx="48.7930436929067" cy="50.97765342798084" r="2" style="fill: steelblue;"></circle><circle cx="43.317759885556164" cy="77.12914906442165" r="2" style="fill: steelblue;"></circle><circle cx="7.543016804589168" cy="97.67845571041107" r="2" style="fill: steelblue;"></circle><circle cx="12.72809108098348" cy="89.05237093567848" r="2" style="fill: steelblue;"></circle><circle cx="3.200063440534806" cy="70.07528580725193" r="2" style="fill: steelblue;"></circle><circle cx="31.255784299638538" cy="96.03442922234535" r="2" style="fill: steelblue;"></circle><circle cx="9.50237380133735" cy="88.22240233421326" r="2" style="fill: steelblue;"></circle><circle cx="26.449732648001778" cy="53.8165885489434" r="2" style="fill: steelblue;"></circle><circle cx="55.61422738764021" cy="82.7371209859848" r="2" style="fill: steelblue;"></circle><circle cx="45.757033820781444" cy="26.406123489141464" r="2" style="fill: steelblue;"></circle><circle cx="71.54196931256187" cy="3.1677402555942535" r="2" style="fill: steelblue;"></circle><circle cx="28.474058707555137" cy="6.8762704730033875" r="2" style="fill: steelblue;"></circle><circle cx="38.4237022863494" cy="45.65636832267046" r="2" style="fill: steelblue;"></circle><circle cx="57.008596923616196" cy="16.094180941581726" r="2" style="fill: steelblue;"></circle><circle cx="82.15787609418234" cy="73.31787534058094" r="2" style="fill: steelblue;"></circle><circle cx="40.982234146859916" cy="18.80715899169445" r="2" style="fill: steelblue;"></circle><circle cx="73.24639227655199" cy="26.528679952025414" r="2" style="fill: steelblue;"></circle><circle cx="80.19097248713175" cy="35.542986541986465" r="2" style="fill: steelblue;"></circle><circle cx="83.10323887401157" cy="12.436378002166748" r="2" style="fill: steelblue;"></circle><circle cx="64.46915136443245" cy="58.30340292304754" r="2" style="fill: steelblue;"></circle><circle cx="69.75037952264151" cy="17.10338070988655" r="2" style="fill: steelblue;"></circle><circle cx="24.60028992758857" cy="72.73881994187832" r="2" style="fill: steelblue;"></circle><circle cx="47.98711728718546" cy="82.68200904130936" r="2" style="fill: steelblue;"></circle><circle cx="32.66705258025064" cy="54.9699442461133" r="2" style="fill: steelblue;"></circle><circle cx="68.08293792936537" cy="53.445679089054465" r="2" style="fill: steelblue;"></circle><circle cx="49.86593764689234" cy="37.100633792579174" r="2" style="fill: steelblue;"></circle><circle cx="26.2378066778183" cy="45.49480667337775" r="2" style="fill: steelblue;"></circle><circle cx="67.58792135450575" cy="41.186121478676796" r="2" style="fill: steelblue;"></circle><circle cx="43.62965603876445" cy="34.93143916130066" r="2" style="fill: steelblue;"></circle><circle cx="57.37438152233759" cy="40.88608007878065" r="2" style="fill: steelblue;"></circle><circle cx="56.757728424337174" cy="47.24749103188515" r="2" style="fill: steelblue;"></circle><circle cx="38.104916777875694" cy="28.19722816348076" r="2" style="fill: steelblue;"></circle><circle cx="57.06866433223089" cy="22.565429285168648" r="2" style="fill: steelblue;"></circle><circle cx="80.4056617948744" cy="21.039844676852226" r="2" style="fill: steelblue;"></circle><circle cx="66.7724503411187" cy="27.26386971771717" r="2" style="fill: steelblue;"></circle><circle cx="61.34249700440301" cy="21.5142622590065" r="2" style="fill: steelblue;"></circle><circle cx="25.821133785777622" cy="85.20764783024788" r="2" style="fill: steelblue;"></circle><circle cx="84.29558012220595" cy="83.37396681308746" r="2" style="fill: steelblue;"></circle><circle cx="89.65766694810655" cy="10.204534232616425" r="2" style="fill: steelblue;"></circle><circle cx="45.960660775502525" cy="9.876447916030884" r="2" style="fill: steelblue;"></circle><circle cx="68.03924275769127" cy="34.92089472711086" r="2" style="fill: steelblue;"></circle><circle cx="27.27115915881263" cy="53.3846590667963" r="2" style="fill: steelblue;"></circle><circle cx="90.05447824796042" cy="87.76995092630386" r="2" style="fill: steelblue;"></circle><circle cx="59.6111708217197" cy="22.489958629012108" r="2" style="fill: steelblue;"></circle><circle cx="59.63537361886766" cy="71.03707939386368" r="2" style="fill: steelblue;"></circle><circle cx="52.91566103696823" cy="49.91266435245052" r="2" style="fill: steelblue;"></circle><circle cx="40.52349651853244" cy="44.116044603288174" r="2" style="fill: steelblue;"></circle><circle cx="75.11585884624057" cy="59.11150500178337" r="2" style="fill: steelblue;"></circle><circle cx="89.44436179267036" cy="27.524109184741974" r="2" style="fill: steelblue;"></circle><circle cx="73.80035453372533" cy="44.537053629755974" r="2" style="fill: steelblue;"></circle><circle cx="48.128245770931244" cy="14.602328836917877" r="2" style="fill: steelblue;"></circle><circle cx="31.189869013097553" cy="66.19577407836914" r="2" style="fill: steelblue;"></circle><circle cx="60.54869890213013" cy="62.023947201669216" r="2" style="fill: steelblue;"></circle><circle cx="66.02105597654977" cy="67.86001399159431" r="2" style="fill: steelblue;"></circle><circle cx="25.289466977119446" cy="96.81795462965965" r="2" style="fill: steelblue;"></circle><circle cx="27.08434330092536" cy="69.37710680067539" r="2" style="fill: steelblue;"></circle><circle cx="46.659263844291374" cy="69.06872726976871" r="2" style="fill: steelblue;"></circle></g></svg>