<svg xmlns="http://www.w3.org/2000/svg"><g><circle cx="9.551650285720829" cy="86.26283539666069" r="2" style="fill: steelblue;"></circle><circle cx="30.292487144470215" cy="70.95828155676523" r="2" style="fill: steelblue;"></circle><circle cx="20.37424445152283" cy="73.13560114966498" r="2" style="fill: steelblue;"></circle><circle cx="26.312598917219375" cy="84.90247196621364" r="2" style="fill: steelblue;"></circle><circle cx="37.93453648686409" cy="44.47403881284926" r="2" style="fill: steelblue;"></circle><circle cx="32.216228710280525" cy="65.6915803750356" r="2" style="fill: steelblue;"></circle><circle cx="41.43517936269443" cy="42.157375978098976" r="2" style="fill: steelblue;"></circle><circle cx="31.277392639054195" cy="75.9053412410948" r="2" style="fill: steelblue;"></circle><circle cx="42.46178575687939" cy="67.12462670273251" r="2" style="fill: steelblue;"></circle><circle cx="34.57619597514471" cy="60.864661302831436" r="2" style="fill: steelblue;"></circle><circle cx="13.418544663323297" cy="64.57760516140196" r="2" style="fill: steelblue;"></circle><circle cx="48.176945663160744" cy="71.20735612180498" r="2" style="fill: steelblue;"></circle><circle cx="11.443498399522571" cy="80.08059859275818" r="2" style="fill: steelblue;"></circle><circle cx="43.21950514697367" cy="69.61705784002939" r="2" style="fill: steelblue;"></circle><circle cx="24.80509148703681" cy="79.24842337767282" r="2" style="fill: steelblue;"></circle><circle cx="6.511776977115209" cy="93.4202704164717" r="2" style="fill: steelblue;"></circle><circle cx="59.3290239572525" cy="48.500671154922905" r="2" style="fill: steelblue;"></circle><circle cx="48.78741436534458" cy="30.335472689734566" r="2" style="fill: steelblue;"></circle><circle cx="40.49409901102384" cy="49.41626348429256" r="2" style="fill: steelblue;"></circle><circle cx="53.81690230634477" cy="68.35089541143842" r="2" style="fill: steelblue;"></circle><circle cx="49.483310182889305" cy="73.61965212557051" r="2" style="fill: steelblue;"></circle><circle cx="48.05769042836295" cy="25.150693125194966" r="2" style="fill: steelblue;"></circle><circle cx="58.67902868323856" cy="51.87758679191271" r="2" style="fill: steelblue;"></circle><circle cx="39.162181897295845" cy="76.32306880421109" r="2" style="fill: steelblue;"></circle><circle cx="22.390903035799663" cy="77.32770343621571" r="2" style="fill: steelblue;"></circle><circle cx="27.92863150437673" cy="79.12138601144154" r="2" style="fill: steelblue;"></circle><circle cx="4.849774307674834" cy="91.71887569957309" r="2" style="fill: steelblue;"></circle><circle cx="9.989585479100548" cy="32.80821277035607" r="2" style="fill: steelblue;"></circle><circle cx="33.62679663631651" cy="74.3539896276262" r="2" style="fill: steelblue;"></circle><circle cx="60.65056158436669" cy="55.164006719779636" r="2" style="fill: steelblue;"></circle><circle cx="52.79621415668064" cy="18.644677268134224" r="2" style="fill: steelblue;"></circle><circle cx="77.23644971847534" cy="37.57355444961124" r="2" style="fill: steelblue;"></circle><circle cx="47.55098016725646" cy="24.785995483398438" r="2" style="fill: steelblue;"></circle><circle cx="51.628559993373024" cy="32.735955384042526" r="2" style="fill: steelblue;"></circle><circle cx="45.51050487077898" cy="28.999229272206627" r="2" style="fill: steelblue;"></circle><circle cx="75.55647293726602" cy="74.36858945422702" r="2" style="fill: steelblue;"></circle><circle cx="42.26348855429226" cy="62.61357913414637" r="2" style="fill: steelblue;"></circle><circle cx="15.73295659489102" cy="70.71872717804379" r="2" style="fill: steelblue;"></circle><circle cx="24.56533345911238" cy="57.03863191107909" r="2" style="fill: steelblue;"></circle><circle cx="44.51480437742753" cy="71.16628852155473" r="2" style="fill: steelblue;"></circle><circle cx="15.59417380226983" cy="91.71436230341592" r="2" style="fill: steelblue;"></circle><circle cx="10.353481769561771" cy="46.54688802030351" r="2" style="fill: steelblue;"></circle><circle cx="42.68809114065436" cy="33.537318309148155" r="2" style="fill: steelblue;"></circle><circle cx="83.57348309622871" cy="45.36635759803984" r="2" style="fill: steelblue;"></circle><circle cx="42.633526399731636" cy="40.5329234070248" r="2" style="fill: steelblue;"></circle><circle cx="42.4499480260743" cy="26.920408010482788" r="2" style="fill: steelblue;"></circle><circle cx="32.4860895673434" cy="46.28582298755646" r="2" style="fill: steelblue;"></circle><circle cx="13.534631331761679" cy="83.18457504113515" r="2" style="fill: steelblue;"></circle><circle cx="52.73136927021874" cy="84.67951748106215" r="2" style="fill: steelblue;"></circle><circle cx="8.663229809867014" cy="53.524985288580254" r="2" style="fill: steelblue;"></circle><circle cx="55.01484390762117" cy="55.12716641856564" r="2" style="fill: steelblue;"></circle><circle cx="36.52558906210794" cy="34.05473795202043" r="2" style="fill: steelblue;"></circle><circle cx="39.4878823724058" cy="78.22192708651224" r="2" style="fill: steelblue;"></circle><circle cx="60.05586451954312" cy="53.01769181258149" r="2" style="fill: steelblue;"></circle><circle cx="29.017858372794258" cy="69.67366238435109" r="2" style="fill: steelblue;"></circle><circle cx="26.61798662609524" cy="54.119085996515224" r="2" style="fill: steelblue;"></circle><circle cx="60.40930847326914" cy="65.04554384284549" r="2" style="fill: steelblue;"></circle><circle cx="29.120091928376095" cy="72.37818506028917" r="2" style="fill: steelblue;"></circle><circle cx="47.32479461365276" cy="41.2424686882231" r="2" style="fill: steelblue;"></circle><circle cx="38.72607168224123" cy="38.04280029402839" r="2" style="fill: steelblue;"></circle><circle cx="42.13376463287407" cy="81.54566751586067" r="2" style="fill: steelblue;"></circle><circle cx="41.99800284372436" cy="51.2069563070933" r="2" style="fill: steelblue;"></circle><circle cx="3.328551186455623" cy="56.68224011444383" r="2" style="fill: steelblue;"></circle><circle cx="6.634026103549536" cy="92.45698319541084" r="2" style="fill: steelblue;"></circle><circle cx="13.387676080067953" cy="87.27190891901651" r="2" style="fill: steelblue;"></circle><circle cx="33.49032435152266" cy="96.7999365594652" r="2" style="fill: steelblue;"></circle><circle cx="15.77476263046265" cy="68.74421570036147" r="2" style="fill: steelblue;"></circle><circle cx="45.620923820469116" cy="90.49762619866264" r="2" style="fill: steelblue;"></circle><circle cx="6.316396262910633" cy="73.55026735199822" r="2" style="fill: steelblue;"></circle><circle cx="7.322383589214751" cy="44.38577261235979" r="2" style="fill: steelblue;"></circle><circle cx="34.158193568388626" cy="54.242966179218556" r="2" style="fill: steelblue;"></circle><circle cx="51.419990095827316" cy="28.458030687438118" r="2" style="fill: steelblue;"></circle><circle cx="72.29337029986912" cy="71.52594129244486" r="2" style="fill: steelblue;"></circle><circle cx="63.637830482588875" cy="61.5762977136506" r="2" style="fill: steelblue;"></circle><circle cx="64.12178377310434" cy="42.991403076383804" r="2" style="fill: steelblue;"></circle><circle cx="45.08203382914265" cy="17.842123905817665" r="2" style="fill: steelblue;"></circle><circle cx="15.830370452668935" cy="59.01776585314009" r="2" style="fill: steelblue;"></circle><circle cx="68.41052836842007" cy="26.753607723448013" r="2" style="fill: steelblue;"></circle><circle cx="55.806379516919456" cy="19.809027512868248" r="2" style="fill: steelblue;"></circle><circle cx="49.29017292128669" cy="16.896761125988434" r="2" style="fill: steelblue;"></circle><circle cx="87.90975411732992" cy="35.53084863556756" r="2" style="fill: steelblue;"></circle><circle cx="82.53270983695984" cy="30.249620477358498" r="2" style="fill: steelblue;"></circle><circle cx="77.15826498137581" cy="75.39971007241142" r="2" style="fill: steelblue;"></circle><circle cx="35.895901587274345" cy="52.012882712814545" r="2" style="fill: steelblue;"></circle><circle cx="37.70015239715576" cy="67.33294741974936" r="2" style="fill: steelblue;"></circle><circle cx="45.7836098348101" cy="31.91706207063463" r="2" style="fill: steelblue;"></circle><circle cx="49.30465560820368" cy="50.134062353107666" r="2" style="fill: steelblue;"></circle><circle cx="22.037430935435825" cy="73.7621933221817" r="2" style="fill: steelblue;"></circle><circle cx="19.556140899658207" cy="32.41207864549425" r="2" style="fill: steelblue;"></circle><circle cx="74.87125462955899" cy="56.37034396123555" r="2" style="fill: steelblue;"></circle><circle cx="28.951629334025913" cy="42.62561847766241" r="2" style="fill: steelblue;"></circle><circle cx="51.266235775417755" cy="43.242271575662826" r="2" style="fill: steelblue;"></circle><circle cx="90.66080980830722" cy="61.89508322212431" r="2" style="fill: steelblue;"></circle><circle cx="44.18706266312963" cy="42.93133566776911" r="2" style="fill: steelblue;"></circle><circle cx="52.653504080242584" cy="19.594338205125595" r="2" style="fill: steelblue;"></circle><circle cx="77.93998983171251" cy="33.227549658881294" r="2" style="fill: steelblue;"></circle><circle cx="83.7128354443444" cy="38.65750299559699" r="2" style="fill: steelblue;"></circle><circle cx="46.223409639464485" cy="74.17886621422238" r="2" style="fill: steelblue;"></circle><circle cx="23.513023389710323" cy="15.704419877794052" r="2" style="fill: steelblue;"></circle><circle cx="40.32892253663805" cy="10.342333051893448" r="2" style="fill: steelblue;"></circle><circle cx="70.11005216174657" cy="54.039339224497475" r="2" style="fill: steelblue;"></circle><circle cx="64.69843056466844" cy="31.960757242308723" r="2" style="fill: steelblue;"></circle><circle cx="77.82220774226718" cy="72.72884084118736" r="2" style="fill: steelblue;"></circle><circle cx="73.07728396521675" cy="9.945521752039587" r="2" style="fill: steelblue;"></circle><circle cx="72.14740845892165" cy="40.3888291782803" r="2" style="fill: steelblue;"></circle><circle cx="59.223788645532395" cy="40.36462638113234" r="2" style="fill: steelblue;"></circle><circle cx="46.68442859417862" cy="47.08433896303177" r="2" style="fill: steelblue;"></circle><circle cx="64.74488079547882" cy="59.47650348146756" r="2" style="fill: steelblue;"></circle><circle cx="46.310872212052345" cy="24.88414115375943" r="2" style="fill: steelblue;"></circle><circle cx="57.80081467496024" cy="10.555638207329643" r="2" style="fill: steelblue;"></circle><circle cx="55.47685192690955" cy="26.199645466274678" r="2" style="fill: steelblue;"></circle><circle cx="69.4723453786638" cy="51.871754229068756" r="2" style="fill: steelblue;"></circle><circle cx="39.12132870819834" cy="68.81013098690245" r="2" style="fill: steelblue;"></circle><circle cx="20.009084873729282" cy="39.45130109786987" r="2" style="fill: steelblue;"></circle><circle cx="41.28050655126572" cy="33.97894402345022" r="2" style="fill: steelblue;"></circle><circle cx="56.11084500948588" cy="74.71053302288055" r="2" style="fill: steelblue;"></circle><circle cx="53.12540812624825" cy="72.91565669907463" r="2" style="fill: steelblue;"></circle><circle cx="19.53782571686639" cy="53.340736155708626" r="2" style="fill: steelblue;"></circle></g></svg>