<svg xmlns="http://www.w3.org/2000/svg"><g><circle cx="28.91058921813965" cy="155.92598915100098" r="2" style="fill: steelblue;"></circle><circle cx="101.58841367810965" cy="119.3179339170456" r="2" style="fill: steelblue;"></circle><circle cx="66.54091477394104" cy="122.68364280462265" r="2" style="fill: steelblue;"></circle><circle cx="36.38458251953125" cy="108.0680176615715" r="2" style="fill: steelblue;"></circle><circle cx="69.68985497951508" cy="117.66193509101868" r="2" style="fill: steelblue;"></circle><circle cx="126.5272706747055" cy="152.7088761329651" r="2" style="fill: steelblue;"></circle><circle cx="49.92119073867798" cy="72.6104736328125" r="2" style="fill: steelblue;"></circle><circle cx="121.02123349905014" cy="87.31953054666519" r="2" style="fill: steelblue;"></circle><circle cx="68.02442967891693" cy="111.71504482626915" r="2" style="fill: steelblue;"></circle><circle cx="74.26957190036774" cy="90.76889157295227" r="2" style="fill: steelblue;"></circle><circle cx="117.13352054357529" cy="155.91315031051636" r="2" style="fill: steelblue;"></circle><circle cx="81.67096227407455" cy="129.64744865894318" r="2" style="fill: steelblue;"></circle><circle cx="102.20397189259529" cy="182.48198628425598" r="2" style="fill: steelblue;"></circle><circle cx="66.6130393743515" cy="124.31854605674744" r="2" style="fill: steelblue;"></circle><circle cx="84.12346541881561" cy="86.01554930210114" r="2" style="fill: steelblue;"></circle><circle cx="27.480047941207886" cy="147.68075942993164" r="2" style="fill: steelblue;"></circle><circle cx="88.56203556060791" cy="144.05303597450256" r="2" style="fill: steelblue;"></circle><circle cx="60.41390895843506" cy="115.78103452920914" r="2" style="fill: steelblue;"></circle><circle cx="128.28345000743866" cy="63.07042837142944" r="2" style="fill: steelblue;"></circle><circle cx="144.62479054927826" cy="81.5037488937378" r="2" style="fill: steelblue;"></circle><circle cx="132.33676254749298" cy="83.7508425116539" r="2" style="fill: steelblue;"></circle><circle cx="64.06045854091644" cy="78.08136194944382" r="2" style="fill: steelblue;"></circle><circle cx="75.9110376238823" cy="110.798729211092" r="2" style="fill: steelblue;"></circle><circle cx="77.74248123168945" cy="107.10764154791832" r="2" style="fill: steelblue;"></circle><circle cx="33.626264333724976" cy="86.50822341442108" r="2" style="fill: steelblue;"></circle><circle cx="111.58447191119194" cy="143.03799867630005" r="2" style="fill: steelblue;"></circle><circle cx="66.37943089008331" cy="140.45116007328033" r="2" style="fill: steelblue;"></circle><circle cx="97.27650452405214" cy="155.8569371700287" r="2" style="fill: steelblue;"></circle><circle cx="36.0834002494812" cy="85.8555555343628" r="2" style="fill: steelblue;"></circle><circle cx="131.34514093399048" cy="100.45546274632215" r="2" style="fill: steelblue;"></circle><circle cx="121.68131023645401" cy="18.585586547851562" r="2" style="fill: steelblue;"></circle><circle cx="144.9506014585495" cy="19.94186043739319" r="2" style="fill: steelblue;"></circle><circle cx="146.13297581672668" cy="82.3040634393692" r="2" style="fill: steelblue;"></circle><circle cx="96.83895707130432" cy="88.52421417832375" r="2" style="fill: steelblue;"></circle><circle cx="112.02580779790878" cy="82.43581354618073" r="2" style="fill: steelblue;"></circle><circle cx="116.18928015232086" cy="111.09533831477165" r="2" style="fill: steelblue;"></circle><circle cx="81.7954272031784" cy="139.97963964939117" r="2" style="fill: steelblue;"></circle><circle cx="85.4816123843193" cy="129.78314459323883" r="2" style="fill: steelblue;"></circle><circle cx="52.53269970417023" cy="124.10471439361572" r="2" style="fill: steelblue;"></circle><circle cx="94.97269615530968" cy="136.0638678073883" r="2" style="fill: steelblue;"></circle><circle cx="144.90668773651123" cy="125.26279985904694" r="2" style="fill: steelblue;"></circle><circle cx="150.79271793365479" cy="89.28976953029633" r="2" style="fill: steelblue;"></circle><circle cx="112.17628940939903" cy="66.62204563617706" r="2" style="fill: steelblue;"></circle><circle cx="136.73474788665771" cy="113.33245187997818" r="2" style="fill: steelblue;"></circle><circle cx="111.48023083806038" cy="93.68743374943733" r="2" style="fill: steelblue;"></circle><circle cx="151.00884437561035" cy="141.3397639989853" r="2" style="fill: steelblue;"></circle><circle cx="63.324037194252014" cy="69.62160766124725" r="2" style="fill: steelblue;"></circle><circle cx="38.29025626182556" cy="134.4730108976364" r="2" style="fill: steelblue;"></circle><circle cx="49.41364526748657" cy="145.15734314918518" r="2" style="fill: steelblue;"></circle><circle cx="41.10769033432007" cy="125.6983608007431" r="2" style="fill: steelblue;"></circle><circle cx="108.80816206336021" cy="131.04012310504913" r="2" style="fill: steelblue;"></circle><circle cx="39.96747136116028" cy="75.74114054441452" r="2" style="fill: steelblue;"></circle><circle cx="75.75927525758743" cy="85.66936254501343" r="2" style="fill: steelblue;"></circle><circle cx="90.20992070436478" cy="98.63613061606884" r="2" style="fill: steelblue;"></circle><circle cx="115.87333381175995" cy="115.88403135538101" r="2" style="fill: steelblue;"></circle><circle cx="64.69049751758575" cy="125.69619417190552" r="2" style="fill: steelblue;"></circle><circle cx="108.43155980110168" cy="128.36166620254517" r="2" style="fill: steelblue;"></circle><circle cx="73.86334538459778" cy="111.60429641604424" r="2" style="fill: steelblue;"></circle><circle cx="132.46310949325562" cy="135.46249270439148" r="2" style="fill: steelblue;"></circle><circle cx="76.34941786527634" cy="140.1703178882599" r="2" style="fill: steelblue;"></circle><circle cx="39.29089307785034" cy="158.7792694568634" r="2" style="fill: steelblue;"></circle><circle cx="51.58804953098297" cy="109.47982296347618" r="2" style="fill: steelblue;"></circle><circle cx="9.219318628311157" cy="153.50245237350464" r="2" style="fill: steelblue;"></circle><circle cx="15.077835321426392" cy="108.58712568879128" r="2" style="fill: steelblue;"></circle><circle cx="76.33380889892578" cy="126.10876560211182" r="2" style="fill: steelblue;"></circle><circle cx="49.94340538978577" cy="164.29778337478638" r="2" style="fill: steelblue;"></circle><circle cx="47.83517122268677" cy="96.80452384054661" r="2" style="fill: steelblue;"></circle><circle cx="120.900359749794" cy="104.55095618963242" r="2" style="fill: steelblue;"></circle><circle cx="34.782665967941284" cy="147.56902158260345" r="2" style="fill: steelblue;"></circle><circle cx="95.1558742672205" cy="161.2219214439392" r="2" style="fill: steelblue;"></circle><circle cx="29.28681969642639" cy="53.94520163536072" r="2" style="fill: steelblue;"></circle><circle cx="128.7827342748642" cy="35.18820405006409" r="2" style="fill: steelblue;"></circle><circle cx="122.23695069551468" cy="74.84897375106812" r="2" style="fill: steelblue;"></circle><circle cx="154.05619740486145" cy="144.72602009773254" r="2" style="fill: steelblue;"></circle><circle cx="106.11711777746677" cy="109.35337916016579" r="2" style="fill: steelblue;"></circle><circle cx="91.79366305470467" cy="112.8358706831932" r="2" style="fill: steelblue;"></circle><circle cx="145.7523226737976" cy="117.03604757785797" r="2" style="fill: steelblue;"></circle><circle cx="107.55355060100555" cy="81.82727843523026" r="2" style="fill: steelblue;"></circle><circle cx="95.93744613230228" cy="63.03649544715881" r="2" style="fill: steelblue;"></circle><circle cx="129.2700171470642" cy="41.42251014709473" r="2" style="fill: steelblue;"></circle><circle cx="149.34862852096558" cy="61.69603765010834" r="2" style="fill: steelblue;"></circle><circle cx="184.49092507362366" cy="113.93635720014572" r="2" style="fill: steelblue;"></circle><circle cx="113.22938054800034" cy="96.751419454813" r="2" style="fill: steelblue;"></circle><circle cx="81.07146918773651" cy="159.7102403640747" r="2" style="fill: steelblue;"></circle><circle cx="68.2121753692627" cy="121.95092886686325" r="2" style="fill: steelblue;"></circle><circle cx="82.96888470649719" cy="136.8717908859253" r="2" style="fill: steelblue;"></circle><circle cx="94.51364614069462" cy="121.11086249351501" r="2" style="fill: steelblue;"></circle><circle cx="132.81991183757782" cy="127.13841199874878" r="2" style="fill: steelblue;"></circle><circle cx="113.46070319414139" cy="51.22717022895813" r="2" style="fill: steelblue;"></circle><circle cx="118.74755620956421" cy="134.02971625328064" r="2" style="fill: steelblue;"></circle><circle cx="110.64260303974152" cy="75.29169768095016" r="2" style="fill: steelblue;"></circle><circle cx="127.58894860744476" cy="124.0397959947586" r="2" style="fill: steelblue;"></circle><circle cx="99.38351102173328" cy="61.0691636800766" r="2" style="fill: steelblue;"></circle><circle cx="104.66057136654854" cy="60.947662591934204" r="2" style="fill: steelblue;"></circle><circle cx="111.18493974208832" cy="45.220768451690674" r="2" style="fill: steelblue;"></circle><circle cx="117.9448738694191" cy="37.94671297073364" r="2" style="fill: steelblue;"></circle><circle cx="122.14924395084381" cy="68.97996068000793" r="2" style="fill: steelblue;"></circle><circle cx="69.42275762557983" cy="78.50109785795212" r="2" style="fill: steelblue;"></circle><circle cx="137.0547205209732" cy="88.33006247878075" r="2" style="fill: steelblue;"></circle><circle cx="131.36552274227142" cy="136.31125390529633" r="2" style="fill: steelblue;"></circle><circle cx="99.9063462310005" cy="73.43079149723053" r="2" style="fill: steelblue;"></circle><circle cx="113.84615302085876" cy="75.57941675186157" r="2" style="fill: steelblue;"></circle><circle cx="132.81187415122986" cy="86.20559871196747" r="2" style="fill: steelblue;"></circle><circle cx="171.22222185134888" cy="92.05129146575928" r="2" style="fill: steelblue;"></circle><circle cx="159.406578540802" cy="83.72947126626968" r="2" style="fill: steelblue;"></circle><circle cx="147.27970361709595" cy="34.392303228378296" r="2" style="fill: steelblue;"></circle><circle cx="145.0983613729477" cy="77.43208557367325" r="2" style="fill: steelblue;"></circle><circle cx="129.61681485176086" cy="112.51825094223022" r="2" style="fill: steelblue;"></circle><circle cx="117.76073724031448" cy="69.75280940532684" r="2" style="fill: steelblue;"></circle><circle cx="83.36287289857864" cy="113.18219751119614" r="2" style="fill: steelblue;"></circle><circle cx="141.37988090515137" cy="35.945481061935425" r="2" style="fill: steelblue;"></circle><circle cx="106.20092749595642" cy="70.4345852136612" r="2" style="fill: steelblue;"></circle><circle cx="40.851181745529175" cy="99.8408721294254" r="2" style="fill: steelblue;"></circle><circle cx="115.25365263223648" cy="124.48189109563828" r="2" style="fill: steelblue;"></circle><circle cx="67.17612147331238" cy="144.88586485385895" r="2" style="fill: steelblue;"></circle><circle cx="80.43390959501266" cy="132.4004352092743" r="2" style="fill: steelblue;"></circle><circle cx="54.22511100769043" cy="102.77204401791096" r="2" style="fill: steelblue;"></circle><circle cx="106.80637955665588" cy="144.83402371406555" r="2" style="fill: steelblue;"></circle></g></svg>