<svg xmlns="http://www.w3.org/2000/svg"><g><circle cx="20.503950491547588" cy="94.82346640692818" r="2" style="fill: steelblue;"></circle><circle cx="71.0577417165041" cy="75.10509921444786" r="2" style="fill: steelblue;"></circle><circle cx="42.24887602031231" cy="91.13278322749667" r="2" style="fill: steelblue;"></circle><circle cx="11.15609630942345" cy="79.57864469952054" r="2" style="fill: steelblue;"></circle><circle cx="8.773698657751087" cy="77.25922101073795" r="2" style="fill: steelblue;"></circle><circle cx="34.544689767062664" cy="76.21743281682332" r="2" style="fill: steelblue;"></circle><circle cx="65.76147601008415" cy="53.942350049813584" r="2" style="fill: steelblue;"></circle><circle cx="38.34301717579365" cy="94.76390812132094" r="2" style="fill: steelblue;"></circle><circle cx="28.931043297052383" cy="43.35471904940075" r="2" style="fill: steelblue;"></circle><circle cx="21.920581534504894" cy="70.64885232183669" r="2" style="fill: steelblue;"></circle><circle cx="57.166154216974974" cy="68.55440884828568" r="2" style="fill: steelblue;"></circle><circle cx="39.191348664462566" cy="60.75054407119751" r="2" style="fill: steelblue;"></circle><circle cx="74.93496425449848" cy="28.627981742223106" r="2" style="fill: steelblue;"></circle><circle cx="27.070139721035957" cy="93.68036521805656" r="2" style="fill: steelblue;"></circle><circle cx="30.899013578891754" cy="45.32379160324732" r="2" style="fill: steelblue;"></circle><circle cx="50.86896016728133" cy="77.80795296033223" r="2" style="fill: steelblue;"></circle><circle cx="52.33592581935227" cy="80.95438447263506" r="2" style="fill: steelblue;"></circle><circle cx="45.137878227978945" cy="80.25122847821977" r="2" style="fill: steelblue;"></circle><circle cx="59.11563169211149" cy="32.82237880759769" r="2" style="fill: steelblue;"></circle><circle cx="75.89119970798492" cy="48.75069152977731" r="2" style="fill: steelblue;"></circle><circle cx="39.53568469733" cy="59.14002615544531" r="2" style="fill: steelblue;"></circle><circle cx="40.73814507573843" cy="54.275443363520836" r="2" style="fill: steelblue;"></circle><circle cx="47.92478792369366" cy="45.92507415347629" r="2" style="fill: steelblue;"></circle><circle cx="69.28877830505371" cy="61.79233392079671" r="2" style="fill: steelblue;"></circle><circle cx="40.57796783745289" cy="90.9484194384681" r="2" style="fill: steelblue;"></circle><circle cx="39.49920851737261" cy="92.49916010432773" r="2" style="fill: steelblue;"></circle><circle cx="54.5844241976738" cy="78.05472943517897" r="2" style="fill: steelblue;"></circle><circle cx="21.504503861069683" cy="66.54931935999129" r="2" style="fill: steelblue;"></circle><circle cx="19.359906390309337" cy="67.12460683451758" r="2" style="fill: steelblue;"></circle><circle cx="6.032123416662219" cy="48.43872123294406" r="2" style="fill: steelblue;"></circle><circle cx="93.25835406780243" cy="29.70097131199306" r="2" style="fill: steelblue;"></circle><circle cx="68.16509291529655" cy="46.16594894064797" r="2" style="fill: steelblue;"></circle><circle cx="35.435767099261284" cy="28.337450491057503" r="2" style="fill: steelblue;"></circle><circle cx="29.135718196630478" cy="38.90442185931735" r="2" style="fill: steelblue;"></circle><circle cx="79.21224012970924" cy="43.35410396258036" r="2" style="fill: steelblue;"></circle><circle cx="85.86063534021378" cy="91.80516997973123" r="2" style="fill: steelblue;"></circle><circle cx="36.28223780542612" cy="83.49002069897121" r="2" style="fill: steelblue;"></circle><circle cx="13.213704526424412" cy="34.29132534397973" r="2" style="fill: steelblue;"></circle><circle cx="38.9708599075675" cy="69.9335816833708" r="2" style="fill: steelblue;"></circle><circle cx="27.16902568936348" cy="37.26130558384789" r="2" style="fill: steelblue;"></circle><circle cx="47.303362702950835" cy="65.03378599882126" r="2" style="fill: steelblue;"></circle><circle cx="33.37102867662907" cy="27.193572786119248" r="2" style="fill: steelblue;"></circle><circle cx="15.95697104930878" cy="36.07174257437388" r="2" style="fill: steelblue;"></circle><circle cx="94.52251270413399" cy="36.045302947362266" r="2" style="fill: steelblue;"></circle><circle cx="48.64798365160823" cy="45.375995337963104" r="2" style="fill: steelblue;"></circle><circle cx="55.724945571273565" cy="62.05138895246718" r="2" style="fill: steelblue;"></circle><circle cx="61.91861927509308" cy="43.42590603563521" r="2" style="fill: steelblue;"></circle><circle cx="46.83316936716437" cy="85.88698506355286" r="2" style="fill: steelblue;"></circle><circle cx="33.084674924612045" cy="93.10439891285365" r="2" style="fill: steelblue;"></circle><circle cx="72.30320125818253" cy="80.49738903840382" r="2" style="fill: steelblue;"></circle><circle cx="44.78044733405113" cy="44.859545926253" r="2" style="fill: steelblue;"></circle><circle cx="76.32218599319458" cy="62.98763139380349" r="2" style="fill: steelblue;"></circle><circle cx="65.07191266864538" cy="78.43222386307187" r="2" style="fill: steelblue;"></circle><circle cx="24.124111235141758" cy="61.39402174287372" r="2" style="fill: steelblue;"></circle><circle cx="29.851223528385162" cy="46.459216210577225" r="2" style="fill: steelblue;"></circle><circle cx="12.127082049846653" cy="66.67478465371661" r="2" style="fill: steelblue;"></circle><circle cx="48.25630336999893" cy="88.45379617479112" r="2" style="fill: steelblue;"></circle><circle cx="42.145015858113766" cy="58.6539376527071" r="2" style="fill: steelblue;"></circle><circle cx="46.815512888133526" cy="71.2996307346556" r="2" style="fill: steelblue;"></circle><circle cx="44.28645521402359" cy="68.80467881759007" r="2" style="fill: steelblue;"></circle><circle cx="24.81891326606274" cy="36.99293070369296" r="2" style="fill: steelblue;"></circle><circle cx="23.327580839395527" cy="26.523709297180176" r="2" style="fill: steelblue;"></circle><circle cx="6.597354263067248" cy="89.88225128915575" r="2" style="fill: steelblue;"></circle><circle cx="14.22158926725388" cy="98.85603851742214" r="2" style="fill: steelblue;"></circle><circle cx="13.957544416189197" cy="89.60627184973823" r="2" style="fill: steelblue;"></circle><circle cx="19.23649869859219" cy="97.75892562336391" r="2" style="fill: steelblue;"></circle><circle cx="12.215319275856022" cy="51.25413214166959" r="2" style="fill: steelblue;"></circle><circle cx="3.124575316905978" cy="72.02020618650648" r="2" style="fill: steelblue;"></circle><circle cx="17.136338353157047" cy="53.785540991359284" r="2" style="fill: steelblue;"></circle><circle cx="44.38548041507602" cy="76.61275896761153" r="2" style="fill: steelblue;"></circle><circle cx="14.510384947061542" cy="88.03407351175943" r="2" style="fill: steelblue;"></circle><circle cx="86.8875078856945" cy="30.150208208296036" r="2" style="fill: steelblue;"></circle><circle cx="68.90206523239613" cy="49.43193453881476" r="2" style="fill: steelblue;"></circle><circle cx="45.49633264541626" cy="36.935821175575256" r="2" style="fill: steelblue;"></circle><circle cx="88.72700035572052" cy="27.32521626684401" r="2" style="fill: steelblue;"></circle><circle cx="55.29381260275841" cy="62.09887895319197" r="2" style="fill: steelblue;"></circle><circle cx="72.98834174871445" cy="53.36024488011996" r="2" style="fill: steelblue;"></circle><circle cx="43.1075950153172" cy="31.182401710086395" r="2" style="fill: steelblue;"></circle><circle cx="84.64481607079506" cy="19.46269803576999" r="2" style="fill: steelblue;"></circle><circle cx="77.41061337292194" cy="81.48589399125841" r="2" style="fill: steelblue;"></circle><circle cx="75.20689740777016" cy="8.025076654222275" r="2" style="fill: steelblue;"></circle><circle cx="25.150179117918015" cy="24.426874187257553" r="2" style="fill: steelblue;"></circle><circle cx="47.163839638233185" cy="54.049342042869995" r="2" style="fill: steelblue;"></circle><circle cx="37.37302981317043" cy="34.91158452298906" r="2" style="fill: steelblue;"></circle><circle cx="69.6640994399786" cy="92.59589182005989" r="2" style="fill: steelblue;"></circle><circle cx="21.47863917052746" cy="76.6253156794442" r="2" style="fill: steelblue;"></circle><circle cx="52.287505427375436" cy="65.62343322568469" r="2" style="fill: steelblue;"></circle><circle cx="33.1851851195097" cy="32.29209946261512" r="2" style="fill: steelblue;"></circle><circle cx="12.863769382238392" cy="68.58500258790122" r="2" style="fill: steelblue;"></circle><circle cx="46.15090060979128" cy="5.862434705098474" r="2" style="fill: steelblue;"></circle><circle cx="76.733523234725" cy="20.51600482728746" r="2" style="fill: steelblue;"></circle><circle cx="50.89688308071345" cy="22.316012117597793" r="2" style="fill: steelblue;"></circle><circle cx="61.01905386894941" cy="12.330482403437292" r="2" style="fill: steelblue;"></circle><circle cx="46.9210943672806" cy="46.27178940508101" r="2" style="fill: steelblue;"></circle><circle cx="57.03170709311962" cy="41.1355197429657" r="2" style="fill: steelblue;"></circle><circle cx="86.86939552426338" cy="24.27724997202555" r="2" style="fill: steelblue;"></circle><circle cx="82.13339671492577" cy="16.969750324885048" r="2" style="fill: steelblue;"></circle><circle cx="67.3543430864811" cy="58.602685936623146" r="2" style="fill: steelblue;"></circle><circle cx="31.658991426229477" cy="80.90016576978896" r="2" style="fill: steelblue;"></circle><circle cx="61.19808852672577" cy="32.77169167995453" r="2" style="fill: steelblue;"></circle><circle cx="71.33578807115555" cy="64.84886258840561" r="2" style="fill: steelblue;"></circle><circle cx="69.1066563129425" cy="41.48368537425995" r="2" style="fill: steelblue;"></circle><circle cx="65.5984228476882" cy="36.58793701065911" r="2" style="fill: steelblue;"></circle><circle cx="76.51341818273067" cy="44.96801065074073" r="2" style="fill: steelblue;"></circle><circle cx="73.70758727192879" cy="43.0054184463289" r="2" style="fill: steelblue;"></circle><circle cx="59.80246439576149" cy="37.717739741007485" r="2" style="fill: steelblue;"></circle><circle cx="32.37192817032337" cy="34.83276400301192" r="2" style="fill: steelblue;"></circle><circle cx="32.5037345290184" cy="58.63627170523007" r="2" style="fill: steelblue;"></circle><circle cx="63.312905095517635" cy="37.58665257030063" r="2" style="fill: steelblue;"></circle><circle cx="44.54036168754101" cy="33.42882792154948" r="2" style="fill: steelblue;"></circle><circle cx="63.60635459423065" cy="38.27877342700958" r="2" style="fill: steelblue;"></circle><circle cx="79.43897992372513" cy="65.83816309769948" r="2" style="fill: steelblue;"></circle><circle cx="62.30845879763365" cy="65.84524611632028" r="2" style="fill: steelblue;"></circle><circle cx="37.49255947768688" cy="45.480504631996155" r="2" style="fill: steelblue;"></circle><circle cx="11.84201538562775" cy="69.17588661114374" r="2" style="fill: steelblue;"></circle><circle cx="40.627892315387726" cy="83.14656052324507" r="2" style="fill: steelblue;"></circle><circle cx="47.896976536139846" cy="62.64580951796637" r="2" style="fill: steelblue;"></circle><circle cx="78.63959223031998" cy="48.32857681645287" r="2" style="fill: steelblue;"></circle></g></svg>