<svg xmlns="http://www.w3.org/2000/svg"><g><circle cx="44.07401084899902" cy="101.05227646417916" r="2" style="fill: steelblue;"></circle><circle cx="80.6820660829544" cy="109.38380509614944" r="2" style="fill: steelblue;"></circle><circle cx="77.31635719537735" cy="116.64752513170242" r="2" style="fill: steelblue;"></circle><circle cx="91.9319823384285" cy="124.04522337019444" r="2" style="fill: steelblue;"></circle><circle cx="82.33806490898132" cy="148.82345348596573" r="2" style="fill: steelblue;"></circle><circle cx="47.29112386703491" cy="106.26224838197231" r="2" style="fill: steelblue;"></circle><circle cx="127.3895263671875" cy="121.0596639662981" r="2" style="fill: steelblue;"></circle><circle cx="112.68046945333481" cy="109.13601368665695" r="2" style="fill: steelblue;"></circle><circle cx="88.28495517373085" cy="149.0792952477932" r="2" style="fill: steelblue;"></circle><circle cx="109.23110842704773" cy="105.32843824476004" r="2" style="fill: steelblue;"></circle><circle cx="44.08684968948364" cy="71.94705344736576" r="2" style="fill: steelblue;"></circle><circle cx="70.35255134105682" cy="136.15142032504082" r="2" style="fill: steelblue;"></circle><circle cx="17.51801371574402" cy="154.24632132053375" r="2" style="fill: steelblue;"></circle><circle cx="75.68145394325256" cy="163.18000704050064" r="2" style="fill: steelblue;"></circle><circle cx="113.98445069789886" cy="121.64571546018124" r="2" style="fill: steelblue;"></circle><circle cx="52.31924057006836" cy="184.54257994890213" r="2" style="fill: steelblue;"></circle><circle cx="55.94696402549744" cy="138.2777415215969" r="2" style="fill: steelblue;"></circle><circle cx="84.21896547079086" cy="98.44321084674448" r="2" style="fill: steelblue;"></circle><circle cx="136.92957162857056" cy="123.4603751450777" r="2" style="fill: steelblue;"></circle><circle cx="118.4962511062622" cy="80.38996383547783" r="2" style="fill: steelblue;"></circle><circle cx="116.2491574883461" cy="42.684683948755264" r="2" style="fill: steelblue;"></circle><circle cx="121.91863805055618" cy="62.17051520943642" r="2" style="fill: steelblue;"></circle><circle cx="89.201270788908" cy="176.08551532030106" r="2" style="fill: steelblue;"></circle><circle cx="92.89235845208168" cy="94.31450571864843" r="2" style="fill: steelblue;"></circle><circle cx="113.49177658557892" cy="144.0410003066063" r="2" style="fill: steelblue;"></circle><circle cx="56.96200132369995" cy="131.5096192061901" r="2" style="fill: steelblue;"></circle><circle cx="59.548839926719666" cy="148.40687662363052" r="2" style="fill: steelblue;"></circle><circle cx="44.14306282997131" cy="112.6907266676426" r="2" style="fill: steelblue;"></circle><circle cx="114.1444444656372" cy="165.6997561454773" r="2" style="fill: steelblue;"></circle><circle cx="99.54453725367785" cy="130.01576848328114" r="2" style="fill: steelblue;"></circle><circle cx="181.41441345214844" cy="103.95849766209722" r="2" style="fill: steelblue;"></circle><circle cx="180.0581395626068" cy="79.33616116642952" r="2" style="fill: steelblue;"></circle><circle cx="117.6959365606308" cy="12.170886993408203" r="2" style="fill: steelblue;"></circle><circle cx="111.47578582167625" cy="115.18828421831131" r="2" style="fill: steelblue;"></circle><circle cx="117.56418645381927" cy="85.65844632685184" r="2" style="fill: steelblue;"></circle><circle cx="88.90466168522835" cy="38.608381897211075" r="2" style="fill: steelblue;"></circle><circle cx="60.020360350608826" cy="92.87491105496883" r="2" style="fill: steelblue;"></circle><circle cx="70.21685540676117" cy="29.0681853890419" r="2" style="fill: steelblue;"></circle><circle cx="75.89528560638428" cy="144.93523761630058" r="2" style="fill: steelblue;"></circle><circle cx="63.936132192611694" cy="151.44771188497543" r="2" style="fill: steelblue;"></circle><circle cx="74.73720014095306" cy="82.23884403705597" r="2" style="fill: steelblue;"></circle><circle cx="110.71023046970367" cy="140.4069870710373" r="2" style="fill: steelblue;"></circle><circle cx="133.37795436382294" cy="32.153940200805664" r="2" style="fill: steelblue;"></circle><circle cx="86.66754812002182" cy="85.53031403571367" r="2" style="fill: steelblue;"></circle><circle cx="106.31256625056267" cy="60.36006882786751" r="2" style="fill: steelblue;"></circle><circle cx="58.66023600101471" cy="45.76074182987213" r="2" style="fill: steelblue;"></circle><circle cx="130.37839233875275" cy="86.83499079197645" r="2" style="fill: steelblue;"></circle><circle cx="65.52698910236359" cy="35.31990051269531" r="2" style="fill: steelblue;"></circle><circle cx="54.84265685081482" cy="144.64765638113022" r="2" style="fill: steelblue;"></circle><circle cx="74.3016391992569" cy="181.14858716726303" r="2" style="fill: steelblue;"></circle><circle cx="68.95987689495087" cy="186.35391294956207" r="2" style="fill: steelblue;"></circle><circle cx="124.25885945558548" cy="138.14688324928284" r="2" style="fill: steelblue;"></circle><circle cx="114.33063745498657" cy="85.27739383280277" r="2" style="fill: steelblue;"></circle><circle cx="101.36386938393116" cy="32.833172380924225" r="2" style="fill: steelblue;"></circle><circle cx="84.11596864461899" cy="101.60842260811478" r="2" style="fill: steelblue;"></circle><circle cx="74.30380582809448" cy="126.39386244118214" r="2" style="fill: steelblue;"></circle><circle cx="71.63833379745483" cy="122.61733263731003" r="2" style="fill: steelblue;"></circle><circle cx="88.39570358395576" cy="122.10870571434498" r="2" style="fill: steelblue;"></circle><circle cx="64.53750729560852" cy="100.69879757938907" r="2" style="fill: steelblue;"></circle><circle cx="59.82968211174011" cy="156.99114874005318" r="2" style="fill: steelblue;"></circle><circle cx="41.2207305431366" cy="131.76014497876167" r="2" style="fill: steelblue;"></circle><circle cx="90.52017703652382" cy="169.49471682310104" r="2" style="fill: steelblue;"></circle><circle cx="46.49754762649536" cy="145.0628623366356" r="2" style="fill: steelblue;"></circle><circle cx="91.41287431120872" cy="144.18356716632843" r="2" style="fill: steelblue;"></circle><circle cx="73.89123439788818" cy="182.41596817970276" r="2" style="fill: steelblue;"></circle><circle cx="35.70221662521362" cy="149.9672293663025" r="2" style="fill: steelblue;"></circle><circle cx="103.19547615945339" cy="106.03020377457142" r="2" style="fill: steelblue;"></circle><circle cx="95.44904381036758" cy="168.15772503614426" r="2" style="fill: steelblue;"></circle><circle cx="52.430978417396545" cy="131.7717120051384" r="2" style="fill: steelblue;"></circle><circle cx="38.77807855606079" cy="171.76002860069275" r="2" style="fill: steelblue;"></circle><circle cx="146.05479836463928" cy="117.46274530887604" r="2" style="fill: steelblue;"></circle><circle cx="164.8117959499359" cy="81.25572316348553" r="2" style="fill: steelblue;"></circle><circle cx="125.15102624893188" cy="59.902167320251465" r="2" style="fill: steelblue;"></circle><circle cx="55.273979902267456" cy="29.32692915201187" r="2" style="fill: steelblue;"></circle><circle cx="90.64662083983421" cy="63.23460340499878" r="2" style="fill: steelblue;"></circle><circle cx="87.1641293168068" cy="62.361570447683334" r="2" style="fill: steelblue;"></circle><circle cx="82.96395242214203" cy="16.506320238113403" r="2" style="fill: steelblue;"></circle><circle cx="118.17272156476974" cy="54.80884611606598" r="2" style="fill: steelblue;"></circle><circle cx="136.9635045528412" cy="92.34962649643421" r="2" style="fill: steelblue;"></circle><circle cx="158.57748985290527" cy="16.211828589439392" r="2" style="fill: steelblue;"></circle><circle cx="138.30396234989166" cy="39.130205661058426" r="2" style="fill: steelblue;"></circle><circle cx="86.06364279985428" cy="43.212077021598816" r="2" style="fill: steelblue;"></circle><circle cx="103.248580545187" cy="32.382166385650635" r="2" style="fill: steelblue;"></circle><circle cx="40.28975963592529" cy="125.38693509995937" r="2" style="fill: steelblue;"></circle><circle cx="78.04907113313675" cy="131.14950843155384" r="2" style="fill: steelblue;"></circle><circle cx="63.12820911407471" cy="157.06888064742088" r="2" style="fill: steelblue;"></circle><circle cx="78.88913750648499" cy="52.28967070579529" r="2" style="fill: steelblue;"></circle><circle cx="72.86158800125122" cy="172.20441848039627" r="2" style="fill: steelblue;"></circle><circle cx="148.77282977104187" cy="153.35291102528572" r="2" style="fill: steelblue;"></circle><circle cx="65.97028374671936" cy="15.708027780056" r="2" style="fill: steelblue;"></circle><circle cx="124.70830231904984" cy="60.639044642448425" r="2" style="fill: steelblue;"></circle><circle cx="75.9602040052414" cy="58.56570079922676" r="2" style="fill: steelblue;"></circle><circle cx="138.9308363199234" cy="13.288235664367676" r="2" style="fill: steelblue;"></circle><circle cx="139.0523374080658" cy="57.47174695134163" r="2" style="fill: steelblue;"></circle><circle cx="154.77923154830933" cy="102.90407869033515" r="2" style="fill: steelblue;"></circle><circle cx="162.05328702926636" cy="46.15011289715767" r="2" style="fill: steelblue;"></circle><circle cx="131.02003931999207" cy="74.97385926544666" r="2" style="fill: steelblue;"></circle><circle cx="121.49890214204788" cy="99.93009493482532" r="2" style="fill: steelblue;"></circle><circle cx="111.66993752121925" cy="56.3211128115654" r="2" style="fill: steelblue;"></circle><circle cx="63.688746094703674" cy="163.19426000118256" r="2" style="fill: steelblue;"></circle><circle cx="126.56920850276947" cy="95.51546340808272" r="2" style="fill: steelblue;"></circle><circle cx="124.42058324813843" cy="97.40155227482319" r="2" style="fill: steelblue;"></circle><circle cx="113.79440128803253" cy="86.91847920417786" r="2" style="fill: steelblue;"></circle><circle cx="107.94870853424072" cy="66.2940502166748" r="2" style="fill: steelblue;"></circle><circle cx="116.27052873373032" cy="27.13458091020584" r="2" style="fill: steelblue;"></circle><circle cx="165.6076967716217" cy="17.008765041828156" r="2" style="fill: steelblue;"></circle><circle cx="122.56791442632675" cy="73.83430600166321" r="2" style="fill: steelblue;"></circle><circle cx="87.48174905776978" cy="82.74054564535618" r="2" style="fill: steelblue;"></circle><circle cx="130.24719059467316" cy="136.32725775241852" r="2" style="fill: steelblue;"></circle><circle cx="86.81780248880386" cy="32.249024510383606" r="2" style="fill: steelblue;"></circle><circle cx="164.05451893806458" cy="91.52819253504276" r="2" style="fill: steelblue;"></circle><circle cx="129.5654147863388" cy="71.9985369592905" r="2" style="fill: steelblue;"></circle><circle cx="100.1591278705746" cy="55.93526214361191" r="2" style="fill: steelblue;"></circle><circle cx="75.51810890436172" cy="154.5889511704445" r="2" style="fill: steelblue;"></circle><circle cx="55.11413514614105" cy="127.29988284409046" r="2" style="fill: steelblue;"></circle><circle cx="67.59956479072571" cy="158.48445370793343" r="2" style="fill: steelblue;"></circle><circle cx="97.22795598208904" cy="135.96214205026627" r="2" style="fill: steelblue;"></circle><circle cx="55.16597628593445" cy="111.92104537039995" r="2" style="fill: steelblue;"></circle></g></svg>