<svg xmlns="http://www.w3.org/2000/svg"><rect width="200" height="200" fill="white"></rect><g><circle cx="29.540759325027466" cy="150.55926367640495" r="2" style="fill: steelblue;"></circle><circle cx="60.69957613945007" cy="189.74582701921463" r="2" style="fill: steelblue;"></circle><circle cx="119.40479725599289" cy="119.84838023781776" r="2" style="fill: steelblue;"></circle><circle cx="82.10919499397278" cy="190.386800467968" r="2" style="fill: steelblue;"></circle><circle cx="112.76056617498398" cy="91.44833162426949" r="2" style="fill: steelblue;"></circle><circle cx="34.10390019416809" cy="87.16834001243114" r="2" style="fill: steelblue;"></circle><circle cx="99.544364400208" cy="107.53079866990447" r="2" style="fill: steelblue;"></circle><circle cx="115.84897190332413" cy="88.43353521078825" r="2" style="fill: steelblue;"></circle><circle cx="69.41529214382172" cy="131.88197314739227" r="2" style="fill: steelblue;"></circle><circle cx="69.19999122619629" cy="169.88425552845" r="2" style="fill: steelblue;"></circle><circle cx="75.74281990528107" cy="62.61921897530556" r="2" style="fill: steelblue;"></circle><circle cx="91.09385758638382" cy="5.796945095062256" r="2" style="fill: steelblue;"></circle><circle cx="90.29463604092598" cy="149.10908639431" r="2" style="fill: steelblue;"></circle><circle cx="46.67617082595825" cy="50.05292817950249" r="2" style="fill: steelblue;"></circle><circle cx="108.83572176098824" cy="128.8969650864601" r="2" style="fill: steelblue;"></circle><circle cx="29.53163981437683" cy="106.49724807590246" r="2" style="fill: steelblue;"></circle><circle cx="53.622815012931824" cy="113.40391393750906" r="2" style="fill: steelblue;"></circle><circle cx="134.58853363990784" cy="181.20658993721008" r="2" style="fill: steelblue;"></circle><circle cx="101.10188210383058" cy="94.80910412967205" r="2" style="fill: steelblue;"></circle><circle cx="157.826167345047" cy="61.817700415849686" r="2" style="fill: steelblue;"></circle><circle cx="99.33166084811091" cy="85.67312117666006" r="2" style="fill: steelblue;"></circle><circle cx="109.11305099725723" cy="37.98612803220749" r="2" style="fill: steelblue;"></circle><circle cx="119.67785209417343" cy="132.16257318854332" r="2" style="fill: steelblue;"></circle><circle cx="57.000166177749634" cy="76.25332325696945" r="2" style="fill: steelblue;"></circle><circle cx="122.64337688684464" cy="128.11694703996181" r="2" style="fill: steelblue;"></circle><circle cx="60.16100347042084" cy="174.85520094633102" r="2" style="fill: steelblue;"></circle><circle cx="79.23955023288727" cy="182.9845741391182" r="2" style="fill: steelblue;"></circle><circle cx="79.35323864221573" cy="100.61966344946995" r="2" style="fill: steelblue;"></circle><circle cx="47.576236724853516" cy="88.88835497200489" r="2" style="fill: steelblue;"></circle><circle cx="108.7610237300396" cy="199.8760685324669" r="2" style="fill: steelblue;"></circle><circle cx="145.08269429206848" cy="36.45084649324417" r="2" style="fill: steelblue;"></circle><circle cx="143.00574660301208" cy="116.56470634043217" r="2" style="fill: steelblue;"></circle><circle cx="162.74623274803162" cy="75.42893327772617" r="2" style="fill: steelblue;"></circle><circle cx="94.89885866641998" cy="28.51272225379944" r="2" style="fill: steelblue;"></circle><circle cx="110.19947156310081" cy="129.6773985028267" r="2" style="fill: steelblue;"></circle><circle cx="83.86740237474442" cy="55.842483788728714" r="2" style="fill: steelblue;"></circle><circle cx="101.90729312598705" cy="130.2347056567669" r="2" style="fill: steelblue;"></circle><circle cx="64.82284963130951" cy="158.51049348711967" r="2" style="fill: steelblue;"></circle><circle cx="39.07608389854431" cy="108.69902689009905" r="2" style="fill: steelblue;"></circle><circle cx="42.25280284881592" cy="89.56817481666803" r="2" style="fill: steelblue;"></circle><circle cx="18.91370415687561" cy="118.37942376732826" r="2" style="fill: steelblue;"></circle><circle cx="130.31090199947357" cy="10.964258015155792" r="2" style="fill: steelblue;"></circle><circle cx="47.8277325630188" cy="69.18060444295406" r="2" style="fill: steelblue;"></circle><circle cx="125.00604689121246" cy="123.85162189602852" r="2" style="fill: steelblue;"></circle><circle cx="136.38231754302979" cy="44.84138861298561" r="2" style="fill: steelblue;"></circle><circle cx="127.56921648979187" cy="109.49870608747005" r="2" style="fill: steelblue;"></circle><circle cx="151.73389315605164" cy="101.1458876542747" r="2" style="fill: steelblue;"></circle><circle cx="54.63104844093323" cy="111.10097113996744" r="2" style="fill: steelblue;"></circle><circle cx="53.17060351371765" cy="117.28502847254276" r="2" style="fill: steelblue;"></circle><circle cx="68.99988055229187" cy="89.73971512168646" r="2" style="fill: steelblue;"></circle><circle cx="116.91694110631943" cy="95.18433259800076" r="2" style="fill: steelblue;"></circle><circle cx="146.33714854717255" cy="172.4933072924614" r="2" style="fill: steelblue;"></circle><circle cx="126.0770708322525" cy="110.83032134920359" r="2" style="fill: steelblue;"></circle><circle cx="75.50497353076935" cy="106.39878492802382" r="2" style="fill: steelblue;"></circle><circle cx="95.16856111586094" cy="148.97627606987953" r="2" style="fill: steelblue;"></circle><circle cx="109.7198136150837" cy="121.8740813434124" r="2" style="fill: steelblue;"></circle><circle cx="106.30350410938263" cy="168.29936802387238" r="2" style="fill: steelblue;"></circle><circle cx="54.04421091079712" cy="121.50632813572884" r="2" style="fill: steelblue;"></circle><circle cx="88.8358898460865" cy="198.59977662563324" r="2" style="fill: steelblue;"></circle><circle cx="77.05083936452866" cy="166.6128769516945" r="2" style="fill: steelblue;"></circle><circle cx="114.03232663869858" cy="152.96799167990685" r="2" style="fill: steelblue;"></circle><circle cx="84.04288291931152" cy="103.4113007131964" r="2" style="fill: steelblue;"></circle><circle cx="32.67391324043274" cy="139.8879311978817" r="2" style="fill: steelblue;"></circle><circle cx="31.942975521087646" cy="127.78254449367523" r="2" style="fill: steelblue;"></circle><circle cx="62.99528777599335" cy="110.61720959842205" r="2" style="fill: steelblue;"></circle><circle cx="81.01856857538223" cy="139.4754558801651" r="2" style="fill: steelblue;"></circle><circle cx="52.85221040248871" cy="156.65745958685875" r="2" style="fill: steelblue;"></circle><circle cx="81.01634979248047" cy="172.34547287225723" r="2" style="fill: steelblue;"></circle><circle cx="38.42056393623352" cy="119.81434971094131" r="2" style="fill: steelblue;"></circle><circle cx="69.89798843860626" cy="150.327867269516" r="2" style="fill: steelblue;"></circle><circle cx="40.86424112319946" cy="161.50270625948906" r="2" style="fill: steelblue;"></circle><circle cx="105.16527034342289" cy="40.83165377378464" r="2" style="fill: steelblue;"></circle><circle cx="117.10119992494583" cy="20.77627032995224" r="2" style="fill: steelblue;"></circle><circle cx="144.54109370708466" cy="71.65587916970253" r="2" style="fill: steelblue;"></circle><circle cx="132.0667177438736" cy="70.09625472128391" r="2" style="fill: steelblue;"></circle><circle cx="68.67731213569641" cy="41.44290313124657" r="2" style="fill: steelblue;"></circle><circle cx="128.20844650268555" cy="73.05196337401867" r="2" style="fill: steelblue;"></circle><circle cx="138.6093556880951" cy="24.293309450149536" r="2" style="fill: steelblue;"></circle><circle cx="137.0095580816269" cy="49.75486770272255" r="2" style="fill: steelblue;"></circle><circle cx="154.39093708992004" cy="24.998141825199127" r="2" style="fill: steelblue;"></circle><circle cx="166.72571301460266" cy="139.30839523673058" r="2" style="fill: steelblue;"></circle><circle cx="158.38727951049805" cy="44.20280307531357" r="2" style="fill: steelblue;"></circle><circle cx="102.88958549499512" cy="60.874494165182114" r="2" style="fill: steelblue;"></circle><circle cx="78.33388447761536" cy="93.21697978302836" r="2" style="fill: steelblue;"></circle><circle cx="70.2731728553772" cy="111.75695564597845" r="2" style="fill: steelblue;"></circle><circle cx="103.31694036722183" cy="135.13434529304504" r="2" style="fill: steelblue;"></circle><circle cx="86.78161948919296" cy="121.14692702889442" r="2" style="fill: steelblue;"></circle><circle cx="69.07244324684143" cy="92.16283764690161" r="2" style="fill: steelblue;"></circle><circle cx="61.109864711761475" cy="81.0892678797245" r="2" style="fill: steelblue;"></circle><circle cx="135.98717749118805" cy="66.83409810066223" r="2" style="fill: steelblue;"></circle><circle cx="123.15737903118134" cy="39.38932940363884" r="2" style="fill: steelblue;"></circle><circle cx="183.97982716560364" cy="24.515031278133392" r="2" style="fill: steelblue;"></circle><circle cx="171.41740918159485" cy="55.64253255724907" r="2" style="fill: steelblue;"></circle><circle cx="118.08044910430908" cy="54.224806278944016" r="2" style="fill: steelblue;"></circle><circle cx="119.51431035995483" cy="74.03586097061634" r="2" style="fill: steelblue;"></circle><circle cx="108.44259113073349" cy="52.93315127491951" r="2" style="fill: steelblue;"></circle><circle cx="150.6758213043213" cy="12.81149536371231" r="2" style="fill: steelblue;"></circle><circle cx="160.82406640052795" cy="142.8214631974697" r="2" style="fill: steelblue;"></circle><circle cx="121.73947095870972" cy="120.0918223708868" r="2" style="fill: steelblue;"></circle><circle cx="111.50742471218109" cy="83.03046822547913" r="2" style="fill: steelblue;"></circle><circle cx="104.5810516923666" cy="82.57249966263771" r="2" style="fill: steelblue;"></circle><circle cx="81.73001706600189" cy="74.55530986189842" r="2" style="fill: steelblue;"></circle><circle cx="111.32893338799477" cy="87.55958024412394" r="2" style="fill: steelblue;"></circle><circle cx="173.19093346595764" cy="97.12955020368099" r="2" style="fill: steelblue;"></circle><circle cx="74.04550611972809" cy="41.07047840952873" r="2" style="fill: steelblue;"></circle><circle cx="135.36517024040222" cy="35.89547276496887" r="2" style="fill: steelblue;"></circle><circle cx="144.0244495868683" cy="64.77672085165977" r="2" style="fill: steelblue;"></circle><circle cx="155.5930197238922" cy="29.326653480529785" r="2" style="fill: steelblue;"></circle><circle cx="129.6737551689148" cy="118.29788275063038" r="2" style="fill: steelblue;"></circle><circle cx="118.13419312238693" cy="59.922775626182556" r="2" style="fill: steelblue;"></circle><circle cx="164.1545832157135" cy="65.10112285614014" r="2" style="fill: steelblue;"></circle><circle cx="71.82250022888184" cy="103.31758637912571" r="2" style="fill: steelblue;"></circle><circle cx="57.03074336051941" cy="164.0370100736618" r="2" style="fill: steelblue;"></circle><circle cx="62.82018721103668" cy="175.6722018122673" r="2" style="fill: steelblue;"></circle><circle cx="103.16580645740032" cy="164.45839256048203" r="2" style="fill: steelblue;"></circle><circle cx="130.10840713977814" cy="162.41824105381966" r="2" style="fill: steelblue;"></circle><circle cx="120.08136808872223" cy="140.40320590138435" r="2" style="fill: steelblue;"></circle><circle cx="50.09171962738037" cy="98.02506202831864" r="2" style="fill: steelblue;"></circle></g></svg>