<svg xmlns="http://www.w3.org/2000/svg"><rect width="200" height="200" fill="white"></rect><g><circle cx="55.42037222120497" cy="101.05227646417916" r="2" style="fill: steelblue;"></circle><circle cx="58.31903550359938" cy="109.38380509614944" r="2" style="fill: steelblue;"></circle><circle cx="155.2445458041297" cy="116.64752513170242" r="2" style="fill: steelblue;"></circle><circle cx="109.6306409065922" cy="124.04522337019444" r="2" style="fill: steelblue;"></circle><circle cx="69.499800602595" cy="148.82345348596573" r="2" style="fill: steelblue;"></circle><circle cx="94.91246773136986" cy="106.26224838197231" r="2" style="fill: steelblue;"></circle><circle cx="64.08457623587715" cy="121.0596639662981" r="2" style="fill: steelblue;"></circle><circle cx="91.68838626808589" cy="109.13601368665695" r="2" style="fill: steelblue;"></circle><circle cx="85.5561527940962" cy="149.0792952477932" r="2" style="fill: steelblue;"></circle><circle cx="117.09756362769339" cy="105.32843824476004" r="2" style="fill: steelblue;"></circle><circle cx="65.98971949683296" cy="71.94705344736576" r="2" style="fill: steelblue;"></circle><circle cx="156.93245662583243" cy="136.15142032504082" r="2" style="fill: steelblue;"></circle><circle cx="67.55664282374912" cy="154.24632132053375" r="2" style="fill: steelblue;"></circle><circle cx="43.757471773359505" cy="163.18000704050064" r="2" style="fill: steelblue;"></circle><circle cx="105.36312891377342" cy="121.64571546018124" r="2" style="fill: steelblue;"></circle><circle cx="99.0307049618827" cy="184.54257994890213" r="2" style="fill: steelblue;"></circle><circle cx="106.39495568142996" cy="138.2777415215969" r="2" style="fill: steelblue;"></circle><circle cx="144.92866065767075" cy="98.44321084674448" r="2" style="fill: steelblue;"></circle><circle cx="172.01274633407593" cy="123.4603751450777" r="2" style="fill: steelblue;"></circle><circle cx="159.94598468144733" cy="80.38996383547783" r="2" style="fill: steelblue;"></circle><circle cx="84.65699851512909" cy="42.684683948755264" r="2" style="fill: steelblue;"></circle><circle cx="165.53258895874023" cy="62.17051520943642" r="2" style="fill: steelblue;"></circle><circle cx="45.10208633210924" cy="176.08551532030106" r="2" style="fill: steelblue;"></circle><circle cx="81.33717709117465" cy="94.31450571864843" r="2" style="fill: steelblue;"></circle><circle cx="99.78222515847948" cy="144.0410003066063" r="2" style="fill: steelblue;"></circle><circle cx="116.47541696826617" cy="131.5096192061901" r="2" style="fill: steelblue;"></circle><circle cx="116.94269296195772" cy="148.40687662363052" r="2" style="fill: steelblue;"></circle><circle cx="62.00498673650954" cy="112.6907266676426" r="2" style="fill: steelblue;"></circle><circle cx="65.89057710435655" cy="165.6997561454773" r="2" style="fill: steelblue;"></circle><circle cx="102.99565394719441" cy="130.01576848328114" r="2" style="fill: steelblue;"></circle><circle cx="162.88113925192093" cy="103.95849766209722" r="2" style="fill: steelblue;"></circle><circle cx="166.6487157344818" cy="79.33616116642952" r="2" style="fill: steelblue;"></circle><circle cx="114.51552187403043" cy="12.170886993408203" r="2" style="fill: steelblue;"></circle><circle cx="115.94328946537442" cy="115.18828421831131" r="2" style="fill: steelblue;"></circle><circle cx="129.00369034873114" cy="85.65844632685184" r="2" style="fill: steelblue;"></circle><circle cx="89.53238195843166" cy="38.608381897211075" r="2" style="fill: steelblue;"></circle><circle cx="50.83972877926296" cy="92.87491105496883" r="2" style="fill: steelblue;"></circle><circle cx="50.929433769649926" cy="29.0681853890419" r="2" style="fill: steelblue;"></circle><circle cx="44.80048020680745" cy="144.93523761630058" r="2" style="fill: steelblue;"></circle><circle cx="67.61839985847473" cy="151.44771188497543" r="2" style="fill: steelblue;"></circle><circle cx="84.8110169172287" cy="82.23884403705597" r="2" style="fill: steelblue;"></circle><circle cx="177.4100661277771" cy="140.4069870710373" r="2" style="fill: steelblue;"></circle><circle cx="92.32921567228105" cy="32.153940200805664" r="2" style="fill: steelblue;"></circle><circle cx="130.93385928206973" cy="85.53031403571367" r="2" style="fill: steelblue;"></circle><circle cx="162.07746664683023" cy="60.36006882786751" r="2" style="fill: steelblue;"></circle><circle cx="114.09624252054427" cy="45.76074182987213" r="2" style="fill: steelblue;"></circle><circle cx="151.69490377108255" cy="86.83499079197645" r="2" style="fill: steelblue;"></circle><circle cx="74.93129372596741" cy="35.31990051269531" r="2" style="fill: steelblue;"></circle><circle cx="106.20418356524573" cy="144.64765638113022" r="2" style="fill: steelblue;"></circle><circle cx="54.39390738805135" cy="181.14858716726303" r="2" style="fill: steelblue;"></circle><circle cx="85.3299448887507" cy="186.35391294956207" r="2" style="fill: steelblue;"></circle><circle cx="145.5985638830397" cy="138.14688324928284" r="2" style="fill: steelblue;"></circle><circle cx="114.26584877901607" cy="85.27739383280277" r="2" style="fill: steelblue;"></circle><circle cx="104.08275574445724" cy="32.833172380924225" r="2" style="fill: steelblue;"></circle><circle cx="128.01372177071042" cy="101.60842260811478" r="2" style="fill: steelblue;"></circle><circle cx="56.15807241863674" cy="126.39386244118214" r="2" style="fill: steelblue;"></circle><circle cx="53.10366551081339" cy="122.61733263731003" r="2" style="fill: steelblue;"></circle><circle cx="82.77157611317104" cy="122.10870571434498" r="2" style="fill: steelblue;"></circle><circle cx="83.3859062857098" cy="100.69879757938907" r="2" style="fill: steelblue;"></circle><circle cx="138.97687196731567" cy="156.99114874005318" r="2" style="fill: steelblue;"></circle><circle cx="55.83482318454318" cy="131.76014497876167" r="2" style="fill: steelblue;"></circle><circle cx="128.78792650169797" cy="169.49471682310104" r="2" style="fill: steelblue;"></circle><circle cx="125.52326917648315" cy="145.0628623366356" r="2" style="fill: steelblue;"></circle><circle cx="63.82345490985446" cy="144.18356716632843" r="2" style="fill: steelblue;"></circle><circle cx="60.48068073060777" cy="182.41596817970276" r="2" style="fill: steelblue;"></circle><circle cx="34.83578231599596" cy="149.9672293663025" r="2" style="fill: steelblue;"></circle><circle cx="121.90685421228409" cy="106.03020377457142" r="2" style="fill: steelblue;"></circle><circle cx="73.97330469555324" cy="168.15772503614426" r="2" style="fill: steelblue;"></circle><circle cx="35.350124041239425" cy="131.7717120051384" r="2" style="fill: steelblue;"></circle><circle cx="59.87550814946493" cy="171.76002860069275" r="2" style="fill: steelblue;"></circle><circle cx="16.987297270033093" cy="117.46274530887604" r="2" style="fill: steelblue;"></circle><circle cx="156.00943565368652" cy="81.25572316348553" r="2" style="fill: steelblue;"></circle><circle cx="121.28607514831755" cy="59.902167320251465" r="2" style="fill: steelblue;"></circle><circle cx="144.61285207006668" cy="29.32692915201187" r="2" style="fill: steelblue;"></circle><circle cx="168.74119970533584" cy="63.23460340499878" r="2" style="fill: steelblue;"></circle><circle cx="108.29110257327557" cy="62.361570447683334" r="2" style="fill: steelblue;"></circle><circle cx="119.73885695139568" cy="16.506320238113403" r="2" style="fill: steelblue;"></circle><circle cx="184.0851174460517" cy="54.80884611606598" r="2" style="fill: steelblue;"></circle><circle cx="166.60618782043457" cy="92.34962649643421" r="2" style="fill: steelblue;"></circle><circle cx="141.01324147648282" cy="16.211828589439392" r="2" style="fill: steelblue;"></circle><circle cx="157.87151124742294" cy="39.130205661058426" r="2" style="fill: steelblue;"></circle><circle cx="193.75020927853055" cy="43.212077021598816" r="2" style="fill: steelblue;"></circle><circle cx="128.83370121320087" cy="32.382166385650635" r="2" style="fill: steelblue;"></circle><circle cx="71.3632239235772" cy="125.38693509995937" r="2" style="fill: steelblue;"></circle><circle cx="148.6315263642205" cy="131.14950843155384" r="2" style="fill: steelblue;"></circle><circle cx="87.8546138604482" cy="157.06888064742088" r="2" style="fill: steelblue;"></circle><circle cx="134.69804988967047" cy="52.28967070579529" r="2" style="fill: steelblue;"></circle><circle cx="141.21222164895798" cy="172.20441848039627" r="2" style="fill: steelblue;"></circle><circle cx="119.94683576954735" cy="153.35291102528572" r="2" style="fill: steelblue;"></circle><circle cx="144.37069164382086" cy="15.708027780056" r="2" style="fill: steelblue;"></circle><circle cx="171.1165640089247" cy="60.639044642448425" r="2" style="fill: steelblue;"></circle><circle cx="164.90335596932303" cy="58.56570079922676" r="2" style="fill: steelblue;"></circle><circle cx="74.9873916308085" cy="13.288235664367676" r="2" style="fill: steelblue;"></circle><circle cx="77.26732227537367" cy="57.47174695134163" r="2" style="fill: steelblue;"></circle><circle cx="113.9691656248437" cy="102.90407869033515" r="2" style="fill: steelblue;"></circle><circle cx="93.56960819827187" cy="46.15011289715767" r="2" style="fill: steelblue;"></circle><circle cx="155.0854676299625" cy="74.97385926544666" r="2" style="fill: steelblue;"></circle><circle cx="125.14311075210571" cy="99.93009493482532" r="2" style="fill: steelblue;"></circle><circle cx="167.71972179412842" cy="56.3211128115654" r="2" style="fill: steelblue;"></circle><circle cx="56.030703915490044" cy="163.19426000118256" r="2" style="fill: steelblue;"></circle><circle cx="152.71272261937457" cy="95.51546340808272" r="2" style="fill: steelblue;"></circle><circle cx="108.65621330837409" cy="97.40155227482319" r="2" style="fill: steelblue;"></circle><circle cx="127.94135014216106" cy="86.91847920417786" r="2" style="fill: steelblue;"></circle><circle cx="53.406218687693276" cy="66.2940502166748" r="2" style="fill: steelblue;"></circle><circle cx="151.38552255100674" cy="27.13458091020584" r="2" style="fill: steelblue;"></circle><circle cx="118.72093627850215" cy="17.008765041828156" r="2" style="fill: steelblue;"></circle><circle cx="127.69806881745656" cy="73.83430600166321" r="2" style="fill: steelblue;"></circle><circle cx="122.41466922892464" cy="82.74054564535618" r="2" style="fill: steelblue;"></circle><circle cx="106.75127266181839" cy="136.32725775241852" r="2" style="fill: steelblue;"></circle><circle cx="95.97547849019368" cy="32.249024510383606" r="2" style="fill: steelblue;"></circle><circle cx="148.7365596824222" cy="91.52819253504276" r="2" style="fill: steelblue;"></circle><circle cx="146.93576759762234" cy="71.9985369592905" r="2" style="fill: steelblue;"></circle><circle cx="74.86598690350851" cy="55.93526214361191" r="2" style="fill: steelblue;"></circle><circle cx="78.59922448794046" cy="154.5889511704445" r="2" style="fill: steelblue;"></circle><circle cx="101.09525670607884" cy="127.29988284409046" r="2" style="fill: steelblue;"></circle><circle cx="49.117392963833275" cy="158.48445370793343" r="2" style="fill: steelblue;"></circle><circle cx="108.2265501221021" cy="135.96214205026627" r="2" style="fill: steelblue;"></circle><circle cx="72.9418330722385" cy="111.92104537039995" r="2" style="fill: steelblue;"></circle></g></svg>