<svg xmlns="http://www.w3.org/2000/svg"><g transform="translate(40,20)"><circle cx="384.83063220977783" cy="127.53649966584311" r="3" style="fill: steelblue;"></circle><circle cx="204.38546776771548" cy="187.11837319036323" r="3" style="fill: steelblue;"></circle><circle cx="397.5192332267761" cy="162.99389799435932" r="3" style="fill: steelblue;"></circle><circle cx="363.10599088668823" cy="186.86059593326513" r="3" style="fill: steelblue;"></circle><circle cx="315.36432445049286" cy="107.3760911822319" r="3" style="fill: steelblue;"></circle><circle cx="271.8379282951355" cy="116.21228191587659" r="3" style="fill: steelblue;"></circle><circle cx="441.6825556755066" cy="119.0012204978201" r="3" style="fill: steelblue;"></circle><circle cx="341.7069339752198" cy="79.78464994165631" r="3" style="fill: steelblue;"></circle><circle cx="374.1594010591507" cy="63.92407748434278" r="3" style="fill: steelblue;"></circle><circle cx="448.9412569999695" cy="76.99633141358692" r="3" style="fill: steelblue;"></circle><circle cx="371.83805644512177" cy="130.20025110907022" r="3" style="fill: steelblue;"></circle><circle cx="334.43270266056066" cy="138.03518232372073" r="3" style="fill: steelblue;"></circle><circle cx="312.06819355487823" cy="149.01299277941388" r="3" style="fill: steelblue;"></circle><circle cx="309.1562980413437" cy="178.36424687670336" r="3" style="fill: steelblue;"></circle><circle cx="282.94331073760986" cy="225.91860509581034" r="3" style="fill: steelblue;"></circle><circle cx="283.5521811246872" cy="130.91793739133408" r="3" style="fill: steelblue;"></circle><circle cx="460.98820209503174" cy="148.5692399243514" r="3" style="fill: steelblue;"></circle><circle cx="429.5255506038666" cy="60.248606734805655" r="3" style="fill: steelblue;"></circle><circle cx="312.00298458337784" cy="140.02813978327646" r="3" style="fill: steelblue;"></circle><circle cx="366.9860118627548" cy="123.79697213570279" r="3" style="fill: steelblue;"></circle><circle cx="288.83746951818466" cy="195.19609085465265" r="3" style="fill: steelblue;"></circle><circle cx="265.06230399012566" cy="92.4431367052926" r="3" style="fill: steelblue;"></circle><circle cx="270.9310667216778" cy="291.49869001573984" r="3" style="fill: steelblue;"></circle><circle cx="467.41586565971375" cy="168.71269254220857" r="3" style="fill: steelblue;"></circle><circle cx="221.42936043441298" cy="189.83710733138855" r="3" style="fill: steelblue;"></circle><circle cx="266.14662274718285" cy="147.92516041133138" r="3" style="fill: steelblue;"></circle><circle cx="237.99181544221938" cy="243.02569735381337" r="3" style="fill: steelblue;"></circle><circle cx="229.62364308536056" cy="251.91875050465262" r="3" style="fill: steelblue;"></circle><circle cx="241.34820328094065" cy="256.0836697618166" r="3" style="fill: steelblue;"></circle><circle cx="239.62525984738025" cy="97.27121227317384" r="3" style="fill: steelblue;"></circle><circle cx="164.69525635242462" cy="245.43555991517172" r="3" style="fill: steelblue;"></circle><circle cx="235.39817310869694" cy="172.33635837005244" r="3" style="fill: steelblue;"></circle><circle cx="204.99239802360535" cy="257.21960845920773" r="3" style="fill: steelblue;"></circle><circle cx="220.1944613456726" cy="246.52818176481458" r="3" style="fill: steelblue;"></circle><circle cx="247.33761694282293" cy="118.86874337991077" r="3" style="fill: steelblue;"></circle><circle cx="178.21504265069962" cy="171.0159724785222" r="3" style="fill: steelblue;"></circle><circle cx="87.62495756149293" cy="245.0635623600748" r="3" style="fill: steelblue;"></circle><circle cx="291.4861598610878" cy="235.34452501270505" r="3" style="fill: steelblue;"></circle><circle cx="236.52375793084502" cy="234.65106139580405" r="3" style="fill: steelblue;"></circle><circle cx="299.52760130167013" cy="230.3525495032469" r="3" style="fill: steelblue;"></circle><circle cx="276.8078202009201" cy="186.64329457614156" r="3" style="fill: steelblue;"></circle><circle cx="257.55707412958145" cy="249.5725999275843" r="3" style="fill: steelblue;"></circle><circle cx="37.47573137283326" cy="229.13951550920802" r="3" style="fill: steelblue;"></circle><circle cx="325.79929769039154" cy="213.11726545294124" r="3" style="fill: steelblue;"></circle><circle cx="108.48995089530946" cy="211.55827326907053" r="3" style="fill: steelblue;"></circle><circle cx="134.10685300827026" cy="243.59995126724243" r="3" style="fill: steelblue;"></circle><circle cx="103.71190845966339" cy="236.8808823327223" r="3" style="fill: steelblue;"></circle><circle cx="237.64583325013518" cy="270.71069429318106" r="3" style="fill: steelblue;"></circle><circle cx="311.54266834259033" cy="206.3256944012311" r="3" style="fill: steelblue;"></circle><circle cx="226.05097532272342" cy="158.3137371473842" r="3" style="fill: steelblue;"></circle><circle cx="308.39911937713623" cy="201.08453618983424" r="3" style="fill: steelblue;"></circle><circle cx="340.8321940898895" cy="242.1693131327629" r="3" style="fill: steelblue;"></circle><circle cx="158.0818498134613" cy="217.83724592791663" r="3" style="fill: steelblue;"></circle><circle cx="164.5280742645264" cy="290.20079556438657" r="3" style="fill: steelblue;"></circle><circle cx="200.46316623687744" cy="120.64314633607864" r="3" style="fill: steelblue;"></circle><circle cx="154.22998309135437" cy="206.00805514388617" r="3" style="fill: steelblue;"></circle><circle cx="182.94424653053284" cy="246.8719176120228" r="3" style="fill: steelblue;"></circle><circle cx="173.85398089885712" cy="146.71292031804722" r="3" style="fill: steelblue;"></circle><circle cx="203.17567080259323" cy="315.0363696946038" r="3" style="fill: steelblue;"></circle><circle cx="177.4863713979721" cy="236.94796404904787" r="3" style="fill: steelblue;"></circle><circle cx="395.44155836105347" cy="137.1933635738161" r="3" style="fill: steelblue;"></circle><circle cx="280.8480495214462" cy="223.80871242947046" r="3" style="fill: steelblue;"></circle><circle cx="239.23973393160853" cy="132.10264593362808" r="3" style="fill: steelblue;"></circle><circle cx="410.24654746055603" cy="86.38937109046513" r="3" style="fill: steelblue;"></circle><circle cx="331.44420325756073" cy="173.7407630102502" r="3" style="fill: steelblue;"></circle><circle cx="303.27459365129477" cy="128.7075090739462" r="3" style="fill: steelblue;"></circle><circle cx="299.61229652166367" cy="204.04512248933315" r="3" style="fill: steelblue;"></circle><circle cx="412.19082713127136" cy="67.4492402209176" r="3" style="fill: steelblue;"></circle><circle cx="349.01635587215424" cy="195.90964170897172" r="3" style="fill: steelblue;"></circle><circle cx="366.7826020717621" cy="21.164745092391968" r="3" style="fill: steelblue;"></circle><circle cx="213.31324741244316" cy="161.56497225165367" r="3" style="fill: steelblue;"></circle><circle cx="277.8659427165985" cy="268.63386150863437" r="3" style="fill: steelblue;"></circle><circle cx="262.15373888611794" cy="232.44578474097784" r="3" style="fill: steelblue;"></circle><circle cx="114.16510283946991" cy="208.1175305777126" r="3" style="fill: steelblue;"></circle><circle cx="191.06431245803833" cy="281.24124308427173" r="3" style="fill: steelblue;"></circle><circle cx="223.82565267384052" cy="260.2835496266683" r="3" style="fill: steelblue;"></circle><circle cx="176.9586020708084" cy="147.87760749459267" r="3" style="fill: steelblue;"></circle><circle cx="123.40601027011871" cy="215.8265169709921" r="3" style="fill: steelblue;"></circle><circle cx="70.73630332946779" cy="274.53917347722586" r="3" style="fill: steelblue;"></circle><circle cx="354.14583027362823" cy="177.04353212482397" r="3" style="fill: steelblue;"></circle><circle cx="106.34657979011537" cy="163.07798193560706" r="3" style="fill: steelblue;"></circle><circle cx="224.69616137444973" cy="239.40353964765865" r="3" style="fill: steelblue;"></circle><circle cx="85.44146060943604" cy="206.2515320463313" r="3" style="fill: steelblue;"></circle><circle cx="273.44369754195213" cy="182.47638622091876" r="3" style="fill: steelblue;"></circle><circle cx="323.09055268764496" cy="178.8280109564463" r="3" style="fill: steelblue;"></circle><circle cx="183.75363886356357" cy="205.91195186393128" r="3" style="fill: steelblue;"></circle><circle cx="159.84013617038727" cy="229.8394954866833" r="3" style="fill: steelblue;"></circle><circle cx="248.4398550912738" cy="205.24658987091647" r="3" style="fill: steelblue;"></circle><circle cx="269.343943297863" cy="77.91841526826221" r="3" style="fill: steelblue;"></circle><circle cx="106.98035001754761" cy="69.95389858881634" r="3" style="fill: steelblue;"></circle><circle cx="282.07015335559845" cy="117.93851769632762" r="3" style="fill: steelblue;"></circle><circle cx="362.3458707332611" cy="171.58134136762885" r="3" style="fill: steelblue;"></circle><circle cx="223.2942858338356" cy="214.91688924531138" r="3" style="fill: steelblue;"></circle><circle cx="350.8290910720825" cy="134.22615660561456" r="3" style="fill: steelblue;"></circle><circle cx="272.0869021117687" cy="229.42755950821768" r="3" style="fill: steelblue;"></circle><circle cx="200.37315130233765" cy="285.6932762596342" r="3" style="fill: steelblue;"></circle><circle cx="177.99264281988144" cy="246.47051675452124" r="3" style="fill: steelblue;"></circle><circle cx="236.7389915138483" cy="255.45711980925665" r="3" style="fill: steelblue;"></circle><circle cx="172.22585320472717" cy="266.3622564739651" r="3" style="fill: steelblue;"></circle><circle cx="186.1332142353058" cy="133.4448829293251" r="3" style="fill: steelblue;"></circle><circle cx="329.37461972236633" cy="240.92022329568863" r="3" style="fill: steelblue;"></circle><circle cx="164.83888864517212" cy="205.5694974131054" r="3" style="fill: steelblue;"></circle><circle cx="311.55989706516266" cy="194.880900801056" r="3" style="fill: steelblue;"></circle><circle cx="382.98949241638184" cy="201.95564234422312" r="3" style="fill: steelblue;"></circle><circle cx="244.87327482551336" cy="299.29387403859033" r="3" style="fill: steelblue;"></circle><circle cx="39.87248182296754" cy="241.9003169569704" r="3" style="fill: steelblue;"></circle><circle cx="443.2141149044037" cy="160.5536701778571" r="3" style="fill: steelblue;"></circle><circle cx="364.26159381866455" cy="170.4289321270254" r="3" style="fill: steelblue;"></circle><circle cx="343.76793444156647" cy="221.02365063296423" r="3" style="fill: steelblue;"></circle><circle cx="513.5888242721558" cy="111.47863417863846" r="3" style="fill: steelblue;"></circle><circle cx="305.1539236307145" cy="108.0484381980366" r="3" style="fill: steelblue;"></circle><circle cx="409.2299723625183" cy="203.9780900296238" r="3" style="fill: steelblue;"></circle><circle cx="245.40675669908524" cy="306.5276543299357" r="3" style="fill: steelblue;"></circle><circle cx="117.35377550125122" cy="220.24989873170853" r="3" style="fill: steelblue;"></circle><circle cx="221.83029480278492" cy="258.8666280110677" r="3" style="fill: steelblue;"></circle><circle cx="214.26804676651955" cy="221.30316744248069" r="3" style="fill: steelblue;"></circle><circle cx="110.73818743228914" cy="207.65119646158485" r="3" style="fill: steelblue;"></circle><circle cx="28.59604597091676" cy="224.1729593111409" r="3" style="fill: steelblue;"></circle></g></svg>