<svg xmlns="http://www.w3.org/2000/svg"><g><circle cx="25.012595951557167" cy="158.99209901690483" r="2" style="fill: steelblue;"></circle><circle cx="108.42343829572201" cy="57.884516566991806" r="2" style="fill: steelblue;"></circle><circle cx="98.50210826843977" cy="115.50224795937538" r="2" style="fill: steelblue;"></circle><circle cx="6.651772558689123" cy="177.6878073811531" r="2" style="fill: steelblue;"></circle><circle cx="4.6742245554924065" cy="182.45260268449783" r="2" style="fill: steelblue;"></circle><circle cx="6.269006431102758" cy="130.91062046587467" r="2" style="fill: steelblue;"></circle><circle cx="60.74187755584717" cy="68.4770479798317" r="2" style="fill: steelblue;"></circle><circle cx="80.18709942698479" cy="123.3139656484127" r="2" style="fill: steelblue;"></circle><circle cx="83.45174081623554" cy="142.13791340589523" r="2" style="fill: steelblue;"></circle><circle cx="83.87926816940308" cy="156.15883693099022" r="2" style="fill: steelblue;"></circle><circle cx="88.61848842352629" cy="85.66769156605005" r="2" style="fill: steelblue;"></circle><circle cx="78.69432345032692" cy="121.61730267107487" r="2" style="fill: steelblue;"></circle><circle cx="67.08064153790474" cy="50.13007149100304" r="2" style="fill: steelblue;"></circle><circle cx="93.5410562902689" cy="145.85972055792809" r="2" style="fill: steelblue;"></circle><circle cx="60.59328317642212" cy="138.2019728422165" r="2" style="fill: steelblue;"></circle><circle cx="90.20470678806305" cy="98.26207966543734" r="2" style="fill: steelblue;"></circle><circle cx="106.79453834891319" cy="95.32814836129546" r="2" style="fill: steelblue;"></circle><circle cx="66.70396625995636" cy="109.72424354404211" r="2" style="fill: steelblue;"></circle><circle cx="45.10668516159058" cy="81.76873661577702" r="2" style="fill: steelblue;"></circle><circle cx="94.97425695881248" cy="48.21760058403015" r="2" style="fill: steelblue;"></circle><circle cx="62.5227190554142" cy="120.92863060534" r="2" style="fill: steelblue;"></circle><circle cx="144.08251866698265" cy="118.52370984852314" r="2" style="fill: steelblue;"></circle><circle cx="72.34299778938293" cy="104.15042415261269" r="2" style="fill: steelblue;"></circle><circle cx="48.686681687831886" cy="61.42244338989258" r="2" style="fill: steelblue;"></circle><circle cx="50.7937915623188" cy="118.84406432509422" r="2" style="fill: steelblue;"></circle><circle cx="130.4622296243906" cy="121.00158296525478" r="2" style="fill: steelblue;"></circle><circle cx="58.72705429792404" cy="90.8311516046524" r="2" style="fill: steelblue;"></circle><circle cx="78.47501374781132" cy="156.99099227786064" r="2" style="fill: steelblue;"></circle><circle cx="138.22074830532074" cy="161.28018721938133" r="2" style="fill: steelblue;"></circle><circle cx="144.70576718449593" cy="187.93575316667557" r="2" style="fill: steelblue;"></circle><circle cx="116.20440743863583" cy="13.483291864395142" r="2" style="fill: steelblue;"></circle><circle cx="159.8992481827736" cy="63.66981416940689" r="2" style="fill: steelblue;"></circle><circle cx="113.86734005063772" cy="129.12846580147743" r="2" style="fill: steelblue;"></circle><circle cx="102.44455528445542" cy="141.72856360673904" r="2" style="fill: steelblue;"></circle><circle cx="92.97796422615647" cy="41.57551974058151" r="2" style="fill: steelblue;"></circle><circle cx="95.60536025092006" cy="28.27872931957245" r="2" style="fill: steelblue;"></circle><circle cx="91.18260852992535" cy="127.43552438914776" r="2" style="fill: steelblue;"></circle><circle cx="55.10499179363251" cy="173.57259094715118" r="2" style="fill: steelblue;"></circle><circle cx="26.31975561380387" cy="122.058280184865" r="2" style="fill: steelblue;"></circle><circle cx="31.87223374843598" cy="145.66194862127304" r="2" style="fill: steelblue;"></circle><circle cx="56.768009811639786" cy="105.39327459409833" r="2" style="fill: steelblue;"></circle><circle cx="183.32323282957077" cy="133.25794264674187" r="2" style="fill: steelblue;"></circle><circle cx="74.65416043996811" cy="168.08605790138245" r="2" style="fill: steelblue;"></circle><circle cx="89.41981513053179" cy="10.954974591732025" r="2" style="fill: steelblue;"></circle><circle cx="120.10545320808887" cy="102.70403269678354" r="2" style="fill: steelblue;"></circle><circle cx="132.41559863090515" cy="88.55010885745287" r="2" style="fill: steelblue;"></circle><circle cx="146.160951256752" cy="76.16276144981384" r="2" style="fill: steelblue;"></circle><circle cx="47.11743667721749" cy="106.33366126567125" r="2" style="fill: steelblue;"></circle><circle cx="143.3029681444168" cy="133.8306501507759" r="2" style="fill: steelblue;"></circle><circle cx="147.77255281805992" cy="55.39359748363495" r="2" style="fill: steelblue;"></circle><circle cx="119.69005726277828" cy="110.43910533189774" r="2" style="fill: steelblue;"></circle><circle cx="82.81716927886009" cy="47.35562801361084" r="2" style="fill: steelblue;"></circle><circle cx="71.28831408917904" cy="69.85617466270924" r="2" style="fill: steelblue;"></circle><circle cx="135.98755970597267" cy="151.7517775297165" r="2" style="fill: steelblue;"></circle><circle cx="39.06699493527413" cy="140.29755294322968" r="2" style="fill: steelblue;"></circle><circle cx="46.23214378952981" cy="175.7458359003067" r="2" style="fill: steelblue;"></circle><circle cx="158.17869678139687" cy="103.48739326000214" r="2" style="fill: steelblue;"></circle><circle cx="101.01524218916893" cy="115.70996828377247" r="2" style="fill: steelblue;"></circle><circle cx="75.87820887565613" cy="106.36897422373295" r="2" style="fill: steelblue;"></circle><circle cx="115.31618181616068" cy="111.42708957195282" r="2" style="fill: steelblue;"></circle><circle cx="92.88907693699002" cy="150.36217346787453" r="2" style="fill: steelblue;"></circle><circle cx="56.68616145849228" cy="153.34483832120895" r="2" style="fill: steelblue;"></circle><circle cx="87.42732591927052" cy="186.8052914738655" r="2" style="fill: steelblue;"></circle><circle cx="31.201227009296424" cy="171.55682146549225" r="2" style="fill: steelblue;"></circle><circle cx="105.4161068983376" cy="172.0849111676216" r="2" style="fill: steelblue;"></circle><circle cx="37.50235810875893" cy="161.52700260281563" r="2" style="fill: steelblue;"></circle><circle cx="37.69376352429391" cy="175.56936144828796" r="2" style="fill: steelblue;"></circle><circle cx="42.142743617296226" cy="193.75084936618805" r="2" style="fill: steelblue;"></circle><circle cx="95.1847936026752" cy="165.7273232936859" r="2" style="fill: steelblue;"></circle><circle cx="45.20027190446854" cy="111.22903916984797" r="2" style="fill: steelblue;"></circle><circle cx="50.340643525123596" cy="170.97923010587692" r="2" style="fill: steelblue;"></circle><circle cx="134.7658358514309" cy="26.224984228610992" r="2" style="fill: steelblue;"></circle><circle cx="146.87412083148956" cy="62.19586953520775" r="2" style="fill: steelblue;"></circle><circle cx="67.57311746478081" cy="109.00733470916748" r="2" style="fill: steelblue;"></circle><circle cx="106.28981878980994" cy="22.54599928855896" r="2" style="fill: steelblue;"></circle><circle cx="94.46831829845905" cy="89.41237479448318" r="2" style="fill: steelblue;"></circle><circle cx="131.23280219733715" cy="54.023316502571106" r="2" style="fill: steelblue;"></circle><circle cx="70.16076184809208" cy="113.7848099693656" r="2" style="fill: steelblue;"></circle><circle cx="138.59204053878784" cy="30.71036785840988" r="2" style="fill: steelblue;"></circle><circle cx="143.05439442396164" cy="45.17877325415611" r="2" style="fill: steelblue;"></circle><circle cx="105.26500446721911" cy="49.586205184459686" r="2" style="fill: steelblue;"></circle><circle cx="178.56489717960358" cy="149.69964176416397" r="2" style="fill: steelblue;"></circle><circle cx="104.30289283394814" cy="105.67232072353363" r="2" style="fill: steelblue;"></circle><circle cx="106.78781187161803" cy="125.25394037365913" r="2" style="fill: steelblue;"></circle><circle cx="84.76056940853596" cy="60.6718011200428" r="2" style="fill: steelblue;"></circle><circle cx="84.96582359075546" cy="157.04272165894508" r="2" style="fill: steelblue;"></circle><circle cx="91.07518792152405" cy="95.42498914524913" r="2" style="fill: steelblue;"></circle><circle cx="81.92010633647442" cy="133.6296297609806" r="2" style="fill: steelblue;"></circle><circle cx="97.1900584641844" cy="174.27246123552322" r="2" style="fill: steelblue;"></circle><circle cx="104.15470264852047" cy="107.69819878041744" r="2" style="fill: steelblue;"></circle><circle cx="166.68204069137573" cy="46.53295353055" r="2" style="fill: steelblue;"></circle><circle cx="118.98211054503918" cy="98.2062338385731" r="2" style="fill: steelblue;"></circle><circle cx="120.16099914908409" cy="77.96189226210117" r="2" style="fill: steelblue;"></circle><circle cx="134.42218154668808" cy="106.1578112654388" r="2" style="fill: steelblue;"></circle><circle cx="95.34445768222213" cy="85.93658581376076" r="2" style="fill: steelblue;"></circle><circle cx="168.21834295988083" cy="26.261208951473236" r="2" style="fill: steelblue;"></circle><circle cx="159.01585146784782" cy="35.73320657014847" r="2" style="fill: steelblue;"></circle><circle cx="159.5426708459854" cy="65.29131382703781" r="2" style="fill: steelblue;"></circle><circle cx="108.23293626308441" cy="136.68201714754105" r="2" style="fill: steelblue;"></circle><circle cx="100.78927050344646" cy="77.60382294654846" r="2" style="fill: steelblue;"></circle><circle cx="147.269307076931" cy="57.328423857688904" r="2" style="fill: steelblue;"></circle><circle cx="124.07658658921719" cy="61.78668737411499" r="2" style="fill: steelblue;"></circle><circle cx="143.106060475111" cy="68.8031543046236" r="2" style="fill: steelblue;"></circle><circle cx="128.91557849943638" cy="46.97316363453865" r="2" style="fill: steelblue;"></circle><circle cx="140.6883805990219" cy="52.584825456142426" r="2" style="fill: steelblue;"></circle><circle cx="73.43834117054939" cy="80.39507120847702" r="2" style="fill: steelblue;"></circle><circle cx="124.560971185565" cy="135.25614365935326" r="2" style="fill: steelblue;"></circle><circle cx="141.6056178510189" cy="134.9925309419632" r="2" style="fill: steelblue;"></circle><circle cx="173.40165972709656" cy="73.37418980896473" r="2" style="fill: steelblue;"></circle><circle cx="99.86593617359176" cy="110.91927662491798" r="2" style="fill: steelblue;"></circle><circle cx="184.6283808350563" cy="72.7872908115387" r="2" style="fill: steelblue;"></circle><circle cx="82.71850310266018" cy="41.122040152549744" r="2" style="fill: steelblue;"></circle><circle cx="29.697386920452125" cy="75.3830824047327" r="2" style="fill: steelblue;"></circle><circle cx="47.500955313444145" cy="125.01488104462624" r="2" style="fill: steelblue;"></circle><circle cx="78.01111452281475" cy="176.3159692287445" r="2" style="fill: steelblue;"></circle><circle cx="43.98716092109681" cy="118.74421536922455" r="2" style="fill: steelblue;"></circle><circle cx="36.34914606809617" cy="104.20604692772031" r="2" style="fill: steelblue;"></circle><circle cx="33.481663465499885" cy="42.720815539360046" r="2" style="fill: steelblue;"></circle></g></svg>