<svg xmlns="http://www.w3.org/2000/svg"><g><circle cx="49.440736323595054" cy="174.98740404844284" r="2" style="fill: steelblue;"></circle><circle cx="10.254172980785375" cy="91.57656170427799" r="2" style="fill: steelblue;"></circle><circle cx="80.15161976218224" cy="101.49789173156023" r="2" style="fill: steelblue;"></circle><circle cx="9.613199532032018" cy="193.34822744131088" r="2" style="fill: steelblue;"></circle><circle cx="108.55166837573051" cy="195.3257754445076" r="2" style="fill: steelblue;"></circle><circle cx="112.83165998756886" cy="193.73099356889725" r="2" style="fill: steelblue;"></circle><circle cx="92.46920133009553" cy="139.25812244415283" r="2" style="fill: steelblue;"></circle><circle cx="111.56646478921175" cy="119.81290057301521" r="2" style="fill: steelblue;"></circle><circle cx="68.11802685260773" cy="116.54825918376446" r="2" style="fill: steelblue;"></circle><circle cx="30.115744471549995" cy="116.12073183059692" r="2" style="fill: steelblue;"></circle><circle cx="137.38078102469444" cy="111.38151157647371" r="2" style="fill: steelblue;"></circle><circle cx="194.20305490493774" cy="121.30567654967308" r="2" style="fill: steelblue;"></circle><circle cx="50.89091360569" cy="132.91935846209526" r="2" style="fill: steelblue;"></circle><circle cx="149.9470718204975" cy="106.4589437097311" r="2" style="fill: steelblue;"></circle><circle cx="71.10303491353989" cy="139.40671682357788" r="2" style="fill: steelblue;"></circle><circle cx="93.50275192409754" cy="109.79529321193695" r="2" style="fill: steelblue;"></circle><circle cx="86.59608606249094" cy="93.20546165108681" r="2" style="fill: steelblue;"></circle><circle cx="18.793410062789924" cy="133.29603374004364" r="2" style="fill: steelblue;"></circle><circle cx="105.19089587032795" cy="154.89331483840942" r="2" style="fill: steelblue;"></circle><circle cx="138.18229958415031" cy="105.02574304118752" r="2" style="fill: steelblue;"></circle><circle cx="114.32687882333994" cy="137.4772809445858" r="2" style="fill: steelblue;"></circle><circle cx="162.0138719677925" cy="55.91748133301735" r="2" style="fill: steelblue;"></circle><circle cx="67.83742681145668" cy="127.65700221061707" r="2" style="fill: steelblue;"></circle><circle cx="123.74667674303055" cy="151.31331831216812" r="2" style="fill: steelblue;"></circle><circle cx="71.88305296003819" cy="149.2062084376812" r="2" style="fill: steelblue;"></circle><circle cx="25.144799053668983" cy="69.5377703756094" r="2" style="fill: steelblue;"></circle><circle cx="17.015425860881813" cy="141.27294570207596" r="2" style="fill: steelblue;"></circle><circle cx="99.38033655053005" cy="121.52498625218868" r="2" style="fill: steelblue;"></circle><circle cx="111.11164502799511" cy="61.77925169467926" r="2" style="fill: steelblue;"></circle><circle cx="0.12393146753311712" cy="55.294232815504074" r="2" style="fill: steelblue;"></circle><circle cx="163.54915350675583" cy="83.79559256136417" r="2" style="fill: steelblue;"></circle><circle cx="83.43529365956783" cy="40.10075181722641" r="2" style="fill: steelblue;"></circle><circle cx="124.57106672227383" cy="86.13265994936228" r="2" style="fill: steelblue;"></circle><circle cx="171.48727774620056" cy="97.55544471554458" r="2" style="fill: steelblue;"></circle><circle cx="70.32260149717331" cy="107.02203577384353" r="2" style="fill: steelblue;"></circle><circle cx="144.1575162112713" cy="104.39463974907994" r="2" style="fill: steelblue;"></circle><circle cx="69.76529434323311" cy="108.81739147007465" r="2" style="fill: steelblue;"></circle><circle cx="41.48950651288033" cy="144.8950082063675" r="2" style="fill: steelblue;"></circle><circle cx="91.30097310990095" cy="173.68024438619614" r="2" style="fill: steelblue;"></circle><circle cx="110.43182518333197" cy="168.12776625156403" r="2" style="fill: steelblue;"></circle><circle cx="81.62057623267174" cy="143.23199018836021" r="2" style="fill: steelblue;"></circle><circle cx="189.0357419848442" cy="16.67676717042923" r="2" style="fill: steelblue;"></circle><circle cx="130.81939555704594" cy="125.34583956003189" r="2" style="fill: steelblue;"></circle><circle cx="76.14837810397148" cy="110.58018486946821" r="2" style="fill: steelblue;"></circle><circle cx="155.1586113870144" cy="79.89454679191113" r="2" style="fill: steelblue;"></circle><circle cx="90.50129391252995" cy="67.58440136909485" r="2" style="fill: steelblue;"></circle><circle cx="98.8541123457253" cy="53.839048743247986" r="2" style="fill: steelblue;"></circle><circle cx="88.89902886003256" cy="152.88256332278252" r="2" style="fill: steelblue;"></circle><circle cx="82.71497152745724" cy="56.69703185558319" r="2" style="fill: steelblue;"></circle><circle cx="110.26028487831354" cy="52.22744718194008" r="2" style="fill: steelblue;"></circle><circle cx="104.81566740199924" cy="80.30994273722172" r="2" style="fill: steelblue;"></circle><circle cx="27.506692707538612" cy="117.18283072113991" r="2" style="fill: steelblue;"></circle><circle cx="89.16967865079641" cy="128.71168591082096" r="2" style="fill: steelblue;"></circle><circle cx="93.60121507197618" cy="64.01244029402733" r="2" style="fill: steelblue;"></circle><circle cx="51.02372393012047" cy="160.93300506472588" r="2" style="fill: steelblue;"></circle><circle cx="78.1259186565876" cy="153.7678562104702" r="2" style="fill: steelblue;"></circle><circle cx="31.70063197612763" cy="41.821303218603134" r="2" style="fill: steelblue;"></circle><circle cx="78.49367186427116" cy="98.98475781083107" r="2" style="fill: steelblue;"></circle><circle cx="1.4002233743667658" cy="124.12179112434387" r="2" style="fill: steelblue;"></circle><circle cx="33.38712304830552" cy="84.68381818383932" r="2" style="fill: steelblue;"></circle><circle cx="47.03200832009316" cy="107.11092306300998" r="2" style="fill: steelblue;"></circle><circle cx="96.5886992868036" cy="143.31383854150772" r="2" style="fill: steelblue;"></circle><circle cx="60.1120688021183" cy="112.57267408072948" r="2" style="fill: steelblue;"></circle><circle cx="72.21745550632477" cy="168.79877299070358" r="2" style="fill: steelblue;"></circle><circle cx="89.38279040157795" cy="94.5838931016624" r="2" style="fill: steelblue;"></circle><circle cx="60.5245441198349" cy="162.49764189124107" r="2" style="fill: steelblue;"></circle><circle cx="43.34254041314126" cy="162.3062364757061" r="2" style="fill: steelblue;"></circle><circle cx="27.654527127742774" cy="157.85725638270378" r="2" style="fill: steelblue;"></circle><circle cx="80.18565028905869" cy="104.8152063973248" r="2" style="fill: steelblue;"></circle><circle cx="49.672132730484016" cy="154.79972809553146" r="2" style="fill: steelblue;"></circle><circle cx="38.49729374051095" cy="149.6593564748764" r="2" style="fill: steelblue;"></circle><circle cx="159.16834622621536" cy="65.2341641485691" r="2" style="fill: steelblue;"></circle><circle cx="179.22372967004776" cy="53.12587916851044" r="2" style="fill: steelblue;"></circle><circle cx="128.34412083029747" cy="132.4268825352192" r="2" style="fill: steelblue;"></circle><circle cx="129.9037452787161" cy="93.71018121019006" r="2" style="fill: steelblue;"></circle><circle cx="158.55709686875343" cy="105.53168170154095" r="2" style="fill: steelblue;"></circle><circle cx="126.94803662598133" cy="68.76719780266285" r="2" style="fill: steelblue;"></circle><circle cx="175.70669054985046" cy="129.83923815190792" r="2" style="fill: steelblue;"></circle><circle cx="150.24513229727745" cy="61.40795946121216" r="2" style="fill: steelblue;"></circle><circle cx="175.00185817480087" cy="56.94560557603836" r="2" style="fill: steelblue;"></circle><circle cx="60.691604763269424" cy="94.73499553278089" r="2" style="fill: steelblue;"></circle><circle cx="155.79719692468643" cy="21.435102820396423" r="2" style="fill: steelblue;"></circle><circle cx="139.1255058348179" cy="95.69710716605186" r="2" style="fill: steelblue;"></circle><circle cx="106.78302021697164" cy="93.21218812838197" r="2" style="fill: steelblue;"></circle><circle cx="88.24304435402155" cy="115.23943059146404" r="2" style="fill: steelblue;"></circle><circle cx="64.86565470695496" cy="115.03417640924454" r="2" style="fill: steelblue;"></circle><circle cx="78.85307297110558" cy="108.92481207847595" r="2" style="fill: steelblue;"></circle><circle cx="107.83716235309839" cy="118.07989366352558" r="2" style="fill: steelblue;"></circle><circle cx="118.9107321202755" cy="102.8099415358156" r="2" style="fill: steelblue;"></circle><circle cx="133.16590189933777" cy="95.84529735147953" r="2" style="fill: steelblue;"></circle><circle cx="160.61067059636116" cy="33.31795930862427" r="2" style="fill: steelblue;"></circle><circle cx="175.4849687218666" cy="81.01788945496082" r="2" style="fill: steelblue;"></circle><circle cx="144.35746744275093" cy="79.83900085091591" r="2" style="fill: steelblue;"></circle><circle cx="145.77519372105598" cy="65.57781845331192" r="2" style="fill: steelblue;"></circle><circle cx="125.96413902938366" cy="104.65554231777787" r="2" style="fill: steelblue;"></circle><circle cx="147.0668487250805" cy="31.78165704011917" r="2" style="fill: steelblue;"></circle><circle cx="187.1885046362877" cy="40.984148532152176" r="2" style="fill: steelblue;"></circle><circle cx="57.17853680253029" cy="40.45732915401459" r="2" style="fill: steelblue;"></circle><circle cx="79.9081776291132" cy="91.76706373691559" r="2" style="fill: steelblue;"></circle><circle cx="116.96953177452087" cy="99.21072949655354" r="2" style="fill: steelblue;"></circle><circle cx="117.42750033736229" cy="52.730692923069" r="2" style="fill: steelblue;"></circle><circle cx="125.44469013810158" cy="75.92341341078281" r="2" style="fill: steelblue;"></circle><circle cx="112.44041975587606" cy="56.89393952488899" r="2" style="fill: steelblue;"></circle><circle cx="102.87044979631901" cy="71.08442150056362" r="2" style="fill: steelblue;"></circle><circle cx="158.92952159047127" cy="59.31161940097809" r="2" style="fill: steelblue;"></circle><circle cx="164.10452723503113" cy="126.56165882945061" r="2" style="fill: steelblue;"></circle><circle cx="135.22327914834023" cy="75.439028814435" r="2" style="fill: steelblue;"></circle><circle cx="170.67334651947021" cy="58.394382148981094" r="2" style="fill: steelblue;"></circle><circle cx="81.70211724936962" cy="26.598340272903442" r="2" style="fill: steelblue;"></circle><circle cx="140.07722437381744" cy="100.13406382640824" r="2" style="fill: steelblue;"></circle><circle cx="134.89887714385986" cy="15.371619164943695" r="2" style="fill: steelblue;"></circle><circle cx="96.68241362087429" cy="117.28149689733982" r="2" style="fill: steelblue;"></circle><circle cx="35.9629899263382" cy="170.30261307954788" r="2" style="fill: steelblue;"></circle><circle cx="24.327798187732704" cy="152.49904468655586" r="2" style="fill: steelblue;"></circle><circle cx="35.54160743951798" cy="121.98888547718525" r="2" style="fill: steelblue;"></circle><circle cx="37.58175894618035" cy="156.0128390789032" r="2" style="fill: steelblue;"></circle><circle cx="59.596794098615646" cy="163.65085393190384" r="2" style="fill: steelblue;"></circle><circle cx="101.97493797168136" cy="166.51833653450012" r="2" style="fill: steelblue;"></circle></g></svg>