<svg xmlns="http://www.w3.org/2000/svg"><g><circle cx="22.9037880897522" cy="72.28981388939751" r="2" style="fill: steelblue;"></circle><circle cx="37.874859012663364" cy="70.8404822482003" r="2" style="fill: steelblue;"></circle><circle cx="40.456282161176205" cy="22.37772709793515" r="2" style="fill: steelblue;"></circle><circle cx="59.50584467500448" cy="45.1846795467039" r="2" style="fill: steelblue;"></circle><circle cx="23.639437928795818" cy="65.2500996987025" r="2" style="fill: steelblue;"></circle><circle cx="62.74926122277975" cy="52.543766134315064" r="2" style="fill: steelblue;"></circle><circle cx="42.839937563985586" cy="67.95771188206143" r="2" style="fill: steelblue;"></circle><circle cx="72.91272953152657" cy="54.15580686595705" r="2" style="fill: steelblue;"></circle><circle cx="14.179728180170063" cy="57.2219236029519" r="2" style="fill: steelblue;"></circle><circle cx="29.349086061120033" cy="41.451218186153305" r="2" style="fill: steelblue;"></circle><circle cx="57.07803666591644" cy="67.00514025158353" r="2" style="fill: steelblue;"></circle><circle cx="33.54034125804901" cy="21.53377168708378" r="2" style="fill: steelblue;"></circle><circle cx="40.90455938130617" cy="66.22167858812544" r="2" style="fill: steelblue;"></circle><circle cx="42.96513386070728" cy="78.12126411332024" r="2" style="fill: steelblue;"></circle><circle cx="10.920639336109165" cy="47.31843554311329" r="2" style="fill: steelblue;"></circle><circle cx="32.57627710700035" cy="50.484647519058655" r="2" style="fill: steelblue;"></circle><circle cx="62.017893604934216" cy="46.80252215928502" r="2" style="fill: steelblue;"></circle><circle cx="77.24090591073036" cy="27.53566967116462" r="2" style="fill: steelblue;"></circle><circle cx="76.02661959826946" cy="13.993626832962036" r="2" style="fill: steelblue;"></circle><circle cx="62.703717686235905" cy="20.02700765927633" r="2" style="fill: steelblue;"></circle><circle cx="72.97574654221535" cy="57.671500742435455" r="2" style="fill: steelblue;"></circle><circle cx="54.276483319699764" cy="17.233705520629883" r="2" style="fill: steelblue;"></circle><circle cx="47.84210161305964" cy="77.44895683394539" r="2" style="fill: steelblue;"></circle><circle cx="31.803379952907562" cy="59.331411454412674" r="2" style="fill: steelblue;"></circle><circle cx="66.60051941871643" cy="50.10888742076026" r="2" style="fill: steelblue;"></circle><circle cx="21.317779272794727" cy="41.76229151586691" r="2" style="fill: steelblue;"></circle><circle cx="29.8826202750206" cy="41.52865351902114" r="2" style="fill: steelblue;"></circle><circle cx="36.89375165849924" cy="68.99750663174522" r="2" style="fill: steelblue;"></circle><circle cx="35.96722446382046" cy="67.05471144782173" r="2" style="fill: steelblue;"></circle><circle cx="82.88320451974869" cy="48.502173026402794" r="2" style="fill: steelblue;"></circle><circle cx="42.93062649667263" cy="18.559430374039543" r="2" style="fill: steelblue;"></circle><circle cx="87.93791681528091" cy="16.675642132759094" r="2" style="fill: steelblue;"></circle><circle cx="94.52978819608688" cy="42.74223906298479" r="2" style="fill: steelblue;"></circle><circle cx="49.30075212614611" cy="42.02835526731279" r="2" style="fill: steelblue;"></circle><circle cx="51.85021513607353" cy="35.49815482563443" r="2" style="fill: steelblue;"></circle><circle cx="45.54891791194677" cy="55.233809020784165" r="2" style="fill: steelblue;"></circle><circle cx="7.584612071514132" cy="74.58013561036852" r="2" style="fill: steelblue;"></circle><circle cx="46.41972151584923" cy="74.53528311517503" r="2" style="fill: steelblue;"></circle><circle cx="19.940740615129474" cy="77.59975989659628" r="2" style="fill: steelblue;"></circle><circle cx="67.27063208818436" cy="66.19080007076263" r="2" style="fill: steelblue;"></circle><circle cx="36.25483177602291" cy="57.59449154138565" r="2" style="fill: steelblue;"></circle><circle cx="64.61913716048002" cy="11.29496693611145" r="2" style="fill: steelblue;"></circle><circle cx="67.2946397215128" cy="53.835392163859474" r="2" style="fill: steelblue;"></circle><circle cx="83.01077708601952" cy="34.53307035896513" r="2" style="fill: steelblue;"></circle><circle cx="92.10149124264717" cy="18.961266676584888" r="2" style="fill: steelblue;"></circle><circle cx="50.29883213574067" cy="42.95187873972787" r="2" style="fill: steelblue;"></circle><circle cx="63.441747054457664" cy="24.152548114458728" r="2" style="fill: steelblue;"></circle><circle cx="17.97381713986397" cy="62.534353137016296" r="2" style="fill: steelblue;"></circle><circle cx="31.679201126098633" cy="46.897908217377136" r="2" style="fill: steelblue;"></circle><circle cx="38.5958693921566" cy="72.80304630597432" r="2" style="fill: steelblue;"></circle><circle cx="62.99357134848833" cy="57.33502755562465" r="2" style="fill: steelblue;"></circle><circle cx="55.791615694761276" cy="27.200718058480156" r="2" style="fill: steelblue;"></circle><circle cx="29.852695018053055" cy="42.867075610491966" r="2" style="fill: steelblue;"></circle><circle cx="11.627669632434849" cy="47.95862212777138" r="2" style="fill: steelblue;"></circle><circle cx="19.25361827015877" cy="35.99313911464479" r="2" style="fill: steelblue;"></circle><circle cx="23.37216138839722" cy="71.92096379068163" r="2" style="fill: steelblue;"></circle><circle cx="38.54115977883339" cy="73.44816724459331" r="2" style="fill: steelblue;"></circle><circle cx="43.32126649096608" cy="58.614211943414475" r="2" style="fill: steelblue;"></circle><circle cx="28.39144617319107" cy="58.307046857145096" r="2" style="fill: steelblue;"></circle><circle cx="39.90827891975641" cy="30.511564016342163" r="2" style="fill: steelblue;"></circle><circle cx="17.41321682929993" cy="72.08258840772841" r="2" style="fill: steelblue;"></circle><circle cx="29.844041168689728" cy="35.606036749151016" r="2" style="fill: steelblue;"></circle><circle cx="24.85064528882504" cy="37.23836541175842" r="2" style="fill: steelblue;"></circle><circle cx="18.42405200004578" cy="68.08827254507277" r="2" style="fill: steelblue;"></circle><circle cx="36.01067811250687" cy="69.75965963469612" r="2" style="fill: steelblue;"></circle><circle cx="1.529797166585925" cy="82.58210884200203" r="2" style="fill: steelblue;"></circle><circle cx="33.615994453430176" cy="39.046572893857956" r="2" style="fill: steelblue;"></circle><circle cx="25.673841312527657" cy="63.01334765222337" r="2" style="fill: steelblue;"></circle><circle cx="17.82096475362778" cy="82.32493797938028" r="2" style="fill: steelblue;"></circle><circle cx="29.780303314328194" cy="70.06224592526753" r="2" style="fill: steelblue;"></circle><circle cx="60.72998810559511" cy="91.50635136498344" r="2" style="fill: steelblue;"></circle><circle cx="64.40999936312437" cy="21.99528217315674" r="2" style="fill: steelblue;"></circle><circle cx="50.07574256596854" cy="39.356962425841225" r="2" style="fill: steelblue;"></circle><circle cx="45.400909800082445" cy="27.693573964966667" r="2" style="fill: steelblue;"></circle><circle cx="61.812569573521614" cy="15.629400147332085" r="2" style="fill: steelblue;"></circle><circle cx="97.38051816821098" cy="45.85444871336222" r="2" style="fill: steelblue;"></circle><circle cx="44.6327256038785" cy="40.13057152430216" r="2" style="fill: steelblue;"></circle><circle cx="68.99766363203526" cy="7.957441276974153" r="2" style="fill: steelblue;"></circle><circle cx="66.39161631464958" cy="16.696906089782715" r="2" style="fill: steelblue;"></circle><circle cx="27.934276685118675" cy="29.49337926175859" r="2" style="fill: steelblue;"></circle><circle cx="76.5011414885521" cy="21.06424437628852" r="2" style="fill: steelblue;"></circle><circle cx="99.81368035078049" cy="3.124895360734725" r="2" style="fill: steelblue;"></circle><circle cx="35.840633511543274" cy="35.58314939339956" r="2" style="fill: steelblue;"></circle><circle cx="16.22414514422417" cy="64.3183880382114" r="2" style="fill: steelblue;"></circle><circle cx="46.19066179729998" cy="25.68423681788975" r="2" style="fill: steelblue;"></circle><circle cx="64.442702755332" cy="56.0726930697759" r="2" style="fill: steelblue;"></circle><circle cx="21.685953438282016" cy="32.650975055164764" r="2" style="fill: steelblue;"></circle><circle cx="36.48497089743614" cy="29.393889175521004" r="2" style="fill: steelblue;"></circle><circle cx="35.49921624362469" cy="40.026582115226326" r="2" style="fill: steelblue;"></circle><circle cx="57.55724497139454" cy="27.81465417808957" r="2" style="fill: steelblue;"></circle><circle cx="63.07252608239651" cy="14.441717995537651" r="2" style="fill: steelblue;"></circle><circle cx="81.66954591870308" cy="17.54832201533848" r="2" style="fill: steelblue;"></circle><circle cx="80.89135885238647" cy="62.50630418459575" r="2" style="fill: steelblue;"></circle><circle cx="51.87629321590066" cy="61.366338862313164" r="2" style="fill: steelblue;"></circle><circle cx="82.27232024073601" cy="43.01541718757815" r="2" style="fill: steelblue;"></circle><circle cx="32.05112852156162" cy="53.215195900864074" r="2" style="fill: steelblue;"></circle><circle cx="77.3766778409481" cy="22.457266185018753" r="2" style="fill: steelblue;"></circle><circle cx="43.40663431212306" cy="37.428444623947144" r="2" style="fill: steelblue;"></circle><circle cx="61.62425335496664" cy="16.14013910293579" r="2" style="fill: steelblue;"></circle><circle cx="30.632338672876358" cy="71.98464804225497" r="2" style="fill: steelblue;"></circle><circle cx="57.4275485239923" cy="23.643638690312706" r="2" style="fill: steelblue;"></circle><circle cx="40.91480299830437" cy="45.671893345812954" r="2" style="fill: steelblue;"></circle><circle cx="64.90684412419796" cy="36.02932492891947" r="2" style="fill: steelblue;"></circle><circle cx="52.67330603674054" cy="73.29689065615337" r="2" style="fill: steelblue;"></circle><circle cx="65.71258343756199" cy="24.307238724496628" r="2" style="fill: steelblue;"></circle><circle cx="50.4017865867354" cy="40.639531860748924" r="2" style="fill: steelblue;"></circle><circle cx="72.67615497112274" cy="36.15096559127172" r="2" style="fill: steelblue;"></circle><circle cx="74.49161000549793" cy="38.79266538553768" r="2" style="fill: steelblue;"></circle><circle cx="74.95472133159637" cy="46.624363669090805" r="2" style="fill: steelblue;"></circle><circle cx="67.10261963307858" cy="52.01226075490316" r="2" style="fill: steelblue;"></circle><circle cx="79.30539473891258" cy="25.631720158788895" r="2" style="fill: steelblue;"></circle><circle cx="61.974296532571316" cy="26.532116201188828" r="2" style="fill: steelblue;"></circle><circle cx="24.317420274019245" cy="62.56700654824574" r="2" style="fill: steelblue;"></circle><circle cx="35.32198462635279" cy="60.70038775602977" r="2" style="fill: steelblue;"></circle><circle cx="31.648022308945656" cy="49.45237164696058" r="2" style="fill: steelblue;"></circle><circle cx="68.92364211380482" cy="75.44130351808336" r="2" style="fill: steelblue;"></circle><circle cx="42.11290664970875" cy="45.88672493894895" r="2" style="fill: steelblue;"></circle><circle cx="30.85513524711132" cy="63.52908346388075" r="2" style="fill: steelblue;"></circle></g></svg>