<svg xmlns="http://www.w3.org/2000/svg"><g><circle cx="9.551650285720829" cy="68.40433776378632" r="2" style="fill: steelblue;"></circle><circle cx="30.292487144470215" cy="85.63632037904527" r="2" style="fill: steelblue;"></circle><circle cx="20.37424445152283" cy="59.75811117225223" r="2" style="fill: steelblue;"></circle><circle cx="26.312598917219375" cy="36.254936787817215" r="2" style="fill: steelblue;"></circle><circle cx="37.93453648686409" cy="68.06416246626112" r="2" style="fill: steelblue;"></circle><circle cx="32.216228710280525" cy="64.23604753282335" r="2" style="fill: steelblue;"></circle><circle cx="41.43517936269443" cy="31.982428663306774" r="2" style="fill: steelblue;"></circle><circle cx="31.277392639054195" cy="46.96550650729073" r="2" style="fill: steelblue;"></circle><circle cx="42.46178575687939" cy="47.299008982049095" r="2" style="fill: steelblue;"></circle><circle cx="34.57619597514471" cy="28.345140483644272" r="2" style="fill: steelblue;"></circle><circle cx="13.418544663323297" cy="53.757917715443504" r="2" style="fill: steelblue;"></circle><circle cx="48.176945663160744" cy="34.996179408497284" r="2" style="fill: steelblue;"></circle><circle cx="11.443498399522571" cy="62.291283739937676" r="2" style="fill: steelblue;"></circle><circle cx="43.21950514697367" cy="72.12312122186025" r="2" style="fill: steelblue;"></circle><circle cx="24.80509148703681" cy="41.80290235413445" r="2" style="fill: steelblue;"></circle><circle cx="6.511776977115209" cy="18.74540514416165" r="2" style="fill: steelblue;"></circle><circle cx="59.3290239572525" cy="84.33006472057767" r="2" style="fill: steelblue;"></circle><circle cx="48.78741436534458" cy="76.72495908207364" r="2" style="fill: steelblue;"></circle><circle cx="40.49409901102384" cy="32.62800160381529" r="2" style="fill: steelblue;"></circle><circle cx="53.81690230634477" cy="46.97572622034285" r="2" style="fill: steelblue;"></circle><circle cx="49.483310182889305" cy="28.990764750374687" r="2" style="fill: steelblue;"></circle><circle cx="48.05769042836295" cy="51.080228719446396" r="2" style="fill: steelblue;"></circle><circle cx="58.67902868323856" cy="24.713960952228973" r="2" style="fill: steelblue;"></circle><circle cx="39.162181897295845" cy="51.36492037110858" r="2" style="fill: steelblue;"></circle><circle cx="22.390903035799663" cy="19.510306583510506" r="2" style="fill: steelblue;"></circle><circle cx="27.92863150437673" cy="47.07406436403593" r="2" style="fill: steelblue;"></circle><circle cx="4.849774307674834" cy="70.70827583471934" r="2" style="fill: steelblue;"></circle><circle cx="9.989585479100548" cy="46.39259887238344" r="2" style="fill: steelblue;"></circle><circle cx="33.62679663631651" cy="62.609226504961654" r="2" style="fill: steelblue;"></circle><circle cx="60.65056158436669" cy="62.35476599799262" r="2" style="fill: steelblue;"></circle><circle cx="52.79621415668064" cy="28.892307811313213" r="2" style="fill: steelblue;"></circle><circle cx="77.23644971847534" cy="37.94409806529681" r="2" style="fill: steelblue;"></circle><circle cx="47.55098016725646" cy="45.6528572158681" r="2" style="fill: steelblue;"></circle><circle cx="51.628559993373024" cy="52.9027897450659" r="2" style="fill: steelblue;"></circle><circle cx="45.51050487077898" cy="34.17076766490936" r="2" style="fill: steelblue;"></circle><circle cx="75.55647293726602" cy="67.79439515537686" r="2" style="fill: steelblue;"></circle><circle cx="42.26348855429226" cy="14.983312288920093" r="2" style="fill: steelblue;"></circle><circle cx="15.73295659489102" cy="52.67490131987466" r="2" style="fill: steelblue;"></circle><circle cx="24.56533345911238" cy="37.69014171428151" r="2" style="fill: steelblue;"></circle><circle cx="44.51480437742753" cy="29.91050581137339" r="2" style="fill: steelblue;"></circle><circle cx="15.59417380226983" cy="39.5460006263521" r="2" style="fill: steelblue;"></circle><circle cx="10.353481769561771" cy="12.184854348500574" r="2" style="fill: steelblue;"></circle><circle cx="42.68809114065436" cy="22.288035353024803" r="2" style="fill: steelblue;"></circle><circle cx="83.57348309622871" cy="40.2879203359286" r="2" style="fill: steelblue;"></circle><circle cx="42.633526399731636" cy="31.24043610360887" r="2" style="fill: steelblue;"></circle><circle cx="42.4499480260743" cy="26.83508495489756" r="2" style="fill: steelblue;"></circle><circle cx="32.4860895673434" cy="45.08152889708678" r="2" style="fill: steelblue;"></circle><circle cx="13.534631331761679" cy="66.94790654712253" r="2" style="fill: steelblue;"></circle><circle cx="52.73136927021874" cy="57.74621185329225" r="2" style="fill: steelblue;"></circle><circle cx="8.663229809867014" cy="69.92750300301445" r="2" style="fill: steelblue;"></circle><circle cx="55.01484390762117" cy="56.81790759166082" r="2" style="fill: steelblue;"></circle><circle cx="36.52558906210794" cy="37.121142115857864" r="2" style="fill: steelblue;"></circle><circle cx="39.4878823724058" cy="38.25342423386044" r="2" style="fill: steelblue;"></circle><circle cx="60.05586451954312" cy="52.61044220791923" r="2" style="fill: steelblue;"></circle><circle cx="29.017858372794258" cy="12.804928090837265" r="2" style="fill: steelblue;"></circle><circle cx="26.61798662609524" cy="46.850228640768265" r="2" style="fill: steelblue;"></circle><circle cx="60.40930847326914" cy="51.227359887626434" r="2" style="fill: steelblue;"></circle><circle cx="29.120091928376095" cy="53.78307501475017" r="2" style="fill: steelblue;"></circle><circle cx="47.32479461365276" cy="79.56427269511752" r="2" style="fill: steelblue;"></circle><circle cx="38.72607168224123" cy="72.91140092743767" r="2" style="fill: steelblue;"></circle><circle cx="42.13376463287407" cy="70.99287807941437" r="2" style="fill: steelblue;"></circle><circle cx="41.99800284372436" cy="56.52818928162257" r="2" style="fill: steelblue;"></circle><circle cx="3.328551186455623" cy="50.26704834567176" r="2" style="fill: steelblue;"></circle><circle cx="6.634026103549536" cy="60.41507356696658" r="2" style="fill: steelblue;"></circle><circle cx="13.387676080067953" cy="90.76388610733879" r="2" style="fill: steelblue;"></circle><circle cx="33.49032435152266" cy="72.80553645557828" r="2" style="fill: steelblue;"></circle><circle cx="15.77476263046265" cy="66.55080715815227" r="2" style="fill: steelblue;"></circle><circle cx="45.620923820469116" cy="73.56570098135207" r="2" style="fill: steelblue;"></circle><circle cx="6.316396262910633" cy="84.20376247829861" r="2" style="fill: steelblue;"></circle><circle cx="7.322383589214751" cy="66.88412792152829" r="2" style="fill: steelblue;"></circle><circle cx="34.158193568388626" cy="63.034361600875854" r="2" style="fill: steelblue;"></circle><circle cx="51.419990095827316" cy="17.37601823276944" r="2" style="fill: steelblue;"></circle><circle cx="72.29337029986912" cy="66.23513930373721" r="2" style="fill: steelblue;"></circle><circle cx="63.637830482588875" cy="24.561262130737305" r="2" style="fill: steelblue;"></circle><circle cx="64.12178377310434" cy="40.77084047926797" r="2" style="fill: steelblue;"></circle><circle cx="45.08203382914265" cy="54.824247294002106" r="2" style="fill: steelblue;"></circle><circle cx="15.830370452668935" cy="59.60904492272271" r="2" style="fill: steelblue;"></circle><circle cx="68.41052836842007" cy="66.63765443695915" r="2" style="fill: steelblue;"></circle><circle cx="55.806379516919456" cy="31.591770715183685" r="2" style="fill: steelblue;"></circle><circle cx="49.29017292128669" cy="44.499813000826784" r="2" style="fill: steelblue;"></circle><circle cx="87.90975411732992" cy="20.504442519611786" r="2" style="fill: steelblue;"></circle><circle cx="82.53270983695984" cy="3.5626815425025105" r="2" style="fill: steelblue;"></circle><circle cx="77.15826498137581" cy="44.66424205650886" r="2" style="fill: steelblue;"></circle><circle cx="35.895901587274345" cy="53.92205235030916" r="2" style="fill: steelblue;"></circle><circle cx="37.70015239715576" cy="49.2409879134761" r="2" style="fill: steelblue;"></circle><circle cx="45.7836098348101" cy="50.392122483915756" r="2" style="fill: steelblue;"></circle><circle cx="49.30465560820368" cy="54.309877422120834" r="2" style="fill: steelblue;"></circle><circle cx="22.037430935435825" cy="63.948486579789055" r="2" style="fill: steelblue;"></circle><circle cx="19.556140899658207" cy="31.729686756928764" r="2" style="fill: steelblue;"></circle><circle cx="74.87125462955899" cy="35.06112943092982" r="2" style="fill: steelblue;"></circle><circle cx="28.951629334025913" cy="56.624330745802986" r="2" style="fill: steelblue;"></circle><circle cx="51.266235775417755" cy="37.64854595065117" r="2" style="fill: steelblue;"></circle><circle cx="90.66080980830722" cy="28.710548414124382" r="2" style="fill: steelblue;"></circle><circle cx="44.18706266312963" cy="19.16279329193963" r="2" style="fill: steelblue;"></circle><circle cx="52.653504080242584" cy="23.2939084370931" r="2" style="fill: steelblue;"></circle><circle cx="77.93998983171251" cy="52.053687638706634" r="2" style="fill: steelblue;"></circle><circle cx="83.7128354443444" cy="0.8299840821160198" r="2" style="fill: steelblue;"></circle><circle cx="46.223409639464485" cy="52.65890823470222" r="2" style="fill: steelblue;"></circle><circle cx="23.513023389710323" cy="26.832977268430923" r="2" style="fill: steelblue;"></circle><circle cx="40.32892253663805" cy="76.37491424878439" r="2" style="fill: steelblue;"></circle><circle cx="70.11005216174657" cy="53.27381706900067" r="2" style="fill: steelblue;"></circle><circle cx="64.69843056466844" cy="53.328137596448265" r="2" style="fill: steelblue;"></circle><circle cx="77.82220774226718" cy="27.140197820133636" r="2" style="fill: steelblue;"></circle><circle cx="73.07728396521675" cy="22.857065995534263" r="2" style="fill: steelblue;"></circle><circle cx="72.14740845892165" cy="85.36538746621873" r="2" style="fill: steelblue;"></circle><circle cx="59.223788645532395" cy="18.77427366044786" r="2" style="fill: steelblue;"></circle><circle cx="46.68442859417862" cy="43.373119251595604" r="2" style="fill: steelblue;"></circle><circle cx="64.74488079547882" cy="36.92866464455923" r="2" style="fill: steelblue;"></circle><circle cx="46.310872212052345" cy="37.8787593709098" r="2" style="fill: steelblue;"></circle><circle cx="57.80081467496024" cy="11.962992615169954" r="2" style="fill: steelblue;"></circle><circle cx="55.47685192690955" cy="61.383034785588585" r="2" style="fill: steelblue;"></circle><circle cx="69.4723453786638" cy="42.978637086020576" r="2" style="fill: steelblue;"></circle><circle cx="39.12132870819834" cy="63.6735286977556" r="2" style="fill: steelblue;"></circle><circle cx="20.009084873729282" cy="77.33636365996468" r="2" style="fill: steelblue;"></circle><circle cx="41.28050655126572" cy="77.76108317905002" r="2" style="fill: steelblue;"></circle><circle cx="56.11084500948588" cy="71.27936283747356" r="2" style="fill: steelblue;"></circle><circle cx="53.12540812624825" cy="64.0561044216156" r="2" style="fill: steelblue;"></circle><circle cx="19.53782571686639" cy="60.17238001028697" r="2" style="fill: steelblue;"></circle></g></svg>