<svg xmlns="http://www.w3.org/2000/svg"><g><circle cx="49.47386176791042" cy="79.49604950845242" r="2" style="fill: steelblue;"></circle><circle cx="45.30809745192528" cy="28.942258283495903" r="2" style="fill: steelblue;"></circle><circle cx="41.67623743414879" cy="57.75112397968769" r="2" style="fill: steelblue;"></circle><circle cx="37.97738831490278" cy="88.84390369057655" r="2" style="fill: steelblue;"></circle><circle cx="25.588273257017136" cy="91.22630134224892" r="2" style="fill: steelblue;"></circle><circle cx="46.86887580901384" cy="65.45531023293734" r="2" style="fill: steelblue;"></circle><circle cx="39.47016801685095" cy="34.23852398991585" r="2" style="fill: steelblue;"></circle><circle cx="45.431993156671524" cy="61.65698282420635" r="2" style="fill: steelblue;"></circle><circle cx="25.4603523761034" cy="71.06895670294762" r="2" style="fill: steelblue;"></circle><circle cx="47.33578087761998" cy="78.07941846549511" r="2" style="fill: steelblue;"></circle><circle cx="64.02647327631712" cy="42.833845783025026" r="2" style="fill: steelblue;"></circle><circle cx="31.92428983747959" cy="60.808651335537434" r="2" style="fill: steelblue;"></circle><circle cx="22.876839339733127" cy="25.06503574550152" r="2" style="fill: steelblue;"></circle><circle cx="18.409996479749683" cy="72.92986027896404" r="2" style="fill: steelblue;"></circle><circle cx="39.17714226990938" cy="69.10098642110825" r="2" style="fill: steelblue;"></circle><circle cx="7.728710025548938" cy="49.13103983271867" r="2" style="fill: steelblue;"></circle><circle cx="30.861129239201546" cy="47.66407418064773" r="2" style="fill: steelblue;"></circle><circle cx="50.77839457662776" cy="54.862121772021055" r="2" style="fill: steelblue;"></circle><circle cx="38.26981242746115" cy="40.88436830788851" r="2" style="fill: steelblue;"></circle><circle cx="59.805018082261086" cy="24.108800292015076" r="2" style="fill: steelblue;"></circle><circle cx="78.65765802562237" cy="60.46431530267" r="2" style="fill: steelblue;"></circle><circle cx="68.91474239528179" cy="59.26185492426157" r="2" style="fill: steelblue;"></circle><circle cx="11.957242339849476" cy="52.07521207630634" r="2" style="fill: steelblue;"></circle><circle cx="52.84274714067578" cy="30.71122169494629" r="2" style="fill: steelblue;"></circle><circle cx="27.979499846696854" cy="59.42203216254711" r="2" style="fill: steelblue;"></circle><circle cx="34.245190396904945" cy="60.50079148262739" r="2" style="fill: steelblue;"></circle><circle cx="25.796561688184738" cy="45.4155758023262" r="2" style="fill: steelblue;"></circle><circle cx="43.6546366661787" cy="78.49549613893032" r="2" style="fill: steelblue;"></circle><circle cx="17.150121927261356" cy="80.64009360969067" r="2" style="fill: steelblue;"></circle><circle cx="34.99211575835943" cy="93.96787658333778" r="2" style="fill: steelblue;"></circle><circle cx="48.02075116895139" cy="6.741645932197571" r="2" style="fill: steelblue;"></circle><circle cx="60.33191941678524" cy="31.834907084703445" r="2" style="fill: steelblue;"></circle><circle cx="93.9145565032959" cy="64.56423290073872" r="2" style="fill: steelblue;"></circle><circle cx="42.405857890844345" cy="70.86428180336952" r="2" style="fill: steelblue;"></circle><circle cx="57.17077683657408" cy="20.787759870290756" r="2" style="fill: steelblue;"></circle><circle cx="80.69580905139446" cy="14.139364659786224" r="2" style="fill: steelblue;"></circle><circle cx="53.56254447251558" cy="63.71776219457388" r="2" style="fill: steelblue;"></circle><circle cx="85.46590730547905" cy="86.78629547357559" r="2" style="fill: steelblue;"></circle><circle cx="27.53238119184971" cy="61.0291400924325" r="2" style="fill: steelblue;"></circle><circle cx="24.276144057512287" cy="72.83097431063652" r="2" style="fill: steelblue;"></circle><circle cx="58.880577981472015" cy="52.696637297049165" r="2" style="fill: steelblue;"></circle><circle cx="29.796506464481354" cy="66.62897132337093" r="2" style="fill: steelblue;"></circle><circle cx="83.92302989959717" cy="84.04302895069122" r="2" style="fill: steelblue;"></circle><circle cx="57.234842982143164" cy="5.477487295866013" r="2" style="fill: steelblue;"></circle><circle cx="69.81996558606625" cy="51.35201634839177" r="2" style="fill: steelblue;"></circle><circle cx="77.11962908506393" cy="44.275054428726435" r="2" style="fill: steelblue;"></circle><circle cx="56.582504604011774" cy="38.08138072490692" r="2" style="fill: steelblue;"></circle><circle cx="82.34004974365234" cy="53.16683063283563" r="2" style="fill: steelblue;"></circle><circle cx="27.67617180943489" cy="66.91532507538795" r="2" style="fill: steelblue;"></circle><circle cx="9.425706416368488" cy="27.696798741817474" r="2" style="fill: steelblue;"></circle><circle cx="6.823043525218966" cy="55.21955266594887" r="2" style="fill: steelblue;"></circle><circle cx="30.92655837535858" cy="23.67781400680542" r="2" style="fill: steelblue;"></circle><circle cx="57.361303083598614" cy="34.92808733135462" r="2" style="fill: steelblue;"></circle><circle cx="83.58341380953789" cy="75.87588876485825" r="2" style="fill: steelblue;"></circle><circle cx="49.19578869594261" cy="70.14877647161484" r="2" style="fill: steelblue;"></circle><circle cx="36.80306877940893" cy="87.87291795015335" r="2" style="fill: steelblue;"></circle><circle cx="38.691333681344986" cy="51.74369663000107" r="2" style="fill: steelblue;"></circle><circle cx="38.94564714282751" cy="57.854984141886234" r="2" style="fill: steelblue;"></circle><circle cx="49.65060121030547" cy="53.184487111866474" r="2" style="fill: steelblue;"></circle><circle cx="21.504425629973415" cy="55.71354478597641" r="2" style="fill: steelblue;"></circle><circle cx="34.11992751061916" cy="75.18108673393726" r="2" style="fill: steelblue;"></circle><circle cx="15.252641588449482" cy="76.67241916060448" r="2" style="fill: steelblue;"></circle><circle cx="27.468568831682205" cy="93.40264573693275" r="2" style="fill: steelblue;"></circle><circle cx="27.908216416835785" cy="85.77841073274612" r="2" style="fill: steelblue;"></circle><circle cx="8.792015910148624" cy="86.0424555838108" r="2" style="fill: steelblue;"></circle><circle cx="25.016385316848755" cy="80.76350130140781" r="2" style="fill: steelblue;"></circle><circle cx="46.98489811271429" cy="87.78468072414398" r="2" style="fill: steelblue;"></circle><circle cx="15.921137481927875" cy="96.87542468309402" r="2" style="fill: steelblue;"></circle><circle cx="34.1141439974308" cy="82.86366164684296" r="2" style="fill: steelblue;"></circle><circle cx="14.119985699653629" cy="55.61451958492398" r="2" style="fill: steelblue;"></circle><circle cx="41.26862734556198" cy="85.48961505293846" r="2" style="fill: steelblue;"></circle><circle cx="59.37213841825724" cy="13.112492114305496" r="2" style="fill: steelblue;"></circle><circle cx="70.04891633987427" cy="31.097934767603874" r="2" style="fill: steelblue;"></circle><circle cx="85.33653542399406" cy="54.50366735458374" r="2" style="fill: steelblue;"></circle><circle cx="68.38269829750061" cy="11.27299964427948" r="2" style="fill: steelblue;"></circle><circle cx="68.81921477615833" cy="44.70618739724159" r="2" style="fill: steelblue;"></circle><circle cx="91.7468398809433" cy="27.011658251285553" r="2" style="fill: steelblue;"></circle><circle cx="72.59557694196701" cy="56.8924049846828" r="2" style="fill: steelblue;"></circle><circle cx="53.825186751782894" cy="15.35518392920494" r="2" style="fill: steelblue;"></circle><circle cx="91.8940857052803" cy="22.589386627078056" r="2" style="fill: steelblue;"></circle><circle cx="80.43489716947079" cy="24.793102592229843" r="2" style="fill: steelblue;"></circle><circle cx="78.39396148920059" cy="74.84982088208199" r="2" style="fill: steelblue;"></circle><circle cx="83.80891680717468" cy="52.836160361766815" r="2" style="fill: steelblue;"></circle><circle cx="37.30653245002031" cy="62.62697018682957" r="2" style="fill: steelblue;"></circle><circle cx="34.42524578422308" cy="30.3359005600214" r="2" style="fill: steelblue;"></circle><circle cx="21.465559676289562" cy="78.52136082947254" r="2" style="fill: steelblue;"></circle><circle cx="73.85516464710236" cy="47.712494572624564" r="2" style="fill: steelblue;"></circle><circle cx="13.897790759801868" cy="66.8148148804903" r="2" style="fill: steelblue;"></circle><circle cx="23.323544487357143" cy="87.13623061776161" r="2" style="fill: steelblue;"></circle><circle cx="92.145986109972" cy="53.84909939020872" r="2" style="fill: steelblue;"></circle><circle cx="69.68047767877579" cy="23.266476765275" r="2" style="fill: steelblue;"></circle><circle cx="70.71714960038662" cy="49.10311691928655" r="2" style="fill: steelblue;"></circle><circle cx="93.35588216781616" cy="38.98094613105059" r="2" style="fill: steelblue;"></circle><circle cx="71.26412652432919" cy="53.0789056327194" r="2" style="fill: steelblue;"></circle><circle cx="48.54796065483242" cy="42.96829290688038" r="2" style="fill: steelblue;"></circle><circle cx="76.92494355142117" cy="13.130604475736618" r="2" style="fill: steelblue;"></circle><circle cx="62.51307036727667" cy="17.866603285074234" r="2" style="fill: steelblue;"></circle><circle cx="50.03495253258734" cy="32.645656913518906" r="2" style="fill: steelblue;"></circle><circle cx="71.8394435942173" cy="68.34100857377052" r="2" style="fill: steelblue;"></circle><circle cx="18.402869999408725" cy="38.80191147327423" r="2" style="fill: steelblue;"></circle><circle cx="52.24226829595864" cy="28.664211928844452" r="2" style="fill: steelblue;"></circle><circle cx="51.299223862588406" cy="30.893343687057495" r="2" style="fill: steelblue;"></circle><circle cx="56.54076039791107" cy="34.4015771523118" r="2" style="fill: steelblue;"></circle><circle cx="66.8529748916626" cy="23.486581817269325" r="2" style="fill: steelblue;"></circle><circle cx="86.43270954489708" cy="26.292412728071213" r="2" style="fill: steelblue;"></circle><circle cx="91.49561747908592" cy="40.19753560423851" r="2" style="fill: steelblue;"></circle><circle cx="63.082846999168396" cy="67.62807182967663" r="2" style="fill: steelblue;"></circle><circle cx="58.62972717732191" cy="67.4962654709816" r="2" style="fill: steelblue;"></circle><circle cx="31.83637112379074" cy="36.687094904482365" r="2" style="fill: steelblue;"></circle><circle cx="83.8754877448082" cy="55.45963831245899" r="2" style="fill: steelblue;"></circle><circle cx="54.23590373247862" cy="36.39364540576935" r="2" style="fill: steelblue;"></circle><circle cx="64.00073152035475" cy="20.561020076274872" r="2" style="fill: steelblue;"></circle><circle cx="72.03236892819405" cy="37.69154120236635" r="2" style="fill: steelblue;"></circle><circle cx="22.70552441477776" cy="62.50744052231312" r="2" style="fill: steelblue;"></circle><circle cx="36.35005857795477" cy="88.15798461437225" r="2" style="fill: steelblue;"></circle><circle cx="20.75777314603329" cy="59.372107684612274" r="2" style="fill: steelblue;"></circle><circle cx="32.01892897486687" cy="52.103023463860154" r="2" style="fill: steelblue;"></circle><circle cx="44.039477314800024" cy="21.360407769680023" r="2" style="fill: steelblue;"></circle></g></svg>