<svg xmlns="http://www.w3.org/2000/svg"><rect width="200" height="200" fill="white"></rect><g><circle cx="44.839119911193855" cy="170.45924067497253" r="2" style="fill: steelblue;"></circle><circle cx="33.82271379232407" cy="139.30042386054993" r="2" style="fill: steelblue;"></circle><circle cx="107.98446778208017" cy="80.59520274400711" r="2" style="fill: steelblue;"></circle><circle cx="58.62136408686638" cy="117.89080500602722" r="2" style="fill: steelblue;"></circle><circle cx="31.0838207602501" cy="87.23943382501602" r="2" style="fill: steelblue;"></circle><circle cx="90.83706457167864" cy="165.8960998058319" r="2" style="fill: steelblue;"></circle><circle cx="61.012840270996094" cy="100.455635599792" r="2" style="fill: steelblue;"></circle><circle cx="10.106696188449865" cy="84.15102809667587" r="2" style="fill: steelblue;"></circle><circle cx="58.13887193799019" cy="130.58470785617828" r="2" style="fill: steelblue;"></circle><circle cx="51.11504569649696" cy="130.8000087738037" r="2" style="fill: steelblue;"></circle><circle cx="69.24636699259281" cy="124.25718009471893" r="2" style="fill: steelblue;"></circle><circle cx="123.16681295633316" cy="108.90614241361618" r="2" style="fill: steelblue;"></circle><circle cx="69.7593878954649" cy="109.70536395907402" r="2" style="fill: steelblue;"></circle><circle cx="109.66728664934635" cy="153.32382917404175" r="2" style="fill: steelblue;"></circle><circle cx="37.6356489956379" cy="91.16427823901176" r="2" style="fill: steelblue;"></circle><circle cx="60.21440997719765" cy="170.46836018562317" r="2" style="fill: steelblue;"></circle><circle cx="127.25536562502384" cy="146.37718498706818" r="2" style="fill: steelblue;"></circle><circle cx="76.92357376217842" cy="65.41146636009216" r="2" style="fill: steelblue;"></circle><circle cx="82.71895945072174" cy="98.89811789616942" r="2" style="fill: steelblue;"></circle><circle cx="159.28080528974533" cy="42.173832654953" r="2" style="fill: steelblue;"></circle><circle cx="134.41784158349037" cy="100.66833915188909" r="2" style="fill: steelblue;"></circle><circle cx="82.16805420815945" cy="90.88694900274277" r="2" style="fill: steelblue;"></circle><circle cx="55.172549933195114" cy="80.32214790582657" r="2" style="fill: steelblue;"></circle><circle cx="56.71515539288521" cy="142.99983382225037" r="2" style="fill: steelblue;"></circle><circle cx="42.25306436419488" cy="77.35662311315536" r="2" style="fill: steelblue;"></circle><circle cx="16.22892767190934" cy="139.83899652957916" r="2" style="fill: steelblue;"></circle><circle cx="55.02880588173866" cy="120.76044976711273" r="2" style="fill: steelblue;"></circle><circle cx="105.57361822575331" cy="120.64676135778427" r="2" style="fill: steelblue;"></circle><circle cx="20.503139495849616" cy="152.42376327514648" r="2" style="fill: steelblue;"></circle><circle cx="95.12942042201757" cy="91.2389762699604" r="2" style="fill: steelblue;"></circle><circle cx="153.3955730497837" cy="54.91730570793152" r="2" style="fill: steelblue;"></circle><circle cx="177.98639684915543" cy="56.994253396987915" r="2" style="fill: steelblue;"></circle><circle cx="137.0473824441433" cy="37.253767251968384" r="2" style="fill: steelblue;"></circle><circle cx="139.11687433719635" cy="105.10114133358002" r="2" style="fill: steelblue;"></circle><circle cx="130.73105216026306" cy="89.80052843689919" r="2" style="fill: steelblue;"></circle><circle cx="150.13149604201317" cy="116.13259762525558" r="2" style="fill: steelblue;"></circle><circle cx="134.0101607143879" cy="98.09270687401295" r="2" style="fill: steelblue;"></circle><circle cx="86.63893155753613" cy="135.1771503686905" r="2" style="fill: steelblue;"></circle><circle cx="38.78355249762536" cy="160.9239161014557" r="2" style="fill: steelblue;"></circle><circle cx="38.23760002851487" cy="157.74719715118408" r="2" style="fill: steelblue;"></circle><circle cx="100.51535002421588" cy="181.0862958431244" r="2" style="fill: steelblue;"></circle><circle cx="65.80271795392036" cy="69.68909800052643" r="2" style="fill: steelblue;"></circle><circle cx="184.89194512367249" cy="152.1722674369812" r="2" style="fill: steelblue;"></circle><circle cx="123.73718284070492" cy="74.99395310878754" r="2" style="fill: steelblue;"></circle><circle cx="142.98295453190804" cy="63.617682456970215" r="2" style="fill: steelblue;"></circle><circle cx="86.05675995349884" cy="72.43078351020813" r="2" style="fill: steelblue;"></circle><circle cx="105.70288673043251" cy="48.266106843948364" r="2" style="fill: steelblue;"></circle><circle cx="165.36471843719482" cy="145.36895155906677" r="2" style="fill: steelblue;"></circle><circle cx="54.85108718276024" cy="146.82939648628235" r="2" style="fill: steelblue;"></circle><circle cx="61.907170712947845" cy="131.00011944770813" r="2" style="fill: steelblue;"></circle><circle cx="110.49505174160004" cy="83.08305889368057" r="2" style="fill: steelblue;"></circle><circle cx="114.07797075808048" cy="53.662851452827454" r="2" style="fill: steelblue;"></circle><circle cx="134.31224077939987" cy="73.9229291677475" r="2" style="fill: steelblue;"></circle><circle cx="153.87414246797562" cy="124.49502646923065" r="2" style="fill: steelblue;"></circle><circle cx="74.14048947393894" cy="104.83143888413906" r="2" style="fill: steelblue;"></circle><circle cx="15.205150842666631" cy="90.2801863849163" r="2" style="fill: steelblue;"></circle><circle cx="20.292034745216377" cy="93.69649589061737" r="2" style="fill: steelblue;"></circle><circle cx="112.74890638887882" cy="145.95578908920288" r="2" style="fill: steelblue;"></circle><circle cx="63.184718042612076" cy="111.1641101539135" r="2" style="fill: steelblue;"></circle><circle cx="81.03160224854946" cy="122.94916063547134" r="2" style="fill: steelblue;"></circle><circle cx="91.36549420654774" cy="85.96767336130142" r="2" style="fill: steelblue;"></circle><circle cx="166.38634204864502" cy="115.95711708068848" r="2" style="fill: steelblue;"></circle><circle cx="19.58588361740113" cy="167.32608675956726" r="2" style="fill: steelblue;"></circle><circle cx="44.902453571558006" cy="168.05702447891235" r="2" style="fill: steelblue;"></circle><circle cx="107.57751567289233" cy="137.00471222400665" r="2" style="fill: steelblue;"></circle><circle cx="128.15829403698444" cy="118.98143142461777" r="2" style="fill: steelblue;"></circle><circle cx="93.06948808953166" cy="147.1477895975113" r="2" style="fill: steelblue;"></circle><circle cx="28.40364575386048" cy="118.98365020751953" r="2" style="fill: steelblue;"></circle><circle cx="17.634896934032447" cy="161.57943606376648" r="2" style="fill: steelblue;"></circle><circle cx="94.39859995618463" cy="130.10201156139374" r="2" style="fill: steelblue;"></circle><circle cx="44.201130419969566" cy="159.13575887680054" r="2" style="fill: steelblue;"></circle><circle cx="157.14939534664154" cy="94.83472965657711" r="2" style="fill: steelblue;"></circle><circle cx="121.49667218327522" cy="82.89880007505417" r="2" style="fill: steelblue;"></circle><circle cx="151.17957293987274" cy="55.458906292915344" r="2" style="fill: steelblue;"></circle><circle cx="134.55526754260063" cy="67.9332822561264" r="2" style="fill: steelblue;"></circle><circle cx="99.17092459509149" cy="131.3226878643036" r="2" style="fill: steelblue;"></circle><circle cx="151.15396156907082" cy="71.79155349731445" r="2" style="fill: steelblue;"></circle><circle cx="141.13710299134254" cy="61.39064431190491" r="2" style="fill: steelblue;"></circle><circle cx="110.58522425591946" cy="62.99044191837311" r="2" style="fill: steelblue;"></circle><circle cx="98.66241856943816" cy="45.609062910079956" r="2" style="fill: steelblue;"></circle><circle cx="94.069529697299" cy="33.27428698539734" r="2" style="fill: steelblue;"></circle><circle cx="163.49226087331772" cy="41.61272048950195" r="2" style="fill: steelblue;"></circle><circle cx="138.9348454773426" cy="97.11041450500488" r="2" style="fill: steelblue;"></circle><circle cx="47.688348591327674" cy="121.66611552238464" r="2" style="fill: steelblue;"></circle><circle cx="27.179493010044105" cy="129.7268271446228" r="2" style="fill: steelblue;"></circle><circle cx="68.64882484078407" cy="96.68305963277817" r="2" style="fill: steelblue;"></circle><circle cx="69.56318616867065" cy="113.21838051080704" r="2" style="fill: steelblue;"></circle><circle cx="135.42011603713036" cy="130.92755675315857" r="2" style="fill: steelblue;"></circle><circle cx="66.88297763466835" cy="138.89013528823853" r="2" style="fill: steelblue;"></circle><circle cx="127.97766029834747" cy="64.01282250881195" r="2" style="fill: steelblue;"></circle><circle cx="139.86821696162224" cy="76.84262096881866" r="2" style="fill: steelblue;"></circle><circle cx="135.142183303833" cy="16.020172834396362" r="2" style="fill: steelblue;"></circle><circle cx="132.1536846458912" cy="28.58259081840515" r="2" style="fill: steelblue;"></circle><circle cx="160.69903448224068" cy="81.91955089569092" r="2" style="fill: steelblue;"></circle><circle cx="145.96327617764473" cy="80.48568964004517" r="2" style="fill: steelblue;"></circle><circle cx="178.86067777872086" cy="91.55740886926651" r="2" style="fill: steelblue;"></circle><circle cx="170.40070742368698" cy="49.32417869567871" r="2" style="fill: steelblue;"></circle><circle cx="146.08828574419022" cy="39.175933599472046" r="2" style="fill: steelblue;"></circle><circle cx="114.20264504849911" cy="78.26052904129028" r="2" style="fill: steelblue;"></circle><circle cx="134.85722094774246" cy="88.49257528781891" r="2" style="fill: steelblue;"></circle><circle cx="181.79447054862976" cy="95.4189483076334" r="2" style="fill: steelblue;"></circle><circle cx="117.85262860357761" cy="118.26998293399811" r="2" style="fill: steelblue;"></circle><circle cx="148.83553460240364" cy="88.67106661200523" r="2" style="fill: steelblue;"></circle><circle cx="87.05688863992691" cy="26.80906653404236" r="2" style="fill: steelblue;"></circle><circle cx="89.13370631635189" cy="125.95449388027191" r="2" style="fill: steelblue;"></circle><circle cx="116.47851802408695" cy="64.63482975959778" r="2" style="fill: steelblue;"></circle><circle cx="111.55151054263115" cy="55.975550413131714" r="2" style="fill: steelblue;"></circle><circle cx="85.11823639273643" cy="44.40698027610779" r="2" style="fill: steelblue;"></circle><circle cx="121.55495993793011" cy="70.3262448310852" r="2" style="fill: steelblue;"></circle><circle cx="119.08834651112556" cy="81.86580687761307" r="2" style="fill: steelblue;"></circle><circle cx="162.33647838234901" cy="35.8454167842865" r="2" style="fill: steelblue;"></circle><circle cx="136.32568940520287" cy="128.17749977111816" r="2" style="fill: steelblue;"></circle><circle cx="92.98000475391746" cy="142.9692566394806" r="2" style="fill: steelblue;"></circle><circle cx="37.994271516799934" cy="137.17981278896332" r="2" style="fill: steelblue;"></circle><circle cx="19.726394116878517" cy="96.83419354259968" r="2" style="fill: steelblue;"></circle><circle cx="120.63090167939663" cy="69.89159286022186" r="2" style="fill: steelblue;"></circle><circle cx="35.551963746547706" cy="79.91863191127777" r="2" style="fill: steelblue;"></circle><circle cx="109.54485405236483" cy="149.90828037261963" r="2" style="fill: steelblue;"></circle></g></svg>