<svg xmlns="http://www.w3.org/2000/svg"><g transform="translate(40,20)"><circle cx="454.05383974313736" cy="126.56762550274533" r="3" style="fill: steelblue;"></circle><circle cx="473.22442576289177" cy="122.73342675632902" r="3" style="fill: steelblue;"></circle><circle cx="397.3367363959551" cy="174.34406007329625" r="3" style="fill: steelblue;"></circle><circle cx="528.2107499241829" cy="190.47006774279805" r="3" style="fill: steelblue;"></circle><circle cx="440.57895809412" cy="93.16820916202335" r="3" style="fill: steelblue;"></circle><circle cx="260.09538979735225" cy="54.03641793462965" r="3" style="fill: steelblue;"></circle><circle cx="384.77768160402775" cy="204.97428394026224" r="3" style="fill: steelblue;"></circle><circle cx="378.3924315869808" cy="160.6771397093932" r="3" style="fill: steelblue;"></circle><circle cx="422.59604416787624" cy="42.81268947654302" r="3" style="fill: steelblue;"></circle><circle cx="458.405978679657" cy="161.9319078202049" r="3" style="fill: steelblue;"></circle><circle cx="528.5868895053864" cy="78.7232486738099" r="3" style="fill: steelblue;"></circle><circle cx="446.52191519737244" cy="23.55747852060529" r="3" style="fill: steelblue;"></circle><circle cx="422.1826487034559" cy="82.63703452216254" r="3" style="fill: steelblue;"></circle><circle cx="393.0789039283991" cy="118.0511362850666" r="3" style="fill: steelblue;"></circle><circle cx="386.2788402289152" cy="153.47879303412304" r="3" style="fill: steelblue;"></circle><circle cx="311.01022565737367" cy="33.29696026113299" r="3" style="fill: steelblue;"></circle><circle cx="458.82907032966614" cy="133.5715686281522" r="3" style="fill: steelblue;"></circle><circle cx="502.1707181632519" cy="92.32929944992065" r="3" style="fill: steelblue;"></circle><circle cx="363.4158582240343" cy="186.64807884229555" r="3" style="fill: steelblue;"></circle><circle cx="388.56075301766396" cy="101.57695098055734" r="3" style="fill: steelblue;"></circle><circle cx="414.6003623306751" cy="110.83448280890781" r="3" style="fill: steelblue;"></circle><circle cx="467.1047446131706" cy="247.71875821881827" r="3" style="fill: steelblue;"></circle><circle cx="303.5001854225993" cy="55.48856092823877" r="3" style="fill: steelblue;"></circle><circle cx="484.73890766501427" cy="175.720697020491" r="3" style="fill: steelblue;"></circle><circle cx="172.5021482259035" cy="145.02857931786116" r="3" style="fill: steelblue;"></circle><circle cx="385.9001559019089" cy="156.34376427365675" r="3" style="fill: steelblue;"></circle><circle cx="344.5879327878356" cy="86.47407276762857" r="3" style="fill: steelblue;"></circle><circle cx="363.1217238306999" cy="162.12445845206577" r="3" style="fill: steelblue;"></circle><circle cx="105.77710278332235" cy="60.727836522791115" r="3" style="fill: steelblue;"></circle><circle cx="196.02399308234453" cy="202.16344934370784" r="3" style="fill: steelblue;"></circle><circle cx="332.24850565195084" cy="153.67128100867075" r="3" style="fill: steelblue;"></circle><circle cx="298.6254733800888" cy="97.0543243818813" r="3" style="fill: steelblue;"></circle><circle cx="376.95391595363617" cy="139.55898413227663" r="3" style="fill: steelblue;"></circle><circle cx="228.95629785954952" cy="164.2517734732893" r="3" style="fill: steelblue;"></circle><circle cx="245.81607112661004" cy="64.06314108106824" r="3" style="fill: steelblue;"></circle><circle cx="156.8025552481413" cy="228.4416135814455" r="3" style="fill: steelblue;"></circle><circle cx="163.75727511942387" cy="81.79987486865787" r="3" style="fill: steelblue;"></circle><circle cx="204.20078437775373" cy="180.4104440742069" r="3" style="fill: steelblue;"></circle><circle cx="421.4559678733349" cy="144.94131470306053" r="3" style="fill: steelblue;"></circle><circle cx="53.26959237456323" cy="182.9909402463171" r="3" style="fill: steelblue;"></circle><circle cx="241.26883920282125" cy="193.13701507118014" r="3" style="fill: steelblue;"></circle><circle cx="233.7892202474177" cy="119.7917636897829" r="3" style="fill: steelblue;"></circle><circle cx="227.0114180445671" cy="216.01465029848947" r="3" style="fill: steelblue;"></circle><circle cx="263.19067639298737" cy="235.19857244359122" r="3" style="fill: steelblue;"></circle><circle cx="219.10338912159204" cy="101.14933401346207" r="3" style="fill: steelblue;"></circle><circle cx="211.90089851617813" cy="205.92207395368155" r="3" style="fill: steelblue;"></circle><circle cx="415.9595985710621" cy="214.72016904089185" r="3" style="fill: steelblue;"></circle><circle cx="88.65785345435144" cy="143.04721020162106" r="3" style="fill: steelblue;"></circle><circle cx="161.28580391407013" cy="175.11690217587682" r="3" style="fill: steelblue;"></circle><circle cx="199.02376558631659" cy="83.979109260771" r="3" style="fill: steelblue;"></circle><circle cx="404.8392404615879" cy="173.8362069759104" r="3" style="fill: steelblue;"></circle><circle cx="325.1612477749586" cy="103.83276492357254" r="3" style="fill: steelblue;"></circle><circle cx="254.34208477847278" cy="311.5898761484358" r="3" style="fill: steelblue;"></circle><circle cx="276.9606932345778" cy="192.7617752717601" r="3" style="fill: steelblue;"></circle><circle cx="28.915932476520553" cy="167.469183045129" r="3" style="fill: steelblue;"></circle><circle cx="203.38920157402754" cy="159.9311569498645" r="3" style="fill: steelblue;"></circle><circle cx="259.6599415456876" cy="186.72499739461477" r="3" style="fill: steelblue;"></circle><circle cx="0.41946664452554294" cy="210.08256011539038" r="3" style="fill: steelblue;"></circle><circle cx="124.92702908813955" cy="253.55697108639612" r="3" style="fill: steelblue;"></circle><circle cx="198.0353480949998" cy="94.15761811865701" r="3" style="fill: steelblue;"></circle><circle cx="303.5167489014566" cy="239.53404708041086" r="3" style="fill: steelblue;"></circle><circle cx="198.02389673888683" cy="74.77628125084772" r="3" style="fill: steelblue;"></circle><circle cx="251.6906834486872" cy="61.26826273070441" r="3" style="fill: steelblue;"></circle><circle cx="446.9322529435158" cy="114.97571542859077" r="3" style="fill: steelblue;"></circle><circle cx="469.3407413363457" cy="161.8305956530902" r="3" style="fill: steelblue;"></circle><circle cx="423.4963008016348" cy="69.83263807164298" r="3" style="fill: steelblue;"></circle><circle cx="166.66554741561413" cy="130.2563115126557" r="3" style="fill: steelblue;"></circle><circle cx="329.8048958927393" cy="124.9225153691239" r="3" style="fill: steelblue;"></circle><circle cx="332.7946302294731" cy="84.62785366508695" r="3" style="fill: steelblue;"></circle><circle cx="423.6131680011749" cy="113.78089479274222" r="3" style="fill: steelblue;"></circle><circle cx="393.08792620897293" cy="187.72579042447938" r="3" style="fill: steelblue;"></circle><circle cx="412.8560145199299" cy="139.8564361449745" r="3" style="fill: steelblue;"></circle><circle cx="399.8047173768282" cy="253.53234277831183" r="3" style="fill: steelblue;"></circle><circle cx="267.08200857276097" cy="83.15967039929495" r="3" style="fill: steelblue;"></circle><circle cx="164.6330700069666" cy="250.22742665476267" r="3" style="fill: steelblue;"></circle><circle cx="343.8327719271183" cy="214.00285363197327" r="3" style="fill: steelblue;"></circle><circle cx="205.68659406155348" cy="217.25588805145685" r="3" style="fill: steelblue;"></circle><circle cx="115.43879851698877" cy="279.242256614897" r="3" style="fill: steelblue;"></circle><circle cx="240.08649297058582" cy="222.33321948183908" r="3" style="fill: steelblue;"></circle><circle cx="99.65892031788827" cy="267.5677084260517" r="3" style="fill: steelblue;"></circle><circle cx="286.4442165289074" cy="224.81212533182565" r="3" style="fill: steelblue;"></circle><circle cx="292.4099116399884" cy="152.23135039624242" r="3" style="fill: steelblue;"></circle><circle cx="197.8364958241582" cy="133.98120258417396" r="3" style="fill: steelblue;"></circle><circle cx="309.4544052891433" cy="186.6812604169051" r="3" style="fill: steelblue;"></circle><circle cx="450.42452931404114" cy="155.9137898251518" r="3" style="fill: steelblue;"></circle><circle cx="407.37801164388657" cy="146.38528254710968" r="3" style="fill: steelblue;"></circle><circle cx="120.41446052491666" cy="161.1128941592243" r="3" style="fill: steelblue;"></circle><circle cx="342.3588813096285" cy="69.03323796060351" r="3" style="fill: steelblue;"></circle><circle cx="250.25319376029074" cy="45.534783932897774" r="3" style="fill: steelblue;"></circle><circle cx="314.8416195809841" cy="109.32886161737973" r="3" style="fill: steelblue;"></circle><circle cx="334.2722826451063" cy="142.6857216904561" r="3" style="fill: steelblue;"></circle><circle cx="436.9915705919266" cy="101.61402093039618" r="3" style="fill: steelblue;"></circle><circle cx="416.76375836133957" cy="176.71674547923936" r="3" style="fill: steelblue;"></circle><circle cx="110.83248674869539" cy="120.3208290040493" r="3" style="fill: steelblue;"></circle><circle cx="159.43272605538368" cy="213.76053426000806" r="3" style="fill: steelblue;"></circle><circle cx="161.46358408033848" cy="270.1578531000349" r="3" style="fill: steelblue;"></circle><circle cx="342.35522512346506" cy="225.9594741794798" r="3" style="fill: steelblue;"></circle><circle cx="486.84597730636597" cy="244.1956642601225" r="3" style="fill: steelblue;"></circle><circle cx="258.1807797588408" cy="148.98326699104575" r="3" style="fill: steelblue;"></circle><circle cx="302.8623393550515" cy="270.94943589634363" r="3" style="fill: steelblue;"></circle><circle cx="115.49324400722982" cy="203.0252459976408" r="3" style="fill: steelblue;"></circle><circle cx="323.40602193027735" cy="266.104010409779" r="3" style="fill: steelblue;"></circle><circle cx="168.73062372207642" cy="192.13392146759566" r="3" style="fill: steelblue;"></circle><circle cx="115.23164816200735" cy="190.0883289674918" r="3" style="fill: steelblue;"></circle><circle cx="255.6177505105734" cy="265.04812240600586" r="3" style="fill: steelblue;"></circle><circle cx="90.55144608020784" cy="197.06052185760603" r="3" style="fill: steelblue;"></circle><circle cx="411.5176894515753" cy="136.31575033068657" r="3" style="fill: steelblue;"></circle><circle cx="303.99986336007714" cy="149.5675725138022" r="3" style="fill: steelblue;"></circle><circle cx="413.3665730059147" cy="46.3213599390454" r="3" style="fill: steelblue;"></circle><circle cx="440.3945495188236" cy="97.40156034628552" r="3" style="fill: steelblue;"></circle><circle cx="439.75415870547295" cy="29.83853154712255" r="3" style="fill: steelblue;"></circle><circle cx="296.5277277678251" cy="93.59390222364003" r="3" style="fill: steelblue;"></circle><circle cx="279.0094424318522" cy="237.67649895615045" r="3" style="fill: steelblue;"></circle><circle cx="24.879060387611403" cy="251.81130501959058" r="3" style="fill: steelblue;"></circle><circle cx="162.06712134182453" cy="129.18454549378822" r="3" style="fill: steelblue;"></circle><circle cx="161.1901194602251" cy="232.48024466964932" r="3" style="fill: steelblue;"></circle><circle cx="347.2437421604991" cy="242.48213089174692" r="3" style="fill: steelblue;"></circle><circle cx="185.72022680193186" cy="170.83830878966387" r="3" style="fill: steelblue;"></circle></g></svg>