<svg xmlns="http://www.w3.org/2000/svg"><g><circle cx="28.91058921813965" cy="155.16088008880615" r="2" style="fill: steelblue;"></circle><circle cx="101.58841367810965" cy="166.17728620767593" r="2" style="fill: steelblue;"></circle><circle cx="66.54091477394104" cy="92.01553221791983" r="2" style="fill: steelblue;"></circle><circle cx="36.38458251953125" cy="141.37863591313362" r="2" style="fill: steelblue;"></circle><circle cx="69.68985497951508" cy="168.9161792397499" r="2" style="fill: steelblue;"></circle><circle cx="126.5272706747055" cy="109.16293542832136" r="2" style="fill: steelblue;"></circle><circle cx="49.92119073867798" cy="138.9871597290039" r="2" style="fill: steelblue;"></circle><circle cx="121.02123349905014" cy="189.89330381155014" r="2" style="fill: steelblue;"></circle><circle cx="68.02442967891693" cy="141.8611280620098" r="2" style="fill: steelblue;"></circle><circle cx="74.26957190036774" cy="148.88495430350304" r="2" style="fill: steelblue;"></circle><circle cx="117.13352054357529" cy="130.7536330074072" r="2" style="fill: steelblue;"></circle><circle cx="81.67096227407455" cy="76.83318704366684" r="2" style="fill: steelblue;"></circle><circle cx="102.20397189259529" cy="130.2406121045351" r="2" style="fill: steelblue;"></circle><circle cx="66.6130393743515" cy="90.33271335065365" r="2" style="fill: steelblue;"></circle><circle cx="84.12346541881561" cy="162.3643510043621" r="2" style="fill: steelblue;"></circle><circle cx="27.480047941207886" cy="139.78559002280235" r="2" style="fill: steelblue;"></circle><circle cx="88.56203556060791" cy="72.74463437497616" r="2" style="fill: steelblue;"></circle><circle cx="60.41390895843506" cy="123.07642623782158" r="2" style="fill: steelblue;"></circle><circle cx="128.28345000743866" cy="117.28104054927826" r="2" style="fill: steelblue;"></circle><circle cx="144.62479054927826" cy="40.71919471025467" r="2" style="fill: steelblue;"></circle><circle cx="132.33676254749298" cy="65.58215841650963" r="2" style="fill: steelblue;"></circle><circle cx="64.06045854091644" cy="117.83194579184055" r="2" style="fill: steelblue;"></circle><circle cx="75.9110376238823" cy="144.8274500668049" r="2" style="fill: steelblue;"></circle><circle cx="77.74248123168945" cy="143.2848446071148" r="2" style="fill: steelblue;"></circle><circle cx="33.626264333724976" cy="157.74693563580513" r="2" style="fill: steelblue;"></circle><circle cx="111.58447191119194" cy="183.77107232809067" r="2" style="fill: steelblue;"></circle><circle cx="66.37943089008331" cy="144.97119411826134" r="2" style="fill: steelblue;"></circle><circle cx="97.27650452405214" cy="94.42638177424669" r="2" style="fill: steelblue;"></circle><circle cx="36.0834002494812" cy="179.4968605041504" r="2" style="fill: steelblue;"></circle><circle cx="131.34514093399048" cy="104.87057957798243" r="2" style="fill: steelblue;"></circle><circle cx="121.68131023645401" cy="46.60442695021629" r="2" style="fill: steelblue;"></circle><circle cx="144.9506014585495" cy="22.013603150844574" r="2" style="fill: steelblue;"></circle><circle cx="146.13297581672668" cy="62.952617555856705" r="2" style="fill: steelblue;"></circle><circle cx="96.83895707130432" cy="60.88312566280365" r="2" style="fill: steelblue;"></circle><circle cx="112.02580779790878" cy="69.26894783973694" r="2" style="fill: steelblue;"></circle><circle cx="116.18928015232086" cy="49.86850395798683" r="2" style="fill: steelblue;"></circle><circle cx="81.7954272031784" cy="65.9898392856121" r="2" style="fill: steelblue;"></circle><circle cx="85.4816123843193" cy="113.36106844246387" r="2" style="fill: steelblue;"></circle><circle cx="52.53269970417023" cy="161.21644750237465" r="2" style="fill: steelblue;"></circle><circle cx="94.97269615530968" cy="161.76239997148514" r="2" style="fill: steelblue;"></circle><circle cx="144.90668773651123" cy="99.48464997578412" r="2" style="fill: steelblue;"></circle><circle cx="150.79271793365479" cy="134.19728204607964" r="2" style="fill: steelblue;"></circle><circle cx="112.17628940939903" cy="15.108054876327515" r="2" style="fill: steelblue;"></circle><circle cx="136.73474788665771" cy="76.26281715929508" r="2" style="fill: steelblue;"></circle><circle cx="111.48023083806038" cy="57.017045468091965" r="2" style="fill: steelblue;"></circle><circle cx="151.00884437561035" cy="113.94324004650116" r="2" style="fill: steelblue;"></circle><circle cx="63.324037194252014" cy="94.29711326956749" r="2" style="fill: steelblue;"></circle><circle cx="38.29025626182556" cy="34.635281562805176" r="2" style="fill: steelblue;"></circle><circle cx="49.41364526748657" cy="145.14891281723976" r="2" style="fill: steelblue;"></circle><circle cx="41.10769033432007" cy="138.09282928705215" r="2" style="fill: steelblue;"></circle><circle cx="108.80816206336021" cy="89.50494825839996" r="2" style="fill: steelblue;"></circle><circle cx="39.96747136116028" cy="85.92202924191952" r="2" style="fill: steelblue;"></circle><circle cx="75.75927525758743" cy="65.68775922060013" r="2" style="fill: steelblue;"></circle><circle cx="90.20992070436478" cy="46.12585753202438" r="2" style="fill: steelblue;"></circle><circle cx="115.87333381175995" cy="125.85951052606106" r="2" style="fill: steelblue;"></circle><circle cx="64.69049751758575" cy="184.79484915733337" r="2" style="fill: steelblue;"></circle><circle cx="108.43155980110168" cy="179.70796525478363" r="2" style="fill: steelblue;"></circle><circle cx="73.86334538459778" cy="87.25109361112118" r="2" style="fill: steelblue;"></circle><circle cx="132.46310949325562" cy="136.81528195738792" r="2" style="fill: steelblue;"></circle><circle cx="76.34941786527634" cy="118.96839775145054" r="2" style="fill: steelblue;"></circle><circle cx="39.29089307785034" cy="108.63450579345226" r="2" style="fill: steelblue;"></circle><circle cx="51.58804953098297" cy="33.61365795135498" r="2" style="fill: steelblue;"></circle><circle cx="9.219318628311157" cy="180.41411638259888" r="2" style="fill: steelblue;"></circle><circle cx="15.077835321426392" cy="155.097546428442" r="2" style="fill: steelblue;"></circle><circle cx="76.33380889892578" cy="92.42248432710767" r="2" style="fill: steelblue;"></circle><circle cx="49.94340538978577" cy="71.84170596301556" r="2" style="fill: steelblue;"></circle><circle cx="47.83517122268677" cy="106.93051191046834" r="2" style="fill: steelblue;"></circle><circle cx="120.900359749794" cy="171.59635424613953" r="2" style="fill: steelblue;"></circle><circle cx="34.782665967941284" cy="182.36510306596756" r="2" style="fill: steelblue;"></circle><circle cx="95.1558742672205" cy="105.60140004381537" r="2" style="fill: steelblue;"></circle><circle cx="29.28681969642639" cy="155.79886958003044" r="2" style="fill: steelblue;"></circle><circle cx="128.7827342748642" cy="42.85060465335846" r="2" style="fill: steelblue;"></circle><circle cx="122.23695069551468" cy="78.50332781672478" r="2" style="fill: steelblue;"></circle><circle cx="154.05619740486145" cy="48.82042706012726" r="2" style="fill: steelblue;"></circle><circle cx="106.11711777746677" cy="65.44473245739937" r="2" style="fill: steelblue;"></circle><circle cx="91.79366305470467" cy="100.82907540490851" r="2" style="fill: steelblue;"></circle><circle cx="145.7523226737976" cy="48.846038430929184" r="2" style="fill: steelblue;"></circle><circle cx="107.55355060100555" cy="58.862897008657455" r="2" style="fill: steelblue;"></circle><circle cx="95.93744613230228" cy="89.41477574408054" r="2" style="fill: steelblue;"></circle><circle cx="129.2700171470642" cy="101.33758143056184" r="2" style="fill: steelblue;"></circle><circle cx="149.34862852096558" cy="105.930470302701" r="2" style="fill: steelblue;"></circle><circle cx="184.49092507362366" cy="36.50773912668228" r="2" style="fill: steelblue;"></circle><circle cx="113.22938054800034" cy="61.065154522657394" r="2" style="fill: steelblue;"></circle><circle cx="81.07146918773651" cy="152.31165140867233" r="2" style="fill: steelblue;"></circle><circle cx="68.2121753692627" cy="172.8205069899559" r="2" style="fill: steelblue;"></circle><circle cx="82.96888470649719" cy="131.35117515921593" r="2" style="fill: steelblue;"></circle><circle cx="94.51364614069462" cy="130.43681383132935" r="2" style="fill: steelblue;"></circle><circle cx="132.81991183757782" cy="64.57988396286964" r="2" style="fill: steelblue;"></circle><circle cx="113.46070319414139" cy="133.11702236533165" r="2" style="fill: steelblue;"></circle><circle cx="118.74755620956421" cy="72.02233970165253" r="2" style="fill: steelblue;"></circle><circle cx="110.64260303974152" cy="60.13178303837776" r="2" style="fill: steelblue;"></circle><circle cx="127.58894860744476" cy="64.85781669616699" r="2" style="fill: steelblue;"></circle><circle cx="99.38351102173328" cy="67.84631535410881" r="2" style="fill: steelblue;"></circle><circle cx="104.66057136654854" cy="39.30096551775932" r="2" style="fill: steelblue;"></circle><circle cx="111.18493974208832" cy="54.03672382235527" r="2" style="fill: steelblue;"></circle><circle cx="117.9448738694191" cy="21.139322221279144" r="2" style="fill: steelblue;"></circle><circle cx="122.14924395084381" cy="29.59929257631302" r="2" style="fill: steelblue;"></circle><circle cx="69.42275762557983" cy="53.911714255809784" r="2" style="fill: steelblue;"></circle><circle cx="137.0547205209732" cy="85.79735495150089" r="2" style="fill: steelblue;"></circle><circle cx="131.36552274227142" cy="65.14277905225754" r="2" style="fill: steelblue;"></circle><circle cx="99.9063462310005" cy="18.20552945137024" r="2" style="fill: steelblue;"></circle><circle cx="113.84615302085876" cy="82.14737139642239" r="2" style="fill: steelblue;"></circle><circle cx="132.81187415122986" cy="51.16446539759636" r="2" style="fill: steelblue;"></circle><circle cx="171.22222185134888" cy="112.94311136007309" r="2" style="fill: steelblue;"></circle><circle cx="159.406578540802" cy="110.86629368364811" r="2" style="fill: steelblue;"></circle><circle cx="147.27970361709595" cy="83.52148197591305" r="2" style="fill: steelblue;"></circle><circle cx="145.0983613729477" cy="88.44848945736885" r="2" style="fill: steelblue;"></circle><circle cx="129.61681485176086" cy="114.88176360726357" r="2" style="fill: steelblue;"></circle><circle cx="117.76073724031448" cy="78.44504006206989" r="2" style="fill: steelblue;"></circle><circle cx="83.36287289857864" cy="80.91165348887444" r="2" style="fill: steelblue;"></circle><circle cx="141.37988090515137" cy="37.663521617650986" r="2" style="fill: steelblue;"></circle><circle cx="106.20092749595642" cy="63.674310594797134" r="2" style="fill: steelblue;"></circle><circle cx="40.851181745529175" cy="107.01999524608254" r="2" style="fill: steelblue;"></circle><circle cx="115.25365263223648" cy="162.00572848320007" r="2" style="fill: steelblue;"></circle><circle cx="67.17612147331238" cy="180.2736058831215" r="2" style="fill: steelblue;"></circle><circle cx="80.43390959501266" cy="79.36909832060337" r="2" style="fill: steelblue;"></circle><circle cx="54.22511100769043" cy="164.4480362534523" r="2" style="fill: steelblue;"></circle><circle cx="106.80637955665588" cy="90.45514594763517" r="2" style="fill: steelblue;"></circle></g></svg>