<svg xmlns="http://www.w3.org/2000/svg"><g transform="translate(40,20)"><circle cx="298.5810197889805" cy="79.20921053737402" r="3" style="fill: steelblue;"></circle><circle cx="386.09273582696915" cy="178.15300980582833" r="3" style="fill: steelblue;"></circle><circle cx="413.69986832141876" cy="125.46361349523067" r="3" style="fill: steelblue;"></circle><circle cx="290.174318253994" cy="200.08052601478994" r="3" style="fill: steelblue;"></circle><circle cx="326.61661103367805" cy="69.25693079829216" r="3" style="fill: steelblue;"></circle><circle cx="335.64857974648476" cy="159.61655899882317" r="3" style="fill: steelblue;"></circle><circle cx="366.3196384906769" cy="138.0756233818829" r="3" style="fill: steelblue;"></circle><circle cx="426.60998940467834" cy="100.62323249876499" r="3" style="fill: steelblue;"></circle><circle cx="429.5353728532791" cy="89.61824905127287" r="3" style="fill: steelblue;"></circle><circle cx="393.2364669442177" cy="43.97231452167034" r="3" style="fill: steelblue;"></circle><circle cx="339.6820682287216" cy="34.422774985432625" r="3" style="fill: steelblue;"></circle><circle cx="434.1570657491684" cy="128.53657333180308" r="3" style="fill: steelblue;"></circle><circle cx="178.75429093837738" cy="157.87961515598" r="3" style="fill: steelblue;"></circle><circle cx="351.4250582456589" cy="91.42382927238941" r="3" style="fill: steelblue;"></circle><circle cx="282.6495421305299" cy="93.70744060724974" r="3" style="fill: steelblue;"></circle><circle cx="242.3814533650875" cy="6.225315108895302" r="3" style="fill: steelblue;"></circle><circle cx="259.5656057819724" cy="79.8164077103138" r="3" style="fill: steelblue;"></circle><circle cx="189.61346358060837" cy="35.82807928323746" r="3" style="fill: steelblue;"></circle><circle cx="376.81507140398026" cy="201.9804138224572" r="3" style="fill: steelblue;"></circle><circle cx="307.79092356562614" cy="97.49284777790308" r="3" style="fill: steelblue;"></circle><circle cx="227.09715083241463" cy="220.58527935296297" r="3" style="fill: steelblue;"></circle><circle cx="222.75474429130554" cy="167.38060414791107" r="3" style="fill: steelblue;"></circle><circle cx="271.7325679259375" cy="111.11374218016863" r="3" style="fill: steelblue;"></circle><circle cx="322.76530623435974" cy="112.43280973285437" r="3" style="fill: steelblue;"></circle><circle cx="395.16167879104614" cy="179.38729603774846" r="3" style="fill: steelblue;"></circle><circle cx="349.1622179746628" cy="222.32936015352607" r="3" style="fill: steelblue;"></circle><circle cx="167.13352113962173" cy="150.25392659008503" r="3" style="fill: steelblue;"></circle><circle cx="425.2698075771332" cy="242.03082844614983" r="3" style="fill: steelblue;"></circle><circle cx="250.75170166790485" cy="203.51559966802597" r="3" style="fill: steelblue;"></circle><circle cx="193.5428488254547" cy="268.49943324923515" r="3" style="fill: steelblue;"></circle><circle cx="205.4662925004959" cy="264.9091539904475" r="3" style="fill: steelblue;"></circle><circle cx="350.8304125070572" cy="167.8073751507327" r="3" style="fill: steelblue;"></circle><circle cx="225.3758928179741" cy="171.95981267723255" r="3" style="fill: steelblue;"></circle><circle cx="204.57981571555138" cy="105.69862481206656" r="3" style="fill: steelblue;"></circle><circle cx="319.66313034296036" cy="157.43298241868615" r="3" style="fill: steelblue;"></circle><circle cx="159.1489416360855" cy="206.1992783099413" r="3" style="fill: steelblue;"></circle><circle cx="183.24435710906982" cy="222.55287617444992" r="3" style="fill: steelblue;"></circle><circle cx="208.96735578775406" cy="316.2008833140135" r="3" style="fill: steelblue;"></circle><circle cx="80.4220300912857" cy="293.32436360418797" r="3" style="fill: steelblue;"></circle><circle cx="345.76353192329407" cy="280.1398226991296" r="3" style="fill: steelblue;"></circle><circle cx="321.61774054169655" cy="259.5203874632716" r="3" style="fill: steelblue;"></circle><circle cx="196.76655292510986" cy="184.83082922175527" r="3" style="fill: steelblue;"></circle><circle cx="156.9962838292122" cy="173.57446053647436" r="3" style="fill: steelblue;"></circle><circle cx="197.18635350465775" cy="145.46874882653356" r="3" style="fill: steelblue;"></circle><circle cx="223.3861631155014" cy="181.46925898035988" r="3" style="fill: steelblue;"></circle><circle cx="95.40359437465668" cy="305.4241195321083" r="3" style="fill: steelblue;"></circle><circle cx="296.4419527351856" cy="203.85986538603902" r="3" style="fill: steelblue;"></circle><circle cx="148.63317489624023" cy="202.84572960808873" r="3" style="fill: steelblue;"></circle><circle cx="247.3856406658888" cy="200.76802903786302" r="3" style="fill: steelblue;"></circle><circle cx="211.47289037704468" cy="131.16572489961982" r="3" style="fill: steelblue;"></circle><circle cx="213.8167078793049" cy="182.59174197446555" r="3" style="fill: steelblue;"></circle><circle cx="253.707951977849" cy="245.55871840566397" r="3" style="fill: steelblue;"></circle><circle cx="313.35690423846245" cy="197.6376100908965" r="3" style="fill: steelblue;"></circle><circle cx="122.96998679637909" cy="238.10628075152636" r="3" style="fill: steelblue;"></circle><circle cx="226.4709059894085" cy="229.23269048333168" r="3" style="fill: steelblue;"></circle><circle cx="237.94138088822365" cy="211.3994687795639" r="3" style="fill: steelblue;"></circle><circle cx="198.41763228178024" cy="238.46718687564135" r="3" style="fill: steelblue;"></circle><circle cx="39.06293034553528" cy="200.72741406038404" r="3" style="fill: steelblue;"></circle><circle cx="278.57743989676237" cy="133.8219542056322" r="3" style="fill: steelblue;"></circle><circle cx="251.2051934748888" cy="177.3364262888208" r="3" style="fill: steelblue;"></circle><circle cx="429.36507403850555" cy="159.17223407886922" r="3" style="fill: steelblue;"></circle><circle cx="341.4675745368004" cy="57.27096199989319" r="3" style="fill: steelblue;"></circle><circle cx="295.2089861780405" cy="119.26640029996634" r="3" style="fill: steelblue;"></circle><circle cx="392.52330243587494" cy="94.19670440256596" r="3" style="fill: steelblue;"></circle><circle cx="425.51083624362946" cy="287.5643253326416" r="3" style="fill: steelblue;"></circle><circle cx="407.18322694301605" cy="165.21760560572147" r="3" style="fill: steelblue;"></circle><circle cx="322.27193534374237" cy="147.26121230050921" r="3" style="fill: steelblue;"></circle><circle cx="344.0400892496109" cy="155.13354721479118" r="3" style="fill: steelblue;"></circle><circle cx="443.83147716522217" cy="225.55656237527728" r="3" style="fill: steelblue;"></circle><circle cx="349.2585200071335" cy="231.46181385964155" r="3" style="fill: steelblue;"></circle><circle cx="339.22786831855774" cy="101.44844017922878" r="3" style="fill: steelblue;"></circle><circle cx="148.65193158388138" cy="241.9471863657236" r="3" style="fill: steelblue;"></circle><circle cx="309.3345160782337" cy="201.6858753748238" r="3" style="fill: steelblue;"></circle><circle cx="210.46484515070915" cy="187.8908467013389" r="3" style="fill: steelblue;"></circle><circle cx="270.50595521810465" cy="203.38472882285714" r="3" style="fill: steelblue;"></circle><circle cx="159.2834973335266" cy="233.14791563898325" r="3" style="fill: steelblue;"></circle><circle cx="273.93800544552505" cy="286.417418345809" r="3" style="fill: steelblue;"></circle><circle cx="256.0825598984957" cy="216.15703096613288" r="3" style="fill: steelblue;"></circle><circle cx="269.97722402215004" cy="243.15163884311914" r="3" style="fill: steelblue;"></circle><circle cx="290.2906181663275" cy="215.01862835139036" r="3" style="fill: steelblue;"></circle><circle cx="265.24781093001366" cy="274.550100043416" r="3" style="fill: steelblue;"></circle><circle cx="217.38306552171707" cy="304.3841674923897" r="3" style="fill: steelblue;"></circle><circle cx="191.32202804088593" cy="231.5435979515314" r="3" style="fill: steelblue;"></circle><circle cx="209.4816479086876" cy="166.09644151758403" r="3" style="fill: steelblue;"></circle><circle cx="212.55413576960564" cy="152.32171136885881" r="3" style="fill: steelblue;"></circle><circle cx="418.62577199935913" cy="152.8368240222335" r="3" style="fill: steelblue;"></circle><circle cx="346.0699474811554" cy="113.54736816138029" r="3" style="fill: steelblue;"></circle><circle cx="336.35589838027954" cy="133.4617456421256" r="3" style="fill: steelblue;"></circle><circle cx="359.54535216093063" cy="117.47030559927225" r="3" style="fill: steelblue;"></circle><circle cx="376.23335659503937" cy="66.87994413077831" r="3" style="fill: steelblue;"></circle><circle cx="287.6278243213892" cy="79.38069961965084" r="3" style="fill: steelblue;"></circle><circle cx="314.972260594368" cy="5.184945836663246" r="3" style="fill: steelblue;"></circle><circle cx="301.96193888783455" cy="40.42804166674614" r="3" style="fill: steelblue;"></circle><circle cx="375.85572838783264" cy="69.32183001190424" r="3" style="fill: steelblue;"></circle><circle cx="180.8026885986328" cy="131.1877534724772" r="3" style="fill: steelblue;"></circle><circle cx="242.21276387572289" cy="179.9035120755434" r="3" style="fill: steelblue;"></circle><circle cx="192.26514905691147" cy="232.9136135056615" r="3" style="fill: steelblue;"></circle><circle cx="187.99879521131516" cy="224.20429550111294" r="3" style="fill: steelblue;"></circle><circle cx="227.8236284852028" cy="197.71205023862422" r="3" style="fill: steelblue;"></circle><circle cx="162.41381227970123" cy="196.3400397915393" r="3" style="fill: steelblue;"></circle><circle cx="223.77086028456688" cy="224.96308172121644" r="3" style="fill: steelblue;"></circle><circle cx="191.85307323932648" cy="209.55428080633283" r="3" style="fill: steelblue;"></circle><circle cx="301.4315414428711" cy="261.9776392355561" r="3" style="fill: steelblue;"></circle><circle cx="175.4836830496788" cy="192.36536878161132" r="3" style="fill: steelblue;"></circle><circle cx="350.33425748348236" cy="309.8540596663952" r="3" style="fill: steelblue;"></circle><circle cx="249.4875443726778" cy="280.5998606607318" r="3" style="fill: steelblue;"></circle><circle cx="278.04912954568863" cy="117.94361025094986" r="3" style="fill: steelblue;"></circle><circle cx="334.6838817000389" cy="77.47101988643408" r="3" style="fill: steelblue;"></circle><circle cx="455.7162970304489" cy="64.25294391810894" r="3" style="fill: steelblue;"></circle><circle cx="278.8765702396631" cy="15.940913185477257" r="3" style="fill: steelblue;"></circle><circle cx="437.72560000419617" cy="154.9910883884877" r="3" style="fill: steelblue;"></circle><circle cx="503.08118999004364" cy="78.63925136625767" r="3" style="fill: steelblue;"></circle><circle cx="88.65772068500519" cy="213.12647564336658" r="3" style="fill: steelblue;"></circle><circle cx="150.8814024925232" cy="298.4524641185999" r="3" style="fill: steelblue;"></circle><circle cx="329.41423416137695" cy="223.00222255289555" r="3" style="fill: steelblue;"></circle><circle cx="62.42864549160004" cy="340.78470543026924" r="3" style="fill: steelblue;"></circle><circle cx="128.8445234298706" cy="260.7193963602185" r="3" style="fill: steelblue;"></circle><circle cx="177.97900646924973" cy="211.83526813983917" r="3" style="fill: steelblue;"></circle></g></svg>