<svg xmlns="http://www.w3.org/2000/svg"><g><circle cx="5.1765335930718335" cy="85.54470539093018" r="2" style="fill: steelblue;"></circle><circle cx="24.89490078555213" cy="49.20579316094518" r="2" style="fill: steelblue;"></circle><circle cx="8.867216772503324" cy="66.72954261302948" r="2" style="fill: steelblue;"></circle><circle cx="20.421355300479465" cy="81.80770874023438" r="2" style="fill: steelblue;"></circle><circle cx="22.740778989262054" cy="65.15507251024246" r="2" style="fill: steelblue;"></circle><circle cx="23.782567183176678" cy="36.73636466264725" r="2" style="fill: steelblue;"></circle><circle cx="46.057649950186416" cy="75.03940463066101" r="2" style="fill: steelblue;"></circle><circle cx="5.236091878679066" cy="39.48938325047493" r="2" style="fill: steelblue;"></circle><circle cx="56.64528095059925" cy="65.98778516054153" r="2" style="fill: steelblue;"></circle><circle cx="29.35114767816332" cy="62.86521404981613" r="2" style="fill: steelblue;"></circle><circle cx="31.445591151714325" cy="41.43323972821236" r="2" style="fill: steelblue;"></circle><circle cx="39.24945592880249" cy="59.16451886296272" r="2" style="fill: steelblue;"></circle><circle cx="71.37201825777689" cy="48.898014053702354" r="2" style="fill: steelblue;"></circle><circle cx="6.31963478194343" cy="66.69348031282425" r="2" style="fill: steelblue;"></circle><circle cx="54.67620839675268" cy="57.938267290592194" r="2" style="fill: steelblue;"></circle><circle cx="22.192047039667766" cy="86.25997602939606" r="2" style="fill: steelblue;"></circle><circle cx="19.045615527364944" cy="55.718982219696045" r="2" style="fill: steelblue;"></circle><circle cx="19.748771521780228" cy="69.79304552078247" r="2" style="fill: steelblue;"></circle><circle cx="67.17762119240231" cy="35.85827499628067" r="2" style="fill: steelblue;"></circle><circle cx="51.24930847022269" cy="27.68760472536087" r="2" style="fill: steelblue;"></circle><circle cx="40.859973844554695" cy="33.83161872625351" r="2" style="fill: steelblue;"></circle><circle cx="45.72455663647917" cy="67.96977072954178" r="2" style="fill: steelblue;"></circle><circle cx="54.07492584652371" cy="62.04448118805885" r="2" style="fill: steelblue;"></circle><circle cx="38.20766607920329" cy="61.12875938415527" r="2" style="fill: steelblue;"></circle><circle cx="9.051580561531917" cy="83.18686783313751" r="2" style="fill: steelblue;"></circle><circle cx="7.500839895672271" cy="44.20776404440403" r="2" style="fill: steelblue;"></circle><circle cx="21.945270564821033" cy="66.81028455495834" r="2" style="fill: steelblue;"></circle><circle cx="33.45068064000872" cy="51.36174773797393" r="2" style="fill: steelblue;"></circle><circle cx="32.87539316548242" cy="81.9582998752594" r="2" style="fill: steelblue;"></circle><circle cx="51.56127876705594" cy="34.32742953300476" r="2" style="fill: steelblue;"></circle><circle cx="70.29902868800694" cy="39.159344881772995" r="2" style="fill: steelblue;"></circle><circle cx="53.83405105935203" cy="27.52469927072525" r="2" style="fill: steelblue;"></circle><circle cx="71.66254950894249" cy="26.933512091636658" r="2" style="fill: steelblue;"></circle><circle cx="61.09557814068265" cy="51.58052146434784" r="2" style="fill: steelblue;"></circle><circle cx="56.64589603741964" cy="43.98709610104561" r="2" style="fill: steelblue;"></circle><circle cx="8.19483002026876" cy="41.90535992383957" r="2" style="fill: steelblue;"></circle><circle cx="16.509979301028785" cy="59.1022863984108" r="2" style="fill: steelblue;"></circle><circle cx="65.70867465602028" cy="57.25919380784035" r="2" style="fill: steelblue;"></circle><circle cx="30.0664183166292" cy="73.73365014791489" r="2" style="fill: steelblue;"></circle><circle cx="62.73869441615211" cy="52.51365192234516" r="2" style="fill: steelblue;"></circle><circle cx="34.96621400117874" cy="27.546656131744385" r="2" style="fill: steelblue;"></circle><circle cx="72.80642721388075" cy="24.603641033172607" r="2" style="fill: steelblue;"></circle><circle cx="63.92825742562612" cy="43.911855295300484" r="2" style="fill: steelblue;"></circle><circle cx="63.954697052637734" cy="31.632626056671143" r="2" style="fill: steelblue;"></circle><circle cx="54.624004662036896" cy="44.25988458096981" r="2" style="fill: steelblue;"></circle><circle cx="37.94861104753283" cy="24.495577812194824" r="2" style="fill: steelblue;"></circle><circle cx="56.57409396436479" cy="68.337981402874" r="2" style="fill: steelblue;"></circle><circle cx="14.113014936447147" cy="80.85487186908722" r="2" style="fill: steelblue;"></circle><circle cx="6.895601087146337" cy="75.29317736625671" r="2" style="fill: steelblue;"></circle><circle cx="19.502610961596172" cy="79.44615483283997" r="2" style="fill: steelblue;"></circle><circle cx="55.140454073747" cy="45.59591896831989" r="2" style="fill: steelblue;"></circle><circle cx="37.01236860619651" cy="80.01626431941986" r="2" style="fill: steelblue;"></circle><circle cx="21.567776136928135" cy="62.120362371206284" r="2" style="fill: steelblue;"></circle><circle cx="38.605978257126274" cy="54.89503964781761" r="2" style="fill: steelblue;"></circle><circle cx="53.540783789422775" cy="42.063333094120026" r="2" style="fill: steelblue;"></circle><circle cx="33.32521534628338" cy="67.65475124120712" r="2" style="fill: steelblue;"></circle><circle cx="11.546203825208877" cy="45.78422009944916" r="2" style="fill: steelblue;"></circle><circle cx="41.3460623472929" cy="63.06832730770111" r="2" style="fill: steelblue;"></circle><circle cx="28.70036926534441" cy="33.76844525337219" r="2" style="fill: steelblue;"></circle><circle cx="31.195321182409923" cy="61.82529106736183" r="2" style="fill: steelblue;"></circle><circle cx="63.00706929630704" cy="80.35455346107483" r="2" style="fill: steelblue;"></circle><circle cx="73.47629070281982" cy="74.20597523450851" r="2" style="fill: steelblue;"></circle><circle cx="10.117748710844253" cy="95.39034068584442" r="2" style="fill: steelblue;"></circle><circle cx="1.1439614825778563" cy="92.4610823392868" r="2" style="fill: steelblue;"></circle><circle cx="10.393728150261774" cy="61.83309555053711" r="2" style="fill: steelblue;"></circle><circle cx="2.2410743766360834" cy="75.02829730510712" r="2" style="fill: steelblue;"></circle><circle cx="48.74586785833041" cy="76.08241438865662" r="2" style="fill: steelblue;"></circle><circle cx="27.97979381349352" cy="39.549820125103" r="2" style="fill: steelblue;"></circle><circle cx="46.21445900864071" cy="82.60866701602936" r="2" style="fill: steelblue;"></circle><circle cx="23.387241032388477" cy="52.42206286638975" r="2" style="fill: steelblue;"></circle><circle cx="11.965926488240562" cy="85.3565901517868" r="2" style="fill: steelblue;"></circle><circle cx="69.84979179170396" cy="35.6086328625679" r="2" style="fill: steelblue;"></circle><circle cx="50.56806546118524" cy="38.88152465224266" r="2" style="fill: steelblue;"></circle><circle cx="63.064178824424744" cy="22.971901297569275" r="2" style="fill: steelblue;"></circle><circle cx="72.67478373315599" cy="46.94144111126661" r="2" style="fill: steelblue;"></circle><circle cx="37.901121046808036" cy="54.10316847264767" r="2" style="fill: steelblue;"></circle><circle cx="46.63975511988004" cy="27.123838663101196" r="2" style="fill: steelblue;"></circle><circle cx="68.8175982899136" cy="46.22322469949722" r="2" style="fill: steelblue;"></circle><circle cx="80.53730196423001" cy="52.03127693384886" r="2" style="fill: steelblue;"></circle><circle cx="18.514106008741592" cy="35.364991426467896" r="2" style="fill: steelblue;"></circle><circle cx="91.97492334577773" cy="25.325685739517212" r="2" style="fill: steelblue;"></circle><circle cx="75.57312581274245" cy="7.754537463188171" r="2" style="fill: steelblue;"></circle><circle cx="45.95065795713001" cy="43.38530972599983" r="2" style="fill: steelblue;"></circle><circle cx="65.08841547701094" cy="59.464265406131744" r="2" style="fill: steelblue;"></circle><circle cx="7.4041081799401205" cy="65.89391231536865" r="2" style="fill: steelblue;"></circle><circle cx="23.374684320555794" cy="58.515557646751404" r="2" style="fill: steelblue;"></circle><circle cx="34.3765667743153" cy="52.74317692965269" r="2" style="fill: steelblue;"></circle><circle cx="67.70790053738487" cy="33.59004408121109" r="2" style="fill: steelblue;"></circle><circle cx="31.41499741209878" cy="43.269648402929306" r="2" style="fill: steelblue;"></circle><circle cx="94.13756529490152" cy="40.626221895217896" r="2" style="fill: steelblue;"></circle><circle cx="79.48399517271254" cy="44.67869848012924" r="2" style="fill: steelblue;"></circle><circle cx="77.6839878824022" cy="36.20552569627762" r="2" style="fill: steelblue;"></circle><circle cx="87.66951759656271" cy="50.30824448913336" r="2" style="fill: steelblue;"></circle><circle cx="53.72821059491899" cy="47.66971431672573" r="2" style="fill: steelblue;"></circle><circle cx="58.8644802570343" cy="44.40753012895584" r="2" style="fill: steelblue;"></circle><circle cx="75.72275002797446" cy="41.02756306529045" r="2" style="fill: steelblue;"></circle><circle cx="83.03024967511496" cy="38.925378024578094" r="2" style="fill: steelblue;"></circle><circle cx="41.39731406337685" cy="65.28862118721008" r="2" style="fill: steelblue;"></circle><circle cx="19.099834230211048" cy="31.472639739513397" r="2" style="fill: steelblue;"></circle><circle cx="67.22830832004547" cy="34.31723862886429" r="2" style="fill: steelblue;"></circle><circle cx="35.15113741159439" cy="50.04682688449975" r="2" style="fill: steelblue;"></circle><circle cx="58.51631462574005" cy="43.07692348957062" r="2" style="fill: steelblue;"></circle><circle cx="63.41206298934089" cy="33.59406292438507" r="2" style="fill: steelblue;"></circle><circle cx="55.03198934925927" cy="14.388889074325562" r="2" style="fill: steelblue;"></circle><circle cx="56.9945815536711" cy="20.296710729599" r="2" style="fill: steelblue;"></circle><circle cx="62.282260258992515" cy="26.360148191452026" r="2" style="fill: steelblue;"></circle><circle cx="65.16723599698808" cy="27.450819313526154" r="2" style="fill: steelblue;"></circle><circle cx="41.36372829476993" cy="35.19159257411957" r="2" style="fill: steelblue;"></circle><circle cx="62.41334742969937" cy="41.11963137984276" r="2" style="fill: steelblue;"></circle><circle cx="66.57117207845053" cy="58.31856355071068" r="2" style="fill: steelblue;"></circle><circle cx="61.72122657299042" cy="29.310059547424316" r="2" style="fill: steelblue;"></circle><circle cx="34.16183690230052" cy="46.89953625202179" r="2" style="fill: steelblue;"></circle><circle cx="34.15475388367971" cy="79.57440912723541" r="2" style="fill: steelblue;"></circle><circle cx="54.519495368003845" cy="42.37317368388176" r="2" style="fill: steelblue;"></circle><circle cx="30.824113388856254" cy="66.41193926334381" r="2" style="fill: steelblue;"></circle><circle cx="16.853439476754932" cy="59.78304520249367" r="2" style="fill: steelblue;"></circle><circle cx="37.35419048203363" cy="72.88744449615479" r="2" style="fill: steelblue;"></circle><circle cx="51.67142318354713" cy="46.59681022167206" r="2" style="fill: steelblue;"></circle></g></svg>