<svg xmlns="http://www.w3.org/2000/svg"><g><circle cx="12.506297975778583" cy="94.82346640692818" r="2" style="fill: steelblue;"></circle><circle cx="54.211719147861004" cy="75.10509921444786" r="2" style="fill: steelblue;"></circle><circle cx="49.251054134219885" cy="91.13278322749667" r="2" style="fill: steelblue;"></circle><circle cx="3.3258862793445614" cy="79.57864469952054" r="2" style="fill: steelblue;"></circle><circle cx="2.3371122777462032" cy="77.25922101073795" r="2" style="fill: steelblue;"></circle><circle cx="3.134503215551379" cy="76.21743281682332" r="2" style="fill: steelblue;"></circle><circle cx="30.370938777923584" cy="53.942350049813584" r="2" style="fill: steelblue;"></circle><circle cx="40.09354971349239" cy="94.76390812132094" r="2" style="fill: steelblue;"></circle><circle cx="41.72587040811777" cy="43.35471904940075" r="2" style="fill: steelblue;"></circle><circle cx="41.93963408470154" cy="70.64885232183669" r="2" style="fill: steelblue;"></circle><circle cx="44.30924421176314" cy="68.55440884828568" r="2" style="fill: steelblue;"></circle><circle cx="39.34716172516346" cy="60.75054407119751" r="2" style="fill: steelblue;"></circle><circle cx="33.54032076895237" cy="28.627981742223106" r="2" style="fill: steelblue;"></circle><circle cx="46.77052814513445" cy="93.68036521805656" r="2" style="fill: steelblue;"></circle><circle cx="30.29664158821106" cy="45.32379160324732" r="2" style="fill: steelblue;"></circle><circle cx="45.102353394031525" cy="77.80795296033223" r="2" style="fill: steelblue;"></circle><circle cx="53.397269174456596" cy="80.95438447263506" r="2" style="fill: steelblue;"></circle><circle cx="33.35198312997818" cy="80.25122847821977" r="2" style="fill: steelblue;"></circle><circle cx="22.55334258079529" cy="32.82237880759769" r="2" style="fill: steelblue;"></circle><circle cx="47.48712847940624" cy="48.75069152977731" r="2" style="fill: steelblue;"></circle><circle cx="31.2613595277071" cy="59.14002615544531" r="2" style="fill: steelblue;"></circle><circle cx="72.04125933349133" cy="54.275443363520836" r="2" style="fill: steelblue;"></circle><circle cx="36.17149889469147" cy="45.92507415347629" r="2" style="fill: steelblue;"></circle><circle cx="24.343340843915943" cy="61.79233392079671" r="2" style="fill: steelblue;"></circle><circle cx="25.3968957811594" cy="90.9484194384681" r="2" style="fill: steelblue;"></circle><circle cx="65.2311148121953" cy="92.49916010432773" r="2" style="fill: steelblue;"></circle><circle cx="29.36352714896202" cy="78.05472943517897" r="2" style="fill: steelblue;"></circle><circle cx="39.23750687390566" cy="66.54931935999129" r="2" style="fill: steelblue;"></circle><circle cx="69.11037415266037" cy="67.12460683451758" r="2" style="fill: steelblue;"></circle><circle cx="72.35288359224796" cy="48.43872123294406" r="2" style="fill: steelblue;"></circle><circle cx="58.10220371931791" cy="29.70097131199306" r="2" style="fill: steelblue;"></circle><circle cx="79.9496240913868" cy="46.16594894064797" r="2" style="fill: steelblue;"></circle><circle cx="56.93367002531886" cy="28.337450491057503" r="2" style="fill: steelblue;"></circle><circle cx="51.22227764222771" cy="38.90442185931735" r="2" style="fill: steelblue;"></circle><circle cx="46.48898211307824" cy="43.35410396258036" r="2" style="fill: steelblue;"></circle><circle cx="47.80268012546003" cy="91.80516997973123" r="2" style="fill: steelblue;"></circle><circle cx="45.59130426496267" cy="83.49002069897121" r="2" style="fill: steelblue;"></circle><circle cx="27.552495896816254" cy="34.29132534397973" r="2" style="fill: steelblue;"></circle><circle cx="13.159877806901935" cy="69.9335816833708" r="2" style="fill: steelblue;"></circle><circle cx="15.93611687421799" cy="37.26130558384789" r="2" style="fill: steelblue;"></circle><circle cx="28.384004905819893" cy="65.03378599882126" r="2" style="fill: steelblue;"></circle><circle cx="91.66161641478539" cy="27.193572786119248" r="2" style="fill: steelblue;"></circle><circle cx="37.327080219984055" cy="36.07174257437388" r="2" style="fill: steelblue;"></circle><circle cx="44.709907565265894" cy="36.045302947362266" r="2" style="fill: steelblue;"></circle><circle cx="60.05272660404444" cy="45.375995337963104" r="2" style="fill: steelblue;"></circle><circle cx="66.20779931545258" cy="62.05138895246718" r="2" style="fill: steelblue;"></circle><circle cx="73.080475628376" cy="43.42590603563521" r="2" style="fill: steelblue;"></circle><circle cx="23.558718338608745" cy="85.88698506355286" r="2" style="fill: steelblue;"></circle><circle cx="71.6514840722084" cy="93.10439891285365" r="2" style="fill: steelblue;"></circle><circle cx="73.88627640902996" cy="80.49738903840382" r="2" style="fill: steelblue;"></circle><circle cx="59.84502863138914" cy="44.859545926253" r="2" style="fill: steelblue;"></circle><circle cx="41.408584639430046" cy="62.98763139380349" r="2" style="fill: steelblue;"></circle><circle cx="35.64415704458952" cy="78.43222386307187" r="2" style="fill: steelblue;"></circle><circle cx="67.99377985298634" cy="61.39402174287372" r="2" style="fill: steelblue;"></circle><circle cx="19.533497467637066" cy="46.459216210577225" r="2" style="fill: steelblue;"></circle><circle cx="23.116071894764904" cy="66.67478465371661" r="2" style="fill: steelblue;"></circle><circle cx="79.08934839069843" cy="88.45379617479112" r="2" style="fill: steelblue;"></circle><circle cx="50.507621094584465" cy="58.6539376527071" r="2" style="fill: steelblue;"></circle><circle cx="37.939104437828064" cy="71.2996307346556" r="2" style="fill: steelblue;"></circle><circle cx="57.65809090808034" cy="68.80467881759007" r="2" style="fill: steelblue;"></circle><circle cx="46.44453846849501" cy="36.99293070369296" r="2" style="fill: steelblue;"></circle><circle cx="28.34308072924614" cy="26.523709297180176" r="2" style="fill: steelblue;"></circle><circle cx="43.71366295963526" cy="89.88225128915575" r="2" style="fill: steelblue;"></circle><circle cx="15.600613504648212" cy="98.85603851742214" r="2" style="fill: steelblue;"></circle><circle cx="52.7080534491688" cy="89.60627184973823" r="2" style="fill: steelblue;"></circle><circle cx="18.751179054379467" cy="97.75892562336391" r="2" style="fill: steelblue;"></circle><circle cx="18.846881762146953" cy="51.25413214166959" r="2" style="fill: steelblue;"></circle><circle cx="21.071371808648113" cy="72.02020618650648" r="2" style="fill: steelblue;"></circle><circle cx="47.5923968013376" cy="53.785540991359284" r="2" style="fill: steelblue;"></circle><circle cx="22.60013595223427" cy="76.61275896761153" r="2" style="fill: steelblue;"></circle><circle cx="25.170321762561798" cy="88.03407351175943" r="2" style="fill: steelblue;"></circle><circle cx="67.38291792571545" cy="30.150208208296036" r="2" style="fill: steelblue;"></circle><circle cx="73.43706041574478" cy="49.43193453881476" r="2" style="fill: steelblue;"></circle><circle cx="33.786558732390404" cy="36.935821175575256" r="2" style="fill: steelblue;"></circle><circle cx="53.14490939490497" cy="27.32521626684401" r="2" style="fill: steelblue;"></circle><circle cx="47.23415914922953" cy="62.09887895319197" r="2" style="fill: steelblue;"></circle><circle cx="65.61640109866858" cy="53.36024488011996" r="2" style="fill: steelblue;"></circle><circle cx="35.08038092404604" cy="31.182401710086395" r="2" style="fill: steelblue;"></circle><circle cx="69.29602026939392" cy="19.46269803576999" r="2" style="fill: steelblue;"></circle><circle cx="71.52719721198082" cy="81.48589399125841" r="2" style="fill: steelblue;"></circle><circle cx="52.63250223360956" cy="8.025076654222275" r="2" style="fill: steelblue;"></circle><circle cx="89.28244858980179" cy="24.426874187257553" r="2" style="fill: steelblue;"></circle><circle cx="52.15144641697407" cy="54.049342042869995" r="2" style="fill: steelblue;"></circle><circle cx="53.393905935809016" cy="34.91158452298906" r="2" style="fill: steelblue;"></circle><circle cx="42.38028470426798" cy="92.59589182005989" r="2" style="fill: steelblue;"></circle><circle cx="42.48291179537773" cy="76.6253156794442" r="2" style="fill: steelblue;"></circle><circle cx="45.537593960762024" cy="65.62343322568469" r="2" style="fill: steelblue;"></circle><circle cx="40.96005316823721" cy="32.29209946261512" r="2" style="fill: steelblue;"></circle><circle cx="48.5950292320922" cy="68.58500258790122" r="2" style="fill: steelblue;"></circle><circle cx="52.077351324260235" cy="5.862434705098474" r="2" style="fill: steelblue;"></circle><circle cx="83.34102034568787" cy="20.51600482728746" r="2" style="fill: steelblue;"></circle><circle cx="59.49105527251959" cy="22.316012117597793" r="2" style="fill: steelblue;"></circle><circle cx="60.080499574542046" cy="12.330482403437292" r="2" style="fill: steelblue;"></circle><circle cx="67.21109077334404" cy="46.27178940508101" r="2" style="fill: steelblue;"></circle><circle cx="47.672228841111064" cy="41.1355197429657" r="2" style="fill: steelblue;"></circle><circle cx="84.10917147994041" cy="24.27724997202555" r="2" style="fill: steelblue;"></circle><circle cx="79.50792573392391" cy="16.969750324885048" r="2" style="fill: steelblue;"></circle><circle cx="79.7713354229927" cy="58.602685936623146" r="2" style="fill: steelblue;"></circle><circle cx="54.116468131542206" cy="80.90016576978896" r="2" style="fill: steelblue;"></circle><circle cx="50.39463525172323" cy="32.77169167995453" r="2" style="fill: steelblue;"></circle><circle cx="73.6346535384655" cy="64.84886258840561" r="2" style="fill: steelblue;"></circle><circle cx="62.03829329460859" cy="41.48368537425995" r="2" style="fill: steelblue;"></circle><circle cx="71.5530302375555" cy="36.58793701065911" r="2" style="fill: steelblue;"></circle><circle cx="64.45778924971819" cy="44.96801065074073" r="2" style="fill: steelblue;"></circle><circle cx="70.34419029951096" cy="43.0054184463289" r="2" style="fill: steelblue;"></circle><circle cx="36.719170585274696" cy="37.717739741007485" r="2" style="fill: steelblue;"></circle><circle cx="62.2804855927825" cy="34.83276400301192" r="2" style="fill: steelblue;"></circle><circle cx="70.80280892550945" cy="58.63627170523007" r="2" style="fill: steelblue;"></circle><circle cx="86.70082986354828" cy="37.58665257030063" r="2" style="fill: steelblue;"></circle><circle cx="49.93296808679588" cy="33.42882792154948" r="2" style="fill: steelblue;"></circle><circle cx="92.31419041752815" cy="38.27877342700958" r="2" style="fill: steelblue;"></circle><circle cx="41.35925155133009" cy="65.83816309769948" r="2" style="fill: steelblue;"></circle><circle cx="14.848693460226063" cy="65.84524611632028" r="2" style="fill: steelblue;"></circle><circle cx="23.750477656722072" cy="45.480504631996155" r="2" style="fill: steelblue;"></circle><circle cx="39.005557261407375" cy="69.17588661114374" r="2" style="fill: steelblue;"></circle><circle cx="21.993580460548404" cy="83.14656052324507" r="2" style="fill: steelblue;"></circle><circle cx="18.174573034048084" cy="62.64580951796637" r="2" style="fill: steelblue;"></circle><circle cx="16.740831732749943" cy="48.32857681645287" r="2" style="fill: steelblue;"></circle></g></svg>