<svg xmlns="http://www.w3.org/2000/svg"><g transform="translate(40,20)"><circle cx="418.08858521282673" cy="94.87334224912854" r="3" style="fill: steelblue;"></circle><circle cx="230.71500135585666" cy="183.40844671345417" r="3" style="fill: steelblue;"></circle><circle cx="409.65156599879265" cy="78.45969332589044" r="3" style="fill: steelblue;"></circle><circle cx="353.1555990502238" cy="212.96262430648005" r="3" style="fill: steelblue;"></circle><circle cx="285.15971585176885" cy="201.20066445734767" r="3" style="fill: steelblue;"></circle><circle cx="332.42534033954144" cy="130.96186849806043" r="3" style="fill: steelblue;"></circle><circle cx="431.771884560585" cy="62.50391072697108" r="3" style="fill: steelblue;"></circle><circle cx="307.0652007870376" cy="118.45725940333472" r="3" style="fill: steelblue;"></circle><circle cx="392.50859923660755" cy="81.40454358524745" r="3" style="fill: steelblue;"></circle><circle cx="428.82716104388237" cy="159.12870524658098" r="3" style="fill: steelblue;"></circle><circle cx="432.27149963378906" cy="73.18597866429224" r="3" style="fill: steelblue;"></circle><circle cx="273.63020153017715" cy="162.05084820588428" r="3" style="fill: steelblue;"></circle><circle cx="238.0252891033888" cy="124.12748403019374" r="3" style="fill: steelblue;"></circle><circle cx="383.4153474122286" cy="188.03582402567065" r="3" style="fill: steelblue;"></circle><circle cx="393.36948774755" cy="64.90033202701146" r="3" style="fill: steelblue;"></circle><circle cx="378.51687267422676" cy="192.32523919911023" r="3" style="fill: steelblue;"></circle><circle cx="355.84478683769703" cy="206.34316094219685" r="3" style="fill: steelblue;"></circle><circle cx="311.3392748683691" cy="214.36427057617243" r="3" style="fill: steelblue;"></circle><circle cx="190.98614070564508" cy="50.038115845786194" r="3" style="fill: steelblue;"></circle><circle cx="432.531516328454" cy="219.7283146282037" r="3" style="fill: steelblue;"></circle><circle cx="193.74821081757545" cy="146.7627853982978" r="3" style="fill: steelblue;"></circle><circle cx="201.60163331776857" cy="175.76728305882875" r="3" style="fill: steelblue;"></circle><circle cx="227.32403453439474" cy="245.38353333870566" r="3" style="fill: steelblue;"></circle><circle cx="146.31132267415524" cy="92.51889917585584" r="3" style="fill: steelblue;"></circle><circle cx="266.88430388923734" cy="209.9817051655716" r="3" style="fill: steelblue;"></circle><circle cx="315.7578990608454" cy="172.03468477560415" r="3" style="fill: steelblue;"></circle><circle cx="346.70178674161434" cy="176.81008328994113" r="3" style="fill: steelblue;"></circle><circle cx="237.69705964252353" cy="143.13181655274497" r="3" style="fill: steelblue;"></circle><circle cx="451.8084888160229" cy="185.28837182869512" r="3" style="fill: steelblue;"></circle><circle cx="92.84710854291917" cy="248.54755815532474" r="3" style="fill: steelblue;"></circle><circle cx="265.7794095855206" cy="226.51759742034804" r="3" style="fill: steelblue;"></circle><circle cx="230.57553319260478" cy="213.84060900244447" r="3" style="fill: steelblue;"></circle><circle cx="192.96931240707636" cy="264.31397514210806" r="3" style="fill: steelblue;"></circle><circle cx="366.8302834779024" cy="184.14979355616703" r="3" style="fill: steelblue;"></circle><circle cx="208.309764303267" cy="185.64451527264384" r="3" style="fill: steelblue;"></circle><circle cx="133.1618566811085" cy="177.62474425964888" r="3" style="fill: steelblue;"></circle><circle cx="205.9993664547801" cy="339.04344174597" r="3" style="fill: steelblue;"></circle><circle cx="118.14563356339933" cy="227.90097238288985" r="3" style="fill: steelblue;"></circle><circle cx="184.41441513597965" cy="184.93487954967554" r="3" style="fill: steelblue;"></circle><circle cx="261.6206474415958" cy="136.3186008400387" r="3" style="fill: steelblue;"></circle><circle cx="194.01117961853743" cy="184.76835234711564" r="3" style="fill: steelblue;"></circle><circle cx="71.10761672258378" cy="193.193343687906" r="3" style="fill: steelblue;"></circle><circle cx="196.07945948839188" cy="266.8926633066601" r="3" style="fill: steelblue;"></circle><circle cx="192.25674837827682" cy="190.22577318052447" r="3" style="fill: steelblue;"></circle><circle cx="63.41172203421594" cy="137.29797303676605" r="3" style="fill: steelblue;"></circle><circle cx="78.49952995777132" cy="331.9411476453145" r="3" style="fill: steelblue;"></circle><circle cx="162.71876737475395" cy="207.79092009696694" r="3" style="fill: steelblue;"></circle><circle cx="61.99072793126108" cy="263.58841359615326" r="3" style="fill: steelblue;"></circle><circle cx="288.68988052010536" cy="266.6356480783886" r="3" style="fill: steelblue;"></circle><circle cx="350.66583182662725" cy="168.03659912612704" r="3" style="fill: steelblue;"></circle><circle cx="250.15562589280307" cy="162.70322021510867" r="3" style="fill: steelblue;"></circle><circle cx="298.3038094639778" cy="297.638573580318" r="3" style="fill: steelblue;"></circle><circle cx="115.45373506844045" cy="259.6573821372456" r="3" style="fill: steelblue;"></circle><circle cx="77.19973817467691" cy="215.45978987382517" r="3" style="fill: steelblue;"></circle><circle cx="263.80086155142635" cy="297.9107598463694" r="3" style="fill: steelblue;"></circle><circle cx="355.1963896304369" cy="230.09856500559385" r="3" style="fill: steelblue;"></circle><circle cx="114.92579586803915" cy="276.1748350328869" r="3" style="fill: steelblue;"></circle><circle cx="98.73001769185068" cy="293.49190824561646" r="3" style="fill: steelblue;"></circle><circle cx="282.7986280247569" cy="245.71722663111154" r="3" style="fill: steelblue;"></circle><circle cx="368.62488247454166" cy="192.13396018474464" r="3" style="fill: steelblue;"></circle><circle cx="257.95155650004745" cy="189.27347002964882" r="3" style="fill: steelblue;"></circle><circle cx="332.1240997686982" cy="249.03837425841223" r="3" style="fill: steelblue;"></circle><circle cx="414.66217048466206" cy="171.14030342135163" r="3" style="fill: steelblue;"></circle><circle cx="297.46447836980224" cy="192.5588443150951" r="3" style="fill: steelblue;"></circle><circle cx="335.24731758981943" cy="215.46564851370124" r="3" style="fill: steelblue;"></circle><circle cx="400.1453713327646" cy="166.0241853031847" r="3" style="fill: steelblue;"></circle><circle cx="306.8721622042358" cy="109.91325891680187" r="3" style="fill: steelblue;"></circle><circle cx="256.8997014127672" cy="87.33017245928448" r="3" style="fill: steelblue;"></circle><circle cx="258.2717720232904" cy="165.48306660519705" r="3" style="fill: steelblue;"></circle><circle cx="457.10749447345734" cy="193.87324607103233" r="3" style="fill: steelblue;"></circle><circle cx="400.15903048217297" cy="200.18497021454903" r="3" style="fill: steelblue;"></circle><circle cx="267.77331441873685" cy="213.12934636241857" r="3" style="fill: steelblue;"></circle><circle cx="371.48609206080437" cy="166.94139275285931" r="3" style="fill: steelblue;"></circle><circle cx="140.59241384267807" cy="170.6685597697894" r="3" style="fill: steelblue;"></circle><circle cx="167.20835275948048" cy="311.31969723436566" r="3" style="fill: steelblue;"></circle><circle cx="193.15226756036282" cy="313.03448809517755" r="3" style="fill: steelblue;"></circle><circle cx="194.65591058135033" cy="169.99836845530405" r="3" style="fill: steelblue;"></circle><circle cx="136.08134396374226" cy="329.9865060382419" r="3" style="fill: steelblue;"></circle><circle cx="68.99408966302873" cy="289.8047723703914" r="3" style="fill: steelblue;"></circle><circle cx="224.39456943422556" cy="140.27131100495654" r="3" style="fill: steelblue;"></circle><circle cx="380.24889908730984" cy="283.1743044985665" r="3" style="fill: steelblue;"></circle><circle cx="139.21651102602482" cy="263.46672657463284" r="3" style="fill: steelblue;"></circle><circle cx="285.5731829814613" cy="297.2891181707382" r="3" style="fill: steelblue;"></circle><circle cx="216.29897363483906" cy="196.13295074345336" r="3" style="fill: steelblue;"></circle><circle cx="332.1847612783313" cy="193.90465997599273" r="3" style="fill: steelblue;"></circle><circle cx="216.78959157317877" cy="236.18130510052043" r="3" style="fill: steelblue;"></circle><circle cx="378.67891162633896" cy="107.25515749719409" r="3" style="fill: steelblue;"></circle><circle cx="353.394468203187" cy="105.55229832728702" r="3" style="fill: steelblue;"></circle><circle cx="387.27092899382114" cy="33.91810589366491" r="3" style="fill: steelblue;"></circle><circle cx="242.78013406321406" cy="110.07270548078748" r="3" style="fill: steelblue;"></circle><circle cx="420.3760602325201" cy="159.3539383676317" r="3" style="fill: steelblue;"></circle><circle cx="290.7654023543" cy="119.00332404507532" r="3" style="fill: steelblue;"></circle><circle cx="314.3957559764385" cy="89.49402140246497" r="3" style="fill: steelblue;"></circle><circle cx="284.7608860395849" cy="137.63425085279675" r="3" style="fill: steelblue;"></circle><circle cx="434.42293636500835" cy="221.1403917107317" r="3" style="fill: steelblue;"></circle><circle cx="87.29688718914987" cy="235.61617814832266" r="3" style="fill: steelblue;"></circle><circle cx="182.1359322220087" cy="213.93038208285964" r="3" style="fill: steelblue;"></circle><circle cx="283.1181407254189" cy="184.95512764073078" r="3" style="fill: steelblue;"></circle><circle cx="359.7473908960819" cy="233.55489306979712" r="3" style="fill: steelblue;"></circle><circle cx="216.86303716152906" cy="311.4222321245405" r="3" style="fill: steelblue;"></circle><circle cx="131.90950982272628" cy="263.13204235500757" r="3" style="fill: steelblue;"></circle><circle cx="127.14087747037412" cy="211.4513994505008" r="3" style="fill: steelblue;"></circle><circle cx="165.21512277424335" cy="207.4043990837203" r="3" style="fill: steelblue;"></circle><circle cx="284.2600048799068" cy="334.9287062883377" r="3" style="fill: steelblue;"></circle><circle cx="161.90738573670387" cy="282.5782646735509" r="3" style="fill: steelblue;"></circle><circle cx="183.47964853048325" cy="325.24950305620825" r="3" style="fill: steelblue;"></circle><circle cx="270.7230034272652" cy="90.14300339751772" r="3" style="fill: steelblue;"></circle><circle cx="477.2179466485977" cy="65.78824917475384" r="3" style="fill: steelblue;"></circle><circle cx="531.3919839262962" cy="175.19269159270658" r="3" style="fill: steelblue;"></circle><circle cx="445.07680132985115" cy="180.52837107744483" r="3" style="fill: steelblue;"></circle><circle cx="414.1419258713722" cy="130.94237446784973" r="3" style="fill: steelblue;"></circle><circle cx="524.2206086218357" cy="131.6303213437398" r="3" style="fill: steelblue;"></circle><circle cx="332.3853234574199" cy="151.2367696397834" r="3" style="fill: steelblue;"></circle><circle cx="67.69912585616113" cy="193.47995852068482" r="3" style="fill: steelblue;"></circle><circle cx="224.95203472673893" cy="190.10832403889958" r="3" style="fill: steelblue;"></circle><circle cx="162.8698629140854" cy="172.661780897114" r="3" style="fill: steelblue;"></circle><circle cx="390.4093147069216" cy="269.78660540448294" r="3" style="fill: steelblue;"></circle><circle cx="333.2802039384842" cy="295.2664560741848" r="3" style="fill: steelblue;"></circle></g></svg>