<svg xmlns="http://www.w3.org/2000/svg"><g transform="translate(40,20)"><circle cx="276.51744425296783" cy="99.17207825928926" r="3" style="fill: steelblue;"></circle><circle cx="329.87642526626587" cy="29.49601523578167" r="3" style="fill: steelblue;"></circle><circle cx="158.81517469882968" cy="127.84326327964664" r="3" style="fill: steelblue;"></circle><circle cx="237.49621599912646" cy="41.6700255125761" r="3" style="fill: steelblue;"></circle><circle cx="342.61322557926184" cy="55.32418116927147" r="3" style="fill: steelblue;"></circle><circle cx="335.6553786993027" cy="89.86319061368704" r="3" style="fill: steelblue;"></circle><circle cx="354.68161940574646" cy="174.57856633409392" r="3" style="fill: steelblue;"></circle><circle cx="214.36275109648705" cy="39.65204134583473" r="3" style="fill: steelblue;"></circle><circle cx="313.7135097384453" cy="169.1036383388564" r="3" style="fill: steelblue;"></circle><circle cx="481.0862624645233" cy="261.52745839208364" r="3" style="fill: steelblue;"></circle><circle cx="450.7539653778076" cy="1.1917829513549805" r="3" style="fill: steelblue;"></circle><circle cx="241.93361341953278" cy="160.2845303248614" r="3" style="fill: steelblue;"></circle><circle cx="253.8883162289858" cy="173.20316984551027" r="3" style="fill: steelblue;"></circle><circle cx="423.7625026702881" cy="203.5912067629397" r="3" style="fill: steelblue;"></circle><circle cx="206.34542271494865" cy="71.33287116885185" r="3" style="fill: steelblue;"></circle><circle cx="377.25538551807404" cy="36.12115904688835" r="3" style="fill: steelblue;"></circle><circle cx="404.8949861526489" cy="123.31199757754803" r="3" style="fill: steelblue;"></circle><circle cx="363.2796013355255" cy="202.12798700667918" r="3" style="fill: steelblue;"></circle><circle cx="423.9047312736511" cy="130.95681853592396" r="3" style="fill: steelblue;"></circle><circle cx="392.74134278297424" cy="119.9297022074461" r="3" style="fill: steelblue;"></circle><circle cx="313.9524677395821" cy="182.53819849342108" r="3" style="fill: steelblue;"></circle><circle cx="283.350313603878" cy="79.08583357930183" r="3" style="fill: steelblue;"></circle><circle cx="436.4950740337372" cy="191.75377925857902" r="3" style="fill: steelblue;"></circle><circle cx="162.4640965461731" cy="188.04829574655741" r="3" style="fill: steelblue;"></circle><circle cx="222.82718360424042" cy="113.58634028583765" r="3" style="fill: steelblue;"></circle><circle cx="253.71510922908783" cy="131.38592587783933" r="3" style="fill: steelblue;"></circle><circle cx="273.75535011291504" cy="110.0758632645011" r="3" style="fill: steelblue;"></circle><circle cx="227.06401214003563" cy="124.72755340859294" r="3" style="fill: steelblue;"></circle><circle cx="355.15127420425415" cy="120.62307093292475" r="3" style="fill: steelblue;"></circle><circle cx="265.97797214984894" cy="274.57465156912804" r="3" style="fill: steelblue;"></circle><circle cx="288.45230877399445" cy="161.04093049652874" r="3" style="fill: steelblue;"></circle><circle cx="143.15345227718356" cy="211.12519381567836" r="3" style="fill: steelblue;"></circle><circle cx="250.1238515228033" cy="202.04559010453522" r="3" style="fill: steelblue;"></circle><circle cx="334.39895153045654" cy="104.70643937587738" r="3" style="fill: steelblue;"></circle><circle cx="201.59885376691818" cy="43.64752508699894" r="3" style="fill: steelblue;"></circle><circle cx="222.10204057395458" cy="221.5627540834248" r="3" style="fill: steelblue;"></circle><circle cx="172.68016129732132" cy="174.86479712060827" r="3" style="fill: steelblue;"></circle><circle cx="346.079363822937" cy="177.5422103353776" r="3" style="fill: steelblue;"></circle><circle cx="249.6158266067505" cy="159.4922530464828" r="3" style="fill: steelblue;"></circle><circle cx="84.22085881233217" cy="231.47707544267178" r="3" style="fill: steelblue;"></circle><circle cx="214.17947798967361" cy="301.8294397741556" r="3" style="fill: steelblue;"></circle><circle cx="64.7851073741913" cy="251.86482928693295" r="3" style="fill: steelblue;"></circle><circle cx="240.5061189411208" cy="225.1028448343277" r="3" style="fill: steelblue;"></circle><circle cx="23.67501497268678" cy="220.7463930360973" r="3" style="fill: steelblue;"></circle><circle cx="61.50703668594362" cy="204.88820988684893" r="3" style="fill: steelblue;"></circle><circle cx="141.6626089811325" cy="187.802918208763" r="3" style="fill: steelblue;"></circle><circle cx="118.76932919025423" cy="254.87038977444172" r="3" style="fill: steelblue;"></circle><circle cx="304.81064558029175" cy="208.61952677369118" r="3" style="fill: steelblue;"></circle><circle cx="93.89143824577333" cy="222.57881304249167" r="3" style="fill: steelblue;"></circle><circle cx="227.31791116297245" cy="224.44916535168886" r="3" style="fill: steelblue;"></circle><circle cx="255.12919440865517" cy="209.1265620663762" r="3" style="fill: steelblue;"></circle><circle cx="98.09044539928438" cy="240.10016974061728" r="3" style="fill: steelblue;"></circle><circle cx="245.56850228458646" cy="222.751325648278" r="3" style="fill: steelblue;"></circle><circle cx="225.0029144436121" cy="251.61315985023975" r="3" style="fill: steelblue;"></circle><circle cx="112.68416583538057" cy="331.4552169293165" r="3" style="fill: steelblue;"></circle><circle cx="290.97359418869024" cy="239.41144924610853" r="3" style="fill: steelblue;"></circle><circle cx="130.57428538799286" cy="126.32698165252805" r="3" style="fill: steelblue;"></circle><circle cx="152.8427892923355" cy="164.43319218233228" r="3" style="fill: steelblue;"></circle><circle cx="121.04173243045808" cy="277.1178076043725" r="3" style="fill: steelblue;"></circle><circle cx="310.5566883087158" cy="216.15374200046062" r="3" style="fill: steelblue;"></circle><circle cx="400.1875841617584" cy="95.33408023416996" r="3" style="fill: steelblue;"></circle><circle cx="398.70357155799866" cy="106.13779462873936" r="3" style="fill: steelblue;"></circle><circle cx="323.1154704093933" cy="82.721858471632" r="3" style="fill: steelblue;"></circle><circle cx="267.7845360338688" cy="110.34509558230639" r="3" style="fill: steelblue;"></circle><circle cx="339.2691904306412" cy="254.10442911088467" r="3" style="fill: steelblue;"></circle><circle cx="259.9170984327793" cy="47.576603665947914" r="3" style="fill: steelblue;"></circle><circle cx="229.4447386264801" cy="159.92022277787328" r="3" style="fill: steelblue;"></circle><circle cx="355.6119704246521" cy="113.4518675506115" r="3" style="fill: steelblue;"></circle><circle cx="133.9130812883377" cy="76.62958577275276" r="3" style="fill: steelblue;"></circle><circle cx="217.1585449576378" cy="46.31134606897831" r="3" style="fill: steelblue;"></circle><circle cx="357.32769906520844" cy="274.28774554282427" r="3" style="fill: steelblue;"></circle><circle cx="201.75182908773422" cy="183.13524355180562" r="3" style="fill: steelblue;"></circle><circle cx="102.82356083393097" cy="272.67838194966316" r="3" style="fill: steelblue;"></circle><circle cx="185.39983570575714" cy="211.7225306108594" r="3" style="fill: steelblue;"></circle><circle cx="236.34942999109626" cy="143.98069232702255" r="3" style="fill: steelblue;"></circle><circle cx="60.02990841865541" cy="136.44654881209135" r="3" style="fill: steelblue;"></circle><circle cx="201.3228589296341" cy="278.1660195440054" r="3" style="fill: steelblue;"></circle><circle cx="129.9245649576187" cy="260.9332084655762" r="3" style="fill: steelblue;"></circle><circle cx="133.79741549491885" cy="280.47670535743237" r="3" style="fill: steelblue;"></circle><circle cx="188.05593341588977" cy="273.35963789373636" r="3" style="fill: steelblue;"></circle><circle cx="74.37307476997377" cy="236.65002193301916" r="3" style="fill: steelblue;"></circle><circle cx="205.86215570569038" cy="240.81478472799063" r="3" style="fill: steelblue;"></circle><circle cx="69.73460555076599" cy="113.7206370010972" r="3" style="fill: steelblue;"></circle><circle cx="173.70105922222137" cy="100.69870594888926" r="3" style="fill: steelblue;"></circle><circle cx="226.42694167792797" cy="191.9046837836504" r="3" style="fill: steelblue;"></circle><circle cx="246.6730219870806" cy="122.45664484798908" r="3" style="fill: steelblue;"></circle><circle cx="360.1653331518174" cy="219.700697530061" r="3" style="fill: steelblue;"></circle><circle cx="166.06599032878879" cy="231.20727594941854" r="3" style="fill: steelblue;"></circle><circle cx="225.39346978068352" cy="37.56089806556702" r="3" style="fill: steelblue;"></circle><circle cx="228.35581205785275" cy="189.61588474921882" r="3" style="fill: steelblue;"></circle><circle cx="420.5454969406128" cy="145.7116368226707" r="3" style="fill: steelblue;"></circle><circle cx="357.62319803237915" cy="49.213146045804024" r="3" style="fill: steelblue;"></circle><circle cx="423.31514596939087" cy="41.14358238875866" r="3" style="fill: steelblue;"></circle><circle cx="428.91146779060364" cy="135.6758877635002" r="3" style="fill: steelblue;"></circle><circle cx="69.91624474525453" cy="218.57671225443482" r="3" style="fill: steelblue;"></circle><circle cx="146.23545348644257" cy="310.4610938578844" r="3" style="fill: steelblue;"></circle><circle cx="89.42463040351869" cy="268.62634364515543" r="3" style="fill: steelblue;"></circle><circle cx="143.11018824577332" cy="210.1718794554472" r="3" style="fill: steelblue;"></circle><circle cx="43.3406674861908" cy="250.92191640287638" r="3" style="fill: steelblue;"></circle><circle cx="89.20107722282411" cy="136.84022724628448" r="3" style="fill: steelblue;"></circle><circle cx="194.66231256723404" cy="151.41207603737712" r="3" style="fill: steelblue;"></circle><circle cx="149.95616912841797" cy="267.2076031565666" r="3" style="fill: steelblue;"></circle><circle cx="184.3123072385788" cy="283.5262708365917" r="3" style="fill: steelblue;"></circle><circle cx="62.05873131752015" cy="206.67874366044998" r="3" style="fill: steelblue;"></circle><circle cx="378.63268196582794" cy="293.75721625983715" r="3" style="fill: steelblue;"></circle><circle cx="296.912961602211" cy="306.31255097687244" r="3" style="fill: steelblue;"></circle><circle cx="237.99204342998567" cy="51.78355909883976" r="3" style="fill: steelblue;"></circle><circle cx="305.010242164135" cy="71.14294562488794" r="3" style="fill: steelblue;"></circle><circle cx="299.37921702861786" cy="84.0711884200573" r="3" style="fill: steelblue;"></circle><circle cx="328.91983330249786" cy="80.63744958490133" r="3" style="fill: steelblue;"></circle><circle cx="438.29816222190857" cy="34.37371104955673" r="3" style="fill: steelblue;"></circle><circle cx="446.3426077365875" cy="28.911133483052254" r="3" style="fill: steelblue;"></circle><circle cx="469.04106974601746" cy="223.2458178885281" r="3" style="fill: steelblue;"></circle><circle cx="127.96179592609407" cy="250.74879750609398" r="3" style="fill: steelblue;"></circle><circle cx="80.15307426452637" cy="266.33321419358253" r="3" style="fill: steelblue;"></circle><circle cx="108.301722407341" cy="244.07531339675188" r="3" style="fill: steelblue;"></circle><circle cx="98.29438269138338" cy="160.4303514584899" r="3" style="fill: steelblue;"></circle><circle cx="166.65114998817444" cy="164.26444118842483" r="3" style="fill: steelblue;"></circle></g></svg>