<svg xmlns="http://www.w3.org/2000/svg"><g><circle cx="27.474329206678604" cy="150.55926367640495" r="2" style="fill: steelblue;"></circle><circle cx="58.08343688646953" cy="189.74582701921463" r="2" style="fill: steelblue;"></circle><circle cx="53.728797700670036" cy="119.84838023781776" r="2" style="fill: steelblue;"></circle><circle cx="30.195056067572708" cy="190.386800467968" r="2" style="fill: steelblue;"></circle><circle cx="111.05192237430148" cy="91.44833162426949" r="2" style="fill: steelblue;"></circle><circle cx="68.6168392499288" cy="87.16834001243114" r="2" style="fill: steelblue;"></circle><circle cx="115.68524804380205" cy="107.53079866990447" r="2" style="fill: steelblue;"></circle><circle cx="48.1893175178104" cy="88.43353521078825" r="2" style="fill: steelblue;"></circle><circle cx="65.75074659453499" cy="131.88197314739227" r="2" style="fill: steelblue;"></circle><circle cx="78.27067739433713" cy="169.88425552845" r="2" style="fill: steelblue;"></circle><circle cx="70.84478967719609" cy="62.61921897530556" r="2" style="fill: steelblue;"></circle><circle cx="57.585287756390045" cy="5.796945095062256" r="2" style="fill: steelblue;"></circle><circle cx="39.83880281448365" cy="149.10908639431" r="2" style="fill: steelblue;"></circle><circle cx="60.76588431994121" cy="50.05292817950249" r="2" style="fill: steelblue;"></circle><circle cx="41.50315324465434" cy="128.8969650864601" r="2" style="fill: steelblue;"></circle><circle cx="13.159459167056617" cy="106.49724807590246" r="2" style="fill: steelblue;"></circle><circle cx="102.99865769015419" cy="113.40391393750906" r="2" style="fill: steelblue;"></circle><circle cx="139.32905462053085" cy="181.20658993721008" r="2" style="fill: steelblue;"></circle><circle cx="101.16747303141489" cy="94.80910412967205" r="2" style="fill: steelblue;"></circle><circle cx="63.29820917712318" cy="61.817700415849686" r="2" style="fill: steelblue;"></circle><circle cx="52.760695748858986" cy="85.67312117666006" r="2" style="fill: steelblue;"></circle><circle cx="149.69861374961008" cy="37.98612803220749" r="2" style="fill: steelblue;"></circle><circle cx="96.24482641617458" cy="132.16257318854332" r="2" style="fill: steelblue;"></circle><circle cx="47.35386239157783" cy="76.25332325696945" r="2" style="fill: steelblue;"></circle><circle cx="45.344593127568565" cy="128.11694703996181" r="2" style="fill: steelblue;"></circle><circle cx="41.757227977116905" cy="174.85520094633102" r="2" style="fill: steelblue;"></circle><circle cx="16.562248600853817" cy="182.9845741391182" r="2" style="fill: steelblue;"></circle><circle cx="134.38357445928787" cy="100.61966344946995" r="2" style="fill: steelblue;"></circle><circle cx="51.29202074474759" cy="88.88835497200489" r="2" style="fill: steelblue;"></circle><circle cx="89.67198656044073" cy="199.8760685324669" r="2" style="fill: steelblue;"></circle><circle cx="162.71064546373154" cy="36.45084649324417" r="2" style="fill: steelblue;"></circle><circle cx="124.85289110077753" cy="116.56470634043217" r="2" style="fill: steelblue;"></circle><circle cx="150.42800903320312" cy="75.42893327772617" r="2" style="fill: steelblue;"></circle><circle cx="134.52808923191495" cy="28.51272225379944" r="2" style="fill: steelblue;"></circle><circle cx="142.00154145558673" cy="129.6773985028267" r="2" style="fill: steelblue;"></circle><circle cx="51.26282109154595" cy="55.842483788728714" r="2" style="fill: steelblue;"></circle><circle cx="74.77284173170726" cy="130.2347056567669" r="2" style="fill: steelblue;"></circle><circle cx="58.56254564391242" cy="158.51049348711967" r="2" style="fill: steelblue;"></circle><circle cx="85.92273617784183" cy="108.69902689009905" r="2" style="fill: steelblue;"></circle><circle cx="57.66742295689053" cy="89.56817481666803" r="2" style="fill: steelblue;"></circle><circle cx="16.571275393168136" cy="118.37942376732826" r="2" style="fill: steelblue;"></circle><circle cx="106.90622395939297" cy="10.964258015155792" r="2" style="fill: steelblue;"></circle><circle cx="132.92536338170368" cy="69.18060444295406" r="2" style="fill: steelblue;"></circle><circle cx="109.26728480392032" cy="123.85162189602852" r="2" style="fill: steelblue;"></circle><circle cx="118.9341531859504" cy="44.84138861298561" r="2" style="fill: steelblue;"></circle><circle cx="146.15918397903442" cy="109.49870608747005" r="2" style="fill: steelblue;"></circle><circle cx="107.42835402488708" cy="101.1458876542747" r="2" style="fill: steelblue;"></circle><circle cx="33.6308499177297" cy="111.10097113996744" r="2" style="fill: steelblue;"></circle><circle cx="30.640965037875713" cy="117.28502847254276" r="2" style="fill: steelblue;"></circle><circle cx="92.95002942283949" cy="89.73971512168646" r="2" style="fill: steelblue;"></circle><circle cx="89.74566716286871" cy="95.18433259800076" r="2" style="fill: steelblue;"></circle><circle cx="131.89052409595914" cy="172.4933072924614" r="2" style="fill: steelblue;"></circle><circle cx="43.55614582697551" cy="110.83032134920359" r="2" style="fill: steelblue;"></circle><circle cx="93.96461637483704" cy="106.39878492802382" r="2" style="fill: steelblue;"></circle><circle cx="60.65267523129781" cy="148.97627606987953" r="2" style="fill: steelblue;"></circle><circle cx="91.76182800696957" cy="121.8740813434124" r="2" style="fill: steelblue;"></circle><circle cx="69.908912314309" cy="168.29936802387238" r="2" style="fill: steelblue;"></circle><circle cx="55.24362987942166" cy="121.50632813572884" r="2" style="fill: steelblue;"></circle><circle cx="117.5150626235538" cy="198.59977662563324" r="2" style="fill: steelblue;"></circle><circle cx="123.91439941194322" cy="166.6128769516945" r="2" style="fill: steelblue;"></circle><circle cx="36.90866496827868" cy="152.96799167990685" r="2" style="fill: steelblue;"></circle><circle cx="97.5860873858134" cy="103.4113007131964" r="2" style="fill: steelblue;"></circle><circle cx="86.63551977111233" cy="139.8879311978817" r="2" style="fill: steelblue;"></circle><circle cx="15.086033609178337" cy="127.78254449367523" r="2" style="fill: steelblue;"></circle><circle cx="25.45618216196696" cy="110.61720959842205" r="2" style="fill: steelblue;"></circle><circle cx="6.400126881069612" cy="139.4754558801651" r="2" style="fill: steelblue;"></circle><circle cx="62.511568599277076" cy="156.65745958685875" r="2" style="fill: steelblue;"></circle><circle cx="19.0047476026747" cy="172.34547287225723" r="2" style="fill: steelblue;"></circle><circle cx="52.899465296003555" cy="119.81434971094131" r="2" style="fill: steelblue;"></circle><circle cx="111.22845477528043" cy="150.327867269516" r="2" style="fill: steelblue;"></circle><circle cx="91.51406764156289" cy="161.50270625948906" r="2" style="fill: steelblue;"></circle><circle cx="143.08393862512375" cy="40.83165377378464" r="2" style="fill: steelblue;"></circle><circle cx="56.948117415110275" cy="20.77627032995224" r="2" style="fill: steelblue;"></circle><circle cx="76.8474045726988" cy="71.65587916970253" r="2" style="fill: steelblue;"></circle><circle cx="114.01719384723239" cy="70.09625472128391" r="2" style="fill: steelblue;"></circle><circle cx="164.31575218836468" cy="41.44290313124657" r="2" style="fill: steelblue;"></circle><circle cx="81.96446829371983" cy="73.05196337401867" r="2" style="fill: steelblue;"></circle><circle cx="146.49278455310397" cy="24.293309450149536" r="2" style="fill: steelblue;"></circle><circle cx="160.3819449742635" cy="49.75486770272255" r="2" style="fill: steelblue;"></circle><circle cx="166.20647774802313" cy="24.998141825199127" r="2" style="fill: steelblue;"></circle><circle cx="128.9383027288649" cy="139.30839523673058" r="2" style="fill: steelblue;"></circle><circle cx="139.50075904528302" cy="44.20280307531357" r="2" style="fill: steelblue;"></circle><circle cx="49.20057985517714" cy="60.874494165182114" r="2" style="fill: steelblue;"></circle><circle cx="95.97423457437093" cy="93.21697978302836" r="2" style="fill: steelblue;"></circle><circle cx="65.33410516050128" cy="111.75695564597845" r="2" style="fill: steelblue;"></circle><circle cx="136.16587585873074" cy="135.13434529304504" r="2" style="fill: steelblue;"></circle><circle cx="99.73187529378468" cy="121.14692702889442" r="2" style="fill: steelblue;"></circle><circle cx="52.4756133556366" cy="92.16283764690161" r="2" style="fill: steelblue;"></circle><circle cx="135.1758427090115" cy="81.0892678797245" r="2" style="fill: steelblue;"></circle><circle cx="87.2593120775289" cy="66.83409810066223" r="2" style="fill: steelblue;"></circle><circle cx="114.74876304467519" cy="39.38932940363884" r="2" style="fill: steelblue;"></circle><circle cx="113.51545684867435" cy="24.515031278133392" r="2" style="fill: steelblue;"></circle><circle cx="76.20983355575139" cy="55.64253255724907" r="2" style="fill: steelblue;"></circle><circle cx="114.13732866446178" cy="54.224806278944016" r="2" style="fill: steelblue;"></circle><circle cx="160.8113235897488" cy="74.03586097061634" r="2" style="fill: steelblue;"></circle><circle cx="133.5449006822374" cy="52.93315127491951" r="2" style="fill: steelblue;"></circle><circle cx="122.68499400880602" cy="12.81149536371231" r="2" style="fill: steelblue;"></circle><circle cx="51.642267571555244" cy="142.8214631974697" r="2" style="fill: steelblue;"></circle><circle cx="168.5911602444119" cy="120.0918223708868" r="2" style="fill: steelblue;"></circle><circle cx="179.3153338962131" cy="83.03046822547913" r="2" style="fill: steelblue;"></circle><circle cx="91.92132155100505" cy="82.57249966263771" r="2" style="fill: steelblue;"></circle><circle cx="136.07848551538254" cy="74.55530986189842" r="2" style="fill: steelblue;"></circle><circle cx="54.54231831762526" cy="87.55958024412394" r="2" style="fill: steelblue;"></circle><circle cx="180.10895649592084" cy="97.12955020368099" r="2" style="fill: steelblue;"></circle><circle cx="119.2223416434394" cy="41.07047840952873" r="2" style="fill: steelblue;"></circle><circle cx="119.27074723773532" cy="35.89547276496887" r="2" style="fill: steelblue;"></circle><circle cx="105.83132207393646" cy="64.77672085165977" r="2" style="fill: steelblue;"></circle><circle cx="81.04699303706488" cy="29.326653480529785" r="2" style="fill: steelblue;"></circle><circle cx="150.23171769248114" cy="118.29788275063038" r="2" style="fill: steelblue;"></circle><circle cx="178.88872358534073" cy="59.922775626182556" r="2" style="fill: steelblue;"></circle><circle cx="147.60070906745065" cy="65.10112285614014" r="2" style="fill: steelblue;"></circle><circle cx="96.25649154186249" cy="103.31758637912571" r="2" style="fill: steelblue;"></circle><circle cx="62.379738026195106" cy="164.0370100736618" r="2" style="fill: steelblue;"></circle><circle cx="121.09739780426025" cy="175.6722018122673" r="2" style="fill: steelblue;"></circle><circle cx="132.04211195309955" cy="164.45839256048203" r="2" style="fill: steelblue;"></circle><circle cx="50.57893395423889" cy="162.41824105381966" r="2" style="fill: steelblue;"></circle><circle cx="54.16868660185072" cy="140.40320590138435" r="2" style="fill: steelblue;"></circle><circle cx="93.31852768858275" cy="98.02506202831864" r="2" style="fill: steelblue;"></circle></g></svg>