<svg xmlns="http://www.w3.org/2000/svg"><g><circle cx="80.27987033128738" cy="115.37778880447149" r="2" style="fill: steelblue;"></circle><circle cx="42.27495416998864" cy="173.67511093616486" r="2" style="fill: steelblue;"></circle><circle cx="82.82140679657459" cy="115.82488045096397" r="2" style="fill: steelblue;"></circle><circle cx="83.86875353753567" cy="178.16559821367264" r="2" style="fill: steelblue;"></circle><circle cx="62.753817439079285" cy="179.9657627940178" r="2" style="fill: steelblue;"></circle><circle cx="104.59266360849142" cy="173.96075129508972" r="2" style="fill: steelblue;"></circle><circle cx="147.69600555300713" cy="102.26579373702407" r="2" style="fill: steelblue;"></circle><circle cx="132.20118582248688" cy="58.460185676813126" r="2" style="fill: steelblue;"></circle><circle cx="126.04658342897892" cy="155.9089556336403" r="2" style="fill: steelblue;"></circle><circle cx="78.44864800572395" cy="118.50621029734612" r="2" style="fill: steelblue;"></circle><circle cx="87.05926723778248" cy="123.88618141412735" r="2" style="fill: steelblue;"></circle><circle cx="59.284231066703796" cy="143.13628748059273" r="2" style="fill: steelblue;"></circle><circle cx="125.99045820534229" cy="151.28495767712593" r="2" style="fill: steelblue;"></circle><circle cx="133.09812769293785" cy="123.17565679550171" r="2" style="fill: steelblue;"></circle><circle cx="42.58860871195794" cy="106.17336016148329" r="2" style="fill: steelblue;"></circle><circle cx="44.94490325450898" cy="118.2131752371788" r="2" style="fill: steelblue;"></circle><circle cx="104.0625175461173" cy="161.61541119217873" r="2" style="fill: steelblue;"></circle><circle cx="150.62304809689522" cy="114.70805518329144" r="2" style="fill: steelblue;"></circle><circle cx="84.67725329101086" cy="106.97519676759839" r="2" style="fill: steelblue;"></circle><circle cx="103.67336208000779" cy="117.5864938646555" r="2" style="fill: steelblue;"></circle><circle cx="91.6278338059783" cy="132.09390118718147" r="2" style="fill: steelblue;"></circle><circle cx="135.6164388358593" cy="120.23687958717346" r="2" style="fill: steelblue;"></circle><circle cx="148.49035292863846" cy="141.00307077169418" r="2" style="fill: steelblue;"></circle><circle cx="28.23602259159089" cy="104.09123627468944" r="2" style="fill: steelblue;"></circle><circle cx="51.519303023815155" cy="97.59935308247805" r="2" style="fill: steelblue;"></circle><circle cx="38.4557418525219" cy="130.27193807065487" r="2" style="fill: steelblue;"></circle><circle cx="90.69346487522125" cy="74.90089759230614" r="2" style="fill: steelblue;"></circle><circle cx="43.88649985194207" cy="68.64570304751396" r="2" style="fill: steelblue;"></circle><circle cx="68.96650642156601" cy="149.31556805968285" r="2" style="fill: steelblue;"></circle><circle cx="162.9921704530716" cy="78.20953652262688" r="2" style="fill: steelblue;"></circle><circle cx="83.99916104972363" cy="28.508006036281586" r="2" style="fill: steelblue;"></circle><circle cx="115.89233987033367" cy="45.98536565899849" r="2" style="fill: steelblue;"></circle><circle cx="136.47420182824135" cy="109.37447417527437" r="2" style="fill: steelblue;"></circle><circle cx="110.70212386548519" cy="71.94709070026875" r="2" style="fill: steelblue;"></circle><circle cx="158.69046971201897" cy="58.43995362520218" r="2" style="fill: steelblue;"></circle><circle cx="69.6567989885807" cy="7.152377068996429" r="2" style="fill: steelblue;"></circle><circle cx="104.12667263299227" cy="78.38064841926098" r="2" style="fill: steelblue;"></circle><circle cx="0.6049484014511164" cy="84.14323106408119" r="2" style="fill: steelblue;"></circle><circle cx="27.74737626314164" cy="129.01457995176315" r="2" style="fill: steelblue;"></circle><circle cx="62.011177092790604" cy="186.0406905412674" r="2" style="fill: steelblue;"></circle><circle cx="14.516247808933263" cy="81.49811662733555" r="2" style="fill: steelblue;"></circle><circle cx="143.84471848607063" cy="17.313456535339355" r="2" style="fill: steelblue;"></circle><circle cx="155.0146959722042" cy="7.6833575963974" r="2" style="fill: steelblue;"></circle><circle cx="100.77354663517326" cy="16.094571352005005" r="2" style="fill: steelblue;"></circle><circle cx="116.63754694163799" cy="124.61540512740612" r="2" style="fill: steelblue;"></circle><circle cx="121.40428125858307" cy="136.65856644511223" r="2" style="fill: steelblue;"></circle><circle cx="126.9047524780035" cy="134.7890369594097" r="2" style="fill: steelblue;"></circle><circle cx="10.231880843639379" cy="182.771897315979" r="2" style="fill: steelblue;"></circle><circle cx="111.33822463452816" cy="164.4030049443245" r="2" style="fill: steelblue;"></circle><circle cx="89.84106630086899" cy="138.83833065629005" r="2" style="fill: steelblue;"></circle><circle cx="100.67304912954569" cy="132.39575028419495" r="2" style="fill: steelblue;"></circle><circle cx="121.41478285193443" cy="139.00327533483505" r="2" style="fill: steelblue;"></circle><circle cx="54.45855334401131" cy="132.17055648565292" r="2" style="fill: steelblue;"></circle><circle cx="41.10359251499177" cy="151.48933455348015" r="2" style="fill: steelblue;"></circle><circle cx="72.51321189105511" cy="119.77555081248283" r="2" style="fill: steelblue;"></circle><circle cx="3.306081891059881" cy="128.5269431769848" r="2" style="fill: steelblue;"></circle><circle cx="75.85113905370235" cy="90.97664467990398" r="2" style="fill: steelblue;"></circle><circle cx="89.18695654720068" cy="199.51037168502808" r="2" style="fill: steelblue;"></circle><circle cx="105.76763739809394" cy="132.45127573609352" r="2" style="fill: steelblue;"></circle><circle cx="113.10582924634218" cy="140.33630341291428" r="2" style="fill: steelblue;"></circle><circle cx="76.26503370702267" cy="140.93221575021744" r="2" style="fill: steelblue;"></circle><circle cx="98.04469314403832" cy="135.40511801838875" r="2" style="fill: steelblue;"></circle><circle cx="45.7417018711567" cy="179.88426089286804" r="2" style="fill: steelblue;"></circle><circle cx="4.643088579177862" cy="173.47530871629715" r="2" style="fill: steelblue;"></circle><circle cx="21.895258128643043" cy="100.3387063043192" r="2" style="fill: steelblue;"></circle><circle cx="59.84942838549614" cy="143.15825551748276" r="2" style="fill: steelblue;"></circle><circle cx="7.931141555309301" cy="104.29388415068388" r="2" style="fill: steelblue;"></circle><circle cx="23.555195331573493" cy="160.16386672854424" r="2" style="fill: steelblue;"></circle><circle cx="92.3668229021132" cy="163.410684466362" r="2" style="fill: steelblue;"></circle><circle cx="34.5257580280304" cy="68.40789541602135" r="2" style="fill: steelblue;"></circle><circle cx="147.18775302171707" cy="131.7189022898674" r="2" style="fill: steelblue;"></circle><circle cx="193.6645194888115" cy="58.567917346954346" r="2" style="fill: steelblue;"></circle><circle cx="186.24745905399323" cy="136.32736578583717" r="2" style="fill: steelblue;"></circle><circle cx="108.68726335465908" cy="40.465815365314484" r="2" style="fill: steelblue;"></circle><circle cx="167.81163811683655" cy="53.86308804154396" r="2" style="fill: steelblue;"></circle><circle cx="53.36424931883812" cy="108.745058439672" r="2" style="fill: steelblue;"></circle><circle cx="162.3856820166111" cy="53.773293644189835" r="2" style="fill: steelblue;"></circle><circle cx="146.94264009594917" cy="34.71328914165497" r="2" style="fill: steelblue;"></circle><circle cx="128.91402691602707" cy="50.80141723155975" r="2" style="fill: steelblue;"></circle><circle cx="175.1272439956665" cy="53.43466103076935" r="2" style="fill: steelblue;"></circle><circle cx="83.39319415390491" cy="11.194831132888794" r="2" style="fill: steelblue;"></circle><circle cx="165.7932385802269" cy="52.552150934934616" r="2" style="fill: steelblue;"></circle><circle cx="54.52236011624336" cy="68.56813877820969" r="2" style="fill: steelblue;"></circle><circle cx="34.635981917381294" cy="162.16546148061752" r="2" style="fill: steelblue;"></circle><circle cx="90.0601115077734" cy="132.9991802573204" r="2" style="fill: steelblue;"></circle><circle cx="93.10864182189107" cy="109.30836517363787" r="2" style="fill: steelblue;"></circle><circle cx="125.79873241484165" cy="72.65391051769257" r="2" style="fill: steelblue;"></circle><circle cx="109.0103866532445" cy="115.94403572380543" r="2" style="fill: steelblue;"></circle><circle cx="117.62775704264641" cy="83.24788548052311" r="2" style="fill: steelblue;"></circle><circle cx="130.13712167739868" cy="71.54220193624496" r="2" style="fill: steelblue;"></circle><circle cx="118.2278398424387" cy="60.180263966321945" r="2" style="fill: steelblue;"></circle><circle cx="105.5050179362297" cy="91.43039714545012" r="2" style="fill: steelblue;"></circle><circle cx="143.60554367303848" cy="51.442018151283264" r="2" style="fill: steelblue;"></circle><circle cx="154.8691414296627" cy="52.05753296613693" r="2" style="fill: steelblue;"></circle><circle cx="157.92031064629555" cy="145.2420338988304" r="2" style="fill: steelblue;"></circle><circle cx="145.47226056456566" cy="96.2173500098288" r="2" style="fill: steelblue;"></circle><circle cx="156.971475481987" cy="20.36784440279007" r="2" style="fill: steelblue;"></circle><circle cx="29.58470433950425" cy="37.32043355703354" r="2" style="fill: steelblue;"></circle><circle cx="33.25206637382508" cy="61.88126876950264" r="2" style="fill: steelblue;"></circle><circle cx="179.59093153476715" cy="90.21589197218418" r="2" style="fill: steelblue;"></circle><circle cx="180.24710416793823" cy="97.37610295414925" r="2" style="fill: steelblue;"></circle><circle cx="130.15821054577827" cy="89.86957874149084" r="2" style="fill: steelblue;"></circle><circle cx="93.2306818664074" cy="34.18675661087036" r="2" style="fill: steelblue;"></circle><circle cx="24.46009814739228" cy="115.63874445855618" r="2" style="fill: steelblue;"></circle><circle cx="155.02008274197578" cy="142.81412437558174" r="2" style="fill: steelblue;"></circle><circle cx="57.925841212272644" cy="60.031528025865555" r="2" style="fill: steelblue;"></circle><circle cx="100.17467129509896" cy="98.42580163385719" r="2" style="fill: steelblue;"></circle><circle cx="111.76791079342365" cy="96.52343522757292" r="2" style="fill: steelblue;"></circle><circle cx="81.77698999643326" cy="49.91417974233627" r="2" style="fill: steelblue;"></circle><circle cx="144.95178163051605" cy="54.40804585814476" r="2" style="fill: steelblue;"></circle><circle cx="110.92589274048805" cy="42.96345114707947" r="2" style="fill: steelblue;"></circle><circle cx="170.79534232616425" cy="137.83395513892174" r="2" style="fill: steelblue;"></circle><circle cx="67.60845184326172" cy="126.07749216258526" r="2" style="fill: steelblue;"></circle><circle cx="75.95210559666157" cy="106.15022843703628" r="2" style="fill: steelblue;"></circle><circle cx="64.27997201681137" cy="156.9205805659294" r="2" style="fill: steelblue;"></circle><circle cx="6.3640907406807" cy="148.32912608981133" r="2" style="fill: steelblue;"></circle><circle cx="61.245786398649216" cy="113.63704726099968" r="2" style="fill: steelblue;"></circle><circle cx="61.86254546046257" cy="111.75327971577644" r="2" style="fill: steelblue;"></circle></g></svg>