<svg xmlns="http://www.w3.org/2000/svg"><rect width="200" height="200" fill="white"></rect><g><circle cx="41.007900983095176" cy="174.69677180051804" r="2" style="fill: steelblue;"></circle><circle cx="142.1154834330082" cy="177.8316631913185" r="2" style="fill: steelblue;"></circle><circle cx="84.49775204062462" cy="118.41812022030354" r="2" style="fill: steelblue;"></circle><circle cx="22.3121926188469" cy="131.85142576694489" r="2" style="fill: steelblue;"></circle><circle cx="17.547397315502174" cy="150.24134367704391" r="2" style="fill: steelblue;"></circle><circle cx="69.08937953412533" cy="179.37252521514893" r="2" style="fill: steelblue;"></circle><circle cx="131.5229520201683" cy="118.91025900840759" r="2" style="fill: steelblue;"></circle><circle cx="76.6860343515873" cy="26.545456051826477" r="2" style="fill: steelblue;"></circle><circle cx="57.86208659410477" cy="64.13623541593552" r="2" style="fill: steelblue;"></circle><circle cx="43.84116306900979" cy="100.04337355494499" r="2" style="fill: steelblue;"></circle><circle cx="114.33230843394995" cy="121.03734575212002" r="2" style="fill: steelblue;"></circle><circle cx="78.38269732892513" cy="162.18737736344337" r="2" style="fill: steelblue;"></circle><circle cx="149.86992850899696" cy="87.1374424546957" r="2" style="fill: steelblue;"></circle><circle cx="54.140279442071915" cy="59.502752870321274" r="2" style="fill: steelblue;"></circle><circle cx="61.79802715778351" cy="101.64573069196194" r="2" style="fill: steelblue;"></circle><circle cx="101.73792033456266" cy="89.0678133815527" r="2" style="fill: steelblue;"></circle><circle cx="104.67185163870454" cy="146.96379974484444" r="2" style="fill: steelblue;"></circle><circle cx="90.27575645595789" cy="143.99970918893814" r="2" style="fill: steelblue;"></circle><circle cx="118.23126338422298" cy="65.49997106194496" r="2" style="fill: steelblue;"></circle><circle cx="151.78239941596985" cy="123.88588152825832" r="2" style="fill: steelblue;"></circle><circle cx="79.07136939466" cy="90.76609965413809" r="2" style="fill: steelblue;"></circle><circle cx="81.47629015147686" cy="119.0523061901331" r="2" style="fill: steelblue;"></circle><circle cx="95.84957584738731" cy="113.01596779376268" r="2" style="fill: steelblue;"></circle><circle cx="138.57755661010742" cy="99.2728436482139" r="2" style="fill: steelblue;"></circle><circle cx="81.15593567490578" cy="77.10953839123249" r="2" style="fill: steelblue;"></circle><circle cx="78.99841703474522" cy="161.61780655384064" r="2" style="fill: steelblue;"></circle><circle cx="109.1688483953476" cy="134.62030738592148" r="2" style="fill: steelblue;"></circle><circle cx="43.009007722139366" cy="124.18193034827709" r="2" style="fill: steelblue;"></circle><circle cx="38.719812780618675" cy="195.7377403974533" r="2" style="fill: steelblue;"></circle><circle cx="12.064246833324438" cy="118.11507530510426" r="2" style="fill: steelblue;"></circle><circle cx="186.51670813560486" cy="91.22204165905714" r="2" style="fill: steelblue;"></circle><circle cx="136.3301858305931" cy="57.089122384786606" r="2" style="fill: steelblue;"></circle><circle cx="70.87153419852257" cy="35.10022759437561" r="2" style="fill: steelblue;"></circle><circle cx="58.271436393260956" cy="68.54167431592941" r="2" style="fill: steelblue;"></circle><circle cx="158.4244802594185" cy="76.9146703183651" r="2" style="fill: steelblue;"></circle><circle cx="171.72127068042755" cy="121.97572402656078" r="2" style="fill: steelblue;"></circle><circle cx="72.56447561085224" cy="131.50244802236557" r="2" style="fill: steelblue;"></circle><circle cx="26.427409052848823" cy="122.02630415558815" r="2" style="fill: steelblue;"></circle><circle cx="77.941719815135" cy="160.36277115345" r="2" style="fill: steelblue;"></circle><circle cx="54.33805137872696" cy="190.34442156553268" r="2" style="fill: steelblue;"></circle><circle cx="94.60672540590167" cy="123.58686737716198" r="2" style="fill: steelblue;"></circle><circle cx="66.74205735325813" cy="51.672524213790894" r="2" style="fill: steelblue;"></circle><circle cx="31.91394209861756" cy="68.23098883032799" r="2" style="fill: steelblue;"></circle><circle cx="189.04502540826797" cy="41.23188778758049" r="2" style="fill: steelblue;"></circle><circle cx="97.29596730321646" cy="50.300831347703934" r="2" style="fill: steelblue;"></circle><circle cx="111.44989114254713" cy="64.3365815281868" r="2" style="fill: steelblue;"></circle><circle cx="123.83723855018616" cy="43.61208379268646" r="2" style="fill: steelblue;"></circle><circle cx="93.66633873432875" cy="180.81454783678055" r="2" style="fill: steelblue;"></circle><circle cx="66.16934984922409" cy="88.98427095264196" r="2" style="fill: steelblue;"></circle><circle cx="144.60640251636505" cy="163.25668841600418" r="2" style="fill: steelblue;"></circle><circle cx="89.56089466810226" cy="186.10626310110092" r="2" style="fill: steelblue;"></circle><circle cx="152.64437198638916" cy="185.93029528856277" r="2" style="fill: steelblue;"></circle><circle cx="130.14382533729076" cy="107.61906988918781" r="2" style="fill: steelblue;"></circle><circle cx="48.248222470283515" cy="94.40905451774597" r="2" style="fill: steelblue;"></circle><circle cx="59.702447056770325" cy="124.6212687343359" r="2" style="fill: steelblue;"></circle><circle cx="24.254164099693305" cy="196.8482568860054" r="2" style="fill: steelblue;"></circle><circle cx="96.51260673999786" cy="104.65029058977962" r="2" style="fill: steelblue;"></circle><circle cx="84.29003171622753" cy="109.57472063601017" r="2" style="fill: steelblue;"></circle><circle cx="93.63102577626705" cy="119.8621079325676" r="2" style="fill: steelblue;"></circle><circle cx="88.57291042804718" cy="161.0506795346737" r="2" style="fill: steelblue;"></circle><circle cx="49.63782653212548" cy="67.90976822376251" r="2" style="fill: steelblue;"></circle><circle cx="46.65516167879105" cy="164.38160687685013" r="2" style="fill: steelblue;"></circle><circle cx="13.194708526134496" cy="180.2195444703102" r="2" style="fill: steelblue;"></circle><circle cx="28.44317853450776" cy="146.1723618209362" r="2" style="fill: steelblue;"></circle><circle cx="27.915088832378395" cy="150.89353397488594" r="2" style="fill: steelblue;"></circle><circle cx="38.47299739718438" cy="188.09743076562881" r="2" style="fill: steelblue;"></circle><circle cx="24.430638551712043" cy="170.48000395298004" r="2" style="fill: steelblue;"></circle><circle cx="6.249150633811956" cy="69.09401006996632" r="2" style="fill: steelblue;"></circle><circle cx="34.272676706314094" cy="198.7505316734314" r="2" style="fill: steelblue;"></circle><circle cx="88.77096083015203" cy="97.96504247933626" r="2" style="fill: steelblue;"></circle><circle cx="29.020769894123084" cy="138.00245374441147" r="2" style="fill: steelblue;"></circle><circle cx="173.775015771389" cy="60.109781473875046" r="2" style="fill: steelblue;"></circle><circle cx="137.80413046479225" cy="41.78956747055054" r="2" style="fill: steelblue;"></circle><circle cx="90.99266529083252" cy="48.46324622631073" r="2" style="fill: steelblue;"></circle><circle cx="177.45400071144104" cy="43.772535771131516" r="2" style="fill: steelblue;"></circle><circle cx="110.58762520551682" cy="28.18310856819153" r="2" style="fill: steelblue;"></circle><circle cx="145.9766834974289" cy="79.34063524007797" r="2" style="fill: steelblue;"></circle><circle cx="86.2151900306344" cy="70.95953300595284" r="2" style="fill: steelblue;"></circle><circle cx="169.28963214159012" cy="73.88790547847748" r="2" style="fill: steelblue;"></circle><circle cx="154.8212267458439" cy="25.224237143993378" r="2" style="fill: steelblue;"></circle><circle cx="150.4137948155403" cy="32.628944516181946" r="2" style="fill: steelblue;"></circle><circle cx="50.30035823583603" cy="6.261809170246124" r="2" style="fill: steelblue;"></circle><circle cx="94.32767927646637" cy="21.059615910053253" r="2" style="fill: steelblue;"></circle><circle cx="74.74605962634087" cy="107.73201137781143" r="2" style="fill: steelblue;"></circle><circle cx="139.3281988799572" cy="147.5938804447651" r="2" style="fill: steelblue;"></circle><circle cx="42.95727834105492" cy="153.92974615097046" r="2" style="fill: steelblue;"></circle><circle cx="104.57501085475087" cy="111.67180296033621" r="2" style="fill: steelblue;"></circle><circle cx="66.3703702390194" cy="110.74547972530127" r="2" style="fill: steelblue;"></circle><circle cx="25.727538764476783" cy="123.65417964756489" r="2" style="fill: steelblue;"></circle><circle cx="92.30180121958256" cy="49.98963922262192" r="2" style="fill: steelblue;"></circle><circle cx="153.46704646945" cy="77.47292555868626" r="2" style="fill: steelblue;"></circle><circle cx="101.7937661614269" cy="7.165259122848511" r="2" style="fill: steelblue;"></circle><circle cx="122.03810773789883" cy="87.84686997532845" r="2" style="fill: steelblue;"></circle><circle cx="93.8421887345612" cy="12.053845822811127" r="2" style="fill: steelblue;"></circle><circle cx="114.06341418623924" cy="53.521545976400375" r="2" style="fill: steelblue;"></circle><circle cx="173.73879104852676" cy="1.1205807328224182" r="2" style="fill: steelblue;"></circle><circle cx="164.26679342985153" cy="93.00275044515729" r="2" style="fill: steelblue;"></circle><circle cx="134.7086861729622" cy="87.7218659967184" r="2" style="fill: steelblue;"></circle><circle cx="63.317982852458954" cy="79.31797988712788" r="2" style="fill: steelblue;"></circle><circle cx="122.39617705345154" cy="71.30310721695423" r="2" style="fill: steelblue;"></circle><circle cx="142.6715761423111" cy="71.57514840364456" r="2" style="fill: steelblue;"></circle><circle cx="138.213312625885" cy="46.610212326049805" r="2" style="fill: steelblue;"></circle><circle cx="131.1968456953764" cy="102.66738166101277" r="2" style="fill: steelblue;"></circle><circle cx="153.02683636546135" cy="58.741288632154465" r="2" style="fill: steelblue;"></circle><circle cx="147.41517454385757" cy="77.39743813872337" r="2" style="fill: steelblue;"></circle><circle cx="119.60492879152298" cy="182.97376334667206" r="2" style="fill: steelblue;"></circle><circle cx="64.74385634064674" cy="78.31860184669495" r="2" style="fill: steelblue;"></circle><circle cx="65.0074690580368" cy="144.5682555437088" r="2" style="fill: steelblue;"></circle><circle cx="126.62581019103527" cy="98.41691448818892" r="2" style="fill: steelblue;"></circle><circle cx="89.08072337508202" cy="40.92392921447754" r="2" style="fill: steelblue;"></circle><circle cx="127.2127091884613" cy="81.05049692094326" r="2" style="fill: steelblue;"></circle><circle cx="158.87795984745026" cy="67.04642102122307" r="2" style="fill: steelblue;"></circle><circle cx="124.6169175952673" cy="148.86659979820251" r="2" style="fill: steelblue;"></circle><circle cx="74.98511895537376" cy="165.68440794944763" r="2" style="fill: steelblue;"></circle><circle cx="23.6840307712555" cy="98.99427522905171" r="2" style="fill: steelblue;"></circle><circle cx="81.25578463077545" cy="138.61914202570915" r="2" style="fill: steelblue;"></circle><circle cx="95.79395307227969" cy="171.05223089456558" r="2" style="fill: steelblue;"></circle><circle cx="157.27918446063995" cy="133.81073474884033" r="2" style="fill: steelblue;"></circle></g></svg>