<svg xmlns="http://www.w3.org/2000/svg"><g transform="translate(40,20)"><circle cx="384.83063220977783" cy="124.84434164232677" r="3" style="fill: steelblue;"></circle><circle cx="204.38546776771548" cy="185.72619940257732" r="3" style="fill: steelblue;"></circle><circle cx="397.5192332267761" cy="183.48061345103713" r="3" style="fill: steelblue;"></circle><circle cx="363.10599088668823" cy="98.24189792076749" r="3" style="fill: steelblue;"></circle><circle cx="315.36432445049286" cy="119.67794845501584" r="3" style="fill: steelblue;"></circle><circle cx="271.8379282951355" cy="10.82604792382983" r="3" style="fill: steelblue;"></circle><circle cx="441.6825556755066" cy="99.74412040577994" r="3" style="fill: steelblue;"></circle><circle cx="341.7069339752198" cy="174.31449248558943" r="3" style="fill: steelblue;"></circle><circle cx="374.1594010591507" cy="58.48606593079035" r="3" style="fill: steelblue;"></circle><circle cx="448.9412569999695" cy="130.5878079599804" r="3" style="fill: steelblue;"></circle><circle cx="371.83805644512177" cy="185.84296655737694" r="3" style="fill: steelblue;"></circle><circle cx="334.43270266056066" cy="126.01195524136227" r="3" style="fill: steelblue;"></circle><circle cx="312.06819355487823" cy="107.94351581070157" r="3" style="fill: steelblue;"></circle><circle cx="309.1562980413437" cy="195.061158375918" r="3" style="fill: steelblue;"></circle><circle cx="282.94331073760986" cy="281.9870809713999" r="3" style="fill: steelblue;"></circle><circle cx="283.5521811246872" cy="192.32294478246735" r="3" style="fill: steelblue;"></circle><circle cx="460.98820209503174" cy="152.81551082928974" r="3" style="fill: steelblue;"></circle><circle cx="429.5255506038666" cy="199.2540440729095" r="3" style="fill: steelblue;"></circle><circle cx="312.00298458337784" cy="111.22979554865094" r="3" style="fill: steelblue;"></circle><circle cx="366.9860118627548" cy="119.18688896629544" r="3" style="fill: steelblue;"></circle><circle cx="288.83746951818466" cy="278.8518509931034" r="3" style="fill: steelblue;"></circle><circle cx="265.06230399012566" cy="114.58846512768002" r="3" style="fill: steelblue;"></circle><circle cx="270.9310667216778" cy="79.92960347069635" r="3" style="fill: steelblue;"></circle><circle cx="467.41586565971375" cy="139.8758441209793" r="3" style="fill: steelblue;"></circle><circle cx="221.42936043441298" cy="173.01042936742306" r="3" style="fill: steelblue;"></circle><circle cx="266.14662274718285" cy="147.60346255368654" r="3" style="fill: steelblue;"></circle><circle cx="237.99181544221938" cy="131.81827300124695" r="3" style="fill: steelblue;"></circle><circle cx="229.62364308536056" cy="124.56223451428941" r="3" style="fill: steelblue;"></circle><circle cx="241.34820328094065" cy="197.83559550220764" r="3" style="fill: steelblue;"></circle><circle cx="239.62525984738025" cy="271.3940342267354" r="3" style="fill: steelblue;"></circle><circle cx="164.69525635242462" cy="158.65650524695712" r="3" style="fill: steelblue;"></circle><circle cx="235.39817310869694" cy="170.89149956074027" r="3" style="fill: steelblue;"></circle><circle cx="204.99239802360535" cy="223.7402457329962" r="3" style="fill: steelblue;"></circle><circle cx="220.1944613456726" cy="139.1698693235715" r="3" style="fill: steelblue;"></circle><circle cx="247.33761694282293" cy="263.80310290389593" r="3" style="fill: steelblue;"></circle><circle cx="178.21504265069962" cy="261.881990565194" r="3" style="fill: steelblue;"></circle><circle cx="87.62495756149293" cy="262.15371903445987" r="3" style="fill: steelblue;"></circle><circle cx="291.4861598610878" cy="226.49850323796272" r="3" style="fill: steelblue;"></circle><circle cx="236.52375793084502" cy="233.26147140728102" r="3" style="fill: steelblue;"></circle><circle cx="299.52760130167013" cy="200.40926963297858" r="3" style="fill: steelblue;"></circle><circle cx="276.8078202009201" cy="120.27472423182593" r="3" style="fill: steelblue;"></circle><circle cx="257.55707412958145" cy="235.46834455596075" r="3" style="fill: steelblue;"></circle><circle cx="37.47573137283326" cy="218.91129803326396" r="3" style="fill: steelblue;"></circle><circle cx="325.79929769039154" cy="226.13251499003832" r="3" style="fill: steelblue;"></circle><circle cx="108.48995089530946" cy="214.0443691362937" r="3" style="fill: steelblue;"></circle><circle cx="134.10685300827026" cy="178.00944132937326" r="3" style="fill: steelblue;"></circle><circle cx="103.71190845966339" cy="181.7571802271737" r="3" style="fill: steelblue;"></circle><circle cx="237.64583325013518" cy="237.76678865154582" r="3" style="fill: steelblue;"></circle><circle cx="311.54266834259033" cy="258.5544917318556" r="3" style="fill: steelblue;"></circle><circle cx="226.05097532272342" cy="136.45434627930325" r="3" style="fill: steelblue;"></circle><circle cx="308.39911937713623" cy="228.49710202879373" r="3" style="fill: steelblue;"></circle><circle cx="340.8321940898895" cy="183.99067295508252" r="3" style="fill: steelblue;"></circle><circle cx="158.0818498134613" cy="226.73247216476332" r="3" style="fill: steelblue;"></circle><circle cx="164.5280742645264" cy="302.12601357036164" r="3" style="fill: steelblue;"></circle><circle cx="200.46316623687744" cy="296.545320087009" r="3" style="fill: steelblue;"></circle><circle cx="154.22998309135437" cy="189.62558746958769" r="3" style="fill: steelblue;"></circle><circle cx="182.94424653053284" cy="259.0723931789398" r="3" style="fill: steelblue;"></circle><circle cx="173.85398089885712" cy="182.53117623842422" r="3" style="fill: steelblue;"></circle><circle cx="203.17567080259323" cy="298.4347691138585" r="3" style="fill: steelblue;"></circle><circle cx="177.4863713979721" cy="303.8606693347295" r="3" style="fill: steelblue;"></circle><circle cx="395.44155836105347" cy="147.10599390996828" r="3" style="fill: steelblue;"></circle><circle cx="280.8480495214462" cy="203.2916751793689" r="3" style="fill: steelblue;"></circle><circle cx="239.23973393160853" cy="87.32086585627661" r="3" style="fill: steelblue;"></circle><circle cx="410.24654746055603" cy="243.82632308536108" r="3" style="fill: steelblue;"></circle><circle cx="331.44420325756073" cy="83.81296032004887" r="3" style="fill: steelblue;"></circle><circle cx="303.27459365129477" cy="108.29123854637146" r="3" style="fill: steelblue;"></circle><circle cx="299.61229652166367" cy="174.02563140624096" r="3" style="fill: steelblue;"></circle><circle cx="412.19082713127136" cy="115.67896604537964" r="3" style="fill: steelblue;"></circle><circle cx="349.01635587215424" cy="127.83800231085883" r="3" style="fill: steelblue;"></circle><circle cx="366.7826020717621" cy="72.87204596731397" r="3" style="fill: steelblue;"></circle><circle cx="213.31324741244316" cy="203.10217556026248" r="3" style="fill: steelblue;"></circle><circle cx="277.8659427165985" cy="322.8041264745924" r="3" style="fill: steelblue;"></circle><circle cx="262.15373888611794" cy="168.6570557455222" r="3" style="fill: steelblue;"></circle><circle cx="114.16510283946991" cy="212.93135359883308" r="3" style="fill: steelblue;"></circle><circle cx="191.06431245803833" cy="141.8348029255867" r="3" style="fill: steelblue;"></circle><circle cx="223.82565267384052" cy="163.07001105613176" r="3" style="fill: steelblue;"></circle><circle cx="176.9586020708084" cy="229.6160558859507" r="3" style="fill: steelblue;"></circle><circle cx="123.40601027011871" cy="250.06612804200915" r="3" style="fill: steelblue;"></circle><circle cx="70.73630332946779" cy="237.40418462289702" r="3" style="fill: steelblue;"></circle><circle cx="354.14583027362823" cy="318.38260922167035" r="3" style="fill: steelblue;"></circle><circle cx="106.34657979011537" cy="236.1707989540365" r="3" style="fill: steelblue;"></circle><circle cx="224.69616137444973" cy="266.944649318854" r="3" style="fill: steelblue;"></circle><circle cx="85.44146060943604" cy="179.16378461652334" r="3" style="fill: steelblue;"></circle><circle cx="273.44369754195213" cy="134.24104369348947" r="3" style="fill: steelblue;"></circle><circle cx="323.09055268764496" cy="226.5743033753501" r="3" style="fill: steelblue;"></circle><circle cx="183.75363886356357" cy="154.90131701032323" r="3" style="fill: steelblue;"></circle><circle cx="159.84013617038727" cy="153.97238648600046" r="3" style="fill: steelblue;"></circle><circle cx="248.4398550912738" cy="220.29357486301" r="3" style="fill: steelblue;"></circle><circle cx="269.343943297863" cy="117.63495206832886" r="3" style="fill: steelblue;"></circle><circle cx="106.98035001754761" cy="88.29916020234424" r="3" style="fill: steelblue;"></circle><circle cx="282.07015335559845" cy="202.99228260086642" r="3" style="fill: steelblue;"></circle><circle cx="362.3458707332611" cy="78.12100483311548" r="3" style="fill: steelblue;"></circle><circle cx="223.2942858338356" cy="115.0187651316325" r="3" style="fill: steelblue;"></circle><circle cx="350.8290910720825" cy="191.96730386465788" r="3" style="fill: steelblue;"></circle><circle cx="272.0869021117687" cy="227.90484337343108" r="3" style="fill: steelblue;"></circle><circle cx="200.37315130233765" cy="168.17179694771767" r="3" style="fill: steelblue;"></circle><circle cx="177.99264281988144" cy="237.67970585160788" r="3" style="fill: steelblue;"></circle><circle cx="236.7389915138483" cy="165.70455042852296" r="3" style="fill: steelblue;"></circle><circle cx="172.22585320472717" cy="264.5227942201826" r="3" style="fill: steelblue;"></circle><circle cx="186.1332142353058" cy="128.63914668560028" r="3" style="fill: steelblue;"></circle><circle cx="329.37461972236633" cy="207.87894022133617" r="3" style="fill: steelblue;"></circle><circle cx="164.83888864517212" cy="220.29689533842932" r="3" style="fill: steelblue;"></circle><circle cx="311.55989706516266" cy="191.7271831124607" r="3" style="fill: steelblue;"></circle><circle cx="382.98949241638184" cy="283.28535788589056" r="3" style="fill: steelblue;"></circle><circle cx="244.87327482551336" cy="141.1645420723491" r="3" style="fill: steelblue;"></circle><circle cx="39.87248182296754" cy="229.12509491046268" r="3" style="fill: steelblue;"></circle><circle cx="443.2141149044037" cy="158.28621428873805" r="3" style="fill: steelblue;"></circle><circle cx="364.26159381866455" cy="195.94032097504373" r="3" style="fill: steelblue;"></circle><circle cx="343.76793444156647" cy="152.32938279708225" r="3" style="fill: steelblue;"></circle><circle cx="513.5888242721558" cy="70.05630599127875" r="3" style="fill: steelblue;"></circle><circle cx="305.1539236307145" cy="43.98873117234972" r="3" style="fill: steelblue;"></circle><circle cx="409.2299723625183" cy="115.53141640292273" r="3" style="fill: steelblue;"></circle><circle cx="245.40675669908524" cy="136.80165178245966" r="3" style="fill: steelblue;"></circle><circle cx="117.35377550125122" cy="234.9250701566537" r="3" style="fill: steelblue;"></circle><circle cx="221.83029480278492" cy="259.86815409527884" r="3" style="fill: steelblue;"></circle><circle cx="214.26804676651955" cy="187.45103209382955" r="3" style="fill: steelblue;"></circle><circle cx="110.73818743228914" cy="209.80297608508005" r="3" style="fill: steelblue;"></circle><circle cx="28.59604597091676" cy="201.49637220634355" r="3" style="fill: steelblue;"></circle></g></svg>