<svg xmlns="http://www.w3.org/2000/svg"><g><circle cx="28.91058921813965" cy="189.64693281385635" r="2" style="fill: steelblue;"></circle><circle cx="101.58841367810965" cy="150.21019842889572" r="2" style="fill: steelblue;"></circle><circle cx="66.54091477394104" cy="182.26556645499335" r="2" style="fill: steelblue;"></circle><circle cx="36.38458251953125" cy="159.15728939904108" r="2" style="fill: steelblue;"></circle><circle cx="69.68985497951508" cy="154.5184420214759" r="2" style="fill: steelblue;"></circle><circle cx="126.5272706747055" cy="152.43486563364664" r="2" style="fill: steelblue;"></circle><circle cx="49.92119073867798" cy="107.88470009962717" r="2" style="fill: steelblue;"></circle><circle cx="121.02123349905014" cy="189.52781624264188" r="2" style="fill: steelblue;"></circle><circle cx="68.02442967891693" cy="86.7094380988015" r="2" style="fill: steelblue;"></circle><circle cx="74.26957190036774" cy="141.29770464367337" r="2" style="fill: steelblue;"></circle><circle cx="117.13352054357529" cy="137.10881769657135" r="2" style="fill: steelblue;"></circle><circle cx="81.67096227407455" cy="121.50108814239502" r="2" style="fill: steelblue;"></circle><circle cx="102.20397189259529" cy="57.25596348444621" r="2" style="fill: steelblue;"></circle><circle cx="66.6130393743515" cy="187.36073043611313" r="2" style="fill: steelblue;"></circle><circle cx="84.12346541881561" cy="90.64758320649464" r="2" style="fill: steelblue;"></circle><circle cx="27.480047941207886" cy="155.61590592066446" r="2" style="fill: steelblue;"></circle><circle cx="88.56203556060791" cy="161.9087689452701" r="2" style="fill: steelblue;"></circle><circle cx="60.41390895843506" cy="160.50245695643954" r="2" style="fill: steelblue;"></circle><circle cx="128.28345000743866" cy="65.64475761519537" r="2" style="fill: steelblue;"></circle><circle cx="144.62479054927826" cy="97.50138305955463" r="2" style="fill: steelblue;"></circle><circle cx="132.33676254749298" cy="118.28005231089062" r="2" style="fill: steelblue;"></circle><circle cx="64.06045854091644" cy="108.55088672704167" r="2" style="fill: steelblue;"></circle><circle cx="75.9110376238823" cy="91.85014830695258" r="2" style="fill: steelblue;"></circle><circle cx="77.74248123168945" cy="123.58466784159342" r="2" style="fill: steelblue;"></circle><circle cx="33.626264333724976" cy="181.8968388769362" r="2" style="fill: steelblue;"></circle><circle cx="111.58447191119194" cy="184.99832020865546" r="2" style="fill: steelblue;"></circle><circle cx="66.37943089008331" cy="156.10945887035794" r="2" style="fill: steelblue;"></circle><circle cx="97.27650452405214" cy="133.09863871998257" r="2" style="fill: steelblue;"></circle><circle cx="36.0834002494812" cy="134.24921366903516" r="2" style="fill: steelblue;"></circle><circle cx="131.34514093399048" cy="96.87744246588812" r="2" style="fill: steelblue;"></circle><circle cx="121.68131023645401" cy="59.40194262398612" r="2" style="fill: steelblue;"></circle><circle cx="144.9506014585495" cy="92.33189788129594" r="2" style="fill: steelblue;"></circle><circle cx="146.13297581672668" cy="56.674900982115005" r="2" style="fill: steelblue;"></circle><circle cx="96.83895707130432" cy="77.8088437186347" r="2" style="fill: steelblue;"></circle><circle cx="112.02580779790878" cy="86.70820792516072" r="2" style="fill: steelblue;"></circle><circle cx="116.18928015232086" cy="183.61033995946246" r="2" style="fill: steelblue;"></circle><circle cx="81.7954272031784" cy="166.98004139794241" r="2" style="fill: steelblue;"></circle><circle cx="85.4816123843193" cy="68.58265068795946" r="2" style="fill: steelblue;"></circle><circle cx="52.53269970417023" cy="139.8671633667416" r="2" style="fill: steelblue;"></circle><circle cx="94.97269615530968" cy="74.52261116769579" r="2" style="fill: steelblue;"></circle><circle cx="144.90668773651123" cy="130.06757199764252" r="2" style="fill: steelblue;"></circle><circle cx="150.79271793365479" cy="54.387145572238495" r="2" style="fill: steelblue;"></circle><circle cx="112.17628940939903" cy="72.14348514874776" r="2" style="fill: steelblue;"></circle><circle cx="136.73474788665771" cy="72.09060589472453" r="2" style="fill: steelblue;"></circle><circle cx="111.48023083806038" cy="90.75199067592621" r="2" style="fill: steelblue;"></circle><circle cx="151.00884437561035" cy="124.10277790493436" r="2" style="fill: steelblue;"></circle><circle cx="63.324037194252014" cy="86.85181207127042" r="2" style="fill: steelblue;"></circle><circle cx="38.29025626182556" cy="171.7739701271057" r="2" style="fill: steelblue;"></circle><circle cx="49.41364526748657" cy="186.2087978257073" r="2" style="fill: steelblue;"></circle><circle cx="41.10769033432007" cy="160.99477807680765" r="2" style="fill: steelblue;"></circle><circle cx="108.80816206336021" cy="89.719091852506" r="2" style="fill: steelblue;"></circle><circle cx="39.96747136116028" cy="125.97526278760698" r="2" style="fill: steelblue;"></circle><circle cx="75.75927525758743" cy="156.86444772614374" r="2" style="fill: steelblue;"></circle><circle cx="90.20992070436478" cy="122.78804348574744" r="2" style="fill: steelblue;"></circle><circle cx="115.87333381175995" cy="92.91843242115445" r="2" style="fill: steelblue;"></circle><circle cx="64.69049751758575" cy="133.34956930743323" r="2" style="fill: steelblue;"></circle><circle cx="108.43155980110168" cy="176.90759234958225" r="2" style="fill: steelblue;"></circle><circle cx="73.86334538459778" cy="117.3078753054142" r="2" style="fill: steelblue;"></circle><circle cx="132.46310949325562" cy="142.5992614693112" r="2" style="fill: steelblue;"></circle><circle cx="76.34941786527634" cy="137.60935763518015" r="2" style="fill: steelblue;"></circle><circle cx="39.29089307785034" cy="73.98586140738593" r="2" style="fill: steelblue;"></circle><circle cx="51.58804953098297" cy="53.04741859436035" r="2" style="fill: steelblue;"></circle><circle cx="9.219318628311157" cy="179.7645025783115" r="2" style="fill: steelblue;"></circle><circle cx="15.077835321426392" cy="197.71207703484427" r="2" style="fill: steelblue;"></circle><circle cx="76.33380889892578" cy="179.21254369947647" r="2" style="fill: steelblue;"></circle><circle cx="49.94340538978577" cy="195.51785124672782" r="2" style="fill: steelblue;"></circle><circle cx="47.83517122268677" cy="102.50826428333917" r="2" style="fill: steelblue;"></circle><circle cx="120.900359749794" cy="144.04041237301297" r="2" style="fill: steelblue;"></circle><circle cx="34.782665967941284" cy="107.57108198271857" r="2" style="fill: steelblue;"></circle><circle cx="95.1558742672205" cy="153.22551793522305" r="2" style="fill: steelblue;"></circle><circle cx="29.28681969642639" cy="176.06814702351886" r="2" style="fill: steelblue;"></circle><circle cx="128.7827342748642" cy="60.30041641659207" r="2" style="fill: steelblue;"></circle><circle cx="122.23695069551468" cy="98.86386907762952" r="2" style="fill: steelblue;"></circle><circle cx="154.05619740486145" cy="73.87164235115051" r="2" style="fill: steelblue;"></circle><circle cx="106.11711777746677" cy="54.65043253368802" r="2" style="fill: steelblue;"></circle><circle cx="91.79366305470467" cy="124.19775790638394" r="2" style="fill: steelblue;"></circle><circle cx="145.7523226737976" cy="106.72048976023991" r="2" style="fill: steelblue;"></circle><circle cx="107.55355060100555" cy="62.36480342017279" r="2" style="fill: steelblue;"></circle><circle cx="95.93744613230228" cy="38.92539607153998" r="2" style="fill: steelblue;"></circle><circle cx="129.2700171470642" cy="162.97178798251682" r="2" style="fill: steelblue;"></circle><circle cx="149.34862852096558" cy="16.05015330844455" r="2" style="fill: steelblue;"></circle><circle cx="184.49092507362366" cy="48.853748374515106" r="2" style="fill: steelblue;"></circle><circle cx="113.22938054800034" cy="108.09868408573999" r="2" style="fill: steelblue;"></circle><circle cx="81.07146918773651" cy="69.82316904597812" r="2" style="fill: steelblue;"></circle><circle cx="68.2121753692627" cy="185.19178364011978" r="2" style="fill: steelblue;"></circle><circle cx="82.96888470649719" cy="153.2506313588884" r="2" style="fill: steelblue;"></circle><circle cx="94.51364614069462" cy="131.24686645136939" r="2" style="fill: steelblue;"></circle><circle cx="132.81991183757782" cy="64.58419892523024" r="2" style="fill: steelblue;"></circle><circle cx="113.46070319414139" cy="137.17000517580243" r="2" style="fill: steelblue;"></circle><circle cx="118.74755620956421" cy="11.724869410196948" r="2" style="fill: steelblue;"></circle><circle cx="110.64260303974152" cy="41.03200965457492" r="2" style="fill: steelblue;"></circle><circle cx="127.58894860744476" cy="44.63202423519559" r="2" style="fill: steelblue;"></circle><circle cx="99.38351102173328" cy="24.660964806874585" r="2" style="fill: steelblue;"></circle><circle cx="104.66057136654854" cy="92.54357881016202" r="2" style="fill: steelblue;"></circle><circle cx="111.18493974208832" cy="82.2710394859314" r="2" style="fill: steelblue;"></circle><circle cx="117.9448738694191" cy="48.5544999440511" r="2" style="fill: steelblue;"></circle><circle cx="122.14924395084381" cy="33.939500649770096" r="2" style="fill: steelblue;"></circle><circle cx="69.42275762557983" cy="117.20537187324629" r="2" style="fill: steelblue;"></circle><circle cx="137.0547205209732" cy="161.8003315395779" r="2" style="fill: steelblue;"></circle><circle cx="131.36552274227142" cy="65.54338335990906" r="2" style="fill: steelblue;"></circle><circle cx="99.9063462310005" cy="129.69772517681122" r="2" style="fill: steelblue;"></circle><circle cx="113.84615302085876" cy="82.9673707485199" r="2" style="fill: steelblue;"></circle><circle cx="132.81187415122986" cy="73.17587402131822" r="2" style="fill: steelblue;"></circle><circle cx="171.22222185134888" cy="89.93602130148146" r="2" style="fill: steelblue;"></circle><circle cx="159.406578540802" cy="86.0108368926578" r="2" style="fill: steelblue;"></circle><circle cx="147.27970361709595" cy="75.43547948201497" r="2" style="fill: steelblue;"></circle><circle cx="145.0983613729477" cy="69.66552800602383" r="2" style="fill: steelblue;"></circle><circle cx="129.61681485176086" cy="117.27254341046014" r="2" style="fill: steelblue;"></circle><circle cx="117.76073724031448" cy="75.17330514060126" r="2" style="fill: steelblue;"></circle><circle cx="83.36287289857864" cy="66.85765584309895" r="2" style="fill: steelblue;"></circle><circle cx="141.37988090515137" cy="76.55754685401917" r="2" style="fill: steelblue;"></circle><circle cx="106.20092749595642" cy="131.67632619539896" r="2" style="fill: steelblue;"></circle><circle cx="40.851181745529175" cy="131.69049223264057" r="2" style="fill: steelblue;"></circle><circle cx="115.25365263223648" cy="90.96100926399231" r="2" style="fill: steelblue;"></circle><circle cx="67.17612147331238" cy="138.35177322228748" r="2" style="fill: steelblue;"></circle><circle cx="80.43390959501266" cy="166.29312104649014" r="2" style="fill: steelblue;"></circle><circle cx="54.22511100769043" cy="125.29161903593274" r="2" style="fill: steelblue;"></circle><circle cx="106.80637955665588" cy="96.65715363290575" r="2" style="fill: steelblue;"></circle></g></svg>