<svg xmlns="http://www.w3.org/2000/svg"><g transform="translate(40,20)"><circle cx="418.08858521282673" cy="168.03944152262477" r="3" style="fill: steelblue;"></circle><circle cx="230.71500135585666" cy="138.8849632607566" r="3" style="fill: steelblue;"></circle><circle cx="409.65156599879265" cy="163.0770547522439" r="3" style="fill: steelblue;"></circle><circle cx="353.1555990502238" cy="101.0596313410335" r="3" style="fill: steelblue;"></circle><circle cx="285.15971585176885" cy="247.6844431625472" r="3" style="fill: steelblue;"></circle><circle cx="332.42534033954144" cy="109.92861539125443" r="3" style="fill: steelblue;"></circle><circle cx="431.771884560585" cy="106.17192337910336" r="3" style="fill: steelblue;"></circle><circle cx="307.0652007870376" cy="44.41421561770971" r="3" style="fill: steelblue;"></circle><circle cx="392.50859923660755" cy="113.99250643120871" r="3" style="fill: steelblue;"></circle><circle cx="428.82716104388237" cy="169.87671330571175" r="3" style="fill: steelblue;"></circle><circle cx="432.27149963378906" cy="82.43676523367566" r="3" style="fill: steelblue;"></circle><circle cx="273.63020153017715" cy="48.98036188549464" r="3" style="fill: steelblue;"></circle><circle cx="238.0252891033888" cy="166.14263877272606" r="3" style="fill: steelblue;"></circle><circle cx="383.4153474122286" cy="118.14909842279224" r="3" style="fill: steelblue;"></circle><circle cx="393.36948774755" cy="137.66619231965808" r="3" style="fill: steelblue;"></circle><circle cx="378.51687267422676" cy="38.762801223331046" r="3" style="fill: steelblue;"></circle><circle cx="355.84478683769703" cy="124.97268699937395" r="3" style="fill: steelblue;"></circle><circle cx="311.3392748683691" cy="162.50306740403175" r="3" style="fill: steelblue;"></circle><circle cx="190.98614070564508" cy="151.66881680488586" r="3" style="fill: steelblue;"></circle><circle cx="432.531516328454" cy="134.0388192070855" r="3" style="fill: steelblue;"></circle><circle cx="193.74821081757545" cy="145.31799323028986" r="3" style="fill: steelblue;"></circle><circle cx="201.60163331776857" cy="234.94627657863828" r="3" style="fill: steelblue;"></circle><circle cx="227.32403453439474" cy="191.94464672667283" r="3" style="fill: steelblue;"></circle><circle cx="146.31132267415524" cy="251.0924446913931" r="3" style="fill: steelblue;"></circle><circle cx="266.88430388923734" cy="136.42711026801004" r="3" style="fill: steelblue;"></circle><circle cx="315.7578990608454" cy="148.39378206266298" r="3" style="fill: steelblue;"></circle><circle cx="346.70178674161434" cy="302.5654289457533" r="3" style="fill: steelblue;"></circle><circle cx="237.69705964252353" cy="159.7366825573974" r="3" style="fill: steelblue;"></circle><circle cx="451.8084888160229" cy="226.0357112520271" r="3" style="fill: steelblue;"></circle><circle cx="92.84710854291917" cy="227.77202725410461" r="3" style="fill: steelblue;"></circle><circle cx="265.7794095855206" cy="164.76348828938274" r="3" style="fill: steelblue;"></circle><circle cx="230.57553319260478" cy="216.82893257174226" r="3" style="fill: steelblue;"></circle><circle cx="192.96931240707636" cy="201.8598070782092" r="3" style="fill: steelblue;"></circle><circle cx="366.8302834779024" cy="216.36798336274092" r="3" style="fill: steelblue;"></circle><circle cx="208.309764303267" cy="174.28115300006334" r="3" style="fill: steelblue;"></circle><circle cx="133.1618566811085" cy="184.98963262471887" r="3" style="fill: steelblue;"></circle><circle cx="205.9993664547801" cy="218.47038467725116" r="3" style="fill: steelblue;"></circle><circle cx="118.14563356339933" cy="260.4289261831177" r="3" style="fill: steelblue;"></circle><circle cx="184.41441513597965" cy="102.90670808818606" r="3" style="fill: steelblue;"></circle><circle cx="261.6206474415958" cy="322.43579129377997" r="3" style="fill: steelblue;"></circle><circle cx="194.01117961853743" cy="224.08113918370668" r="3" style="fill: steelblue;"></circle><circle cx="71.10761672258378" cy="294.26298869980707" r="3" style="fill: steelblue;"></circle><circle cx="196.07945948839188" cy="157.52702206373215" r="3" style="fill: steelblue;"></circle><circle cx="192.25674837827682" cy="240.6155711246861" r="3" style="fill: steelblue;"></circle><circle cx="63.41172203421594" cy="172.2788150525755" r="3" style="fill: steelblue;"></circle><circle cx="78.49952995777132" cy="329.6004616551929" r="3" style="fill: steelblue;"></circle><circle cx="162.71876737475395" cy="257.84531235694885" r="3" style="fill: steelblue;"></circle><circle cx="61.99072793126108" cy="237.81512387924727" r="3" style="fill: steelblue;"></circle><circle cx="288.68988052010536" cy="278.2404894630114" r="3" style="fill: steelblue;"></circle><circle cx="350.66583182662725" cy="253.79546814494665" r="3" style="fill: steelblue;"></circle><circle cx="250.15562589280307" cy="265.363372862339" r="3" style="fill: steelblue;"></circle><circle cx="298.3038094639778" cy="201.62102186845408" r="3" style="fill: steelblue;"></circle><circle cx="115.45373506844045" cy="298.22860989305707" r="3" style="fill: steelblue;"></circle><circle cx="77.19973817467691" cy="261.96863585048254" r="3" style="fill: steelblue;"></circle><circle cx="263.80086155142635" cy="286.42693907022476" r="3" style="fill: steelblue;"></circle><circle cx="355.1963896304369" cy="280.76214426093634" r="3" style="fill: steelblue;"></circle><circle cx="114.92579586803915" cy="282.4962147408062" r="3" style="fill: steelblue;"></circle><circle cx="98.73001769185068" cy="231.0303118493822" r="3" style="fill: steelblue;"></circle><circle cx="282.7986280247569" cy="308.20382800367145" r="3" style="fill: steelblue;"></circle><circle cx="368.62488247454166" cy="202.12014567934807" r="3" style="fill: steelblue;"></circle><circle cx="257.95155650004745" cy="220.5621798833211" r="3" style="fill: steelblue;"></circle><circle cx="332.1240997686982" cy="87.7779093053606" r="3" style="fill: steelblue;"></circle><circle cx="414.66217048466206" cy="168.71481057670383" r="3" style="fill: steelblue;"></circle><circle cx="297.46447836980224" cy="108.0207038256857" r="3" style="fill: steelblue;"></circle><circle cx="335.24731758981943" cy="132.7387226952447" r="3" style="fill: steelblue;"></circle><circle cx="400.1453713327646" cy="98.00284687015744" r="3" style="fill: steelblue;"></circle><circle cx="306.8721622042358" cy="113.60548850562839" r="3" style="fill: steelblue;"></circle><circle cx="256.8997014127672" cy="226.94000477592147" r="3" style="fill: steelblue;"></circle><circle cx="258.2717720232904" cy="247.5341177648968" r="3" style="fill: steelblue;"></circle><circle cx="457.10749447345734" cy="135.7021340065532" r="3" style="fill: steelblue;"></circle><circle cx="400.15903048217297" cy="121.20166420936584" r="3" style="fill: steelblue;"></circle><circle cx="267.77331441873685" cy="178.62554887930548" r="3" style="fill: steelblue;"></circle><circle cx="371.48609206080437" cy="278.4670814871788" r="3" style="fill: steelblue;"></circle><circle cx="140.59241384267807" cy="281.4362645149231" r="3" style="fill: steelblue;"></circle><circle cx="167.20835275948048" cy="238.90683882766302" r="3" style="fill: steelblue;"></circle><circle cx="193.15226756036282" cy="269.47298563188974" r="3" style="fill: steelblue;"></circle><circle cx="194.65591058135033" cy="248.48098059495288" r="3" style="fill: steelblue;"></circle><circle cx="136.08134396374226" cy="270.6379625532362" r="3" style="fill: steelblue;"></circle><circle cx="68.99408966302873" cy="243.28454666667517" r="3" style="fill: steelblue;"></circle><circle cx="224.39456943422556" cy="151.39373888572055" r="3" style="fill: steelblue;"></circle><circle cx="380.24889908730984" cy="253.4160299433602" r="3" style="fill: steelblue;"></circle><circle cx="139.21651102602482" cy="328.36260232660504" r="3" style="fill: steelblue;"></circle><circle cx="285.5731829814613" cy="217.6791090104315" r="3" style="fill: steelblue;"></circle><circle cx="216.29897363483906" cy="207.5227395527893" r="3" style="fill: steelblue;"></circle><circle cx="332.1847612783313" cy="145.1281872060564" r="3" style="fill: steelblue;"></circle><circle cx="216.78959157317877" cy="183.93527085168495" r="3" style="fill: steelblue;"></circle><circle cx="378.67891162633896" cy="276.8261813455158" r="3" style="fill: steelblue;"></circle><circle cx="353.394468203187" cy="139.98560524649088" r="3" style="fill: steelblue;"></circle><circle cx="387.27092899382114" cy="161.06098724736108" r="3" style="fill: steelblue;"></circle><circle cx="242.78013406321406" cy="77.35757364167108" r="3" style="fill: steelblue;"></circle><circle cx="420.3760602325201" cy="111.05038556787702" r="3" style="fill: steelblue;"></circle><circle cx="290.7654023543" cy="59.37070316738551" r="3" style="fill: steelblue;"></circle><circle cx="314.3957559764385" cy="234.79506745934486" r="3" style="fill: steelblue;"></circle><circle cx="284.7608860395849" cy="126.65710681014589" r="3" style="fill: steelblue;"></circle><circle cx="434.42293636500835" cy="281.60431649949817" r="3" style="fill: steelblue;"></circle><circle cx="87.29688718914987" cy="345.221276084582" r="3" style="fill: steelblue;"></circle><circle cx="182.1359322220087" cy="264.2337448067135" r="3" style="fill: steelblue;"></circle><circle cx="283.1181407254189" cy="216.0762538098627" r="3" style="fill: steelblue;"></circle><circle cx="359.7473908960819" cy="296.2958034541872" r="3" style="fill: steelblue;"></circle><circle cx="216.86303716152906" cy="342.24469297462036" r="3" style="fill: steelblue;"></circle><circle cx="131.90950982272628" cy="232.24378625551856" r="3" style="fill: steelblue;"></circle><circle cx="127.14087747037412" cy="303.9756053023868" r="3" style="fill: steelblue;"></circle><circle cx="165.21512277424335" cy="306.69871966044104" r="3" style="fill: steelblue;"></circle><circle cx="284.2600048799068" cy="128.59799133406744" r="3" style="fill: steelblue;"></circle><circle cx="161.90738573670387" cy="131.2631219625473" r="3" style="fill: steelblue;"></circle><circle cx="183.47964853048325" cy="230.2988539967272" r="3" style="fill: steelblue;"></circle><circle cx="270.7230034272652" cy="142.25777238607407" r="3" style="fill: steelblue;"></circle><circle cx="477.2179466485977" cy="100.82468307680553" r="3" style="fill: steelblue;"></circle><circle cx="531.3919839262962" cy="90.3829236825307" r="3" style="fill: steelblue;"></circle><circle cx="445.07680132985115" cy="133.66124696201746" r="3" style="fill: steelblue;"></circle><circle cx="414.1419258713722" cy="47.853903637992005" r="3" style="fill: steelblue;"></circle><circle cx="524.2206086218357" cy="154.54331702656214" r="3" style="fill: steelblue;"></circle><circle cx="332.3853234574199" cy="192.37573012813095" r="3" style="fill: steelblue;"></circle><circle cx="67.69912585616113" cy="120.64298407899008" r="3" style="fill: steelblue;"></circle><circle cx="224.95203472673893" cy="206.8474226527744" r="3" style="fill: steelblue;"></circle><circle cx="162.8698629140854" cy="272.39012469847995" r="3" style="fill: steelblue;"></circle><circle cx="390.4093147069216" cy="211.49282281597453" r="3" style="fill: steelblue;"></circle><circle cx="333.2802039384842" cy="287.7808991405699" r="3" style="fill: steelblue;"></circle></g></svg>