<svg xmlns="http://www.w3.org/2000/svg"><g><circle cx="45.8075761795044" cy="119.72012966871262" r="2" style="fill: steelblue;"></circle><circle cx="75.74971802532673" cy="157.72504583001137" r="2" style="fill: steelblue;"></circle><circle cx="80.91256432235241" cy="117.17859320342541" r="2" style="fill: steelblue;"></circle><circle cx="119.01168935000896" cy="116.13124646246433" r="2" style="fill: steelblue;"></circle><circle cx="47.278875857591636" cy="137.24618256092072" r="2" style="fill: steelblue;"></circle><circle cx="125.4985224455595" cy="95.40733639150858" r="2" style="fill: steelblue;"></circle><circle cx="85.67987512797117" cy="52.303994446992874" r="2" style="fill: steelblue;"></circle><circle cx="145.82545906305313" cy="67.79881417751312" r="2" style="fill: steelblue;"></circle><circle cx="28.359456360340126" cy="73.95341657102108" r="2" style="fill: steelblue;"></circle><circle cx="58.69817212224007" cy="121.55135199427605" r="2" style="fill: steelblue;"></circle><circle cx="114.15607333183289" cy="112.94073276221752" r="2" style="fill: steelblue;"></circle><circle cx="67.08068251609802" cy="140.7157689332962" r="2" style="fill: steelblue;"></circle><circle cx="81.80911876261234" cy="74.00954179465771" r="2" style="fill: steelblue;"></circle><circle cx="85.93026772141457" cy="66.90187230706215" r="2" style="fill: steelblue;"></circle><circle cx="21.84127867221833" cy="157.41139128804207" r="2" style="fill: steelblue;"></circle><circle cx="65.1525542140007" cy="155.05509674549103" r="2" style="fill: steelblue;"></circle><circle cx="124.03578720986843" cy="95.9374824538827" r="2" style="fill: steelblue;"></circle><circle cx="154.48181182146072" cy="49.37695190310478" r="2" style="fill: steelblue;"></circle><circle cx="152.05323919653893" cy="115.32274670898914" r="2" style="fill: steelblue;"></circle><circle cx="125.40743537247181" cy="96.32663791999221" r="2" style="fill: steelblue;"></circle><circle cx="145.9514930844307" cy="108.3721661940217" r="2" style="fill: steelblue;"></circle><circle cx="108.55296663939953" cy="64.3835611641407" r="2" style="fill: steelblue;"></circle><circle cx="95.68420322611928" cy="51.50964707136154" r="2" style="fill: steelblue;"></circle><circle cx="63.606759905815125" cy="171.76397740840912" r="2" style="fill: steelblue;"></circle><circle cx="133.20103883743286" cy="148.48069697618484" r="2" style="fill: steelblue;"></circle><circle cx="42.635558545589454" cy="161.5442581474781" r="2" style="fill: steelblue;"></circle><circle cx="59.7652405500412" cy="109.30653512477875" r="2" style="fill: steelblue;"></circle><circle cx="73.78750331699848" cy="156.11350014805794" r="2" style="fill: steelblue;"></circle><circle cx="71.93444892764091" cy="131.033493578434" r="2" style="fill: steelblue;"></circle><circle cx="165.76640903949738" cy="37.007829546928406" r="2" style="fill: steelblue;"></circle><circle cx="85.86125299334526" cy="116.00083895027637" r="2" style="fill: steelblue;"></circle><circle cx="175.87583363056183" cy="84.10766012966633" r="2" style="fill: steelblue;"></circle><circle cx="189.05957639217377" cy="63.52579817175865" r="2" style="fill: steelblue;"></circle><circle cx="98.60150425229222" cy="89.29787613451481" r="2" style="fill: steelblue;"></circle><circle cx="103.70043027214706" cy="41.30953028798103" r="2" style="fill: steelblue;"></circle><circle cx="91.09783582389355" cy="130.3432010114193" r="2" style="fill: steelblue;"></circle><circle cx="15.169224143028265" cy="95.87332736700773" r="2" style="fill: steelblue;"></circle><circle cx="92.83944303169847" cy="199.3950515985489" r="2" style="fill: steelblue;"></circle><circle cx="39.88148123025895" cy="172.25262373685837" r="2" style="fill: steelblue;"></circle><circle cx="134.5412641763687" cy="137.9888229072094" r="2" style="fill: steelblue;"></circle><circle cx="72.50966355204582" cy="185.48375219106674" r="2" style="fill: steelblue;"></circle><circle cx="129.23827432096004" cy="56.15528151392937" r="2" style="fill: steelblue;"></circle><circle cx="134.5892794430256" cy="44.98530402779579" r="2" style="fill: steelblue;"></circle><circle cx="166.02155417203903" cy="99.22645336482674" r="2" style="fill: steelblue;"></circle><circle cx="184.20298248529434" cy="83.36245305836201" r="2" style="fill: steelblue;"></circle><circle cx="100.59766427148134" cy="78.59571874141693" r="2" style="fill: steelblue;"></circle><circle cx="126.88349410891533" cy="73.0952475219965" r="2" style="fill: steelblue;"></circle><circle cx="35.94763427972794" cy="189.76811915636063" r="2" style="fill: steelblue;"></circle><circle cx="63.358402252197266" cy="88.66177536547184" r="2" style="fill: steelblue;"></circle><circle cx="77.1917387843132" cy="110.15893369913101" r="2" style="fill: steelblue;"></circle><circle cx="125.98714269697666" cy="99.32695087045431" r="2" style="fill: steelblue;"></circle><circle cx="111.58323138952255" cy="78.58521714806557" r="2" style="fill: steelblue;"></circle><circle cx="59.70539003610611" cy="145.5414466559887" r="2" style="fill: steelblue;"></circle><circle cx="23.255339264869697" cy="158.89640748500824" r="2" style="fill: steelblue;"></circle><circle cx="38.50723654031754" cy="127.48678810894489" r="2" style="fill: steelblue;"></circle><circle cx="46.74432277679444" cy="196.69391810894012" r="2" style="fill: steelblue;"></circle><circle cx="77.08231955766678" cy="124.14886094629765" r="2" style="fill: steelblue;"></circle><circle cx="86.64253298193216" cy="110.81304345279932" r="2" style="fill: steelblue;"></circle><circle cx="56.78289234638214" cy="94.23236260190606" r="2" style="fill: steelblue;"></circle><circle cx="79.81655783951283" cy="86.89417075365782" r="2" style="fill: steelblue;"></circle><circle cx="34.82643365859986" cy="123.73496629297733" r="2" style="fill: steelblue;"></circle><circle cx="59.688082337379456" cy="101.95530685596168" r="2" style="fill: steelblue;"></circle><circle cx="49.70129057765008" cy="154.2582981288433" r="2" style="fill: steelblue;"></circle><circle cx="36.84810400009156" cy="195.35691142082214" r="2" style="fill: steelblue;"></circle><circle cx="72.02135622501373" cy="178.10474187135696" r="2" style="fill: steelblue;"></circle><circle cx="3.05959433317185" cy="140.15057161450386" r="2" style="fill: steelblue;"></circle><circle cx="67.23198890686035" cy="192.0688584446907" r="2" style="fill: steelblue;"></circle><circle cx="51.34768262505531" cy="176.4448046684265" r="2" style="fill: steelblue;"></circle><circle cx="35.64192950725556" cy="107.6331770978868" r="2" style="fill: steelblue;"></circle><circle cx="59.56060662865639" cy="165.4742419719696" r="2" style="fill: steelblue;"></circle><circle cx="121.45997621119022" cy="52.81224697828293" r="2" style="fill: steelblue;"></circle><circle cx="128.81999872624874" cy="6.335480511188507" r="2" style="fill: steelblue;"></circle><circle cx="100.15148513193708" cy="13.752540946006775" r="2" style="fill: steelblue;"></circle><circle cx="90.80181960016489" cy="91.31273664534092" r="2" style="fill: steelblue;"></circle><circle cx="123.62513914704323" cy="32.18836188316345" r="2" style="fill: steelblue;"></circle><circle cx="194.76103633642197" cy="146.63575068116188" r="2" style="fill: steelblue;"></circle><circle cx="89.265451207757" cy="37.6143179833889" r="2" style="fill: steelblue;"></circle><circle cx="137.9953272640705" cy="53.05735990405083" r="2" style="fill: steelblue;"></circle><circle cx="132.78323262929916" cy="71.08597308397293" r="2" style="fill: steelblue;"></circle><circle cx="55.86855337023735" cy="24.872756004333496" r="2" style="fill: steelblue;"></circle><circle cx="153.0022829771042" cy="116.60680584609509" r="2" style="fill: steelblue;"></circle><circle cx="199.62736070156097" cy="34.2067614197731" r="2" style="fill: steelblue;"></circle><circle cx="71.68126702308655" cy="145.47763988375664" r="2" style="fill: steelblue;"></circle><circle cx="32.44829028844834" cy="165.3640180826187" r="2" style="fill: steelblue;"></circle><circle cx="92.38132359459996" cy="109.9398884922266" r="2" style="fill: steelblue;"></circle><circle cx="128.885405510664" cy="106.89135817810893" r="2" style="fill: steelblue;"></circle><circle cx="43.37190687656403" cy="74.20126758515835" r="2" style="fill: steelblue;"></circle><circle cx="72.96994179487228" cy="90.9896133467555" r="2" style="fill: steelblue;"></circle><circle cx="70.99843248724937" cy="82.37224295735359" r="2" style="fill: steelblue;"></circle><circle cx="115.11448994278908" cy="69.86287832260132" r="2" style="fill: steelblue;"></circle><circle cx="126.14505216479301" cy="81.7721601575613" r="2" style="fill: steelblue;"></circle><circle cx="163.33909183740616" cy="94.4949820637703" r="2" style="fill: steelblue;"></circle><circle cx="161.78271770477295" cy="56.39445632696152" r="2" style="fill: steelblue;"></circle><circle cx="103.75258643180132" cy="45.130858570337296" r="2" style="fill: steelblue;"></circle><circle cx="164.54464048147202" cy="42.07968935370445" r="2" style="fill: steelblue;"></circle><circle cx="64.10225704312325" cy="54.52773943543434" r="2" style="fill: steelblue;"></circle><circle cx="154.7533556818962" cy="43.028524518013" r="2" style="fill: steelblue;"></circle><circle cx="86.81326862424612" cy="170.41529566049576" r="2" style="fill: steelblue;"></circle><circle cx="123.24850670993328" cy="166.74793362617493" r="2" style="fill: steelblue;"></circle><circle cx="61.264677345752716" cy="20.40906846523285" r="2" style="fill: steelblue;"></circle><circle cx="114.8550970479846" cy="19.752895832061768" r="2" style="fill: steelblue;"></circle><circle cx="81.82960599660873" cy="69.84178945422173" r="2" style="fill: steelblue;"></circle><circle cx="129.81368824839592" cy="106.7693181335926" r="2" style="fill: steelblue;"></circle><circle cx="105.34661207348108" cy="175.53990185260773" r="2" style="fill: steelblue;"></circle><circle cx="131.42516687512398" cy="44.979917258024216" r="2" style="fill: steelblue;"></circle><circle cx="100.8035731734708" cy="142.07415878772736" r="2" style="fill: steelblue;"></circle><circle cx="145.35230994224548" cy="99.82532870490104" r="2" style="fill: steelblue;"></circle><circle cx="148.98322001099586" cy="88.23208920657635" r="2" style="fill: steelblue;"></circle><circle cx="149.90944266319275" cy="118.22301000356674" r="2" style="fill: steelblue;"></circle><circle cx="134.20523926615715" cy="55.04821836948395" r="2" style="fill: steelblue;"></circle><circle cx="158.61078947782516" cy="89.07410725951195" r="2" style="fill: steelblue;"></circle><circle cx="123.94859306514263" cy="29.204657673835754" r="2" style="fill: steelblue;"></circle><circle cx="48.63484054803849" cy="132.39154815673828" r="2" style="fill: steelblue;"></circle><circle cx="70.64396925270557" cy="124.04789440333843" r="2" style="fill: steelblue;"></circle><circle cx="63.29604461789131" cy="135.72002798318863" r="2" style="fill: steelblue;"></circle><circle cx="137.84728422760963" cy="193.6359092593193" r="2" style="fill: steelblue;"></circle><circle cx="84.2258132994175" cy="138.75421360135078" r="2" style="fill: steelblue;"></circle><circle cx="61.71027049422264" cy="138.13745453953743" r="2" style="fill: steelblue;"></circle></g></svg>