<svg xmlns="http://www.w3.org/2000/svg"><g><circle cx="19.103300571441657" cy="180.89669942855835" r="2" style="fill: steelblue;"></circle><circle cx="60.58497428894043" cy="139.41502571105957" r="2" style="fill: steelblue;"></circle><circle cx="40.74848890304566" cy="159.25151109695435" r="2" style="fill: steelblue;"></circle><circle cx="52.62519783443875" cy="147.37480216556125" r="2" style="fill: steelblue;"></circle><circle cx="75.86907297372818" cy="124.13092702627182" r="2" style="fill: steelblue;"></circle><circle cx="64.43245742056105" cy="135.56754257943894" r="2" style="fill: steelblue;"></circle><circle cx="82.87035872538885" cy="117.12964127461115" r="2" style="fill: steelblue;"></circle><circle cx="62.55478527810839" cy="137.4452147218916" r="2" style="fill: steelblue;"></circle><circle cx="84.92357151375877" cy="115.07642848624124" r="2" style="fill: steelblue;"></circle><circle cx="69.15239195028941" cy="130.84760804971057" r="2" style="fill: steelblue;"></circle><circle cx="26.837089326646595" cy="173.16291067335342" r="2" style="fill: steelblue;"></circle><circle cx="96.35389132632149" cy="103.6461086736785" r="2" style="fill: steelblue;"></circle><circle cx="22.886996799045143" cy="177.11300320095486" r="2" style="fill: steelblue;"></circle><circle cx="86.43901029394733" cy="113.56098970605268" r="2" style="fill: steelblue;"></circle><circle cx="49.61018297407362" cy="150.38981702592636" r="2" style="fill: steelblue;"></circle><circle cx="13.023553954230419" cy="186.97644604576956" r="2" style="fill: steelblue;"></circle><circle cx="118.658047914505" cy="81.341952085495" r="2" style="fill: steelblue;"></circle><circle cx="97.57482873068916" cy="102.42517126931085" r="2" style="fill: steelblue;"></circle><circle cx="80.98819802204768" cy="119.01180197795232" r="2" style="fill: steelblue;"></circle><circle cx="107.63380461268954" cy="92.36619538731046" r="2" style="fill: steelblue;"></circle><circle cx="98.96662036577861" cy="101.03337963422139" r="2" style="fill: steelblue;"></circle><circle cx="96.1153808567259" cy="103.8846191432741" r="2" style="fill: steelblue;"></circle><circle cx="117.35805736647713" cy="82.64194263352287" r="2" style="fill: steelblue;"></circle><circle cx="78.32436379459169" cy="121.67563620540831" r="2" style="fill: steelblue;"></circle><circle cx="44.78180607159933" cy="155.21819392840067" r="2" style="fill: steelblue;"></circle><circle cx="55.85726300875346" cy="144.14273699124652" r="2" style="fill: steelblue;"></circle><circle cx="9.699548615349668" cy="190.30045138465033" r="2" style="fill: steelblue;"></circle><circle cx="19.979170958201095" cy="180.0208290417989" r="2" style="fill: steelblue;"></circle><circle cx="67.25359327263303" cy="132.74640672736697" r="2" style="fill: steelblue;"></circle><circle cx="121.30112316873338" cy="78.69887683126662" r="2" style="fill: steelblue;"></circle><circle cx="105.59242831336128" cy="94.40757168663872" r="2" style="fill: steelblue;"></circle><circle cx="154.47289943695068" cy="45.527100563049316" r="2" style="fill: steelblue;"></circle><circle cx="95.10196033451292" cy="104.89803966548708" r="2" style="fill: steelblue;"></circle><circle cx="103.25711998674605" cy="96.74288001325395" r="2" style="fill: steelblue;"></circle><circle cx="91.02100974155796" cy="108.97899025844202" r="2" style="fill: steelblue;"></circle><circle cx="151.11294587453204" cy="48.88705412546794" r="2" style="fill: steelblue;"></circle><circle cx="84.52697710858452" cy="115.4730228914155" r="2" style="fill: steelblue;"></circle><circle cx="31.46591318978204" cy="168.53408681021796" r="2" style="fill: steelblue;"></circle><circle cx="49.13066691822476" cy="150.86933308177524" r="2" style="fill: steelblue;"></circle><circle cx="89.02960875485506" cy="110.97039124514494" r="2" style="fill: steelblue;"></circle><circle cx="31.18834760453966" cy="168.81165239546036" r="2" style="fill: steelblue;"></circle><circle cx="20.706963539123542" cy="179.29303646087646" r="2" style="fill: steelblue;"></circle><circle cx="85.37618228130872" cy="114.6238177186913" r="2" style="fill: steelblue;"></circle><circle cx="167.14696619245743" cy="32.85303380754259" r="2" style="fill: steelblue;"></circle><circle cx="85.26705279946327" cy="114.73294720053673" r="2" style="fill: steelblue;"></circle><circle cx="84.8998960521486" cy="115.1001039478514" r="2" style="fill: steelblue;"></circle><circle cx="64.9721791346868" cy="135.0278208653132" r="2" style="fill: steelblue;"></circle><circle cx="27.069262663523357" cy="172.93073733647662" r="2" style="fill: steelblue;"></circle><circle cx="105.46273854043748" cy="94.53726145956252" r="2" style="fill: steelblue;"></circle><circle cx="17.326459619734027" cy="182.67354038026596" r="2" style="fill: steelblue;"></circle><circle cx="110.02968781524234" cy="89.97031218475766" r="2" style="fill: steelblue;"></circle><circle cx="73.05117812421588" cy="126.94882187578412" r="2" style="fill: steelblue;"></circle><circle cx="78.9757647448116" cy="121.02423525518842" r="2" style="fill: steelblue;"></circle><circle cx="120.11172903908624" cy="79.88827096091376" r="2" style="fill: steelblue;"></circle><circle cx="58.035716745588516" cy="141.96428325441147" r="2" style="fill: steelblue;"></circle><circle cx="53.23597325219048" cy="146.7640267478095" r="2" style="fill: steelblue;"></circle><circle cx="120.81861694653828" cy="79.18138305346172" r="2" style="fill: steelblue;"></circle><circle cx="58.24018385675219" cy="141.7598161432478" r="2" style="fill: steelblue;"></circle><circle cx="94.64958922730553" cy="105.35041077269449" r="2" style="fill: steelblue;"></circle><circle cx="77.45214336448247" cy="122.54785663551755" r="2" style="fill: steelblue;"></circle><circle cx="84.26752926574814" cy="115.73247073425188" r="2" style="fill: steelblue;"></circle><circle cx="83.99600568744872" cy="116.00399431255128" r="2" style="fill: steelblue;"></circle><circle cx="6.657102372911246" cy="193.34289762708877" r="2" style="fill: steelblue;"></circle><circle cx="13.268052207099071" cy="186.7319477929009" r="2" style="fill: steelblue;"></circle><circle cx="26.775352160135906" cy="173.22464783986408" r="2" style="fill: steelblue;"></circle><circle cx="66.98064870304532" cy="133.01935129695468" r="2" style="fill: steelblue;"></circle><circle cx="31.5495252609253" cy="168.4504747390747" r="2" style="fill: steelblue;"></circle><circle cx="91.24184764093823" cy="108.75815235906177" r="2" style="fill: steelblue;"></circle><circle cx="12.632792525821266" cy="187.36720747417874" r="2" style="fill: steelblue;"></circle><circle cx="14.644767178429502" cy="185.3552328215705" r="2" style="fill: steelblue;"></circle><circle cx="68.31638713677725" cy="131.68361286322275" r="2" style="fill: steelblue;"></circle><circle cx="102.83998019165463" cy="97.16001980834537" r="2" style="fill: steelblue;"></circle><circle cx="144.58674059973825" cy="55.41325940026176" r="2" style="fill: steelblue;"></circle><circle cx="127.27566096517775" cy="72.72433903482225" r="2" style="fill: steelblue;"></circle><circle cx="128.24356754620868" cy="71.7564324537913" r="2" style="fill: steelblue;"></circle><circle cx="90.1640676582853" cy="109.8359323417147" r="2" style="fill: steelblue;"></circle><circle cx="31.66074090533787" cy="168.33925909466214" r="2" style="fill: steelblue;"></circle><circle cx="136.82105673684015" cy="63.17894326315985" r="2" style="fill: steelblue;"></circle><circle cx="111.61275903383891" cy="88.38724096616109" r="2" style="fill: steelblue;"></circle><circle cx="98.58034584257338" cy="101.41965415742662" r="2" style="fill: steelblue;"></circle><circle cx="175.81950823465985" cy="24.18049176534016" r="2" style="fill: steelblue;"></circle><circle cx="165.06541967391968" cy="34.93458032608032" r="2" style="fill: steelblue;"></circle><circle cx="154.31652996275162" cy="45.6834700372484" r="2" style="fill: steelblue;"></circle><circle cx="71.79180317454869" cy="128.20819682545132" r="2" style="fill: steelblue;"></circle><circle cx="75.40030479431152" cy="124.59969520568848" r="2" style="fill: steelblue;"></circle><circle cx="91.5672196696202" cy="108.4327803303798" r="2" style="fill: steelblue;"></circle><circle cx="98.60931121640736" cy="101.39068878359265" r="2" style="fill: steelblue;"></circle><circle cx="44.07486187087165" cy="155.92513812912836" r="2" style="fill: steelblue;"></circle><circle cx="39.11228179931641" cy="160.8877182006836" r="2" style="fill: steelblue;"></circle><circle cx="149.74250925911798" cy="50.25749074088202" r="2" style="fill: steelblue;"></circle><circle cx="57.903258668051826" cy="142.09674133194818" r="2" style="fill: steelblue;"></circle><circle cx="102.53247155083551" cy="97.46752844916449" r="2" style="fill: steelblue;"></circle><circle cx="181.32161961661444" cy="18.678380383385562" r="2" style="fill: steelblue;"></circle><circle cx="88.37412532625926" cy="111.62587467374073" r="2" style="fill: steelblue;"></circle><circle cx="105.30700816048517" cy="94.69299183951483" r="2" style="fill: steelblue;"></circle><circle cx="155.87997966342502" cy="44.12002033657498" r="2" style="fill: steelblue;"></circle><circle cx="167.4256708886888" cy="32.57432911131117" r="2" style="fill: steelblue;"></circle><circle cx="92.44681927892897" cy="107.55318072107103" r="2" style="fill: steelblue;"></circle><circle cx="47.026046779420646" cy="152.97395322057938" r="2" style="fill: steelblue;"></circle><circle cx="80.6578450732761" cy="119.34215492672391" r="2" style="fill: steelblue;"></circle><circle cx="140.22010432349313" cy="59.779895676506875" r="2" style="fill: steelblue;"></circle><circle cx="129.39686112933688" cy="70.60313887066312" r="2" style="fill: steelblue;"></circle><circle cx="155.64441548453436" cy="44.35558451546564" r="2" style="fill: steelblue;"></circle><circle cx="146.1545679304335" cy="53.84543206956651" r="2" style="fill: steelblue;"></circle><circle cx="144.2948169178433" cy="55.70518308215671" r="2" style="fill: steelblue;"></circle><circle cx="118.44757729106479" cy="81.55242270893521" r="2" style="fill: steelblue;"></circle><circle cx="93.36885718835724" cy="106.63114281164275" r="2" style="fill: steelblue;"></circle><circle cx="129.48976159095764" cy="70.51023840904236" r="2" style="fill: steelblue;"></circle><circle cx="92.62174442410469" cy="107.37825557589531" r="2" style="fill: steelblue;"></circle><circle cx="115.60162934992049" cy="84.39837065007951" r="2" style="fill: steelblue;"></circle><circle cx="110.9537038538191" cy="89.0462961461809" r="2" style="fill: steelblue;"></circle><circle cx="138.9446907573276" cy="61.055309242672394" r="2" style="fill: steelblue;"></circle><circle cx="78.24265741639668" cy="121.75734258360333" r="2" style="fill: steelblue;"></circle><circle cx="40.018169747458565" cy="159.98183025254144" r="2" style="fill: steelblue;"></circle><circle cx="82.56101310253143" cy="117.43898689746857" r="2" style="fill: steelblue;"></circle><circle cx="112.22169001897176" cy="87.77830998102824" r="2" style="fill: steelblue;"></circle><circle cx="106.2508162524965" cy="93.7491837475035" r="2" style="fill: steelblue;"></circle><circle cx="39.07565143373278" cy="160.92434856626724" r="2" style="fill: steelblue;"></circle></g></svg>