<svg xmlns="http://www.w3.org/2000/svg"><g><circle cx="55.42037222120497" cy="162.45271116495132" r="2" style="fill: steelblue;"></circle><circle cx="58.31903550359938" cy="179.81564849615097" r="2" style="fill: steelblue;"></circle><circle cx="155.2445458041297" cy="144.55474764108658" r="2" style="fill: steelblue;"></circle><circle cx="109.6306409065922" cy="183.7557464838028" r="2" style="fill: steelblue;"></circle><circle cx="69.499800602595" cy="156.9060817360878" r="2" style="fill: steelblue;"></circle><circle cx="94.91246773136986" cy="154.64066565036774" r="2" style="fill: steelblue;"></circle><circle cx="64.08457623587715" cy="115.75090549886227" r="2" style="fill: steelblue;"></circle><circle cx="91.68838626808589" cy="95.03468628972769" r="2" style="fill: steelblue;"></circle><circle cx="85.5561527940962" cy="150.36574974656105" r="2" style="fill: steelblue;"></circle><circle cx="117.09756362769339" cy="167.01643019914627" r="2" style="fill: steelblue;"></circle><circle cx="65.98971949683296" cy="152.4204485118389" r="2" style="fill: steelblue;"></circle><circle cx="156.93245662583243" cy="109.43662505596876" r="2" style="fill: steelblue;"></circle><circle cx="67.55664282374912" cy="152.14867740869522" r="2" style="fill: steelblue;"></circle><circle cx="43.757471773359505" cy="108.25260858982801" r="2" style="fill: steelblue;"></circle><circle cx="105.36312891377342" cy="150.95435678958893" r="2" style="fill: steelblue;"></circle><circle cx="99.0307049618827" cy="69.95288878679276" r="2" style="fill: steelblue;"></circle><circle cx="106.39495568142996" cy="115.58634918183088" r="2" style="fill: steelblue;"></circle><circle cx="144.92866065767075" cy="113.4715111926198" r="2" style="fill: steelblue;"></circle><circle cx="172.01274633407593" cy="118.83691176772118" r="2" style="fill: steelblue;"></circle><circle cx="159.94598468144733" cy="81.52429237961769" r="2" style="fill: steelblue;"></circle><circle cx="84.65699851512909" cy="59.81791615486145" r="2" style="fill: steelblue;"></circle><circle cx="165.53258895874023" cy="26.8152117729187" r="2" style="fill: steelblue;"></circle><circle cx="45.10208633210924" cy="81.6911555826664" r="2" style="fill: steelblue;"></circle><circle cx="81.33717709117465" cy="125.79676173627377" r="2" style="fill: steelblue;"></circle><circle cx="99.78222515847948" cy="89.96117897331715" r="2" style="fill: steelblue;"></circle><circle cx="116.47541696826617" cy="62.847184389829636" r="2" style="fill: steelblue;"></circle><circle cx="116.94269296195772" cy="118.0653315037489" r="2" style="fill: steelblue;"></circle><circle cx="62.00498673650954" cy="155.43190985918045" r="2" style="fill: steelblue;"></circle><circle cx="65.89057710435655" cy="132.46602416038513" r="2" style="fill: steelblue;"></circle><circle cx="102.99565394719441" cy="126.4857616275549" r="2" style="fill: steelblue;"></circle><circle cx="162.88113925192093" cy="35.38019806146622" r="2" style="fill: steelblue;"></circle><circle cx="166.6487157344818" cy="73.01299311220646" r="2" style="fill: steelblue;"></circle><circle cx="114.51552187403043" cy="101.04941939935088" r="2" style="fill: steelblue;"></circle><circle cx="115.94328946537442" cy="155.42096868157387" r="2" style="fill: steelblue;"></circle><circle cx="129.00369034873114" cy="156.13857880234718" r="2" style="fill: steelblue;"></circle><circle cx="89.53238195843166" cy="125.54778940975666" r="2" style="fill: steelblue;"></circle><circle cx="50.83972877926296" cy="113.62136751413345" r="2" style="fill: steelblue;"></circle><circle cx="50.929433769649926" cy="188.90261501073837" r="2" style="fill: steelblue;"></circle><circle cx="44.80048020680745" cy="143.60489174723625" r="2" style="fill: steelblue;"></circle><circle cx="67.61839985847473" cy="79.79371249675751" r="2" style="fill: steelblue;"></circle><circle cx="84.8110169172287" cy="136.89194098114967" r="2" style="fill: steelblue;"></circle><circle cx="177.4100661277771" cy="122.80883304774761" r="2" style="fill: steelblue;"></circle><circle cx="92.32921567228105" cy="106.8425890058279" r="2" style="fill: steelblue;"></circle><circle cx="130.93385928206973" cy="37.48023360967636" r="2" style="fill: steelblue;"></circle><circle cx="162.07746664683023" cy="88.42442315071821" r="2" style="fill: steelblue;"></circle><circle cx="114.09624252054427" cy="23.48591983318329" r="2" style="fill: steelblue;"></circle><circle cx="151.69490377108255" cy="77.85327956080437" r="2" style="fill: steelblue;"></circle><circle cx="74.93129372596741" cy="179.82497662305832" r="2" style="fill: steelblue;"></circle><circle cx="106.20418356524573" cy="103.87995806522667" r="2" style="fill: steelblue;"></circle><circle cx="54.39390738805135" cy="119.00419220328331" r="2" style="fill: steelblue;"></circle><circle cx="85.3299448887507" cy="60.64850315451622" r="2" style="fill: steelblue;"></circle><circle cx="145.5985638830397" cy="106.07104878872633" r="2" style="fill: steelblue;"></circle><circle cx="114.26584877901607" cy="34.56779420375824" r="2" style="fill: steelblue;"></circle><circle cx="104.08275574445724" cy="139.20485079288483" r="2" style="fill: steelblue;"></circle><circle cx="128.01372177071042" cy="100.01034885644913" r="2" style="fill: steelblue;"></circle><circle cx="56.15807241863674" cy="145.66120728850365" r="2" style="fill: steelblue;"></circle><circle cx="53.10366551081339" cy="110.88718883693218" r="2" style="fill: steelblue;"></circle><circle cx="82.77157611317104" cy="88.48473280668259" r="2" style="fill: steelblue;"></circle><circle cx="83.3859062857098" cy="53.6118321120739" r="2" style="fill: steelblue;"></circle><circle cx="138.97687196731567" cy="142.76888817548752" r="2" style="fill: steelblue;"></circle><circle cx="55.83482318454318" cy="132.52820670604706" r="2" style="fill: steelblue;"></circle><circle cx="128.78792650169797" cy="126.68889425694942" r="2" style="fill: steelblue;"></circle><circle cx="125.52326917648315" cy="174.71976429224014" r="2" style="fill: steelblue;"></circle><circle cx="63.82345490985446" cy="162.96362727880478" r="2" style="fill: steelblue;"></circle><circle cx="60.48068073060777" cy="158.94096568226814" r="2" style="fill: steelblue;"></circle><circle cx="34.83578231599596" cy="98.63759230356663" r="2" style="fill: steelblue;"></circle><circle cx="121.90685421228409" cy="167.54747033119202" r="2" style="fill: steelblue;"></circle><circle cx="73.97330469555324" cy="161.55385076999664" r="2" style="fill: steelblue;"></circle><circle cx="35.350124041239425" cy="78.46310585737228" r="2" style="fill: steelblue;"></circle><circle cx="59.87550814946493" cy="111.68570853769779" r="2" style="fill: steelblue;"></circle><circle cx="16.987297270033093" cy="156.32025003433228" r="2" style="fill: steelblue;"></circle><circle cx="156.00943565368652" cy="91.25121906399727" r="2" style="fill: steelblue;"></circle><circle cx="121.28607514831755" cy="45.28065249323845" r="2" style="fill: steelblue;"></circle><circle cx="144.61285207006668" cy="53.67736741900444" r="2" style="fill: steelblue;"></circle><circle cx="168.74119970533584" cy="45.075199007987976" r="2" style="fill: steelblue;"></circle><circle cx="108.29110257327557" cy="49.35276359319687" r="2" style="fill: steelblue;"></circle><circle cx="119.73885695139568" cy="46.41389325261116" r="2" style="fill: steelblue;"></circle><circle cx="184.0851174460517" cy="47.65826687216759" r="2" style="fill: steelblue;"></circle><circle cx="166.60618782043457" cy="1.6818925738334656" r="2" style="fill: steelblue;"></circle><circle cx="141.01324147648282" cy="30.10542541742325" r="2" style="fill: steelblue;"></circle><circle cx="157.87151124742294" cy="42.84748286008835" r="2" style="fill: steelblue;"></circle><circle cx="193.75020927853055" cy="5.438274145126343" r="2" style="fill: steelblue;"></circle><circle cx="128.83370121320087" cy="98.39228135533631" r="2" style="fill: steelblue;"></circle><circle cx="71.3632239235772" cy="120.2549621462822" r="2" style="fill: steelblue;"></circle><circle cx="148.6315263642205" cy="188.3452519774437" r="2" style="fill: steelblue;"></circle><circle cx="87.8546138604482" cy="109.0522626414895" r="2" style="fill: steelblue;"></circle><circle cx="134.69804988967047" cy="105.72137208655477" r="2" style="fill: steelblue;"></circle><circle cx="141.21222164895798" cy="94.48972661048174" r="2" style="fill: steelblue;"></circle><circle cx="119.94683576954735" cy="86.66827846318483" r="2" style="fill: steelblue;"></circle><circle cx="144.37069164382086" cy="62.715599685907364" r="2" style="fill: steelblue;"></circle><circle cx="171.1165640089247" cy="38.19475173950195" r="2" style="fill: steelblue;"></circle><circle cx="164.90335596932303" cy="34.75668132305145" r="2" style="fill: steelblue;"></circle><circle cx="74.9873916308085" cy="92.34945001080632" r="2" style="fill: steelblue;"></circle><circle cx="77.26732227537367" cy="34.84979867935181" r="2" style="fill: steelblue;"></circle><circle cx="113.9691656248437" cy="42.65342503786087" r="2" style="fill: steelblue;"></circle><circle cx="93.56960819827187" cy="46.931276470422745" r="2" style="fill: steelblue;"></circle><circle cx="155.0854676299625" cy="56.87583088874817" r="2" style="fill: steelblue;"></circle><circle cx="125.14311075210571" cy="17.60016232728958" r="2" style="fill: steelblue;"></circle><circle cx="167.71972179412842" cy="111.79639250040054" r="2" style="fill: steelblue;"></circle><circle cx="56.030703915490044" cy="144.13475841283798" r="2" style="fill: steelblue;"></circle><circle cx="152.71272261937457" cy="122.33878709375858" r="2" style="fill: steelblue;"></circle><circle cx="108.65621330837409" cy="42.149654030799866" r="2" style="fill: steelblue;"></circle><circle cx="127.94135014216106" cy="108.60277283936739" r="2" style="fill: steelblue;"></circle><circle cx="53.406218687693276" cy="84.12607610225677" r="2" style="fill: steelblue;"></circle><circle cx="151.38552255100674" cy="10.531029105186462" r="2" style="fill: steelblue;"></circle><circle cx="118.72093627850215" cy="45.09348273277283" r="2" style="fill: steelblue;"></circle><circle cx="127.69806881745656" cy="161.08415126800537" r="2" style="fill: steelblue;"></circle><circle cx="122.41466922892464" cy="44.56039369106293" r="2" style="fill: steelblue;"></circle><circle cx="106.75127266181839" cy="22.637760639190674" r="2" style="fill: steelblue;"></circle><circle cx="95.97547849019368" cy="31.78388476371765" r="2" style="fill: steelblue;"></circle><circle cx="148.7365596824222" cy="22.540389001369476" r="2" style="fill: steelblue;"></circle><circle cx="146.93576759762234" cy="26.00834369659424" r="2" style="fill: steelblue;"></circle><circle cx="74.86598690350851" cy="139.21032696962357" r="2" style="fill: steelblue;"></circle><circle cx="78.59922448794046" cy="94.560566265136" r="2" style="fill: steelblue;"></circle><circle cx="101.09525670607884" cy="123.77944067120552" r="2" style="fill: steelblue;"></circle><circle cx="49.117392963833275" cy="164.1953945159912" r="2" style="fill: steelblue;"></circle><circle cx="108.2265501221021" cy="162.82967329025269" r="2" style="fill: steelblue;"></circle><circle cx="72.9418330722385" cy="100.81705627962947" r="2" style="fill: steelblue;"></circle></g></svg>