<svg xmlns="http://www.w3.org/2000/svg"><rect width="200" height="200" fill="white"></rect><g><circle cx="121.61954823467467" cy="172.52567079332138" r="2" style="fill: steelblue;"></circle><circle cx="87.00083030594719" cy="141.91656311353046" r="2" style="fill: steelblue;"></circle><circle cx="89.8856586880154" cy="146.27120229932996" r="2" style="fill: steelblue;"></circle><circle cx="78.96788252724541" cy="169.80494393242728" r="2" style="fill: steelblue;"></circle><circle cx="34.85655122333103" cy="88.94807762569852" r="2" style="fill: steelblue;"></circle><circle cx="88.51338260703616" cy="131.3831607500712" r="2" style="fill: steelblue;"></circle><circle cx="134.28691360685562" cy="84.31475195619795" r="2" style="fill: steelblue;"></circle><circle cx="70.77695594893562" cy="151.8106824821896" r="2" style="fill: steelblue;"></circle><circle cx="87.09773586855995" cy="134.24925340546503" r="2" style="fill: steelblue;"></circle><circle cx="170.34140560362076" cy="121.72932260566287" r="2" style="fill: steelblue;"></circle><circle cx="102.5827071732945" cy="129.15521032280392" r="2" style="fill: steelblue;"></circle><circle cx="127.34911176893446" cy="142.41471224360996" r="2" style="fill: steelblue;"></circle><circle cx="74.32587941487631" cy="160.16119718551636" r="2" style="fill: steelblue;"></circle><circle cx="82.46574799219766" cy="139.23411568005878" r="2" style="fill: steelblue;"></circle><circle cx="86.78204152319167" cy="158.49684675534564" r="2" style="fill: steelblue;"></circle><circle cx="21.147463056776257" cy="186.8405408329434" r="2" style="fill: steelblue;"></circle><circle cx="129.28371462557052" cy="97.00134230984581" r="2" style="fill: steelblue;"></circle><circle cx="146.09742495748733" cy="60.67094537946913" r="2" style="fill: steelblue;"></circle><circle cx="127.36736403571234" cy="98.83252696858511" r="2" style="fill: steelblue;"></circle><circle cx="140.88137613402472" cy="136.70179082287683" r="2" style="fill: steelblue;"></circle><circle cx="182.95236428578693" cy="147.23930425114102" r="2" style="fill: steelblue;"></circle><circle cx="142.00426472557913" cy="50.30138625038993" r="2" style="fill: steelblue;"></circle><circle cx="41.00339942508274" cy="103.75517358382542" r="2" style="fill: steelblue;"></circle><circle cx="73.16012846099007" cy="152.64613760842218" r="2" style="fill: steelblue;"></circle><circle cx="46.05933692720201" cy="154.65540687243143" r="2" style="fill: steelblue;"></circle><circle cx="118.62331380446751" cy="158.2427720228831" r="2" style="fill: steelblue;"></circle><circle cx="73.71679610676235" cy="183.43775139914618" r="2" style="fill: steelblue;"></circle><circle cx="96.17303477393257" cy="65.61642554071214" r="2" style="fill: steelblue;"></circle><circle cx="95.55372099081674" cy="148.7079792552524" r="2" style="fill: steelblue;"></circle><circle cx="150.62595076031155" cy="110.32801343955927" r="2" style="fill: steelblue;"></circle><circle cx="114.03849182857407" cy="37.28935453626845" r="2" style="fill: steelblue;"></circle><circle cx="84.30497348308563" cy="75.14710889922247" r="2" style="fill: steelblue;"></circle><circle cx="159.82827213075424" cy="49.571990966796875" r="2" style="fill: steelblue;"></circle><circle cx="156.21655186017352" cy="65.47191076808505" r="2" style="fill: steelblue;"></circle><circle cx="115.45570774210823" cy="57.99845854441325" r="2" style="fill: steelblue;"></circle><circle cx="102.82138486703236" cy="148.73717890845404" r="2" style="fill: steelblue;"></circle><circle cx="45.9219151073032" cy="125.22715826829274" r="2" style="fill: steelblue;"></circle><circle cx="71.8380974398719" cy="141.43745435608758" r="2" style="fill: steelblue;"></circle><circle cx="52.5924629635281" cy="114.07726382215817" r="2" style="fill: steelblue;"></circle><circle cx="54.799669318728974" cy="142.33257704310947" r="2" style="fill: steelblue;"></circle><circle cx="85.12121107843187" cy="183.42872460683185" r="2" style="fill: steelblue;"></circle><circle cx="146.46363920635648" cy="93.09377604060703" r="2" style="fill: steelblue;"></circle><circle cx="106.55015334486961" cy="67.07463661829631" r="2" style="fill: steelblue;"></circle><circle cx="155.27875224749246" cy="90.73271519607968" r="2" style="fill: steelblue;"></circle><circle cx="129.73345981703864" cy="81.0658468140496" r="2" style="fill: steelblue;"></circle><circle cx="167.18200842539468" cy="53.840816020965576" r="2" style="fill: steelblue;"></circle><circle cx="165.30576348304749" cy="92.57164597511292" r="2" style="fill: steelblue;"></circle><circle cx="67.17816326353285" cy="166.3691500822703" r="2" style="fill: steelblue;"></circle><circle cx="51.840762297312416" cy="169.3590349621243" r="2" style="fill: steelblue;"></circle><circle cx="112.81230331708987" cy="107.04997057716051" r="2" style="fill: steelblue;"></circle><circle cx="22.228691313001843" cy="110.25433283713129" r="2" style="fill: steelblue;"></circle><circle cx="75.38895474539864" cy="68.10947590404086" r="2" style="fill: steelblue;"></circle><circle cx="110.5413503634433" cy="156.44385417302448" r="2" style="fill: steelblue;"></circle><circle cx="91.42283764150407" cy="106.03538362516298" r="2" style="fill: steelblue;"></circle><circle cx="111.34991013548441" cy="139.34732476870218" r="2" style="fill: steelblue;"></circle><circle cx="81.11354377534654" cy="108.23817199303045" r="2" style="fill: steelblue;"></circle><circle cx="129.9162424272961" cy="130.09108768569098" r="2" style="fill: steelblue;"></circle><circle cx="88.34241992897456" cy="144.75637012057834" r="2" style="fill: steelblue;"></circle><circle cx="105.93245385421646" cy="82.4849373764462" r="2" style="fill: steelblue;"></circle><circle cx="69.16602121459114" cy="76.08560058805678" r="2" style="fill: steelblue;"></circle><circle cx="84.02213950951894" cy="163.09133503172134" r="2" style="fill: steelblue;"></circle><circle cx="49.71721437242296" cy="102.4139126141866" r="2" style="fill: steelblue;"></circle><circle cx="22.187219725714787" cy="113.36448022888766" r="2" style="fill: steelblue;"></circle><circle cx="122.27735088931189" cy="184.91396639082168" r="2" style="fill: steelblue;"></circle><circle cx="76.62165496084425" cy="174.54381783803302" r="2" style="fill: steelblue;"></circle><circle cx="70.83092464341057" cy="193.5998731189304" r="2" style="fill: steelblue;"></circle><circle cx="78.55240503946939" cy="137.48843140072293" r="2" style="fill: steelblue;"></circle><circle cx="79.347163438797" cy="180.9952523973253" r="2" style="fill: steelblue;"></circle><circle cx="91.40988190968831" cy="147.10053470399643" r="2" style="fill: steelblue;"></circle><circle cx="58.35306975576613" cy="88.77154522471957" r="2" style="fill: steelblue;"></circle><circle cx="62.805400954352486" cy="108.48593235843711" r="2" style="fill: steelblue;"></circle><circle cx="111.15480793523602" cy="56.916061374876236" r="2" style="fill: steelblue;"></circle><circle cx="162.17645009358722" cy="143.0518825848897" r="2" style="fill: steelblue;"></circle><circle cx="156.44850002394782" cy="123.1525954273012" r="2" style="fill: steelblue;"></circle><circle cx="125.37346945868597" cy="85.98280615276761" r="2" style="fill: steelblue;"></circle><circle cx="153.49125862121582" cy="35.68424781163533" r="2" style="fill: steelblue;"></circle><circle cx="105.69813847541809" cy="118.03553170628018" r="2" style="fill: steelblue;"></circle><circle cx="117.62432919608221" cy="53.507215446896026" r="2" style="fill: steelblue;"></circle><circle cx="167.98863146040176" cy="39.618055025736496" r="2" style="fill: steelblue;"></circle><circle cx="161.67232394218445" cy="33.79352225197687" r="2" style="fill: steelblue;"></circle><circle cx="106.56592870752017" cy="71.06169727113512" r="2" style="fill: steelblue;"></circle><circle cx="129.3969733847512" cy="60.499240954716996" r="2" style="fill: steelblue;"></circle><circle cx="132.3944197760688" cy="150.79942014482285" r="2" style="fill: steelblue;"></circle><circle cx="111.66492140748434" cy="104.02576542562909" r="2" style="fill: steelblue;"></circle><circle cx="66.79257419374254" cy="134.66589483949872" r="2" style="fill: steelblue;"></circle><circle cx="72.34279645813835" cy="63.83412414126926" r="2" style="fill: steelblue;"></circle><circle cx="96.90782924493153" cy="100.26812470621533" r="2" style="fill: steelblue;"></circle><circle cx="105.96961817807622" cy="147.5243866443634" r="2" style="fill: steelblue;"></circle><circle cx="86.12096971935695" cy="64.8241572909885" r="2" style="fill: steelblue;"></circle><circle cx="156.01433979140387" cy="112.7406879224711" r="2" style="fill: steelblue;"></circle><circle cx="177.63664325078327" cy="85.25123695532481" r="2" style="fill: steelblue;"></circle><circle cx="101.94593750768237" cy="86.48454315132565" r="2" style="fill: steelblue;"></circle><circle cx="161.77418165736728" cy="123.79016644424863" r="2" style="fill: steelblue;"></circle><circle cx="111.7736188073953" cy="85.86267133553822" r="2" style="fill: steelblue;"></circle><circle cx="142.17090275552536" cy="39.18867641025119" r="2" style="fill: steelblue;"></circle><circle cx="168.86201832029556" cy="66.45509931776259" r="2" style="fill: steelblue;"></circle><circle cx="157.59433640374075" cy="77.31500599119398" r="2" style="fill: steelblue;"></circle><circle cx="155.33291631274753" cy="148.35773242844476" r="2" style="fill: steelblue;"></circle><circle cx="146.20666702588397" cy="31.408839755588104" r="2" style="fill: steelblue;"></circle><circle cx="133.32486318217383" cy="20.684666103786896" r="2" style="fill: steelblue;"></circle><circle cx="124.05299312538571" cy="108.07867844899495" r="2" style="fill: steelblue;"></circle><circle cx="140.72760608461166" cy="63.92151448461745" r="2" style="fill: steelblue;"></circle><circle cx="127.50810219181908" cy="145.45768168237473" r="2" style="fill: steelblue;"></circle><circle cx="126.4910962846544" cy="19.891043504079175" r="2" style="fill: steelblue;"></circle><circle cx="186.00647979312473" cy="80.7776583565606" r="2" style="fill: steelblue;"></circle><circle cx="144.51635546154446" cy="80.72925276226468" r="2" style="fill: steelblue;"></circle><circle cx="151.85832977294922" cy="94.16867792606354" r="2" style="fill: steelblue;"></circle><circle cx="125.62246455086601" cy="118.95300696293512" r="2" style="fill: steelblue;"></circle><circle cx="121.00459552473492" cy="49.76828230751886" r="2" style="fill: steelblue;"></circle><circle cx="135.65885689523483" cy="21.111276414659287" r="2" style="fill: steelblue;"></circle><circle cx="151.49656931559244" cy="52.399290932549356" r="2" style="fill: steelblue;"></circle><circle cx="144.97750335269504" cy="103.74350845813751" r="2" style="fill: steelblue;"></circle><circle cx="69.12723183631897" cy="137.6202619738049" r="2" style="fill: steelblue;"></circle><circle cx="96.9882325993644" cy="78.90260219573975" r="2" style="fill: steelblue;"></circle><circle cx="47.25121789508396" cy="67.95788804690044" r="2" style="fill: steelblue;"></circle><circle cx="36.13342179192437" cy="149.4210660457611" r="2" style="fill: steelblue;"></circle><circle cx="61.199085579978096" cy="145.83131339814926" r="2" style="fill: steelblue;"></circle><circle cx="146.32383982340497" cy="106.68147231141725" r="2" style="fill: steelblue;"></circle></g></svg>