<svg xmlns="http://www.w3.org/2000/svg"><rect width="200" height="200" fill="white"></rect><g><circle cx="80.27987033128738" cy="174.69677180051804" r="2" style="fill: steelblue;"></circle><circle cx="42.27495416998864" cy="177.8316631913185" r="2" style="fill: steelblue;"></circle><circle cx="82.82140679657459" cy="118.41812022030354" r="2" style="fill: steelblue;"></circle><circle cx="83.86875353753567" cy="131.85142576694489" r="2" style="fill: steelblue;"></circle><circle cx="62.753817439079285" cy="150.24134367704391" r="2" style="fill: steelblue;"></circle><circle cx="104.59266360849142" cy="179.37252521514893" r="2" style="fill: steelblue;"></circle><circle cx="147.69600555300713" cy="118.91025900840759" r="2" style="fill: steelblue;"></circle><circle cx="132.20118582248688" cy="26.545456051826477" r="2" style="fill: steelblue;"></circle><circle cx="126.04658342897892" cy="64.13623541593552" r="2" style="fill: steelblue;"></circle><circle cx="78.44864800572395" cy="100.04337355494499" r="2" style="fill: steelblue;"></circle><circle cx="87.05926723778248" cy="121.03734575212002" r="2" style="fill: steelblue;"></circle><circle cx="59.284231066703796" cy="162.18737736344337" r="2" style="fill: steelblue;"></circle><circle cx="125.99045820534229" cy="87.1374424546957" r="2" style="fill: steelblue;"></circle><circle cx="133.09812769293785" cy="59.502752870321274" r="2" style="fill: steelblue;"></circle><circle cx="42.58860871195794" cy="101.64573069196194" r="2" style="fill: steelblue;"></circle><circle cx="44.94490325450898" cy="89.0678133815527" r="2" style="fill: steelblue;"></circle><circle cx="104.0625175461173" cy="146.96379974484444" r="2" style="fill: steelblue;"></circle><circle cx="150.62304809689522" cy="143.99970918893814" r="2" style="fill: steelblue;"></circle><circle cx="84.67725329101086" cy="65.49997106194496" r="2" style="fill: steelblue;"></circle><circle cx="103.67336208000779" cy="123.88588152825832" r="2" style="fill: steelblue;"></circle><circle cx="91.6278338059783" cy="90.76609965413809" r="2" style="fill: steelblue;"></circle><circle cx="135.6164388358593" cy="119.0523061901331" r="2" style="fill: steelblue;"></circle><circle cx="148.49035292863846" cy="113.01596779376268" r="2" style="fill: steelblue;"></circle><circle cx="28.23602259159089" cy="99.2728436482139" r="2" style="fill: steelblue;"></circle><circle cx="51.519303023815155" cy="77.10953839123249" r="2" style="fill: steelblue;"></circle><circle cx="38.4557418525219" cy="161.61780655384064" r="2" style="fill: steelblue;"></circle><circle cx="90.69346487522125" cy="134.62030738592148" r="2" style="fill: steelblue;"></circle><circle cx="43.88649985194207" cy="124.18193034827709" r="2" style="fill: steelblue;"></circle><circle cx="68.96650642156601" cy="195.7377403974533" r="2" style="fill: steelblue;"></circle><circle cx="162.9921704530716" cy="118.11507530510426" r="2" style="fill: steelblue;"></circle><circle cx="83.99916104972363" cy="91.22204165905714" r="2" style="fill: steelblue;"></circle><circle cx="115.89233987033367" cy="57.089122384786606" r="2" style="fill: steelblue;"></circle><circle cx="136.47420182824135" cy="35.10022759437561" r="2" style="fill: steelblue;"></circle><circle cx="110.70212386548519" cy="68.54167431592941" r="2" style="fill: steelblue;"></circle><circle cx="158.69046971201897" cy="76.9146703183651" r="2" style="fill: steelblue;"></circle><circle cx="69.6567989885807" cy="121.97572402656078" r="2" style="fill: steelblue;"></circle><circle cx="104.12667263299227" cy="131.50244802236557" r="2" style="fill: steelblue;"></circle><circle cx="0.6049484014511164" cy="122.02630415558815" r="2" style="fill: steelblue;"></circle><circle cx="27.74737626314164" cy="160.36277115345" r="2" style="fill: steelblue;"></circle><circle cx="62.011177092790604" cy="190.34442156553268" r="2" style="fill: steelblue;"></circle><circle cx="14.516247808933263" cy="123.58686737716198" r="2" style="fill: steelblue;"></circle><circle cx="143.84471848607063" cy="51.672524213790894" r="2" style="fill: steelblue;"></circle><circle cx="155.0146959722042" cy="68.23098883032799" r="2" style="fill: steelblue;"></circle><circle cx="100.77354663517326" cy="41.23188778758049" r="2" style="fill: steelblue;"></circle><circle cx="116.63754694163799" cy="50.300831347703934" r="2" style="fill: steelblue;"></circle><circle cx="121.40428125858307" cy="64.3365815281868" r="2" style="fill: steelblue;"></circle><circle cx="126.9047524780035" cy="43.61208379268646" r="2" style="fill: steelblue;"></circle><circle cx="10.231880843639379" cy="180.81454783678055" r="2" style="fill: steelblue;"></circle><circle cx="111.33822463452816" cy="88.98427095264196" r="2" style="fill: steelblue;"></circle><circle cx="89.84106630086899" cy="163.25668841600418" r="2" style="fill: steelblue;"></circle><circle cx="100.67304912954569" cy="186.10626310110092" r="2" style="fill: steelblue;"></circle><circle cx="121.41478285193443" cy="185.93029528856277" r="2" style="fill: steelblue;"></circle><circle cx="54.45855334401131" cy="107.61906988918781" r="2" style="fill: steelblue;"></circle><circle cx="41.10359251499177" cy="94.40905451774597" r="2" style="fill: steelblue;"></circle><circle cx="72.51321189105511" cy="124.6212687343359" r="2" style="fill: steelblue;"></circle><circle cx="3.306081891059881" cy="196.8482568860054" r="2" style="fill: steelblue;"></circle><circle cx="75.85113905370235" cy="104.65029058977962" r="2" style="fill: steelblue;"></circle><circle cx="89.18695654720068" cy="109.57472063601017" r="2" style="fill: steelblue;"></circle><circle cx="105.76763739809394" cy="119.8621079325676" r="2" style="fill: steelblue;"></circle><circle cx="113.10582924634218" cy="161.0506795346737" r="2" style="fill: steelblue;"></circle><circle cx="76.26503370702267" cy="67.90976822376251" r="2" style="fill: steelblue;"></circle><circle cx="98.04469314403832" cy="164.38160687685013" r="2" style="fill: steelblue;"></circle><circle cx="45.7417018711567" cy="180.2195444703102" r="2" style="fill: steelblue;"></circle><circle cx="4.643088579177862" cy="146.1723618209362" r="2" style="fill: steelblue;"></circle><circle cx="21.895258128643043" cy="150.89353397488594" r="2" style="fill: steelblue;"></circle><circle cx="59.84942838549614" cy="188.09743076562881" r="2" style="fill: steelblue;"></circle><circle cx="7.931141555309301" cy="170.48000395298004" r="2" style="fill: steelblue;"></circle><circle cx="23.555195331573493" cy="69.09401006996632" r="2" style="fill: steelblue;"></circle><circle cx="92.3668229021132" cy="198.7505316734314" r="2" style="fill: steelblue;"></circle><circle cx="34.5257580280304" cy="97.96504247933626" r="2" style="fill: steelblue;"></circle><circle cx="147.18775302171707" cy="138.00245374441147" r="2" style="fill: steelblue;"></circle><circle cx="193.6645194888115" cy="60.109781473875046" r="2" style="fill: steelblue;"></circle><circle cx="186.24745905399323" cy="41.78956747055054" r="2" style="fill: steelblue;"></circle><circle cx="108.68726335465908" cy="48.46324622631073" r="2" style="fill: steelblue;"></circle><circle cx="167.81163811683655" cy="43.772535771131516" r="2" style="fill: steelblue;"></circle><circle cx="53.36424931883812" cy="28.18310856819153" r="2" style="fill: steelblue;"></circle><circle cx="162.3856820166111" cy="79.34063524007797" r="2" style="fill: steelblue;"></circle><circle cx="146.94264009594917" cy="70.95953300595284" r="2" style="fill: steelblue;"></circle><circle cx="128.91402691602707" cy="73.88790547847748" r="2" style="fill: steelblue;"></circle><circle cx="175.1272439956665" cy="25.224237143993378" r="2" style="fill: steelblue;"></circle><circle cx="83.39319415390491" cy="32.628944516181946" r="2" style="fill: steelblue;"></circle><circle cx="165.7932385802269" cy="6.261809170246124" r="2" style="fill: steelblue;"></circle><circle cx="54.52236011624336" cy="21.059615910053253" r="2" style="fill: steelblue;"></circle><circle cx="34.635981917381294" cy="107.73201137781143" r="2" style="fill: steelblue;"></circle><circle cx="90.0601115077734" cy="147.5938804447651" r="2" style="fill: steelblue;"></circle><circle cx="93.10864182189107" cy="153.92974615097046" r="2" style="fill: steelblue;"></circle><circle cx="125.79873241484165" cy="111.67180296033621" r="2" style="fill: steelblue;"></circle><circle cx="109.0103866532445" cy="110.74547972530127" r="2" style="fill: steelblue;"></circle><circle cx="117.62775704264641" cy="123.65417964756489" r="2" style="fill: steelblue;"></circle><circle cx="130.13712167739868" cy="49.98963922262192" r="2" style="fill: steelblue;"></circle><circle cx="118.2278398424387" cy="77.47292555868626" r="2" style="fill: steelblue;"></circle><circle cx="105.5050179362297" cy="7.165259122848511" r="2" style="fill: steelblue;"></circle><circle cx="143.60554367303848" cy="87.84686997532845" r="2" style="fill: steelblue;"></circle><circle cx="154.8691414296627" cy="12.053845822811127" r="2" style="fill: steelblue;"></circle><circle cx="157.92031064629555" cy="53.521545976400375" r="2" style="fill: steelblue;"></circle><circle cx="145.47226056456566" cy="1.1205807328224182" r="2" style="fill: steelblue;"></circle><circle cx="156.971475481987" cy="93.00275044515729" r="2" style="fill: steelblue;"></circle><circle cx="29.58470433950425" cy="87.7218659967184" r="2" style="fill: steelblue;"></circle><circle cx="33.25206637382508" cy="79.31797988712788" r="2" style="fill: steelblue;"></circle><circle cx="179.59093153476715" cy="71.30310721695423" r="2" style="fill: steelblue;"></circle><circle cx="180.24710416793823" cy="71.57514840364456" r="2" style="fill: steelblue;"></circle><circle cx="130.15821054577827" cy="46.610212326049805" r="2" style="fill: steelblue;"></circle><circle cx="93.2306818664074" cy="102.66738166101277" r="2" style="fill: steelblue;"></circle><circle cx="24.46009814739228" cy="58.741288632154465" r="2" style="fill: steelblue;"></circle><circle cx="155.02008274197578" cy="77.39743813872337" r="2" style="fill: steelblue;"></circle><circle cx="57.925841212272644" cy="182.97376334667206" r="2" style="fill: steelblue;"></circle><circle cx="100.17467129509896" cy="78.31860184669495" r="2" style="fill: steelblue;"></circle><circle cx="111.76791079342365" cy="144.5682555437088" r="2" style="fill: steelblue;"></circle><circle cx="81.77698999643326" cy="98.41691448818892" r="2" style="fill: steelblue;"></circle><circle cx="144.95178163051605" cy="40.92392921447754" r="2" style="fill: steelblue;"></circle><circle cx="110.92589274048805" cy="81.05049692094326" r="2" style="fill: steelblue;"></circle><circle cx="170.79534232616425" cy="67.04642102122307" r="2" style="fill: steelblue;"></circle><circle cx="67.60845184326172" cy="148.86659979820251" r="2" style="fill: steelblue;"></circle><circle cx="75.95210559666157" cy="165.68440794944763" r="2" style="fill: steelblue;"></circle><circle cx="64.27997201681137" cy="98.99427522905171" r="2" style="fill: steelblue;"></circle><circle cx="6.3640907406807" cy="138.61914202570915" r="2" style="fill: steelblue;"></circle><circle cx="61.245786398649216" cy="171.05223089456558" r="2" style="fill: steelblue;"></circle><circle cx="61.86254546046257" cy="133.81073474884033" r="2" style="fill: steelblue;"></circle></g></svg>