<svg xmlns="http://www.w3.org/2000/svg"><g><circle cx="14.455294609069824" cy="68.31309795379639" r="2" style="fill: steelblue;"></circle><circle cx="50.79420683905482" cy="49.01090322269334" r="2" style="fill: steelblue;"></circle><circle cx="33.27045738697052" cy="82.2656942738427" r="2" style="fill: steelblue;"></circle><circle cx="18.192291259765625" cy="61.410747634039986" r="2" style="fill: steelblue;"></circle><circle cx="34.84492748975754" cy="34.70790982246399" r="2" style="fill: steelblue;"></circle><circle cx="63.26363533735275" cy="55.45826355616252" r="2" style="fill: steelblue;"></circle><circle cx="24.96059536933899" cy="64.72678747442033" r="2" style="fill: steelblue;"></circle><circle cx="60.51061674952507" cy="48.39637767937448" r="2" style="fill: steelblue;"></circle><circle cx="34.012214839458466" cy="46.869658099280464" r="2" style="fill: steelblue;"></circle><circle cx="37.13478595018387" cy="56.21754477421443" r="2" style="fill: steelblue;"></circle><circle cx="58.56676027178764" cy="65.12721478939056" r="2" style="fill: steelblue;"></circle><circle cx="40.83548113703728" cy="30.76473391718335" r="2" style="fill: steelblue;"></circle><circle cx="51.101985946297646" cy="75.02628631061978" r="2" style="fill: steelblue;"></circle><circle cx="33.30651968717575" cy="33.048585222827064" r="2" style="fill: steelblue;"></circle><circle cx="42.061732709407806" cy="58.7404727935791" r="2" style="fill: steelblue;"></circle><circle cx="13.740023970603943" cy="50.700348450077904" r="2" style="fill: steelblue;"></circle><circle cx="44.281017780303955" cy="60.56431531906128" r="2" style="fill: steelblue;"></circle><circle cx="30.20695447921753" cy="50.65390898121728" r="2" style="fill: steelblue;"></circle><circle cx="64.14172500371933" cy="36.364609334203934" r="2" style="fill: steelblue;"></circle><circle cx="72.31239527463913" cy="51.619025733735825" r="2" style="fill: steelblue;"></circle><circle cx="66.16838127374649" cy="30.490760339630974" r="2" style="fill: steelblue;"></circle><circle cx="32.03022927045822" cy="29.239372412363686" r="2" style="fill: steelblue;"></circle><circle cx="37.95551881194115" cy="17.294455899132622" r="2" style="fill: steelblue;"></circle><circle cx="38.87124061584473" cy="50.195668472184074" r="2" style="fill: steelblue;"></circle><circle cx="16.813132166862488" cy="64.08722632461124" r="2" style="fill: steelblue;"></circle><circle cx="55.79223595559597" cy="57.01695730288824" r="2" style="fill: steelblue;"></circle><circle cx="33.18971544504166" cy="76.37870245509677" r="2" style="fill: steelblue;"></circle><circle cx="48.63825226202607" cy="80.7047446568807" r="2" style="fill: steelblue;"></circle><circle cx="18.0417001247406" cy="81.58115479681227" r="2" style="fill: steelblue;"></circle><circle cx="65.67257046699524" cy="47.465148857898185" r="2" style="fill: steelblue;"></circle><circle cx="60.840655118227005" cy="19.2877858877182" r="2" style="fill: steelblue;"></circle><circle cx="72.47530072927475" cy="11.357025305430103" r="2" style="fill: steelblue;"></circle><circle cx="73.06648790836334" cy="10.183651579750908" r="2" style="fill: steelblue;"></circle><circle cx="48.41947853565216" cy="24.73451958762275" r="2" style="fill: steelblue;"></circle><circle cx="56.01290389895439" cy="43.341713812616135" r="2" style="fill: steelblue;"></circle><circle cx="58.09464007616043" cy="30.561064018143547" r="2" style="fill: steelblue;"></circle><circle cx="40.8977136015892" cy="65.92477626270718" r="2" style="fill: steelblue;"></circle><circle cx="42.74080619215965" cy="53.95823816458385" r="2" style="fill: steelblue;"></circle><circle cx="26.266349852085114" cy="43.36403792517053" r="2" style="fill: steelblue;"></circle><circle cx="47.48634807765484" cy="71.14253706402249" r="2" style="fill: steelblue;"></circle><circle cx="72.45334386825562" cy="58.90392694208357" r="2" style="fill: steelblue;"></circle><circle cx="75.39635896682739" cy="56.878324349721275" r="2" style="fill: steelblue;"></circle><circle cx="56.088144704699516" cy="0.8089138401879192" r="2" style="fill: steelblue;"></circle><circle cx="68.36737394332886" cy="44.19508761105438" r="2" style="fill: steelblue;"></circle><circle cx="55.74011541903019" cy="53.01344411240684" r="2" style="fill: steelblue;"></circle><circle cx="75.50442218780518" cy="17.721299661530388" r="2" style="fill: steelblue;"></circle><circle cx="31.662018597126007" cy="42.656636238098145" r="2" style="fill: steelblue;"></circle><circle cx="19.14512813091278" cy="27.793449825710724" r="2" style="fill: steelblue;"></circle><circle cx="24.706822633743286" cy="55.889856649769676" r="2" style="fill: steelblue;"></circle><circle cx="20.553845167160034" cy="26.70749624570211" r="2" style="fill: steelblue;"></circle><circle cx="54.40408103168011" cy="50.744332952631844" r="2" style="fill: steelblue;"></circle><circle cx="19.98373568058014" cy="39.22022357583046" r="2" style="fill: steelblue;"></circle><circle cx="37.879637628793716" cy="20.227302445305718" r="2" style="fill: steelblue;"></circle><circle cx="45.10496035218239" cy="29.281183414989055" r="2" style="fill: steelblue;"></circle><circle cx="57.936666905879974" cy="51.894408298863304" r="2" style="fill: steelblue;"></circle><circle cx="32.34524875879288" cy="78.59651843706767" r="2" style="fill: steelblue;"></circle><circle cx="54.21577990055084" cy="48.25735398464733" r="2" style="fill: steelblue;"></circle><circle cx="36.93167269229889" cy="52.27552867598004" r="2" style="fill: steelblue;"></circle><circle cx="66.23155474662781" cy="56.9838328493966" r="2" style="fill: steelblue;"></circle><circle cx="38.17470893263817" cy="46.19532364110152" r="2" style="fill: steelblue;"></circle><circle cx="19.64544653892517" cy="57.09336631827884" r="2" style="fill: steelblue;"></circle><circle cx="25.794024765491486" cy="67.5916035970052" r="2" style="fill: steelblue;"></circle><circle cx="4.609659314155579" cy="54.72557428810332" r="2" style="fill: steelblue;"></circle><circle cx="7.538917660713196" cy="65.20281334718068" r="2" style="fill: steelblue;"></circle><circle cx="38.16690444946289" cy="77.60165068838332" r="2" style="fill: steelblue;"></circle><circle cx="24.971702694892883" cy="45.15384438758095" r="2" style="fill: steelblue;"></circle><circle cx="23.917585611343384" cy="61.50060660309262" r="2" style="fill: steelblue;"></circle><circle cx="60.450179874897" cy="90.96373054716322" r="2" style="fill: steelblue;"></circle><circle cx="17.391332983970642" cy="70.00679704878065" r="2" style="fill: steelblue;"></circle><circle cx="47.57793713361025" cy="71.52709298663669" r="2" style="fill: steelblue;"></circle><circle cx="14.643409848213196" cy="36.123122771581016" r="2" style="fill: steelblue;"></circle><circle cx="64.3913671374321" cy="33.08233221371969" r="2" style="fill: steelblue;"></circle><circle cx="61.11847534775734" cy="52.464761005507576" r="2" style="fill: steelblue;"></circle><circle cx="77.02809870243073" cy="50.08112531569269" r="2" style="fill: steelblue;"></circle><circle cx="53.05855888873339" cy="21.01415329509312" r="2" style="fill: steelblue;"></circle><circle cx="45.89683152735233" cy="12.331720193227136" r="2" style="fill: steelblue;"></circle><circle cx="72.8761613368988" cy="32.92284177409278" r="2" style="fill: steelblue;"></circle><circle cx="53.77677530050278" cy="28.1172106663386" r="2" style="fill: steelblue;"></circle><circle cx="47.96872306615114" cy="17.14820762475332" r="2" style="fill: steelblue;"></circle><circle cx="64.6350085735321" cy="34.543258614010284" r="2" style="fill: steelblue;"></circle><circle cx="74.67431426048279" cy="16.50309496455723" r="2" style="fill: steelblue;"></circle><circle cx="92.24546253681183" cy="24.355682399537827" r="2" style="fill: steelblue;"></circle><circle cx="56.61469027400017" cy="18.22863949669732" r="2" style="fill: steelblue;"></circle><circle cx="40.535734593868256" cy="59.54763227038913" r="2" style="fill: steelblue;"></circle><circle cx="34.10608768463135" cy="65.65557519594829" r="2" style="fill: steelblue;"></circle><circle cx="41.484442353248596" cy="54.871281153625915" r="2" style="fill: steelblue;"></circle><circle cx="47.25682307034731" cy="48.148296525081" r="2" style="fill: steelblue;"></circle><circle cx="66.40995591878891" cy="30.490470594829986" r="2" style="fill: steelblue;"></circle><circle cx="56.730351597070694" cy="55.721004969543884" r="2" style="fill: steelblue;"></circle><circle cx="59.373778104782104" cy="28.33817501862844" r="2" style="fill: steelblue;"></circle><circle cx="55.32130151987076" cy="26.350090238783096" r="2" style="fill: steelblue;"></circle><circle cx="63.79447430372238" cy="16.788720422320903" r="2" style="fill: steelblue;"></circle><circle cx="49.69175551086664" cy="22.017049458291794" r="2" style="fill: steelblue;"></circle><circle cx="52.33028568327427" cy="7.229436768425835" r="2" style="fill: steelblue;"></circle><circle cx="55.59246987104416" cy="45.78335082365407" r="2" style="fill: steelblue;"></circle><circle cx="58.97243693470955" cy="2.2941357559628006" r="2" style="fill: steelblue;"></circle><circle cx="61.074621975421906" cy="0.9786215093400719" r="2" style="fill: steelblue;"></circle><circle cx="34.71137881278992" cy="42.04924566050371" r="2" style="fill: steelblue;"></circle><circle cx="68.5273602604866" cy="34.13751572370529" r="2" style="fill: steelblue;"></circle><circle cx="65.68276137113571" cy="20.0271252128813" r="2" style="fill: steelblue;"></circle><circle cx="49.95317311550025" cy="17.857082353697884" r="2" style="fill: steelblue;"></circle><circle cx="56.92307651042938" cy="51.033477154042984" r="2" style="fill: steelblue;"></circle><circle cx="66.40593707561493" cy="43.68602330279019" r="2" style="fill: steelblue;"></circle><circle cx="85.61111092567444" cy="27.915796637535095" r="2" style="fill: steelblue;"></circle><circle cx="79.703289270401" cy="67.92498562071059" r="2" style="fill: steelblue;"></circle><circle cx="73.63985180854797" cy="66.52667721112569" r="2" style="fill: steelblue;"></circle><circle cx="72.54918068647385" cy="19.397875666618347" r="2" style="fill: steelblue;"></circle><circle cx="64.80840742588043" cy="52.72241036097209" r="2" style="fill: steelblue;"></circle><circle cx="58.88036862015724" cy="36.67820427152846" r="2" style="fill: steelblue;"></circle><circle cx="41.68143644928932" cy="17.614352371957565" r="2" style="fill: steelblue;"></circle><circle cx="70.68994045257568" cy="20.368663138813446" r="2" style="fill: steelblue;"></circle><circle cx="53.10046374797821" cy="8.640152878231477" r="2" style="fill: steelblue;"></circle><circle cx="20.425590872764587" cy="45.276966266747976" r="2" style="fill: steelblue;"></circle><circle cx="57.62682631611824" cy="52.9746456278695" r="2" style="fill: steelblue;"></circle><circle cx="33.58806073665619" cy="62.34507030910916" r="2" style="fill: steelblue;"></circle><circle cx="40.21695479750633" cy="57.28318062093523" r="2" style="fill: steelblue;"></circle><circle cx="27.112555503845215" cy="67.78859694798787" r="2" style="fill: steelblue;"></circle><circle cx="53.40318977832794" cy="57.5536201397578" r="2" style="fill: steelblue;"></circle></g></svg>