<svg xmlns="http://www.w3.org/2000/svg"><g><circle cx="80.27987033128738" cy="155.92598915100098" r="2" style="fill: steelblue;"></circle><circle cx="42.27495416998864" cy="119.3179339170456" r="2" style="fill: steelblue;"></circle><circle cx="82.82140679657459" cy="122.68364280462265" r="2" style="fill: steelblue;"></circle><circle cx="83.86875353753567" cy="108.0680176615715" r="2" style="fill: steelblue;"></circle><circle cx="62.753817439079285" cy="117.66193509101868" r="2" style="fill: steelblue;"></circle><circle cx="104.59266360849142" cy="152.7088761329651" r="2" style="fill: steelblue;"></circle><circle cx="147.69600555300713" cy="72.6104736328125" r="2" style="fill: steelblue;"></circle><circle cx="132.20118582248688" cy="87.31953054666519" r="2" style="fill: steelblue;"></circle><circle cx="126.04658342897892" cy="111.71504482626915" r="2" style="fill: steelblue;"></circle><circle cx="78.44864800572395" cy="90.76889157295227" r="2" style="fill: steelblue;"></circle><circle cx="87.05926723778248" cy="155.91315031051636" r="2" style="fill: steelblue;"></circle><circle cx="59.284231066703796" cy="129.64744865894318" r="2" style="fill: steelblue;"></circle><circle cx="125.99045820534229" cy="182.48198628425598" r="2" style="fill: steelblue;"></circle><circle cx="133.09812769293785" cy="124.31854605674744" r="2" style="fill: steelblue;"></circle><circle cx="42.58860871195794" cy="86.01554930210114" r="2" style="fill: steelblue;"></circle><circle cx="44.94490325450898" cy="147.68075942993164" r="2" style="fill: steelblue;"></circle><circle cx="104.0625175461173" cy="144.05303597450256" r="2" style="fill: steelblue;"></circle><circle cx="150.62304809689522" cy="115.78103452920914" r="2" style="fill: steelblue;"></circle><circle cx="84.67725329101086" cy="63.07042837142944" r="2" style="fill: steelblue;"></circle><circle cx="103.67336208000779" cy="81.5037488937378" r="2" style="fill: steelblue;"></circle><circle cx="91.6278338059783" cy="83.7508425116539" r="2" style="fill: steelblue;"></circle><circle cx="135.6164388358593" cy="78.08136194944382" r="2" style="fill: steelblue;"></circle><circle cx="148.49035292863846" cy="110.798729211092" r="2" style="fill: steelblue;"></circle><circle cx="28.23602259159089" cy="107.10764154791832" r="2" style="fill: steelblue;"></circle><circle cx="51.519303023815155" cy="86.50822341442108" r="2" style="fill: steelblue;"></circle><circle cx="38.4557418525219" cy="143.03799867630005" r="2" style="fill: steelblue;"></circle><circle cx="90.69346487522125" cy="140.45116007328033" r="2" style="fill: steelblue;"></circle><circle cx="43.88649985194207" cy="155.8569371700287" r="2" style="fill: steelblue;"></circle><circle cx="68.96650642156601" cy="85.8555555343628" r="2" style="fill: steelblue;"></circle><circle cx="162.9921704530716" cy="100.45546274632215" r="2" style="fill: steelblue;"></circle><circle cx="83.99916104972363" cy="18.585586547851562" r="2" style="fill: steelblue;"></circle><circle cx="115.89233987033367" cy="19.94186043739319" r="2" style="fill: steelblue;"></circle><circle cx="136.47420182824135" cy="82.3040634393692" r="2" style="fill: steelblue;"></circle><circle cx="110.70212386548519" cy="88.52421417832375" r="2" style="fill: steelblue;"></circle><circle cx="158.69046971201897" cy="82.43581354618073" r="2" style="fill: steelblue;"></circle><circle cx="69.6567989885807" cy="111.09533831477165" r="2" style="fill: steelblue;"></circle><circle cx="104.12667263299227" cy="139.97963964939117" r="2" style="fill: steelblue;"></circle><circle cx="0.6049484014511164" cy="129.78314459323883" r="2" style="fill: steelblue;"></circle><circle cx="27.74737626314164" cy="124.10471439361572" r="2" style="fill: steelblue;"></circle><circle cx="62.011177092790604" cy="136.0638678073883" r="2" style="fill: steelblue;"></circle><circle cx="14.516247808933263" cy="125.26279985904694" r="2" style="fill: steelblue;"></circle><circle cx="143.84471848607063" cy="89.28976953029633" r="2" style="fill: steelblue;"></circle><circle cx="155.0146959722042" cy="66.62204563617706" r="2" style="fill: steelblue;"></circle><circle cx="100.77354663517326" cy="113.33245187997818" r="2" style="fill: steelblue;"></circle><circle cx="116.63754694163799" cy="93.68743374943733" r="2" style="fill: steelblue;"></circle><circle cx="121.40428125858307" cy="141.3397639989853" r="2" style="fill: steelblue;"></circle><circle cx="126.9047524780035" cy="69.62160766124725" r="2" style="fill: steelblue;"></circle><circle cx="10.231880843639379" cy="134.4730108976364" r="2" style="fill: steelblue;"></circle><circle cx="111.33822463452816" cy="145.15734314918518" r="2" style="fill: steelblue;"></circle><circle cx="89.84106630086899" cy="125.6983608007431" r="2" style="fill: steelblue;"></circle><circle cx="100.67304912954569" cy="131.04012310504913" r="2" style="fill: steelblue;"></circle><circle cx="121.41478285193443" cy="75.74114054441452" r="2" style="fill: steelblue;"></circle><circle cx="54.45855334401131" cy="85.66936254501343" r="2" style="fill: steelblue;"></circle><circle cx="41.10359251499177" cy="98.63613061606884" r="2" style="fill: steelblue;"></circle><circle cx="72.51321189105511" cy="115.88403135538101" r="2" style="fill: steelblue;"></circle><circle cx="3.306081891059881" cy="125.69619417190552" r="2" style="fill: steelblue;"></circle><circle cx="75.85113905370235" cy="128.36166620254517" r="2" style="fill: steelblue;"></circle><circle cx="89.18695654720068" cy="111.60429641604424" r="2" style="fill: steelblue;"></circle><circle cx="105.76763739809394" cy="135.46249270439148" r="2" style="fill: steelblue;"></circle><circle cx="113.10582924634218" cy="140.1703178882599" r="2" style="fill: steelblue;"></circle><circle cx="76.26503370702267" cy="158.7792694568634" r="2" style="fill: steelblue;"></circle><circle cx="98.04469314403832" cy="109.47982296347618" r="2" style="fill: steelblue;"></circle><circle cx="45.7417018711567" cy="153.50245237350464" r="2" style="fill: steelblue;"></circle><circle cx="4.643088579177862" cy="108.58712568879128" r="2" style="fill: steelblue;"></circle><circle cx="21.895258128643043" cy="126.10876560211182" r="2" style="fill: steelblue;"></circle><circle cx="59.84942838549614" cy="164.29778337478638" r="2" style="fill: steelblue;"></circle><circle cx="7.931141555309301" cy="96.80452384054661" r="2" style="fill: steelblue;"></circle><circle cx="23.555195331573493" cy="104.55095618963242" r="2" style="fill: steelblue;"></circle><circle cx="92.3668229021132" cy="147.56902158260345" r="2" style="fill: steelblue;"></circle><circle cx="34.5257580280304" cy="161.2219214439392" r="2" style="fill: steelblue;"></circle><circle cx="147.18775302171707" cy="53.94520163536072" r="2" style="fill: steelblue;"></circle><circle cx="193.6645194888115" cy="35.18820405006409" r="2" style="fill: steelblue;"></circle><circle cx="186.24745905399323" cy="74.84897375106812" r="2" style="fill: steelblue;"></circle><circle cx="108.68726335465908" cy="144.72602009773254" r="2" style="fill: steelblue;"></circle><circle cx="167.81163811683655" cy="109.35337916016579" r="2" style="fill: steelblue;"></circle><circle cx="53.36424931883812" cy="112.8358706831932" r="2" style="fill: steelblue;"></circle><circle cx="162.3856820166111" cy="117.03604757785797" r="2" style="fill: steelblue;"></circle><circle cx="146.94264009594917" cy="81.82727843523026" r="2" style="fill: steelblue;"></circle><circle cx="128.91402691602707" cy="63.03649544715881" r="2" style="fill: steelblue;"></circle><circle cx="175.1272439956665" cy="41.42251014709473" r="2" style="fill: steelblue;"></circle><circle cx="83.39319415390491" cy="61.69603765010834" r="2" style="fill: steelblue;"></circle><circle cx="165.7932385802269" cy="113.93635720014572" r="2" style="fill: steelblue;"></circle><circle cx="54.52236011624336" cy="96.751419454813" r="2" style="fill: steelblue;"></circle><circle cx="34.635981917381294" cy="159.7102403640747" r="2" style="fill: steelblue;"></circle><circle cx="90.0601115077734" cy="121.95092886686325" r="2" style="fill: steelblue;"></circle><circle cx="93.10864182189107" cy="136.8717908859253" r="2" style="fill: steelblue;"></circle><circle cx="125.79873241484165" cy="121.11086249351501" r="2" style="fill: steelblue;"></circle><circle cx="109.0103866532445" cy="127.13841199874878" r="2" style="fill: steelblue;"></circle><circle cx="117.62775704264641" cy="51.22717022895813" r="2" style="fill: steelblue;"></circle><circle cx="130.13712167739868" cy="134.02971625328064" r="2" style="fill: steelblue;"></circle><circle cx="118.2278398424387" cy="75.29169768095016" r="2" style="fill: steelblue;"></circle><circle cx="105.5050179362297" cy="124.0397959947586" r="2" style="fill: steelblue;"></circle><circle cx="143.60554367303848" cy="61.0691636800766" r="2" style="fill: steelblue;"></circle><circle cx="154.8691414296627" cy="60.947662591934204" r="2" style="fill: steelblue;"></circle><circle cx="157.92031064629555" cy="45.220768451690674" r="2" style="fill: steelblue;"></circle><circle cx="145.47226056456566" cy="37.94671297073364" r="2" style="fill: steelblue;"></circle><circle cx="156.971475481987" cy="68.97996068000793" r="2" style="fill: steelblue;"></circle><circle cx="29.58470433950425" cy="78.50109785795212" r="2" style="fill: steelblue;"></circle><circle cx="33.25206637382508" cy="88.33006247878075" r="2" style="fill: steelblue;"></circle><circle cx="179.59093153476715" cy="136.31125390529633" r="2" style="fill: steelblue;"></circle><circle cx="180.24710416793823" cy="73.43079149723053" r="2" style="fill: steelblue;"></circle><circle cx="130.15821054577827" cy="75.57941675186157" r="2" style="fill: steelblue;"></circle><circle cx="93.2306818664074" cy="86.20559871196747" r="2" style="fill: steelblue;"></circle><circle cx="24.46009814739228" cy="92.05129146575928" r="2" style="fill: steelblue;"></circle><circle cx="155.02008274197578" cy="83.72947126626968" r="2" style="fill: steelblue;"></circle><circle cx="57.925841212272644" cy="34.392303228378296" r="2" style="fill: steelblue;"></circle><circle cx="100.17467129509896" cy="77.43208557367325" r="2" style="fill: steelblue;"></circle><circle cx="111.76791079342365" cy="112.51825094223022" r="2" style="fill: steelblue;"></circle><circle cx="81.77698999643326" cy="69.75280940532684" r="2" style="fill: steelblue;"></circle><circle cx="144.95178163051605" cy="113.18219751119614" r="2" style="fill: steelblue;"></circle><circle cx="110.92589274048805" cy="35.945481061935425" r="2" style="fill: steelblue;"></circle><circle cx="170.79534232616425" cy="70.4345852136612" r="2" style="fill: steelblue;"></circle><circle cx="67.60845184326172" cy="99.8408721294254" r="2" style="fill: steelblue;"></circle><circle cx="75.95210559666157" cy="124.48189109563828" r="2" style="fill: steelblue;"></circle><circle cx="64.27997201681137" cy="144.88586485385895" r="2" style="fill: steelblue;"></circle><circle cx="6.3640907406807" cy="132.4004352092743" r="2" style="fill: steelblue;"></circle><circle cx="61.245786398649216" cy="102.77204401791096" r="2" style="fill: steelblue;"></circle><circle cx="61.86254546046257" cy="144.83402371406555" r="2" style="fill: steelblue;"></circle></g></svg>