<svg xmlns="http://www.w3.org/2000/svg"><rect width="200" height="200" fill="white"></rect><g><circle cx="29.540759325027466" cy="78.38045176532533" r="2" style="fill: steelblue;"></circle><circle cx="60.69957613945007" cy="112.9991696940528" r="2" style="fill: steelblue;"></circle><circle cx="119.40479725599289" cy="110.11434131198459" r="2" style="fill: steelblue;"></circle><circle cx="82.10919499397278" cy="121.03211747275458" r="2" style="fill: steelblue;"></circle><circle cx="112.76056617498398" cy="165.14344877666898" r="2" style="fill: steelblue;"></circle><circle cx="34.10390019416809" cy="111.48661739296384" r="2" style="fill: steelblue;"></circle><circle cx="99.544364400208" cy="65.7130863931444" r="2" style="fill: steelblue;"></circle><circle cx="115.84897190332413" cy="129.2230440510644" r="2" style="fill: steelblue;"></circle><circle cx="69.41529214382172" cy="112.90226413144006" r="2" style="fill: steelblue;"></circle><circle cx="69.19999122619629" cy="29.658594396379257" r="2" style="fill: steelblue;"></circle><circle cx="75.74281990528107" cy="97.4172928267055" r="2" style="fill: steelblue;"></circle><circle cx="91.09385758638382" cy="72.65088823106554" r="2" style="fill: steelblue;"></circle><circle cx="90.29463604092598" cy="125.67412058512369" r="2" style="fill: steelblue;"></circle><circle cx="46.67617082595825" cy="117.53425200780234" r="2" style="fill: steelblue;"></circle><circle cx="108.83572176098824" cy="113.21795847680833" r="2" style="fill: steelblue;"></circle><circle cx="29.53163981437683" cy="178.85253694322373" r="2" style="fill: steelblue;"></circle><circle cx="53.622815012931824" cy="70.71628537442949" r="2" style="fill: steelblue;"></circle><circle cx="134.58853363990784" cy="53.90257504251268" r="2" style="fill: steelblue;"></circle><circle cx="101.10188210383058" cy="72.63263596428766" r="2" style="fill: steelblue;"></circle><circle cx="157.826167345047" cy="59.11862386597528" r="2" style="fill: steelblue;"></circle><circle cx="99.33166084811091" cy="17.04763571421306" r="2" style="fill: steelblue;"></circle><circle cx="109.11305099725723" cy="57.99573527442086" r="2" style="fill: steelblue;"></circle><circle cx="119.67785209417343" cy="158.99660057491727" r="2" style="fill: steelblue;"></circle><circle cx="57.000166177749634" cy="126.83987153900995" r="2" style="fill: steelblue;"></circle><circle cx="122.64337688684464" cy="153.940663072798" r="2" style="fill: steelblue;"></circle><circle cx="60.16100347042084" cy="81.37668619553249" r="2" style="fill: steelblue;"></circle><circle cx="79.23955023288727" cy="126.28320389323764" r="2" style="fill: steelblue;"></circle><circle cx="79.35323864221573" cy="103.82696522606744" r="2" style="fill: steelblue;"></circle><circle cx="47.576236724853516" cy="104.44627900918326" r="2" style="fill: steelblue;"></circle><circle cx="108.7610237300396" cy="49.374049239688446" r="2" style="fill: steelblue;"></circle><circle cx="145.08269429206848" cy="85.96150817142593" r="2" style="fill: steelblue;"></circle><circle cx="143.00574660301208" cy="115.69502651691437" r="2" style="fill: steelblue;"></circle><circle cx="162.74623274803162" cy="40.17172786924574" r="2" style="fill: steelblue;"></circle><circle cx="94.89885866641998" cy="43.78344813982646" r="2" style="fill: steelblue;"></circle><circle cx="110.19947156310081" cy="84.54429225789177" r="2" style="fill: steelblue;"></circle><circle cx="83.86740237474442" cy="97.17861513296764" r="2" style="fill: steelblue;"></circle><circle cx="101.90729312598705" cy="154.0780848926968" r="2" style="fill: steelblue;"></circle><circle cx="64.82284963130951" cy="128.1619025601281" r="2" style="fill: steelblue;"></circle><circle cx="39.07608389854431" cy="147.4075370364719" r="2" style="fill: steelblue;"></circle><circle cx="42.25280284881592" cy="145.20033068127103" r="2" style="fill: steelblue;"></circle><circle cx="18.91370415687561" cy="114.87878892156813" r="2" style="fill: steelblue;"></circle><circle cx="130.31090199947357" cy="53.536360793643524" r="2" style="fill: steelblue;"></circle><circle cx="47.8277325630188" cy="93.44984665513039" r="2" style="fill: steelblue;"></circle><circle cx="125.00604689121246" cy="44.721247752507544" r="2" style="fill: steelblue;"></circle><circle cx="136.38231754302979" cy="70.26654018296136" r="2" style="fill: steelblue;"></circle><circle cx="127.56921648979187" cy="32.81799157460532" r="2" style="fill: steelblue;"></circle><circle cx="151.73389315605164" cy="34.694236516952515" r="2" style="fill: steelblue;"></circle><circle cx="54.63104844093323" cy="132.82183673646713" r="2" style="fill: steelblue;"></circle><circle cx="53.17060351371765" cy="148.1592377026876" r="2" style="fill: steelblue;"></circle><circle cx="68.99988055229187" cy="87.18769668291013" r="2" style="fill: steelblue;"></circle><circle cx="116.91694110631943" cy="177.77130868699814" r="2" style="fill: steelblue;"></circle><circle cx="146.33714854717255" cy="124.61104525460138" r="2" style="fill: steelblue;"></circle><circle cx="126.0770708322525" cy="89.4586496365567" r="2" style="fill: steelblue;"></circle><circle cx="75.50497353076935" cy="108.57716235849593" r="2" style="fill: steelblue;"></circle><circle cx="95.16856111586094" cy="88.65008986451559" r="2" style="fill: steelblue;"></circle><circle cx="109.7198136150837" cy="118.88645622465346" r="2" style="fill: steelblue;"></circle><circle cx="106.30350410938263" cy="70.08375757270389" r="2" style="fill: steelblue;"></circle><circle cx="54.04421091079712" cy="111.65758007102542" r="2" style="fill: steelblue;"></circle><circle cx="88.8358898460865" cy="94.06754614578354" r="2" style="fill: steelblue;"></circle><circle cx="77.05083936452866" cy="130.83397878540887" r="2" style="fill: steelblue;"></circle><circle cx="114.03232663869858" cy="115.97786049048106" r="2" style="fill: steelblue;"></circle><circle cx="84.04288291931152" cy="150.28278562757706" r="2" style="fill: steelblue;"></circle><circle cx="32.67391324043274" cy="177.81278027428522" r="2" style="fill: steelblue;"></circle><circle cx="31.942975521087646" cy="77.72264911068811" r="2" style="fill: steelblue;"></circle><circle cx="62.99528777599335" cy="123.37834503915575" r="2" style="fill: steelblue;"></circle><circle cx="81.01856857538223" cy="129.16907535658942" r="2" style="fill: steelblue;"></circle><circle cx="52.85221040248871" cy="121.44759496053061" r="2" style="fill: steelblue;"></circle><circle cx="81.01634979248047" cy="120.652836561203" r="2" style="fill: steelblue;"></circle><circle cx="38.42056393623352" cy="108.59011809031169" r="2" style="fill: steelblue;"></circle><circle cx="69.89798843860626" cy="141.64693024423386" r="2" style="fill: steelblue;"></circle><circle cx="40.86424112319946" cy="137.19459904564752" r="2" style="fill: steelblue;"></circle><circle cx="105.16527034342289" cy="88.84519206476398" r="2" style="fill: steelblue;"></circle><circle cx="117.10119992494583" cy="37.823549906412765" r="2" style="fill: steelblue;"></circle><circle cx="144.54109370708466" cy="43.551499976052185" r="2" style="fill: steelblue;"></circle><circle cx="132.0667177438736" cy="74.62653054131403" r="2" style="fill: steelblue;"></circle><circle cx="68.67731213569641" cy="46.50874137878418" r="2" style="fill: steelblue;"></circle><circle cx="128.20844650268555" cy="94.30186152458191" r="2" style="fill: steelblue;"></circle><circle cx="138.6093556880951" cy="82.37567080391779" r="2" style="fill: steelblue;"></circle><circle cx="137.0095580816269" cy="32.01136853959825" r="2" style="fill: steelblue;"></circle><circle cx="154.39093708992004" cy="38.32767605781555" r="2" style="fill: steelblue;"></circle><circle cx="166.72571301460266" cy="93.43407129247983" r="2" style="fill: steelblue;"></circle><circle cx="158.38727951049805" cy="70.6030266152488" r="2" style="fill: steelblue;"></circle><circle cx="102.88958549499512" cy="67.60558022393121" r="2" style="fill: steelblue;"></circle><circle cx="78.33388447761536" cy="88.33507859251566" r="2" style="fill: steelblue;"></circle><circle cx="70.2731728553772" cy="133.20742580625748" r="2" style="fill: steelblue;"></circle><circle cx="103.31694036722183" cy="127.65720354186163" r="2" style="fill: steelblue;"></circle><circle cx="86.78161948919296" cy="103.09217075506847" r="2" style="fill: steelblue;"></circle><circle cx="69.07244324684143" cy="94.03038182192378" r="2" style="fill: steelblue;"></circle><circle cx="61.109864711761475" cy="113.87903028064304" r="2" style="fill: steelblue;"></circle><circle cx="135.98717749118805" cy="43.98566020859613" r="2" style="fill: steelblue;"></circle><circle cx="123.15737903118134" cy="22.363356749216724" r="2" style="fill: steelblue;"></circle><circle cx="183.97982716560364" cy="98.05406249231763" r="2" style="fill: steelblue;"></circle><circle cx="171.41740918159485" cy="38.22581834263272" r="2" style="fill: steelblue;"></circle><circle cx="118.08044910430908" cy="88.2263811926047" r="2" style="fill: steelblue;"></circle><circle cx="119.51431035995483" cy="57.829097244474625" r="2" style="fill: steelblue;"></circle><circle cx="108.44259113073349" cy="31.137981679704453" r="2" style="fill: steelblue;"></circle><circle cx="150.6758213043213" cy="42.40566359625924" r="2" style="fill: steelblue;"></circle><circle cx="160.82406640052795" cy="44.66708368725247" r="2" style="fill: steelblue;"></circle><circle cx="121.73947095870972" cy="53.79333297411601" r="2" style="fill: steelblue;"></circle><circle cx="111.50742471218109" cy="66.67513681782617" r="2" style="fill: steelblue;"></circle><circle cx="104.5810516923666" cy="75.94700687461429" r="2" style="fill: steelblue;"></circle><circle cx="81.73001706600189" cy="59.27239391538832" r="2" style="fill: steelblue;"></circle><circle cx="111.32893338799477" cy="72.49189780818092" r="2" style="fill: steelblue;"></circle><circle cx="173.19093346595764" cy="73.5089037153456" r="2" style="fill: steelblue;"></circle><circle cx="74.04550611972809" cy="13.993520206875276" r="2" style="fill: steelblue;"></circle><circle cx="135.36517024040222" cy="55.483644538455536" r="2" style="fill: steelblue;"></circle><circle cx="144.0244495868683" cy="48.14167022705078" r="2" style="fill: steelblue;"></circle><circle cx="155.5930197238922" cy="74.37753544913399" r="2" style="fill: steelblue;"></circle><circle cx="129.6737551689148" cy="78.99540447526508" r="2" style="fill: steelblue;"></circle><circle cx="118.13419312238693" cy="64.34114310476515" r="2" style="fill: steelblue;"></circle><circle cx="164.1545832157135" cy="48.50343068440757" r="2" style="fill: steelblue;"></circle><circle cx="71.82250022888184" cy="55.02249664730496" r="2" style="fill: steelblue;"></circle><circle cx="57.03074336051941" cy="130.87276816368103" r="2" style="fill: steelblue;"></circle><circle cx="62.82018721103668" cy="103.01176740063562" r="2" style="fill: steelblue;"></circle><circle cx="103.16580645740032" cy="152.74878210491605" r="2" style="fill: steelblue;"></circle><circle cx="130.10840713977814" cy="163.86657820807562" r="2" style="fill: steelblue;"></circle><circle cx="120.08136808872223" cy="138.8009144200219" r="2" style="fill: steelblue;"></circle><circle cx="50.09171962738037" cy="53.67616017659505" r="2" style="fill: steelblue;"></circle></g></svg>