<svg xmlns="http://www.w3.org/2000/svg"><g><circle cx="5.1765335930718335" cy="75.27963183820248" r="2" style="fill: steelblue;"></circle><circle cx="24.89490078555213" cy="94.87291350960732" r="2" style="fill: steelblue;"></circle><circle cx="8.867216772503324" cy="59.92419011890888" r="2" style="fill: steelblue;"></circle><circle cx="20.421355300479465" cy="95.193400233984" r="2" style="fill: steelblue;"></circle><circle cx="22.740778989262054" cy="45.72416581213474" r="2" style="fill: steelblue;"></circle><circle cx="23.782567183176678" cy="43.58417000621557" r="2" style="fill: steelblue;"></circle><circle cx="46.057649950186416" cy="53.765399334952235" r="2" style="fill: steelblue;"></circle><circle cx="5.236091878679066" cy="44.216767605394125" r="2" style="fill: steelblue;"></circle><circle cx="56.64528095059925" cy="65.94098657369614" r="2" style="fill: steelblue;"></circle><circle cx="29.35114767816332" cy="84.942127764225" r="2" style="fill: steelblue;"></circle><circle cx="31.445591151714325" cy="31.30960948765278" r="2" style="fill: steelblue;"></circle><circle cx="39.24945592880249" cy="2.898472547531128" r="2" style="fill: steelblue;"></circle><circle cx="71.37201825777689" cy="74.554543197155" r="2" style="fill: steelblue;"></circle><circle cx="6.31963478194343" cy="25.026464089751244" r="2" style="fill: steelblue;"></circle><circle cx="54.67620839675268" cy="64.44848254323006" r="2" style="fill: steelblue;"></circle><circle cx="22.192047039667766" cy="53.24862403795123" r="2" style="fill: steelblue;"></circle><circle cx="19.045615527364944" cy="56.70195696875453" r="2" style="fill: steelblue;"></circle><circle cx="19.748771521780228" cy="90.60329496860504" r="2" style="fill: steelblue;"></circle><circle cx="67.17762119240231" cy="47.404552064836025" r="2" style="fill: steelblue;"></circle><circle cx="51.24930847022269" cy="30.908850207924843" r="2" style="fill: steelblue;"></circle><circle cx="40.859973844554695" cy="42.83656058833003" r="2" style="fill: steelblue;"></circle><circle cx="45.72455663647917" cy="18.993064016103745" r="2" style="fill: steelblue;"></circle><circle cx="54.07492584652371" cy="66.08128659427166" r="2" style="fill: steelblue;"></circle><circle cx="38.20766607920329" cy="38.126661628484726" r="2" style="fill: steelblue;"></circle><circle cx="9.051580561531917" cy="64.05847351998091" r="2" style="fill: steelblue;"></circle><circle cx="7.500839895672271" cy="87.42760047316551" r="2" style="fill: steelblue;"></circle><circle cx="21.945270564821033" cy="91.4922870695591" r="2" style="fill: steelblue;"></circle><circle cx="33.45068064000872" cy="50.30983172473498" r="2" style="fill: steelblue;"></circle><circle cx="32.87539316548242" cy="44.444177486002445" r="2" style="fill: steelblue;"></circle><circle cx="51.56127876705594" cy="99.93803426623344" r="2" style="fill: steelblue;"></circle><circle cx="70.29902868800694" cy="18.225423246622086" r="2" style="fill: steelblue;"></circle><circle cx="53.83405105935203" cy="58.28235317021608" r="2" style="fill: steelblue;"></circle><circle cx="71.66254950894249" cy="37.71446663886309" r="2" style="fill: steelblue;"></circle><circle cx="61.09557814068265" cy="14.25636112689972" r="2" style="fill: steelblue;"></circle><circle cx="56.64589603741964" cy="64.83869925141335" r="2" style="fill: steelblue;"></circle><circle cx="8.19483002026876" cy="27.921241894364357" r="2" style="fill: steelblue;"></circle><circle cx="16.509979301028785" cy="65.11735282838345" r="2" style="fill: steelblue;"></circle><circle cx="65.70867465602028" cy="79.25524674355984" r="2" style="fill: steelblue;"></circle><circle cx="30.0664183166292" cy="54.349513445049524" r="2" style="fill: steelblue;"></circle><circle cx="62.73869441615211" cy="44.78408740833402" r="2" style="fill: steelblue;"></circle><circle cx="34.96621400117874" cy="59.18971188366413" r="2" style="fill: steelblue;"></circle><circle cx="72.80642721388075" cy="5.482129007577896" r="2" style="fill: steelblue;"></circle><circle cx="63.92825742562612" cy="34.59030222147703" r="2" style="fill: steelblue;"></circle><circle cx="63.954697052637734" cy="61.92581094801426" r="2" style="fill: steelblue;"></circle><circle cx="54.624004662036896" cy="22.420694306492805" r="2" style="fill: steelblue;"></circle><circle cx="37.94861104753283" cy="54.74935304373503" r="2" style="fill: steelblue;"></circle><circle cx="56.57409396436479" cy="50.57294382713735" r="2" style="fill: steelblue;"></circle><circle cx="14.113014936447147" cy="55.55048556998372" r="2" style="fill: steelblue;"></circle><circle cx="6.895601087146337" cy="58.64251423627138" r="2" style="fill: steelblue;"></circle><circle cx="19.502610961596172" cy="44.86985756084323" r="2" style="fill: steelblue;"></circle><circle cx="55.140454073747" cy="47.59216629900038" r="2" style="fill: steelblue;"></circle><circle cx="37.01236860619651" cy="86.2466536462307" r="2" style="fill: steelblue;"></circle><circle cx="21.567776136928135" cy="55.41516067460179" r="2" style="fill: steelblue;"></circle><circle cx="38.605978257126274" cy="53.19939246401191" r="2" style="fill: steelblue;"></circle><circle cx="53.540783789422775" cy="74.48813803493977" r="2" style="fill: steelblue;"></circle><circle cx="33.32521534628338" cy="60.9370406717062" r="2" style="fill: steelblue;"></circle><circle cx="11.546203825208877" cy="84.14968401193619" r="2" style="fill: steelblue;"></circle><circle cx="41.3460623472929" cy="60.75316406786442" r="2" style="fill: steelblue;"></circle><circle cx="28.70036926534441" cy="99.29988831281662" r="2" style="fill: steelblue;"></circle><circle cx="31.195321182409923" cy="83.30643847584724" r="2" style="fill: steelblue;"></circle><circle cx="63.00706929630704" cy="76.48399583995342" r="2" style="fill: steelblue;"></circle><circle cx="73.47629070281982" cy="51.7056503565982" r="2" style="fill: steelblue;"></circle><circle cx="10.117748710844253" cy="69.94396559894085" r="2" style="fill: steelblue;"></circle><circle cx="1.1439614825778563" cy="63.891272246837616" r="2" style="fill: steelblue;"></circle><circle cx="10.393728150261774" cy="55.308604799211025" r="2" style="fill: steelblue;"></circle><circle cx="2.2410743766360834" cy="69.73772794008255" r="2" style="fill: steelblue;"></circle><circle cx="48.74586785833041" cy="78.32872979342937" r="2" style="fill: steelblue;"></circle><circle cx="27.97979381349352" cy="86.17273643612862" r="2" style="fill: steelblue;"></circle><circle cx="46.21445900864071" cy="59.90717485547066" r="2" style="fill: steelblue;"></circle><circle cx="23.387241032388477" cy="75.163933634758" r="2" style="fill: steelblue;"></circle><circle cx="11.965926488240562" cy="80.75135312974453" r="2" style="fill: steelblue;"></circle><circle cx="69.84979179170396" cy="20.41582688689232" r="2" style="fill: steelblue;"></circle><circle cx="50.56806546118524" cy="10.38813516497612" r="2" style="fill: steelblue;"></circle><circle cx="63.064178824424744" cy="35.827939584851265" r="2" style="fill: steelblue;"></circle><circle cx="72.67478373315599" cy="35.048127360641956" r="2" style="fill: steelblue;"></circle><circle cx="37.901121046808036" cy="20.721451565623283" r="2" style="fill: steelblue;"></circle><circle cx="46.63975511988004" cy="36.525981687009335" r="2" style="fill: steelblue;"></circle><circle cx="68.8175982899136" cy="12.146654725074768" r="2" style="fill: steelblue;"></circle><circle cx="80.53730196423001" cy="24.877433851361275" r="2" style="fill: steelblue;"></circle><circle cx="18.514106008741592" cy="12.499070912599564" r="2" style="fill: steelblue;"></circle><circle cx="91.97492334577773" cy="69.65419761836529" r="2" style="fill: steelblue;"></circle><circle cx="75.57312581274245" cy="22.101401537656784" r="2" style="fill: steelblue;"></circle><circle cx="45.95065795713001" cy="30.437247082591057" r="2" style="fill: steelblue;"></circle><circle cx="65.08841547701094" cy="46.60848989151418" r="2" style="fill: steelblue;"></circle><circle cx="7.4041081799401205" cy="55.878477822989225" r="2" style="fill: steelblue;"></circle><circle cx="23.374684320555794" cy="67.56717264652252" r="2" style="fill: steelblue;"></circle><circle cx="34.3765667743153" cy="60.57346351444721" r="2" style="fill: steelblue;"></circle><circle cx="67.70790053738487" cy="46.081418823450804" r="2" style="fill: steelblue;"></circle><circle cx="31.41499741209878" cy="40.54463393986225" r="2" style="fill: steelblue;"></circle><circle cx="94.13756529490152" cy="33.417049050331116" r="2" style="fill: steelblue;"></circle><circle cx="79.48399517271254" cy="19.69466470181942" r="2" style="fill: steelblue;"></circle><circle cx="77.6839878824022" cy="12.257515639066696" r="2" style="fill: steelblue;"></circle><circle cx="87.66951759656271" cy="27.821266278624535" r="2" style="fill: steelblue;"></circle><circle cx="53.72821059491899" cy="27.112403139472008" r="2" style="fill: steelblue;"></circle><circle cx="58.8644802570343" cy="37.01793048530817" r="2" style="fill: steelblue;"></circle><circle cx="75.72275002797446" cy="26.466575637459755" r="2" style="fill: steelblue;"></circle><circle cx="83.03024967511496" cy="6.405747681856155" r="2" style="fill: steelblue;"></circle><circle cx="41.39731406337685" cy="71.41073159873486" r="2" style="fill: steelblue;"></circle><circle cx="19.099834230211048" cy="60.0459111854434" r="2" style="fill: steelblue;"></circle><circle cx="67.22830832004547" cy="41.51523411273956" r="2" style="fill: steelblue;"></circle><circle cx="35.15113741159439" cy="41.286249831318855" r="2" style="fill: steelblue;"></circle><circle cx="58.51631462574005" cy="37.27765493094921" r="2" style="fill: steelblue;"></circle><circle cx="63.41206298934089" cy="43.77979012206197" r="2" style="fill: steelblue;"></circle><circle cx="55.03198934925927" cy="48.564775101840496" r="2" style="fill: steelblue;"></circle><circle cx="56.9945815536711" cy="20.535239204764366" r="2" style="fill: steelblue;"></circle><circle cx="62.282260258992515" cy="17.947736382484436" r="2" style="fill: steelblue;"></circle><circle cx="65.16723599698808" cy="32.38836042582989" r="2" style="fill: steelblue;"></circle><circle cx="41.36372829476993" cy="14.663326740264893" r="2" style="fill: steelblue;"></circle><circle cx="62.41334742969937" cy="59.14894137531519" r="2" style="fill: steelblue;"></circle><circle cx="66.57117207845053" cy="29.961387813091278" r="2" style="fill: steelblue;"></circle><circle cx="61.72122657299042" cy="32.55056142807007" r="2" style="fill: steelblue;"></circle><circle cx="34.16183690230052" cy="51.65879318956286" r="2" style="fill: steelblue;"></circle><circle cx="34.15475388367971" cy="82.0185050368309" r="2" style="fill: steelblue;"></circle><circle cx="54.519495368003845" cy="87.83610090613365" r="2" style="fill: steelblue;"></circle><circle cx="30.824113388856254" cy="82.22919628024101" r="2" style="fill: steelblue;"></circle><circle cx="16.853439476754932" cy="81.20912052690983" r="2" style="fill: steelblue;"></circle><circle cx="37.35419048203363" cy="70.20160295069218" r="2" style="fill: steelblue;"></circle><circle cx="51.67142318354713" cy="49.01253101415932" r="2" style="fill: steelblue;"></circle></g></svg>