<svg xmlns="http://www.w3.org/2000/svg"><rect width="200" height="200" fill="white"></rect><g><circle cx="41.007900983095176" cy="115.37778880447149" r="2" style="fill: steelblue;"></circle><circle cx="142.1154834330082" cy="173.67511093616486" r="2" style="fill: steelblue;"></circle><circle cx="84.49775204062462" cy="115.82488045096397" r="2" style="fill: steelblue;"></circle><circle cx="22.3121926188469" cy="178.16559821367264" r="2" style="fill: steelblue;"></circle><circle cx="17.547397315502174" cy="179.9657627940178" r="2" style="fill: steelblue;"></circle><circle cx="69.08937953412533" cy="173.96075129508972" r="2" style="fill: steelblue;"></circle><circle cx="131.5229520201683" cy="102.26579373702407" r="2" style="fill: steelblue;"></circle><circle cx="76.6860343515873" cy="58.460185676813126" r="2" style="fill: steelblue;"></circle><circle cx="57.86208659410477" cy="155.9089556336403" r="2" style="fill: steelblue;"></circle><circle cx="43.84116306900979" cy="118.50621029734612" r="2" style="fill: steelblue;"></circle><circle cx="114.33230843394995" cy="123.88618141412735" r="2" style="fill: steelblue;"></circle><circle cx="78.38269732892513" cy="143.13628748059273" r="2" style="fill: steelblue;"></circle><circle cx="149.86992850899696" cy="151.28495767712593" r="2" style="fill: steelblue;"></circle><circle cx="54.140279442071915" cy="123.17565679550171" r="2" style="fill: steelblue;"></circle><circle cx="61.79802715778351" cy="106.17336016148329" r="2" style="fill: steelblue;"></circle><circle cx="101.73792033456266" cy="118.2131752371788" r="2" style="fill: steelblue;"></circle><circle cx="104.67185163870454" cy="161.61541119217873" r="2" style="fill: steelblue;"></circle><circle cx="90.27575645595789" cy="114.70805518329144" r="2" style="fill: steelblue;"></circle><circle cx="118.23126338422298" cy="106.97519676759839" r="2" style="fill: steelblue;"></circle><circle cx="151.78239941596985" cy="117.5864938646555" r="2" style="fill: steelblue;"></circle><circle cx="79.07136939466" cy="132.09390118718147" r="2" style="fill: steelblue;"></circle><circle cx="81.47629015147686" cy="120.23687958717346" r="2" style="fill: steelblue;"></circle><circle cx="95.84957584738731" cy="141.00307077169418" r="2" style="fill: steelblue;"></circle><circle cx="138.57755661010742" cy="104.09123627468944" r="2" style="fill: steelblue;"></circle><circle cx="81.15593567490578" cy="97.59935308247805" r="2" style="fill: steelblue;"></circle><circle cx="78.99841703474522" cy="130.27193807065487" r="2" style="fill: steelblue;"></circle><circle cx="109.1688483953476" cy="74.90089759230614" r="2" style="fill: steelblue;"></circle><circle cx="43.009007722139366" cy="68.64570304751396" r="2" style="fill: steelblue;"></circle><circle cx="38.719812780618675" cy="149.31556805968285" r="2" style="fill: steelblue;"></circle><circle cx="12.064246833324438" cy="78.20953652262688" r="2" style="fill: steelblue;"></circle><circle cx="186.51670813560486" cy="28.508006036281586" r="2" style="fill: steelblue;"></circle><circle cx="136.3301858305931" cy="45.98536565899849" r="2" style="fill: steelblue;"></circle><circle cx="70.87153419852257" cy="109.37447417527437" r="2" style="fill: steelblue;"></circle><circle cx="58.271436393260956" cy="71.94709070026875" r="2" style="fill: steelblue;"></circle><circle cx="158.4244802594185" cy="58.43995362520218" r="2" style="fill: steelblue;"></circle><circle cx="171.72127068042755" cy="7.152377068996429" r="2" style="fill: steelblue;"></circle><circle cx="72.56447561085224" cy="78.38064841926098" r="2" style="fill: steelblue;"></circle><circle cx="26.427409052848823" cy="84.14323106408119" r="2" style="fill: steelblue;"></circle><circle cx="77.941719815135" cy="129.01457995176315" r="2" style="fill: steelblue;"></circle><circle cx="54.33805137872696" cy="186.0406905412674" r="2" style="fill: steelblue;"></circle><circle cx="94.60672540590167" cy="81.49811662733555" r="2" style="fill: steelblue;"></circle><circle cx="66.74205735325813" cy="17.313456535339355" r="2" style="fill: steelblue;"></circle><circle cx="31.91394209861756" cy="7.6833575963974" r="2" style="fill: steelblue;"></circle><circle cx="189.04502540826797" cy="16.094571352005005" r="2" style="fill: steelblue;"></circle><circle cx="97.29596730321646" cy="124.61540512740612" r="2" style="fill: steelblue;"></circle><circle cx="111.44989114254713" cy="136.65856644511223" r="2" style="fill: steelblue;"></circle><circle cx="123.83723855018616" cy="134.7890369594097" r="2" style="fill: steelblue;"></circle><circle cx="93.66633873432875" cy="182.771897315979" r="2" style="fill: steelblue;"></circle><circle cx="66.16934984922409" cy="164.4030049443245" r="2" style="fill: steelblue;"></circle><circle cx="144.60640251636505" cy="138.83833065629005" r="2" style="fill: steelblue;"></circle><circle cx="89.56089466810226" cy="132.39575028419495" r="2" style="fill: steelblue;"></circle><circle cx="152.64437198638916" cy="139.00327533483505" r="2" style="fill: steelblue;"></circle><circle cx="130.14382533729076" cy="132.17055648565292" r="2" style="fill: steelblue;"></circle><circle cx="48.248222470283515" cy="151.48933455348015" r="2" style="fill: steelblue;"></circle><circle cx="59.702447056770325" cy="119.77555081248283" r="2" style="fill: steelblue;"></circle><circle cx="24.254164099693305" cy="128.5269431769848" r="2" style="fill: steelblue;"></circle><circle cx="96.51260673999786" cy="90.97664467990398" r="2" style="fill: steelblue;"></circle><circle cx="84.29003171622753" cy="199.51037168502808" r="2" style="fill: steelblue;"></circle><circle cx="93.63102577626705" cy="132.45127573609352" r="2" style="fill: steelblue;"></circle><circle cx="88.57291042804718" cy="140.33630341291428" r="2" style="fill: steelblue;"></circle><circle cx="49.63782653212548" cy="140.93221575021744" r="2" style="fill: steelblue;"></circle><circle cx="46.65516167879105" cy="135.40511801838875" r="2" style="fill: steelblue;"></circle><circle cx="13.194708526134496" cy="179.88426089286804" r="2" style="fill: steelblue;"></circle><circle cx="28.44317853450776" cy="173.47530871629715" r="2" style="fill: steelblue;"></circle><circle cx="27.915088832378395" cy="100.3387063043192" r="2" style="fill: steelblue;"></circle><circle cx="38.47299739718438" cy="143.15825551748276" r="2" style="fill: steelblue;"></circle><circle cx="24.430638551712043" cy="104.29388415068388" r="2" style="fill: steelblue;"></circle><circle cx="6.249150633811956" cy="160.16386672854424" r="2" style="fill: steelblue;"></circle><circle cx="34.272676706314094" cy="163.410684466362" r="2" style="fill: steelblue;"></circle><circle cx="88.77096083015203" cy="68.40789541602135" r="2" style="fill: steelblue;"></circle><circle cx="29.020769894123084" cy="131.7189022898674" r="2" style="fill: steelblue;"></circle><circle cx="173.775015771389" cy="58.567917346954346" r="2" style="fill: steelblue;"></circle><circle cx="137.80413046479225" cy="136.32736578583717" r="2" style="fill: steelblue;"></circle><circle cx="90.99266529083252" cy="40.465815365314484" r="2" style="fill: steelblue;"></circle><circle cx="177.45400071144104" cy="53.86308804154396" r="2" style="fill: steelblue;"></circle><circle cx="110.58762520551682" cy="108.745058439672" r="2" style="fill: steelblue;"></circle><circle cx="145.9766834974289" cy="53.773293644189835" r="2" style="fill: steelblue;"></circle><circle cx="86.2151900306344" cy="34.71328914165497" r="2" style="fill: steelblue;"></circle><circle cx="169.28963214159012" cy="50.80141723155975" r="2" style="fill: steelblue;"></circle><circle cx="154.8212267458439" cy="53.43466103076935" r="2" style="fill: steelblue;"></circle><circle cx="150.4137948155403" cy="11.194831132888794" r="2" style="fill: steelblue;"></circle><circle cx="50.30035823583603" cy="52.552150934934616" r="2" style="fill: steelblue;"></circle><circle cx="94.32767927646637" cy="68.56813877820969" r="2" style="fill: steelblue;"></circle><circle cx="74.74605962634087" cy="162.16546148061752" r="2" style="fill: steelblue;"></circle><circle cx="139.3281988799572" cy="132.9991802573204" r="2" style="fill: steelblue;"></circle><circle cx="42.95727834105492" cy="109.30836517363787" r="2" style="fill: steelblue;"></circle><circle cx="104.57501085475087" cy="72.65391051769257" r="2" style="fill: steelblue;"></circle><circle cx="66.3703702390194" cy="115.94403572380543" r="2" style="fill: steelblue;"></circle><circle cx="25.727538764476783" cy="83.24788548052311" r="2" style="fill: steelblue;"></circle><circle cx="92.30180121958256" cy="71.54220193624496" r="2" style="fill: steelblue;"></circle><circle cx="153.46704646945" cy="60.180263966321945" r="2" style="fill: steelblue;"></circle><circle cx="101.7937661614269" cy="91.43039714545012" r="2" style="fill: steelblue;"></circle><circle cx="122.03810773789883" cy="51.442018151283264" r="2" style="fill: steelblue;"></circle><circle cx="93.8421887345612" cy="52.05753296613693" r="2" style="fill: steelblue;"></circle><circle cx="114.06341418623924" cy="145.2420338988304" r="2" style="fill: steelblue;"></circle><circle cx="173.73879104852676" cy="96.2173500098288" r="2" style="fill: steelblue;"></circle><circle cx="164.26679342985153" cy="20.36784440279007" r="2" style="fill: steelblue;"></circle><circle cx="134.7086861729622" cy="37.32043355703354" r="2" style="fill: steelblue;"></circle><circle cx="63.317982852458954" cy="61.88126876950264" r="2" style="fill: steelblue;"></circle><circle cx="122.39617705345154" cy="90.21589197218418" r="2" style="fill: steelblue;"></circle><circle cx="142.6715761423111" cy="97.37610295414925" r="2" style="fill: steelblue;"></circle><circle cx="138.213312625885" cy="89.86957874149084" r="2" style="fill: steelblue;"></circle><circle cx="131.1968456953764" cy="34.18675661087036" r="2" style="fill: steelblue;"></circle><circle cx="153.02683636546135" cy="115.63874445855618" r="2" style="fill: steelblue;"></circle><circle cx="147.41517454385757" cy="142.81412437558174" r="2" style="fill: steelblue;"></circle><circle cx="119.60492879152298" cy="60.031528025865555" r="2" style="fill: steelblue;"></circle><circle cx="64.74385634064674" cy="98.42580163385719" r="2" style="fill: steelblue;"></circle><circle cx="65.0074690580368" cy="96.52343522757292" r="2" style="fill: steelblue;"></circle><circle cx="126.62581019103527" cy="49.91417974233627" r="2" style="fill: steelblue;"></circle><circle cx="89.08072337508202" cy="54.40804585814476" r="2" style="fill: steelblue;"></circle><circle cx="127.2127091884613" cy="42.96345114707947" r="2" style="fill: steelblue;"></circle><circle cx="158.87795984745026" cy="137.83395513892174" r="2" style="fill: steelblue;"></circle><circle cx="124.6169175952673" cy="126.07749216258526" r="2" style="fill: steelblue;"></circle><circle cx="74.98511895537376" cy="106.15022843703628" r="2" style="fill: steelblue;"></circle><circle cx="23.6840307712555" cy="156.9205805659294" r="2" style="fill: steelblue;"></circle><circle cx="81.25578463077545" cy="148.32912608981133" r="2" style="fill: steelblue;"></circle><circle cx="95.79395307227969" cy="113.63704726099968" r="2" style="fill: steelblue;"></circle><circle cx="157.27918446063995" cy="111.75327971577644" r="2" style="fill: steelblue;"></circle></g></svg>