<svg xmlns="http://www.w3.org/2000/svg"><g><circle cx="25.30322819948197" cy="101.05227646417916" r="2" style="fill: steelblue;"></circle><circle cx="22.168336808681495" cy="109.38380509614944" r="2" style="fill: steelblue;"></circle><circle cx="81.58187977969646" cy="116.64752513170242" r="2" style="fill: steelblue;"></circle><circle cx="68.14857423305511" cy="124.04522337019444" r="2" style="fill: steelblue;"></circle><circle cx="49.75865632295609" cy="148.82345348596573" r="2" style="fill: steelblue;"></circle><circle cx="20.62747478485108" cy="106.26224838197231" r="2" style="fill: steelblue;"></circle><circle cx="81.08974099159241" cy="121.0596639662981" r="2" style="fill: steelblue;"></circle><circle cx="173.45454394817352" cy="109.13601368665695" r="2" style="fill: steelblue;"></circle><circle cx="135.86376458406448" cy="149.0792952477932" r="2" style="fill: steelblue;"></circle><circle cx="99.95662644505501" cy="105.32843824476004" r="2" style="fill: steelblue;"></circle><circle cx="78.96265424787998" cy="71.94705344736576" r="2" style="fill: steelblue;"></circle><circle cx="37.81262263655663" cy="136.15142032504082" r="2" style="fill: steelblue;"></circle><circle cx="112.8625575453043" cy="154.24632132053375" r="2" style="fill: steelblue;"></circle><circle cx="140.49724712967873" cy="163.18000704050064" r="2" style="fill: steelblue;"></circle><circle cx="98.35426930803806" cy="121.64571546018124" r="2" style="fill: steelblue;"></circle><circle cx="110.9321866184473" cy="184.54257994890213" r="2" style="fill: steelblue;"></circle><circle cx="53.03620025515556" cy="138.2777415215969" r="2" style="fill: steelblue;"></circle><circle cx="56.00029081106186" cy="98.44321084674448" r="2" style="fill: steelblue;"></circle><circle cx="134.50002893805504" cy="123.4603751450777" r="2" style="fill: steelblue;"></circle><circle cx="76.11411847174168" cy="80.38996383547783" r="2" style="fill: steelblue;"></circle><circle cx="109.23390034586191" cy="42.684683948755264" r="2" style="fill: steelblue;"></circle><circle cx="80.9476938098669" cy="62.17051520943642" r="2" style="fill: steelblue;"></circle><circle cx="86.98403220623732" cy="176.08551532030106" r="2" style="fill: steelblue;"></circle><circle cx="100.7271563517861" cy="94.31450571864843" r="2" style="fill: steelblue;"></circle><circle cx="122.89046160876751" cy="144.0410003066063" r="2" style="fill: steelblue;"></circle><circle cx="38.38219344615937" cy="131.5096192061901" r="2" style="fill: steelblue;"></circle><circle cx="65.37969261407852" cy="148.40687662363052" r="2" style="fill: steelblue;"></circle><circle cx="75.81806965172291" cy="112.6907266676426" r="2" style="fill: steelblue;"></circle><circle cx="4.262259602546697" cy="165.6997561454773" r="2" style="fill: steelblue;"></circle><circle cx="81.88492469489574" cy="130.01576848328114" r="2" style="fill: steelblue;"></circle><circle cx="108.77795834094286" cy="103.95849766209722" r="2" style="fill: steelblue;"></circle><circle cx="142.9108776152134" cy="79.33616116642952" r="2" style="fill: steelblue;"></circle><circle cx="164.8997724056244" cy="12.170886993408203" r="2" style="fill: steelblue;"></circle><circle cx="131.4583256840706" cy="115.18828421831131" r="2" style="fill: steelblue;"></circle><circle cx="123.0853296816349" cy="85.65844632685184" r="2" style="fill: steelblue;"></circle><circle cx="78.02427597343922" cy="38.608381897211075" r="2" style="fill: steelblue;"></circle><circle cx="68.49755197763443" cy="92.87491105496883" r="2" style="fill: steelblue;"></circle><circle cx="77.97369584441185" cy="29.0681853890419" r="2" style="fill: steelblue;"></circle><circle cx="39.637228846549995" cy="144.93523761630058" r="2" style="fill: steelblue;"></circle><circle cx="9.655578434467321" cy="151.44771188497543" r="2" style="fill: steelblue;"></circle><circle cx="76.41313262283802" cy="82.23884403705597" r="2" style="fill: steelblue;"></circle><circle cx="148.3274757862091" cy="140.4069870710373" r="2" style="fill: steelblue;"></circle><circle cx="131.769011169672" cy="32.153940200805664" r="2" style="fill: steelblue;"></circle><circle cx="158.7681122124195" cy="85.53031403571367" r="2" style="fill: steelblue;"></circle><circle cx="149.69916865229607" cy="60.36006882786751" r="2" style="fill: steelblue;"></circle><circle cx="135.6634184718132" cy="45.76074182987213" r="2" style="fill: steelblue;"></circle><circle cx="156.38791620731354" cy="86.83499079197645" r="2" style="fill: steelblue;"></circle><circle cx="19.18545216321946" cy="35.31990051269531" r="2" style="fill: steelblue;"></circle><circle cx="111.01572904735804" cy="144.64765638113022" r="2" style="fill: steelblue;"></circle><circle cx="36.743311583995826" cy="181.14858716726303" r="2" style="fill: steelblue;"></circle><circle cx="13.893736898899084" cy="186.35391294956207" r="2" style="fill: steelblue;"></circle><circle cx="14.06970471143723" cy="138.14688324928284" r="2" style="fill: steelblue;"></circle><circle cx="92.38093011081219" cy="85.27739383280277" r="2" style="fill: steelblue;"></circle><circle cx="105.59094548225403" cy="32.833172380924225" r="2" style="fill: steelblue;"></circle><circle cx="75.3787312656641" cy="101.60842260811478" r="2" style="fill: steelblue;"></circle><circle cx="3.1517431139946037" cy="126.39386244118214" r="2" style="fill: steelblue;"></circle><circle cx="95.34970941022038" cy="122.61733263731003" r="2" style="fill: steelblue;"></circle><circle cx="90.42527936398983" cy="122.10870571434498" r="2" style="fill: steelblue;"></circle><circle cx="80.1378920674324" cy="100.69879757938907" r="2" style="fill: steelblue;"></circle><circle cx="38.949320465326316" cy="156.99114874005318" r="2" style="fill: steelblue;"></circle><circle cx="132.0902317762375" cy="131.76014497876167" r="2" style="fill: steelblue;"></circle><circle cx="35.61839312314988" cy="169.49471682310104" r="2" style="fill: steelblue;"></circle><circle cx="19.780455529689796" cy="145.0628623366356" r="2" style="fill: steelblue;"></circle><circle cx="53.8276381790638" cy="144.18356716632843" r="2" style="fill: steelblue;"></circle><circle cx="49.10646602511407" cy="182.41596817970276" r="2" style="fill: steelblue;"></circle><circle cx="11.90256923437119" cy="149.9672293663025" r="2" style="fill: steelblue;"></circle><circle cx="29.519996047019966" cy="106.03020377457142" r="2" style="fill: steelblue;"></circle><circle cx="130.90598993003368" cy="168.15772503614426" r="2" style="fill: steelblue;"></circle><circle cx="1.249468326568609" cy="131.7717120051384" r="2" style="fill: steelblue;"></circle><circle cx="102.03495752066374" cy="171.76002860069275" r="2" style="fill: steelblue;"></circle><circle cx="61.99754625558853" cy="117.46274530887604" r="2" style="fill: steelblue;"></circle><circle cx="139.89021852612495" cy="81.25572316348553" r="2" style="fill: steelblue;"></circle><circle cx="158.21043252944946" cy="59.902167320251465" r="2" style="fill: steelblue;"></circle><circle cx="151.53675377368927" cy="29.32692915201187" r="2" style="fill: steelblue;"></circle><circle cx="156.22746422886848" cy="63.23460340499878" r="2" style="fill: steelblue;"></circle><circle cx="171.81689143180847" cy="62.361570447683334" r="2" style="fill: steelblue;"></circle><circle cx="120.65936475992203" cy="16.506320238113403" r="2" style="fill: steelblue;"></circle><circle cx="129.04046699404716" cy="54.80884611606598" r="2" style="fill: steelblue;"></circle><circle cx="126.11209452152252" cy="92.34962649643421" r="2" style="fill: steelblue;"></circle><circle cx="174.77576285600662" cy="16.211828589439392" r="2" style="fill: steelblue;"></circle><circle cx="167.37105548381805" cy="39.130205661058426" r="2" style="fill: steelblue;"></circle><circle cx="193.73819082975388" cy="43.212077021598816" r="2" style="fill: steelblue;"></circle><circle cx="178.94038408994675" cy="32.382166385650635" r="2" style="fill: steelblue;"></circle><circle cx="92.26798862218857" cy="125.38693509995937" r="2" style="fill: steelblue;"></circle><circle cx="52.40611955523491" cy="131.14950843155384" r="2" style="fill: steelblue;"></circle><circle cx="46.07025384902955" cy="157.06888064742088" r="2" style="fill: steelblue;"></circle><circle cx="88.32819703966379" cy="52.28967070579529" r="2" style="fill: steelblue;"></circle><circle cx="89.25452027469873" cy="172.20441848039627" r="2" style="fill: steelblue;"></circle><circle cx="76.34582035243511" cy="153.35291102528572" r="2" style="fill: steelblue;"></circle><circle cx="150.01036077737808" cy="15.708027780056" r="2" style="fill: steelblue;"></circle><circle cx="122.52707444131374" cy="60.639044642448425" r="2" style="fill: steelblue;"></circle><circle cx="192.8347408771515" cy="58.56570079922676" r="2" style="fill: steelblue;"></circle><circle cx="112.15313002467155" cy="13.288235664367676" r="2" style="fill: steelblue;"></circle><circle cx="187.94615417718887" cy="57.47174695134163" r="2" style="fill: steelblue;"></circle><circle cx="146.47845402359962" cy="102.90407869033515" r="2" style="fill: steelblue;"></circle><circle cx="198.87941926717758" cy="46.15011289715767" r="2" style="fill: steelblue;"></circle><circle cx="106.99724955484271" cy="74.97385926544666" r="2" style="fill: steelblue;"></circle><circle cx="112.2781340032816" cy="99.93009493482532" r="2" style="fill: steelblue;"></circle><circle cx="120.68202011287212" cy="56.3211128115654" r="2" style="fill: steelblue;"></circle><circle cx="128.69689278304577" cy="163.19426000118256" r="2" style="fill: steelblue;"></circle><circle cx="128.42485159635544" cy="95.51546340808272" r="2" style="fill: steelblue;"></circle><circle cx="153.3897876739502" cy="97.40155227482319" r="2" style="fill: steelblue;"></circle><circle cx="97.33261833898723" cy="86.91847920417786" r="2" style="fill: steelblue;"></circle><circle cx="141.25871136784554" cy="66.2940502166748" r="2" style="fill: steelblue;"></circle><circle cx="122.60256186127663" cy="27.13458091020584" r="2" style="fill: steelblue;"></circle><circle cx="17.02623665332795" cy="17.008765041828156" r="2" style="fill: steelblue;"></circle><circle cx="121.68139815330505" cy="73.83430600166321" r="2" style="fill: steelblue;"></circle><circle cx="55.4317444562912" cy="82.74054564535618" r="2" style="fill: steelblue;"></circle><circle cx="101.58308551181108" cy="136.32725775241852" r="2" style="fill: steelblue;"></circle><circle cx="159.07607078552246" cy="32.249024510383606" r="2" style="fill: steelblue;"></circle><circle cx="118.94950307905674" cy="91.52819253504276" r="2" style="fill: steelblue;"></circle><circle cx="132.95357897877693" cy="71.9985369592905" r="2" style="fill: steelblue;"></circle><circle cx="51.133400201797485" cy="55.93526214361191" r="2" style="fill: steelblue;"></circle><circle cx="34.315592050552375" cy="154.5889511704445" r="2" style="fill: steelblue;"></circle><circle cx="101.00572477094829" cy="127.29988284409046" r="2" style="fill: steelblue;"></circle><circle cx="61.38085797429085" cy="158.48445370793343" r="2" style="fill: steelblue;"></circle><circle cx="28.947769105434425" cy="135.96214205026627" r="2" style="fill: steelblue;"></circle><circle cx="66.18926525115967" cy="111.92104537039995" r="2" style="fill: steelblue;"></circle></g></svg>