<svg xmlns="http://www.w3.org/2000/svg"><rect width="200" height="200" fill="white"></rect><g><circle cx="121.61954823467467" cy="174.98740404844284" r="2" style="fill: steelblue;"></circle><circle cx="87.00083030594719" cy="91.57656170427799" r="2" style="fill: steelblue;"></circle><circle cx="89.8856586880154" cy="101.49789173156023" r="2" style="fill: steelblue;"></circle><circle cx="78.96788252724541" cy="193.34822744131088" r="2" style="fill: steelblue;"></circle><circle cx="34.85655122333103" cy="195.3257754445076" r="2" style="fill: steelblue;"></circle><circle cx="88.51338260703616" cy="193.73099356889725" r="2" style="fill: steelblue;"></circle><circle cx="134.28691360685562" cy="139.25812244415283" r="2" style="fill: steelblue;"></circle><circle cx="70.77695594893562" cy="119.81290057301521" r="2" style="fill: steelblue;"></circle><circle cx="87.09773586855995" cy="116.54825918376446" r="2" style="fill: steelblue;"></circle><circle cx="170.34140560362076" cy="116.12073183059692" r="2" style="fill: steelblue;"></circle><circle cx="102.5827071732945" cy="111.38151157647371" r="2" style="fill: steelblue;"></circle><circle cx="127.34911176893446" cy="121.30567654967308" r="2" style="fill: steelblue;"></circle><circle cx="74.32587941487631" cy="132.91935846209526" r="2" style="fill: steelblue;"></circle><circle cx="82.46574799219766" cy="106.4589437097311" r="2" style="fill: steelblue;"></circle><circle cx="86.78204152319167" cy="139.40671682357788" r="2" style="fill: steelblue;"></circle><circle cx="21.147463056776257" cy="109.79529321193695" r="2" style="fill: steelblue;"></circle><circle cx="129.28371462557052" cy="93.20546165108681" r="2" style="fill: steelblue;"></circle><circle cx="146.09742495748733" cy="133.29603374004364" r="2" style="fill: steelblue;"></circle><circle cx="127.36736403571234" cy="154.89331483840942" r="2" style="fill: steelblue;"></circle><circle cx="140.88137613402472" cy="105.02574304118752" r="2" style="fill: steelblue;"></circle><circle cx="182.95236428578693" cy="137.4772809445858" r="2" style="fill: steelblue;"></circle><circle cx="142.00426472557913" cy="55.91748133301735" r="2" style="fill: steelblue;"></circle><circle cx="41.00339942508274" cy="127.65700221061707" r="2" style="fill: steelblue;"></circle><circle cx="73.16012846099007" cy="151.31331831216812" r="2" style="fill: steelblue;"></circle><circle cx="46.05933692720201" cy="149.2062084376812" r="2" style="fill: steelblue;"></circle><circle cx="118.62331380446751" cy="69.5377703756094" r="2" style="fill: steelblue;"></circle><circle cx="73.71679610676235" cy="141.27294570207596" r="2" style="fill: steelblue;"></circle><circle cx="96.17303477393257" cy="121.52498625218868" r="2" style="fill: steelblue;"></circle><circle cx="95.55372099081674" cy="61.77925169467926" r="2" style="fill: steelblue;"></circle><circle cx="150.62595076031155" cy="55.294232815504074" r="2" style="fill: steelblue;"></circle><circle cx="114.03849182857407" cy="83.79559256136417" r="2" style="fill: steelblue;"></circle><circle cx="84.30497348308563" cy="40.10075181722641" r="2" style="fill: steelblue;"></circle><circle cx="159.82827213075424" cy="86.13265994936228" r="2" style="fill: steelblue;"></circle><circle cx="156.21655186017352" cy="97.55544471554458" r="2" style="fill: steelblue;"></circle><circle cx="115.45570774210823" cy="107.02203577384353" r="2" style="fill: steelblue;"></circle><circle cx="102.82138486703236" cy="104.39463974907994" r="2" style="fill: steelblue;"></circle><circle cx="45.9219151073032" cy="108.81739147007465" r="2" style="fill: steelblue;"></circle><circle cx="71.8380974398719" cy="144.8950082063675" r="2" style="fill: steelblue;"></circle><circle cx="52.5924629635281" cy="173.68024438619614" r="2" style="fill: steelblue;"></circle><circle cx="54.799669318728974" cy="168.12776625156403" r="2" style="fill: steelblue;"></circle><circle cx="85.12121107843187" cy="143.23199018836021" r="2" style="fill: steelblue;"></circle><circle cx="146.46363920635648" cy="16.67676717042923" r="2" style="fill: steelblue;"></circle><circle cx="106.55015334486961" cy="125.34583956003189" r="2" style="fill: steelblue;"></circle><circle cx="155.27875224749246" cy="110.58018486946821" r="2" style="fill: steelblue;"></circle><circle cx="129.73345981703864" cy="79.89454679191113" r="2" style="fill: steelblue;"></circle><circle cx="167.18200842539468" cy="67.58440136909485" r="2" style="fill: steelblue;"></circle><circle cx="165.30576348304749" cy="53.839048743247986" r="2" style="fill: steelblue;"></circle><circle cx="67.17816326353285" cy="152.88256332278252" r="2" style="fill: steelblue;"></circle><circle cx="51.840762297312416" cy="56.69703185558319" r="2" style="fill: steelblue;"></circle><circle cx="112.81230331708987" cy="52.22744718194008" r="2" style="fill: steelblue;"></circle><circle cx="22.228691313001843" cy="80.30994273722172" r="2" style="fill: steelblue;"></circle><circle cx="75.38895474539864" cy="117.18283072113991" r="2" style="fill: steelblue;"></circle><circle cx="110.5413503634433" cy="128.71168591082096" r="2" style="fill: steelblue;"></circle><circle cx="91.42283764150407" cy="64.01244029402733" r="2" style="fill: steelblue;"></circle><circle cx="111.34991013548441" cy="160.93300506472588" r="2" style="fill: steelblue;"></circle><circle cx="81.11354377534654" cy="153.7678562104702" r="2" style="fill: steelblue;"></circle><circle cx="129.9162424272961" cy="41.821303218603134" r="2" style="fill: steelblue;"></circle><circle cx="88.34241992897456" cy="98.98475781083107" r="2" style="fill: steelblue;"></circle><circle cx="105.93245385421646" cy="124.12179112434387" r="2" style="fill: steelblue;"></circle><circle cx="69.16602121459114" cy="84.68381818383932" r="2" style="fill: steelblue;"></circle><circle cx="84.02213950951894" cy="107.11092306300998" r="2" style="fill: steelblue;"></circle><circle cx="49.71721437242296" cy="143.31383854150772" r="2" style="fill: steelblue;"></circle><circle cx="22.187219725714787" cy="112.57267408072948" r="2" style="fill: steelblue;"></circle><circle cx="122.27735088931189" cy="168.79877299070358" r="2" style="fill: steelblue;"></circle><circle cx="76.62165496084425" cy="94.5838931016624" r="2" style="fill: steelblue;"></circle><circle cx="70.83092464341057" cy="162.49764189124107" r="2" style="fill: steelblue;"></circle><circle cx="78.55240503946939" cy="162.3062364757061" r="2" style="fill: steelblue;"></circle><circle cx="79.347163438797" cy="157.85725638270378" r="2" style="fill: steelblue;"></circle><circle cx="91.40988190968831" cy="104.8152063973248" r="2" style="fill: steelblue;"></circle><circle cx="58.35306975576613" cy="154.79972809553146" r="2" style="fill: steelblue;"></circle><circle cx="62.805400954352486" cy="149.6593564748764" r="2" style="fill: steelblue;"></circle><circle cx="111.15480793523602" cy="65.2341641485691" r="2" style="fill: steelblue;"></circle><circle cx="162.17645009358722" cy="53.12587916851044" r="2" style="fill: steelblue;"></circle><circle cx="156.44850002394782" cy="132.4268825352192" r="2" style="fill: steelblue;"></circle><circle cx="125.37346945868597" cy="93.71018121019006" r="2" style="fill: steelblue;"></circle><circle cx="153.49125862121582" cy="105.53168170154095" r="2" style="fill: steelblue;"></circle><circle cx="105.69813847541809" cy="68.76719780266285" r="2" style="fill: steelblue;"></circle><circle cx="117.62432919608221" cy="129.83923815190792" r="2" style="fill: steelblue;"></circle><circle cx="167.98863146040176" cy="61.40795946121216" r="2" style="fill: steelblue;"></circle><circle cx="161.67232394218445" cy="56.94560557603836" r="2" style="fill: steelblue;"></circle><circle cx="106.56592870752017" cy="94.73499553278089" r="2" style="fill: steelblue;"></circle><circle cx="129.3969733847512" cy="21.435102820396423" r="2" style="fill: steelblue;"></circle><circle cx="132.3944197760688" cy="95.69710716605186" r="2" style="fill: steelblue;"></circle><circle cx="111.66492140748434" cy="93.21218812838197" r="2" style="fill: steelblue;"></circle><circle cx="66.79257419374254" cy="115.23943059146404" r="2" style="fill: steelblue;"></circle><circle cx="72.34279645813835" cy="115.03417640924454" r="2" style="fill: steelblue;"></circle><circle cx="96.90782924493153" cy="108.92481207847595" r="2" style="fill: steelblue;"></circle><circle cx="105.96961817807622" cy="118.07989366352558" r="2" style="fill: steelblue;"></circle><circle cx="86.12096971935695" cy="102.8099415358156" r="2" style="fill: steelblue;"></circle><circle cx="156.01433979140387" cy="95.84529735147953" r="2" style="fill: steelblue;"></circle><circle cx="177.63664325078327" cy="33.31795930862427" r="2" style="fill: steelblue;"></circle><circle cx="101.94593750768237" cy="81.01788945496082" r="2" style="fill: steelblue;"></circle><circle cx="161.77418165736728" cy="79.83900085091591" r="2" style="fill: steelblue;"></circle><circle cx="111.7736188073953" cy="65.57781845331192" r="2" style="fill: steelblue;"></circle><circle cx="142.17090275552536" cy="104.65554231777787" r="2" style="fill: steelblue;"></circle><circle cx="168.86201832029556" cy="31.78165704011917" r="2" style="fill: steelblue;"></circle><circle cx="157.59433640374075" cy="40.984148532152176" r="2" style="fill: steelblue;"></circle><circle cx="155.33291631274753" cy="40.45732915401459" r="2" style="fill: steelblue;"></circle><circle cx="146.20666702588397" cy="91.76706373691559" r="2" style="fill: steelblue;"></circle><circle cx="133.32486318217383" cy="99.21072949655354" r="2" style="fill: steelblue;"></circle><circle cx="124.05299312538571" cy="52.730692923069" r="2" style="fill: steelblue;"></circle><circle cx="140.72760608461166" cy="75.92341341078281" r="2" style="fill: steelblue;"></circle><circle cx="127.50810219181908" cy="56.89393952488899" r="2" style="fill: steelblue;"></circle><circle cx="126.4910962846544" cy="71.08442150056362" r="2" style="fill: steelblue;"></circle><circle cx="186.00647979312473" cy="59.31161940097809" r="2" style="fill: steelblue;"></circle><circle cx="144.51635546154446" cy="126.56165882945061" r="2" style="fill: steelblue;"></circle><circle cx="151.85832977294922" cy="75.439028814435" r="2" style="fill: steelblue;"></circle><circle cx="125.62246455086601" cy="58.394382148981094" r="2" style="fill: steelblue;"></circle><circle cx="121.00459552473492" cy="26.598340272903442" r="2" style="fill: steelblue;"></circle><circle cx="135.65885689523483" cy="100.13406382640824" r="2" style="fill: steelblue;"></circle><circle cx="151.49656931559244" cy="15.371619164943695" r="2" style="fill: steelblue;"></circle><circle cx="144.97750335269504" cy="117.28149689733982" r="2" style="fill: steelblue;"></circle><circle cx="69.12723183631897" cy="170.30261307954788" r="2" style="fill: steelblue;"></circle><circle cx="96.9882325993644" cy="152.49904468655586" r="2" style="fill: steelblue;"></circle><circle cx="47.25121789508396" cy="121.98888547718525" r="2" style="fill: steelblue;"></circle><circle cx="36.13342179192437" cy="156.0128390789032" r="2" style="fill: steelblue;"></circle><circle cx="61.199085579978096" cy="163.65085393190384" r="2" style="fill: steelblue;"></circle><circle cx="146.32383982340497" cy="166.51833653450012" r="2" style="fill: steelblue;"></circle></g></svg>