<svg xmlns="http://www.w3.org/2000/svg"><g><circle cx="121.61954823467467" cy="136.62619590759277" r="2" style="fill: steelblue;"></circle><circle cx="87.00083030594719" cy="98.02180644538667" r="2" style="fill: steelblue;"></circle><circle cx="89.8856586880154" cy="164.5313885476854" r="2" style="fill: steelblue;"></circle><circle cx="78.96788252724541" cy="122.82149526807997" r="2" style="fill: steelblue;"></circle><circle cx="34.85655122333103" cy="69.41581964492798" r="2" style="fill: steelblue;"></circle><circle cx="88.51338260703616" cy="110.91652711232504" r="2" style="fill: steelblue;"></circle><circle cx="134.28691360685562" cy="129.45357494884067" r="2" style="fill: steelblue;"></circle><circle cx="70.77695594893562" cy="96.79275535874896" r="2" style="fill: steelblue;"></circle><circle cx="87.09773586855995" cy="93.73931619856093" r="2" style="fill: steelblue;"></circle><circle cx="170.34140560362076" cy="112.43508954842886" r="2" style="fill: steelblue;"></circle><circle cx="102.5827071732945" cy="130.25442957878113" r="2" style="fill: steelblue;"></circle><circle cx="127.34911176893446" cy="61.5294678343667" r="2" style="fill: steelblue;"></circle><circle cx="74.32587941487631" cy="150.05257262123956" r="2" style="fill: steelblue;"></circle><circle cx="82.46574799219766" cy="66.09717044565413" r="2" style="fill: steelblue;"></circle><circle cx="86.78204152319167" cy="117.4809455871582" r="2" style="fill: steelblue;"></circle><circle cx="21.147463056776257" cy="101.40069690015581" r="2" style="fill: steelblue;"></circle><circle cx="129.28371462557052" cy="121.12863063812256" r="2" style="fill: steelblue;"></circle><circle cx="146.09742495748733" cy="101.30781796243456" r="2" style="fill: steelblue;"></circle><circle cx="127.36736403571234" cy="72.72921866840787" r="2" style="fill: steelblue;"></circle><circle cx="140.88137613402472" cy="103.23805146747165" r="2" style="fill: steelblue;"></circle><circle cx="182.95236428578693" cy="60.98152067926195" r="2" style="fill: steelblue;"></circle><circle cx="142.00426472557913" cy="58.47874482472737" r="2" style="fill: steelblue;"></circle><circle cx="41.00339942508274" cy="34.588911798265244" r="2" style="fill: steelblue;"></circle><circle cx="73.16012846099007" cy="100.39133694436815" r="2" style="fill: steelblue;"></circle><circle cx="46.05933692720201" cy="128.17445264922247" r="2" style="fill: steelblue;"></circle><circle cx="118.62331380446751" cy="114.03391460577647" r="2" style="fill: steelblue;"></circle><circle cx="73.71679610676235" cy="152.75740491019354" r="2" style="fill: steelblue;"></circle><circle cx="96.17303477393257" cy="161.4094893137614" r="2" style="fill: steelblue;"></circle><circle cx="95.55372099081674" cy="163.16230959362454" r="2" style="fill: steelblue;"></circle><circle cx="150.62595076031155" cy="94.93029771579637" r="2" style="fill: steelblue;"></circle><circle cx="114.03849182857407" cy="38.5755717754364" r="2" style="fill: steelblue;"></circle><circle cx="84.30497348308563" cy="22.714050610860205" r="2" style="fill: steelblue;"></circle><circle cx="159.82827213075424" cy="20.367303159501816" r="2" style="fill: steelblue;"></circle><circle cx="156.21655186017352" cy="49.4690391752455" r="2" style="fill: steelblue;"></circle><circle cx="115.45570774210823" cy="86.68342762523227" r="2" style="fill: steelblue;"></circle><circle cx="102.82138486703236" cy="61.122128036287094" r="2" style="fill: steelblue;"></circle><circle cx="45.9219151073032" cy="131.84955252541437" r="2" style="fill: steelblue;"></circle><circle cx="71.8380974398719" cy="107.9164763291677" r="2" style="fill: steelblue;"></circle><circle cx="52.5924629635281" cy="86.72807585034106" r="2" style="fill: steelblue;"></circle><circle cx="54.799669318728974" cy="142.28507412804498" r="2" style="fill: steelblue;"></circle><circle cx="85.12121107843187" cy="117.80785388416714" r="2" style="fill: steelblue;"></circle><circle cx="146.46363920635648" cy="113.75664869944255" r="2" style="fill: steelblue;"></circle><circle cx="106.55015334486961" cy="1.6178276803758385" r="2" style="fill: steelblue;"></circle><circle cx="155.27875224749246" cy="88.39017522210877" r="2" style="fill: steelblue;"></circle><circle cx="129.73345981703864" cy="106.02688822481367" r="2" style="fill: steelblue;"></circle><circle cx="167.18200842539468" cy="35.442599323060776" r="2" style="fill: steelblue;"></circle><circle cx="165.30576348304749" cy="85.31327247619629" r="2" style="fill: steelblue;"></circle><circle cx="67.17816326353285" cy="55.58689965142145" r="2" style="fill: steelblue;"></circle><circle cx="51.840762297312416" cy="111.77971329953935" r="2" style="fill: steelblue;"></circle><circle cx="112.81230331708987" cy="53.41499249140422" r="2" style="fill: steelblue;"></circle><circle cx="22.228691313001843" cy="101.48866590526369" r="2" style="fill: steelblue;"></circle><circle cx="75.38895474539864" cy="78.44044715166092" r="2" style="fill: steelblue;"></circle><circle cx="110.5413503634433" cy="40.454604890611435" r="2" style="fill: steelblue;"></circle><circle cx="91.42283764150407" cy="58.56236682997811" r="2" style="fill: steelblue;"></circle><circle cx="111.34991013548441" cy="103.78881659772661" r="2" style="fill: steelblue;"></circle><circle cx="81.11354377534654" cy="157.19303687413534" r="2" style="fill: steelblue;"></circle><circle cx="129.9162424272961" cy="96.51470796929466" r="2" style="fill: steelblue;"></circle><circle cx="88.34241992897456" cy="104.55105735196008" r="2" style="fill: steelblue;"></circle><circle cx="105.93245385421646" cy="113.9676656987932" r="2" style="fill: steelblue;"></circle><circle cx="69.16602121459114" cy="92.39064728220303" r="2" style="fill: steelblue;"></circle><circle cx="84.02213950951894" cy="114.18673263655768" r="2" style="fill: steelblue;"></circle><circle cx="49.71721437242296" cy="135.1832071940104" r="2" style="fill: steelblue;"></circle><circle cx="22.187219725714787" cy="109.45114857620663" r="2" style="fill: steelblue;"></circle><circle cx="122.27735088931189" cy="130.40562669436136" r="2" style="fill: steelblue;"></circle><circle cx="76.62165496084425" cy="155.20330137676663" r="2" style="fill: steelblue;"></circle><circle cx="70.83092464341057" cy="90.3076887751619" r="2" style="fill: steelblue;"></circle><circle cx="78.55240503946939" cy="123.00121320618524" r="2" style="fill: steelblue;"></circle><circle cx="79.347163438797" cy="181.92746109432645" r="2" style="fill: steelblue;"></circle><circle cx="91.40988190968831" cy="140.0135940975613" r="2" style="fill: steelblue;"></circle><circle cx="58.35306975576613" cy="143.05418597327338" r="2" style="fill: steelblue;"></circle><circle cx="62.805400954352486" cy="72.24624554316203" r="2" style="fill: steelblue;"></circle><circle cx="111.15480793523602" cy="66.16466442743938" r="2" style="fill: steelblue;"></circle><circle cx="162.17645009358722" cy="104.92952201101515" r="2" style="fill: steelblue;"></circle><circle cx="156.44850002394782" cy="100.16225063138538" r="2" style="fill: steelblue;"></circle><circle cx="125.37346945868597" cy="42.02830659018624" r="2" style="fill: steelblue;"></circle><circle cx="153.49125862121582" cy="24.663440386454273" r="2" style="fill: steelblue;"></circle><circle cx="105.69813847541809" cy="65.84568354818556" r="2" style="fill: steelblue;"></circle><circle cx="117.62432919608221" cy="56.2344213326772" r="2" style="fill: steelblue;"></circle><circle cx="167.98863146040176" cy="34.29641524950664" r="2" style="fill: steelblue;"></circle><circle cx="161.67232394218445" cy="69.08651722802057" r="2" style="fill: steelblue;"></circle><circle cx="106.56592870752017" cy="33.00618992911446" r="2" style="fill: steelblue;"></circle><circle cx="129.3969733847512" cy="48.71136479907565" r="2" style="fill: steelblue;"></circle><circle cx="132.3944197760688" cy="36.45727899339464" r="2" style="fill: steelblue;"></circle><circle cx="111.66492140748434" cy="119.09526454077826" r="2" style="fill: steelblue;"></circle><circle cx="66.79257419374254" cy="131.31115039189658" r="2" style="fill: steelblue;"></circle><circle cx="72.34279645813835" cy="109.74256230725183" r="2" style="fill: steelblue;"></circle><circle cx="96.90782924493153" cy="96.296593050162" r="2" style="fill: steelblue;"></circle><circle cx="105.96961817807622" cy="60.98094118965997" r="2" style="fill: steelblue;"></circle><circle cx="86.12096971935695" cy="111.44200993908777" r="2" style="fill: steelblue;"></circle><circle cx="156.01433979140387" cy="56.67635003725688" r="2" style="fill: steelblue;"></circle><circle cx="177.63664325078327" cy="52.70018047756619" r="2" style="fill: steelblue;"></circle><circle cx="101.94593750768237" cy="33.57744084464181" r="2" style="fill: steelblue;"></circle><circle cx="161.77418165736728" cy="44.03409891658359" r="2" style="fill: steelblue;"></circle><circle cx="111.7736188073953" cy="14.45887353685167" r="2" style="fill: steelblue;"></circle><circle cx="142.17090275552536" cy="91.56670164730814" r="2" style="fill: steelblue;"></circle><circle cx="168.86201832029556" cy="4.588271511925601" r="2" style="fill: steelblue;"></circle><circle cx="157.59433640374075" cy="1.9572430186801437" r="2" style="fill: steelblue;"></circle><circle cx="155.33291631274753" cy="84.09849132100742" r="2" style="fill: steelblue;"></circle><circle cx="146.20666702588397" cy="68.27503144741058" r="2" style="fill: steelblue;"></circle><circle cx="133.32486318217383" cy="40.0542504257626" r="2" style="fill: steelblue;"></circle><circle cx="124.05299312538571" cy="35.71416470739577" r="2" style="fill: steelblue;"></circle><circle cx="140.72760608461166" cy="102.06695430808597" r="2" style="fill: steelblue;"></circle><circle cx="127.50810219181908" cy="87.37204660558038" r="2" style="fill: steelblue;"></circle><circle cx="126.4910962846544" cy="55.83159327507019" r="2" style="fill: steelblue;"></circle><circle cx="186.00647979312473" cy="135.84997124142117" r="2" style="fill: steelblue;"></circle><circle cx="144.51635546154446" cy="133.05335442225137" r="2" style="fill: steelblue;"></circle><circle cx="151.85832977294922" cy="38.795751333236694" r="2" style="fill: steelblue;"></circle><circle cx="125.62246455086601" cy="105.44482072194418" r="2" style="fill: steelblue;"></circle><circle cx="121.00459552473492" cy="73.35640854305692" r="2" style="fill: steelblue;"></circle><circle cx="135.65885689523483" cy="35.22870474391513" r="2" style="fill: steelblue;"></circle><circle cx="151.49656931559244" cy="40.73732627762689" r="2" style="fill: steelblue;"></circle><circle cx="144.97750335269504" cy="17.280305756462955" r="2" style="fill: steelblue;"></circle><circle cx="69.12723183631897" cy="90.55393253349595" r="2" style="fill: steelblue;"></circle><circle cx="96.9882325993644" cy="105.949291255739" r="2" style="fill: steelblue;"></circle><circle cx="47.25121789508396" cy="124.69014061821832" r="2" style="fill: steelblue;"></circle><circle cx="36.13342179192437" cy="114.56636124187045" r="2" style="fill: steelblue;"></circle><circle cx="61.199085579978096" cy="135.57719389597574" r="2" style="fill: steelblue;"></circle><circle cx="146.32383982340497" cy="115.1072402795156" r="2" style="fill: steelblue;"></circle></g></svg>