<svg xmlns="http://www.w3.org/2000/svg"><g><circle cx="22.419559955596927" cy="86.26283539666069" r="2" style="fill: steelblue;"></circle><circle cx="16.911356896162037" cy="70.95828155676523" r="2" style="fill: steelblue;"></circle><circle cx="53.99223389104009" cy="73.13560114966498" r="2" style="fill: steelblue;"></circle><circle cx="29.31068204343319" cy="84.90247196621364" r="2" style="fill: steelblue;"></circle><circle cx="15.54191038012505" cy="44.47403881284926" r="2" style="fill: steelblue;"></circle><circle cx="45.41853228583932" cy="65.6915803750356" r="2" style="fill: steelblue;"></circle><circle cx="30.506420135498047" cy="42.157375978098976" r="2" style="fill: steelblue;"></circle><circle cx="5.0533480942249325" cy="75.9053412410948" r="2" style="fill: steelblue;"></circle><circle cx="29.069435968995094" cy="67.12462670273251" r="2" style="fill: steelblue;"></circle><circle cx="25.55752284824848" cy="60.864661302831436" r="2" style="fill: steelblue;"></circle><circle cx="34.623183496296406" cy="64.57760516140196" r="2" style="fill: steelblue;"></circle><circle cx="61.58340647816658" cy="71.20735612180498" r="2" style="fill: steelblue;"></circle><circle cx="34.87969394773245" cy="80.08059859275818" r="2" style="fill: steelblue;"></circle><circle cx="54.833643324673176" cy="69.61705784002939" r="2" style="fill: steelblue;"></circle><circle cx="18.81782449781895" cy="79.24842337767282" r="2" style="fill: steelblue;"></circle><circle cx="30.107204988598824" cy="93.4202704164717" r="2" style="fill: steelblue;"></circle><circle cx="63.62768281251192" cy="48.500671154922905" r="2" style="fill: steelblue;"></circle><circle cx="38.46178688108921" cy="30.335472689734566" r="2" style="fill: steelblue;"></circle><circle cx="41.35947972536087" cy="49.41626348429256" r="2" style="fill: steelblue;"></circle><circle cx="79.64040264487267" cy="68.35089541143842" r="2" style="fill: steelblue;"></circle><circle cx="67.20892079174519" cy="73.61965212557051" r="2" style="fill: steelblue;"></circle><circle cx="41.08402710407972" cy="25.150693125194966" r="2" style="fill: steelblue;"></circle><circle cx="27.586274966597557" cy="51.87758679191271" r="2" style="fill: steelblue;"></circle><circle cx="28.357577696442604" cy="76.32306880421109" r="2" style="fill: steelblue;"></circle><circle cx="21.12653218209744" cy="77.32770343621571" r="2" style="fill: steelblue;"></circle><circle cx="8.11446383595467" cy="79.12138601144154" r="2" style="fill: steelblue;"></circle><circle cx="27.51440294086933" cy="91.71887569957309" r="2" style="fill: steelblue;"></circle><circle cx="52.786809112876654" cy="32.80821277035607" r="2" style="fill: steelblue;"></circle><circle cx="10.251569747924808" cy="74.3539896276262" r="2" style="fill: steelblue;"></circle><circle cx="47.56471021100879" cy="55.164006719779636" r="2" style="fill: steelblue;"></circle><circle cx="76.69778652489185" cy="18.644677268134224" r="2" style="fill: steelblue;"></circle><circle cx="88.99319842457771" cy="37.57355444961124" r="2" style="fill: steelblue;"></circle><circle cx="68.52369122207165" cy="24.785995483398438" r="2" style="fill: steelblue;"></circle><circle cx="69.55843716859818" cy="32.735955384042526" r="2" style="fill: steelblue;"></circle><circle cx="65.36552608013153" cy="28.999229272206627" r="2" style="fill: steelblue;"></circle><circle cx="75.06574802100658" cy="74.36858945422702" r="2" style="fill: steelblue;"></circle><circle cx="67.00508035719395" cy="62.61357913414637" r="2" style="fill: steelblue;"></circle><circle cx="43.31946577876806" cy="70.71872717804379" r="2" style="fill: steelblue;"></circle><circle cx="19.39177624881268" cy="57.03863191107909" r="2" style="fill: steelblue;"></circle><circle cx="19.118800014257435" cy="71.16628852155473" r="2" style="fill: steelblue;"></circle><circle cx="50.25767501210794" cy="91.71436230341592" r="2" style="fill: steelblue;"></circle><circle cx="32.90135897696018" cy="46.54688802030351" r="2" style="fill: steelblue;"></circle><circle cx="92.44597256183624" cy="33.537318309148155" r="2" style="fill: steelblue;"></circle><circle cx="61.86859142035246" cy="45.36635759803984" r="2" style="fill: steelblue;"></circle><circle cx="71.49147726595402" cy="40.5329234070248" r="2" style="fill: steelblue;"></circle><circle cx="43.02837997674942" cy="26.920408010482788" r="2" style="fill: steelblue;"></circle><circle cx="52.851443365216255" cy="46.28582298755646" r="2" style="fill: steelblue;"></circle><circle cx="82.68235921859741" cy="83.18457504113515" r="2" style="fill: steelblue;"></circle><circle cx="27.42554359138012" cy="84.67951748106215" r="2" style="fill: steelblue;"></circle><circle cx="30.953585356473923" cy="53.524985288580254" r="2" style="fill: steelblue;"></circle><circle cx="55.24752587080002" cy="55.12716641856564" r="2" style="fill: steelblue;"></circle><circle cx="57.03898537904024" cy="34.05473795202043" r="2" style="fill: steelblue;"></circle><circle cx="67.15612038969994" cy="78.22192708651224" r="2" style="fill: steelblue;"></circle><circle cx="76.93707123398781" cy="53.01769181258149" r="2" style="fill: steelblue;"></circle><circle cx="37.07024473696947" cy="69.67366238435109" r="2" style="fill: steelblue;"></circle><circle cx="7.602575421333316" cy="54.119085996515224" r="2" style="fill: steelblue;"></circle><circle cx="10.146017372608188" cy="65.04554384284549" r="2" style="fill: steelblue;"></circle><circle cx="56.37445319443941" cy="72.37818506028917" r="2" style="fill: steelblue;"></circle><circle cx="31.592359021306038" cy="41.2424686882231" r="2" style="fill: steelblue;"></circle><circle cx="40.51580112427473" cy="38.04280029402839" r="2" style="fill: steelblue;"></circle><circle cx="45.68274710327387" cy="81.54566751586067" r="2" style="fill: steelblue;"></circle><circle cx="83.19317102432251" cy="51.2069563070933" r="2" style="fill: steelblue;"></circle><circle cx="9.792941808700565" cy="56.68224011444383" r="2" style="fill: steelblue;"></circle><circle cx="22.451226785779003" cy="92.45698319541084" r="2" style="fill: steelblue;"></circle><circle cx="53.788757836446166" cy="87.27190891901651" r="2" style="fill: steelblue;"></circle><circle cx="64.07914701849222" cy="96.7999365594652" r="2" style="fill: steelblue;"></circle><circle cx="46.53474404476583" cy="68.74421570036147" r="2" style="fill: steelblue;"></circle><circle cx="14.20182287693024" cy="90.49762619866264" r="2" style="fill: steelblue;"></circle><circle cx="8.817448467016224" cy="73.55026735199822" r="2" style="fill: steelblue;"></circle><circle cx="47.19929997809231" cy="44.38577261235979" r="2" style="fill: steelblue;"></circle><circle cx="22.100565209984783" cy="54.242966179218556" r="2" style="fill: steelblue;"></circle><circle cx="78.57469767332077" cy="28.458030687438118" r="2" style="fill: steelblue;"></circle><circle cx="60.74833609163761" cy="71.52594129244486" r="2" style="fill: steelblue;"></circle><circle cx="75.58978646993637" cy="61.5762977136506" r="2" style="fill: steelblue;"></circle><circle cx="67.27763377130032" cy="42.991403076383804" r="2" style="fill: steelblue;"></circle><circle cx="49.585462297545746" cy="17.842123905817665" r="2" style="fill: steelblue;"></circle><circle cx="75.57698078453541" cy="59.01776585314009" r="2" style="fill: steelblue;"></circle><circle cx="70.56855149567127" cy="26.753607723448013" r="2" style="fill: steelblue;"></circle><circle cx="55.29261212795973" cy="19.809027512868248" r="2" style="fill: steelblue;"></circle><circle cx="49.33120928471908" cy="16.896761125988434" r="2" style="fill: steelblue;"></circle><circle cx="47.0347648486495" cy="35.53084863556756" r="2" style="fill: steelblue;"></circle><circle cx="81.74613043665886" cy="30.249620477358498" r="2" style="fill: steelblue;"></circle><circle cx="69.4674227386713" cy="75.39971007241142" r="2" style="fill: steelblue;"></circle><circle cx="23.844174295663837" cy="52.012882712814545" r="2" style="fill: steelblue;"></circle><circle cx="13.589746505022053" cy="67.33294741974936" r="2" style="fill: steelblue;"></circle><circle cx="34.324412420392036" cy="31.91706207063463" r="2" style="fill: steelblue;"></circle><circle cx="34.78159308433533" cy="50.134062353107666" r="2" style="fill: steelblue;"></circle><circle cx="67.71005801856518" cy="73.7621933221817" r="2" style="fill: steelblue;"></circle><circle cx="33.441488817334175" cy="32.41207864549425" r="2" style="fill: steelblue;"></circle><circle cx="63.98883014917374" cy="56.37034396123555" r="2" style="fill: steelblue;"></circle><circle cx="69.93410848081112" cy="42.62561847766241" r="2" style="fill: steelblue;"></circle><circle cx="67.5710916519165" cy="43.242271575662826" r="2" style="fill: steelblue;"></circle><circle cx="66.0768423229456" cy="61.89508322212431" r="2" style="fill: steelblue;"></circle><circle cx="80.34951724112034" cy="42.93133566776911" r="2" style="fill: steelblue;"></circle><circle cx="72.98163808882236" cy="19.594338205125595" r="2" style="fill: steelblue;"></circle><circle cx="89.43033888936043" cy="33.227549658881294" r="2" style="fill: steelblue;"></circle><circle cx="85.20035371184349" cy="38.65750299559699" r="2" style="fill: steelblue;"></circle><circle cx="73.04414287209511" cy="74.17886621422238" r="2" style="fill: steelblue;"></circle><circle cx="57.101322524249554" cy="15.704419877794052" r="2" style="fill: steelblue;"></circle><circle cx="67.42861047387123" cy="10.342333051893448" r="2" style="fill: steelblue;"></circle><circle cx="90.89723527431488" cy="54.039339224497475" r="2" style="fill: steelblue;"></circle><circle cx="58.92631430178881" cy="31.960757242308723" r="2" style="fill: steelblue;"></circle><circle cx="74.41776730120182" cy="72.72884084118736" r="2" style="fill: steelblue;"></circle><circle cx="43.528444319963455" cy="9.945521752039587" r="2" style="fill: steelblue;"></circle><circle cx="44.566853158175945" cy="40.3888291782803" r="2" style="fill: steelblue;"></circle><circle cx="58.239259012043476" cy="40.36462638113234" r="2" style="fill: steelblue;"></circle><circle cx="55.775755271315575" cy="47.08433896303177" r="2" style="fill: steelblue;"></circle><circle cx="42.55911819636822" cy="59.47650348146756" r="2" style="fill: steelblue;"></circle><circle cx="60.777479968965054" cy="24.88414115375943" r="2" style="fill: steelblue;"></circle><circle cx="59.54417325556278" cy="10.555638207329643" r="2" style="fill: steelblue;"></circle><circle cx="81.16823919117451" cy="26.199645466274678" r="2" style="fill: steelblue;"></circle><circle cx="68.16284470260143" cy="51.871754229068756" r="2" style="fill: steelblue;"></circle><circle cx="46.49000237695873" cy="68.81013098690245" r="2" style="fill: steelblue;"></circle><circle cx="18.997135758399967" cy="39.45130109786987" r="2" style="fill: steelblue;"></circle><circle cx="9.863197058439258" cy="33.97894402345022" r="2" style="fill: steelblue;"></circle><circle cx="60.315450839698315" cy="74.71053302288055" r="2" style="fill: steelblue;"></circle><circle cx="17.775981873273853" cy="72.91565669907463" r="2" style="fill: steelblue;"></circle><circle cx="54.77242702618241" cy="53.340736155708626" r="2" style="fill: steelblue;"></circle></g></svg>