<svg xmlns="http://www.w3.org/2000/svg"><g><circle cx="60.809774117337334" cy="77.58044004440308" r="2" style="fill: steelblue;"></circle><circle cx="43.500415152973595" cy="83.08864310383797" r="2" style="fill: steelblue;"></circle><circle cx="44.9428293440077" cy="46.00776610895991" r="2" style="fill: steelblue;"></circle><circle cx="39.483941263622704" cy="70.68931795656681" r="2" style="fill: steelblue;"></circle><circle cx="17.428275611665516" cy="84.45808961987495" r="2" style="fill: steelblue;"></circle><circle cx="44.25669130351808" cy="54.58146771416068" r="2" style="fill: steelblue;"></circle><circle cx="67.14345680342781" cy="69.49357986450195" r="2" style="fill: steelblue;"></circle><circle cx="35.38847797446781" cy="94.94665190577507" r="2" style="fill: steelblue;"></circle><circle cx="43.548867934279976" cy="70.9305640310049" r="2" style="fill: steelblue;"></circle><circle cx="85.17070280181038" cy="74.44247715175152" r="2" style="fill: steelblue;"></circle><circle cx="51.29135358664725" cy="65.3768165037036" r="2" style="fill: steelblue;"></circle><circle cx="63.67455588446723" cy="38.41659352183342" r="2" style="fill: steelblue;"></circle><circle cx="37.162939707438156" cy="65.12030605226755" r="2" style="fill: steelblue;"></circle><circle cx="41.23287399609883" cy="45.166356675326824" r="2" style="fill: steelblue;"></circle><circle cx="43.39102076159583" cy="81.18217550218105" r="2" style="fill: steelblue;"></circle><circle cx="10.573731528388128" cy="69.89279501140118" r="2" style="fill: steelblue;"></circle><circle cx="64.64185731278526" cy="36.37231718748808" r="2" style="fill: steelblue;"></circle><circle cx="73.04871247874367" cy="61.53821311891079" r="2" style="fill: steelblue;"></circle><circle cx="63.68368201785617" cy="58.64052027463913" r="2" style="fill: steelblue;"></circle><circle cx="70.44068806701236" cy="20.359597355127335" r="2" style="fill: steelblue;"></circle><circle cx="91.47618214289346" cy="32.791079208254814" r="2" style="fill: steelblue;"></circle><circle cx="71.00213236278957" cy="58.91597289592028" r="2" style="fill: steelblue;"></circle><circle cx="20.50169971254137" cy="72.41372503340244" r="2" style="fill: steelblue;"></circle><circle cx="36.58006423049503" cy="71.6424223035574" r="2" style="fill: steelblue;"></circle><circle cx="23.029668463601006" cy="78.87346781790257" r="2" style="fill: steelblue;"></circle><circle cx="59.31165690223376" cy="91.88553616404533" r="2" style="fill: steelblue;"></circle><circle cx="36.85839805338117" cy="72.48559705913067" r="2" style="fill: steelblue;"></circle><circle cx="48.086517386966285" cy="47.213190887123346" r="2" style="fill: steelblue;"></circle><circle cx="47.77686049540837" cy="89.7484302520752" r="2" style="fill: steelblue;"></circle><circle cx="75.31297538015578" cy="52.43528978899121" r="2" style="fill: steelblue;"></circle><circle cx="57.01924591428703" cy="23.302213475108147" r="2" style="fill: steelblue;"></circle><circle cx="42.152486741542816" cy="11.006801575422287" r="2" style="fill: steelblue;"></circle><circle cx="79.91413606537712" cy="31.476308777928352" r="2" style="fill: steelblue;"></circle><circle cx="78.10827593008676" cy="30.441562831401825" r="2" style="fill: steelblue;"></circle><circle cx="57.727853871054116" cy="34.63447391986847" r="2" style="fill: steelblue;"></circle><circle cx="51.41069243351618" cy="24.934251978993416" r="2" style="fill: steelblue;"></circle><circle cx="22.9609575536516" cy="32.99491964280605" r="2" style="fill: steelblue;"></circle><circle cx="35.91904871993595" cy="56.68053422123194" r="2" style="fill: steelblue;"></circle><circle cx="26.29623148176405" cy="80.60822375118732" r="2" style="fill: steelblue;"></circle><circle cx="27.399834659364487" cy="80.88119998574257" r="2" style="fill: steelblue;"></circle><circle cx="42.560605539215935" cy="49.74232498789206" r="2" style="fill: steelblue;"></circle><circle cx="73.23181960317824" cy="67.09864102303982" r="2" style="fill: steelblue;"></circle><circle cx="53.27507667243481" cy="7.554027438163757" r="2" style="fill: steelblue;"></circle><circle cx="77.63937612374623" cy="38.13140857964754" r="2" style="fill: steelblue;"></circle><circle cx="64.86672990851932" cy="28.508522734045982" r="2" style="fill: steelblue;"></circle><circle cx="83.59100421269734" cy="56.97162002325058" r="2" style="fill: steelblue;"></circle><circle cx="82.65288174152374" cy="47.148556634783745" r="2" style="fill: steelblue;"></circle><circle cx="33.589081631766426" cy="17.317640781402588" r="2" style="fill: steelblue;"></circle><circle cx="25.920381148656208" cy="72.57445640861988" r="2" style="fill: steelblue;"></circle><circle cx="56.406151658544935" cy="69.04641464352608" r="2" style="fill: steelblue;"></circle><circle cx="11.114345656500921" cy="44.75247412919998" r="2" style="fill: steelblue;"></circle><circle cx="37.69447737269932" cy="42.96101462095976" r="2" style="fill: steelblue;"></circle><circle cx="55.27067518172165" cy="32.843879610300064" r="2" style="fill: steelblue;"></circle><circle cx="45.71141882075204" cy="23.06292876601219" r="2" style="fill: steelblue;"></circle><circle cx="55.674955067742204" cy="62.92975526303053" r="2" style="fill: steelblue;"></circle><circle cx="40.55677188767327" cy="92.39742457866669" r="2" style="fill: steelblue;"></circle><circle cx="64.95812121364806" cy="89.85398262739182" r="2" style="fill: steelblue;"></circle><circle cx="44.17120996448728" cy="43.62554680556059" r="2" style="fill: steelblue;"></circle><circle cx="52.96622692710823" cy="68.40764097869396" r="2" style="fill: steelblue;"></circle><circle cx="34.58301060729557" cy="59.48419887572527" r="2" style="fill: steelblue;"></circle><circle cx="42.01106975475947" cy="54.31725289672613" r="2" style="fill: steelblue;"></circle><circle cx="24.85860718621148" cy="16.80682897567749" r="2" style="fill: steelblue;"></circle><circle cx="11.093609862857393" cy="90.20705819129944" r="2" style="fill: steelblue;"></circle><circle cx="61.138675444655945" cy="77.548773214221" r="2" style="fill: steelblue;"></circle><circle cx="38.31082748042213" cy="46.211242163553834" r="2" style="fill: steelblue;"></circle><circle cx="35.415462321705284" cy="35.92085298150778" r="2" style="fill: steelblue;"></circle><circle cx="39.276202519734696" cy="53.46525595523417" r="2" style="fill: steelblue;"></circle><circle cx="39.6735817193985" cy="85.79817712306976" r="2" style="fill: steelblue;"></circle><circle cx="45.704940954844155" cy="91.18255153298378" r="2" style="fill: steelblue;"></circle><circle cx="29.176534877883064" cy="52.80070002190769" r="2" style="fill: steelblue;"></circle><circle cx="31.402700477176243" cy="77.89943479001522" r="2" style="fill: steelblue;"></circle><circle cx="55.57740396761801" cy="21.42530232667923" r="2" style="fill: steelblue;"></circle><circle cx="81.08822504679361" cy="39.25166390836239" r="2" style="fill: steelblue;"></circle><circle cx="78.22425001197391" cy="24.41021353006363" r="2" style="fill: steelblue;"></circle><circle cx="62.68673472934299" cy="32.722366228699684" r="2" style="fill: steelblue;"></circle><circle cx="76.74562931060791" cy="50.414537702454254" r="2" style="fill: steelblue;"></circle><circle cx="52.849069237709045" cy="24.423019215464592" r="2" style="fill: steelblue;"></circle><circle cx="58.81216459804111" cy="29.431448504328728" r="2" style="fill: steelblue;"></circle><circle cx="83.99431573020088" cy="44.70738787204027" r="2" style="fill: steelblue;"></circle><circle cx="80.83616197109222" cy="50.66879071528092" r="2" style="fill: steelblue;"></circle><circle cx="53.282964353760086" cy="52.9652351513505" r="2" style="fill: steelblue;"></circle><circle cx="64.6984866923756" cy="18.25386956334114" r="2" style="fill: steelblue;"></circle><circle cx="66.1972098880344" cy="30.532577261328697" r="2" style="fill: steelblue;"></circle><circle cx="55.83246070374217" cy="76.15582570433617" r="2" style="fill: steelblue;"></circle><circle cx="33.39628709687127" cy="86.41025349497795" r="2" style="fill: steelblue;"></circle><circle cx="36.171398229069176" cy="65.67558757960796" r="2" style="fill: steelblue;"></circle><circle cx="48.45391462246577" cy="65.21840691566467" r="2" style="fill: steelblue;"></circle><circle cx="52.98480908903811" cy="32.28994198143482" r="2" style="fill: steelblue;"></circle><circle cx="43.060484859678475" cy="66.55851118266582" r="2" style="fill: steelblue;"></circle><circle cx="78.00716989570194" cy="36.01116985082626" r="2" style="fill: steelblue;"></circle><circle cx="88.81832162539163" cy="30.06589151918888" r="2" style="fill: steelblue;"></circle><circle cx="50.97296875384119" cy="32.428908348083496" r="2" style="fill: steelblue;"></circle><circle cx="80.88709082868364" cy="33.923157677054405" r="2" style="fill: steelblue;"></circle><circle cx="55.88680940369765" cy="19.65048275887966" r="2" style="fill: steelblue;"></circle><circle cx="71.08545137776268" cy="27.018361911177635" r="2" style="fill: steelblue;"></circle><circle cx="84.43100916014778" cy="10.569661110639572" r="2" style="fill: steelblue;"></circle><circle cx="78.79716820187038" cy="14.79964628815651" r="2" style="fill: steelblue;"></circle><circle cx="77.66645815637376" cy="26.955857127904892" r="2" style="fill: steelblue;"></circle><circle cx="73.10333351294199" cy="42.898677475750446" r="2" style="fill: steelblue;"></circle><circle cx="66.66243159108691" cy="32.57138952612877" r="2" style="fill: steelblue;"></circle><circle cx="62.026496562692856" cy="9.10276472568512" r="2" style="fill: steelblue;"></circle><circle cx="70.36380304230583" cy="41.07368569821119" r="2" style="fill: steelblue;"></circle><circle cx="63.75405109590954" cy="25.58223269879818" r="2" style="fill: steelblue;"></circle><circle cx="63.2455481423272" cy="56.471555680036545" r="2" style="fill: steelblue;"></circle><circle cx="93.00323989656236" cy="55.433146841824055" r="2" style="fill: steelblue;"></circle><circle cx="72.25817773077223" cy="41.760740987956524" r="2" style="fill: steelblue;"></circle><circle cx="75.92916488647461" cy="44.224244728684425" r="2" style="fill: steelblue;"></circle><circle cx="62.81123227543301" cy="57.44088180363178" r="2" style="fill: steelblue;"></circle><circle cx="60.50229776236746" cy="39.222520031034946" r="2" style="fill: steelblue;"></circle><circle cx="67.82942844761742" cy="40.45582674443722" r="2" style="fill: steelblue;"></circle><circle cx="75.74828465779622" cy="18.831760808825493" r="2" style="fill: steelblue;"></circle><circle cx="72.48875167634752" cy="31.837155297398567" r="2" style="fill: steelblue;"></circle><circle cx="34.563615918159485" cy="53.50999762304127" r="2" style="fill: steelblue;"></circle><circle cx="48.4941162996822" cy="81.00286424160004" r="2" style="fill: steelblue;"></circle><circle cx="23.62560894754198" cy="90.13680294156075" r="2" style="fill: steelblue;"></circle><circle cx="18.066710895962185" cy="39.684549160301685" r="2" style="fill: steelblue;"></circle><circle cx="30.599542789989048" cy="82.22401812672615" r="2" style="fill: steelblue;"></circle><circle cx="73.16191991170248" cy="45.22757297381759" r="2" style="fill: steelblue;"></circle></g></svg>