<svg xmlns="http://www.w3.org/2000/svg"><g><circle cx="60.809774117337334" cy="68.31309795379639" r="2" style="fill: steelblue;"></circle><circle cx="43.500415152973595" cy="49.01090322269334" r="2" style="fill: steelblue;"></circle><circle cx="44.9428293440077" cy="82.2656942738427" r="2" style="fill: steelblue;"></circle><circle cx="39.483941263622704" cy="61.410747634039986" r="2" style="fill: steelblue;"></circle><circle cx="17.428275611665516" cy="34.70790982246399" r="2" style="fill: steelblue;"></circle><circle cx="44.25669130351808" cy="55.45826355616252" r="2" style="fill: steelblue;"></circle><circle cx="67.14345680342781" cy="64.72678747442033" r="2" style="fill: steelblue;"></circle><circle cx="35.38847797446781" cy="48.39637767937448" r="2" style="fill: steelblue;"></circle><circle cx="43.548867934279976" cy="46.869658099280464" r="2" style="fill: steelblue;"></circle><circle cx="85.17070280181038" cy="56.21754477421443" r="2" style="fill: steelblue;"></circle><circle cx="51.29135358664725" cy="65.12721478939056" r="2" style="fill: steelblue;"></circle><circle cx="63.67455588446723" cy="30.76473391718335" r="2" style="fill: steelblue;"></circle><circle cx="37.162939707438156" cy="75.02628631061978" r="2" style="fill: steelblue;"></circle><circle cx="41.23287399609883" cy="33.048585222827064" r="2" style="fill: steelblue;"></circle><circle cx="43.39102076159583" cy="58.7404727935791" r="2" style="fill: steelblue;"></circle><circle cx="10.573731528388128" cy="50.700348450077904" r="2" style="fill: steelblue;"></circle><circle cx="64.64185731278526" cy="60.56431531906128" r="2" style="fill: steelblue;"></circle><circle cx="73.04871247874367" cy="50.65390898121728" r="2" style="fill: steelblue;"></circle><circle cx="63.68368201785617" cy="36.364609334203934" r="2" style="fill: steelblue;"></circle><circle cx="70.44068806701236" cy="51.619025733735825" r="2" style="fill: steelblue;"></circle><circle cx="91.47618214289346" cy="30.490760339630974" r="2" style="fill: steelblue;"></circle><circle cx="71.00213236278957" cy="29.239372412363686" r="2" style="fill: steelblue;"></circle><circle cx="20.50169971254137" cy="17.294455899132622" r="2" style="fill: steelblue;"></circle><circle cx="36.58006423049503" cy="50.195668472184074" r="2" style="fill: steelblue;"></circle><circle cx="23.029668463601006" cy="64.08722632461124" r="2" style="fill: steelblue;"></circle><circle cx="59.31165690223376" cy="57.01695730288824" r="2" style="fill: steelblue;"></circle><circle cx="36.85839805338117" cy="76.37870245509677" r="2" style="fill: steelblue;"></circle><circle cx="48.086517386966285" cy="80.7047446568807" r="2" style="fill: steelblue;"></circle><circle cx="47.77686049540837" cy="81.58115479681227" r="2" style="fill: steelblue;"></circle><circle cx="75.31297538015578" cy="47.465148857898185" r="2" style="fill: steelblue;"></circle><circle cx="57.01924591428703" cy="19.2877858877182" r="2" style="fill: steelblue;"></circle><circle cx="42.152486741542816" cy="11.357025305430103" r="2" style="fill: steelblue;"></circle><circle cx="79.91413606537712" cy="10.183651579750908" r="2" style="fill: steelblue;"></circle><circle cx="78.10827593008676" cy="24.73451958762275" r="2" style="fill: steelblue;"></circle><circle cx="57.727853871054116" cy="43.341713812616135" r="2" style="fill: steelblue;"></circle><circle cx="51.41069243351618" cy="30.561064018143547" r="2" style="fill: steelblue;"></circle><circle cx="22.9609575536516" cy="65.92477626270718" r="2" style="fill: steelblue;"></circle><circle cx="35.91904871993595" cy="53.95823816458385" r="2" style="fill: steelblue;"></circle><circle cx="26.29623148176405" cy="43.36403792517053" r="2" style="fill: steelblue;"></circle><circle cx="27.399834659364487" cy="71.14253706402249" r="2" style="fill: steelblue;"></circle><circle cx="42.560605539215935" cy="58.90392694208357" r="2" style="fill: steelblue;"></circle><circle cx="73.23181960317824" cy="56.878324349721275" r="2" style="fill: steelblue;"></circle><circle cx="53.27507667243481" cy="0.8089138401879192" r="2" style="fill: steelblue;"></circle><circle cx="77.63937612374623" cy="44.19508761105438" r="2" style="fill: steelblue;"></circle><circle cx="64.86672990851932" cy="53.01344411240684" r="2" style="fill: steelblue;"></circle><circle cx="83.59100421269734" cy="17.721299661530388" r="2" style="fill: steelblue;"></circle><circle cx="82.65288174152374" cy="42.656636238098145" r="2" style="fill: steelblue;"></circle><circle cx="33.589081631766426" cy="27.793449825710724" r="2" style="fill: steelblue;"></circle><circle cx="25.920381148656208" cy="55.889856649769676" r="2" style="fill: steelblue;"></circle><circle cx="56.406151658544935" cy="26.70749624570211" r="2" style="fill: steelblue;"></circle><circle cx="11.114345656500921" cy="50.744332952631844" r="2" style="fill: steelblue;"></circle><circle cx="37.69447737269932" cy="39.22022357583046" r="2" style="fill: steelblue;"></circle><circle cx="55.27067518172165" cy="20.227302445305718" r="2" style="fill: steelblue;"></circle><circle cx="45.71141882075204" cy="29.281183414989055" r="2" style="fill: steelblue;"></circle><circle cx="55.674955067742204" cy="51.894408298863304" r="2" style="fill: steelblue;"></circle><circle cx="40.55677188767327" cy="78.59651843706767" r="2" style="fill: steelblue;"></circle><circle cx="64.95812121364806" cy="48.25735398464733" r="2" style="fill: steelblue;"></circle><circle cx="44.17120996448728" cy="52.27552867598004" r="2" style="fill: steelblue;"></circle><circle cx="52.96622692710823" cy="56.9838328493966" r="2" style="fill: steelblue;"></circle><circle cx="34.58301060729557" cy="46.19532364110152" r="2" style="fill: steelblue;"></circle><circle cx="42.01106975475947" cy="57.09336631827884" r="2" style="fill: steelblue;"></circle><circle cx="24.85860718621148" cy="67.5916035970052" r="2" style="fill: steelblue;"></circle><circle cx="11.093609862857393" cy="54.72557428810332" r="2" style="fill: steelblue;"></circle><circle cx="61.138675444655945" cy="65.20281334718068" r="2" style="fill: steelblue;"></circle><circle cx="38.31082748042213" cy="77.60165068838332" r="2" style="fill: steelblue;"></circle><circle cx="35.415462321705284" cy="45.15384438758095" r="2" style="fill: steelblue;"></circle><circle cx="39.276202519734696" cy="61.50060660309262" r="2" style="fill: steelblue;"></circle><circle cx="39.6735817193985" cy="90.96373054716322" r="2" style="fill: steelblue;"></circle><circle cx="45.704940954844155" cy="70.00679704878065" r="2" style="fill: steelblue;"></circle><circle cx="29.176534877883064" cy="71.52709298663669" r="2" style="fill: steelblue;"></circle><circle cx="31.402700477176243" cy="36.123122771581016" r="2" style="fill: steelblue;"></circle><circle cx="55.57740396761801" cy="33.08233221371969" r="2" style="fill: steelblue;"></circle><circle cx="81.08822504679361" cy="52.464761005507576" r="2" style="fill: steelblue;"></circle><circle cx="78.22425001197391" cy="50.08112531569269" r="2" style="fill: steelblue;"></circle><circle cx="62.68673472934299" cy="21.01415329509312" r="2" style="fill: steelblue;"></circle><circle cx="76.74562931060791" cy="12.331720193227136" r="2" style="fill: steelblue;"></circle><circle cx="52.849069237709045" cy="32.92284177409278" r="2" style="fill: steelblue;"></circle><circle cx="58.81216459804111" cy="28.1172106663386" r="2" style="fill: steelblue;"></circle><circle cx="83.99431573020088" cy="17.14820762475332" r="2" style="fill: steelblue;"></circle><circle cx="80.83616197109222" cy="34.543258614010284" r="2" style="fill: steelblue;"></circle><circle cx="53.282964353760086" cy="16.50309496455723" r="2" style="fill: steelblue;"></circle><circle cx="64.6984866923756" cy="24.355682399537827" r="2" style="fill: steelblue;"></circle><circle cx="66.1972098880344" cy="18.22863949669732" r="2" style="fill: steelblue;"></circle><circle cx="55.83246070374217" cy="59.54763227038913" r="2" style="fill: steelblue;"></circle><circle cx="33.39628709687127" cy="65.65557519594829" r="2" style="fill: steelblue;"></circle><circle cx="36.171398229069176" cy="54.871281153625915" r="2" style="fill: steelblue;"></circle><circle cx="48.45391462246577" cy="48.148296525081" r="2" style="fill: steelblue;"></circle><circle cx="52.98480908903811" cy="30.490470594829986" r="2" style="fill: steelblue;"></circle><circle cx="43.060484859678475" cy="55.721004969543884" r="2" style="fill: steelblue;"></circle><circle cx="78.00716989570194" cy="28.33817501862844" r="2" style="fill: steelblue;"></circle><circle cx="88.81832162539163" cy="26.350090238783096" r="2" style="fill: steelblue;"></circle><circle cx="50.97296875384119" cy="16.788720422320903" r="2" style="fill: steelblue;"></circle><circle cx="80.88709082868364" cy="22.017049458291794" r="2" style="fill: steelblue;"></circle><circle cx="55.88680940369765" cy="7.229436768425835" r="2" style="fill: steelblue;"></circle><circle cx="71.08545137776268" cy="45.78335082365407" r="2" style="fill: steelblue;"></circle><circle cx="84.43100916014778" cy="2.2941357559628006" r="2" style="fill: steelblue;"></circle><circle cx="78.79716820187038" cy="0.9786215093400719" r="2" style="fill: steelblue;"></circle><circle cx="77.66645815637376" cy="42.04924566050371" r="2" style="fill: steelblue;"></circle><circle cx="73.10333351294199" cy="34.13751572370529" r="2" style="fill: steelblue;"></circle><circle cx="66.66243159108691" cy="20.0271252128813" r="2" style="fill: steelblue;"></circle><circle cx="62.026496562692856" cy="17.857082353697884" r="2" style="fill: steelblue;"></circle><circle cx="70.36380304230583" cy="51.033477154042984" r="2" style="fill: steelblue;"></circle><circle cx="63.75405109590954" cy="43.68602330279019" r="2" style="fill: steelblue;"></circle><circle cx="63.2455481423272" cy="27.915796637535095" r="2" style="fill: steelblue;"></circle><circle cx="93.00323989656236" cy="67.92498562071059" r="2" style="fill: steelblue;"></circle><circle cx="72.25817773077223" cy="66.52667721112569" r="2" style="fill: steelblue;"></circle><circle cx="75.92916488647461" cy="19.397875666618347" r="2" style="fill: steelblue;"></circle><circle cx="62.81123227543301" cy="52.72241036097209" r="2" style="fill: steelblue;"></circle><circle cx="60.50229776236746" cy="36.67820427152846" r="2" style="fill: steelblue;"></circle><circle cx="67.82942844761742" cy="17.614352371957565" r="2" style="fill: steelblue;"></circle><circle cx="75.74828465779622" cy="20.368663138813446" r="2" style="fill: steelblue;"></circle><circle cx="72.48875167634752" cy="8.640152878231477" r="2" style="fill: steelblue;"></circle><circle cx="34.563615918159485" cy="45.276966266747976" r="2" style="fill: steelblue;"></circle><circle cx="48.4941162996822" cy="52.9746456278695" r="2" style="fill: steelblue;"></circle><circle cx="23.62560894754198" cy="62.34507030910916" r="2" style="fill: steelblue;"></circle><circle cx="18.066710895962185" cy="57.28318062093523" r="2" style="fill: steelblue;"></circle><circle cx="30.599542789989048" cy="67.78859694798787" r="2" style="fill: steelblue;"></circle><circle cx="73.16191991170248" cy="57.5536201397578" r="2" style="fill: steelblue;"></circle></g></svg>