<svg xmlns="http://www.w3.org/2000/svg"><g transform="translate(40,20)"><circle cx="431.36942625045776" cy="127.53649966584311" r="3" style="fill: steelblue;"></circle><circle cx="348.7976217269898" cy="187.11837319036323" r="3" style="fill: steelblue;"></circle><circle cx="349.7120136022568" cy="162.99389799435932" r="3" style="fill: steelblue;"></circle><circle cx="185.76553702354434" cy="186.86059593326513" r="3" style="fill: steelblue;"></circle><circle cx="294.1421502828598" cy="107.3760911822319" r="3" style="fill: steelblue;"></circle><circle cx="424.4033718109131" cy="116.21228191587659" r="3" style="fill: steelblue;"></circle><circle cx="342.68349051475525" cy="119.0012204978201" r="3" style="fill: steelblue;"></circle><circle cx="263.71619269251823" cy="79.78464994165631" r="3" style="fill: steelblue;"></circle><circle cx="267.6593081653118" cy="63.92407748434278" r="3" style="fill: steelblue;"></circle><circle cx="369.78047132492065" cy="76.99633141358692" r="3" style="fill: steelblue;"></circle><circle cx="243.07968920096755" cy="130.20025110907022" r="3" style="fill: steelblue;"></circle><circle cx="260.06693333387375" cy="138.03518232372073" r="3" style="fill: steelblue;"></circle><circle cx="166.05915516614914" cy="149.01299277941388" r="3" style="fill: steelblue;"></circle><circle cx="324.08249616622925" cy="178.36424687670336" r="3" style="fill: steelblue;"></circle><circle cx="288.2930079102516" cy="225.91860509581034" r="3" style="fill: steelblue;"></circle><circle cx="255.47902487218383" cy="130.91793739133408" r="3" style="fill: steelblue;"></circle><circle cx="242.9797243885696" cy="148.5692399243514" r="3" style="fill: steelblue;"></circle><circle cx="304.25308138132095" cy="60.248606734805655" r="3" style="fill: steelblue;"></circle><circle cx="326.3139599561691" cy="140.02813978327646" r="3" style="fill: steelblue;"></circle><circle cx="428.43632340431213" cy="123.79697213570279" r="3" style="fill: steelblue;"></circle><circle cx="194.29940074682236" cy="195.19609085465265" r="3" style="fill: steelblue;"></circle><circle cx="125.9509527683258" cy="92.4431367052926" r="3" style="fill: steelblue;"></circle><circle cx="297.64484256505966" cy="291.49869001573984" r="3" style="fill: steelblue;"></circle><circle cx="386.5099632740021" cy="168.71269254220857" r="3" style="fill: steelblue;"></circle><circle cx="215.19817650318146" cy="189.83710733138855" r="3" style="fill: steelblue;"></circle><circle cx="141.32957696914673" cy="147.92516041133138" r="3" style="fill: steelblue;"></circle><circle cx="139.6068924665451" cy="243.02569735381337" r="3" style="fill: steelblue;"></circle><circle cx="323.54359567165375" cy="251.91875050465262" r="3" style="fill: steelblue;"></circle><circle cx="350.89550256729126" cy="256.0836697618166" r="3" style="fill: steelblue;"></circle><circle cx="378.42068016529083" cy="97.27121227317384" r="3" style="fill: steelblue;"></circle><circle cx="274.77584570646286" cy="245.43555991517172" r="3" style="fill: steelblue;"></circle><circle cx="215.78342109918594" cy="172.33635837005244" r="3" style="fill: steelblue;"></circle><circle cx="393.85776758193975" cy="257.21960845920773" r="3" style="fill: steelblue;"></circle><circle cx="116.74394845962526" cy="246.52818176481458" r="3" style="fill: steelblue;"></circle><circle cx="251.43247559666634" cy="118.86874337991077" r="3" style="fill: steelblue;"></circle><circle cx="225.0703876465559" cy="171.0159724785222" r="3" style="fill: steelblue;"></circle><circle cx="62.006106376647956" cy="245.0635623600748" r="3" style="fill: steelblue;"></circle><circle cx="219.92453947663307" cy="235.34452501270505" r="3" style="fill: steelblue;"></circle><circle cx="324.6595376729965" cy="234.65106139580405" r="3" style="fill: steelblue;"></circle><circle cx="261.1225390434265" cy="230.3525495032469" r="3" style="fill: steelblue;"></circle><circle cx="144.70674633979797" cy="186.64329457614156" r="3" style="fill: steelblue;"></circle><circle cx="231.80465452373028" cy="249.5725999275843" r="3" style="fill: steelblue;"></circle><circle cx="166.8634915351868" cy="229.13951550920802" r="3" style="fill: steelblue;"></circle><circle cx="168.7180691957474" cy="213.11726545294124" r="3" style="fill: steelblue;"></circle><circle cx="172.4933186173439" cy="211.55827326907053" r="3" style="fill: steelblue;"></circle><circle cx="254.58428911864758" cy="243.59995126724243" r="3" style="fill: steelblue;"></circle><circle cx="275.5385921895504" cy="236.8808823327223" r="3" style="fill: steelblue;"></circle><circle cx="118.64747643470764" cy="270.71069429318106" r="3" style="fill: steelblue;"></circle><circle cx="367.4148166179657" cy="206.3256944012311" r="3" style="fill: steelblue;"></circle><circle cx="178.28969299793246" cy="158.3137371473842" r="3" style="fill: steelblue;"></circle><circle cx="329.5131558179856" cy="201.08453618983424" r="3" style="fill: steelblue;"></circle><circle cx="305.6798243522644" cy="242.1693131327629" r="3" style="fill: steelblue;"></circle><circle cx="261.3422544300556" cy="217.83724592791663" r="3" style="fill: steelblue;"></circle><circle cx="63.8569736480713" cy="290.20079556438657" r="3" style="fill: steelblue;"></circle><circle cx="71.2654495239258" cy="120.64314633607864" r="3" style="fill: steelblue;"></circle><circle cx="165.03181546926498" cy="206.00805514388617" r="3" style="fill: steelblue;"></circle><circle cx="228.7767802923918" cy="246.8719176120228" r="3" style="fill: steelblue;"></circle><circle cx="171.5987527370453" cy="146.71292031804722" r="3" style="fill: steelblue;"></circle><circle cx="154.20660316944122" cy="315.0363696946038" r="3" style="fill: steelblue;"></circle><circle cx="309.71518099308014" cy="236.94796404904787" r="3" style="fill: steelblue;"></circle><circle cx="113.75560104846956" cy="137.1933635738161" r="3" style="fill: steelblue;"></circle><circle cx="345.8172047138214" cy="223.80871242947046" r="3" style="fill: steelblue;"></circle><circle cx="226.99266873300076" cy="132.10264593362808" r="3" style="fill: steelblue;"></circle><circle cx="392.8524219989777" cy="86.38937109046513" r="3" style="fill: steelblue;"></circle><circle cx="297.9501673579216" cy="173.7407630102502" r="3" style="fill: steelblue;"></circle><circle cx="317.32453644275665" cy="128.7075090739462" r="3" style="fill: steelblue;"></circle><circle cx="178.9759674668312" cy="204.04512248933315" r="3" style="fill: steelblue;"></circle><circle cx="339.2795526981354" cy="67.4492402209176" r="3" style="fill: steelblue;"></circle><circle cx="499.2885732650757" cy="195.90964170897172" r="3" style="fill: steelblue;"></circle><circle cx="272.31799453496933" cy="21.164745092391968" r="3" style="fill: steelblue;"></circle><circle cx="376.5344077348709" cy="161.56497225165367" r="3" style="fill: steelblue;"></circle><circle cx="269.30842861533165" cy="268.63386150863437" r="3" style="fill: steelblue;"></circle><circle cx="313.1167942285538" cy="232.44578474097784" r="3" style="fill: steelblue;"></circle><circle cx="352.6793771982193" cy="208.1175305777126" r="3" style="fill: steelblue;"></circle><circle cx="192.96943634748462" cy="281.24124308427173" r="3" style="fill: steelblue;"></circle><circle cx="205.30747041106227" cy="260.2835496266683" r="3" style="fill: steelblue;"></circle><circle cx="167.51123160123825" cy="147.87760749459267" r="3" style="fill: steelblue;"></circle><circle cx="128.0721598863602" cy="215.8265169709921" r="3" style="fill: steelblue;"></circle><circle cx="109.91372108459474" cy="274.53917347722586" r="3" style="fill: steelblue;"></circle><circle cx="124.23010110855103" cy="177.04353212482397" r="3" style="fill: steelblue;"></circle><circle cx="160.9201276302338" cy="163.07798193560706" r="3" style="fill: steelblue;"></circle><circle cx="361.6910809278488" cy="239.40353964765865" r="3" style="fill: steelblue;"></circle><circle cx="163.35110306739807" cy="206.2515320463313" r="3" style="fill: steelblue;"></circle><circle cx="314.38752204179764" cy="182.47638622091876" r="3" style="fill: steelblue;"></circle><circle cx="138.0611085891724" cy="178.8280109564463" r="3" style="fill: steelblue;"></circle><circle cx="337.6993292570114" cy="205.91195186393128" r="3" style="fill: steelblue;"></circle><circle cx="271.58094361424446" cy="229.8394954866833" r="3" style="fill: steelblue;"></circle><circle cx="331.98930859565735" cy="205.24658987091647" r="3" style="fill: steelblue;"></circle><circle cx="331.40911996364594" cy="77.91841526826221" r="3" style="fill: steelblue;"></circle><circle cx="378.60938251018524" cy="69.95389858881634" r="3" style="fill: steelblue;"></circle><circle cx="401.96526288986206" cy="117.93851769632762" r="3" style="fill: steelblue;"></circle><circle cx="361.2052345275879" cy="171.58134136762885" r="3" style="fill: steelblue;"></circle><circle cx="349.0073347091675" cy="214.91688924531138" r="3" style="fill: steelblue;"></circle><circle cx="274.41383466124535" cy="134.22615660561456" r="3" style="fill: steelblue;"></circle><circle cx="160.67164778709414" cy="229.42755950821768" r="3" style="fill: steelblue;"></circle><circle cx="288.19948822259903" cy="285.6932762596342" r="3" style="fill: steelblue;"></circle><circle cx="176.11120730638504" cy="246.47051675452124" r="3" style="fill: steelblue;"></circle><circle cx="83.9286231994629" cy="255.45711980925665" r="3" style="fill: steelblue;"></circle><circle cx="152.08052337169647" cy="266.3622564739651" r="3" style="fill: steelblue;"></circle><circle cx="363.4935700893402" cy="133.4448829293251" r="3" style="fill: steelblue;"></circle><circle cx="194.05147969722748" cy="240.92022329568863" r="3" style="fill: steelblue;"></circle><circle cx="218.56059595942497" cy="205.5694974131054" r="3" style="fill: steelblue;"></circle><circle cx="174.22840833663943" cy="194.880900801056" r="3" style="fill: steelblue;"></circle><circle cx="132.44726300239563" cy="201.95564234422312" r="3" style="fill: steelblue;"></circle><circle cx="127.26636171340944" cy="299.29387403859033" r="3" style="fill: steelblue;"></circle><circle cx="174.1832399368286" cy="241.9003169569704" r="3" style="fill: steelblue;"></circle><circle cx="362.1015751361847" cy="160.5536701778571" r="3" style="fill: steelblue;"></circle><circle cx="258.2647727429867" cy="170.4289321270254" r="3" style="fill: steelblue;"></circle><circle cx="288.43453019857407" cy="221.02365063296423" r="3" style="fill: steelblue;"></circle><circle cx="335.73715031147003" cy="111.47863417863846" r="3" style="fill: steelblue;"></circle><circle cx="424.0862452983856" cy="108.0484381980366" r="3" style="fill: steelblue;"></circle><circle cx="320.4642409086228" cy="203.9780900296238" r="3" style="fill: steelblue;"></circle><circle cx="59.57411170005799" cy="306.5276543299357" r="3" style="fill: steelblue;"></circle><circle cx="237.89125523529947" cy="220.24989873170853" r="3" style="fill: steelblue;"></circle><circle cx="162.4065899848938" cy="258.8666280110677" r="3" style="fill: steelblue;"></circle><circle cx="200.31062453985217" cy="221.30316744248069" r="3" style="fill: steelblue;"></circle><circle cx="241.0009609395638" cy="207.65119646158485" r="3" style="fill: steelblue;"></circle><circle cx="240.03805607557297" cy="224.1729593111409" r="3" style="fill: steelblue;"></circle></g></svg>