<svg xmlns="http://www.w3.org/2000/svg"><g><circle cx="14.770379662513733" cy="77.96299457550049" r="2" style="fill: steelblue;"></circle><circle cx="30.349788069725037" cy="59.6589669585228" r="2" style="fill: steelblue;"></circle><circle cx="59.702398627996445" cy="61.341821402311325" r="2" style="fill: steelblue;"></circle><circle cx="41.05459749698639" cy="54.03400883078575" r="2" style="fill: steelblue;"></circle><circle cx="56.38028308749199" cy="58.83096754550934" r="2" style="fill: steelblue;"></circle><circle cx="17.051950097084045" cy="76.35443806648254" r="2" style="fill: steelblue;"></circle><circle cx="49.772182200104" cy="36.30523681640625" r="2" style="fill: steelblue;"></circle><circle cx="57.924485951662064" cy="43.659765273332596" r="2" style="fill: steelblue;"></circle><circle cx="34.70764607191086" cy="55.857522413134575" r="2" style="fill: steelblue;"></circle><circle cx="34.599995613098145" cy="45.384445786476135" r="2" style="fill: steelblue;"></circle><circle cx="37.87140995264053" cy="77.95657515525818" r="2" style="fill: steelblue;"></circle><circle cx="45.54692879319191" cy="64.82372432947159" r="2" style="fill: steelblue;"></circle><circle cx="45.14731802046299" cy="91.24099314212799" r="2" style="fill: steelblue;"></circle><circle cx="23.338085412979126" cy="62.15927302837372" r="2" style="fill: steelblue;"></circle><circle cx="54.41786088049412" cy="43.00777465105057" r="2" style="fill: steelblue;"></circle><circle cx="14.765819907188416" cy="73.84037971496582" r="2" style="fill: steelblue;"></circle><circle cx="26.811407506465912" cy="72.02651798725128" r="2" style="fill: steelblue;"></circle><circle cx="67.29426681995392" cy="57.89051726460457" r="2" style="fill: steelblue;"></circle><circle cx="50.55094105191529" cy="31.53521418571472" r="2" style="fill: steelblue;"></circle><circle cx="78.9130836725235" cy="40.7518744468689" r="2" style="fill: steelblue;"></circle><circle cx="49.66583042405546" cy="41.87542125582695" r="2" style="fill: steelblue;"></circle><circle cx="54.556525498628616" cy="39.04068097472191" r="2" style="fill: steelblue;"></circle><circle cx="59.838926047086716" cy="55.399364605546" r="2" style="fill: steelblue;"></circle><circle cx="28.500083088874817" cy="53.55382077395916" r="2" style="fill: steelblue;"></circle><circle cx="61.32168844342232" cy="43.25411170721054" r="2" style="fill: steelblue;"></circle><circle cx="30.08050173521042" cy="71.51899933815002" r="2" style="fill: steelblue;"></circle><circle cx="39.619775116443634" cy="70.22558003664017" r="2" style="fill: steelblue;"></circle><circle cx="39.676619321107864" cy="77.92846858501434" r="2" style="fill: steelblue;"></circle><circle cx="23.788118362426758" cy="42.9277777671814" r="2" style="fill: steelblue;"></circle><circle cx="54.3805118650198" cy="50.22773137316108" r="2" style="fill: steelblue;"></circle><circle cx="72.54134714603424" cy="9.292793273925781" r="2" style="fill: steelblue;"></circle><circle cx="71.50287330150604" cy="9.970930218696594" r="2" style="fill: steelblue;"></circle><circle cx="81.37311637401581" cy="41.1520317196846" r="2" style="fill: steelblue;"></circle><circle cx="47.44942933320999" cy="44.26210708916187" r="2" style="fill: steelblue;"></circle><circle cx="55.09973578155041" cy="41.21790677309036" r="2" style="fill: steelblue;"></circle><circle cx="41.93370118737221" cy="55.547669157385826" r="2" style="fill: steelblue;"></circle><circle cx="50.95364656299353" cy="69.98981982469559" r="2" style="fill: steelblue;"></circle><circle cx="32.411424815654755" cy="64.89157229661942" r="2" style="fill: steelblue;"></circle><circle cx="19.538041949272156" cy="62.05235719680786" r="2" style="fill: steelblue;"></circle><circle cx="21.12640142440796" cy="68.03193390369415" r="2" style="fill: steelblue;"></circle><circle cx="9.456852078437805" cy="62.63139992952347" r="2" style="fill: steelblue;"></circle><circle cx="65.15545099973679" cy="44.64488476514816" r="2" style="fill: steelblue;"></circle><circle cx="23.9138662815094" cy="33.31102281808853" r="2" style="fill: steelblue;"></circle><circle cx="62.50302344560623" cy="56.66622593998909" r="2" style="fill: steelblue;"></circle><circle cx="68.19115877151489" cy="46.843716874718666" r="2" style="fill: steelblue;"></circle><circle cx="63.784608244895935" cy="70.66988199949265" r="2" style="fill: steelblue;"></circle><circle cx="75.86694657802582" cy="34.81080383062363" r="2" style="fill: steelblue;"></circle><circle cx="27.315524220466614" cy="67.2365054488182" r="2" style="fill: steelblue;"></circle><circle cx="26.585301756858826" cy="72.57867157459259" r="2" style="fill: steelblue;"></circle><circle cx="34.499940276145935" cy="62.84918040037155" r="2" style="fill: steelblue;"></circle><circle cx="58.458470553159714" cy="65.52006155252457" r="2" style="fill: steelblue;"></circle><circle cx="73.16857427358627" cy="37.87057027220726" r="2" style="fill: steelblue;"></circle><circle cx="63.03853541612625" cy="42.834681272506714" r="2" style="fill: steelblue;"></circle><circle cx="37.752486765384674" cy="49.31806530803442" r="2" style="fill: steelblue;"></circle><circle cx="47.58428055793047" cy="57.942015677690506" r="2" style="fill: steelblue;"></circle><circle cx="54.85990680754185" cy="62.84809708595276" r="2" style="fill: steelblue;"></circle><circle cx="53.151752054691315" cy="64.18083310127258" r="2" style="fill: steelblue;"></circle><circle cx="27.02210545539856" cy="55.80214820802212" r="2" style="fill: steelblue;"></circle><circle cx="44.41794492304325" cy="67.73124635219574" r="2" style="fill: steelblue;"></circle><circle cx="38.52541968226433" cy="70.08515894412994" r="2" style="fill: steelblue;"></circle><circle cx="57.01616331934929" cy="79.3896347284317" r="2" style="fill: steelblue;"></circle><circle cx="42.02144145965576" cy="54.73991148173809" r="2" style="fill: steelblue;"></circle><circle cx="16.33695662021637" cy="76.75122618675232" r="2" style="fill: steelblue;"></circle><circle cx="15.971487760543823" cy="54.29356284439564" r="2" style="fill: steelblue;"></circle><circle cx="31.497643887996674" cy="63.05438280105591" r="2" style="fill: steelblue;"></circle><circle cx="40.509284287691116" cy="82.14889168739319" r="2" style="fill: steelblue;"></circle><circle cx="26.426105201244354" cy="48.402261920273304" r="2" style="fill: steelblue;"></circle><circle cx="40.508174896240234" cy="52.27547809481621" r="2" style="fill: steelblue;"></circle><circle cx="19.21028196811676" cy="73.78451079130173" r="2" style="fill: steelblue;"></circle><circle cx="34.94899421930313" cy="80.6109607219696" r="2" style="fill: steelblue;"></circle><circle cx="20.43212056159973" cy="26.97260081768036" r="2" style="fill: steelblue;"></circle><circle cx="52.582635171711445" cy="17.594102025032043" r="2" style="fill: steelblue;"></circle><circle cx="58.550599962472916" cy="37.42448687553406" r="2" style="fill: steelblue;"></circle><circle cx="72.27054685354233" cy="72.36301004886627" r="2" style="fill: steelblue;"></circle><circle cx="66.0333588719368" cy="54.67668958008289" r="2" style="fill: steelblue;"></circle><circle cx="34.338656067848206" cy="56.4179353415966" r="2" style="fill: steelblue;"></circle><circle cx="64.10422325134277" cy="58.518023788928986" r="2" style="fill: steelblue;"></circle><circle cx="69.30467784404755" cy="40.91363921761513" r="2" style="fill: steelblue;"></circle><circle cx="68.50477904081345" cy="31.518247723579407" r="2" style="fill: steelblue;"></circle><circle cx="77.19546854496002" cy="20.711255073547363" r="2" style="fill: steelblue;"></circle><circle cx="83.36285650730133" cy="30.84801882505417" r="2" style="fill: steelblue;"></circle><circle cx="79.19363975524902" cy="56.96817860007286" r="2" style="fill: steelblue;"></circle><circle cx="51.44479274749756" cy="48.3757097274065" r="2" style="fill: steelblue;"></circle><circle cx="39.16694223880768" cy="79.85512018203735" r="2" style="fill: steelblue;"></circle><circle cx="35.1365864276886" cy="60.975464433431625" r="2" style="fill: steelblue;"></circle><circle cx="51.658470183610916" cy="68.43589544296265" r="2" style="fill: steelblue;"></circle><circle cx="43.39080974459648" cy="60.55543124675751" r="2" style="fill: steelblue;"></circle><circle cx="34.536221623420715" cy="63.56920599937439" r="2" style="fill: steelblue;"></circle><circle cx="30.554932355880737" cy="25.613585114479065" r="2" style="fill: steelblue;"></circle><circle cx="67.99358874559402" cy="67.01485812664032" r="2" style="fill: steelblue;"></circle><circle cx="61.57868951559067" cy="37.64584884047508" r="2" style="fill: steelblue;"></circle><circle cx="91.98991358280182" cy="62.0198979973793" r="2" style="fill: steelblue;"></circle><circle cx="85.70870459079742" cy="30.5345818400383" r="2" style="fill: steelblue;"></circle><circle cx="59.04022455215454" cy="30.473831295967102" r="2" style="fill: steelblue;"></circle><circle cx="59.75715517997742" cy="22.610384225845337" r="2" style="fill: steelblue;"></circle><circle cx="54.221295565366745" cy="18.97335648536682" r="2" style="fill: steelblue;"></circle><circle cx="75.33791065216064" cy="34.48998034000397" r="2" style="fill: steelblue;"></circle><circle cx="80.41203320026398" cy="39.25054892897606" r="2" style="fill: steelblue;"></circle><circle cx="60.86973547935486" cy="44.16503123939037" r="2" style="fill: steelblue;"></circle><circle cx="55.753712356090546" cy="68.15562695264816" r="2" style="fill: steelblue;"></circle><circle cx="52.2905258461833" cy="36.715395748615265" r="2" style="fill: steelblue;"></circle><circle cx="40.865008533000946" cy="37.789708375930786" r="2" style="fill: steelblue;"></circle><circle cx="55.66446669399738" cy="43.102799355983734" r="2" style="fill: steelblue;"></circle><circle cx="86.59546673297882" cy="46.02564573287964" r="2" style="fill: steelblue;"></circle><circle cx="37.022753059864044" cy="41.86473563313484" r="2" style="fill: steelblue;"></circle><circle cx="67.68258512020111" cy="17.196151614189148" r="2" style="fill: steelblue;"></circle><circle cx="72.01222479343414" cy="38.716042786836624" r="2" style="fill: steelblue;"></circle><circle cx="77.7965098619461" cy="56.25912547111511" r="2" style="fill: steelblue;"></circle><circle cx="64.8368775844574" cy="34.87640470266342" r="2" style="fill: steelblue;"></circle><circle cx="59.067096561193466" cy="56.59109875559807" r="2" style="fill: steelblue;"></circle><circle cx="82.07729160785675" cy="17.972740530967712" r="2" style="fill: steelblue;"></circle><circle cx="35.91125011444092" cy="35.2172926068306" r="2" style="fill: steelblue;"></circle><circle cx="28.515371680259705" cy="49.9204360647127" r="2" style="fill: steelblue;"></circle><circle cx="31.41009360551834" cy="62.24094554781914" r="2" style="fill: steelblue;"></circle><circle cx="51.58290322870016" cy="72.44293242692947" r="2" style="fill: steelblue;"></circle><circle cx="65.05420356988907" cy="66.20021760463715" r="2" style="fill: steelblue;"></circle><circle cx="60.040684044361115" cy="51.38602200895548" r="2" style="fill: steelblue;"></circle><circle cx="25.045859813690186" cy="72.41701185703278" r="2" style="fill: steelblue;"></circle></g></svg>