<svg xmlns="http://www.w3.org/2000/svg"><g transform="translate(40,20)"><circle cx="417.72736608982086" cy="94.87334224912854" r="3" style="fill: steelblue;"></circle><circle cx="329.9423038959503" cy="183.40844671345417" r="3" style="fill: steelblue;"></circle><circle cx="465.0030791759491" cy="78.45969332589044" r="3" style="fill: steelblue;"></circle><circle cx="427.63177156448364" cy="212.96262430648005" r="3" style="fill: steelblue;"></circle><circle cx="431.95421397686005" cy="201.20066445734767" r="3" style="fill: steelblue;"></circle><circle cx="473.13918471336365" cy="130.96186849806043" r="3" style="fill: steelblue;"></circle><circle cx="290.9536678344011" cy="62.50391072697108" r="3" style="fill: steelblue;"></circle><circle cx="377.66568660736084" cy="118.45725940333472" r="3" style="fill: steelblue;"></circle><circle cx="392.4568623304367" cy="81.40454358524745" r="3" style="fill: steelblue;"></circle><circle cx="495.0160324573517" cy="159.12870524658098" r="3" style="fill: steelblue;"></circle><circle cx="432.67385959625244" cy="73.18597866429224" r="3" style="fill: steelblue;"></circle><circle cx="322.43172079324717" cy="162.05084820588428" r="3" style="fill: steelblue;"></circle><circle cx="371.3753119111061" cy="124.12748403019374" r="3" style="fill: steelblue;"></circle><circle cx="289.16010707616806" cy="188.03582402567065" r="3" style="fill: steelblue;"></circle><circle cx="405.05772829055786" cy="64.90033202701146" r="3" style="fill: steelblue;"></circle><circle cx="273.671755939722" cy="192.32523919911023" r="3" style="fill: steelblue;"></circle><circle cx="325.65192729234695" cy="206.34316094219685" r="3" style="fill: steelblue;"></circle><circle cx="318.64895671606064" cy="214.36427057617243" r="3" style="fill: steelblue;"></circle><circle cx="463.67765665054316" cy="50.038115845786194" r="3" style="fill: steelblue;"></circle><circle cx="472.14324474334717" cy="219.7283146282037" r="3" style="fill: steelblue;"></circle><circle cx="309.89646390080446" cy="146.7627853982978" r="3" style="fill: steelblue;"></circle><circle cx="469.2459762096405" cy="175.76728305882875" r="3" style="fill: steelblue;"></circle><circle cx="350.2136930823326" cy="245.38353333870566" r="3" style="fill: steelblue;"></circle><circle cx="459.5446586608887" cy="92.51889917585584" r="3" style="fill: steelblue;"></circle><circle cx="200.68800151348114" cy="209.9817051655716" r="3" style="fill: steelblue;"></circle><circle cx="305.8133002370596" cy="172.03468477560415" r="3" style="fill: steelblue;"></circle><circle cx="334.708122164011" cy="176.81008328994113" r="3" style="fill: steelblue;"></circle><circle cx="236.3959193229675" cy="143.13181655274497" r="3" style="fill: steelblue;"></circle><circle cx="200.75160562992096" cy="185.28837182869512" r="3" style="fill: steelblue;"></circle><circle cx="292.0863155275583" cy="248.54755815532474" r="3" style="fill: steelblue;"></circle><circle cx="317.31649450957775" cy="226.51759742034804" r="3" style="fill: steelblue;"></circle><circle cx="319.73259150981903" cy="213.84060900244447" r="3" style="fill: steelblue;"></circle><circle cx="341.57855808734894" cy="264.31397514210806" r="3" style="fill: steelblue;"></circle><circle cx="58.579015731811516" cy="184.14979355616703" r="3" style="fill: steelblue;"></circle><circle cx="323.1938995420933" cy="185.64451527264384" r="3" style="fill: steelblue;"></circle><circle cx="202.95799970626828" cy="177.62474425964888" r="3" style="fill: steelblue;"></circle><circle cx="188.8749361038208" cy="339.04344174597" r="3" style="fill: steelblue;"></circle><circle cx="208.66400599479675" cy="227.90097238288985" r="3" style="fill: steelblue;"></circle><circle cx="192.36235320568085" cy="184.93487954967554" r="3" style="fill: steelblue;"></circle><circle cx="410.48823595046997" cy="136.3186008400387" r="3" style="fill: steelblue;"></circle><circle cx="405.5218040943146" cy="184.76835234711564" r="3" style="fill: steelblue;"></circle><circle cx="207.25050866603848" cy="193.193343687906" r="3" style="fill: steelblue;"></circle><circle cx="198.20260405540463" cy="266.8926633066601" r="3" style="fill: steelblue;"></circle><circle cx="266.5011964738369" cy="190.22577318052447" r="3" style="fill: steelblue;"></circle><circle cx="147.4622905254364" cy="137.29797303676605" r="3" style="fill: steelblue;"></circle><circle cx="221.334707736969" cy="331.9411476453145" r="3" style="fill: steelblue;"></circle><circle cx="193.62610280513763" cy="207.79092009696694" r="3" style="fill: steelblue;"></circle><circle cx="291.08879026025534" cy="263.58841359615326" r="3" style="fill: steelblue;"></circle><circle cx="119.06064748764038" cy="266.6356480783886" r="3" style="fill: steelblue;"></circle><circle cx="260.13087183237076" cy="168.03659912612704" r="3" style="fill: steelblue;"></circle><circle cx="399.24330711364746" cy="162.70322021510867" r="3" style="fill: steelblue;"></circle><circle cx="237.19139099121094" cy="297.638573580318" r="3" style="fill: steelblue;"></circle><circle cx="315.3746780008077" cy="259.6573821372456" r="3" style="fill: steelblue;"></circle><circle cx="186.08288168907166" cy="215.45978987382517" r="3" style="fill: steelblue;"></circle><circle cx="230.27590066194534" cy="297.9107598463694" r="3" style="fill: steelblue;"></circle><circle cx="448.11317324638367" cy="230.09856500559385" r="3" style="fill: steelblue;"></circle><circle cx="415.2603954076767" cy="276.1748350328869" r="3" style="fill: steelblue;"></circle><circle cx="270.72623893618584" cy="293.49190824561646" r="3" style="fill: steelblue;"></circle><circle cx="230.46255111694336" cy="245.71722663111154" r="3" style="fill: steelblue;"></circle><circle cx="266.98147505521774" cy="192.13396018474464" r="3" style="fill: steelblue;"></circle><circle cx="480.2382230758667" cy="189.27347002964882" r="3" style="fill: steelblue;"></circle><circle cx="271.8162976205349" cy="249.03837425841223" r="3" style="fill: steelblue;"></circle><circle cx="488.07728290557856" cy="171.14030342135163" r="3" style="fill: steelblue;"></circle><circle cx="375.202077627182" cy="192.5588443150951" r="3" style="fill: steelblue;"></circle><circle cx="426.5413910150528" cy="215.46564851370124" r="3" style="fill: steelblue;"></circle><circle cx="435.0666582584381" cy="166.0241853031847" r="3" style="fill: steelblue;"></circle><circle cx="450.35861134529114" cy="109.91325891680187" r="3" style="fill: steelblue;"></circle><circle cx="288.4808801114559" cy="87.33017245928448" r="3" style="fill: steelblue;"></circle><circle cx="422.00391590595245" cy="165.48306660519705" r="3" style="fill: steelblue;"></circle><circle cx="517.593777179718" cy="193.87324607103233" r="3" style="fill: steelblue;"></circle><circle cx="421.37148678302765" cy="200.18497021454903" r="3" style="fill: steelblue;"></circle><circle cx="368.65618228912354" cy="213.12934636241857" r="3" style="fill: steelblue;"></circle><circle cx="144.44283843040466" cy="166.94139275285931" r="3" style="fill: steelblue;"></circle><circle cx="367.6186010241508" cy="170.6685597697894" r="3" style="fill: steelblue;"></circle><circle cx="143.292635679245" cy="311.31969723436566" r="3" style="fill: steelblue;"></circle><circle cx="382.41190910339355" cy="313.03448809517755" r="3" style="fill: steelblue;"></circle><circle cx="262.5616393983364" cy="169.99836845530405" r="3" style="fill: steelblue;"></circle><circle cx="179.0974259376526" cy="329.9865060382419" r="3" style="fill: steelblue;"></circle><circle cx="96.81884050369263" cy="289.8047723703914" r="3" style="fill: steelblue;"></circle><circle cx="90.50976634025574" cy="140.27131100495654" r="3" style="fill: steelblue;"></circle><circle cx="280.67779764533043" cy="283.1743044985665" r="3" style="fill: steelblue;"></circle><circle cx="94.62609887123108" cy="263.46672657463284" r="3" style="fill: steelblue;"></circle><circle cx="194.70341205596924" cy="297.2891181707382" r="3" style="fill: steelblue;"></circle><circle cx="291.8673360720277" cy="196.13295074345336" r="3" style="fill: steelblue;"></circle><circle cx="384.89117324352264" cy="193.90465997599273" r="3" style="fill: steelblue;"></circle><circle cx="422.0234870910644" cy="236.18130510052043" r="3" style="fill: steelblue;"></circle><circle cx="408.2004636526108" cy="107.25515749719409" r="3" style="fill: steelblue;"></circle><circle cx="243.6743125319481" cy="105.55229832728702" r="3" style="fill: steelblue;"></circle><circle cx="289.81441855430603" cy="33.91810589366491" r="3" style="fill: steelblue;"></circle><circle cx="424.12129640579224" cy="110.07270548078748" r="3" style="fill: steelblue;"></circle><circle cx="378.51395308971405" cy="159.3539383676317" r="3" style="fill: steelblue;"></circle><circle cx="340.15941470861435" cy="119.00332404507532" r="3" style="fill: steelblue;"></circle><circle cx="282.62118324637413" cy="89.49402140246497" r="3" style="fill: steelblue;"></circle><circle cx="226.11631304025647" cy="137.63425085279675" r="3" style="fill: steelblue;"></circle><circle cx="375.56272745132446" cy="221.1403917107317" r="3" style="fill: steelblue;"></circle><circle cx="217.85218119621274" cy="235.61617814832266" r="3" style="fill: steelblue;"></circle><circle cx="298.0517691001296" cy="213.93038208285964" r="3" style="fill: steelblue;"></circle><circle cx="273.4004482626915" cy="184.95512764073078" r="3" style="fill: steelblue;"></circle><circle cx="209.01409685611725" cy="233.55489306979712" r="3" style="fill: steelblue;"></circle><circle cx="277.4747371673584" cy="311.4222321245405" r="3" style="fill: steelblue;"></circle><circle cx="353.6987766623497" cy="263.13204235500757" r="3" style="fill: steelblue;"></circle><circle cx="181.87218010425568" cy="211.4513994505008" r="3" style="fill: steelblue;"></circle><circle cx="221.64852619171143" cy="207.4043990837203" r="3" style="fill: steelblue;"></circle><circle cx="97.15213179588318" cy="334.9287062883377" r="3" style="fill: steelblue;"></circle><circle cx="207.27137625217438" cy="282.5782646735509" r="3" style="fill: steelblue;"></circle><circle cx="381.46813809871674" cy="325.24950305620825" r="3" style="fill: steelblue;"></circle><circle cx="507.36225843429565" cy="90.14300339751772" r="3" style="fill: steelblue;"></circle><circle cx="368.9957857131958" cy="65.78824917475384" r="3" style="fill: steelblue;"></circle><circle cx="404.9647629261017" cy="175.19269159270658" r="3" style="fill: steelblue;"></circle><circle cx="416.6475623846054" cy="180.52837107744483" r="3" style="fill: steelblue;"></circle><circle cx="517.1347618103027" cy="130.94237446784973" r="3" style="fill: steelblue;"></circle><circle cx="316.4160590618849" cy="131.6303213437398" r="3" style="fill: steelblue;"></circle><circle cx="364.8401990532875" cy="151.2367696397834" r="3" style="fill: steelblue;"></circle><circle cx="312.3966917395591" cy="193.47995852068482" r="3" style="fill: steelblue;"></circle><circle cx="143.9010500907898" cy="190.10832403889958" r="3" style="fill: steelblue;"></circle><circle cx="274.8260222375393" cy="172.661780897114" r="3" style="fill: steelblue;"></circle><circle cx="240.37340730428693" cy="269.78660540448294" r="3" style="fill: steelblue;"></circle><circle cx="175.5110263824463" cy="295.2664560741848" r="3" style="fill: steelblue;"></circle></g></svg>