<svg xmlns="http://www.w3.org/2000/svg"><g transform="translate(40,20)"><circle cx="240.7090982235968" cy="168.03944152262477" r="3" style="fill: steelblue;"></circle><circle cx="436.7958866804838" cy="138.8849632607566" r="3" style="fill: steelblue;"></circle><circle cx="509.6636165678501" cy="163.0770547522439" r="3" style="fill: steelblue;"></circle><circle cx="384.14502561092377" cy="101.0596313410335" r="3" style="fill: steelblue;"></circle><circle cx="155.499856621027" cy="247.6844431625472" r="3" style="fill: steelblue;"></circle><circle cx="527.7268056571484" cy="109.92861539125443" r="3" style="fill: steelblue;"></circle><circle cx="343.77609852701426" cy="106.17192337910336" r="3" style="fill: steelblue;"></circle><circle cx="354.11655742675066" cy="44.41421561770971" r="3" style="fill: steelblue;"></circle><circle cx="399.554970189929" cy="113.99250643120871" r="3" style="fill: steelblue;"></circle><circle cx="274.04840076807886" cy="169.87671330571175" r="3" style="fill: steelblue;"></circle><circle cx="107.96617761254312" cy="82.43676523367566" r="3" style="fill: steelblue;"></circle><circle cx="182.17198111116886" cy="48.98036188549464" r="3" style="fill: steelblue;"></circle><circle cx="457.2930496931076" cy="166.14263877272606" r="3" style="fill: steelblue;"></circle><circle cx="260.6301095383242" cy="118.14909842279224" r="3" style="fill: steelblue;"></circle><circle cx="397.16862224042416" cy="137.66619231965808" r="3" style="fill: steelblue;"></circle><circle cx="471.95096656680107" cy="38.762801223331046" r="3" style="fill: steelblue;"></circle><circle cx="85.51228612661363" cy="124.97268699937395" r="3" style="fill: steelblue;"></circle><circle cx="509.0992261469364" cy="162.50306740403175" r="3" style="fill: steelblue;"></circle><circle cx="374.72276732325554" cy="151.66881680488586" r="3" style="fill: steelblue;"></circle><circle cx="273.0202910886146" cy="134.0388192070855" r="3" style="fill: steelblue;"></circle><circle cx="457.75860741734505" cy="145.31799323028986" r="3" style="fill: steelblue;"></circle><circle cx="161.23805724084377" cy="234.94627657863828" r="3" style="fill: steelblue;"></circle><circle cx="212.01548248529434" cy="191.94464672667283" r="3" style="fill: steelblue;"></circle><circle cx="365.3200723975897" cy="251.0924446913931" r="3" style="fill: steelblue;"></circle><circle cx="248.76084996387362" cy="136.42711026801004" r="3" style="fill: steelblue;"></circle><circle cx="95.52540823817255" cy="148.39378206266298" r="3" style="fill: steelblue;"></circle><circle cx="301.6527955234051" cy="302.5654289457533" r="3" style="fill: steelblue;"></circle><circle cx="352.3173265904188" cy="159.7366825573974" r="3" style="fill: steelblue;"></circle><circle cx="419.1918783634901" cy="226.0357112520271" r="3" style="fill: steelblue;"></circle><circle cx="223.4294569864869" cy="227.77202725410461" r="3" style="fill: steelblue;"></circle><circle cx="281.7883186787367" cy="164.76348828938274" r="3" style="fill: steelblue;"></circle><circle cx="205.21844632923603" cy="216.82893257174226" r="3" style="fill: steelblue;"></circle><circle cx="160.35346135497093" cy="201.8598070782092" r="3" style="fill: steelblue;"></circle><circle cx="174.5082025229931" cy="216.36798336274092" r="3" style="fill: steelblue;"></circle><circle cx="252.93043607845902" cy="174.28115300006334" r="3" style="fill: steelblue;"></circle><circle cx="326.1558762565255" cy="184.98963262471887" r="3" style="fill: steelblue;"></circle><circle cx="206.79957333952188" cy="218.47038467725116" r="3" style="fill: steelblue;"></circle><circle cx="239.41681997850537" cy="260.4289261831177" r="3" style="fill: steelblue;"></circle><circle cx="213.33391226828098" cy="102.90670808818606" r="3" style="fill: steelblue;"></circle><circle cx="262.7203699015081" cy="322.43579129377997" r="3" style="fill: steelblue;"></circle><circle cx="61.21811091899873" cy="224.08113918370668" r="3" style="fill: steelblue;"></circle><circle cx="54.97038781642915" cy="294.26298869980707" r="3" style="fill: steelblue;"></circle><circle cx="275.39679480716586" cy="157.52702206373215" r="3" style="fill: steelblue;"></circle><circle cx="186.33712649345398" cy="240.6155711246861" r="3" style="fill: steelblue;"></circle><circle cx="316.99068758636713" cy="172.2788150525755" r="3" style="fill: steelblue;"></circle><circle cx="239.41888444125652" cy="329.6004616551929" r="3" style="fill: steelblue;"></circle><circle cx="327.06519540399313" cy="257.84531235694885" r="3" style="fill: steelblue;"></circle><circle cx="253.78319246694446" cy="237.81512387924727" r="3" style="fill: steelblue;"></circle><circle cx="311.7593968100846" cy="278.2404894630114" r="3" style="fill: steelblue;"></circle><circle cx="188.58142632991076" cy="253.79546814494665" r="3" style="fill: steelblue;"></circle><circle cx="195.53595509380102" cy="265.363372862339" r="3" style="fill: steelblue;"></circle><circle cx="398.60392928123474" cy="201.62102186845408" r="3" style="fill: steelblue;"></circle><circle cx="221.90248880535364" cy="298.22860989305707" r="3" style="fill: steelblue;"></circle><circle cx="150.95978870987892" cy="261.96863585048254" r="3" style="fill: steelblue;"></circle><circle cx="293.54210475459695" cy="286.42693907022476" r="3" style="fill: steelblue;"></circle><circle cx="117.50019349157812" cy="280.76214426093634" r="3" style="fill: steelblue;"></circle><circle cx="331.7529993876815" cy="282.4962147408062" r="3" style="fill: steelblue;"></circle><circle cx="243.96175861358643" cy="231.0303118493822" r="3" style="fill: steelblue;"></circle><circle cx="191.83658871799707" cy="308.20382800367145" r="3" style="fill: steelblue;"></circle><circle cx="238.80496451631188" cy="202.12014567934807" r="3" style="fill: steelblue;"></circle><circle cx="407.3160023242235" cy="220.5621798833211" r="3" style="fill: steelblue;"></circle><circle cx="296.5295357443392" cy="87.7779093053606" r="3" style="fill: steelblue;"></circle><circle cx="444.990501254797" cy="168.71481057670383" r="3" style="fill: steelblue;"></circle><circle cx="448.6754138767719" cy="108.0207038256857" r="3" style="fill: steelblue;"></circle><circle cx="430.3331074118614" cy="132.7387226952447" r="3" style="fill: steelblue;"></circle><circle cx="446.5311688184738" cy="98.00284687015744" r="3" style="fill: steelblue;"></circle><circle cx="158.26178088784218" cy="113.60548850562839" r="3" style="fill: steelblue;"></circle><circle cx="444.9619357287884" cy="226.94000477592147" r="3" style="fill: steelblue;"></circle><circle cx="243.86507838964462" cy="247.5341177648968" r="3" style="fill: steelblue;"></circle><circle cx="253.22138325311244" cy="135.7021340065532" r="3" style="fill: steelblue;"></circle><circle cx="344.94907043874264" cy="121.20166420936584" r="3" style="fill: steelblue;"></circle><circle cx="74.6583116054535" cy="178.62554887930548" r="3" style="fill: steelblue;"></circle><circle cx="274.9884850624949" cy="278.4670814871788" r="3" style="fill: steelblue;"></circle><circle cx="192.5291769951582" cy="281.4362645149231" r="3" style="fill: steelblue;"></circle><circle cx="136.27655513584614" cy="238.90683882766302" r="3" style="fill: steelblue;"></circle><circle cx="210.7350528985262" cy="269.47298563188974" r="3" style="fill: steelblue;"></circle><circle cx="126.02281875908376" cy="248.48098059495288" r="3" style="fill: steelblue;"></circle><circle cx="178.72918143868446" cy="270.6379625532362" r="3" style="fill: steelblue;"></circle><circle cx="95.36697015166284" cy="243.28454666667517" r="3" style="fill: steelblue;"></circle><circle cx="133.4661700576544" cy="151.39373888572055" r="3" style="fill: steelblue;"></circle><circle cx="301.2570573762059" cy="253.4160299433602" r="3" style="fill: steelblue;"></circle><circle cx="231.56367911025882" cy="328.36260232660504" r="3" style="fill: steelblue;"></circle><circle cx="137.6877424120903" cy="217.6791090104315" r="3" style="fill: steelblue;"></circle><circle cx="257.0519674848765" cy="207.5227395527893" r="3" style="fill: steelblue;"></circle><circle cx="260.7877794234082" cy="145.1281872060564" r="3" style="fill: steelblue;"></circle><circle cx="388.87315325438976" cy="183.93527085168495" r="3" style="fill: steelblue;"></circle><circle cx="359.902338758111" cy="276.8261813455158" r="3" style="fill: steelblue;"></circle><circle cx="281.24735651537776" cy="139.98560524649088" r="3" style="fill: steelblue;"></circle><circle cx="367.1986882388592" cy="161.06098724736108" r="3" style="fill: steelblue;"></circle><circle cx="317.26357888430357" cy="77.35757364167108" r="3" style="fill: steelblue;"></circle><circle cx="320.1831013709307" cy="111.05038556787702" r="3" style="fill: steelblue;"></circle><circle cx="345.8876994252205" cy="59.37070316738551" r="3" style="fill: steelblue;"></circle><circle cx="108.27054128050806" cy="234.79506745934486" r="3" style="fill: steelblue;"></circle><circle cx="467.55050763487816" cy="126.65710681014589" r="3" style="fill: steelblue;"></circle><circle cx="98.42227444052698" cy="281.60431649949817" r="3" style="fill: steelblue;"></circle><circle cx="253.97539244033396" cy="345.221276084582" r="3" style="fill: steelblue;"></circle><circle cx="376.65043741464615" cy="264.2337448067135" r="3" style="fill: steelblue;"></circle><circle cx="389.82391253113747" cy="216.0762538098627" r="3" style="fill: steelblue;"></circle><circle cx="248.7285503000021" cy="296.2958034541872" r="3" style="fill: steelblue;"></circle><circle cx="177.55894035100937" cy="342.24469297462036" r="3" style="fill: steelblue;"></circle><circle cx="297.3997809737921" cy="232.24378625551856" r="3" style="fill: steelblue;"></circle><circle cx="197.48841885477304" cy="303.9756053023868" r="3" style="fill: steelblue;"></circle><circle cx="52.01208561658861" cy="306.69871966044104" r="3" style="fill: steelblue;"></circle><circle cx="122.9712460935116" cy="128.59799133406744" r="3" style="fill: steelblue;"></circle><circle cx="325.6986417621374" cy="131.2631219625473" r="3" style="fill: steelblue;"></circle><circle cx="59.74125310778619" cy="230.2988539967272" r="3" style="fill: steelblue;"></circle><circle cx="353.6043292656541" cy="142.25777238607407" r="3" style="fill: steelblue;"></circle><circle cx="514.8115669190884" cy="100.82468307680553" r="3" style="fill: steelblue;"></circle><circle cx="270.22125202958705" cy="90.3829236825307" r="3" style="fill: steelblue;"></circle><circle cx="319.71085488796234" cy="133.66124696201746" r="3" style="fill: steelblue;"></circle><circle cx="428.30574966967106" cy="47.853903637992005" r="3" style="fill: steelblue;"></circle><circle cx="289.7636764962226" cy="154.54331702656214" r="3" style="fill: steelblue;"></circle><circle cx="213.82080864161253" cy="192.37573012813095" r="3" style="fill: steelblue;"></circle><circle cx="312.1947671100497" cy="120.64298407899008" r="3" style="fill: steelblue;"></circle><circle cx="130.15490256249907" cy="206.8474226527744" r="3" style="fill: steelblue;"></circle><circle cx="30.015041381120696" cy="272.39012469847995" r="3" style="fill: steelblue;"></circle><circle cx="287.53360661678016" cy="211.49282281597453" r="3" style="fill: steelblue;"></circle><circle cx="237.59795285761356" cy="287.7808991405699" r="3" style="fill: steelblue;"></circle></g></svg>