<svg xmlns="http://www.w3.org/2000/svg"><rect width="200" height="200" fill="white"></rect><g><circle cx="45.8075761795044" cy="136.62619590759277" r="2" style="fill: steelblue;"></circle><circle cx="75.74971802532673" cy="98.02180644538667" r="2" style="fill: steelblue;"></circle><circle cx="80.91256432235241" cy="164.5313885476854" r="2" style="fill: steelblue;"></circle><circle cx="119.01168935000896" cy="122.82149526807997" r="2" style="fill: steelblue;"></circle><circle cx="47.278875857591636" cy="69.41581964492798" r="2" style="fill: steelblue;"></circle><circle cx="125.4985224455595" cy="110.91652711232504" r="2" style="fill: steelblue;"></circle><circle cx="85.67987512797117" cy="129.45357494884067" r="2" style="fill: steelblue;"></circle><circle cx="145.82545906305313" cy="96.79275535874896" r="2" style="fill: steelblue;"></circle><circle cx="28.359456360340126" cy="93.73931619856093" r="2" style="fill: steelblue;"></circle><circle cx="58.69817212224007" cy="112.43508954842886" r="2" style="fill: steelblue;"></circle><circle cx="114.15607333183289" cy="130.25442957878113" r="2" style="fill: steelblue;"></circle><circle cx="67.08068251609802" cy="61.5294678343667" r="2" style="fill: steelblue;"></circle><circle cx="81.80911876261234" cy="150.05257262123956" r="2" style="fill: steelblue;"></circle><circle cx="85.93026772141457" cy="66.09717044565413" r="2" style="fill: steelblue;"></circle><circle cx="21.84127867221833" cy="117.4809455871582" r="2" style="fill: steelblue;"></circle><circle cx="65.1525542140007" cy="101.40069690015581" r="2" style="fill: steelblue;"></circle><circle cx="124.03578720986843" cy="121.12863063812256" r="2" style="fill: steelblue;"></circle><circle cx="154.48181182146072" cy="101.30781796243456" r="2" style="fill: steelblue;"></circle><circle cx="152.05323919653893" cy="72.72921866840787" r="2" style="fill: steelblue;"></circle><circle cx="125.40743537247181" cy="103.23805146747165" r="2" style="fill: steelblue;"></circle><circle cx="145.9514930844307" cy="60.98152067926195" r="2" style="fill: steelblue;"></circle><circle cx="108.55296663939953" cy="58.47874482472737" r="2" style="fill: steelblue;"></circle><circle cx="95.68420322611928" cy="34.588911798265244" r="2" style="fill: steelblue;"></circle><circle cx="63.606759905815125" cy="100.39133694436815" r="2" style="fill: steelblue;"></circle><circle cx="133.20103883743286" cy="128.17445264922247" r="2" style="fill: steelblue;"></circle><circle cx="42.635558545589454" cy="114.03391460577647" r="2" style="fill: steelblue;"></circle><circle cx="59.7652405500412" cy="152.75740491019354" r="2" style="fill: steelblue;"></circle><circle cx="73.78750331699848" cy="161.4094893137614" r="2" style="fill: steelblue;"></circle><circle cx="71.93444892764091" cy="163.16230959362454" r="2" style="fill: steelblue;"></circle><circle cx="165.76640903949738" cy="94.93029771579637" r="2" style="fill: steelblue;"></circle><circle cx="85.86125299334526" cy="38.5755717754364" r="2" style="fill: steelblue;"></circle><circle cx="175.87583363056183" cy="22.714050610860205" r="2" style="fill: steelblue;"></circle><circle cx="189.05957639217377" cy="20.367303159501816" r="2" style="fill: steelblue;"></circle><circle cx="98.60150425229222" cy="49.4690391752455" r="2" style="fill: steelblue;"></circle><circle cx="103.70043027214706" cy="86.68342762523227" r="2" style="fill: steelblue;"></circle><circle cx="91.09783582389355" cy="61.122128036287094" r="2" style="fill: steelblue;"></circle><circle cx="15.169224143028265" cy="131.84955252541437" r="2" style="fill: steelblue;"></circle><circle cx="92.83944303169847" cy="107.9164763291677" r="2" style="fill: steelblue;"></circle><circle cx="39.88148123025895" cy="86.72807585034106" r="2" style="fill: steelblue;"></circle><circle cx="134.5412641763687" cy="142.28507412804498" r="2" style="fill: steelblue;"></circle><circle cx="72.50966355204582" cy="117.80785388416714" r="2" style="fill: steelblue;"></circle><circle cx="129.23827432096004" cy="113.75664869944255" r="2" style="fill: steelblue;"></circle><circle cx="134.5892794430256" cy="1.6178276803758385" r="2" style="fill: steelblue;"></circle><circle cx="166.02155417203903" cy="88.39017522210877" r="2" style="fill: steelblue;"></circle><circle cx="184.20298248529434" cy="106.02688822481367" r="2" style="fill: steelblue;"></circle><circle cx="100.59766427148134" cy="35.442599323060776" r="2" style="fill: steelblue;"></circle><circle cx="126.88349410891533" cy="85.31327247619629" r="2" style="fill: steelblue;"></circle><circle cx="35.94763427972794" cy="55.58689965142145" r="2" style="fill: steelblue;"></circle><circle cx="63.358402252197266" cy="111.77971329953935" r="2" style="fill: steelblue;"></circle><circle cx="77.1917387843132" cy="53.41499249140422" r="2" style="fill: steelblue;"></circle><circle cx="125.98714269697666" cy="101.48866590526369" r="2" style="fill: steelblue;"></circle><circle cx="111.58323138952255" cy="78.44044715166092" r="2" style="fill: steelblue;"></circle><circle cx="59.70539003610611" cy="40.454604890611435" r="2" style="fill: steelblue;"></circle><circle cx="23.255339264869697" cy="58.56236682997811" r="2" style="fill: steelblue;"></circle><circle cx="38.50723654031754" cy="103.78881659772661" r="2" style="fill: steelblue;"></circle><circle cx="46.74432277679444" cy="157.19303687413534" r="2" style="fill: steelblue;"></circle><circle cx="77.08231955766678" cy="96.51470796929466" r="2" style="fill: steelblue;"></circle><circle cx="86.64253298193216" cy="104.55105735196008" r="2" style="fill: steelblue;"></circle><circle cx="56.78289234638214" cy="113.9676656987932" r="2" style="fill: steelblue;"></circle><circle cx="79.81655783951283" cy="92.39064728220303" r="2" style="fill: steelblue;"></circle><circle cx="34.82643365859986" cy="114.18673263655768" r="2" style="fill: steelblue;"></circle><circle cx="59.688082337379456" cy="135.1832071940104" r="2" style="fill: steelblue;"></circle><circle cx="49.70129057765008" cy="109.45114857620663" r="2" style="fill: steelblue;"></circle><circle cx="36.84810400009156" cy="130.40562669436136" r="2" style="fill: steelblue;"></circle><circle cx="72.02135622501373" cy="155.20330137676663" r="2" style="fill: steelblue;"></circle><circle cx="3.05959433317185" cy="90.3076887751619" r="2" style="fill: steelblue;"></circle><circle cx="67.23198890686035" cy="123.00121320618524" r="2" style="fill: steelblue;"></circle><circle cx="51.34768262505531" cy="181.92746109432645" r="2" style="fill: steelblue;"></circle><circle cx="35.64192950725556" cy="140.0135940975613" r="2" style="fill: steelblue;"></circle><circle cx="59.56060662865639" cy="143.05418597327338" r="2" style="fill: steelblue;"></circle><circle cx="121.45997621119022" cy="72.24624554316203" r="2" style="fill: steelblue;"></circle><circle cx="128.81999872624874" cy="66.16466442743938" r="2" style="fill: steelblue;"></circle><circle cx="100.15148513193708" cy="104.92952201101515" r="2" style="fill: steelblue;"></circle><circle cx="90.80181960016489" cy="100.16225063138538" r="2" style="fill: steelblue;"></circle><circle cx="123.62513914704323" cy="42.02830659018624" r="2" style="fill: steelblue;"></circle><circle cx="194.76103633642197" cy="24.663440386454273" r="2" style="fill: steelblue;"></circle><circle cx="89.265451207757" cy="65.84568354818556" r="2" style="fill: steelblue;"></circle><circle cx="137.9953272640705" cy="56.2344213326772" r="2" style="fill: steelblue;"></circle><circle cx="132.78323262929916" cy="34.29641524950664" r="2" style="fill: steelblue;"></circle><circle cx="55.86855337023735" cy="69.08651722802057" r="2" style="fill: steelblue;"></circle><circle cx="153.0022829771042" cy="33.00618992911446" r="2" style="fill: steelblue;"></circle><circle cx="199.62736070156097" cy="48.71136479907565" r="2" style="fill: steelblue;"></circle><circle cx="71.68126702308655" cy="36.45727899339464" r="2" style="fill: steelblue;"></circle><circle cx="32.44829028844834" cy="119.09526454077826" r="2" style="fill: steelblue;"></circle><circle cx="92.38132359459996" cy="131.31115039189658" r="2" style="fill: steelblue;"></circle><circle cx="128.885405510664" cy="109.74256230725183" r="2" style="fill: steelblue;"></circle><circle cx="43.37190687656403" cy="96.296593050162" r="2" style="fill: steelblue;"></circle><circle cx="72.96994179487228" cy="60.98094118965997" r="2" style="fill: steelblue;"></circle><circle cx="70.99843248724937" cy="111.44200993908777" r="2" style="fill: steelblue;"></circle><circle cx="115.11448994278908" cy="56.67635003725688" r="2" style="fill: steelblue;"></circle><circle cx="126.14505216479301" cy="52.70018047756619" r="2" style="fill: steelblue;"></circle><circle cx="163.33909183740616" cy="33.57744084464181" r="2" style="fill: steelblue;"></circle><circle cx="161.78271770477295" cy="44.03409891658359" r="2" style="fill: steelblue;"></circle><circle cx="103.75258643180132" cy="14.45887353685167" r="2" style="fill: steelblue;"></circle><circle cx="164.54464048147202" cy="91.56670164730814" r="2" style="fill: steelblue;"></circle><circle cx="64.10225704312325" cy="4.588271511925601" r="2" style="fill: steelblue;"></circle><circle cx="154.7533556818962" cy="1.9572430186801437" r="2" style="fill: steelblue;"></circle><circle cx="86.81326862424612" cy="84.09849132100742" r="2" style="fill: steelblue;"></circle><circle cx="123.24850670993328" cy="68.27503144741058" r="2" style="fill: steelblue;"></circle><circle cx="61.264677345752716" cy="40.0542504257626" r="2" style="fill: steelblue;"></circle><circle cx="114.8550970479846" cy="35.71416470739577" r="2" style="fill: steelblue;"></circle><circle cx="81.82960599660873" cy="102.06695430808597" r="2" style="fill: steelblue;"></circle><circle cx="129.81368824839592" cy="87.37204660558038" r="2" style="fill: steelblue;"></circle><circle cx="105.34661207348108" cy="55.83159327507019" r="2" style="fill: steelblue;"></circle><circle cx="131.42516687512398" cy="135.84997124142117" r="2" style="fill: steelblue;"></circle><circle cx="100.8035731734708" cy="133.05335442225137" r="2" style="fill: steelblue;"></circle><circle cx="145.35230994224548" cy="38.795751333236694" r="2" style="fill: steelblue;"></circle><circle cx="148.98322001099586" cy="105.44482072194418" r="2" style="fill: steelblue;"></circle><circle cx="149.90944266319275" cy="73.35640854305692" r="2" style="fill: steelblue;"></circle><circle cx="134.20523926615715" cy="35.22870474391513" r="2" style="fill: steelblue;"></circle><circle cx="158.61078947782516" cy="40.73732627762689" r="2" style="fill: steelblue;"></circle><circle cx="123.94859306514263" cy="17.280305756462955" r="2" style="fill: steelblue;"></circle><circle cx="48.63484054803849" cy="90.55393253349595" r="2" style="fill: steelblue;"></circle><circle cx="70.64396925270557" cy="105.949291255739" r="2" style="fill: steelblue;"></circle><circle cx="63.29604461789131" cy="124.69014061821832" r="2" style="fill: steelblue;"></circle><circle cx="137.84728422760963" cy="114.56636124187045" r="2" style="fill: steelblue;"></circle><circle cx="84.2258132994175" cy="135.57719389597574" r="2" style="fill: steelblue;"></circle><circle cx="61.71027049422264" cy="115.1072402795156" r="2" style="fill: steelblue;"></circle></g></svg>