<svg xmlns="http://www.w3.org/2000/svg"><g><circle cx="5.1765335930718335" cy="90.44834971427917" r="2" style="fill: steelblue;"></circle><circle cx="24.89490078555213" cy="69.70751285552979" r="2" style="fill: steelblue;"></circle><circle cx="8.867216772503324" cy="79.62575554847717" r="2" style="fill: steelblue;"></circle><circle cx="20.421355300479465" cy="73.68740108278062" r="2" style="fill: steelblue;"></circle><circle cx="22.740778989262054" cy="62.06546351313591" r="2" style="fill: steelblue;"></circle><circle cx="23.782567183176678" cy="67.78377128971947" r="2" style="fill: steelblue;"></circle><circle cx="46.057649950186416" cy="58.56482063730557" r="2" style="fill: steelblue;"></circle><circle cx="5.236091878679066" cy="68.7226073609458" r="2" style="fill: steelblue;"></circle><circle cx="56.64528095059925" cy="57.53821424312062" r="2" style="fill: steelblue;"></circle><circle cx="29.35114767816332" cy="65.42380402485529" r="2" style="fill: steelblue;"></circle><circle cx="31.445591151714325" cy="86.58145533667671" r="2" style="fill: steelblue;"></circle><circle cx="39.24945592880249" cy="51.82305433683925" r="2" style="fill: steelblue;"></circle><circle cx="71.37201825777689" cy="88.55650160047743" r="2" style="fill: steelblue;"></circle><circle cx="6.31963478194343" cy="56.78049485302634" r="2" style="fill: steelblue;"></circle><circle cx="54.67620839675268" cy="75.19490851296318" r="2" style="fill: steelblue;"></circle><circle cx="22.192047039667766" cy="93.48822302288478" r="2" style="fill: steelblue;"></circle><circle cx="19.045615527364944" cy="40.6709760427475" r="2" style="fill: steelblue;"></circle><circle cx="19.748771521780228" cy="51.212585634655426" r="2" style="fill: steelblue;"></circle><circle cx="67.17762119240231" cy="59.50590098897616" r="2" style="fill: steelblue;"></circle><circle cx="51.24930847022269" cy="46.18309769365523" r="2" style="fill: steelblue;"></circle><circle cx="40.859973844554695" cy="50.516689817110695" r="2" style="fill: steelblue;"></circle><circle cx="45.72455663647917" cy="51.94230957163705" r="2" style="fill: steelblue;"></circle><circle cx="54.07492584652371" cy="41.32097131676144" r="2" style="fill: steelblue;"></circle><circle cx="38.20766607920329" cy="60.837818102704155" r="2" style="fill: steelblue;"></circle><circle cx="9.051580561531917" cy="77.60909696420033" r="2" style="fill: steelblue;"></circle><circle cx="7.500839895672271" cy="72.07136849562326" r="2" style="fill: steelblue;"></circle><circle cx="21.945270564821033" cy="95.15022569232517" r="2" style="fill: steelblue;"></circle><circle cx="33.45068064000872" cy="90.01041452089945" r="2" style="fill: steelblue;"></circle><circle cx="32.87539316548242" cy="66.37320336368349" r="2" style="fill: steelblue;"></circle><circle cx="51.56127876705594" cy="39.34943841563331" r="2" style="fill: steelblue;"></circle><circle cx="70.29902868800694" cy="47.20378584331936" r="2" style="fill: steelblue;"></circle><circle cx="53.83405105935203" cy="22.763550281524658" r="2" style="fill: steelblue;"></circle><circle cx="71.66254950894249" cy="52.44901983274354" r="2" style="fill: steelblue;"></circle><circle cx="61.09557814068265" cy="48.371440006626976" r="2" style="fill: steelblue;"></circle><circle cx="56.64589603741964" cy="54.48949512922101" r="2" style="fill: steelblue;"></circle><circle cx="8.19483002026876" cy="24.44352706273397" r="2" style="fill: steelblue;"></circle><circle cx="16.509979301028785" cy="57.73651144570775" r="2" style="fill: steelblue;"></circle><circle cx="65.70867465602028" cy="84.26704340510898" r="2" style="fill: steelblue;"></circle><circle cx="30.0664183166292" cy="75.43466654088762" r="2" style="fill: steelblue;"></circle><circle cx="62.73869441615211" cy="55.48519562257247" r="2" style="fill: steelblue;"></circle><circle cx="34.96621400117874" cy="84.40582619773018" r="2" style="fill: steelblue;"></circle><circle cx="72.80642721388075" cy="89.64651823043823" r="2" style="fill: steelblue;"></circle><circle cx="63.92825742562612" cy="57.31190885934565" r="2" style="fill: steelblue;"></circle><circle cx="63.954697052637734" cy="16.426516903771294" r="2" style="fill: steelblue;"></circle><circle cx="54.624004662036896" cy="57.366473600268364" r="2" style="fill: steelblue;"></circle><circle cx="37.94861104753283" cy="57.5500519739257" r="2" style="fill: steelblue;"></circle><circle cx="56.57409396436479" cy="67.5139104326566" r="2" style="fill: steelblue;"></circle><circle cx="14.113014936447147" cy="86.46536866823831" r="2" style="fill: steelblue;"></circle><circle cx="6.895601087146337" cy="47.26863072978126" r="2" style="fill: steelblue;"></circle><circle cx="19.502610961596172" cy="91.33677019013298" r="2" style="fill: steelblue;"></circle><circle cx="55.140454073747" cy="44.98515609237883" r="2" style="fill: steelblue;"></circle><circle cx="37.01236860619651" cy="63.47441093789206" r="2" style="fill: steelblue;"></circle><circle cx="21.567776136928135" cy="60.51211762759421" r="2" style="fill: steelblue;"></circle><circle cx="38.605978257126274" cy="39.94413548045688" r="2" style="fill: steelblue;"></circle><circle cx="53.540783789422775" cy="70.98214162720573" r="2" style="fill: steelblue;"></circle><circle cx="33.32521534628338" cy="73.38201337390475" r="2" style="fill: steelblue;"></circle><circle cx="11.546203825208877" cy="39.59069152673086" r="2" style="fill: steelblue;"></circle><circle cx="41.3460623472929" cy="70.8799080716239" r="2" style="fill: steelblue;"></circle><circle cx="28.70036926534441" cy="52.675205386347244" r="2" style="fill: steelblue;"></circle><circle cx="31.195321182409923" cy="61.273928317758774" r="2" style="fill: steelblue;"></circle><circle cx="63.00706929630704" cy="57.86623536712594" r="2" style="fill: steelblue;"></circle><circle cx="73.47629070281982" cy="58.00199715627564" r="2" style="fill: steelblue;"></circle><circle cx="10.117748710844253" cy="96.67144881354439" r="2" style="fill: steelblue;"></circle><circle cx="1.1439614825778563" cy="93.36597389645046" r="2" style="fill: steelblue;"></circle><circle cx="10.393728150261774" cy="86.61232391993204" r="2" style="fill: steelblue;"></circle><circle cx="2.2410743766360834" cy="66.50967564847734" r="2" style="fill: steelblue;"></circle><circle cx="48.74586785833041" cy="84.22523736953735" r="2" style="fill: steelblue;"></circle><circle cx="27.97979381349352" cy="54.379076179530884" r="2" style="fill: steelblue;"></circle><circle cx="46.21445900864071" cy="93.68360373708937" r="2" style="fill: steelblue;"></circle><circle cx="23.387241032388477" cy="92.67761641078525" r="2" style="fill: steelblue;"></circle><circle cx="11.965926488240562" cy="65.84180643161137" r="2" style="fill: steelblue;"></circle><circle cx="69.84979179170396" cy="48.580009904172684" r="2" style="fill: steelblue;"></circle><circle cx="50.56806546118524" cy="27.70662970013088" r="2" style="fill: steelblue;"></circle><circle cx="63.064178824424744" cy="36.362169517411125" r="2" style="fill: steelblue;"></circle><circle cx="72.67478373315599" cy="35.87821622689565" r="2" style="fill: steelblue;"></circle><circle cx="37.901121046808036" cy="54.91796617085735" r="2" style="fill: steelblue;"></circle><circle cx="46.63975511988004" cy="84.16962954733107" r="2" style="fill: steelblue;"></circle><circle cx="68.8175982899136" cy="31.589471631579926" r="2" style="fill: steelblue;"></circle><circle cx="80.53730196423001" cy="44.193620483080544" r="2" style="fill: steelblue;"></circle><circle cx="18.514106008741592" cy="50.70982707871331" r="2" style="fill: steelblue;"></circle><circle cx="91.97492334577773" cy="12.09024588267008" r="2" style="fill: steelblue;"></circle><circle cx="75.57312581274245" cy="17.46729016304016" r="2" style="fill: steelblue;"></circle><circle cx="45.95065795713001" cy="22.8417350186242" r="2" style="fill: steelblue;"></circle><circle cx="65.08841547701094" cy="64.10409841272566" r="2" style="fill: steelblue;"></circle><circle cx="7.4041081799401205" cy="62.29984760284424" r="2" style="fill: steelblue;"></circle><circle cx="23.374684320555794" cy="54.2163901651899" r="2" style="fill: steelblue;"></circle><circle cx="34.3765667743153" cy="50.695344391796326" r="2" style="fill: steelblue;"></circle><circle cx="67.70790053738487" cy="77.96256906456418" r="2" style="fill: steelblue;"></circle><circle cx="31.41499741209878" cy="80.4438591003418" r="2" style="fill: steelblue;"></circle><circle cx="94.13756529490152" cy="25.12874537044101" r="2" style="fill: steelblue;"></circle><circle cx="79.48399517271254" cy="71.04837066597409" r="2" style="fill: steelblue;"></circle><circle cx="77.6839878824022" cy="48.733764224582245" r="2" style="fill: steelblue;"></circle><circle cx="87.66951759656271" cy="9.339190191692781" r="2" style="fill: steelblue;"></circle><circle cx="53.72821059491899" cy="55.81293733687036" r="2" style="fill: steelblue;"></circle><circle cx="58.8644802570343" cy="47.346495919757416" r="2" style="fill: steelblue;"></circle><circle cx="75.72275002797446" cy="22.06001016828749" r="2" style="fill: steelblue;"></circle><circle cx="83.03024967511496" cy="16.287164555655586" r="2" style="fill: steelblue;"></circle><circle cx="41.39731406337685" cy="53.776590360535515" r="2" style="fill: steelblue;"></circle><circle cx="19.099834230211048" cy="76.48697661028969" r="2" style="fill: steelblue;"></circle><circle cx="67.22830832004547" cy="59.671077463361954" r="2" style="fill: steelblue;"></circle><circle cx="35.15113741159439" cy="29.889947838253438" r="2" style="fill: steelblue;"></circle><circle cx="58.51631462574005" cy="35.30156943533156" r="2" style="fill: steelblue;"></circle><circle cx="63.41206298934089" cy="22.17779225773282" r="2" style="fill: steelblue;"></circle><circle cx="55.03198934925927" cy="26.922716034783257" r="2" style="fill: steelblue;"></circle><circle cx="56.9945815536711" cy="27.852591541078354" r="2" style="fill: steelblue;"></circle><circle cx="62.282260258992515" cy="40.776211354467605" r="2" style="fill: steelblue;"></circle><circle cx="65.16723599698808" cy="53.31557140582137" r="2" style="fill: steelblue;"></circle><circle cx="41.36372829476993" cy="35.25511920452118" r="2" style="fill: steelblue;"></circle><circle cx="62.41334742969937" cy="53.689127787947655" r="2" style="fill: steelblue;"></circle><circle cx="66.57117207845053" cy="42.19918532503976" r="2" style="fill: steelblue;"></circle><circle cx="61.72122657299042" cy="44.52314807309045" r="2" style="fill: steelblue;"></circle><circle cx="34.16183690230052" cy="30.527654621336197" r="2" style="fill: steelblue;"></circle><circle cx="34.15475388367971" cy="60.878671291801666" r="2" style="fill: steelblue;"></circle><circle cx="54.519495368003845" cy="79.99091512627072" r="2" style="fill: steelblue;"></circle><circle cx="30.824113388856254" cy="58.71949344873428" r="2" style="fill: steelblue;"></circle><circle cx="16.853439476754932" cy="43.88915499051412" r="2" style="fill: steelblue;"></circle><circle cx="37.35419048203363" cy="46.87459187375175" r="2" style="fill: steelblue;"></circle><circle cx="51.67142318354713" cy="80.46217428313362" r="2" style="fill: steelblue;"></circle></g></svg>