<svg xmlns="http://www.w3.org/2000/svg"><rect width="200" height="200" fill="white"></rect><g><circle cx="44.839119911193855" cy="101.05227646417916" r="2" style="fill: steelblue;"></circle><circle cx="33.82271379232407" cy="109.38380509614944" r="2" style="fill: steelblue;"></circle><circle cx="107.98446778208017" cy="116.64752513170242" r="2" style="fill: steelblue;"></circle><circle cx="58.62136408686638" cy="124.04522337019444" r="2" style="fill: steelblue;"></circle><circle cx="31.0838207602501" cy="148.82345348596573" r="2" style="fill: steelblue;"></circle><circle cx="90.83706457167864" cy="106.26224838197231" r="2" style="fill: steelblue;"></circle><circle cx="61.012840270996094" cy="121.0596639662981" r="2" style="fill: steelblue;"></circle><circle cx="10.106696188449865" cy="109.13601368665695" r="2" style="fill: steelblue;"></circle><circle cx="58.13887193799019" cy="149.0792952477932" r="2" style="fill: steelblue;"></circle><circle cx="51.11504569649696" cy="105.32843824476004" r="2" style="fill: steelblue;"></circle><circle cx="69.24636699259281" cy="71.94705344736576" r="2" style="fill: steelblue;"></circle><circle cx="123.16681295633316" cy="136.15142032504082" r="2" style="fill: steelblue;"></circle><circle cx="69.7593878954649" cy="154.24632132053375" r="2" style="fill: steelblue;"></circle><circle cx="109.66728664934635" cy="163.18000704050064" r="2" style="fill: steelblue;"></circle><circle cx="37.6356489956379" cy="121.64571546018124" r="2" style="fill: steelblue;"></circle><circle cx="60.21440997719765" cy="184.54257994890213" r="2" style="fill: steelblue;"></circle><circle cx="127.25536562502384" cy="138.2777415215969" r="2" style="fill: steelblue;"></circle><circle cx="76.92357376217842" cy="98.44321084674448" r="2" style="fill: steelblue;"></circle><circle cx="82.71895945072174" cy="123.4603751450777" r="2" style="fill: steelblue;"></circle><circle cx="159.28080528974533" cy="80.38996383547783" r="2" style="fill: steelblue;"></circle><circle cx="134.41784158349037" cy="42.684683948755264" r="2" style="fill: steelblue;"></circle><circle cx="82.16805420815945" cy="62.17051520943642" r="2" style="fill: steelblue;"></circle><circle cx="55.172549933195114" cy="176.08551532030106" r="2" style="fill: steelblue;"></circle><circle cx="56.71515539288521" cy="94.31450571864843" r="2" style="fill: steelblue;"></circle><circle cx="42.25306436419488" cy="144.0410003066063" r="2" style="fill: steelblue;"></circle><circle cx="16.22892767190934" cy="131.5096192061901" r="2" style="fill: steelblue;"></circle><circle cx="55.02880588173866" cy="148.40687662363052" r="2" style="fill: steelblue;"></circle><circle cx="105.57361822575331" cy="112.6907266676426" r="2" style="fill: steelblue;"></circle><circle cx="20.503139495849616" cy="165.6997561454773" r="2" style="fill: steelblue;"></circle><circle cx="95.12942042201757" cy="130.01576848328114" r="2" style="fill: steelblue;"></circle><circle cx="153.3955730497837" cy="103.95849766209722" r="2" style="fill: steelblue;"></circle><circle cx="177.98639684915543" cy="79.33616116642952" r="2" style="fill: steelblue;"></circle><circle cx="137.0473824441433" cy="12.170886993408203" r="2" style="fill: steelblue;"></circle><circle cx="139.11687433719635" cy="115.18828421831131" r="2" style="fill: steelblue;"></circle><circle cx="130.73105216026306" cy="85.65844632685184" r="2" style="fill: steelblue;"></circle><circle cx="150.13149604201317" cy="38.608381897211075" r="2" style="fill: steelblue;"></circle><circle cx="134.0101607143879" cy="92.87491105496883" r="2" style="fill: steelblue;"></circle><circle cx="86.63893155753613" cy="29.0681853890419" r="2" style="fill: steelblue;"></circle><circle cx="38.78355249762536" cy="144.93523761630058" r="2" style="fill: steelblue;"></circle><circle cx="38.23760002851487" cy="151.44771188497543" r="2" style="fill: steelblue;"></circle><circle cx="100.51535002421588" cy="82.23884403705597" r="2" style="fill: steelblue;"></circle><circle cx="65.80271795392036" cy="140.4069870710373" r="2" style="fill: steelblue;"></circle><circle cx="184.89194512367249" cy="32.153940200805664" r="2" style="fill: steelblue;"></circle><circle cx="123.73718284070492" cy="85.53031403571367" r="2" style="fill: steelblue;"></circle><circle cx="142.98295453190804" cy="60.36006882786751" r="2" style="fill: steelblue;"></circle><circle cx="86.05675995349884" cy="45.76074182987213" r="2" style="fill: steelblue;"></circle><circle cx="105.70288673043251" cy="86.83499079197645" r="2" style="fill: steelblue;"></circle><circle cx="165.36471843719482" cy="35.31990051269531" r="2" style="fill: steelblue;"></circle><circle cx="54.85108718276024" cy="144.64765638113022" r="2" style="fill: steelblue;"></circle><circle cx="61.907170712947845" cy="181.14858716726303" r="2" style="fill: steelblue;"></circle><circle cx="110.49505174160004" cy="186.35391294956207" r="2" style="fill: steelblue;"></circle><circle cx="114.07797075808048" cy="138.14688324928284" r="2" style="fill: steelblue;"></circle><circle cx="134.31224077939987" cy="85.27739383280277" r="2" style="fill: steelblue;"></circle><circle cx="153.87414246797562" cy="32.833172380924225" r="2" style="fill: steelblue;"></circle><circle cx="74.14048947393894" cy="101.60842260811478" r="2" style="fill: steelblue;"></circle><circle cx="15.205150842666631" cy="126.39386244118214" r="2" style="fill: steelblue;"></circle><circle cx="20.292034745216377" cy="122.61733263731003" r="2" style="fill: steelblue;"></circle><circle cx="112.74890638887882" cy="122.10870571434498" r="2" style="fill: steelblue;"></circle><circle cx="63.184718042612076" cy="100.69879757938907" r="2" style="fill: steelblue;"></circle><circle cx="81.03160224854946" cy="156.99114874005318" r="2" style="fill: steelblue;"></circle><circle cx="91.36549420654774" cy="131.76014497876167" r="2" style="fill: steelblue;"></circle><circle cx="166.38634204864502" cy="169.49471682310104" r="2" style="fill: steelblue;"></circle><circle cx="19.58588361740113" cy="145.0628623366356" r="2" style="fill: steelblue;"></circle><circle cx="44.902453571558006" cy="144.18356716632843" r="2" style="fill: steelblue;"></circle><circle cx="107.57751567289233" cy="182.41596817970276" r="2" style="fill: steelblue;"></circle><circle cx="128.15829403698444" cy="149.9672293663025" r="2" style="fill: steelblue;"></circle><circle cx="93.06948808953166" cy="106.03020377457142" r="2" style="fill: steelblue;"></circle><circle cx="28.40364575386048" cy="168.15772503614426" r="2" style="fill: steelblue;"></circle><circle cx="17.634896934032447" cy="131.7717120051384" r="2" style="fill: steelblue;"></circle><circle cx="94.39859995618463" cy="171.76002860069275" r="2" style="fill: steelblue;"></circle><circle cx="44.201130419969566" cy="117.46274530887604" r="2" style="fill: steelblue;"></circle><circle cx="157.14939534664154" cy="81.25572316348553" r="2" style="fill: steelblue;"></circle><circle cx="121.49667218327522" cy="59.902167320251465" r="2" style="fill: steelblue;"></circle><circle cx="151.17957293987274" cy="29.32692915201187" r="2" style="fill: steelblue;"></circle><circle cx="134.55526754260063" cy="63.23460340499878" r="2" style="fill: steelblue;"></circle><circle cx="99.17092459509149" cy="62.361570447683334" r="2" style="fill: steelblue;"></circle><circle cx="151.15396156907082" cy="16.506320238113403" r="2" style="fill: steelblue;"></circle><circle cx="141.13710299134254" cy="54.80884611606598" r="2" style="fill: steelblue;"></circle><circle cx="110.58522425591946" cy="92.34962649643421" r="2" style="fill: steelblue;"></circle><circle cx="98.66241856943816" cy="16.211828589439392" r="2" style="fill: steelblue;"></circle><circle cx="94.069529697299" cy="39.130205661058426" r="2" style="fill: steelblue;"></circle><circle cx="163.49226087331772" cy="43.212077021598816" r="2" style="fill: steelblue;"></circle><circle cx="138.9348454773426" cy="32.382166385650635" r="2" style="fill: steelblue;"></circle><circle cx="47.688348591327674" cy="125.38693509995937" r="2" style="fill: steelblue;"></circle><circle cx="27.179493010044105" cy="131.14950843155384" r="2" style="fill: steelblue;"></circle><circle cx="68.64882484078407" cy="157.06888064742088" r="2" style="fill: steelblue;"></circle><circle cx="69.56318616867065" cy="52.28967070579529" r="2" style="fill: steelblue;"></circle><circle cx="135.42011603713036" cy="172.20441848039627" r="2" style="fill: steelblue;"></circle><circle cx="66.88297763466835" cy="153.35291102528572" r="2" style="fill: steelblue;"></circle><circle cx="127.97766029834747" cy="15.708027780056" r="2" style="fill: steelblue;"></circle><circle cx="139.86821696162224" cy="60.639044642448425" r="2" style="fill: steelblue;"></circle><circle cx="135.142183303833" cy="58.56570079922676" r="2" style="fill: steelblue;"></circle><circle cx="132.1536846458912" cy="13.288235664367676" r="2" style="fill: steelblue;"></circle><circle cx="160.69903448224068" cy="57.47174695134163" r="2" style="fill: steelblue;"></circle><circle cx="145.96327617764473" cy="102.90407869033515" r="2" style="fill: steelblue;"></circle><circle cx="178.86067777872086" cy="46.15011289715767" r="2" style="fill: steelblue;"></circle><circle cx="170.40070742368698" cy="74.97385926544666" r="2" style="fill: steelblue;"></circle><circle cx="146.08828574419022" cy="99.93009493482532" r="2" style="fill: steelblue;"></circle><circle cx="114.20264504849911" cy="56.3211128115654" r="2" style="fill: steelblue;"></circle><circle cx="134.85722094774246" cy="163.19426000118256" r="2" style="fill: steelblue;"></circle><circle cx="181.79447054862976" cy="95.51546340808272" r="2" style="fill: steelblue;"></circle><circle cx="117.85262860357761" cy="97.40155227482319" r="2" style="fill: steelblue;"></circle><circle cx="148.83553460240364" cy="86.91847920417786" r="2" style="fill: steelblue;"></circle><circle cx="87.05688863992691" cy="66.2940502166748" r="2" style="fill: steelblue;"></circle><circle cx="89.13370631635189" cy="27.13458091020584" r="2" style="fill: steelblue;"></circle><circle cx="116.47851802408695" cy="17.008765041828156" r="2" style="fill: steelblue;"></circle><circle cx="111.55151054263115" cy="73.83430600166321" r="2" style="fill: steelblue;"></circle><circle cx="85.11823639273643" cy="82.74054564535618" r="2" style="fill: steelblue;"></circle><circle cx="121.55495993793011" cy="136.32725775241852" r="2" style="fill: steelblue;"></circle><circle cx="119.08834651112556" cy="32.249024510383606" r="2" style="fill: steelblue;"></circle><circle cx="162.33647838234901" cy="91.52819253504276" r="2" style="fill: steelblue;"></circle><circle cx="136.32568940520287" cy="71.9985369592905" r="2" style="fill: steelblue;"></circle><circle cx="92.98000475391746" cy="55.93526214361191" r="2" style="fill: steelblue;"></circle><circle cx="37.994271516799934" cy="154.5889511704445" r="2" style="fill: steelblue;"></circle><circle cx="19.726394116878517" cy="127.29988284409046" r="2" style="fill: steelblue;"></circle><circle cx="120.63090167939663" cy="158.48445370793343" r="2" style="fill: steelblue;"></circle><circle cx="35.551963746547706" cy="135.96214205026627" r="2" style="fill: steelblue;"></circle><circle cx="109.54485405236483" cy="111.92104537039995" r="2" style="fill: steelblue;"></circle></g></svg>