<svg xmlns="http://www.w3.org/2000/svg"><g><circle cx="29.540759325027466" cy="171.08941078186035" r="2" style="fill: steelblue;"></circle><circle cx="60.69957613945007" cy="98.41158632189035" r="2" style="fill: steelblue;"></circle><circle cx="119.40479725599289" cy="133.45908522605896" r="2" style="fill: steelblue;"></circle><circle cx="82.10919499397278" cy="163.61541748046875" r="2" style="fill: steelblue;"></circle><circle cx="112.76056617498398" cy="130.31014502048492" r="2" style="fill: steelblue;"></circle><circle cx="34.10390019416809" cy="73.4727293252945" r="2" style="fill: steelblue;"></circle><circle cx="99.544364400208" cy="150.07880926132202" r="2" style="fill: steelblue;"></circle><circle cx="115.84897190332413" cy="78.97876650094986" r="2" style="fill: steelblue;"></circle><circle cx="69.41529214382172" cy="131.97557032108307" r="2" style="fill: steelblue;"></circle><circle cx="69.19999122619629" cy="125.73042809963226" r="2" style="fill: steelblue;"></circle><circle cx="75.74281990528107" cy="82.86647945642471" r="2" style="fill: steelblue;"></circle><circle cx="91.09385758638382" cy="118.32903772592545" r="2" style="fill: steelblue;"></circle><circle cx="90.29463604092598" cy="97.79602810740471" r="2" style="fill: steelblue;"></circle><circle cx="46.67617082595825" cy="133.3869606256485" r="2" style="fill: steelblue;"></circle><circle cx="108.83572176098824" cy="115.87653458118439" r="2" style="fill: steelblue;"></circle><circle cx="29.53163981437683" cy="172.51995205879211" r="2" style="fill: steelblue;"></circle><circle cx="53.622815012931824" cy="111.43796443939209" r="2" style="fill: steelblue;"></circle><circle cx="134.58853363990784" cy="139.58609104156494" r="2" style="fill: steelblue;"></circle><circle cx="101.10188210383058" cy="71.71654999256134" r="2" style="fill: steelblue;"></circle><circle cx="157.826167345047" cy="55.37520945072174" r="2" style="fill: steelblue;"></circle><circle cx="99.33166084811091" cy="67.66323745250702" r="2" style="fill: steelblue;"></circle><circle cx="109.11305099725723" cy="135.93954145908356" r="2" style="fill: steelblue;"></circle><circle cx="119.67785209417343" cy="124.0889623761177" r="2" style="fill: steelblue;"></circle><circle cx="57.000166177749634" cy="122.25751876831055" r="2" style="fill: steelblue;"></circle><circle cx="122.64337688684464" cy="166.37373566627502" r="2" style="fill: steelblue;"></circle><circle cx="60.16100347042084" cy="88.41552808880806" r="2" style="fill: steelblue;"></circle><circle cx="79.23955023288727" cy="133.6205691099167" r="2" style="fill: steelblue;"></circle><circle cx="79.35323864221573" cy="102.72349547594786" r="2" style="fill: steelblue;"></circle><circle cx="47.576236724853516" cy="163.9165997505188" r="2" style="fill: steelblue;"></circle><circle cx="108.7610237300396" cy="68.65485906600952" r="2" style="fill: steelblue;"></circle><circle cx="145.08269429206848" cy="78.31868976354599" r="2" style="fill: steelblue;"></circle><circle cx="143.00574660301208" cy="55.0493985414505" r="2" style="fill: steelblue;"></circle><circle cx="162.74623274803162" cy="53.867024183273315" r="2" style="fill: steelblue;"></circle><circle cx="94.89885866641998" cy="103.16104292869568" r="2" style="fill: steelblue;"></circle><circle cx="110.19947156310081" cy="87.97419220209122" r="2" style="fill: steelblue;"></circle><circle cx="83.86740237474442" cy="83.81071984767914" r="2" style="fill: steelblue;"></circle><circle cx="101.90729312598705" cy="118.2045727968216" r="2" style="fill: steelblue;"></circle><circle cx="64.82284963130951" cy="114.5183876156807" r="2" style="fill: steelblue;"></circle><circle cx="39.07608389854431" cy="147.46730029582977" r="2" style="fill: steelblue;"></circle><circle cx="42.25280284881592" cy="105.02730384469032" r="2" style="fill: steelblue;"></circle><circle cx="18.91370415687561" cy="55.09331226348877" r="2" style="fill: steelblue;"></circle><circle cx="130.31090199947357" cy="49.207282066345215" r="2" style="fill: steelblue;"></circle><circle cx="47.8277325630188" cy="87.82371059060097" r="2" style="fill: steelblue;"></circle><circle cx="125.00604689121246" cy="63.265252113342285" r="2" style="fill: steelblue;"></circle><circle cx="136.38231754302979" cy="88.51976916193962" r="2" style="fill: steelblue;"></circle><circle cx="127.56921648979187" cy="48.99115562438965" r="2" style="fill: steelblue;"></circle><circle cx="151.73389315605164" cy="136.675962805748" r="2" style="fill: steelblue;"></circle><circle cx="54.63104844093323" cy="161.70974373817444" r="2" style="fill: steelblue;"></circle><circle cx="53.17060351371765" cy="150.58635473251343" r="2" style="fill: steelblue;"></circle><circle cx="68.99988055229187" cy="158.89230966567993" r="2" style="fill: steelblue;"></circle><circle cx="116.91694110631943" cy="91.19183793663979" r="2" style="fill: steelblue;"></circle><circle cx="146.33714854717255" cy="160.03252863883972" r="2" style="fill: steelblue;"></circle><circle cx="126.0770708322525" cy="124.24072474241257" r="2" style="fill: steelblue;"></circle><circle cx="75.50497353076935" cy="109.79007929563522" r="2" style="fill: steelblue;"></circle><circle cx="95.16856111586094" cy="84.12666618824005" r="2" style="fill: steelblue;"></circle><circle cx="109.7198136150837" cy="135.30950248241425" r="2" style="fill: steelblue;"></circle><circle cx="106.30350410938263" cy="91.56844019889832" r="2" style="fill: steelblue;"></circle><circle cx="54.04421091079712" cy="126.13665461540222" r="2" style="fill: steelblue;"></circle><circle cx="88.8358898460865" cy="67.53689050674438" r="2" style="fill: steelblue;"></circle><circle cx="77.05083936452866" cy="123.65058213472366" r="2" style="fill: steelblue;"></circle><circle cx="114.03232663869858" cy="160.70910692214966" r="2" style="fill: steelblue;"></circle><circle cx="84.04288291931152" cy="148.41195046901703" r="2" style="fill: steelblue;"></circle><circle cx="32.67391324043274" cy="190.78068137168884" r="2" style="fill: steelblue;"></circle><circle cx="31.942975521087646" cy="184.9221646785736" r="2" style="fill: steelblue;"></circle><circle cx="62.99528777599335" cy="123.66619110107422" r="2" style="fill: steelblue;"></circle><circle cx="81.01856857538223" cy="150.05659461021423" r="2" style="fill: steelblue;"></circle><circle cx="52.85221040248871" cy="152.16482877731323" r="2" style="fill: steelblue;"></circle><circle cx="81.01634979248047" cy="79.099640250206" r="2" style="fill: steelblue;"></circle><circle cx="38.42056393623352" cy="165.21733403205872" r="2" style="fill: steelblue;"></circle><circle cx="69.89798843860626" cy="104.8441257327795" r="2" style="fill: steelblue;"></circle><circle cx="40.86424112319946" cy="170.7131803035736" r="2" style="fill: steelblue;"></circle><circle cx="105.16527034342289" cy="71.2172657251358" r="2" style="fill: steelblue;"></circle><circle cx="117.10119992494583" cy="77.76304930448532" r="2" style="fill: steelblue;"></circle><circle cx="144.54109370708466" cy="45.94380259513855" r="2" style="fill: steelblue;"></circle><circle cx="132.0667177438736" cy="93.88288222253323" r="2" style="fill: steelblue;"></circle><circle cx="68.67731213569641" cy="108.20633694529533" r="2" style="fill: steelblue;"></circle><circle cx="128.20844650268555" cy="54.24767732620239" r="2" style="fill: steelblue;"></circle><circle cx="138.6093556880951" cy="92.44644939899445" r="2" style="fill: steelblue;"></circle><circle cx="137.0095580816269" cy="104.06255386769772" r="2" style="fill: steelblue;"></circle><circle cx="154.39093708992004" cy="70.72998285293579" r="2" style="fill: steelblue;"></circle><circle cx="166.72571301460266" cy="50.651371479034424" r="2" style="fill: steelblue;"></circle><circle cx="158.38727951049805" cy="15.509074926376343" r="2" style="fill: steelblue;"></circle><circle cx="102.88958549499512" cy="86.77061945199966" r="2" style="fill: steelblue;"></circle><circle cx="78.33388447761536" cy="118.92853081226349" r="2" style="fill: steelblue;"></circle><circle cx="70.2731728553772" cy="131.7878246307373" r="2" style="fill: steelblue;"></circle><circle cx="103.31694036722183" cy="117.03111529350281" r="2" style="fill: steelblue;"></circle><circle cx="86.78161948919296" cy="105.48635385930538" r="2" style="fill: steelblue;"></circle><circle cx="69.07244324684143" cy="67.18008816242218" r="2" style="fill: steelblue;"></circle><circle cx="61.109864711761475" cy="86.53929680585861" r="2" style="fill: steelblue;"></circle><circle cx="135.98717749118805" cy="81.25244379043579" r="2" style="fill: steelblue;"></circle><circle cx="123.15737903118134" cy="89.35739696025848" r="2" style="fill: steelblue;"></circle><circle cx="183.97982716560364" cy="72.41105139255524" r="2" style="fill: steelblue;"></circle><circle cx="171.41740918159485" cy="100.61648897826672" r="2" style="fill: steelblue;"></circle><circle cx="118.08044910430908" cy="95.33942863345146" r="2" style="fill: steelblue;"></circle><circle cx="119.51431035995483" cy="88.81506025791168" r="2" style="fill: steelblue;"></circle><circle cx="108.44259113073349" cy="82.0551261305809" r="2" style="fill: steelblue;"></circle><circle cx="150.6758213043213" cy="77.85075604915619" r="2" style="fill: steelblue;"></circle><circle cx="160.82406640052795" cy="130.57724237442017" r="2" style="fill: steelblue;"></circle><circle cx="121.73947095870972" cy="62.945279479026794" r="2" style="fill: steelblue;"></circle><circle cx="111.50742471218109" cy="68.63447725772858" r="2" style="fill: steelblue;"></circle><circle cx="104.5810516923666" cy="100.0936537689995" r="2" style="fill: steelblue;"></circle><circle cx="81.73001706600189" cy="86.15384697914124" r="2" style="fill: steelblue;"></circle><circle cx="111.32893338799477" cy="67.18812584877014" r="2" style="fill: steelblue;"></circle><circle cx="173.19093346595764" cy="28.777778148651123" r="2" style="fill: steelblue;"></circle><circle cx="74.04550611972809" cy="40.593421459198" r="2" style="fill: steelblue;"></circle><circle cx="135.36517024040222" cy="52.72029638290405" r="2" style="fill: steelblue;"></circle><circle cx="144.0244495868683" cy="54.90163862705231" r="2" style="fill: steelblue;"></circle><circle cx="155.5930197238922" cy="70.38318514823914" r="2" style="fill: steelblue;"></circle><circle cx="129.6737551689148" cy="82.23926275968552" r="2" style="fill: steelblue;"></circle><circle cx="118.13419312238693" cy="116.63712710142136" r="2" style="fill: steelblue;"></circle><circle cx="164.1545832157135" cy="58.62011909484863" r="2" style="fill: steelblue;"></circle><circle cx="71.82250022888184" cy="93.79907250404358" r="2" style="fill: steelblue;"></circle><circle cx="57.03074336051941" cy="159.14881825447083" r="2" style="fill: steelblue;"></circle><circle cx="62.82018721103668" cy="84.74634736776352" r="2" style="fill: steelblue;"></circle><circle cx="103.16580645740032" cy="132.82387852668762" r="2" style="fill: steelblue;"></circle><circle cx="130.10840713977814" cy="119.56609040498734" r="2" style="fill: steelblue;"></circle><circle cx="120.08136808872223" cy="145.77488899230957" r="2" style="fill: steelblue;"></circle><circle cx="50.09171962738037" cy="93.19362044334412" r="2" style="fill: steelblue;"></circle></g></svg>