<svg xmlns="http://www.w3.org/2000/svg"><g transform="translate(40,20)"><circle cx="280.73914736509323" cy="168.03944152262477" r="3" style="fill: steelblue;"></circle><circle cx="325.7203423976898" cy="138.8849632607566" r="3" style="fill: steelblue;"></circle><circle cx="288.39540123939514" cy="163.0770547522439" r="3" style="fill: steelblue;"></circle><circle cx="384.0794259309769" cy="101.0596313410335" r="3" style="fill: steelblue;"></circle><circle cx="157.85828769207" cy="247.6844431625472" r="3" style="fill: steelblue;"></circle><circle cx="370.39585053920746" cy="109.92861539125443" r="3" style="fill: steelblue;"></circle><circle cx="376.1918896436691" cy="106.17192337910336" r="3" style="fill: steelblue;"></circle><circle cx="471.47521018981934" cy="44.41421561770971" r="3" style="fill: steelblue;"></circle><circle cx="364.12584722042084" cy="113.99250643120871" r="3" style="fill: steelblue;"></circle><circle cx="277.9044994711876" cy="169.87671330571175" r="3" style="fill: steelblue;"></circle><circle cx="412.81184792518616" cy="82.43676523367566" r="3" style="fill: steelblue;"></circle><circle cx="464.4302988052368" cy="48.98036188549464" r="3" style="fill: steelblue;"></circle><circle cx="283.6656430363655" cy="166.14263877272606" r="3" style="fill: steelblue;"></circle><circle cx="357.7128195762634" cy="118.14909842279224" r="3" style="fill: steelblue;"></circle><circle cx="327.6007318496704" cy="137.66619231965808" r="3" style="fill: steelblue;"></circle><circle cx="480.19453525543213" cy="38.762801223331046" r="3" style="fill: steelblue;"></circle><circle cx="347.18499720096594" cy="124.97268699937395" r="3" style="fill: steelblue;"></circle><circle cx="289.28098171949387" cy="162.50306740403175" r="3" style="fill: steelblue;"></circle><circle cx="305.9966826438904" cy="151.66881680488586" r="3" style="fill: steelblue;"></circle><circle cx="333.19725036621094" cy="134.0388192070855" r="3" style="fill: steelblue;"></circle><circle cx="315.7950961589813" cy="145.31799323028986" r="3" style="fill: steelblue;"></circle><circle cx="177.51145899295807" cy="234.94627657863828" r="3" style="fill: steelblue;"></circle><circle cx="243.85683076456192" cy="191.94464672667283" r="3" style="fill: steelblue;"></circle><circle cx="152.60022819042206" cy="251.0924446913931" r="3" style="fill: steelblue;"></circle><circle cx="329.51245844364166" cy="136.42711026801004" r="3" style="fill: steelblue;"></circle><circle cx="311.04959338903427" cy="148.39378206266298" r="3" style="fill: steelblue;"></circle><circle cx="73.1847667694092" cy="302.5654289457533" r="3" style="fill: steelblue;"></circle><circle cx="293.54911834001547" cy="159.7366825573974" r="3" style="fill: steelblue;"></circle><circle cx="191.25918835401535" cy="226.0357112520271" r="3" style="fill: steelblue;"></circle><circle cx="188.58030080795288" cy="227.77202725410461" r="3" style="fill: steelblue;"></circle><circle cx="285.79347521066666" cy="164.76348828938274" r="3" style="fill: steelblue;"></circle><circle cx="205.46393260359764" cy="216.82893257174226" r="3" style="fill: steelblue;"></circle><circle cx="228.55915479362014" cy="201.8598070782092" r="3" style="fill: steelblue;"></circle><circle cx="206.1751113831997" cy="216.36798336274092" r="3" style="fill: steelblue;"></circle><circle cx="271.10907822847366" cy="174.28115300006334" r="3" style="fill: steelblue;"></circle><circle cx="254.58742395043373" cy="184.98963262471887" r="3" style="fill: steelblue;"></circle><circle cx="202.93140649795535" cy="218.47038467725116" r="3" style="fill: steelblue;"></circle><circle cx="138.1953710317612" cy="260.4289261831177" r="3" style="fill: steelblue;"></circle><circle cx="381.22965037822723" cy="102.90670808818606" r="3" style="fill: steelblue;"></circle><circle cx="42.527636289596565" cy="322.43579129377997" r="3" style="fill: steelblue;"></circle><circle cx="194.2748138308525" cy="224.08113918370668" r="3" style="fill: steelblue;"></circle><circle cx="85.99424600601198" cy="294.26298869980707" r="3" style="fill: steelblue;"></circle><circle cx="296.9583088159561" cy="157.52702206373215" r="3" style="fill: steelblue;"></circle><circle cx="168.76454740762713" cy="240.6155711246861" r="3" style="fill: steelblue;"></circle><circle cx="274.1983996331692" cy="172.2788150525755" r="3" style="fill: steelblue;"></circle><circle cx="31.473573446273814" cy="329.6004616551929" r="3" style="fill: steelblue;"></circle><circle cx="142.18151807785034" cy="257.84531235694885" r="3" style="fill: steelblue;"></circle><circle cx="173.0852374434471" cy="237.81512387924727" r="3" style="fill: steelblue;"></circle><circle cx="110.71467339992525" cy="278.2404894630114" r="3" style="fill: steelblue;"></circle><circle cx="148.42984914779663" cy="253.79546814494665" r="3" style="fill: steelblue;"></circle><circle cx="130.58222472667697" cy="265.363372862339" r="3" style="fill: steelblue;"></circle><circle cx="228.9275662600994" cy="201.62102186845408" r="3" style="fill: steelblue;"></circle><circle cx="79.87585902214052" cy="298.22860989305707" r="3" style="fill: steelblue;"></circle><circle cx="135.81981897354126" cy="261.96863585048254" r="3" style="fill: steelblue;"></circle><circle cx="98.0841511487961" cy="286.42693907022476" r="3" style="fill: steelblue;"></circle><circle cx="106.82412028312683" cy="280.76214426093634" r="3" style="fill: steelblue;"></circle><circle cx="104.14869725704193" cy="282.4962147408062" r="3" style="fill: steelblue;"></circle><circle cx="183.5532331466675" cy="231.0303118493822" r="3" style="fill: steelblue;"></circle><circle cx="64.48552250862123" cy="308.20382800367145" r="3" style="fill: steelblue;"></circle><circle cx="228.1574895232916" cy="202.12014567934807" r="3" style="fill: steelblue;"></circle><circle cx="199.704065322876" cy="220.5621798833211" r="3" style="fill: steelblue;"></circle><circle cx="404.57122564315796" cy="87.7779093053606" r="3" style="fill: steelblue;"></circle><circle cx="279.6971493959427" cy="168.71481057670383" r="3" style="fill: steelblue;"></circle><circle cx="373.3394855260849" cy="108.0207038256857" r="3" style="fill: steelblue;"></circle><circle cx="335.2031135559082" cy="132.7387226952447" r="3" style="fill: steelblue;"></circle><circle cx="388.7956076860428" cy="98.00284687015744" r="3" style="fill: steelblue;"></circle><circle cx="364.7229605913162" cy="113.60548850562839" r="3" style="fill: steelblue;"></circle><circle cx="189.8639926314354" cy="226.94000477592147" r="3" style="fill: steelblue;"></circle><circle cx="158.09021830558777" cy="247.5341177648968" r="3" style="fill: steelblue;"></circle><circle cx="330.6309932470322" cy="135.7021340065532" r="3" style="fill: steelblue;"></circle><circle cx="353.003146648407" cy="121.20166420936584" r="3" style="fill: steelblue;"></circle><circle cx="264.40629601478577" cy="178.62554887930548" r="3" style="fill: steelblue;"></circle><circle cx="110.36507427692415" cy="278.4670814871788" r="3" style="fill: steelblue;"></circle><circle cx="105.78404903411867" cy="281.4362645149231" r="3" style="fill: steelblue;"></circle><circle cx="171.40087723731995" cy="238.90683882766302" r="3" style="fill: steelblue;"></circle><circle cx="124.24167931079866" cy="269.47298563188974" r="3" style="fill: steelblue;"></circle><circle cx="156.62934422492984" cy="248.48098059495288" r="3" style="fill: steelblue;"></circle><circle cx="122.44428634643556" cy="270.6379625532362" r="3" style="fill: steelblue;"></circle><circle cx="164.64669942855835" cy="243.28454666667517" r="3" style="fill: steelblue;"></circle><circle cx="306.42108857631683" cy="151.39373888572055" r="3" style="fill: steelblue;"></circle><circle cx="149.0152680873871" cy="253.4160299433602" r="3" style="fill: steelblue;"></circle><circle cx="33.38341355323793" cy="328.36260232660504" r="3" style="fill: steelblue;"></circle><circle cx="204.1522318124771" cy="217.6791090104315" r="3" style="fill: steelblue;"></circle><circle cx="219.82205897569656" cy="207.5227395527893" r="3" style="fill: steelblue;"></circle><circle cx="316.0879397392273" cy="145.1281872060564" r="3" style="fill: steelblue;"></circle><circle cx="256.21415354311466" cy="183.93527085168495" r="3" style="fill: steelblue;"></circle><circle cx="112.89674878120422" cy="276.8261813455158" r="3" style="fill: steelblue;"></circle><circle cx="324.0222090482712" cy="139.98560524649088" r="3" style="fill: steelblue;"></circle><circle cx="291.50590538978577" cy="161.06098724736108" r="3" style="fill: steelblue;"></circle><circle cx="420.64831495285034" cy="77.35757364167108" r="3" style="fill: steelblue;"></circle><circle cx="368.66511940956116" cy="111.05038556787702" r="3" style="fill: steelblue;"></circle><circle cx="448.39948654174805" cy="59.37070316738551" r="3" style="fill: steelblue;"></circle><circle cx="177.74475306272507" cy="234.79506745934486" r="3" style="fill: steelblue;"></circle><circle cx="344.58617806434637" cy="126.65710681014589" r="3" style="fill: steelblue;"></circle><circle cx="105.52476882934572" cy="281.60431649949817" r="3" style="fill: steelblue;"></circle><circle cx="7.37288832664491" cy="345.221276084582" r="3" style="fill: steelblue;"></circle><circle cx="132.32507944107056" cy="264.2337448067135" r="3" style="fill: steelblue;"></circle><circle cx="206.62520840764046" cy="216.0762538098627" r="3" style="fill: steelblue;"></circle><circle cx="82.85790324211122" cy="296.2958034541872" r="3" style="fill: steelblue;"></circle><circle cx="11.965330839157117" cy="342.24469297462036" r="3" style="fill: steelblue;"></circle><circle cx="181.6810154914856" cy="232.24378625551856" r="3" style="fill: steelblue;"></circle><circle cx="71.00906610488893" cy="303.9756053023868" r="3" style="fill: steelblue;"></circle><circle cx="66.80768966674806" cy="306.69871966044104" r="3" style="fill: steelblue;"></circle><circle cx="341.5916705131531" cy="128.59799133406744" r="3" style="fill: steelblue;"></circle><circle cx="337.4797546863556" cy="131.2631219625473" r="3" style="fill: steelblue;"></circle><circle cx="184.68176811933517" cy="230.2988539967272" r="3" style="fill: steelblue;"></circle><circle cx="320.5165797472" cy="142.25777238607407" r="3" style="fill: steelblue;"></circle><circle cx="384.4419175386429" cy="100.82468307680553" r="3" style="fill: steelblue;"></circle><circle cx="400.55206060409546" cy="90.3829236825307" r="3" style="fill: steelblue;"></circle><circle cx="333.77979040145874" cy="133.66124696201746" r="3" style="fill: steelblue;"></circle><circle cx="466.1682629585266" cy="47.853903637992005" r="3" style="fill: steelblue;"></circle><circle cx="301.56173944473267" cy="154.54331702656214" r="3" style="fill: steelblue;"></circle><circle cx="243.19173065945506" cy="192.37573012813095" r="3" style="fill: steelblue;"></circle><circle cx="353.8651102781296" cy="120.64298407899008" r="3" style="fill: steelblue;"></circle><circle cx="220.86397647857666" cy="206.8474226527744" r="3" style="fill: steelblue;"></circle><circle cx="119.74095046520233" cy="272.39012469847995" r="3" style="fill: steelblue;"></circle><circle cx="213.69678765535357" cy="211.49282281597453" r="3" style="fill: steelblue;"></circle><circle cx="95.99518418312074" cy="287.7808991405699" r="3" style="fill: steelblue;"></circle></g></svg>