<svg xmlns="http://www.w3.org/2000/svg"><rect width="200" height="200" fill="white"></rect><g><circle cx="49.440736323595054" cy="119.72012966871262" r="2" style="fill: steelblue;"></circle><circle cx="10.254172980785375" cy="157.72504583001137" r="2" style="fill: steelblue;"></circle><circle cx="80.15161976218224" cy="117.17859320342541" r="2" style="fill: steelblue;"></circle><circle cx="9.613199532032018" cy="116.13124646246433" r="2" style="fill: steelblue;"></circle><circle cx="108.55166837573051" cy="137.24618256092072" r="2" style="fill: steelblue;"></circle><circle cx="112.83165998756886" cy="95.40733639150858" r="2" style="fill: steelblue;"></circle><circle cx="92.46920133009553" cy="52.303994446992874" r="2" style="fill: steelblue;"></circle><circle cx="111.56646478921175" cy="67.79881417751312" r="2" style="fill: steelblue;"></circle><circle cx="68.11802685260773" cy="73.95341657102108" r="2" style="fill: steelblue;"></circle><circle cx="30.115744471549995" cy="121.55135199427605" r="2" style="fill: steelblue;"></circle><circle cx="137.38078102469444" cy="112.94073276221752" r="2" style="fill: steelblue;"></circle><circle cx="194.20305490493774" cy="140.7157689332962" r="2" style="fill: steelblue;"></circle><circle cx="50.89091360569" cy="74.00954179465771" r="2" style="fill: steelblue;"></circle><circle cx="149.9470718204975" cy="66.90187230706215" r="2" style="fill: steelblue;"></circle><circle cx="71.10303491353989" cy="157.41139128804207" r="2" style="fill: steelblue;"></circle><circle cx="93.50275192409754" cy="155.05509674549103" r="2" style="fill: steelblue;"></circle><circle cx="86.59608606249094" cy="95.9374824538827" r="2" style="fill: steelblue;"></circle><circle cx="18.793410062789924" cy="49.37695190310478" r="2" style="fill: steelblue;"></circle><circle cx="105.19089587032795" cy="115.32274670898914" r="2" style="fill: steelblue;"></circle><circle cx="138.18229958415031" cy="96.32663791999221" r="2" style="fill: steelblue;"></circle><circle cx="114.32687882333994" cy="108.3721661940217" r="2" style="fill: steelblue;"></circle><circle cx="162.0138719677925" cy="64.3835611641407" r="2" style="fill: steelblue;"></circle><circle cx="67.83742681145668" cy="51.50964707136154" r="2" style="fill: steelblue;"></circle><circle cx="123.74667674303055" cy="171.76397740840912" r="2" style="fill: steelblue;"></circle><circle cx="71.88305296003819" cy="148.48069697618484" r="2" style="fill: steelblue;"></circle><circle cx="25.144799053668983" cy="161.5442581474781" r="2" style="fill: steelblue;"></circle><circle cx="17.015425860881813" cy="109.30653512477875" r="2" style="fill: steelblue;"></circle><circle cx="99.38033655053005" cy="156.11350014805794" r="2" style="fill: steelblue;"></circle><circle cx="111.11164502799511" cy="131.033493578434" r="2" style="fill: steelblue;"></circle><circle cx="0.12393146753311712" cy="37.007829546928406" r="2" style="fill: steelblue;"></circle><circle cx="163.54915350675583" cy="116.00083895027637" r="2" style="fill: steelblue;"></circle><circle cx="83.43529365956783" cy="84.10766012966633" r="2" style="fill: steelblue;"></circle><circle cx="124.57106672227383" cy="63.52579817175865" r="2" style="fill: steelblue;"></circle><circle cx="171.48727774620056" cy="89.29787613451481" r="2" style="fill: steelblue;"></circle><circle cx="70.32260149717331" cy="41.30953028798103" r="2" style="fill: steelblue;"></circle><circle cx="144.1575162112713" cy="130.3432010114193" r="2" style="fill: steelblue;"></circle><circle cx="69.76529434323311" cy="95.87332736700773" r="2" style="fill: steelblue;"></circle><circle cx="41.48950651288033" cy="199.3950515985489" r="2" style="fill: steelblue;"></circle><circle cx="91.30097310990095" cy="172.25262373685837" r="2" style="fill: steelblue;"></circle><circle cx="110.43182518333197" cy="137.9888229072094" r="2" style="fill: steelblue;"></circle><circle cx="81.62057623267174" cy="185.48375219106674" r="2" style="fill: steelblue;"></circle><circle cx="189.0357419848442" cy="56.15528151392937" r="2" style="fill: steelblue;"></circle><circle cx="130.81939555704594" cy="44.98530402779579" r="2" style="fill: steelblue;"></circle><circle cx="76.14837810397148" cy="99.22645336482674" r="2" style="fill: steelblue;"></circle><circle cx="155.1586113870144" cy="83.36245305836201" r="2" style="fill: steelblue;"></circle><circle cx="90.50129391252995" cy="78.59571874141693" r="2" style="fill: steelblue;"></circle><circle cx="98.8541123457253" cy="73.0952475219965" r="2" style="fill: steelblue;"></circle><circle cx="88.89902886003256" cy="189.76811915636063" r="2" style="fill: steelblue;"></circle><circle cx="82.71497152745724" cy="88.66177536547184" r="2" style="fill: steelblue;"></circle><circle cx="110.26028487831354" cy="110.15893369913101" r="2" style="fill: steelblue;"></circle><circle cx="104.81566740199924" cy="99.32695087045431" r="2" style="fill: steelblue;"></circle><circle cx="27.506692707538612" cy="78.58521714806557" r="2" style="fill: steelblue;"></circle><circle cx="89.16967865079641" cy="145.5414466559887" r="2" style="fill: steelblue;"></circle><circle cx="93.60121507197618" cy="158.89640748500824" r="2" style="fill: steelblue;"></circle><circle cx="51.02372393012047" cy="127.48678810894489" r="2" style="fill: steelblue;"></circle><circle cx="78.1259186565876" cy="196.69391810894012" r="2" style="fill: steelblue;"></circle><circle cx="31.70063197612763" cy="124.14886094629765" r="2" style="fill: steelblue;"></circle><circle cx="78.49367186427116" cy="110.81304345279932" r="2" style="fill: steelblue;"></circle><circle cx="1.4002233743667658" cy="94.23236260190606" r="2" style="fill: steelblue;"></circle><circle cx="33.38712304830552" cy="86.89417075365782" r="2" style="fill: steelblue;"></circle><circle cx="47.03200832009316" cy="123.73496629297733" r="2" style="fill: steelblue;"></circle><circle cx="96.5886992868036" cy="101.95530685596168" r="2" style="fill: steelblue;"></circle><circle cx="60.1120688021183" cy="154.2582981288433" r="2" style="fill: steelblue;"></circle><circle cx="72.21745550632477" cy="195.35691142082214" r="2" style="fill: steelblue;"></circle><circle cx="89.38279040157795" cy="178.10474187135696" r="2" style="fill: steelblue;"></circle><circle cx="60.5245441198349" cy="140.15057161450386" r="2" style="fill: steelblue;"></circle><circle cx="43.34254041314126" cy="192.0688584446907" r="2" style="fill: steelblue;"></circle><circle cx="27.654527127742774" cy="176.4448046684265" r="2" style="fill: steelblue;"></circle><circle cx="80.18565028905869" cy="107.6331770978868" r="2" style="fill: steelblue;"></circle><circle cx="49.672132730484016" cy="165.4742419719696" r="2" style="fill: steelblue;"></circle><circle cx="38.49729374051095" cy="52.81224697828293" r="2" style="fill: steelblue;"></circle><circle cx="159.16834622621536" cy="6.335480511188507" r="2" style="fill: steelblue;"></circle><circle cx="179.22372967004776" cy="13.752540946006775" r="2" style="fill: steelblue;"></circle><circle cx="128.34412083029747" cy="91.31273664534092" r="2" style="fill: steelblue;"></circle><circle cx="129.9037452787161" cy="32.18836188316345" r="2" style="fill: steelblue;"></circle><circle cx="158.55709686875343" cy="146.63575068116188" r="2" style="fill: steelblue;"></circle><circle cx="126.94803662598133" cy="37.6143179833889" r="2" style="fill: steelblue;"></circle><circle cx="175.70669054985046" cy="53.05735990405083" r="2" style="fill: steelblue;"></circle><circle cx="150.24513229727745" cy="71.08597308397293" r="2" style="fill: steelblue;"></circle><circle cx="175.00185817480087" cy="24.872756004333496" r="2" style="fill: steelblue;"></circle><circle cx="60.691604763269424" cy="116.60680584609509" r="2" style="fill: steelblue;"></circle><circle cx="155.79719692468643" cy="34.2067614197731" r="2" style="fill: steelblue;"></circle><circle cx="139.1255058348179" cy="145.47763988375664" r="2" style="fill: steelblue;"></circle><circle cx="106.78302021697164" cy="165.3640180826187" r="2" style="fill: steelblue;"></circle><circle cx="88.24304435402155" cy="109.9398884922266" r="2" style="fill: steelblue;"></circle><circle cx="64.86565470695496" cy="106.89135817810893" r="2" style="fill: steelblue;"></circle><circle cx="78.85307297110558" cy="74.20126758515835" r="2" style="fill: steelblue;"></circle><circle cx="107.83716235309839" cy="90.9896133467555" r="2" style="fill: steelblue;"></circle><circle cx="118.9107321202755" cy="82.37224295735359" r="2" style="fill: steelblue;"></circle><circle cx="133.16590189933777" cy="69.86287832260132" r="2" style="fill: steelblue;"></circle><circle cx="160.61067059636116" cy="81.7721601575613" r="2" style="fill: steelblue;"></circle><circle cx="175.4849687218666" cy="94.4949820637703" r="2" style="fill: steelblue;"></circle><circle cx="144.35746744275093" cy="56.39445632696152" r="2" style="fill: steelblue;"></circle><circle cx="145.77519372105598" cy="45.130858570337296" r="2" style="fill: steelblue;"></circle><circle cx="125.96413902938366" cy="42.07968935370445" r="2" style="fill: steelblue;"></circle><circle cx="147.0668487250805" cy="54.52773943543434" r="2" style="fill: steelblue;"></circle><circle cx="187.1885046362877" cy="43.028524518013" r="2" style="fill: steelblue;"></circle><circle cx="57.17853680253029" cy="170.41529566049576" r="2" style="fill: steelblue;"></circle><circle cx="79.9081776291132" cy="166.74793362617493" r="2" style="fill: steelblue;"></circle><circle cx="116.96953177452087" cy="20.40906846523285" r="2" style="fill: steelblue;"></circle><circle cx="117.42750033736229" cy="19.752895832061768" r="2" style="fill: steelblue;"></circle><circle cx="125.44469013810158" cy="69.84178945422173" r="2" style="fill: steelblue;"></circle><circle cx="112.44041975587606" cy="106.7693181335926" r="2" style="fill: steelblue;"></circle><circle cx="102.87044979631901" cy="175.53990185260773" r="2" style="fill: steelblue;"></circle><circle cx="158.92952159047127" cy="44.979917258024216" r="2" style="fill: steelblue;"></circle><circle cx="164.10452723503113" cy="142.07415878772736" r="2" style="fill: steelblue;"></circle><circle cx="135.22327914834023" cy="99.82532870490104" r="2" style="fill: steelblue;"></circle><circle cx="170.67334651947021" cy="88.23208920657635" r="2" style="fill: steelblue;"></circle><circle cx="81.70211724936962" cy="118.22301000356674" r="2" style="fill: steelblue;"></circle><circle cx="140.07722437381744" cy="55.04821836948395" r="2" style="fill: steelblue;"></circle><circle cx="134.89887714385986" cy="89.07410725951195" r="2" style="fill: steelblue;"></circle><circle cx="96.68241362087429" cy="29.204657673835754" r="2" style="fill: steelblue;"></circle><circle cx="35.9629899263382" cy="132.39154815673828" r="2" style="fill: steelblue;"></circle><circle cx="24.327798187732704" cy="124.04789440333843" r="2" style="fill: steelblue;"></circle><circle cx="35.54160743951798" cy="135.72002798318863" r="2" style="fill: steelblue;"></circle><circle cx="37.58175894618035" cy="193.6359092593193" r="2" style="fill: steelblue;"></circle><circle cx="59.596794098615646" cy="138.75421360135078" r="2" style="fill: steelblue;"></circle><circle cx="101.97493797168136" cy="138.13745453953743" r="2" style="fill: steelblue;"></circle></g></svg>