<svg xmlns="http://www.w3.org/2000/svg"><g transform="translate(40,20)"><circle cx="417.72736608982086" cy="170.77573057678012" r="3" style="fill: steelblue;"></circle><circle cx="329.9423038959503" cy="136.19120584593878" r="3" style="fill: steelblue;"></circle><circle cx="465.0030791759491" cy="247.0642386211289" r="3" style="fill: steelblue;"></circle><circle cx="427.63177156448364" cy="196.0672674079736" r="3" style="fill: steelblue;"></circle><circle cx="431.95421397686005" cy="127.93587230973772" r="3" style="fill: steelblue;"></circle><circle cx="473.13918471336365" cy="132.44558788008158" r="3" style="fill: steelblue;"></circle><circle cx="290.9536678344011" cy="120.11376519997913" r="3" style="fill: steelblue;"></circle><circle cx="377.66568660736084" cy="211.0611798448695" r="3" style="fill: steelblue;"></circle><circle cx="392.4568623304367" cy="146.66716961397066" r="3" style="fill: steelblue;"></circle><circle cx="495.0160324573517" cy="38.18482988410528" r="3" style="fill: steelblue;"></circle><circle cx="432.67385959625244" cy="57.844652069939514" r="3" style="fill: steelblue;"></circle><circle cx="322.43172079324717" cy="193.19117648733987" r="3" style="fill: steelblue;"></circle><circle cx="371.3753119111061" cy="185.44275799973144" r="3" style="fill: steelblue;"></circle><circle cx="289.16010707616806" cy="75.33911863962811" r="3" style="fill: steelblue;"></circle><circle cx="405.05772829055786" cy="216.2575963884592" r="3" style="fill: steelblue;"></circle><circle cx="273.671755939722" cy="105.48262049754459" r="3" style="fill: steelblue;"></circle><circle cx="325.65192729234695" cy="87.56806453069049" r="3" style="fill: steelblue;"></circle><circle cx="318.64895671606064" cy="114.5409991343816" r="3" style="fill: steelblue;"></circle><circle cx="463.67765665054316" cy="75.24693343374463" r="3" style="fill: steelblue;"></circle><circle cx="472.14324474334717" cy="95.44542597399817" r="3" style="fill: steelblue;"></circle><circle cx="309.89646390080446" cy="146.51228942804863" r="3" style="fill: steelblue;"></circle><circle cx="469.2459762096405" cy="166.34701896044942" r="3" style="fill: steelblue;"></circle><circle cx="350.2136930823326" cy="67.08652608924443" r="3" style="fill: steelblue;"></circle><circle cx="459.5446586608887" cy="244.69919668303595" r="3" style="fill: steelblue;"></circle><circle cx="200.68800151348114" cy="205.57497358984415" r="3" style="fill: steelblue;"></circle><circle cx="305.8133002370596" cy="185.55502179596158" r="3" style="fill: steelblue;"></circle><circle cx="334.708122164011" cy="172.5659767786662" r="3" style="fill: steelblue;"></circle><circle cx="236.3959193229675" cy="202.82888102034724" r="3" style="fill: steelblue;"></circle><circle cx="200.75160562992096" cy="119.8093593120575" r="3" style="fill: steelblue;"></circle><circle cx="292.0863155275583" cy="177.6068699028757" r="3" style="fill: steelblue;"></circle><circle cx="317.31649450957775" cy="163.04017023907767" r="3" style="fill: steelblue;"></circle><circle cx="319.73259150981903" cy="257.2153550055292" r="3" style="fill: steelblue;"></circle><circle cx="341.57855808734894" cy="187.88268882781267" r="3" style="fill: steelblue;"></circle><circle cx="58.579015731811516" cy="133.25993882285223" r="3" style="fill: steelblue;"></circle><circle cx="323.1938995420933" cy="219.33407626218263" r="3" style="fill: steelblue;"></circle><circle cx="202.95799970626828" cy="206.0449737020665" r="3" style="fill: steelblue;"></circle><circle cx="188.8749361038208" cy="238.07767323321764" r="3" style="fill: steelblue;"></circle><circle cx="208.66400599479675" cy="125.68930122587415" r="3" style="fill: steelblue;"></circle><circle cx="192.36235320568085" cy="188.21196423636542" r="3" style="fill: steelblue;"></circle><circle cx="410.48823595046997" cy="295.41240632534027" r="3" style="fill: steelblue;"></circle><circle cx="405.5218040943146" cy="211.179967969656" r="3" style="fill: steelblue;"></circle><circle cx="207.25050866603848" cy="308.009652627839" r="3" style="fill: steelblue;"></circle><circle cx="198.20260405540463" cy="194.11640439001428" r="3" style="fill: steelblue;"></circle><circle cx="266.5011964738369" cy="334.65508288807337" r="3" style="fill: steelblue;"></circle><circle cx="147.4622905254364" cy="310.1343280739254" r="3" style="fill: steelblue;"></circle><circle cx="221.334707736969" cy="258.18164232704373" r="3" style="fill: steelblue;"></circle><circle cx="193.62610280513763" cy="273.0198792285389" r="3" style="fill: steelblue;"></circle><circle cx="291.08879026025534" cy="152.43754453129236" r="3" style="fill: steelblue;"></circle><circle cx="119.06064748764038" cy="289.1444381740358" r="3" style="fill: steelblue;"></circle><circle cx="260.13087183237076" cy="202.66431683881416" r="3" style="fill: steelblue;"></circle><circle cx="399.24330711364746" cy="184.63848510550127" r="3" style="fill: steelblue;"></circle><circle cx="237.19139099121094" cy="286.4228594634268" r="3" style="fill: steelblue;"></circle><circle cx="315.3746780008077" cy="190.83523000073103" r="3" style="fill: steelblue;"></circle><circle cx="186.08288168907166" cy="204.1647776754366" r="3" style="fill: steelblue;"></circle><circle cx="230.27590066194534" cy="276.96396658817923" r="3" style="fill: steelblue;"></circle><circle cx="448.11317324638367" cy="161.40600376658966" r="3" style="fill: steelblue;"></circle><circle cx="415.2603954076767" cy="265.3685187300046" r="3" style="fill: steelblue;"></circle><circle cx="270.72623893618584" cy="250.9352291623751" r="3" style="fill: steelblue;"></circle><circle cx="230.46255111694336" cy="271.54702527655496" r="3" style="fill: steelblue;"></circle><circle cx="266.98147505521774" cy="148.7132575776842" r="3" style="fill: steelblue;"></circle><circle cx="480.2382230758667" cy="90.61915841367511" r="3" style="fill: steelblue;"></circle><circle cx="271.8162976205349" cy="91.5810184346305" r="3" style="fill: steelblue;"></circle><circle cx="488.07728290557856" cy="140.57330621613397" r="3" style="fill: steelblue;"></circle><circle cx="375.202077627182" cy="176.43594886693688" r="3" style="fill: steelblue;"></circle><circle cx="426.5413910150528" cy="130.10330249865848" r="3" style="fill: steelblue;"></circle><circle cx="435.0666582584381" cy="181.53521397875414" r="3" style="fill: steelblue;"></circle><circle cx="450.35861134529114" cy="201.28581755691107" r="3" style="fill: steelblue;"></circle><circle cx="288.4808801114559" cy="119.5107599099477" r="3" style="fill: steelblue;"></circle><circle cx="422.00391590595245" cy="263.20448435015146" r="3" style="fill: steelblue;"></circle><circle cx="517.593777179718" cy="209.24909123116072" r="3" style="fill: steelblue;"></circle><circle cx="421.37148678302765" cy="118.3987135688464" r="3" style="fill: steelblue;"></circle><circle cx="368.65618228912354" cy="219.2349255912834" r="3" style="fill: steelblue;"></circle><circle cx="144.44283843040466" cy="283.35509945948917" r="3" style="fill: steelblue;"></circle><circle cx="367.6186010241508" cy="229.83343982034262" r="3" style="fill: steelblue;"></circle><circle cx="143.292635679245" cy="196.81055463540054" r="3" style="fill: steelblue;"></circle><circle cx="382.41190910339355" cy="311.09172602494556" r="3" style="fill: steelblue;"></circle><circle cx="262.5616393983364" cy="219.5129618048668" r="3" style="fill: steelblue;"></circle><circle cx="179.0974259376526" cy="265.78963382376566" r="3" style="fill: steelblue;"></circle><circle cx="96.81884050369263" cy="263.27945291996" r="3" style="fill: steelblue;"></circle><circle cx="90.50976634025574" cy="228.1118950082196" r="3" style="fill: steelblue;"></circle><circle cx="280.67779764533043" cy="301.79522931575775" r="3" style="fill: steelblue;"></circle><circle cx="94.62609887123108" cy="216.570825005571" r="3" style="fill: steelblue;"></circle><circle cx="194.70341205596924" cy="304.80164455042944" r="3" style="fill: steelblue;"></circle><circle cx="291.8673360720277" cy="237.4159801337454" r="3" style="fill: steelblue;"></circle><circle cx="384.89117324352264" cy="203.24179706060227" r="3" style="fill: steelblue;"></circle><circle cx="422.0234870910644" cy="190.11933760096628" r="3" style="fill: steelblue;"></circle><circle cx="408.2004636526108" cy="116.55950629048876" r="3" style="fill: steelblue;"></circle><circle cx="243.6743125319481" cy="242.36463589800726" r="3" style="fill: steelblue;"></circle><circle cx="289.81441855430603" cy="203.9116399569644" r="3" style="fill: steelblue;"></circle><circle cx="424.12129640579224" cy="201.99160329583617" r="3" style="fill: steelblue;"></circle><circle cx="378.51395308971405" cy="77.42421494589911" r="3" style="fill: steelblue;"></circle><circle cx="340.15941470861435" cy="118.207186460495" r="3" style="fill: steelblue;"></circle><circle cx="282.62118324637413" cy="75.62907205687628" r="3" style="fill: steelblue;"></circle><circle cx="226.11631304025647" cy="72.00182643201617" r="3" style="fill: steelblue;"></circle><circle cx="375.56272745132446" cy="304.68391544289057" r="3" style="fill: steelblue;"></circle><circle cx="217.85218119621274" cy="255.21776162915762" r="3" style="fill: steelblue;"></circle><circle cx="298.0517691001296" cy="292.03959140512677" r="3" style="fill: steelblue;"></circle><circle cx="273.4004482626915" cy="257.24339650736914" r="3" style="fill: steelblue;"></circle><circle cx="209.01409685611725" cy="321.90882662932074" r="3" style="fill: steelblue;"></circle><circle cx="277.4747371673584" cy="292.1844869852066" r="3" style="fill: steelblue;"></circle><circle cx="353.6987766623497" cy="223.82998259531126" r="3" style="fill: steelblue;"></circle><circle cx="181.87218010425568" cy="252.8061866760254" r="3" style="fill: steelblue;"></circle><circle cx="221.64852619171143" cy="230.53831938240262" r="3" style="fill: steelblue;"></circle><circle cx="97.15213179588318" cy="309.7767482201258" r="3" style="fill: steelblue;"></circle><circle cx="207.27137625217438" cy="104.5899283554819" r="3" style="fill: steelblue;"></circle><circle cx="381.46813809871674" cy="157.5564137763447" r="3" style="fill: steelblue;"></circle><circle cx="507.36225843429565" cy="195.74589777686117" r="3" style="fill: steelblue;"></circle><circle cx="368.9957857131958" cy="152.30817637509767" r="3" style="fill: steelblue;"></circle><circle cx="404.9647629261017" cy="155.9579148888588" r="3" style="fill: steelblue;"></circle><circle cx="416.6475623846054" cy="136.81121915578842" r="3" style="fill: steelblue;"></circle><circle cx="517.1347618103027" cy="65.91785781913335" r="3" style="fill: steelblue;"></circle><circle cx="316.4160590618849" cy="60.703865355915475" r="3" style="fill: steelblue;"></circle><circle cx="364.8401990532875" cy="45.99189923869238" r="3" style="fill: steelblue;"></circle><circle cx="312.3966917395591" cy="267.06179893679086" r="3" style="fill: steelblue;"></circle><circle cx="143.9010500907898" cy="298.0489333470662" r="3" style="fill: steelblue;"></circle><circle cx="274.8260222375393" cy="279.80443918042715" r="3" style="fill: steelblue;"></circle><circle cx="240.37340730428693" cy="286.29067788521445" r="3" style="fill: steelblue;"></circle><circle cx="175.5110263824463" cy="241.98536574840546" r="3" style="fill: steelblue;"></circle></g></svg>