<svg xmlns="http://www.w3.org/2000/svg"><rect width="200" height="200" fill="white"></rect><g><circle cx="25.30322819948197" cy="155.16088008880615" r="2" style="fill: steelblue;"></circle><circle cx="22.168336808681495" cy="166.17728620767593" r="2" style="fill: steelblue;"></circle><circle cx="81.58187977969646" cy="92.01553221791983" r="2" style="fill: steelblue;"></circle><circle cx="68.14857423305511" cy="141.37863591313362" r="2" style="fill: steelblue;"></circle><circle cx="49.75865632295609" cy="168.9161792397499" r="2" style="fill: steelblue;"></circle><circle cx="20.62747478485108" cy="109.16293542832136" r="2" style="fill: steelblue;"></circle><circle cx="81.08974099159241" cy="138.9871597290039" r="2" style="fill: steelblue;"></circle><circle cx="173.45454394817352" cy="189.89330381155014" r="2" style="fill: steelblue;"></circle><circle cx="135.86376458406448" cy="141.8611280620098" r="2" style="fill: steelblue;"></circle><circle cx="99.95662644505501" cy="148.88495430350304" r="2" style="fill: steelblue;"></circle><circle cx="78.96265424787998" cy="130.7536330074072" r="2" style="fill: steelblue;"></circle><circle cx="37.81262263655663" cy="76.83318704366684" r="2" style="fill: steelblue;"></circle><circle cx="112.8625575453043" cy="130.2406121045351" r="2" style="fill: steelblue;"></circle><circle cx="140.49724712967873" cy="90.33271335065365" r="2" style="fill: steelblue;"></circle><circle cx="98.35426930803806" cy="162.3643510043621" r="2" style="fill: steelblue;"></circle><circle cx="110.9321866184473" cy="139.78559002280235" r="2" style="fill: steelblue;"></circle><circle cx="53.03620025515556" cy="72.74463437497616" r="2" style="fill: steelblue;"></circle><circle cx="56.00029081106186" cy="123.07642623782158" r="2" style="fill: steelblue;"></circle><circle cx="134.50002893805504" cy="117.28104054927826" r="2" style="fill: steelblue;"></circle><circle cx="76.11411847174168" cy="40.71919471025467" r="2" style="fill: steelblue;"></circle><circle cx="109.23390034586191" cy="65.58215841650963" r="2" style="fill: steelblue;"></circle><circle cx="80.9476938098669" cy="117.83194579184055" r="2" style="fill: steelblue;"></circle><circle cx="86.98403220623732" cy="144.8274500668049" r="2" style="fill: steelblue;"></circle><circle cx="100.7271563517861" cy="143.2848446071148" r="2" style="fill: steelblue;"></circle><circle cx="122.89046160876751" cy="157.74693563580513" r="2" style="fill: steelblue;"></circle><circle cx="38.38219344615937" cy="183.77107232809067" r="2" style="fill: steelblue;"></circle><circle cx="65.37969261407852" cy="144.97119411826134" r="2" style="fill: steelblue;"></circle><circle cx="75.81806965172291" cy="94.42638177424669" r="2" style="fill: steelblue;"></circle><circle cx="4.262259602546697" cy="179.4968605041504" r="2" style="fill: steelblue;"></circle><circle cx="81.88492469489574" cy="104.87057957798243" r="2" style="fill: steelblue;"></circle><circle cx="108.77795834094286" cy="46.60442695021629" r="2" style="fill: steelblue;"></circle><circle cx="142.9108776152134" cy="22.013603150844574" r="2" style="fill: steelblue;"></circle><circle cx="164.8997724056244" cy="62.952617555856705" r="2" style="fill: steelblue;"></circle><circle cx="131.4583256840706" cy="60.88312566280365" r="2" style="fill: steelblue;"></circle><circle cx="123.0853296816349" cy="69.26894783973694" r="2" style="fill: steelblue;"></circle><circle cx="78.02427597343922" cy="49.86850395798683" r="2" style="fill: steelblue;"></circle><circle cx="68.49755197763443" cy="65.9898392856121" r="2" style="fill: steelblue;"></circle><circle cx="77.97369584441185" cy="113.36106844246387" r="2" style="fill: steelblue;"></circle><circle cx="39.637228846549995" cy="161.21644750237465" r="2" style="fill: steelblue;"></circle><circle cx="9.655578434467321" cy="161.76239997148514" r="2" style="fill: steelblue;"></circle><circle cx="76.41313262283802" cy="99.48464997578412" r="2" style="fill: steelblue;"></circle><circle cx="148.3274757862091" cy="134.19728204607964" r="2" style="fill: steelblue;"></circle><circle cx="131.769011169672" cy="15.108054876327515" r="2" style="fill: steelblue;"></circle><circle cx="158.7681122124195" cy="76.26281715929508" r="2" style="fill: steelblue;"></circle><circle cx="149.69916865229607" cy="57.017045468091965" r="2" style="fill: steelblue;"></circle><circle cx="135.6634184718132" cy="113.94324004650116" r="2" style="fill: steelblue;"></circle><circle cx="156.38791620731354" cy="94.29711326956749" r="2" style="fill: steelblue;"></circle><circle cx="19.18545216321946" cy="34.635281562805176" r="2" style="fill: steelblue;"></circle><circle cx="111.01572904735804" cy="145.14891281723976" r="2" style="fill: steelblue;"></circle><circle cx="36.743311583995826" cy="138.09282928705215" r="2" style="fill: steelblue;"></circle><circle cx="13.893736898899084" cy="89.50494825839996" r="2" style="fill: steelblue;"></circle><circle cx="14.06970471143723" cy="85.92202924191952" r="2" style="fill: steelblue;"></circle><circle cx="92.38093011081219" cy="65.68775922060013" r="2" style="fill: steelblue;"></circle><circle cx="105.59094548225403" cy="46.12585753202438" r="2" style="fill: steelblue;"></circle><circle cx="75.3787312656641" cy="125.85951052606106" r="2" style="fill: steelblue;"></circle><circle cx="3.1517431139946037" cy="184.79484915733337" r="2" style="fill: steelblue;"></circle><circle cx="95.34970941022038" cy="179.70796525478363" r="2" style="fill: steelblue;"></circle><circle cx="90.42527936398983" cy="87.25109361112118" r="2" style="fill: steelblue;"></circle><circle cx="80.1378920674324" cy="136.81528195738792" r="2" style="fill: steelblue;"></circle><circle cx="38.949320465326316" cy="118.96839775145054" r="2" style="fill: steelblue;"></circle><circle cx="132.0902317762375" cy="108.63450579345226" r="2" style="fill: steelblue;"></circle><circle cx="35.61839312314988" cy="33.61365795135498" r="2" style="fill: steelblue;"></circle><circle cx="19.780455529689796" cy="180.41411638259888" r="2" style="fill: steelblue;"></circle><circle cx="53.8276381790638" cy="155.097546428442" r="2" style="fill: steelblue;"></circle><circle cx="49.10646602511407" cy="92.42248432710767" r="2" style="fill: steelblue;"></circle><circle cx="11.90256923437119" cy="71.84170596301556" r="2" style="fill: steelblue;"></circle><circle cx="29.519996047019966" cy="106.93051191046834" r="2" style="fill: steelblue;"></circle><circle cx="130.90598993003368" cy="171.59635424613953" r="2" style="fill: steelblue;"></circle><circle cx="1.249468326568609" cy="182.36510306596756" r="2" style="fill: steelblue;"></circle><circle cx="102.03495752066374" cy="105.60140004381537" r="2" style="fill: steelblue;"></circle><circle cx="61.99754625558853" cy="155.79886958003044" r="2" style="fill: steelblue;"></circle><circle cx="139.89021852612495" cy="42.85060465335846" r="2" style="fill: steelblue;"></circle><circle cx="158.21043252944946" cy="78.50332781672478" r="2" style="fill: steelblue;"></circle><circle cx="151.53675377368927" cy="48.82042706012726" r="2" style="fill: steelblue;"></circle><circle cx="156.22746422886848" cy="65.44473245739937" r="2" style="fill: steelblue;"></circle><circle cx="171.81689143180847" cy="100.82907540490851" r="2" style="fill: steelblue;"></circle><circle cx="120.65936475992203" cy="48.846038430929184" r="2" style="fill: steelblue;"></circle><circle cx="129.04046699404716" cy="58.862897008657455" r="2" style="fill: steelblue;"></circle><circle cx="126.11209452152252" cy="89.41477574408054" r="2" style="fill: steelblue;"></circle><circle cx="174.77576285600662" cy="101.33758143056184" r="2" style="fill: steelblue;"></circle><circle cx="167.37105548381805" cy="105.930470302701" r="2" style="fill: steelblue;"></circle><circle cx="193.73819082975388" cy="36.50773912668228" r="2" style="fill: steelblue;"></circle><circle cx="178.94038408994675" cy="61.065154522657394" r="2" style="fill: steelblue;"></circle><circle cx="92.26798862218857" cy="152.31165140867233" r="2" style="fill: steelblue;"></circle><circle cx="52.40611955523491" cy="172.8205069899559" r="2" style="fill: steelblue;"></circle><circle cx="46.07025384902955" cy="131.35117515921593" r="2" style="fill: steelblue;"></circle><circle cx="88.32819703966379" cy="130.43681383132935" r="2" style="fill: steelblue;"></circle><circle cx="89.25452027469873" cy="64.57988396286964" r="2" style="fill: steelblue;"></circle><circle cx="76.34582035243511" cy="133.11702236533165" r="2" style="fill: steelblue;"></circle><circle cx="150.01036077737808" cy="72.02233970165253" r="2" style="fill: steelblue;"></circle><circle cx="122.52707444131374" cy="60.13178303837776" r="2" style="fill: steelblue;"></circle><circle cx="192.8347408771515" cy="64.85781669616699" r="2" style="fill: steelblue;"></circle><circle cx="112.15313002467155" cy="67.84631535410881" r="2" style="fill: steelblue;"></circle><circle cx="187.94615417718887" cy="39.30096551775932" r="2" style="fill: steelblue;"></circle><circle cx="146.47845402359962" cy="54.03672382235527" r="2" style="fill: steelblue;"></circle><circle cx="198.87941926717758" cy="21.139322221279144" r="2" style="fill: steelblue;"></circle><circle cx="106.99724955484271" cy="29.59929257631302" r="2" style="fill: steelblue;"></circle><circle cx="112.2781340032816" cy="53.911714255809784" r="2" style="fill: steelblue;"></circle><circle cx="120.68202011287212" cy="85.79735495150089" r="2" style="fill: steelblue;"></circle><circle cx="128.69689278304577" cy="65.14277905225754" r="2" style="fill: steelblue;"></circle><circle cx="128.42485159635544" cy="18.20552945137024" r="2" style="fill: steelblue;"></circle><circle cx="153.3897876739502" cy="82.14737139642239" r="2" style="fill: steelblue;"></circle><circle cx="97.33261833898723" cy="51.16446539759636" r="2" style="fill: steelblue;"></circle><circle cx="141.25871136784554" cy="112.94311136007309" r="2" style="fill: steelblue;"></circle><circle cx="122.60256186127663" cy="110.86629368364811" r="2" style="fill: steelblue;"></circle><circle cx="17.02623665332795" cy="83.52148197591305" r="2" style="fill: steelblue;"></circle><circle cx="121.68139815330505" cy="88.44848945736885" r="2" style="fill: steelblue;"></circle><circle cx="55.4317444562912" cy="114.88176360726357" r="2" style="fill: steelblue;"></circle><circle cx="101.58308551181108" cy="78.44504006206989" r="2" style="fill: steelblue;"></circle><circle cx="159.07607078552246" cy="80.91165348887444" r="2" style="fill: steelblue;"></circle><circle cx="118.94950307905674" cy="37.663521617650986" r="2" style="fill: steelblue;"></circle><circle cx="132.95357897877693" cy="63.674310594797134" r="2" style="fill: steelblue;"></circle><circle cx="51.133400201797485" cy="107.01999524608254" r="2" style="fill: steelblue;"></circle><circle cx="34.315592050552375" cy="162.00572848320007" r="2" style="fill: steelblue;"></circle><circle cx="101.00572477094829" cy="180.2736058831215" r="2" style="fill: steelblue;"></circle><circle cx="61.38085797429085" cy="79.36909832060337" r="2" style="fill: steelblue;"></circle><circle cx="28.947769105434425" cy="164.4480362534523" r="2" style="fill: steelblue;"></circle><circle cx="66.18926525115967" cy="90.45514594763517" r="2" style="fill: steelblue;"></circle></g></svg>