<svg xmlns="http://www.w3.org/2000/svg"><g transform="translate(40,20)"><circle cx="454.05383974313736" cy="168.03944152262477" r="3" style="fill: steelblue;"></circle><circle cx="473.22442576289177" cy="138.8849632607566" r="3" style="fill: steelblue;"></circle><circle cx="397.3367363959551" cy="163.0770547522439" r="3" style="fill: steelblue;"></circle><circle cx="528.2107499241829" cy="101.0596313410335" r="3" style="fill: steelblue;"></circle><circle cx="440.57895809412" cy="247.6844431625472" r="3" style="fill: steelblue;"></circle><circle cx="260.09538979735225" cy="109.92861539125443" r="3" style="fill: steelblue;"></circle><circle cx="384.77768160402775" cy="106.17192337910336" r="3" style="fill: steelblue;"></circle><circle cx="378.3924315869808" cy="44.41421561770971" r="3" style="fill: steelblue;"></circle><circle cx="422.59604416787624" cy="113.99250643120871" r="3" style="fill: steelblue;"></circle><circle cx="458.405978679657" cy="169.87671330571175" r="3" style="fill: steelblue;"></circle><circle cx="528.5868895053864" cy="82.43676523367566" r="3" style="fill: steelblue;"></circle><circle cx="446.52191519737244" cy="48.98036188549464" r="3" style="fill: steelblue;"></circle><circle cx="422.1826487034559" cy="166.14263877272606" r="3" style="fill: steelblue;"></circle><circle cx="393.0789039283991" cy="118.14909842279224" r="3" style="fill: steelblue;"></circle><circle cx="386.2788402289152" cy="137.66619231965808" r="3" style="fill: steelblue;"></circle><circle cx="311.01022565737367" cy="38.762801223331046" r="3" style="fill: steelblue;"></circle><circle cx="458.82907032966614" cy="124.97268699937395" r="3" style="fill: steelblue;"></circle><circle cx="502.1707181632519" cy="162.50306740403175" r="3" style="fill: steelblue;"></circle><circle cx="363.4158582240343" cy="151.66881680488586" r="3" style="fill: steelblue;"></circle><circle cx="388.56075301766396" cy="134.0388192070855" r="3" style="fill: steelblue;"></circle><circle cx="414.6003623306751" cy="145.31799323028986" r="3" style="fill: steelblue;"></circle><circle cx="467.1047446131706" cy="234.94627657863828" r="3" style="fill: steelblue;"></circle><circle cx="303.5001854225993" cy="191.94464672667283" r="3" style="fill: steelblue;"></circle><circle cx="484.73890766501427" cy="251.0924446913931" r="3" style="fill: steelblue;"></circle><circle cx="172.5021482259035" cy="136.42711026801004" r="3" style="fill: steelblue;"></circle><circle cx="385.9001559019089" cy="148.39378206266298" r="3" style="fill: steelblue;"></circle><circle cx="344.5879327878356" cy="302.5654289457533" r="3" style="fill: steelblue;"></circle><circle cx="363.1217238306999" cy="159.7366825573974" r="3" style="fill: steelblue;"></circle><circle cx="105.77710278332235" cy="226.0357112520271" r="3" style="fill: steelblue;"></circle><circle cx="196.02399308234453" cy="227.77202725410461" r="3" style="fill: steelblue;"></circle><circle cx="332.24850565195084" cy="164.76348828938274" r="3" style="fill: steelblue;"></circle><circle cx="298.6254733800888" cy="216.82893257174226" r="3" style="fill: steelblue;"></circle><circle cx="376.95391595363617" cy="201.8598070782092" r="3" style="fill: steelblue;"></circle><circle cx="228.95629785954952" cy="216.36798336274092" r="3" style="fill: steelblue;"></circle><circle cx="245.81607112661004" cy="174.28115300006334" r="3" style="fill: steelblue;"></circle><circle cx="156.8025552481413" cy="184.98963262471887" r="3" style="fill: steelblue;"></circle><circle cx="163.75727511942387" cy="218.47038467725116" r="3" style="fill: steelblue;"></circle><circle cx="204.20078437775373" cy="260.4289261831177" r="3" style="fill: steelblue;"></circle><circle cx="421.4559678733349" cy="102.90670808818606" r="3" style="fill: steelblue;"></circle><circle cx="53.26959237456323" cy="322.43579129377997" r="3" style="fill: steelblue;"></circle><circle cx="241.26883920282125" cy="224.08113918370668" r="3" style="fill: steelblue;"></circle><circle cx="233.7892202474177" cy="294.26298869980707" r="3" style="fill: steelblue;"></circle><circle cx="227.0114180445671" cy="157.52702206373215" r="3" style="fill: steelblue;"></circle><circle cx="263.19067639298737" cy="240.6155711246861" r="3" style="fill: steelblue;"></circle><circle cx="219.10338912159204" cy="172.2788150525755" r="3" style="fill: steelblue;"></circle><circle cx="211.90089851617813" cy="329.6004616551929" r="3" style="fill: steelblue;"></circle><circle cx="415.9595985710621" cy="257.84531235694885" r="3" style="fill: steelblue;"></circle><circle cx="88.65785345435144" cy="237.81512387924727" r="3" style="fill: steelblue;"></circle><circle cx="161.28580391407013" cy="278.2404894630114" r="3" style="fill: steelblue;"></circle><circle cx="199.02376558631659" cy="253.79546814494665" r="3" style="fill: steelblue;"></circle><circle cx="404.8392404615879" cy="265.363372862339" r="3" style="fill: steelblue;"></circle><circle cx="325.1612477749586" cy="201.62102186845408" r="3" style="fill: steelblue;"></circle><circle cx="254.34208477847278" cy="298.22860989305707" r="3" style="fill: steelblue;"></circle><circle cx="276.9606932345778" cy="261.96863585048254" r="3" style="fill: steelblue;"></circle><circle cx="28.915932476520553" cy="286.42693907022476" r="3" style="fill: steelblue;"></circle><circle cx="203.38920157402754" cy="280.76214426093634" r="3" style="fill: steelblue;"></circle><circle cx="259.6599415456876" cy="282.4962147408062" r="3" style="fill: steelblue;"></circle><circle cx="0.41946664452554294" cy="231.0303118493822" r="3" style="fill: steelblue;"></circle><circle cx="124.92702908813955" cy="308.20382800367145" r="3" style="fill: steelblue;"></circle><circle cx="198.0353480949998" cy="202.12014567934807" r="3" style="fill: steelblue;"></circle><circle cx="303.5167489014566" cy="220.5621798833211" r="3" style="fill: steelblue;"></circle><circle cx="198.02389673888683" cy="87.7779093053606" r="3" style="fill: steelblue;"></circle><circle cx="251.6906834486872" cy="168.71481057670383" r="3" style="fill: steelblue;"></circle><circle cx="446.9322529435158" cy="108.0207038256857" r="3" style="fill: steelblue;"></circle><circle cx="469.3407413363457" cy="132.7387226952447" r="3" style="fill: steelblue;"></circle><circle cx="423.4963008016348" cy="98.00284687015744" r="3" style="fill: steelblue;"></circle><circle cx="166.66554741561413" cy="113.60548850562839" r="3" style="fill: steelblue;"></circle><circle cx="329.8048958927393" cy="226.94000477592147" r="3" style="fill: steelblue;"></circle><circle cx="332.7946302294731" cy="247.5341177648968" r="3" style="fill: steelblue;"></circle><circle cx="423.6131680011749" cy="135.7021340065532" r="3" style="fill: steelblue;"></circle><circle cx="393.08792620897293" cy="121.20166420936584" r="3" style="fill: steelblue;"></circle><circle cx="412.8560145199299" cy="178.62554887930548" r="3" style="fill: steelblue;"></circle><circle cx="399.8047173768282" cy="278.4670814871788" r="3" style="fill: steelblue;"></circle><circle cx="267.08200857276097" cy="281.4362645149231" r="3" style="fill: steelblue;"></circle><circle cx="164.6330700069666" cy="238.90683882766302" r="3" style="fill: steelblue;"></circle><circle cx="343.8327719271183" cy="269.47298563188974" r="3" style="fill: steelblue;"></circle><circle cx="205.68659406155348" cy="248.48098059495288" r="3" style="fill: steelblue;"></circle><circle cx="115.43879851698877" cy="270.6379625532362" r="3" style="fill: steelblue;"></circle><circle cx="240.08649297058582" cy="243.28454666667517" r="3" style="fill: steelblue;"></circle><circle cx="99.65892031788827" cy="151.39373888572055" r="3" style="fill: steelblue;"></circle><circle cx="286.4442165289074" cy="253.4160299433602" r="3" style="fill: steelblue;"></circle><circle cx="292.4099116399884" cy="328.36260232660504" r="3" style="fill: steelblue;"></circle><circle cx="197.8364958241582" cy="217.6791090104315" r="3" style="fill: steelblue;"></circle><circle cx="309.4544052891433" cy="207.5227395527893" r="3" style="fill: steelblue;"></circle><circle cx="450.42452931404114" cy="145.1281872060564" r="3" style="fill: steelblue;"></circle><circle cx="407.37801164388657" cy="183.93527085168495" r="3" style="fill: steelblue;"></circle><circle cx="120.41446052491666" cy="276.8261813455158" r="3" style="fill: steelblue;"></circle><circle cx="342.3588813096285" cy="139.98560524649088" r="3" style="fill: steelblue;"></circle><circle cx="250.25319376029074" cy="161.06098724736108" r="3" style="fill: steelblue;"></circle><circle cx="314.8416195809841" cy="77.35757364167108" r="3" style="fill: steelblue;"></circle><circle cx="334.2722826451063" cy="111.05038556787702" r="3" style="fill: steelblue;"></circle><circle cx="436.9915705919266" cy="59.37070316738551" r="3" style="fill: steelblue;"></circle><circle cx="416.76375836133957" cy="234.79506745934486" r="3" style="fill: steelblue;"></circle><circle cx="110.83248674869539" cy="126.65710681014589" r="3" style="fill: steelblue;"></circle><circle cx="159.43272605538368" cy="281.60431649949817" r="3" style="fill: steelblue;"></circle><circle cx="161.46358408033848" cy="345.221276084582" r="3" style="fill: steelblue;"></circle><circle cx="342.35522512346506" cy="264.2337448067135" r="3" style="fill: steelblue;"></circle><circle cx="486.84597730636597" cy="216.0762538098627" r="3" style="fill: steelblue;"></circle><circle cx="258.1807797588408" cy="296.2958034541872" r="3" style="fill: steelblue;"></circle><circle cx="302.8623393550515" cy="342.24469297462036" r="3" style="fill: steelblue;"></circle><circle cx="115.49324400722982" cy="232.24378625551856" r="3" style="fill: steelblue;"></circle><circle cx="323.40602193027735" cy="303.9756053023868" r="3" style="fill: steelblue;"></circle><circle cx="168.73062372207642" cy="306.69871966044104" r="3" style="fill: steelblue;"></circle><circle cx="115.23164816200735" cy="128.59799133406744" r="3" style="fill: steelblue;"></circle><circle cx="255.6177505105734" cy="131.2631219625473" r="3" style="fill: steelblue;"></circle><circle cx="90.55144608020784" cy="230.2988539967272" r="3" style="fill: steelblue;"></circle><circle cx="411.5176894515753" cy="142.25777238607407" r="3" style="fill: steelblue;"></circle><circle cx="303.99986336007714" cy="100.82468307680553" r="3" style="fill: steelblue;"></circle><circle cx="413.3665730059147" cy="90.3829236825307" r="3" style="fill: steelblue;"></circle><circle cx="440.3945495188236" cy="133.66124696201746" r="3" style="fill: steelblue;"></circle><circle cx="439.75415870547295" cy="47.853903637992005" r="3" style="fill: steelblue;"></circle><circle cx="296.5277277678251" cy="154.54331702656214" r="3" style="fill: steelblue;"></circle><circle cx="279.0094424318522" cy="192.37573012813095" r="3" style="fill: steelblue;"></circle><circle cx="24.879060387611403" cy="120.64298407899008" r="3" style="fill: steelblue;"></circle><circle cx="162.06712134182453" cy="206.8474226527744" r="3" style="fill: steelblue;"></circle><circle cx="161.1901194602251" cy="272.39012469847995" r="3" style="fill: steelblue;"></circle><circle cx="347.2437421604991" cy="211.49282281597453" r="3" style="fill: steelblue;"></circle><circle cx="185.72022680193186" cy="287.7808991405699" r="3" style="fill: steelblue;"></circle></g></svg>