<svg xmlns="http://www.w3.org/2000/svg"><g transform="translate(40,20)"><circle cx="418.08858521282673" cy="193.98484374396503" r="3" style="fill: steelblue;"></circle><circle cx="230.71500135585666" cy="66.89155492931604" r="3" style="fill: steelblue;"></circle><circle cx="409.65156599879265" cy="19.662470743060112" r="3" style="fill: steelblue;"></circle><circle cx="353.1555990502238" cy="101.01711302995682" r="3" style="fill: steelblue;"></circle><circle cx="285.15971585176885" cy="249.2130558937788" r="3" style="fill: steelblue;"></circle><circle cx="332.42534033954144" cy="7.954848185181618" r="3" style="fill: steelblue;"></circle><circle cx="431.771884560585" cy="127.18215836212039" r="3" style="fill: steelblue;"></circle><circle cx="307.0652007870376" cy="120.4800090752542" r="3" style="fill: steelblue;"></circle><circle cx="392.50859923660755" cy="91.02918598800898" r="3" style="fill: steelblue;"></circle><circle cx="428.82716104388237" cy="172.37603653920814" r="3" style="fill: steelblue;"></circle><circle cx="432.27149963378906" cy="280.02192191779613" r="3" style="fill: steelblue;"></circle><circle cx="273.63020153017715" cy="231.92556779831648" r="3" style="fill: steelblue;"></circle><circle cx="238.0252891033888" cy="53.60635668039322" r="3" style="fill: steelblue;"></circle><circle cx="383.4153474122286" cy="181.07307715108618" r="3" style="fill: steelblue;"></circle><circle cx="393.36948774755" cy="92.57589299231768" r="3" style="fill: steelblue;"></circle><circle cx="378.51687267422676" cy="44.105855002999306" r="3" style="fill: steelblue;"></circle><circle cx="355.84478683769703" cy="294.5753701031208" r="3" style="fill: steelblue;"></circle><circle cx="311.3392748683691" cy="20.028279349207878" r="3" style="fill: steelblue;"></circle><circle cx="190.98614070564508" cy="107.12413229048252" r="3" style="fill: steelblue;"></circle><circle cx="432.531516328454" cy="173.04240392404608" r="3" style="fill: steelblue;"></circle><circle cx="193.74821081757545" cy="53.304606303572655" r="3" style="fill: steelblue;"></circle><circle cx="201.60163331776857" cy="245.493851788342" r="3" style="fill: steelblue;"></circle><circle cx="227.32403453439474" cy="212.58255764842033" r="3" style="fill: steelblue;"></circle><circle cx="146.31132267415524" cy="113.21847159415483" r="3" style="fill: steelblue;"></circle><circle cx="266.88430388923734" cy="188.76611576415598" r="3" style="fill: steelblue;"></circle><circle cx="315.7578990608454" cy="288.0853835493326" r="3" style="fill: steelblue;"></circle><circle cx="346.70178674161434" cy="154.484299197793" r="3" style="fill: steelblue;"></circle><circle cx="237.69705964252353" cy="121.64617720991373" r="3" style="fill: steelblue;"></circle><circle cx="451.8084888160229" cy="78.30156031996012" r="3" style="fill: steelblue;"></circle><circle cx="92.84710854291917" cy="205.1846112124622" r="3" style="fill: steelblue;"></circle><circle cx="265.7794095855206" cy="167.3594230785966" r="3" style="fill: steelblue;"></circle><circle cx="230.57553319260478" cy="216.98804404586554" r="3" style="fill: steelblue;"></circle><circle cx="192.96931240707636" cy="246.06720097362995" r="3" style="fill: steelblue;"></circle><circle cx="366.8302834779024" cy="236.89283169806004" r="3" style="fill: steelblue;"></circle><circle cx="208.309764303267" cy="186.06360624544322" r="3" style="fill: steelblue;"></circle><circle cx="133.1618566811085" cy="138.60267279669642" r="3" style="fill: steelblue;"></circle><circle cx="205.9993664547801" cy="215.96323950216174" r="3" style="fill: steelblue;"></circle><circle cx="118.14563356339933" cy="194.82243149541318" r="3" style="fill: steelblue;"></circle><circle cx="184.41441513597965" cy="211.72801982611418" r="3" style="fill: steelblue;"></circle><circle cx="261.6206474415958" cy="179.71827876754105" r="3" style="fill: steelblue;"></circle><circle cx="194.01117961853743" cy="310.32159477472305" r="3" style="fill: steelblue;"></circle><circle cx="71.10761672258378" cy="314.37104493379593" r="3" style="fill: steelblue;"></circle><circle cx="196.07945948839188" cy="171.5020774397999" r="3" style="fill: steelblue;"></circle><circle cx="192.25674837827682" cy="229.22593653202057" r="3" style="fill: steelblue;"></circle><circle cx="63.41172203421594" cy="144.54307286068797" r="3" style="fill: steelblue;"></circle><circle cx="78.49952995777132" cy="194.8210934177041" r="3" style="fill: steelblue;"></circle><circle cx="162.71876737475395" cy="138.01329927518964" r="3" style="fill: steelblue;"></circle><circle cx="61.99072793126108" cy="185.5108937714249" r="3" style="fill: steelblue;"></circle><circle cx="288.68988052010536" cy="147.93372428976" r="3" style="fill: steelblue;"></circle><circle cx="350.66583182662725" cy="227.77129774913192" r="3" style="fill: steelblue;"></circle><circle cx="250.15562589280307" cy="223.2637328095734" r="3" style="fill: steelblue;"></circle><circle cx="298.3038094639778" cy="91.6456013917923" r="3" style="fill: steelblue;"></circle><circle cx="115.45373506844045" cy="206.17431281134486" r="3" style="fill: steelblue;"></circle><circle cx="77.19973817467691" cy="252.15569250285625" r="3" style="fill: steelblue;"></circle><circle cx="263.80086155142635" cy="159.74122839979827" r="3" style="fill: steelblue;"></circle><circle cx="355.1963896304369" cy="273.84246718138456" r="3" style="fill: steelblue;"></circle><circle cx="114.92579586803915" cy="134.97490780428052" r="3" style="fill: steelblue;"></circle><circle cx="98.73001769185068" cy="191.87663793563843" r="3" style="fill: steelblue;"></circle><circle cx="282.7986280247569" cy="225.66147027537227" r="3" style="fill: steelblue;"></circle><circle cx="368.62488247454166" cy="195.21900448016822" r="3" style="fill: steelblue;"></circle><circle cx="257.95155650004745" cy="85.99888738244772" r="3" style="fill: steelblue;"></circle><circle cx="332.1240997686982" cy="157.80493053607643" r="3" style="fill: steelblue;"></circle><circle cx="414.66217048466206" cy="61.58023066818714" r="3" style="fill: steelblue;"></circle><circle cx="297.46447836980224" cy="59.191861376166344" r="3" style="fill: steelblue;"></circle><circle cx="335.24731758981943" cy="71.0803933441639" r="3" style="fill: steelblue;"></circle><circle cx="400.1453713327646" cy="60.58164983987808" r="3" style="fill: steelblue;"></circle><circle cx="306.8721622042358" cy="247.4229197949171" r="3" style="fill: steelblue;"></circle><circle cx="256.8997014127672" cy="61.5987453609705" r="3" style="fill: steelblue;"></circle><circle cx="258.2717720232904" cy="191.93930104374886" r="3" style="fill: steelblue;"></circle><circle cx="457.10749447345734" cy="185.87502937298268" r="3" style="fill: steelblue;"></circle><circle cx="400.15903048217297" cy="126.42189878970385" r="3" style="fill: steelblue;"></circle><circle cx="267.77331441873685" cy="301.6103535890579" r="3" style="fill: steelblue;"></circle><circle cx="371.48609206080437" cy="171.76672264467925" r="3" style="fill: steelblue;"></circle><circle cx="140.59241384267807" cy="225.21257046610117" r="3" style="fill: steelblue;"></circle><circle cx="167.20835275948048" cy="261.6726031526923" r="3" style="fill: steelblue;"></circle><circle cx="193.15226756036282" cy="213.4124657139182" r="3" style="fill: steelblue;"></circle><circle cx="194.65591058135033" cy="268.31854339689016" r="3" style="fill: steelblue;"></circle><circle cx="136.08134396374226" cy="234.1570120304823" r="3" style="fill: steelblue;"></circle><circle cx="68.99408966302873" cy="288.1880749017" r="3" style="fill: steelblue;"></circle><circle cx="224.39456943422556" cy="263.4941490367055" r="3" style="fill: steelblue;"></circle><circle cx="380.24889908730984" cy="154.74079614505172" r="3" style="fill: steelblue;"></circle><circle cx="139.21651102602482" cy="199.91243020631373" r="3" style="fill: steelblue;"></circle><circle cx="285.5731829814613" cy="260.75794473290443" r="3" style="fill: steelblue;"></circle><circle cx="216.29897363483906" cy="183.3922432968393" r="3" style="fill: steelblue;"></circle><circle cx="332.1847612783313" cy="180.97088370705023" r="3" style="fill: steelblue;"></circle><circle cx="216.78959157317877" cy="97.95258585363626" r="3" style="fill: steelblue;"></circle><circle cx="378.67891162633896" cy="116.72996561974287" r="3" style="fill: steelblue;"></circle><circle cx="353.394468203187" cy="167.7100467029959" r="3" style="fill: steelblue;"></circle><circle cx="387.27092899382114" cy="112.00085021555424" r="3" style="fill: steelblue;"></circle><circle cx="242.78013406321406" cy="144.36619887128472" r="3" style="fill: steelblue;"></circle><circle cx="420.3760602325201" cy="142.4739157781005" r="3" style="fill: steelblue;"></circle><circle cx="290.7654023543" cy="125.81352815032005" r="3" style="fill: steelblue;"></circle><circle cx="314.3957559764385" cy="279.8246491700411" r="3" style="fill: steelblue;"></circle><circle cx="284.7608860395849" cy="46.95800431072712" r="3" style="fill: steelblue;"></circle><circle cx="434.42293636500835" cy="286.20778508484364" r="3" style="fill: steelblue;"></circle><circle cx="87.29688718914987" cy="185.38631971459836" r="3" style="fill: steelblue;"></circle><circle cx="182.1359322220087" cy="105.87471649050713" r="3" style="fill: steelblue;"></circle><circle cx="283.1181407254189" cy="97.33635298907757" r="3" style="fill: steelblue;"></circle><circle cx="359.7473908960819" cy="188.78705073148012" r="3" style="fill: steelblue;"></circle><circle cx="216.86303716152906" cy="234.91550162434578" r="3" style="fill: steelblue;"></circle><circle cx="131.90950982272628" cy="157.2408827021718" r="3" style="fill: steelblue;"></circle><circle cx="127.14087747037412" cy="221.99824703857303" r="3" style="fill: steelblue;"></circle><circle cx="165.21512277424335" cy="316.28846302628517" r="3" style="fill: steelblue;"></circle><circle cx="284.2600048799068" cy="270.29641456902027" r="3" style="fill: steelblue;"></circle><circle cx="161.90738573670387" cy="138.89902848750353" r="3" style="fill: steelblue;"></circle><circle cx="183.47964853048325" cy="311.2788174301386" r="3" style="fill: steelblue;"></circle><circle cx="270.7230034272652" cy="120.81200880929828" r="3" style="fill: steelblue;"></circle><circle cx="477.2179466485977" cy="16.32583625614643" r="3" style="fill: steelblue;"></circle><circle cx="531.3919839262962" cy="174.85659590674913" r="3" style="fill: steelblue;"></circle><circle cx="445.07680132985115" cy="142.7800014615059" r="3" style="fill: steelblue;"></circle><circle cx="414.1419258713722" cy="72.39442151039839" r="3" style="fill: steelblue;"></circle><circle cx="524.2206086218357" cy="162.19020967837423" r="3" style="fill: steelblue;"></circle><circle cx="332.3853234574199" cy="211.4124388433993" r="3" style="fill: steelblue;"></circle><circle cx="67.69912585616113" cy="147.65153983607888" r="3" style="fill: steelblue;"></circle><circle cx="224.95203472673893" cy="265.6403409317136" r="3" style="fill: steelblue;"></circle><circle cx="162.8698629140854" cy="330.5458065122366" r="3" style="fill: steelblue;"></circle><circle cx="390.4093147069216" cy="163.63562534097582" r="3" style="fill: steelblue;"></circle><circle cx="333.2802039384842" cy="196.00132685154676" r="3" style="fill: steelblue;"></circle></g></svg>