<svg xmlns="http://www.w3.org/2000/svg"><rect width="200" height="200" fill="white"></rect><g><circle cx="25.012595951557167" cy="162.45271116495132" r="2" style="fill: steelblue;"></circle><circle cx="108.42343829572201" cy="179.81564849615097" r="2" style="fill: steelblue;"></circle><circle cx="98.50210826843977" cy="144.55474764108658" r="2" style="fill: steelblue;"></circle><circle cx="6.651772558689123" cy="183.7557464838028" r="2" style="fill: steelblue;"></circle><circle cx="4.6742245554924065" cy="156.9060817360878" r="2" style="fill: steelblue;"></circle><circle cx="6.269006431102758" cy="154.64066565036774" r="2" style="fill: steelblue;"></circle><circle cx="60.74187755584717" cy="115.75090549886227" r="2" style="fill: steelblue;"></circle><circle cx="80.18709942698479" cy="95.03468628972769" r="2" style="fill: steelblue;"></circle><circle cx="83.45174081623554" cy="150.36574974656105" r="2" style="fill: steelblue;"></circle><circle cx="83.87926816940308" cy="167.01643019914627" r="2" style="fill: steelblue;"></circle><circle cx="88.61848842352629" cy="152.4204485118389" r="2" style="fill: steelblue;"></circle><circle cx="78.69432345032692" cy="109.43662505596876" r="2" style="fill: steelblue;"></circle><circle cx="67.08064153790474" cy="152.14867740869522" r="2" style="fill: steelblue;"></circle><circle cx="93.5410562902689" cy="108.25260858982801" r="2" style="fill: steelblue;"></circle><circle cx="60.59328317642212" cy="150.95435678958893" r="2" style="fill: steelblue;"></circle><circle cx="90.20470678806305" cy="69.95288878679276" r="2" style="fill: steelblue;"></circle><circle cx="106.79453834891319" cy="115.58634918183088" r="2" style="fill: steelblue;"></circle><circle cx="66.70396625995636" cy="113.4715111926198" r="2" style="fill: steelblue;"></circle><circle cx="45.10668516159058" cy="118.83691176772118" r="2" style="fill: steelblue;"></circle><circle cx="94.97425695881248" cy="81.52429237961769" r="2" style="fill: steelblue;"></circle><circle cx="62.5227190554142" cy="59.81791615486145" r="2" style="fill: steelblue;"></circle><circle cx="144.08251866698265" cy="26.8152117729187" r="2" style="fill: steelblue;"></circle><circle cx="72.34299778938293" cy="81.6911555826664" r="2" style="fill: steelblue;"></circle><circle cx="48.686681687831886" cy="125.79676173627377" r="2" style="fill: steelblue;"></circle><circle cx="50.7937915623188" cy="89.96117897331715" r="2" style="fill: steelblue;"></circle><circle cx="130.4622296243906" cy="62.847184389829636" r="2" style="fill: steelblue;"></circle><circle cx="58.72705429792404" cy="118.0653315037489" r="2" style="fill: steelblue;"></circle><circle cx="78.47501374781132" cy="155.43190985918045" r="2" style="fill: steelblue;"></circle><circle cx="138.22074830532074" cy="132.46602416038513" r="2" style="fill: steelblue;"></circle><circle cx="144.70576718449593" cy="126.4857616275549" r="2" style="fill: steelblue;"></circle><circle cx="116.20440743863583" cy="35.38019806146622" r="2" style="fill: steelblue;"></circle><circle cx="159.8992481827736" cy="73.01299311220646" r="2" style="fill: steelblue;"></circle><circle cx="113.86734005063772" cy="101.04941939935088" r="2" style="fill: steelblue;"></circle><circle cx="102.44455528445542" cy="155.42096868157387" r="2" style="fill: steelblue;"></circle><circle cx="92.97796422615647" cy="156.13857880234718" r="2" style="fill: steelblue;"></circle><circle cx="95.60536025092006" cy="125.54778940975666" r="2" style="fill: steelblue;"></circle><circle cx="91.18260852992535" cy="113.62136751413345" r="2" style="fill: steelblue;"></circle><circle cx="55.10499179363251" cy="188.90261501073837" r="2" style="fill: steelblue;"></circle><circle cx="26.31975561380387" cy="143.60489174723625" r="2" style="fill: steelblue;"></circle><circle cx="31.87223374843598" cy="79.79371249675751" r="2" style="fill: steelblue;"></circle><circle cx="56.768009811639786" cy="136.89194098114967" r="2" style="fill: steelblue;"></circle><circle cx="183.32323282957077" cy="122.80883304774761" r="2" style="fill: steelblue;"></circle><circle cx="74.65416043996811" cy="106.8425890058279" r="2" style="fill: steelblue;"></circle><circle cx="89.41981513053179" cy="37.48023360967636" r="2" style="fill: steelblue;"></circle><circle cx="120.10545320808887" cy="88.42442315071821" r="2" style="fill: steelblue;"></circle><circle cx="132.41559863090515" cy="23.48591983318329" r="2" style="fill: steelblue;"></circle><circle cx="146.160951256752" cy="77.85327956080437" r="2" style="fill: steelblue;"></circle><circle cx="47.11743667721749" cy="179.82497662305832" r="2" style="fill: steelblue;"></circle><circle cx="143.3029681444168" cy="103.87995806522667" r="2" style="fill: steelblue;"></circle><circle cx="147.77255281805992" cy="119.00419220328331" r="2" style="fill: steelblue;"></circle><circle cx="119.69005726277828" cy="60.64850315451622" r="2" style="fill: steelblue;"></circle><circle cx="82.81716927886009" cy="106.07104878872633" r="2" style="fill: steelblue;"></circle><circle cx="71.28831408917904" cy="34.56779420375824" r="2" style="fill: steelblue;"></circle><circle cx="135.98755970597267" cy="139.20485079288483" r="2" style="fill: steelblue;"></circle><circle cx="39.06699493527413" cy="100.01034885644913" r="2" style="fill: steelblue;"></circle><circle cx="46.23214378952981" cy="145.66120728850365" r="2" style="fill: steelblue;"></circle><circle cx="158.17869678139687" cy="110.88718883693218" r="2" style="fill: steelblue;"></circle><circle cx="101.01524218916893" cy="88.48473280668259" r="2" style="fill: steelblue;"></circle><circle cx="75.87820887565613" cy="53.6118321120739" r="2" style="fill: steelblue;"></circle><circle cx="115.31618181616068" cy="142.76888817548752" r="2" style="fill: steelblue;"></circle><circle cx="92.88907693699002" cy="132.52820670604706" r="2" style="fill: steelblue;"></circle><circle cx="56.68616145849228" cy="126.68889425694942" r="2" style="fill: steelblue;"></circle><circle cx="87.42732591927052" cy="174.71976429224014" r="2" style="fill: steelblue;"></circle><circle cx="31.201227009296424" cy="162.96362727880478" r="2" style="fill: steelblue;"></circle><circle cx="105.4161068983376" cy="158.94096568226814" r="2" style="fill: steelblue;"></circle><circle cx="37.50235810875893" cy="98.63759230356663" r="2" style="fill: steelblue;"></circle><circle cx="37.69376352429391" cy="167.54747033119202" r="2" style="fill: steelblue;"></circle><circle cx="42.142743617296226" cy="161.55385076999664" r="2" style="fill: steelblue;"></circle><circle cx="95.1847936026752" cy="78.46310585737228" r="2" style="fill: steelblue;"></circle><circle cx="45.20027190446854" cy="111.68570853769779" r="2" style="fill: steelblue;"></circle><circle cx="50.340643525123596" cy="156.32025003433228" r="2" style="fill: steelblue;"></circle><circle cx="134.7658358514309" cy="91.25121906399727" r="2" style="fill: steelblue;"></circle><circle cx="146.87412083148956" cy="45.28065249323845" r="2" style="fill: steelblue;"></circle><circle cx="67.57311746478081" cy="53.67736741900444" r="2" style="fill: steelblue;"></circle><circle cx="106.28981878980994" cy="45.075199007987976" r="2" style="fill: steelblue;"></circle><circle cx="94.46831829845905" cy="49.35276359319687" r="2" style="fill: steelblue;"></circle><circle cx="131.23280219733715" cy="46.41389325261116" r="2" style="fill: steelblue;"></circle><circle cx="70.16076184809208" cy="47.65826687216759" r="2" style="fill: steelblue;"></circle><circle cx="138.59204053878784" cy="1.6818925738334656" r="2" style="fill: steelblue;"></circle><circle cx="143.05439442396164" cy="30.10542541742325" r="2" style="fill: steelblue;"></circle><circle cx="105.26500446721911" cy="42.84748286008835" r="2" style="fill: steelblue;"></circle><circle cx="178.56489717960358" cy="5.438274145126343" r="2" style="fill: steelblue;"></circle><circle cx="104.30289283394814" cy="98.39228135533631" r="2" style="fill: steelblue;"></circle><circle cx="106.78781187161803" cy="120.2549621462822" r="2" style="fill: steelblue;"></circle><circle cx="84.76056940853596" cy="188.3452519774437" r="2" style="fill: steelblue;"></circle><circle cx="84.96582359075546" cy="109.0522626414895" r="2" style="fill: steelblue;"></circle><circle cx="91.07518792152405" cy="105.72137208655477" r="2" style="fill: steelblue;"></circle><circle cx="81.92010633647442" cy="94.48972661048174" r="2" style="fill: steelblue;"></circle><circle cx="97.1900584641844" cy="86.66827846318483" r="2" style="fill: steelblue;"></circle><circle cx="104.15470264852047" cy="62.715599685907364" r="2" style="fill: steelblue;"></circle><circle cx="166.68204069137573" cy="38.19475173950195" r="2" style="fill: steelblue;"></circle><circle cx="118.98211054503918" cy="34.75668132305145" r="2" style="fill: steelblue;"></circle><circle cx="120.16099914908409" cy="92.34945001080632" r="2" style="fill: steelblue;"></circle><circle cx="134.42218154668808" cy="34.84979867935181" r="2" style="fill: steelblue;"></circle><circle cx="95.34445768222213" cy="42.65342503786087" r="2" style="fill: steelblue;"></circle><circle cx="168.21834295988083" cy="46.931276470422745" r="2" style="fill: steelblue;"></circle><circle cx="159.01585146784782" cy="56.87583088874817" r="2" style="fill: steelblue;"></circle><circle cx="159.5426708459854" cy="17.60016232728958" r="2" style="fill: steelblue;"></circle><circle cx="108.23293626308441" cy="111.79639250040054" r="2" style="fill: steelblue;"></circle><circle cx="100.78927050344646" cy="144.13475841283798" r="2" style="fill: steelblue;"></circle><circle cx="147.269307076931" cy="122.33878709375858" r="2" style="fill: steelblue;"></circle><circle cx="124.07658658921719" cy="42.149654030799866" r="2" style="fill: steelblue;"></circle><circle cx="143.106060475111" cy="108.60277283936739" r="2" style="fill: steelblue;"></circle><circle cx="128.91557849943638" cy="84.12607610225677" r="2" style="fill: steelblue;"></circle><circle cx="140.6883805990219" cy="10.531029105186462" r="2" style="fill: steelblue;"></circle><circle cx="73.43834117054939" cy="45.09348273277283" r="2" style="fill: steelblue;"></circle><circle cx="124.560971185565" cy="161.08415126800537" r="2" style="fill: steelblue;"></circle><circle cx="141.6056178510189" cy="44.56039369106293" r="2" style="fill: steelblue;"></circle><circle cx="173.40165972709656" cy="22.637760639190674" r="2" style="fill: steelblue;"></circle><circle cx="99.86593617359176" cy="31.78388476371765" r="2" style="fill: steelblue;"></circle><circle cx="184.6283808350563" cy="22.540389001369476" r="2" style="fill: steelblue;"></circle><circle cx="82.71850310266018" cy="26.00834369659424" r="2" style="fill: steelblue;"></circle><circle cx="29.697386920452125" cy="139.21032696962357" r="2" style="fill: steelblue;"></circle><circle cx="47.500955313444145" cy="94.560566265136" r="2" style="fill: steelblue;"></circle><circle cx="78.01111452281475" cy="123.77944067120552" r="2" style="fill: steelblue;"></circle><circle cx="43.98716092109681" cy="164.1953945159912" r="2" style="fill: steelblue;"></circle><circle cx="36.34914606809617" cy="162.82967329025269" r="2" style="fill: steelblue;"></circle><circle cx="33.481663465499885" cy="100.81705627962947" r="2" style="fill: steelblue;"></circle></g></svg>