<svg xmlns="http://www.w3.org/2000/svg"><g><circle cx="22.419559955596927" cy="85.22962033748627" r="2" style="fill: steelblue;"></circle><circle cx="16.911356896162037" cy="69.65021193027496" r="2" style="fill: steelblue;"></circle><circle cx="53.99223389104009" cy="40.297601372003555" r="2" style="fill: steelblue;"></circle><circle cx="29.31068204343319" cy="58.94540250301361" r="2" style="fill: steelblue;"></circle><circle cx="15.54191038012505" cy="43.61971691250801" r="2" style="fill: steelblue;"></circle><circle cx="45.41853228583932" cy="82.94804990291595" r="2" style="fill: steelblue;"></circle><circle cx="30.506420135498047" cy="50.227817799896" r="2" style="fill: steelblue;"></circle><circle cx="5.0533480942249325" cy="42.075514048337936" r="2" style="fill: steelblue;"></circle><circle cx="29.069435968995094" cy="65.29235392808914" r="2" style="fill: steelblue;"></circle><circle cx="25.55752284824848" cy="65.40000438690186" r="2" style="fill: steelblue;"></circle><circle cx="34.623183496296406" cy="62.12859004735947" r="2" style="fill: steelblue;"></circle><circle cx="61.58340647816658" cy="54.45307120680809" r="2" style="fill: steelblue;"></circle><circle cx="34.87969394773245" cy="54.85268197953701" r="2" style="fill: steelblue;"></circle><circle cx="54.833643324673176" cy="76.66191458702087" r="2" style="fill: steelblue;"></circle><circle cx="18.81782449781895" cy="45.58213911950588" r="2" style="fill: steelblue;"></circle><circle cx="30.107204988598824" cy="85.23418009281158" r="2" style="fill: steelblue;"></circle><circle cx="63.62768281251192" cy="73.18859249353409" r="2" style="fill: steelblue;"></circle><circle cx="38.46178688108921" cy="32.70573318004608" r="2" style="fill: steelblue;"></circle><circle cx="41.35947972536087" cy="49.44905894808471" r="2" style="fill: steelblue;"></circle><circle cx="79.64040264487267" cy="21.0869163274765" r="2" style="fill: steelblue;"></circle><circle cx="67.20892079174519" cy="50.33416957594454" r="2" style="fill: steelblue;"></circle><circle cx="41.08402710407972" cy="45.443474501371384" r="2" style="fill: steelblue;"></circle><circle cx="27.586274966597557" cy="40.161073952913284" r="2" style="fill: steelblue;"></circle><circle cx="28.357577696442604" cy="71.49991691112518" r="2" style="fill: steelblue;"></circle><circle cx="21.12653218209744" cy="38.67831155657768" r="2" style="fill: steelblue;"></circle><circle cx="8.11446383595467" cy="69.91949826478958" r="2" style="fill: steelblue;"></circle><circle cx="27.51440294086933" cy="60.380224883556366" r="2" style="fill: steelblue;"></circle><circle cx="52.786809112876654" cy="60.323380678892136" r="2" style="fill: steelblue;"></circle><circle cx="10.251569747924808" cy="76.21188163757324" r="2" style="fill: steelblue;"></circle><circle cx="47.56471021100879" cy="45.6194881349802" r="2" style="fill: steelblue;"></circle><circle cx="76.69778652489185" cy="27.45865285396576" r="2" style="fill: steelblue;"></circle><circle cx="88.99319842457771" cy="28.497126698493958" r="2" style="fill: steelblue;"></circle><circle cx="68.52369122207165" cy="18.626883625984192" r="2" style="fill: steelblue;"></circle><circle cx="69.55843716859818" cy="52.55057066679001" r="2" style="fill: steelblue;"></circle><circle cx="65.36552608013153" cy="44.90026421844959" r="2" style="fill: steelblue;"></circle><circle cx="75.06574802100658" cy="58.06629881262779" r="2" style="fill: steelblue;"></circle><circle cx="67.00508035719395" cy="49.04635343700647" r="2" style="fill: steelblue;"></circle><circle cx="43.31946577876806" cy="67.58857518434525" r="2" style="fill: steelblue;"></circle><circle cx="19.39177624881268" cy="80.46195805072784" r="2" style="fill: steelblue;"></circle><circle cx="19.118800014257435" cy="78.87359857559204" r="2" style="fill: steelblue;"></circle><circle cx="50.25767501210794" cy="90.5431479215622" r="2" style="fill: steelblue;"></circle><circle cx="32.90135897696018" cy="34.844549000263214" r="2" style="fill: steelblue;"></circle><circle cx="92.44597256183624" cy="76.0861337184906" r="2" style="fill: steelblue;"></circle><circle cx="61.86859142035246" cy="37.49697655439377" r="2" style="fill: steelblue;"></circle><circle cx="71.49147726595402" cy="31.808841228485107" r="2" style="fill: steelblue;"></circle><circle cx="43.02837997674942" cy="36.215391755104065" r="2" style="fill: steelblue;"></circle><circle cx="52.851443365216255" cy="24.133053421974182" r="2" style="fill: steelblue;"></circle><circle cx="82.68235921859741" cy="72.68447577953339" r="2" style="fill: steelblue;"></circle><circle cx="27.42554359138012" cy="73.41469824314117" r="2" style="fill: steelblue;"></circle><circle cx="30.953585356473923" cy="65.50005972385406" r="2" style="fill: steelblue;"></circle><circle cx="55.24752587080002" cy="41.541529446840286" r="2" style="fill: steelblue;"></circle><circle cx="57.03898537904024" cy="26.831425726413727" r="2" style="fill: steelblue;"></circle><circle cx="67.15612038969994" cy="36.96146458387375" r="2" style="fill: steelblue;"></circle><circle cx="76.93707123398781" cy="62.247513234615326" r="2" style="fill: steelblue;"></circle><circle cx="37.07024473696947" cy="52.41571944206953" r="2" style="fill: steelblue;"></circle><circle cx="7.602575421333316" cy="45.14009319245815" r="2" style="fill: steelblue;"></circle><circle cx="10.146017372608188" cy="46.848247945308685" r="2" style="fill: steelblue;"></circle><circle cx="56.37445319443941" cy="72.97789454460144" r="2" style="fill: steelblue;"></circle><circle cx="31.592359021306038" cy="55.58205507695675" r="2" style="fill: steelblue;"></circle><circle cx="40.51580112427473" cy="61.47458031773567" r="2" style="fill: steelblue;"></circle><circle cx="45.68274710327387" cy="42.98383668065071" r="2" style="fill: steelblue;"></circle><circle cx="83.19317102432251" cy="57.97855854034424" r="2" style="fill: steelblue;"></circle><circle cx="9.792941808700565" cy="83.66304337978363" r="2" style="fill: steelblue;"></circle><circle cx="22.451226785779003" cy="84.02851223945618" r="2" style="fill: steelblue;"></circle><circle cx="53.788757836446166" cy="68.50235611200333" r="2" style="fill: steelblue;"></circle><circle cx="64.07914701849222" cy="59.490715712308884" r="2" style="fill: steelblue;"></circle><circle cx="46.53474404476583" cy="73.57389479875565" r="2" style="fill: steelblue;"></circle><circle cx="14.20182287693024" cy="59.491825103759766" r="2" style="fill: steelblue;"></circle><circle cx="8.817448467016224" cy="80.78971803188324" r="2" style="fill: steelblue;"></circle><circle cx="47.19929997809231" cy="65.05100578069687" r="2" style="fill: steelblue;"></circle><circle cx="22.100565209984783" cy="79.56787943840027" r="2" style="fill: steelblue;"></circle><circle cx="78.57469767332077" cy="47.417364828288555" r="2" style="fill: steelblue;"></circle><circle cx="60.74833609163761" cy="41.449400037527084" r="2" style="fill: steelblue;"></circle><circle cx="75.58978646993637" cy="27.729453146457672" r="2" style="fill: steelblue;"></circle><circle cx="67.27763377130032" cy="33.9666411280632" r="2" style="fill: steelblue;"></circle><circle cx="49.585462297545746" cy="65.6613439321518" r="2" style="fill: steelblue;"></circle><circle cx="75.57698078453541" cy="35.89577674865723" r="2" style="fill: steelblue;"></circle><circle cx="70.56855149567127" cy="30.695322155952454" r="2" style="fill: steelblue;"></circle><circle cx="55.29261212795973" cy="31.495220959186554" r="2" style="fill: steelblue;"></circle><circle cx="49.33120928471908" cy="22.804531455039978" r="2" style="fill: steelblue;"></circle><circle cx="47.0347648486495" cy="16.63714349269867" r="2" style="fill: steelblue;"></circle><circle cx="81.74613043665886" cy="20.806360244750977" r="2" style="fill: steelblue;"></circle><circle cx="69.4674227386713" cy="48.55520725250244" r="2" style="fill: steelblue;"></circle><circle cx="23.844174295663837" cy="60.83305776119232" r="2" style="fill: steelblue;"></circle><circle cx="13.589746505022053" cy="64.8634135723114" r="2" style="fill: steelblue;"></circle><circle cx="34.324412420392036" cy="48.341529816389084" r="2" style="fill: steelblue;"></circle><circle cx="34.78159308433533" cy="56.60919025540352" r="2" style="fill: steelblue;"></circle><circle cx="67.71005801856518" cy="65.46377837657928" r="2" style="fill: steelblue;"></circle><circle cx="33.441488817334175" cy="69.44506764411926" r="2" style="fill: steelblue;"></circle><circle cx="63.98883014917374" cy="32.006411254405975" r="2" style="fill: steelblue;"></circle><circle cx="69.93410848081112" cy="38.42131048440933" r="2" style="fill: steelblue;"></circle><circle cx="67.5710916519165" cy="8.010086417198181" r="2" style="fill: steelblue;"></circle><circle cx="66.0768423229456" cy="14.291295409202576" r="2" style="fill: steelblue;"></circle><circle cx="80.34951724112034" cy="40.95977544784546" r="2" style="fill: steelblue;"></circle><circle cx="72.98163808882236" cy="40.24284482002258" r="2" style="fill: steelblue;"></circle><circle cx="89.43033888936043" cy="45.778704434633255" r="2" style="fill: steelblue;"></circle><circle cx="85.20035371184349" cy="24.662089347839355" r="2" style="fill: steelblue;"></circle><circle cx="73.04414287209511" cy="19.587966799736023" r="2" style="fill: steelblue;"></circle><circle cx="57.101322524249554" cy="39.13026452064514" r="2" style="fill: steelblue;"></circle><circle cx="67.42861047387123" cy="44.246287643909454" r="2" style="fill: steelblue;"></circle><circle cx="90.89723527431488" cy="47.7094741538167" r="2" style="fill: steelblue;"></circle><circle cx="58.92631430178881" cy="59.134991466999054" r="2" style="fill: steelblue;"></circle><circle cx="74.41776730120182" cy="44.33553330600262" r="2" style="fill: steelblue;"></circle><circle cx="43.528444319963455" cy="13.40453326702118" r="2" style="fill: steelblue;"></circle><circle cx="44.566853158175945" cy="62.977246940135956" r="2" style="fill: steelblue;"></circle><circle cx="58.239259012043476" cy="32.31741487979889" r="2" style="fill: steelblue;"></circle><circle cx="55.775755271315575" cy="27.987775206565857" r="2" style="fill: steelblue;"></circle><circle cx="42.55911819636822" cy="22.203490138053894" r="2" style="fill: steelblue;"></circle><circle cx="60.777479968965054" cy="35.1631224155426" r="2" style="fill: steelblue;"></circle><circle cx="59.54417325556278" cy="40.932903438806534" r="2" style="fill: steelblue;"></circle><circle cx="81.16823919117451" cy="17.92270839214325" r="2" style="fill: steelblue;"></circle><circle cx="68.16284470260143" cy="64.08874988555908" r="2" style="fill: steelblue;"></circle><circle cx="46.49000237695873" cy="71.4846283197403" r="2" style="fill: steelblue;"></circle><circle cx="18.997135758399967" cy="68.58990639448166" r="2" style="fill: steelblue;"></circle><circle cx="9.863197058439258" cy="48.41709677129984" r="2" style="fill: steelblue;"></circle><circle cx="60.315450839698315" cy="34.94579643011093" r="2" style="fill: steelblue;"></circle><circle cx="17.775981873273853" cy="39.959315955638885" r="2" style="fill: steelblue;"></circle><circle cx="54.77242702618241" cy="74.95414018630981" r="2" style="fill: steelblue;"></circle></g></svg>