<svg xmlns="http://www.w3.org/2000/svg"><g transform="translate(40,20)"><circle cx="347.1727055311203" cy="136.55408173799512" r="3" style="fill: steelblue;"></circle><circle cx="61.64798185229303" cy="198.0944428825751" r="3" style="fill: steelblue;"></circle><circle cx="329.902099147439" cy="42.64677762985223" r="3" style="fill: steelblue;"></circle><circle cx="416.02401182055473" cy="74.53782558441159" r="3" style="fill: steelblue;"></circle><circle cx="465.0138285756111" cy="57.13970661163326" r="3" style="fill: steelblue;"></circle><circle cx="464.8269456624985" cy="2.0858615636825064" r="3" style="fill: steelblue;"></circle><circle cx="393.9487040787935" cy="122.90917038917539" r="3" style="fill: steelblue;"></circle><circle cx="261.058528306894" cy="47.29523956775662" r="3" style="fill: steelblue;"></circle><circle cx="383.5574910789728" cy="89.00396227836605" r="3" style="fill: steelblue;"></circle><circle cx="154.25846323370934" cy="17.307874560356098" r="3" style="fill: steelblue;"></circle><circle cx="455.4861192405224" cy="89.4174769520759" r="3" style="fill: steelblue;"></circle><circle cx="298.7077199667692" cy="100.7107317447662" r="3" style="fill: steelblue;"></circle><circle cx="341.14794440567493" cy="145.45962661504745" r="3" style="fill: steelblue;"></circle><circle cx="271.39689146890305" cy="113.40244561433792" r="3" style="fill: steelblue;"></circle><circle cx="231.99628841131926" cy="186.92352883517742" r="3" style="fill: steelblue;"></circle><circle cx="412.32151731848717" cy="203.4256854560226" r="3" style="fill: steelblue;"></circle><circle cx="461.1041736602783" cy="75.07849931716913" r="3" style="fill: steelblue;"></circle><circle cx="433.55835646390915" cy="175.1079361885786" r="3" style="fill: steelblue;"></circle><circle cx="384.36290815472603" cy="155.1459215581417" r="3" style="fill: steelblue;"></circle><circle cx="309.733655937016" cy="4.372221231460532" r="3" style="fill: steelblue;"></circle><circle cx="443.24637472629547" cy="213.35854548960924" r="3" style="fill: steelblue;"></circle><circle cx="424.13267835974693" cy="197.683733003214" r="3" style="fill: steelblue;"></circle><circle cx="360.3059273958206" cy="214.5034771412611" r="3" style="fill: steelblue;"></circle><circle cx="227.72417820990086" cy="99.67666566371913" r="3" style="fill: steelblue;"></circle><circle cx="229.6264511346817" cy="244.13898661732676" r="3" style="fill: steelblue;"></circle><circle cx="378.5890609771013" cy="280.3884193301201" r="3" style="fill: steelblue;"></circle><circle cx="95.6636291742325" cy="264.5393431186676" r="3" style="fill: steelblue;"></circle><circle cx="476.64911046624184" cy="14.153254032134955" r="3" style="fill: steelblue;"></circle><circle cx="345.3360377624631" cy="82.48985260725016" r="3" style="fill: steelblue;"></circle><circle cx="247.54241209477186" cy="253.65343019366264" r="3" style="fill: steelblue;"></circle><circle cx="386.9627331197262" cy="236.69713437557218" r="3" style="fill: steelblue;"></circle><circle cx="269.19005072442815" cy="186.2667340785265" r="3" style="fill: steelblue;"></circle><circle cx="112.70778335630895" cy="201.99320237152276" r="3" style="fill: steelblue;"></circle><circle cx="401.7235663533211" cy="275.205534696579" r="3" style="fill: steelblue;"></circle><circle cx="134.8287154734135" cy="178.99646684527397" r="3" style="fill: steelblue;"></circle><circle cx="118.51997271180154" cy="102.54839509725569" r="3" style="fill: steelblue;"></circle><circle cx="137.17635914683342" cy="297.8895127773285" r="3" style="fill: steelblue;"></circle><circle cx="267.3632946086582" cy="309.87330228090286" r="3" style="fill: steelblue;"></circle><circle cx="223.48613038659096" cy="277.41953432559967" r="3" style="fill: steelblue;"></circle><circle cx="373.02268601953983" cy="291.2805125117302" r="3" style="fill: steelblue;"></circle><circle cx="294.95688535273075" cy="287.83983439207077" r="3" style="fill: steelblue;"></circle><circle cx="129.57767777144912" cy="207.84286856651306" r="3" style="fill: steelblue;"></circle><circle cx="359.9477116763592" cy="212.52969913184646" r="3" style="fill: steelblue;"></circle><circle cx="142.41356670856476" cy="222.2491640597582" r="3" style="fill: steelblue;"></circle><circle cx="296.01417945697904" cy="251.87920480966568" r="3" style="fill: steelblue;"></circle><circle cx="265.35026913508773" cy="265.69547206163406" r="3" style="fill: steelblue;"></circle><circle cx="263.47751727327704" cy="210.92036627233026" r="3" style="fill: steelblue;"></circle><circle cx="237.02888030558825" cy="266.61007553339005" r="3" style="fill: steelblue;"></circle><circle cx="144.18146096169949" cy="259.59169566631317" r="3" style="fill: steelblue;"></circle><circle cx="267.60402124375105" cy="268.60803067684174" r="3" style="fill: steelblue;"></circle><circle cx="373.1999632716179" cy="314.4648939371109" r="3" style="fill: steelblue;"></circle><circle cx="121.06188207864763" cy="164.77561816573143" r="3" style="fill: steelblue;"></circle><circle cx="124.65158298611642" cy="290.71819484233856" r="3" style="fill: steelblue;"></circle><circle cx="278.6908594937995" cy="246.2321229279041" r="3" style="fill: steelblue;"></circle><circle cx="269.77134004438994" cy="254.27292734384537" r="3" style="fill: steelblue;"></circle><circle cx="233.34184790030122" cy="263.9558508992195" r="3" style="fill: steelblue;"></circle><circle cx="117.38326594233514" cy="262.0352663099766" r="3" style="fill: steelblue;"></circle><circle cx="203.20631179958582" cy="279.5901417732239" r="3" style="fill: steelblue;"></circle><circle cx="82.52968311309816" cy="342.94135570526123" r="3" style="fill: steelblue;"></circle><circle cx="436.58383794128895" cy="288.8553336262703" r="3" style="fill: steelblue;"></circle><circle cx="349.21154983341694" cy="84.72190499305721" r="3" style="fill: steelblue;"></circle><circle cx="298.59435053542256" cy="42.8222835063934" r="3" style="fill: steelblue;"></circle><circle cx="313.9291924238205" cy="96.07720822095868" r="3" style="fill: steelblue;"></circle><circle cx="219.7784860432148" cy="157.61306583881378" r="3" style="fill: steelblue;"></circle><circle cx="406.83855570852757" cy="93.93767714500424" r="3" style="fill: steelblue;"></circle><circle cx="411.03494212031364" cy="122.24178463220595" r="3" style="fill: steelblue;"></circle><circle cx="182.86001801490784" cy="129.32596057653424" r="3" style="fill: steelblue;"></circle><circle cx="510.032534301281" cy="253.1853623688221" r="3" style="fill: steelblue;"></circle><circle cx="380.8320079743862" cy="222.0568627119064" r="3" style="fill: steelblue;"></circle><circle cx="416.69336043298244" cy="168.92840787768364" r="3" style="fill: steelblue;"></circle><circle cx="154.8556436598301" cy="63.195970654487574" r="3" style="fill: steelblue;"></circle><circle cx="160.97521416842937" cy="181.79914988577363" r="3" style="fill: steelblue;"></circle><circle cx="297.0603943616152" cy="85.56845486164087" r="3" style="fill: steelblue;"></circle><circle cx="165.80577537417412" cy="309.8654121160507" r="3" style="fill: steelblue;"></circle><circle cx="19.203895032405867" cy="209.58358403295279" r="3" style="fill: steelblue;"></circle><circle cx="219.69670716673136" cy="186.12089361995456" r="3" style="fill: steelblue;"></circle><circle cx="26.273158639669433" cy="327.6120990514755" r="3" style="fill: steelblue;"></circle><circle cx="277.0085800951347" cy="349.46725964546204" r="3" style="fill: steelblue;"></circle><circle cx="143.37931282818317" cy="321.3524118065834" r="3" style="fill: steelblue;"></circle><circle cx="197.17290557920933" cy="308.6880713701248" r="3" style="fill: steelblue;"></circle><circle cx="95.69794803857805" cy="271.0557550191879" r="3" style="fill: steelblue;"></circle><circle cx="174.95912544429302" cy="282.4112296104431" r="3" style="fill: steelblue;"></circle><circle cx="429.20524187386036" cy="165.85967391729352" r="3" style="fill: steelblue;"></circle><circle cx="134.09174501895907" cy="193.1988068856299" r="3" style="fill: steelblue;"></circle><circle cx="368.9611007273197" cy="98.61915260553356" r="3" style="fill: steelblue;"></circle><circle cx="429.93648916482925" cy="153.0418328940868" r="3" style="fill: steelblue;"></circle><circle cx="266.8655316741206" cy="149.29857179522514" r="3" style="fill: steelblue;"></circle><circle cx="283.8357263524085" cy="269.80903446674347" r="3" style="fill: steelblue;"></circle><circle cx="428.39068181812763" cy="182.80497081577775" r="3" style="fill: steelblue;"></circle><circle cx="367.9464713484049" cy="107.22811967134476" r="3" style="fill: steelblue;"></circle><circle cx="485.51299318671227" cy="66.02282524108884" r="3" style="fill: steelblue;"></circle><circle cx="426.23583532869816" cy="267.8297281265259" r="3" style="fill: steelblue;"></circle><circle cx="395.83823315799236" cy="196.66108307428658" r="3" style="fill: steelblue;"></circle><circle cx="517.02038615942" cy="180.77098466455934" r="3" style="fill: steelblue;"></circle><circle cx="352.75813590735197" cy="179.67818006873134" r="3" style="fill: steelblue;"></circle><circle cx="299.2975905351341" cy="173.51179085671902" r="3" style="fill: steelblue;"></circle><circle cx="60.350121259689345" cy="336.67812943458557" r="3" style="fill: steelblue;"></circle><circle cx="224.8344785347581" cy="195.63457118347287" r="3" style="fill: steelblue;"></circle><circle cx="249.56730932928622" cy="241.03483259677887" r="3" style="fill: steelblue;"></circle><circle cx="218.3959548175335" cy="279.63743060827255" r="3" style="fill: steelblue;"></circle><circle cx="375.7333532720804" cy="247.5422963500023" r="3" style="fill: steelblue;"></circle><circle cx="187.0622231438756" cy="266.1676600575447" r="3" style="fill: steelblue;"></circle><circle cx="295.0659297220409" cy="127.99307405948637" r="3" style="fill: steelblue;"></circle><circle cx="201.82692881673574" cy="346.35685086250305" r="3" style="fill: steelblue;"></circle><circle cx="309.65510576963425" cy="268.25272738933563" r="3" style="fill: steelblue;"></circle><circle cx="219.75763019174337" cy="319.11164969205856" r="3" style="fill: steelblue;"></circle><circle cx="385.6417988240719" cy="151.87838003039357" r="3" style="fill: steelblue;"></circle><circle cx="237.07079065963626" cy="39.58694338798519" r="3" style="fill: steelblue;"></circle><circle cx="233.88697419315577" cy="134.99369919300077" r="3" style="fill: steelblue;"></circle><circle cx="463.33942607045174" cy="81.18970394134516" r="3" style="fill: steelblue;"></circle><circle cx="259.7824080660939" cy="44.5568978786468" r="3" style="fill: steelblue;"></circle><circle cx="441.4650325477123" cy="157.35948532819745" r="3" style="fill: steelblue;"></circle><circle cx="125.19359372556211" cy="141.2377029657364" r="3" style="fill: steelblue;"></circle><circle cx="82.06651926040651" cy="157.92551711201668" r="3" style="fill: steelblue;"></circle><circle cx="128.6347840726376" cy="205.5250320583582" r="3" style="fill: steelblue;"></circle><circle cx="204.33528374880552" cy="253.4876063466072" r="3" style="fill: steelblue;"></circle><circle cx="320.71462634950876" cy="115.46469926834104" r="3" style="fill: steelblue;"></circle><circle cx="152.1683418005705" cy="201.86251755803826" r="3" style="fill: steelblue;"></circle></g></svg>