<svg xmlns="http://www.w3.org/2000/svg"><g transform="translate(40,20)"><circle cx="393.62398624420166" cy="70.68398334085941" r="3" style="fill: steelblue;"></circle><circle cx="257.02696792781353" cy="205.0846742466092" r="3" style="fill: steelblue;"></circle><circle cx="418.94790172576904" cy="176.97226664749905" r="3" style="fill: steelblue;"></circle><circle cx="211.429093927145" cy="39.74576219916344" r="3" style="fill: steelblue;"></circle><circle cx="229.57611769437793" cy="88.87265454977751" r="3" style="fill: steelblue;"></circle><circle cx="337.9445457458496" cy="107.55477491766214" r="3" style="fill: steelblue;"></circle><circle cx="443.56539487838745" cy="140.50105139613152" r="3" style="fill: steelblue;"></circle><circle cx="357.23737120628357" cy="65.0139108300209" r="3" style="fill: steelblue;"></circle><circle cx="414.40441846847534" cy="100.54112896323204" r="3" style="fill: steelblue;"></circle><circle cx="294.48714047670364" cy="118.91793943941593" r="3" style="fill: steelblue;"></circle><circle cx="427.0844900608063" cy="14.803680777549744" r="3" style="fill: steelblue;"></circle><circle cx="289.9786913394928" cy="85.86972784250975" r="3" style="fill: steelblue;"></circle><circle cx="348.48902463912964" cy="98.61380811780691" r="3" style="fill: steelblue;"></circle><circle cx="249.88758578896523" cy="139.28402652963996" r="3" style="fill: steelblue;"></circle><circle cx="439.8680591583252" cy="145.9726059809327" r="3" style="fill: steelblue;"></circle><circle cx="243.26963094994426" cy="161.55206232797354" r="3" style="fill: steelblue;"></circle><circle cx="221.64198026061058" cy="281.54055047780275" r="3" style="fill: steelblue;"></circle><circle cx="209.26655396819115" cy="147.52276167273521" r="3" style="fill: steelblue;"></circle><circle cx="462.7983355522156" cy="69.84101068228483" r="3" style="fill: steelblue;"></circle><circle cx="200.9906002879143" cy="244.42648626863956" r="3" style="fill: steelblue;"></circle><circle cx="313.56598824262625" cy="57.34054856002331" r="3" style="fill: steelblue;"></circle><circle cx="268.81619185209274" cy="283.25079306960106" r="3" style="fill: steelblue;"></circle><circle cx="161.40826284885406" cy="29.996198788285255" r="3" style="fill: steelblue;"></circle><circle cx="397.256555557251" cy="35.4656346142292" r="3" style="fill: steelblue;"></circle><circle cx="216.0282263159752" cy="105.1833426579833" r="3" style="fill: steelblue;"></circle><circle cx="274.5750577747822" cy="257.4866592884064" r="3" style="fill: steelblue;"></circle><circle cx="267.20730006694794" cy="148.26657152734697" r="3" style="fill: steelblue;"></circle><circle cx="319.1680544614792" cy="102.5325732305646" r="3" style="fill: steelblue;"></circle><circle cx="254.12651203572753" cy="215.66423699259758" r="3" style="fill: steelblue;"></circle><circle cx="156.52662456035617" cy="183.24656640179455" r="3" style="fill: steelblue;"></circle><circle cx="190.5157068371773" cy="173.76964803843293" r="3" style="fill: steelblue;"></circle><circle cx="210.0744889676571" cy="208.91736233606935" r="3" style="fill: steelblue;"></circle><circle cx="132.20129549503326" cy="133.04887125268579" r="3" style="fill: steelblue;"></circle><circle cx="255.88317565619946" cy="116.11420214176178" r="3" style="fill: steelblue;"></circle><circle cx="253.57703357934955" cy="163.77299181185663" r="3" style="fill: steelblue;"></circle><circle cx="265.9503945708275" cy="180.8594467700459" r="3" style="fill: steelblue;"></circle><circle cx="16.90440416336061" cy="239.45269007235765" r="3" style="fill: steelblue;"></circle><circle cx="188.38135689496994" cy="118.80864407867193" r="3" style="fill: steelblue;"></circle><circle cx="254.67190012335777" cy="200.63661709427834" r="3" style="fill: steelblue;"></circle><circle cx="329.67987298965454" cy="164.78554992936552" r="3" style="fill: steelblue;"></circle><circle cx="254.92882780730724" cy="138.83559610694647" r="3" style="fill: steelblue;"></circle><circle cx="241.93026973865926" cy="139.70151329413056" r="3" style="fill: steelblue;"></circle><circle cx="128.22274804115295" cy="220.1177996583283" r="3" style="fill: steelblue;"></circle><circle cx="246.50880709290504" cy="203.75557355582714" r="3" style="fill: steelblue;"></circle><circle cx="328.1688416004181" cy="215.75766447931528" r="3" style="fill: steelblue;"></circle><circle cx="27.862229347229018" cy="215.0618640705943" r="3" style="fill: steelblue;"></circle><circle cx="219.4082947075367" cy="333.71659107506275" r="3" style="fill: steelblue;"></circle><circle cx="133.32073330879214" cy="173.59361656126566" r="3" style="fill: steelblue;"></circle><circle cx="128.61928582191467" cy="274.6172549203038" r="3" style="fill: steelblue;"></circle><circle cx="280.7435327768326" cy="217.8871214389801" r="3" style="fill: steelblue;"></circle><circle cx="288.9721745252609" cy="194.56952014006674" r="3" style="fill: steelblue;"></circle><circle cx="80.78620076179506" cy="152.03466680832207" r="3" style="fill: steelblue;"></circle><circle cx="139.38575327396393" cy="189.34785360470414" r="3" style="fill: steelblue;"></circle><circle cx="207.57632419466972" cy="99.87459350377321" r="3" style="fill: steelblue;"></circle><circle cx="80.36625623703004" cy="326.7697349190712" r="3" style="fill: steelblue;"></circle><circle cx="184.99078541994095" cy="253.86045891791582" r="3" style="fill: steelblue;"></circle><circle cx="113.90168309211732" cy="216.02473566308618" r="3" style="fill: steelblue;"></circle><circle cx="87.18391299247743" cy="226.35559849441051" r="3" style="fill: steelblue;"></circle><circle cx="160.89342176914215" cy="234.38581842929125" r="3" style="fill: steelblue;"></circle><circle cx="243.5647471435368" cy="233.7938567623496" r="3" style="fill: steelblue;"></circle><circle cx="247.978074811399" cy="91.1583911627531" r="3" style="fill: steelblue;"></circle><circle cx="155.76936542987826" cy="141.35532844811678" r="3" style="fill: steelblue;"></circle><circle cx="275.9549604356289" cy="62.870561331510544" r="3" style="fill: steelblue;"></circle><circle cx="242.90921162813902" cy="90.37684947252274" r="3" style="fill: steelblue;"></circle><circle cx="207.56728515028956" cy="36.796097829937935" r="3" style="fill: steelblue;"></circle><circle cx="283.8483998179436" cy="60.95788925886154" r="3" style="fill: steelblue;"></circle><circle cx="370.4195433855057" cy="232.8309427946806" r="3" style="fill: steelblue;"></circle><circle cx="405.2620196342468" cy="49.99689124524593" r="3" style="fill: steelblue;"></circle><circle cx="284.6832686662674" cy="117.1606082469225" r="3" style="fill: steelblue;"></circle><circle cx="240.88127749040723" cy="35.548702999949455" r="3" style="fill: steelblue;"></circle><circle cx="231.14318881183863" cy="77.93086878955364" r="3" style="fill: steelblue;"></circle><circle cx="211.17186561226845" cy="158.30159042961895" r="3" style="fill: steelblue;"></circle><circle cx="282.4332797527313" cy="221.64987744763494" r="3" style="fill: steelblue;"></circle><circle cx="276.68279349803925" cy="265.57238418608904" r="3" style="fill: steelblue;"></circle><circle cx="59.67818140983583" cy="161.15735629573464" r="3" style="fill: steelblue;"></circle><circle cx="57.03250408172608" cy="254.28986940532923" r="3" style="fill: steelblue;"></circle><circle cx="277.71680295467377" cy="282.56377410143614" r="3" style="fill: steelblue;"></circle><circle cx="30.87796211242677" cy="346.1387112736702" r="3" style="fill: steelblue;"></circle><circle cx="92.87263691425325" cy="242.38958321511745" r="3" style="fill: steelblue;"></circle><circle cx="323.581405878067" cy="323.19067530333996" r="3" style="fill: steelblue;"></circle><circle cx="103.1025016307831" cy="236.42023764550686" r="3" style="fill: steelblue;"></circle><circle cx="133.50847899913788" cy="191.06016932055354" r="3" style="fill: steelblue;"></circle><circle cx="81.32536053657533" cy="275.95090605318546" r="3" style="fill: steelblue;"></circle><circle cx="237.3948759958148" cy="151.00667597725987" r="3" style="fill: steelblue;"></circle><circle cx="240.83281032275409" cy="158.93527697771788" r="3" style="fill: steelblue;"></circle><circle cx="175.6059864163399" cy="84.94489938020706" r="3" style="fill: steelblue;"></circle><circle cx="374.5206141471863" cy="64.09541256725788" r="3" style="fill: steelblue;"></circle><circle cx="377.14788258075714" cy="151.44837363623083" r="3" style="fill: steelblue;"></circle><circle cx="487.66920804977417" cy="104.08746842294931" r="3" style="fill: steelblue;"></circle><circle cx="370.17354011535645" cy="59.02824103832245" r="3" style="fill: steelblue;"></circle><circle cx="294.1396379470825" cy="117.28362664580345" r="3" style="fill: steelblue;"></circle><circle cx="356.3948714733124" cy="203.5648526623845" r="3" style="fill: steelblue;"></circle><circle cx="401.9235098361969" cy="38.67896385490894" r="3" style="fill: steelblue;"></circle><circle cx="327.6500129699707" cy="91.55018553137779" r="3" style="fill: steelblue;"></circle><circle cx="198.81196707487106" cy="253.85898556560278" r="3" style="fill: steelblue;"></circle><circle cx="176.47789657115936" cy="261.6290479898453" r="3" style="fill: steelblue;"></circle><circle cx="209.93598192930222" cy="291.2219028919935" r="3" style="fill: steelblue;"></circle><circle cx="254.6406602114439" cy="206.07489086687565" r="3" style="fill: steelblue;"></circle><circle cx="179.65816497802734" cy="251.54026802629232" r="3" style="fill: steelblue;"></circle><circle cx="59.519984722137465" cy="74.18285608291626" r="3" style="fill: steelblue;"></circle><circle cx="134.02484893798828" cy="102.36987210810184" r="3" style="fill: steelblue;"></circle><circle cx="213.76069799065593" cy="215.3374950401485" r="3" style="fill: steelblue;"></circle><circle cx="220.00464141368866" cy="214.62636459618807" r="3" style="fill: steelblue;"></circle><circle cx="23.25285315513612" cy="272.11404889822006" r="3" style="fill: steelblue;"></circle><circle cx="104.02210593223572" cy="211.95829957723618" r="3" style="fill: steelblue;"></circle><circle cx="38.18648099899293" cy="207.41901518777013" r="3" style="fill: steelblue;"></circle><circle cx="400.9222233295441" cy="78.05852890014648" r="3" style="fill: steelblue;"></circle><circle cx="438.4981298446655" cy="230.28616346418858" r="3" style="fill: steelblue;"></circle><circle cx="269.70270439982414" cy="73.38838018476963" r="3" style="fill: steelblue;"></circle><circle cx="261.4705131947994" cy="89.44787476211786" r="3" style="fill: steelblue;"></circle><circle cx="337.97462224960327" cy="139.27659783512354" r="3" style="fill: steelblue;"></circle><circle cx="336.91321849823" cy="147.38855948671699" r="3" style="fill: steelblue;"></circle><circle cx="306.6632696986199" cy="279.0049893781543" r="3" style="fill: steelblue;"></circle><circle cx="241.48806399665776" cy="336.56742349267006" r="3" style="fill: steelblue;"></circle><circle cx="246.69001433998346" cy="247.43874203413725" r="3" style="fill: steelblue;"></circle><circle cx="273.60753804445267" cy="276.93129163235426" r="3" style="fill: steelblue;"></circle><circle cx="123.75780880451202" cy="259.3579340726137" r="3" style="fill: steelblue;"></circle><circle cx="84.44603919982912" cy="236.88821606338024" r="3" style="fill: steelblue;"></circle></g></svg>