<svg xmlns="http://www.w3.org/2000/svg"><rect width="200" height="200" fill="white"></rect><g><circle cx="98.94772353582084" cy="155.16088008880615" r="2" style="fill: steelblue;"></circle><circle cx="90.61619490385056" cy="166.17728620767593" r="2" style="fill: steelblue;"></circle><circle cx="83.35247486829758" cy="92.01553221791983" r="2" style="fill: steelblue;"></circle><circle cx="75.95477662980556" cy="141.37863591313362" r="2" style="fill: steelblue;"></circle><circle cx="51.17654651403427" cy="168.9161792397499" r="2" style="fill: steelblue;"></circle><circle cx="93.73775161802769" cy="109.16293542832136" r="2" style="fill: steelblue;"></circle><circle cx="78.9403360337019" cy="138.9871597290039" r="2" style="fill: steelblue;"></circle><circle cx="90.86398631334305" cy="189.89330381155014" r="2" style="fill: steelblue;"></circle><circle cx="50.9207047522068" cy="141.8611280620098" r="2" style="fill: steelblue;"></circle><circle cx="94.67156175523996" cy="148.88495430350304" r="2" style="fill: steelblue;"></circle><circle cx="128.05294655263424" cy="130.7536330074072" r="2" style="fill: steelblue;"></circle><circle cx="63.84857967495918" cy="76.83318704366684" r="2" style="fill: steelblue;"></circle><circle cx="45.753678679466255" cy="130.2406121045351" r="2" style="fill: steelblue;"></circle><circle cx="36.819992959499366" cy="90.33271335065365" r="2" style="fill: steelblue;"></circle><circle cx="78.35428453981876" cy="162.3643510043621" r="2" style="fill: steelblue;"></circle><circle cx="15.457420051097875" cy="139.78559002280235" r="2" style="fill: steelblue;"></circle><circle cx="61.72225847840309" cy="72.74463437497616" r="2" style="fill: steelblue;"></circle><circle cx="101.55678915325552" cy="123.07642623782158" r="2" style="fill: steelblue;"></circle><circle cx="76.5396248549223" cy="117.28104054927826" r="2" style="fill: steelblue;"></circle><circle cx="119.61003616452217" cy="40.71919471025467" r="2" style="fill: steelblue;"></circle><circle cx="157.31531605124474" cy="65.58215841650963" r="2" style="fill: steelblue;"></circle><circle cx="137.82948479056358" cy="117.83194579184055" r="2" style="fill: steelblue;"></circle><circle cx="23.91448467969895" cy="144.8274500668049" r="2" style="fill: steelblue;"></circle><circle cx="105.68549428135157" cy="143.2848446071148" r="2" style="fill: steelblue;"></circle><circle cx="55.95899969339371" cy="157.74693563580513" r="2" style="fill: steelblue;"></circle><circle cx="68.49038079380989" cy="183.77107232809067" r="2" style="fill: steelblue;"></circle><circle cx="51.593123376369476" cy="144.97119411826134" r="2" style="fill: steelblue;"></circle><circle cx="87.3092733323574" cy="94.42638177424669" r="2" style="fill: steelblue;"></circle><circle cx="34.30024385452271" cy="179.4968605041504" r="2" style="fill: steelblue;"></circle><circle cx="69.98423151671886" cy="104.87057957798243" r="2" style="fill: steelblue;"></circle><circle cx="96.04150233790278" cy="46.60442695021629" r="2" style="fill: steelblue;"></circle><circle cx="120.66383883357048" cy="22.013603150844574" r="2" style="fill: steelblue;"></circle><circle cx="187.8291130065918" cy="62.952617555856705" r="2" style="fill: steelblue;"></circle><circle cx="84.81171578168869" cy="60.88312566280365" r="2" style="fill: steelblue;"></circle><circle cx="114.34155367314816" cy="69.26894783973694" r="2" style="fill: steelblue;"></circle><circle cx="161.39161810278893" cy="49.86850395798683" r="2" style="fill: steelblue;"></circle><circle cx="107.12508894503117" cy="65.9898392856121" r="2" style="fill: steelblue;"></circle><circle cx="170.9318146109581" cy="113.36106844246387" r="2" style="fill: steelblue;"></circle><circle cx="55.06476238369942" cy="161.21644750237465" r="2" style="fill: steelblue;"></circle><circle cx="48.552288115024574" cy="161.76239997148514" r="2" style="fill: steelblue;"></circle><circle cx="117.76115596294403" cy="99.48464997578412" r="2" style="fill: steelblue;"></circle><circle cx="59.59301292896271" cy="134.19728204607964" r="2" style="fill: steelblue;"></circle><circle cx="167.84605979919434" cy="15.108054876327515" r="2" style="fill: steelblue;"></circle><circle cx="114.46968596428633" cy="76.26281715929508" r="2" style="fill: steelblue;"></circle><circle cx="139.6399311721325" cy="57.017045468091965" r="2" style="fill: steelblue;"></circle><circle cx="154.23925817012787" cy="113.94324004650116" r="2" style="fill: steelblue;"></circle><circle cx="113.16500920802355" cy="94.29711326956749" r="2" style="fill: steelblue;"></circle><circle cx="164.6800994873047" cy="34.635281562805176" r="2" style="fill: steelblue;"></circle><circle cx="55.35234361886978" cy="145.14891281723976" r="2" style="fill: steelblue;"></circle><circle cx="18.851412832736976" cy="138.09282928705215" r="2" style="fill: steelblue;"></circle><circle cx="13.646087050437933" cy="89.50494825839996" r="2" style="fill: steelblue;"></circle><circle cx="61.85311675071716" cy="85.92202924191952" r="2" style="fill: steelblue;"></circle><circle cx="114.72260616719723" cy="65.68775922060013" r="2" style="fill: steelblue;"></circle><circle cx="167.16682761907578" cy="46.12585753202438" r="2" style="fill: steelblue;"></circle><circle cx="98.39157739188522" cy="125.85951052606106" r="2" style="fill: steelblue;"></circle><circle cx="73.60613755881786" cy="184.79484915733337" r="2" style="fill: steelblue;"></circle><circle cx="77.38266736268997" cy="179.70796525478363" r="2" style="fill: steelblue;"></circle><circle cx="77.89129428565502" cy="87.25109361112118" r="2" style="fill: steelblue;"></circle><circle cx="99.30120242061093" cy="136.81528195738792" r="2" style="fill: steelblue;"></circle><circle cx="43.00885125994683" cy="118.96839775145054" r="2" style="fill: steelblue;"></circle><circle cx="68.23985502123833" cy="108.63450579345226" r="2" style="fill: steelblue;"></circle><circle cx="30.505283176898963" cy="33.61365795135498" r="2" style="fill: steelblue;"></circle><circle cx="54.93713766336441" cy="180.41411638259888" r="2" style="fill: steelblue;"></circle><circle cx="55.81643283367157" cy="155.097546428442" r="2" style="fill: steelblue;"></circle><circle cx="17.58403182029725" cy="92.42248432710767" r="2" style="fill: steelblue;"></circle><circle cx="50.03277063369751" cy="71.84170596301556" r="2" style="fill: steelblue;"></circle><circle cx="93.96979622542858" cy="106.93051191046834" r="2" style="fill: steelblue;"></circle><circle cx="31.84227496385575" cy="171.59635424613953" r="2" style="fill: steelblue;"></circle><circle cx="68.2282879948616" cy="182.36510306596756" r="2" style="fill: steelblue;"></circle><circle cx="28.239971399307258" cy="105.60140004381537" r="2" style="fill: steelblue;"></circle><circle cx="82.53725469112396" cy="155.79886958003044" r="2" style="fill: steelblue;"></circle><circle cx="118.74427683651447" cy="42.85060465335846" r="2" style="fill: steelblue;"></circle><circle cx="140.09783267974854" cy="78.50332781672478" r="2" style="fill: steelblue;"></circle><circle cx="170.67307084798813" cy="48.82042706012726" r="2" style="fill: steelblue;"></circle><circle cx="136.76539659500122" cy="65.44473245739937" r="2" style="fill: steelblue;"></circle><circle cx="137.63842955231667" cy="100.82907540490851" r="2" style="fill: steelblue;"></circle><circle cx="183.4936797618866" cy="48.846038430929184" r="2" style="fill: steelblue;"></circle><circle cx="145.19115388393402" cy="58.862897008657455" r="2" style="fill: steelblue;"></circle><circle cx="107.65037350356579" cy="89.41477574408054" r="2" style="fill: steelblue;"></circle><circle cx="183.7881714105606" cy="101.33758143056184" r="2" style="fill: steelblue;"></circle><circle cx="160.86979433894157" cy="105.930470302701" r="2" style="fill: steelblue;"></circle><circle cx="156.78792297840118" cy="36.50773912668228" r="2" style="fill: steelblue;"></circle><circle cx="167.61783361434937" cy="61.065154522657394" r="2" style="fill: steelblue;"></circle><circle cx="74.61306490004063" cy="152.31165140867233" r="2" style="fill: steelblue;"></circle><circle cx="68.85049156844616" cy="172.8205069899559" r="2" style="fill: steelblue;"></circle><circle cx="42.931119352579124" cy="131.35117515921593" r="2" style="fill: steelblue;"></circle><circle cx="147.7103292942047" cy="130.43681383132935" r="2" style="fill: steelblue;"></circle><circle cx="27.795581519603736" cy="64.57988396286964" r="2" style="fill: steelblue;"></circle><circle cx="46.647088974714286" cy="133.11702236533165" r="2" style="fill: steelblue;"></circle><circle cx="184.291972219944" cy="72.02233970165253" r="2" style="fill: steelblue;"></circle><circle cx="139.36095535755157" cy="60.13178303837776" r="2" style="fill: steelblue;"></circle><circle cx="141.43429920077324" cy="64.85781669616699" r="2" style="fill: steelblue;"></circle><circle cx="186.71176433563232" cy="67.84631535410881" r="2" style="fill: steelblue;"></circle><circle cx="142.52825304865837" cy="39.30096551775932" r="2" style="fill: steelblue;"></circle><circle cx="97.09592130966485" cy="54.03672382235527" r="2" style="fill: steelblue;"></circle><circle cx="153.84988710284233" cy="21.139322221279144" r="2" style="fill: steelblue;"></circle><circle cx="125.02614073455334" cy="29.59929257631302" r="2" style="fill: steelblue;"></circle><circle cx="100.06990506517468" cy="53.911714255809784" r="2" style="fill: steelblue;"></circle><circle cx="143.6788871884346" cy="85.79735495150089" r="2" style="fill: steelblue;"></circle><circle cx="36.80573999881745" cy="65.14277905225754" r="2" style="fill: steelblue;"></circle><circle cx="104.48453659191728" cy="18.20552945137024" r="2" style="fill: steelblue;"></circle><circle cx="102.59844772517681" cy="82.14737139642239" r="2" style="fill: steelblue;"></circle><circle cx="113.08152079582214" cy="51.16446539759636" r="2" style="fill: steelblue;"></circle><circle cx="133.7059497833252" cy="112.94311136007309" r="2" style="fill: steelblue;"></circle><circle cx="172.86541908979416" cy="110.86629368364811" r="2" style="fill: steelblue;"></circle><circle cx="182.99123495817184" cy="83.52148197591305" r="2" style="fill: steelblue;"></circle><circle cx="126.16569399833679" cy="88.44848945736885" r="2" style="fill: steelblue;"></circle><circle cx="117.25945435464382" cy="114.88176360726357" r="2" style="fill: steelblue;"></circle><circle cx="63.67274224758148" cy="78.44504006206989" r="2" style="fill: steelblue;"></circle><circle cx="167.7509754896164" cy="80.91165348887444" r="2" style="fill: steelblue;"></circle><circle cx="108.47180746495724" cy="37.663521617650986" r="2" style="fill: steelblue;"></circle><circle cx="128.0014630407095" cy="63.674310594797134" r="2" style="fill: steelblue;"></circle><circle cx="144.0647378563881" cy="107.01999524608254" r="2" style="fill: steelblue;"></circle><circle cx="45.41104882955552" cy="162.00572848320007" r="2" style="fill: steelblue;"></circle><circle cx="72.70011715590954" cy="180.2736058831215" r="2" style="fill: steelblue;"></circle><circle cx="41.51554629206658" cy="79.36909832060337" r="2" style="fill: steelblue;"></circle><circle cx="64.03785794973373" cy="164.4480362534523" r="2" style="fill: steelblue;"></circle><circle cx="88.07895462960005" cy="90.45514594763517" r="2" style="fill: steelblue;"></circle></g></svg>