<svg xmlns="http://www.w3.org/2000/svg"><g><circle cx="27.474329206678604" cy="155.92598915100098" r="2" style="fill: steelblue;"></circle><circle cx="58.08343688646953" cy="119.3179339170456" r="2" style="fill: steelblue;"></circle><circle cx="53.728797700670036" cy="122.68364280462265" r="2" style="fill: steelblue;"></circle><circle cx="30.195056067572708" cy="108.0680176615715" r="2" style="fill: steelblue;"></circle><circle cx="111.05192237430148" cy="117.66193509101868" r="2" style="fill: steelblue;"></circle><circle cx="68.6168392499288" cy="152.7088761329651" r="2" style="fill: steelblue;"></circle><circle cx="115.68524804380205" cy="72.6104736328125" r="2" style="fill: steelblue;"></circle><circle cx="48.1893175178104" cy="87.31953054666519" r="2" style="fill: steelblue;"></circle><circle cx="65.75074659453499" cy="111.71504482626915" r="2" style="fill: steelblue;"></circle><circle cx="78.27067739433713" cy="90.76889157295227" r="2" style="fill: steelblue;"></circle><circle cx="70.84478967719609" cy="155.91315031051636" r="2" style="fill: steelblue;"></circle><circle cx="57.585287756390045" cy="129.64744865894318" r="2" style="fill: steelblue;"></circle><circle cx="39.83880281448365" cy="182.48198628425598" r="2" style="fill: steelblue;"></circle><circle cx="60.76588431994121" cy="124.31854605674744" r="2" style="fill: steelblue;"></circle><circle cx="41.50315324465434" cy="86.01554930210114" r="2" style="fill: steelblue;"></circle><circle cx="13.159459167056617" cy="147.68075942993164" r="2" style="fill: steelblue;"></circle><circle cx="102.99865769015419" cy="144.05303597450256" r="2" style="fill: steelblue;"></circle><circle cx="139.32905462053085" cy="115.78103452920914" r="2" style="fill: steelblue;"></circle><circle cx="101.16747303141489" cy="63.07042837142944" r="2" style="fill: steelblue;"></circle><circle cx="63.29820917712318" cy="81.5037488937378" r="2" style="fill: steelblue;"></circle><circle cx="52.760695748858986" cy="83.7508425116539" r="2" style="fill: steelblue;"></circle><circle cx="149.69861374961008" cy="78.08136194944382" r="2" style="fill: steelblue;"></circle><circle cx="96.24482641617458" cy="110.798729211092" r="2" style="fill: steelblue;"></circle><circle cx="47.35386239157783" cy="107.10764154791832" r="2" style="fill: steelblue;"></circle><circle cx="45.344593127568565" cy="86.50822341442108" r="2" style="fill: steelblue;"></circle><circle cx="41.757227977116905" cy="143.03799867630005" r="2" style="fill: steelblue;"></circle><circle cx="16.562248600853817" cy="140.45116007328033" r="2" style="fill: steelblue;"></circle><circle cx="134.38357445928787" cy="155.8569371700287" r="2" style="fill: steelblue;"></circle><circle cx="51.29202074474759" cy="85.8555555343628" r="2" style="fill: steelblue;"></circle><circle cx="89.67198656044073" cy="100.45546274632215" r="2" style="fill: steelblue;"></circle><circle cx="162.71064546373154" cy="18.585586547851562" r="2" style="fill: steelblue;"></circle><circle cx="124.85289110077753" cy="19.94186043739319" r="2" style="fill: steelblue;"></circle><circle cx="150.42800903320312" cy="82.3040634393692" r="2" style="fill: steelblue;"></circle><circle cx="134.52808923191495" cy="88.52421417832375" r="2" style="fill: steelblue;"></circle><circle cx="142.00154145558673" cy="82.43581354618073" r="2" style="fill: steelblue;"></circle><circle cx="51.26282109154595" cy="111.09533831477165" r="2" style="fill: steelblue;"></circle><circle cx="74.77284173170726" cy="139.97963964939117" r="2" style="fill: steelblue;"></circle><circle cx="58.56254564391242" cy="129.78314459323883" r="2" style="fill: steelblue;"></circle><circle cx="85.92273617784183" cy="124.10471439361572" r="2" style="fill: steelblue;"></circle><circle cx="57.66742295689053" cy="136.0638678073883" r="2" style="fill: steelblue;"></circle><circle cx="16.571275393168136" cy="125.26279985904694" r="2" style="fill: steelblue;"></circle><circle cx="106.90622395939297" cy="89.28976953029633" r="2" style="fill: steelblue;"></circle><circle cx="132.92536338170368" cy="66.62204563617706" r="2" style="fill: steelblue;"></circle><circle cx="109.26728480392032" cy="113.33245187997818" r="2" style="fill: steelblue;"></circle><circle cx="118.9341531859504" cy="93.68743374943733" r="2" style="fill: steelblue;"></circle><circle cx="146.15918397903442" cy="141.3397639989853" r="2" style="fill: steelblue;"></circle><circle cx="107.42835402488708" cy="69.62160766124725" r="2" style="fill: steelblue;"></circle><circle cx="33.6308499177297" cy="134.4730108976364" r="2" style="fill: steelblue;"></circle><circle cx="30.640965037875713" cy="145.15734314918518" r="2" style="fill: steelblue;"></circle><circle cx="92.95002942283949" cy="125.6983608007431" r="2" style="fill: steelblue;"></circle><circle cx="89.74566716286871" cy="131.04012310504913" r="2" style="fill: steelblue;"></circle><circle cx="131.89052409595914" cy="75.74114054441452" r="2" style="fill: steelblue;"></circle><circle cx="43.55614582697551" cy="85.66936254501343" r="2" style="fill: steelblue;"></circle><circle cx="93.96461637483704" cy="98.63613061606884" r="2" style="fill: steelblue;"></circle><circle cx="60.65267523129781" cy="115.88403135538101" r="2" style="fill: steelblue;"></circle><circle cx="91.76182800696957" cy="125.69619417190552" r="2" style="fill: steelblue;"></circle><circle cx="69.908912314309" cy="128.36166620254517" r="2" style="fill: steelblue;"></circle><circle cx="55.24362987942166" cy="111.60429641604424" r="2" style="fill: steelblue;"></circle><circle cx="117.5150626235538" cy="135.46249270439148" r="2" style="fill: steelblue;"></circle><circle cx="123.91439941194322" cy="140.1703178882599" r="2" style="fill: steelblue;"></circle><circle cx="36.90866496827868" cy="158.7792694568634" r="2" style="fill: steelblue;"></circle><circle cx="97.5860873858134" cy="109.47982296347618" r="2" style="fill: steelblue;"></circle><circle cx="86.63551977111233" cy="153.50245237350464" r="2" style="fill: steelblue;"></circle><circle cx="15.086033609178337" cy="108.58712568879128" r="2" style="fill: steelblue;"></circle><circle cx="25.45618216196696" cy="126.10876560211182" r="2" style="fill: steelblue;"></circle><circle cx="6.400126881069612" cy="164.29778337478638" r="2" style="fill: steelblue;"></circle><circle cx="62.511568599277076" cy="96.80452384054661" r="2" style="fill: steelblue;"></circle><circle cx="19.0047476026747" cy="104.55095618963242" r="2" style="fill: steelblue;"></circle><circle cx="52.899465296003555" cy="147.56902158260345" r="2" style="fill: steelblue;"></circle><circle cx="111.22845477528043" cy="161.2219214439392" r="2" style="fill: steelblue;"></circle><circle cx="91.51406764156289" cy="53.94520163536072" r="2" style="fill: steelblue;"></circle><circle cx="143.08393862512375" cy="35.18820405006409" r="2" style="fill: steelblue;"></circle><circle cx="56.948117415110275" cy="74.84897375106812" r="2" style="fill: steelblue;"></circle><circle cx="76.8474045726988" cy="144.72602009773254" r="2" style="fill: steelblue;"></circle><circle cx="114.01719384723239" cy="109.35337916016579" r="2" style="fill: steelblue;"></circle><circle cx="164.31575218836468" cy="112.8358706831932" r="2" style="fill: steelblue;"></circle><circle cx="81.96446829371983" cy="117.03604757785797" r="2" style="fill: steelblue;"></circle><circle cx="146.49278455310397" cy="81.82727843523026" r="2" style="fill: steelblue;"></circle><circle cx="160.3819449742635" cy="63.03649544715881" r="2" style="fill: steelblue;"></circle><circle cx="166.20647774802313" cy="41.42251014709473" r="2" style="fill: steelblue;"></circle><circle cx="128.9383027288649" cy="61.69603765010834" r="2" style="fill: steelblue;"></circle><circle cx="139.50075904528302" cy="113.93635720014572" r="2" style="fill: steelblue;"></circle><circle cx="49.20057985517714" cy="96.751419454813" r="2" style="fill: steelblue;"></circle><circle cx="95.97423457437093" cy="159.7102403640747" r="2" style="fill: steelblue;"></circle><circle cx="65.33410516050128" cy="121.95092886686325" r="2" style="fill: steelblue;"></circle><circle cx="136.16587585873074" cy="136.8717908859253" r="2" style="fill: steelblue;"></circle><circle cx="99.73187529378468" cy="121.11086249351501" r="2" style="fill: steelblue;"></circle><circle cx="52.4756133556366" cy="127.13841199874878" r="2" style="fill: steelblue;"></circle><circle cx="135.1758427090115" cy="51.22717022895813" r="2" style="fill: steelblue;"></circle><circle cx="87.2593120775289" cy="134.02971625328064" r="2" style="fill: steelblue;"></circle><circle cx="114.74876304467519" cy="75.29169768095016" r="2" style="fill: steelblue;"></circle><circle cx="113.51545684867435" cy="124.0397959947586" r="2" style="fill: steelblue;"></circle><circle cx="76.20983355575139" cy="61.0691636800766" r="2" style="fill: steelblue;"></circle><circle cx="114.13732866446178" cy="60.947662591934204" r="2" style="fill: steelblue;"></circle><circle cx="160.8113235897488" cy="45.220768451690674" r="2" style="fill: steelblue;"></circle><circle cx="133.5449006822374" cy="37.94671297073364" r="2" style="fill: steelblue;"></circle><circle cx="122.68499400880602" cy="68.97996068000793" r="2" style="fill: steelblue;"></circle><circle cx="51.642267571555244" cy="78.50109785795212" r="2" style="fill: steelblue;"></circle><circle cx="168.5911602444119" cy="88.33006247878075" r="2" style="fill: steelblue;"></circle><circle cx="179.3153338962131" cy="136.31125390529633" r="2" style="fill: steelblue;"></circle><circle cx="91.92132155100505" cy="73.43079149723053" r="2" style="fill: steelblue;"></circle><circle cx="136.07848551538254" cy="75.57941675186157" r="2" style="fill: steelblue;"></circle><circle cx="54.54231831762526" cy="86.20559871196747" r="2" style="fill: steelblue;"></circle><circle cx="180.10895649592084" cy="92.05129146575928" r="2" style="fill: steelblue;"></circle><circle cx="119.2223416434394" cy="83.72947126626968" r="2" style="fill: steelblue;"></circle><circle cx="119.27074723773532" cy="34.392303228378296" r="2" style="fill: steelblue;"></circle><circle cx="105.83132207393646" cy="77.43208557367325" r="2" style="fill: steelblue;"></circle><circle cx="81.04699303706488" cy="112.51825094223022" r="2" style="fill: steelblue;"></circle><circle cx="150.23171769248114" cy="69.75280940532684" r="2" style="fill: steelblue;"></circle><circle cx="178.88872358534073" cy="113.18219751119614" r="2" style="fill: steelblue;"></circle><circle cx="147.60070906745065" cy="35.945481061935425" r="2" style="fill: steelblue;"></circle><circle cx="96.25649154186249" cy="70.4345852136612" r="2" style="fill: steelblue;"></circle><circle cx="62.379738026195106" cy="99.8408721294254" r="2" style="fill: steelblue;"></circle><circle cx="121.09739780426025" cy="124.48189109563828" r="2" style="fill: steelblue;"></circle><circle cx="132.04211195309955" cy="144.88586485385895" r="2" style="fill: steelblue;"></circle><circle cx="50.57893395423889" cy="132.4004352092743" r="2" style="fill: steelblue;"></circle><circle cx="54.16868660185072" cy="102.77204401791096" r="2" style="fill: steelblue;"></circle><circle cx="93.31852768858275" cy="144.83402371406555" r="2" style="fill: steelblue;"></circle></g></svg>