<svg xmlns="http://www.w3.org/2000/svg"><g transform="translate(40,20)"><circle cx="384.83063220977783" cy="136.55408173799512" r="3" style="fill: steelblue;"></circle><circle cx="204.38546776771548" cy="198.0944428825751" r="3" style="fill: steelblue;"></circle><circle cx="397.5192332267761" cy="42.64677762985223" r="3" style="fill: steelblue;"></circle><circle cx="363.10599088668823" cy="74.53782558441159" r="3" style="fill: steelblue;"></circle><circle cx="315.36432445049286" cy="57.13970661163326" r="3" style="fill: steelblue;"></circle><circle cx="271.8379282951355" cy="2.0858615636825064" r="3" style="fill: steelblue;"></circle><circle cx="441.6825556755066" cy="122.90917038917539" r="3" style="fill: steelblue;"></circle><circle cx="341.7069339752198" cy="47.29523956775662" r="3" style="fill: steelblue;"></circle><circle cx="374.1594010591507" cy="89.00396227836605" r="3" style="fill: steelblue;"></circle><circle cx="448.9412569999695" cy="17.307874560356098" r="3" style="fill: steelblue;"></circle><circle cx="371.83805644512177" cy="89.4174769520759" r="3" style="fill: steelblue;"></circle><circle cx="334.43270266056066" cy="100.7107317447662" r="3" style="fill: steelblue;"></circle><circle cx="312.06819355487823" cy="145.45962661504745" r="3" style="fill: steelblue;"></circle><circle cx="309.1562980413437" cy="113.40244561433792" r="3" style="fill: steelblue;"></circle><circle cx="282.94331073760986" cy="186.92352883517742" r="3" style="fill: steelblue;"></circle><circle cx="283.5521811246872" cy="203.4256854560226" r="3" style="fill: steelblue;"></circle><circle cx="460.98820209503174" cy="75.07849931716913" r="3" style="fill: steelblue;"></circle><circle cx="429.5255506038666" cy="175.1079361885786" r="3" style="fill: steelblue;"></circle><circle cx="312.00298458337784" cy="155.1459215581417" r="3" style="fill: steelblue;"></circle><circle cx="366.9860118627548" cy="4.372221231460532" r="3" style="fill: steelblue;"></circle><circle cx="288.83746951818466" cy="213.35854548960924" r="3" style="fill: steelblue;"></circle><circle cx="265.06230399012566" cy="197.683733003214" r="3" style="fill: steelblue;"></circle><circle cx="270.9310667216778" cy="214.5034771412611" r="3" style="fill: steelblue;"></circle><circle cx="467.41586565971375" cy="99.67666566371913" r="3" style="fill: steelblue;"></circle><circle cx="221.42936043441298" cy="244.13898661732676" r="3" style="fill: steelblue;"></circle><circle cx="266.14662274718285" cy="280.3884193301201" r="3" style="fill: steelblue;"></circle><circle cx="237.99181544221938" cy="264.5393431186676" r="3" style="fill: steelblue;"></circle><circle cx="229.62364308536056" cy="14.153254032134955" r="3" style="fill: steelblue;"></circle><circle cx="241.34820328094065" cy="82.48985260725016" r="3" style="fill: steelblue;"></circle><circle cx="239.62525984738025" cy="253.65343019366264" r="3" style="fill: steelblue;"></circle><circle cx="164.69525635242462" cy="236.69713437557218" r="3" style="fill: steelblue;"></circle><circle cx="235.39817310869694" cy="186.2667340785265" r="3" style="fill: steelblue;"></circle><circle cx="204.99239802360535" cy="201.99320237152276" r="3" style="fill: steelblue;"></circle><circle cx="220.1944613456726" cy="275.205534696579" r="3" style="fill: steelblue;"></circle><circle cx="247.33761694282293" cy="178.99646684527397" r="3" style="fill: steelblue;"></circle><circle cx="178.21504265069962" cy="102.54839509725569" r="3" style="fill: steelblue;"></circle><circle cx="87.62495756149293" cy="297.8895127773285" r="3" style="fill: steelblue;"></circle><circle cx="291.4861598610878" cy="309.87330228090286" r="3" style="fill: steelblue;"></circle><circle cx="236.52375793084502" cy="277.41953432559967" r="3" style="fill: steelblue;"></circle><circle cx="299.52760130167013" cy="291.2805125117302" r="3" style="fill: steelblue;"></circle><circle cx="276.8078202009201" cy="287.83983439207077" r="3" style="fill: steelblue;"></circle><circle cx="257.55707412958145" cy="207.84286856651306" r="3" style="fill: steelblue;"></circle><circle cx="37.47573137283326" cy="212.52969913184646" r="3" style="fill: steelblue;"></circle><circle cx="325.79929769039154" cy="222.2491640597582" r="3" style="fill: steelblue;"></circle><circle cx="108.48995089530946" cy="251.87920480966568" r="3" style="fill: steelblue;"></circle><circle cx="134.10685300827026" cy="265.69547206163406" r="3" style="fill: steelblue;"></circle><circle cx="103.71190845966339" cy="210.92036627233026" r="3" style="fill: steelblue;"></circle><circle cx="237.64583325013518" cy="266.61007553339005" r="3" style="fill: steelblue;"></circle><circle cx="311.54266834259033" cy="259.59169566631317" r="3" style="fill: steelblue;"></circle><circle cx="226.05097532272342" cy="268.60803067684174" r="3" style="fill: steelblue;"></circle><circle cx="308.39911937713623" cy="314.4648939371109" r="3" style="fill: steelblue;"></circle><circle cx="340.8321940898895" cy="164.77561816573143" r="3" style="fill: steelblue;"></circle><circle cx="158.0818498134613" cy="290.71819484233856" r="3" style="fill: steelblue;"></circle><circle cx="164.5280742645264" cy="246.2321229279041" r="3" style="fill: steelblue;"></circle><circle cx="200.46316623687744" cy="254.27292734384537" r="3" style="fill: steelblue;"></circle><circle cx="154.22998309135437" cy="263.9558508992195" r="3" style="fill: steelblue;"></circle><circle cx="182.94424653053284" cy="262.0352663099766" r="3" style="fill: steelblue;"></circle><circle cx="173.85398089885712" cy="279.5901417732239" r="3" style="fill: steelblue;"></circle><circle cx="203.17567080259323" cy="342.94135570526123" r="3" style="fill: steelblue;"></circle><circle cx="177.4863713979721" cy="288.8553336262703" r="3" style="fill: steelblue;"></circle><circle cx="395.44155836105347" cy="84.72190499305721" r="3" style="fill: steelblue;"></circle><circle cx="280.8480495214462" cy="42.8222835063934" r="3" style="fill: steelblue;"></circle><circle cx="239.23973393160853" cy="96.07720822095868" r="3" style="fill: steelblue;"></circle><circle cx="410.24654746055603" cy="157.61306583881378" r="3" style="fill: steelblue;"></circle><circle cx="331.44420325756073" cy="93.93767714500424" r="3" style="fill: steelblue;"></circle><circle cx="303.27459365129477" cy="122.24178463220595" r="3" style="fill: steelblue;"></circle><circle cx="299.61229652166367" cy="129.32596057653424" r="3" style="fill: steelblue;"></circle><circle cx="412.19082713127136" cy="253.1853623688221" r="3" style="fill: steelblue;"></circle><circle cx="349.01635587215424" cy="222.0568627119064" r="3" style="fill: steelblue;"></circle><circle cx="366.7826020717621" cy="168.92840787768364" r="3" style="fill: steelblue;"></circle><circle cx="213.31324741244316" cy="63.195970654487574" r="3" style="fill: steelblue;"></circle><circle cx="277.8659427165985" cy="181.79914988577363" r="3" style="fill: steelblue;"></circle><circle cx="262.15373888611794" cy="85.56845486164087" r="3" style="fill: steelblue;"></circle><circle cx="114.16510283946991" cy="309.8654121160507" r="3" style="fill: steelblue;"></circle><circle cx="191.06431245803833" cy="209.58358403295279" r="3" style="fill: steelblue;"></circle><circle cx="223.82565267384052" cy="186.12089361995456" r="3" style="fill: steelblue;"></circle><circle cx="176.9586020708084" cy="327.6120990514755" r="3" style="fill: steelblue;"></circle><circle cx="123.40601027011871" cy="349.46725964546204" r="3" style="fill: steelblue;"></circle><circle cx="70.73630332946779" cy="321.3524118065834" r="3" style="fill: steelblue;"></circle><circle cx="354.14583027362823" cy="308.6880713701248" r="3" style="fill: steelblue;"></circle><circle cx="106.34657979011537" cy="271.0557550191879" r="3" style="fill: steelblue;"></circle><circle cx="224.69616137444973" cy="282.4112296104431" r="3" style="fill: steelblue;"></circle><circle cx="85.44146060943604" cy="165.85967391729352" r="3" style="fill: steelblue;"></circle><circle cx="273.44369754195213" cy="193.1988068856299" r="3" style="fill: steelblue;"></circle><circle cx="323.09055268764496" cy="98.61915260553356" r="3" style="fill: steelblue;"></circle><circle cx="183.75363886356357" cy="153.0418328940868" r="3" style="fill: steelblue;"></circle><circle cx="159.84013617038727" cy="149.29857179522514" r="3" style="fill: steelblue;"></circle><circle cx="248.4398550912738" cy="269.80903446674347" r="3" style="fill: steelblue;"></circle><circle cx="269.343943297863" cy="182.80497081577775" r="3" style="fill: steelblue;"></circle><circle cx="106.98035001754761" cy="107.22811967134476" r="3" style="fill: steelblue;"></circle><circle cx="282.07015335559845" cy="66.02282524108884" r="3" style="fill: steelblue;"></circle><circle cx="362.3458707332611" cy="267.8297281265259" r="3" style="fill: steelblue;"></circle><circle cx="223.2942858338356" cy="196.66108307428658" r="3" style="fill: steelblue;"></circle><circle cx="350.8290910720825" cy="180.77098466455934" r="3" style="fill: steelblue;"></circle><circle cx="272.0869021117687" cy="179.67818006873134" r="3" style="fill: steelblue;"></circle><circle cx="200.37315130233765" cy="173.51179085671902" r="3" style="fill: steelblue;"></circle><circle cx="177.99264281988144" cy="336.67812943458557" r="3" style="fill: steelblue;"></circle><circle cx="236.7389915138483" cy="195.63457118347287" r="3" style="fill: steelblue;"></circle><circle cx="172.22585320472717" cy="241.03483259677887" r="3" style="fill: steelblue;"></circle><circle cx="186.1332142353058" cy="279.63743060827255" r="3" style="fill: steelblue;"></circle><circle cx="329.37461972236633" cy="247.5422963500023" r="3" style="fill: steelblue;"></circle><circle cx="164.83888864517212" cy="266.1676600575447" r="3" style="fill: steelblue;"></circle><circle cx="311.55989706516266" cy="127.99307405948637" r="3" style="fill: steelblue;"></circle><circle cx="382.98949241638184" cy="346.35685086250305" r="3" style="fill: steelblue;"></circle><circle cx="244.87327482551336" cy="268.25272738933563" r="3" style="fill: steelblue;"></circle><circle cx="39.87248182296754" cy="319.11164969205856" r="3" style="fill: steelblue;"></circle><circle cx="443.2141149044037" cy="151.87838003039357" r="3" style="fill: steelblue;"></circle><circle cx="364.26159381866455" cy="39.58694338798519" r="3" style="fill: steelblue;"></circle><circle cx="343.76793444156647" cy="134.99369919300077" r="3" style="fill: steelblue;"></circle><circle cx="513.5888242721558" cy="81.18970394134516" r="3" style="fill: steelblue;"></circle><circle cx="305.1539236307145" cy="44.5568978786468" r="3" style="fill: steelblue;"></circle><circle cx="409.2299723625183" cy="157.35948532819745" r="3" style="fill: steelblue;"></circle><circle cx="245.40675669908524" cy="141.2377029657364" r="3" style="fill: steelblue;"></circle><circle cx="117.35377550125122" cy="157.92551711201668" r="3" style="fill: steelblue;"></circle><circle cx="221.83029480278492" cy="205.5250320583582" r="3" style="fill: steelblue;"></circle><circle cx="214.26804676651955" cy="253.4876063466072" r="3" style="fill: steelblue;"></circle><circle cx="110.73818743228914" cy="115.46469926834104" r="3" style="fill: steelblue;"></circle><circle cx="28.59604597091676" cy="201.86251755803826" r="3" style="fill: steelblue;"></circle></g></svg>