<svg xmlns="http://www.w3.org/2000/svg"><g><circle cx="14.770379662513733" cy="87.34838590025902" r="2" style="fill: steelblue;"></circle><circle cx="30.349788069725037" cy="88.91583159565926" r="2" style="fill: steelblue;"></circle><circle cx="59.702398627996445" cy="59.20906011015177" r="2" style="fill: steelblue;"></circle><circle cx="41.05459749698639" cy="65.92571288347244" r="2" style="fill: steelblue;"></circle><circle cx="56.38028308749199" cy="75.12067183852196" r="2" style="fill: steelblue;"></circle><circle cx="17.051950097084045" cy="89.68626260757446" r="2" style="fill: steelblue;"></circle><circle cx="49.772182200104" cy="59.455129504203796" r="2" style="fill: steelblue;"></circle><circle cx="57.924485951662064" cy="13.272728025913239" r="2" style="fill: steelblue;"></circle><circle cx="34.70764607191086" cy="32.06811770796776" r="2" style="fill: steelblue;"></circle><circle cx="34.599995613098145" cy="50.021686777472496" r="2" style="fill: steelblue;"></circle><circle cx="37.87140995264053" cy="60.51867287606001" r="2" style="fill: steelblue;"></circle><circle cx="45.54692879319191" cy="81.09368868172169" r="2" style="fill: steelblue;"></circle><circle cx="45.14731802046299" cy="43.56872122734785" r="2" style="fill: steelblue;"></circle><circle cx="23.338085412979126" cy="29.751376435160637" r="2" style="fill: steelblue;"></circle><circle cx="54.41786088049412" cy="50.82286534598097" r="2" style="fill: steelblue;"></circle><circle cx="14.765819907188416" cy="44.53390669077635" r="2" style="fill: steelblue;"></circle><circle cx="26.811407506465912" cy="73.48189987242222" r="2" style="fill: steelblue;"></circle><circle cx="67.29426681995392" cy="71.99985459446907" r="2" style="fill: steelblue;"></circle><circle cx="50.55094105191529" cy="32.74998553097248" r="2" style="fill: steelblue;"></circle><circle cx="78.9130836725235" cy="61.94294076412916" r="2" style="fill: steelblue;"></circle><circle cx="49.66583042405546" cy="45.383049827069044" r="2" style="fill: steelblue;"></circle><circle cx="54.556525498628616" cy="59.52615309506655" r="2" style="fill: steelblue;"></circle><circle cx="59.838926047086716" cy="56.50798389688134" r="2" style="fill: steelblue;"></circle><circle cx="28.500083088874817" cy="49.63642182410695" r="2" style="fill: steelblue;"></circle><circle cx="61.32168844342232" cy="38.554769195616245" r="2" style="fill: steelblue;"></circle><circle cx="30.08050173521042" cy="80.80890327692032" r="2" style="fill: steelblue;"></circle><circle cx="39.619775116443634" cy="67.31015369296074" r="2" style="fill: steelblue;"></circle><circle cx="39.676619321107864" cy="62.090965174138546" r="2" style="fill: steelblue;"></circle><circle cx="23.788118362426758" cy="97.86887019872665" r="2" style="fill: steelblue;"></circle><circle cx="54.3805118650198" cy="59.05753765255213" r="2" style="fill: steelblue;"></circle><circle cx="72.54134714603424" cy="45.61102082952857" r="2" style="fill: steelblue;"></circle><circle cx="71.50287330150604" cy="28.544561192393303" r="2" style="fill: steelblue;"></circle><circle cx="81.37311637401581" cy="17.550113797187805" r="2" style="fill: steelblue;"></circle><circle cx="47.44942933320999" cy="34.270837157964706" r="2" style="fill: steelblue;"></circle><circle cx="55.09973578155041" cy="38.45733515918255" r="2" style="fill: steelblue;"></circle><circle cx="41.93370118737221" cy="60.98786201328039" r="2" style="fill: steelblue;"></circle><circle cx="50.95364656299353" cy="65.75122401118279" r="2" style="fill: steelblue;"></circle><circle cx="32.411424815654755" cy="61.013152077794075" r="2" style="fill: steelblue;"></circle><circle cx="19.538041949272156" cy="80.181385576725" r="2" style="fill: steelblue;"></circle><circle cx="21.12640142440796" cy="95.17221078276634" r="2" style="fill: steelblue;"></circle><circle cx="9.456852078437805" cy="61.79343368858099" r="2" style="fill: steelblue;"></circle><circle cx="65.15545099973679" cy="25.836262106895447" r="2" style="fill: steelblue;"></circle><circle cx="23.9138662815094" cy="34.115494415163994" r="2" style="fill: steelblue;"></circle><circle cx="62.50302344560623" cy="20.615943893790245" r="2" style="fill: steelblue;"></circle><circle cx="68.19115877151489" cy="25.150415673851967" r="2" style="fill: steelblue;"></circle><circle cx="63.784608244895935" cy="32.1682907640934" r="2" style="fill: steelblue;"></circle><circle cx="75.86694657802582" cy="21.80604189634323" r="2" style="fill: steelblue;"></circle><circle cx="27.315524220466614" cy="90.40727391839027" r="2" style="fill: steelblue;"></circle><circle cx="26.585301756858826" cy="44.49213547632098" r="2" style="fill: steelblue;"></circle><circle cx="34.499940276145935" cy="81.62834420800209" r="2" style="fill: steelblue;"></circle><circle cx="58.458470553159714" cy="93.05313155055046" r="2" style="fill: steelblue;"></circle><circle cx="73.16857427358627" cy="92.96514764428139" r="2" style="fill: steelblue;"></circle><circle cx="63.03853541612625" cy="53.809534944593906" r="2" style="fill: steelblue;"></circle><circle cx="37.752486765384674" cy="47.204527258872986" r="2" style="fill: steelblue;"></circle><circle cx="47.58428055793047" cy="62.31063436716795" r="2" style="fill: steelblue;"></circle><circle cx="54.85990680754185" cy="98.4241284430027" r="2" style="fill: steelblue;"></circle><circle cx="53.151752054691315" cy="52.32514529488981" r="2" style="fill: steelblue;"></circle><circle cx="27.02210545539856" cy="54.787360318005085" r="2" style="fill: steelblue;"></circle><circle cx="44.41794492304325" cy="59.9310539662838" r="2" style="fill: steelblue;"></circle><circle cx="38.52541968226433" cy="80.52533976733685" r="2" style="fill: steelblue;"></circle><circle cx="57.01616331934929" cy="33.954884111881256" r="2" style="fill: steelblue;"></circle><circle cx="42.02144145965576" cy="82.19080343842506" r="2" style="fill: steelblue;"></circle><circle cx="16.33695662021637" cy="90.1097722351551" r="2" style="fill: steelblue;"></circle><circle cx="15.971487760543823" cy="73.0861809104681" r="2" style="fill: steelblue;"></circle><circle cx="31.497643887996674" cy="75.44676698744297" r="2" style="fill: steelblue;"></circle><circle cx="40.509284287691116" cy="94.04871538281441" r="2" style="fill: steelblue;"></circle><circle cx="26.426105201244354" cy="85.24000197649002" r="2" style="fill: steelblue;"></circle><circle cx="40.508174896240234" cy="34.54700503498316" r="2" style="fill: steelblue;"></circle><circle cx="19.21028196811676" cy="99.3752658367157" r="2" style="fill: steelblue;"></circle><circle cx="34.94899421930313" cy="48.98252123966813" r="2" style="fill: steelblue;"></circle><circle cx="20.43212056159973" cy="69.00122687220573" r="2" style="fill: steelblue;"></circle><circle cx="52.582635171711445" cy="30.054890736937523" r="2" style="fill: steelblue;"></circle><circle cx="58.550599962472916" cy="20.89478373527527" r="2" style="fill: steelblue;"></circle><circle cx="72.27054685354233" cy="24.231623113155365" r="2" style="fill: steelblue;"></circle><circle cx="66.0333588719368" cy="21.886267885565758" r="2" style="fill: steelblue;"></circle><circle cx="34.338656067848206" cy="14.091554284095764" r="2" style="fill: steelblue;"></circle><circle cx="64.10422325134277" cy="39.670317620038986" r="2" style="fill: steelblue;"></circle><circle cx="69.30467784404755" cy="35.47976650297642" r="2" style="fill: steelblue;"></circle><circle cx="68.50477904081345" cy="36.94395273923874" r="2" style="fill: steelblue;"></circle><circle cx="77.19546854496002" cy="12.612118571996689" r="2" style="fill: steelblue;"></circle><circle cx="83.36285650730133" cy="16.314472258090973" r="2" style="fill: steelblue;"></circle><circle cx="79.19363975524902" cy="3.130904585123062" r="2" style="fill: steelblue;"></circle><circle cx="51.44479274749756" cy="10.529807955026627" r="2" style="fill: steelblue;"></circle><circle cx="39.16694223880768" cy="53.866005688905716" r="2" style="fill: steelblue;"></circle><circle cx="35.1365864276886" cy="73.79694022238255" r="2" style="fill: steelblue;"></circle><circle cx="51.658470183610916" cy="76.96487307548523" r="2" style="fill: steelblue;"></circle><circle cx="43.39080974459648" cy="55.835901480168104" r="2" style="fill: steelblue;"></circle><circle cx="34.536221623420715" cy="55.37273986265063" r="2" style="fill: steelblue;"></circle><circle cx="30.554932355880737" cy="61.827089823782444" r="2" style="fill: steelblue;"></circle><circle cx="67.99358874559402" cy="24.99481961131096" r="2" style="fill: steelblue;"></circle><circle cx="61.57868951559067" cy="38.73646277934313" r="2" style="fill: steelblue;"></circle><circle cx="91.98991358280182" cy="3.5826295614242554" r="2" style="fill: steelblue;"></circle><circle cx="85.70870459079742" cy="43.92343498766422" r="2" style="fill: steelblue;"></circle><circle cx="59.04022455215454" cy="6.026922911405563" r="2" style="fill: steelblue;"></circle><circle cx="59.75715517997742" cy="26.760772988200188" r="2" style="fill: steelblue;"></circle><circle cx="54.221295565366745" cy="0.5602903664112091" r="2" style="fill: steelblue;"></circle><circle cx="75.33791065216064" cy="46.501375222578645" r="2" style="fill: steelblue;"></circle><circle cx="80.41203320026398" cy="43.8609329983592" r="2" style="fill: steelblue;"></circle><circle cx="60.86973547935486" cy="39.65898994356394" r="2" style="fill: steelblue;"></circle><circle cx="55.753712356090546" cy="35.651553608477116" r="2" style="fill: steelblue;"></circle><circle cx="52.2905258461833" cy="35.78757420182228" r="2" style="fill: steelblue;"></circle><circle cx="40.865008533000946" cy="23.305106163024902" r="2" style="fill: steelblue;"></circle><circle cx="55.66446669399738" cy="51.333690830506384" r="2" style="fill: steelblue;"></circle><circle cx="86.59546673297882" cy="29.370644316077232" r="2" style="fill: steelblue;"></circle><circle cx="37.022753059864044" cy="38.69871906936169" r="2" style="fill: steelblue;"></circle><circle cx="67.68258512020111" cy="91.48688167333603" r="2" style="fill: steelblue;"></circle><circle cx="72.01222479343414" cy="39.15930092334747" r="2" style="fill: steelblue;"></circle><circle cx="77.7965098619461" cy="72.2841277718544" r="2" style="fill: steelblue;"></circle><circle cx="64.8368775844574" cy="49.20845724409446" r="2" style="fill: steelblue;"></circle><circle cx="59.067096561193466" cy="20.46196460723877" r="2" style="fill: steelblue;"></circle><circle cx="82.07729160785675" cy="40.52524846047163" r="2" style="fill: steelblue;"></circle><circle cx="35.91125011444092" cy="33.523210510611534" r="2" style="fill: steelblue;"></circle><circle cx="28.515371680259705" cy="74.43329989910126" r="2" style="fill: steelblue;"></circle><circle cx="31.41009360551834" cy="82.84220397472382" r="2" style="fill: steelblue;"></circle><circle cx="51.58290322870016" cy="49.497137614525855" r="2" style="fill: steelblue;"></circle><circle cx="65.05420356988907" cy="69.30957101285458" r="2" style="fill: steelblue;"></circle><circle cx="60.040684044361115" cy="85.52611544728279" r="2" style="fill: steelblue;"></circle><circle cx="25.045859813690186" cy="66.90536737442017" r="2" style="fill: steelblue;"></circle></g></svg>