<svg xmlns="http://www.w3.org/2000/svg"><rect width="200" height="200" fill="white"></rect><g><circle cx="29.540759325027466" cy="101.05227646417916" r="2" style="fill: steelblue;"></circle><circle cx="60.69957613945007" cy="109.38380509614944" r="2" style="fill: steelblue;"></circle><circle cx="119.40479725599289" cy="116.64752513170242" r="2" style="fill: steelblue;"></circle><circle cx="82.10919499397278" cy="124.04522337019444" r="2" style="fill: steelblue;"></circle><circle cx="112.76056617498398" cy="148.82345348596573" r="2" style="fill: steelblue;"></circle><circle cx="34.10390019416809" cy="106.26224838197231" r="2" style="fill: steelblue;"></circle><circle cx="99.544364400208" cy="121.0596639662981" r="2" style="fill: steelblue;"></circle><circle cx="115.84897190332413" cy="109.13601368665695" r="2" style="fill: steelblue;"></circle><circle cx="69.41529214382172" cy="149.0792952477932" r="2" style="fill: steelblue;"></circle><circle cx="69.19999122619629" cy="105.32843824476004" r="2" style="fill: steelblue;"></circle><circle cx="75.74281990528107" cy="71.94705344736576" r="2" style="fill: steelblue;"></circle><circle cx="91.09385758638382" cy="136.15142032504082" r="2" style="fill: steelblue;"></circle><circle cx="90.29463604092598" cy="154.24632132053375" r="2" style="fill: steelblue;"></circle><circle cx="46.67617082595825" cy="163.18000704050064" r="2" style="fill: steelblue;"></circle><circle cx="108.83572176098824" cy="121.64571546018124" r="2" style="fill: steelblue;"></circle><circle cx="29.53163981437683" cy="184.54257994890213" r="2" style="fill: steelblue;"></circle><circle cx="53.622815012931824" cy="138.2777415215969" r="2" style="fill: steelblue;"></circle><circle cx="134.58853363990784" cy="98.44321084674448" r="2" style="fill: steelblue;"></circle><circle cx="101.10188210383058" cy="123.4603751450777" r="2" style="fill: steelblue;"></circle><circle cx="157.826167345047" cy="80.38996383547783" r="2" style="fill: steelblue;"></circle><circle cx="99.33166084811091" cy="42.684683948755264" r="2" style="fill: steelblue;"></circle><circle cx="109.11305099725723" cy="62.17051520943642" r="2" style="fill: steelblue;"></circle><circle cx="119.67785209417343" cy="176.08551532030106" r="2" style="fill: steelblue;"></circle><circle cx="57.000166177749634" cy="94.31450571864843" r="2" style="fill: steelblue;"></circle><circle cx="122.64337688684464" cy="144.0410003066063" r="2" style="fill: steelblue;"></circle><circle cx="60.16100347042084" cy="131.5096192061901" r="2" style="fill: steelblue;"></circle><circle cx="79.23955023288727" cy="148.40687662363052" r="2" style="fill: steelblue;"></circle><circle cx="79.35323864221573" cy="112.6907266676426" r="2" style="fill: steelblue;"></circle><circle cx="47.576236724853516" cy="165.6997561454773" r="2" style="fill: steelblue;"></circle><circle cx="108.7610237300396" cy="130.01576848328114" r="2" style="fill: steelblue;"></circle><circle cx="145.08269429206848" cy="103.95849766209722" r="2" style="fill: steelblue;"></circle><circle cx="143.00574660301208" cy="79.33616116642952" r="2" style="fill: steelblue;"></circle><circle cx="162.74623274803162" cy="12.170886993408203" r="2" style="fill: steelblue;"></circle><circle cx="94.89885866641998" cy="115.18828421831131" r="2" style="fill: steelblue;"></circle><circle cx="110.19947156310081" cy="85.65844632685184" r="2" style="fill: steelblue;"></circle><circle cx="83.86740237474442" cy="38.608381897211075" r="2" style="fill: steelblue;"></circle><circle cx="101.90729312598705" cy="92.87491105496883" r="2" style="fill: steelblue;"></circle><circle cx="64.82284963130951" cy="29.0681853890419" r="2" style="fill: steelblue;"></circle><circle cx="39.07608389854431" cy="144.93523761630058" r="2" style="fill: steelblue;"></circle><circle cx="42.25280284881592" cy="151.44771188497543" r="2" style="fill: steelblue;"></circle><circle cx="18.91370415687561" cy="82.23884403705597" r="2" style="fill: steelblue;"></circle><circle cx="130.31090199947357" cy="140.4069870710373" r="2" style="fill: steelblue;"></circle><circle cx="47.8277325630188" cy="32.153940200805664" r="2" style="fill: steelblue;"></circle><circle cx="125.00604689121246" cy="85.53031403571367" r="2" style="fill: steelblue;"></circle><circle cx="136.38231754302979" cy="60.36006882786751" r="2" style="fill: steelblue;"></circle><circle cx="127.56921648979187" cy="45.76074182987213" r="2" style="fill: steelblue;"></circle><circle cx="151.73389315605164" cy="86.83499079197645" r="2" style="fill: steelblue;"></circle><circle cx="54.63104844093323" cy="35.31990051269531" r="2" style="fill: steelblue;"></circle><circle cx="53.17060351371765" cy="144.64765638113022" r="2" style="fill: steelblue;"></circle><circle cx="68.99988055229187" cy="181.14858716726303" r="2" style="fill: steelblue;"></circle><circle cx="116.91694110631943" cy="186.35391294956207" r="2" style="fill: steelblue;"></circle><circle cx="146.33714854717255" cy="138.14688324928284" r="2" style="fill: steelblue;"></circle><circle cx="126.0770708322525" cy="85.27739383280277" r="2" style="fill: steelblue;"></circle><circle cx="75.50497353076935" cy="32.833172380924225" r="2" style="fill: steelblue;"></circle><circle cx="95.16856111586094" cy="101.60842260811478" r="2" style="fill: steelblue;"></circle><circle cx="109.7198136150837" cy="126.39386244118214" r="2" style="fill: steelblue;"></circle><circle cx="106.30350410938263" cy="122.61733263731003" r="2" style="fill: steelblue;"></circle><circle cx="54.04421091079712" cy="122.10870571434498" r="2" style="fill: steelblue;"></circle><circle cx="88.8358898460865" cy="100.69879757938907" r="2" style="fill: steelblue;"></circle><circle cx="77.05083936452866" cy="156.99114874005318" r="2" style="fill: steelblue;"></circle><circle cx="114.03232663869858" cy="131.76014497876167" r="2" style="fill: steelblue;"></circle><circle cx="84.04288291931152" cy="169.49471682310104" r="2" style="fill: steelblue;"></circle><circle cx="32.67391324043274" cy="145.0628623366356" r="2" style="fill: steelblue;"></circle><circle cx="31.942975521087646" cy="144.18356716632843" r="2" style="fill: steelblue;"></circle><circle cx="62.99528777599335" cy="182.41596817970276" r="2" style="fill: steelblue;"></circle><circle cx="81.01856857538223" cy="149.9672293663025" r="2" style="fill: steelblue;"></circle><circle cx="52.85221040248871" cy="106.03020377457142" r="2" style="fill: steelblue;"></circle><circle cx="81.01634979248047" cy="168.15772503614426" r="2" style="fill: steelblue;"></circle><circle cx="38.42056393623352" cy="131.7717120051384" r="2" style="fill: steelblue;"></circle><circle cx="69.89798843860626" cy="171.76002860069275" r="2" style="fill: steelblue;"></circle><circle cx="40.86424112319946" cy="117.46274530887604" r="2" style="fill: steelblue;"></circle><circle cx="105.16527034342289" cy="81.25572316348553" r="2" style="fill: steelblue;"></circle><circle cx="117.10119992494583" cy="59.902167320251465" r="2" style="fill: steelblue;"></circle><circle cx="144.54109370708466" cy="29.32692915201187" r="2" style="fill: steelblue;"></circle><circle cx="132.0667177438736" cy="63.23460340499878" r="2" style="fill: steelblue;"></circle><circle cx="68.67731213569641" cy="62.361570447683334" r="2" style="fill: steelblue;"></circle><circle cx="128.20844650268555" cy="16.506320238113403" r="2" style="fill: steelblue;"></circle><circle cx="138.6093556880951" cy="54.80884611606598" r="2" style="fill: steelblue;"></circle><circle cx="137.0095580816269" cy="92.34962649643421" r="2" style="fill: steelblue;"></circle><circle cx="154.39093708992004" cy="16.211828589439392" r="2" style="fill: steelblue;"></circle><circle cx="166.72571301460266" cy="39.130205661058426" r="2" style="fill: steelblue;"></circle><circle cx="158.38727951049805" cy="43.212077021598816" r="2" style="fill: steelblue;"></circle><circle cx="102.88958549499512" cy="32.382166385650635" r="2" style="fill: steelblue;"></circle><circle cx="78.33388447761536" cy="125.38693509995937" r="2" style="fill: steelblue;"></circle><circle cx="70.2731728553772" cy="131.14950843155384" r="2" style="fill: steelblue;"></circle><circle cx="103.31694036722183" cy="157.06888064742088" r="2" style="fill: steelblue;"></circle><circle cx="86.78161948919296" cy="52.28967070579529" r="2" style="fill: steelblue;"></circle><circle cx="69.07244324684143" cy="172.20441848039627" r="2" style="fill: steelblue;"></circle><circle cx="61.109864711761475" cy="153.35291102528572" r="2" style="fill: steelblue;"></circle><circle cx="135.98717749118805" cy="15.708027780056" r="2" style="fill: steelblue;"></circle><circle cx="123.15737903118134" cy="60.639044642448425" r="2" style="fill: steelblue;"></circle><circle cx="183.97982716560364" cy="58.56570079922676" r="2" style="fill: steelblue;"></circle><circle cx="171.41740918159485" cy="13.288235664367676" r="2" style="fill: steelblue;"></circle><circle cx="118.08044910430908" cy="57.47174695134163" r="2" style="fill: steelblue;"></circle><circle cx="119.51431035995483" cy="102.90407869033515" r="2" style="fill: steelblue;"></circle><circle cx="108.44259113073349" cy="46.15011289715767" r="2" style="fill: steelblue;"></circle><circle cx="150.6758213043213" cy="74.97385926544666" r="2" style="fill: steelblue;"></circle><circle cx="160.82406640052795" cy="99.93009493482532" r="2" style="fill: steelblue;"></circle><circle cx="121.73947095870972" cy="56.3211128115654" r="2" style="fill: steelblue;"></circle><circle cx="111.50742471218109" cy="163.19426000118256" r="2" style="fill: steelblue;"></circle><circle cx="104.5810516923666" cy="95.51546340808272" r="2" style="fill: steelblue;"></circle><circle cx="81.73001706600189" cy="97.40155227482319" r="2" style="fill: steelblue;"></circle><circle cx="111.32893338799477" cy="86.91847920417786" r="2" style="fill: steelblue;"></circle><circle cx="173.19093346595764" cy="66.2940502166748" r="2" style="fill: steelblue;"></circle><circle cx="74.04550611972809" cy="27.13458091020584" r="2" style="fill: steelblue;"></circle><circle cx="135.36517024040222" cy="17.008765041828156" r="2" style="fill: steelblue;"></circle><circle cx="144.0244495868683" cy="73.83430600166321" r="2" style="fill: steelblue;"></circle><circle cx="155.5930197238922" cy="82.74054564535618" r="2" style="fill: steelblue;"></circle><circle cx="129.6737551689148" cy="136.32725775241852" r="2" style="fill: steelblue;"></circle><circle cx="118.13419312238693" cy="32.249024510383606" r="2" style="fill: steelblue;"></circle><circle cx="164.1545832157135" cy="91.52819253504276" r="2" style="fill: steelblue;"></circle><circle cx="71.82250022888184" cy="71.9985369592905" r="2" style="fill: steelblue;"></circle><circle cx="57.03074336051941" cy="55.93526214361191" r="2" style="fill: steelblue;"></circle><circle cx="62.82018721103668" cy="154.5889511704445" r="2" style="fill: steelblue;"></circle><circle cx="103.16580645740032" cy="127.29988284409046" r="2" style="fill: steelblue;"></circle><circle cx="130.10840713977814" cy="158.48445370793343" r="2" style="fill: steelblue;"></circle><circle cx="120.08136808872223" cy="135.96214205026627" r="2" style="fill: steelblue;"></circle><circle cx="50.09171962738037" cy="111.92104537039995" r="2" style="fill: steelblue;"></circle></g></svg>