<svg xmlns="http://www.w3.org/2000/svg"><rect width="200" height="200" fill="white"></rect><g><circle cx="63.19132447242737" cy="158.99209901690483" r="2" style="fill: steelblue;"></circle><circle cx="28.72735924190945" cy="57.884516566991806" r="2" style="fill: steelblue;"></circle><circle cx="80.48377765549553" cy="115.50224795937538" r="2" style="fill: steelblue;"></circle><circle cx="127.49012642436557" cy="177.6878073811531" r="2" style="fill: steelblue;"></circle><circle cx="63.87167506747775" cy="182.45260268449783" r="2" style="fill: steelblue;"></circle><circle cx="71.52790493435329" cy="130.91062046587467" r="2" style="fill: steelblue;"></circle><circle cx="136.03514267338645" cy="68.4770479798317" r="2" style="fill: steelblue;"></circle><circle cx="106.06898698541853" cy="123.3139656484127" r="2" style="fill: steelblue;"></circle><circle cx="105.40198203590181" cy="142.13791340589523" r="2" style="fill: steelblue;"></circle><circle cx="143.30971903271146" cy="156.15883693099022" r="2" style="fill: steelblue;"></circle><circle cx="92.48416456911299" cy="85.66769156605005" r="2" style="fill: steelblue;"></circle><circle cx="130.00764118300543" cy="121.61730267107487" r="2" style="fill: steelblue;"></circle><circle cx="75.41743252012465" cy="50.13007149100304" r="2" style="fill: steelblue;"></circle><circle cx="55.7537575562795" cy="145.85972055792809" r="2" style="fill: steelblue;"></circle><circle cx="116.3941952917311" cy="138.2019728422165" r="2" style="fill: steelblue;"></circle><circle cx="162.5091897116767" cy="98.26207966543734" r="2" style="fill: steelblue;"></circle><circle cx="31.339870558844673" cy="95.32814836129546" r="2" style="fill: steelblue;"></circle><circle cx="46.55008183585273" cy="109.72424354404211" r="2" style="fill: steelblue;"></circle><circle cx="134.74399679236942" cy="81.76873661577702" r="2" style="fill: steelblue;"></circle><circle cx="106.0485475593143" cy="48.21760058403015" r="2" style="fill: steelblue;"></circle><circle cx="142.01847049925064" cy="120.92863060534" r="2" style="fill: steelblue;"></circle><circle cx="97.83954256110721" cy="118.52370984852314" r="2" style="fill: steelblue;"></circle><circle cx="150.57207809554205" cy="104.15042415261269" r="2" style="fill: steelblue;"></circle><circle cx="97.27015925778282" cy="61.42244338989258" r="2" style="fill: steelblue;"></circle><circle cx="160.97938683297897" cy="118.84406432509422" r="2" style="fill: steelblue;"></circle><circle cx="105.85187127192815" cy="121.00158296525478" r="2" style="fill: steelblue;"></circle><circle cx="58.58344833056132" cy="90.8311516046524" r="2" style="fill: steelblue;"></circle><circle cx="107.21480225523312" cy="156.99099227786064" r="2" style="fill: steelblue;"></circle><circle cx="74.78154699007669" cy="161.28018721938133" r="2" style="fill: steelblue;"></circle><circle cx="75.29046800401476" cy="187.93575316667557" r="2" style="fill: steelblue;"></circle><circle cx="142.21538437737357" cy="13.483291864395142" r="2" style="fill: steelblue;"></circle><circle cx="124.11180386940639" cy="63.66981416940689" r="2" style="fill: steelblue;"></circle><circle cx="108.6942855682638" cy="129.12846580147743" r="2" style="fill: steelblue;"></circle><circle cx="94.1944205098682" cy="141.72856360673904" r="2" style="fill: steelblue;"></circle><circle cx="131.65846467018127" cy="41.57551974058151" r="2" style="fill: steelblue;"></circle><circle cx="64.41120968924629" cy="28.27872931957245" r="2" style="fill: steelblue;"></circle><circle cx="170.03337542215982" cy="127.43552438914776" r="2" style="fill: steelblue;"></circle><circle cx="94.65019736025069" cy="173.57259094715118" r="2" style="fill: steelblue;"></circle><circle cx="124.61971657143698" cy="122.058280184865" r="2" style="fill: steelblue;"></circle><circle cx="140.17898837725323" cy="145.66194862127304" r="2" style="fill: steelblue;"></circle><circle cx="120.9079987472958" cy="105.39327459409833" r="2" style="fill: steelblue;"></circle><circle cx="175.63029130299884" cy="133.25794264674187" r="2" style="fill: steelblue;"></circle><circle cx="155.42392929395038" cy="168.08605790138245" r="2" style="fill: steelblue;"></circle><circle cx="119.4241593281428" cy="10.954974591732025" r="2" style="fill: steelblue;"></circle><circle cx="137.51912779278226" cy="102.70403269678354" r="2" style="fill: steelblue;"></circle><circle cx="146.3298300902049" cy="88.55010885745287" r="2" style="fill: steelblue;"></circle><circle cx="109.83694220582645" cy="76.16276144981384" r="2" style="fill: steelblue;"></circle><circle cx="66.10418690575493" cy="106.33366126567125" r="2" style="fill: steelblue;"></circle><circle cx="84.50757629341548" cy="133.8306501507759" r="2" style="fill: steelblue;"></circle><circle cx="60.144993993971084" cy="55.39359748363495" r="2" style="fill: steelblue;"></circle><circle cx="86.36418481667836" cy="110.43910533189774" r="2" style="fill: steelblue;"></circle><circle cx="125.75771576828427" cy="47.35562801361084" r="2" style="fill: steelblue;"></circle><circle cx="123.49315153227911" cy="69.85617466270924" r="2" style="fill: steelblue;"></circle><circle cx="94.77911558416154" cy="151.7517775297165" r="2" style="fill: steelblue;"></circle><circle cx="174.39014381832547" cy="140.29755294322968" r="2" style="fill: steelblue;"></circle><circle cx="106.29954271846347" cy="175.7458359003067" r="2" style="fill: steelblue;"></circle><circle cx="97.54528022474712" cy="103.48739326000214" r="2" style="fill: steelblue;"></circle><circle cx="92.43384997049967" cy="115.70996828377247" r="2" style="fill: steelblue;"></circle><circle cx="40.871454609764946" cy="106.36897422373295" r="2" style="fill: steelblue;"></circle><circle cx="54.17719814512465" cy="111.42708957195282" r="2" style="fill: steelblue;"></circle><circle cx="58.014243841171265" cy="150.36217346787453" r="2" style="fill: steelblue;"></circle><circle cx="86.94362143675485" cy="153.34483832120895" r="2" style="fill: steelblue;"></circle><circle cx="99.46590330865648" cy="186.8052914738655" r="2" style="fill: steelblue;"></circle><circle cx="79.16985286606682" cy="171.55682146549225" r="2" style="fill: steelblue;"></circle><circle cx="18.4722277853224" cy="172.0849111676216" r="2" style="fill: steelblue;"></circle><circle cx="54.38892708884345" cy="161.52700260281563" r="2" style="fill: steelblue;"></circle><circle cx="66.89838568369547" cy="175.56936144828796" r="2" style="fill: steelblue;"></circle><circle cx="52.86859803729587" cy="193.75084936618805" r="2" style="fill: steelblue;"></circle><circle cx="31.59247504340278" cy="165.7273232936859" r="2" style="fill: steelblue;"></circle><circle cx="66.23174415694344" cy="111.22903916984797" r="2" style="fill: steelblue;"></circle><circle cx="73.93127679824829" cy="170.97923010587692" r="2" style="fill: steelblue;"></circle><circle cx="165.24796353446112" cy="26.224984228610992" r="2" style="fill: steelblue;"></circle><circle cx="67.52972139252556" cy="62.19586953520775" r="2" style="fill: steelblue;"></circle><circle cx="150.8774757385254" cy="109.00733470916748" r="2" style="fill: steelblue;"></circle><circle cx="118.45831904146407" cy="22.54599928855896" r="2" style="fill: steelblue;"></circle><circle cx="90.35150541199577" cy="89.41237479448318" r="2" style="fill: steelblue;"></circle><circle cx="80.78191015455458" cy="54.023316502571106" r="2" style="fill: steelblue;"></circle><circle cx="66.72469112608168" cy="113.7848099693656" r="2" style="fill: steelblue;"></circle><circle cx="136.81645856963263" cy="30.71036785840988" r="2" style="fill: steelblue;"></circle><circle cx="111.00037399834643" cy="45.17877325415611" r="2" style="fill: steelblue;"></circle><circle cx="158.99111496077643" cy="49.586205184459686" r="2" style="fill: steelblue;"></circle><circle cx="192.87463691499497" cy="149.69964176416397" r="2" style="fill: steelblue;"></circle><circle cx="110.67151588698228" cy="105.67232072353363" r="2" style="fill: steelblue;"></circle><circle cx="92.15589529938167" cy="125.25394037365913" r="2" style="fill: steelblue;"></circle><circle cx="101.5180241730478" cy="60.6718011200428" r="2" style="fill: steelblue;"></circle><circle cx="99.2157550321685" cy="157.04272165894508" r="2" style="fill: steelblue;"></circle><circle cx="91.38024515575832" cy="95.42498914524913" r="2" style="fill: steelblue;"></circle><circle cx="72.10302684042189" cy="133.6296297609806" r="2" style="fill: steelblue;"></circle><circle cx="136.54062648614246" cy="174.27246123552322" r="2" style="fill: steelblue;"></circle><circle cx="129.87774113814038" cy="107.69819878041744" r="2" style="fill: steelblue;"></circle><circle cx="86.75133850839403" cy="46.53295353055" r="2" style="fill: steelblue;"></circle><circle cx="124.70290809869766" cy="98.2062338385731" r="2" style="fill: steelblue;"></circle><circle cx="142.57890317175125" cy="77.96189226210117" r="2" style="fill: steelblue;"></circle><circle cx="161.67441341612076" cy="106.1578112654388" r="2" style="fill: steelblue;"></circle><circle cx="153.41218312581378" cy="85.93658581376076" r="2" style="fill: steelblue;"></circle><circle cx="95.89262472258675" cy="26.261208951473236" r="2" style="fill: steelblue;"></circle><circle cx="198.34003183576797" cy="35.73320657014847" r="2" style="fill: steelblue;"></circle><circle cx="94.68218353059557" cy="65.29131382703781" r="2" style="fill: steelblue;"></circle><circle cx="146.33404546313815" cy="136.68201714754105" r="2" style="fill: steelblue;"></circle><circle cx="47.25017150243123" cy="77.60382294654846" r="2" style="fill: steelblue;"></circle><circle cx="93.45236586199867" cy="57.328423857688904" r="2" style="fill: steelblue;"></circle><circle cx="93.34372480710347" cy="61.78668737411499" r="2" style="fill: steelblue;"></circle><circle cx="145.71960435973273" cy="68.8031543046236" r="2" style="fill: steelblue;"></circle><circle cx="154.28586800893146" cy="46.97316363453865" r="2" style="fill: steelblue;"></circle><circle cx="29.269225067562527" cy="52.584825456142426" r="2" style="fill: steelblue;"></circle><circle cx="162.45145267910428" cy="80.39507120847702" r="2" style="fill: steelblue;"></circle><circle cx="113.25376149680879" cy="135.25614365935326" r="2" style="fill: steelblue;"></circle><circle cx="126.14267071088155" cy="134.9925309419632" r="2" style="fill: steelblue;"></circle><circle cx="124.2424812581804" cy="73.37418980896473" r="2" style="fill: steelblue;"></circle><circle cx="176.0740147696601" cy="110.91927662491798" r="2" style="fill: steelblue;"></circle><circle cx="77.23393042882283" cy="72.7872908115387" r="2" style="fill: steelblue;"></circle><circle cx="114.04272582795885" cy="41.122040152549744" r="2" style="fill: steelblue;"></circle><circle cx="72.65294260448879" cy="75.3830824047327" r="2" style="fill: steelblue;"></circle><circle cx="45.327272680070664" cy="125.01488104462624" r="2" style="fill: steelblue;"></circle><circle cx="44.477833641899956" cy="176.3159692287445" r="2" style="fill: steelblue;"></circle><circle cx="57.441274325052895" cy="118.74421536922455" r="2" style="fill: steelblue;"></circle><circle cx="71.8877911567688" cy="104.20604692772031" r="2" style="fill: steelblue;"></circle><circle cx="79.65523997942606" cy="42.720815539360046" r="2" style="fill: steelblue;"></circle></g></svg>