<svg xmlns="http://www.w3.org/2000/svg"><g><circle cx="19.103300571441657" cy="115.37778880447149" r="2" style="fill: steelblue;"></circle><circle cx="60.58497428894043" cy="173.67511093616486" r="2" style="fill: steelblue;"></circle><circle cx="40.74848890304566" cy="115.82488045096397" r="2" style="fill: steelblue;"></circle><circle cx="52.62519783443875" cy="178.16559821367264" r="2" style="fill: steelblue;"></circle><circle cx="75.86907297372818" cy="179.9657627940178" r="2" style="fill: steelblue;"></circle><circle cx="64.43245742056105" cy="173.96075129508972" r="2" style="fill: steelblue;"></circle><circle cx="82.87035872538885" cy="102.26579373702407" r="2" style="fill: steelblue;"></circle><circle cx="62.55478527810839" cy="58.460185676813126" r="2" style="fill: steelblue;"></circle><circle cx="84.92357151375877" cy="155.9089556336403" r="2" style="fill: steelblue;"></circle><circle cx="69.15239195028941" cy="118.50621029734612" r="2" style="fill: steelblue;"></circle><circle cx="26.837089326646595" cy="123.88618141412735" r="2" style="fill: steelblue;"></circle><circle cx="96.35389132632149" cy="143.13628748059273" r="2" style="fill: steelblue;"></circle><circle cx="22.886996799045143" cy="151.28495767712593" r="2" style="fill: steelblue;"></circle><circle cx="86.43901029394733" cy="123.17565679550171" r="2" style="fill: steelblue;"></circle><circle cx="49.61018297407362" cy="106.17336016148329" r="2" style="fill: steelblue;"></circle><circle cx="13.023553954230419" cy="118.2131752371788" r="2" style="fill: steelblue;"></circle><circle cx="118.658047914505" cy="161.61541119217873" r="2" style="fill: steelblue;"></circle><circle cx="97.57482873068916" cy="114.70805518329144" r="2" style="fill: steelblue;"></circle><circle cx="80.98819802204768" cy="106.97519676759839" r="2" style="fill: steelblue;"></circle><circle cx="107.63380461268954" cy="117.5864938646555" r="2" style="fill: steelblue;"></circle><circle cx="98.96662036577861" cy="132.09390118718147" r="2" style="fill: steelblue;"></circle><circle cx="96.1153808567259" cy="120.23687958717346" r="2" style="fill: steelblue;"></circle><circle cx="117.35805736647713" cy="141.00307077169418" r="2" style="fill: steelblue;"></circle><circle cx="78.32436379459169" cy="104.09123627468944" r="2" style="fill: steelblue;"></circle><circle cx="44.78180607159933" cy="97.59935308247805" r="2" style="fill: steelblue;"></circle><circle cx="55.85726300875346" cy="130.27193807065487" r="2" style="fill: steelblue;"></circle><circle cx="9.699548615349668" cy="74.90089759230614" r="2" style="fill: steelblue;"></circle><circle cx="19.979170958201095" cy="68.64570304751396" r="2" style="fill: steelblue;"></circle><circle cx="67.25359327263303" cy="149.31556805968285" r="2" style="fill: steelblue;"></circle><circle cx="121.30112316873338" cy="78.20953652262688" r="2" style="fill: steelblue;"></circle><circle cx="105.59242831336128" cy="28.508006036281586" r="2" style="fill: steelblue;"></circle><circle cx="154.47289943695068" cy="45.98536565899849" r="2" style="fill: steelblue;"></circle><circle cx="95.10196033451292" cy="109.37447417527437" r="2" style="fill: steelblue;"></circle><circle cx="103.25711998674605" cy="71.94709070026875" r="2" style="fill: steelblue;"></circle><circle cx="91.02100974155796" cy="58.43995362520218" r="2" style="fill: steelblue;"></circle><circle cx="151.11294587453204" cy="7.152377068996429" r="2" style="fill: steelblue;"></circle><circle cx="84.52697710858452" cy="78.38064841926098" r="2" style="fill: steelblue;"></circle><circle cx="31.46591318978204" cy="84.14323106408119" r="2" style="fill: steelblue;"></circle><circle cx="49.13066691822476" cy="129.01457995176315" r="2" style="fill: steelblue;"></circle><circle cx="89.02960875485506" cy="186.0406905412674" r="2" style="fill: steelblue;"></circle><circle cx="31.18834760453966" cy="81.49811662733555" r="2" style="fill: steelblue;"></circle><circle cx="20.706963539123542" cy="17.313456535339355" r="2" style="fill: steelblue;"></circle><circle cx="85.37618228130872" cy="7.6833575963974" r="2" style="fill: steelblue;"></circle><circle cx="167.14696619245743" cy="16.094571352005005" r="2" style="fill: steelblue;"></circle><circle cx="85.26705279946327" cy="124.61540512740612" r="2" style="fill: steelblue;"></circle><circle cx="84.8998960521486" cy="136.65856644511223" r="2" style="fill: steelblue;"></circle><circle cx="64.9721791346868" cy="134.7890369594097" r="2" style="fill: steelblue;"></circle><circle cx="27.069262663523357" cy="182.771897315979" r="2" style="fill: steelblue;"></circle><circle cx="105.46273854043748" cy="164.4030049443245" r="2" style="fill: steelblue;"></circle><circle cx="17.326459619734027" cy="138.83833065629005" r="2" style="fill: steelblue;"></circle><circle cx="110.02968781524234" cy="132.39575028419495" r="2" style="fill: steelblue;"></circle><circle cx="73.05117812421588" cy="139.00327533483505" r="2" style="fill: steelblue;"></circle><circle cx="78.9757647448116" cy="132.17055648565292" r="2" style="fill: steelblue;"></circle><circle cx="120.11172903908624" cy="151.48933455348015" r="2" style="fill: steelblue;"></circle><circle cx="58.035716745588516" cy="119.77555081248283" r="2" style="fill: steelblue;"></circle><circle cx="53.23597325219048" cy="128.5269431769848" r="2" style="fill: steelblue;"></circle><circle cx="120.81861694653828" cy="90.97664467990398" r="2" style="fill: steelblue;"></circle><circle cx="58.24018385675219" cy="199.51037168502808" r="2" style="fill: steelblue;"></circle><circle cx="94.64958922730553" cy="132.45127573609352" r="2" style="fill: steelblue;"></circle><circle cx="77.45214336448247" cy="140.33630341291428" r="2" style="fill: steelblue;"></circle><circle cx="84.26752926574814" cy="140.93221575021744" r="2" style="fill: steelblue;"></circle><circle cx="83.99600568744872" cy="135.40511801838875" r="2" style="fill: steelblue;"></circle><circle cx="6.657102372911246" cy="179.88426089286804" r="2" style="fill: steelblue;"></circle><circle cx="13.268052207099071" cy="173.47530871629715" r="2" style="fill: steelblue;"></circle><circle cx="26.775352160135906" cy="100.3387063043192" r="2" style="fill: steelblue;"></circle><circle cx="66.98064870304532" cy="143.15825551748276" r="2" style="fill: steelblue;"></circle><circle cx="31.5495252609253" cy="104.29388415068388" r="2" style="fill: steelblue;"></circle><circle cx="91.24184764093823" cy="160.16386672854424" r="2" style="fill: steelblue;"></circle><circle cx="12.632792525821266" cy="163.410684466362" r="2" style="fill: steelblue;"></circle><circle cx="14.644767178429502" cy="68.40789541602135" r="2" style="fill: steelblue;"></circle><circle cx="68.31638713677725" cy="131.7189022898674" r="2" style="fill: steelblue;"></circle><circle cx="102.83998019165463" cy="58.567917346954346" r="2" style="fill: steelblue;"></circle><circle cx="144.58674059973825" cy="136.32736578583717" r="2" style="fill: steelblue;"></circle><circle cx="127.27566096517775" cy="40.465815365314484" r="2" style="fill: steelblue;"></circle><circle cx="128.24356754620868" cy="53.86308804154396" r="2" style="fill: steelblue;"></circle><circle cx="90.1640676582853" cy="108.745058439672" r="2" style="fill: steelblue;"></circle><circle cx="31.66074090533787" cy="53.773293644189835" r="2" style="fill: steelblue;"></circle><circle cx="136.82105673684015" cy="34.71328914165497" r="2" style="fill: steelblue;"></circle><circle cx="111.61275903383891" cy="50.80141723155975" r="2" style="fill: steelblue;"></circle><circle cx="98.58034584257338" cy="53.43466103076935" r="2" style="fill: steelblue;"></circle><circle cx="175.81950823465985" cy="11.194831132888794" r="2" style="fill: steelblue;"></circle><circle cx="165.06541967391968" cy="52.552150934934616" r="2" style="fill: steelblue;"></circle><circle cx="154.31652996275162" cy="68.56813877820969" r="2" style="fill: steelblue;"></circle><circle cx="71.79180317454869" cy="162.16546148061752" r="2" style="fill: steelblue;"></circle><circle cx="75.40030479431152" cy="132.9991802573204" r="2" style="fill: steelblue;"></circle><circle cx="91.5672196696202" cy="109.30836517363787" r="2" style="fill: steelblue;"></circle><circle cx="98.60931121640736" cy="72.65391051769257" r="2" style="fill: steelblue;"></circle><circle cx="44.07486187087165" cy="115.94403572380543" r="2" style="fill: steelblue;"></circle><circle cx="39.11228179931641" cy="83.24788548052311" r="2" style="fill: steelblue;"></circle><circle cx="149.74250925911798" cy="71.54220193624496" r="2" style="fill: steelblue;"></circle><circle cx="57.903258668051826" cy="60.180263966321945" r="2" style="fill: steelblue;"></circle><circle cx="102.53247155083551" cy="91.43039714545012" r="2" style="fill: steelblue;"></circle><circle cx="181.32161961661444" cy="51.442018151283264" r="2" style="fill: steelblue;"></circle><circle cx="88.37412532625926" cy="52.05753296613693" r="2" style="fill: steelblue;"></circle><circle cx="105.30700816048517" cy="145.2420338988304" r="2" style="fill: steelblue;"></circle><circle cx="155.87997966342502" cy="96.2173500098288" r="2" style="fill: steelblue;"></circle><circle cx="167.4256708886888" cy="20.36784440279007" r="2" style="fill: steelblue;"></circle><circle cx="92.44681927892897" cy="37.32043355703354" r="2" style="fill: steelblue;"></circle><circle cx="47.026046779420646" cy="61.88126876950264" r="2" style="fill: steelblue;"></circle><circle cx="80.6578450732761" cy="90.21589197218418" r="2" style="fill: steelblue;"></circle><circle cx="140.22010432349313" cy="97.37610295414925" r="2" style="fill: steelblue;"></circle><circle cx="129.39686112933688" cy="89.86957874149084" r="2" style="fill: steelblue;"></circle><circle cx="155.64441548453436" cy="34.18675661087036" r="2" style="fill: steelblue;"></circle><circle cx="146.1545679304335" cy="115.63874445855618" r="2" style="fill: steelblue;"></circle><circle cx="144.2948169178433" cy="142.81412437558174" r="2" style="fill: steelblue;"></circle><circle cx="118.44757729106479" cy="60.031528025865555" r="2" style="fill: steelblue;"></circle><circle cx="93.36885718835724" cy="98.42580163385719" r="2" style="fill: steelblue;"></circle><circle cx="129.48976159095764" cy="96.52343522757292" r="2" style="fill: steelblue;"></circle><circle cx="92.62174442410469" cy="49.91417974233627" r="2" style="fill: steelblue;"></circle><circle cx="115.60162934992049" cy="54.40804585814476" r="2" style="fill: steelblue;"></circle><circle cx="110.9537038538191" cy="42.96345114707947" r="2" style="fill: steelblue;"></circle><circle cx="138.9446907573276" cy="137.83395513892174" r="2" style="fill: steelblue;"></circle><circle cx="78.24265741639668" cy="126.07749216258526" r="2" style="fill: steelblue;"></circle><circle cx="40.018169747458565" cy="106.15022843703628" r="2" style="fill: steelblue;"></circle><circle cx="82.56101310253143" cy="156.9205805659294" r="2" style="fill: steelblue;"></circle><circle cx="112.22169001897176" cy="148.32912608981133" r="2" style="fill: steelblue;"></circle><circle cx="106.2508162524965" cy="113.63704726099968" r="2" style="fill: steelblue;"></circle><circle cx="39.07565143373278" cy="111.75327971577644" r="2" style="fill: steelblue;"></circle></g></svg>