<svg xmlns="http://www.w3.org/2000/svg"><g><circle cx="12.651614099740986" cy="50.52613823208958" r="2" style="fill: steelblue;"></circle><circle cx="11.084168404340748" cy="54.69190254807472" r="2" style="fill: steelblue;"></circle><circle cx="40.79093988984823" cy="58.32376256585121" r="2" style="fill: steelblue;"></circle><circle cx="34.07428711652756" cy="62.02261168509722" r="2" style="fill: steelblue;"></circle><circle cx="24.879328161478046" cy="74.41172674298286" r="2" style="fill: steelblue;"></circle><circle cx="10.31373739242554" cy="53.13112419098616" r="2" style="fill: steelblue;"></circle><circle cx="40.544870495796204" cy="60.52983198314905" r="2" style="fill: steelblue;"></circle><circle cx="86.72727197408676" cy="54.568006843328476" r="2" style="fill: steelblue;"></circle><circle cx="67.93188229203224" cy="74.5396476238966" r="2" style="fill: steelblue;"></circle><circle cx="49.978313222527504" cy="52.66421912238002" r="2" style="fill: steelblue;"></circle><circle cx="39.48132712393999" cy="35.97352672368288" r="2" style="fill: steelblue;"></circle><circle cx="18.906311318278316" cy="68.07571016252041" r="2" style="fill: steelblue;"></circle><circle cx="56.43127877265215" cy="77.12316066026688" r="2" style="fill: steelblue;"></circle><circle cx="70.24862356483936" cy="81.59000352025032" r="2" style="fill: steelblue;"></circle><circle cx="49.17713465401903" cy="60.82285773009062" r="2" style="fill: steelblue;"></circle><circle cx="55.46609330922365" cy="92.27128997445107" r="2" style="fill: steelblue;"></circle><circle cx="26.51810012757778" cy="69.13887076079845" r="2" style="fill: steelblue;"></circle><circle cx="28.00014540553093" cy="49.22160542337224" r="2" style="fill: steelblue;"></circle><circle cx="67.25001446902752" cy="61.73018757253885" r="2" style="fill: steelblue;"></circle><circle cx="38.05705923587084" cy="40.194981917738914" r="2" style="fill: steelblue;"></circle><circle cx="54.616950172930956" cy="21.342341974377632" r="2" style="fill: steelblue;"></circle><circle cx="40.47384690493345" cy="31.08525760471821" r="2" style="fill: steelblue;"></circle><circle cx="43.49201610311866" cy="88.04275766015053" r="2" style="fill: steelblue;"></circle><circle cx="50.36357817589305" cy="47.15725285932422" r="2" style="fill: steelblue;"></circle><circle cx="61.445230804383755" cy="72.02050015330315" r="2" style="fill: steelblue;"></circle><circle cx="19.191096723079685" cy="65.75480960309505" r="2" style="fill: steelblue;"></circle><circle cx="32.68984630703926" cy="74.20343831181526" r="2" style="fill: steelblue;"></circle><circle cx="37.909034825861454" cy="56.3453633338213" r="2" style="fill: steelblue;"></circle><circle cx="2.1311298012733486" cy="82.84987807273865" r="2" style="fill: steelblue;"></circle><circle cx="40.94246234744787" cy="65.00788424164057" r="2" style="fill: steelblue;"></circle><circle cx="54.38897917047143" cy="51.97924883104861" r="2" style="fill: steelblue;"></circle><circle cx="71.4554388076067" cy="39.66808058321476" r="2" style="fill: steelblue;"></circle><circle cx="82.4498862028122" cy="6.085443496704102" r="2" style="fill: steelblue;"></circle><circle cx="65.7291628420353" cy="57.594142109155655" r="2" style="fill: steelblue;"></circle><circle cx="61.54266484081745" cy="42.82922316342592" r="2" style="fill: steelblue;"></circle><circle cx="39.01213798671961" cy="19.304190948605537" r="2" style="fill: steelblue;"></circle><circle cx="34.248775988817215" cy="46.43745552748442" r="2" style="fill: steelblue;"></circle><circle cx="38.986847922205925" cy="14.53409269452095" r="2" style="fill: steelblue;"></circle><circle cx="19.818614423274997" cy="72.46761880815029" r="2" style="fill: steelblue;"></circle><circle cx="4.8277892172336605" cy="75.72385594248772" r="2" style="fill: steelblue;"></circle><circle cx="38.20656631141901" cy="41.119422018527985" r="2" style="fill: steelblue;"></circle><circle cx="74.16373789310455" cy="70.20349353551865" r="2" style="fill: steelblue;"></circle><circle cx="65.884505584836" cy="16.076970100402832" r="2" style="fill: steelblue;"></circle><circle cx="79.38405610620975" cy="42.765157017856836" r="2" style="fill: steelblue;"></circle><circle cx="74.84958432614803" cy="30.180034413933754" r="2" style="fill: steelblue;"></circle><circle cx="67.8317092359066" cy="22.880370914936066" r="2" style="fill: steelblue;"></circle><circle cx="78.19395810365677" cy="43.417495395988226" r="2" style="fill: steelblue;"></circle><circle cx="9.59272608160973" cy="17.659950256347656" r="2" style="fill: steelblue;"></circle><circle cx="55.50786452367902" cy="72.32382819056511" r="2" style="fill: steelblue;"></circle><circle cx="18.371655791997913" cy="90.57429358363152" r="2" style="fill: steelblue;"></circle><circle cx="6.946868449449542" cy="93.17695647478104" r="2" style="fill: steelblue;"></circle><circle cx="7.034852355718615" cy="69.07344162464142" r="2" style="fill: steelblue;"></circle><circle cx="46.190465055406094" cy="42.638696916401386" r="2" style="fill: steelblue;"></circle><circle cx="52.795472741127014" cy="16.416586190462112" r="2" style="fill: steelblue;"></circle><circle cx="37.68936563283205" cy="50.80421130405739" r="2" style="fill: steelblue;"></circle><circle cx="1.5758715569973019" cy="63.19693122059107" r="2" style="fill: steelblue;"></circle><circle cx="47.67485470511019" cy="61.308666318655014" r="2" style="fill: steelblue;"></circle><circle cx="45.212639681994915" cy="61.05435285717249" r="2" style="fill: steelblue;"></circle><circle cx="40.0689460337162" cy="50.34939878969453" r="2" style="fill: steelblue;"></circle><circle cx="19.474660232663158" cy="78.49557437002659" r="2" style="fill: steelblue;"></circle><circle cx="66.04511588811874" cy="65.88007248938084" r="2" style="fill: steelblue;"></circle><circle cx="17.80919656157494" cy="84.74735841155052" r="2" style="fill: steelblue;"></circle><circle cx="9.890227764844898" cy="72.5314311683178" r="2" style="fill: steelblue;"></circle><circle cx="26.9138190895319" cy="72.09178358316422" r="2" style="fill: steelblue;"></circle><circle cx="24.553233012557033" cy="91.20798408985138" r="2" style="fill: steelblue;"></circle><circle cx="5.951284617185595" cy="74.98361468315125" r="2" style="fill: steelblue;"></circle><circle cx="14.759998023509983" cy="53.01510188728571" r="2" style="fill: steelblue;"></circle><circle cx="65.45299496501684" cy="84.07886251807213" r="2" style="fill: steelblue;"></circle><circle cx="0.6247341632843045" cy="65.8858560025692" r="2" style="fill: steelblue;"></circle><circle cx="51.01747876033187" cy="85.88001430034637" r="2" style="fill: steelblue;"></circle><circle cx="30.998773127794266" cy="58.73137265443802" r="2" style="fill: steelblue;"></circle><circle cx="69.94510926306248" cy="40.62786158174276" r="2" style="fill: steelblue;"></circle><circle cx="79.10521626472473" cy="29.951083660125732" r="2" style="fill: steelblue;"></circle><circle cx="75.76837688684464" cy="14.663464576005936" r="2" style="fill: steelblue;"></circle><circle cx="78.11373211443424" cy="31.61730170249939" r="2" style="fill: steelblue;"></circle><circle cx="85.90844571590424" cy="31.180785223841667" r="2" style="fill: steelblue;"></circle><circle cx="60.329682379961014" cy="8.253160119056702" r="2" style="fill: steelblue;"></circle><circle cx="64.52023349702358" cy="27.40442305803299" r="2" style="fill: steelblue;"></circle><circle cx="63.05604726076126" cy="46.174813248217106" r="2" style="fill: steelblue;"></circle><circle cx="87.38788142800331" cy="8.105914294719696" r="2" style="fill: steelblue;"></circle><circle cx="83.68552774190903" cy="19.565102830529213" r="2" style="fill: steelblue;"></circle><circle cx="96.86909541487694" cy="21.606038510799408" r="2" style="fill: steelblue;"></circle><circle cx="89.47019204497337" cy="16.191083192825317" r="2" style="fill: steelblue;"></circle><circle cx="46.133994311094284" cy="62.69346754997969" r="2" style="fill: steelblue;"></circle><circle cx="26.203059777617455" cy="65.57475421577692" r="2" style="fill: steelblue;"></circle><circle cx="23.035126924514774" cy="78.53444032371044" r="2" style="fill: steelblue;"></circle><circle cx="44.164098519831896" cy="26.144835352897644" r="2" style="fill: steelblue;"></circle><circle cx="44.62726013734937" cy="86.10220924019814" r="2" style="fill: steelblue;"></circle><circle cx="38.172910176217556" cy="76.67645551264286" r="2" style="fill: steelblue;"></circle><circle cx="75.00518038868904" cy="7.854013890028" r="2" style="fill: steelblue;"></circle><circle cx="61.26353722065687" cy="30.319522321224213" r="2" style="fill: steelblue;"></circle><circle cx="96.41737043857574" cy="29.28285039961338" r="2" style="fill: steelblue;"></circle><circle cx="56.07656501233578" cy="6.644117832183838" r="2" style="fill: steelblue;"></circle><circle cx="93.97307708859444" cy="28.735873475670815" r="2" style="fill: steelblue;"></circle><circle cx="73.23922701179981" cy="51.45203934516758" r="2" style="fill: steelblue;"></circle><circle cx="99.43970963358879" cy="23.075056448578835" r="2" style="fill: steelblue;"></circle><circle cx="53.498624777421355" cy="37.48692963272333" r="2" style="fill: steelblue;"></circle><circle cx="56.1390670016408" cy="49.96504746741266" r="2" style="fill: steelblue;"></circle><circle cx="60.34101005643606" cy="28.1605564057827" r="2" style="fill: steelblue;"></circle><circle cx="64.34844639152288" cy="81.59713000059128" r="2" style="fill: steelblue;"></circle><circle cx="64.21242579817772" cy="47.75773170404136" r="2" style="fill: steelblue;"></circle><circle cx="76.6948938369751" cy="48.700776137411594" r="2" style="fill: steelblue;"></circle><circle cx="48.666309169493616" cy="43.45923960208893" r="2" style="fill: steelblue;"></circle><circle cx="70.62935568392277" cy="33.1470251083374" r="2" style="fill: steelblue;"></circle><circle cx="61.30128093063831" cy="13.56729045510292" r="2" style="fill: steelblue;"></circle><circle cx="8.513118326663974" cy="8.504382520914078" r="2" style="fill: steelblue;"></circle><circle cx="60.84069907665253" cy="36.917153000831604" r="2" style="fill: steelblue;"></circle><circle cx="27.7158722281456" cy="41.37027282267809" r="2" style="fill: steelblue;"></circle><circle cx="50.79154275590554" cy="68.16362887620926" r="2" style="fill: steelblue;"></circle><circle cx="79.53803539276123" cy="16.124512255191803" r="2" style="fill: steelblue;"></circle><circle cx="59.47475153952837" cy="45.76409626752138" r="2" style="fill: steelblue;"></circle><circle cx="66.47678948938847" cy="35.99926847964525" r="2" style="fill: steelblue;"></circle><circle cx="25.566700100898743" cy="27.967631071805954" r="2" style="fill: steelblue;"></circle><circle cx="17.157796025276188" cy="77.29447558522224" r="2" style="fill: steelblue;"></circle><circle cx="50.502862385474145" cy="63.64994142204523" r="2" style="fill: steelblue;"></circle><circle cx="30.690428987145424" cy="79.24222685396671" r="2" style="fill: steelblue;"></circle><circle cx="14.473884552717212" cy="67.98107102513313" r="2" style="fill: steelblue;"></circle><circle cx="33.094632625579834" cy="55.960522685199976" r="2" style="fill: steelblue;"></circle></g></svg>