<svg xmlns="http://www.w3.org/2000/svg"><g transform="translate(40,20)"><circle cx="386.991650685668" cy="79.01665773242712" r="3" style="fill: steelblue;"></circle><circle cx="494.49186220765114" cy="200.46249912120402" r="3" style="fill: steelblue;"></circle><circle cx="342.7561080828309" cy="84.48509611189365" r="3" style="fill: steelblue;"></circle><circle cx="475.7091034948826" cy="121.10285246744752" r="3" style="fill: steelblue;"></circle><circle cx="454.6426919102669" cy="165.1742582442239" r="3" style="fill: steelblue;"></circle><circle cx="401.35393448174" cy="134.53913126140833" r="3" style="fill: steelblue;"></circle><circle cx="270.65021194168366" cy="70.14785259962082" r="3" style="fill: steelblue;"></circle><circle cx="478.8225647807121" cy="150.9762587491423" r="3" style="fill: steelblue;"></circle><circle cx="279.0972437057644" cy="95.59627827256918" r="3" style="fill: steelblue;"></circle><circle cx="136.50049276649952" cy="72.05646969377995" r="3" style="fill: steelblue;"></circle><circle cx="538.1612491607666" cy="69.82402801513672" r="3" style="fill: steelblue;"></circle><circle cx="292.70386749878526" cy="172.6470916008111" r="3" style="fill: steelblue;"></circle><circle cx="272.7722522383556" cy="195.72434965521097" r="3" style="fill: steelblue;"></circle><circle cx="225.88785242289305" cy="101.49005260318518" r="3" style="fill: steelblue;"></circle><circle cx="429.94357019662857" cy="95.03829497843981" r="3" style="fill: steelblue;"></circle><circle cx="484.2702117562294" cy="104.66498993337154" r="3" style="fill: steelblue;"></circle><circle cx="349.74720373749733" cy="119.35986038297415" r="3" style="fill: steelblue;"></circle><circle cx="228.14539147540927" cy="148.20602554827929" r="3" style="fill: steelblue;"></circle><circle cx="337.95233711600304" cy="226.21268657967448" r="3" style="fill: steelblue;"></circle><circle cx="354.96560230851173" cy="69.65549867600203" r="3" style="fill: steelblue;"></circle><circle cx="258.36963661015034" cy="224.42245595157146" r="3" style="fill: steelblue;"></circle><circle cx="417.9818567633629" cy="219.3322747014463" r="3" style="fill: steelblue;"></circle><circle cx="244.15131200104952" cy="202.66034798696637" r="3" style="fill: steelblue;"></circle><circle cx="249.86834370531142" cy="255.16858715564013" r="3" style="fill: steelblue;"></circle><circle cx="364.75250355899334" cy="177.0194326643832" r="3" style="fill: steelblue;"></circle><circle cx="337.29028578847647" cy="145.34210246056318" r="3" style="fill: steelblue;"></circle><circle cx="370.1686681061983" cy="125.28587896376848" r="3" style="fill: steelblue;"></circle><circle cx="347.5632033124566" cy="195.93709097243845" r="3" style="fill: steelblue;"></circle><circle cx="353.89583341777325" cy="57.16116465628147" r="3" style="fill: steelblue;"></circle><circle cx="116.37053757905962" cy="289.82131853699684" r="3" style="fill: steelblue;"></circle><circle cx="291.53685009106994" cy="177.73556786123663" r="3" style="fill: steelblue;"></circle><circle cx="214.26398668438196" cy="200.55289515294135" r="3" style="fill: steelblue;"></circle><circle cx="228.27251812443137" cy="224.927297513932" r="3" style="fill: steelblue;"></circle><circle cx="378.4529221057892" cy="112.23963107913733" r="3" style="fill: steelblue;"></circle><circle cx="472.65810415148735" cy="214.98441202566028" r="3" style="fill: steelblue;"></circle><circle cx="198.16032227128744" cy="263.69138918817043" r="3" style="fill: steelblue;"></circle><circle cx="270.2085987282044" cy="216.48189211264253" r="3" style="fill: steelblue;"></circle><circle cx="266.0777326254174" cy="273.42412639409304" r="3" style="fill: steelblue;"></circle><circle cx="293.9262381568551" cy="230.47213833779097" r="3" style="fill: steelblue;"></circle><circle cx="182.86394074559212" cy="180.43106184341013" r="3" style="fill: steelblue;"></circle><circle cx="74.3202929198742" cy="224.25201321020722" r="3" style="fill: steelblue;"></circle><circle cx="151.4085491001606" cy="303.91172990202904" r="3" style="fill: steelblue;"></circle><circle cx="192.6984679698944" cy="222.91146144270897" r="3" style="fill: steelblue;"></circle><circle cx="199.41985074430704" cy="225.3891445696354" r="3" style="fill: steelblue;"></circle><circle cx="223.88676188886166" cy="308.8998097926378" r="3" style="fill: steelblue;"></circle><circle cx="250.24692619219422" cy="299.12067502737045" r="3" style="fill: steelblue;"></circle><circle cx="146.7713986337185" cy="244.53413225710392" r="3" style="fill: steelblue;"></circle><circle cx="218.1298729777336" cy="309.82082448899746" r="3" style="fill: steelblue;"></circle><circle cx="196.59268844872713" cy="162.88618855178356" r="3" style="fill: steelblue;"></circle><circle cx="193.7070020288229" cy="122.7165904827416" r="3" style="fill: steelblue;"></circle><circle cx="217.34758995473385" cy="187.86209432873875" r="3" style="fill: steelblue;"></circle><circle cx="169.5597381144762" cy="156.65493831038475" r="3" style="fill: steelblue;"></circle><circle cx="196.3265261426568" cy="275.1688754186034" r="3" style="fill: steelblue;"></circle><circle cx="151.79683908820152" cy="299.9631326645613" r="3" style="fill: steelblue;"></circle><circle cx="28.61195102334024" cy="179.017960105557" r="3" style="fill: steelblue;"></circle><circle cx="170.62233544886112" cy="119.78011783212423" r="3" style="fill: steelblue;"></circle><circle cx="345.09551402181387" cy="275.51105823367834" r="3" style="fill: steelblue;"></circle><circle cx="286.30307491868734" cy="286.0083218663931" r="3" style="fill: steelblue;"></circle><circle cx="112.44681112468244" cy="166.70459294691682" r="3" style="fill: steelblue;"></circle><circle cx="206.50565519928932" cy="111.07646506279707" r="3" style="fill: steelblue;"></circle><circle cx="392.9131333529949" cy="182.80917634256184" r="3" style="fill: steelblue;"></circle><circle cx="376.244545429945" cy="134.73437977954745" r="3" style="fill: steelblue;"></circle><circle cx="412.3719897866249" cy="81.2374820932746" r="3" style="fill: steelblue;"></circle><circle cx="369.75328110158443" cy="157.1989492047578" r="3" style="fill: steelblue;"></circle><circle cx="147.9531665146351" cy="132.71007193252444" r="3" style="fill: steelblue;"></circle><circle cx="466.59609720110893" cy="90.64651858061552" r="3" style="fill: steelblue;"></circle><circle cx="293.26594199985266" cy="151.10137634910643" r="3" style="fill: steelblue;"></circle><circle cx="364.95997577905655" cy="183.49093426950276" r="3" style="fill: steelblue;"></circle><circle cx="421.7714962363243" cy="182.60162924416363" r="3" style="fill: steelblue;"></circle><circle cx="468.54820892214775" cy="53.72662395238876" r="3" style="fill: steelblue;"></circle><circle cx="116.81319259107114" cy="90.63766542822123" r="3" style="fill: steelblue;"></circle><circle cx="257.4484813772142" cy="176.4432221360039" r="3" style="fill: steelblue;"></circle><circle cx="119.29621070623399" cy="109.22197736799717" r="3" style="fill: steelblue;"></circle><circle cx="213.3423813432455" cy="258.87528732419014" r="3" style="fill: steelblue;"></circle><circle cx="317.85836040973663" cy="241.62421580404043" r="3" style="fill: steelblue;"></circle><circle cx="329.48246754705906" cy="224.8087154701352" r="3" style="fill: steelblue;"></circle><circle cx="110.82956984639169" cy="223.83413203060627" r="3" style="fill: steelblue;"></circle><circle cx="137.4173355102539" cy="261.7991289123893" r="3" style="fill: steelblue;"></circle><circle cx="107.26451173424722" cy="305.28160855174065" r="3" style="fill: steelblue;"></circle><circle cx="118.24513010680677" cy="204.55907536670566" r="3" style="fill: steelblue;"></circle><circle cx="174.88282330334187" cy="103.54238022118807" r="3" style="fill: steelblue;"></circle><circle cx="168.45718927681446" cy="259.76707618683577" r="3" style="fill: steelblue;"></circle><circle cx="364.5453029125929" cy="164.9062702897936" r="3" style="fill: steelblue;"></circle><circle cx="384.63628225028515" cy="209.80622079223394" r="3" style="fill: steelblue;"></circle><circle cx="243.91848787665367" cy="134.6950621344149" r="3" style="fill: steelblue;"></circle><circle cx="351.0668908059597" cy="209.4882276840508" r="3" style="fill: steelblue;"></circle><circle cx="201.03320952504873" cy="104.55996468663216" r="3" style="fill: steelblue;"></circle><circle cx="183.2802028208971" cy="120.94802986830473" r="3" style="fill: steelblue;"></circle><circle cx="482.0489001274109" cy="98.99106454104185" r="3" style="fill: steelblue;"></circle><circle cx="247.44977781549096" cy="192.64250569976866" r="3" style="fill: steelblue;"></circle><circle cx="315.18776033073664" cy="77.53403503447771" r="3" style="fill: steelblue;"></circle><circle cx="464.0711461007595" cy="161.54094291850924" r="3" style="fill: steelblue;"></circle><circle cx="476.52133002877235" cy="146.2249729782343" r="3" style="fill: steelblue;"></circle><circle cx="330.67148745059967" cy="165.4327590484172" r="3" style="fill: steelblue;"></circle><circle cx="202.76735823601484" cy="68.42957828193903" r="3" style="fill: steelblue;"></circle><circle cx="61.002883762121215" cy="293.4186842292547" r="3" style="fill: steelblue;"></circle><circle cx="125.5479269474745" cy="231.94893281906843" r="3" style="fill: steelblue;"></circle><circle cx="215.7348145544529" cy="166.49750138167292" r="3" style="fill: steelblue;"></circle><circle cx="152.8633289784193" cy="116.83039478957653" r="3" style="fill: steelblue;"></circle><circle cx="328.87507796287537" cy="209.4406240619719" r="3" style="fill: steelblue;"></circle><circle cx="306.3927969709039" cy="264.50309548527" r="3" style="fill: steelblue;"></circle><circle cx="127.73684084415437" cy="267.5938757136464" r="3" style="fill: steelblue;"></circle><circle cx="102.55946785211565" cy="242.91612412780523" r="3" style="fill: steelblue;"></circle><circle cx="221.1242240667343" cy="165.75740424450487" r="3" style="fill: steelblue;"></circle><circle cx="86.77458062767984" cy="245.0600277632475" r="3" style="fill: steelblue;"></circle><circle cx="67.40349277853967" cy="231.0780055820942" r="3" style="fill: steelblue;"></circle><circle cx="460.1053659617901" cy="174.5313866675133" r="3" style="fill: steelblue;"></circle><circle cx="430.2365981787443" cy="40.69207161664963" r="3" style="fill: steelblue;"></circle><circle cx="410.2901664376259" cy="5.579269677400589" r="3" style="fill: steelblue;"></circle><circle cx="415.58793492615223" cy="61.524295434355736" r="3" style="fill: steelblue;"></circle><circle cx="486.9662743806839" cy="81.57467767596245" r="3" style="fill: steelblue;"></circle><circle cx="495.3942511975765" cy="10.22738330066204" r="3" style="fill: steelblue;"></circle><circle cx="195.5635952576995" cy="134.56506812945008" r="3" style="fill: steelblue;"></circle><circle cx="153.13042670488358" cy="306.12093694508076" r="3" style="fill: steelblue;"></circle><circle cx="129.08589810132983" cy="204.19775526970625" r="3" style="fill: steelblue;"></circle><circle cx="163.42665933072567" cy="244.4361999630928" r="3" style="fill: steelblue;"></circle><circle cx="292.478886321187" cy="96.9569256529212" r="3" style="fill: steelblue;"></circle><circle cx="286.5634335950017" cy="133.98505300283432" r="3" style="fill: steelblue;"></circle></g></svg>