<svg xmlns="http://www.w3.org/2000/svg"><g><circle cx="29.540759325027466" cy="170.45924067497253" r="2" style="fill: steelblue;"></circle><circle cx="60.69957613945007" cy="139.30042386054993" r="2" style="fill: steelblue;"></circle><circle cx="119.40479725599289" cy="80.59520274400711" r="2" style="fill: steelblue;"></circle><circle cx="82.10919499397278" cy="117.89080500602722" r="2" style="fill: steelblue;"></circle><circle cx="112.76056617498398" cy="87.23943382501602" r="2" style="fill: steelblue;"></circle><circle cx="34.10390019416809" cy="165.8960998058319" r="2" style="fill: steelblue;"></circle><circle cx="99.544364400208" cy="100.455635599792" r="2" style="fill: steelblue;"></circle><circle cx="115.84897190332413" cy="84.15102809667587" r="2" style="fill: steelblue;"></circle><circle cx="69.41529214382172" cy="130.58470785617828" r="2" style="fill: steelblue;"></circle><circle cx="69.19999122619629" cy="130.8000087738037" r="2" style="fill: steelblue;"></circle><circle cx="75.74281990528107" cy="124.25718009471893" r="2" style="fill: steelblue;"></circle><circle cx="91.09385758638382" cy="108.90614241361618" r="2" style="fill: steelblue;"></circle><circle cx="90.29463604092598" cy="109.70536395907402" r="2" style="fill: steelblue;"></circle><circle cx="46.67617082595825" cy="153.32382917404175" r="2" style="fill: steelblue;"></circle><circle cx="108.83572176098824" cy="91.16427823901176" r="2" style="fill: steelblue;"></circle><circle cx="29.53163981437683" cy="170.46836018562317" r="2" style="fill: steelblue;"></circle><circle cx="53.622815012931824" cy="146.37718498706818" r="2" style="fill: steelblue;"></circle><circle cx="134.58853363990784" cy="65.41146636009216" r="2" style="fill: steelblue;"></circle><circle cx="101.10188210383058" cy="98.89811789616942" r="2" style="fill: steelblue;"></circle><circle cx="157.826167345047" cy="42.173832654953" r="2" style="fill: steelblue;"></circle><circle cx="99.33166084811091" cy="100.66833915188909" r="2" style="fill: steelblue;"></circle><circle cx="109.11305099725723" cy="90.88694900274277" r="2" style="fill: steelblue;"></circle><circle cx="119.67785209417343" cy="80.32214790582657" r="2" style="fill: steelblue;"></circle><circle cx="57.000166177749634" cy="142.99983382225037" r="2" style="fill: steelblue;"></circle><circle cx="122.64337688684464" cy="77.35662311315536" r="2" style="fill: steelblue;"></circle><circle cx="60.16100347042084" cy="139.83899652957916" r="2" style="fill: steelblue;"></circle><circle cx="79.23955023288727" cy="120.76044976711273" r="2" style="fill: steelblue;"></circle><circle cx="79.35323864221573" cy="120.64676135778427" r="2" style="fill: steelblue;"></circle><circle cx="47.576236724853516" cy="152.42376327514648" r="2" style="fill: steelblue;"></circle><circle cx="108.7610237300396" cy="91.2389762699604" r="2" style="fill: steelblue;"></circle><circle cx="145.08269429206848" cy="54.91730570793152" r="2" style="fill: steelblue;"></circle><circle cx="143.00574660301208" cy="56.994253396987915" r="2" style="fill: steelblue;"></circle><circle cx="162.74623274803162" cy="37.253767251968384" r="2" style="fill: steelblue;"></circle><circle cx="94.89885866641998" cy="105.10114133358002" r="2" style="fill: steelblue;"></circle><circle cx="110.19947156310081" cy="89.80052843689919" r="2" style="fill: steelblue;"></circle><circle cx="83.86740237474442" cy="116.13259762525558" r="2" style="fill: steelblue;"></circle><circle cx="101.90729312598705" cy="98.09270687401295" r="2" style="fill: steelblue;"></circle><circle cx="64.82284963130951" cy="135.1771503686905" r="2" style="fill: steelblue;"></circle><circle cx="39.07608389854431" cy="160.9239161014557" r="2" style="fill: steelblue;"></circle><circle cx="42.25280284881592" cy="157.74719715118408" r="2" style="fill: steelblue;"></circle><circle cx="18.91370415687561" cy="181.0862958431244" r="2" style="fill: steelblue;"></circle><circle cx="130.31090199947357" cy="69.68909800052643" r="2" style="fill: steelblue;"></circle><circle cx="47.8277325630188" cy="152.1722674369812" r="2" style="fill: steelblue;"></circle><circle cx="125.00604689121246" cy="74.99395310878754" r="2" style="fill: steelblue;"></circle><circle cx="136.38231754302979" cy="63.617682456970215" r="2" style="fill: steelblue;"></circle><circle cx="127.56921648979187" cy="72.43078351020813" r="2" style="fill: steelblue;"></circle><circle cx="151.73389315605164" cy="48.266106843948364" r="2" style="fill: steelblue;"></circle><circle cx="54.63104844093323" cy="145.36895155906677" r="2" style="fill: steelblue;"></circle><circle cx="53.17060351371765" cy="146.82939648628235" r="2" style="fill: steelblue;"></circle><circle cx="68.99988055229187" cy="131.00011944770813" r="2" style="fill: steelblue;"></circle><circle cx="116.91694110631943" cy="83.08305889368057" r="2" style="fill: steelblue;"></circle><circle cx="146.33714854717255" cy="53.662851452827454" r="2" style="fill: steelblue;"></circle><circle cx="126.0770708322525" cy="73.9229291677475" r="2" style="fill: steelblue;"></circle><circle cx="75.50497353076935" cy="124.49502646923065" r="2" style="fill: steelblue;"></circle><circle cx="95.16856111586094" cy="104.83143888413906" r="2" style="fill: steelblue;"></circle><circle cx="109.7198136150837" cy="90.2801863849163" r="2" style="fill: steelblue;"></circle><circle cx="106.30350410938263" cy="93.69649589061737" r="2" style="fill: steelblue;"></circle><circle cx="54.04421091079712" cy="145.95578908920288" r="2" style="fill: steelblue;"></circle><circle cx="88.8358898460865" cy="111.1641101539135" r="2" style="fill: steelblue;"></circle><circle cx="77.05083936452866" cy="122.94916063547134" r="2" style="fill: steelblue;"></circle><circle cx="114.03232663869858" cy="85.96767336130142" r="2" style="fill: steelblue;"></circle><circle cx="84.04288291931152" cy="115.95711708068848" r="2" style="fill: steelblue;"></circle><circle cx="32.67391324043274" cy="167.32608675956726" r="2" style="fill: steelblue;"></circle><circle cx="31.942975521087646" cy="168.05702447891235" r="2" style="fill: steelblue;"></circle><circle cx="62.99528777599335" cy="137.00471222400665" r="2" style="fill: steelblue;"></circle><circle cx="81.01856857538223" cy="118.98143142461777" r="2" style="fill: steelblue;"></circle><circle cx="52.85221040248871" cy="147.1477895975113" r="2" style="fill: steelblue;"></circle><circle cx="81.01634979248047" cy="118.98365020751953" r="2" style="fill: steelblue;"></circle><circle cx="38.42056393623352" cy="161.57943606376648" r="2" style="fill: steelblue;"></circle><circle cx="69.89798843860626" cy="130.10201156139374" r="2" style="fill: steelblue;"></circle><circle cx="40.86424112319946" cy="159.13575887680054" r="2" style="fill: steelblue;"></circle><circle cx="105.16527034342289" cy="94.83472965657711" r="2" style="fill: steelblue;"></circle><circle cx="117.10119992494583" cy="82.89880007505417" r="2" style="fill: steelblue;"></circle><circle cx="144.54109370708466" cy="55.458906292915344" r="2" style="fill: steelblue;"></circle><circle cx="132.0667177438736" cy="67.9332822561264" r="2" style="fill: steelblue;"></circle><circle cx="68.67731213569641" cy="131.3226878643036" r="2" style="fill: steelblue;"></circle><circle cx="128.20844650268555" cy="71.79155349731445" r="2" style="fill: steelblue;"></circle><circle cx="138.6093556880951" cy="61.39064431190491" r="2" style="fill: steelblue;"></circle><circle cx="137.0095580816269" cy="62.99044191837311" r="2" style="fill: steelblue;"></circle><circle cx="154.39093708992004" cy="45.609062910079956" r="2" style="fill: steelblue;"></circle><circle cx="166.72571301460266" cy="33.27428698539734" r="2" style="fill: steelblue;"></circle><circle cx="158.38727951049805" cy="41.61272048950195" r="2" style="fill: steelblue;"></circle><circle cx="102.88958549499512" cy="97.11041450500488" r="2" style="fill: steelblue;"></circle><circle cx="78.33388447761536" cy="121.66611552238464" r="2" style="fill: steelblue;"></circle><circle cx="70.2731728553772" cy="129.7268271446228" r="2" style="fill: steelblue;"></circle><circle cx="103.31694036722183" cy="96.68305963277817" r="2" style="fill: steelblue;"></circle><circle cx="86.78161948919296" cy="113.21838051080704" r="2" style="fill: steelblue;"></circle><circle cx="69.07244324684143" cy="130.92755675315857" r="2" style="fill: steelblue;"></circle><circle cx="61.109864711761475" cy="138.89013528823853" r="2" style="fill: steelblue;"></circle><circle cx="135.98717749118805" cy="64.01282250881195" r="2" style="fill: steelblue;"></circle><circle cx="123.15737903118134" cy="76.84262096881866" r="2" style="fill: steelblue;"></circle><circle cx="183.97982716560364" cy="16.020172834396362" r="2" style="fill: steelblue;"></circle><circle cx="171.41740918159485" cy="28.58259081840515" r="2" style="fill: steelblue;"></circle><circle cx="118.08044910430908" cy="81.91955089569092" r="2" style="fill: steelblue;"></circle><circle cx="119.51431035995483" cy="80.48568964004517" r="2" style="fill: steelblue;"></circle><circle cx="108.44259113073349" cy="91.55740886926651" r="2" style="fill: steelblue;"></circle><circle cx="150.6758213043213" cy="49.32417869567871" r="2" style="fill: steelblue;"></circle><circle cx="160.82406640052795" cy="39.175933599472046" r="2" style="fill: steelblue;"></circle><circle cx="121.73947095870972" cy="78.26052904129028" r="2" style="fill: steelblue;"></circle><circle cx="111.50742471218109" cy="88.49257528781891" r="2" style="fill: steelblue;"></circle><circle cx="104.5810516923666" cy="95.4189483076334" r="2" style="fill: steelblue;"></circle><circle cx="81.73001706600189" cy="118.26998293399811" r="2" style="fill: steelblue;"></circle><circle cx="111.32893338799477" cy="88.67106661200523" r="2" style="fill: steelblue;"></circle><circle cx="173.19093346595764" cy="26.80906653404236" r="2" style="fill: steelblue;"></circle><circle cx="74.04550611972809" cy="125.95449388027191" r="2" style="fill: steelblue;"></circle><circle cx="135.36517024040222" cy="64.63482975959778" r="2" style="fill: steelblue;"></circle><circle cx="144.0244495868683" cy="55.975550413131714" r="2" style="fill: steelblue;"></circle><circle cx="155.5930197238922" cy="44.40698027610779" r="2" style="fill: steelblue;"></circle><circle cx="129.6737551689148" cy="70.3262448310852" r="2" style="fill: steelblue;"></circle><circle cx="118.13419312238693" cy="81.86580687761307" r="2" style="fill: steelblue;"></circle><circle cx="164.1545832157135" cy="35.8454167842865" r="2" style="fill: steelblue;"></circle><circle cx="71.82250022888184" cy="128.17749977111816" r="2" style="fill: steelblue;"></circle><circle cx="57.03074336051941" cy="142.9692566394806" r="2" style="fill: steelblue;"></circle><circle cx="62.82018721103668" cy="137.17981278896332" r="2" style="fill: steelblue;"></circle><circle cx="103.16580645740032" cy="96.83419354259968" r="2" style="fill: steelblue;"></circle><circle cx="130.10840713977814" cy="69.89159286022186" r="2" style="fill: steelblue;"></circle><circle cx="120.08136808872223" cy="79.91863191127777" r="2" style="fill: steelblue;"></circle><circle cx="50.09171962738037" cy="149.90828037261963" r="2" style="fill: steelblue;"></circle></g></svg>