<svg xmlns="http://www.w3.org/2000/svg"><g><circle cx="22.9037880897522" cy="77.0962119102478" r="2" style="fill: steelblue;"></circle><circle cx="37.874859012663364" cy="62.125140987336636" r="2" style="fill: steelblue;"></circle><circle cx="40.456282161176205" cy="59.543717838823795" r="2" style="fill: steelblue;"></circle><circle cx="59.50584467500448" cy="40.49415532499552" r="2" style="fill: steelblue;"></circle><circle cx="23.639437928795818" cy="76.36056207120419" r="2" style="fill: steelblue;"></circle><circle cx="62.74926122277975" cy="37.25073877722025" r="2" style="fill: steelblue;"></circle><circle cx="42.839937563985586" cy="57.160062436014414" r="2" style="fill: steelblue;"></circle><circle cx="72.91272953152657" cy="27.087270468473434" r="2" style="fill: steelblue;"></circle><circle cx="14.179728180170063" cy="85.82027181982994" r="2" style="fill: steelblue;"></circle><circle cx="29.349086061120033" cy="70.65091393887997" r="2" style="fill: steelblue;"></circle><circle cx="57.07803666591644" cy="42.92196333408356" r="2" style="fill: steelblue;"></circle><circle cx="33.54034125804901" cy="66.45965874195099" r="2" style="fill: steelblue;"></circle><circle cx="40.90455938130617" cy="59.09544061869383" r="2" style="fill: steelblue;"></circle><circle cx="42.96513386070728" cy="57.03486613929272" r="2" style="fill: steelblue;"></circle><circle cx="10.920639336109165" cy="89.07936066389084" r="2" style="fill: steelblue;"></circle><circle cx="32.57627710700035" cy="67.42372289299965" r="2" style="fill: steelblue;"></circle><circle cx="62.017893604934216" cy="37.982106395065784" r="2" style="fill: steelblue;"></circle><circle cx="77.24090591073036" cy="22.759094089269638" r="2" style="fill: steelblue;"></circle><circle cx="76.02661959826946" cy="23.973380401730537" r="2" style="fill: steelblue;"></circle><circle cx="62.703717686235905" cy="37.296282313764095" r="2" style="fill: steelblue;"></circle><circle cx="72.97574654221535" cy="27.024253457784653" r="2" style="fill: steelblue;"></circle><circle cx="54.276483319699764" cy="45.723516680300236" r="2" style="fill: steelblue;"></circle><circle cx="47.84210161305964" cy="52.15789838694036" r="2" style="fill: steelblue;"></circle><circle cx="31.803379952907562" cy="68.19662004709244" r="2" style="fill: steelblue;"></circle><circle cx="66.60051941871643" cy="33.39948058128357" r="2" style="fill: steelblue;"></circle><circle cx="21.317779272794727" cy="78.68222072720528" r="2" style="fill: steelblue;"></circle><circle cx="29.8826202750206" cy="70.1173797249794" r="2" style="fill: steelblue;"></circle><circle cx="36.89375165849924" cy="63.10624834150076" r="2" style="fill: steelblue;"></circle><circle cx="35.96722446382046" cy="64.03277553617954" r="2" style="fill: steelblue;"></circle><circle cx="82.88320451974869" cy="17.116795480251312" r="2" style="fill: steelblue;"></circle><circle cx="42.93062649667263" cy="57.06937350332737" r="2" style="fill: steelblue;"></circle><circle cx="87.93791681528091" cy="12.062083184719086" r="2" style="fill: steelblue;"></circle><circle cx="94.52978819608688" cy="5.4702118039131165" r="2" style="fill: steelblue;"></circle><circle cx="49.30075212614611" cy="50.69924787385389" r="2" style="fill: steelblue;"></circle><circle cx="51.85021513607353" cy="48.14978486392647" r="2" style="fill: steelblue;"></circle><circle cx="45.54891791194677" cy="54.45108208805323" r="2" style="fill: steelblue;"></circle><circle cx="7.584612071514132" cy="92.41538792848587" r="2" style="fill: steelblue;"></circle><circle cx="46.41972151584923" cy="53.58027848415077" r="2" style="fill: steelblue;"></circle><circle cx="19.940740615129474" cy="80.05925938487053" r="2" style="fill: steelblue;"></circle><circle cx="67.27063208818436" cy="32.72936791181564" r="2" style="fill: steelblue;"></circle><circle cx="36.25483177602291" cy="63.74516822397709" r="2" style="fill: steelblue;"></circle><circle cx="64.61913716048002" cy="35.38086283951998" r="2" style="fill: steelblue;"></circle><circle cx="67.2946397215128" cy="32.705360278487206" r="2" style="fill: steelblue;"></circle><circle cx="83.01077708601952" cy="16.989222913980484" r="2" style="fill: steelblue;"></circle><circle cx="92.10149124264717" cy="7.898508757352829" r="2" style="fill: steelblue;"></circle><circle cx="50.29883213574067" cy="49.70116786425933" r="2" style="fill: steelblue;"></circle><circle cx="63.441747054457664" cy="36.558252945542336" r="2" style="fill: steelblue;"></circle><circle cx="17.97381713986397" cy="82.02618286013603" r="2" style="fill: steelblue;"></circle><circle cx="31.679201126098633" cy="68.32079887390137" r="2" style="fill: steelblue;"></circle><circle cx="38.5958693921566" cy="61.4041306078434" r="2" style="fill: steelblue;"></circle><circle cx="62.99357134848833" cy="37.00642865151167" r="2" style="fill: steelblue;"></circle><circle cx="55.791615694761276" cy="44.208384305238724" r="2" style="fill: steelblue;"></circle><circle cx="29.852695018053055" cy="70.14730498194695" r="2" style="fill: steelblue;"></circle><circle cx="11.627669632434849" cy="88.37233036756516" r="2" style="fill: steelblue;"></circle><circle cx="19.25361827015877" cy="80.74638172984123" r="2" style="fill: steelblue;"></circle><circle cx="23.37216138839722" cy="76.62783861160278" r="2" style="fill: steelblue;"></circle><circle cx="38.54115977883339" cy="61.45884022116661" r="2" style="fill: steelblue;"></circle><circle cx="43.32126649096608" cy="56.67873350903392" r="2" style="fill: steelblue;"></circle><circle cx="28.39144617319107" cy="71.60855382680893" r="2" style="fill: steelblue;"></circle><circle cx="39.90827891975641" cy="60.09172108024359" r="2" style="fill: steelblue;"></circle><circle cx="17.41321682929993" cy="82.58678317070007" r="2" style="fill: steelblue;"></circle><circle cx="29.844041168689728" cy="70.15595883131027" r="2" style="fill: steelblue;"></circle><circle cx="24.85064528882504" cy="75.14935471117496" r="2" style="fill: steelblue;"></circle><circle cx="18.42405200004578" cy="81.57594799995422" r="2" style="fill: steelblue;"></circle><circle cx="36.01067811250687" cy="63.98932188749313" r="2" style="fill: steelblue;"></circle><circle cx="1.529797166585925" cy="98.47020283341408" r="2" style="fill: steelblue;"></circle><circle cx="33.615994453430176" cy="66.38400554656982" r="2" style="fill: steelblue;"></circle><circle cx="25.673841312527657" cy="74.32615868747234" r="2" style="fill: steelblue;"></circle><circle cx="17.82096475362778" cy="82.17903524637222" r="2" style="fill: steelblue;"></circle><circle cx="29.780303314328194" cy="70.2196966856718" r="2" style="fill: steelblue;"></circle><circle cx="60.72998810559511" cy="39.27001189440489" r="2" style="fill: steelblue;"></circle><circle cx="64.40999936312437" cy="35.59000063687563" r="2" style="fill: steelblue;"></circle><circle cx="50.07574256596854" cy="49.92425743403146" r="2" style="fill: steelblue;"></circle><circle cx="45.400909800082445" cy="54.599090199917555" r="2" style="fill: steelblue;"></circle><circle cx="61.812569573521614" cy="38.187430426478386" r="2" style="fill: steelblue;"></circle><circle cx="97.38051816821098" cy="2.6194818317890167" r="2" style="fill: steelblue;"></circle><circle cx="44.6327256038785" cy="55.3672743961215" r="2" style="fill: steelblue;"></circle><circle cx="68.99766363203526" cy="31.002336367964745" r="2" style="fill: steelblue;"></circle><circle cx="66.39161631464958" cy="33.60838368535042" r="2" style="fill: steelblue;"></circle><circle cx="27.934276685118675" cy="72.06572331488132" r="2" style="fill: steelblue;"></circle><circle cx="76.5011414885521" cy="23.498858511447906" r="2" style="fill: steelblue;"></circle><circle cx="99.81368035078049" cy="0.18631964921951294" r="2" style="fill: steelblue;"></circle><circle cx="35.840633511543274" cy="64.15936648845673" r="2" style="fill: steelblue;"></circle><circle cx="16.22414514422417" cy="83.77585485577583" r="2" style="fill: steelblue;"></circle><circle cx="46.19066179729998" cy="53.80933820270002" r="2" style="fill: steelblue;"></circle><circle cx="64.442702755332" cy="35.55729724466801" r="2" style="fill: steelblue;"></circle><circle cx="21.685953438282016" cy="78.31404656171799" r="2" style="fill: steelblue;"></circle><circle cx="36.48497089743614" cy="63.51502910256386" r="2" style="fill: steelblue;"></circle><circle cx="35.49921624362469" cy="64.50078375637531" r="2" style="fill: steelblue;"></circle><circle cx="57.55724497139454" cy="42.44275502860546" r="2" style="fill: steelblue;"></circle><circle cx="63.07252608239651" cy="36.92747391760349" r="2" style="fill: steelblue;"></circle><circle cx="81.66954591870308" cy="18.33045408129692" r="2" style="fill: steelblue;"></circle><circle cx="80.89135885238647" cy="19.108641147613525" r="2" style="fill: steelblue;"></circle><circle cx="51.87629321590066" cy="48.12370678409934" r="2" style="fill: steelblue;"></circle><circle cx="82.27232024073601" cy="17.727679759263992" r="2" style="fill: steelblue;"></circle><circle cx="32.05112852156162" cy="67.94887147843838" r="2" style="fill: steelblue;"></circle><circle cx="77.3766778409481" cy="22.623322159051895" r="2" style="fill: steelblue;"></circle><circle cx="43.40663431212306" cy="56.59336568787694" r="2" style="fill: steelblue;"></circle><circle cx="61.62425335496664" cy="38.37574664503336" r="2" style="fill: steelblue;"></circle><circle cx="30.632338672876358" cy="69.36766132712364" r="2" style="fill: steelblue;"></circle><circle cx="57.4275485239923" cy="42.5724514760077" r="2" style="fill: steelblue;"></circle><circle cx="40.91480299830437" cy="59.08519700169563" r="2" style="fill: steelblue;"></circle><circle cx="64.90684412419796" cy="35.09315587580204" r="2" style="fill: steelblue;"></circle><circle cx="52.67330603674054" cy="47.32669396325946" r="2" style="fill: steelblue;"></circle><circle cx="65.71258343756199" cy="34.28741656243801" r="2" style="fill: steelblue;"></circle><circle cx="50.4017865867354" cy="49.5982134132646" r="2" style="fill: steelblue;"></circle><circle cx="72.67615497112274" cy="27.32384502887726" r="2" style="fill: steelblue;"></circle><circle cx="74.49161000549793" cy="25.508389994502068" r="2" style="fill: steelblue;"></circle><circle cx="74.95472133159637" cy="25.045278668403625" r="2" style="fill: steelblue;"></circle><circle cx="67.10261963307858" cy="32.897380366921425" r="2" style="fill: steelblue;"></circle><circle cx="79.30539473891258" cy="20.694605261087418" r="2" style="fill: steelblue;"></circle><circle cx="61.974296532571316" cy="38.025703467428684" r="2" style="fill: steelblue;"></circle><circle cx="24.317420274019245" cy="75.68257972598076" r="2" style="fill: steelblue;"></circle><circle cx="35.32198462635279" cy="64.67801537364721" r="2" style="fill: steelblue;"></circle><circle cx="31.648022308945656" cy="68.35197769105434" r="2" style="fill: steelblue;"></circle><circle cx="68.92364211380482" cy="31.076357886195183" r="2" style="fill: steelblue;"></circle><circle cx="42.11290664970875" cy="57.88709335029125" r="2" style="fill: steelblue;"></circle><circle cx="30.85513524711132" cy="69.14486475288868" r="2" style="fill: steelblue;"></circle></g></svg>