<svg xmlns="http://www.w3.org/2000/svg"><g transform="translate(40,20)"><circle cx="196.90952092409134" cy="156.47526495158672" r="3" style="fill: steelblue;"></circle><circle cx="383.47496330738073" cy="99.75470826029778" r="3" style="fill: steelblue;"></circle><circle cx="414.53951239585876" cy="81.86119645833969" r="3" style="fill: steelblue;"></circle><circle cx="338.3078062534332" cy="161.92405298352242" r="3" style="fill: steelblue;"></circle><circle cx="426.39296293258667" cy="138.30404840409756" r="3" style="fill: steelblue;"></circle><circle cx="389.37170147895813" cy="132.44999460875988" r="3" style="fill: steelblue;"></circle><circle cx="177.83899694681168" cy="112.57060468196869" r="3" style="fill: steelblue;"></circle><circle cx="259.2518837749958" cy="73.49352538585663" r="3" style="fill: steelblue;"></circle><circle cx="453.3317470550537" cy="71.5974435210228" r="3" style="fill: steelblue;"></circle><circle cx="392.78822779655457" cy="95.12451216578484" r="3" style="fill: steelblue;"></circle><circle cx="411.69304490089417" cy="129.83569651842117" r="3" style="fill: steelblue;"></circle><circle cx="281.9905185699463" cy="68.6019018292427" r="3" style="fill: steelblue;"></circle><circle cx="264.3066497147083" cy="234.1407373547554" r="3" style="fill: steelblue;"></circle><circle cx="470.3239345550537" cy="122.2244992852211" r="3" style="fill: steelblue;"></circle><circle cx="335.82231044769287" cy="166.80122269317508" r="3" style="fill: steelblue;"></circle><circle cx="433.07652711868286" cy="192.9009098559618" r="3" style="fill: steelblue;"></circle><circle cx="452.6941680908203" cy="181.76303328946233" r="3" style="fill: steelblue;"></circle><circle cx="351.4238530397415" cy="227.10238471627235" r="3" style="fill: steelblue;"></circle><circle cx="360.14544010162354" cy="105.76800927519798" r="3" style="fill: steelblue;"></circle><circle cx="363.7579196691513" cy="150.5058828741312" r="3" style="fill: steelblue;"></circle><circle cx="266.56703889369965" cy="202.80740223824978" r="3" style="fill: steelblue;"></circle><circle cx="267.6631124317646" cy="205.62192499637604" r="3" style="fill: steelblue;"></circle><circle cx="127.22881078720094" cy="173.87703930726275" r="3" style="fill: steelblue;"></circle><circle cx="400.56720614433294" cy="140.8002644777298" r="3" style="fill: steelblue;"></circle><circle cx="224.27225276827812" cy="93.87668967247009" r="3" style="fill: steelblue;"></circle><circle cx="244.5674893073738" cy="123.69115501642227" r="3" style="fill: steelblue;"></circle><circle cx="156.2189215421677" cy="241.6727177798748" r="3" style="fill: steelblue;"></circle><circle cx="173.43613743782046" cy="74.36216175556183" r="3" style="fill: steelblue;"></circle><circle cx="299.90418344736105" cy="187.47574891895056" r="3" style="fill: steelblue;"></circle><circle cx="293.5350412130356" cy="224.55556094646454" r="3" style="fill: steelblue;"></circle><circle cx="257.2448080033064" cy="216.82740300893784" r="3" style="fill: steelblue;"></circle><circle cx="254.84146267175674" cy="122.60991781949997" r="3" style="fill: steelblue;"></circle><circle cx="277.97870725393295" cy="203.92303243279457" r="3" style="fill: steelblue;"></circle><circle cx="303.3938446640969" cy="217.40197129547596" r="3" style="fill: steelblue;"></circle><circle cx="141.688688993454" cy="142.81093403697014" r="3" style="fill: steelblue;"></circle><circle cx="181.65298193693164" cy="246.84790819883347" r="3" style="fill: steelblue;"></circle><circle cx="164.9443084001541" cy="231.23050928115845" r="3" style="fill: steelblue;"></circle><circle cx="211.26755565404892" cy="214.558195322752" r="3" style="fill: steelblue;"></circle><circle cx="129.43789601325992" cy="297.8746101260185" r="3" style="fill: steelblue;"></circle><circle cx="194.99997586011887" cy="125.89400708675385" r="3" style="fill: steelblue;"></circle><circle cx="236.47167641669512" cy="141.5440570563078" r="3" style="fill: steelblue;"></circle><circle cx="122.77165889739992" cy="222.46612310409546" r="3" style="fill: steelblue;"></circle><circle cx="117.06367671489716" cy="248.24314936995506" r="3" style="fill: steelblue;"></circle><circle cx="146.24244511127472" cy="222.19403013586998" r="3" style="fill: steelblue;"></circle><circle cx="279.61031287908554" cy="205.2126720547676" r="3" style="fill: steelblue;"></circle><circle cx="88.06074500083925" cy="288.1643369793892" r="3" style="fill: steelblue;"></circle><circle cx="137.5046306848526" cy="157.86169730126858" r="3" style="fill: steelblue;"></circle><circle cx="331.8892711400986" cy="253.66368293762207" r="3" style="fill: steelblue;"></circle><circle cx="321.2840133905411" cy="189.65745512396097" r="3" style="fill: steelblue;"></circle><circle cx="281.5710702538491" cy="212.93423771858215" r="3" style="fill: steelblue;"></circle><circle cx="255.56561551988125" cy="211.41509674489498" r="3" style="fill: steelblue;"></circle><circle cx="283.51443350315094" cy="185.55966075509787" r="3" style="fill: steelblue;"></circle><circle cx="52.220156192779555" cy="146.89830280840397" r="3" style="fill: steelblue;"></circle><circle cx="55.80566167831422" cy="270.29723078012466" r="3" style="fill: steelblue;"></circle><circle cx="205.82394540309906" cy="203.21330167353153" r="3" style="fill: steelblue;"></circle><circle cx="79.86403942108154" cy="195.77873460948467" r="3" style="fill: steelblue;"></circle><circle cx="145.72350919246676" cy="221.39597907662392" r="3" style="fill: steelblue;"></circle><circle cx="83.25544238090517" cy="324.6814340353012" r="3" style="fill: steelblue;"></circle><circle cx="146.8714410066605" cy="169.44054821506143" r="3" style="fill: steelblue;"></circle><circle cx="326.59509122371674" cy="187.18181904405355" r="3" style="fill: steelblue;"></circle><circle cx="407.9889142513275" cy="71.7078223824501" r="3" style="fill: steelblue;"></circle><circle cx="201.5855321288109" cy="128.67842391133308" r="3" style="fill: steelblue;"></circle><circle cx="349.8978102207184" cy="158.66084229201078" r="3" style="fill: steelblue;"></circle><circle cx="157.8186357021332" cy="95.58674842119217" r="3" style="fill: steelblue;"></circle><circle cx="290.3975495696068" cy="74.20593947172165" r="3" style="fill: steelblue;"></circle><circle cx="368.625950217247" cy="86.084945499897" r="3" style="fill: steelblue;"></circle><circle cx="381.0219222307205" cy="141.12004190683365" r="3" style="fill: steelblue;"></circle><circle cx="156.25431776046753" cy="127.01105326414108" r="3" style="fill: steelblue;"></circle><circle cx="329.90893363952637" cy="62.33144998550415" r="3" style="fill: steelblue;"></circle><circle cx="256.01356118917465" cy="123.62873703241348" r="3" style="fill: steelblue;"></circle><circle cx="427.4471068382263" cy="130.13008534908295" r="3" style="fill: steelblue;"></circle><circle cx="301.3442748785019" cy="253.65152582526207" r="3" style="fill: steelblue;"></circle><circle cx="152.66624629497528" cy="149.50540624558926" r="3" style="fill: steelblue;"></circle><circle cx="279.27779495716095" cy="213.5876003652811" r="3" style="fill: steelblue;"></circle><circle cx="134.3941444158554" cy="174.67206606233958" r="3" style="fill: steelblue;"></circle><circle cx="190.8280947804451" cy="246.76069617271423" r="3" style="fill: steelblue;"></circle><circle cx="33.060564994812026" cy="172.44758906308562" r="3" style="fill: steelblue;"></circle><circle cx="154.25373852252963" cy="184.0205630287528" r="3" style="fill: steelblue;"></circle><circle cx="130.1482880115509" cy="175.01476220786572" r="3" style="fill: steelblue;"></circle><circle cx="130.3272181749344" cy="161.84867341071367" r="3" style="fill: steelblue;"></circle><circle cx="196.29976987838745" cy="178.08012254536152" r="3" style="fill: steelblue;"></circle><circle cx="117.4301826953888" cy="209.10356864333153" r="3" style="fill: steelblue;"></circle><circle cx="129.1110062599182" cy="225.99498182535172" r="3" style="fill: steelblue;"></circle><circle cx="255.9438293427229" cy="214.22485783696175" r="3" style="fill: steelblue;"></circle><circle cx="346.0367614030838" cy="212.23343051970005" r="3" style="fill: steelblue;"></circle><circle cx="330.76678454875946" cy="78.66848111152649" r="3" style="fill: steelblue;"></circle><circle cx="264.4340389966965" cy="125.69540441036224" r="3" style="fill: steelblue;"></circle><circle cx="354.7678345441818" cy="131.9915473461151" r="3" style="fill: steelblue;"></circle><circle cx="348.93462002277374" cy="116.96134582161903" r="3" style="fill: steelblue;"></circle><circle cx="399.9106192588806" cy="106.14504665136337" r="3" style="fill: steelblue;"></circle><circle cx="356.35726690292364" cy="163.5745583102107" r="3" style="fill: steelblue;"></circle><circle cx="486.40708565711975" cy="145.85131257772446" r="3" style="fill: steelblue;"></circle><circle cx="411.3544428348541" cy="154.28392849862576" r="3" style="fill: steelblue;"></circle><circle cx="407.09291338920593" cy="106.38980567455292" r="3" style="fill: steelblue;"></circle><circle cx="277.2948311269284" cy="232.81307220458984" r="3" style="fill: steelblue;"></circle><circle cx="166.57988369464877" cy="193.01024563610554" r="3" style="fill: steelblue;"></circle><circle cx="213.65984916687015" cy="225.38369968533516" r="3" style="fill: steelblue;"></circle><circle cx="148.8647156953812" cy="228.14892902970314" r="3" style="fill: steelblue;"></circle><circle cx="170.77330738306048" cy="202.33653709292412" r="3" style="fill: steelblue;"></circle><circle cx="225.15726886689663" cy="244.73178833723068" r="3" style="fill: steelblue;"></circle><circle cx="269.59604635834694" cy="204.96333129703999" r="3" style="fill: steelblue;"></circle><circle cx="237.89557331241667" cy="225.6507858633995" r="3" style="fill: steelblue;"></circle><circle cx="339.9584019184113" cy="154.62770462036133" r="3" style="fill: steelblue;"></circle><circle cx="240.97154185641557" cy="236.2605758011341" r="3" style="fill: steelblue;"></circle><circle cx="129.0843629837036" cy="122.9314997792244" r="3" style="fill: steelblue;"></circle><circle cx="186.76923304796222" cy="188.29511012881994" r="3" style="fill: steelblue;"></circle><circle cx="454.3660068511963" cy="169.78297159075737" r="3" style="fill: steelblue;"></circle><circle cx="310.58197259902954" cy="133.0752618610859" r="3" style="fill: steelblue;"></circle><circle cx="149.04262661933902" cy="54.62832599878311" r="3" style="fill: steelblue;"></circle><circle cx="454.64547514915466" cy="169.24666743725538" r="3" style="fill: steelblue;"></circle><circle cx="329.9905890226364" cy="66.28896296024323" r="3" style="fill: steelblue;"></circle><circle cx="430.55954217910767" cy="23.92885833978653" r="3" style="fill: steelblue;"></circle><circle cx="301.98978871107107" cy="292.5366625189781" r="3" style="fill: steelblue;"></circle><circle cx="72.38403797149658" cy="252.2064983844757" r="3" style="fill: steelblue;"></circle><circle cx="208.6226047575474" cy="136.4907741546631" r="3" style="fill: steelblue;"></circle><circle cx="279.47355598211294" cy="309.5369890332222" r="3" style="fill: steelblue;"></circle><circle cx="258.5512360185385" cy="266.4896607398987" r="3" style="fill: steelblue;"></circle><circle cx="127.4004900455475" cy="234.6432365477085" r="3" style="fill: steelblue;"></circle></g></svg>