<svg xmlns="http://www.w3.org/2000/svg"><g><circle cx="121.61954823467467" cy="144.57962777879501" r="2" style="fill: steelblue;"></circle><circle cx="87.00083030594719" cy="141.6809644964006" r="2" style="fill: steelblue;"></circle><circle cx="89.8856586880154" cy="44.7554541958703" r="2" style="fill: steelblue;"></circle><circle cx="78.96788252724541" cy="90.3693590934078" r="2" style="fill: steelblue;"></circle><circle cx="34.85655122333103" cy="130.500199397405" r="2" style="fill: steelblue;"></circle><circle cx="88.51338260703616" cy="105.08753226863013" r="2" style="fill: steelblue;"></circle><circle cx="134.28691360685562" cy="135.91542376412286" r="2" style="fill: steelblue;"></circle><circle cx="70.77695594893562" cy="108.3116137319141" r="2" style="fill: steelblue;"></circle><circle cx="87.09773586855995" cy="114.4438472059038" r="2" style="fill: steelblue;"></circle><circle cx="170.34140560362076" cy="82.90243637230661" r="2" style="fill: steelblue;"></circle><circle cx="102.5827071732945" cy="134.01028050316705" r="2" style="fill: steelblue;"></circle><circle cx="127.34911176893446" cy="43.06754337416756" r="2" style="fill: steelblue;"></circle><circle cx="74.32587941487631" cy="132.44335717625088" r="2" style="fill: steelblue;"></circle><circle cx="82.46574799219766" cy="156.24252822664047" r="2" style="fill: steelblue;"></circle><circle cx="86.78204152319167" cy="94.63687108622658" r="2" style="fill: steelblue;"></circle><circle cx="21.147463056776257" cy="100.96929503811731" r="2" style="fill: steelblue;"></circle><circle cx="129.28371462557052" cy="93.60504431857004" r="2" style="fill: steelblue;"></circle><circle cx="146.09742495748733" cy="55.07133934232924" r="2" style="fill: steelblue;"></circle><circle cx="127.36736403571234" cy="27.987253665924072" r="2" style="fill: steelblue;"></circle><circle cx="140.88137613402472" cy="40.05401531855266" r="2" style="fill: steelblue;"></circle><circle cx="182.95236428578693" cy="115.34300148487091" r="2" style="fill: steelblue;"></circle><circle cx="142.00426472557913" cy="34.467411041259766" r="2" style="fill: steelblue;"></circle><circle cx="41.00339942508274" cy="154.89791366789078" r="2" style="fill: steelblue;"></circle><circle cx="73.16012846099007" cy="118.66282290882535" r="2" style="fill: steelblue;"></circle><circle cx="46.05933692720201" cy="100.21777484152052" r="2" style="fill: steelblue;"></circle><circle cx="118.62331380446751" cy="83.52458303173383" r="2" style="fill: steelblue;"></circle><circle cx="73.71679610676235" cy="83.05730703804228" r="2" style="fill: steelblue;"></circle><circle cx="96.17303477393257" cy="137.99501326349045" r="2" style="fill: steelblue;"></circle><circle cx="95.55372099081674" cy="134.10942289564346" r="2" style="fill: steelblue;"></circle><circle cx="150.62595076031155" cy="97.00434605280559" r="2" style="fill: steelblue;"></circle><circle cx="114.03849182857407" cy="37.118860748079086" r="2" style="fill: steelblue;"></circle><circle cx="84.30497348308563" cy="33.35128426551819" r="2" style="fill: steelblue;"></circle><circle cx="159.82827213075424" cy="85.48447812596957" r="2" style="fill: steelblue;"></circle><circle cx="156.21655186017352" cy="84.05671053462558" r="2" style="fill: steelblue;"></circle><circle cx="115.45570774210823" cy="70.99630965126886" r="2" style="fill: steelblue;"></circle><circle cx="102.82138486703236" cy="110.46761804156833" r="2" style="fill: steelblue;"></circle><circle cx="45.9219151073032" cy="149.16027122073703" r="2" style="fill: steelblue;"></circle><circle cx="71.8380974398719" cy="149.07056623035007" r="2" style="fill: steelblue;"></circle><circle cx="52.5924629635281" cy="155.19951979319256" r="2" style="fill: steelblue;"></circle><circle cx="54.799669318728974" cy="132.38160014152527" r="2" style="fill: steelblue;"></circle><circle cx="85.12121107843187" cy="115.1889830827713" r="2" style="fill: steelblue;"></circle><circle cx="146.46363920635648" cy="22.5899338722229" r="2" style="fill: steelblue;"></circle><circle cx="106.55015334486961" cy="107.67078432771895" r="2" style="fill: steelblue;"></circle><circle cx="155.27875224749246" cy="69.06614071793027" r="2" style="fill: steelblue;"></circle><circle cx="129.73345981703864" cy="37.922533353169776" r="2" style="fill: steelblue;"></circle><circle cx="167.18200842539468" cy="85.90375747945573" r="2" style="fill: steelblue;"></circle><circle cx="165.30576348304749" cy="48.305096228917456" r="2" style="fill: steelblue;"></circle><circle cx="67.17816326353285" cy="125.06870627403259" r="2" style="fill: steelblue;"></circle><circle cx="51.840762297312416" cy="93.79581643475427" r="2" style="fill: steelblue;"></circle><circle cx="112.81230331708987" cy="145.60609261194864" r="2" style="fill: steelblue;"></circle><circle cx="22.228691313001843" cy="114.6700551112493" r="2" style="fill: steelblue;"></circle><circle cx="75.38895474539864" cy="54.40143611696031" r="2" style="fill: steelblue;"></circle><circle cx="110.5413503634433" cy="85.73415122098393" r="2" style="fill: steelblue;"></circle><circle cx="91.42283764150407" cy="95.91724425554276" r="2" style="fill: steelblue;"></circle><circle cx="111.34991013548441" cy="71.98627822928958" r="2" style="fill: steelblue;"></circle><circle cx="81.11354377534654" cy="143.84192758136325" r="2" style="fill: steelblue;"></circle><circle cx="129.9162424272961" cy="146.89633448918661" r="2" style="fill: steelblue;"></circle><circle cx="88.34241992897456" cy="117.22842388682895" r="2" style="fill: steelblue;"></circle><circle cx="105.93245385421646" cy="116.61409371429019" r="2" style="fill: steelblue;"></circle><circle cx="69.16602121459114" cy="61.023128032684326" r="2" style="fill: steelblue;"></circle><circle cx="84.02213950951894" cy="144.16517681545682" r="2" style="fill: steelblue;"></circle><circle cx="49.71721437242296" cy="71.21207349830203" r="2" style="fill: steelblue;"></circle><circle cx="22.187219725714787" cy="74.47673082351685" r="2" style="fill: steelblue;"></circle><circle cx="122.27735088931189" cy="136.17654509014554" r="2" style="fill: steelblue;"></circle><circle cx="76.62165496084425" cy="139.51931926939224" r="2" style="fill: steelblue;"></circle><circle cx="70.83092464341057" cy="165.16421768400406" r="2" style="fill: steelblue;"></circle><circle cx="78.55240503946939" cy="78.09314578771591" r="2" style="fill: steelblue;"></circle><circle cx="79.347163438797" cy="126.02669530444675" r="2" style="fill: steelblue;"></circle><circle cx="91.40988190968831" cy="164.64987595876056" r="2" style="fill: steelblue;"></circle><circle cx="58.35306975576613" cy="140.12449185053507" r="2" style="fill: steelblue;"></circle><circle cx="62.805400954352486" cy="183.0127027299669" r="2" style="fill: steelblue;"></circle><circle cx="111.15480793523602" cy="43.99056434631348" r="2" style="fill: steelblue;"></circle><circle cx="162.17645009358722" cy="78.71392485168245" r="2" style="fill: steelblue;"></circle><circle cx="156.44850002394782" cy="55.387147929933334" r="2" style="fill: steelblue;"></circle><circle cx="125.37346945868597" cy="31.25880029466417" r="2" style="fill: steelblue;"></circle><circle cx="153.49125862121582" cy="91.70889742672443" r="2" style="fill: steelblue;"></circle><circle cx="105.69813847541809" cy="80.26114304860432" r="2" style="fill: steelblue;"></circle><circle cx="117.62432919608221" cy="15.914882553948306" r="2" style="fill: steelblue;"></circle><circle cx="167.98863146040176" cy="33.39381217956543" r="2" style="fill: steelblue;"></circle><circle cx="161.67232394218445" cy="58.98675852351718" r="2" style="fill: steelblue;"></circle><circle cx="106.56592870752017" cy="42.12848875257704" r="2" style="fill: steelblue;"></circle><circle cx="129.3969733847512" cy="6.24979072146945" r="2" style="fill: steelblue;"></circle><circle cx="132.3944197760688" cy="71.16629878679912" r="2" style="fill: steelblue;"></circle><circle cx="111.66492140748434" cy="128.6367760764228" r="2" style="fill: steelblue;"></circle><circle cx="66.79257419374254" cy="51.3684736357795" r="2" style="fill: steelblue;"></circle><circle cx="72.34279645813835" cy="112.1453861395518" r="2" style="fill: steelblue;"></circle><circle cx="96.90782924493153" cy="65.30195011032953" r="2" style="fill: steelblue;"></circle><circle cx="105.96961817807622" cy="58.78777835104201" r="2" style="fill: steelblue;"></circle><circle cx="86.12096971935695" cy="80.05316423045265" r="2" style="fill: steelblue;"></circle><circle cx="156.01433979140387" cy="55.62930835617914" r="2" style="fill: steelblue;"></circle><circle cx="177.63664325078327" cy="28.883435991075302" r="2" style="fill: steelblue;"></circle><circle cx="101.94593750768237" cy="35.09664403067696" r="2" style="fill: steelblue;"></circle><circle cx="161.77418165736728" cy="125.0126083691915" r="2" style="fill: steelblue;"></circle><circle cx="111.7736188073953" cy="122.73267772462633" r="2" style="fill: steelblue;"></circle><circle cx="142.17090275552536" cy="86.0308343751563" r="2" style="fill: steelblue;"></circle><circle cx="168.86201832029556" cy="106.43039180172815" r="2" style="fill: steelblue;"></circle><circle cx="157.59433640374075" cy="44.914532370037506" r="2" style="fill: steelblue;"></circle><circle cx="155.33291631274753" cy="74.85688924789429" r="2" style="fill: steelblue;"></circle><circle cx="146.20666702588397" cy="32.28027820587158" r="2" style="fill: steelblue;"></circle><circle cx="133.32486318217383" cy="143.96929608450995" r="2" style="fill: steelblue;"></circle><circle cx="124.05299312538571" cy="47.28727738062541" r="2" style="fill: steelblue;"></circle><circle cx="140.72760608461166" cy="91.34378669162591" r="2" style="fill: steelblue;"></circle><circle cx="127.50810219181908" cy="72.05864985783894" r="2" style="fill: steelblue;"></circle><circle cx="126.4910962846544" cy="146.59378131230673" r="2" style="fill: steelblue;"></circle><circle cx="186.00647979312473" cy="48.614477448993256" r="2" style="fill: steelblue;"></circle><circle cx="144.51635546154446" cy="81.27906372149785" r="2" style="fill: steelblue;"></circle><circle cx="151.85832977294922" cy="72.30193118254344" r="2" style="fill: steelblue;"></circle><circle cx="125.62246455086601" cy="77.58533077107536" r="2" style="fill: steelblue;"></circle><circle cx="121.00459552473492" cy="93.24872733818161" r="2" style="fill: steelblue;"></circle><circle cx="135.65885689523483" cy="104.02452150980632" r="2" style="fill: steelblue;"></circle><circle cx="151.49656931559244" cy="51.26344031757779" r="2" style="fill: steelblue;"></circle><circle cx="144.97750335269504" cy="53.064232402377655" r="2" style="fill: steelblue;"></circle><circle cx="69.12723183631897" cy="125.13401309649149" r="2" style="fill: steelblue;"></circle><circle cx="96.9882325993644" cy="121.40077551205954" r="2" style="fill: steelblue;"></circle><circle cx="47.25121789508396" cy="98.90474329392116" r="2" style="fill: steelblue;"></circle><circle cx="36.13342179192437" cy="150.88260703616672" r="2" style="fill: steelblue;"></circle><circle cx="61.199085579978096" cy="91.7734498778979" r="2" style="fill: steelblue;"></circle><circle cx="146.32383982340497" cy="127.0581669277615" r="2" style="fill: steelblue;"></circle></g></svg>