<svg xmlns="http://www.w3.org/2000/svg"><g><circle cx="25.012595951557167" cy="154.1924238204956" r="2" style="fill: steelblue;"></circle><circle cx="108.42343829572201" cy="124.25028197467327" r="2" style="fill: steelblue;"></circle><circle cx="98.50210826843977" cy="119.08743567764759" r="2" style="fill: steelblue;"></circle><circle cx="6.651772558689123" cy="80.98831064999104" r="2" style="fill: steelblue;"></circle><circle cx="4.6742245554924065" cy="152.72112414240837" r="2" style="fill: steelblue;"></circle><circle cx="6.269006431102758" cy="74.5014775544405" r="2" style="fill: steelblue;"></circle><circle cx="60.74187755584717" cy="114.32012487202883" r="2" style="fill: steelblue;"></circle><circle cx="80.18709942698479" cy="54.17454093694687" r="2" style="fill: steelblue;"></circle><circle cx="83.45174081623554" cy="171.64054363965988" r="2" style="fill: steelblue;"></circle><circle cx="83.87926816940308" cy="141.30182787775993" r="2" style="fill: steelblue;"></circle><circle cx="88.61848842352629" cy="85.84392666816711" r="2" style="fill: steelblue;"></circle><circle cx="78.69432345032692" cy="132.91931748390198" r="2" style="fill: steelblue;"></circle><circle cx="67.08064153790474" cy="118.19088123738766" r="2" style="fill: steelblue;"></circle><circle cx="93.5410562902689" cy="114.06973227858543" r="2" style="fill: steelblue;"></circle><circle cx="60.59328317642212" cy="178.15872132778168" r="2" style="fill: steelblue;"></circle><circle cx="90.20470678806305" cy="134.8474457859993" r="2" style="fill: steelblue;"></circle><circle cx="106.79453834891319" cy="75.96421279013157" r="2" style="fill: steelblue;"></circle><circle cx="66.70396625995636" cy="45.518188178539276" r="2" style="fill: steelblue;"></circle><circle cx="45.10668516159058" cy="47.946760803461075" r="2" style="fill: steelblue;"></circle><circle cx="94.97425695881248" cy="74.59256462752819" r="2" style="fill: steelblue;"></circle><circle cx="62.5227190554142" cy="54.048506915569305" r="2" style="fill: steelblue;"></circle><circle cx="144.08251866698265" cy="91.44703336060047" r="2" style="fill: steelblue;"></circle><circle cx="72.34299778938293" cy="104.31579677388072" r="2" style="fill: steelblue;"></circle><circle cx="48.686681687831886" cy="136.39324009418488" r="2" style="fill: steelblue;"></circle><circle cx="50.7937915623188" cy="66.79896116256714" r="2" style="fill: steelblue;"></circle><circle cx="130.4622296243906" cy="157.36444145441055" r="2" style="fill: steelblue;"></circle><circle cx="58.72705429792404" cy="140.2347594499588" r="2" style="fill: steelblue;"></circle><circle cx="78.47501374781132" cy="126.21249668300152" r="2" style="fill: steelblue;"></circle><circle cx="138.22074830532074" cy="128.06555107235909" r="2" style="fill: steelblue;"></circle><circle cx="144.70576718449593" cy="34.233590960502625" r="2" style="fill: steelblue;"></circle><circle cx="116.20440743863583" cy="114.13874700665474" r="2" style="fill: steelblue;"></circle><circle cx="159.8992481827736" cy="24.12416636943817" r="2" style="fill: steelblue;"></circle><circle cx="113.86734005063772" cy="10.940423607826233" r="2" style="fill: steelblue;"></circle><circle cx="102.44455528445542" cy="101.39849574770778" r="2" style="fill: steelblue;"></circle><circle cx="92.97796422615647" cy="96.29956972785294" r="2" style="fill: steelblue;"></circle><circle cx="95.60536025092006" cy="108.90216417610645" r="2" style="fill: steelblue;"></circle><circle cx="91.18260852992535" cy="184.83077585697174" r="2" style="fill: steelblue;"></circle><circle cx="55.10499179363251" cy="107.16055696830153" r="2" style="fill: steelblue;"></circle><circle cx="26.31975561380387" cy="160.11851876974106" r="2" style="fill: steelblue;"></circle><circle cx="31.87223374843598" cy="65.45873582363129" r="2" style="fill: steelblue;"></circle><circle cx="56.768009811639786" cy="127.49033644795418" r="2" style="fill: steelblue;"></circle><circle cx="183.32323282957077" cy="70.76172567903996" r="2" style="fill: steelblue;"></circle><circle cx="74.65416043996811" cy="65.41072055697441" r="2" style="fill: steelblue;"></circle><circle cx="89.41981513053179" cy="33.97844582796097" r="2" style="fill: steelblue;"></circle><circle cx="120.10545320808887" cy="15.797017514705658" r="2" style="fill: steelblue;"></circle><circle cx="132.41559863090515" cy="99.40233572851866" r="2" style="fill: steelblue;"></circle><circle cx="146.160951256752" cy="73.11650589108467" r="2" style="fill: steelblue;"></circle><circle cx="47.11743667721749" cy="164.05236572027206" r="2" style="fill: steelblue;"></circle><circle cx="143.3029681444168" cy="136.64159774780273" r="2" style="fill: steelblue;"></circle><circle cx="147.77255281805992" cy="122.8082612156868" r="2" style="fill: steelblue;"></circle><circle cx="119.69005726277828" cy="74.01285730302334" r="2" style="fill: steelblue;"></circle><circle cx="82.81716927886009" cy="88.41676861047745" r="2" style="fill: steelblue;"></circle><circle cx="71.28831408917904" cy="140.2946099638939" r="2" style="fill: steelblue;"></circle><circle cx="135.98755970597267" cy="176.7446607351303" r="2" style="fill: steelblue;"></circle><circle cx="39.06699493527413" cy="161.49276345968246" r="2" style="fill: steelblue;"></circle><circle cx="46.23214378952981" cy="153.25567722320557" r="2" style="fill: steelblue;"></circle><circle cx="158.17869678139687" cy="122.91768044233322" r="2" style="fill: steelblue;"></circle><circle cx="101.01524218916893" cy="113.35746701806784" r="2" style="fill: steelblue;"></circle><circle cx="75.87820887565613" cy="143.21710765361786" r="2" style="fill: steelblue;"></circle><circle cx="115.31618181616068" cy="120.18344216048717" r="2" style="fill: steelblue;"></circle><circle cx="92.88907693699002" cy="165.17356634140015" r="2" style="fill: steelblue;"></circle><circle cx="56.68616145849228" cy="140.31191766262054" r="2" style="fill: steelblue;"></circle><circle cx="87.42732591927052" cy="150.29870942234993" r="2" style="fill: steelblue;"></circle><circle cx="31.201227009296424" cy="163.15189599990845" r="2" style="fill: steelblue;"></circle><circle cx="105.4161068983376" cy="127.97864377498627" r="2" style="fill: steelblue;"></circle><circle cx="37.50235810875893" cy="196.94040566682816" r="2" style="fill: steelblue;"></circle><circle cx="37.69376352429391" cy="132.76801109313965" r="2" style="fill: steelblue;"></circle><circle cx="42.142743617296226" cy="148.6523173749447" r="2" style="fill: steelblue;"></circle><circle cx="95.1847936026752" cy="164.35807049274445" r="2" style="fill: steelblue;"></circle><circle cx="45.20027190446854" cy="140.4393933713436" r="2" style="fill: steelblue;"></circle><circle cx="50.340643525123596" cy="78.54002378880978" r="2" style="fill: steelblue;"></circle><circle cx="134.7658358514309" cy="71.18000127375126" r="2" style="fill: steelblue;"></circle><circle cx="146.87412083148956" cy="99.84851486806292" r="2" style="fill: steelblue;"></circle><circle cx="67.57311746478081" cy="109.19818039983511" r="2" style="fill: steelblue;"></circle><circle cx="106.28981878980994" cy="76.37486085295677" r="2" style="fill: steelblue;"></circle><circle cx="94.46831829845905" cy="5.2389636635780334" r="2" style="fill: steelblue;"></circle><circle cx="131.23280219733715" cy="110.734548792243" r="2" style="fill: steelblue;"></circle><circle cx="70.16076184809208" cy="62.00467273592949" r="2" style="fill: steelblue;"></circle><circle cx="138.59204053878784" cy="67.21676737070084" r="2" style="fill: steelblue;"></circle><circle cx="143.05439442396164" cy="144.13144662976265" r="2" style="fill: steelblue;"></circle><circle cx="105.26500446721911" cy="46.99771702289581" r="2" style="fill: steelblue;"></circle><circle cx="178.56489717960358" cy="0.3726392984390259" r="2" style="fill: steelblue;"></circle><circle cx="104.30289283394814" cy="128.31873297691345" r="2" style="fill: steelblue;"></circle><circle cx="106.78781187161803" cy="167.55170971155167" r="2" style="fill: steelblue;"></circle><circle cx="84.76056940853596" cy="107.61867640540004" r="2" style="fill: steelblue;"></circle><circle cx="84.96582359075546" cy="71.11459448933601" r="2" style="fill: steelblue;"></circle><circle cx="91.07518792152405" cy="156.62809312343597" r="2" style="fill: steelblue;"></circle><circle cx="81.92010633647442" cy="127.03005820512772" r="2" style="fill: steelblue;"></circle><circle cx="97.1900584641844" cy="129.00156751275063" r="2" style="fill: steelblue;"></circle><circle cx="104.15470264852047" cy="84.88551005721092" r="2" style="fill: steelblue;"></circle><circle cx="166.68204069137573" cy="73.85494783520699" r="2" style="fill: steelblue;"></circle><circle cx="118.98211054503918" cy="36.66090816259384" r="2" style="fill: steelblue;"></circle><circle cx="120.16099914908409" cy="38.21728229522705" r="2" style="fill: steelblue;"></circle><circle cx="134.42218154668808" cy="96.24741356819868" r="2" style="fill: steelblue;"></circle><circle cx="95.34445768222213" cy="35.455359518527985" r="2" style="fill: steelblue;"></circle><circle cx="168.21834295988083" cy="135.89774295687675" r="2" style="fill: steelblue;"></circle><circle cx="159.01585146784782" cy="45.24664431810379" r="2" style="fill: steelblue;"></circle><circle cx="159.5426708459854" cy="113.18673137575388" r="2" style="fill: steelblue;"></circle><circle cx="108.23293626308441" cy="76.75149329006672" r="2" style="fill: steelblue;"></circle><circle cx="100.78927050344646" cy="138.73532265424728" r="2" style="fill: steelblue;"></circle><circle cx="147.269307076931" cy="85.1449029520154" r="2" style="fill: steelblue;"></circle><circle cx="124.07658658921719" cy="118.17039400339127" r="2" style="fill: steelblue;"></circle><circle cx="143.106060475111" cy="70.18631175160408" r="2" style="fill: steelblue;"></circle><circle cx="128.91557849943638" cy="94.65338792651892" r="2" style="fill: steelblue;"></circle><circle cx="140.6883805990219" cy="68.57483312487602" r="2" style="fill: steelblue;"></circle><circle cx="73.43834117054939" cy="99.1964268265292" r="2" style="fill: steelblue;"></circle><circle cx="124.560971185565" cy="54.64769005775452" r="2" style="fill: steelblue;"></circle><circle cx="141.6056178510189" cy="51.016779989004135" r="2" style="fill: steelblue;"></circle><circle cx="173.40165972709656" cy="50.09055733680725" r="2" style="fill: steelblue;"></circle><circle cx="99.86593617359176" cy="65.79476073384285" r="2" style="fill: steelblue;"></circle><circle cx="184.6283808350563" cy="41.389210522174835" r="2" style="fill: steelblue;"></circle><circle cx="82.71850310266018" cy="76.05140693485737" r="2" style="fill: steelblue;"></circle><circle cx="29.697386920452125" cy="151.36515945196152" r="2" style="fill: steelblue;"></circle><circle cx="47.500955313444145" cy="129.35603074729443" r="2" style="fill: steelblue;"></circle><circle cx="78.01111452281475" cy="136.7039553821087" r="2" style="fill: steelblue;"></circle><circle cx="43.98716092109681" cy="62.152715772390366" r="2" style="fill: steelblue;"></circle><circle cx="36.34914606809617" cy="115.7741867005825" r="2" style="fill: steelblue;"></circle><circle cx="33.481663465499885" cy="138.28972950577736" r="2" style="fill: steelblue;"></circle></g></svg>