<svg xmlns="http://www.w3.org/2000/svg"><g><circle cx="22.419559955596927" cy="77.0962119102478" r="2" style="fill: steelblue;"></circle><circle cx="16.911356896162037" cy="62.125140987336636" r="2" style="fill: steelblue;"></circle><circle cx="53.99223389104009" cy="59.543717838823795" r="2" style="fill: steelblue;"></circle><circle cx="29.31068204343319" cy="40.49415532499552" r="2" style="fill: steelblue;"></circle><circle cx="15.54191038012505" cy="76.36056207120419" r="2" style="fill: steelblue;"></circle><circle cx="45.41853228583932" cy="37.25073877722025" r="2" style="fill: steelblue;"></circle><circle cx="30.506420135498047" cy="57.160062436014414" r="2" style="fill: steelblue;"></circle><circle cx="5.0533480942249325" cy="27.087270468473434" r="2" style="fill: steelblue;"></circle><circle cx="29.069435968995094" cy="85.82027181982994" r="2" style="fill: steelblue;"></circle><circle cx="25.55752284824848" cy="70.65091393887997" r="2" style="fill: steelblue;"></circle><circle cx="34.623183496296406" cy="42.92196333408356" r="2" style="fill: steelblue;"></circle><circle cx="61.58340647816658" cy="66.45965874195099" r="2" style="fill: steelblue;"></circle><circle cx="34.87969394773245" cy="59.09544061869383" r="2" style="fill: steelblue;"></circle><circle cx="54.833643324673176" cy="57.03486613929272" r="2" style="fill: steelblue;"></circle><circle cx="18.81782449781895" cy="89.07936066389084" r="2" style="fill: steelblue;"></circle><circle cx="30.107204988598824" cy="67.42372289299965" r="2" style="fill: steelblue;"></circle><circle cx="63.62768281251192" cy="37.982106395065784" r="2" style="fill: steelblue;"></circle><circle cx="38.46178688108921" cy="22.759094089269638" r="2" style="fill: steelblue;"></circle><circle cx="41.35947972536087" cy="23.973380401730537" r="2" style="fill: steelblue;"></circle><circle cx="79.64040264487267" cy="37.296282313764095" r="2" style="fill: steelblue;"></circle><circle cx="67.20892079174519" cy="27.024253457784653" r="2" style="fill: steelblue;"></circle><circle cx="41.08402710407972" cy="45.723516680300236" r="2" style="fill: steelblue;"></circle><circle cx="27.586274966597557" cy="52.15789838694036" r="2" style="fill: steelblue;"></circle><circle cx="28.357577696442604" cy="68.19662004709244" r="2" style="fill: steelblue;"></circle><circle cx="21.12653218209744" cy="33.39948058128357" r="2" style="fill: steelblue;"></circle><circle cx="8.11446383595467" cy="78.68222072720528" r="2" style="fill: steelblue;"></circle><circle cx="27.51440294086933" cy="70.1173797249794" r="2" style="fill: steelblue;"></circle><circle cx="52.786809112876654" cy="63.10624834150076" r="2" style="fill: steelblue;"></circle><circle cx="10.251569747924808" cy="64.03277553617954" r="2" style="fill: steelblue;"></circle><circle cx="47.56471021100879" cy="17.116795480251312" r="2" style="fill: steelblue;"></circle><circle cx="76.69778652489185" cy="57.06937350332737" r="2" style="fill: steelblue;"></circle><circle cx="88.99319842457771" cy="12.062083184719086" r="2" style="fill: steelblue;"></circle><circle cx="68.52369122207165" cy="5.4702118039131165" r="2" style="fill: steelblue;"></circle><circle cx="69.55843716859818" cy="50.69924787385389" r="2" style="fill: steelblue;"></circle><circle cx="65.36552608013153" cy="48.14978486392647" r="2" style="fill: steelblue;"></circle><circle cx="75.06574802100658" cy="54.45108208805323" r="2" style="fill: steelblue;"></circle><circle cx="67.00508035719395" cy="92.41538792848587" r="2" style="fill: steelblue;"></circle><circle cx="43.31946577876806" cy="53.58027848415077" r="2" style="fill: steelblue;"></circle><circle cx="19.39177624881268" cy="80.05925938487053" r="2" style="fill: steelblue;"></circle><circle cx="19.118800014257435" cy="32.72936791181564" r="2" style="fill: steelblue;"></circle><circle cx="50.25767501210794" cy="63.74516822397709" r="2" style="fill: steelblue;"></circle><circle cx="32.90135897696018" cy="35.38086283951998" r="2" style="fill: steelblue;"></circle><circle cx="92.44597256183624" cy="32.705360278487206" r="2" style="fill: steelblue;"></circle><circle cx="61.86859142035246" cy="16.989222913980484" r="2" style="fill: steelblue;"></circle><circle cx="71.49147726595402" cy="7.898508757352829" r="2" style="fill: steelblue;"></circle><circle cx="43.02837997674942" cy="49.70116786425933" r="2" style="fill: steelblue;"></circle><circle cx="52.851443365216255" cy="36.558252945542336" r="2" style="fill: steelblue;"></circle><circle cx="82.68235921859741" cy="82.02618286013603" r="2" style="fill: steelblue;"></circle><circle cx="27.42554359138012" cy="68.32079887390137" r="2" style="fill: steelblue;"></circle><circle cx="30.953585356473923" cy="61.4041306078434" r="2" style="fill: steelblue;"></circle><circle cx="55.24752587080002" cy="37.00642865151167" r="2" style="fill: steelblue;"></circle><circle cx="57.03898537904024" cy="44.208384305238724" r="2" style="fill: steelblue;"></circle><circle cx="67.15612038969994" cy="70.14730498194695" r="2" style="fill: steelblue;"></circle><circle cx="76.93707123398781" cy="88.37233036756516" r="2" style="fill: steelblue;"></circle><circle cx="37.07024473696947" cy="80.74638172984123" r="2" style="fill: steelblue;"></circle><circle cx="7.602575421333316" cy="76.62783861160278" r="2" style="fill: steelblue;"></circle><circle cx="10.146017372608188" cy="61.45884022116661" r="2" style="fill: steelblue;"></circle><circle cx="56.37445319443941" cy="56.67873350903392" r="2" style="fill: steelblue;"></circle><circle cx="31.592359021306038" cy="71.60855382680893" r="2" style="fill: steelblue;"></circle><circle cx="40.51580112427473" cy="60.09172108024359" r="2" style="fill: steelblue;"></circle><circle cx="45.68274710327387" cy="82.58678317070007" r="2" style="fill: steelblue;"></circle><circle cx="83.19317102432251" cy="70.15595883131027" r="2" style="fill: steelblue;"></circle><circle cx="9.792941808700565" cy="75.14935471117496" r="2" style="fill: steelblue;"></circle><circle cx="22.451226785779003" cy="81.57594799995422" r="2" style="fill: steelblue;"></circle><circle cx="53.788757836446166" cy="63.98932188749313" r="2" style="fill: steelblue;"></circle><circle cx="64.07914701849222" cy="98.47020283341408" r="2" style="fill: steelblue;"></circle><circle cx="46.53474404476583" cy="66.38400554656982" r="2" style="fill: steelblue;"></circle><circle cx="14.20182287693024" cy="74.32615868747234" r="2" style="fill: steelblue;"></circle><circle cx="8.817448467016224" cy="82.17903524637222" r="2" style="fill: steelblue;"></circle><circle cx="47.19929997809231" cy="70.2196966856718" r="2" style="fill: steelblue;"></circle><circle cx="22.100565209984783" cy="39.27001189440489" r="2" style="fill: steelblue;"></circle><circle cx="78.57469767332077" cy="35.59000063687563" r="2" style="fill: steelblue;"></circle><circle cx="60.74833609163761" cy="49.92425743403146" r="2" style="fill: steelblue;"></circle><circle cx="75.58978646993637" cy="54.599090199917555" r="2" style="fill: steelblue;"></circle><circle cx="67.27763377130032" cy="38.187430426478386" r="2" style="fill: steelblue;"></circle><circle cx="49.585462297545746" cy="2.6194818317890167" r="2" style="fill: steelblue;"></circle><circle cx="75.57698078453541" cy="55.3672743961215" r="2" style="fill: steelblue;"></circle><circle cx="70.56855149567127" cy="31.002336367964745" r="2" style="fill: steelblue;"></circle><circle cx="55.29261212795973" cy="33.60838368535042" r="2" style="fill: steelblue;"></circle><circle cx="49.33120928471908" cy="72.06572331488132" r="2" style="fill: steelblue;"></circle><circle cx="47.0347648486495" cy="23.498858511447906" r="2" style="fill: steelblue;"></circle><circle cx="81.74613043665886" cy="0.18631964921951294" r="2" style="fill: steelblue;"></circle><circle cx="69.4674227386713" cy="64.15936648845673" r="2" style="fill: steelblue;"></circle><circle cx="23.844174295663837" cy="83.77585485577583" r="2" style="fill: steelblue;"></circle><circle cx="13.589746505022053" cy="53.80933820270002" r="2" style="fill: steelblue;"></circle><circle cx="34.324412420392036" cy="35.55729724466801" r="2" style="fill: steelblue;"></circle><circle cx="34.78159308433533" cy="78.31404656171799" r="2" style="fill: steelblue;"></circle><circle cx="67.71005801856518" cy="63.51502910256386" r="2" style="fill: steelblue;"></circle><circle cx="33.441488817334175" cy="64.50078375637531" r="2" style="fill: steelblue;"></circle><circle cx="63.98883014917374" cy="42.44275502860546" r="2" style="fill: steelblue;"></circle><circle cx="69.93410848081112" cy="36.92747391760349" r="2" style="fill: steelblue;"></circle><circle cx="67.5710916519165" cy="18.33045408129692" r="2" style="fill: steelblue;"></circle><circle cx="66.0768423229456" cy="19.108641147613525" r="2" style="fill: steelblue;"></circle><circle cx="80.34951724112034" cy="48.12370678409934" r="2" style="fill: steelblue;"></circle><circle cx="72.98163808882236" cy="17.727679759263992" r="2" style="fill: steelblue;"></circle><circle cx="89.43033888936043" cy="67.94887147843838" r="2" style="fill: steelblue;"></circle><circle cx="85.20035371184349" cy="22.623322159051895" r="2" style="fill: steelblue;"></circle><circle cx="73.04414287209511" cy="56.59336568787694" r="2" style="fill: steelblue;"></circle><circle cx="57.101322524249554" cy="38.37574664503336" r="2" style="fill: steelblue;"></circle><circle cx="67.42861047387123" cy="69.36766132712364" r="2" style="fill: steelblue;"></circle><circle cx="90.89723527431488" cy="42.5724514760077" r="2" style="fill: steelblue;"></circle><circle cx="58.92631430178881" cy="59.08519700169563" r="2" style="fill: steelblue;"></circle><circle cx="74.41776730120182" cy="35.09315587580204" r="2" style="fill: steelblue;"></circle><circle cx="43.528444319963455" cy="47.32669396325946" r="2" style="fill: steelblue;"></circle><circle cx="44.566853158175945" cy="34.28741656243801" r="2" style="fill: steelblue;"></circle><circle cx="58.239259012043476" cy="49.5982134132646" r="2" style="fill: steelblue;"></circle><circle cx="55.775755271315575" cy="27.32384502887726" r="2" style="fill: steelblue;"></circle><circle cx="42.55911819636822" cy="25.508389994502068" r="2" style="fill: steelblue;"></circle><circle cx="60.777479968965054" cy="25.045278668403625" r="2" style="fill: steelblue;"></circle><circle cx="59.54417325556278" cy="32.897380366921425" r="2" style="fill: steelblue;"></circle><circle cx="81.16823919117451" cy="20.694605261087418" r="2" style="fill: steelblue;"></circle><circle cx="68.16284470260143" cy="38.025703467428684" r="2" style="fill: steelblue;"></circle><circle cx="46.49000237695873" cy="75.68257972598076" r="2" style="fill: steelblue;"></circle><circle cx="18.997135758399967" cy="64.67801537364721" r="2" style="fill: steelblue;"></circle><circle cx="9.863197058439258" cy="68.35197769105434" r="2" style="fill: steelblue;"></circle><circle cx="60.315450839698315" cy="31.076357886195183" r="2" style="fill: steelblue;"></circle><circle cx="17.775981873273853" cy="57.88709335029125" r="2" style="fill: steelblue;"></circle><circle cx="54.77242702618241" cy="69.14486475288868" r="2" style="fill: steelblue;"></circle></g></svg>