<svg xmlns="http://www.w3.org/2000/svg"><g><circle cx="13.737164603339302" cy="77.58044004440308" r="2" style="fill: steelblue;"></circle><circle cx="29.041718443234764" cy="83.08864310383797" r="2" style="fill: steelblue;"></circle><circle cx="26.864398850335018" cy="46.00776610895991" r="2" style="fill: steelblue;"></circle><circle cx="15.097528033786354" cy="70.68931795656681" r="2" style="fill: steelblue;"></circle><circle cx="55.52596118715074" cy="84.45808961987495" r="2" style="fill: steelblue;"></circle><circle cx="34.3084196249644" cy="54.58146771416068" r="2" style="fill: steelblue;"></circle><circle cx="57.842624021901024" cy="69.49357986450195" r="2" style="fill: steelblue;"></circle><circle cx="24.0946587589052" cy="94.94665190577507" r="2" style="fill: steelblue;"></circle><circle cx="32.875373297267494" cy="70.9305640310049" r="2" style="fill: steelblue;"></circle><circle cx="39.135338697168564" cy="74.44247715175152" r="2" style="fill: steelblue;"></circle><circle cx="35.422394838598045" cy="65.3768165037036" r="2" style="fill: steelblue;"></circle><circle cx="28.792643878195022" cy="38.41659352183342" r="2" style="fill: steelblue;"></circle><circle cx="19.919401407241825" cy="65.12030605226755" r="2" style="fill: steelblue;"></circle><circle cx="30.382942159970604" cy="45.166356675326824" r="2" style="fill: steelblue;"></circle><circle cx="20.75157662232717" cy="81.18217550218105" r="2" style="fill: steelblue;"></circle><circle cx="6.579729583528309" cy="69.89279501140118" r="2" style="fill: steelblue;"></circle><circle cx="51.499328845077095" cy="36.37231718748808" r="2" style="fill: steelblue;"></circle><circle cx="69.66452731026543" cy="61.53821311891079" r="2" style="fill: steelblue;"></circle><circle cx="50.58373651570744" cy="58.64052027463913" r="2" style="fill: steelblue;"></circle><circle cx="31.64910458856159" cy="20.359597355127335" r="2" style="fill: steelblue;"></circle><circle cx="26.380347874429493" cy="32.791079208254814" r="2" style="fill: steelblue;"></circle><circle cx="74.84930687480504" cy="58.91597289592028" r="2" style="fill: steelblue;"></circle><circle cx="48.12241320808729" cy="72.41372503340244" r="2" style="fill: steelblue;"></circle><circle cx="23.676931195788914" cy="71.6424223035574" r="2" style="fill: steelblue;"></circle><circle cx="22.672296563784283" cy="78.87346781790257" r="2" style="fill: steelblue;"></circle><circle cx="20.878613988558453" cy="91.88553616404533" r="2" style="fill: steelblue;"></circle><circle cx="8.281124300426908" cy="72.48559705913067" r="2" style="fill: steelblue;"></circle><circle cx="67.19178722964394" cy="47.213190887123346" r="2" style="fill: steelblue;"></circle><circle cx="25.646010372373794" cy="89.7484302520752" r="2" style="fill: steelblue;"></circle><circle cx="44.835993280220364" cy="52.43528978899121" r="2" style="fill: steelblue;"></circle><circle cx="81.35532273186577" cy="23.302213475108147" r="2" style="fill: steelblue;"></circle><circle cx="62.42644555038876" cy="11.006801575422287" r="2" style="fill: steelblue;"></circle><circle cx="75.21400451660156" cy="31.476308777928352" r="2" style="fill: steelblue;"></circle><circle cx="67.26404461595747" cy="30.441562831401825" r="2" style="fill: steelblue;"></circle><circle cx="71.00077072779337" cy="34.63447391986847" r="2" style="fill: steelblue;"></circle><circle cx="25.631410545772976" cy="24.934251978993416" r="2" style="fill: steelblue;"></circle><circle cx="37.38642086585363" cy="32.99491964280605" r="2" style="fill: steelblue;"></circle><circle cx="29.28127282195621" cy="56.68053422123194" r="2" style="fill: steelblue;"></circle><circle cx="42.96136808892091" cy="80.60822375118732" r="2" style="fill: steelblue;"></circle><circle cx="28.833711478445267" cy="80.88119998574257" r="2" style="fill: steelblue;"></circle><circle cx="8.285637696584068" cy="49.74232498789206" r="2" style="fill: steelblue;"></circle><circle cx="53.45311197969649" cy="67.09864102303982" r="2" style="fill: steelblue;"></circle><circle cx="66.46268169085184" cy="7.554027438163757" r="2" style="fill: steelblue;"></circle><circle cx="54.63364240196016" cy="38.13140857964754" r="2" style="fill: steelblue;"></circle><circle cx="59.4670765929752" cy="28.508522734045982" r="2" style="fill: steelblue;"></circle><circle cx="73.07959198951721" cy="56.97162002325058" r="2" style="fill: steelblue;"></circle><circle cx="53.71417701244354" cy="47.148556634783745" r="2" style="fill: steelblue;"></circle><circle cx="16.81542495886485" cy="17.317640781402588" r="2" style="fill: steelblue;"></circle><circle cx="15.320482518937856" cy="72.57445640861988" r="2" style="fill: steelblue;"></circle><circle cx="46.475014711419746" cy="69.04641464352608" r="2" style="fill: steelblue;"></circle><circle cx="44.87283358143436" cy="44.75247412919998" r="2" style="fill: steelblue;"></circle><circle cx="65.94526204797957" cy="42.96101462095976" r="2" style="fill: steelblue;"></circle><circle cx="21.778072913487755" cy="32.843879610300064" r="2" style="fill: steelblue;"></circle><circle cx="46.98230818741852" cy="23.06292876601219" r="2" style="fill: steelblue;"></circle><circle cx="30.326337615648907" cy="62.92975526303053" r="2" style="fill: steelblue;"></circle><circle cx="45.88091400348478" cy="92.39742457866669" r="2" style="fill: steelblue;"></circle><circle cx="34.9544561571545" cy="89.85398262739182" r="2" style="fill: steelblue;"></circle><circle cx="27.62181493971083" cy="43.62554680556059" r="2" style="fill: steelblue;"></circle><circle cx="58.7575313117769" cy="68.40764097869396" r="2" style="fill: steelblue;"></circle><circle cx="61.95719970597161" cy="59.48419887572527" r="2" style="fill: steelblue;"></circle><circle cx="18.45433248413934" cy="54.31725289672613" r="2" style="fill: steelblue;"></circle><circle cx="48.7930436929067" cy="16.80682897567749" r="2" style="fill: steelblue;"></circle><circle cx="43.317759885556164" cy="90.20705819129944" r="2" style="fill: steelblue;"></circle><circle cx="7.543016804589168" cy="77.548773214221" r="2" style="fill: steelblue;"></circle><circle cx="12.72809108098348" cy="46.211242163553834" r="2" style="fill: steelblue;"></circle><circle cx="3.200063440534806" cy="35.92085298150778" r="2" style="fill: steelblue;"></circle><circle cx="31.255784299638538" cy="53.46525595523417" r="2" style="fill: steelblue;"></circle><circle cx="9.50237380133735" cy="85.79817712306976" r="2" style="fill: steelblue;"></circle><circle cx="26.449732648001778" cy="91.18255153298378" r="2" style="fill: steelblue;"></circle><circle cx="55.61422738764021" cy="52.80070002190769" r="2" style="fill: steelblue;"></circle><circle cx="45.757033820781444" cy="77.89943479001522" r="2" style="fill: steelblue;"></circle><circle cx="71.54196931256187" cy="21.42530232667923" r="2" style="fill: steelblue;"></circle><circle cx="28.474058707555137" cy="39.25166390836239" r="2" style="fill: steelblue;"></circle><circle cx="38.4237022863494" cy="24.41021353006363" r="2" style="fill: steelblue;"></circle><circle cx="57.008596923616196" cy="32.722366228699684" r="2" style="fill: steelblue;"></circle><circle cx="82.15787609418234" cy="50.414537702454254" r="2" style="fill: steelblue;"></circle><circle cx="40.982234146859916" cy="24.423019215464592" r="2" style="fill: steelblue;"></circle><circle cx="73.24639227655199" cy="29.431448504328728" r="2" style="fill: steelblue;"></circle><circle cx="80.19097248713175" cy="44.70738787204027" r="2" style="fill: steelblue;"></circle><circle cx="83.10323887401157" cy="50.66879071528092" r="2" style="fill: steelblue;"></circle><circle cx="64.46915136443245" cy="52.9652351513505" r="2" style="fill: steelblue;"></circle><circle cx="69.75037952264151" cy="18.25386956334114" r="2" style="fill: steelblue;"></circle><circle cx="24.60028992758857" cy="30.532577261328697" r="2" style="fill: steelblue;"></circle><circle cx="47.98711728718546" cy="76.15582570433617" r="2" style="fill: steelblue;"></circle><circle cx="32.66705258025064" cy="86.41025349497795" r="2" style="fill: steelblue;"></circle><circle cx="68.08293792936537" cy="65.67558757960796" r="2" style="fill: steelblue;"></circle><circle cx="49.86593764689234" cy="65.21840691566467" r="2" style="fill: steelblue;"></circle><circle cx="26.2378066778183" cy="32.28994198143482" r="2" style="fill: steelblue;"></circle><circle cx="67.58792135450575" cy="66.55851118266582" r="2" style="fill: steelblue;"></circle><circle cx="43.62965603876445" cy="36.01116985082626" r="2" style="fill: steelblue;"></circle><circle cx="57.37438152233759" cy="30.06589151918888" r="2" style="fill: steelblue;"></circle><circle cx="56.757728424337174" cy="32.428908348083496" r="2" style="fill: steelblue;"></circle><circle cx="38.104916777875694" cy="33.923157677054405" r="2" style="fill: steelblue;"></circle><circle cx="57.06866433223089" cy="19.65048275887966" r="2" style="fill: steelblue;"></circle><circle cx="80.4056617948744" cy="27.018361911177635" r="2" style="fill: steelblue;"></circle><circle cx="66.7724503411187" cy="10.569661110639572" r="2" style="fill: steelblue;"></circle><circle cx="61.34249700440301" cy="14.79964628815651" r="2" style="fill: steelblue;"></circle><circle cx="25.821133785777622" cy="26.955857127904892" r="2" style="fill: steelblue;"></circle><circle cx="84.29558012220595" cy="42.898677475750446" r="2" style="fill: steelblue;"></circle><circle cx="89.65766694810655" cy="32.57138952612877" r="2" style="fill: steelblue;"></circle><circle cx="45.960660775502525" cy="9.10276472568512" r="2" style="fill: steelblue;"></circle><circle cx="68.03924275769127" cy="41.07368569821119" r="2" style="fill: steelblue;"></circle><circle cx="27.27115915881263" cy="25.58223269879818" r="2" style="fill: steelblue;"></circle><circle cx="90.05447824796042" cy="56.471555680036545" r="2" style="fill: steelblue;"></circle><circle cx="59.6111708217197" cy="55.433146841824055" r="2" style="fill: steelblue;"></circle><circle cx="59.63537361886766" cy="41.760740987956524" r="2" style="fill: steelblue;"></circle><circle cx="52.91566103696823" cy="44.224244728684425" r="2" style="fill: steelblue;"></circle><circle cx="40.52349651853244" cy="57.44088180363178" r="2" style="fill: steelblue;"></circle><circle cx="75.11585884624057" cy="39.222520031034946" r="2" style="fill: steelblue;"></circle><circle cx="89.44436179267036" cy="40.45582674443722" r="2" style="fill: steelblue;"></circle><circle cx="73.80035453372533" cy="18.831760808825493" r="2" style="fill: steelblue;"></circle><circle cx="48.128245770931244" cy="31.837155297398567" r="2" style="fill: steelblue;"></circle><circle cx="31.189869013097553" cy="53.50999762304127" r="2" style="fill: steelblue;"></circle><circle cx="60.54869890213013" cy="81.00286424160004" r="2" style="fill: steelblue;"></circle><circle cx="66.02105597654977" cy="90.13680294156075" r="2" style="fill: steelblue;"></circle><circle cx="25.289466977119446" cy="39.684549160301685" r="2" style="fill: steelblue;"></circle><circle cx="27.08434330092536" cy="82.22401812672615" r="2" style="fill: steelblue;"></circle><circle cx="46.659263844291374" cy="45.22757297381759" r="2" style="fill: steelblue;"></circle></g></svg>