<svg xmlns="http://www.w3.org/2000/svg"><g><circle cx="63.19132447242737" cy="171.08941078186035" r="2" style="fill: steelblue;"></circle><circle cx="28.72735924190945" cy="98.41158632189035" r="2" style="fill: steelblue;"></circle><circle cx="80.48377765549553" cy="133.45908522605896" r="2" style="fill: steelblue;"></circle><circle cx="127.49012642436557" cy="163.61541748046875" r="2" style="fill: steelblue;"></circle><circle cx="63.87167506747775" cy="130.31014502048492" r="2" style="fill: steelblue;"></circle><circle cx="71.52790493435329" cy="73.4727293252945" r="2" style="fill: steelblue;"></circle><circle cx="136.03514267338645" cy="150.07880926132202" r="2" style="fill: steelblue;"></circle><circle cx="106.06898698541853" cy="78.97876650094986" r="2" style="fill: steelblue;"></circle><circle cx="105.40198203590181" cy="131.97557032108307" r="2" style="fill: steelblue;"></circle><circle cx="143.30971903271146" cy="125.73042809963226" r="2" style="fill: steelblue;"></circle><circle cx="92.48416456911299" cy="82.86647945642471" r="2" style="fill: steelblue;"></circle><circle cx="130.00764118300543" cy="118.32903772592545" r="2" style="fill: steelblue;"></circle><circle cx="75.41743252012465" cy="97.79602810740471" r="2" style="fill: steelblue;"></circle><circle cx="55.7537575562795" cy="133.3869606256485" r="2" style="fill: steelblue;"></circle><circle cx="116.3941952917311" cy="115.87653458118439" r="2" style="fill: steelblue;"></circle><circle cx="162.5091897116767" cy="172.51995205879211" r="2" style="fill: steelblue;"></circle><circle cx="31.339870558844673" cy="111.43796443939209" r="2" style="fill: steelblue;"></circle><circle cx="46.55008183585273" cy="139.58609104156494" r="2" style="fill: steelblue;"></circle><circle cx="134.74399679236942" cy="71.71654999256134" r="2" style="fill: steelblue;"></circle><circle cx="106.0485475593143" cy="55.37520945072174" r="2" style="fill: steelblue;"></circle><circle cx="142.01847049925064" cy="67.66323745250702" r="2" style="fill: steelblue;"></circle><circle cx="97.83954256110721" cy="135.93954145908356" r="2" style="fill: steelblue;"></circle><circle cx="150.57207809554205" cy="124.0889623761177" r="2" style="fill: steelblue;"></circle><circle cx="97.27015925778282" cy="122.25751876831055" r="2" style="fill: steelblue;"></circle><circle cx="160.97938683297897" cy="166.37373566627502" r="2" style="fill: steelblue;"></circle><circle cx="105.85187127192815" cy="88.41552808880806" r="2" style="fill: steelblue;"></circle><circle cx="58.58344833056132" cy="133.6205691099167" r="2" style="fill: steelblue;"></circle><circle cx="107.21480225523312" cy="102.72349547594786" r="2" style="fill: steelblue;"></circle><circle cx="74.78154699007669" cy="163.9165997505188" r="2" style="fill: steelblue;"></circle><circle cx="75.29046800401476" cy="68.65485906600952" r="2" style="fill: steelblue;"></circle><circle cx="142.21538437737357" cy="78.31868976354599" r="2" style="fill: steelblue;"></circle><circle cx="124.11180386940639" cy="55.0493985414505" r="2" style="fill: steelblue;"></circle><circle cx="108.6942855682638" cy="53.867024183273315" r="2" style="fill: steelblue;"></circle><circle cx="94.1944205098682" cy="103.16104292869568" r="2" style="fill: steelblue;"></circle><circle cx="131.65846467018127" cy="87.97419220209122" r="2" style="fill: steelblue;"></circle><circle cx="64.41120968924629" cy="83.81071984767914" r="2" style="fill: steelblue;"></circle><circle cx="170.03337542215982" cy="118.2045727968216" r="2" style="fill: steelblue;"></circle><circle cx="94.65019736025069" cy="114.5183876156807" r="2" style="fill: steelblue;"></circle><circle cx="124.61971657143698" cy="147.46730029582977" r="2" style="fill: steelblue;"></circle><circle cx="140.17898837725323" cy="105.02730384469032" r="2" style="fill: steelblue;"></circle><circle cx="120.9079987472958" cy="55.09331226348877" r="2" style="fill: steelblue;"></circle><circle cx="175.63029130299884" cy="49.207282066345215" r="2" style="fill: steelblue;"></circle><circle cx="155.42392929395038" cy="87.82371059060097" r="2" style="fill: steelblue;"></circle><circle cx="119.4241593281428" cy="63.265252113342285" r="2" style="fill: steelblue;"></circle><circle cx="137.51912779278226" cy="88.51976916193962" r="2" style="fill: steelblue;"></circle><circle cx="146.3298300902049" cy="48.99115562438965" r="2" style="fill: steelblue;"></circle><circle cx="109.83694220582645" cy="136.675962805748" r="2" style="fill: steelblue;"></circle><circle cx="66.10418690575493" cy="161.70974373817444" r="2" style="fill: steelblue;"></circle><circle cx="84.50757629341548" cy="150.58635473251343" r="2" style="fill: steelblue;"></circle><circle cx="60.144993993971084" cy="158.89230966567993" r="2" style="fill: steelblue;"></circle><circle cx="86.36418481667836" cy="91.19183793663979" r="2" style="fill: steelblue;"></circle><circle cx="125.75771576828427" cy="160.03252863883972" r="2" style="fill: steelblue;"></circle><circle cx="123.49315153227911" cy="124.24072474241257" r="2" style="fill: steelblue;"></circle><circle cx="94.77911558416154" cy="109.79007929563522" r="2" style="fill: steelblue;"></circle><circle cx="174.39014381832547" cy="84.12666618824005" r="2" style="fill: steelblue;"></circle><circle cx="106.29954271846347" cy="135.30950248241425" r="2" style="fill: steelblue;"></circle><circle cx="97.54528022474712" cy="91.56844019889832" r="2" style="fill: steelblue;"></circle><circle cx="92.43384997049967" cy="126.13665461540222" r="2" style="fill: steelblue;"></circle><circle cx="40.871454609764946" cy="67.53689050674438" r="2" style="fill: steelblue;"></circle><circle cx="54.17719814512465" cy="123.65058213472366" r="2" style="fill: steelblue;"></circle><circle cx="58.014243841171265" cy="160.70910692214966" r="2" style="fill: steelblue;"></circle><circle cx="86.94362143675485" cy="148.41195046901703" r="2" style="fill: steelblue;"></circle><circle cx="99.46590330865648" cy="190.78068137168884" r="2" style="fill: steelblue;"></circle><circle cx="79.16985286606682" cy="184.9221646785736" r="2" style="fill: steelblue;"></circle><circle cx="18.4722277853224" cy="123.66619110107422" r="2" style="fill: steelblue;"></circle><circle cx="54.38892708884345" cy="150.05659461021423" r="2" style="fill: steelblue;"></circle><circle cx="66.89838568369547" cy="152.16482877731323" r="2" style="fill: steelblue;"></circle><circle cx="52.86859803729587" cy="79.099640250206" r="2" style="fill: steelblue;"></circle><circle cx="31.59247504340278" cy="165.21733403205872" r="2" style="fill: steelblue;"></circle><circle cx="66.23174415694344" cy="104.8441257327795" r="2" style="fill: steelblue;"></circle><circle cx="73.93127679824829" cy="170.7131803035736" r="2" style="fill: steelblue;"></circle><circle cx="165.24796353446112" cy="71.2172657251358" r="2" style="fill: steelblue;"></circle><circle cx="67.52972139252556" cy="77.76304930448532" r="2" style="fill: steelblue;"></circle><circle cx="150.8774757385254" cy="45.94380259513855" r="2" style="fill: steelblue;"></circle><circle cx="118.45831904146407" cy="93.88288222253323" r="2" style="fill: steelblue;"></circle><circle cx="90.35150541199577" cy="108.20633694529533" r="2" style="fill: steelblue;"></circle><circle cx="80.78191015455458" cy="54.24767732620239" r="2" style="fill: steelblue;"></circle><circle cx="66.72469112608168" cy="92.44644939899445" r="2" style="fill: steelblue;"></circle><circle cx="136.81645856963263" cy="104.06255386769772" r="2" style="fill: steelblue;"></circle><circle cx="111.00037399834643" cy="70.72998285293579" r="2" style="fill: steelblue;"></circle><circle cx="158.99111496077643" cy="50.651371479034424" r="2" style="fill: steelblue;"></circle><circle cx="192.87463691499497" cy="15.509074926376343" r="2" style="fill: steelblue;"></circle><circle cx="110.67151588698228" cy="86.77061945199966" r="2" style="fill: steelblue;"></circle><circle cx="92.15589529938167" cy="118.92853081226349" r="2" style="fill: steelblue;"></circle><circle cx="101.5180241730478" cy="131.7878246307373" r="2" style="fill: steelblue;"></circle><circle cx="99.2157550321685" cy="117.03111529350281" r="2" style="fill: steelblue;"></circle><circle cx="91.38024515575832" cy="105.48635385930538" r="2" style="fill: steelblue;"></circle><circle cx="72.10302684042189" cy="67.18008816242218" r="2" style="fill: steelblue;"></circle><circle cx="136.54062648614246" cy="86.53929680585861" r="2" style="fill: steelblue;"></circle><circle cx="129.87774113814038" cy="81.25244379043579" r="2" style="fill: steelblue;"></circle><circle cx="86.75133850839403" cy="89.35739696025848" r="2" style="fill: steelblue;"></circle><circle cx="124.70290809869766" cy="72.41105139255524" r="2" style="fill: steelblue;"></circle><circle cx="142.57890317175125" cy="100.61648897826672" r="2" style="fill: steelblue;"></circle><circle cx="161.67441341612076" cy="95.33942863345146" r="2" style="fill: steelblue;"></circle><circle cx="153.41218312581378" cy="88.81506025791168" r="2" style="fill: steelblue;"></circle><circle cx="95.89262472258675" cy="82.0551261305809" r="2" style="fill: steelblue;"></circle><circle cx="198.34003183576797" cy="77.85075604915619" r="2" style="fill: steelblue;"></circle><circle cx="94.68218353059557" cy="130.57724237442017" r="2" style="fill: steelblue;"></circle><circle cx="146.33404546313815" cy="62.945279479026794" r="2" style="fill: steelblue;"></circle><circle cx="47.25017150243123" cy="68.63447725772858" r="2" style="fill: steelblue;"></circle><circle cx="93.45236586199867" cy="100.0936537689995" r="2" style="fill: steelblue;"></circle><circle cx="93.34372480710347" cy="86.15384697914124" r="2" style="fill: steelblue;"></circle><circle cx="145.71960435973273" cy="67.18812584877014" r="2" style="fill: steelblue;"></circle><circle cx="154.28586800893146" cy="28.777778148651123" r="2" style="fill: steelblue;"></circle><circle cx="29.269225067562527" cy="40.593421459198" r="2" style="fill: steelblue;"></circle><circle cx="162.45145267910428" cy="52.72029638290405" r="2" style="fill: steelblue;"></circle><circle cx="113.25376149680879" cy="54.90163862705231" r="2" style="fill: steelblue;"></circle><circle cx="126.14267071088155" cy="70.38318514823914" r="2" style="fill: steelblue;"></circle><circle cx="124.2424812581804" cy="82.23926275968552" r="2" style="fill: steelblue;"></circle><circle cx="176.0740147696601" cy="116.63712710142136" r="2" style="fill: steelblue;"></circle><circle cx="77.23393042882283" cy="58.62011909484863" r="2" style="fill: steelblue;"></circle><circle cx="114.04272582795885" cy="93.79907250404358" r="2" style="fill: steelblue;"></circle><circle cx="72.65294260448879" cy="159.14881825447083" r="2" style="fill: steelblue;"></circle><circle cx="45.327272680070664" cy="84.74634736776352" r="2" style="fill: steelblue;"></circle><circle cx="44.477833641899956" cy="132.82387852668762" r="2" style="fill: steelblue;"></circle><circle cx="57.441274325052895" cy="119.56609040498734" r="2" style="fill: steelblue;"></circle><circle cx="71.8877911567688" cy="145.77488899230957" r="2" style="fill: steelblue;"></circle><circle cx="79.65523997942606" cy="93.19362044334412" r="2" style="fill: steelblue;"></circle></g></svg>