<svg xmlns="http://www.w3.org/2000/svg"><rect width="200" height="200" fill="white"></rect><g><circle cx="63.37380409240723" cy="101.05227646417916" r="2" style="fill: steelblue;"></circle><circle cx="101.97819355461333" cy="109.38380509614944" r="2" style="fill: steelblue;"></circle><circle cx="35.46861145231458" cy="116.64752513170242" r="2" style="fill: steelblue;"></circle><circle cx="77.17850473192003" cy="124.04522337019444" r="2" style="fill: steelblue;"></circle><circle cx="130.58418035507202" cy="148.82345348596573" r="2" style="fill: steelblue;"></circle><circle cx="89.08347288767496" cy="106.26224838197231" r="2" style="fill: steelblue;"></circle><circle cx="70.54642505115932" cy="121.0596639662981" r="2" style="fill: steelblue;"></circle><circle cx="103.20724464125104" cy="109.13601368665695" r="2" style="fill: steelblue;"></circle><circle cx="106.26068380143907" cy="149.0792952477932" r="2" style="fill: steelblue;"></circle><circle cx="87.56491045157114" cy="105.32843824476004" r="2" style="fill: steelblue;"></circle><circle cx="69.74557042121887" cy="71.94705344736576" r="2" style="fill: steelblue;"></circle><circle cx="138.4705321656333" cy="136.15142032504082" r="2" style="fill: steelblue;"></circle><circle cx="49.947427378760445" cy="154.24632132053375" r="2" style="fill: steelblue;"></circle><circle cx="133.90282955434586" cy="163.18000704050064" r="2" style="fill: steelblue;"></circle><circle cx="82.5190544128418" cy="121.64571546018124" r="2" style="fill: steelblue;"></circle><circle cx="98.59930309984419" cy="184.54257994890213" r="2" style="fill: steelblue;"></circle><circle cx="78.87136936187744" cy="138.2777415215969" r="2" style="fill: steelblue;"></circle><circle cx="98.69218203756544" cy="98.44321084674448" r="2" style="fill: steelblue;"></circle><circle cx="127.27078133159213" cy="123.4603751450777" r="2" style="fill: steelblue;"></circle><circle cx="96.76194853252834" cy="80.38996383547783" r="2" style="fill: steelblue;"></circle><circle cx="139.01847932073807" cy="42.684683948755264" r="2" style="fill: steelblue;"></circle><circle cx="141.52125517527264" cy="62.17051520943642" r="2" style="fill: steelblue;"></circle><circle cx="165.41108820173477" cy="176.08551532030106" r="2" style="fill: steelblue;"></circle><circle cx="99.60866305563185" cy="94.31450571864843" r="2" style="fill: steelblue;"></circle><circle cx="71.82554735077751" cy="144.0410003066063" r="2" style="fill: steelblue;"></circle><circle cx="85.96608539422353" cy="131.5096192061901" r="2" style="fill: steelblue;"></circle><circle cx="47.24259508980645" cy="148.40687662363052" r="2" style="fill: steelblue;"></circle><circle cx="38.5905106862386" cy="112.6907266676426" r="2" style="fill: steelblue;"></circle><circle cx="36.837690406375465" cy="165.6997561454773" r="2" style="fill: steelblue;"></circle><circle cx="105.06970228420363" cy="130.01576848328114" r="2" style="fill: steelblue;"></circle><circle cx="161.4244282245636" cy="103.95849766209722" r="2" style="fill: steelblue;"></circle><circle cx="177.2859493891398" cy="79.33616116642952" r="2" style="fill: steelblue;"></circle><circle cx="179.6326968404982" cy="12.170886993408203" r="2" style="fill: steelblue;"></circle><circle cx="150.5309608247545" cy="115.18828421831131" r="2" style="fill: steelblue;"></circle><circle cx="113.31657237476773" cy="85.65844632685184" r="2" style="fill: steelblue;"></circle><circle cx="138.87787196371292" cy="38.608381897211075" r="2" style="fill: steelblue;"></circle><circle cx="68.15044747458565" cy="92.87491105496883" r="2" style="fill: steelblue;"></circle><circle cx="92.0835236708323" cy="29.0681853890419" r="2" style="fill: steelblue;"></circle><circle cx="113.27192414965894" cy="144.93523761630058" r="2" style="fill: steelblue;"></circle><circle cx="57.714925871955025" cy="151.44771188497543" r="2" style="fill: steelblue;"></circle><circle cx="82.19214611583286" cy="82.23884403705597" r="2" style="fill: steelblue;"></circle><circle cx="86.24335130055745" cy="140.4069870710373" r="2" style="fill: steelblue;"></circle><circle cx="198.38217231962417" cy="32.153940200805664" r="2" style="fill: steelblue;"></circle><circle cx="111.60982477789123" cy="85.53031403571367" r="2" style="fill: steelblue;"></circle><circle cx="93.97311177518633" cy="60.36006882786751" r="2" style="fill: steelblue;"></circle><circle cx="164.55740067693924" cy="45.76074182987213" r="2" style="fill: steelblue;"></circle><circle cx="114.68672752380371" cy="86.83499079197645" r="2" style="fill: steelblue;"></circle><circle cx="144.41310034857855" cy="35.31990051269531" r="2" style="fill: steelblue;"></circle><circle cx="88.22028670046065" cy="144.64765638113022" r="2" style="fill: steelblue;"></circle><circle cx="146.58500750859577" cy="181.14858716726303" r="2" style="fill: steelblue;"></circle><circle cx="98.51133409473631" cy="186.35391294956207" r="2" style="fill: steelblue;"></circle><circle cx="121.55955284833908" cy="138.14688324928284" r="2" style="fill: steelblue;"></circle><circle cx="159.54539510938858" cy="85.27739383280277" r="2" style="fill: steelblue;"></circle><circle cx="141.43763317002188" cy="32.833172380924225" r="2" style="fill: steelblue;"></circle><circle cx="96.21118340227339" cy="101.60842260811478" r="2" style="fill: steelblue;"></circle><circle cx="42.80696312586466" cy="126.39386244118214" r="2" style="fill: steelblue;"></circle><circle cx="103.48529203070534" cy="122.61733263731003" r="2" style="fill: steelblue;"></circle><circle cx="95.44894264803993" cy="122.10870571434498" r="2" style="fill: steelblue;"></circle><circle cx="86.0323343012068" cy="100.69879757938907" r="2" style="fill: steelblue;"></circle><circle cx="107.60935271779697" cy="156.99114874005318" r="2" style="fill: steelblue;"></circle><circle cx="85.8132673634423" cy="131.76014497876167" r="2" style="fill: steelblue;"></circle><circle cx="64.81679280598959" cy="169.49471682310104" r="2" style="fill: steelblue;"></circle><circle cx="90.54885142379337" cy="145.0628623366356" r="2" style="fill: steelblue;"></circle><circle cx="69.59437330563864" cy="144.18356716632843" r="2" style="fill: steelblue;"></circle><circle cx="44.796698623233375" cy="182.41596817970276" r="2" style="fill: steelblue;"></circle><circle cx="109.6923112248381" cy="149.9672293663025" r="2" style="fill: steelblue;"></circle><circle cx="76.99878679381477" cy="106.03020377457142" r="2" style="fill: steelblue;"></circle><circle cx="18.072538905673557" cy="168.15772503614426" r="2" style="fill: steelblue;"></circle><circle cx="59.98640590243869" cy="131.7717120051384" r="2" style="fill: steelblue;"></circle><circle cx="56.945814026726616" cy="171.76002860069275" r="2" style="fill: steelblue;"></circle><circle cx="127.75375445683797" cy="117.46274530887604" r="2" style="fill: steelblue;"></circle><circle cx="133.8353355725606" cy="81.25572316348553" r="2" style="fill: steelblue;"></circle><circle cx="95.07047798898485" cy="59.902167320251465" r="2" style="fill: steelblue;"></circle><circle cx="99.83774936861461" cy="29.32692915201187" r="2" style="fill: steelblue;"></circle><circle cx="157.97169340981375" cy="63.23460340499878" r="2" style="fill: steelblue;"></circle><circle cx="175.33655961354572" cy="62.361570447683334" r="2" style="fill: steelblue;"></circle><circle cx="134.15431645181442" cy="16.506320238113403" r="2" style="fill: steelblue;"></circle><circle cx="143.7655786673228" cy="54.80884611606598" r="2" style="fill: steelblue;"></circle><circle cx="165.70358475049335" cy="92.34962649643421" r="2" style="fill: steelblue;"></circle><circle cx="130.91348277197943" cy="16.211828589439392" r="2" style="fill: steelblue;"></circle><circle cx="166.99381007088553" cy="39.130205661058426" r="2" style="fill: steelblue;"></circle><circle cx="151.28863520092435" cy="43.212077021598816" r="2" style="fill: steelblue;"></circle><circle cx="163.54272100660538" cy="32.382166385650635" r="2" style="fill: steelblue;"></circle><circle cx="80.90473545922173" cy="125.38693509995937" r="2" style="fill: steelblue;"></circle><circle cx="68.68884960810342" cy="131.14950843155384" r="2" style="fill: steelblue;"></circle><circle cx="90.25743769274818" cy="157.06888064742088" r="2" style="fill: steelblue;"></circle><circle cx="103.703406949838" cy="52.28967070579529" r="2" style="fill: steelblue;"></circle><circle cx="139.01905881034003" cy="172.20441848039627" r="2" style="fill: steelblue;"></circle><circle cx="88.55799006091225" cy="153.35291102528572" r="2" style="fill: steelblue;"></circle><circle cx="143.3236499627431" cy="15.708027780056" r="2" style="fill: steelblue;"></circle><circle cx="147.2998195224338" cy="60.639044642448425" r="2" style="fill: steelblue;"></circle><circle cx="166.4225591553582" cy="58.56570079922676" r="2" style="fill: steelblue;"></circle><circle cx="155.9659010834164" cy="13.288235664367676" r="2" style="fill: steelblue;"></circle><circle cx="185.54112646314834" cy="57.47174695134163" r="2" style="fill: steelblue;"></circle><circle cx="108.43329835269186" cy="102.90407869033515" r="2" style="fill: steelblue;"></circle><circle cx="195.4117284880744" cy="46.15011289715767" r="2" style="fill: steelblue;"></circle><circle cx="198.04275698131985" cy="74.97385926544666" r="2" style="fill: steelblue;"></circle><circle cx="115.90150867899258" cy="99.93009493482532" r="2" style="fill: steelblue;"></circle><circle cx="131.72496855258942" cy="56.3211128115654" r="2" style="fill: steelblue;"></circle><circle cx="159.9457495742374" cy="163.19426000118256" r="2" style="fill: steelblue;"></circle><circle cx="164.28583529260422" cy="95.51546340808272" r="2" style="fill: steelblue;"></circle><circle cx="97.93304569191402" cy="97.40155227482319" r="2" style="fill: steelblue;"></circle><circle cx="112.62795339441962" cy="86.91847920417786" r="2" style="fill: steelblue;"></circle><circle cx="144.1684067249298" cy="66.2940502166748" r="2" style="fill: steelblue;"></circle><circle cx="64.15002875857883" cy="27.13458091020584" r="2" style="fill: steelblue;"></circle><circle cx="66.94664557774863" cy="17.008765041828156" r="2" style="fill: steelblue;"></circle><circle cx="161.2042486667633" cy="73.83430600166321" r="2" style="fill: steelblue;"></circle><circle cx="94.55517927805582" cy="82.74054564535618" r="2" style="fill: steelblue;"></circle><circle cx="126.64359145694308" cy="136.32725775241852" r="2" style="fill: steelblue;"></circle><circle cx="164.77129525608487" cy="32.249024510383606" r="2" style="fill: steelblue;"></circle><circle cx="159.2626737223731" cy="91.52819253504276" r="2" style="fill: steelblue;"></circle><circle cx="182.71969424353705" cy="71.9985369592905" r="2" style="fill: steelblue;"></circle><circle cx="109.44606746650405" cy="55.93526214361191" r="2" style="fill: steelblue;"></circle><circle cx="94.050708744261" cy="154.5889511704445" r="2" style="fill: steelblue;"></circle><circle cx="75.30985938178169" cy="127.29988284409046" r="2" style="fill: steelblue;"></circle><circle cx="85.43363875812953" cy="158.48445370793343" r="2" style="fill: steelblue;"></circle><circle cx="64.42280610402426" cy="135.96214205026627" r="2" style="fill: steelblue;"></circle><circle cx="84.8927597204844" cy="111.92104537039995" r="2" style="fill: steelblue;"></circle></g></svg>