<svg xmlns="http://www.w3.org/2000/svg"><g><circle cx="12.506297975778583" cy="85.22962033748627" r="2" style="fill: steelblue;"></circle><circle cx="54.211719147861004" cy="69.65021193027496" r="2" style="fill: steelblue;"></circle><circle cx="49.251054134219885" cy="40.297601372003555" r="2" style="fill: steelblue;"></circle><circle cx="3.3258862793445614" cy="58.94540250301361" r="2" style="fill: steelblue;"></circle><circle cx="2.3371122777462032" cy="43.61971691250801" r="2" style="fill: steelblue;"></circle><circle cx="3.134503215551379" cy="82.94804990291595" r="2" style="fill: steelblue;"></circle><circle cx="30.370938777923584" cy="50.227817799896" r="2" style="fill: steelblue;"></circle><circle cx="40.09354971349239" cy="42.075514048337936" r="2" style="fill: steelblue;"></circle><circle cx="41.72587040811777" cy="65.29235392808914" r="2" style="fill: steelblue;"></circle><circle cx="41.93963408470154" cy="65.40000438690186" r="2" style="fill: steelblue;"></circle><circle cx="44.30924421176314" cy="62.12859004735947" r="2" style="fill: steelblue;"></circle><circle cx="39.34716172516346" cy="54.45307120680809" r="2" style="fill: steelblue;"></circle><circle cx="33.54032076895237" cy="54.85268197953701" r="2" style="fill: steelblue;"></circle><circle cx="46.77052814513445" cy="76.66191458702087" r="2" style="fill: steelblue;"></circle><circle cx="30.29664158821106" cy="45.58213911950588" r="2" style="fill: steelblue;"></circle><circle cx="45.102353394031525" cy="85.23418009281158" r="2" style="fill: steelblue;"></circle><circle cx="53.397269174456596" cy="73.18859249353409" r="2" style="fill: steelblue;"></circle><circle cx="33.35198312997818" cy="32.70573318004608" r="2" style="fill: steelblue;"></circle><circle cx="22.55334258079529" cy="49.44905894808471" r="2" style="fill: steelblue;"></circle><circle cx="47.48712847940624" cy="21.0869163274765" r="2" style="fill: steelblue;"></circle><circle cx="31.2613595277071" cy="50.33416957594454" r="2" style="fill: steelblue;"></circle><circle cx="72.04125933349133" cy="45.443474501371384" r="2" style="fill: steelblue;"></circle><circle cx="36.17149889469147" cy="40.161073952913284" r="2" style="fill: steelblue;"></circle><circle cx="24.343340843915943" cy="71.49991691112518" r="2" style="fill: steelblue;"></circle><circle cx="25.3968957811594" cy="38.67831155657768" r="2" style="fill: steelblue;"></circle><circle cx="65.2311148121953" cy="69.91949826478958" r="2" style="fill: steelblue;"></circle><circle cx="29.36352714896202" cy="60.380224883556366" r="2" style="fill: steelblue;"></circle><circle cx="39.23750687390566" cy="60.323380678892136" r="2" style="fill: steelblue;"></circle><circle cx="69.11037415266037" cy="76.21188163757324" r="2" style="fill: steelblue;"></circle><circle cx="72.35288359224796" cy="45.6194881349802" r="2" style="fill: steelblue;"></circle><circle cx="58.10220371931791" cy="27.45865285396576" r="2" style="fill: steelblue;"></circle><circle cx="79.9496240913868" cy="28.497126698493958" r="2" style="fill: steelblue;"></circle><circle cx="56.93367002531886" cy="18.626883625984192" r="2" style="fill: steelblue;"></circle><circle cx="51.22227764222771" cy="52.55057066679001" r="2" style="fill: steelblue;"></circle><circle cx="46.48898211307824" cy="44.90026421844959" r="2" style="fill: steelblue;"></circle><circle cx="47.80268012546003" cy="58.06629881262779" r="2" style="fill: steelblue;"></circle><circle cx="45.59130426496267" cy="49.04635343700647" r="2" style="fill: steelblue;"></circle><circle cx="27.552495896816254" cy="67.58857518434525" r="2" style="fill: steelblue;"></circle><circle cx="13.159877806901935" cy="80.46195805072784" r="2" style="fill: steelblue;"></circle><circle cx="15.93611687421799" cy="78.87359857559204" r="2" style="fill: steelblue;"></circle><circle cx="28.384004905819893" cy="90.5431479215622" r="2" style="fill: steelblue;"></circle><circle cx="91.66161641478539" cy="34.844549000263214" r="2" style="fill: steelblue;"></circle><circle cx="37.327080219984055" cy="76.0861337184906" r="2" style="fill: steelblue;"></circle><circle cx="44.709907565265894" cy="37.49697655439377" r="2" style="fill: steelblue;"></circle><circle cx="60.05272660404444" cy="31.808841228485107" r="2" style="fill: steelblue;"></circle><circle cx="66.20779931545258" cy="36.215391755104065" r="2" style="fill: steelblue;"></circle><circle cx="73.080475628376" cy="24.133053421974182" r="2" style="fill: steelblue;"></circle><circle cx="23.558718338608745" cy="72.68447577953339" r="2" style="fill: steelblue;"></circle><circle cx="71.6514840722084" cy="73.41469824314117" r="2" style="fill: steelblue;"></circle><circle cx="73.88627640902996" cy="65.50005972385406" r="2" style="fill: steelblue;"></circle><circle cx="59.84502863138914" cy="41.541529446840286" r="2" style="fill: steelblue;"></circle><circle cx="41.408584639430046" cy="26.831425726413727" r="2" style="fill: steelblue;"></circle><circle cx="35.64415704458952" cy="36.96146458387375" r="2" style="fill: steelblue;"></circle><circle cx="67.99377985298634" cy="62.247513234615326" r="2" style="fill: steelblue;"></circle><circle cx="19.533497467637066" cy="52.41571944206953" r="2" style="fill: steelblue;"></circle><circle cx="23.116071894764904" cy="45.14009319245815" r="2" style="fill: steelblue;"></circle><circle cx="79.08934839069843" cy="46.848247945308685" r="2" style="fill: steelblue;"></circle><circle cx="50.507621094584465" cy="72.97789454460144" r="2" style="fill: steelblue;"></circle><circle cx="37.939104437828064" cy="55.58205507695675" r="2" style="fill: steelblue;"></circle><circle cx="57.65809090808034" cy="61.47458031773567" r="2" style="fill: steelblue;"></circle><circle cx="46.44453846849501" cy="42.98383668065071" r="2" style="fill: steelblue;"></circle><circle cx="28.34308072924614" cy="57.97855854034424" r="2" style="fill: steelblue;"></circle><circle cx="43.71366295963526" cy="83.66304337978363" r="2" style="fill: steelblue;"></circle><circle cx="15.600613504648212" cy="84.02851223945618" r="2" style="fill: steelblue;"></circle><circle cx="52.7080534491688" cy="68.50235611200333" r="2" style="fill: steelblue;"></circle><circle cx="18.751179054379467" cy="59.490715712308884" r="2" style="fill: steelblue;"></circle><circle cx="18.846881762146953" cy="73.57389479875565" r="2" style="fill: steelblue;"></circle><circle cx="21.071371808648113" cy="59.491825103759766" r="2" style="fill: steelblue;"></circle><circle cx="47.5923968013376" cy="80.78971803188324" r="2" style="fill: steelblue;"></circle><circle cx="22.60013595223427" cy="65.05100578069687" r="2" style="fill: steelblue;"></circle><circle cx="25.170321762561798" cy="79.56787943840027" r="2" style="fill: steelblue;"></circle><circle cx="67.38291792571545" cy="47.417364828288555" r="2" style="fill: steelblue;"></circle><circle cx="73.43706041574478" cy="41.449400037527084" r="2" style="fill: steelblue;"></circle><circle cx="33.786558732390404" cy="27.729453146457672" r="2" style="fill: steelblue;"></circle><circle cx="53.14490939490497" cy="33.9666411280632" r="2" style="fill: steelblue;"></circle><circle cx="47.23415914922953" cy="65.6613439321518" r="2" style="fill: steelblue;"></circle><circle cx="65.61640109866858" cy="35.89577674865723" r="2" style="fill: steelblue;"></circle><circle cx="35.08038092404604" cy="30.695322155952454" r="2" style="fill: steelblue;"></circle><circle cx="69.29602026939392" cy="31.495220959186554" r="2" style="fill: steelblue;"></circle><circle cx="71.52719721198082" cy="22.804531455039978" r="2" style="fill: steelblue;"></circle><circle cx="52.63250223360956" cy="16.63714349269867" r="2" style="fill: steelblue;"></circle><circle cx="89.28244858980179" cy="20.806360244750977" r="2" style="fill: steelblue;"></circle><circle cx="52.15144641697407" cy="48.55520725250244" r="2" style="fill: steelblue;"></circle><circle cx="53.393905935809016" cy="60.83305776119232" r="2" style="fill: steelblue;"></circle><circle cx="42.38028470426798" cy="64.8634135723114" r="2" style="fill: steelblue;"></circle><circle cx="42.48291179537773" cy="48.341529816389084" r="2" style="fill: steelblue;"></circle><circle cx="45.537593960762024" cy="56.60919025540352" r="2" style="fill: steelblue;"></circle><circle cx="40.96005316823721" cy="65.46377837657928" r="2" style="fill: steelblue;"></circle><circle cx="48.5950292320922" cy="69.44506764411926" r="2" style="fill: steelblue;"></circle><circle cx="52.077351324260235" cy="32.006411254405975" r="2" style="fill: steelblue;"></circle><circle cx="83.34102034568787" cy="38.42131048440933" r="2" style="fill: steelblue;"></circle><circle cx="59.49105527251959" cy="8.010086417198181" r="2" style="fill: steelblue;"></circle><circle cx="60.080499574542046" cy="14.291295409202576" r="2" style="fill: steelblue;"></circle><circle cx="67.21109077334404" cy="40.95977544784546" r="2" style="fill: steelblue;"></circle><circle cx="47.672228841111064" cy="40.24284482002258" r="2" style="fill: steelblue;"></circle><circle cx="84.10917147994041" cy="45.778704434633255" r="2" style="fill: steelblue;"></circle><circle cx="79.50792573392391" cy="24.662089347839355" r="2" style="fill: steelblue;"></circle><circle cx="79.7713354229927" cy="19.587966799736023" r="2" style="fill: steelblue;"></circle><circle cx="54.116468131542206" cy="39.13026452064514" r="2" style="fill: steelblue;"></circle><circle cx="50.39463525172323" cy="44.246287643909454" r="2" style="fill: steelblue;"></circle><circle cx="73.6346535384655" cy="47.7094741538167" r="2" style="fill: steelblue;"></circle><circle cx="62.03829329460859" cy="59.134991466999054" r="2" style="fill: steelblue;"></circle><circle cx="71.5530302375555" cy="44.33553330600262" r="2" style="fill: steelblue;"></circle><circle cx="64.45778924971819" cy="13.40453326702118" r="2" style="fill: steelblue;"></circle><circle cx="70.34419029951096" cy="62.977246940135956" r="2" style="fill: steelblue;"></circle><circle cx="36.719170585274696" cy="32.31741487979889" r="2" style="fill: steelblue;"></circle><circle cx="62.2804855927825" cy="27.987775206565857" r="2" style="fill: steelblue;"></circle><circle cx="70.80280892550945" cy="22.203490138053894" r="2" style="fill: steelblue;"></circle><circle cx="86.70082986354828" cy="35.1631224155426" r="2" style="fill: steelblue;"></circle><circle cx="49.93296808679588" cy="40.932903438806534" r="2" style="fill: steelblue;"></circle><circle cx="92.31419041752815" cy="17.92270839214325" r="2" style="fill: steelblue;"></circle><circle cx="41.35925155133009" cy="64.08874988555908" r="2" style="fill: steelblue;"></circle><circle cx="14.848693460226063" cy="71.4846283197403" r="2" style="fill: steelblue;"></circle><circle cx="23.750477656722072" cy="68.58990639448166" r="2" style="fill: steelblue;"></circle><circle cx="39.005557261407375" cy="48.41709677129984" r="2" style="fill: steelblue;"></circle><circle cx="21.993580460548404" cy="34.94579643011093" r="2" style="fill: steelblue;"></circle><circle cx="18.174573034048084" cy="39.959315955638885" r="2" style="fill: steelblue;"></circle><circle cx="16.740831732749943" cy="74.95414018630981" r="2" style="fill: steelblue;"></circle></g></svg>