<svg xmlns="http://www.w3.org/2000/svg"><g><circle cx="27.710186110602486" cy="85.22962033748627" r="2" style="fill: steelblue;"></circle><circle cx="29.15951775179969" cy="69.65021193027496" r="2" style="fill: steelblue;"></circle><circle cx="77.62227290206485" cy="40.297601372003555" r="2" style="fill: steelblue;"></circle><circle cx="54.8153204532961" cy="58.94540250301361" r="2" style="fill: steelblue;"></circle><circle cx="34.7499003012975" cy="43.61971691250801" r="2" style="fill: steelblue;"></circle><circle cx="47.45623386568493" cy="82.94804990291595" r="2" style="fill: steelblue;"></circle><circle cx="32.042288117938575" cy="50.227817799896" r="2" style="fill: steelblue;"></circle><circle cx="45.844193134042946" cy="42.075514048337936" r="2" style="fill: steelblue;"></circle><circle cx="42.7780763970481" cy="65.29235392808914" r="2" style="fill: steelblue;"></circle><circle cx="58.548781813846695" cy="65.40000438690186" r="2" style="fill: steelblue;"></circle><circle cx="32.99485974841648" cy="62.12859004735947" r="2" style="fill: steelblue;"></circle><circle cx="78.46622831291621" cy="54.45307120680809" r="2" style="fill: steelblue;"></circle><circle cx="33.77832141187456" cy="54.85268197953701" r="2" style="fill: steelblue;"></circle><circle cx="21.878735886679753" cy="76.66191458702087" r="2" style="fill: steelblue;"></circle><circle cx="52.68156445688671" cy="45.58213911950588" r="2" style="fill: steelblue;"></circle><circle cx="49.51535248094135" cy="85.23418009281158" r="2" style="fill: steelblue;"></circle><circle cx="53.19747784071498" cy="73.18859249353409" r="2" style="fill: steelblue;"></circle><circle cx="72.46433032883537" cy="32.70573318004608" r="2" style="fill: steelblue;"></circle><circle cx="86.00637316703796" cy="49.44905894808471" r="2" style="fill: steelblue;"></circle><circle cx="79.97299234072366" cy="21.0869163274765" r="2" style="fill: steelblue;"></circle><circle cx="42.328499257564545" cy="50.33416957594454" r="2" style="fill: steelblue;"></circle><circle cx="82.76629447937012" cy="45.443474501371384" r="2" style="fill: steelblue;"></circle><circle cx="22.55104316605462" cy="40.161073952913284" r="2" style="fill: steelblue;"></circle><circle cx="40.668588545587326" cy="71.49991691112518" r="2" style="fill: steelblue;"></circle><circle cx="49.89111257923974" cy="38.67831155657768" r="2" style="fill: steelblue;"></circle><circle cx="58.23770848413309" cy="69.91949826478958" r="2" style="fill: steelblue;"></circle><circle cx="58.47134648097886" cy="60.380224883556366" r="2" style="fill: steelblue;"></circle><circle cx="31.00249336825477" cy="60.323380678892136" r="2" style="fill: steelblue;"></circle><circle cx="32.945288552178276" cy="76.21188163757324" r="2" style="fill: steelblue;"></circle><circle cx="51.497826973597206" cy="45.6194881349802" r="2" style="fill: steelblue;"></circle><circle cx="81.44056962596046" cy="27.45865285396576" r="2" style="fill: steelblue;"></circle><circle cx="83.3243578672409" cy="28.497126698493958" r="2" style="fill: steelblue;"></circle><circle cx="57.25776093701521" cy="18.626883625984192" r="2" style="fill: steelblue;"></circle><circle cx="57.97164473268721" cy="52.55057066679001" r="2" style="fill: steelblue;"></circle><circle cx="64.50184517436557" cy="44.90026421844959" r="2" style="fill: steelblue;"></circle><circle cx="44.76619097921583" cy="58.06629881262779" r="2" style="fill: steelblue;"></circle><circle cx="25.41986438963148" cy="49.04635343700647" r="2" style="fill: steelblue;"></circle><circle cx="25.464716884824963" cy="67.58857518434525" r="2" style="fill: steelblue;"></circle><circle cx="22.400240103403725" cy="80.46195805072784" r="2" style="fill: steelblue;"></circle><circle cx="33.809199929237366" cy="78.87359857559204" r="2" style="fill: steelblue;"></circle><circle cx="42.40550845861435" cy="90.5431479215622" r="2" style="fill: steelblue;"></circle><circle cx="88.70503306388855" cy="34.844549000263214" r="2" style="fill: steelblue;"></circle><circle cx="46.164607836140526" cy="76.0861337184906" r="2" style="fill: steelblue;"></circle><circle cx="65.46692964103487" cy="37.49697655439377" r="2" style="fill: steelblue;"></circle><circle cx="81.03873332341512" cy="31.808841228485107" r="2" style="fill: steelblue;"></circle><circle cx="57.04812126027213" cy="36.215391755104065" r="2" style="fill: steelblue;"></circle><circle cx="75.84745188554128" cy="24.133053421974182" r="2" style="fill: steelblue;"></circle><circle cx="37.465646862983704" cy="72.68447577953339" r="2" style="fill: steelblue;"></circle><circle cx="53.102091782622864" cy="73.41469824314117" r="2" style="fill: steelblue;"></circle><circle cx="27.196953694025677" cy="65.50005972385406" r="2" style="fill: steelblue;"></circle><circle cx="42.66497244437535" cy="41.541529446840286" r="2" style="fill: steelblue;"></circle><circle cx="72.79928194151985" cy="26.831425726413727" r="2" style="fill: steelblue;"></circle><circle cx="57.132924389508034" cy="36.96146458387375" r="2" style="fill: steelblue;"></circle><circle cx="52.04137787222862" cy="62.247513234615326" r="2" style="fill: steelblue;"></circle><circle cx="64.00686088535521" cy="52.41571944206953" r="2" style="fill: steelblue;"></circle><circle cx="28.07903620931837" cy="45.14009319245815" r="2" style="fill: steelblue;"></circle><circle cx="26.551832755406696" cy="46.848247945308685" r="2" style="fill: steelblue;"></circle><circle cx="41.38578805658552" cy="72.97789454460144" r="2" style="fill: steelblue;"></circle><circle cx="41.6929531428549" cy="55.58205507695675" r="2" style="fill: steelblue;"></circle><circle cx="69.48843598365784" cy="61.47458031773567" r="2" style="fill: steelblue;"></circle><circle cx="27.91741159227159" cy="42.98383668065071" r="2" style="fill: steelblue;"></circle><circle cx="64.39396325084898" cy="57.97855854034424" r="2" style="fill: steelblue;"></circle><circle cx="62.76163458824158" cy="83.66304337978363" r="2" style="fill: steelblue;"></circle><circle cx="31.91172745492723" cy="84.02851223945618" r="2" style="fill: steelblue;"></circle><circle cx="30.240340365303886" cy="68.50235611200333" r="2" style="fill: steelblue;"></circle><circle cx="17.41789115799798" cy="59.490715712308884" r="2" style="fill: steelblue;"></circle><circle cx="60.953427106142044" cy="73.57389479875565" r="2" style="fill: steelblue;"></circle><circle cx="36.98665234777662" cy="59.491825103759766" r="2" style="fill: steelblue;"></circle><circle cx="17.675062020619713" cy="80.78971803188324" r="2" style="fill: steelblue;"></circle><circle cx="29.937754074732464" cy="65.05100578069687" r="2" style="fill: steelblue;"></circle><circle cx="8.493648635016546" cy="79.56787943840027" r="2" style="fill: steelblue;"></circle><circle cx="78.00471782684326" cy="47.417364828288555" r="2" style="fill: steelblue;"></circle><circle cx="60.643037574158775" cy="41.449400037527084" r="2" style="fill: steelblue;"></circle><circle cx="72.30642603503334" cy="27.729453146457672" r="2" style="fill: steelblue;"></circle><circle cx="84.37059985266792" cy="33.9666411280632" r="2" style="fill: steelblue;"></circle><circle cx="54.14555128663778" cy="65.6613439321518" r="2" style="fill: steelblue;"></circle><circle cx="59.86942847569784" cy="35.89577674865723" r="2" style="fill: steelblue;"></circle><circle cx="92.04255872302585" cy="30.695322155952454" r="2" style="fill: steelblue;"></circle><circle cx="83.30309391021729" cy="31.495220959186554" r="2" style="fill: steelblue;"></circle><circle cx="70.50662073824141" cy="22.804531455039978" r="2" style="fill: steelblue;"></circle><circle cx="78.93575562371147" cy="16.63714349269867" r="2" style="fill: steelblue;"></circle><circle cx="96.87510463926527" cy="20.806360244750977" r="2" style="fill: steelblue;"></circle><circle cx="64.41685060660043" cy="48.55520725250244" r="2" style="fill: steelblue;"></circle><circle cx="35.6816119617886" cy="60.83305776119232" r="2" style="fill: steelblue;"></circle><circle cx="74.31576318211025" cy="64.8634135723114" r="2" style="fill: steelblue;"></circle><circle cx="43.9273069302241" cy="48.341529816389084" r="2" style="fill: steelblue;"></circle><circle cx="67.34902494483524" cy="56.60919025540352" r="2" style="fill: steelblue;"></circle><circle cx="70.60611082447899" cy="65.46377837657928" r="2" style="fill: steelblue;"></circle><circle cx="59.973417884773674" cy="69.44506764411926" r="2" style="fill: steelblue;"></circle><circle cx="72.18534582191043" cy="32.006411254405975" r="2" style="fill: steelblue;"></circle><circle cx="85.55828200446236" cy="38.42131048440933" r="2" style="fill: steelblue;"></circle><circle cx="82.45167798466152" cy="8.010086417198181" r="2" style="fill: steelblue;"></circle><circle cx="37.49369581540425" cy="14.291295409202576" r="2" style="fill: steelblue;"></circle><circle cx="38.633661137686836" cy="40.95977544784546" r="2" style="fill: steelblue;"></circle><circle cx="56.98458281242185" cy="40.24284482002258" r="2" style="fill: steelblue;"></circle><circle cx="46.78480409913593" cy="45.778704434633255" r="2" style="fill: steelblue;"></circle><circle cx="77.54273381498125" cy="24.662089347839355" r="2" style="fill: steelblue;"></circle><circle cx="62.571555376052856" cy="19.587966799736023" r="2" style="fill: steelblue;"></circle><circle cx="83.85986089706421" cy="39.13026452064514" r="2" style="fill: steelblue;"></circle><circle cx="28.015351957745022" cy="44.246287643909454" r="2" style="fill: steelblue;"></circle><circle cx="76.35636130968729" cy="47.7094741538167" r="2" style="fill: steelblue;"></circle><circle cx="54.328106654187046" cy="59.134991466999054" r="2" style="fill: steelblue;"></circle><circle cx="63.97067507108053" cy="44.33553330600262" r="2" style="fill: steelblue;"></circle><circle cx="26.703109343846638" cy="13.40453326702118" r="2" style="fill: steelblue;"></circle><circle cx="75.69276127550337" cy="62.977246940135956" r="2" style="fill: steelblue;"></circle><circle cx="59.360468139251076" cy="32.31741487979889" r="2" style="fill: steelblue;"></circle><circle cx="63.84903440872828" cy="27.987775206565857" r="2" style="fill: steelblue;"></circle><circle cx="61.20733461446232" cy="22.203490138053894" r="2" style="fill: steelblue;"></circle><circle cx="53.375636330909195" cy="35.1631224155426" r="2" style="fill: steelblue;"></circle><circle cx="47.98773924509684" cy="40.932903438806534" r="2" style="fill: steelblue;"></circle><circle cx="74.3682798412111" cy="17.92270839214325" r="2" style="fill: steelblue;"></circle><circle cx="73.46788379881117" cy="64.08874988555908" r="2" style="fill: steelblue;"></circle><circle cx="37.43299345175426" cy="71.4846283197403" r="2" style="fill: steelblue;"></circle><circle cx="39.29961224397023" cy="68.58990639448166" r="2" style="fill: steelblue;"></circle><circle cx="50.54762835303942" cy="48.41709677129984" r="2" style="fill: steelblue;"></circle><circle cx="24.558696481916638" cy="34.94579643011093" r="2" style="fill: steelblue;"></circle><circle cx="54.11327506105105" cy="39.959315955638885" r="2" style="fill: steelblue;"></circle><circle cx="36.47091653611925" cy="74.95414018630981" r="2" style="fill: steelblue;"></circle></g></svg>