<svg xmlns="http://www.w3.org/2000/svg"><g><circle cx="22.9037880897522" cy="68.31309795379639" r="2" style="fill: steelblue;"></circle><circle cx="37.874859012663364" cy="49.01090322269334" r="2" style="fill: steelblue;"></circle><circle cx="40.456282161176205" cy="82.2656942738427" r="2" style="fill: steelblue;"></circle><circle cx="59.50584467500448" cy="61.410747634039986" r="2" style="fill: steelblue;"></circle><circle cx="23.639437928795818" cy="34.70790982246399" r="2" style="fill: steelblue;"></circle><circle cx="62.74926122277975" cy="55.45826355616252" r="2" style="fill: steelblue;"></circle><circle cx="42.839937563985586" cy="64.72678747442033" r="2" style="fill: steelblue;"></circle><circle cx="72.91272953152657" cy="48.39637767937448" r="2" style="fill: steelblue;"></circle><circle cx="14.179728180170063" cy="46.869658099280464" r="2" style="fill: steelblue;"></circle><circle cx="29.349086061120033" cy="56.21754477421443" r="2" style="fill: steelblue;"></circle><circle cx="57.07803666591644" cy="65.12721478939056" r="2" style="fill: steelblue;"></circle><circle cx="33.54034125804901" cy="30.76473391718335" r="2" style="fill: steelblue;"></circle><circle cx="40.90455938130617" cy="75.02628631061978" r="2" style="fill: steelblue;"></circle><circle cx="42.96513386070728" cy="33.048585222827064" r="2" style="fill: steelblue;"></circle><circle cx="10.920639336109165" cy="58.7404727935791" r="2" style="fill: steelblue;"></circle><circle cx="32.57627710700035" cy="50.700348450077904" r="2" style="fill: steelblue;"></circle><circle cx="62.017893604934216" cy="60.56431531906128" r="2" style="fill: steelblue;"></circle><circle cx="77.24090591073036" cy="50.65390898121728" r="2" style="fill: steelblue;"></circle><circle cx="76.02661959826946" cy="36.364609334203934" r="2" style="fill: steelblue;"></circle><circle cx="62.703717686235905" cy="51.619025733735825" r="2" style="fill: steelblue;"></circle><circle cx="72.97574654221535" cy="30.490760339630974" r="2" style="fill: steelblue;"></circle><circle cx="54.276483319699764" cy="29.239372412363686" r="2" style="fill: steelblue;"></circle><circle cx="47.84210161305964" cy="17.294455899132622" r="2" style="fill: steelblue;"></circle><circle cx="31.803379952907562" cy="50.195668472184074" r="2" style="fill: steelblue;"></circle><circle cx="66.60051941871643" cy="64.08722632461124" r="2" style="fill: steelblue;"></circle><circle cx="21.317779272794727" cy="57.01695730288824" r="2" style="fill: steelblue;"></circle><circle cx="29.8826202750206" cy="76.37870245509677" r="2" style="fill: steelblue;"></circle><circle cx="36.89375165849924" cy="80.7047446568807" r="2" style="fill: steelblue;"></circle><circle cx="35.96722446382046" cy="81.58115479681227" r="2" style="fill: steelblue;"></circle><circle cx="82.88320451974869" cy="47.465148857898185" r="2" style="fill: steelblue;"></circle><circle cx="42.93062649667263" cy="19.2877858877182" r="2" style="fill: steelblue;"></circle><circle cx="87.93791681528091" cy="11.357025305430103" r="2" style="fill: steelblue;"></circle><circle cx="94.52978819608688" cy="10.183651579750908" r="2" style="fill: steelblue;"></circle><circle cx="49.30075212614611" cy="24.73451958762275" r="2" style="fill: steelblue;"></circle><circle cx="51.85021513607353" cy="43.341713812616135" r="2" style="fill: steelblue;"></circle><circle cx="45.54891791194677" cy="30.561064018143547" r="2" style="fill: steelblue;"></circle><circle cx="7.584612071514132" cy="65.92477626270718" r="2" style="fill: steelblue;"></circle><circle cx="46.41972151584923" cy="53.95823816458385" r="2" style="fill: steelblue;"></circle><circle cx="19.940740615129474" cy="43.36403792517053" r="2" style="fill: steelblue;"></circle><circle cx="67.27063208818436" cy="71.14253706402249" r="2" style="fill: steelblue;"></circle><circle cx="36.25483177602291" cy="58.90392694208357" r="2" style="fill: steelblue;"></circle><circle cx="64.61913716048002" cy="56.878324349721275" r="2" style="fill: steelblue;"></circle><circle cx="67.2946397215128" cy="0.8089138401879192" r="2" style="fill: steelblue;"></circle><circle cx="83.01077708601952" cy="44.19508761105438" r="2" style="fill: steelblue;"></circle><circle cx="92.10149124264717" cy="53.01344411240684" r="2" style="fill: steelblue;"></circle><circle cx="50.29883213574067" cy="17.721299661530388" r="2" style="fill: steelblue;"></circle><circle cx="63.441747054457664" cy="42.656636238098145" r="2" style="fill: steelblue;"></circle><circle cx="17.97381713986397" cy="27.793449825710724" r="2" style="fill: steelblue;"></circle><circle cx="31.679201126098633" cy="55.889856649769676" r="2" style="fill: steelblue;"></circle><circle cx="38.5958693921566" cy="26.70749624570211" r="2" style="fill: steelblue;"></circle><circle cx="62.99357134848833" cy="50.744332952631844" r="2" style="fill: steelblue;"></circle><circle cx="55.791615694761276" cy="39.22022357583046" r="2" style="fill: steelblue;"></circle><circle cx="29.852695018053055" cy="20.227302445305718" r="2" style="fill: steelblue;"></circle><circle cx="11.627669632434849" cy="29.281183414989055" r="2" style="fill: steelblue;"></circle><circle cx="19.25361827015877" cy="51.894408298863304" r="2" style="fill: steelblue;"></circle><circle cx="23.37216138839722" cy="78.59651843706767" r="2" style="fill: steelblue;"></circle><circle cx="38.54115977883339" cy="48.25735398464733" r="2" style="fill: steelblue;"></circle><circle cx="43.32126649096608" cy="52.27552867598004" r="2" style="fill: steelblue;"></circle><circle cx="28.39144617319107" cy="56.9838328493966" r="2" style="fill: steelblue;"></circle><circle cx="39.90827891975641" cy="46.19532364110152" r="2" style="fill: steelblue;"></circle><circle cx="17.41321682929993" cy="57.09336631827884" r="2" style="fill: steelblue;"></circle><circle cx="29.844041168689728" cy="67.5916035970052" r="2" style="fill: steelblue;"></circle><circle cx="24.85064528882504" cy="54.72557428810332" r="2" style="fill: steelblue;"></circle><circle cx="18.42405200004578" cy="65.20281334718068" r="2" style="fill: steelblue;"></circle><circle cx="36.01067811250687" cy="77.60165068838332" r="2" style="fill: steelblue;"></circle><circle cx="1.529797166585925" cy="45.15384438758095" r="2" style="fill: steelblue;"></circle><circle cx="33.615994453430176" cy="61.50060660309262" r="2" style="fill: steelblue;"></circle><circle cx="25.673841312527657" cy="90.96373054716322" r="2" style="fill: steelblue;"></circle><circle cx="17.82096475362778" cy="70.00679704878065" r="2" style="fill: steelblue;"></circle><circle cx="29.780303314328194" cy="71.52709298663669" r="2" style="fill: steelblue;"></circle><circle cx="60.72998810559511" cy="36.123122771581016" r="2" style="fill: steelblue;"></circle><circle cx="64.40999936312437" cy="33.08233221371969" r="2" style="fill: steelblue;"></circle><circle cx="50.07574256596854" cy="52.464761005507576" r="2" style="fill: steelblue;"></circle><circle cx="45.400909800082445" cy="50.08112531569269" r="2" style="fill: steelblue;"></circle><circle cx="61.812569573521614" cy="21.01415329509312" r="2" style="fill: steelblue;"></circle><circle cx="97.38051816821098" cy="12.331720193227136" r="2" style="fill: steelblue;"></circle><circle cx="44.6327256038785" cy="32.92284177409278" r="2" style="fill: steelblue;"></circle><circle cx="68.99766363203526" cy="28.1172106663386" r="2" style="fill: steelblue;"></circle><circle cx="66.39161631464958" cy="17.14820762475332" r="2" style="fill: steelblue;"></circle><circle cx="27.934276685118675" cy="34.543258614010284" r="2" style="fill: steelblue;"></circle><circle cx="76.5011414885521" cy="16.50309496455723" r="2" style="fill: steelblue;"></circle><circle cx="99.81368035078049" cy="24.355682399537827" r="2" style="fill: steelblue;"></circle><circle cx="35.840633511543274" cy="18.22863949669732" r="2" style="fill: steelblue;"></circle><circle cx="16.22414514422417" cy="59.54763227038913" r="2" style="fill: steelblue;"></circle><circle cx="46.19066179729998" cy="65.65557519594829" r="2" style="fill: steelblue;"></circle><circle cx="64.442702755332" cy="54.871281153625915" r="2" style="fill: steelblue;"></circle><circle cx="21.685953438282016" cy="48.148296525081" r="2" style="fill: steelblue;"></circle><circle cx="36.48497089743614" cy="30.490470594829986" r="2" style="fill: steelblue;"></circle><circle cx="35.49921624362469" cy="55.721004969543884" r="2" style="fill: steelblue;"></circle><circle cx="57.55724497139454" cy="28.33817501862844" r="2" style="fill: steelblue;"></circle><circle cx="63.07252608239651" cy="26.350090238783096" r="2" style="fill: steelblue;"></circle><circle cx="81.66954591870308" cy="16.788720422320903" r="2" style="fill: steelblue;"></circle><circle cx="80.89135885238647" cy="22.017049458291794" r="2" style="fill: steelblue;"></circle><circle cx="51.87629321590066" cy="7.229436768425835" r="2" style="fill: steelblue;"></circle><circle cx="82.27232024073601" cy="45.78335082365407" r="2" style="fill: steelblue;"></circle><circle cx="32.05112852156162" cy="2.2941357559628006" r="2" style="fill: steelblue;"></circle><circle cx="77.3766778409481" cy="0.9786215093400719" r="2" style="fill: steelblue;"></circle><circle cx="43.40663431212306" cy="42.04924566050371" r="2" style="fill: steelblue;"></circle><circle cx="61.62425335496664" cy="34.13751572370529" r="2" style="fill: steelblue;"></circle><circle cx="30.632338672876358" cy="20.0271252128813" r="2" style="fill: steelblue;"></circle><circle cx="57.4275485239923" cy="17.857082353697884" r="2" style="fill: steelblue;"></circle><circle cx="40.91480299830437" cy="51.033477154042984" r="2" style="fill: steelblue;"></circle><circle cx="64.90684412419796" cy="43.68602330279019" r="2" style="fill: steelblue;"></circle><circle cx="52.67330603674054" cy="27.915796637535095" r="2" style="fill: steelblue;"></circle><circle cx="65.71258343756199" cy="67.92498562071059" r="2" style="fill: steelblue;"></circle><circle cx="50.4017865867354" cy="66.52667721112569" r="2" style="fill: steelblue;"></circle><circle cx="72.67615497112274" cy="19.397875666618347" r="2" style="fill: steelblue;"></circle><circle cx="74.49161000549793" cy="52.72241036097209" r="2" style="fill: steelblue;"></circle><circle cx="74.95472133159637" cy="36.67820427152846" r="2" style="fill: steelblue;"></circle><circle cx="67.10261963307858" cy="17.614352371957565" r="2" style="fill: steelblue;"></circle><circle cx="79.30539473891258" cy="20.368663138813446" r="2" style="fill: steelblue;"></circle><circle cx="61.974296532571316" cy="8.640152878231477" r="2" style="fill: steelblue;"></circle><circle cx="24.317420274019245" cy="45.276966266747976" r="2" style="fill: steelblue;"></circle><circle cx="35.32198462635279" cy="52.9746456278695" r="2" style="fill: steelblue;"></circle><circle cx="31.648022308945656" cy="62.34507030910916" r="2" style="fill: steelblue;"></circle><circle cx="68.92364211380482" cy="57.28318062093523" r="2" style="fill: steelblue;"></circle><circle cx="42.11290664970875" cy="67.78859694798787" r="2" style="fill: steelblue;"></circle><circle cx="30.85513524711132" cy="57.5536201397578" r="2" style="fill: steelblue;"></circle></g></svg>