<svg xmlns="http://www.w3.org/2000/svg"><g><circle cx="80.27987033128738" cy="189.64693281385635" r="2" style="fill: steelblue;"></circle><circle cx="42.27495416998864" cy="150.21019842889572" r="2" style="fill: steelblue;"></circle><circle cx="82.82140679657459" cy="182.26556645499335" r="2" style="fill: steelblue;"></circle><circle cx="83.86875353753567" cy="159.15728939904108" r="2" style="fill: steelblue;"></circle><circle cx="62.753817439079285" cy="154.5184420214759" r="2" style="fill: steelblue;"></circle><circle cx="104.59266360849142" cy="152.43486563364664" r="2" style="fill: steelblue;"></circle><circle cx="147.69600555300713" cy="107.88470009962717" r="2" style="fill: steelblue;"></circle><circle cx="132.20118582248688" cy="189.52781624264188" r="2" style="fill: steelblue;"></circle><circle cx="126.04658342897892" cy="86.7094380988015" r="2" style="fill: steelblue;"></circle><circle cx="78.44864800572395" cy="141.29770464367337" r="2" style="fill: steelblue;"></circle><circle cx="87.05926723778248" cy="137.10881769657135" r="2" style="fill: steelblue;"></circle><circle cx="59.284231066703796" cy="121.50108814239502" r="2" style="fill: steelblue;"></circle><circle cx="125.99045820534229" cy="57.25596348444621" r="2" style="fill: steelblue;"></circle><circle cx="133.09812769293785" cy="187.36073043611313" r="2" style="fill: steelblue;"></circle><circle cx="42.58860871195794" cy="90.64758320649464" r="2" style="fill: steelblue;"></circle><circle cx="44.94490325450898" cy="155.61590592066446" r="2" style="fill: steelblue;"></circle><circle cx="104.0625175461173" cy="161.9087689452701" r="2" style="fill: steelblue;"></circle><circle cx="150.62304809689522" cy="160.50245695643954" r="2" style="fill: steelblue;"></circle><circle cx="84.67725329101086" cy="65.64475761519537" r="2" style="fill: steelblue;"></circle><circle cx="103.67336208000779" cy="97.50138305955463" r="2" style="fill: steelblue;"></circle><circle cx="91.6278338059783" cy="118.28005231089062" r="2" style="fill: steelblue;"></circle><circle cx="135.6164388358593" cy="108.55088672704167" r="2" style="fill: steelblue;"></circle><circle cx="148.49035292863846" cy="91.85014830695258" r="2" style="fill: steelblue;"></circle><circle cx="28.23602259159089" cy="123.58466784159342" r="2" style="fill: steelblue;"></circle><circle cx="51.519303023815155" cy="181.8968388769362" r="2" style="fill: steelblue;"></circle><circle cx="38.4557418525219" cy="184.99832020865546" r="2" style="fill: steelblue;"></circle><circle cx="90.69346487522125" cy="156.10945887035794" r="2" style="fill: steelblue;"></circle><circle cx="43.88649985194207" cy="133.09863871998257" r="2" style="fill: steelblue;"></circle><circle cx="68.96650642156601" cy="134.24921366903516" r="2" style="fill: steelblue;"></circle><circle cx="162.9921704530716" cy="96.87744246588812" r="2" style="fill: steelblue;"></circle><circle cx="83.99916104972363" cy="59.40194262398612" r="2" style="fill: steelblue;"></circle><circle cx="115.89233987033367" cy="92.33189788129594" r="2" style="fill: steelblue;"></circle><circle cx="136.47420182824135" cy="56.674900982115005" r="2" style="fill: steelblue;"></circle><circle cx="110.70212386548519" cy="77.8088437186347" r="2" style="fill: steelblue;"></circle><circle cx="158.69046971201897" cy="86.70820792516072" r="2" style="fill: steelblue;"></circle><circle cx="69.6567989885807" cy="183.61033995946246" r="2" style="fill: steelblue;"></circle><circle cx="104.12667263299227" cy="166.98004139794241" r="2" style="fill: steelblue;"></circle><circle cx="0.6049484014511164" cy="68.58265068795946" r="2" style="fill: steelblue;"></circle><circle cx="27.74737626314164" cy="139.8671633667416" r="2" style="fill: steelblue;"></circle><circle cx="62.011177092790604" cy="74.52261116769579" r="2" style="fill: steelblue;"></circle><circle cx="14.516247808933263" cy="130.06757199764252" r="2" style="fill: steelblue;"></circle><circle cx="143.84471848607063" cy="54.387145572238495" r="2" style="fill: steelblue;"></circle><circle cx="155.0146959722042" cy="72.14348514874776" r="2" style="fill: steelblue;"></circle><circle cx="100.77354663517326" cy="72.09060589472453" r="2" style="fill: steelblue;"></circle><circle cx="116.63754694163799" cy="90.75199067592621" r="2" style="fill: steelblue;"></circle><circle cx="121.40428125858307" cy="124.10277790493436" r="2" style="fill: steelblue;"></circle><circle cx="126.9047524780035" cy="86.85181207127042" r="2" style="fill: steelblue;"></circle><circle cx="10.231880843639379" cy="171.7739701271057" r="2" style="fill: steelblue;"></circle><circle cx="111.33822463452816" cy="186.2087978257073" r="2" style="fill: steelblue;"></circle><circle cx="89.84106630086899" cy="160.99477807680765" r="2" style="fill: steelblue;"></circle><circle cx="100.67304912954569" cy="89.719091852506" r="2" style="fill: steelblue;"></circle><circle cx="121.41478285193443" cy="125.97526278760698" r="2" style="fill: steelblue;"></circle><circle cx="54.45855334401131" cy="156.86444772614374" r="2" style="fill: steelblue;"></circle><circle cx="41.10359251499177" cy="122.78804348574744" r="2" style="fill: steelblue;"></circle><circle cx="72.51321189105511" cy="92.91843242115445" r="2" style="fill: steelblue;"></circle><circle cx="3.306081891059881" cy="133.34956930743323" r="2" style="fill: steelblue;"></circle><circle cx="75.85113905370235" cy="176.90759234958225" r="2" style="fill: steelblue;"></circle><circle cx="89.18695654720068" cy="117.3078753054142" r="2" style="fill: steelblue;"></circle><circle cx="105.76763739809394" cy="142.5992614693112" r="2" style="fill: steelblue;"></circle><circle cx="113.10582924634218" cy="137.60935763518015" r="2" style="fill: steelblue;"></circle><circle cx="76.26503370702267" cy="73.98586140738593" r="2" style="fill: steelblue;"></circle><circle cx="98.04469314403832" cy="53.04741859436035" r="2" style="fill: steelblue;"></circle><circle cx="45.7417018711567" cy="179.7645025783115" r="2" style="fill: steelblue;"></circle><circle cx="4.643088579177862" cy="197.71207703484427" r="2" style="fill: steelblue;"></circle><circle cx="21.895258128643043" cy="179.21254369947647" r="2" style="fill: steelblue;"></circle><circle cx="59.84942838549614" cy="195.51785124672782" r="2" style="fill: steelblue;"></circle><circle cx="7.931141555309301" cy="102.50826428333917" r="2" style="fill: steelblue;"></circle><circle cx="23.555195331573493" cy="144.04041237301297" r="2" style="fill: steelblue;"></circle><circle cx="92.3668229021132" cy="107.57108198271857" r="2" style="fill: steelblue;"></circle><circle cx="34.5257580280304" cy="153.22551793522305" r="2" style="fill: steelblue;"></circle><circle cx="147.18775302171707" cy="176.06814702351886" r="2" style="fill: steelblue;"></circle><circle cx="193.6645194888115" cy="60.30041641659207" r="2" style="fill: steelblue;"></circle><circle cx="186.24745905399323" cy="98.86386907762952" r="2" style="fill: steelblue;"></circle><circle cx="108.68726335465908" cy="73.87164235115051" r="2" style="fill: steelblue;"></circle><circle cx="167.81163811683655" cy="54.65043253368802" r="2" style="fill: steelblue;"></circle><circle cx="53.36424931883812" cy="124.19775790638394" r="2" style="fill: steelblue;"></circle><circle cx="162.3856820166111" cy="106.72048976023991" r="2" style="fill: steelblue;"></circle><circle cx="146.94264009594917" cy="62.36480342017279" r="2" style="fill: steelblue;"></circle><circle cx="128.91402691602707" cy="38.92539607153998" r="2" style="fill: steelblue;"></circle><circle cx="175.1272439956665" cy="162.97178798251682" r="2" style="fill: steelblue;"></circle><circle cx="83.39319415390491" cy="16.05015330844455" r="2" style="fill: steelblue;"></circle><circle cx="165.7932385802269" cy="48.853748374515106" r="2" style="fill: steelblue;"></circle><circle cx="54.52236011624336" cy="108.09868408573999" r="2" style="fill: steelblue;"></circle><circle cx="34.635981917381294" cy="69.82316904597812" r="2" style="fill: steelblue;"></circle><circle cx="90.0601115077734" cy="185.19178364011978" r="2" style="fill: steelblue;"></circle><circle cx="93.10864182189107" cy="153.2506313588884" r="2" style="fill: steelblue;"></circle><circle cx="125.79873241484165" cy="131.24686645136939" r="2" style="fill: steelblue;"></circle><circle cx="109.0103866532445" cy="64.58419892523024" r="2" style="fill: steelblue;"></circle><circle cx="117.62775704264641" cy="137.17000517580243" r="2" style="fill: steelblue;"></circle><circle cx="130.13712167739868" cy="11.724869410196948" r="2" style="fill: steelblue;"></circle><circle cx="118.2278398424387" cy="41.03200965457492" r="2" style="fill: steelblue;"></circle><circle cx="105.5050179362297" cy="44.63202423519559" r="2" style="fill: steelblue;"></circle><circle cx="143.60554367303848" cy="24.660964806874585" r="2" style="fill: steelblue;"></circle><circle cx="154.8691414296627" cy="92.54357881016202" r="2" style="fill: steelblue;"></circle><circle cx="157.92031064629555" cy="82.2710394859314" r="2" style="fill: steelblue;"></circle><circle cx="145.47226056456566" cy="48.5544999440511" r="2" style="fill: steelblue;"></circle><circle cx="156.971475481987" cy="33.939500649770096" r="2" style="fill: steelblue;"></circle><circle cx="29.58470433950425" cy="117.20537187324629" r="2" style="fill: steelblue;"></circle><circle cx="33.25206637382508" cy="161.8003315395779" r="2" style="fill: steelblue;"></circle><circle cx="179.59093153476715" cy="65.54338335990906" r="2" style="fill: steelblue;"></circle><circle cx="180.24710416793823" cy="129.69772517681122" r="2" style="fill: steelblue;"></circle><circle cx="130.15821054577827" cy="82.9673707485199" r="2" style="fill: steelblue;"></circle><circle cx="93.2306818664074" cy="73.17587402131822" r="2" style="fill: steelblue;"></circle><circle cx="24.46009814739228" cy="89.93602130148146" r="2" style="fill: steelblue;"></circle><circle cx="155.02008274197578" cy="86.0108368926578" r="2" style="fill: steelblue;"></circle><circle cx="57.925841212272644" cy="75.43547948201497" r="2" style="fill: steelblue;"></circle><circle cx="100.17467129509896" cy="69.66552800602383" r="2" style="fill: steelblue;"></circle><circle cx="111.76791079342365" cy="117.27254341046014" r="2" style="fill: steelblue;"></circle><circle cx="81.77698999643326" cy="75.17330514060126" r="2" style="fill: steelblue;"></circle><circle cx="144.95178163051605" cy="66.85765584309895" r="2" style="fill: steelblue;"></circle><circle cx="110.92589274048805" cy="76.55754685401917" r="2" style="fill: steelblue;"></circle><circle cx="170.79534232616425" cy="131.67632619539896" r="2" style="fill: steelblue;"></circle><circle cx="67.60845184326172" cy="131.69049223264057" r="2" style="fill: steelblue;"></circle><circle cx="75.95210559666157" cy="90.96100926399231" r="2" style="fill: steelblue;"></circle><circle cx="64.27997201681137" cy="138.35177322228748" r="2" style="fill: steelblue;"></circle><circle cx="6.3640907406807" cy="166.29312104649014" r="2" style="fill: steelblue;"></circle><circle cx="61.245786398649216" cy="125.29161903593274" r="2" style="fill: steelblue;"></circle><circle cx="61.86254546046257" cy="96.65715363290575" r="2" style="fill: steelblue;"></circle></g></svg>