<svg xmlns="http://www.w3.org/2000/svg"><rect width="200" height="200" fill="white"></rect><g><circle cx="84.62221119552851" cy="144.57962777879501" r="2" style="fill: steelblue;"></circle><circle cx="26.32488906383515" cy="141.6809644964006" r="2" style="fill: steelblue;"></circle><circle cx="84.17511954903603" cy="44.7554541958703" r="2" style="fill: steelblue;"></circle><circle cx="21.83440178632737" cy="90.3693590934078" r="2" style="fill: steelblue;"></circle><circle cx="20.034237205982215" cy="130.500199397405" r="2" style="fill: steelblue;"></circle><circle cx="26.039248704910285" cy="105.08753226863013" r="2" style="fill: steelblue;"></circle><circle cx="97.73420626297593" cy="135.91542376412286" r="2" style="fill: steelblue;"></circle><circle cx="141.53981432318687" cy="108.3116137319141" r="2" style="fill: steelblue;"></circle><circle cx="44.09104436635972" cy="114.4438472059038" r="2" style="fill: steelblue;"></circle><circle cx="81.49378970265388" cy="82.90243637230661" r="2" style="fill: steelblue;"></circle><circle cx="76.11381858587265" cy="134.01028050316705" r="2" style="fill: steelblue;"></circle><circle cx="56.86371251940727" cy="43.06754337416756" r="2" style="fill: steelblue;"></circle><circle cx="48.715042322874076" cy="132.44335717625088" r="2" style="fill: steelblue;"></circle><circle cx="76.82434320449829" cy="156.24252822664047" r="2" style="fill: steelblue;"></circle><circle cx="93.82663983851671" cy="94.63687108622658" r="2" style="fill: steelblue;"></circle><circle cx="81.7868247628212" cy="100.96929503811731" r="2" style="fill: steelblue;"></circle><circle cx="38.38458880782128" cy="93.60504431857004" r="2" style="fill: steelblue;"></circle><circle cx="85.29194481670856" cy="55.07133934232924" r="2" style="fill: steelblue;"></circle><circle cx="93.02480323240161" cy="27.987253665924072" r="2" style="fill: steelblue;"></circle><circle cx="82.4135061353445" cy="40.05401531855266" r="2" style="fill: steelblue;"></circle><circle cx="67.90609881281853" cy="115.34300148487091" r="2" style="fill: steelblue;"></circle><circle cx="79.76312041282654" cy="34.467411041259766" r="2" style="fill: steelblue;"></circle><circle cx="58.99692922830582" cy="154.89791366789078" r="2" style="fill: steelblue;"></circle><circle cx="95.90876372531056" cy="118.66282290882535" r="2" style="fill: steelblue;"></circle><circle cx="102.40064691752195" cy="100.21777484152052" r="2" style="fill: steelblue;"></circle><circle cx="69.72806192934513" cy="83.52458303173383" r="2" style="fill: steelblue;"></circle><circle cx="125.09910240769386" cy="83.05730703804228" r="2" style="fill: steelblue;"></circle><circle cx="131.35429695248604" cy="137.99501326349045" r="2" style="fill: steelblue;"></circle><circle cx="50.684431940317154" cy="134.10942289564346" r="2" style="fill: steelblue;"></circle><circle cx="121.79046347737312" cy="97.00434605280559" r="2" style="fill: steelblue;"></circle><circle cx="171.49199396371841" cy="37.118860748079086" r="2" style="fill: steelblue;"></circle><circle cx="154.0146343410015" cy="33.35128426551819" r="2" style="fill: steelblue;"></circle><circle cx="90.62552582472563" cy="85.48447812596957" r="2" style="fill: steelblue;"></circle><circle cx="128.05290929973125" cy="84.05671053462558" r="2" style="fill: steelblue;"></circle><circle cx="141.56004637479782" cy="70.99630965126886" r="2" style="fill: steelblue;"></circle><circle cx="192.84762293100357" cy="110.46761804156833" r="2" style="fill: steelblue;"></circle><circle cx="121.61935158073902" cy="149.16027122073703" r="2" style="fill: steelblue;"></circle><circle cx="115.85676893591881" cy="149.07056623035007" r="2" style="fill: steelblue;"></circle><circle cx="70.98542004823685" cy="155.19951979319256" r="2" style="fill: steelblue;"></circle><circle cx="13.95930945873261" cy="132.38160014152527" r="2" style="fill: steelblue;"></circle><circle cx="118.50188337266445" cy="115.1889830827713" r="2" style="fill: steelblue;"></circle><circle cx="182.68654346466064" cy="22.5899338722229" r="2" style="fill: steelblue;"></circle><circle cx="192.3166424036026" cy="107.67078432771895" r="2" style="fill: steelblue;"></circle><circle cx="183.905428647995" cy="69.06614071793027" r="2" style="fill: steelblue;"></circle><circle cx="75.38459487259388" cy="37.922533353169776" r="2" style="fill: steelblue;"></circle><circle cx="63.34143355488777" cy="85.90375747945573" r="2" style="fill: steelblue;"></circle><circle cx="65.21096304059029" cy="48.305096228917456" r="2" style="fill: steelblue;"></circle><circle cx="17.228102684021003" cy="125.06870627403259" r="2" style="fill: steelblue;"></circle><circle cx="35.596995055675514" cy="93.79581643475427" r="2" style="fill: steelblue;"></circle><circle cx="61.161669343709946" cy="145.60609261194864" r="2" style="fill: steelblue;"></circle><circle cx="67.60424971580505" cy="114.6700551112493" r="2" style="fill: steelblue;"></circle><circle cx="60.99672466516495" cy="54.40143611696031" r="2" style="fill: steelblue;"></circle><circle cx="67.82944351434708" cy="85.73415122098393" r="2" style="fill: steelblue;"></circle><circle cx="48.51066544651986" cy="95.91724425554276" r="2" style="fill: steelblue;"></circle><circle cx="80.22444918751717" cy="71.98627822928958" r="2" style="fill: steelblue;"></circle><circle cx="71.47305682301521" cy="143.84192758136325" r="2" style="fill: steelblue;"></circle><circle cx="109.02335532009602" cy="146.89633448918661" r="2" style="fill: steelblue;"></circle><circle cx="0.4896283149719294" cy="117.22842388682895" r="2" style="fill: steelblue;"></circle><circle cx="67.54872426390648" cy="116.61409371429019" r="2" style="fill: steelblue;"></circle><circle cx="59.663696587085724" cy="61.023128032684326" r="2" style="fill: steelblue;"></circle><circle cx="59.06778424978256" cy="144.16517681545682" r="2" style="fill: steelblue;"></circle><circle cx="64.59488198161125" cy="71.21207349830203" r="2" style="fill: steelblue;"></circle><circle cx="20.115739107131965" cy="74.47673082351685" r="2" style="fill: steelblue;"></circle><circle cx="26.524691283702857" cy="136.17654509014554" r="2" style="fill: steelblue;"></circle><circle cx="99.6612936956808" cy="139.51931926939224" r="2" style="fill: steelblue;"></circle><circle cx="56.84174448251724" cy="165.16421768400406" r="2" style="fill: steelblue;"></circle><circle cx="95.70611584931612" cy="78.09314578771591" r="2" style="fill: steelblue;"></circle><circle cx="39.83613327145577" cy="126.02669530444675" r="2" style="fill: steelblue;"></circle><circle cx="36.58931553363801" cy="164.64987595876056" r="2" style="fill: steelblue;"></circle><circle cx="131.59210458397865" cy="140.12449185053507" r="2" style="fill: steelblue;"></circle><circle cx="68.2810977101326" cy="183.0127027299669" r="2" style="fill: steelblue;"></circle><circle cx="141.43208265304565" cy="43.99056434631348" r="2" style="fill: steelblue;"></circle><circle cx="63.67263421416283" cy="78.71392485168245" r="2" style="fill: steelblue;"></circle><circle cx="159.53418463468552" cy="55.387147929933334" r="2" style="fill: steelblue;"></circle><circle cx="146.13691195845604" cy="31.25880029466417" r="2" style="fill: steelblue;"></circle><circle cx="91.254941560328" cy="91.70889742672443" r="2" style="fill: steelblue;"></circle><circle cx="146.22670635581017" cy="80.26114304860432" r="2" style="fill: steelblue;"></circle><circle cx="165.28671085834503" cy="15.914882553948306" r="2" style="fill: steelblue;"></circle><circle cx="149.19858276844025" cy="33.39381217956543" r="2" style="fill: steelblue;"></circle><circle cx="146.56533896923065" cy="58.98675852351718" r="2" style="fill: steelblue;"></circle><circle cx="188.8051688671112" cy="42.12848875257704" r="2" style="fill: steelblue;"></circle><circle cx="147.44784906506538" cy="6.24979072146945" r="2" style="fill: steelblue;"></circle><circle cx="131.4318612217903" cy="71.16629878679912" r="2" style="fill: steelblue;"></circle><circle cx="37.834538519382484" cy="128.6367760764228" r="2" style="fill: steelblue;"></circle><circle cx="67.0008197426796" cy="51.3684736357795" r="2" style="fill: steelblue;"></circle><circle cx="90.69163482636213" cy="112.1453861395518" r="2" style="fill: steelblue;"></circle><circle cx="127.34608948230743" cy="65.30195011032953" r="2" style="fill: steelblue;"></circle><circle cx="84.05596427619457" cy="58.78777835104201" r="2" style="fill: steelblue;"></circle><circle cx="116.75211451947689" cy="80.05316423045265" r="2" style="fill: steelblue;"></circle><circle cx="128.45779806375504" cy="55.62930835617914" r="2" style="fill: steelblue;"></circle><circle cx="139.81973603367805" cy="28.883435991075302" r="2" style="fill: steelblue;"></circle><circle cx="108.56960285454988" cy="35.09664403067696" r="2" style="fill: steelblue;"></circle><circle cx="148.55798184871674" cy="125.0126083691915" r="2" style="fill: steelblue;"></circle><circle cx="147.94246703386307" cy="122.73267772462633" r="2" style="fill: steelblue;"></circle><circle cx="54.757966101169586" cy="86.0308343751563" r="2" style="fill: steelblue;"></circle><circle cx="103.7826499901712" cy="106.43039180172815" r="2" style="fill: steelblue;"></circle><circle cx="179.63215559720993" cy="44.914532370037506" r="2" style="fill: steelblue;"></circle><circle cx="162.67956644296646" cy="74.85688924789429" r="2" style="fill: steelblue;"></circle><circle cx="138.11873123049736" cy="32.28027820587158" r="2" style="fill: steelblue;"></circle><circle cx="109.78410802781582" cy="143.96929608450995" r="2" style="fill: steelblue;"></circle><circle cx="102.62389704585075" cy="47.28727738062541" r="2" style="fill: steelblue;"></circle><circle cx="110.13042125850916" cy="91.34378669162591" r="2" style="fill: steelblue;"></circle><circle cx="165.81324338912964" cy="72.05864985783894" r="2" style="fill: steelblue;"></circle><circle cx="84.36125554144382" cy="146.59378131230673" r="2" style="fill: steelblue;"></circle><circle cx="57.18587562441826" cy="48.614477448993256" r="2" style="fill: steelblue;"></circle><circle cx="139.96847197413445" cy="81.27906372149785" r="2" style="fill: steelblue;"></circle><circle cx="101.57419836614281" cy="72.30193118254344" r="2" style="fill: steelblue;"></circle><circle cx="103.47656477242708" cy="77.58533077107536" r="2" style="fill: steelblue;"></circle><circle cx="150.08582025766373" cy="93.24872733818161" r="2" style="fill: steelblue;"></circle><circle cx="145.59195414185524" cy="104.02452150980632" r="2" style="fill: steelblue;"></circle><circle cx="157.03654885292053" cy="51.26344031757779" r="2" style="fill: steelblue;"></circle><circle cx="62.16604486107826" cy="53.064232402377655" r="2" style="fill: steelblue;"></circle><circle cx="73.92250783741474" cy="125.13401309649149" r="2" style="fill: steelblue;"></circle><circle cx="93.84977156296372" cy="121.40077551205954" r="2" style="fill: steelblue;"></circle><circle cx="43.079419434070594" cy="98.90474329392116" r="2" style="fill: steelblue;"></circle><circle cx="51.670873910188675" cy="150.88260703616672" r="2" style="fill: steelblue;"></circle><circle cx="86.36295273900032" cy="91.7734498778979" r="2" style="fill: steelblue;"></circle><circle cx="88.24672028422356" cy="127.0581669277615" r="2" style="fill: steelblue;"></circle></g></svg>