<svg xmlns="http://www.w3.org/2000/svg"><g><circle cx="14.455294609069824" cy="81.22635558247566" r="2" style="fill: steelblue;"></circle><circle cx="50.79420683905482" cy="89.90782424807549" r="2" style="fill: steelblue;"></circle><circle cx="33.27045738697052" cy="72.27737382054329" r="2" style="fill: steelblue;"></circle><circle cx="18.192291259765625" cy="91.8778732419014" r="2" style="fill: steelblue;"></circle><circle cx="34.84492748975754" cy="78.4530408680439" r="2" style="fill: steelblue;"></circle><circle cx="63.26363533735275" cy="77.32033282518387" r="2" style="fill: steelblue;"></circle><circle cx="24.96059536933899" cy="57.87545274943113" r="2" style="fill: steelblue;"></circle><circle cx="60.51061674952507" cy="47.517343144863844" r="2" style="fill: steelblue;"></circle><circle cx="34.012214839458466" cy="75.18287487328053" r="2" style="fill: steelblue;"></circle><circle cx="37.13478595018387" cy="83.50821509957314" r="2" style="fill: steelblue;"></circle><circle cx="58.56676027178764" cy="76.21022425591946" r="2" style="fill: steelblue;"></circle><circle cx="40.83548113703728" cy="54.71831252798438" r="2" style="fill: steelblue;"></circle><circle cx="51.101985946297646" cy="76.07433870434761" r="2" style="fill: steelblue;"></circle><circle cx="33.30651968717575" cy="54.12630429491401" r="2" style="fill: steelblue;"></circle><circle cx="42.061732709407806" cy="75.47717839479446" r="2" style="fill: steelblue;"></circle><circle cx="13.740023970603943" cy="34.97644439339638" r="2" style="fill: steelblue;"></circle><circle cx="44.281017780303955" cy="57.79317459091544" r="2" style="fill: steelblue;"></circle><circle cx="30.20695447921753" cy="56.7357555963099" r="2" style="fill: steelblue;"></circle><circle cx="64.14172500371933" cy="59.41845588386059" r="2" style="fill: steelblue;"></circle><circle cx="72.31239527463913" cy="40.762146189808846" r="2" style="fill: steelblue;"></circle><circle cx="66.16838127374649" cy="29.908958077430725" r="2" style="fill: steelblue;"></circle><circle cx="32.03022927045822" cy="13.40760588645935" r="2" style="fill: steelblue;"></circle><circle cx="37.95551881194115" cy="40.8455777913332" r="2" style="fill: steelblue;"></circle><circle cx="38.87124061584473" cy="62.89838086813688" r="2" style="fill: steelblue;"></circle><circle cx="16.813132166862488" cy="44.98058948665857" r="2" style="fill: steelblue;"></circle><circle cx="55.79223595559597" cy="31.423592194914818" r="2" style="fill: steelblue;"></circle><circle cx="33.18971544504166" cy="59.03266575187445" r="2" style="fill: steelblue;"></circle><circle cx="48.63825226202607" cy="77.71595492959023" r="2" style="fill: steelblue;"></circle><circle cx="18.0417001247406" cy="66.23301208019257" r="2" style="fill: steelblue;"></circle><circle cx="65.67257046699524" cy="63.24288081377745" r="2" style="fill: steelblue;"></circle><circle cx="60.840655118227005" cy="17.69009903073311" r="2" style="fill: steelblue;"></circle><circle cx="72.47530072927475" cy="36.50649655610323" r="2" style="fill: steelblue;"></circle><circle cx="73.06648790836334" cy="50.52470969967544" r="2" style="fill: steelblue;"></circle><circle cx="48.41947853565216" cy="77.71048434078693" r="2" style="fill: steelblue;"></circle><circle cx="56.01290389895439" cy="78.06928940117359" r="2" style="fill: steelblue;"></circle><circle cx="58.09464007616043" cy="62.77389470487833" r="2" style="fill: steelblue;"></circle><circle cx="40.8977136015892" cy="56.81068375706673" r="2" style="fill: steelblue;"></circle><circle cx="42.74080619215965" cy="94.45130750536919" r="2" style="fill: steelblue;"></circle><circle cx="26.266349852085114" cy="71.80244587361813" r="2" style="fill: steelblue;"></circle><circle cx="47.48634807765484" cy="39.896856248378754" r="2" style="fill: steelblue;"></circle><circle cx="72.45334386825562" cy="68.44597049057484" r="2" style="fill: steelblue;"></circle><circle cx="75.39635896682739" cy="61.404416523873806" r="2" style="fill: steelblue;"></circle><circle cx="56.088144704699516" cy="53.42129450291395" r="2" style="fill: steelblue;"></circle><circle cx="68.36737394332886" cy="18.74011680483818" r="2" style="fill: steelblue;"></circle><circle cx="55.74011541903019" cy="44.212211575359106" r="2" style="fill: steelblue;"></circle><circle cx="75.50442218780518" cy="11.742959916591644" r="2" style="fill: steelblue;"></circle><circle cx="31.662018597126007" cy="38.92663978040218" r="2" style="fill: steelblue;"></circle><circle cx="19.14512813091278" cy="89.91248831152916" r="2" style="fill: steelblue;"></circle><circle cx="24.706822633743286" cy="51.93997903261334" r="2" style="fill: steelblue;"></circle><circle cx="20.553845167160034" cy="59.502096101641655" r="2" style="fill: steelblue;"></circle><circle cx="54.40408103168011" cy="30.32425157725811" r="2" style="fill: steelblue;"></circle><circle cx="19.98373568058014" cy="53.035524394363165" r="2" style="fill: steelblue;"></circle><circle cx="37.879637628793716" cy="17.28389710187912" r="2" style="fill: steelblue;"></circle><circle cx="45.10496035218239" cy="69.60242539644241" r="2" style="fill: steelblue;"></circle><circle cx="57.936666905879974" cy="50.005174428224564" r="2" style="fill: steelblue;"></circle><circle cx="32.34524875879288" cy="72.83060364425182" r="2" style="fill: steelblue;"></circle><circle cx="54.21577990055084" cy="55.44359441846609" r="2" style="fill: steelblue;"></circle><circle cx="36.93167269229889" cy="44.24236640334129" r="2" style="fill: steelblue;"></circle><circle cx="66.23155474662781" cy="26.80591605603695" r="2" style="fill: steelblue;"></circle><circle cx="38.17470893263817" cy="71.38444408774376" r="2" style="fill: steelblue;"></circle><circle cx="19.64544653892517" cy="66.26410335302353" r="2" style="fill: steelblue;"></circle><circle cx="25.794024765491486" cy="63.34444712847471" r="2" style="fill: steelblue;"></circle><circle cx="4.609659314155579" cy="87.35988214612007" r="2" style="fill: steelblue;"></circle><circle cx="7.538917660713196" cy="81.48181363940239" r="2" style="fill: steelblue;"></circle><circle cx="38.16690444946289" cy="79.47048284113407" r="2" style="fill: steelblue;"></circle><circle cx="24.971702694892883" cy="49.31879615178332" r="2" style="fill: steelblue;"></circle><circle cx="23.917585611343384" cy="83.77373516559601" r="2" style="fill: steelblue;"></circle><circle cx="60.450179874897" cy="80.77692538499832" r="2" style="fill: steelblue;"></circle><circle cx="17.391332983970642" cy="39.23155292868614" r="2" style="fill: steelblue;"></circle><circle cx="47.57793713361025" cy="55.842854268848896" r="2" style="fill: steelblue;"></circle><circle cx="14.643409848213196" cy="78.16012501716614" r="2" style="fill: steelblue;"></circle><circle cx="64.3913671374321" cy="45.625609531998634" r="2" style="fill: steelblue;"></circle><circle cx="61.11847534775734" cy="22.640326246619225" r="2" style="fill: steelblue;"></circle><circle cx="77.02809870243073" cy="26.83868370950222" r="2" style="fill: steelblue;"></circle><circle cx="53.05855888873339" cy="22.537599503993988" r="2" style="fill: steelblue;"></circle><circle cx="45.89683152735233" cy="24.676381796598434" r="2" style="fill: steelblue;"></circle><circle cx="72.8761613368988" cy="23.20694662630558" r="2" style="fill: steelblue;"></circle><circle cx="53.77677530050278" cy="23.829133436083794" r="2" style="fill: steelblue;"></circle><circle cx="47.96872306615114" cy="0.8409462869167328" r="2" style="fill: steelblue;"></circle><circle cx="64.6350085735321" cy="15.052712708711624" r="2" style="fill: steelblue;"></circle><circle cx="74.67431426048279" cy="21.423741430044174" r="2" style="fill: steelblue;"></circle><circle cx="92.24546253681183" cy="2.7191370725631714" r="2" style="fill: steelblue;"></circle><circle cx="56.61469027400017" cy="49.196140677668154" r="2" style="fill: steelblue;"></circle><circle cx="40.535734593868256" cy="60.1274810731411" r="2" style="fill: steelblue;"></circle><circle cx="34.10608768463135" cy="94.17262598872185" r="2" style="fill: steelblue;"></circle><circle cx="41.484442353248596" cy="54.52613132074475" r="2" style="fill: steelblue;"></circle><circle cx="47.25682307034731" cy="52.86068604327738" r="2" style="fill: steelblue;"></circle><circle cx="66.40995591878891" cy="47.24486330524087" r="2" style="fill: steelblue;"></circle><circle cx="56.730351597070694" cy="43.33413923159242" r="2" style="fill: steelblue;"></circle><circle cx="59.373778104782104" cy="31.357799842953682" r="2" style="fill: steelblue;"></circle><circle cx="55.32130151987076" cy="19.097375869750977" r="2" style="fill: steelblue;"></circle><circle cx="63.79447430372238" cy="17.378340661525726" r="2" style="fill: steelblue;"></circle><circle cx="49.69175551086664" cy="46.17472500540316" r="2" style="fill: steelblue;"></circle><circle cx="52.33028568327427" cy="17.424899339675903" r="2" style="fill: steelblue;"></circle><circle cx="55.59246987104416" cy="21.326712518930435" r="2" style="fill: steelblue;"></circle><circle cx="58.97243693470955" cy="23.465638235211372" r="2" style="fill: steelblue;"></circle><circle cx="61.074621975421906" cy="28.437915444374084" r="2" style="fill: steelblue;"></circle><circle cx="34.71137881278992" cy="8.80008116364479" r="2" style="fill: steelblue;"></circle><circle cx="68.5273602604866" cy="55.89819625020027" r="2" style="fill: steelblue;"></circle><circle cx="65.68276137113571" cy="72.06737920641899" r="2" style="fill: steelblue;"></circle><circle cx="49.95317311550025" cy="61.16939354687929" r="2" style="fill: steelblue;"></circle><circle cx="56.92307651042938" cy="21.074827015399933" r="2" style="fill: steelblue;"></circle><circle cx="66.40593707561493" cy="54.301386419683695" r="2" style="fill: steelblue;"></circle><circle cx="85.61111092567444" cy="42.06303805112839" r="2" style="fill: steelblue;"></circle><circle cx="79.703289270401" cy="5.265514552593231" r="2" style="fill: steelblue;"></circle><circle cx="73.63985180854797" cy="22.546741366386414" r="2" style="fill: steelblue;"></circle><circle cx="72.54918068647385" cy="80.54207563400269" r="2" style="fill: steelblue;"></circle><circle cx="64.80840742588043" cy="22.280196845531464" r="2" style="fill: steelblue;"></circle><circle cx="58.88036862015724" cy="11.318880319595337" r="2" style="fill: steelblue;"></circle><circle cx="41.68143644928932" cy="15.891942381858826" r="2" style="fill: steelblue;"></circle><circle cx="70.68994045257568" cy="11.270194500684738" r="2" style="fill: steelblue;"></circle><circle cx="53.10046374797821" cy="13.00417184829712" r="2" style="fill: steelblue;"></circle><circle cx="20.425590872764587" cy="69.60516348481178" r="2" style="fill: steelblue;"></circle><circle cx="57.62682631611824" cy="47.280283132568" r="2" style="fill: steelblue;"></circle><circle cx="33.58806073665619" cy="61.88972033560276" r="2" style="fill: steelblue;"></circle><circle cx="40.21695479750633" cy="82.0976972579956" r="2" style="fill: steelblue;"></circle><circle cx="27.112555503845215" cy="81.41483664512634" r="2" style="fill: steelblue;"></circle><circle cx="53.40318977832794" cy="50.408528139814734" r="2" style="fill: steelblue;"></circle></g></svg>