<svg xmlns="http://www.w3.org/2000/svg"><g><circle cx="5.1765335930718335" cy="72.28981388939751" r="2" style="fill: steelblue;"></circle><circle cx="24.89490078555213" cy="70.8404822482003" r="2" style="fill: steelblue;"></circle><circle cx="8.867216772503324" cy="22.37772709793515" r="2" style="fill: steelblue;"></circle><circle cx="20.421355300479465" cy="45.1846795467039" r="2" style="fill: steelblue;"></circle><circle cx="22.740778989262054" cy="65.2500996987025" r="2" style="fill: steelblue;"></circle><circle cx="23.782567183176678" cy="52.543766134315064" r="2" style="fill: steelblue;"></circle><circle cx="46.057649950186416" cy="67.95771188206143" r="2" style="fill: steelblue;"></circle><circle cx="5.236091878679066" cy="54.15580686595705" r="2" style="fill: steelblue;"></circle><circle cx="56.64528095059925" cy="57.2219236029519" r="2" style="fill: steelblue;"></circle><circle cx="29.35114767816332" cy="41.451218186153305" r="2" style="fill: steelblue;"></circle><circle cx="31.445591151714325" cy="67.00514025158353" r="2" style="fill: steelblue;"></circle><circle cx="39.24945592880249" cy="21.53377168708378" r="2" style="fill: steelblue;"></circle><circle cx="71.37201825777689" cy="66.22167858812544" r="2" style="fill: steelblue;"></circle><circle cx="6.31963478194343" cy="78.12126411332024" r="2" style="fill: steelblue;"></circle><circle cx="54.67620839675268" cy="47.31843554311329" r="2" style="fill: steelblue;"></circle><circle cx="22.192047039667766" cy="50.484647519058655" r="2" style="fill: steelblue;"></circle><circle cx="19.045615527364944" cy="46.80252215928502" r="2" style="fill: steelblue;"></circle><circle cx="19.748771521780228" cy="27.53566967116462" r="2" style="fill: steelblue;"></circle><circle cx="67.17762119240231" cy="13.993626832962036" r="2" style="fill: steelblue;"></circle><circle cx="51.24930847022269" cy="20.02700765927633" r="2" style="fill: steelblue;"></circle><circle cx="40.859973844554695" cy="57.671500742435455" r="2" style="fill: steelblue;"></circle><circle cx="45.72455663647917" cy="17.233705520629883" r="2" style="fill: steelblue;"></circle><circle cx="54.07492584652371" cy="77.44895683394539" r="2" style="fill: steelblue;"></circle><circle cx="38.20766607920329" cy="59.331411454412674" r="2" style="fill: steelblue;"></circle><circle cx="9.051580561531917" cy="50.10888742076026" r="2" style="fill: steelblue;"></circle><circle cx="7.500839895672271" cy="41.76229151586691" r="2" style="fill: steelblue;"></circle><circle cx="21.945270564821033" cy="41.52865351902114" r="2" style="fill: steelblue;"></circle><circle cx="33.45068064000872" cy="68.99750663174522" r="2" style="fill: steelblue;"></circle><circle cx="32.87539316548242" cy="67.05471144782173" r="2" style="fill: steelblue;"></circle><circle cx="51.56127876705594" cy="48.502173026402794" r="2" style="fill: steelblue;"></circle><circle cx="70.29902868800694" cy="18.559430374039543" r="2" style="fill: steelblue;"></circle><circle cx="53.83405105935203" cy="16.675642132759094" r="2" style="fill: steelblue;"></circle><circle cx="71.66254950894249" cy="42.74223906298479" r="2" style="fill: steelblue;"></circle><circle cx="61.09557814068265" cy="42.02835526731279" r="2" style="fill: steelblue;"></circle><circle cx="56.64589603741964" cy="35.49815482563443" r="2" style="fill: steelblue;"></circle><circle cx="8.19483002026876" cy="55.233809020784165" r="2" style="fill: steelblue;"></circle><circle cx="16.509979301028785" cy="74.58013561036852" r="2" style="fill: steelblue;"></circle><circle cx="65.70867465602028" cy="74.53528311517503" r="2" style="fill: steelblue;"></circle><circle cx="30.0664183166292" cy="77.59975989659628" r="2" style="fill: steelblue;"></circle><circle cx="62.73869441615211" cy="66.19080007076263" r="2" style="fill: steelblue;"></circle><circle cx="34.96621400117874" cy="57.59449154138565" r="2" style="fill: steelblue;"></circle><circle cx="72.80642721388075" cy="11.29496693611145" r="2" style="fill: steelblue;"></circle><circle cx="63.92825742562612" cy="53.835392163859474" r="2" style="fill: steelblue;"></circle><circle cx="63.954697052637734" cy="34.53307035896513" r="2" style="fill: steelblue;"></circle><circle cx="54.624004662036896" cy="18.961266676584888" r="2" style="fill: steelblue;"></circle><circle cx="37.94861104753283" cy="42.95187873972787" r="2" style="fill: steelblue;"></circle><circle cx="56.57409396436479" cy="24.152548114458728" r="2" style="fill: steelblue;"></circle><circle cx="14.113014936447147" cy="62.534353137016296" r="2" style="fill: steelblue;"></circle><circle cx="6.895601087146337" cy="46.897908217377136" r="2" style="fill: steelblue;"></circle><circle cx="19.502610961596172" cy="72.80304630597432" r="2" style="fill: steelblue;"></circle><circle cx="55.140454073747" cy="57.33502755562465" r="2" style="fill: steelblue;"></circle><circle cx="37.01236860619651" cy="27.200718058480156" r="2" style="fill: steelblue;"></circle><circle cx="21.567776136928135" cy="42.867075610491966" r="2" style="fill: steelblue;"></circle><circle cx="38.605978257126274" cy="47.95862212777138" r="2" style="fill: steelblue;"></circle><circle cx="53.540783789422775" cy="35.99313911464479" r="2" style="fill: steelblue;"></circle><circle cx="33.32521534628338" cy="71.92096379068163" r="2" style="fill: steelblue;"></circle><circle cx="11.546203825208877" cy="73.44816724459331" r="2" style="fill: steelblue;"></circle><circle cx="41.3460623472929" cy="58.614211943414475" r="2" style="fill: steelblue;"></circle><circle cx="28.70036926534441" cy="58.307046857145096" r="2" style="fill: steelblue;"></circle><circle cx="31.195321182409923" cy="30.511564016342163" r="2" style="fill: steelblue;"></circle><circle cx="63.00706929630704" cy="72.08258840772841" r="2" style="fill: steelblue;"></circle><circle cx="73.47629070281982" cy="35.606036749151016" r="2" style="fill: steelblue;"></circle><circle cx="10.117748710844253" cy="37.23836541175842" r="2" style="fill: steelblue;"></circle><circle cx="1.1439614825778563" cy="68.08827254507277" r="2" style="fill: steelblue;"></circle><circle cx="10.393728150261774" cy="69.75965963469612" r="2" style="fill: steelblue;"></circle><circle cx="2.2410743766360834" cy="82.58210884200203" r="2" style="fill: steelblue;"></circle><circle cx="48.74586785833041" cy="39.046572893857956" r="2" style="fill: steelblue;"></circle><circle cx="27.97979381349352" cy="63.01334765222337" r="2" style="fill: steelblue;"></circle><circle cx="46.21445900864071" cy="82.32493797938028" r="2" style="fill: steelblue;"></circle><circle cx="23.387241032388477" cy="70.06224592526753" r="2" style="fill: steelblue;"></circle><circle cx="11.965926488240562" cy="91.50635136498344" r="2" style="fill: steelblue;"></circle><circle cx="69.84979179170396" cy="21.99528217315674" r="2" style="fill: steelblue;"></circle><circle cx="50.56806546118524" cy="39.356962425841225" r="2" style="fill: steelblue;"></circle><circle cx="63.064178824424744" cy="27.693573964966667" r="2" style="fill: steelblue;"></circle><circle cx="72.67478373315599" cy="15.629400147332085" r="2" style="fill: steelblue;"></circle><circle cx="37.901121046808036" cy="45.85444871336222" r="2" style="fill: steelblue;"></circle><circle cx="46.63975511988004" cy="40.13057152430216" r="2" style="fill: steelblue;"></circle><circle cx="68.8175982899136" cy="7.957441276974153" r="2" style="fill: steelblue;"></circle><circle cx="80.53730196423001" cy="16.696906089782715" r="2" style="fill: steelblue;"></circle><circle cx="18.514106008741592" cy="29.49337926175859" r="2" style="fill: steelblue;"></circle><circle cx="91.97492334577773" cy="21.06424437628852" r="2" style="fill: steelblue;"></circle><circle cx="75.57312581274245" cy="3.124895360734725" r="2" style="fill: steelblue;"></circle><circle cx="45.95065795713001" cy="35.58314939339956" r="2" style="fill: steelblue;"></circle><circle cx="65.08841547701094" cy="64.3183880382114" r="2" style="fill: steelblue;"></circle><circle cx="7.4041081799401205" cy="25.68423681788975" r="2" style="fill: steelblue;"></circle><circle cx="23.374684320555794" cy="56.0726930697759" r="2" style="fill: steelblue;"></circle><circle cx="34.3765667743153" cy="32.650975055164764" r="2" style="fill: steelblue;"></circle><circle cx="67.70790053738487" cy="29.393889175521004" r="2" style="fill: steelblue;"></circle><circle cx="31.41499741209878" cy="40.026582115226326" r="2" style="fill: steelblue;"></circle><circle cx="94.13756529490152" cy="27.81465417808957" r="2" style="fill: steelblue;"></circle><circle cx="79.48399517271254" cy="14.441717995537651" r="2" style="fill: steelblue;"></circle><circle cx="77.6839878824022" cy="17.54832201533848" r="2" style="fill: steelblue;"></circle><circle cx="87.66951759656271" cy="62.50630418459575" r="2" style="fill: steelblue;"></circle><circle cx="53.72821059491899" cy="61.366338862313164" r="2" style="fill: steelblue;"></circle><circle cx="58.8644802570343" cy="43.01541718757815" r="2" style="fill: steelblue;"></circle><circle cx="75.72275002797446" cy="53.215195900864074" r="2" style="fill: steelblue;"></circle><circle cx="83.03024967511496" cy="22.457266185018753" r="2" style="fill: steelblue;"></circle><circle cx="41.39731406337685" cy="37.428444623947144" r="2" style="fill: steelblue;"></circle><circle cx="19.099834230211048" cy="16.14013910293579" r="2" style="fill: steelblue;"></circle><circle cx="67.22830832004547" cy="71.98464804225497" r="2" style="fill: steelblue;"></circle><circle cx="35.15113741159439" cy="23.643638690312706" r="2" style="fill: steelblue;"></circle><circle cx="58.51631462574005" cy="45.671893345812954" r="2" style="fill: steelblue;"></circle><circle cx="63.41206298934089" cy="36.02932492891947" r="2" style="fill: steelblue;"></circle><circle cx="55.03198934925927" cy="73.29689065615337" r="2" style="fill: steelblue;"></circle><circle cx="56.9945815536711" cy="24.307238724496628" r="2" style="fill: steelblue;"></circle><circle cx="62.282260258992515" cy="40.639531860748924" r="2" style="fill: steelblue;"></circle><circle cx="65.16723599698808" cy="36.15096559127172" r="2" style="fill: steelblue;"></circle><circle cx="41.36372829476993" cy="38.79266538553768" r="2" style="fill: steelblue;"></circle><circle cx="62.41334742969937" cy="46.624363669090805" r="2" style="fill: steelblue;"></circle><circle cx="66.57117207845053" cy="52.01226075490316" r="2" style="fill: steelblue;"></circle><circle cx="61.72122657299042" cy="25.631720158788895" r="2" style="fill: steelblue;"></circle><circle cx="34.16183690230052" cy="26.532116201188828" r="2" style="fill: steelblue;"></circle><circle cx="34.15475388367971" cy="62.56700654824574" r="2" style="fill: steelblue;"></circle><circle cx="54.519495368003845" cy="60.70038775602977" r="2" style="fill: steelblue;"></circle><circle cx="30.824113388856254" cy="49.45237164696058" r="2" style="fill: steelblue;"></circle><circle cx="16.853439476754932" cy="75.44130351808336" r="2" style="fill: steelblue;"></circle><circle cx="37.35419048203363" cy="45.88672493894895" r="2" style="fill: steelblue;"></circle><circle cx="51.67142318354713" cy="63.52908346388075" r="2" style="fill: steelblue;"></circle></g></svg>