<svg xmlns="http://www.w3.org/2000/svg"><g><circle cx="25.012595951557167" cy="170.45924067497253" r="2" style="fill: steelblue;"></circle><circle cx="108.42343829572201" cy="139.30042386054993" r="2" style="fill: steelblue;"></circle><circle cx="98.50210826843977" cy="80.59520274400711" r="2" style="fill: steelblue;"></circle><circle cx="6.651772558689123" cy="117.89080500602722" r="2" style="fill: steelblue;"></circle><circle cx="4.6742245554924065" cy="87.23943382501602" r="2" style="fill: steelblue;"></circle><circle cx="6.269006431102758" cy="165.8960998058319" r="2" style="fill: steelblue;"></circle><circle cx="60.74187755584717" cy="100.455635599792" r="2" style="fill: steelblue;"></circle><circle cx="80.18709942698479" cy="84.15102809667587" r="2" style="fill: steelblue;"></circle><circle cx="83.45174081623554" cy="130.58470785617828" r="2" style="fill: steelblue;"></circle><circle cx="83.87926816940308" cy="130.8000087738037" r="2" style="fill: steelblue;"></circle><circle cx="88.61848842352629" cy="124.25718009471893" r="2" style="fill: steelblue;"></circle><circle cx="78.69432345032692" cy="108.90614241361618" r="2" style="fill: steelblue;"></circle><circle cx="67.08064153790474" cy="109.70536395907402" r="2" style="fill: steelblue;"></circle><circle cx="93.5410562902689" cy="153.32382917404175" r="2" style="fill: steelblue;"></circle><circle cx="60.59328317642212" cy="91.16427823901176" r="2" style="fill: steelblue;"></circle><circle cx="90.20470678806305" cy="170.46836018562317" r="2" style="fill: steelblue;"></circle><circle cx="106.79453834891319" cy="146.37718498706818" r="2" style="fill: steelblue;"></circle><circle cx="66.70396625995636" cy="65.41146636009216" r="2" style="fill: steelblue;"></circle><circle cx="45.10668516159058" cy="98.89811789616942" r="2" style="fill: steelblue;"></circle><circle cx="94.97425695881248" cy="42.173832654953" r="2" style="fill: steelblue;"></circle><circle cx="62.5227190554142" cy="100.66833915188909" r="2" style="fill: steelblue;"></circle><circle cx="144.08251866698265" cy="90.88694900274277" r="2" style="fill: steelblue;"></circle><circle cx="72.34299778938293" cy="80.32214790582657" r="2" style="fill: steelblue;"></circle><circle cx="48.686681687831886" cy="142.99983382225037" r="2" style="fill: steelblue;"></circle><circle cx="50.7937915623188" cy="77.35662311315536" r="2" style="fill: steelblue;"></circle><circle cx="130.4622296243906" cy="139.83899652957916" r="2" style="fill: steelblue;"></circle><circle cx="58.72705429792404" cy="120.76044976711273" r="2" style="fill: steelblue;"></circle><circle cx="78.47501374781132" cy="120.64676135778427" r="2" style="fill: steelblue;"></circle><circle cx="138.22074830532074" cy="152.42376327514648" r="2" style="fill: steelblue;"></circle><circle cx="144.70576718449593" cy="91.2389762699604" r="2" style="fill: steelblue;"></circle><circle cx="116.20440743863583" cy="54.91730570793152" r="2" style="fill: steelblue;"></circle><circle cx="159.8992481827736" cy="56.994253396987915" r="2" style="fill: steelblue;"></circle><circle cx="113.86734005063772" cy="37.253767251968384" r="2" style="fill: steelblue;"></circle><circle cx="102.44455528445542" cy="105.10114133358002" r="2" style="fill: steelblue;"></circle><circle cx="92.97796422615647" cy="89.80052843689919" r="2" style="fill: steelblue;"></circle><circle cx="95.60536025092006" cy="116.13259762525558" r="2" style="fill: steelblue;"></circle><circle cx="91.18260852992535" cy="98.09270687401295" r="2" style="fill: steelblue;"></circle><circle cx="55.10499179363251" cy="135.1771503686905" r="2" style="fill: steelblue;"></circle><circle cx="26.31975561380387" cy="160.9239161014557" r="2" style="fill: steelblue;"></circle><circle cx="31.87223374843598" cy="157.74719715118408" r="2" style="fill: steelblue;"></circle><circle cx="56.768009811639786" cy="181.0862958431244" r="2" style="fill: steelblue;"></circle><circle cx="183.32323282957077" cy="69.68909800052643" r="2" style="fill: steelblue;"></circle><circle cx="74.65416043996811" cy="152.1722674369812" r="2" style="fill: steelblue;"></circle><circle cx="89.41981513053179" cy="74.99395310878754" r="2" style="fill: steelblue;"></circle><circle cx="120.10545320808887" cy="63.617682456970215" r="2" style="fill: steelblue;"></circle><circle cx="132.41559863090515" cy="72.43078351020813" r="2" style="fill: steelblue;"></circle><circle cx="146.160951256752" cy="48.266106843948364" r="2" style="fill: steelblue;"></circle><circle cx="47.11743667721749" cy="145.36895155906677" r="2" style="fill: steelblue;"></circle><circle cx="143.3029681444168" cy="146.82939648628235" r="2" style="fill: steelblue;"></circle><circle cx="147.77255281805992" cy="131.00011944770813" r="2" style="fill: steelblue;"></circle><circle cx="119.69005726277828" cy="83.08305889368057" r="2" style="fill: steelblue;"></circle><circle cx="82.81716927886009" cy="53.662851452827454" r="2" style="fill: steelblue;"></circle><circle cx="71.28831408917904" cy="73.9229291677475" r="2" style="fill: steelblue;"></circle><circle cx="135.98755970597267" cy="124.49502646923065" r="2" style="fill: steelblue;"></circle><circle cx="39.06699493527413" cy="104.83143888413906" r="2" style="fill: steelblue;"></circle><circle cx="46.23214378952981" cy="90.2801863849163" r="2" style="fill: steelblue;"></circle><circle cx="158.17869678139687" cy="93.69649589061737" r="2" style="fill: steelblue;"></circle><circle cx="101.01524218916893" cy="145.95578908920288" r="2" style="fill: steelblue;"></circle><circle cx="75.87820887565613" cy="111.1641101539135" r="2" style="fill: steelblue;"></circle><circle cx="115.31618181616068" cy="122.94916063547134" r="2" style="fill: steelblue;"></circle><circle cx="92.88907693699002" cy="85.96767336130142" r="2" style="fill: steelblue;"></circle><circle cx="56.68616145849228" cy="115.95711708068848" r="2" style="fill: steelblue;"></circle><circle cx="87.42732591927052" cy="167.32608675956726" r="2" style="fill: steelblue;"></circle><circle cx="31.201227009296424" cy="168.05702447891235" r="2" style="fill: steelblue;"></circle><circle cx="105.4161068983376" cy="137.00471222400665" r="2" style="fill: steelblue;"></circle><circle cx="37.50235810875893" cy="118.98143142461777" r="2" style="fill: steelblue;"></circle><circle cx="37.69376352429391" cy="147.1477895975113" r="2" style="fill: steelblue;"></circle><circle cx="42.142743617296226" cy="118.98365020751953" r="2" style="fill: steelblue;"></circle><circle cx="95.1847936026752" cy="161.57943606376648" r="2" style="fill: steelblue;"></circle><circle cx="45.20027190446854" cy="130.10201156139374" r="2" style="fill: steelblue;"></circle><circle cx="50.340643525123596" cy="159.13575887680054" r="2" style="fill: steelblue;"></circle><circle cx="134.7658358514309" cy="94.83472965657711" r="2" style="fill: steelblue;"></circle><circle cx="146.87412083148956" cy="82.89880007505417" r="2" style="fill: steelblue;"></circle><circle cx="67.57311746478081" cy="55.458906292915344" r="2" style="fill: steelblue;"></circle><circle cx="106.28981878980994" cy="67.9332822561264" r="2" style="fill: steelblue;"></circle><circle cx="94.46831829845905" cy="131.3226878643036" r="2" style="fill: steelblue;"></circle><circle cx="131.23280219733715" cy="71.79155349731445" r="2" style="fill: steelblue;"></circle><circle cx="70.16076184809208" cy="61.39064431190491" r="2" style="fill: steelblue;"></circle><circle cx="138.59204053878784" cy="62.99044191837311" r="2" style="fill: steelblue;"></circle><circle cx="143.05439442396164" cy="45.609062910079956" r="2" style="fill: steelblue;"></circle><circle cx="105.26500446721911" cy="33.27428698539734" r="2" style="fill: steelblue;"></circle><circle cx="178.56489717960358" cy="41.61272048950195" r="2" style="fill: steelblue;"></circle><circle cx="104.30289283394814" cy="97.11041450500488" r="2" style="fill: steelblue;"></circle><circle cx="106.78781187161803" cy="121.66611552238464" r="2" style="fill: steelblue;"></circle><circle cx="84.76056940853596" cy="129.7268271446228" r="2" style="fill: steelblue;"></circle><circle cx="84.96582359075546" cy="96.68305963277817" r="2" style="fill: steelblue;"></circle><circle cx="91.07518792152405" cy="113.21838051080704" r="2" style="fill: steelblue;"></circle><circle cx="81.92010633647442" cy="130.92755675315857" r="2" style="fill: steelblue;"></circle><circle cx="97.1900584641844" cy="138.89013528823853" r="2" style="fill: steelblue;"></circle><circle cx="104.15470264852047" cy="64.01282250881195" r="2" style="fill: steelblue;"></circle><circle cx="166.68204069137573" cy="76.84262096881866" r="2" style="fill: steelblue;"></circle><circle cx="118.98211054503918" cy="16.020172834396362" r="2" style="fill: steelblue;"></circle><circle cx="120.16099914908409" cy="28.58259081840515" r="2" style="fill: steelblue;"></circle><circle cx="134.42218154668808" cy="81.91955089569092" r="2" style="fill: steelblue;"></circle><circle cx="95.34445768222213" cy="80.48568964004517" r="2" style="fill: steelblue;"></circle><circle cx="168.21834295988083" cy="91.55740886926651" r="2" style="fill: steelblue;"></circle><circle cx="159.01585146784782" cy="49.32417869567871" r="2" style="fill: steelblue;"></circle><circle cx="159.5426708459854" cy="39.175933599472046" r="2" style="fill: steelblue;"></circle><circle cx="108.23293626308441" cy="78.26052904129028" r="2" style="fill: steelblue;"></circle><circle cx="100.78927050344646" cy="88.49257528781891" r="2" style="fill: steelblue;"></circle><circle cx="147.269307076931" cy="95.4189483076334" r="2" style="fill: steelblue;"></circle><circle cx="124.07658658921719" cy="118.26998293399811" r="2" style="fill: steelblue;"></circle><circle cx="143.106060475111" cy="88.67106661200523" r="2" style="fill: steelblue;"></circle><circle cx="128.91557849943638" cy="26.80906653404236" r="2" style="fill: steelblue;"></circle><circle cx="140.6883805990219" cy="125.95449388027191" r="2" style="fill: steelblue;"></circle><circle cx="73.43834117054939" cy="64.63482975959778" r="2" style="fill: steelblue;"></circle><circle cx="124.560971185565" cy="55.975550413131714" r="2" style="fill: steelblue;"></circle><circle cx="141.6056178510189" cy="44.40698027610779" r="2" style="fill: steelblue;"></circle><circle cx="173.40165972709656" cy="70.3262448310852" r="2" style="fill: steelblue;"></circle><circle cx="99.86593617359176" cy="81.86580687761307" r="2" style="fill: steelblue;"></circle><circle cx="184.6283808350563" cy="35.8454167842865" r="2" style="fill: steelblue;"></circle><circle cx="82.71850310266018" cy="128.17749977111816" r="2" style="fill: steelblue;"></circle><circle cx="29.697386920452125" cy="142.9692566394806" r="2" style="fill: steelblue;"></circle><circle cx="47.500955313444145" cy="137.17981278896332" r="2" style="fill: steelblue;"></circle><circle cx="78.01111452281475" cy="96.83419354259968" r="2" style="fill: steelblue;"></circle><circle cx="43.98716092109681" cy="69.89159286022186" r="2" style="fill: steelblue;"></circle><circle cx="36.34914606809617" cy="79.91863191127777" r="2" style="fill: steelblue;"></circle><circle cx="33.481663465499885" cy="149.90828037261963" r="2" style="fill: steelblue;"></circle></g></svg>