<svg xmlns="http://www.w3.org/2000/svg"><rect width="200" height="200" fill="white"></rect><g><circle cx="44.07401084899902" cy="155.16088008880615" r="2" style="fill: steelblue;"></circle><circle cx="80.6820660829544" cy="166.17728620767593" r="2" style="fill: steelblue;"></circle><circle cx="77.31635719537735" cy="92.01553221791983" r="2" style="fill: steelblue;"></circle><circle cx="91.9319823384285" cy="141.37863591313362" r="2" style="fill: steelblue;"></circle><circle cx="82.33806490898132" cy="168.9161792397499" r="2" style="fill: steelblue;"></circle><circle cx="47.29112386703491" cy="109.16293542832136" r="2" style="fill: steelblue;"></circle><circle cx="127.3895263671875" cy="138.9871597290039" r="2" style="fill: steelblue;"></circle><circle cx="112.68046945333481" cy="189.89330381155014" r="2" style="fill: steelblue;"></circle><circle cx="88.28495517373085" cy="141.8611280620098" r="2" style="fill: steelblue;"></circle><circle cx="109.23110842704773" cy="148.88495430350304" r="2" style="fill: steelblue;"></circle><circle cx="44.08684968948364" cy="130.7536330074072" r="2" style="fill: steelblue;"></circle><circle cx="70.35255134105682" cy="76.83318704366684" r="2" style="fill: steelblue;"></circle><circle cx="17.51801371574402" cy="130.2406121045351" r="2" style="fill: steelblue;"></circle><circle cx="75.68145394325256" cy="90.33271335065365" r="2" style="fill: steelblue;"></circle><circle cx="113.98445069789886" cy="162.3643510043621" r="2" style="fill: steelblue;"></circle><circle cx="52.31924057006836" cy="139.78559002280235" r="2" style="fill: steelblue;"></circle><circle cx="55.94696402549744" cy="72.74463437497616" r="2" style="fill: steelblue;"></circle><circle cx="84.21896547079086" cy="123.07642623782158" r="2" style="fill: steelblue;"></circle><circle cx="136.92957162857056" cy="117.28104054927826" r="2" style="fill: steelblue;"></circle><circle cx="118.4962511062622" cy="40.71919471025467" r="2" style="fill: steelblue;"></circle><circle cx="116.2491574883461" cy="65.58215841650963" r="2" style="fill: steelblue;"></circle><circle cx="121.91863805055618" cy="117.83194579184055" r="2" style="fill: steelblue;"></circle><circle cx="89.201270788908" cy="144.8274500668049" r="2" style="fill: steelblue;"></circle><circle cx="92.89235845208168" cy="143.2848446071148" r="2" style="fill: steelblue;"></circle><circle cx="113.49177658557892" cy="157.74693563580513" r="2" style="fill: steelblue;"></circle><circle cx="56.96200132369995" cy="183.77107232809067" r="2" style="fill: steelblue;"></circle><circle cx="59.548839926719666" cy="144.97119411826134" r="2" style="fill: steelblue;"></circle><circle cx="44.14306282997131" cy="94.42638177424669" r="2" style="fill: steelblue;"></circle><circle cx="114.1444444656372" cy="179.4968605041504" r="2" style="fill: steelblue;"></circle><circle cx="99.54453725367785" cy="104.87057957798243" r="2" style="fill: steelblue;"></circle><circle cx="181.41441345214844" cy="46.60442695021629" r="2" style="fill: steelblue;"></circle><circle cx="180.0581395626068" cy="22.013603150844574" r="2" style="fill: steelblue;"></circle><circle cx="117.6959365606308" cy="62.952617555856705" r="2" style="fill: steelblue;"></circle><circle cx="111.47578582167625" cy="60.88312566280365" r="2" style="fill: steelblue;"></circle><circle cx="117.56418645381927" cy="69.26894783973694" r="2" style="fill: steelblue;"></circle><circle cx="88.90466168522835" cy="49.86850395798683" r="2" style="fill: steelblue;"></circle><circle cx="60.020360350608826" cy="65.9898392856121" r="2" style="fill: steelblue;"></circle><circle cx="70.21685540676117" cy="113.36106844246387" r="2" style="fill: steelblue;"></circle><circle cx="75.89528560638428" cy="161.21644750237465" r="2" style="fill: steelblue;"></circle><circle cx="63.936132192611694" cy="161.76239997148514" r="2" style="fill: steelblue;"></circle><circle cx="74.73720014095306" cy="99.48464997578412" r="2" style="fill: steelblue;"></circle><circle cx="110.71023046970367" cy="134.19728204607964" r="2" style="fill: steelblue;"></circle><circle cx="133.37795436382294" cy="15.108054876327515" r="2" style="fill: steelblue;"></circle><circle cx="86.66754812002182" cy="76.26281715929508" r="2" style="fill: steelblue;"></circle><circle cx="106.31256625056267" cy="57.017045468091965" r="2" style="fill: steelblue;"></circle><circle cx="58.66023600101471" cy="113.94324004650116" r="2" style="fill: steelblue;"></circle><circle cx="130.37839233875275" cy="94.29711326956749" r="2" style="fill: steelblue;"></circle><circle cx="65.52698910236359" cy="34.635281562805176" r="2" style="fill: steelblue;"></circle><circle cx="54.84265685081482" cy="145.14891281723976" r="2" style="fill: steelblue;"></circle><circle cx="74.3016391992569" cy="138.09282928705215" r="2" style="fill: steelblue;"></circle><circle cx="68.95987689495087" cy="89.50494825839996" r="2" style="fill: steelblue;"></circle><circle cx="124.25885945558548" cy="85.92202924191952" r="2" style="fill: steelblue;"></circle><circle cx="114.33063745498657" cy="65.68775922060013" r="2" style="fill: steelblue;"></circle><circle cx="101.36386938393116" cy="46.12585753202438" r="2" style="fill: steelblue;"></circle><circle cx="84.11596864461899" cy="125.85951052606106" r="2" style="fill: steelblue;"></circle><circle cx="74.30380582809448" cy="184.79484915733337" r="2" style="fill: steelblue;"></circle><circle cx="71.63833379745483" cy="179.70796525478363" r="2" style="fill: steelblue;"></circle><circle cx="88.39570358395576" cy="87.25109361112118" r="2" style="fill: steelblue;"></circle><circle cx="64.53750729560852" cy="136.81528195738792" r="2" style="fill: steelblue;"></circle><circle cx="59.82968211174011" cy="118.96839775145054" r="2" style="fill: steelblue;"></circle><circle cx="41.2207305431366" cy="108.63450579345226" r="2" style="fill: steelblue;"></circle><circle cx="90.52017703652382" cy="33.61365795135498" r="2" style="fill: steelblue;"></circle><circle cx="46.49754762649536" cy="180.41411638259888" r="2" style="fill: steelblue;"></circle><circle cx="91.41287431120872" cy="155.097546428442" r="2" style="fill: steelblue;"></circle><circle cx="73.89123439788818" cy="92.42248432710767" r="2" style="fill: steelblue;"></circle><circle cx="35.70221662521362" cy="71.84170596301556" r="2" style="fill: steelblue;"></circle><circle cx="103.19547615945339" cy="106.93051191046834" r="2" style="fill: steelblue;"></circle><circle cx="95.44904381036758" cy="171.59635424613953" r="2" style="fill: steelblue;"></circle><circle cx="52.430978417396545" cy="182.36510306596756" r="2" style="fill: steelblue;"></circle><circle cx="38.77807855606079" cy="105.60140004381537" r="2" style="fill: steelblue;"></circle><circle cx="146.05479836463928" cy="155.79886958003044" r="2" style="fill: steelblue;"></circle><circle cx="164.8117959499359" cy="42.85060465335846" r="2" style="fill: steelblue;"></circle><circle cx="125.15102624893188" cy="78.50332781672478" r="2" style="fill: steelblue;"></circle><circle cx="55.273979902267456" cy="48.82042706012726" r="2" style="fill: steelblue;"></circle><circle cx="90.64662083983421" cy="65.44473245739937" r="2" style="fill: steelblue;"></circle><circle cx="87.1641293168068" cy="100.82907540490851" r="2" style="fill: steelblue;"></circle><circle cx="82.96395242214203" cy="48.846038430929184" r="2" style="fill: steelblue;"></circle><circle cx="118.17272156476974" cy="58.862897008657455" r="2" style="fill: steelblue;"></circle><circle cx="136.9635045528412" cy="89.41477574408054" r="2" style="fill: steelblue;"></circle><circle cx="158.57748985290527" cy="101.33758143056184" r="2" style="fill: steelblue;"></circle><circle cx="138.30396234989166" cy="105.930470302701" r="2" style="fill: steelblue;"></circle><circle cx="86.06364279985428" cy="36.50773912668228" r="2" style="fill: steelblue;"></circle><circle cx="103.248580545187" cy="61.065154522657394" r="2" style="fill: steelblue;"></circle><circle cx="40.28975963592529" cy="152.31165140867233" r="2" style="fill: steelblue;"></circle><circle cx="78.04907113313675" cy="172.8205069899559" r="2" style="fill: steelblue;"></circle><circle cx="63.12820911407471" cy="131.35117515921593" r="2" style="fill: steelblue;"></circle><circle cx="78.88913750648499" cy="130.43681383132935" r="2" style="fill: steelblue;"></circle><circle cx="72.86158800125122" cy="64.57988396286964" r="2" style="fill: steelblue;"></circle><circle cx="148.77282977104187" cy="133.11702236533165" r="2" style="fill: steelblue;"></circle><circle cx="65.97028374671936" cy="72.02233970165253" r="2" style="fill: steelblue;"></circle><circle cx="124.70830231904984" cy="60.13178303837776" r="2" style="fill: steelblue;"></circle><circle cx="75.9602040052414" cy="64.85781669616699" r="2" style="fill: steelblue;"></circle><circle cx="138.9308363199234" cy="67.84631535410881" r="2" style="fill: steelblue;"></circle><circle cx="139.0523374080658" cy="39.30096551775932" r="2" style="fill: steelblue;"></circle><circle cx="154.77923154830933" cy="54.03672382235527" r="2" style="fill: steelblue;"></circle><circle cx="162.05328702926636" cy="21.139322221279144" r="2" style="fill: steelblue;"></circle><circle cx="131.02003931999207" cy="29.59929257631302" r="2" style="fill: steelblue;"></circle><circle cx="121.49890214204788" cy="53.911714255809784" r="2" style="fill: steelblue;"></circle><circle cx="111.66993752121925" cy="85.79735495150089" r="2" style="fill: steelblue;"></circle><circle cx="63.688746094703674" cy="65.14277905225754" r="2" style="fill: steelblue;"></circle><circle cx="126.56920850276947" cy="18.20552945137024" r="2" style="fill: steelblue;"></circle><circle cx="124.42058324813843" cy="82.14737139642239" r="2" style="fill: steelblue;"></circle><circle cx="113.79440128803253" cy="51.16446539759636" r="2" style="fill: steelblue;"></circle><circle cx="107.94870853424072" cy="112.94311136007309" r="2" style="fill: steelblue;"></circle><circle cx="116.27052873373032" cy="110.86629368364811" r="2" style="fill: steelblue;"></circle><circle cx="165.6076967716217" cy="83.52148197591305" r="2" style="fill: steelblue;"></circle><circle cx="122.56791442632675" cy="88.44848945736885" r="2" style="fill: steelblue;"></circle><circle cx="87.48174905776978" cy="114.88176360726357" r="2" style="fill: steelblue;"></circle><circle cx="130.24719059467316" cy="78.44504006206989" r="2" style="fill: steelblue;"></circle><circle cx="86.81780248880386" cy="80.91165348887444" r="2" style="fill: steelblue;"></circle><circle cx="164.05451893806458" cy="37.663521617650986" r="2" style="fill: steelblue;"></circle><circle cx="129.5654147863388" cy="63.674310594797134" r="2" style="fill: steelblue;"></circle><circle cx="100.1591278705746" cy="107.01999524608254" r="2" style="fill: steelblue;"></circle><circle cx="75.51810890436172" cy="162.00572848320007" r="2" style="fill: steelblue;"></circle><circle cx="55.11413514614105" cy="180.2736058831215" r="2" style="fill: steelblue;"></circle><circle cx="67.59956479072571" cy="79.36909832060337" r="2" style="fill: steelblue;"></circle><circle cx="97.22795598208904" cy="164.4480362534523" r="2" style="fill: steelblue;"></circle><circle cx="55.16597628593445" cy="90.45514594763517" r="2" style="fill: steelblue;"></circle></g></svg>