<svg xmlns="http://www.w3.org/2000/svg"><rect width="200" height="200" fill="white"></rect><g><circle cx="55.42037222120497" cy="144.57962777879501" r="2" style="fill: steelblue;"></circle><circle cx="58.31903550359938" cy="141.6809644964006" r="2" style="fill: steelblue;"></circle><circle cx="155.2445458041297" cy="44.7554541958703" r="2" style="fill: steelblue;"></circle><circle cx="109.6306409065922" cy="90.3693590934078" r="2" style="fill: steelblue;"></circle><circle cx="69.499800602595" cy="130.500199397405" r="2" style="fill: steelblue;"></circle><circle cx="94.91246773136986" cy="105.08753226863013" r="2" style="fill: steelblue;"></circle><circle cx="64.08457623587715" cy="135.91542376412286" r="2" style="fill: steelblue;"></circle><circle cx="91.68838626808589" cy="108.3116137319141" r="2" style="fill: steelblue;"></circle><circle cx="85.5561527940962" cy="114.4438472059038" r="2" style="fill: steelblue;"></circle><circle cx="117.09756362769339" cy="82.90243637230661" r="2" style="fill: steelblue;"></circle><circle cx="65.98971949683296" cy="134.01028050316705" r="2" style="fill: steelblue;"></circle><circle cx="156.93245662583243" cy="43.06754337416756" r="2" style="fill: steelblue;"></circle><circle cx="67.55664282374912" cy="132.44335717625088" r="2" style="fill: steelblue;"></circle><circle cx="43.757471773359505" cy="156.24252822664047" r="2" style="fill: steelblue;"></circle><circle cx="105.36312891377342" cy="94.63687108622658" r="2" style="fill: steelblue;"></circle><circle cx="99.0307049618827" cy="100.96929503811731" r="2" style="fill: steelblue;"></circle><circle cx="106.39495568142996" cy="93.60504431857004" r="2" style="fill: steelblue;"></circle><circle cx="144.92866065767075" cy="55.07133934232924" r="2" style="fill: steelblue;"></circle><circle cx="172.01274633407593" cy="27.987253665924072" r="2" style="fill: steelblue;"></circle><circle cx="159.94598468144733" cy="40.05401531855266" r="2" style="fill: steelblue;"></circle><circle cx="84.65699851512909" cy="115.34300148487091" r="2" style="fill: steelblue;"></circle><circle cx="165.53258895874023" cy="34.467411041259766" r="2" style="fill: steelblue;"></circle><circle cx="45.10208633210924" cy="154.89791366789078" r="2" style="fill: steelblue;"></circle><circle cx="81.33717709117465" cy="118.66282290882535" r="2" style="fill: steelblue;"></circle><circle cx="99.78222515847948" cy="100.21777484152052" r="2" style="fill: steelblue;"></circle><circle cx="116.47541696826617" cy="83.52458303173383" r="2" style="fill: steelblue;"></circle><circle cx="116.94269296195772" cy="83.05730703804228" r="2" style="fill: steelblue;"></circle><circle cx="62.00498673650954" cy="137.99501326349045" r="2" style="fill: steelblue;"></circle><circle cx="65.89057710435655" cy="134.10942289564346" r="2" style="fill: steelblue;"></circle><circle cx="102.99565394719441" cy="97.00434605280559" r="2" style="fill: steelblue;"></circle><circle cx="162.88113925192093" cy="37.118860748079086" r="2" style="fill: steelblue;"></circle><circle cx="166.6487157344818" cy="33.35128426551819" r="2" style="fill: steelblue;"></circle><circle cx="114.51552187403043" cy="85.48447812596957" r="2" style="fill: steelblue;"></circle><circle cx="115.94328946537442" cy="84.05671053462558" r="2" style="fill: steelblue;"></circle><circle cx="129.00369034873114" cy="70.99630965126886" r="2" style="fill: steelblue;"></circle><circle cx="89.53238195843166" cy="110.46761804156833" r="2" style="fill: steelblue;"></circle><circle cx="50.83972877926296" cy="149.16027122073703" r="2" style="fill: steelblue;"></circle><circle cx="50.929433769649926" cy="149.07056623035007" r="2" style="fill: steelblue;"></circle><circle cx="44.80048020680745" cy="155.19951979319256" r="2" style="fill: steelblue;"></circle><circle cx="67.61839985847473" cy="132.38160014152527" r="2" style="fill: steelblue;"></circle><circle cx="84.8110169172287" cy="115.1889830827713" r="2" style="fill: steelblue;"></circle><circle cx="177.4100661277771" cy="22.5899338722229" r="2" style="fill: steelblue;"></circle><circle cx="92.32921567228105" cy="107.67078432771895" r="2" style="fill: steelblue;"></circle><circle cx="130.93385928206973" cy="69.06614071793027" r="2" style="fill: steelblue;"></circle><circle cx="162.07746664683023" cy="37.922533353169776" r="2" style="fill: steelblue;"></circle><circle cx="114.09624252054427" cy="85.90375747945573" r="2" style="fill: steelblue;"></circle><circle cx="151.69490377108255" cy="48.305096228917456" r="2" style="fill: steelblue;"></circle><circle cx="74.93129372596741" cy="125.06870627403259" r="2" style="fill: steelblue;"></circle><circle cx="106.20418356524573" cy="93.79581643475427" r="2" style="fill: steelblue;"></circle><circle cx="54.39390738805135" cy="145.60609261194864" r="2" style="fill: steelblue;"></circle><circle cx="85.3299448887507" cy="114.6700551112493" r="2" style="fill: steelblue;"></circle><circle cx="145.5985638830397" cy="54.40143611696031" r="2" style="fill: steelblue;"></circle><circle cx="114.26584877901607" cy="85.73415122098393" r="2" style="fill: steelblue;"></circle><circle cx="104.08275574445724" cy="95.91724425554276" r="2" style="fill: steelblue;"></circle><circle cx="128.01372177071042" cy="71.98627822928958" r="2" style="fill: steelblue;"></circle><circle cx="56.15807241863674" cy="143.84192758136325" r="2" style="fill: steelblue;"></circle><circle cx="53.10366551081339" cy="146.89633448918661" r="2" style="fill: steelblue;"></circle><circle cx="82.77157611317104" cy="117.22842388682895" r="2" style="fill: steelblue;"></circle><circle cx="83.3859062857098" cy="116.61409371429019" r="2" style="fill: steelblue;"></circle><circle cx="138.97687196731567" cy="61.023128032684326" r="2" style="fill: steelblue;"></circle><circle cx="55.83482318454318" cy="144.16517681545682" r="2" style="fill: steelblue;"></circle><circle cx="128.78792650169797" cy="71.21207349830203" r="2" style="fill: steelblue;"></circle><circle cx="125.52326917648315" cy="74.47673082351685" r="2" style="fill: steelblue;"></circle><circle cx="63.82345490985446" cy="136.17654509014554" r="2" style="fill: steelblue;"></circle><circle cx="60.48068073060777" cy="139.51931926939224" r="2" style="fill: steelblue;"></circle><circle cx="34.83578231599596" cy="165.16421768400406" r="2" style="fill: steelblue;"></circle><circle cx="121.90685421228409" cy="78.09314578771591" r="2" style="fill: steelblue;"></circle><circle cx="73.97330469555324" cy="126.02669530444675" r="2" style="fill: steelblue;"></circle><circle cx="35.350124041239425" cy="164.64987595876056" r="2" style="fill: steelblue;"></circle><circle cx="59.87550814946493" cy="140.12449185053507" r="2" style="fill: steelblue;"></circle><circle cx="16.987297270033093" cy="183.0127027299669" r="2" style="fill: steelblue;"></circle><circle cx="156.00943565368652" cy="43.99056434631348" r="2" style="fill: steelblue;"></circle><circle cx="121.28607514831755" cy="78.71392485168245" r="2" style="fill: steelblue;"></circle><circle cx="144.61285207006668" cy="55.387147929933334" r="2" style="fill: steelblue;"></circle><circle cx="168.74119970533584" cy="31.25880029466417" r="2" style="fill: steelblue;"></circle><circle cx="108.29110257327557" cy="91.70889742672443" r="2" style="fill: steelblue;"></circle><circle cx="119.73885695139568" cy="80.26114304860432" r="2" style="fill: steelblue;"></circle><circle cx="184.0851174460517" cy="15.914882553948306" r="2" style="fill: steelblue;"></circle><circle cx="166.60618782043457" cy="33.39381217956543" r="2" style="fill: steelblue;"></circle><circle cx="141.01324147648282" cy="58.98675852351718" r="2" style="fill: steelblue;"></circle><circle cx="157.87151124742294" cy="42.12848875257704" r="2" style="fill: steelblue;"></circle><circle cx="193.75020927853055" cy="6.24979072146945" r="2" style="fill: steelblue;"></circle><circle cx="128.83370121320087" cy="71.16629878679912" r="2" style="fill: steelblue;"></circle><circle cx="71.3632239235772" cy="128.6367760764228" r="2" style="fill: steelblue;"></circle><circle cx="148.6315263642205" cy="51.3684736357795" r="2" style="fill: steelblue;"></circle><circle cx="87.8546138604482" cy="112.1453861395518" r="2" style="fill: steelblue;"></circle><circle cx="134.69804988967047" cy="65.30195011032953" r="2" style="fill: steelblue;"></circle><circle cx="141.21222164895798" cy="58.78777835104201" r="2" style="fill: steelblue;"></circle><circle cx="119.94683576954735" cy="80.05316423045265" r="2" style="fill: steelblue;"></circle><circle cx="144.37069164382086" cy="55.62930835617914" r="2" style="fill: steelblue;"></circle><circle cx="171.1165640089247" cy="28.883435991075302" r="2" style="fill: steelblue;"></circle><circle cx="164.90335596932303" cy="35.09664403067696" r="2" style="fill: steelblue;"></circle><circle cx="74.9873916308085" cy="125.0126083691915" r="2" style="fill: steelblue;"></circle><circle cx="77.26732227537367" cy="122.73267772462633" r="2" style="fill: steelblue;"></circle><circle cx="113.9691656248437" cy="86.0308343751563" r="2" style="fill: steelblue;"></circle><circle cx="93.56960819827187" cy="106.43039180172815" r="2" style="fill: steelblue;"></circle><circle cx="155.0854676299625" cy="44.914532370037506" r="2" style="fill: steelblue;"></circle><circle cx="125.14311075210571" cy="74.85688924789429" r="2" style="fill: steelblue;"></circle><circle cx="167.71972179412842" cy="32.28027820587158" r="2" style="fill: steelblue;"></circle><circle cx="56.030703915490044" cy="143.96929608450995" r="2" style="fill: steelblue;"></circle><circle cx="152.71272261937457" cy="47.28727738062541" r="2" style="fill: steelblue;"></circle><circle cx="108.65621330837409" cy="91.34378669162591" r="2" style="fill: steelblue;"></circle><circle cx="127.94135014216106" cy="72.05864985783894" r="2" style="fill: steelblue;"></circle><circle cx="53.406218687693276" cy="146.59378131230673" r="2" style="fill: steelblue;"></circle><circle cx="151.38552255100674" cy="48.614477448993256" r="2" style="fill: steelblue;"></circle><circle cx="118.72093627850215" cy="81.27906372149785" r="2" style="fill: steelblue;"></circle><circle cx="127.69806881745656" cy="72.30193118254344" r="2" style="fill: steelblue;"></circle><circle cx="122.41466922892464" cy="77.58533077107536" r="2" style="fill: steelblue;"></circle><circle cx="106.75127266181839" cy="93.24872733818161" r="2" style="fill: steelblue;"></circle><circle cx="95.97547849019368" cy="104.02452150980632" r="2" style="fill: steelblue;"></circle><circle cx="148.7365596824222" cy="51.26344031757779" r="2" style="fill: steelblue;"></circle><circle cx="146.93576759762234" cy="53.064232402377655" r="2" style="fill: steelblue;"></circle><circle cx="74.86598690350851" cy="125.13401309649149" r="2" style="fill: steelblue;"></circle><circle cx="78.59922448794046" cy="121.40077551205954" r="2" style="fill: steelblue;"></circle><circle cx="101.09525670607884" cy="98.90474329392116" r="2" style="fill: steelblue;"></circle><circle cx="49.117392963833275" cy="150.88260703616672" r="2" style="fill: steelblue;"></circle><circle cx="108.2265501221021" cy="91.7734498778979" r="2" style="fill: steelblue;"></circle><circle cx="72.9418330722385" cy="127.0581669277615" r="2" style="fill: steelblue;"></circle></g></svg>