<svg xmlns="http://www.w3.org/2000/svg"><g transform="translate(40,20)"><circle cx="276.51744425296783" cy="79.20921053737402" r="3" style="fill: steelblue;"></circle><circle cx="329.87642526626587" cy="178.15300980582833" r="3" style="fill: steelblue;"></circle><circle cx="158.81517469882968" cy="125.46361349523067" r="3" style="fill: steelblue;"></circle><circle cx="237.49621599912646" cy="200.08052601478994" r="3" style="fill: steelblue;"></circle><circle cx="342.61322557926184" cy="69.25693079829216" r="3" style="fill: steelblue;"></circle><circle cx="335.6553786993027" cy="159.61655899882317" r="3" style="fill: steelblue;"></circle><circle cx="354.68161940574646" cy="138.0756233818829" r="3" style="fill: steelblue;"></circle><circle cx="214.36275109648705" cy="100.62323249876499" r="3" style="fill: steelblue;"></circle><circle cx="313.7135097384453" cy="89.61824905127287" r="3" style="fill: steelblue;"></circle><circle cx="481.0862624645233" cy="43.97231452167034" r="3" style="fill: steelblue;"></circle><circle cx="450.7539653778076" cy="34.422774985432625" r="3" style="fill: steelblue;"></circle><circle cx="241.93361341953278" cy="128.53657333180308" r="3" style="fill: steelblue;"></circle><circle cx="253.8883162289858" cy="157.87961515598" r="3" style="fill: steelblue;"></circle><circle cx="423.7625026702881" cy="91.42382927238941" r="3" style="fill: steelblue;"></circle><circle cx="206.34542271494865" cy="93.70744060724974" r="3" style="fill: steelblue;"></circle><circle cx="377.25538551807404" cy="6.225315108895302" r="3" style="fill: steelblue;"></circle><circle cx="404.8949861526489" cy="79.8164077103138" r="3" style="fill: steelblue;"></circle><circle cx="363.2796013355255" cy="35.82807928323746" r="3" style="fill: steelblue;"></circle><circle cx="423.9047312736511" cy="201.9804138224572" r="3" style="fill: steelblue;"></circle><circle cx="392.74134278297424" cy="97.49284777790308" r="3" style="fill: steelblue;"></circle><circle cx="313.9524677395821" cy="220.58527935296297" r="3" style="fill: steelblue;"></circle><circle cx="283.350313603878" cy="167.38060414791107" r="3" style="fill: steelblue;"></circle><circle cx="436.4950740337372" cy="111.11374218016863" r="3" style="fill: steelblue;"></circle><circle cx="162.4640965461731" cy="112.43280973285437" r="3" style="fill: steelblue;"></circle><circle cx="222.82718360424042" cy="179.38729603774846" r="3" style="fill: steelblue;"></circle><circle cx="253.71510922908783" cy="222.32936015352607" r="3" style="fill: steelblue;"></circle><circle cx="273.75535011291504" cy="150.25392659008503" r="3" style="fill: steelblue;"></circle><circle cx="227.06401214003563" cy="242.03082844614983" r="3" style="fill: steelblue;"></circle><circle cx="355.15127420425415" cy="203.51559966802597" r="3" style="fill: steelblue;"></circle><circle cx="265.97797214984894" cy="268.49943324923515" r="3" style="fill: steelblue;"></circle><circle cx="288.45230877399445" cy="264.9091539904475" r="3" style="fill: steelblue;"></circle><circle cx="143.15345227718356" cy="167.8073751507327" r="3" style="fill: steelblue;"></circle><circle cx="250.1238515228033" cy="171.95981267723255" r="3" style="fill: steelblue;"></circle><circle cx="334.39895153045654" cy="105.69862481206656" r="3" style="fill: steelblue;"></circle><circle cx="201.59885376691818" cy="157.43298241868615" r="3" style="fill: steelblue;"></circle><circle cx="222.10204057395458" cy="206.1992783099413" r="3" style="fill: steelblue;"></circle><circle cx="172.68016129732132" cy="222.55287617444992" r="3" style="fill: steelblue;"></circle><circle cx="346.079363822937" cy="316.2008833140135" r="3" style="fill: steelblue;"></circle><circle cx="249.6158266067505" cy="293.32436360418797" r="3" style="fill: steelblue;"></circle><circle cx="84.22085881233217" cy="280.1398226991296" r="3" style="fill: steelblue;"></circle><circle cx="214.17947798967361" cy="259.5203874632716" r="3" style="fill: steelblue;"></circle><circle cx="64.7851073741913" cy="184.83082922175527" r="3" style="fill: steelblue;"></circle><circle cx="240.5061189411208" cy="173.57446053647436" r="3" style="fill: steelblue;"></circle><circle cx="23.67501497268678" cy="145.46874882653356" r="3" style="fill: steelblue;"></circle><circle cx="61.50703668594362" cy="181.46925898035988" r="3" style="fill: steelblue;"></circle><circle cx="141.6626089811325" cy="305.4241195321083" r="3" style="fill: steelblue;"></circle><circle cx="118.76932919025423" cy="203.85986538603902" r="3" style="fill: steelblue;"></circle><circle cx="304.81064558029175" cy="202.84572960808873" r="3" style="fill: steelblue;"></circle><circle cx="93.89143824577333" cy="200.76802903786302" r="3" style="fill: steelblue;"></circle><circle cx="227.31791116297245" cy="131.16572489961982" r="3" style="fill: steelblue;"></circle><circle cx="255.12919440865517" cy="182.59174197446555" r="3" style="fill: steelblue;"></circle><circle cx="98.09044539928438" cy="245.55871840566397" r="3" style="fill: steelblue;"></circle><circle cx="245.56850228458646" cy="197.6376100908965" r="3" style="fill: steelblue;"></circle><circle cx="225.0029144436121" cy="238.10628075152636" r="3" style="fill: steelblue;"></circle><circle cx="112.68416583538057" cy="229.23269048333168" r="3" style="fill: steelblue;"></circle><circle cx="290.97359418869024" cy="211.3994687795639" r="3" style="fill: steelblue;"></circle><circle cx="130.57428538799286" cy="238.46718687564135" r="3" style="fill: steelblue;"></circle><circle cx="152.8427892923355" cy="200.72741406038404" r="3" style="fill: steelblue;"></circle><circle cx="121.04173243045808" cy="133.8219542056322" r="3" style="fill: steelblue;"></circle><circle cx="310.5566883087158" cy="177.3364262888208" r="3" style="fill: steelblue;"></circle><circle cx="400.1875841617584" cy="159.17223407886922" r="3" style="fill: steelblue;"></circle><circle cx="398.70357155799866" cy="57.27096199989319" r="3" style="fill: steelblue;"></circle><circle cx="323.1154704093933" cy="119.26640029996634" r="3" style="fill: steelblue;"></circle><circle cx="267.7845360338688" cy="94.19670440256596" r="3" style="fill: steelblue;"></circle><circle cx="339.2691904306412" cy="287.5643253326416" r="3" style="fill: steelblue;"></circle><circle cx="259.9170984327793" cy="165.21760560572147" r="3" style="fill: steelblue;"></circle><circle cx="229.4447386264801" cy="147.26121230050921" r="3" style="fill: steelblue;"></circle><circle cx="355.6119704246521" cy="155.13354721479118" r="3" style="fill: steelblue;"></circle><circle cx="133.9130812883377" cy="225.55656237527728" r="3" style="fill: steelblue;"></circle><circle cx="217.1585449576378" cy="231.46181385964155" r="3" style="fill: steelblue;"></circle><circle cx="357.32769906520844" cy="101.44844017922878" r="3" style="fill: steelblue;"></circle><circle cx="201.75182908773422" cy="241.9471863657236" r="3" style="fill: steelblue;"></circle><circle cx="102.82356083393097" cy="201.6858753748238" r="3" style="fill: steelblue;"></circle><circle cx="185.39983570575714" cy="187.8908467013389" r="3" style="fill: steelblue;"></circle><circle cx="236.34942999109626" cy="203.38472882285714" r="3" style="fill: steelblue;"></circle><circle cx="60.02990841865541" cy="233.14791563898325" r="3" style="fill: steelblue;"></circle><circle cx="201.3228589296341" cy="286.417418345809" r="3" style="fill: steelblue;"></circle><circle cx="129.9245649576187" cy="216.15703096613288" r="3" style="fill: steelblue;"></circle><circle cx="133.79741549491885" cy="243.15163884311914" r="3" style="fill: steelblue;"></circle><circle cx="188.05593341588977" cy="215.01862835139036" r="3" style="fill: steelblue;"></circle><circle cx="74.37307476997377" cy="274.550100043416" r="3" style="fill: steelblue;"></circle><circle cx="205.86215570569038" cy="304.3841674923897" r="3" style="fill: steelblue;"></circle><circle cx="69.73460555076599" cy="231.5435979515314" r="3" style="fill: steelblue;"></circle><circle cx="173.70105922222137" cy="166.09644151758403" r="3" style="fill: steelblue;"></circle><circle cx="226.42694167792797" cy="152.32171136885881" r="3" style="fill: steelblue;"></circle><circle cx="246.6730219870806" cy="152.8368240222335" r="3" style="fill: steelblue;"></circle><circle cx="360.1653331518174" cy="113.54736816138029" r="3" style="fill: steelblue;"></circle><circle cx="166.06599032878879" cy="133.4617456421256" r="3" style="fill: steelblue;"></circle><circle cx="225.39346978068352" cy="117.47030559927225" r="3" style="fill: steelblue;"></circle><circle cx="228.35581205785275" cy="66.87994413077831" r="3" style="fill: steelblue;"></circle><circle cx="420.5454969406128" cy="79.38069961965084" r="3" style="fill: steelblue;"></circle><circle cx="357.62319803237915" cy="5.184945836663246" r="3" style="fill: steelblue;"></circle><circle cx="423.31514596939087" cy="40.42804166674614" r="3" style="fill: steelblue;"></circle><circle cx="428.91146779060364" cy="69.32183001190424" r="3" style="fill: steelblue;"></circle><circle cx="69.91624474525453" cy="131.1877534724772" r="3" style="fill: steelblue;"></circle><circle cx="146.23545348644257" cy="179.9035120755434" r="3" style="fill: steelblue;"></circle><circle cx="89.42463040351869" cy="232.9136135056615" r="3" style="fill: steelblue;"></circle><circle cx="143.11018824577332" cy="224.20429550111294" r="3" style="fill: steelblue;"></circle><circle cx="43.3406674861908" cy="197.71205023862422" r="3" style="fill: steelblue;"></circle><circle cx="89.20107722282411" cy="196.3400397915393" r="3" style="fill: steelblue;"></circle><circle cx="194.66231256723404" cy="224.96308172121644" r="3" style="fill: steelblue;"></circle><circle cx="149.95616912841797" cy="209.55428080633283" r="3" style="fill: steelblue;"></circle><circle cx="184.3123072385788" cy="261.9776392355561" r="3" style="fill: steelblue;"></circle><circle cx="62.05873131752015" cy="192.36536878161132" r="3" style="fill: steelblue;"></circle><circle cx="378.63268196582794" cy="309.8540596663952" r="3" style="fill: steelblue;"></circle><circle cx="296.912961602211" cy="280.5998606607318" r="3" style="fill: steelblue;"></circle><circle cx="237.99204342998567" cy="117.94361025094986" r="3" style="fill: steelblue;"></circle><circle cx="305.010242164135" cy="77.47101988643408" r="3" style="fill: steelblue;"></circle><circle cx="299.37921702861786" cy="64.25294391810894" r="3" style="fill: steelblue;"></circle><circle cx="328.91983330249786" cy="15.940913185477257" r="3" style="fill: steelblue;"></circle><circle cx="438.29816222190857" cy="154.9910883884877" r="3" style="fill: steelblue;"></circle><circle cx="446.3426077365875" cy="78.63925136625767" r="3" style="fill: steelblue;"></circle><circle cx="469.04106974601746" cy="213.12647564336658" r="3" style="fill: steelblue;"></circle><circle cx="127.96179592609407" cy="298.4524641185999" r="3" style="fill: steelblue;"></circle><circle cx="80.15307426452637" cy="223.00222255289555" r="3" style="fill: steelblue;"></circle><circle cx="108.301722407341" cy="340.78470543026924" r="3" style="fill: steelblue;"></circle><circle cx="98.29438269138338" cy="260.7193963602185" r="3" style="fill: steelblue;"></circle><circle cx="166.65114998817444" cy="211.83526813983917" r="3" style="fill: steelblue;"></circle></g></svg>