<svg xmlns="http://www.w3.org/2000/svg"><g><circle cx="31.595662236213684" cy="68.31309795379639" r="2" style="fill: steelblue;"></circle><circle cx="14.363679620954725" cy="49.01090322269334" r="2" style="fill: steelblue;"></circle><circle cx="40.241888827747765" cy="82.2656942738427" r="2" style="fill: steelblue;"></circle><circle cx="63.745063212182785" cy="61.410747634039986" r="2" style="fill: steelblue;"></circle><circle cx="31.935837533738876" cy="34.70790982246399" r="2" style="fill: steelblue;"></circle><circle cx="35.763952467176644" cy="55.45826355616252" r="2" style="fill: steelblue;"></circle><circle cx="68.01757133669322" cy="64.72678747442033" r="2" style="fill: steelblue;"></circle><circle cx="53.03449349270927" cy="48.39637767937448" r="2" style="fill: steelblue;"></circle><circle cx="52.700991017950905" cy="46.869658099280464" r="2" style="fill: steelblue;"></circle><circle cx="71.65485951635573" cy="56.21754477421443" r="2" style="fill: steelblue;"></circle><circle cx="46.242082284556496" cy="65.12721478939056" r="2" style="fill: steelblue;"></circle><circle cx="65.00382059150272" cy="30.76473391718335" r="2" style="fill: steelblue;"></circle><circle cx="37.708716260062324" cy="75.02628631061978" r="2" style="fill: steelblue;"></circle><circle cx="27.87687877813975" cy="33.048585222827064" r="2" style="fill: steelblue;"></circle><circle cx="58.19709764586555" cy="58.7404727935791" r="2" style="fill: steelblue;"></circle><circle cx="81.25459485583835" cy="50.700348450077904" r="2" style="fill: steelblue;"></circle><circle cx="15.669935279422337" cy="60.56431531906128" r="2" style="fill: steelblue;"></circle><circle cx="23.275040917926365" cy="50.65390898121728" r="2" style="fill: steelblue;"></circle><circle cx="67.37199839618471" cy="36.364609334203934" r="2" style="fill: steelblue;"></circle><circle cx="53.02427377965715" cy="51.619025733735825" r="2" style="fill: steelblue;"></circle><circle cx="71.00923524962532" cy="30.490760339630974" r="2" style="fill: steelblue;"></circle><circle cx="48.919771280553604" cy="29.239372412363686" r="2" style="fill: steelblue;"></circle><circle cx="75.28603904777103" cy="17.294455899132622" r="2" style="fill: steelblue;"></circle><circle cx="48.63507962889141" cy="50.195668472184074" r="2" style="fill: steelblue;"></circle><circle cx="80.48969341648949" cy="64.08722632461124" r="2" style="fill: steelblue;"></circle><circle cx="52.92593563596407" cy="57.01695730288824" r="2" style="fill: steelblue;"></circle><circle cx="29.29172416528066" cy="76.37870245509677" r="2" style="fill: steelblue;"></circle><circle cx="53.60740112761656" cy="80.7047446568807" r="2" style="fill: steelblue;"></circle><circle cx="37.390773495038346" cy="81.58115479681227" r="2" style="fill: steelblue;"></circle><circle cx="37.64523400200738" cy="47.465148857898185" r="2" style="fill: steelblue;"></circle><circle cx="71.10769218868678" cy="19.2877858877182" r="2" style="fill: steelblue;"></circle><circle cx="62.05590193470319" cy="11.357025305430103" r="2" style="fill: steelblue;"></circle><circle cx="54.3471427841319" cy="10.183651579750908" r="2" style="fill: steelblue;"></circle><circle cx="47.0972102549341" cy="24.73451958762275" r="2" style="fill: steelblue;"></circle><circle cx="65.82923233509064" cy="43.341713812616135" r="2" style="fill: steelblue;"></circle><circle cx="32.205604844623146" cy="30.561064018143547" r="2" style="fill: steelblue;"></circle><circle cx="85.01668771107991" cy="65.92477626270718" r="2" style="fill: steelblue;"></circle><circle cx="47.32509868012534" cy="53.95823816458385" r="2" style="fill: steelblue;"></circle><circle cx="62.30985828571849" cy="43.36403792517053" r="2" style="fill: steelblue;"></circle><circle cx="70.08949418862662" cy="71.14253706402249" r="2" style="fill: steelblue;"></circle><circle cx="60.4539993736479" cy="58.90392694208357" r="2" style="fill: steelblue;"></circle><circle cx="87.81514565149942" cy="56.878324349721275" r="2" style="fill: steelblue;"></circle><circle cx="77.71196464697519" cy="0.8089138401879192" r="2" style="fill: steelblue;"></circle><circle cx="59.7120796640714" cy="44.19508761105438" r="2" style="fill: steelblue;"></circle><circle cx="68.75956389639113" cy="53.01344411240684" r="2" style="fill: steelblue;"></circle><circle cx="73.16491504510245" cy="17.721299661530388" r="2" style="fill: steelblue;"></circle><circle cx="54.91847110291322" cy="42.656636238098145" r="2" style="fill: steelblue;"></circle><circle cx="33.052093452877465" cy="27.793449825710724" r="2" style="fill: steelblue;"></circle><circle cx="42.25378814670774" cy="55.889856649769676" r="2" style="fill: steelblue;"></circle><circle cx="30.072496996985542" cy="26.70749624570211" r="2" style="fill: steelblue;"></circle><circle cx="43.18209240833918" cy="50.744332952631844" r="2" style="fill: steelblue;"></circle><circle cx="62.878857884142136" cy="39.22022357583046" r="2" style="fill: steelblue;"></circle><circle cx="61.74657576613956" cy="20.227302445305718" r="2" style="fill: steelblue;"></circle><circle cx="47.38955779208077" cy="29.281183414989055" r="2" style="fill: steelblue;"></circle><circle cx="87.19507190916273" cy="51.894408298863304" r="2" style="fill: steelblue;"></circle><circle cx="53.149771359231735" cy="78.59651843706767" r="2" style="fill: steelblue;"></circle><circle cx="48.77264011237356" cy="48.25735398464733" r="2" style="fill: steelblue;"></circle><circle cx="46.21692498524983" cy="52.27552867598004" r="2" style="fill: steelblue;"></circle><circle cx="20.435727304882473" cy="56.9838328493966" r="2" style="fill: steelblue;"></circle><circle cx="27.088599072562324" cy="46.19532364110152" r="2" style="fill: steelblue;"></circle><circle cx="29.007121920585632" cy="57.09336631827884" r="2" style="fill: steelblue;"></circle><circle cx="43.47181071837743" cy="67.5916035970052" r="2" style="fill: steelblue;"></circle><circle cx="49.73295165432824" cy="54.72557428810332" r="2" style="fill: steelblue;"></circle><circle cx="39.58492643303341" cy="65.20281334718068" r="2" style="fill: steelblue;"></circle><circle cx="9.2361138926612" cy="77.60165068838332" r="2" style="fill: steelblue;"></circle><circle cx="27.194463544421726" cy="45.15384438758095" r="2" style="fill: steelblue;"></circle><circle cx="33.44919284184773" cy="61.50060660309262" r="2" style="fill: steelblue;"></circle><circle cx="26.434299018647934" cy="90.96373054716322" r="2" style="fill: steelblue;"></circle><circle cx="15.79623752170139" cy="70.00679704878065" r="2" style="fill: steelblue;"></circle><circle cx="33.11587207847172" cy="71.52709298663669" r="2" style="fill: steelblue;"></circle><circle cx="36.965638399124146" cy="36.123122771581016" r="2" style="fill: steelblue;"></circle><circle cx="82.62398176723056" cy="33.08233221371969" r="2" style="fill: steelblue;"></circle><circle cx="33.76486069626278" cy="52.464761005507576" r="2" style="fill: steelblue;"></circle><circle cx="75.4387378692627" cy="50.08112531569269" r="2" style="fill: steelblue;"></circle><circle cx="59.22915952073203" cy="21.01415329509312" r="2" style="fill: steelblue;"></circle><circle cx="45.17575270599789" cy="12.331720193227136" r="2" style="fill: steelblue;"></circle><circle cx="40.39095507727729" cy="32.92284177409278" r="2" style="fill: steelblue;"></circle><circle cx="33.36234556304084" cy="28.1172106663386" r="2" style="fill: steelblue;"></circle><circle cx="68.40822928481631" cy="17.14820762475332" r="2" style="fill: steelblue;"></circle><circle cx="55.500186999173216" cy="34.543258614010284" r="2" style="fill: steelblue;"></circle><circle cx="79.49555748038821" cy="16.50309496455723" r="2" style="fill: steelblue;"></circle><circle cx="96.43731845749748" cy="24.355682399537827" r="2" style="fill: steelblue;"></circle><circle cx="55.33575794349114" cy="18.22863949669732" r="2" style="fill: steelblue;"></circle><circle cx="46.077947649690834" cy="59.54763227038913" r="2" style="fill: steelblue;"></circle><circle cx="50.7590120865239" cy="65.65557519594829" r="2" style="fill: steelblue;"></circle><circle cx="49.60787751608425" cy="54.871281153625915" r="2" style="fill: steelblue;"></circle><circle cx="45.69012257787916" cy="48.148296525081" r="2" style="fill: steelblue;"></circle><circle cx="36.051513420210945" cy="30.490470594829986" r="2" style="fill: steelblue;"></circle><circle cx="68.27031324307123" cy="55.721004969543884" r="2" style="fill: steelblue;"></circle><circle cx="64.93887056907019" cy="28.33817501862844" r="2" style="fill: steelblue;"></circle><circle cx="43.375669254197014" cy="26.350090238783096" r="2" style="fill: steelblue;"></circle><circle cx="62.35145404934883" cy="16.788720422320903" r="2" style="fill: steelblue;"></circle><circle cx="71.28945158587563" cy="22.017049458291794" r="2" style="fill: steelblue;"></circle><circle cx="80.83720670806038" cy="7.229436768425835" r="2" style="fill: steelblue;"></circle><circle cx="76.70609156290689" cy="45.78335082365407" r="2" style="fill: steelblue;"></circle><circle cx="47.94631236129337" cy="2.2941357559628006" r="2" style="fill: steelblue;"></circle><circle cx="99.17001591788399" cy="0.9786215093400719" r="2" style="fill: steelblue;"></circle><circle cx="47.34109176529778" cy="42.04924566050371" r="2" style="fill: steelblue;"></circle><circle cx="73.16702273156908" cy="34.13751572370529" r="2" style="fill: steelblue;"></circle><circle cx="23.625085751215614" cy="20.0271252128813" r="2" style="fill: steelblue;"></circle><circle cx="46.726182930999336" cy="17.857082353697884" r="2" style="fill: steelblue;"></circle><circle cx="46.671862403551735" cy="51.033477154042984" r="2" style="fill: steelblue;"></circle><circle cx="72.85980217986636" cy="43.68602330279019" r="2" style="fill: steelblue;"></circle><circle cx="77.14293400446573" cy="27.915796637535095" r="2" style="fill: steelblue;"></circle><circle cx="14.634612533781263" cy="67.92498562071059" r="2" style="fill: steelblue;"></circle><circle cx="81.22572633955214" cy="66.52667721112569" r="2" style="fill: steelblue;"></circle><circle cx="56.626880748404396" cy="19.397875666618347" r="2" style="fill: steelblue;"></circle><circle cx="63.07133535544077" cy="52.72241036097209" r="2" style="fill: steelblue;"></circle><circle cx="62.1212406290902" cy="36.67820427152846" r="2" style="fill: steelblue;"></circle><circle cx="88.03700738483005" cy="17.614352371957565" r="2" style="fill: steelblue;"></circle><circle cx="38.616965214411415" cy="20.368663138813446" r="2" style="fill: steelblue;"></circle><circle cx="57.021362913979424" cy="8.640152878231477" r="2" style="fill: steelblue;"></circle><circle cx="36.32647130224439" cy="45.276966266747976" r="2" style="fill: steelblue;"></circle><circle cx="22.663636340035332" cy="52.9746456278695" r="2" style="fill: steelblue;"></circle><circle cx="22.238916820949978" cy="62.34507030910916" r="2" style="fill: steelblue;"></circle><circle cx="28.720637162526447" cy="57.28318062093523" r="2" style="fill: steelblue;"></circle><circle cx="35.9438955783844" cy="67.78859694798787" r="2" style="fill: steelblue;"></circle><circle cx="39.82761998971303" cy="57.5536201397578" r="2" style="fill: steelblue;"></circle></g></svg>