<svg xmlns="http://www.w3.org/2000/svg"><rect width="200" height="200" fill="white"></rect><g><circle cx="44.07401084899902" cy="155.92598915100098" r="2" style="fill: steelblue;"></circle><circle cx="80.6820660829544" cy="119.3179339170456" r="2" style="fill: steelblue;"></circle><circle cx="77.31635719537735" cy="122.68364280462265" r="2" style="fill: steelblue;"></circle><circle cx="91.9319823384285" cy="108.0680176615715" r="2" style="fill: steelblue;"></circle><circle cx="82.33806490898132" cy="117.66193509101868" r="2" style="fill: steelblue;"></circle><circle cx="47.29112386703491" cy="152.7088761329651" r="2" style="fill: steelblue;"></circle><circle cx="127.3895263671875" cy="72.6104736328125" r="2" style="fill: steelblue;"></circle><circle cx="112.68046945333481" cy="87.31953054666519" r="2" style="fill: steelblue;"></circle><circle cx="88.28495517373085" cy="111.71504482626915" r="2" style="fill: steelblue;"></circle><circle cx="109.23110842704773" cy="90.76889157295227" r="2" style="fill: steelblue;"></circle><circle cx="44.08684968948364" cy="155.91315031051636" r="2" style="fill: steelblue;"></circle><circle cx="70.35255134105682" cy="129.64744865894318" r="2" style="fill: steelblue;"></circle><circle cx="17.51801371574402" cy="182.48198628425598" r="2" style="fill: steelblue;"></circle><circle cx="75.68145394325256" cy="124.31854605674744" r="2" style="fill: steelblue;"></circle><circle cx="113.98445069789886" cy="86.01554930210114" r="2" style="fill: steelblue;"></circle><circle cx="52.31924057006836" cy="147.68075942993164" r="2" style="fill: steelblue;"></circle><circle cx="55.94696402549744" cy="144.05303597450256" r="2" style="fill: steelblue;"></circle><circle cx="84.21896547079086" cy="115.78103452920914" r="2" style="fill: steelblue;"></circle><circle cx="136.92957162857056" cy="63.07042837142944" r="2" style="fill: steelblue;"></circle><circle cx="118.4962511062622" cy="81.5037488937378" r="2" style="fill: steelblue;"></circle><circle cx="116.2491574883461" cy="83.7508425116539" r="2" style="fill: steelblue;"></circle><circle cx="121.91863805055618" cy="78.08136194944382" r="2" style="fill: steelblue;"></circle><circle cx="89.201270788908" cy="110.798729211092" r="2" style="fill: steelblue;"></circle><circle cx="92.89235845208168" cy="107.10764154791832" r="2" style="fill: steelblue;"></circle><circle cx="113.49177658557892" cy="86.50822341442108" r="2" style="fill: steelblue;"></circle><circle cx="56.96200132369995" cy="143.03799867630005" r="2" style="fill: steelblue;"></circle><circle cx="59.548839926719666" cy="140.45116007328033" r="2" style="fill: steelblue;"></circle><circle cx="44.14306282997131" cy="155.8569371700287" r="2" style="fill: steelblue;"></circle><circle cx="114.1444444656372" cy="85.8555555343628" r="2" style="fill: steelblue;"></circle><circle cx="99.54453725367785" cy="100.45546274632215" r="2" style="fill: steelblue;"></circle><circle cx="181.41441345214844" cy="18.585586547851562" r="2" style="fill: steelblue;"></circle><circle cx="180.0581395626068" cy="19.94186043739319" r="2" style="fill: steelblue;"></circle><circle cx="117.6959365606308" cy="82.3040634393692" r="2" style="fill: steelblue;"></circle><circle cx="111.47578582167625" cy="88.52421417832375" r="2" style="fill: steelblue;"></circle><circle cx="117.56418645381927" cy="82.43581354618073" r="2" style="fill: steelblue;"></circle><circle cx="88.90466168522835" cy="111.09533831477165" r="2" style="fill: steelblue;"></circle><circle cx="60.020360350608826" cy="139.97963964939117" r="2" style="fill: steelblue;"></circle><circle cx="70.21685540676117" cy="129.78314459323883" r="2" style="fill: steelblue;"></circle><circle cx="75.89528560638428" cy="124.10471439361572" r="2" style="fill: steelblue;"></circle><circle cx="63.936132192611694" cy="136.0638678073883" r="2" style="fill: steelblue;"></circle><circle cx="74.73720014095306" cy="125.26279985904694" r="2" style="fill: steelblue;"></circle><circle cx="110.71023046970367" cy="89.28976953029633" r="2" style="fill: steelblue;"></circle><circle cx="133.37795436382294" cy="66.62204563617706" r="2" style="fill: steelblue;"></circle><circle cx="86.66754812002182" cy="113.33245187997818" r="2" style="fill: steelblue;"></circle><circle cx="106.31256625056267" cy="93.68743374943733" r="2" style="fill: steelblue;"></circle><circle cx="58.66023600101471" cy="141.3397639989853" r="2" style="fill: steelblue;"></circle><circle cx="130.37839233875275" cy="69.62160766124725" r="2" style="fill: steelblue;"></circle><circle cx="65.52698910236359" cy="134.4730108976364" r="2" style="fill: steelblue;"></circle><circle cx="54.84265685081482" cy="145.15734314918518" r="2" style="fill: steelblue;"></circle><circle cx="74.3016391992569" cy="125.6983608007431" r="2" style="fill: steelblue;"></circle><circle cx="68.95987689495087" cy="131.04012310504913" r="2" style="fill: steelblue;"></circle><circle cx="124.25885945558548" cy="75.74114054441452" r="2" style="fill: steelblue;"></circle><circle cx="114.33063745498657" cy="85.66936254501343" r="2" style="fill: steelblue;"></circle><circle cx="101.36386938393116" cy="98.63613061606884" r="2" style="fill: steelblue;"></circle><circle cx="84.11596864461899" cy="115.88403135538101" r="2" style="fill: steelblue;"></circle><circle cx="74.30380582809448" cy="125.69619417190552" r="2" style="fill: steelblue;"></circle><circle cx="71.63833379745483" cy="128.36166620254517" r="2" style="fill: steelblue;"></circle><circle cx="88.39570358395576" cy="111.60429641604424" r="2" style="fill: steelblue;"></circle><circle cx="64.53750729560852" cy="135.46249270439148" r="2" style="fill: steelblue;"></circle><circle cx="59.82968211174011" cy="140.1703178882599" r="2" style="fill: steelblue;"></circle><circle cx="41.2207305431366" cy="158.7792694568634" r="2" style="fill: steelblue;"></circle><circle cx="90.52017703652382" cy="109.47982296347618" r="2" style="fill: steelblue;"></circle><circle cx="46.49754762649536" cy="153.50245237350464" r="2" style="fill: steelblue;"></circle><circle cx="91.41287431120872" cy="108.58712568879128" r="2" style="fill: steelblue;"></circle><circle cx="73.89123439788818" cy="126.10876560211182" r="2" style="fill: steelblue;"></circle><circle cx="35.70221662521362" cy="164.29778337478638" r="2" style="fill: steelblue;"></circle><circle cx="103.19547615945339" cy="96.80452384054661" r="2" style="fill: steelblue;"></circle><circle cx="95.44904381036758" cy="104.55095618963242" r="2" style="fill: steelblue;"></circle><circle cx="52.430978417396545" cy="147.56902158260345" r="2" style="fill: steelblue;"></circle><circle cx="38.77807855606079" cy="161.2219214439392" r="2" style="fill: steelblue;"></circle><circle cx="146.05479836463928" cy="53.94520163536072" r="2" style="fill: steelblue;"></circle><circle cx="164.8117959499359" cy="35.18820405006409" r="2" style="fill: steelblue;"></circle><circle cx="125.15102624893188" cy="74.84897375106812" r="2" style="fill: steelblue;"></circle><circle cx="55.273979902267456" cy="144.72602009773254" r="2" style="fill: steelblue;"></circle><circle cx="90.64662083983421" cy="109.35337916016579" r="2" style="fill: steelblue;"></circle><circle cx="87.1641293168068" cy="112.8358706831932" r="2" style="fill: steelblue;"></circle><circle cx="82.96395242214203" cy="117.03604757785797" r="2" style="fill: steelblue;"></circle><circle cx="118.17272156476974" cy="81.82727843523026" r="2" style="fill: steelblue;"></circle><circle cx="136.9635045528412" cy="63.03649544715881" r="2" style="fill: steelblue;"></circle><circle cx="158.57748985290527" cy="41.42251014709473" r="2" style="fill: steelblue;"></circle><circle cx="138.30396234989166" cy="61.69603765010834" r="2" style="fill: steelblue;"></circle><circle cx="86.06364279985428" cy="113.93635720014572" r="2" style="fill: steelblue;"></circle><circle cx="103.248580545187" cy="96.751419454813" r="2" style="fill: steelblue;"></circle><circle cx="40.28975963592529" cy="159.7102403640747" r="2" style="fill: steelblue;"></circle><circle cx="78.04907113313675" cy="121.95092886686325" r="2" style="fill: steelblue;"></circle><circle cx="63.12820911407471" cy="136.8717908859253" r="2" style="fill: steelblue;"></circle><circle cx="78.88913750648499" cy="121.11086249351501" r="2" style="fill: steelblue;"></circle><circle cx="72.86158800125122" cy="127.13841199874878" r="2" style="fill: steelblue;"></circle><circle cx="148.77282977104187" cy="51.22717022895813" r="2" style="fill: steelblue;"></circle><circle cx="65.97028374671936" cy="134.02971625328064" r="2" style="fill: steelblue;"></circle><circle cx="124.70830231904984" cy="75.29169768095016" r="2" style="fill: steelblue;"></circle><circle cx="75.9602040052414" cy="124.0397959947586" r="2" style="fill: steelblue;"></circle><circle cx="138.9308363199234" cy="61.0691636800766" r="2" style="fill: steelblue;"></circle><circle cx="139.0523374080658" cy="60.947662591934204" r="2" style="fill: steelblue;"></circle><circle cx="154.77923154830933" cy="45.220768451690674" r="2" style="fill: steelblue;"></circle><circle cx="162.05328702926636" cy="37.94671297073364" r="2" style="fill: steelblue;"></circle><circle cx="131.02003931999207" cy="68.97996068000793" r="2" style="fill: steelblue;"></circle><circle cx="121.49890214204788" cy="78.50109785795212" r="2" style="fill: steelblue;"></circle><circle cx="111.66993752121925" cy="88.33006247878075" r="2" style="fill: steelblue;"></circle><circle cx="63.688746094703674" cy="136.31125390529633" r="2" style="fill: steelblue;"></circle><circle cx="126.56920850276947" cy="73.43079149723053" r="2" style="fill: steelblue;"></circle><circle cx="124.42058324813843" cy="75.57941675186157" r="2" style="fill: steelblue;"></circle><circle cx="113.79440128803253" cy="86.20559871196747" r="2" style="fill: steelblue;"></circle><circle cx="107.94870853424072" cy="92.05129146575928" r="2" style="fill: steelblue;"></circle><circle cx="116.27052873373032" cy="83.72947126626968" r="2" style="fill: steelblue;"></circle><circle cx="165.6076967716217" cy="34.392303228378296" r="2" style="fill: steelblue;"></circle><circle cx="122.56791442632675" cy="77.43208557367325" r="2" style="fill: steelblue;"></circle><circle cx="87.48174905776978" cy="112.51825094223022" r="2" style="fill: steelblue;"></circle><circle cx="130.24719059467316" cy="69.75280940532684" r="2" style="fill: steelblue;"></circle><circle cx="86.81780248880386" cy="113.18219751119614" r="2" style="fill: steelblue;"></circle><circle cx="164.05451893806458" cy="35.945481061935425" r="2" style="fill: steelblue;"></circle><circle cx="129.5654147863388" cy="70.4345852136612" r="2" style="fill: steelblue;"></circle><circle cx="100.1591278705746" cy="99.8408721294254" r="2" style="fill: steelblue;"></circle><circle cx="75.51810890436172" cy="124.48189109563828" r="2" style="fill: steelblue;"></circle><circle cx="55.11413514614105" cy="144.88586485385895" r="2" style="fill: steelblue;"></circle><circle cx="67.59956479072571" cy="132.4004352092743" r="2" style="fill: steelblue;"></circle><circle cx="97.22795598208904" cy="102.77204401791096" r="2" style="fill: steelblue;"></circle><circle cx="55.16597628593445" cy="144.83402371406555" r="2" style="fill: steelblue;"></circle></g></svg>