<svg xmlns="http://www.w3.org/2000/svg"><g><circle cx="14.455294609069824" cy="57.688894402235746" r="2" style="fill: steelblue;"></circle><circle cx="50.79420683905482" cy="86.83755546808243" r="2" style="fill: steelblue;"></circle><circle cx="33.27045738697052" cy="57.91244022548199" r="2" style="fill: steelblue;"></circle><circle cx="18.192291259765625" cy="89.08279910683632" r="2" style="fill: steelblue;"></circle><circle cx="34.84492748975754" cy="89.9828813970089" r="2" style="fill: steelblue;"></circle><circle cx="63.26363533735275" cy="86.98037564754486" r="2" style="fill: steelblue;"></circle><circle cx="24.96059536933899" cy="51.132896868512034" r="2" style="fill: steelblue;"></circle><circle cx="60.51061674952507" cy="29.230092838406563" r="2" style="fill: steelblue;"></circle><circle cx="34.012214839458466" cy="77.95447781682014" r="2" style="fill: steelblue;"></circle><circle cx="37.13478595018387" cy="59.25310514867306" r="2" style="fill: steelblue;"></circle><circle cx="58.56676027178764" cy="61.943090707063675" r="2" style="fill: steelblue;"></circle><circle cx="40.83548113703728" cy="71.56814374029636" r="2" style="fill: steelblue;"></circle><circle cx="51.101985946297646" cy="75.64247883856297" r="2" style="fill: steelblue;"></circle><circle cx="33.30651968717575" cy="61.587828397750854" r="2" style="fill: steelblue;"></circle><circle cx="42.061732709407806" cy="53.086680080741644" r="2" style="fill: steelblue;"></circle><circle cx="13.740023970603943" cy="59.1065876185894" r="2" style="fill: steelblue;"></circle><circle cx="44.281017780303955" cy="80.80770559608936" r="2" style="fill: steelblue;"></circle><circle cx="30.20695447921753" cy="57.35402759164572" r="2" style="fill: steelblue;"></circle><circle cx="64.14172500371933" cy="53.487598383799195" r="2" style="fill: steelblue;"></circle><circle cx="72.31239527463913" cy="58.79324693232775" r="2" style="fill: steelblue;"></circle><circle cx="66.16838127374649" cy="66.04695059359074" r="2" style="fill: steelblue;"></circle><circle cx="32.03022927045822" cy="60.11843979358673" r="2" style="fill: steelblue;"></circle><circle cx="37.95551881194115" cy="70.50153538584709" r="2" style="fill: steelblue;"></circle><circle cx="38.87124061584473" cy="52.04561813734472" r="2" style="fill: steelblue;"></circle><circle cx="16.813132166862488" cy="48.79967654123902" r="2" style="fill: steelblue;"></circle><circle cx="55.79223595559597" cy="65.13596903532743" r="2" style="fill: steelblue;"></circle><circle cx="33.18971544504166" cy="37.45044879615307" r="2" style="fill: steelblue;"></circle><circle cx="48.63825226202607" cy="34.32285152375698" r="2" style="fill: steelblue;"></circle><circle cx="18.0417001247406" cy="74.65778402984142" r="2" style="fill: steelblue;"></circle><circle cx="65.67257046699524" cy="39.10476826131344" r="2" style="fill: steelblue;"></circle><circle cx="60.840655118227005" cy="14.254003018140793" r="2" style="fill: steelblue;"></circle><circle cx="72.47530072927475" cy="22.992682829499245" r="2" style="fill: steelblue;"></circle><circle cx="73.06648790836334" cy="54.687237087637186" r="2" style="fill: steelblue;"></circle><circle cx="48.41947853565216" cy="35.97354535013437" r="2" style="fill: steelblue;"></circle><circle cx="56.01290389895439" cy="29.21997681260109" r="2" style="fill: steelblue;"></circle><circle cx="58.09464007616043" cy="3.5761885344982147" r="2" style="fill: steelblue;"></circle><circle cx="40.8977136015892" cy="39.19032420963049" r="2" style="fill: steelblue;"></circle><circle cx="42.74080619215965" cy="42.071615532040596" r="2" style="fill: steelblue;"></circle><circle cx="26.266349852085114" cy="64.50728997588158" r="2" style="fill: steelblue;"></circle><circle cx="47.48634807765484" cy="93.0203452706337" r="2" style="fill: steelblue;"></circle><circle cx="72.45334386825562" cy="40.749058313667774" r="2" style="fill: steelblue;"></circle><circle cx="75.39635896682739" cy="8.656728267669678" r="2" style="fill: steelblue;"></circle><circle cx="56.088144704699516" cy="3.8416787981987" r="2" style="fill: steelblue;"></circle><circle cx="68.36737394332886" cy="8.047285676002502" r="2" style="fill: steelblue;"></circle><circle cx="55.74011541903019" cy="62.30770256370306" r="2" style="fill: steelblue;"></circle><circle cx="75.50442218780518" cy="68.32928322255611" r="2" style="fill: steelblue;"></circle><circle cx="31.662018597126007" cy="67.39451847970486" r="2" style="fill: steelblue;"></circle><circle cx="19.14512813091278" cy="91.3859486579895" r="2" style="fill: steelblue;"></circle><circle cx="24.706822633743286" cy="82.20150247216225" r="2" style="fill: steelblue;"></circle><circle cx="20.553845167160034" cy="69.41916532814503" r="2" style="fill: steelblue;"></circle><circle cx="54.40408103168011" cy="66.19787514209747" r="2" style="fill: steelblue;"></circle><circle cx="19.98373568058014" cy="69.50163766741753" r="2" style="fill: steelblue;"></circle><circle cx="37.879637628793716" cy="66.08527824282646" r="2" style="fill: steelblue;"></circle><circle cx="45.10496035218239" cy="75.74466727674007" r="2" style="fill: steelblue;"></circle><circle cx="57.936666905879974" cy="59.88777540624142" r="2" style="fill: steelblue;"></circle><circle cx="32.34524875879288" cy="64.2634715884924" r="2" style="fill: steelblue;"></circle><circle cx="54.21577990055084" cy="45.48832233995199" r="2" style="fill: steelblue;"></circle><circle cx="36.93167269229889" cy="99.75518584251404" r="2" style="fill: steelblue;"></circle><circle cx="66.23155474662781" cy="66.22563786804676" r="2" style="fill: steelblue;"></circle><circle cx="38.17470893263817" cy="70.16815170645714" r="2" style="fill: steelblue;"></circle><circle cx="19.64544653892517" cy="70.46610787510872" r="2" style="fill: steelblue;"></circle><circle cx="25.794024765491486" cy="67.70255900919437" r="2" style="fill: steelblue;"></circle><circle cx="4.609659314155579" cy="89.94213044643402" r="2" style="fill: steelblue;"></circle><circle cx="7.538917660713196" cy="86.73765435814857" r="2" style="fill: steelblue;"></circle><circle cx="38.16690444946289" cy="50.1693531521596" r="2" style="fill: steelblue;"></circle><circle cx="24.971702694892883" cy="71.57912775874138" r="2" style="fill: steelblue;"></circle><circle cx="23.917585611343384" cy="52.14694207534194" r="2" style="fill: steelblue;"></circle><circle cx="60.450179874897" cy="80.08193336427212" r="2" style="fill: steelblue;"></circle><circle cx="17.391332983970642" cy="81.705342233181" r="2" style="fill: steelblue;"></circle><circle cx="47.57793713361025" cy="34.20394770801067" r="2" style="fill: steelblue;"></circle><circle cx="14.643409848213196" cy="65.8594511449337" r="2" style="fill: steelblue;"></circle><circle cx="64.3913671374321" cy="29.283958673477173" r="2" style="fill: steelblue;"></circle><circle cx="61.11847534775734" cy="68.16368289291859" r="2" style="fill: steelblue;"></circle><circle cx="77.02809870243073" cy="20.232907682657242" r="2" style="fill: steelblue;"></circle><circle cx="53.05855888873339" cy="26.93154402077198" r="2" style="fill: steelblue;"></circle><circle cx="45.89683152735233" cy="54.372529219836" r="2" style="fill: steelblue;"></circle><circle cx="72.8761613368988" cy="26.886646822094917" r="2" style="fill: steelblue;"></circle><circle cx="53.77677530050278" cy="17.356644570827484" r="2" style="fill: steelblue;"></circle><circle cx="47.96872306615114" cy="25.400708615779877" r="2" style="fill: steelblue;"></circle><circle cx="64.6350085735321" cy="26.717330515384674" r="2" style="fill: steelblue;"></circle><circle cx="74.67431426048279" cy="5.597415566444397" r="2" style="fill: steelblue;"></circle><circle cx="92.24546253681183" cy="26.276075467467308" r="2" style="fill: steelblue;"></circle><circle cx="56.61469027400017" cy="34.28406938910484" r="2" style="fill: steelblue;"></circle><circle cx="40.535734593868256" cy="81.08273074030876" r="2" style="fill: steelblue;"></circle><circle cx="34.10608768463135" cy="66.4995901286602" r="2" style="fill: steelblue;"></circle><circle cx="41.484442353248596" cy="54.65418258681893" r="2" style="fill: steelblue;"></circle><circle cx="47.25682307034731" cy="36.32695525884628" r="2" style="fill: steelblue;"></circle><circle cx="66.40995591878891" cy="57.972017861902714" r="2" style="fill: steelblue;"></circle><circle cx="56.730351597070694" cy="41.623942740261555" r="2" style="fill: steelblue;"></circle><circle cx="59.373778104782104" cy="35.77110096812248" r="2" style="fill: steelblue;"></circle><circle cx="55.32130151987076" cy="30.090131983160973" r="2" style="fill: steelblue;"></circle><circle cx="63.79447430372238" cy="45.71519857272506" r="2" style="fill: steelblue;"></circle><circle cx="49.69175551086664" cy="25.721009075641632" r="2" style="fill: steelblue;"></circle><circle cx="52.33028568327427" cy="26.028766483068466" r="2" style="fill: steelblue;"></circle><circle cx="55.59246987104416" cy="72.6210169494152" r="2" style="fill: steelblue;"></circle><circle cx="58.97243693470955" cy="48.1086750049144" r="2" style="fill: steelblue;"></circle><circle cx="61.074621975421906" cy="10.183922201395035" r="2" style="fill: steelblue;"></circle><circle cx="34.71137881278992" cy="18.66021677851677" r="2" style="fill: steelblue;"></circle><circle cx="68.5273602604866" cy="30.94063438475132" r="2" style="fill: steelblue;"></circle><circle cx="65.68276137113571" cy="45.10794598609209" r="2" style="fill: steelblue;"></circle><circle cx="49.95317311550025" cy="48.68805147707462" r="2" style="fill: steelblue;"></circle><circle cx="56.92307651042938" cy="44.93478937074542" r="2" style="fill: steelblue;"></circle><circle cx="66.40593707561493" cy="17.09337830543518" r="2" style="fill: steelblue;"></circle><circle cx="85.61111092567444" cy="57.81937222927809" r="2" style="fill: steelblue;"></circle><circle cx="79.703289270401" cy="71.40706218779087" r="2" style="fill: steelblue;"></circle><circle cx="73.63985180854797" cy="30.015764012932777" r="2" style="fill: steelblue;"></circle><circle cx="72.54918068647385" cy="49.212900816928595" r="2" style="fill: steelblue;"></circle><circle cx="64.80840742588043" cy="48.26171761378646" r="2" style="fill: steelblue;"></circle><circle cx="58.88036862015724" cy="24.957089871168137" r="2" style="fill: steelblue;"></circle><circle cx="41.68143644928932" cy="27.20402292907238" r="2" style="fill: steelblue;"></circle><circle cx="70.68994045257568" cy="21.481725573539734" r="2" style="fill: steelblue;"></circle><circle cx="53.10046374797821" cy="68.91697756946087" r="2" style="fill: steelblue;"></circle><circle cx="20.425590872764587" cy="63.03874608129263" r="2" style="fill: steelblue;"></circle><circle cx="57.62682631611824" cy="53.07511421851814" r="2" style="fill: steelblue;"></circle><circle cx="33.58806073665619" cy="78.4602902829647" r="2" style="fill: steelblue;"></circle><circle cx="40.21695479750633" cy="74.16456304490566" r="2" style="fill: steelblue;"></circle><circle cx="27.112555503845215" cy="56.81852363049984" r="2" style="fill: steelblue;"></circle><circle cx="53.40318977832794" cy="55.87663985788822" r="2" style="fill: steelblue;"></circle></g></svg>