<svg xmlns="http://www.w3.org/2000/svg"><g transform="translate(40,20)"><circle cx="257.64186445623636" cy="79.20921053737402" r="3" style="fill: steelblue;"></circle><circle cx="347.97096613794565" cy="178.15300980582833" r="3" style="fill: steelblue;"></circle><circle cx="273.61870113993064" cy="125.46361349523067" r="3" style="fill: steelblue;"></circle><circle cx="318.0587465688586" cy="200.08052601478994" r="3" style="fill: steelblue;"></circle><circle cx="427.97615982592106" cy="69.25693079829216" r="3" style="fill: steelblue;"></circle><circle cx="478.85187461972237" cy="159.61655899882317" r="3" style="fill: steelblue;"></circle><circle cx="478.4525004029274" cy="138.0756233818829" r="3" style="fill: steelblue;"></circle><circle cx="355.03010608255863" cy="100.62323249876499" r="3" style="fill: steelblue;"></circle><circle cx="404.8558768630028" cy="89.61824905127287" r="3" style="fill: steelblue;"></circle><circle cx="438.61433386802673" cy="43.97231452167034" r="3" style="fill: steelblue;"></circle><circle cx="427.90563113987446" cy="34.422774985432625" r="3" style="fill: steelblue;"></circle><circle cx="250.2849892526865" cy="128.53657333180308" r="3" style="fill: steelblue;"></circle><circle cx="380.74176505208015" cy="157.87961515598" r="3" style="fill: steelblue;"></circle><circle cx="418.77310171723366" cy="91.42382927238941" r="3" style="fill: steelblue;"></circle><circle cx="237.99273546785116" cy="93.70744060724974" r="3" style="fill: steelblue;"></circle><circle cx="398.34919318556786" cy="6.225315108895302" r="3" style="fill: steelblue;"></circle><circle cx="474.1762612760067" cy="79.8164077103138" r="3" style="fill: steelblue;"></circle><circle cx="404.7721315920353" cy="35.82807928323746" r="3" style="fill: steelblue;"></circle><circle cx="418.75485599040985" cy="201.9804138224572" r="3" style="fill: steelblue;"></circle><circle cx="223.62323485314846" cy="97.49284777790308" r="3" style="fill: steelblue;"></circle><circle cx="421.8289692699909" cy="220.58527935296297" r="3" style="fill: steelblue;"></circle><circle cx="456.61317005753517" cy="167.38060414791107" r="3" style="fill: steelblue;"></circle><circle cx="411.3368918001652" cy="111.11374218016863" r="3" style="fill: steelblue;"></circle><circle cx="478.07503312826157" cy="112.43280973285437" r="3" style="fill: steelblue;"></circle><circle cx="306.4693027921021" cy="179.38729603774846" r="3" style="fill: steelblue;"></circle><circle cx="348.3355738967657" cy="222.32936015352607" r="3" style="fill: steelblue;"></circle><circle cx="327.43974577635527" cy="150.25392659008503" r="3" style="fill: steelblue;"></circle><circle cx="310.68531543016434" cy="242.03082844614983" r="3" style="fill: steelblue;"></circle><circle cx="271.0014350322308" cy="203.51559966802597" r="3" style="fill: steelblue;"></circle><circle cx="184.2240721732378" cy="268.49943324923515" r="3" style="fill: steelblue;"></circle><circle cx="293.4648445621133" cy="264.9091539904475" r="3" style="fill: steelblue;"></circle><circle cx="340.2530287206173" cy="167.8073751507327" r="3" style="fill: steelblue;"></circle><circle cx="214.85262762755156" cy="171.95981267723255" r="3" style="fill: steelblue;"></circle><circle cx="259.59537553600967" cy="105.69862481206656" r="3" style="fill: steelblue;"></circle><circle cx="151.25154934823513" cy="157.43298241868615" r="3" style="fill: steelblue;"></circle><circle cx="454.67823788523674" cy="206.1992783099413" r="3" style="fill: steelblue;"></circle><circle cx="164.3979173898697" cy="222.55287617444992" r="3" style="fill: steelblue;"></circle><circle cx="255.0337464362383" cy="316.2008833140135" r="3" style="fill: steelblue;"></circle><circle cx="373.30688282847404" cy="293.32436360418797" r="3" style="fill: steelblue;"></circle><circle cx="180.90688034892082" cy="280.1398226991296" r="3" style="fill: steelblue;"></circle><circle cx="336.9533533975482" cy="259.5203874632716" r="3" style="fill: steelblue;"></circle><circle cx="321.63787119090557" cy="184.83082922175527" r="3" style="fill: steelblue;"></circle><circle cx="248.66746885702014" cy="173.57446053647436" r="3" style="fill: steelblue;"></circle><circle cx="183.1572101265192" cy="145.46874882653356" r="3" style="fill: steelblue;"></circle><circle cx="244.46123287081718" cy="181.46925898035988" r="3" style="fill: steelblue;"></circle><circle cx="295.9659047238529" cy="305.4241195321083" r="3" style="fill: steelblue;"></circle><circle cx="56.70067414641382" cy="203.85986538603902" r="3" style="fill: steelblue;"></circle><circle cx="130.60585565865043" cy="202.84572960808873" r="3" style="fill: steelblue;"></circle><circle cx="269.6805037422746" cy="200.76802903786302" r="3" style="fill: steelblue;"></circle><circle cx="191.45739644765854" cy="131.16572489961982" r="3" style="fill: steelblue;"></circle><circle cx="303.52575609460473" cy="182.59174197446555" r="3" style="fill: steelblue;"></circle><circle cx="252.15690753422678" cy="245.55871840566397" r="3" style="fill: steelblue;"></circle><circle cx="157.50505596399307" cy="197.6376100908965" r="3" style="fill: steelblue;"></circle><circle cx="249.85542509704828" cy="238.10628075152636" r="3" style="fill: steelblue;"></circle><circle cx="255.0440762937069" cy="229.23269048333168" r="3" style="fill: steelblue;"></circle><circle cx="170.69616325199604" cy="211.3994687795639" r="3" style="fill: steelblue;"></circle><circle cx="167.95827828347683" cy="238.46718687564135" r="3" style="fill: steelblue;"></circle><circle cx="177.3184970766306" cy="200.72741406038404" r="3" style="fill: steelblue;"></circle><circle cx="86.64438620209695" cy="133.8219542056322" r="3" style="fill: steelblue;"></circle><circle cx="349.56679333001375" cy="177.3364262888208" r="3" style="fill: steelblue;"></circle><circle cx="294.2814942263067" cy="159.17223407886922" r="3" style="fill: steelblue;"></circle><circle cx="483.3044958114624" cy="57.27096199989319" r="3" style="fill: steelblue;"></circle><circle cx="280.9187548980117" cy="119.26640029996634" r="3" style="fill: steelblue;"></circle><circle cx="198.90759743750095" cy="94.19670440256596" r="3" style="fill: steelblue;"></circle><circle cx="469.86469745635986" cy="287.5643253326416" r="3" style="fill: steelblue;"></circle><circle cx="437.899551987648" cy="165.21760560572147" r="3" style="fill: steelblue;"></circle><circle cx="383.2861487567425" cy="147.26121230050921" r="3" style="fill: steelblue;"></circle><circle cx="303.9367350563407" cy="155.13354721479118" r="3" style="fill: steelblue;"></circle><circle cx="480.4984760284424" cy="225.55656237527728" r="3" style="fill: steelblue;"></circle><circle cx="287.78615629300475" cy="231.46181385964155" r="3" style="fill: steelblue;"></circle><circle cx="372.5175992399454" cy="101.44844017922878" r="3" style="fill: steelblue;"></circle><circle cx="235.45728854835033" cy="241.9471863657236" r="3" style="fill: steelblue;"></circle><circle cx="388.4969834983349" cy="201.6858753748238" r="3" style="fill: steelblue;"></circle><circle cx="196.25078223645687" cy="187.8908467013389" r="3" style="fill: steelblue;"></circle><circle cx="276.6023857332766" cy="203.38472882285714" r="3" style="fill: steelblue;"></circle><circle cx="365.78707851469517" cy="233.14791563898325" r="3" style="fill: steelblue;"></circle><circle cx="390.34800946712494" cy="286.417418345809" r="3" style="fill: steelblue;"></circle><circle cx="234.82739858329296" cy="216.15703096613288" r="3" style="fill: steelblue;"></circle><circle cx="310.6046982854605" cy="243.15163884311914" r="3" style="fill: steelblue;"></circle><circle cx="243.07953648269176" cy="215.01862835139036" r="3" style="fill: steelblue;"></circle><circle cx="234.60324469953775" cy="274.550100043416" r="3" style="fill: steelblue;"></circle><circle cx="229.86482743173838" cy="304.3841674923897" r="3" style="fill: steelblue;"></circle><circle cx="142.15684913098812" cy="231.5435979515314" r="3" style="fill: steelblue;"></circle><circle cx="326.0079390183091" cy="166.09644151758403" r="3" style="fill: steelblue;"></circle><circle cx="380.8125854283571" cy="152.32171136885881" r="3" style="fill: steelblue;"></circle><circle cx="395.02473928034306" cy="152.8368240222335" r="3" style="fill: steelblue;"></circle><circle cx="268.3635703451" cy="113.54736816138029" r="3" style="fill: steelblue;"></circle><circle cx="215.26479598134756" cy="133.4617456421256" r="3" style="fill: steelblue;"></circle><circle cx="147.2272601723671" cy="117.47030559927225" r="3" style="fill: steelblue;"></circle><circle cx="221.02189611643553" cy="66.87994413077831" r="3" style="fill: steelblue;"></circle><circle cx="242.81877547502518" cy="79.38069961965084" r="3" style="fill: steelblue;"></circle><circle cx="389.5363663136959" cy="5.184945836663246" r="3" style="fill: steelblue;"></circle><circle cx="184.7511564195156" cy="40.42804166674614" r="3" style="fill: steelblue;"></circle><circle cx="272.1049300557934" cy="69.32183001190424" r="3" style="fill: steelblue;"></circle><circle cx="241.3198397308588" cy="131.1877534724772" r="3" style="fill: steelblue;"></circle><circle cx="208.1673088297248" cy="179.9035120755434" r="3" style="fill: steelblue;"></circle><circle cx="246.94509839639068" cy="232.9136135056615" r="3" style="fill: steelblue;"></circle><circle cx="185.14792554080486" cy="224.20429550111294" r="3" style="fill: steelblue;"></circle><circle cx="173.1676948070526" cy="197.71205023862422" r="3" style="fill: steelblue;"></circle><circle cx="270.4690074012615" cy="196.3400397915393" r="3" style="fill: steelblue;"></circle><circle cx="367.6227354258299" cy="224.96308172121644" r="3" style="fill: steelblue;"></circle><circle cx="183.52407597005367" cy="209.55428080633283" r="3" style="fill: steelblue;"></circle><circle cx="277.4731646804139" cy="261.9776392355561" r="3" style="fill: steelblue;"></circle><circle cx="360.3024673461914" cy="192.36536878161132" r="3" style="fill: steelblue;"></circle><circle cx="119.57586117088796" cy="309.8540596663952" r="3" style="fill: steelblue;"></circle><circle cx="163.8340701162815" cy="280.5998606607318" r="3" style="fill: steelblue;"></circle><circle cx="161.25818386673927" cy="117.94361025094986" r="3" style="fill: steelblue;"></circle><circle cx="511.39158949255943" cy="77.47101988643408" r="3" style="fill: steelblue;"></circle><circle cx="466.32396027445793" cy="64.25294391810894" r="3" style="fill: steelblue;"></circle><circle cx="422.46821343898773" cy="15.940913185477257" r="3" style="fill: steelblue;"></circle><circle cx="513.7328562140465" cy="154.9910883884877" r="3" style="fill: steelblue;"></circle><circle cx="519.8110570013523" cy="78.63925136625767" r="3" style="fill: steelblue;"></circle><circle cx="452.9936161637306" cy="213.12647564336658" r="3" style="fill: steelblue;"></circle><circle cx="90.31449303030969" cy="298.4524641185999" r="3" style="fill: steelblue;"></circle><circle cx="338.01219899207354" cy="223.00222255289555" r="3" style="fill: steelblue;"></circle><circle cx="93.44177439808847" cy="340.78470543026924" r="3" style="fill: steelblue;"></circle><circle cx="108.31381201744081" cy="260.7193963602185" r="3" style="fill: steelblue;"></circle><circle cx="251.80918511934578" cy="211.83526813983917" r="3" style="fill: steelblue;"></circle></g></svg>