<svg xmlns="http://www.w3.org/2000/svg"><rect width="200" height="200" fill="white"></rect><g><circle cx="28.91058921813965" cy="170.45924067497253" r="2" style="fill: steelblue;"></circle><circle cx="101.58841367810965" cy="139.30042386054993" r="2" style="fill: steelblue;"></circle><circle cx="66.54091477394104" cy="80.59520274400711" r="2" style="fill: steelblue;"></circle><circle cx="36.38458251953125" cy="117.89080500602722" r="2" style="fill: steelblue;"></circle><circle cx="69.68985497951508" cy="87.23943382501602" r="2" style="fill: steelblue;"></circle><circle cx="126.5272706747055" cy="165.8960998058319" r="2" style="fill: steelblue;"></circle><circle cx="49.92119073867798" cy="100.455635599792" r="2" style="fill: steelblue;"></circle><circle cx="121.02123349905014" cy="84.15102809667587" r="2" style="fill: steelblue;"></circle><circle cx="68.02442967891693" cy="130.58470785617828" r="2" style="fill: steelblue;"></circle><circle cx="74.26957190036774" cy="130.8000087738037" r="2" style="fill: steelblue;"></circle><circle cx="117.13352054357529" cy="124.25718009471893" r="2" style="fill: steelblue;"></circle><circle cx="81.67096227407455" cy="108.90614241361618" r="2" style="fill: steelblue;"></circle><circle cx="102.20397189259529" cy="109.70536395907402" r="2" style="fill: steelblue;"></circle><circle cx="66.6130393743515" cy="153.32382917404175" r="2" style="fill: steelblue;"></circle><circle cx="84.12346541881561" cy="91.16427823901176" r="2" style="fill: steelblue;"></circle><circle cx="27.480047941207886" cy="170.46836018562317" r="2" style="fill: steelblue;"></circle><circle cx="88.56203556060791" cy="146.37718498706818" r="2" style="fill: steelblue;"></circle><circle cx="60.41390895843506" cy="65.41146636009216" r="2" style="fill: steelblue;"></circle><circle cx="128.28345000743866" cy="98.89811789616942" r="2" style="fill: steelblue;"></circle><circle cx="144.62479054927826" cy="42.173832654953" r="2" style="fill: steelblue;"></circle><circle cx="132.33676254749298" cy="100.66833915188909" r="2" style="fill: steelblue;"></circle><circle cx="64.06045854091644" cy="90.88694900274277" r="2" style="fill: steelblue;"></circle><circle cx="75.9110376238823" cy="80.32214790582657" r="2" style="fill: steelblue;"></circle><circle cx="77.74248123168945" cy="142.99983382225037" r="2" style="fill: steelblue;"></circle><circle cx="33.626264333724976" cy="77.35662311315536" r="2" style="fill: steelblue;"></circle><circle cx="111.58447191119194" cy="139.83899652957916" r="2" style="fill: steelblue;"></circle><circle cx="66.37943089008331" cy="120.76044976711273" r="2" style="fill: steelblue;"></circle><circle cx="97.27650452405214" cy="120.64676135778427" r="2" style="fill: steelblue;"></circle><circle cx="36.0834002494812" cy="152.42376327514648" r="2" style="fill: steelblue;"></circle><circle cx="131.34514093399048" cy="91.2389762699604" r="2" style="fill: steelblue;"></circle><circle cx="121.68131023645401" cy="54.91730570793152" r="2" style="fill: steelblue;"></circle><circle cx="144.9506014585495" cy="56.994253396987915" r="2" style="fill: steelblue;"></circle><circle cx="146.13297581672668" cy="37.253767251968384" r="2" style="fill: steelblue;"></circle><circle cx="96.83895707130432" cy="105.10114133358002" r="2" style="fill: steelblue;"></circle><circle cx="112.02580779790878" cy="89.80052843689919" r="2" style="fill: steelblue;"></circle><circle cx="116.18928015232086" cy="116.13259762525558" r="2" style="fill: steelblue;"></circle><circle cx="81.7954272031784" cy="98.09270687401295" r="2" style="fill: steelblue;"></circle><circle cx="85.4816123843193" cy="135.1771503686905" r="2" style="fill: steelblue;"></circle><circle cx="52.53269970417023" cy="160.9239161014557" r="2" style="fill: steelblue;"></circle><circle cx="94.97269615530968" cy="157.74719715118408" r="2" style="fill: steelblue;"></circle><circle cx="144.90668773651123" cy="181.0862958431244" r="2" style="fill: steelblue;"></circle><circle cx="150.79271793365479" cy="69.68909800052643" r="2" style="fill: steelblue;"></circle><circle cx="112.17628940939903" cy="152.1722674369812" r="2" style="fill: steelblue;"></circle><circle cx="136.73474788665771" cy="74.99395310878754" r="2" style="fill: steelblue;"></circle><circle cx="111.48023083806038" cy="63.617682456970215" r="2" style="fill: steelblue;"></circle><circle cx="151.00884437561035" cy="72.43078351020813" r="2" style="fill: steelblue;"></circle><circle cx="63.324037194252014" cy="48.266106843948364" r="2" style="fill: steelblue;"></circle><circle cx="38.29025626182556" cy="145.36895155906677" r="2" style="fill: steelblue;"></circle><circle cx="49.41364526748657" cy="146.82939648628235" r="2" style="fill: steelblue;"></circle><circle cx="41.10769033432007" cy="131.00011944770813" r="2" style="fill: steelblue;"></circle><circle cx="108.80816206336021" cy="83.08305889368057" r="2" style="fill: steelblue;"></circle><circle cx="39.96747136116028" cy="53.662851452827454" r="2" style="fill: steelblue;"></circle><circle cx="75.75927525758743" cy="73.9229291677475" r="2" style="fill: steelblue;"></circle><circle cx="90.20992070436478" cy="124.49502646923065" r="2" style="fill: steelblue;"></circle><circle cx="115.87333381175995" cy="104.83143888413906" r="2" style="fill: steelblue;"></circle><circle cx="64.69049751758575" cy="90.2801863849163" r="2" style="fill: steelblue;"></circle><circle cx="108.43155980110168" cy="93.69649589061737" r="2" style="fill: steelblue;"></circle><circle cx="73.86334538459778" cy="145.95578908920288" r="2" style="fill: steelblue;"></circle><circle cx="132.46310949325562" cy="111.1641101539135" r="2" style="fill: steelblue;"></circle><circle cx="76.34941786527634" cy="122.94916063547134" r="2" style="fill: steelblue;"></circle><circle cx="39.29089307785034" cy="85.96767336130142" r="2" style="fill: steelblue;"></circle><circle cx="51.58804953098297" cy="115.95711708068848" r="2" style="fill: steelblue;"></circle><circle cx="9.219318628311157" cy="167.32608675956726" r="2" style="fill: steelblue;"></circle><circle cx="15.077835321426392" cy="168.05702447891235" r="2" style="fill: steelblue;"></circle><circle cx="76.33380889892578" cy="137.00471222400665" r="2" style="fill: steelblue;"></circle><circle cx="49.94340538978577" cy="118.98143142461777" r="2" style="fill: steelblue;"></circle><circle cx="47.83517122268677" cy="147.1477895975113" r="2" style="fill: steelblue;"></circle><circle cx="120.900359749794" cy="118.98365020751953" r="2" style="fill: steelblue;"></circle><circle cx="34.782665967941284" cy="161.57943606376648" r="2" style="fill: steelblue;"></circle><circle cx="95.1558742672205" cy="130.10201156139374" r="2" style="fill: steelblue;"></circle><circle cx="29.28681969642639" cy="159.13575887680054" r="2" style="fill: steelblue;"></circle><circle cx="128.7827342748642" cy="94.83472965657711" r="2" style="fill: steelblue;"></circle><circle cx="122.23695069551468" cy="82.89880007505417" r="2" style="fill: steelblue;"></circle><circle cx="154.05619740486145" cy="55.458906292915344" r="2" style="fill: steelblue;"></circle><circle cx="106.11711777746677" cy="67.9332822561264" r="2" style="fill: steelblue;"></circle><circle cx="91.79366305470467" cy="131.3226878643036" r="2" style="fill: steelblue;"></circle><circle cx="145.7523226737976" cy="71.79155349731445" r="2" style="fill: steelblue;"></circle><circle cx="107.55355060100555" cy="61.39064431190491" r="2" style="fill: steelblue;"></circle><circle cx="95.93744613230228" cy="62.99044191837311" r="2" style="fill: steelblue;"></circle><circle cx="129.2700171470642" cy="45.609062910079956" r="2" style="fill: steelblue;"></circle><circle cx="149.34862852096558" cy="33.27428698539734" r="2" style="fill: steelblue;"></circle><circle cx="184.49092507362366" cy="41.61272048950195" r="2" style="fill: steelblue;"></circle><circle cx="113.22938054800034" cy="97.11041450500488" r="2" style="fill: steelblue;"></circle><circle cx="81.07146918773651" cy="121.66611552238464" r="2" style="fill: steelblue;"></circle><circle cx="68.2121753692627" cy="129.7268271446228" r="2" style="fill: steelblue;"></circle><circle cx="82.96888470649719" cy="96.68305963277817" r="2" style="fill: steelblue;"></circle><circle cx="94.51364614069462" cy="113.21838051080704" r="2" style="fill: steelblue;"></circle><circle cx="132.81991183757782" cy="130.92755675315857" r="2" style="fill: steelblue;"></circle><circle cx="113.46070319414139" cy="138.89013528823853" r="2" style="fill: steelblue;"></circle><circle cx="118.74755620956421" cy="64.01282250881195" r="2" style="fill: steelblue;"></circle><circle cx="110.64260303974152" cy="76.84262096881866" r="2" style="fill: steelblue;"></circle><circle cx="127.58894860744476" cy="16.020172834396362" r="2" style="fill: steelblue;"></circle><circle cx="99.38351102173328" cy="28.58259081840515" r="2" style="fill: steelblue;"></circle><circle cx="104.66057136654854" cy="81.91955089569092" r="2" style="fill: steelblue;"></circle><circle cx="111.18493974208832" cy="80.48568964004517" r="2" style="fill: steelblue;"></circle><circle cx="117.9448738694191" cy="91.55740886926651" r="2" style="fill: steelblue;"></circle><circle cx="122.14924395084381" cy="49.32417869567871" r="2" style="fill: steelblue;"></circle><circle cx="69.42275762557983" cy="39.175933599472046" r="2" style="fill: steelblue;"></circle><circle cx="137.0547205209732" cy="78.26052904129028" r="2" style="fill: steelblue;"></circle><circle cx="131.36552274227142" cy="88.49257528781891" r="2" style="fill: steelblue;"></circle><circle cx="99.9063462310005" cy="95.4189483076334" r="2" style="fill: steelblue;"></circle><circle cx="113.84615302085876" cy="118.26998293399811" r="2" style="fill: steelblue;"></circle><circle cx="132.81187415122986" cy="88.67106661200523" r="2" style="fill: steelblue;"></circle><circle cx="171.22222185134888" cy="26.80906653404236" r="2" style="fill: steelblue;"></circle><circle cx="159.406578540802" cy="125.95449388027191" r="2" style="fill: steelblue;"></circle><circle cx="147.27970361709595" cy="64.63482975959778" r="2" style="fill: steelblue;"></circle><circle cx="145.0983613729477" cy="55.975550413131714" r="2" style="fill: steelblue;"></circle><circle cx="129.61681485176086" cy="44.40698027610779" r="2" style="fill: steelblue;"></circle><circle cx="117.76073724031448" cy="70.3262448310852" r="2" style="fill: steelblue;"></circle><circle cx="83.36287289857864" cy="81.86580687761307" r="2" style="fill: steelblue;"></circle><circle cx="141.37988090515137" cy="35.8454167842865" r="2" style="fill: steelblue;"></circle><circle cx="106.20092749595642" cy="128.17749977111816" r="2" style="fill: steelblue;"></circle><circle cx="40.851181745529175" cy="142.9692566394806" r="2" style="fill: steelblue;"></circle><circle cx="115.25365263223648" cy="137.17981278896332" r="2" style="fill: steelblue;"></circle><circle cx="67.17612147331238" cy="96.83419354259968" r="2" style="fill: steelblue;"></circle><circle cx="80.43390959501266" cy="69.89159286022186" r="2" style="fill: steelblue;"></circle><circle cx="54.22511100769043" cy="79.91863191127777" r="2" style="fill: steelblue;"></circle><circle cx="106.80637955665588" cy="149.90828037261963" r="2" style="fill: steelblue;"></circle></g></svg>