<svg xmlns="http://www.w3.org/2000/svg"><rect width="200" height="200" fill="white"></rect><g><circle cx="10.353067186143667" cy="172.52567079332138" r="2" style="fill: steelblue;"></circle><circle cx="49.78980157110426" cy="141.91656311353046" r="2" style="fill: steelblue;"></circle><circle cx="17.73443354500665" cy="146.27120229932996" r="2" style="fill: steelblue;"></circle><circle cx="40.84271060095893" cy="169.80494393242728" r="2" style="fill: steelblue;"></circle><circle cx="45.48155797852411" cy="88.94807762569852" r="2" style="fill: steelblue;"></circle><circle cx="47.565134366353355" cy="131.3831607500712" r="2" style="fill: steelblue;"></circle><circle cx="92.11529990037283" cy="84.31475195619795" r="2" style="fill: steelblue;"></circle><circle cx="10.472183757358131" cy="151.8106824821896" r="2" style="fill: steelblue;"></circle><circle cx="113.2905619011985" cy="134.24925340546503" r="2" style="fill: steelblue;"></circle><circle cx="58.70229535632664" cy="121.72932260566287" r="2" style="fill: steelblue;"></circle><circle cx="62.89118230342865" cy="129.15521032280392" r="2" style="fill: steelblue;"></circle><circle cx="78.49891185760498" cy="142.41471224360996" r="2" style="fill: steelblue;"></circle><circle cx="142.74403651555377" cy="160.16119718551636" r="2" style="fill: steelblue;"></circle><circle cx="12.63926956388686" cy="139.23411568005878" r="2" style="fill: steelblue;"></circle><circle cx="109.35241679350536" cy="158.49684675534564" r="2" style="fill: steelblue;"></circle><circle cx="44.38409407933553" cy="186.8405408329434" r="2" style="fill: steelblue;"></circle><circle cx="38.09123105472989" cy="97.00134230984581" r="2" style="fill: steelblue;"></circle><circle cx="39.497543043560455" cy="60.67094537946913" r="2" style="fill: steelblue;"></circle><circle cx="134.35524238480463" cy="98.83252696858511" r="2" style="fill: steelblue;"></circle><circle cx="102.49861694044537" cy="136.70179082287683" r="2" style="fill: steelblue;"></circle><circle cx="81.71994768910939" cy="147.23930425114102" r="2" style="fill: steelblue;"></circle><circle cx="91.44911327295834" cy="50.30138625038993" r="2" style="fill: steelblue;"></circle><circle cx="108.14985169304742" cy="103.75517358382542" r="2" style="fill: steelblue;"></circle><circle cx="76.41533215840658" cy="152.64613760842218" r="2" style="fill: steelblue;"></circle><circle cx="18.103161123063835" cy="154.65540687243143" r="2" style="fill: steelblue;"></circle><circle cx="15.001679791344541" cy="158.2427720228831" r="2" style="fill: steelblue;"></circle><circle cx="43.89054112964207" cy="183.43775139914618" r="2" style="fill: steelblue;"></circle><circle cx="66.90136128001744" cy="65.61642554071214" r="2" style="fill: steelblue;"></circle><circle cx="65.75078633096484" cy="148.7079792552524" r="2" style="fill: steelblue;"></circle><circle cx="103.12255753411188" cy="110.32801343955927" r="2" style="fill: steelblue;"></circle><circle cx="140.59805737601388" cy="37.28935453626845" r="2" style="fill: steelblue;"></circle><circle cx="107.66810211870406" cy="75.14710889922247" r="2" style="fill: steelblue;"></circle><circle cx="143.32509901788498" cy="49.571990966796875" r="2" style="fill: steelblue;"></circle><circle cx="122.1911562813653" cy="65.47191076808505" r="2" style="fill: steelblue;"></circle><circle cx="113.29179207483928" cy="57.99845854441325" r="2" style="fill: steelblue;"></circle><circle cx="16.38966004053752" cy="148.73717890845404" r="2" style="fill: steelblue;"></circle><circle cx="33.01995860205757" cy="125.22715826829274" r="2" style="fill: steelblue;"></circle><circle cx="131.41734931204056" cy="141.43745435608758" r="2" style="fill: steelblue;"></circle><circle cx="60.1328366332584" cy="114.07726382215817" r="2" style="fill: steelblue;"></circle><circle cx="125.47738883230421" cy="142.33257704310947" r="2" style="fill: steelblue;"></circle><circle cx="69.93242800235748" cy="183.42872460683185" r="2" style="fill: steelblue;"></circle><circle cx="145.6128544277615" cy="93.09377604060703" r="2" style="fill: steelblue;"></circle><circle cx="127.85651485125224" cy="67.07463661829631" r="2" style="fill: steelblue;"></circle><circle cx="127.90939410527547" cy="90.73271519607968" r="2" style="fill: steelblue;"></circle><circle cx="109.24800932407379" cy="81.0658468140496" r="2" style="fill: steelblue;"></circle><circle cx="75.89722209506566" cy="53.840816020965576" r="2" style="fill: steelblue;"></circle><circle cx="113.14818792872958" cy="92.57164597511292" r="2" style="fill: steelblue;"></circle><circle cx="28.226029872894294" cy="166.3691500822703" r="2" style="fill: steelblue;"></circle><circle cx="13.791202174292675" cy="169.3590349621243" r="2" style="fill: steelblue;"></circle><circle cx="39.005221923192344" cy="107.04997057716051" r="2" style="fill: steelblue;"></circle><circle cx="110.280908147494" cy="110.25433283713129" r="2" style="fill: steelblue;"></circle><circle cx="74.02473721239302" cy="68.10947590404086" r="2" style="fill: steelblue;"></circle><circle cx="43.13555227385627" cy="156.44385417302448" r="2" style="fill: steelblue;"></circle><circle cx="77.21195651425255" cy="106.03538362516298" r="2" style="fill: steelblue;"></circle><circle cx="107.08156757884555" cy="139.34732476870218" r="2" style="fill: steelblue;"></circle><circle cx="66.65043069256676" cy="108.23817199303045" r="2" style="fill: steelblue;"></circle><circle cx="23.092407650417755" cy="130.09108768569098" r="2" style="fill: steelblue;"></circle><circle cx="82.6921246945858" cy="144.75637012057834" r="2" style="fill: steelblue;"></circle><circle cx="57.40073853068882" cy="82.4849373764462" r="2" style="fill: steelblue;"></circle><circle cx="62.39064236481985" cy="76.08560058805678" r="2" style="fill: steelblue;"></circle><circle cx="126.01413859261407" cy="163.09133503172134" r="2" style="fill: steelblue;"></circle><circle cx="146.95258140563965" cy="102.4139126141866" r="2" style="fill: steelblue;"></circle><circle cx="20.235497421688507" cy="113.36448022888766" r="2" style="fill: steelblue;"></circle><circle cx="2.2879229651557127" cy="184.91396639082168" r="2" style="fill: steelblue;"></circle><circle cx="20.787456300523548" cy="174.54381783803302" r="2" style="fill: steelblue;"></circle><circle cx="4.482148753272167" cy="193.5998731189304" r="2" style="fill: steelblue;"></circle><circle cx="97.49173571666083" cy="137.48843140072293" r="2" style="fill: steelblue;"></circle><circle cx="55.95958762698704" cy="180.9952523973253" r="2" style="fill: steelblue;"></circle><circle cx="92.42891801728142" cy="147.10053470399643" r="2" style="fill: steelblue;"></circle><circle cx="46.774482064776954" cy="88.77154522471957" r="2" style="fill: steelblue;"></circle><circle cx="23.931852976481125" cy="108.48593235843711" r="2" style="fill: steelblue;"></circle><circle cx="139.69958358340793" cy="56.916061374876236" r="2" style="fill: steelblue;"></circle><circle cx="101.13613092237048" cy="143.0518825848897" r="2" style="fill: steelblue;"></circle><circle cx="126.12835764884949" cy="123.1525954273012" r="2" style="fill: steelblue;"></circle><circle cx="145.34956746631198" cy="85.98280615276761" r="2" style="fill: steelblue;"></circle><circle cx="75.80224209361607" cy="35.68424781163533" r="2" style="fill: steelblue;"></circle><circle cx="93.27951023976009" cy="118.03553170628018" r="2" style="fill: steelblue;"></circle><circle cx="137.6351965798272" cy="53.507215446896026" r="2" style="fill: steelblue;"></circle><circle cx="161.07460392846002" cy="39.618055025736496" r="2" style="fill: steelblue;"></circle><circle cx="37.028212017483185" cy="33.79352225197687" r="2" style="fill: steelblue;"></circle><circle cx="183.94984669155545" cy="71.06169727113512" r="2" style="fill: steelblue;"></circle><circle cx="151.1462516254849" cy="60.499240954716996" r="2" style="fill: steelblue;"></circle><circle cx="91.90131591426002" cy="150.79942014482285" r="2" style="fill: steelblue;"></circle><circle cx="130.17683095402188" cy="104.02576542562909" r="2" style="fill: steelblue;"></circle><circle cx="14.808216359880241" cy="134.66589483949872" r="2" style="fill: steelblue;"></circle><circle cx="46.74936864111159" cy="63.83412414126926" r="2" style="fill: steelblue;"></circle><circle cx="68.7531335486306" cy="100.26812470621533" r="2" style="fill: steelblue;"></circle><circle cx="135.41580107476975" cy="147.5243866443634" r="2" style="fill: steelblue;"></circle><circle cx="62.82999482419756" cy="64.8241572909885" r="2" style="fill: steelblue;"></circle><circle cx="188.27513058980304" cy="112.7406879224711" r="2" style="fill: steelblue;"></circle><circle cx="158.96799034542508" cy="85.25123695532481" r="2" style="fill: steelblue;"></circle><circle cx="155.3679757648044" cy="86.48454315132565" r="2" style="fill: steelblue;"></circle><circle cx="175.33903519312543" cy="123.79016644424863" r="2" style="fill: steelblue;"></circle><circle cx="107.45642118983798" cy="85.86267133553822" r="2" style="fill: steelblue;"></circle><circle cx="117.7289605140686" cy="39.18867641025119" r="2" style="fill: steelblue;"></circle><circle cx="151.4455000559489" cy="66.45509931776259" r="2" style="fill: steelblue;"></circle><circle cx="166.06049935022992" cy="77.31500599119398" r="2" style="fill: steelblue;"></circle><circle cx="82.7946281267537" cy="148.35773242844476" r="2" style="fill: steelblue;"></circle><circle cx="38.199668460422096" cy="31.408839755588104" r="2" style="fill: steelblue;"></circle><circle cx="134.45661664009094" cy="20.684666103786896" r="2" style="fill: steelblue;"></circle><circle cx="70.30227482318878" cy="108.07867844899495" r="2" style="fill: steelblue;"></circle><circle cx="117.0326292514801" cy="63.92151448461745" r="2" style="fill: steelblue;"></circle><circle cx="126.82412597868178" cy="145.45768168237473" r="2" style="fill: steelblue;"></circle><circle cx="110.06397869851854" cy="19.891043504079175" r="2" style="fill: steelblue;"></circle><circle cx="113.9891631073422" cy="80.7776583565606" r="2" style="fill: steelblue;"></circle><circle cx="124.56452051798503" cy="80.72925276226468" r="2" style="fill: steelblue;"></circle><circle cx="130.33447199397617" cy="94.16867792606354" r="2" style="fill: steelblue;"></circle><circle cx="82.72745658953986" cy="118.95300696293512" r="2" style="fill: steelblue;"></circle><circle cx="124.82669485939874" cy="49.76828230751886" r="2" style="fill: steelblue;"></circle><circle cx="133.14234415690106" cy="21.111276414659287" r="2" style="fill: steelblue;"></circle><circle cx="123.44245314598083" cy="52.399290932549356" r="2" style="fill: steelblue;"></circle><circle cx="68.32367380460104" cy="103.74350845813751" r="2" style="fill: steelblue;"></circle><circle cx="68.30950776735942" cy="137.6202619738049" r="2" style="fill: steelblue;"></circle><circle cx="109.03899073600769" cy="78.90260219573975" r="2" style="fill: steelblue;"></circle><circle cx="61.64822677771251" cy="67.95788804690044" r="2" style="fill: steelblue;"></circle><circle cx="33.706878953509865" cy="149.4210660457611" r="2" style="fill: steelblue;"></circle><circle cx="74.70838096406726" cy="145.83131339814926" r="2" style="fill: steelblue;"></circle><circle cx="103.34284636709425" cy="106.68147231141725" r="2" style="fill: steelblue;"></circle></g></svg>