<svg xmlns="http://www.w3.org/2000/svg"><g><circle cx="9.551650285720829" cy="85.54470539093018" r="2" style="fill: steelblue;"></circle><circle cx="30.292487144470215" cy="49.20579316094518" r="2" style="fill: steelblue;"></circle><circle cx="20.37424445152283" cy="66.72954261302948" r="2" style="fill: steelblue;"></circle><circle cx="26.312598917219375" cy="81.80770874023438" r="2" style="fill: steelblue;"></circle><circle cx="37.93453648686409" cy="65.15507251024246" r="2" style="fill: steelblue;"></circle><circle cx="32.216228710280525" cy="36.73636466264725" r="2" style="fill: steelblue;"></circle><circle cx="41.43517936269443" cy="75.03940463066101" r="2" style="fill: steelblue;"></circle><circle cx="31.277392639054195" cy="39.48938325047493" r="2" style="fill: steelblue;"></circle><circle cx="42.46178575687939" cy="65.98778516054153" r="2" style="fill: steelblue;"></circle><circle cx="34.57619597514471" cy="62.86521404981613" r="2" style="fill: steelblue;"></circle><circle cx="13.418544663323297" cy="41.43323972821236" r="2" style="fill: steelblue;"></circle><circle cx="48.176945663160744" cy="59.16451886296272" r="2" style="fill: steelblue;"></circle><circle cx="11.443498399522571" cy="48.898014053702354" r="2" style="fill: steelblue;"></circle><circle cx="43.21950514697367" cy="66.69348031282425" r="2" style="fill: steelblue;"></circle><circle cx="24.80509148703681" cy="57.938267290592194" r="2" style="fill: steelblue;"></circle><circle cx="6.511776977115209" cy="86.25997602939606" r="2" style="fill: steelblue;"></circle><circle cx="59.3290239572525" cy="55.718982219696045" r="2" style="fill: steelblue;"></circle><circle cx="48.78741436534458" cy="69.79304552078247" r="2" style="fill: steelblue;"></circle><circle cx="40.49409901102384" cy="35.85827499628067" r="2" style="fill: steelblue;"></circle><circle cx="53.81690230634477" cy="27.68760472536087" r="2" style="fill: steelblue;"></circle><circle cx="49.483310182889305" cy="33.83161872625351" r="2" style="fill: steelblue;"></circle><circle cx="48.05769042836295" cy="67.96977072954178" r="2" style="fill: steelblue;"></circle><circle cx="58.67902868323856" cy="62.04448118805885" r="2" style="fill: steelblue;"></circle><circle cx="39.162181897295845" cy="61.12875938415527" r="2" style="fill: steelblue;"></circle><circle cx="22.390903035799663" cy="83.18686783313751" r="2" style="fill: steelblue;"></circle><circle cx="27.92863150437673" cy="44.20776404440403" r="2" style="fill: steelblue;"></circle><circle cx="4.849774307674834" cy="66.81028455495834" r="2" style="fill: steelblue;"></circle><circle cx="9.989585479100548" cy="51.36174773797393" r="2" style="fill: steelblue;"></circle><circle cx="33.62679663631651" cy="81.9582998752594" r="2" style="fill: steelblue;"></circle><circle cx="60.65056158436669" cy="34.32742953300476" r="2" style="fill: steelblue;"></circle><circle cx="52.79621415668064" cy="39.159344881772995" r="2" style="fill: steelblue;"></circle><circle cx="77.23644971847534" cy="27.52469927072525" r="2" style="fill: steelblue;"></circle><circle cx="47.55098016725646" cy="26.933512091636658" r="2" style="fill: steelblue;"></circle><circle cx="51.628559993373024" cy="51.58052146434784" r="2" style="fill: steelblue;"></circle><circle cx="45.51050487077898" cy="43.98709610104561" r="2" style="fill: steelblue;"></circle><circle cx="75.55647293726602" cy="41.90535992383957" r="2" style="fill: steelblue;"></circle><circle cx="42.26348855429226" cy="59.1022863984108" r="2" style="fill: steelblue;"></circle><circle cx="15.73295659489102" cy="57.25919380784035" r="2" style="fill: steelblue;"></circle><circle cx="24.56533345911238" cy="73.73365014791489" r="2" style="fill: steelblue;"></circle><circle cx="44.51480437742753" cy="52.51365192234516" r="2" style="fill: steelblue;"></circle><circle cx="15.59417380226983" cy="27.546656131744385" r="2" style="fill: steelblue;"></circle><circle cx="10.353481769561771" cy="24.603641033172607" r="2" style="fill: steelblue;"></circle><circle cx="42.68809114065436" cy="43.911855295300484" r="2" style="fill: steelblue;"></circle><circle cx="83.57348309622871" cy="31.632626056671143" r="2" style="fill: steelblue;"></circle><circle cx="42.633526399731636" cy="44.25988458096981" r="2" style="fill: steelblue;"></circle><circle cx="42.4499480260743" cy="24.495577812194824" r="2" style="fill: steelblue;"></circle><circle cx="32.4860895673434" cy="68.337981402874" r="2" style="fill: steelblue;"></circle><circle cx="13.534631331761679" cy="80.85487186908722" r="2" style="fill: steelblue;"></circle><circle cx="52.73136927021874" cy="75.29317736625671" r="2" style="fill: steelblue;"></circle><circle cx="8.663229809867014" cy="79.44615483283997" r="2" style="fill: steelblue;"></circle><circle cx="55.01484390762117" cy="45.59591896831989" r="2" style="fill: steelblue;"></circle><circle cx="36.52558906210794" cy="80.01626431941986" r="2" style="fill: steelblue;"></circle><circle cx="39.4878823724058" cy="62.120362371206284" r="2" style="fill: steelblue;"></circle><circle cx="60.05586451954312" cy="54.89503964781761" r="2" style="fill: steelblue;"></circle><circle cx="29.017858372794258" cy="42.063333094120026" r="2" style="fill: steelblue;"></circle><circle cx="26.61798662609524" cy="67.65475124120712" r="2" style="fill: steelblue;"></circle><circle cx="60.40930847326914" cy="45.78422009944916" r="2" style="fill: steelblue;"></circle><circle cx="29.120091928376095" cy="63.06832730770111" r="2" style="fill: steelblue;"></circle><circle cx="47.32479461365276" cy="33.76844525337219" r="2" style="fill: steelblue;"></circle><circle cx="38.72607168224123" cy="61.82529106736183" r="2" style="fill: steelblue;"></circle><circle cx="42.13376463287407" cy="80.35455346107483" r="2" style="fill: steelblue;"></circle><circle cx="41.99800284372436" cy="74.20597523450851" r="2" style="fill: steelblue;"></circle><circle cx="3.328551186455623" cy="95.39034068584442" r="2" style="fill: steelblue;"></circle><circle cx="6.634026103549536" cy="92.4610823392868" r="2" style="fill: steelblue;"></circle><circle cx="13.387676080067953" cy="61.83309555053711" r="2" style="fill: steelblue;"></circle><circle cx="33.49032435152266" cy="75.02829730510712" r="2" style="fill: steelblue;"></circle><circle cx="15.77476263046265" cy="76.08241438865662" r="2" style="fill: steelblue;"></circle><circle cx="45.620923820469116" cy="39.549820125103" r="2" style="fill: steelblue;"></circle><circle cx="6.316396262910633" cy="82.60866701602936" r="2" style="fill: steelblue;"></circle><circle cx="7.322383589214751" cy="52.42206286638975" r="2" style="fill: steelblue;"></circle><circle cx="34.158193568388626" cy="85.3565901517868" r="2" style="fill: steelblue;"></circle><circle cx="51.419990095827316" cy="35.6086328625679" r="2" style="fill: steelblue;"></circle><circle cx="72.29337029986912" cy="38.88152465224266" r="2" style="fill: steelblue;"></circle><circle cx="63.637830482588875" cy="22.971901297569275" r="2" style="fill: steelblue;"></circle><circle cx="64.12178377310434" cy="46.94144111126661" r="2" style="fill: steelblue;"></circle><circle cx="45.08203382914265" cy="54.10316847264767" r="2" style="fill: steelblue;"></circle><circle cx="15.830370452668935" cy="27.123838663101196" r="2" style="fill: steelblue;"></circle><circle cx="68.41052836842007" cy="46.22322469949722" r="2" style="fill: steelblue;"></circle><circle cx="55.806379516919456" cy="52.03127693384886" r="2" style="fill: steelblue;"></circle><circle cx="49.29017292128669" cy="35.364991426467896" r="2" style="fill: steelblue;"></circle><circle cx="87.90975411732992" cy="25.325685739517212" r="2" style="fill: steelblue;"></circle><circle cx="82.53270983695984" cy="7.754537463188171" r="2" style="fill: steelblue;"></circle><circle cx="77.15826498137581" cy="43.38530972599983" r="2" style="fill: steelblue;"></circle><circle cx="35.895901587274345" cy="59.464265406131744" r="2" style="fill: steelblue;"></circle><circle cx="37.70015239715576" cy="65.89391231536865" r="2" style="fill: steelblue;"></circle><circle cx="45.7836098348101" cy="58.515557646751404" r="2" style="fill: steelblue;"></circle><circle cx="49.30465560820368" cy="52.74317692965269" r="2" style="fill: steelblue;"></circle><circle cx="22.037430935435825" cy="33.59004408121109" r="2" style="fill: steelblue;"></circle><circle cx="19.556140899658207" cy="43.269648402929306" r="2" style="fill: steelblue;"></circle><circle cx="74.87125462955899" cy="40.626221895217896" r="2" style="fill: steelblue;"></circle><circle cx="28.951629334025913" cy="44.67869848012924" r="2" style="fill: steelblue;"></circle><circle cx="51.266235775417755" cy="36.20552569627762" r="2" style="fill: steelblue;"></circle><circle cx="90.66080980830722" cy="50.30824448913336" r="2" style="fill: steelblue;"></circle><circle cx="44.18706266312963" cy="47.66971431672573" r="2" style="fill: steelblue;"></circle><circle cx="52.653504080242584" cy="44.40753012895584" r="2" style="fill: steelblue;"></circle><circle cx="77.93998983171251" cy="41.02756306529045" r="2" style="fill: steelblue;"></circle><circle cx="83.7128354443444" cy="38.925378024578094" r="2" style="fill: steelblue;"></circle><circle cx="46.223409639464485" cy="65.28862118721008" r="2" style="fill: steelblue;"></circle><circle cx="23.513023389710323" cy="31.472639739513397" r="2" style="fill: steelblue;"></circle><circle cx="40.32892253663805" cy="34.31723862886429" r="2" style="fill: steelblue;"></circle><circle cx="70.11005216174657" cy="50.04682688449975" r="2" style="fill: steelblue;"></circle><circle cx="64.69843056466844" cy="43.07692348957062" r="2" style="fill: steelblue;"></circle><circle cx="77.82220774226718" cy="33.59406292438507" r="2" style="fill: steelblue;"></circle><circle cx="73.07728396521675" cy="14.388889074325562" r="2" style="fill: steelblue;"></circle><circle cx="72.14740845892165" cy="20.296710729599" r="2" style="fill: steelblue;"></circle><circle cx="59.223788645532395" cy="26.360148191452026" r="2" style="fill: steelblue;"></circle><circle cx="46.68442859417862" cy="27.450819313526154" r="2" style="fill: steelblue;"></circle><circle cx="64.74488079547882" cy="35.19159257411957" r="2" style="fill: steelblue;"></circle><circle cx="46.310872212052345" cy="41.11963137984276" r="2" style="fill: steelblue;"></circle><circle cx="57.80081467496024" cy="58.31856355071068" r="2" style="fill: steelblue;"></circle><circle cx="55.47685192690955" cy="29.310059547424316" r="2" style="fill: steelblue;"></circle><circle cx="69.4723453786638" cy="46.89953625202179" r="2" style="fill: steelblue;"></circle><circle cx="39.12132870819834" cy="79.57440912723541" r="2" style="fill: steelblue;"></circle><circle cx="20.009084873729282" cy="42.37317368388176" r="2" style="fill: steelblue;"></circle><circle cx="41.28050655126572" cy="66.41193926334381" r="2" style="fill: steelblue;"></circle><circle cx="56.11084500948588" cy="59.78304520249367" r="2" style="fill: steelblue;"></circle><circle cx="53.12540812624825" cy="72.88744449615479" r="2" style="fill: steelblue;"></circle><circle cx="19.53782571686639" cy="46.59681022167206" r="2" style="fill: steelblue;"></circle></g></svg>