<svg xmlns="http://www.w3.org/2000/svg"><g transform="translate(40,20)"><circle cx="298.5810197889805" cy="99.17207825928926" r="3" style="fill: steelblue;"></circle><circle cx="386.09273582696915" cy="29.49601523578167" r="3" style="fill: steelblue;"></circle><circle cx="413.69986832141876" cy="127.84326327964664" r="3" style="fill: steelblue;"></circle><circle cx="290.174318253994" cy="41.6700255125761" r="3" style="fill: steelblue;"></circle><circle cx="326.61661103367805" cy="55.32418116927147" r="3" style="fill: steelblue;"></circle><circle cx="335.64857974648476" cy="89.86319061368704" r="3" style="fill: steelblue;"></circle><circle cx="366.3196384906769" cy="174.57856633409392" r="3" style="fill: steelblue;"></circle><circle cx="426.60998940467834" cy="39.65204134583473" r="3" style="fill: steelblue;"></circle><circle cx="429.5353728532791" cy="169.1036383388564" r="3" style="fill: steelblue;"></circle><circle cx="393.2364669442177" cy="261.52745839208364" r="3" style="fill: steelblue;"></circle><circle cx="339.6820682287216" cy="1.1917829513549805" r="3" style="fill: steelblue;"></circle><circle cx="434.1570657491684" cy="160.2845303248614" r="3" style="fill: steelblue;"></circle><circle cx="178.75429093837738" cy="173.20316984551027" r="3" style="fill: steelblue;"></circle><circle cx="351.4250582456589" cy="203.5912067629397" r="3" style="fill: steelblue;"></circle><circle cx="282.6495421305299" cy="71.33287116885185" r="3" style="fill: steelblue;"></circle><circle cx="242.3814533650875" cy="36.12115904688835" r="3" style="fill: steelblue;"></circle><circle cx="259.5656057819724" cy="123.31199757754803" r="3" style="fill: steelblue;"></circle><circle cx="189.61346358060837" cy="202.12798700667918" r="3" style="fill: steelblue;"></circle><circle cx="376.81507140398026" cy="130.95681853592396" r="3" style="fill: steelblue;"></circle><circle cx="307.79092356562614" cy="119.9297022074461" r="3" style="fill: steelblue;"></circle><circle cx="227.09715083241463" cy="182.53819849342108" r="3" style="fill: steelblue;"></circle><circle cx="222.75474429130554" cy="79.08583357930183" r="3" style="fill: steelblue;"></circle><circle cx="271.7325679259375" cy="191.75377925857902" r="3" style="fill: steelblue;"></circle><circle cx="322.76530623435974" cy="188.04829574655741" r="3" style="fill: steelblue;"></circle><circle cx="395.16167879104614" cy="113.58634028583765" r="3" style="fill: steelblue;"></circle><circle cx="349.1622179746628" cy="131.38592587783933" r="3" style="fill: steelblue;"></circle><circle cx="167.13352113962173" cy="110.0758632645011" r="3" style="fill: steelblue;"></circle><circle cx="425.2698075771332" cy="124.72755340859294" r="3" style="fill: steelblue;"></circle><circle cx="250.75170166790485" cy="120.62307093292475" r="3" style="fill: steelblue;"></circle><circle cx="193.5428488254547" cy="274.57465156912804" r="3" style="fill: steelblue;"></circle><circle cx="205.4662925004959" cy="161.04093049652874" r="3" style="fill: steelblue;"></circle><circle cx="350.8304125070572" cy="211.12519381567836" r="3" style="fill: steelblue;"></circle><circle cx="225.3758928179741" cy="202.04559010453522" r="3" style="fill: steelblue;"></circle><circle cx="204.57981571555138" cy="104.70643937587738" r="3" style="fill: steelblue;"></circle><circle cx="319.66313034296036" cy="43.64752508699894" r="3" style="fill: steelblue;"></circle><circle cx="159.1489416360855" cy="221.5627540834248" r="3" style="fill: steelblue;"></circle><circle cx="183.24435710906982" cy="174.86479712060827" r="3" style="fill: steelblue;"></circle><circle cx="208.96735578775406" cy="177.5422103353776" r="3" style="fill: steelblue;"></circle><circle cx="80.4220300912857" cy="159.4922530464828" r="3" style="fill: steelblue;"></circle><circle cx="345.76353192329407" cy="231.47707544267178" r="3" style="fill: steelblue;"></circle><circle cx="321.61774054169655" cy="301.8294397741556" r="3" style="fill: steelblue;"></circle><circle cx="196.76655292510986" cy="251.86482928693295" r="3" style="fill: steelblue;"></circle><circle cx="156.9962838292122" cy="225.1028448343277" r="3" style="fill: steelblue;"></circle><circle cx="197.18635350465775" cy="220.7463930360973" r="3" style="fill: steelblue;"></circle><circle cx="223.3861631155014" cy="204.88820988684893" r="3" style="fill: steelblue;"></circle><circle cx="95.40359437465668" cy="187.802918208763" r="3" style="fill: steelblue;"></circle><circle cx="296.4419527351856" cy="254.87038977444172" r="3" style="fill: steelblue;"></circle><circle cx="148.63317489624023" cy="208.61952677369118" r="3" style="fill: steelblue;"></circle><circle cx="247.3856406658888" cy="222.57881304249167" r="3" style="fill: steelblue;"></circle><circle cx="211.47289037704468" cy="224.44916535168886" r="3" style="fill: steelblue;"></circle><circle cx="213.8167078793049" cy="209.1265620663762" r="3" style="fill: steelblue;"></circle><circle cx="253.707951977849" cy="240.10016974061728" r="3" style="fill: steelblue;"></circle><circle cx="313.35690423846245" cy="222.751325648278" r="3" style="fill: steelblue;"></circle><circle cx="122.96998679637909" cy="251.61315985023975" r="3" style="fill: steelblue;"></circle><circle cx="226.4709059894085" cy="331.4552169293165" r="3" style="fill: steelblue;"></circle><circle cx="237.94138088822365" cy="239.41144924610853" r="3" style="fill: steelblue;"></circle><circle cx="198.41763228178024" cy="126.32698165252805" r="3" style="fill: steelblue;"></circle><circle cx="39.06293034553528" cy="164.43319218233228" r="3" style="fill: steelblue;"></circle><circle cx="278.57743989676237" cy="277.1178076043725" r="3" style="fill: steelblue;"></circle><circle cx="251.2051934748888" cy="216.15374200046062" r="3" style="fill: steelblue;"></circle><circle cx="429.36507403850555" cy="95.33408023416996" r="3" style="fill: steelblue;"></circle><circle cx="341.4675745368004" cy="106.13779462873936" r="3" style="fill: steelblue;"></circle><circle cx="295.2089861780405" cy="82.721858471632" r="3" style="fill: steelblue;"></circle><circle cx="392.52330243587494" cy="110.34509558230639" r="3" style="fill: steelblue;"></circle><circle cx="425.51083624362946" cy="254.10442911088467" r="3" style="fill: steelblue;"></circle><circle cx="407.18322694301605" cy="47.576603665947914" r="3" style="fill: steelblue;"></circle><circle cx="322.27193534374237" cy="159.92022277787328" r="3" style="fill: steelblue;"></circle><circle cx="344.0400892496109" cy="113.4518675506115" r="3" style="fill: steelblue;"></circle><circle cx="443.83147716522217" cy="76.62958577275276" r="3" style="fill: steelblue;"></circle><circle cx="349.2585200071335" cy="46.31134606897831" r="3" style="fill: steelblue;"></circle><circle cx="339.22786831855774" cy="274.28774554282427" r="3" style="fill: steelblue;"></circle><circle cx="148.65193158388138" cy="183.13524355180562" r="3" style="fill: steelblue;"></circle><circle cx="309.3345160782337" cy="272.67838194966316" r="3" style="fill: steelblue;"></circle><circle cx="210.46484515070915" cy="211.7225306108594" r="3" style="fill: steelblue;"></circle><circle cx="270.50595521810465" cy="143.98069232702255" r="3" style="fill: steelblue;"></circle><circle cx="159.2834973335266" cy="136.44654881209135" r="3" style="fill: steelblue;"></circle><circle cx="273.93800544552505" cy="278.1660195440054" r="3" style="fill: steelblue;"></circle><circle cx="256.0825598984957" cy="260.9332084655762" r="3" style="fill: steelblue;"></circle><circle cx="269.97722402215004" cy="280.47670535743237" r="3" style="fill: steelblue;"></circle><circle cx="290.2906181663275" cy="273.35963789373636" r="3" style="fill: steelblue;"></circle><circle cx="265.24781093001366" cy="236.65002193301916" r="3" style="fill: steelblue;"></circle><circle cx="217.38306552171707" cy="240.81478472799063" r="3" style="fill: steelblue;"></circle><circle cx="191.32202804088593" cy="113.7206370010972" r="3" style="fill: steelblue;"></circle><circle cx="209.4816479086876" cy="100.69870594888926" r="3" style="fill: steelblue;"></circle><circle cx="212.55413576960564" cy="191.9046837836504" r="3" style="fill: steelblue;"></circle><circle cx="418.62577199935913" cy="122.45664484798908" r="3" style="fill: steelblue;"></circle><circle cx="346.0699474811554" cy="219.700697530061" r="3" style="fill: steelblue;"></circle><circle cx="336.35589838027954" cy="231.20727594941854" r="3" style="fill: steelblue;"></circle><circle cx="359.54535216093063" cy="37.56089806556702" r="3" style="fill: steelblue;"></circle><circle cx="376.23335659503937" cy="189.61588474921882" r="3" style="fill: steelblue;"></circle><circle cx="287.6278243213892" cy="145.7116368226707" r="3" style="fill: steelblue;"></circle><circle cx="314.972260594368" cy="49.213146045804024" r="3" style="fill: steelblue;"></circle><circle cx="301.96193888783455" cy="41.14358238875866" r="3" style="fill: steelblue;"></circle><circle cx="375.85572838783264" cy="135.6758877635002" r="3" style="fill: steelblue;"></circle><circle cx="180.8026885986328" cy="218.57671225443482" r="3" style="fill: steelblue;"></circle><circle cx="242.21276387572289" cy="310.4610938578844" r="3" style="fill: steelblue;"></circle><circle cx="192.26514905691147" cy="268.62634364515543" r="3" style="fill: steelblue;"></circle><circle cx="187.99879521131516" cy="210.1718794554472" r="3" style="fill: steelblue;"></circle><circle cx="227.8236284852028" cy="250.92191640287638" r="3" style="fill: steelblue;"></circle><circle cx="162.41381227970123" cy="136.84022724628448" r="3" style="fill: steelblue;"></circle><circle cx="223.77086028456688" cy="151.41207603737712" r="3" style="fill: steelblue;"></circle><circle cx="191.85307323932648" cy="267.2076031565666" r="3" style="fill: steelblue;"></circle><circle cx="301.4315414428711" cy="283.5262708365917" r="3" style="fill: steelblue;"></circle><circle cx="175.4836830496788" cy="206.67874366044998" r="3" style="fill: steelblue;"></circle><circle cx="350.33425748348236" cy="293.75721625983715" r="3" style="fill: steelblue;"></circle><circle cx="249.4875443726778" cy="306.31255097687244" r="3" style="fill: steelblue;"></circle><circle cx="278.04912954568863" cy="51.78355909883976" r="3" style="fill: steelblue;"></circle><circle cx="334.6838817000389" cy="71.14294562488794" r="3" style="fill: steelblue;"></circle><circle cx="455.7162970304489" cy="84.0711884200573" r="3" style="fill: steelblue;"></circle><circle cx="278.8765702396631" cy="80.63744958490133" r="3" style="fill: steelblue;"></circle><circle cx="437.72560000419617" cy="34.37371104955673" r="3" style="fill: steelblue;"></circle><circle cx="503.08118999004364" cy="28.911133483052254" r="3" style="fill: steelblue;"></circle><circle cx="88.65772068500519" cy="223.2458178885281" r="3" style="fill: steelblue;"></circle><circle cx="150.8814024925232" cy="250.74879750609398" r="3" style="fill: steelblue;"></circle><circle cx="329.41423416137695" cy="266.33321419358253" r="3" style="fill: steelblue;"></circle><circle cx="62.42864549160004" cy="244.07531339675188" r="3" style="fill: steelblue;"></circle><circle cx="128.8445234298706" cy="160.4303514584899" r="3" style="fill: steelblue;"></circle><circle cx="177.97900646924973" cy="164.26444118842483" r="3" style="fill: steelblue;"></circle></g></svg>