<svg xmlns="http://www.w3.org/2000/svg"><g><circle cx="49.47386176791042" cy="81.22635558247566" r="2" style="fill: steelblue;"></circle><circle cx="45.30809745192528" cy="89.90782424807549" r="2" style="fill: steelblue;"></circle><circle cx="41.67623743414879" cy="72.27737382054329" r="2" style="fill: steelblue;"></circle><circle cx="37.97738831490278" cy="91.8778732419014" r="2" style="fill: steelblue;"></circle><circle cx="25.588273257017136" cy="78.4530408680439" r="2" style="fill: steelblue;"></circle><circle cx="46.86887580901384" cy="77.32033282518387" r="2" style="fill: steelblue;"></circle><circle cx="39.47016801685095" cy="57.87545274943113" r="2" style="fill: steelblue;"></circle><circle cx="45.431993156671524" cy="47.517343144863844" r="2" style="fill: steelblue;"></circle><circle cx="25.4603523761034" cy="75.18287487328053" r="2" style="fill: steelblue;"></circle><circle cx="47.33578087761998" cy="83.50821509957314" r="2" style="fill: steelblue;"></circle><circle cx="64.02647327631712" cy="76.21022425591946" r="2" style="fill: steelblue;"></circle><circle cx="31.92428983747959" cy="54.71831252798438" r="2" style="fill: steelblue;"></circle><circle cx="22.876839339733127" cy="76.07433870434761" r="2" style="fill: steelblue;"></circle><circle cx="18.409996479749683" cy="54.12630429491401" r="2" style="fill: steelblue;"></circle><circle cx="39.17714226990938" cy="75.47717839479446" r="2" style="fill: steelblue;"></circle><circle cx="7.728710025548938" cy="34.97644439339638" r="2" style="fill: steelblue;"></circle><circle cx="30.861129239201546" cy="57.79317459091544" r="2" style="fill: steelblue;"></circle><circle cx="50.77839457662776" cy="56.7357555963099" r="2" style="fill: steelblue;"></circle><circle cx="38.26981242746115" cy="59.41845588386059" r="2" style="fill: steelblue;"></circle><circle cx="59.805018082261086" cy="40.762146189808846" r="2" style="fill: steelblue;"></circle><circle cx="78.65765802562237" cy="29.908958077430725" r="2" style="fill: steelblue;"></circle><circle cx="68.91474239528179" cy="13.40760588645935" r="2" style="fill: steelblue;"></circle><circle cx="11.957242339849476" cy="40.8455777913332" r="2" style="fill: steelblue;"></circle><circle cx="52.84274714067578" cy="62.89838086813688" r="2" style="fill: steelblue;"></circle><circle cx="27.979499846696854" cy="44.98058948665857" r="2" style="fill: steelblue;"></circle><circle cx="34.245190396904945" cy="31.423592194914818" r="2" style="fill: steelblue;"></circle><circle cx="25.796561688184738" cy="59.03266575187445" r="2" style="fill: steelblue;"></circle><circle cx="43.6546366661787" cy="77.71595492959023" r="2" style="fill: steelblue;"></circle><circle cx="17.150121927261356" cy="66.23301208019257" r="2" style="fill: steelblue;"></circle><circle cx="34.99211575835943" cy="63.24288081377745" r="2" style="fill: steelblue;"></circle><circle cx="48.02075116895139" cy="17.69009903073311" r="2" style="fill: steelblue;"></circle><circle cx="60.33191941678524" cy="36.50649655610323" r="2" style="fill: steelblue;"></circle><circle cx="93.9145565032959" cy="50.52470969967544" r="2" style="fill: steelblue;"></circle><circle cx="42.405857890844345" cy="77.71048434078693" r="2" style="fill: steelblue;"></circle><circle cx="57.17077683657408" cy="78.06928940117359" r="2" style="fill: steelblue;"></circle><circle cx="80.69580905139446" cy="62.77389470487833" r="2" style="fill: steelblue;"></circle><circle cx="53.56254447251558" cy="56.81068375706673" r="2" style="fill: steelblue;"></circle><circle cx="85.46590730547905" cy="94.45130750536919" r="2" style="fill: steelblue;"></circle><circle cx="27.53238119184971" cy="71.80244587361813" r="2" style="fill: steelblue;"></circle><circle cx="24.276144057512287" cy="39.896856248378754" r="2" style="fill: steelblue;"></circle><circle cx="58.880577981472015" cy="68.44597049057484" r="2" style="fill: steelblue;"></circle><circle cx="29.796506464481354" cy="61.404416523873806" r="2" style="fill: steelblue;"></circle><circle cx="83.92302989959717" cy="53.42129450291395" r="2" style="fill: steelblue;"></circle><circle cx="57.234842982143164" cy="18.74011680483818" r="2" style="fill: steelblue;"></circle><circle cx="69.81996558606625" cy="44.212211575359106" r="2" style="fill: steelblue;"></circle><circle cx="77.11962908506393" cy="11.742959916591644" r="2" style="fill: steelblue;"></circle><circle cx="56.582504604011774" cy="38.92663978040218" r="2" style="fill: steelblue;"></circle><circle cx="82.34004974365234" cy="89.91248831152916" r="2" style="fill: steelblue;"></circle><circle cx="27.67617180943489" cy="51.93997903261334" r="2" style="fill: steelblue;"></circle><circle cx="9.425706416368488" cy="59.502096101641655" r="2" style="fill: steelblue;"></circle><circle cx="6.823043525218966" cy="30.32425157725811" r="2" style="fill: steelblue;"></circle><circle cx="30.92655837535858" cy="53.035524394363165" r="2" style="fill: steelblue;"></circle><circle cx="57.361303083598614" cy="17.28389710187912" r="2" style="fill: steelblue;"></circle><circle cx="83.58341380953789" cy="69.60242539644241" r="2" style="fill: steelblue;"></circle><circle cx="49.19578869594261" cy="50.005174428224564" r="2" style="fill: steelblue;"></circle><circle cx="36.80306877940893" cy="72.83060364425182" r="2" style="fill: steelblue;"></circle><circle cx="38.691333681344986" cy="55.44359441846609" r="2" style="fill: steelblue;"></circle><circle cx="38.94564714282751" cy="44.24236640334129" r="2" style="fill: steelblue;"></circle><circle cx="49.65060121030547" cy="26.80591605603695" r="2" style="fill: steelblue;"></circle><circle cx="21.504425629973415" cy="71.38444408774376" r="2" style="fill: steelblue;"></circle><circle cx="34.11992751061916" cy="66.26410335302353" r="2" style="fill: steelblue;"></circle><circle cx="15.252641588449482" cy="63.34444712847471" r="2" style="fill: steelblue;"></circle><circle cx="27.468568831682205" cy="87.35988214612007" r="2" style="fill: steelblue;"></circle><circle cx="27.908216416835785" cy="81.48181363940239" r="2" style="fill: steelblue;"></circle><circle cx="8.792015910148624" cy="79.47048284113407" r="2" style="fill: steelblue;"></circle><circle cx="25.016385316848755" cy="49.31879615178332" r="2" style="fill: steelblue;"></circle><circle cx="46.98489811271429" cy="83.77373516559601" r="2" style="fill: steelblue;"></circle><circle cx="15.921137481927875" cy="80.77692538499832" r="2" style="fill: steelblue;"></circle><circle cx="34.1141439974308" cy="39.23155292868614" r="2" style="fill: steelblue;"></circle><circle cx="14.119985699653629" cy="55.842854268848896" r="2" style="fill: steelblue;"></circle><circle cx="41.26862734556198" cy="78.16012501716614" r="2" style="fill: steelblue;"></circle><circle cx="59.37213841825724" cy="45.625609531998634" r="2" style="fill: steelblue;"></circle><circle cx="70.04891633987427" cy="22.640326246619225" r="2" style="fill: steelblue;"></circle><circle cx="85.33653542399406" cy="26.83868370950222" r="2" style="fill: steelblue;"></circle><circle cx="68.38269829750061" cy="22.537599503993988" r="2" style="fill: steelblue;"></circle><circle cx="68.81921477615833" cy="24.676381796598434" r="2" style="fill: steelblue;"></circle><circle cx="91.7468398809433" cy="23.20694662630558" r="2" style="fill: steelblue;"></circle><circle cx="72.59557694196701" cy="23.829133436083794" r="2" style="fill: steelblue;"></circle><circle cx="53.825186751782894" cy="0.8409462869167328" r="2" style="fill: steelblue;"></circle><circle cx="91.8940857052803" cy="15.052712708711624" r="2" style="fill: steelblue;"></circle><circle cx="80.43489716947079" cy="21.423741430044174" r="2" style="fill: steelblue;"></circle><circle cx="78.39396148920059" cy="2.7191370725631714" r="2" style="fill: steelblue;"></circle><circle cx="83.80891680717468" cy="49.196140677668154" r="2" style="fill: steelblue;"></circle><circle cx="37.30653245002031" cy="60.1274810731411" r="2" style="fill: steelblue;"></circle><circle cx="34.42524578422308" cy="94.17262598872185" r="2" style="fill: steelblue;"></circle><circle cx="21.465559676289562" cy="54.52613132074475" r="2" style="fill: steelblue;"></circle><circle cx="73.85516464710236" cy="52.86068604327738" r="2" style="fill: steelblue;"></circle><circle cx="13.897790759801868" cy="47.24486330524087" r="2" style="fill: steelblue;"></circle><circle cx="23.323544487357143" cy="43.33413923159242" r="2" style="fill: steelblue;"></circle><circle cx="92.145986109972" cy="31.357799842953682" r="2" style="fill: steelblue;"></circle><circle cx="69.68047767877579" cy="19.097375869750977" r="2" style="fill: steelblue;"></circle><circle cx="70.71714960038662" cy="17.378340661525726" r="2" style="fill: steelblue;"></circle><circle cx="93.35588216781616" cy="46.17472500540316" r="2" style="fill: steelblue;"></circle><circle cx="71.26412652432919" cy="17.424899339675903" r="2" style="fill: steelblue;"></circle><circle cx="48.54796065483242" cy="21.326712518930435" r="2" style="fill: steelblue;"></circle><circle cx="76.92494355142117" cy="23.465638235211372" r="2" style="fill: steelblue;"></circle><circle cx="62.51307036727667" cy="28.437915444374084" r="2" style="fill: steelblue;"></circle><circle cx="50.03495253258734" cy="8.80008116364479" r="2" style="fill: steelblue;"></circle><circle cx="71.8394435942173" cy="55.89819625020027" r="2" style="fill: steelblue;"></circle><circle cx="18.402869999408725" cy="72.06737920641899" r="2" style="fill: steelblue;"></circle><circle cx="52.24226829595864" cy="61.16939354687929" r="2" style="fill: steelblue;"></circle><circle cx="51.299223862588406" cy="21.074827015399933" r="2" style="fill: steelblue;"></circle><circle cx="56.54076039791107" cy="54.301386419683695" r="2" style="fill: steelblue;"></circle><circle cx="66.8529748916626" cy="42.06303805112839" r="2" style="fill: steelblue;"></circle><circle cx="86.43270954489708" cy="5.265514552593231" r="2" style="fill: steelblue;"></circle><circle cx="91.49561747908592" cy="22.546741366386414" r="2" style="fill: steelblue;"></circle><circle cx="63.082846999168396" cy="80.54207563400269" r="2" style="fill: steelblue;"></circle><circle cx="58.62972717732191" cy="22.280196845531464" r="2" style="fill: steelblue;"></circle><circle cx="31.83637112379074" cy="11.318880319595337" r="2" style="fill: steelblue;"></circle><circle cx="83.8754877448082" cy="15.891942381858826" r="2" style="fill: steelblue;"></circle><circle cx="54.23590373247862" cy="11.270194500684738" r="2" style="fill: steelblue;"></circle><circle cx="64.00073152035475" cy="13.00417184829712" r="2" style="fill: steelblue;"></circle><circle cx="72.03236892819405" cy="69.60516348481178" r="2" style="fill: steelblue;"></circle><circle cx="22.70552441477776" cy="47.280283132568" r="2" style="fill: steelblue;"></circle><circle cx="36.35005857795477" cy="61.88972033560276" r="2" style="fill: steelblue;"></circle><circle cx="20.75777314603329" cy="82.0976972579956" r="2" style="fill: steelblue;"></circle><circle cx="32.01892897486687" cy="81.41483664512634" r="2" style="fill: steelblue;"></circle><circle cx="44.039477314800024" cy="50.408528139814734" r="2" style="fill: steelblue;"></circle></g></svg>