<svg xmlns="http://www.w3.org/2000/svg"><g><circle cx="12.651614099740986" cy="85.22962033748627" r="2" style="fill: steelblue;"></circle><circle cx="11.084168404340748" cy="69.65021193027496" r="2" style="fill: steelblue;"></circle><circle cx="40.79093988984823" cy="40.297601372003555" r="2" style="fill: steelblue;"></circle><circle cx="34.07428711652756" cy="58.94540250301361" r="2" style="fill: steelblue;"></circle><circle cx="24.879328161478046" cy="43.61971691250801" r="2" style="fill: steelblue;"></circle><circle cx="10.31373739242554" cy="82.94804990291595" r="2" style="fill: steelblue;"></circle><circle cx="40.544870495796204" cy="50.227817799896" r="2" style="fill: steelblue;"></circle><circle cx="86.72727197408676" cy="42.075514048337936" r="2" style="fill: steelblue;"></circle><circle cx="67.93188229203224" cy="65.29235392808914" r="2" style="fill: steelblue;"></circle><circle cx="49.978313222527504" cy="65.40000438690186" r="2" style="fill: steelblue;"></circle><circle cx="39.48132712393999" cy="62.12859004735947" r="2" style="fill: steelblue;"></circle><circle cx="18.906311318278316" cy="54.45307120680809" r="2" style="fill: steelblue;"></circle><circle cx="56.43127877265215" cy="54.85268197953701" r="2" style="fill: steelblue;"></circle><circle cx="70.24862356483936" cy="76.66191458702087" r="2" style="fill: steelblue;"></circle><circle cx="49.17713465401903" cy="45.58213911950588" r="2" style="fill: steelblue;"></circle><circle cx="55.46609330922365" cy="85.23418009281158" r="2" style="fill: steelblue;"></circle><circle cx="26.51810012757778" cy="73.18859249353409" r="2" style="fill: steelblue;"></circle><circle cx="28.00014540553093" cy="32.70573318004608" r="2" style="fill: steelblue;"></circle><circle cx="67.25001446902752" cy="49.44905894808471" r="2" style="fill: steelblue;"></circle><circle cx="38.05705923587084" cy="21.0869163274765" r="2" style="fill: steelblue;"></circle><circle cx="54.616950172930956" cy="50.33416957594454" r="2" style="fill: steelblue;"></circle><circle cx="40.47384690493345" cy="45.443474501371384" r="2" style="fill: steelblue;"></circle><circle cx="43.49201610311866" cy="40.161073952913284" r="2" style="fill: steelblue;"></circle><circle cx="50.36357817589305" cy="71.49991691112518" r="2" style="fill: steelblue;"></circle><circle cx="61.445230804383755" cy="38.67831155657768" r="2" style="fill: steelblue;"></circle><circle cx="19.191096723079685" cy="69.91949826478958" r="2" style="fill: steelblue;"></circle><circle cx="32.68984630703926" cy="60.380224883556366" r="2" style="fill: steelblue;"></circle><circle cx="37.909034825861454" cy="60.323380678892136" r="2" style="fill: steelblue;"></circle><circle cx="2.1311298012733486" cy="76.21188163757324" r="2" style="fill: steelblue;"></circle><circle cx="40.94246234744787" cy="45.6194881349802" r="2" style="fill: steelblue;"></circle><circle cx="54.38897917047143" cy="27.45865285396576" r="2" style="fill: steelblue;"></circle><circle cx="71.4554388076067" cy="28.497126698493958" r="2" style="fill: steelblue;"></circle><circle cx="82.4498862028122" cy="18.626883625984192" r="2" style="fill: steelblue;"></circle><circle cx="65.7291628420353" cy="52.55057066679001" r="2" style="fill: steelblue;"></circle><circle cx="61.54266484081745" cy="44.90026421844959" r="2" style="fill: steelblue;"></circle><circle cx="39.01213798671961" cy="58.06629881262779" r="2" style="fill: steelblue;"></circle><circle cx="34.248775988817215" cy="49.04635343700647" r="2" style="fill: steelblue;"></circle><circle cx="38.986847922205925" cy="67.58857518434525" r="2" style="fill: steelblue;"></circle><circle cx="19.818614423274997" cy="80.46195805072784" r="2" style="fill: steelblue;"></circle><circle cx="4.8277892172336605" cy="78.87359857559204" r="2" style="fill: steelblue;"></circle><circle cx="38.20656631141901" cy="90.5431479215622" r="2" style="fill: steelblue;"></circle><circle cx="74.16373789310455" cy="34.844549000263214" r="2" style="fill: steelblue;"></circle><circle cx="65.884505584836" cy="76.0861337184906" r="2" style="fill: steelblue;"></circle><circle cx="79.38405610620975" cy="37.49697655439377" r="2" style="fill: steelblue;"></circle><circle cx="74.84958432614803" cy="31.808841228485107" r="2" style="fill: steelblue;"></circle><circle cx="67.8317092359066" cy="36.215391755104065" r="2" style="fill: steelblue;"></circle><circle cx="78.19395810365677" cy="24.133053421974182" r="2" style="fill: steelblue;"></circle><circle cx="9.59272608160973" cy="72.68447577953339" r="2" style="fill: steelblue;"></circle><circle cx="55.50786452367902" cy="73.41469824314117" r="2" style="fill: steelblue;"></circle><circle cx="18.371655791997913" cy="65.50005972385406" r="2" style="fill: steelblue;"></circle><circle cx="6.946868449449542" cy="41.541529446840286" r="2" style="fill: steelblue;"></circle><circle cx="7.034852355718615" cy="26.831425726413727" r="2" style="fill: steelblue;"></circle><circle cx="46.190465055406094" cy="36.96146458387375" r="2" style="fill: steelblue;"></circle><circle cx="52.795472741127014" cy="62.247513234615326" r="2" style="fill: steelblue;"></circle><circle cx="37.68936563283205" cy="52.41571944206953" r="2" style="fill: steelblue;"></circle><circle cx="1.5758715569973019" cy="45.14009319245815" r="2" style="fill: steelblue;"></circle><circle cx="47.67485470511019" cy="46.848247945308685" r="2" style="fill: steelblue;"></circle><circle cx="45.212639681994915" cy="72.97789454460144" r="2" style="fill: steelblue;"></circle><circle cx="40.0689460337162" cy="55.58205507695675" r="2" style="fill: steelblue;"></circle><circle cx="19.474660232663158" cy="61.47458031773567" r="2" style="fill: steelblue;"></circle><circle cx="66.04511588811874" cy="42.98383668065071" r="2" style="fill: steelblue;"></circle><circle cx="17.80919656157494" cy="57.97855854034424" r="2" style="fill: steelblue;"></circle><circle cx="9.890227764844898" cy="83.66304337978363" r="2" style="fill: steelblue;"></circle><circle cx="26.9138190895319" cy="84.02851223945618" r="2" style="fill: steelblue;"></circle><circle cx="24.553233012557033" cy="68.50235611200333" r="2" style="fill: steelblue;"></circle><circle cx="5.951284617185595" cy="59.490715712308884" r="2" style="fill: steelblue;"></circle><circle cx="14.759998023509983" cy="73.57389479875565" r="2" style="fill: steelblue;"></circle><circle cx="65.45299496501684" cy="59.491825103759766" r="2" style="fill: steelblue;"></circle><circle cx="0.6247341632843045" cy="80.78971803188324" r="2" style="fill: steelblue;"></circle><circle cx="51.01747876033187" cy="65.05100578069687" r="2" style="fill: steelblue;"></circle><circle cx="30.998773127794266" cy="79.56787943840027" r="2" style="fill: steelblue;"></circle><circle cx="69.94510926306248" cy="47.417364828288555" r="2" style="fill: steelblue;"></circle><circle cx="79.10521626472473" cy="41.449400037527084" r="2" style="fill: steelblue;"></circle><circle cx="75.76837688684464" cy="27.729453146457672" r="2" style="fill: steelblue;"></circle><circle cx="78.11373211443424" cy="33.9666411280632" r="2" style="fill: steelblue;"></circle><circle cx="85.90844571590424" cy="65.6613439321518" r="2" style="fill: steelblue;"></circle><circle cx="60.329682379961014" cy="35.89577674865723" r="2" style="fill: steelblue;"></circle><circle cx="64.52023349702358" cy="30.695322155952454" r="2" style="fill: steelblue;"></circle><circle cx="63.05604726076126" cy="31.495220959186554" r="2" style="fill: steelblue;"></circle><circle cx="87.38788142800331" cy="22.804531455039978" r="2" style="fill: steelblue;"></circle><circle cx="83.68552774190903" cy="16.63714349269867" r="2" style="fill: steelblue;"></circle><circle cx="96.86909541487694" cy="20.806360244750977" r="2" style="fill: steelblue;"></circle><circle cx="89.47019204497337" cy="48.55520725250244" r="2" style="fill: steelblue;"></circle><circle cx="46.133994311094284" cy="60.83305776119232" r="2" style="fill: steelblue;"></circle><circle cx="26.203059777617455" cy="64.8634135723114" r="2" style="fill: steelblue;"></circle><circle cx="23.035126924514774" cy="48.341529816389084" r="2" style="fill: steelblue;"></circle><circle cx="44.164098519831896" cy="56.60919025540352" r="2" style="fill: steelblue;"></circle><circle cx="44.62726013734937" cy="65.46377837657928" r="2" style="fill: steelblue;"></circle><circle cx="38.172910176217556" cy="69.44506764411926" r="2" style="fill: steelblue;"></circle><circle cx="75.00518038868904" cy="32.006411254405975" r="2" style="fill: steelblue;"></circle><circle cx="61.26353722065687" cy="38.42131048440933" r="2" style="fill: steelblue;"></circle><circle cx="96.41737043857574" cy="8.010086417198181" r="2" style="fill: steelblue;"></circle><circle cx="56.07656501233578" cy="14.291295409202576" r="2" style="fill: steelblue;"></circle><circle cx="93.97307708859444" cy="40.95977544784546" r="2" style="fill: steelblue;"></circle><circle cx="73.23922701179981" cy="40.24284482002258" r="2" style="fill: steelblue;"></circle><circle cx="99.43970963358879" cy="45.778704434633255" r="2" style="fill: steelblue;"></circle><circle cx="53.498624777421355" cy="24.662089347839355" r="2" style="fill: steelblue;"></circle><circle cx="56.1390670016408" cy="19.587966799736023" r="2" style="fill: steelblue;"></circle><circle cx="60.34101005643606" cy="39.13026452064514" r="2" style="fill: steelblue;"></circle><circle cx="64.34844639152288" cy="44.246287643909454" r="2" style="fill: steelblue;"></circle><circle cx="64.21242579817772" cy="47.7094741538167" r="2" style="fill: steelblue;"></circle><circle cx="76.6948938369751" cy="59.134991466999054" r="2" style="fill: steelblue;"></circle><circle cx="48.666309169493616" cy="44.33553330600262" r="2" style="fill: steelblue;"></circle><circle cx="70.62935568392277" cy="13.40453326702118" r="2" style="fill: steelblue;"></circle><circle cx="61.30128093063831" cy="62.977246940135956" r="2" style="fill: steelblue;"></circle><circle cx="8.513118326663974" cy="32.31741487979889" r="2" style="fill: steelblue;"></circle><circle cx="60.84069907665253" cy="27.987775206565857" r="2" style="fill: steelblue;"></circle><circle cx="27.7158722281456" cy="22.203490138053894" r="2" style="fill: steelblue;"></circle><circle cx="50.79154275590554" cy="35.1631224155426" r="2" style="fill: steelblue;"></circle><circle cx="79.53803539276123" cy="40.932903438806534" r="2" style="fill: steelblue;"></circle><circle cx="59.47475153952837" cy="17.92270839214325" r="2" style="fill: steelblue;"></circle><circle cx="66.47678948938847" cy="64.08874988555908" r="2" style="fill: steelblue;"></circle><circle cx="25.566700100898743" cy="71.4846283197403" r="2" style="fill: steelblue;"></circle><circle cx="17.157796025276188" cy="68.58990639448166" r="2" style="fill: steelblue;"></circle><circle cx="50.502862385474145" cy="48.41709677129984" r="2" style="fill: steelblue;"></circle><circle cx="30.690428987145424" cy="34.94579643011093" r="2" style="fill: steelblue;"></circle><circle cx="14.473884552717212" cy="39.959315955638885" r="2" style="fill: steelblue;"></circle><circle cx="33.094632625579834" cy="74.95414018630981" r="2" style="fill: steelblue;"></circle></g></svg>