<svg xmlns="http://www.w3.org/2000/svg"><g transform="translate(40,20)"><circle cx="347.1727055311203" cy="55.70584461092949" r="3" style="fill: steelblue;"></circle><circle cx="61.64798185229303" cy="43.28046478331089" r="3" style="fill: steelblue;"></circle><circle cx="329.902099147439" cy="92.46693011373281" r="3" style="fill: steelblue;"></circle><circle cx="416.02401182055473" cy="7.641180604696274" r="3" style="fill: steelblue;"></circle><circle cx="465.0138285756111" cy="64.43956419825554" r="3" style="fill: steelblue;"></circle><circle cx="464.8269456624985" cy="181.4196547609754" r="3" style="fill: steelblue;"></circle><circle cx="393.9487040787935" cy="100.60705821961164" r="3" style="fill: steelblue;"></circle><circle cx="261.058528306894" cy="104.74564619362354" r="3" style="fill: steelblue;"></circle><circle cx="383.5574910789728" cy="76.09515655785799" r="3" style="fill: steelblue;"></circle><circle cx="154.25846323370934" cy="52.885013818740845" r="3" style="fill: steelblue;"></circle><circle cx="455.4861192405224" cy="7.397386431694031" r="3" style="fill: steelblue;"></circle><circle cx="298.7077199667692" cy="60.587647557258606" r="3" style="fill: steelblue;"></circle><circle cx="341.14794440567493" cy="76.36309806257486" r="3" style="fill: steelblue;"></circle><circle cx="271.39689146890305" cy="95.2266363427043" r="3" style="fill: steelblue;"></circle><circle cx="231.99628841131926" cy="99.63408503681421" r="3" style="fill: steelblue;"></circle><circle cx="412.32151731848717" cy="148.4192981850356" r="3" style="fill: steelblue;"></circle><circle cx="461.1041736602783" cy="52.610787749290466" r="3" style="fill: steelblue;"></circle><circle cx="433.55835646390915" cy="24.518978968262672" r="3" style="fill: steelblue;"></circle><circle cx="384.36290815472603" cy="114.4526844844222" r="3" style="fill: steelblue;"></circle><circle cx="309.733655937016" cy="98.15506748855114" r="3" style="fill: steelblue;"></circle><circle cx="443.24637472629547" cy="81.27754293382168" r="3" style="fill: steelblue;"></circle><circle cx="424.13267835974693" cy="47.24692478775978" r="3" style="fill: steelblue;"></circle><circle cx="360.3059273958206" cy="153.28691685572267" r="3" style="fill: steelblue;"></circle><circle cx="227.72417820990086" cy="35.81737466156483" r="3" style="fill: steelblue;"></circle><circle cx="229.6264511346817" cy="238.19305207580328" r="3" style="fill: steelblue;"></circle><circle cx="378.5890609771013" cy="99.8795285820961" r="3" style="fill: steelblue;"></circle><circle cx="95.6636291742325" cy="126.65596948936582" r="3" style="fill: steelblue;"></circle><circle cx="476.64911046624184" cy="114.64332714676857" r="3" style="fill: steelblue;"></circle><circle cx="345.3360377624631" cy="281.4407667145133" r="3" style="fill: steelblue;"></circle><circle cx="247.54241209477186" cy="222.947411891073" r="3" style="fill: steelblue;"></circle><circle cx="386.9627331197262" cy="134.65374633669853" r="3" style="fill: steelblue;"></circle><circle cx="269.19005072442815" cy="156.44645243883133" r="3" style="fill: steelblue;"></circle><circle cx="112.70778335630895" cy="105.67801743745804" r="3" style="fill: steelblue;"></circle><circle cx="401.7235663533211" cy="201.60239953547716" r="3" style="fill: steelblue;"></circle><circle cx="134.8287154734135" cy="190.67476871423423" r="3" style="fill: steelblue;"></circle><circle cx="118.51997271180154" cy="248.36871419101954" r="3" style="fill: steelblue;"></circle><circle cx="137.17635914683342" cy="243.8610253855586" r="3" style="fill: steelblue;"></circle><circle cx="267.3632946086582" cy="217.64763975515962" r="3" style="fill: steelblue;"></circle><circle cx="223.48613038659096" cy="76.83409489691257" r="3" style="fill: steelblue;"></circle><circle cx="373.02268601953983" cy="315.47341234982014" r="3" style="fill: steelblue;"></circle><circle cx="294.95688535273075" cy="193.62204866483808" r="3" style="fill: steelblue;"></circle><circle cx="129.57767777144912" cy="198.46994983963668" r="3" style="fill: steelblue;"></circle><circle cx="359.9477116763592" cy="202.86296978592873" r="3" style="fill: steelblue;"></circle><circle cx="142.41356670856476" cy="179.4134504860267" r="3" style="fill: steelblue;"></circle><circle cx="296.01417945697904" cy="207.988544087857" r="3" style="fill: steelblue;"></circle><circle cx="265.35026913508773" cy="212.65682503581047" r="3" style="fill: steelblue;"></circle><circle cx="263.47751727327704" cy="80.39655648171902" r="3" style="fill: steelblue;"></circle><circle cx="237.02888030558825" cy="292.5365764647722" r="3" style="fill: steelblue;"></circle><circle cx="144.18146096169949" cy="245.4629048705101" r="3" style="fill: steelblue;"></circle><circle cx="267.60402124375105" cy="221.00311489775777" r="3" style="fill: steelblue;"></circle><circle cx="373.1999632716179" cy="87.60419599711895" r="3" style="fill: steelblue;"></circle><circle cx="121.06188207864763" cy="139.24733940511942" r="3" style="fill: steelblue;"></circle><circle cx="124.65158298611642" cy="185.14864875469357" r="3" style="fill: steelblue;"></circle><circle cx="278.6908594937995" cy="170.48843957018107" r="3" style="fill: steelblue;"></circle><circle cx="269.77134004438994" cy="331.2581919133663" r="3" style="fill: steelblue;"></circle><circle cx="233.34184790030122" cy="218.17366564646363" r="3" style="fill: steelblue;"></circle><circle cx="117.38326594233514" cy="181.70188973890617" r="3" style="fill: steelblue;"></circle><circle cx="203.20631179958582" cy="349.72812347114086" r="3" style="fill: steelblue;"></circle><circle cx="82.52968311309816" cy="269.0287774428725" r="3" style="fill: steelblue;"></circle><circle cx="436.58383794128895" cy="221.643755864352" r="3" style="fill: steelblue;"></circle><circle cx="349.21154983341694" cy="153.27618126757443" r="3" style="fill: steelblue;"></circle><circle cx="298.59435053542256" cy="221.6511780396104" r="3" style="fill: steelblue;"></circle><circle cx="313.9291924238205" cy="186.86714961659163" r="3" style="fill: steelblue;"></circle><circle cx="219.7784860432148" cy="60.321687906980515" r="3" style="fill: steelblue;"></circle><circle cx="406.83855570852757" cy="45.797667652368546" r="3" style="fill: steelblue;"></circle><circle cx="411.03494212031364" cy="75.5116568878293" r="3" style="fill: steelblue;"></circle><circle cx="182.86001801490784" cy="241.97603408247232" r="3" style="fill: steelblue;"></circle><circle cx="510.032534301281" cy="136.23756747692823" r="3" style="fill: steelblue;"></circle><circle cx="380.8320079743862" cy="134.29977670311928" r="3" style="fill: steelblue;"></circle><circle cx="416.69336043298244" cy="75.4359096288681" r="3" style="fill: steelblue;"></circle><circle cx="154.8556436598301" cy="95.22078856825829" r="3" style="fill: steelblue;"></circle><circle cx="160.97521416842937" cy="82.40813873708248" r="3" style="fill: steelblue;"></circle><circle cx="297.0603943616152" cy="90.86731281131506" r="3" style="fill: steelblue;"></circle><circle cx="165.80577537417412" cy="176.89129073987715" r="3" style="fill: steelblue;"></circle><circle cx="19.203895032405867" cy="243.29338055104017" r="3" style="fill: steelblue;"></circle><circle cx="219.69670716673136" cy="127.1454256027937" r="3" style="fill: steelblue;"></circle><circle cx="26.273158639669433" cy="216.68461496010423" r="3" style="fill: steelblue;"></circle><circle cx="277.0085800951347" cy="275.17855651676655" r="3" style="fill: steelblue;"></circle><circle cx="143.37931282818317" cy="194.3883841857314" r="3" style="fill: steelblue;"></circle><circle cx="197.17290557920933" cy="285.40625534951687" r="3" style="fill: steelblue;"></circle><circle cx="95.69794803857805" cy="164.3417115090415" r="3" style="fill: steelblue;"></circle><circle cx="174.95912544429302" cy="160.47505727037787" r="3" style="fill: steelblue;"></circle><circle cx="429.20524187386036" cy="221.77264159545302" r="3" style="fill: steelblue;"></circle><circle cx="134.09174501895907" cy="149.42770027555525" r="3" style="fill: steelblue;"></circle><circle cx="368.9611007273197" cy="58.058175444602966" r="3" style="fill: steelblue;"></circle><circle cx="429.93648916482925" cy="85.95869615674019" r="3" style="fill: steelblue;"></circle><circle cx="266.8655316741206" cy="271.953590400517" r="3" style="fill: steelblue;"></circle><circle cx="283.8357263524085" cy="128.10072507709265" r="3" style="fill: steelblue;"></circle><circle cx="428.39068181812763" cy="187.79885589610785" r="3" style="fill: steelblue;"></circle><circle cx="367.9464713484049" cy="145.9359873086214" r="3" style="fill: steelblue;"></circle><circle cx="485.51299318671227" cy="133.34203902631998" r="3" style="fill: steelblue;"></circle><circle cx="426.23583532869816" cy="66.76472276449203" r="3" style="fill: steelblue;"></circle><circle cx="395.83823315799236" cy="79.87534180283546" r="3" style="fill: steelblue;"></circle><circle cx="517.02038615942" cy="278.1641289591789" r="3" style="fill: steelblue;"></circle><circle cx="352.75813590735197" cy="246.66397385299206" r="3" style="fill: steelblue;"></circle><circle cx="299.2975905351341" cy="245.3476769849658" r="3" style="fill: steelblue;"></circle><circle cx="60.350121259689345" cy="128.10309482738376" r="3" style="fill: steelblue;"></circle><circle cx="224.8344785347581" cy="34.45168137550354" r="3" style="fill: steelblue;"></circle><circle cx="249.56730932928622" cy="182.66060571186244" r="3" style="fill: steelblue;"></circle><circle cx="218.3959548175335" cy="153.70033560320735" r="3" style="fill: steelblue;"></circle><circle cx="375.7333532720804" cy="275.1432677730918" r="3" style="fill: steelblue;"></circle><circle cx="187.0622231438756" cy="140.38498578593135" r="3" style="fill: steelblue;"></circle><circle cx="295.0659297220409" cy="240.63755869865417" r="3" style="fill: steelblue;"></circle><circle cx="201.82692881673574" cy="275.312820635736" r="3" style="fill: steelblue;"></circle><circle cx="309.65510576963425" cy="184.3218283727765" r="3" style="fill: steelblue;"></circle><circle cx="219.75763019174337" cy="291.3092479109764" r="3" style="fill: steelblue;"></circle><circle cx="385.6417988240719" cy="83.27557165175676" r="3" style="fill: steelblue;"></circle><circle cx="237.07079065963626" cy="152.96305152587593" r="3" style="fill: steelblue;"></circle><circle cx="233.88697419315577" cy="82.07722119987011" r="3" style="fill: steelblue;"></circle><circle cx="463.33942607045174" cy="64.55908827483654" r="3" style="fill: steelblue;"></circle><circle cx="259.7824080660939" cy="64.97415639460087" r="3" style="fill: steelblue;"></circle><circle cx="441.4650325477123" cy="157.80610237270594" r="3" style="fill: steelblue;"></circle><circle cx="125.19359372556211" cy="169.16054657194763" r="3" style="fill: steelblue;"></circle><circle cx="82.06651926040651" cy="333.87468308210373" r="3" style="fill: steelblue;"></circle><circle cx="128.6347840726376" cy="244.9564954265952" r="3" style="fill: steelblue;"></circle><circle cx="204.33528374880552" cy="245.52492257207632" r="3" style="fill: steelblue;"></circle><circle cx="320.71462634950876" cy="124.93461156263947" r="3" style="fill: steelblue;"></circle><circle cx="152.1683418005705" cy="229.6257789246738" r="3" style="fill: steelblue;"></circle></g></svg>