<svg xmlns="http://www.w3.org/2000/svg"><g transform="translate(40,20)"><circle cx="329.3165596042361" cy="193.98484374396503" r="3" style="fill: steelblue;"></circle><circle cx="234.36857383831273" cy="66.89155492931604" r="3" style="fill: steelblue;"></circle><circle cx="474.20211451394226" cy="19.662470743060112" r="3" style="fill: steelblue;"></circle><circle cx="424.9987833840507" cy="101.01711302995682" r="3" style="fill: steelblue;"></circle><circle cx="451.8415955134801" cy="249.2130558937788" r="3" style="fill: steelblue;"></circle><circle cx="536.7818135874613" cy="7.954848185181618" r="3" style="fill: steelblue;"></circle><circle cx="350.3687085424151" cy="127.18215836212039" r="3" style="fill: steelblue;"></circle><circle cx="467.0302018097469" cy="120.4800090752542" r="3" style="fill: steelblue;"></circle><circle cx="402.67960105623524" cy="91.02918598800898" r="3" style="fill: steelblue;"></circle><circle cx="513.2964221068792" cy="172.37603653920814" r="3" style="fill: steelblue;"></circle><circle cx="402.04160698822574" cy="280.02192191779613" r="3" style="fill: steelblue;"></circle><circle cx="384.61772816521784" cy="231.92556779831648" r="3" style="fill: steelblue;"></circle><circle cx="315.5765760796411" cy="53.60635668039322" r="3" style="fill: steelblue;"></circle><circle cx="365.03622676645006" cy="181.07307715108618" r="3" style="fill: steelblue;"></circle><circle cx="251.60369836858342" cy="92.57589299231768" r="3" style="fill: steelblue;"></circle><circle cx="226.1432281535651" cy="44.105855002999306" r="3" style="fill: steelblue;"></circle><circle cx="424.16460105351047" cy="294.5753701031208" r="3" style="fill: steelblue;"></circle><circle cx="269.83346988047873" cy="20.028279349207878" r="3" style="fill: steelblue;"></circle><circle cx="300.63200673886706" cy="107.12413229048252" r="3" style="fill: steelblue;"></circle><circle cx="533.2542872428895" cy="173.04240392404608" r="3" style="fill: steelblue;"></circle><circle cx="210.81824410174573" cy="53.304606303572655" r="3" style="fill: steelblue;"></circle><circle cx="235.00224050932698" cy="245.493851788342" r="3" style="fill: steelblue;"></circle><circle cx="209.05177812491144" cy="212.58255764842033" r="3" style="fill: steelblue;"></circle><circle cx="386.2131444045476" cy="113.21847159415483" r="3" style="fill: steelblue;"></circle><circle cx="163.32842064755303" cy="188.76611576415598" r="3" style="fill: steelblue;"></circle><circle cx="107.40072446210044" cy="288.0853835493326" r="3" style="fill: steelblue;"></circle><circle cx="131.85358490262715" cy="154.484299197793" r="3" style="fill: steelblue;"></circle><circle cx="518.1635509218489" cy="121.64617720991373" r="3" style="fill: steelblue;"></circle><circle cx="412.7299416916712" cy="78.30156031996012" r="3" style="fill: steelblue;"></circle><circle cx="148.64899341549193" cy="205.1846112124622" r="3" style="fill: steelblue;"></circle><circle cx="174.81013553483146" cy="167.3594230785966" r="3" style="fill: steelblue;"></circle><circle cx="252.61703885027342" cy="216.98804404586554" r="3" style="fill: steelblue;"></circle><circle cx="228.3533449125077" cy="246.06720097362995" r="3" style="fill: steelblue;"></circle><circle cx="115.39717503956386" cy="236.89283169806004" r="3" style="fill: steelblue;"></circle><circle cx="263.8340225815773" cy="186.06360624544322" r="3" style="fill: steelblue;"></circle><circle cx="381.78247613566265" cy="138.60267279669642" r="3" style="fill: steelblue;"></circle><circle cx="80.39903742926461" cy="215.96323950216174" r="3" style="fill: steelblue;"></circle><circle cx="61.90976219517844" cy="194.82243149541318" r="3" style="fill: steelblue;"></circle><circle cx="111.98128989764622" cy="211.72801982611418" r="3" style="fill: steelblue;"></circle><circle cx="90.5957806961877" cy="179.71827876754105" r="3" style="fill: steelblue;"></circle><circle cx="95.90425550937653" cy="310.32159477472305" r="3" style="fill: steelblue;"></circle><circle cx="219.32814564023698" cy="314.37104493379593" r="3" style="fill: steelblue;"></circle><circle cx="212.09703562515122" cy="171.5020774397999" r="3" style="fill: steelblue;"></circle><circle cx="197.10128973637308" cy="229.22593653202057" r="3" style="fill: steelblue;"></circle><circle cx="151.38636972223009" cy="144.54307286068797" r="3" style="fill: steelblue;"></circle><circle cx="130.06984310490745" cy="194.8210934177041" r="3" style="fill: steelblue;"></circle><circle cx="214.58000632269042" cy="138.01329927518964" r="3" style="fill: steelblue;"></circle><circle cx="128.6587406056268" cy="185.5108937714249" r="3" style="fill: steelblue;"></circle><circle cx="139.4870981148311" cy="147.93372428976" r="3" style="fill: steelblue;"></circle><circle cx="125.57618124144417" cy="227.77129774913192" r="3" style="fill: steelblue;"></circle><circle cx="54.82559221131461" cy="223.2637328095734" r="3" style="fill: steelblue;"></circle><circle cx="285.7747605443001" cy="91.6456013917923" r="3" style="fill: steelblue;"></circle><circle cx="91.46335652896336" cy="206.17431281134486" r="3" style="fill: steelblue;"></circle><circle cx="160.09901033980506" cy="252.15569250285625" r="3" style="fill: steelblue;"></circle><circle cx="147.69319781235285" cy="159.74122839979827" r="3" style="fill: steelblue;"></circle><circle cx="132.7538300412042" cy="273.84246718138456" r="3" style="fill: steelblue;"></circle><circle cx="135.717017693179" cy="134.97490780428052" r="3" style="fill: steelblue;"></circle><circle cx="108.6323526927403" cy="191.87663793563843" r="3" style="fill: steelblue;"></circle><circle cx="10.890479769025523" cy="225.66147027537227" r="3" style="fill: steelblue;"></circle><circle cx="94.33748526232583" cy="195.21900448016822" r="3" style="fill: steelblue;"></circle><circle cx="409.28620372499745" cy="85.99888738244772" r="3" style="fill: steelblue;"></circle><circle cx="473.93133401870733" cy="157.80493053607643" r="3" style="fill: steelblue;"></circle><circle cx="391.7665930305209" cy="61.58023066818714" r="3" style="fill: steelblue;"></circle><circle cx="296.825555562973" cy="59.191861376166344" r="3" style="fill: steelblue;"></circle><circle cx="395.067583833422" cy="71.0803933441639" r="3" style="fill: steelblue;"></circle><circle cx="351.39838942459653" cy="60.58164983987808" r="3" style="fill: steelblue;"></circle><circle cx="340.46851796763286" cy="247.4229197949171" r="3" style="fill: steelblue;"></circle><circle cx="149.37115520238876" cy="61.5987453609705" r="3" style="fill: steelblue;"></circle><circle cx="197.39798324448722" cy="191.93930104374886" r="3" style="fill: steelblue;"></circle><circle cx="279.367599274431" cy="185.87502937298268" r="3" style="fill: steelblue;"></circle><circle cx="442.49764527593345" cy="126.42189878970385" r="3" style="fill: steelblue;"></circle><circle cx="259.50988303337783" cy="301.6103535890579" r="3" style="fill: steelblue;"></circle><circle cx="407.98009821346835" cy="171.76672264467925" r="3" style="fill: steelblue;"></circle><circle cx="61.92193559237889" cy="225.21257046610117" r="3" style="fill: steelblue;"></circle><circle cx="216.64247034915857" cy="261.6726031526923" r="3" style="fill: steelblue;"></circle><circle cx="252.84204984349864" cy="213.4124657139182" r="3" style="fill: steelblue;"></circle><circle cx="34.54133289200919" cy="268.31854339689016" r="3" style="fill: steelblue;"></circle><circle cx="0.8219422612871358" cy="234.1570120304823" r="3" style="fill: steelblue;"></circle><circle cx="44.199136069842744" cy="288.1880749017" r="3" style="fill: steelblue;"></circle><circle cx="63.738404171807424" cy="263.4941490367055" r="3" style="fill: steelblue;"></circle><circle cx="121.79969225611005" cy="154.74079614505172" r="3" style="fill: steelblue;"></circle><circle cx="104.27981717245919" cy="199.91243020631373" r="3" style="fill: steelblue;"></circle><circle cx="284.1022173847471" cy="260.75794473290443" r="3" style="fill: steelblue;"></circle><circle cx="241.92184080502818" cy="183.3922432968393" r="3" style="fill: steelblue;"></circle><circle cx="387.84473598003393" cy="180.97088370705023" r="3" style="fill: steelblue;"></circle><circle cx="303.8783149634089" cy="97.95258585363626" r="3" style="fill: steelblue;"></circle><circle cx="309.65363208736693" cy="116.72996561974287" r="3" style="fill: steelblue;"></circle><circle cx="123.72320396559579" cy="167.7100467029959" r="3" style="fill: steelblue;"></circle><circle cx="257.95804502708575" cy="112.00085021555424" r="3" style="fill: steelblue;"></circle><circle cx="374.56232964992523" cy="144.36619887128472" r="3" style="fill: steelblue;"></circle><circle cx="438.1362124851772" cy="142.4739157781005" r="3" style="fill: steelblue;"></circle><circle cx="126.77699089050293" cy="125.81352815032005" r="3" style="fill: steelblue;"></circle><circle cx="236.580043256815" cy="279.8246491700411" r="3" style="fill: steelblue;"></circle><circle cx="261.0961950889656" cy="46.95800431072712" r="3" style="fill: steelblue;"></circle><circle cx="262.78223646538595" cy="286.20778508484364" r="3" style="fill: steelblue;"></circle><circle cx="272.29609410677637" cy="185.38631971459836" r="3" style="fill: steelblue;"></circle><circle cx="20.55374315806797" cy="105.87471649050713" r="3" style="fill: steelblue;"></circle><circle cx="238.16380445978473" cy="97.33635298907757" r="3" style="fill: steelblue;"></circle><circle cx="168.11768685068404" cy="188.78705073148012" r="3" style="fill: steelblue;"></circle><circle cx="108.55939277580806" cy="234.91550162434578" r="3" style="fill: steelblue;"></circle><circle cx="158.07759991713934" cy="157.2408827021718" r="3" style="fill: steelblue;"></circle><circle cx="129.3413244826453" cy="221.99824703857303" r="3" style="fill: steelblue;"></circle><circle cx="342.52497145107816" cy="316.28846302628517" r="3" style="fill: steelblue;"></circle><circle cx="5.620858669280998" cy="270.29641456902027" r="3" style="fill: steelblue;"></circle><circle cx="126.1243634564536" cy="138.89902848750353" r="3" style="fill: steelblue;"></circle><circle cx="47.65631190368107" cy="311.2788174301386" r="3" style="fill: steelblue;"></circle><circle cx="305.6733565245356" cy="120.81200880929828" r="3" style="fill: steelblue;"></circle><circle cx="478.9230016299657" cy="16.32583625614643" r="3" style="fill: steelblue;"></circle><circle cx="331.72400695937023" cy="174.85659590674913" r="3" style="fill: steelblue;"></circle><circle cx="414.7358853476389" cy="142.7800014615059" r="3" style="fill: steelblue;"></circle><circle cx="471.2550718443735" cy="72.39442151039839" r="3" style="fill: steelblue;"></circle><circle cx="297.2167940650668" cy="162.19020967837423" r="3" style="fill: steelblue;"></circle><circle cx="322.09040113857816" cy="211.4124388433993" r="3" style="fill: steelblue;"></circle><circle cx="296.34348788431714" cy="147.65153983607888" r="3" style="fill: steelblue;"></circle><circle cx="222.9042362528188" cy="265.6403409317136" r="3" style="fill: steelblue;"></circle><circle cx="148.90483592237746" cy="330.5458065122366" r="3" style="fill: steelblue;"></circle><circle cx="361.8544639859881" cy="163.63562534097582" r="3" style="fill: steelblue;"></circle><circle cx="228.5549729104553" cy="196.00132685154676" r="3" style="fill: steelblue;"></circle></g></svg>