<svg xmlns="http://www.w3.org/2000/svg"><g><circle cx="20.503950491547588" cy="68.40433776378632" r="2" style="fill: steelblue;"></circle><circle cx="71.0577417165041" cy="85.63632037904527" r="2" style="fill: steelblue;"></circle><circle cx="42.24887602031231" cy="59.75811117225223" r="2" style="fill: steelblue;"></circle><circle cx="11.15609630942345" cy="36.254936787817215" r="2" style="fill: steelblue;"></circle><circle cx="8.773698657751087" cy="68.06416246626112" r="2" style="fill: steelblue;"></circle><circle cx="34.544689767062664" cy="64.23604753282335" r="2" style="fill: steelblue;"></circle><circle cx="65.76147601008415" cy="31.982428663306774" r="2" style="fill: steelblue;"></circle><circle cx="38.34301717579365" cy="46.96550650729073" r="2" style="fill: steelblue;"></circle><circle cx="28.931043297052383" cy="47.299008982049095" r="2" style="fill: steelblue;"></circle><circle cx="21.920581534504894" cy="28.345140483644272" r="2" style="fill: steelblue;"></circle><circle cx="57.166154216974974" cy="53.757917715443504" r="2" style="fill: steelblue;"></circle><circle cx="39.191348664462566" cy="34.996179408497284" r="2" style="fill: steelblue;"></circle><circle cx="74.93496425449848" cy="62.291283739937676" r="2" style="fill: steelblue;"></circle><circle cx="27.070139721035957" cy="72.12312122186025" r="2" style="fill: steelblue;"></circle><circle cx="30.899013578891754" cy="41.80290235413445" r="2" style="fill: steelblue;"></circle><circle cx="50.86896016728133" cy="18.74540514416165" r="2" style="fill: steelblue;"></circle><circle cx="52.33592581935227" cy="84.33006472057767" r="2" style="fill: steelblue;"></circle><circle cx="45.137878227978945" cy="76.72495908207364" r="2" style="fill: steelblue;"></circle><circle cx="59.11563169211149" cy="32.62800160381529" r="2" style="fill: steelblue;"></circle><circle cx="75.89119970798492" cy="46.97572622034285" r="2" style="fill: steelblue;"></circle><circle cx="39.53568469733" cy="28.990764750374687" r="2" style="fill: steelblue;"></circle><circle cx="40.73814507573843" cy="51.080228719446396" r="2" style="fill: steelblue;"></circle><circle cx="47.92478792369366" cy="24.713960952228973" r="2" style="fill: steelblue;"></circle><circle cx="69.28877830505371" cy="51.36492037110858" r="2" style="fill: steelblue;"></circle><circle cx="40.57796783745289" cy="19.510306583510506" r="2" style="fill: steelblue;"></circle><circle cx="39.49920851737261" cy="47.07406436403593" r="2" style="fill: steelblue;"></circle><circle cx="54.5844241976738" cy="70.70827583471934" r="2" style="fill: steelblue;"></circle><circle cx="21.504503861069683" cy="46.39259887238344" r="2" style="fill: steelblue;"></circle><circle cx="19.359906390309337" cy="62.609226504961654" r="2" style="fill: steelblue;"></circle><circle cx="6.032123416662219" cy="62.35476599799262" r="2" style="fill: steelblue;"></circle><circle cx="93.25835406780243" cy="28.892307811313213" r="2" style="fill: steelblue;"></circle><circle cx="68.16509291529655" cy="37.94409806529681" r="2" style="fill: steelblue;"></circle><circle cx="35.435767099261284" cy="45.6528572158681" r="2" style="fill: steelblue;"></circle><circle cx="29.135718196630478" cy="52.9027897450659" r="2" style="fill: steelblue;"></circle><circle cx="79.21224012970924" cy="34.17076766490936" r="2" style="fill: steelblue;"></circle><circle cx="85.86063534021378" cy="67.79439515537686" r="2" style="fill: steelblue;"></circle><circle cx="36.28223780542612" cy="14.983312288920093" r="2" style="fill: steelblue;"></circle><circle cx="13.213704526424412" cy="52.67490131987466" r="2" style="fill: steelblue;"></circle><circle cx="38.9708599075675" cy="37.69014171428151" r="2" style="fill: steelblue;"></circle><circle cx="27.16902568936348" cy="29.91050581137339" r="2" style="fill: steelblue;"></circle><circle cx="47.303362702950835" cy="39.5460006263521" r="2" style="fill: steelblue;"></circle><circle cx="33.37102867662907" cy="12.184854348500574" r="2" style="fill: steelblue;"></circle><circle cx="15.95697104930878" cy="22.288035353024803" r="2" style="fill: steelblue;"></circle><circle cx="94.52251270413399" cy="40.2879203359286" r="2" style="fill: steelblue;"></circle><circle cx="48.64798365160823" cy="31.24043610360887" r="2" style="fill: steelblue;"></circle><circle cx="55.724945571273565" cy="26.83508495489756" r="2" style="fill: steelblue;"></circle><circle cx="61.91861927509308" cy="45.08152889708678" r="2" style="fill: steelblue;"></circle><circle cx="46.83316936716437" cy="66.94790654712253" r="2" style="fill: steelblue;"></circle><circle cx="33.084674924612045" cy="57.74621185329225" r="2" style="fill: steelblue;"></circle><circle cx="72.30320125818253" cy="69.92750300301445" r="2" style="fill: steelblue;"></circle><circle cx="44.78044733405113" cy="56.81790759166082" r="2" style="fill: steelblue;"></circle><circle cx="76.32218599319458" cy="37.121142115857864" r="2" style="fill: steelblue;"></circle><circle cx="65.07191266864538" cy="38.25342423386044" r="2" style="fill: steelblue;"></circle><circle cx="24.124111235141758" cy="52.61044220791923" r="2" style="fill: steelblue;"></circle><circle cx="29.851223528385162" cy="12.804928090837265" r="2" style="fill: steelblue;"></circle><circle cx="12.127082049846653" cy="46.850228640768265" r="2" style="fill: steelblue;"></circle><circle cx="48.25630336999893" cy="51.227359887626434" r="2" style="fill: steelblue;"></circle><circle cx="42.145015858113766" cy="53.78307501475017" r="2" style="fill: steelblue;"></circle><circle cx="46.815512888133526" cy="79.56427269511752" r="2" style="fill: steelblue;"></circle><circle cx="44.28645521402359" cy="72.91140092743767" r="2" style="fill: steelblue;"></circle><circle cx="24.81891326606274" cy="70.99287807941437" r="2" style="fill: steelblue;"></circle><circle cx="23.327580839395527" cy="56.52818928162257" r="2" style="fill: steelblue;"></circle><circle cx="6.597354263067248" cy="50.26704834567176" r="2" style="fill: steelblue;"></circle><circle cx="14.22158926725388" cy="60.41507356696658" r="2" style="fill: steelblue;"></circle><circle cx="13.957544416189197" cy="90.76388610733879" r="2" style="fill: steelblue;"></circle><circle cx="19.23649869859219" cy="72.80553645557828" r="2" style="fill: steelblue;"></circle><circle cx="12.215319275856022" cy="66.55080715815227" r="2" style="fill: steelblue;"></circle><circle cx="3.124575316905978" cy="73.56570098135207" r="2" style="fill: steelblue;"></circle><circle cx="17.136338353157047" cy="84.20376247829861" r="2" style="fill: steelblue;"></circle><circle cx="44.38548041507602" cy="66.88412792152829" r="2" style="fill: steelblue;"></circle><circle cx="14.510384947061542" cy="63.034361600875854" r="2" style="fill: steelblue;"></circle><circle cx="86.8875078856945" cy="17.37601823276944" r="2" style="fill: steelblue;"></circle><circle cx="68.90206523239613" cy="66.23513930373721" r="2" style="fill: steelblue;"></circle><circle cx="45.49633264541626" cy="24.561262130737305" r="2" style="fill: steelblue;"></circle><circle cx="88.72700035572052" cy="40.77084047926797" r="2" style="fill: steelblue;"></circle><circle cx="55.29381260275841" cy="54.824247294002106" r="2" style="fill: steelblue;"></circle><circle cx="72.98834174871445" cy="59.60904492272271" r="2" style="fill: steelblue;"></circle><circle cx="43.1075950153172" cy="66.63765443695915" r="2" style="fill: steelblue;"></circle><circle cx="84.64481607079506" cy="31.591770715183685" r="2" style="fill: steelblue;"></circle><circle cx="77.41061337292194" cy="44.499813000826784" r="2" style="fill: steelblue;"></circle><circle cx="75.20689740777016" cy="20.504442519611786" r="2" style="fill: steelblue;"></circle><circle cx="25.150179117918015" cy="3.5626815425025105" r="2" style="fill: steelblue;"></circle><circle cx="47.163839638233185" cy="44.66424205650886" r="2" style="fill: steelblue;"></circle><circle cx="37.37302981317043" cy="53.92205235030916" r="2" style="fill: steelblue;"></circle><circle cx="69.6640994399786" cy="49.2409879134761" r="2" style="fill: steelblue;"></circle><circle cx="21.47863917052746" cy="50.392122483915756" r="2" style="fill: steelblue;"></circle><circle cx="52.287505427375436" cy="54.309877422120834" r="2" style="fill: steelblue;"></circle><circle cx="33.1851851195097" cy="63.948486579789055" r="2" style="fill: steelblue;"></circle><circle cx="12.863769382238392" cy="31.729686756928764" r="2" style="fill: steelblue;"></circle><circle cx="46.15090060979128" cy="35.06112943092982" r="2" style="fill: steelblue;"></circle><circle cx="76.733523234725" cy="56.624330745802986" r="2" style="fill: steelblue;"></circle><circle cx="50.89688308071345" cy="37.64854595065117" r="2" style="fill: steelblue;"></circle><circle cx="61.01905386894941" cy="28.710548414124382" r="2" style="fill: steelblue;"></circle><circle cx="46.9210943672806" cy="19.16279329193963" r="2" style="fill: steelblue;"></circle><circle cx="57.03170709311962" cy="23.2939084370931" r="2" style="fill: steelblue;"></circle><circle cx="86.86939552426338" cy="52.053687638706634" r="2" style="fill: steelblue;"></circle><circle cx="82.13339671492577" cy="0.8299840821160198" r="2" style="fill: steelblue;"></circle><circle cx="67.3543430864811" cy="52.65890823470222" r="2" style="fill: steelblue;"></circle><circle cx="31.658991426229477" cy="26.832977268430923" r="2" style="fill: steelblue;"></circle><circle cx="61.19808852672577" cy="76.37491424878439" r="2" style="fill: steelblue;"></circle><circle cx="71.33578807115555" cy="53.27381706900067" r="2" style="fill: steelblue;"></circle><circle cx="69.1066563129425" cy="53.328137596448265" r="2" style="fill: steelblue;"></circle><circle cx="65.5984228476882" cy="27.140197820133636" r="2" style="fill: steelblue;"></circle><circle cx="76.51341818273067" cy="22.857065995534263" r="2" style="fill: steelblue;"></circle><circle cx="73.70758727192879" cy="85.36538746621873" r="2" style="fill: steelblue;"></circle><circle cx="59.80246439576149" cy="18.77427366044786" r="2" style="fill: steelblue;"></circle><circle cx="32.37192817032337" cy="43.373119251595604" r="2" style="fill: steelblue;"></circle><circle cx="32.5037345290184" cy="36.92866464455923" r="2" style="fill: steelblue;"></circle><circle cx="63.312905095517635" cy="37.8787593709098" r="2" style="fill: steelblue;"></circle><circle cx="44.54036168754101" cy="11.962992615169954" r="2" style="fill: steelblue;"></circle><circle cx="63.60635459423065" cy="61.383034785588585" r="2" style="fill: steelblue;"></circle><circle cx="79.43897992372513" cy="42.978637086020576" r="2" style="fill: steelblue;"></circle><circle cx="62.30845879763365" cy="63.6735286977556" r="2" style="fill: steelblue;"></circle><circle cx="37.49255947768688" cy="77.33636365996468" r="2" style="fill: steelblue;"></circle><circle cx="11.84201538562775" cy="77.76108317905002" r="2" style="fill: steelblue;"></circle><circle cx="40.627892315387726" cy="71.27936283747356" r="2" style="fill: steelblue;"></circle><circle cx="47.896976536139846" cy="64.0561044216156" r="2" style="fill: steelblue;"></circle><circle cx="78.63959223031998" cy="60.17238001028697" r="2" style="fill: steelblue;"></circle></g></svg>