<svg xmlns="http://www.w3.org/2000/svg"><g transform="translate(40,20)"><circle cx="430.94471141695976" cy="70.68398334085941" r="3" style="fill: steelblue;"></circle><circle cx="223.58364544808865" cy="205.0846742466092" r="3" style="fill: steelblue;"></circle><circle cx="266.9570743152872" cy="176.97226664749905" r="3" style="fill: steelblue;"></circle><circle cx="478.67796689271927" cy="39.74576219916344" r="3" style="fill: steelblue;"></circle><circle cx="402.8821901232004" cy="88.87265454977751" r="3" style="fill: steelblue;"></circle><circle cx="374.0583472698927" cy="107.55477491766214" r="3" style="fill: steelblue;"></circle><circle cx="323.22694927453995" cy="140.50105139613152" r="3" style="fill: steelblue;"></circle><circle cx="439.6928232908249" cy="65.0139108300209" r="3" style="fill: steelblue;"></circle><circle cx="384.8794010281563" cy="100.54112896323204" r="3" style="fill: steelblue;"></circle><circle cx="356.526607722044" cy="118.91793943941593" r="3" style="fill: steelblue;"></circle><circle cx="517.1600353717804" cy="14.803680777549744" r="3" style="fill: steelblue;"></circle><circle cx="407.51527704298496" cy="85.86972784250975" r="3" style="fill: steelblue;"></circle><circle cx="387.8529817610979" cy="98.61380811780691" r="3" style="fill: steelblue;"></circle><circle cx="325.1046447828412" cy="139.28402652963996" r="3" style="fill: steelblue;"></circle><circle cx="314.7851222008467" cy="145.9726059809327" r="3" style="fill: steelblue;"></circle><circle cx="290.7482466939837" cy="161.55206232797354" r="3" style="fill: steelblue;"></circle><circle cx="105.62315069139005" cy="281.54055047780275" r="3" style="fill: steelblue;"></circle><circle cx="312.3934534192085" cy="147.52276167273521" r="3" style="fill: steelblue;"></circle><circle cx="432.24529780447483" cy="69.84101068228483" r="3" style="fill: steelblue;"></circle><circle cx="162.8848497569561" cy="244.42648626863956" r="3" style="fill: steelblue;"></circle><circle cx="451.5317250788212" cy="57.34054856002331" r="3" style="fill: steelblue;"></circle><circle cx="102.98449069261552" cy="283.25079306960106" r="3" style="fill: steelblue;"></circle><circle cx="493.7201504409313" cy="29.996198788285255" r="3" style="fill: steelblue;"></circle><circle cx="485.28159230947495" cy="35.4656346142292" r="3" style="fill: steelblue;"></circle><circle cx="377.71712847054005" cy="105.1833426579833" r="3" style="fill: steelblue;"></circle><circle cx="142.73486852645874" cy="257.4866592884064" r="3" style="fill: steelblue;"></circle><circle cx="311.24586107209325" cy="148.26657152734697" r="3" style="fill: steelblue;"></circle><circle cx="381.80688701570034" cy="102.5325732305646" r="3" style="fill: steelblue;"></circle><circle cx="207.26089149713516" cy="215.66423699259758" r="3" style="fill: steelblue;"></circle><circle cx="257.27672612294555" cy="183.24656640179455" r="3" style="fill: steelblue;"></circle><circle cx="271.89825731213205" cy="173.76964803843293" r="3" style="fill: steelblue;"></circle><circle cx="217.67035525292158" cy="208.91736233606935" r="3" style="fill: steelblue;"></circle><circle cx="334.72459863871336" cy="133.04887125268579" r="3" style="fill: steelblue;"></circle><circle cx="360.8523738384247" cy="116.11420214176178" r="3" style="fill: steelblue;"></circle><circle cx="287.32166977599263" cy="163.77299181185663" r="3" style="fill: steelblue;"></circle><circle cx="260.95971069764346" cy="180.8594467700459" r="3" style="fill: steelblue;"></circle><circle cx="170.55870674550533" cy="239.45269007235765" r="3" style="fill: steelblue;"></circle><circle cx="356.695234850049" cy="118.80864407867193" r="3" style="fill: steelblue;"></circle><circle cx="230.44636219739914" cy="200.63661709427834" r="3" style="fill: steelblue;"></circle><circle cx="285.75943725183606" cy="164.78554992936552" r="3" style="fill: steelblue;"></circle><circle cx="325.7965088635683" cy="138.83559610694647" r="3" style="fill: steelblue;"></circle><circle cx="324.46052234619856" cy="139.70151329413056" r="3" style="fill: steelblue;"></circle><circle cx="200.38968052715063" cy="220.1177996583283" r="3" style="fill: steelblue;"></circle><circle cx="225.63425794243813" cy="203.75557355582714" r="3" style="fill: steelblue;"></circle><circle cx="207.11674623191357" cy="215.75766447931528" r="3" style="fill: steelblue;"></circle><circle cx="208.19026686251163" cy="215.0618640705943" r="3" style="fill: steelblue;"></circle><circle cx="25.122973769903197" cy="333.71659107506275" r="3" style="fill: steelblue;"></circle><circle cx="272.16984873404726" cy="173.59361656126566" r="3" style="fill: steelblue;"></circle><circle cx="116.3048066943884" cy="274.6172549203038" r="3" style="fill: steelblue;"></circle><circle cx="203.83129835128784" cy="217.8871214389801" r="3" style="fill: steelblue;"></circle><circle cx="239.8070260696113" cy="194.56952014006674" r="3" style="fill: steelblue;"></circle><circle cx="305.4322283528745" cy="152.03466680832207" r="3" style="fill: steelblue;"></circle><circle cx="247.8633115813136" cy="189.34785360470414" r="3" style="fill: steelblue;"></circle><circle cx="385.9077700227499" cy="99.87459350377321" r="3" style="fill: steelblue;"></circle><circle cx="35.84098041057588" cy="326.7697349190712" r="3" style="fill: steelblue;"></circle><circle cx="148.3295776695013" cy="253.86045891791582" r="3" style="fill: steelblue;"></circle><circle cx="206.70469354838133" cy="216.02473566308618" r="3" style="fill: steelblue;"></circle><circle cx="190.7656480371952" cy="226.35559849441051" r="3" style="fill: steelblue;"></circle><circle cx="178.37616585195065" cy="234.38581842929125" r="3" style="fill: steelblue;"></circle><circle cx="179.28947813808918" cy="233.7938567623496" r="3" style="fill: steelblue;"></circle><circle cx="399.3556250631809" cy="91.1583911627531" r="3" style="fill: steelblue;"></circle><circle cx="321.90892182290554" cy="141.35532844811678" r="3" style="fill: steelblue;"></circle><circle cx="442.9997053742409" cy="62.870561331510544" r="3" style="fill: steelblue;"></circle><circle cx="400.5614322423935" cy="90.37684947252274" r="3" style="fill: steelblue;"></circle><circle cx="483.22887763381004" cy="36.796097829937935" r="3" style="fill: steelblue;"></circle><circle cx="445.95068514347076" cy="60.95788925886154" r="3" style="fill: steelblue;"></circle><circle cx="180.77511683106422" cy="232.8309427946806" r="3" style="fill: steelblue;"></circle><circle cx="462.86193922162056" cy="49.99689124524593" r="3" style="fill: steelblue;"></circle><circle cx="359.23791870474815" cy="117.1606082469225" r="3" style="fill: steelblue;"></circle><circle cx="485.15342965722084" cy="35.548702999949455" r="3" style="fill: steelblue;"></circle><circle cx="419.7638024389744" cy="77.93086878955364" r="3" style="fill: steelblue;"></circle><circle cx="295.76326048001647" cy="158.30159042961895" r="3" style="fill: steelblue;"></circle><circle cx="198.0259033665061" cy="221.64987744763494" r="3" style="fill: steelblue;"></circle><circle cx="130.25975011289123" cy="265.57238418608904" r="3" style="fill: steelblue;"></circle><circle cx="291.35722171515226" cy="161.15735629573464" r="3" style="fill: steelblue;"></circle><circle cx="147.66705863177776" cy="254.28986940532923" r="3" style="fill: steelblue;"></circle><circle cx="104.04446281492712" cy="282.56377410143614" r="3" style="fill: steelblue;"></circle><circle cx="5.957416892051712" cy="346.1387112736702" r="3" style="fill: steelblue;"></circle><circle cx="166.0275001823902" cy="242.38958321511745" r="3" style="fill: steelblue;"></circle><circle cx="41.362958103418364" cy="323.19067530333996" r="3" style="fill: steelblue;"></circle><circle cx="175.23734763264656" cy="236.42023764550686" r="3" style="fill: steelblue;"></circle><circle cx="245.22145304828882" cy="191.06016932055354" r="3" style="fill: steelblue;"></circle><circle cx="114.24717351794244" cy="275.95090605318546" r="3" style="fill: steelblue;"></circle><circle cx="307.0182713493705" cy="151.00667597725987" r="3" style="fill: steelblue;"></circle><circle cx="294.78557266294956" cy="158.93527697771788" r="3" style="fill: steelblue;"></circle><circle cx="408.94215524196625" cy="84.94489938020706" r="3" style="fill: steelblue;"></circle><circle cx="441.1099348962307" cy="64.09541256725788" r="3" style="fill: steelblue;"></circle><circle cx="306.33679496124387" cy="151.44837363623083" r="3" style="fill: steelblue;"></circle><circle cx="379.40790586173534" cy="104.08746842294931" r="3" style="fill: steelblue;"></circle><circle cx="448.9278566837311" cy="59.02824103832245" r="3" style="fill: steelblue;"></circle><circle cx="359.0481188893318" cy="117.28362664580345" r="3" style="fill: steelblue;"></circle><circle cx="225.92851303517818" cy="203.5648526623845" r="3" style="fill: steelblue;"></circle><circle cx="480.3238843381405" cy="38.67896385490894" r="3" style="fill: steelblue;"></circle><circle cx="398.7511423230171" cy="91.55018553137779" r="3" style="fill: steelblue;"></circle><circle cx="148.33185084164143" cy="253.85898556560278" r="3" style="fill: steelblue;"></circle><circle cx="136.343754529953" cy="261.6290479898453" r="3" style="fill: steelblue;"></circle><circle cx="90.68620696663858" cy="291.2219028919935" r="3" style="fill: steelblue;"></circle><circle cx="222.0558826625347" cy="206.07489086687565" r="3" style="fill: steelblue;"></circle><circle cx="151.9093007594347" cy="251.54026802629232" r="3" style="fill: steelblue;"></circle><circle cx="425.5464506149292" cy="74.18285608291626" r="3" style="fill: steelblue;"></circle><circle cx="382.05791160464287" cy="102.36987210810184" r="3" style="fill: steelblue;"></circle><circle cx="207.76500765234232" cy="215.3374950401485" r="3" style="fill: steelblue;"></circle><circle cx="208.86218033730984" cy="214.62636459618807" r="3" style="fill: steelblue;"></circle><circle cx="120.16689598560335" cy="272.11404889822006" r="3" style="fill: steelblue;"></circle><circle cx="212.97862350940704" cy="211.95829957723618" r="3" style="fill: steelblue;"></circle><circle cx="219.98209085315466" cy="207.41901518777013" r="3" style="fill: steelblue;"></circle><circle cx="419.5668411254883" cy="78.05852890014648" r="3" style="fill: steelblue;"></circle><circle cx="184.70134779810905" cy="230.28616346418858" r="3" style="fill: steelblue;"></circle><circle cx="426.77221342921257" cy="73.38838018476963" r="3" style="fill: steelblue;"></circle><circle cx="401.9947075098753" cy="89.44787476211786" r="3" style="fill: steelblue;"></circle><circle cx="325.11610619723797" cy="139.27659783512354" r="3" style="fill: steelblue;"></circle><circle cx="312.6005082204938" cy="147.38855948671699" r="3" style="fill: steelblue;"></circle><circle cx="109.53515924513341" cy="279.0049893781543" r="3" style="fill: steelblue;"></circle><circle cx="20.724546611309066" cy="336.56742349267006" r="3" style="fill: steelblue;"></circle><circle cx="158.2373694330454" cy="247.43874203413725" r="3" style="fill: steelblue;"></circle><circle cx="112.73457862436773" cy="276.93129163235426" r="3" style="fill: steelblue;"></circle><circle cx="139.84775885939598" cy="259.3579340726137" r="3" style="fill: steelblue;"></circle><circle cx="174.51532378792763" cy="236.88821606338024" r="3" style="fill: steelblue;"></circle></g></svg>