<svg xmlns="http://www.w3.org/2000/svg"><g><circle cx="60.809774117337334" cy="77.0962119102478" r="2" style="fill: steelblue;"></circle><circle cx="43.500415152973595" cy="62.125140987336636" r="2" style="fill: steelblue;"></circle><circle cx="44.9428293440077" cy="59.543717838823795" r="2" style="fill: steelblue;"></circle><circle cx="39.483941263622704" cy="40.49415532499552" r="2" style="fill: steelblue;"></circle><circle cx="17.428275611665516" cy="76.36056207120419" r="2" style="fill: steelblue;"></circle><circle cx="44.25669130351808" cy="37.25073877722025" r="2" style="fill: steelblue;"></circle><circle cx="67.14345680342781" cy="57.160062436014414" r="2" style="fill: steelblue;"></circle><circle cx="35.38847797446781" cy="27.087270468473434" r="2" style="fill: steelblue;"></circle><circle cx="43.548867934279976" cy="85.82027181982994" r="2" style="fill: steelblue;"></circle><circle cx="85.17070280181038" cy="70.65091393887997" r="2" style="fill: steelblue;"></circle><circle cx="51.29135358664725" cy="42.92196333408356" r="2" style="fill: steelblue;"></circle><circle cx="63.67455588446723" cy="66.45965874195099" r="2" style="fill: steelblue;"></circle><circle cx="37.162939707438156" cy="59.09544061869383" r="2" style="fill: steelblue;"></circle><circle cx="41.23287399609883" cy="57.03486613929272" r="2" style="fill: steelblue;"></circle><circle cx="43.39102076159583" cy="89.07936066389084" r="2" style="fill: steelblue;"></circle><circle cx="10.573731528388128" cy="67.42372289299965" r="2" style="fill: steelblue;"></circle><circle cx="64.64185731278526" cy="37.982106395065784" r="2" style="fill: steelblue;"></circle><circle cx="73.04871247874367" cy="22.759094089269638" r="2" style="fill: steelblue;"></circle><circle cx="63.68368201785617" cy="23.973380401730537" r="2" style="fill: steelblue;"></circle><circle cx="70.44068806701236" cy="37.296282313764095" r="2" style="fill: steelblue;"></circle><circle cx="91.47618214289346" cy="27.024253457784653" r="2" style="fill: steelblue;"></circle><circle cx="71.00213236278957" cy="45.723516680300236" r="2" style="fill: steelblue;"></circle><circle cx="20.50169971254137" cy="52.15789838694036" r="2" style="fill: steelblue;"></circle><circle cx="36.58006423049503" cy="68.19662004709244" r="2" style="fill: steelblue;"></circle><circle cx="23.029668463601006" cy="33.39948058128357" r="2" style="fill: steelblue;"></circle><circle cx="59.31165690223376" cy="78.68222072720528" r="2" style="fill: steelblue;"></circle><circle cx="36.85839805338117" cy="70.1173797249794" r="2" style="fill: steelblue;"></circle><circle cx="48.086517386966285" cy="63.10624834150076" r="2" style="fill: steelblue;"></circle><circle cx="47.77686049540837" cy="64.03277553617954" r="2" style="fill: steelblue;"></circle><circle cx="75.31297538015578" cy="17.116795480251312" r="2" style="fill: steelblue;"></circle><circle cx="57.01924591428703" cy="57.06937350332737" r="2" style="fill: steelblue;"></circle><circle cx="42.152486741542816" cy="12.062083184719086" r="2" style="fill: steelblue;"></circle><circle cx="79.91413606537712" cy="5.4702118039131165" r="2" style="fill: steelblue;"></circle><circle cx="78.10827593008676" cy="50.69924787385389" r="2" style="fill: steelblue;"></circle><circle cx="57.727853871054116" cy="48.14978486392647" r="2" style="fill: steelblue;"></circle><circle cx="51.41069243351618" cy="54.45108208805323" r="2" style="fill: steelblue;"></circle><circle cx="22.9609575536516" cy="92.41538792848587" r="2" style="fill: steelblue;"></circle><circle cx="35.91904871993595" cy="53.58027848415077" r="2" style="fill: steelblue;"></circle><circle cx="26.29623148176405" cy="80.05925938487053" r="2" style="fill: steelblue;"></circle><circle cx="27.399834659364487" cy="32.72936791181564" r="2" style="fill: steelblue;"></circle><circle cx="42.560605539215935" cy="63.74516822397709" r="2" style="fill: steelblue;"></circle><circle cx="73.23181960317824" cy="35.38086283951998" r="2" style="fill: steelblue;"></circle><circle cx="53.27507667243481" cy="32.705360278487206" r="2" style="fill: steelblue;"></circle><circle cx="77.63937612374623" cy="16.989222913980484" r="2" style="fill: steelblue;"></circle><circle cx="64.86672990851932" cy="7.898508757352829" r="2" style="fill: steelblue;"></circle><circle cx="83.59100421269734" cy="49.70116786425933" r="2" style="fill: steelblue;"></circle><circle cx="82.65288174152374" cy="36.558252945542336" r="2" style="fill: steelblue;"></circle><circle cx="33.589081631766426" cy="82.02618286013603" r="2" style="fill: steelblue;"></circle><circle cx="25.920381148656208" cy="68.32079887390137" r="2" style="fill: steelblue;"></circle><circle cx="56.406151658544935" cy="61.4041306078434" r="2" style="fill: steelblue;"></circle><circle cx="11.114345656500921" cy="37.00642865151167" r="2" style="fill: steelblue;"></circle><circle cx="37.69447737269932" cy="44.208384305238724" r="2" style="fill: steelblue;"></circle><circle cx="55.27067518172165" cy="70.14730498194695" r="2" style="fill: steelblue;"></circle><circle cx="45.71141882075204" cy="88.37233036756516" r="2" style="fill: steelblue;"></circle><circle cx="55.674955067742204" cy="80.74638172984123" r="2" style="fill: steelblue;"></circle><circle cx="40.55677188767327" cy="76.62783861160278" r="2" style="fill: steelblue;"></circle><circle cx="64.95812121364806" cy="61.45884022116661" r="2" style="fill: steelblue;"></circle><circle cx="44.17120996448728" cy="56.67873350903392" r="2" style="fill: steelblue;"></circle><circle cx="52.96622692710823" cy="71.60855382680893" r="2" style="fill: steelblue;"></circle><circle cx="34.58301060729557" cy="60.09172108024359" r="2" style="fill: steelblue;"></circle><circle cx="42.01106975475947" cy="82.58678317070007" r="2" style="fill: steelblue;"></circle><circle cx="24.85860718621148" cy="70.15595883131027" r="2" style="fill: steelblue;"></circle><circle cx="11.093609862857393" cy="75.14935471117496" r="2" style="fill: steelblue;"></circle><circle cx="61.138675444655945" cy="81.57594799995422" r="2" style="fill: steelblue;"></circle><circle cx="38.31082748042213" cy="63.98932188749313" r="2" style="fill: steelblue;"></circle><circle cx="35.415462321705284" cy="98.47020283341408" r="2" style="fill: steelblue;"></circle><circle cx="39.276202519734696" cy="66.38400554656982" r="2" style="fill: steelblue;"></circle><circle cx="39.6735817193985" cy="74.32615868747234" r="2" style="fill: steelblue;"></circle><circle cx="45.704940954844155" cy="82.17903524637222" r="2" style="fill: steelblue;"></circle><circle cx="29.176534877883064" cy="70.2196966856718" r="2" style="fill: steelblue;"></circle><circle cx="31.402700477176243" cy="39.27001189440489" r="2" style="fill: steelblue;"></circle><circle cx="55.57740396761801" cy="35.59000063687563" r="2" style="fill: steelblue;"></circle><circle cx="81.08822504679361" cy="49.92425743403146" r="2" style="fill: steelblue;"></circle><circle cx="78.22425001197391" cy="54.599090199917555" r="2" style="fill: steelblue;"></circle><circle cx="62.68673472934299" cy="38.187430426478386" r="2" style="fill: steelblue;"></circle><circle cx="76.74562931060791" cy="2.6194818317890167" r="2" style="fill: steelblue;"></circle><circle cx="52.849069237709045" cy="55.3672743961215" r="2" style="fill: steelblue;"></circle><circle cx="58.81216459804111" cy="31.002336367964745" r="2" style="fill: steelblue;"></circle><circle cx="83.99431573020088" cy="33.60838368535042" r="2" style="fill: steelblue;"></circle><circle cx="80.83616197109222" cy="72.06572331488132" r="2" style="fill: steelblue;"></circle><circle cx="53.282964353760086" cy="23.498858511447906" r="2" style="fill: steelblue;"></circle><circle cx="64.6984866923756" cy="0.18631964921951294" r="2" style="fill: steelblue;"></circle><circle cx="66.1972098880344" cy="64.15936648845673" r="2" style="fill: steelblue;"></circle><circle cx="55.83246070374217" cy="83.77585485577583" r="2" style="fill: steelblue;"></circle><circle cx="33.39628709687127" cy="53.80933820270002" r="2" style="fill: steelblue;"></circle><circle cx="36.171398229069176" cy="35.55729724466801" r="2" style="fill: steelblue;"></circle><circle cx="48.45391462246577" cy="78.31404656171799" r="2" style="fill: steelblue;"></circle><circle cx="52.98480908903811" cy="63.51502910256386" r="2" style="fill: steelblue;"></circle><circle cx="43.060484859678475" cy="64.50078375637531" r="2" style="fill: steelblue;"></circle><circle cx="78.00716989570194" cy="42.44275502860546" r="2" style="fill: steelblue;"></circle><circle cx="88.81832162539163" cy="36.92747391760349" r="2" style="fill: steelblue;"></circle><circle cx="50.97296875384119" cy="18.33045408129692" r="2" style="fill: steelblue;"></circle><circle cx="80.88709082868364" cy="19.108641147613525" r="2" style="fill: steelblue;"></circle><circle cx="55.88680940369765" cy="48.12370678409934" r="2" style="fill: steelblue;"></circle><circle cx="71.08545137776268" cy="17.727679759263992" r="2" style="fill: steelblue;"></circle><circle cx="84.43100916014778" cy="67.94887147843838" r="2" style="fill: steelblue;"></circle><circle cx="78.79716820187038" cy="22.623322159051895" r="2" style="fill: steelblue;"></circle><circle cx="77.66645815637376" cy="56.59336568787694" r="2" style="fill: steelblue;"></circle><circle cx="73.10333351294199" cy="38.37574664503336" r="2" style="fill: steelblue;"></circle><circle cx="66.66243159108691" cy="69.36766132712364" r="2" style="fill: steelblue;"></circle><circle cx="62.026496562692856" cy="42.5724514760077" r="2" style="fill: steelblue;"></circle><circle cx="70.36380304230583" cy="59.08519700169563" r="2" style="fill: steelblue;"></circle><circle cx="63.75405109590954" cy="35.09315587580204" r="2" style="fill: steelblue;"></circle><circle cx="63.2455481423272" cy="47.32669396325946" r="2" style="fill: steelblue;"></circle><circle cx="93.00323989656236" cy="34.28741656243801" r="2" style="fill: steelblue;"></circle><circle cx="72.25817773077223" cy="49.5982134132646" r="2" style="fill: steelblue;"></circle><circle cx="75.92916488647461" cy="27.32384502887726" r="2" style="fill: steelblue;"></circle><circle cx="62.81123227543301" cy="25.508389994502068" r="2" style="fill: steelblue;"></circle><circle cx="60.50229776236746" cy="25.045278668403625" r="2" style="fill: steelblue;"></circle><circle cx="67.82942844761742" cy="32.897380366921425" r="2" style="fill: steelblue;"></circle><circle cx="75.74828465779622" cy="20.694605261087418" r="2" style="fill: steelblue;"></circle><circle cx="72.48875167634752" cy="38.025703467428684" r="2" style="fill: steelblue;"></circle><circle cx="34.563615918159485" cy="75.68257972598076" r="2" style="fill: steelblue;"></circle><circle cx="48.4941162996822" cy="64.67801537364721" r="2" style="fill: steelblue;"></circle><circle cx="23.62560894754198" cy="68.35197769105434" r="2" style="fill: steelblue;"></circle><circle cx="18.066710895962185" cy="31.076357886195183" r="2" style="fill: steelblue;"></circle><circle cx="30.599542789989048" cy="57.88709335029125" r="2" style="fill: steelblue;"></circle><circle cx="73.16191991170248" cy="69.14486475288868" r="2" style="fill: steelblue;"></circle></g></svg>