<svg xmlns="http://www.w3.org/2000/svg"><g transform="translate(40,20)"><circle cx="343.22940051555634" cy="156.47526495158672" r="3" style="fill: steelblue;"></circle><circle cx="251.3030813634396" cy="99.75470826029778" r="3" style="fill: steelblue;"></circle><circle cx="288.52370023727417" cy="81.86119645833969" r="3" style="fill: steelblue;"></circle><circle cx="251.70079484581947" cy="161.92405298352242" r="3" style="fill: steelblue;"></circle><circle cx="374.33403074741364" cy="138.30404840409756" r="3" style="fill: steelblue;"></circle><circle cx="360.7010507583618" cy="132.44999460875988" r="3" style="fill: steelblue;"></circle><circle cx="356.3981169462204" cy="112.57060468196869" r="3" style="fill: steelblue;"></circle><circle cx="416.9036829471588" cy="73.49352538585663" r="3" style="fill: steelblue;"></circle><circle cx="441.37428045272827" cy="71.5974435210228" r="3" style="fill: steelblue;"></circle><circle cx="421.2056601047516" cy="95.12451216578484" r="3" style="fill: steelblue;"></circle><circle cx="339.11961257457733" cy="129.83569651842117" r="3" style="fill: steelblue;"></circle><circle cx="327.03143298625946" cy="68.6019018292427" r="3" style="fill: steelblue;"></circle><circle cx="310.0942397117615" cy="234.1407373547554" r="3" style="fill: steelblue;"></circle><circle cx="264.8094476759434" cy="122.2244992852211" r="3" style="fill: steelblue;"></circle><circle cx="191.43986642360687" cy="166.80122269317508" r="3" style="fill: steelblue;"></circle><circle cx="338.012325167656" cy="192.9009098559618" r="3" style="fill: steelblue;"></circle><circle cx="310.7788869738579" cy="181.76303328946233" r="3" style="fill: steelblue;"></circle><circle cx="447.04500675201416" cy="227.10238471627235" r="3" style="fill: steelblue;"></circle><circle cx="323.9565843343735" cy="105.76800927519798" r="3" style="fill: steelblue;"></circle><circle cx="348.9989572763443" cy="150.5058828741312" r="3" style="fill: steelblue;"></circle><circle cx="238.84031696710738" cy="202.80740223824978" r="3" style="fill: steelblue;"></circle><circle cx="397.37344622612" cy="205.62192499637604" r="3" style="fill: steelblue;"></circle><circle cx="90.25916397571565" cy="173.87703930726275" r="3" style="fill: steelblue;"></circle><circle cx="279.7004172205925" cy="140.8002644777298" r="3" style="fill: steelblue;"></circle><circle cx="247.10846297442913" cy="93.87668967247009" r="3" style="fill: steelblue;"></circle><circle cx="311.7726096510887" cy="123.69115501642227" r="3" style="fill: steelblue;"></circle><circle cx="165.04606693983078" cy="241.6727177798748" r="3" style="fill: steelblue;"></circle><circle cx="151.32535636425018" cy="74.36216175556183" r="3" style="fill: steelblue;"></circle><circle cx="144.89948093891144" cy="187.47574891895056" r="3" style="fill: steelblue;"></circle><circle cx="389.9244153499604" cy="224.55556094646454" r="3" style="fill: steelblue;"></circle><circle cx="161.32799327373505" cy="216.82740300893784" r="3" style="fill: steelblue;"></circle><circle cx="274.10961851477623" cy="122.60991781949997" r="3" style="fill: steelblue;"></circle><circle cx="143.14688980579376" cy="203.92303243279457" r="3" style="fill: steelblue;"></circle><circle cx="159.64223384857178" cy="217.40197129547596" r="3" style="fill: steelblue;"></circle><circle cx="356.60251021385193" cy="142.81093403697014" r="3" style="fill: steelblue;"></circle><circle cx="276.14678531885147" cy="246.84790819883347" r="3" style="fill: steelblue;"></circle><circle cx="161.9019323587418" cy="231.23050928115845" r="3" style="fill: steelblue;"></circle><circle cx="176.89701855182648" cy="214.558195322752" r="3" style="fill: steelblue;"></circle><circle cx="177.9669338464737" cy="297.8746101260185" r="3" style="fill: steelblue;"></circle><circle cx="184.59892362356186" cy="125.89400708675385" r="3" style="fill: steelblue;"></circle><circle cx="252.03605979681015" cy="141.5440570563078" r="3" style="fill: steelblue;"></circle><circle cx="154.94513154029846" cy="222.46612310409546" r="3" style="fill: steelblue;"></circle><circle cx="186.47046178579333" cy="248.24314936995506" r="3" style="fill: steelblue;"></circle><circle cx="211.1905047297478" cy="222.19403013586998" r="3" style="fill: steelblue;"></circle><circle cx="213.5958069562912" cy="205.2126720547676" r="3" style="fill: steelblue;"></circle><circle cx="164.1600751876831" cy="288.1643369793892" r="3" style="fill: steelblue;"></circle><circle cx="174.52663868665695" cy="157.86169730126858" r="3" style="fill: steelblue;"></circle><circle cx="122.33207166194917" cy="253.66368293762207" r="3" style="fill: steelblue;"></circle><circle cx="221.66892863810065" cy="189.65745512396097" r="3" style="fill: steelblue;"></circle><circle cx="295.7445198297501" cy="212.93423771858215" r="3" style="fill: steelblue;"></circle><circle cx="229.75528702139854" cy="211.41509674489498" r="3" style="fill: steelblue;"></circle><circle cx="166.36734545230865" cy="185.55966075509787" r="3" style="fill: steelblue;"></circle><circle cx="203.90824913978577" cy="146.89830280840397" r="3" style="fill: steelblue;"></circle><circle cx="92.26162970066072" cy="270.29723078012466" r="3" style="fill: steelblue;"></circle><circle cx="353.8648599386215" cy="203.21330167353153" r="3" style="fill: steelblue;"></circle><circle cx="222.1590006351471" cy="195.77873460948467" r="3" style="fill: steelblue;"></circle><circle cx="159.1118985414505" cy="221.39597907662392" r="3" style="fill: steelblue;"></circle><circle cx="313.64292293787" cy="324.6814340353012" r="3" style="fill: steelblue;"></circle><circle cx="53.94388675689698" cy="169.44054821506143" r="3" style="fill: steelblue;"></circle><circle cx="174.42314118146896" cy="187.18181904405355" r="3" style="fill: steelblue;"></circle><circle cx="328.3302390575409" cy="71.7078223824501" r="3" style="fill: steelblue;"></circle><circle cx="194.69512939453125" cy="128.67842391133308" r="3" style="fill: steelblue;"></circle><circle cx="336.1844891309738" cy="158.66084229201078" r="3" style="fill: steelblue;"></circle><circle cx="406.7135417461395" cy="95.58674842119217" r="3" style="fill: steelblue;"></circle><circle cx="271.9428227841854" cy="74.20593947172165" r="3" style="fill: steelblue;"></circle><circle cx="341.42270028591156" cy="86.084945499897" r="3" style="fill: steelblue;"></circle><circle cx="225.1875253021717" cy="141.12004190683365" r="3" style="fill: steelblue;"></circle><circle cx="435.93545794487" cy="127.01105326414108" r="3" style="fill: steelblue;"></circle><circle cx="237.73940993472934" cy="62.33144998550415" r="3" style="fill: steelblue;"></circle><circle cx="507.3458218574524" cy="123.62873703241348" r="3" style="fill: steelblue;"></circle><circle cx="290.72832852602005" cy="130.13008534908295" r="3" style="fill: steelblue;"></circle><circle cx="125.53632795810701" cy="253.65152582526207" r="3" style="fill: steelblue;"></circle><circle cx="181.3693606853485" cy="149.50540624558926" r="3" style="fill: steelblue;"></circle><circle cx="218.9043813943863" cy="213.5876003652811" r="3" style="fill: steelblue;"></circle><circle cx="106.0849392414093" cy="174.67206606233958" r="3" style="fill: steelblue;"></circle><circle cx="138.41966629028323" cy="246.76069617271423" r="3" style="fill: steelblue;"></circle><circle cx="311.84597700834274" cy="172.44758906308562" r="3" style="fill: steelblue;"></circle><circle cx="207.0105166733265" cy="184.0205630287528" r="3" style="fill: steelblue;"></circle><circle cx="116.42527520656586" cy="175.01476220786572" r="3" style="fill: steelblue;"></circle><circle cx="266.84712186455727" cy="161.84867341071367" r="3" style="fill: steelblue;"></circle><circle cx="288.39397072792053" cy="178.08012254536152" r="3" style="fill: steelblue;"></circle><circle cx="170.63453882932666" cy="209.10356864333153" r="3" style="fill: steelblue;"></circle><circle cx="221.78335055708885" cy="225.99498182535172" r="3" style="fill: steelblue;"></circle><circle cx="258.46500411629677" cy="214.22485783696175" r="3" style="fill: steelblue;"></circle><circle cx="264.0939259529114" cy="212.23343051970005" r="3" style="fill: steelblue;"></circle><circle cx="222.30727426707745" cy="78.66848111152649" r="3" style="fill: steelblue;"></circle><circle cx="185.3904926776886" cy="125.69540441036224" r="3" style="fill: steelblue;"></circle><circle cx="223.333832770586" cy="131.9915473461151" r="3" style="fill: steelblue;"></circle><circle cx="419.78301644325256" cy="116.96134582161903" r="3" style="fill: steelblue;"></circle><circle cx="432.0711278915405" cy="106.14504665136337" r="3" style="fill: steelblue;"></circle><circle cx="358.03771555423737" cy="163.5745583102107" r="3" style="fill: steelblue;"></circle><circle cx="275.2745018899441" cy="145.85131257772446" r="3" style="fill: steelblue;"></circle><circle cx="208.4139423072338" cy="154.28392849862576" r="3" style="fill: steelblue;"></circle><circle cx="332.9082155227661" cy="106.38980567455292" r="3" style="fill: steelblue;"></circle><circle cx="186.02605104446414" cy="232.81307220458984" r="3" style="fill: steelblue;"></circle><circle cx="99.21608805656435" cy="193.01024563610554" r="3" style="fill: steelblue;"></circle><circle cx="159.7312027215958" cy="225.38369968533516" r="3" style="fill: steelblue;"></circle><circle cx="145.86615800857544" cy="228.14892902970314" r="3" style="fill: steelblue;"></circle><circle cx="129.04109001159668" cy="202.33653709292412" r="3" style="fill: steelblue;"></circle><circle cx="334.11360919475555" cy="244.73178833723068" r="3" style="fill: steelblue;"></circle><circle cx="168.29451262950897" cy="204.96333129703999" r="3" style="fill: steelblue;"></circle><circle cx="222.83563256263733" cy="225.6507858633995" r="3" style="fill: steelblue;"></circle><circle cx="239.32661019265652" cy="154.62770462036133" r="3" style="fill: steelblue;"></circle><circle cx="228.4112946689129" cy="236.2605758011341" r="3" style="fill: steelblue;"></circle><circle cx="78.23230862617494" cy="122.9314997792244" r="3" style="fill: steelblue;"></circle><circle cx="166.78236812353134" cy="188.29511012881994" r="3" style="fill: steelblue;"></circle><circle cx="292.28862315416336" cy="169.78297159075737" r="3" style="fill: steelblue;"></circle><circle cx="277.0525047183037" cy="133.0752618610859" r="3" style="fill: steelblue;"></circle><circle cx="198.99208188056946" cy="54.62832599878311" r="3" style="fill: steelblue;"></circle><circle cx="368.00439298152924" cy="169.24666743725538" r="3" style="fill: steelblue;"></circle><circle cx="373.29669535160065" cy="66.28896296024323" r="3" style="fill: steelblue;"></circle><circle cx="225.29094681143764" cy="23.92885833978653" r="3" style="fill: steelblue;"></circle><circle cx="67.07161903381349" cy="292.5366625189781" r="3" style="fill: steelblue;"></circle><circle cx="200.18587052822113" cy="252.2064983844757" r="3" style="fill: steelblue;"></circle><circle cx="140.60577392578128" cy="136.4907741546631" r="3" style="fill: steelblue;"></circle><circle cx="198.5608273744583" cy="309.5369890332222" r="3" style="fill: steelblue;"></circle><circle cx="219.623868316412" cy="266.4896607398987" r="3" style="fill: steelblue;"></circle><circle cx="194.13314849138263" cy="234.6432365477085" r="3" style="fill: steelblue;"></circle></g></svg>