<svg xmlns="http://www.w3.org/2000/svg"><g><circle cx="20.503950491547588" cy="50.52613823208958" r="2" style="fill: steelblue;"></circle><circle cx="71.0577417165041" cy="54.69190254807472" r="2" style="fill: steelblue;"></circle><circle cx="42.24887602031231" cy="58.32376256585121" r="2" style="fill: steelblue;"></circle><circle cx="11.15609630942345" cy="62.02261168509722" r="2" style="fill: steelblue;"></circle><circle cx="8.773698657751087" cy="74.41172674298286" r="2" style="fill: steelblue;"></circle><circle cx="34.544689767062664" cy="53.13112419098616" r="2" style="fill: steelblue;"></circle><circle cx="65.76147601008415" cy="60.52983198314905" r="2" style="fill: steelblue;"></circle><circle cx="38.34301717579365" cy="54.568006843328476" r="2" style="fill: steelblue;"></circle><circle cx="28.931043297052383" cy="74.5396476238966" r="2" style="fill: steelblue;"></circle><circle cx="21.920581534504894" cy="52.66421912238002" r="2" style="fill: steelblue;"></circle><circle cx="57.166154216974974" cy="35.97352672368288" r="2" style="fill: steelblue;"></circle><circle cx="39.191348664462566" cy="68.07571016252041" r="2" style="fill: steelblue;"></circle><circle cx="74.93496425449848" cy="77.12316066026688" r="2" style="fill: steelblue;"></circle><circle cx="27.070139721035957" cy="81.59000352025032" r="2" style="fill: steelblue;"></circle><circle cx="30.899013578891754" cy="60.82285773009062" r="2" style="fill: steelblue;"></circle><circle cx="50.86896016728133" cy="92.27128997445107" r="2" style="fill: steelblue;"></circle><circle cx="52.33592581935227" cy="69.13887076079845" r="2" style="fill: steelblue;"></circle><circle cx="45.137878227978945" cy="49.22160542337224" r="2" style="fill: steelblue;"></circle><circle cx="59.11563169211149" cy="61.73018757253885" r="2" style="fill: steelblue;"></circle><circle cx="75.89119970798492" cy="40.194981917738914" r="2" style="fill: steelblue;"></circle><circle cx="39.53568469733" cy="21.342341974377632" r="2" style="fill: steelblue;"></circle><circle cx="40.73814507573843" cy="31.08525760471821" r="2" style="fill: steelblue;"></circle><circle cx="47.92478792369366" cy="88.04275766015053" r="2" style="fill: steelblue;"></circle><circle cx="69.28877830505371" cy="47.15725285932422" r="2" style="fill: steelblue;"></circle><circle cx="40.57796783745289" cy="72.02050015330315" r="2" style="fill: steelblue;"></circle><circle cx="39.49920851737261" cy="65.75480960309505" r="2" style="fill: steelblue;"></circle><circle cx="54.5844241976738" cy="74.20343831181526" r="2" style="fill: steelblue;"></circle><circle cx="21.504503861069683" cy="56.3453633338213" r="2" style="fill: steelblue;"></circle><circle cx="19.359906390309337" cy="82.84987807273865" r="2" style="fill: steelblue;"></circle><circle cx="6.032123416662219" cy="65.00788424164057" r="2" style="fill: steelblue;"></circle><circle cx="93.25835406780243" cy="51.97924883104861" r="2" style="fill: steelblue;"></circle><circle cx="68.16509291529655" cy="39.66808058321476" r="2" style="fill: steelblue;"></circle><circle cx="35.435767099261284" cy="6.085443496704102" r="2" style="fill: steelblue;"></circle><circle cx="29.135718196630478" cy="57.594142109155655" r="2" style="fill: steelblue;"></circle><circle cx="79.21224012970924" cy="42.82922316342592" r="2" style="fill: steelblue;"></circle><circle cx="85.86063534021378" cy="19.304190948605537" r="2" style="fill: steelblue;"></circle><circle cx="36.28223780542612" cy="46.43745552748442" r="2" style="fill: steelblue;"></circle><circle cx="13.213704526424412" cy="14.53409269452095" r="2" style="fill: steelblue;"></circle><circle cx="38.9708599075675" cy="72.46761880815029" r="2" style="fill: steelblue;"></circle><circle cx="27.16902568936348" cy="75.72385594248772" r="2" style="fill: steelblue;"></circle><circle cx="47.303362702950835" cy="41.119422018527985" r="2" style="fill: steelblue;"></circle><circle cx="33.37102867662907" cy="70.20349353551865" r="2" style="fill: steelblue;"></circle><circle cx="15.95697104930878" cy="16.076970100402832" r="2" style="fill: steelblue;"></circle><circle cx="94.52251270413399" cy="42.765157017856836" r="2" style="fill: steelblue;"></circle><circle cx="48.64798365160823" cy="30.180034413933754" r="2" style="fill: steelblue;"></circle><circle cx="55.724945571273565" cy="22.880370914936066" r="2" style="fill: steelblue;"></circle><circle cx="61.91861927509308" cy="43.417495395988226" r="2" style="fill: steelblue;"></circle><circle cx="46.83316936716437" cy="17.659950256347656" r="2" style="fill: steelblue;"></circle><circle cx="33.084674924612045" cy="72.32382819056511" r="2" style="fill: steelblue;"></circle><circle cx="72.30320125818253" cy="90.57429358363152" r="2" style="fill: steelblue;"></circle><circle cx="44.78044733405113" cy="93.17695647478104" r="2" style="fill: steelblue;"></circle><circle cx="76.32218599319458" cy="69.07344162464142" r="2" style="fill: steelblue;"></circle><circle cx="65.07191266864538" cy="42.638696916401386" r="2" style="fill: steelblue;"></circle><circle cx="24.124111235141758" cy="16.416586190462112" r="2" style="fill: steelblue;"></circle><circle cx="29.851223528385162" cy="50.80421130405739" r="2" style="fill: steelblue;"></circle><circle cx="12.127082049846653" cy="63.19693122059107" r="2" style="fill: steelblue;"></circle><circle cx="48.25630336999893" cy="61.308666318655014" r="2" style="fill: steelblue;"></circle><circle cx="42.145015858113766" cy="61.05435285717249" r="2" style="fill: steelblue;"></circle><circle cx="46.815512888133526" cy="50.34939878969453" r="2" style="fill: steelblue;"></circle><circle cx="44.28645521402359" cy="78.49557437002659" r="2" style="fill: steelblue;"></circle><circle cx="24.81891326606274" cy="65.88007248938084" r="2" style="fill: steelblue;"></circle><circle cx="23.327580839395527" cy="84.74735841155052" r="2" style="fill: steelblue;"></circle><circle cx="6.597354263067248" cy="72.5314311683178" r="2" style="fill: steelblue;"></circle><circle cx="14.22158926725388" cy="72.09178358316422" r="2" style="fill: steelblue;"></circle><circle cx="13.957544416189197" cy="91.20798408985138" r="2" style="fill: steelblue;"></circle><circle cx="19.23649869859219" cy="74.98361468315125" r="2" style="fill: steelblue;"></circle><circle cx="12.215319275856022" cy="53.01510188728571" r="2" style="fill: steelblue;"></circle><circle cx="3.124575316905978" cy="84.07886251807213" r="2" style="fill: steelblue;"></circle><circle cx="17.136338353157047" cy="65.8858560025692" r="2" style="fill: steelblue;"></circle><circle cx="44.38548041507602" cy="85.88001430034637" r="2" style="fill: steelblue;"></circle><circle cx="14.510384947061542" cy="58.73137265443802" r="2" style="fill: steelblue;"></circle><circle cx="86.8875078856945" cy="40.62786158174276" r="2" style="fill: steelblue;"></circle><circle cx="68.90206523239613" cy="29.951083660125732" r="2" style="fill: steelblue;"></circle><circle cx="45.49633264541626" cy="14.663464576005936" r="2" style="fill: steelblue;"></circle><circle cx="88.72700035572052" cy="31.61730170249939" r="2" style="fill: steelblue;"></circle><circle cx="55.29381260275841" cy="31.180785223841667" r="2" style="fill: steelblue;"></circle><circle cx="72.98834174871445" cy="8.253160119056702" r="2" style="fill: steelblue;"></circle><circle cx="43.1075950153172" cy="27.40442305803299" r="2" style="fill: steelblue;"></circle><circle cx="84.64481607079506" cy="46.174813248217106" r="2" style="fill: steelblue;"></circle><circle cx="77.41061337292194" cy="8.105914294719696" r="2" style="fill: steelblue;"></circle><circle cx="75.20689740777016" cy="19.565102830529213" r="2" style="fill: steelblue;"></circle><circle cx="25.150179117918015" cy="21.606038510799408" r="2" style="fill: steelblue;"></circle><circle cx="47.163839638233185" cy="16.191083192825317" r="2" style="fill: steelblue;"></circle><circle cx="37.37302981317043" cy="62.69346754997969" r="2" style="fill: steelblue;"></circle><circle cx="69.6640994399786" cy="65.57475421577692" r="2" style="fill: steelblue;"></circle><circle cx="21.47863917052746" cy="78.53444032371044" r="2" style="fill: steelblue;"></circle><circle cx="52.287505427375436" cy="26.144835352897644" r="2" style="fill: steelblue;"></circle><circle cx="33.1851851195097" cy="86.10220924019814" r="2" style="fill: steelblue;"></circle><circle cx="12.863769382238392" cy="76.67645551264286" r="2" style="fill: steelblue;"></circle><circle cx="46.15090060979128" cy="7.854013890028" r="2" style="fill: steelblue;"></circle><circle cx="76.733523234725" cy="30.319522321224213" r="2" style="fill: steelblue;"></circle><circle cx="50.89688308071345" cy="29.28285039961338" r="2" style="fill: steelblue;"></circle><circle cx="61.01905386894941" cy="6.644117832183838" r="2" style="fill: steelblue;"></circle><circle cx="46.9210943672806" cy="28.735873475670815" r="2" style="fill: steelblue;"></circle><circle cx="57.03170709311962" cy="51.45203934516758" r="2" style="fill: steelblue;"></circle><circle cx="86.86939552426338" cy="23.075056448578835" r="2" style="fill: steelblue;"></circle><circle cx="82.13339671492577" cy="37.48692963272333" r="2" style="fill: steelblue;"></circle><circle cx="67.3543430864811" cy="49.96504746741266" r="2" style="fill: steelblue;"></circle><circle cx="31.658991426229477" cy="28.1605564057827" r="2" style="fill: steelblue;"></circle><circle cx="61.19808852672577" cy="81.59713000059128" r="2" style="fill: steelblue;"></circle><circle cx="71.33578807115555" cy="47.75773170404136" r="2" style="fill: steelblue;"></circle><circle cx="69.1066563129425" cy="48.700776137411594" r="2" style="fill: steelblue;"></circle><circle cx="65.5984228476882" cy="43.45923960208893" r="2" style="fill: steelblue;"></circle><circle cx="76.51341818273067" cy="33.1470251083374" r="2" style="fill: steelblue;"></circle><circle cx="73.70758727192879" cy="13.56729045510292" r="2" style="fill: steelblue;"></circle><circle cx="59.80246439576149" cy="8.504382520914078" r="2" style="fill: steelblue;"></circle><circle cx="32.37192817032337" cy="36.917153000831604" r="2" style="fill: steelblue;"></circle><circle cx="32.5037345290184" cy="41.37027282267809" r="2" style="fill: steelblue;"></circle><circle cx="63.312905095517635" cy="68.16362887620926" r="2" style="fill: steelblue;"></circle><circle cx="44.54036168754101" cy="16.124512255191803" r="2" style="fill: steelblue;"></circle><circle cx="63.60635459423065" cy="45.76409626752138" r="2" style="fill: steelblue;"></circle><circle cx="79.43897992372513" cy="35.99926847964525" r="2" style="fill: steelblue;"></circle><circle cx="62.30845879763365" cy="27.967631071805954" r="2" style="fill: steelblue;"></circle><circle cx="37.49255947768688" cy="77.29447558522224" r="2" style="fill: steelblue;"></circle><circle cx="11.84201538562775" cy="63.64994142204523" r="2" style="fill: steelblue;"></circle><circle cx="40.627892315387726" cy="79.24222685396671" r="2" style="fill: steelblue;"></circle><circle cx="47.896976536139846" cy="67.98107102513313" r="2" style="fill: steelblue;"></circle><circle cx="78.63959223031998" cy="55.960522685199976" r="2" style="fill: steelblue;"></circle></g></svg>