<svg xmlns="http://www.w3.org/2000/svg"><g><circle cx="31.686902046203613" cy="50.52613823208958" r="2" style="fill: steelblue;"></circle><circle cx="50.98909677730666" cy="54.69190254807472" r="2" style="fill: steelblue;"></circle><circle cx="17.73430572615729" cy="58.32376256585121" r="2" style="fill: steelblue;"></circle><circle cx="38.589252365960014" cy="62.02261168509722" r="2" style="fill: steelblue;"></circle><circle cx="65.29209017753601" cy="74.41172674298286" r="2" style="fill: steelblue;"></circle><circle cx="44.54173644383748" cy="53.13112419098616" r="2" style="fill: steelblue;"></circle><circle cx="35.27321252557966" cy="60.52983198314905" r="2" style="fill: steelblue;"></circle><circle cx="51.60362232062552" cy="54.568006843328476" r="2" style="fill: steelblue;"></circle><circle cx="53.130341900719536" cy="74.5396476238966" r="2" style="fill: steelblue;"></circle><circle cx="43.78245522578557" cy="52.66421912238002" r="2" style="fill: steelblue;"></circle><circle cx="34.872785210609436" cy="35.97352672368288" r="2" style="fill: steelblue;"></circle><circle cx="69.23526608281665" cy="68.07571016252041" r="2" style="fill: steelblue;"></circle><circle cx="24.973713689380222" cy="77.12316066026688" r="2" style="fill: steelblue;"></circle><circle cx="66.95141477717293" cy="81.59000352025032" r="2" style="fill: steelblue;"></circle><circle cx="41.2595272064209" cy="60.82285773009062" r="2" style="fill: steelblue;"></circle><circle cx="49.299651549922096" cy="92.27128997445107" r="2" style="fill: steelblue;"></circle><circle cx="39.43568468093872" cy="69.13887076079845" r="2" style="fill: steelblue;"></circle><circle cx="49.34609101878272" cy="49.22160542337224" r="2" style="fill: steelblue;"></circle><circle cx="63.635390665796066" cy="61.73018757253885" r="2" style="fill: steelblue;"></circle><circle cx="48.38097426626417" cy="40.194981917738914" r="2" style="fill: steelblue;"></circle><circle cx="69.50923966036903" cy="21.342341974377632" r="2" style="fill: steelblue;"></circle><circle cx="70.76062758763632" cy="31.08525760471821" r="2" style="fill: steelblue;"></circle><circle cx="82.70554410086739" cy="88.04275766015053" r="2" style="fill: steelblue;"></circle><circle cx="49.804331527815926" cy="47.15725285932422" r="2" style="fill: steelblue;"></circle><circle cx="35.912773675388756" cy="72.02050015330315" r="2" style="fill: steelblue;"></circle><circle cx="42.98304269711176" cy="65.75480960309505" r="2" style="fill: steelblue;"></circle><circle cx="23.621297544903225" cy="74.20343831181526" r="2" style="fill: steelblue;"></circle><circle cx="19.2952553431193" cy="56.3453633338213" r="2" style="fill: steelblue;"></circle><circle cx="18.418845203187733" cy="82.84987807273865" r="2" style="fill: steelblue;"></circle><circle cx="52.534851142101815" cy="65.00788424164057" r="2" style="fill: steelblue;"></circle><circle cx="80.7122141122818" cy="51.97924883104861" r="2" style="fill: steelblue;"></circle><circle cx="88.6429746945699" cy="39.66808058321476" r="2" style="fill: steelblue;"></circle><circle cx="89.8163484202491" cy="6.085443496704102" r="2" style="fill: steelblue;"></circle><circle cx="75.26548041237724" cy="57.594142109155655" r="2" style="fill: steelblue;"></circle><circle cx="56.658286187383865" cy="42.82922316342592" r="2" style="fill: steelblue;"></circle><circle cx="69.43893598185646" cy="19.304190948605537" r="2" style="fill: steelblue;"></circle><circle cx="34.07522373729282" cy="46.43745552748442" r="2" style="fill: steelblue;"></circle><circle cx="46.04176183541615" cy="14.53409269452095" r="2" style="fill: steelblue;"></circle><circle cx="56.63596207482947" cy="72.46761880815029" r="2" style="fill: steelblue;"></circle><circle cx="28.857462935977512" cy="75.72385594248772" r="2" style="fill: steelblue;"></circle><circle cx="41.09607305791643" cy="41.119422018527985" r="2" style="fill: steelblue;"></circle><circle cx="43.121675650278725" cy="70.20349353551865" r="2" style="fill: steelblue;"></circle><circle cx="99.19108615981209" cy="16.076970100402832" r="2" style="fill: steelblue;"></circle><circle cx="55.80491238894562" cy="42.765157017856836" r="2" style="fill: steelblue;"></circle><circle cx="46.98655588759316" cy="30.180034413933754" r="2" style="fill: steelblue;"></circle><circle cx="82.27870033846962" cy="22.880370914936066" r="2" style="fill: steelblue;"></circle><circle cx="57.343363761901855" cy="43.417495395988226" r="2" style="fill: steelblue;"></circle><circle cx="72.20655017428928" cy="17.659950256347656" r="2" style="fill: steelblue;"></circle><circle cx="44.110143350230324" cy="72.32382819056511" r="2" style="fill: steelblue;"></circle><circle cx="73.29250375429788" cy="90.57429358363152" r="2" style="fill: steelblue;"></circle><circle cx="49.255667047368156" cy="93.17695647478104" r="2" style="fill: steelblue;"></circle><circle cx="60.77977642416954" cy="69.07344162464142" r="2" style="fill: steelblue;"></circle><circle cx="79.77269755469429" cy="42.638696916401386" r="2" style="fill: steelblue;"></circle><circle cx="70.71881658501094" cy="16.416586190462112" r="2" style="fill: steelblue;"></circle><circle cx="48.105591701136696" cy="50.80421130405739" r="2" style="fill: steelblue;"></circle><circle cx="21.40348156293233" cy="63.19693122059107" r="2" style="fill: steelblue;"></circle><circle cx="51.74264601535267" cy="61.308666318655014" r="2" style="fill: steelblue;"></circle><circle cx="47.724471324019966" cy="61.05435285717249" r="2" style="fill: steelblue;"></circle><circle cx="43.0161671506034" cy="50.34939878969453" r="2" style="fill: steelblue;"></circle><circle cx="53.80467635889848" cy="78.49557437002659" r="2" style="fill: steelblue;"></circle><circle cx="42.90663368172115" cy="65.88007248938084" r="2" style="fill: steelblue;"></circle><circle cx="32.408396402994796" cy="84.74735841155052" r="2" style="fill: steelblue;"></circle><circle cx="45.27442571189668" cy="72.5314311683178" r="2" style="fill: steelblue;"></circle><circle cx="34.79718665281932" cy="72.09178358316422" r="2" style="fill: steelblue;"></circle><circle cx="22.398349311616688" cy="91.20798408985138" r="2" style="fill: steelblue;"></circle><circle cx="54.84615561241905" cy="74.98361468315125" r="2" style="fill: steelblue;"></circle><circle cx="38.49939339690739" cy="53.01510188728571" r="2" style="fill: steelblue;"></circle><circle cx="9.036269452836779" cy="84.07886251807213" r="2" style="fill: steelblue;"></circle><circle cx="29.993202951219345" cy="65.8858560025692" r="2" style="fill: steelblue;"></circle><circle cx="28.472907013363308" cy="85.88001430034637" r="2" style="fill: steelblue;"></circle><circle cx="63.876877228418984" cy="58.73137265443802" r="2" style="fill: steelblue;"></circle><circle cx="66.9176677862803" cy="40.62786158174276" r="2" style="fill: steelblue;"></circle><circle cx="47.535238994492424" cy="29.951083660125732" r="2" style="fill: steelblue;"></circle><circle cx="49.918874684307305" cy="14.663464576005936" r="2" style="fill: steelblue;"></circle><circle cx="78.98584670490688" cy="31.61730170249939" r="2" style="fill: steelblue;"></circle><circle cx="87.66827980677286" cy="31.180785223841667" r="2" style="fill: steelblue;"></circle><circle cx="67.07715822590721" cy="8.253160119056702" r="2" style="fill: steelblue;"></circle><circle cx="71.8827893336614" cy="27.40442305803299" r="2" style="fill: steelblue;"></circle><circle cx="82.85179237524667" cy="46.174813248217106" r="2" style="fill: steelblue;"></circle><circle cx="65.45674138598972" cy="8.105914294719696" r="2" style="fill: steelblue;"></circle><circle cx="83.49690503544277" cy="19.565102830529213" r="2" style="fill: steelblue;"></circle><circle cx="75.64431760046217" cy="21.606038510799408" r="2" style="fill: steelblue;"></circle><circle cx="81.77136050330269" cy="16.191083192825317" r="2" style="fill: steelblue;"></circle><circle cx="40.45236772961086" cy="62.69346754997969" r="2" style="fill: steelblue;"></circle><circle cx="34.34442480405171" cy="65.57475421577692" r="2" style="fill: steelblue;"></circle><circle cx="45.12871884637409" cy="78.53444032371044" r="2" style="fill: steelblue;"></circle><circle cx="51.851703474919" cy="26.144835352897644" r="2" style="fill: steelblue;"></circle><circle cx="69.50952940517001" cy="86.10220924019814" r="2" style="fill: steelblue;"></circle><circle cx="44.27899503045612" cy="76.67645551264286" r="2" style="fill: steelblue;"></circle><circle cx="71.66182498137155" cy="7.854013890028" r="2" style="fill: steelblue;"></circle><circle cx="73.6499097612169" cy="30.319522321224213" r="2" style="fill: steelblue;"></circle><circle cx="83.2112795776791" cy="29.28285039961338" r="2" style="fill: steelblue;"></circle><circle cx="77.9829505417082" cy="6.644117832183838" r="2" style="fill: steelblue;"></circle><circle cx="92.77056323157417" cy="28.735873475670815" r="2" style="fill: steelblue;"></circle><circle cx="54.21664917634593" cy="51.45203934516758" r="2" style="fill: steelblue;"></circle><circle cx="97.7058642440372" cy="23.075056448578835" r="2" style="fill: steelblue;"></circle><circle cx="99.02137849065993" cy="37.48692963272333" r="2" style="fill: steelblue;"></circle><circle cx="57.95075433949629" cy="49.96504746741266" r="2" style="fill: steelblue;"></circle><circle cx="65.86248427629471" cy="28.1605564057827" r="2" style="fill: steelblue;"></circle><circle cx="79.9728747871187" cy="81.59713000059128" r="2" style="fill: steelblue;"></circle><circle cx="82.14291764630211" cy="47.75773170404136" r="2" style="fill: steelblue;"></circle><circle cx="48.96652284595701" cy="48.700776137411594" r="2" style="fill: steelblue;"></circle><circle cx="56.31397669720981" cy="43.45923960208893" r="2" style="fill: steelblue;"></circle><circle cx="72.0842033624649" cy="33.1470251083374" r="2" style="fill: steelblue;"></circle><circle cx="32.075014379289414" cy="13.56729045510292" r="2" style="fill: steelblue;"></circle><circle cx="33.47332278887431" cy="8.504382520914078" r="2" style="fill: steelblue;"></circle><circle cx="80.60212433338165" cy="36.917153000831604" r="2" style="fill: steelblue;"></circle><circle cx="47.27758963902791" cy="41.37027282267809" r="2" style="fill: steelblue;"></circle><circle cx="63.32179572847154" cy="68.16362887620926" r="2" style="fill: steelblue;"></circle><circle cx="82.38564762804243" cy="16.124512255191803" r="2" style="fill: steelblue;"></circle><circle cx="79.63133686118655" cy="45.76409626752138" r="2" style="fill: steelblue;"></circle><circle cx="91.35984712176852" cy="35.99926847964525" r="2" style="fill: steelblue;"></circle><circle cx="54.723033733252024" cy="27.967631071805954" r="2" style="fill: steelblue;"></circle><circle cx="47.0253543721305" cy="77.29447558522224" r="2" style="fill: steelblue;"></circle><circle cx="37.654929690890846" cy="63.64994142204523" r="2" style="fill: steelblue;"></circle><circle cx="42.716819379064766" cy="79.24222685396671" r="2" style="fill: steelblue;"></circle><circle cx="32.21140305201213" cy="67.98107102513313" r="2" style="fill: steelblue;"></circle><circle cx="42.4463798602422" cy="55.960522685199976" r="2" style="fill: steelblue;"></circle></g></svg>