<svg xmlns="http://www.w3.org/2000/svg"><rect width="200" height="200" fill="white"></rect><g><circle cx="49.440736323595054" cy="136.80867552757263" r="2" style="fill: steelblue;"></circle><circle cx="10.254172980785375" cy="171.27264075809055" r="2" style="fill: steelblue;"></circle><circle cx="80.15161976218224" cy="119.51622234450446" r="2" style="fill: steelblue;"></circle><circle cx="9.613199532032018" cy="72.50987357563443" r="2" style="fill: steelblue;"></circle><circle cx="108.55166837573051" cy="136.12832493252225" r="2" style="fill: steelblue;"></circle><circle cx="112.83165998756886" cy="128.4720950656467" r="2" style="fill: steelblue;"></circle><circle cx="92.46920133009553" cy="63.96485732661355" r="2" style="fill: steelblue;"></circle><circle cx="111.56646478921175" cy="93.93101301458147" r="2" style="fill: steelblue;"></circle><circle cx="68.11802685260773" cy="94.59801796409819" r="2" style="fill: steelblue;"></circle><circle cx="30.115744471549995" cy="56.690280967288544" r="2" style="fill: steelblue;"></circle><circle cx="137.38078102469444" cy="107.51583543088701" r="2" style="fill: steelblue;"></circle><circle cx="194.20305490493774" cy="69.99235881699457" r="2" style="fill: steelblue;"></circle><circle cx="50.89091360569" cy="124.58256747987535" r="2" style="fill: steelblue;"></circle><circle cx="149.9470718204975" cy="144.2462424437205" r="2" style="fill: steelblue;"></circle><circle cx="71.10303491353989" cy="83.6058047082689" r="2" style="fill: steelblue;"></circle><circle cx="93.50275192409754" cy="37.4908102883233" r="2" style="fill: steelblue;"></circle><circle cx="86.59608606249094" cy="168.66012944115533" r="2" style="fill: steelblue;"></circle><circle cx="18.793410062789924" cy="153.44991816414728" r="2" style="fill: steelblue;"></circle><circle cx="105.19089587032795" cy="65.25600320763058" r="2" style="fill: steelblue;"></circle><circle cx="138.18229958415031" cy="93.9514524406857" r="2" style="fill: steelblue;"></circle><circle cx="114.32687882333994" cy="57.981529500749375" r="2" style="fill: steelblue;"></circle><circle cx="162.0138719677925" cy="102.16045743889279" r="2" style="fill: steelblue;"></circle><circle cx="67.83742681145668" cy="49.427921904457946" r="2" style="fill: steelblue;"></circle><circle cx="123.74667674303055" cy="102.72984074221716" r="2" style="fill: steelblue;"></circle><circle cx="71.88305296003819" cy="39.02061316702101" r="2" style="fill: steelblue;"></circle><circle cx="25.144799053668983" cy="94.14812872807185" r="2" style="fill: steelblue;"></circle><circle cx="17.015425860881813" cy="141.4165516694387" r="2" style="fill: steelblue;"></circle><circle cx="99.38033655053005" cy="92.78519774476688" r="2" style="fill: steelblue;"></circle><circle cx="111.11164502799511" cy="125.21845300992331" r="2" style="fill: steelblue;"></circle><circle cx="0.12393146753311712" cy="124.70953199598524" r="2" style="fill: steelblue;"></circle><circle cx="163.54915350675583" cy="57.784615622626426" r="2" style="fill: steelblue;"></circle><circle cx="83.43529365956783" cy="75.88819613059361" r="2" style="fill: steelblue;"></circle><circle cx="124.57106672227383" cy="91.3057144317362" r="2" style="fill: steelblue;"></circle><circle cx="171.48727774620056" cy="105.8055794901318" r="2" style="fill: steelblue;"></circle><circle cx="70.32260149717331" cy="68.34153532981873" r="2" style="fill: steelblue;"></circle><circle cx="144.1575162112713" cy="135.58879031075372" r="2" style="fill: steelblue;"></circle><circle cx="69.76529434323311" cy="29.966624577840186" r="2" style="fill: steelblue;"></circle><circle cx="41.48950651288033" cy="105.34980263974931" r="2" style="fill: steelblue;"></circle><circle cx="91.30097310990095" cy="75.38028342856302" r="2" style="fill: steelblue;"></circle><circle cx="110.43182518333197" cy="59.82101162274678" r="2" style="fill: steelblue;"></circle><circle cx="81.62057623267174" cy="79.0920012527042" r="2" style="fill: steelblue;"></circle><circle cx="189.0357419848442" cy="24.369708697001148" r="2" style="fill: steelblue;"></circle><circle cx="130.81939555704594" cy="44.576070706049606" r="2" style="fill: steelblue;"></circle><circle cx="76.14837810397148" cy="80.5758406718572" r="2" style="fill: steelblue;"></circle><circle cx="155.1586113870144" cy="62.48087220721774" r="2" style="fill: steelblue;"></circle><circle cx="90.50129391252995" cy="53.67016990979512" r="2" style="fill: steelblue;"></circle><circle cx="98.8541123457253" cy="90.16305779417355" r="2" style="fill: steelblue;"></circle><circle cx="88.89902886003256" cy="133.89581309424506" r="2" style="fill: steelblue;"></circle><circle cx="82.71497152745724" cy="115.4924237065845" r="2" style="fill: steelblue;"></circle><circle cx="110.26028487831354" cy="139.8550060060289" r="2" style="fill: steelblue;"></circle><circle cx="104.81566740199924" cy="113.63581518332164" r="2" style="fill: steelblue;"></circle><circle cx="27.506692707538612" cy="74.24228423171573" r="2" style="fill: steelblue;"></circle><circle cx="89.16967865079641" cy="76.50684846772089" r="2" style="fill: steelblue;"></circle><circle cx="93.60121507197618" cy="105.22088441583846" r="2" style="fill: steelblue;"></circle><circle cx="51.02372393012047" cy="25.60985618167453" r="2" style="fill: steelblue;"></circle><circle cx="78.1259186565876" cy="93.70045728153653" r="2" style="fill: steelblue;"></circle><circle cx="31.70063197612763" cy="102.45471977525287" r="2" style="fill: steelblue;"></circle><circle cx="78.49367186427116" cy="107.56615002950033" r="2" style="fill: steelblue;"></circle><circle cx="1.4002233743667658" cy="159.12854539023505" r="2" style="fill: steelblue;"></circle><circle cx="33.38712304830552" cy="145.82280185487534" r="2" style="fill: steelblue;"></circle><circle cx="47.03200832009316" cy="141.98575615882874" r="2" style="fill: steelblue;"></circle><circle cx="96.5886992868036" cy="113.05637856324515" r="2" style="fill: steelblue;"></circle><circle cx="60.1120688021183" cy="100.53409669134352" r="2" style="fill: steelblue;"></circle><circle cx="72.21745550632477" cy="120.83014713393317" r="2" style="fill: steelblue;"></circle><circle cx="89.38279040157795" cy="181.52777221467758" r="2" style="fill: steelblue;"></circle><circle cx="60.5245441198349" cy="145.61107291115655" r="2" style="fill: steelblue;"></circle><circle cx="43.34254041314126" cy="133.10161431630453" r="2" style="fill: steelblue;"></circle><circle cx="27.654527127742774" cy="147.13140196270413" r="2" style="fill: steelblue;"></circle><circle cx="80.18565028905869" cy="168.40752495659723" r="2" style="fill: steelblue;"></circle><circle cx="49.672132730484016" cy="133.76825584305658" r="2" style="fill: steelblue;"></circle><circle cx="38.49729374051095" cy="126.06872320175171" r="2" style="fill: steelblue;"></circle><circle cx="159.16834622621536" cy="34.75203646553888" r="2" style="fill: steelblue;"></circle><circle cx="179.22372967004776" cy="132.47027860747443" r="2" style="fill: steelblue;"></circle><circle cx="128.34412083029747" cy="49.12252426147461" r="2" style="fill: steelblue;"></circle><circle cx="129.9037452787161" cy="81.54168095853593" r="2" style="fill: steelblue;"></circle><circle cx="158.55709686875343" cy="109.64849458800421" r="2" style="fill: steelblue;"></circle><circle cx="126.94803662598133" cy="119.21808984544542" r="2" style="fill: steelblue;"></circle><circle cx="175.70669054985046" cy="133.2753088739183" r="2" style="fill: steelblue;"></circle><circle cx="150.24513229727745" cy="63.18354143036737" r="2" style="fill: steelblue;"></circle><circle cx="175.00185817480087" cy="88.99962600165357" r="2" style="fill: steelblue;"></circle><circle cx="60.691604763269424" cy="41.00888503922357" r="2" style="fill: steelblue;"></circle><circle cx="155.79719692468643" cy="7.125363085005021" r="2" style="fill: steelblue;"></circle><circle cx="139.1255058348179" cy="89.32848411301772" r="2" style="fill: steelblue;"></circle><circle cx="106.78302021697164" cy="107.84410470061832" r="2" style="fill: steelblue;"></circle><circle cx="88.24304435402155" cy="98.4819758269522" r="2" style="fill: steelblue;"></circle><circle cx="64.86565470695496" cy="100.78424496783151" r="2" style="fill: steelblue;"></circle><circle cx="78.85307297110558" cy="108.61975484424167" r="2" style="fill: steelblue;"></circle><circle cx="107.83716235309839" cy="127.89697315957811" r="2" style="fill: steelblue;"></circle><circle cx="118.9107321202755" cy="63.45937351385753" r="2" style="fill: steelblue;"></circle><circle cx="133.16590189933777" cy="70.12225886185963" r="2" style="fill: steelblue;"></circle><circle cx="160.61067059636116" cy="113.24866149160597" r="2" style="fill: steelblue;"></circle><circle cx="175.4849687218666" cy="75.29709190130234" r="2" style="fill: steelblue;"></circle><circle cx="144.35746744275093" cy="57.421096828248764" r="2" style="fill: steelblue;"></circle><circle cx="145.77519372105598" cy="38.32558658387926" r="2" style="fill: steelblue;"></circle><circle cx="125.96413902938366" cy="46.5878168741862" r="2" style="fill: steelblue;"></circle><circle cx="147.0668487250805" cy="104.10737527741327" r="2" style="fill: steelblue;"></circle><circle cx="187.1885046362877" cy="1.6599681642320396" r="2" style="fill: steelblue;"></circle><circle cx="57.17853680253029" cy="105.31781646940443" r="2" style="fill: steelblue;"></circle><circle cx="79.9081776291132" cy="53.66595453686185" r="2" style="fill: steelblue;"></circle><circle cx="116.96953177452087" cy="152.74982849756879" r="2" style="fill: steelblue;"></circle><circle cx="117.42750033736229" cy="106.54763413800134" r="2" style="fill: steelblue;"></circle><circle cx="125.44469013810158" cy="106.65627519289653" r="2" style="fill: steelblue;"></circle><circle cx="112.44041975587606" cy="54.28039564026727" r="2" style="fill: steelblue;"></circle><circle cx="102.87044979631901" cy="45.71413199106853" r="2" style="fill: steelblue;"></circle><circle cx="158.92952159047127" cy="170.73077493243747" r="2" style="fill: steelblue;"></circle><circle cx="164.10452723503113" cy="37.54854732089572" r="2" style="fill: steelblue;"></circle><circle cx="135.22327914834023" cy="86.74623850319121" r="2" style="fill: steelblue;"></circle><circle cx="170.67334651947021" cy="73.85732928911845" r="2" style="fill: steelblue;"></circle><circle cx="81.70211724936962" cy="75.7575187418196" r="2" style="fill: steelblue;"></circle><circle cx="140.07722437381744" cy="23.925985230339908" r="2" style="fill: steelblue;"></circle><circle cx="134.89887714385986" cy="122.76606957117717" r="2" style="fill: steelblue;"></circle><circle cx="96.68241362087429" cy="85.95727417204115" r="2" style="fill: steelblue;"></circle><circle cx="35.9629899263382" cy="127.3470573955112" r="2" style="fill: steelblue;"></circle><circle cx="24.327798187732704" cy="154.67272731992935" r="2" style="fill: steelblue;"></circle><circle cx="35.54160743951798" cy="155.52216635810004" r="2" style="fill: steelblue;"></circle><circle cx="37.58175894618035" cy="142.5587256749471" r="2" style="fill: steelblue;"></circle><circle cx="59.596794098615646" cy="128.1122088432312" r="2" style="fill: steelblue;"></circle><circle cx="101.97493797168136" cy="120.34476002057394" r="2" style="fill: steelblue;"></circle></g></svg>