<svg xmlns="http://www.w3.org/2000/svg"><g transform="translate(40,20)"><circle cx="196.90952092409134" cy="79.20921053737402" r="3" style="fill: steelblue;"></circle><circle cx="383.47496330738073" cy="178.15300980582833" r="3" style="fill: steelblue;"></circle><circle cx="414.53951239585876" cy="125.46361349523067" r="3" style="fill: steelblue;"></circle><circle cx="338.3078062534332" cy="200.08052601478994" r="3" style="fill: steelblue;"></circle><circle cx="426.39296293258667" cy="69.25693079829216" r="3" style="fill: steelblue;"></circle><circle cx="389.37170147895813" cy="159.61655899882317" r="3" style="fill: steelblue;"></circle><circle cx="177.83899694681168" cy="138.0756233818829" r="3" style="fill: steelblue;"></circle><circle cx="259.2518837749958" cy="100.62323249876499" r="3" style="fill: steelblue;"></circle><circle cx="453.3317470550537" cy="89.61824905127287" r="3" style="fill: steelblue;"></circle><circle cx="392.78822779655457" cy="43.97231452167034" r="3" style="fill: steelblue;"></circle><circle cx="411.69304490089417" cy="34.422774985432625" r="3" style="fill: steelblue;"></circle><circle cx="281.9905185699463" cy="128.53657333180308" r="3" style="fill: steelblue;"></circle><circle cx="264.3066497147083" cy="157.87961515598" r="3" style="fill: steelblue;"></circle><circle cx="470.3239345550537" cy="91.42382927238941" r="3" style="fill: steelblue;"></circle><circle cx="335.82231044769287" cy="93.70744060724974" r="3" style="fill: steelblue;"></circle><circle cx="433.07652711868286" cy="6.225315108895302" r="3" style="fill: steelblue;"></circle><circle cx="452.6941680908203" cy="79.8164077103138" r="3" style="fill: steelblue;"></circle><circle cx="351.4238530397415" cy="35.82807928323746" r="3" style="fill: steelblue;"></circle><circle cx="360.14544010162354" cy="201.9804138224572" r="3" style="fill: steelblue;"></circle><circle cx="363.7579196691513" cy="97.49284777790308" r="3" style="fill: steelblue;"></circle><circle cx="266.56703889369965" cy="220.58527935296297" r="3" style="fill: steelblue;"></circle><circle cx="267.6631124317646" cy="167.38060414791107" r="3" style="fill: steelblue;"></circle><circle cx="127.22881078720094" cy="111.11374218016863" r="3" style="fill: steelblue;"></circle><circle cx="400.56720614433294" cy="112.43280973285437" r="3" style="fill: steelblue;"></circle><circle cx="224.27225276827812" cy="179.38729603774846" r="3" style="fill: steelblue;"></circle><circle cx="244.5674893073738" cy="222.32936015352607" r="3" style="fill: steelblue;"></circle><circle cx="156.2189215421677" cy="150.25392659008503" r="3" style="fill: steelblue;"></circle><circle cx="173.43613743782046" cy="242.03082844614983" r="3" style="fill: steelblue;"></circle><circle cx="299.90418344736105" cy="203.51559966802597" r="3" style="fill: steelblue;"></circle><circle cx="293.5350412130356" cy="268.49943324923515" r="3" style="fill: steelblue;"></circle><circle cx="257.2448080033064" cy="264.9091539904475" r="3" style="fill: steelblue;"></circle><circle cx="254.84146267175674" cy="167.8073751507327" r="3" style="fill: steelblue;"></circle><circle cx="277.97870725393295" cy="171.95981267723255" r="3" style="fill: steelblue;"></circle><circle cx="303.3938446640969" cy="105.69862481206656" r="3" style="fill: steelblue;"></circle><circle cx="141.688688993454" cy="157.43298241868615" r="3" style="fill: steelblue;"></circle><circle cx="181.65298193693164" cy="206.1992783099413" r="3" style="fill: steelblue;"></circle><circle cx="164.9443084001541" cy="222.55287617444992" r="3" style="fill: steelblue;"></circle><circle cx="211.26755565404892" cy="316.2008833140135" r="3" style="fill: steelblue;"></circle><circle cx="129.43789601325992" cy="293.32436360418797" r="3" style="fill: steelblue;"></circle><circle cx="194.99997586011887" cy="280.1398226991296" r="3" style="fill: steelblue;"></circle><circle cx="236.47167641669512" cy="259.5203874632716" r="3" style="fill: steelblue;"></circle><circle cx="122.77165889739992" cy="184.83082922175527" r="3" style="fill: steelblue;"></circle><circle cx="117.06367671489716" cy="173.57446053647436" r="3" style="fill: steelblue;"></circle><circle cx="146.24244511127472" cy="145.46874882653356" r="3" style="fill: steelblue;"></circle><circle cx="279.61031287908554" cy="181.46925898035988" r="3" style="fill: steelblue;"></circle><circle cx="88.06074500083925" cy="305.4241195321083" r="3" style="fill: steelblue;"></circle><circle cx="137.5046306848526" cy="203.85986538603902" r="3" style="fill: steelblue;"></circle><circle cx="331.8892711400986" cy="202.84572960808873" r="3" style="fill: steelblue;"></circle><circle cx="321.2840133905411" cy="200.76802903786302" r="3" style="fill: steelblue;"></circle><circle cx="281.5710702538491" cy="131.16572489961982" r="3" style="fill: steelblue;"></circle><circle cx="255.56561551988125" cy="182.59174197446555" r="3" style="fill: steelblue;"></circle><circle cx="283.51443350315094" cy="245.55871840566397" r="3" style="fill: steelblue;"></circle><circle cx="52.220156192779555" cy="197.6376100908965" r="3" style="fill: steelblue;"></circle><circle cx="55.80566167831422" cy="238.10628075152636" r="3" style="fill: steelblue;"></circle><circle cx="205.82394540309906" cy="229.23269048333168" r="3" style="fill: steelblue;"></circle><circle cx="79.86403942108154" cy="211.3994687795639" r="3" style="fill: steelblue;"></circle><circle cx="145.72350919246676" cy="238.46718687564135" r="3" style="fill: steelblue;"></circle><circle cx="83.25544238090517" cy="200.72741406038404" r="3" style="fill: steelblue;"></circle><circle cx="146.8714410066605" cy="133.8219542056322" r="3" style="fill: steelblue;"></circle><circle cx="326.59509122371674" cy="177.3364262888208" r="3" style="fill: steelblue;"></circle><circle cx="407.9889142513275" cy="159.17223407886922" r="3" style="fill: steelblue;"></circle><circle cx="201.5855321288109" cy="57.27096199989319" r="3" style="fill: steelblue;"></circle><circle cx="349.8978102207184" cy="119.26640029996634" r="3" style="fill: steelblue;"></circle><circle cx="157.8186357021332" cy="94.19670440256596" r="3" style="fill: steelblue;"></circle><circle cx="290.3975495696068" cy="287.5643253326416" r="3" style="fill: steelblue;"></circle><circle cx="368.625950217247" cy="165.21760560572147" r="3" style="fill: steelblue;"></circle><circle cx="381.0219222307205" cy="147.26121230050921" r="3" style="fill: steelblue;"></circle><circle cx="156.25431776046753" cy="155.13354721479118" r="3" style="fill: steelblue;"></circle><circle cx="329.90893363952637" cy="225.55656237527728" r="3" style="fill: steelblue;"></circle><circle cx="256.01356118917465" cy="231.46181385964155" r="3" style="fill: steelblue;"></circle><circle cx="427.4471068382263" cy="101.44844017922878" r="3" style="fill: steelblue;"></circle><circle cx="301.3442748785019" cy="241.9471863657236" r="3" style="fill: steelblue;"></circle><circle cx="152.66624629497528" cy="201.6858753748238" r="3" style="fill: steelblue;"></circle><circle cx="279.27779495716095" cy="187.8908467013389" r="3" style="fill: steelblue;"></circle><circle cx="134.3941444158554" cy="203.38472882285714" r="3" style="fill: steelblue;"></circle><circle cx="190.8280947804451" cy="233.14791563898325" r="3" style="fill: steelblue;"></circle><circle cx="33.060564994812026" cy="286.417418345809" r="3" style="fill: steelblue;"></circle><circle cx="154.25373852252963" cy="216.15703096613288" r="3" style="fill: steelblue;"></circle><circle cx="130.1482880115509" cy="243.15163884311914" r="3" style="fill: steelblue;"></circle><circle cx="130.3272181749344" cy="215.01862835139036" r="3" style="fill: steelblue;"></circle><circle cx="196.29976987838745" cy="274.550100043416" r="3" style="fill: steelblue;"></circle><circle cx="117.4301826953888" cy="304.3841674923897" r="3" style="fill: steelblue;"></circle><circle cx="129.1110062599182" cy="231.5435979515314" r="3" style="fill: steelblue;"></circle><circle cx="255.9438293427229" cy="166.09644151758403" r="3" style="fill: steelblue;"></circle><circle cx="346.0367614030838" cy="152.32171136885881" r="3" style="fill: steelblue;"></circle><circle cx="330.76678454875946" cy="152.8368240222335" r="3" style="fill: steelblue;"></circle><circle cx="264.4340389966965" cy="113.54736816138029" r="3" style="fill: steelblue;"></circle><circle cx="354.7678345441818" cy="133.4617456421256" r="3" style="fill: steelblue;"></circle><circle cx="348.93462002277374" cy="117.47030559927225" r="3" style="fill: steelblue;"></circle><circle cx="399.9106192588806" cy="66.87994413077831" r="3" style="fill: steelblue;"></circle><circle cx="356.35726690292364" cy="79.38069961965084" r="3" style="fill: steelblue;"></circle><circle cx="486.40708565711975" cy="5.184945836663246" r="3" style="fill: steelblue;"></circle><circle cx="411.3544428348541" cy="40.42804166674614" r="3" style="fill: steelblue;"></circle><circle cx="407.09291338920593" cy="69.32183001190424" r="3" style="fill: steelblue;"></circle><circle cx="277.2948311269284" cy="131.1877534724772" r="3" style="fill: steelblue;"></circle><circle cx="166.57988369464877" cy="179.9035120755434" r="3" style="fill: steelblue;"></circle><circle cx="213.65984916687015" cy="232.9136135056615" r="3" style="fill: steelblue;"></circle><circle cx="148.8647156953812" cy="224.20429550111294" r="3" style="fill: steelblue;"></circle><circle cx="170.77330738306048" cy="197.71205023862422" r="3" style="fill: steelblue;"></circle><circle cx="225.15726886689663" cy="196.3400397915393" r="3" style="fill: steelblue;"></circle><circle cx="269.59604635834694" cy="224.96308172121644" r="3" style="fill: steelblue;"></circle><circle cx="237.89557331241667" cy="209.55428080633283" r="3" style="fill: steelblue;"></circle><circle cx="339.9584019184113" cy="261.9776392355561" r="3" style="fill: steelblue;"></circle><circle cx="240.97154185641557" cy="192.36536878161132" r="3" style="fill: steelblue;"></circle><circle cx="129.0843629837036" cy="309.8540596663952" r="3" style="fill: steelblue;"></circle><circle cx="186.76923304796222" cy="280.5998606607318" r="3" style="fill: steelblue;"></circle><circle cx="454.3660068511963" cy="117.94361025094986" r="3" style="fill: steelblue;"></circle><circle cx="310.58197259902954" cy="77.47101988643408" r="3" style="fill: steelblue;"></circle><circle cx="149.04262661933902" cy="64.25294391810894" r="3" style="fill: steelblue;"></circle><circle cx="454.64547514915466" cy="15.940913185477257" r="3" style="fill: steelblue;"></circle><circle cx="329.9905890226364" cy="154.9910883884877" r="3" style="fill: steelblue;"></circle><circle cx="430.55954217910767" cy="78.63925136625767" r="3" style="fill: steelblue;"></circle><circle cx="301.98978871107107" cy="213.12647564336658" r="3" style="fill: steelblue;"></circle><circle cx="72.38403797149658" cy="298.4524641185999" r="3" style="fill: steelblue;"></circle><circle cx="208.6226047575474" cy="223.00222255289555" r="3" style="fill: steelblue;"></circle><circle cx="279.47355598211294" cy="340.78470543026924" r="3" style="fill: steelblue;"></circle><circle cx="258.5512360185385" cy="260.7193963602185" r="3" style="fill: steelblue;"></circle><circle cx="127.4004900455475" cy="211.83526813983917" r="3" style="fill: steelblue;"></circle></g></svg>