<svg xmlns="http://www.w3.org/2000/svg"><g transform="translate(40,20)"><circle cx="280.73914736509323" cy="126.56762550274533" r="3" style="fill: steelblue;"></circle><circle cx="325.7203423976898" cy="122.73342675632902" r="3" style="fill: steelblue;"></circle><circle cx="288.39540123939514" cy="174.34406007329625" r="3" style="fill: steelblue;"></circle><circle cx="384.0794259309769" cy="190.47006774279805" r="3" style="fill: steelblue;"></circle><circle cx="157.85828769207" cy="93.16820916202335" r="3" style="fill: steelblue;"></circle><circle cx="370.39585053920746" cy="54.03641793462965" r="3" style="fill: steelblue;"></circle><circle cx="376.1918896436691" cy="204.97428394026224" r="3" style="fill: steelblue;"></circle><circle cx="471.47521018981934" cy="160.6771397093932" r="3" style="fill: steelblue;"></circle><circle cx="364.12584722042084" cy="42.81268947654302" r="3" style="fill: steelblue;"></circle><circle cx="277.9044994711876" cy="161.9319078202049" r="3" style="fill: steelblue;"></circle><circle cx="412.81184792518616" cy="78.7232486738099" r="3" style="fill: steelblue;"></circle><circle cx="464.4302988052368" cy="23.55747852060529" r="3" style="fill: steelblue;"></circle><circle cx="283.6656430363655" cy="82.63703452216254" r="3" style="fill: steelblue;"></circle><circle cx="357.7128195762634" cy="118.0511362850666" r="3" style="fill: steelblue;"></circle><circle cx="327.6007318496704" cy="153.47879303412304" r="3" style="fill: steelblue;"></circle><circle cx="480.19453525543213" cy="33.29696026113299" r="3" style="fill: steelblue;"></circle><circle cx="347.18499720096594" cy="133.5715686281522" r="3" style="fill: steelblue;"></circle><circle cx="289.28098171949387" cy="92.32929944992065" r="3" style="fill: steelblue;"></circle><circle cx="305.9966826438904" cy="186.64807884229555" r="3" style="fill: steelblue;"></circle><circle cx="333.19725036621094" cy="101.57695098055734" r="3" style="fill: steelblue;"></circle><circle cx="315.7950961589813" cy="110.83448280890781" r="3" style="fill: steelblue;"></circle><circle cx="177.51145899295807" cy="247.71875821881827" r="3" style="fill: steelblue;"></circle><circle cx="243.85683076456192" cy="55.48856092823877" r="3" style="fill: steelblue;"></circle><circle cx="152.60022819042206" cy="175.720697020491" r="3" style="fill: steelblue;"></circle><circle cx="329.51245844364166" cy="145.02857931786116" r="3" style="fill: steelblue;"></circle><circle cx="311.04959338903427" cy="156.34376427365675" r="3" style="fill: steelblue;"></circle><circle cx="73.1847667694092" cy="86.47407276762857" r="3" style="fill: steelblue;"></circle><circle cx="293.54911834001547" cy="162.12445845206577" r="3" style="fill: steelblue;"></circle><circle cx="191.25918835401535" cy="60.727836522791115" r="3" style="fill: steelblue;"></circle><circle cx="188.58030080795288" cy="202.16344934370784" r="3" style="fill: steelblue;"></circle><circle cx="285.79347521066666" cy="153.67128100867075" r="3" style="fill: steelblue;"></circle><circle cx="205.46393260359764" cy="97.0543243818813" r="3" style="fill: steelblue;"></circle><circle cx="228.55915479362014" cy="139.55898413227663" r="3" style="fill: steelblue;"></circle><circle cx="206.1751113831997" cy="164.2517734732893" r="3" style="fill: steelblue;"></circle><circle cx="271.10907822847366" cy="64.06314108106824" r="3" style="fill: steelblue;"></circle><circle cx="254.58742395043373" cy="228.4416135814455" r="3" style="fill: steelblue;"></circle><circle cx="202.93140649795535" cy="81.79987486865787" r="3" style="fill: steelblue;"></circle><circle cx="138.1953710317612" cy="180.4104440742069" r="3" style="fill: steelblue;"></circle><circle cx="381.22965037822723" cy="144.94131470306053" r="3" style="fill: steelblue;"></circle><circle cx="42.527636289596565" cy="182.9909402463171" r="3" style="fill: steelblue;"></circle><circle cx="194.2748138308525" cy="193.13701507118014" r="3" style="fill: steelblue;"></circle><circle cx="85.99424600601198" cy="119.7917636897829" r="3" style="fill: steelblue;"></circle><circle cx="296.9583088159561" cy="216.01465029848947" r="3" style="fill: steelblue;"></circle><circle cx="168.76454740762713" cy="235.19857244359122" r="3" style="fill: steelblue;"></circle><circle cx="274.1983996331692" cy="101.14933401346207" r="3" style="fill: steelblue;"></circle><circle cx="31.473573446273814" cy="205.92207395368155" r="3" style="fill: steelblue;"></circle><circle cx="142.18151807785034" cy="214.72016904089185" r="3" style="fill: steelblue;"></circle><circle cx="173.0852374434471" cy="143.04721020162106" r="3" style="fill: steelblue;"></circle><circle cx="110.71467339992525" cy="175.11690217587682" r="3" style="fill: steelblue;"></circle><circle cx="148.42984914779663" cy="83.979109260771" r="3" style="fill: steelblue;"></circle><circle cx="130.58222472667697" cy="173.8362069759104" r="3" style="fill: steelblue;"></circle><circle cx="228.9275662600994" cy="103.83276492357254" r="3" style="fill: steelblue;"></circle><circle cx="79.87585902214052" cy="311.5898761484358" r="3" style="fill: steelblue;"></circle><circle cx="135.81981897354126" cy="192.7617752717601" r="3" style="fill: steelblue;"></circle><circle cx="98.0841511487961" cy="167.469183045129" r="3" style="fill: steelblue;"></circle><circle cx="106.82412028312683" cy="159.9311569498645" r="3" style="fill: steelblue;"></circle><circle cx="104.14869725704193" cy="186.72499739461477" r="3" style="fill: steelblue;"></circle><circle cx="183.5532331466675" cy="210.08256011539038" r="3" style="fill: steelblue;"></circle><circle cx="64.48552250862123" cy="253.55697108639612" r="3" style="fill: steelblue;"></circle><circle cx="228.1574895232916" cy="94.15761811865701" r="3" style="fill: steelblue;"></circle><circle cx="199.704065322876" cy="239.53404708041086" r="3" style="fill: steelblue;"></circle><circle cx="404.57122564315796" cy="74.77628125084772" r="3" style="fill: steelblue;"></circle><circle cx="279.6971493959427" cy="61.26826273070441" r="3" style="fill: steelblue;"></circle><circle cx="373.3394855260849" cy="114.97571542859077" r="3" style="fill: steelblue;"></circle><circle cx="335.2031135559082" cy="161.8305956530902" r="3" style="fill: steelblue;"></circle><circle cx="388.7956076860428" cy="69.83263807164298" r="3" style="fill: steelblue;"></circle><circle cx="364.7229605913162" cy="130.2563115126557" r="3" style="fill: steelblue;"></circle><circle cx="189.8639926314354" cy="124.9225153691239" r="3" style="fill: steelblue;"></circle><circle cx="158.09021830558777" cy="84.62785366508695" r="3" style="fill: steelblue;"></circle><circle cx="330.6309932470322" cy="113.78089479274222" r="3" style="fill: steelblue;"></circle><circle cx="353.003146648407" cy="187.72579042447938" r="3" style="fill: steelblue;"></circle><circle cx="264.40629601478577" cy="139.8564361449745" r="3" style="fill: steelblue;"></circle><circle cx="110.36507427692415" cy="253.53234277831183" r="3" style="fill: steelblue;"></circle><circle cx="105.78404903411867" cy="83.15967039929495" r="3" style="fill: steelblue;"></circle><circle cx="171.40087723731995" cy="250.22742665476267" r="3" style="fill: steelblue;"></circle><circle cx="124.24167931079866" cy="214.00285363197327" r="3" style="fill: steelblue;"></circle><circle cx="156.62934422492984" cy="217.25588805145685" r="3" style="fill: steelblue;"></circle><circle cx="122.44428634643556" cy="279.242256614897" r="3" style="fill: steelblue;"></circle><circle cx="164.64669942855835" cy="222.33321948183908" r="3" style="fill: steelblue;"></circle><circle cx="306.42108857631683" cy="267.5677084260517" r="3" style="fill: steelblue;"></circle><circle cx="149.0152680873871" cy="224.81212533182565" r="3" style="fill: steelblue;"></circle><circle cx="33.38341355323793" cy="152.23135039624242" r="3" style="fill: steelblue;"></circle><circle cx="204.1522318124771" cy="133.98120258417396" r="3" style="fill: steelblue;"></circle><circle cx="219.82205897569656" cy="186.6812604169051" r="3" style="fill: steelblue;"></circle><circle cx="316.0879397392273" cy="155.9137898251518" r="3" style="fill: steelblue;"></circle><circle cx="256.21415354311466" cy="146.38528254710968" r="3" style="fill: steelblue;"></circle><circle cx="112.89674878120422" cy="161.1128941592243" r="3" style="fill: steelblue;"></circle><circle cx="324.0222090482712" cy="69.03323796060351" r="3" style="fill: steelblue;"></circle><circle cx="291.50590538978577" cy="45.534783932897774" r="3" style="fill: steelblue;"></circle><circle cx="420.64831495285034" cy="109.32886161737973" r="3" style="fill: steelblue;"></circle><circle cx="368.66511940956116" cy="142.6857216904561" r="3" style="fill: steelblue;"></circle><circle cx="448.39948654174805" cy="101.61402093039618" r="3" style="fill: steelblue;"></circle><circle cx="177.74475306272507" cy="176.71674547923936" r="3" style="fill: steelblue;"></circle><circle cx="344.58617806434637" cy="120.3208290040493" r="3" style="fill: steelblue;"></circle><circle cx="105.52476882934572" cy="213.76053426000806" r="3" style="fill: steelblue;"></circle><circle cx="7.37288832664491" cy="270.1578531000349" r="3" style="fill: steelblue;"></circle><circle cx="132.32507944107056" cy="225.9594741794798" r="3" style="fill: steelblue;"></circle><circle cx="206.62520840764046" cy="244.1956642601225" r="3" style="fill: steelblue;"></circle><circle cx="82.85790324211122" cy="148.98326699104575" r="3" style="fill: steelblue;"></circle><circle cx="11.965330839157117" cy="270.94943589634363" r="3" style="fill: steelblue;"></circle><circle cx="181.6810154914856" cy="203.0252459976408" r="3" style="fill: steelblue;"></circle><circle cx="71.00906610488893" cy="266.104010409779" r="3" style="fill: steelblue;"></circle><circle cx="66.80768966674806" cy="192.13392146759566" r="3" style="fill: steelblue;"></circle><circle cx="341.5916705131531" cy="190.0883289674918" r="3" style="fill: steelblue;"></circle><circle cx="337.4797546863556" cy="265.04812240600586" r="3" style="fill: steelblue;"></circle><circle cx="184.68176811933517" cy="197.06052185760603" r="3" style="fill: steelblue;"></circle><circle cx="320.5165797472" cy="136.31575033068657" r="3" style="fill: steelblue;"></circle><circle cx="384.4419175386429" cy="149.5675725138022" r="3" style="fill: steelblue;"></circle><circle cx="400.55206060409546" cy="46.3213599390454" r="3" style="fill: steelblue;"></circle><circle cx="333.77979040145874" cy="97.40156034628552" r="3" style="fill: steelblue;"></circle><circle cx="466.1682629585266" cy="29.83853154712255" r="3" style="fill: steelblue;"></circle><circle cx="301.56173944473267" cy="93.59390222364003" r="3" style="fill: steelblue;"></circle><circle cx="243.19173065945506" cy="237.67649895615045" r="3" style="fill: steelblue;"></circle><circle cx="353.8651102781296" cy="251.81130501959058" r="3" style="fill: steelblue;"></circle><circle cx="220.86397647857666" cy="129.18454549378822" r="3" style="fill: steelblue;"></circle><circle cx="119.74095046520233" cy="232.48024466964932" r="3" style="fill: steelblue;"></circle><circle cx="213.69678765535357" cy="242.48213089174692" r="3" style="fill: steelblue;"></circle><circle cx="95.99518418312074" cy="170.83830878966387" r="3" style="fill: steelblue;"></circle></g></svg>