<svg xmlns="http://www.w3.org/2000/svg"><g transform="translate(40,20)"><circle cx="280.73914736509323" cy="156.47526495158672" r="3" style="fill: steelblue;"></circle><circle cx="325.7203423976898" cy="99.75470826029778" r="3" style="fill: steelblue;"></circle><circle cx="288.39540123939514" cy="81.86119645833969" r="3" style="fill: steelblue;"></circle><circle cx="384.0794259309769" cy="161.92405298352242" r="3" style="fill: steelblue;"></circle><circle cx="157.85828769207" cy="138.30404840409756" r="3" style="fill: steelblue;"></circle><circle cx="370.39585053920746" cy="132.44999460875988" r="3" style="fill: steelblue;"></circle><circle cx="376.1918896436691" cy="112.57060468196869" r="3" style="fill: steelblue;"></circle><circle cx="471.47521018981934" cy="73.49352538585663" r="3" style="fill: steelblue;"></circle><circle cx="364.12584722042084" cy="71.5974435210228" r="3" style="fill: steelblue;"></circle><circle cx="277.9044994711876" cy="95.12451216578484" r="3" style="fill: steelblue;"></circle><circle cx="412.81184792518616" cy="129.83569651842117" r="3" style="fill: steelblue;"></circle><circle cx="464.4302988052368" cy="68.6019018292427" r="3" style="fill: steelblue;"></circle><circle cx="283.6656430363655" cy="234.1407373547554" r="3" style="fill: steelblue;"></circle><circle cx="357.7128195762634" cy="122.2244992852211" r="3" style="fill: steelblue;"></circle><circle cx="327.6007318496704" cy="166.80122269317508" r="3" style="fill: steelblue;"></circle><circle cx="480.19453525543213" cy="192.9009098559618" r="3" style="fill: steelblue;"></circle><circle cx="347.18499720096594" cy="181.76303328946233" r="3" style="fill: steelblue;"></circle><circle cx="289.28098171949387" cy="227.10238471627235" r="3" style="fill: steelblue;"></circle><circle cx="305.9966826438904" cy="105.76800927519798" r="3" style="fill: steelblue;"></circle><circle cx="333.19725036621094" cy="150.5058828741312" r="3" style="fill: steelblue;"></circle><circle cx="315.7950961589813" cy="202.80740223824978" r="3" style="fill: steelblue;"></circle><circle cx="177.51145899295807" cy="205.62192499637604" r="3" style="fill: steelblue;"></circle><circle cx="243.85683076456192" cy="173.87703930726275" r="3" style="fill: steelblue;"></circle><circle cx="152.60022819042206" cy="140.8002644777298" r="3" style="fill: steelblue;"></circle><circle cx="329.51245844364166" cy="93.87668967247009" r="3" style="fill: steelblue;"></circle><circle cx="311.04959338903427" cy="123.69115501642227" r="3" style="fill: steelblue;"></circle><circle cx="73.1847667694092" cy="241.6727177798748" r="3" style="fill: steelblue;"></circle><circle cx="293.54911834001547" cy="74.36216175556183" r="3" style="fill: steelblue;"></circle><circle cx="191.25918835401535" cy="187.47574891895056" r="3" style="fill: steelblue;"></circle><circle cx="188.58030080795288" cy="224.55556094646454" r="3" style="fill: steelblue;"></circle><circle cx="285.79347521066666" cy="216.82740300893784" r="3" style="fill: steelblue;"></circle><circle cx="205.46393260359764" cy="122.60991781949997" r="3" style="fill: steelblue;"></circle><circle cx="228.55915479362014" cy="203.92303243279457" r="3" style="fill: steelblue;"></circle><circle cx="206.1751113831997" cy="217.40197129547596" r="3" style="fill: steelblue;"></circle><circle cx="271.10907822847366" cy="142.81093403697014" r="3" style="fill: steelblue;"></circle><circle cx="254.58742395043373" cy="246.84790819883347" r="3" style="fill: steelblue;"></circle><circle cx="202.93140649795535" cy="231.23050928115845" r="3" style="fill: steelblue;"></circle><circle cx="138.1953710317612" cy="214.558195322752" r="3" style="fill: steelblue;"></circle><circle cx="381.22965037822723" cy="297.8746101260185" r="3" style="fill: steelblue;"></circle><circle cx="42.527636289596565" cy="125.89400708675385" r="3" style="fill: steelblue;"></circle><circle cx="194.2748138308525" cy="141.5440570563078" r="3" style="fill: steelblue;"></circle><circle cx="85.99424600601198" cy="222.46612310409546" r="3" style="fill: steelblue;"></circle><circle cx="296.9583088159561" cy="248.24314936995506" r="3" style="fill: steelblue;"></circle><circle cx="168.76454740762713" cy="222.19403013586998" r="3" style="fill: steelblue;"></circle><circle cx="274.1983996331692" cy="205.2126720547676" r="3" style="fill: steelblue;"></circle><circle cx="31.473573446273814" cy="288.1643369793892" r="3" style="fill: steelblue;"></circle><circle cx="142.18151807785034" cy="157.86169730126858" r="3" style="fill: steelblue;"></circle><circle cx="173.0852374434471" cy="253.66368293762207" r="3" style="fill: steelblue;"></circle><circle cx="110.71467339992525" cy="189.65745512396097" r="3" style="fill: steelblue;"></circle><circle cx="148.42984914779663" cy="212.93423771858215" r="3" style="fill: steelblue;"></circle><circle cx="130.58222472667697" cy="211.41509674489498" r="3" style="fill: steelblue;"></circle><circle cx="228.9275662600994" cy="185.55966075509787" r="3" style="fill: steelblue;"></circle><circle cx="79.87585902214052" cy="146.89830280840397" r="3" style="fill: steelblue;"></circle><circle cx="135.81981897354126" cy="270.29723078012466" r="3" style="fill: steelblue;"></circle><circle cx="98.0841511487961" cy="203.21330167353153" r="3" style="fill: steelblue;"></circle><circle cx="106.82412028312683" cy="195.77873460948467" r="3" style="fill: steelblue;"></circle><circle cx="104.14869725704193" cy="221.39597907662392" r="3" style="fill: steelblue;"></circle><circle cx="183.5532331466675" cy="324.6814340353012" r="3" style="fill: steelblue;"></circle><circle cx="64.48552250862123" cy="169.44054821506143" r="3" style="fill: steelblue;"></circle><circle cx="228.1574895232916" cy="187.18181904405355" r="3" style="fill: steelblue;"></circle><circle cx="199.704065322876" cy="71.7078223824501" r="3" style="fill: steelblue;"></circle><circle cx="404.57122564315796" cy="128.67842391133308" r="3" style="fill: steelblue;"></circle><circle cx="279.6971493959427" cy="158.66084229201078" r="3" style="fill: steelblue;"></circle><circle cx="373.3394855260849" cy="95.58674842119217" r="3" style="fill: steelblue;"></circle><circle cx="335.2031135559082" cy="74.20593947172165" r="3" style="fill: steelblue;"></circle><circle cx="388.7956076860428" cy="86.084945499897" r="3" style="fill: steelblue;"></circle><circle cx="364.7229605913162" cy="141.12004190683365" r="3" style="fill: steelblue;"></circle><circle cx="189.8639926314354" cy="127.01105326414108" r="3" style="fill: steelblue;"></circle><circle cx="158.09021830558777" cy="62.33144998550415" r="3" style="fill: steelblue;"></circle><circle cx="330.6309932470322" cy="123.62873703241348" r="3" style="fill: steelblue;"></circle><circle cx="353.003146648407" cy="130.13008534908295" r="3" style="fill: steelblue;"></circle><circle cx="264.40629601478577" cy="253.65152582526207" r="3" style="fill: steelblue;"></circle><circle cx="110.36507427692415" cy="149.50540624558926" r="3" style="fill: steelblue;"></circle><circle cx="105.78404903411867" cy="213.5876003652811" r="3" style="fill: steelblue;"></circle><circle cx="171.40087723731995" cy="174.67206606233958" r="3" style="fill: steelblue;"></circle><circle cx="124.24167931079866" cy="246.76069617271423" r="3" style="fill: steelblue;"></circle><circle cx="156.62934422492984" cy="172.44758906308562" r="3" style="fill: steelblue;"></circle><circle cx="122.44428634643556" cy="184.0205630287528" r="3" style="fill: steelblue;"></circle><circle cx="164.64669942855835" cy="175.01476220786572" r="3" style="fill: steelblue;"></circle><circle cx="306.42108857631683" cy="161.84867341071367" r="3" style="fill: steelblue;"></circle><circle cx="149.0152680873871" cy="178.08012254536152" r="3" style="fill: steelblue;"></circle><circle cx="33.38341355323793" cy="209.10356864333153" r="3" style="fill: steelblue;"></circle><circle cx="204.1522318124771" cy="225.99498182535172" r="3" style="fill: steelblue;"></circle><circle cx="219.82205897569656" cy="214.22485783696175" r="3" style="fill: steelblue;"></circle><circle cx="316.0879397392273" cy="212.23343051970005" r="3" style="fill: steelblue;"></circle><circle cx="256.21415354311466" cy="78.66848111152649" r="3" style="fill: steelblue;"></circle><circle cx="112.89674878120422" cy="125.69540441036224" r="3" style="fill: steelblue;"></circle><circle cx="324.0222090482712" cy="131.9915473461151" r="3" style="fill: steelblue;"></circle><circle cx="291.50590538978577" cy="116.96134582161903" r="3" style="fill: steelblue;"></circle><circle cx="420.64831495285034" cy="106.14504665136337" r="3" style="fill: steelblue;"></circle><circle cx="368.66511940956116" cy="163.5745583102107" r="3" style="fill: steelblue;"></circle><circle cx="448.39948654174805" cy="145.85131257772446" r="3" style="fill: steelblue;"></circle><circle cx="177.74475306272507" cy="154.28392849862576" r="3" style="fill: steelblue;"></circle><circle cx="344.58617806434637" cy="106.38980567455292" r="3" style="fill: steelblue;"></circle><circle cx="105.52476882934572" cy="232.81307220458984" r="3" style="fill: steelblue;"></circle><circle cx="7.37288832664491" cy="193.01024563610554" r="3" style="fill: steelblue;"></circle><circle cx="132.32507944107056" cy="225.38369968533516" r="3" style="fill: steelblue;"></circle><circle cx="206.62520840764046" cy="228.14892902970314" r="3" style="fill: steelblue;"></circle><circle cx="82.85790324211122" cy="202.33653709292412" r="3" style="fill: steelblue;"></circle><circle cx="11.965330839157117" cy="244.73178833723068" r="3" style="fill: steelblue;"></circle><circle cx="181.6810154914856" cy="204.96333129703999" r="3" style="fill: steelblue;"></circle><circle cx="71.00906610488893" cy="225.6507858633995" r="3" style="fill: steelblue;"></circle><circle cx="66.80768966674806" cy="154.62770462036133" r="3" style="fill: steelblue;"></circle><circle cx="341.5916705131531" cy="236.2605758011341" r="3" style="fill: steelblue;"></circle><circle cx="337.4797546863556" cy="122.9314997792244" r="3" style="fill: steelblue;"></circle><circle cx="184.68176811933517" cy="188.29511012881994" r="3" style="fill: steelblue;"></circle><circle cx="320.5165797472" cy="169.78297159075737" r="3" style="fill: steelblue;"></circle><circle cx="384.4419175386429" cy="133.0752618610859" r="3" style="fill: steelblue;"></circle><circle cx="400.55206060409546" cy="54.62832599878311" r="3" style="fill: steelblue;"></circle><circle cx="333.77979040145874" cy="169.24666743725538" r="3" style="fill: steelblue;"></circle><circle cx="466.1682629585266" cy="66.28896296024323" r="3" style="fill: steelblue;"></circle><circle cx="301.56173944473267" cy="23.92885833978653" r="3" style="fill: steelblue;"></circle><circle cx="243.19173065945506" cy="292.5366625189781" r="3" style="fill: steelblue;"></circle><circle cx="353.8651102781296" cy="252.2064983844757" r="3" style="fill: steelblue;"></circle><circle cx="220.86397647857666" cy="136.4907741546631" r="3" style="fill: steelblue;"></circle><circle cx="119.74095046520233" cy="309.5369890332222" r="3" style="fill: steelblue;"></circle><circle cx="213.69678765535357" cy="266.4896607398987" r="3" style="fill: steelblue;"></circle><circle cx="95.99518418312074" cy="234.6432365477085" r="3" style="fill: steelblue;"></circle></g></svg>