<svg xmlns="http://www.w3.org/2000/svg"><g><circle cx="27.710186110602486" cy="79.49604950845242" r="2" style="fill: steelblue;"></circle><circle cx="29.15951775179969" cy="28.942258283495903" r="2" style="fill: steelblue;"></circle><circle cx="77.62227290206485" cy="57.75112397968769" r="2" style="fill: steelblue;"></circle><circle cx="54.8153204532961" cy="88.84390369057655" r="2" style="fill: steelblue;"></circle><circle cx="34.7499003012975" cy="91.22630134224892" r="2" style="fill: steelblue;"></circle><circle cx="47.45623386568493" cy="65.45531023293734" r="2" style="fill: steelblue;"></circle><circle cx="32.042288117938575" cy="34.23852398991585" r="2" style="fill: steelblue;"></circle><circle cx="45.844193134042946" cy="61.65698282420635" r="2" style="fill: steelblue;"></circle><circle cx="42.7780763970481" cy="71.06895670294762" r="2" style="fill: steelblue;"></circle><circle cx="58.548781813846695" cy="78.07941846549511" r="2" style="fill: steelblue;"></circle><circle cx="32.99485974841648" cy="42.833845783025026" r="2" style="fill: steelblue;"></circle><circle cx="78.46622831291621" cy="60.808651335537434" r="2" style="fill: steelblue;"></circle><circle cx="33.77832141187456" cy="25.06503574550152" r="2" style="fill: steelblue;"></circle><circle cx="21.878735886679753" cy="72.92986027896404" r="2" style="fill: steelblue;"></circle><circle cx="52.68156445688671" cy="69.10098642110825" r="2" style="fill: steelblue;"></circle><circle cx="49.51535248094135" cy="49.13103983271867" r="2" style="fill: steelblue;"></circle><circle cx="53.19747784071498" cy="47.66407418064773" r="2" style="fill: steelblue;"></circle><circle cx="72.46433032883537" cy="54.862121772021055" r="2" style="fill: steelblue;"></circle><circle cx="86.00637316703796" cy="40.88436830788851" r="2" style="fill: steelblue;"></circle><circle cx="79.97299234072366" cy="24.108800292015076" r="2" style="fill: steelblue;"></circle><circle cx="42.328499257564545" cy="60.46431530267" r="2" style="fill: steelblue;"></circle><circle cx="82.76629447937012" cy="59.26185492426157" r="2" style="fill: steelblue;"></circle><circle cx="22.55104316605462" cy="52.07521207630634" r="2" style="fill: steelblue;"></circle><circle cx="40.668588545587326" cy="30.71122169494629" r="2" style="fill: steelblue;"></circle><circle cx="49.89111257923974" cy="59.42203216254711" r="2" style="fill: steelblue;"></circle><circle cx="58.23770848413309" cy="60.50079148262739" r="2" style="fill: steelblue;"></circle><circle cx="58.47134648097886" cy="45.4155758023262" r="2" style="fill: steelblue;"></circle><circle cx="31.00249336825477" cy="78.49549613893032" r="2" style="fill: steelblue;"></circle><circle cx="32.945288552178276" cy="80.64009360969067" r="2" style="fill: steelblue;"></circle><circle cx="51.497826973597206" cy="93.96787658333778" r="2" style="fill: steelblue;"></circle><circle cx="81.44056962596046" cy="6.741645932197571" r="2" style="fill: steelblue;"></circle><circle cx="83.3243578672409" cy="31.834907084703445" r="2" style="fill: steelblue;"></circle><circle cx="57.25776093701521" cy="64.56423290073872" r="2" style="fill: steelblue;"></circle><circle cx="57.97164473268721" cy="70.86428180336952" r="2" style="fill: steelblue;"></circle><circle cx="64.50184517436557" cy="20.787759870290756" r="2" style="fill: steelblue;"></circle><circle cx="44.76619097921583" cy="14.139364659786224" r="2" style="fill: steelblue;"></circle><circle cx="25.41986438963148" cy="63.71776219457388" r="2" style="fill: steelblue;"></circle><circle cx="25.464716884824963" cy="86.78629547357559" r="2" style="fill: steelblue;"></circle><circle cx="22.400240103403725" cy="61.0291400924325" r="2" style="fill: steelblue;"></circle><circle cx="33.809199929237366" cy="72.83097431063652" r="2" style="fill: steelblue;"></circle><circle cx="42.40550845861435" cy="52.696637297049165" r="2" style="fill: steelblue;"></circle><circle cx="88.70503306388855" cy="66.62897132337093" r="2" style="fill: steelblue;"></circle><circle cx="46.164607836140526" cy="84.04302895069122" r="2" style="fill: steelblue;"></circle><circle cx="65.46692964103487" cy="5.477487295866013" r="2" style="fill: steelblue;"></circle><circle cx="81.03873332341512" cy="51.35201634839177" r="2" style="fill: steelblue;"></circle><circle cx="57.04812126027213" cy="44.275054428726435" r="2" style="fill: steelblue;"></circle><circle cx="75.84745188554128" cy="38.08138072490692" r="2" style="fill: steelblue;"></circle><circle cx="37.465646862983704" cy="53.16683063283563" r="2" style="fill: steelblue;"></circle><circle cx="53.102091782622864" cy="66.91532507538795" r="2" style="fill: steelblue;"></circle><circle cx="27.196953694025677" cy="27.696798741817474" r="2" style="fill: steelblue;"></circle><circle cx="42.66497244437535" cy="55.21955266594887" r="2" style="fill: steelblue;"></circle><circle cx="72.79928194151985" cy="23.67781400680542" r="2" style="fill: steelblue;"></circle><circle cx="57.132924389508034" cy="34.92808733135462" r="2" style="fill: steelblue;"></circle><circle cx="52.04137787222862" cy="75.87588876485825" r="2" style="fill: steelblue;"></circle><circle cx="64.00686088535521" cy="70.14877647161484" r="2" style="fill: steelblue;"></circle><circle cx="28.07903620931837" cy="87.87291795015335" r="2" style="fill: steelblue;"></circle><circle cx="26.551832755406696" cy="51.74369663000107" r="2" style="fill: steelblue;"></circle><circle cx="41.38578805658552" cy="57.854984141886234" r="2" style="fill: steelblue;"></circle><circle cx="41.6929531428549" cy="53.184487111866474" r="2" style="fill: steelblue;"></circle><circle cx="69.48843598365784" cy="55.71354478597641" r="2" style="fill: steelblue;"></circle><circle cx="27.91741159227159" cy="75.18108673393726" r="2" style="fill: steelblue;"></circle><circle cx="64.39396325084898" cy="76.67241916060448" r="2" style="fill: steelblue;"></circle><circle cx="62.76163458824158" cy="93.40264573693275" r="2" style="fill: steelblue;"></circle><circle cx="31.91172745492723" cy="85.77841073274612" r="2" style="fill: steelblue;"></circle><circle cx="30.240340365303886" cy="86.0424555838108" r="2" style="fill: steelblue;"></circle><circle cx="17.41789115799798" cy="80.76350130140781" r="2" style="fill: steelblue;"></circle><circle cx="60.953427106142044" cy="87.78468072414398" r="2" style="fill: steelblue;"></circle><circle cx="36.98665234777662" cy="96.87542468309402" r="2" style="fill: steelblue;"></circle><circle cx="17.675062020619713" cy="82.86366164684296" r="2" style="fill: steelblue;"></circle><circle cx="29.937754074732464" cy="55.61451958492398" r="2" style="fill: steelblue;"></circle><circle cx="8.493648635016546" cy="85.48961505293846" r="2" style="fill: steelblue;"></circle><circle cx="78.00471782684326" cy="13.112492114305496" r="2" style="fill: steelblue;"></circle><circle cx="60.643037574158775" cy="31.097934767603874" r="2" style="fill: steelblue;"></circle><circle cx="72.30642603503334" cy="54.50366735458374" r="2" style="fill: steelblue;"></circle><circle cx="84.37059985266792" cy="11.27299964427948" r="2" style="fill: steelblue;"></circle><circle cx="54.14555128663778" cy="44.70618739724159" r="2" style="fill: steelblue;"></circle><circle cx="59.86942847569784" cy="27.011658251285553" r="2" style="fill: steelblue;"></circle><circle cx="92.04255872302585" cy="56.8924049846828" r="2" style="fill: steelblue;"></circle><circle cx="83.30309391021729" cy="15.35518392920494" r="2" style="fill: steelblue;"></circle><circle cx="70.50662073824141" cy="22.589386627078056" r="2" style="fill: steelblue;"></circle><circle cx="78.93575562371147" cy="24.793102592229843" r="2" style="fill: steelblue;"></circle><circle cx="96.87510463926527" cy="74.84982088208199" r="2" style="fill: steelblue;"></circle><circle cx="64.41685060660043" cy="52.836160361766815" r="2" style="fill: steelblue;"></circle><circle cx="35.6816119617886" cy="62.62697018682957" r="2" style="fill: steelblue;"></circle><circle cx="74.31576318211025" cy="30.3359005600214" r="2" style="fill: steelblue;"></circle><circle cx="43.9273069302241" cy="78.52136082947254" r="2" style="fill: steelblue;"></circle><circle cx="67.34902494483524" cy="47.712494572624564" r="2" style="fill: steelblue;"></circle><circle cx="70.60611082447899" cy="66.8148148804903" r="2" style="fill: steelblue;"></circle><circle cx="59.973417884773674" cy="87.13623061776161" r="2" style="fill: steelblue;"></circle><circle cx="72.18534582191043" cy="53.84909939020872" r="2" style="fill: steelblue;"></circle><circle cx="85.55828200446236" cy="23.266476765275" r="2" style="fill: steelblue;"></circle><circle cx="82.45167798466152" cy="49.10311691928655" r="2" style="fill: steelblue;"></circle><circle cx="37.49369581540425" cy="38.98094613105059" r="2" style="fill: steelblue;"></circle><circle cx="38.633661137686836" cy="53.0789056327194" r="2" style="fill: steelblue;"></circle><circle cx="56.98458281242185" cy="42.96829290688038" r="2" style="fill: steelblue;"></circle><circle cx="46.78480409913593" cy="13.130604475736618" r="2" style="fill: steelblue;"></circle><circle cx="77.54273381498125" cy="17.866603285074234" r="2" style="fill: steelblue;"></circle><circle cx="62.571555376052856" cy="32.645656913518906" r="2" style="fill: steelblue;"></circle><circle cx="83.85986089706421" cy="68.34100857377052" r="2" style="fill: steelblue;"></circle><circle cx="28.015351957745022" cy="38.80191147327423" r="2" style="fill: steelblue;"></circle><circle cx="76.35636130968729" cy="28.664211928844452" r="2" style="fill: steelblue;"></circle><circle cx="54.328106654187046" cy="30.893343687057495" r="2" style="fill: steelblue;"></circle><circle cx="63.97067507108053" cy="34.4015771523118" r="2" style="fill: steelblue;"></circle><circle cx="26.703109343846638" cy="23.486581817269325" r="2" style="fill: steelblue;"></circle><circle cx="75.69276127550337" cy="26.292412728071213" r="2" style="fill: steelblue;"></circle><circle cx="59.360468139251076" cy="40.19753560423851" r="2" style="fill: steelblue;"></circle><circle cx="63.84903440872828" cy="67.62807182967663" r="2" style="fill: steelblue;"></circle><circle cx="61.20733461446232" cy="67.4962654709816" r="2" style="fill: steelblue;"></circle><circle cx="53.375636330909195" cy="36.687094904482365" r="2" style="fill: steelblue;"></circle><circle cx="47.98773924509684" cy="55.45963831245899" r="2" style="fill: steelblue;"></circle><circle cx="74.3682798412111" cy="36.39364540576935" r="2" style="fill: steelblue;"></circle><circle cx="73.46788379881117" cy="20.561020076274872" r="2" style="fill: steelblue;"></circle><circle cx="37.43299345175426" cy="37.69154120236635" r="2" style="fill: steelblue;"></circle><circle cx="39.29961224397023" cy="62.50744052231312" r="2" style="fill: steelblue;"></circle><circle cx="50.54762835303942" cy="88.15798461437225" r="2" style="fill: steelblue;"></circle><circle cx="24.558696481916638" cy="59.372107684612274" r="2" style="fill: steelblue;"></circle><circle cx="54.11327506105105" cy="52.103023463860154" r="2" style="fill: steelblue;"></circle><circle cx="36.47091653611925" cy="21.360407769680023" r="2" style="fill: steelblue;"></circle></g></svg>