<svg xmlns="http://www.w3.org/2000/svg"><g><circle cx="12.506297975778583" cy="77.58044004440308" r="2" style="fill: steelblue;"></circle><circle cx="54.211719147861004" cy="83.08864310383797" r="2" style="fill: steelblue;"></circle><circle cx="49.251054134219885" cy="46.00776610895991" r="2" style="fill: steelblue;"></circle><circle cx="3.3258862793445614" cy="70.68931795656681" r="2" style="fill: steelblue;"></circle><circle cx="2.3371122777462032" cy="84.45808961987495" r="2" style="fill: steelblue;"></circle><circle cx="3.134503215551379" cy="54.58146771416068" r="2" style="fill: steelblue;"></circle><circle cx="30.370938777923584" cy="69.49357986450195" r="2" style="fill: steelblue;"></circle><circle cx="40.09354971349239" cy="94.94665190577507" r="2" style="fill: steelblue;"></circle><circle cx="41.72587040811777" cy="70.9305640310049" r="2" style="fill: steelblue;"></circle><circle cx="41.93963408470154" cy="74.44247715175152" r="2" style="fill: steelblue;"></circle><circle cx="44.30924421176314" cy="65.3768165037036" r="2" style="fill: steelblue;"></circle><circle cx="39.34716172516346" cy="38.41659352183342" r="2" style="fill: steelblue;"></circle><circle cx="33.54032076895237" cy="65.12030605226755" r="2" style="fill: steelblue;"></circle><circle cx="46.77052814513445" cy="45.166356675326824" r="2" style="fill: steelblue;"></circle><circle cx="30.29664158821106" cy="81.18217550218105" r="2" style="fill: steelblue;"></circle><circle cx="45.102353394031525" cy="69.89279501140118" r="2" style="fill: steelblue;"></circle><circle cx="53.397269174456596" cy="36.37231718748808" r="2" style="fill: steelblue;"></circle><circle cx="33.35198312997818" cy="61.53821311891079" r="2" style="fill: steelblue;"></circle><circle cx="22.55334258079529" cy="58.64052027463913" r="2" style="fill: steelblue;"></circle><circle cx="47.48712847940624" cy="20.359597355127335" r="2" style="fill: steelblue;"></circle><circle cx="31.2613595277071" cy="32.791079208254814" r="2" style="fill: steelblue;"></circle><circle cx="72.04125933349133" cy="58.91597289592028" r="2" style="fill: steelblue;"></circle><circle cx="36.17149889469147" cy="72.41372503340244" r="2" style="fill: steelblue;"></circle><circle cx="24.343340843915943" cy="71.6424223035574" r="2" style="fill: steelblue;"></circle><circle cx="25.3968957811594" cy="78.87346781790257" r="2" style="fill: steelblue;"></circle><circle cx="65.2311148121953" cy="91.88553616404533" r="2" style="fill: steelblue;"></circle><circle cx="29.36352714896202" cy="72.48559705913067" r="2" style="fill: steelblue;"></circle><circle cx="39.23750687390566" cy="47.213190887123346" r="2" style="fill: steelblue;"></circle><circle cx="69.11037415266037" cy="89.7484302520752" r="2" style="fill: steelblue;"></circle><circle cx="72.35288359224796" cy="52.43528978899121" r="2" style="fill: steelblue;"></circle><circle cx="58.10220371931791" cy="23.302213475108147" r="2" style="fill: steelblue;"></circle><circle cx="79.9496240913868" cy="11.006801575422287" r="2" style="fill: steelblue;"></circle><circle cx="56.93367002531886" cy="31.476308777928352" r="2" style="fill: steelblue;"></circle><circle cx="51.22227764222771" cy="30.441562831401825" r="2" style="fill: steelblue;"></circle><circle cx="46.48898211307824" cy="34.63447391986847" r="2" style="fill: steelblue;"></circle><circle cx="47.80268012546003" cy="24.934251978993416" r="2" style="fill: steelblue;"></circle><circle cx="45.59130426496267" cy="32.99491964280605" r="2" style="fill: steelblue;"></circle><circle cx="27.552495896816254" cy="56.68053422123194" r="2" style="fill: steelblue;"></circle><circle cx="13.159877806901935" cy="80.60822375118732" r="2" style="fill: steelblue;"></circle><circle cx="15.93611687421799" cy="80.88119998574257" r="2" style="fill: steelblue;"></circle><circle cx="28.384004905819893" cy="49.74232498789206" r="2" style="fill: steelblue;"></circle><circle cx="91.66161641478539" cy="67.09864102303982" r="2" style="fill: steelblue;"></circle><circle cx="37.327080219984055" cy="7.554027438163757" r="2" style="fill: steelblue;"></circle><circle cx="44.709907565265894" cy="38.13140857964754" r="2" style="fill: steelblue;"></circle><circle cx="60.05272660404444" cy="28.508522734045982" r="2" style="fill: steelblue;"></circle><circle cx="66.20779931545258" cy="56.97162002325058" r="2" style="fill: steelblue;"></circle><circle cx="73.080475628376" cy="47.148556634783745" r="2" style="fill: steelblue;"></circle><circle cx="23.558718338608745" cy="17.317640781402588" r="2" style="fill: steelblue;"></circle><circle cx="71.6514840722084" cy="72.57445640861988" r="2" style="fill: steelblue;"></circle><circle cx="73.88627640902996" cy="69.04641464352608" r="2" style="fill: steelblue;"></circle><circle cx="59.84502863138914" cy="44.75247412919998" r="2" style="fill: steelblue;"></circle><circle cx="41.408584639430046" cy="42.96101462095976" r="2" style="fill: steelblue;"></circle><circle cx="35.64415704458952" cy="32.843879610300064" r="2" style="fill: steelblue;"></circle><circle cx="67.99377985298634" cy="23.06292876601219" r="2" style="fill: steelblue;"></circle><circle cx="19.533497467637066" cy="62.92975526303053" r="2" style="fill: steelblue;"></circle><circle cx="23.116071894764904" cy="92.39742457866669" r="2" style="fill: steelblue;"></circle><circle cx="79.08934839069843" cy="89.85398262739182" r="2" style="fill: steelblue;"></circle><circle cx="50.507621094584465" cy="43.62554680556059" r="2" style="fill: steelblue;"></circle><circle cx="37.939104437828064" cy="68.40764097869396" r="2" style="fill: steelblue;"></circle><circle cx="57.65809090808034" cy="59.48419887572527" r="2" style="fill: steelblue;"></circle><circle cx="46.44453846849501" cy="54.31725289672613" r="2" style="fill: steelblue;"></circle><circle cx="28.34308072924614" cy="16.80682897567749" r="2" style="fill: steelblue;"></circle><circle cx="43.71366295963526" cy="90.20705819129944" r="2" style="fill: steelblue;"></circle><circle cx="15.600613504648212" cy="77.548773214221" r="2" style="fill: steelblue;"></circle><circle cx="52.7080534491688" cy="46.211242163553834" r="2" style="fill: steelblue;"></circle><circle cx="18.751179054379467" cy="35.92085298150778" r="2" style="fill: steelblue;"></circle><circle cx="18.846881762146953" cy="53.46525595523417" r="2" style="fill: steelblue;"></circle><circle cx="21.071371808648113" cy="85.79817712306976" r="2" style="fill: steelblue;"></circle><circle cx="47.5923968013376" cy="91.18255153298378" r="2" style="fill: steelblue;"></circle><circle cx="22.60013595223427" cy="52.80070002190769" r="2" style="fill: steelblue;"></circle><circle cx="25.170321762561798" cy="77.89943479001522" r="2" style="fill: steelblue;"></circle><circle cx="67.38291792571545" cy="21.42530232667923" r="2" style="fill: steelblue;"></circle><circle cx="73.43706041574478" cy="39.25166390836239" r="2" style="fill: steelblue;"></circle><circle cx="33.786558732390404" cy="24.41021353006363" r="2" style="fill: steelblue;"></circle><circle cx="53.14490939490497" cy="32.722366228699684" r="2" style="fill: steelblue;"></circle><circle cx="47.23415914922953" cy="50.414537702454254" r="2" style="fill: steelblue;"></circle><circle cx="65.61640109866858" cy="24.423019215464592" r="2" style="fill: steelblue;"></circle><circle cx="35.08038092404604" cy="29.431448504328728" r="2" style="fill: steelblue;"></circle><circle cx="69.29602026939392" cy="44.70738787204027" r="2" style="fill: steelblue;"></circle><circle cx="71.52719721198082" cy="50.66879071528092" r="2" style="fill: steelblue;"></circle><circle cx="52.63250223360956" cy="52.9652351513505" r="2" style="fill: steelblue;"></circle><circle cx="89.28244858980179" cy="18.25386956334114" r="2" style="fill: steelblue;"></circle><circle cx="52.15144641697407" cy="30.532577261328697" r="2" style="fill: steelblue;"></circle><circle cx="53.393905935809016" cy="76.15582570433617" r="2" style="fill: steelblue;"></circle><circle cx="42.38028470426798" cy="86.41025349497795" r="2" style="fill: steelblue;"></circle><circle cx="42.48291179537773" cy="65.67558757960796" r="2" style="fill: steelblue;"></circle><circle cx="45.537593960762024" cy="65.21840691566467" r="2" style="fill: steelblue;"></circle><circle cx="40.96005316823721" cy="32.28994198143482" r="2" style="fill: steelblue;"></circle><circle cx="48.5950292320922" cy="66.55851118266582" r="2" style="fill: steelblue;"></circle><circle cx="52.077351324260235" cy="36.01116985082626" r="2" style="fill: steelblue;"></circle><circle cx="83.34102034568787" cy="30.06589151918888" r="2" style="fill: steelblue;"></circle><circle cx="59.49105527251959" cy="32.428908348083496" r="2" style="fill: steelblue;"></circle><circle cx="60.080499574542046" cy="33.923157677054405" r="2" style="fill: steelblue;"></circle><circle cx="67.21109077334404" cy="19.65048275887966" r="2" style="fill: steelblue;"></circle><circle cx="47.672228841111064" cy="27.018361911177635" r="2" style="fill: steelblue;"></circle><circle cx="84.10917147994041" cy="10.569661110639572" r="2" style="fill: steelblue;"></circle><circle cx="79.50792573392391" cy="14.79964628815651" r="2" style="fill: steelblue;"></circle><circle cx="79.7713354229927" cy="26.955857127904892" r="2" style="fill: steelblue;"></circle><circle cx="54.116468131542206" cy="42.898677475750446" r="2" style="fill: steelblue;"></circle><circle cx="50.39463525172323" cy="32.57138952612877" r="2" style="fill: steelblue;"></circle><circle cx="73.6346535384655" cy="9.10276472568512" r="2" style="fill: steelblue;"></circle><circle cx="62.03829329460859" cy="41.07368569821119" r="2" style="fill: steelblue;"></circle><circle cx="71.5530302375555" cy="25.58223269879818" r="2" style="fill: steelblue;"></circle><circle cx="64.45778924971819" cy="56.471555680036545" r="2" style="fill: steelblue;"></circle><circle cx="70.34419029951096" cy="55.433146841824055" r="2" style="fill: steelblue;"></circle><circle cx="36.719170585274696" cy="41.760740987956524" r="2" style="fill: steelblue;"></circle><circle cx="62.2804855927825" cy="44.224244728684425" r="2" style="fill: steelblue;"></circle><circle cx="70.80280892550945" cy="57.44088180363178" r="2" style="fill: steelblue;"></circle><circle cx="86.70082986354828" cy="39.222520031034946" r="2" style="fill: steelblue;"></circle><circle cx="49.93296808679588" cy="40.45582674443722" r="2" style="fill: steelblue;"></circle><circle cx="92.31419041752815" cy="18.831760808825493" r="2" style="fill: steelblue;"></circle><circle cx="41.35925155133009" cy="31.837155297398567" r="2" style="fill: steelblue;"></circle><circle cx="14.848693460226063" cy="53.50999762304127" r="2" style="fill: steelblue;"></circle><circle cx="23.750477656722072" cy="81.00286424160004" r="2" style="fill: steelblue;"></circle><circle cx="39.005557261407375" cy="90.13680294156075" r="2" style="fill: steelblue;"></circle><circle cx="21.993580460548404" cy="39.684549160301685" r="2" style="fill: steelblue;"></circle><circle cx="18.174573034048084" cy="82.22401812672615" r="2" style="fill: steelblue;"></circle><circle cx="16.740831732749943" cy="45.22757297381759" r="2" style="fill: steelblue;"></circle></g></svg>