<svg xmlns="http://www.w3.org/2000/svg"><g><circle cx="24.720368161797527" cy="57.688894402235746" r="2" style="fill: steelblue;"></circle><circle cx="5.127086490392688" cy="86.83755546808243" r="2" style="fill: steelblue;"></circle><circle cx="40.07580988109112" cy="57.91244022548199" r="2" style="fill: steelblue;"></circle><circle cx="4.806599766016009" cy="89.08279910683632" r="2" style="fill: steelblue;"></circle><circle cx="54.27583418786526" cy="89.9828813970089" r="2" style="fill: steelblue;"></circle><circle cx="56.41582999378443" cy="86.98037564754486" r="2" style="fill: steelblue;"></circle><circle cx="46.234600665047765" cy="51.132896868512034" r="2" style="fill: steelblue;"></circle><circle cx="55.783232394605875" cy="29.230092838406563" r="2" style="fill: steelblue;"></circle><circle cx="34.05901342630386" cy="77.95447781682014" r="2" style="fill: steelblue;"></circle><circle cx="15.057872235774997" cy="59.25310514867306" r="2" style="fill: steelblue;"></circle><circle cx="68.69039051234722" cy="61.943090707063675" r="2" style="fill: steelblue;"></circle><circle cx="97.10152745246887" cy="71.56814374029636" r="2" style="fill: steelblue;"></circle><circle cx="25.445456802845" cy="75.64247883856297" r="2" style="fill: steelblue;"></circle><circle cx="74.97353591024876" cy="61.587828397750854" r="2" style="fill: steelblue;"></circle><circle cx="35.55151745676994" cy="53.086680080741644" r="2" style="fill: steelblue;"></circle><circle cx="46.75137596204877" cy="59.1065876185894" r="2" style="fill: steelblue;"></circle><circle cx="43.29804303124547" cy="80.80770559608936" r="2" style="fill: steelblue;"></circle><circle cx="9.396705031394962" cy="57.35402759164572" r="2" style="fill: steelblue;"></circle><circle cx="52.595447935163975" cy="53.487598383799195" r="2" style="fill: steelblue;"></circle><circle cx="69.09114979207516" cy="58.79324693232775" r="2" style="fill: steelblue;"></circle><circle cx="57.16343941166997" cy="66.04695059359074" r="2" style="fill: steelblue;"></circle><circle cx="81.00693598389626" cy="60.11843979358673" r="2" style="fill: steelblue;"></circle><circle cx="33.91871340572834" cy="70.50153538584709" r="2" style="fill: steelblue;"></circle><circle cx="61.873338371515274" cy="52.04561813734472" r="2" style="fill: steelblue;"></circle><circle cx="35.94152648001909" cy="48.79967654123902" r="2" style="fill: steelblue;"></circle><circle cx="12.572399526834491" cy="65.13596903532743" r="2" style="fill: steelblue;"></circle><circle cx="8.507712930440906" cy="37.45044879615307" r="2" style="fill: steelblue;"></circle><circle cx="49.69016827526502" cy="34.32285152375698" r="2" style="fill: steelblue;"></circle><circle cx="55.555822513997555" cy="74.65778402984142" r="2" style="fill: steelblue;"></circle><circle cx="0.06196573376655856" cy="39.10476826131344" r="2" style="fill: steelblue;"></circle><circle cx="81.77457675337791" cy="14.254003018140793" r="2" style="fill: steelblue;"></circle><circle cx="41.71764682978392" cy="22.992682829499245" r="2" style="fill: steelblue;"></circle><circle cx="62.28553336113691" cy="54.687237087637186" r="2" style="fill: steelblue;"></circle><circle cx="85.74363887310028" cy="35.97354535013437" r="2" style="fill: steelblue;"></circle><circle cx="35.161300748586655" cy="29.21997681260109" r="2" style="fill: steelblue;"></circle><circle cx="72.07875810563564" cy="3.5761885344982147" r="2" style="fill: steelblue;"></circle><circle cx="34.882647171616554" cy="39.19032420963049" r="2" style="fill: steelblue;"></circle><circle cx="20.744753256440166" cy="42.071615532040596" r="2" style="fill: steelblue;"></circle><circle cx="45.650486554950476" cy="64.50728997588158" r="2" style="fill: steelblue;"></circle><circle cx="55.21591259166598" cy="93.0203452706337" r="2" style="fill: steelblue;"></circle><circle cx="40.81028811633587" cy="40.749058313667774" r="2" style="fill: steelblue;"></circle><circle cx="94.5178709924221" cy="8.656728267669678" r="2" style="fill: steelblue;"></circle><circle cx="65.40969777852297" cy="3.8416787981987" r="2" style="fill: steelblue;"></circle><circle cx="38.07418905198574" cy="8.047285676002502" r="2" style="fill: steelblue;"></circle><circle cx="77.5793056935072" cy="62.30770256370306" r="2" style="fill: steelblue;"></circle><circle cx="45.25064695626497" cy="68.32928322255611" r="2" style="fill: steelblue;"></circle><circle cx="49.42705617286265" cy="67.39451847970486" r="2" style="fill: steelblue;"></circle><circle cx="44.44951443001628" cy="91.3859486579895" r="2" style="fill: steelblue;"></circle><circle cx="41.35748576372862" cy="82.20150247216225" r="2" style="fill: steelblue;"></circle><circle cx="55.13014243915677" cy="69.41916532814503" r="2" style="fill: steelblue;"></circle><circle cx="52.40783370099962" cy="66.19787514209747" r="2" style="fill: steelblue;"></circle><circle cx="13.753346353769306" cy="69.50163766741753" r="2" style="fill: steelblue;"></circle><circle cx="44.58483932539821" cy="66.08527824282646" r="2" style="fill: steelblue;"></circle><circle cx="46.80060753598809" cy="75.74466727674007" r="2" style="fill: steelblue;"></circle><circle cx="25.511861965060234" cy="59.88777540624142" r="2" style="fill: steelblue;"></circle><circle cx="39.0629593282938" cy="64.2634715884924" r="2" style="fill: steelblue;"></circle><circle cx="15.850315988063816" cy="45.48832233995199" r="2" style="fill: steelblue;"></circle><circle cx="39.24683593213558" cy="99.75518584251404" r="2" style="fill: steelblue;"></circle><circle cx="0.7001116871833829" cy="66.22563786804676" r="2" style="fill: steelblue;"></circle><circle cx="16.69356152415276" cy="70.16815170645714" r="2" style="fill: steelblue;"></circle><circle cx="23.51600416004658" cy="70.46610787510872" r="2" style="fill: steelblue;"></circle><circle cx="48.2943496434018" cy="67.70255900919437" r="2" style="fill: steelblue;"></circle><circle cx="30.05603440105915" cy="89.94213044643402" r="2" style="fill: steelblue;"></circle><circle cx="36.108727753162384" cy="86.73765435814857" r="2" style="fill: steelblue;"></circle><circle cx="44.691395200788975" cy="50.1693531521596" r="2" style="fill: steelblue;"></circle><circle cx="30.26227205991745" cy="71.57912775874138" r="2" style="fill: steelblue;"></circle><circle cx="21.67127020657063" cy="52.14694207534194" r="2" style="fill: steelblue;"></circle><circle cx="13.827263563871387" cy="80.08193336427212" r="2" style="fill: steelblue;"></circle><circle cx="40.09282514452934" cy="81.705342233181" r="2" style="fill: steelblue;"></circle><circle cx="24.836066365242008" cy="34.20394770801067" r="2" style="fill: steelblue;"></circle><circle cx="19.248646870255474" cy="65.8594511449337" r="2" style="fill: steelblue;"></circle><circle cx="79.58417311310768" cy="29.283958673477173" r="2" style="fill: steelblue;"></circle><circle cx="89.61186483502388" cy="68.16368289291859" r="2" style="fill: steelblue;"></circle><circle cx="64.17206041514874" cy="20.232907682657242" r="2" style="fill: steelblue;"></circle><circle cx="64.95187263935804" cy="26.93154402077198" r="2" style="fill: steelblue;"></circle><circle cx="79.27854843437672" cy="54.372529219836" r="2" style="fill: steelblue;"></circle><circle cx="63.474018312990665" cy="26.886646822094917" r="2" style="fill: steelblue;"></circle><circle cx="87.85334527492523" cy="17.356644570827484" r="2" style="fill: steelblue;"></circle><circle cx="75.12256614863873" cy="25.400708615779877" r="2" style="fill: steelblue;"></circle><circle cx="87.50092908740044" cy="26.717330515384674" r="2" style="fill: steelblue;"></circle><circle cx="30.345802381634712" cy="5.597415566444397" r="2" style="fill: steelblue;"></circle><circle cx="77.89859846234322" cy="26.276075467467308" r="2" style="fill: steelblue;"></circle><circle cx="69.56275291740894" cy="34.28406938910484" r="2" style="fill: steelblue;"></circle><circle cx="53.39151010848582" cy="81.08273074030876" r="2" style="fill: steelblue;"></circle><circle cx="44.121522177010775" cy="66.4995901286602" r="2" style="fill: steelblue;"></circle><circle cx="32.43282735347748" cy="54.65418258681893" r="2" style="fill: steelblue;"></circle><circle cx="39.42653648555279" cy="36.32695525884628" r="2" style="fill: steelblue;"></circle><circle cx="53.918581176549196" cy="57.972017861902714" r="2" style="fill: steelblue;"></circle><circle cx="59.45536606013775" cy="41.623942740261555" r="2" style="fill: steelblue;"></circle><circle cx="66.58295094966888" cy="35.77110096812248" r="2" style="fill: steelblue;"></circle><circle cx="80.30533529818058" cy="30.090131983160973" r="2" style="fill: steelblue;"></circle><circle cx="87.7424843609333" cy="45.71519857272506" r="2" style="fill: steelblue;"></circle><circle cx="72.17873372137547" cy="25.721009075641632" r="2" style="fill: steelblue;"></circle><circle cx="72.88759686052799" cy="26.028766483068466" r="2" style="fill: steelblue;"></circle><circle cx="62.98206951469183" cy="72.6210169494152" r="2" style="fill: steelblue;"></circle><circle cx="73.53342436254025" cy="48.1086750049144" r="2" style="fill: steelblue;"></circle><circle cx="93.59425231814384" cy="10.183922201395035" r="2" style="fill: steelblue;"></circle><circle cx="28.589268401265144" cy="18.66021677851677" r="2" style="fill: steelblue;"></circle><circle cx="39.9540888145566" cy="30.94063438475132" r="2" style="fill: steelblue;"></circle><circle cx="58.48476588726044" cy="45.10794598609209" r="2" style="fill: steelblue;"></circle><circle cx="58.713750168681145" cy="48.68805147707462" r="2" style="fill: steelblue;"></circle><circle cx="62.72234506905079" cy="44.93478937074542" r="2" style="fill: steelblue;"></circle><circle cx="56.22020987793803" cy="17.09337830543518" r="2" style="fill: steelblue;"></circle><circle cx="51.435224898159504" cy="57.81937222927809" r="2" style="fill: steelblue;"></circle><circle cx="79.46476079523563" cy="71.40706218779087" r="2" style="fill: steelblue;"></circle><circle cx="82.05226361751556" cy="30.015764012932777" r="2" style="fill: steelblue;"></circle><circle cx="67.61163957417011" cy="49.212900816928595" r="2" style="fill: steelblue;"></circle><circle cx="85.33667325973511" cy="48.26171761378646" r="2" style="fill: steelblue;"></circle><circle cx="40.85105862468481" cy="24.957089871168137" r="2" style="fill: steelblue;"></circle><circle cx="70.03861218690872" cy="27.20402292907238" r="2" style="fill: steelblue;"></circle><circle cx="67.44943857192993" cy="21.481725573539734" r="2" style="fill: steelblue;"></circle><circle cx="48.34120681043714" cy="68.91697756946087" r="2" style="fill: steelblue;"></circle><circle cx="17.9814949631691" cy="63.03874608129263" r="2" style="fill: steelblue;"></circle><circle cx="12.163899093866352" cy="53.07511421851814" r="2" style="fill: steelblue;"></circle><circle cx="17.77080371975899" cy="78.4602902829647" r="2" style="fill: steelblue;"></circle><circle cx="18.790879473090175" cy="74.16456304490566" r="2" style="fill: steelblue;"></circle><circle cx="29.798397049307823" cy="56.81852363049984" r="2" style="fill: steelblue;"></circle><circle cx="50.98746898584068" cy="55.87663985788822" r="2" style="fill: steelblue;"></circle></g></svg>