<svg xmlns="http://www.w3.org/2000/svg"><g><circle cx="27.474329206678604" cy="180.89669942855835" r="2" style="fill: steelblue;"></circle><circle cx="58.08343688646953" cy="139.41502571105957" r="2" style="fill: steelblue;"></circle><circle cx="53.728797700670036" cy="159.25151109695435" r="2" style="fill: steelblue;"></circle><circle cx="30.195056067572708" cy="147.37480216556125" r="2" style="fill: steelblue;"></circle><circle cx="111.05192237430148" cy="124.13092702627182" r="2" style="fill: steelblue;"></circle><circle cx="68.6168392499288" cy="135.56754257943894" r="2" style="fill: steelblue;"></circle><circle cx="115.68524804380205" cy="117.12964127461115" r="2" style="fill: steelblue;"></circle><circle cx="48.1893175178104" cy="137.4452147218916" r="2" style="fill: steelblue;"></circle><circle cx="65.75074659453499" cy="115.07642848624124" r="2" style="fill: steelblue;"></circle><circle cx="78.27067739433713" cy="130.84760804971057" r="2" style="fill: steelblue;"></circle><circle cx="70.84478967719609" cy="173.16291067335342" r="2" style="fill: steelblue;"></circle><circle cx="57.585287756390045" cy="103.6461086736785" r="2" style="fill: steelblue;"></circle><circle cx="39.83880281448365" cy="177.11300320095486" r="2" style="fill: steelblue;"></circle><circle cx="60.76588431994121" cy="113.56098970605268" r="2" style="fill: steelblue;"></circle><circle cx="41.50315324465434" cy="150.38981702592636" r="2" style="fill: steelblue;"></circle><circle cx="13.159459167056617" cy="186.97644604576956" r="2" style="fill: steelblue;"></circle><circle cx="102.99865769015419" cy="81.341952085495" r="2" style="fill: steelblue;"></circle><circle cx="139.32905462053085" cy="102.42517126931085" r="2" style="fill: steelblue;"></circle><circle cx="101.16747303141489" cy="119.01180197795232" r="2" style="fill: steelblue;"></circle><circle cx="63.29820917712318" cy="92.36619538731046" r="2" style="fill: steelblue;"></circle><circle cx="52.760695748858986" cy="101.03337963422139" r="2" style="fill: steelblue;"></circle><circle cx="149.69861374961008" cy="103.8846191432741" r="2" style="fill: steelblue;"></circle><circle cx="96.24482641617458" cy="82.64194263352287" r="2" style="fill: steelblue;"></circle><circle cx="47.35386239157783" cy="121.67563620540831" r="2" style="fill: steelblue;"></circle><circle cx="45.344593127568565" cy="155.21819392840067" r="2" style="fill: steelblue;"></circle><circle cx="41.757227977116905" cy="144.14273699124652" r="2" style="fill: steelblue;"></circle><circle cx="16.562248600853817" cy="190.30045138465033" r="2" style="fill: steelblue;"></circle><circle cx="134.38357445928787" cy="180.0208290417989" r="2" style="fill: steelblue;"></circle><circle cx="51.29202074474759" cy="132.74640672736697" r="2" style="fill: steelblue;"></circle><circle cx="89.67198656044073" cy="78.69887683126662" r="2" style="fill: steelblue;"></circle><circle cx="162.71064546373154" cy="94.40757168663872" r="2" style="fill: steelblue;"></circle><circle cx="124.85289110077753" cy="45.527100563049316" r="2" style="fill: steelblue;"></circle><circle cx="150.42800903320312" cy="104.89803966548708" r="2" style="fill: steelblue;"></circle><circle cx="134.52808923191495" cy="96.74288001325395" r="2" style="fill: steelblue;"></circle><circle cx="142.00154145558673" cy="108.97899025844202" r="2" style="fill: steelblue;"></circle><circle cx="51.26282109154595" cy="48.88705412546794" r="2" style="fill: steelblue;"></circle><circle cx="74.77284173170726" cy="115.4730228914155" r="2" style="fill: steelblue;"></circle><circle cx="58.56254564391242" cy="168.53408681021796" r="2" style="fill: steelblue;"></circle><circle cx="85.92273617784183" cy="150.86933308177524" r="2" style="fill: steelblue;"></circle><circle cx="57.66742295689053" cy="110.97039124514494" r="2" style="fill: steelblue;"></circle><circle cx="16.571275393168136" cy="168.81165239546036" r="2" style="fill: steelblue;"></circle><circle cx="106.90622395939297" cy="179.29303646087646" r="2" style="fill: steelblue;"></circle><circle cx="132.92536338170368" cy="114.6238177186913" r="2" style="fill: steelblue;"></circle><circle cx="109.26728480392032" cy="32.85303380754259" r="2" style="fill: steelblue;"></circle><circle cx="118.9341531859504" cy="114.73294720053673" r="2" style="fill: steelblue;"></circle><circle cx="146.15918397903442" cy="115.1001039478514" r="2" style="fill: steelblue;"></circle><circle cx="107.42835402488708" cy="135.0278208653132" r="2" style="fill: steelblue;"></circle><circle cx="33.6308499177297" cy="172.93073733647662" r="2" style="fill: steelblue;"></circle><circle cx="30.640965037875713" cy="94.53726145956252" r="2" style="fill: steelblue;"></circle><circle cx="92.95002942283949" cy="182.67354038026596" r="2" style="fill: steelblue;"></circle><circle cx="89.74566716286871" cy="89.97031218475766" r="2" style="fill: steelblue;"></circle><circle cx="131.89052409595914" cy="126.94882187578412" r="2" style="fill: steelblue;"></circle><circle cx="43.55614582697551" cy="121.02423525518842" r="2" style="fill: steelblue;"></circle><circle cx="93.96461637483704" cy="79.88827096091376" r="2" style="fill: steelblue;"></circle><circle cx="60.65267523129781" cy="141.96428325441147" r="2" style="fill: steelblue;"></circle><circle cx="91.76182800696957" cy="146.7640267478095" r="2" style="fill: steelblue;"></circle><circle cx="69.908912314309" cy="79.18138305346172" r="2" style="fill: steelblue;"></circle><circle cx="55.24362987942166" cy="141.7598161432478" r="2" style="fill: steelblue;"></circle><circle cx="117.5150626235538" cy="105.35041077269449" r="2" style="fill: steelblue;"></circle><circle cx="123.91439941194322" cy="122.54785663551755" r="2" style="fill: steelblue;"></circle><circle cx="36.90866496827868" cy="115.73247073425188" r="2" style="fill: steelblue;"></circle><circle cx="97.5860873858134" cy="116.00399431255128" r="2" style="fill: steelblue;"></circle><circle cx="86.63551977111233" cy="193.34289762708877" r="2" style="fill: steelblue;"></circle><circle cx="15.086033609178337" cy="186.7319477929009" r="2" style="fill: steelblue;"></circle><circle cx="25.45618216196696" cy="173.22464783986408" r="2" style="fill: steelblue;"></circle><circle cx="6.400126881069612" cy="133.01935129695468" r="2" style="fill: steelblue;"></circle><circle cx="62.511568599277076" cy="168.4504747390747" r="2" style="fill: steelblue;"></circle><circle cx="19.0047476026747" cy="108.75815235906177" r="2" style="fill: steelblue;"></circle><circle cx="52.899465296003555" cy="187.36720747417874" r="2" style="fill: steelblue;"></circle><circle cx="111.22845477528043" cy="185.3552328215705" r="2" style="fill: steelblue;"></circle><circle cx="91.51406764156289" cy="131.68361286322275" r="2" style="fill: steelblue;"></circle><circle cx="143.08393862512375" cy="97.16001980834537" r="2" style="fill: steelblue;"></circle><circle cx="56.948117415110275" cy="55.41325940026176" r="2" style="fill: steelblue;"></circle><circle cx="76.8474045726988" cy="72.72433903482225" r="2" style="fill: steelblue;"></circle><circle cx="114.01719384723239" cy="71.7564324537913" r="2" style="fill: steelblue;"></circle><circle cx="164.31575218836468" cy="109.8359323417147" r="2" style="fill: steelblue;"></circle><circle cx="81.96446829371983" cy="168.33925909466214" r="2" style="fill: steelblue;"></circle><circle cx="146.49278455310397" cy="63.17894326315985" r="2" style="fill: steelblue;"></circle><circle cx="160.3819449742635" cy="88.38724096616109" r="2" style="fill: steelblue;"></circle><circle cx="166.20647774802313" cy="101.41965415742662" r="2" style="fill: steelblue;"></circle><circle cx="128.9383027288649" cy="24.18049176534016" r="2" style="fill: steelblue;"></circle><circle cx="139.50075904528302" cy="34.93458032608032" r="2" style="fill: steelblue;"></circle><circle cx="49.20057985517714" cy="45.6834700372484" r="2" style="fill: steelblue;"></circle><circle cx="95.97423457437093" cy="128.20819682545132" r="2" style="fill: steelblue;"></circle><circle cx="65.33410516050128" cy="124.59969520568848" r="2" style="fill: steelblue;"></circle><circle cx="136.16587585873074" cy="108.4327803303798" r="2" style="fill: steelblue;"></circle><circle cx="99.73187529378468" cy="101.39068878359265" r="2" style="fill: steelblue;"></circle><circle cx="52.4756133556366" cy="155.92513812912836" r="2" style="fill: steelblue;"></circle><circle cx="135.1758427090115" cy="160.8877182006836" r="2" style="fill: steelblue;"></circle><circle cx="87.2593120775289" cy="50.25749074088202" r="2" style="fill: steelblue;"></circle><circle cx="114.74876304467519" cy="142.09674133194818" r="2" style="fill: steelblue;"></circle><circle cx="113.51545684867435" cy="97.46752844916449" r="2" style="fill: steelblue;"></circle><circle cx="76.20983355575139" cy="18.678380383385562" r="2" style="fill: steelblue;"></circle><circle cx="114.13732866446178" cy="111.62587467374073" r="2" style="fill: steelblue;"></circle><circle cx="160.8113235897488" cy="94.69299183951483" r="2" style="fill: steelblue;"></circle><circle cx="133.5449006822374" cy="44.12002033657498" r="2" style="fill: steelblue;"></circle><circle cx="122.68499400880602" cy="32.57432911131117" r="2" style="fill: steelblue;"></circle><circle cx="51.642267571555244" cy="107.55318072107103" r="2" style="fill: steelblue;"></circle><circle cx="168.5911602444119" cy="152.97395322057938" r="2" style="fill: steelblue;"></circle><circle cx="179.3153338962131" cy="119.34215492672391" r="2" style="fill: steelblue;"></circle><circle cx="91.92132155100505" cy="59.779895676506875" r="2" style="fill: steelblue;"></circle><circle cx="136.07848551538254" cy="70.60313887066312" r="2" style="fill: steelblue;"></circle><circle cx="54.54231831762526" cy="44.35558451546564" r="2" style="fill: steelblue;"></circle><circle cx="180.10895649592084" cy="53.84543206956651" r="2" style="fill: steelblue;"></circle><circle cx="119.2223416434394" cy="55.70518308215671" r="2" style="fill: steelblue;"></circle><circle cx="119.27074723773532" cy="81.55242270893521" r="2" style="fill: steelblue;"></circle><circle cx="105.83132207393646" cy="106.63114281164275" r="2" style="fill: steelblue;"></circle><circle cx="81.04699303706488" cy="70.51023840904236" r="2" style="fill: steelblue;"></circle><circle cx="150.23171769248114" cy="107.37825557589531" r="2" style="fill: steelblue;"></circle><circle cx="178.88872358534073" cy="84.39837065007951" r="2" style="fill: steelblue;"></circle><circle cx="147.60070906745065" cy="89.0462961461809" r="2" style="fill: steelblue;"></circle><circle cx="96.25649154186249" cy="61.055309242672394" r="2" style="fill: steelblue;"></circle><circle cx="62.379738026195106" cy="121.75734258360333" r="2" style="fill: steelblue;"></circle><circle cx="121.09739780426025" cy="159.98183025254144" r="2" style="fill: steelblue;"></circle><circle cx="132.04211195309955" cy="117.43898689746857" r="2" style="fill: steelblue;"></circle><circle cx="50.57893395423889" cy="87.77830998102824" r="2" style="fill: steelblue;"></circle><circle cx="54.16868660185072" cy="93.7491837475035" r="2" style="fill: steelblue;"></circle><circle cx="93.31852768858275" cy="160.92434856626724" r="2" style="fill: steelblue;"></circle></g></svg>