<svg xmlns="http://www.w3.org/2000/svg"><g><circle cx="12.506297975778583" cy="86.26283539666069" r="2" style="fill: steelblue;"></circle><circle cx="54.211719147861004" cy="70.95828155676523" r="2" style="fill: steelblue;"></circle><circle cx="49.251054134219885" cy="73.13560114966498" r="2" style="fill: steelblue;"></circle><circle cx="3.3258862793445614" cy="84.90247196621364" r="2" style="fill: steelblue;"></circle><circle cx="2.3371122777462032" cy="44.47403881284926" r="2" style="fill: steelblue;"></circle><circle cx="3.134503215551379" cy="65.6915803750356" r="2" style="fill: steelblue;"></circle><circle cx="30.370938777923584" cy="42.157375978098976" r="2" style="fill: steelblue;"></circle><circle cx="40.09354971349239" cy="75.9053412410948" r="2" style="fill: steelblue;"></circle><circle cx="41.72587040811777" cy="67.12462670273251" r="2" style="fill: steelblue;"></circle><circle cx="41.93963408470154" cy="60.864661302831436" r="2" style="fill: steelblue;"></circle><circle cx="44.30924421176314" cy="64.57760516140196" r="2" style="fill: steelblue;"></circle><circle cx="39.34716172516346" cy="71.20735612180498" r="2" style="fill: steelblue;"></circle><circle cx="33.54032076895237" cy="80.08059859275818" r="2" style="fill: steelblue;"></circle><circle cx="46.77052814513445" cy="69.61705784002939" r="2" style="fill: steelblue;"></circle><circle cx="30.29664158821106" cy="79.24842337767282" r="2" style="fill: steelblue;"></circle><circle cx="45.102353394031525" cy="93.4202704164717" r="2" style="fill: steelblue;"></circle><circle cx="53.397269174456596" cy="48.500671154922905" r="2" style="fill: steelblue;"></circle><circle cx="33.35198312997818" cy="30.335472689734566" r="2" style="fill: steelblue;"></circle><circle cx="22.55334258079529" cy="49.41626348429256" r="2" style="fill: steelblue;"></circle><circle cx="47.48712847940624" cy="68.35089541143842" r="2" style="fill: steelblue;"></circle><circle cx="31.2613595277071" cy="73.61965212557051" r="2" style="fill: steelblue;"></circle><circle cx="72.04125933349133" cy="25.150693125194966" r="2" style="fill: steelblue;"></circle><circle cx="36.17149889469147" cy="51.87758679191271" r="2" style="fill: steelblue;"></circle><circle cx="24.343340843915943" cy="76.32306880421109" r="2" style="fill: steelblue;"></circle><circle cx="25.3968957811594" cy="77.32770343621571" r="2" style="fill: steelblue;"></circle><circle cx="65.2311148121953" cy="79.12138601144154" r="2" style="fill: steelblue;"></circle><circle cx="29.36352714896202" cy="91.71887569957309" r="2" style="fill: steelblue;"></circle><circle cx="39.23750687390566" cy="32.80821277035607" r="2" style="fill: steelblue;"></circle><circle cx="69.11037415266037" cy="74.3539896276262" r="2" style="fill: steelblue;"></circle><circle cx="72.35288359224796" cy="55.164006719779636" r="2" style="fill: steelblue;"></circle><circle cx="58.10220371931791" cy="18.644677268134224" r="2" style="fill: steelblue;"></circle><circle cx="79.9496240913868" cy="37.57355444961124" r="2" style="fill: steelblue;"></circle><circle cx="56.93367002531886" cy="24.785995483398438" r="2" style="fill: steelblue;"></circle><circle cx="51.22227764222771" cy="32.735955384042526" r="2" style="fill: steelblue;"></circle><circle cx="46.48898211307824" cy="28.999229272206627" r="2" style="fill: steelblue;"></circle><circle cx="47.80268012546003" cy="74.36858945422702" r="2" style="fill: steelblue;"></circle><circle cx="45.59130426496267" cy="62.61357913414637" r="2" style="fill: steelblue;"></circle><circle cx="27.552495896816254" cy="70.71872717804379" r="2" style="fill: steelblue;"></circle><circle cx="13.159877806901935" cy="57.03863191107909" r="2" style="fill: steelblue;"></circle><circle cx="15.93611687421799" cy="71.16628852155473" r="2" style="fill: steelblue;"></circle><circle cx="28.384004905819893" cy="91.71436230341592" r="2" style="fill: steelblue;"></circle><circle cx="91.66161641478539" cy="46.54688802030351" r="2" style="fill: steelblue;"></circle><circle cx="37.327080219984055" cy="33.537318309148155" r="2" style="fill: steelblue;"></circle><circle cx="44.709907565265894" cy="45.36635759803984" r="2" style="fill: steelblue;"></circle><circle cx="60.05272660404444" cy="40.5329234070248" r="2" style="fill: steelblue;"></circle><circle cx="66.20779931545258" cy="26.920408010482788" r="2" style="fill: steelblue;"></circle><circle cx="73.080475628376" cy="46.28582298755646" r="2" style="fill: steelblue;"></circle><circle cx="23.558718338608745" cy="83.18457504113515" r="2" style="fill: steelblue;"></circle><circle cx="71.6514840722084" cy="84.67951748106215" r="2" style="fill: steelblue;"></circle><circle cx="73.88627640902996" cy="53.524985288580254" r="2" style="fill: steelblue;"></circle><circle cx="59.84502863138914" cy="55.12716641856564" r="2" style="fill: steelblue;"></circle><circle cx="41.408584639430046" cy="34.05473795202043" r="2" style="fill: steelblue;"></circle><circle cx="35.64415704458952" cy="78.22192708651224" r="2" style="fill: steelblue;"></circle><circle cx="67.99377985298634" cy="53.01769181258149" r="2" style="fill: steelblue;"></circle><circle cx="19.533497467637066" cy="69.67366238435109" r="2" style="fill: steelblue;"></circle><circle cx="23.116071894764904" cy="54.119085996515224" r="2" style="fill: steelblue;"></circle><circle cx="79.08934839069843" cy="65.04554384284549" r="2" style="fill: steelblue;"></circle><circle cx="50.507621094584465" cy="72.37818506028917" r="2" style="fill: steelblue;"></circle><circle cx="37.939104437828064" cy="41.2424686882231" r="2" style="fill: steelblue;"></circle><circle cx="57.65809090808034" cy="38.04280029402839" r="2" style="fill: steelblue;"></circle><circle cx="46.44453846849501" cy="81.54566751586067" r="2" style="fill: steelblue;"></circle><circle cx="28.34308072924614" cy="51.2069563070933" r="2" style="fill: steelblue;"></circle><circle cx="43.71366295963526" cy="56.68224011444383" r="2" style="fill: steelblue;"></circle><circle cx="15.600613504648212" cy="92.45698319541084" r="2" style="fill: steelblue;"></circle><circle cx="52.7080534491688" cy="87.27190891901651" r="2" style="fill: steelblue;"></circle><circle cx="18.751179054379467" cy="96.7999365594652" r="2" style="fill: steelblue;"></circle><circle cx="18.846881762146953" cy="68.74421570036147" r="2" style="fill: steelblue;"></circle><circle cx="21.071371808648113" cy="90.49762619866264" r="2" style="fill: steelblue;"></circle><circle cx="47.5923968013376" cy="73.55026735199822" r="2" style="fill: steelblue;"></circle><circle cx="22.60013595223427" cy="44.38577261235979" r="2" style="fill: steelblue;"></circle><circle cx="25.170321762561798" cy="54.242966179218556" r="2" style="fill: steelblue;"></circle><circle cx="67.38291792571545" cy="28.458030687438118" r="2" style="fill: steelblue;"></circle><circle cx="73.43706041574478" cy="71.52594129244486" r="2" style="fill: steelblue;"></circle><circle cx="33.786558732390404" cy="61.5762977136506" r="2" style="fill: steelblue;"></circle><circle cx="53.14490939490497" cy="42.991403076383804" r="2" style="fill: steelblue;"></circle><circle cx="47.23415914922953" cy="17.842123905817665" r="2" style="fill: steelblue;"></circle><circle cx="65.61640109866858" cy="59.01776585314009" r="2" style="fill: steelblue;"></circle><circle cx="35.08038092404604" cy="26.753607723448013" r="2" style="fill: steelblue;"></circle><circle cx="69.29602026939392" cy="19.809027512868248" r="2" style="fill: steelblue;"></circle><circle cx="71.52719721198082" cy="16.896761125988434" r="2" style="fill: steelblue;"></circle><circle cx="52.63250223360956" cy="35.53084863556756" r="2" style="fill: steelblue;"></circle><circle cx="89.28244858980179" cy="30.249620477358498" r="2" style="fill: steelblue;"></circle><circle cx="52.15144641697407" cy="75.39971007241142" r="2" style="fill: steelblue;"></circle><circle cx="53.393905935809016" cy="52.012882712814545" r="2" style="fill: steelblue;"></circle><circle cx="42.38028470426798" cy="67.33294741974936" r="2" style="fill: steelblue;"></circle><circle cx="42.48291179537773" cy="31.91706207063463" r="2" style="fill: steelblue;"></circle><circle cx="45.537593960762024" cy="50.134062353107666" r="2" style="fill: steelblue;"></circle><circle cx="40.96005316823721" cy="73.7621933221817" r="2" style="fill: steelblue;"></circle><circle cx="48.5950292320922" cy="32.41207864549425" r="2" style="fill: steelblue;"></circle><circle cx="52.077351324260235" cy="56.37034396123555" r="2" style="fill: steelblue;"></circle><circle cx="83.34102034568787" cy="42.62561847766241" r="2" style="fill: steelblue;"></circle><circle cx="59.49105527251959" cy="43.242271575662826" r="2" style="fill: steelblue;"></circle><circle cx="60.080499574542046" cy="61.89508322212431" r="2" style="fill: steelblue;"></circle><circle cx="67.21109077334404" cy="42.93133566776911" r="2" style="fill: steelblue;"></circle><circle cx="47.672228841111064" cy="19.594338205125595" r="2" style="fill: steelblue;"></circle><circle cx="84.10917147994041" cy="33.227549658881294" r="2" style="fill: steelblue;"></circle><circle cx="79.50792573392391" cy="38.65750299559699" r="2" style="fill: steelblue;"></circle><circle cx="79.7713354229927" cy="74.17886621422238" r="2" style="fill: steelblue;"></circle><circle cx="54.116468131542206" cy="15.704419877794052" r="2" style="fill: steelblue;"></circle><circle cx="50.39463525172323" cy="10.342333051893448" r="2" style="fill: steelblue;"></circle><circle cx="73.6346535384655" cy="54.039339224497475" r="2" style="fill: steelblue;"></circle><circle cx="62.03829329460859" cy="31.960757242308723" r="2" style="fill: steelblue;"></circle><circle cx="71.5530302375555" cy="72.72884084118736" r="2" style="fill: steelblue;"></circle><circle cx="64.45778924971819" cy="9.945521752039587" r="2" style="fill: steelblue;"></circle><circle cx="70.34419029951096" cy="40.3888291782803" r="2" style="fill: steelblue;"></circle><circle cx="36.719170585274696" cy="40.36462638113234" r="2" style="fill: steelblue;"></circle><circle cx="62.2804855927825" cy="47.08433896303177" r="2" style="fill: steelblue;"></circle><circle cx="70.80280892550945" cy="59.47650348146756" r="2" style="fill: steelblue;"></circle><circle cx="86.70082986354828" cy="24.88414115375943" r="2" style="fill: steelblue;"></circle><circle cx="49.93296808679588" cy="10.555638207329643" r="2" style="fill: steelblue;"></circle><circle cx="92.31419041752815" cy="26.199645466274678" r="2" style="fill: steelblue;"></circle><circle cx="41.35925155133009" cy="51.871754229068756" r="2" style="fill: steelblue;"></circle><circle cx="14.848693460226063" cy="68.81013098690245" r="2" style="fill: steelblue;"></circle><circle cx="23.750477656722072" cy="39.45130109786987" r="2" style="fill: steelblue;"></circle><circle cx="39.005557261407375" cy="33.97894402345022" r="2" style="fill: steelblue;"></circle><circle cx="21.993580460548404" cy="74.71053302288055" r="2" style="fill: steelblue;"></circle><circle cx="18.174573034048084" cy="72.91565669907463" r="2" style="fill: steelblue;"></circle><circle cx="16.740831732749943" cy="53.340736155708626" r="2" style="fill: steelblue;"></circle></g></svg>