<svg xmlns="http://www.w3.org/2000/svg"><g><circle cx="22.419559955596927" cy="85.54470539093018" r="2" style="fill: steelblue;"></circle><circle cx="16.911356896162037" cy="49.20579316094518" r="2" style="fill: steelblue;"></circle><circle cx="53.99223389104009" cy="66.72954261302948" r="2" style="fill: steelblue;"></circle><circle cx="29.31068204343319" cy="81.80770874023438" r="2" style="fill: steelblue;"></circle><circle cx="15.54191038012505" cy="65.15507251024246" r="2" style="fill: steelblue;"></circle><circle cx="45.41853228583932" cy="36.73636466264725" r="2" style="fill: steelblue;"></circle><circle cx="30.506420135498047" cy="75.03940463066101" r="2" style="fill: steelblue;"></circle><circle cx="5.0533480942249325" cy="39.48938325047493" r="2" style="fill: steelblue;"></circle><circle cx="29.069435968995094" cy="65.98778516054153" r="2" style="fill: steelblue;"></circle><circle cx="25.55752284824848" cy="62.86521404981613" r="2" style="fill: steelblue;"></circle><circle cx="34.623183496296406" cy="41.43323972821236" r="2" style="fill: steelblue;"></circle><circle cx="61.58340647816658" cy="59.16451886296272" r="2" style="fill: steelblue;"></circle><circle cx="34.87969394773245" cy="48.898014053702354" r="2" style="fill: steelblue;"></circle><circle cx="54.833643324673176" cy="66.69348031282425" r="2" style="fill: steelblue;"></circle><circle cx="18.81782449781895" cy="57.938267290592194" r="2" style="fill: steelblue;"></circle><circle cx="30.107204988598824" cy="86.25997602939606" r="2" style="fill: steelblue;"></circle><circle cx="63.62768281251192" cy="55.718982219696045" r="2" style="fill: steelblue;"></circle><circle cx="38.46178688108921" cy="69.79304552078247" r="2" style="fill: steelblue;"></circle><circle cx="41.35947972536087" cy="35.85827499628067" r="2" style="fill: steelblue;"></circle><circle cx="79.64040264487267" cy="27.68760472536087" r="2" style="fill: steelblue;"></circle><circle cx="67.20892079174519" cy="33.83161872625351" r="2" style="fill: steelblue;"></circle><circle cx="41.08402710407972" cy="67.96977072954178" r="2" style="fill: steelblue;"></circle><circle cx="27.586274966597557" cy="62.04448118805885" r="2" style="fill: steelblue;"></circle><circle cx="28.357577696442604" cy="61.12875938415527" r="2" style="fill: steelblue;"></circle><circle cx="21.12653218209744" cy="83.18686783313751" r="2" style="fill: steelblue;"></circle><circle cx="8.11446383595467" cy="44.20776404440403" r="2" style="fill: steelblue;"></circle><circle cx="27.51440294086933" cy="66.81028455495834" r="2" style="fill: steelblue;"></circle><circle cx="52.786809112876654" cy="51.36174773797393" r="2" style="fill: steelblue;"></circle><circle cx="10.251569747924808" cy="81.9582998752594" r="2" style="fill: steelblue;"></circle><circle cx="47.56471021100879" cy="34.32742953300476" r="2" style="fill: steelblue;"></circle><circle cx="76.69778652489185" cy="39.159344881772995" r="2" style="fill: steelblue;"></circle><circle cx="88.99319842457771" cy="27.52469927072525" r="2" style="fill: steelblue;"></circle><circle cx="68.52369122207165" cy="26.933512091636658" r="2" style="fill: steelblue;"></circle><circle cx="69.55843716859818" cy="51.58052146434784" r="2" style="fill: steelblue;"></circle><circle cx="65.36552608013153" cy="43.98709610104561" r="2" style="fill: steelblue;"></circle><circle cx="75.06574802100658" cy="41.90535992383957" r="2" style="fill: steelblue;"></circle><circle cx="67.00508035719395" cy="59.1022863984108" r="2" style="fill: steelblue;"></circle><circle cx="43.31946577876806" cy="57.25919380784035" r="2" style="fill: steelblue;"></circle><circle cx="19.39177624881268" cy="73.73365014791489" r="2" style="fill: steelblue;"></circle><circle cx="19.118800014257435" cy="52.51365192234516" r="2" style="fill: steelblue;"></circle><circle cx="50.25767501210794" cy="27.546656131744385" r="2" style="fill: steelblue;"></circle><circle cx="32.90135897696018" cy="24.603641033172607" r="2" style="fill: steelblue;"></circle><circle cx="92.44597256183624" cy="43.911855295300484" r="2" style="fill: steelblue;"></circle><circle cx="61.86859142035246" cy="31.632626056671143" r="2" style="fill: steelblue;"></circle><circle cx="71.49147726595402" cy="44.25988458096981" r="2" style="fill: steelblue;"></circle><circle cx="43.02837997674942" cy="24.495577812194824" r="2" style="fill: steelblue;"></circle><circle cx="52.851443365216255" cy="68.337981402874" r="2" style="fill: steelblue;"></circle><circle cx="82.68235921859741" cy="80.85487186908722" r="2" style="fill: steelblue;"></circle><circle cx="27.42554359138012" cy="75.29317736625671" r="2" style="fill: steelblue;"></circle><circle cx="30.953585356473923" cy="79.44615483283997" r="2" style="fill: steelblue;"></circle><circle cx="55.24752587080002" cy="45.59591896831989" r="2" style="fill: steelblue;"></circle><circle cx="57.03898537904024" cy="80.01626431941986" r="2" style="fill: steelblue;"></circle><circle cx="67.15612038969994" cy="62.120362371206284" r="2" style="fill: steelblue;"></circle><circle cx="76.93707123398781" cy="54.89503964781761" r="2" style="fill: steelblue;"></circle><circle cx="37.07024473696947" cy="42.063333094120026" r="2" style="fill: steelblue;"></circle><circle cx="7.602575421333316" cy="67.65475124120712" r="2" style="fill: steelblue;"></circle><circle cx="10.146017372608188" cy="45.78422009944916" r="2" style="fill: steelblue;"></circle><circle cx="56.37445319443941" cy="63.06832730770111" r="2" style="fill: steelblue;"></circle><circle cx="31.592359021306038" cy="33.76844525337219" r="2" style="fill: steelblue;"></circle><circle cx="40.51580112427473" cy="61.82529106736183" r="2" style="fill: steelblue;"></circle><circle cx="45.68274710327387" cy="80.35455346107483" r="2" style="fill: steelblue;"></circle><circle cx="83.19317102432251" cy="74.20597523450851" r="2" style="fill: steelblue;"></circle><circle cx="9.792941808700565" cy="95.39034068584442" r="2" style="fill: steelblue;"></circle><circle cx="22.451226785779003" cy="92.4610823392868" r="2" style="fill: steelblue;"></circle><circle cx="53.788757836446166" cy="61.83309555053711" r="2" style="fill: steelblue;"></circle><circle cx="64.07914701849222" cy="75.02829730510712" r="2" style="fill: steelblue;"></circle><circle cx="46.53474404476583" cy="76.08241438865662" r="2" style="fill: steelblue;"></circle><circle cx="14.20182287693024" cy="39.549820125103" r="2" style="fill: steelblue;"></circle><circle cx="8.817448467016224" cy="82.60866701602936" r="2" style="fill: steelblue;"></circle><circle cx="47.19929997809231" cy="52.42206286638975" r="2" style="fill: steelblue;"></circle><circle cx="22.100565209984783" cy="85.3565901517868" r="2" style="fill: steelblue;"></circle><circle cx="78.57469767332077" cy="35.6086328625679" r="2" style="fill: steelblue;"></circle><circle cx="60.74833609163761" cy="38.88152465224266" r="2" style="fill: steelblue;"></circle><circle cx="75.58978646993637" cy="22.971901297569275" r="2" style="fill: steelblue;"></circle><circle cx="67.27763377130032" cy="46.94144111126661" r="2" style="fill: steelblue;"></circle><circle cx="49.585462297545746" cy="54.10316847264767" r="2" style="fill: steelblue;"></circle><circle cx="75.57698078453541" cy="27.123838663101196" r="2" style="fill: steelblue;"></circle><circle cx="70.56855149567127" cy="46.22322469949722" r="2" style="fill: steelblue;"></circle><circle cx="55.29261212795973" cy="52.03127693384886" r="2" style="fill: steelblue;"></circle><circle cx="49.33120928471908" cy="35.364991426467896" r="2" style="fill: steelblue;"></circle><circle cx="47.0347648486495" cy="25.325685739517212" r="2" style="fill: steelblue;"></circle><circle cx="81.74613043665886" cy="7.754537463188171" r="2" style="fill: steelblue;"></circle><circle cx="69.4674227386713" cy="43.38530972599983" r="2" style="fill: steelblue;"></circle><circle cx="23.844174295663837" cy="59.464265406131744" r="2" style="fill: steelblue;"></circle><circle cx="13.589746505022053" cy="65.89391231536865" r="2" style="fill: steelblue;"></circle><circle cx="34.324412420392036" cy="58.515557646751404" r="2" style="fill: steelblue;"></circle><circle cx="34.78159308433533" cy="52.74317692965269" r="2" style="fill: steelblue;"></circle><circle cx="67.71005801856518" cy="33.59004408121109" r="2" style="fill: steelblue;"></circle><circle cx="33.441488817334175" cy="43.269648402929306" r="2" style="fill: steelblue;"></circle><circle cx="63.98883014917374" cy="40.626221895217896" r="2" style="fill: steelblue;"></circle><circle cx="69.93410848081112" cy="44.67869848012924" r="2" style="fill: steelblue;"></circle><circle cx="67.5710916519165" cy="36.20552569627762" r="2" style="fill: steelblue;"></circle><circle cx="66.0768423229456" cy="50.30824448913336" r="2" style="fill: steelblue;"></circle><circle cx="80.34951724112034" cy="47.66971431672573" r="2" style="fill: steelblue;"></circle><circle cx="72.98163808882236" cy="44.40753012895584" r="2" style="fill: steelblue;"></circle><circle cx="89.43033888936043" cy="41.02756306529045" r="2" style="fill: steelblue;"></circle><circle cx="85.20035371184349" cy="38.925378024578094" r="2" style="fill: steelblue;"></circle><circle cx="73.04414287209511" cy="65.28862118721008" r="2" style="fill: steelblue;"></circle><circle cx="57.101322524249554" cy="31.472639739513397" r="2" style="fill: steelblue;"></circle><circle cx="67.42861047387123" cy="34.31723862886429" r="2" style="fill: steelblue;"></circle><circle cx="90.89723527431488" cy="50.04682688449975" r="2" style="fill: steelblue;"></circle><circle cx="58.92631430178881" cy="43.07692348957062" r="2" style="fill: steelblue;"></circle><circle cx="74.41776730120182" cy="33.59406292438507" r="2" style="fill: steelblue;"></circle><circle cx="43.528444319963455" cy="14.388889074325562" r="2" style="fill: steelblue;"></circle><circle cx="44.566853158175945" cy="20.296710729599" r="2" style="fill: steelblue;"></circle><circle cx="58.239259012043476" cy="26.360148191452026" r="2" style="fill: steelblue;"></circle><circle cx="55.775755271315575" cy="27.450819313526154" r="2" style="fill: steelblue;"></circle><circle cx="42.55911819636822" cy="35.19159257411957" r="2" style="fill: steelblue;"></circle><circle cx="60.777479968965054" cy="41.11963137984276" r="2" style="fill: steelblue;"></circle><circle cx="59.54417325556278" cy="58.31856355071068" r="2" style="fill: steelblue;"></circle><circle cx="81.16823919117451" cy="29.310059547424316" r="2" style="fill: steelblue;"></circle><circle cx="68.16284470260143" cy="46.89953625202179" r="2" style="fill: steelblue;"></circle><circle cx="46.49000237695873" cy="79.57440912723541" r="2" style="fill: steelblue;"></circle><circle cx="18.997135758399967" cy="42.37317368388176" r="2" style="fill: steelblue;"></circle><circle cx="9.863197058439258" cy="66.41193926334381" r="2" style="fill: steelblue;"></circle><circle cx="60.315450839698315" cy="59.78304520249367" r="2" style="fill: steelblue;"></circle><circle cx="17.775981873273853" cy="72.88744449615479" r="2" style="fill: steelblue;"></circle><circle cx="54.77242702618241" cy="46.59681022167206" r="2" style="fill: steelblue;"></circle></g></svg>