<svg xmlns="http://www.w3.org/2000/svg"><rect width="200" height="200" fill="white"></rect><g><circle cx="37.54728883504868" cy="115.37778880447149" r="2" style="fill: steelblue;"></circle><circle cx="20.184351503849037" cy="173.67511093616486" r="2" style="fill: steelblue;"></circle><circle cx="55.44525235891342" cy="115.82488045096397" r="2" style="fill: steelblue;"></circle><circle cx="16.24425351619721" cy="178.16559821367264" r="2" style="fill: steelblue;"></circle><circle cx="43.09391826391221" cy="179.9657627940178" r="2" style="fill: steelblue;"></circle><circle cx="45.35933434963227" cy="173.96075129508972" r="2" style="fill: steelblue;"></circle><circle cx="84.24909450113773" cy="102.26579373702407" r="2" style="fill: steelblue;"></circle><circle cx="104.96531371027231" cy="58.460185676813126" r="2" style="fill: steelblue;"></circle><circle cx="49.63425025343896" cy="155.9089556336403" r="2" style="fill: steelblue;"></circle><circle cx="32.983569800853736" cy="118.50621029734612" r="2" style="fill: steelblue;"></circle><circle cx="47.579551488161094" cy="123.88618141412735" r="2" style="fill: steelblue;"></circle><circle cx="90.56337494403124" cy="143.13628748059273" r="2" style="fill: steelblue;"></circle><circle cx="47.851322591304786" cy="151.28495767712593" r="2" style="fill: steelblue;"></circle><circle cx="91.74739141017199" cy="123.17565679550171" r="2" style="fill: steelblue;"></circle><circle cx="49.04564321041108" cy="106.17336016148329" r="2" style="fill: steelblue;"></circle><circle cx="130.04711121320724" cy="118.2131752371788" r="2" style="fill: steelblue;"></circle><circle cx="84.41365081816912" cy="161.61541119217873" r="2" style="fill: steelblue;"></circle><circle cx="86.5284888073802" cy="114.70805518329144" r="2" style="fill: steelblue;"></circle><circle cx="81.16308823227882" cy="106.97519676759839" r="2" style="fill: steelblue;"></circle><circle cx="118.47570762038231" cy="117.5864938646555" r="2" style="fill: steelblue;"></circle><circle cx="140.18208384513855" cy="132.09390118718147" r="2" style="fill: steelblue;"></circle><circle cx="173.1847882270813" cy="120.23687958717346" r="2" style="fill: steelblue;"></circle><circle cx="118.3088444173336" cy="141.00307077169418" r="2" style="fill: steelblue;"></circle><circle cx="74.20323826372623" cy="104.09123627468944" r="2" style="fill: steelblue;"></circle><circle cx="110.03882102668285" cy="97.59935308247805" r="2" style="fill: steelblue;"></circle><circle cx="137.15281561017036" cy="130.27193807065487" r="2" style="fill: steelblue;"></circle><circle cx="81.9346684962511" cy="74.90089759230614" r="2" style="fill: steelblue;"></circle><circle cx="44.56809014081956" cy="68.64570304751396" r="2" style="fill: steelblue;"></circle><circle cx="67.53397583961487" cy="149.31556805968285" r="2" style="fill: steelblue;"></circle><circle cx="73.5142383724451" cy="78.20953652262688" r="2" style="fill: steelblue;"></circle><circle cx="164.61980193853378" cy="28.508006036281586" r="2" style="fill: steelblue;"></circle><circle cx="126.98700688779354" cy="45.98536565899849" r="2" style="fill: steelblue;"></circle><circle cx="98.95058060064912" cy="109.37447417527437" r="2" style="fill: steelblue;"></circle><circle cx="44.57903131842614" cy="71.94709070026875" r="2" style="fill: steelblue;"></circle><circle cx="43.861421197652824" cy="58.43995362520218" r="2" style="fill: steelblue;"></circle><circle cx="74.45221059024334" cy="7.152377068996429" r="2" style="fill: steelblue;"></circle><circle cx="86.37863248586655" cy="78.38064841926098" r="2" style="fill: steelblue;"></circle><circle cx="11.097384989261633" cy="84.14323106408119" r="2" style="fill: steelblue;"></circle><circle cx="56.39510825276375" cy="129.01457995176315" r="2" style="fill: steelblue;"></circle><circle cx="120.20628750324249" cy="186.0406905412674" r="2" style="fill: steelblue;"></circle><circle cx="63.10805901885033" cy="81.49811662733555" r="2" style="fill: steelblue;"></circle><circle cx="77.19116695225239" cy="17.313456535339355" r="2" style="fill: steelblue;"></circle><circle cx="93.1574109941721" cy="7.6833575963974" r="2" style="fill: steelblue;"></circle><circle cx="162.51976639032364" cy="16.094571352005005" r="2" style="fill: steelblue;"></circle><circle cx="111.57557684928179" cy="124.61540512740612" r="2" style="fill: steelblue;"></circle><circle cx="176.5140801668167" cy="136.65856644511223" r="2" style="fill: steelblue;"></circle><circle cx="122.14672043919563" cy="134.7890369594097" r="2" style="fill: steelblue;"></circle><circle cx="20.175023376941688" cy="182.771897315979" r="2" style="fill: steelblue;"></circle><circle cx="96.12004193477333" cy="164.4030049443245" r="2" style="fill: steelblue;"></circle><circle cx="80.99580779671669" cy="138.83833065629005" r="2" style="fill: steelblue;"></circle><circle cx="139.35149684548378" cy="132.39575028419495" r="2" style="fill: steelblue;"></circle><circle cx="93.92895121127367" cy="139.00327533483505" r="2" style="fill: steelblue;"></circle><circle cx="165.43220579624176" cy="132.17055648565292" r="2" style="fill: steelblue;"></circle><circle cx="60.79514920711517" cy="151.48933455348015" r="2" style="fill: steelblue;"></circle><circle cx="99.98965114355087" cy="119.77555081248283" r="2" style="fill: steelblue;"></circle><circle cx="54.33879271149635" cy="128.5269431769848" r="2" style="fill: steelblue;"></circle><circle cx="89.11281116306782" cy="90.97664467990398" r="2" style="fill: steelblue;"></circle><circle cx="111.51526719331741" cy="199.51037168502808" r="2" style="fill: steelblue;"></circle><circle cx="146.3881678879261" cy="132.45127573609352" r="2" style="fill: steelblue;"></circle><circle cx="57.23111182451248" cy="140.33630341291428" r="2" style="fill: steelblue;"></circle><circle cx="67.47179329395294" cy="140.93221575021744" r="2" style="fill: steelblue;"></circle><circle cx="73.31110574305058" cy="135.40511801838875" r="2" style="fill: steelblue;"></circle><circle cx="25.280235707759864" cy="179.88426089286804" r="2" style="fill: steelblue;"></circle><circle cx="37.03637272119523" cy="173.47530871629715" r="2" style="fill: steelblue;"></circle><circle cx="41.059034317731864" cy="100.3387063043192" r="2" style="fill: steelblue;"></circle><circle cx="101.36240769643337" cy="143.15825551748276" r="2" style="fill: steelblue;"></circle><circle cx="32.45252966880799" cy="104.29388415068388" r="2" style="fill: steelblue;"></circle><circle cx="38.446149230003364" cy="160.16386672854424" r="2" style="fill: steelblue;"></circle><circle cx="121.53689414262772" cy="163.410684466362" r="2" style="fill: steelblue;"></circle><circle cx="88.31429146230221" cy="68.40789541602135" r="2" style="fill: steelblue;"></circle><circle cx="43.67974996566773" cy="131.7189022898674" r="2" style="fill: steelblue;"></circle><circle cx="108.74878093600273" cy="58.567917346954346" r="2" style="fill: steelblue;"></circle><circle cx="154.71934750676155" cy="136.32736578583717" r="2" style="fill: steelblue;"></circle><circle cx="146.32263258099556" cy="40.465815365314484" r="2" style="fill: steelblue;"></circle><circle cx="154.92480099201202" cy="53.86308804154396" r="2" style="fill: steelblue;"></circle><circle cx="150.64723640680313" cy="108.745058439672" r="2" style="fill: steelblue;"></circle><circle cx="153.58610674738884" cy="53.773293644189835" r="2" style="fill: steelblue;"></circle><circle cx="152.3417331278324" cy="34.71328914165497" r="2" style="fill: steelblue;"></circle><circle cx="198.31810742616653" cy="50.80141723155975" r="2" style="fill: steelblue;"></circle><circle cx="169.89457458257675" cy="53.43466103076935" r="2" style="fill: steelblue;"></circle><circle cx="157.15251713991165" cy="11.194831132888794" r="2" style="fill: steelblue;"></circle><circle cx="194.56172585487366" cy="52.552150934934616" r="2" style="fill: steelblue;"></circle><circle cx="101.60771864466369" cy="68.56813877820969" r="2" style="fill: steelblue;"></circle><circle cx="79.7450378537178" cy="162.16546148061752" r="2" style="fill: steelblue;"></circle><circle cx="11.65474802255631" cy="132.9991802573204" r="2" style="fill: steelblue;"></circle><circle cx="90.9477373585105" cy="109.30836517363787" r="2" style="fill: steelblue;"></circle><circle cx="94.27862791344523" cy="72.65391051769257" r="2" style="fill: steelblue;"></circle><circle cx="105.51027338951826" cy="115.94403572380543" r="2" style="fill: steelblue;"></circle><circle cx="113.33172153681517" cy="83.24788548052311" r="2" style="fill: steelblue;"></circle><circle cx="137.28440031409264" cy="71.54220193624496" r="2" style="fill: steelblue;"></circle><circle cx="161.80524826049805" cy="60.180263966321945" r="2" style="fill: steelblue;"></circle><circle cx="165.24331867694855" cy="91.43039714545012" r="2" style="fill: steelblue;"></circle><circle cx="107.65054998919368" cy="51.442018151283264" r="2" style="fill: steelblue;"></circle><circle cx="165.1502013206482" cy="52.05753296613693" r="2" style="fill: steelblue;"></circle><circle cx="157.34657496213913" cy="145.2420338988304" r="2" style="fill: steelblue;"></circle><circle cx="153.06872352957726" cy="96.2173500098288" r="2" style="fill: steelblue;"></circle><circle cx="143.12416911125183" cy="20.36784440279007" r="2" style="fill: steelblue;"></circle><circle cx="182.39983767271042" cy="37.32043355703354" r="2" style="fill: steelblue;"></circle><circle cx="88.20360749959946" cy="61.88126876950264" r="2" style="fill: steelblue;"></circle><circle cx="55.86524158716202" cy="90.21589197218418" r="2" style="fill: steelblue;"></circle><circle cx="77.66121290624142" cy="97.37610295414925" r="2" style="fill: steelblue;"></circle><circle cx="157.85034596920013" cy="89.86957874149084" r="2" style="fill: steelblue;"></circle><circle cx="91.39722716063261" cy="34.18675661087036" r="2" style="fill: steelblue;"></circle><circle cx="115.87392389774323" cy="115.63874445855618" r="2" style="fill: steelblue;"></circle><circle cx="189.46897089481354" cy="142.81412437558174" r="2" style="fill: steelblue;"></circle><circle cx="154.90651726722717" cy="60.031528025865555" r="2" style="fill: steelblue;"></circle><circle cx="38.915848731994636" cy="98.42580163385719" r="2" style="fill: steelblue;"></circle><circle cx="155.43960630893707" cy="96.52343522757292" r="2" style="fill: steelblue;"></circle><circle cx="177.36223936080933" cy="49.91417974233627" r="2" style="fill: steelblue;"></circle><circle cx="168.21611523628235" cy="54.40804585814476" r="2" style="fill: steelblue;"></circle><circle cx="177.45961099863052" cy="42.96345114707947" r="2" style="fill: steelblue;"></circle><circle cx="173.99165630340576" cy="137.83395513892174" r="2" style="fill: steelblue;"></circle><circle cx="60.789673030376434" cy="126.07749216258526" r="2" style="fill: steelblue;"></circle><circle cx="105.439433734864" cy="106.15022843703628" r="2" style="fill: steelblue;"></circle><circle cx="76.22055932879448" cy="156.9205805659294" r="2" style="fill: steelblue;"></circle><circle cx="35.804605484008796" cy="148.32912608981133" r="2" style="fill: steelblue;"></circle><circle cx="37.17032670974732" cy="113.63704726099968" r="2" style="fill: steelblue;"></circle><circle cx="99.18294372037053" cy="111.75327971577644" r="2" style="fill: steelblue;"></circle></g></svg>