<svg xmlns="http://www.w3.org/2000/svg"><rect width="200" height="200" fill="white"></rect><g><circle cx="55.42037222120497" cy="78.38045176532533" r="2" style="fill: steelblue;"></circle><circle cx="58.31903550359938" cy="112.9991696940528" r="2" style="fill: steelblue;"></circle><circle cx="155.2445458041297" cy="110.11434131198459" r="2" style="fill: steelblue;"></circle><circle cx="109.6306409065922" cy="121.03211747275458" r="2" style="fill: steelblue;"></circle><circle cx="69.499800602595" cy="165.14344877666898" r="2" style="fill: steelblue;"></circle><circle cx="94.91246773136986" cy="111.48661739296384" r="2" style="fill: steelblue;"></circle><circle cx="64.08457623587715" cy="65.7130863931444" r="2" style="fill: steelblue;"></circle><circle cx="91.68838626808589" cy="129.2230440510644" r="2" style="fill: steelblue;"></circle><circle cx="85.5561527940962" cy="112.90226413144006" r="2" style="fill: steelblue;"></circle><circle cx="117.09756362769339" cy="29.658594396379257" r="2" style="fill: steelblue;"></circle><circle cx="65.98971949683296" cy="97.4172928267055" r="2" style="fill: steelblue;"></circle><circle cx="156.93245662583243" cy="72.65088823106554" r="2" style="fill: steelblue;"></circle><circle cx="67.55664282374912" cy="125.67412058512369" r="2" style="fill: steelblue;"></circle><circle cx="43.757471773359505" cy="117.53425200780234" r="2" style="fill: steelblue;"></circle><circle cx="105.36312891377342" cy="113.21795847680833" r="2" style="fill: steelblue;"></circle><circle cx="99.0307049618827" cy="178.85253694322373" r="2" style="fill: steelblue;"></circle><circle cx="106.39495568142996" cy="70.71628537442949" r="2" style="fill: steelblue;"></circle><circle cx="144.92866065767075" cy="53.90257504251268" r="2" style="fill: steelblue;"></circle><circle cx="172.01274633407593" cy="72.63263596428766" r="2" style="fill: steelblue;"></circle><circle cx="159.94598468144733" cy="59.11862386597528" r="2" style="fill: steelblue;"></circle><circle cx="84.65699851512909" cy="17.04763571421306" r="2" style="fill: steelblue;"></circle><circle cx="165.53258895874023" cy="57.99573527442086" r="2" style="fill: steelblue;"></circle><circle cx="45.10208633210924" cy="158.99660057491727" r="2" style="fill: steelblue;"></circle><circle cx="81.33717709117465" cy="126.83987153900995" r="2" style="fill: steelblue;"></circle><circle cx="99.78222515847948" cy="153.940663072798" r="2" style="fill: steelblue;"></circle><circle cx="116.47541696826617" cy="81.37668619553249" r="2" style="fill: steelblue;"></circle><circle cx="116.94269296195772" cy="126.28320389323764" r="2" style="fill: steelblue;"></circle><circle cx="62.00498673650954" cy="103.82696522606744" r="2" style="fill: steelblue;"></circle><circle cx="65.89057710435655" cy="104.44627900918326" r="2" style="fill: steelblue;"></circle><circle cx="102.99565394719441" cy="49.374049239688446" r="2" style="fill: steelblue;"></circle><circle cx="162.88113925192093" cy="85.96150817142593" r="2" style="fill: steelblue;"></circle><circle cx="166.6487157344818" cy="115.69502651691437" r="2" style="fill: steelblue;"></circle><circle cx="114.51552187403043" cy="40.17172786924574" r="2" style="fill: steelblue;"></circle><circle cx="115.94328946537442" cy="43.78344813982646" r="2" style="fill: steelblue;"></circle><circle cx="129.00369034873114" cy="84.54429225789177" r="2" style="fill: steelblue;"></circle><circle cx="89.53238195843166" cy="97.17861513296764" r="2" style="fill: steelblue;"></circle><circle cx="50.83972877926296" cy="154.0780848926968" r="2" style="fill: steelblue;"></circle><circle cx="50.929433769649926" cy="128.1619025601281" r="2" style="fill: steelblue;"></circle><circle cx="44.80048020680745" cy="147.4075370364719" r="2" style="fill: steelblue;"></circle><circle cx="67.61839985847473" cy="145.20033068127103" r="2" style="fill: steelblue;"></circle><circle cx="84.8110169172287" cy="114.87878892156813" r="2" style="fill: steelblue;"></circle><circle cx="177.4100661277771" cy="53.536360793643524" r="2" style="fill: steelblue;"></circle><circle cx="92.32921567228105" cy="93.44984665513039" r="2" style="fill: steelblue;"></circle><circle cx="130.93385928206973" cy="44.721247752507544" r="2" style="fill: steelblue;"></circle><circle cx="162.07746664683023" cy="70.26654018296136" r="2" style="fill: steelblue;"></circle><circle cx="114.09624252054427" cy="32.81799157460532" r="2" style="fill: steelblue;"></circle><circle cx="151.69490377108255" cy="34.694236516952515" r="2" style="fill: steelblue;"></circle><circle cx="74.93129372596741" cy="132.82183673646713" r="2" style="fill: steelblue;"></circle><circle cx="106.20418356524573" cy="148.1592377026876" r="2" style="fill: steelblue;"></circle><circle cx="54.39390738805135" cy="87.18769668291013" r="2" style="fill: steelblue;"></circle><circle cx="85.3299448887507" cy="177.77130868699814" r="2" style="fill: steelblue;"></circle><circle cx="145.5985638830397" cy="124.61104525460138" r="2" style="fill: steelblue;"></circle><circle cx="114.26584877901607" cy="89.4586496365567" r="2" style="fill: steelblue;"></circle><circle cx="104.08275574445724" cy="108.57716235849593" r="2" style="fill: steelblue;"></circle><circle cx="128.01372177071042" cy="88.65008986451559" r="2" style="fill: steelblue;"></circle><circle cx="56.15807241863674" cy="118.88645622465346" r="2" style="fill: steelblue;"></circle><circle cx="53.10366551081339" cy="70.08375757270389" r="2" style="fill: steelblue;"></circle><circle cx="82.77157611317104" cy="111.65758007102542" r="2" style="fill: steelblue;"></circle><circle cx="83.3859062857098" cy="94.06754614578354" r="2" style="fill: steelblue;"></circle><circle cx="138.97687196731567" cy="130.83397878540887" r="2" style="fill: steelblue;"></circle><circle cx="55.83482318454318" cy="115.97786049048106" r="2" style="fill: steelblue;"></circle><circle cx="128.78792650169797" cy="150.28278562757706" r="2" style="fill: steelblue;"></circle><circle cx="125.52326917648315" cy="177.81278027428522" r="2" style="fill: steelblue;"></circle><circle cx="63.82345490985446" cy="77.72264911068811" r="2" style="fill: steelblue;"></circle><circle cx="60.48068073060777" cy="123.37834503915575" r="2" style="fill: steelblue;"></circle><circle cx="34.83578231599596" cy="129.16907535658942" r="2" style="fill: steelblue;"></circle><circle cx="121.90685421228409" cy="121.44759496053061" r="2" style="fill: steelblue;"></circle><circle cx="73.97330469555324" cy="120.652836561203" r="2" style="fill: steelblue;"></circle><circle cx="35.350124041239425" cy="108.59011809031169" r="2" style="fill: steelblue;"></circle><circle cx="59.87550814946493" cy="141.64693024423386" r="2" style="fill: steelblue;"></circle><circle cx="16.987297270033093" cy="137.19459904564752" r="2" style="fill: steelblue;"></circle><circle cx="156.00943565368652" cy="88.84519206476398" r="2" style="fill: steelblue;"></circle><circle cx="121.28607514831755" cy="37.823549906412765" r="2" style="fill: steelblue;"></circle><circle cx="144.61285207006668" cy="43.551499976052185" r="2" style="fill: steelblue;"></circle><circle cx="168.74119970533584" cy="74.62653054131403" r="2" style="fill: steelblue;"></circle><circle cx="108.29110257327557" cy="46.50874137878418" r="2" style="fill: steelblue;"></circle><circle cx="119.73885695139568" cy="94.30186152458191" r="2" style="fill: steelblue;"></circle><circle cx="184.0851174460517" cy="82.37567080391779" r="2" style="fill: steelblue;"></circle><circle cx="166.60618782043457" cy="32.01136853959825" r="2" style="fill: steelblue;"></circle><circle cx="141.01324147648282" cy="38.32767605781555" r="2" style="fill: steelblue;"></circle><circle cx="157.87151124742294" cy="93.43407129247983" r="2" style="fill: steelblue;"></circle><circle cx="193.75020927853055" cy="70.6030266152488" r="2" style="fill: steelblue;"></circle><circle cx="128.83370121320087" cy="67.60558022393121" r="2" style="fill: steelblue;"></circle><circle cx="71.3632239235772" cy="88.33507859251566" r="2" style="fill: steelblue;"></circle><circle cx="148.6315263642205" cy="133.20742580625748" r="2" style="fill: steelblue;"></circle><circle cx="87.8546138604482" cy="127.65720354186163" r="2" style="fill: steelblue;"></circle><circle cx="134.69804988967047" cy="103.09217075506847" r="2" style="fill: steelblue;"></circle><circle cx="141.21222164895798" cy="94.03038182192378" r="2" style="fill: steelblue;"></circle><circle cx="119.94683576954735" cy="113.87903028064304" r="2" style="fill: steelblue;"></circle><circle cx="144.37069164382086" cy="43.98566020859613" r="2" style="fill: steelblue;"></circle><circle cx="171.1165640089247" cy="22.363356749216724" r="2" style="fill: steelblue;"></circle><circle cx="164.90335596932303" cy="98.05406249231763" r="2" style="fill: steelblue;"></circle><circle cx="74.9873916308085" cy="38.22581834263272" r="2" style="fill: steelblue;"></circle><circle cx="77.26732227537367" cy="88.2263811926047" r="2" style="fill: steelblue;"></circle><circle cx="113.9691656248437" cy="57.829097244474625" r="2" style="fill: steelblue;"></circle><circle cx="93.56960819827187" cy="31.137981679704453" r="2" style="fill: steelblue;"></circle><circle cx="155.0854676299625" cy="42.40566359625924" r="2" style="fill: steelblue;"></circle><circle cx="125.14311075210571" cy="44.66708368725247" r="2" style="fill: steelblue;"></circle><circle cx="167.71972179412842" cy="53.79333297411601" r="2" style="fill: steelblue;"></circle><circle cx="56.030703915490044" cy="66.67513681782617" r="2" style="fill: steelblue;"></circle><circle cx="152.71272261937457" cy="75.94700687461429" r="2" style="fill: steelblue;"></circle><circle cx="108.65621330837409" cy="59.27239391538832" r="2" style="fill: steelblue;"></circle><circle cx="127.94135014216106" cy="72.49189780818092" r="2" style="fill: steelblue;"></circle><circle cx="53.406218687693276" cy="73.5089037153456" r="2" style="fill: steelblue;"></circle><circle cx="151.38552255100674" cy="13.993520206875276" r="2" style="fill: steelblue;"></circle><circle cx="118.72093627850215" cy="55.483644538455536" r="2" style="fill: steelblue;"></circle><circle cx="127.69806881745656" cy="48.14167022705078" r="2" style="fill: steelblue;"></circle><circle cx="122.41466922892464" cy="74.37753544913399" r="2" style="fill: steelblue;"></circle><circle cx="106.75127266181839" cy="78.99540447526508" r="2" style="fill: steelblue;"></circle><circle cx="95.97547849019368" cy="64.34114310476515" r="2" style="fill: steelblue;"></circle><circle cx="148.7365596824222" cy="48.50343068440757" r="2" style="fill: steelblue;"></circle><circle cx="146.93576759762234" cy="55.02249664730496" r="2" style="fill: steelblue;"></circle><circle cx="74.86598690350851" cy="130.87276816368103" r="2" style="fill: steelblue;"></circle><circle cx="78.59922448794046" cy="103.01176740063562" r="2" style="fill: steelblue;"></circle><circle cx="101.09525670607884" cy="152.74878210491605" r="2" style="fill: steelblue;"></circle><circle cx="49.117392963833275" cy="163.86657820807562" r="2" style="fill: steelblue;"></circle><circle cx="108.2265501221021" cy="138.8009144200219" r="2" style="fill: steelblue;"></circle><circle cx="72.9418330722385" cy="53.67616017659505" r="2" style="fill: steelblue;"></circle></g></svg>