<svg xmlns="http://www.w3.org/2000/svg"><g><circle cx="22.9037880897522" cy="50.52613823208958" r="2" style="fill: steelblue;"></circle><circle cx="37.874859012663364" cy="54.69190254807472" r="2" style="fill: steelblue;"></circle><circle cx="40.456282161176205" cy="58.32376256585121" r="2" style="fill: steelblue;"></circle><circle cx="59.50584467500448" cy="62.02261168509722" r="2" style="fill: steelblue;"></circle><circle cx="23.639437928795818" cy="74.41172674298286" r="2" style="fill: steelblue;"></circle><circle cx="62.74926122277975" cy="53.13112419098616" r="2" style="fill: steelblue;"></circle><circle cx="42.839937563985586" cy="60.52983198314905" r="2" style="fill: steelblue;"></circle><circle cx="72.91272953152657" cy="54.568006843328476" r="2" style="fill: steelblue;"></circle><circle cx="14.179728180170063" cy="74.5396476238966" r="2" style="fill: steelblue;"></circle><circle cx="29.349086061120033" cy="52.66421912238002" r="2" style="fill: steelblue;"></circle><circle cx="57.07803666591644" cy="35.97352672368288" r="2" style="fill: steelblue;"></circle><circle cx="33.54034125804901" cy="68.07571016252041" r="2" style="fill: steelblue;"></circle><circle cx="40.90455938130617" cy="77.12316066026688" r="2" style="fill: steelblue;"></circle><circle cx="42.96513386070728" cy="81.59000352025032" r="2" style="fill: steelblue;"></circle><circle cx="10.920639336109165" cy="60.82285773009062" r="2" style="fill: steelblue;"></circle><circle cx="32.57627710700035" cy="92.27128997445107" r="2" style="fill: steelblue;"></circle><circle cx="62.017893604934216" cy="69.13887076079845" r="2" style="fill: steelblue;"></circle><circle cx="77.24090591073036" cy="49.22160542337224" r="2" style="fill: steelblue;"></circle><circle cx="76.02661959826946" cy="61.73018757253885" r="2" style="fill: steelblue;"></circle><circle cx="62.703717686235905" cy="40.194981917738914" r="2" style="fill: steelblue;"></circle><circle cx="72.97574654221535" cy="21.342341974377632" r="2" style="fill: steelblue;"></circle><circle cx="54.276483319699764" cy="31.08525760471821" r="2" style="fill: steelblue;"></circle><circle cx="47.84210161305964" cy="88.04275766015053" r="2" style="fill: steelblue;"></circle><circle cx="31.803379952907562" cy="47.15725285932422" r="2" style="fill: steelblue;"></circle><circle cx="66.60051941871643" cy="72.02050015330315" r="2" style="fill: steelblue;"></circle><circle cx="21.317779272794727" cy="65.75480960309505" r="2" style="fill: steelblue;"></circle><circle cx="29.8826202750206" cy="74.20343831181526" r="2" style="fill: steelblue;"></circle><circle cx="36.89375165849924" cy="56.3453633338213" r="2" style="fill: steelblue;"></circle><circle cx="35.96722446382046" cy="82.84987807273865" r="2" style="fill: steelblue;"></circle><circle cx="82.88320451974869" cy="65.00788424164057" r="2" style="fill: steelblue;"></circle><circle cx="42.93062649667263" cy="51.97924883104861" r="2" style="fill: steelblue;"></circle><circle cx="87.93791681528091" cy="39.66808058321476" r="2" style="fill: steelblue;"></circle><circle cx="94.52978819608688" cy="6.085443496704102" r="2" style="fill: steelblue;"></circle><circle cx="49.30075212614611" cy="57.594142109155655" r="2" style="fill: steelblue;"></circle><circle cx="51.85021513607353" cy="42.82922316342592" r="2" style="fill: steelblue;"></circle><circle cx="45.54891791194677" cy="19.304190948605537" r="2" style="fill: steelblue;"></circle><circle cx="7.584612071514132" cy="46.43745552748442" r="2" style="fill: steelblue;"></circle><circle cx="46.41972151584923" cy="14.53409269452095" r="2" style="fill: steelblue;"></circle><circle cx="19.940740615129474" cy="72.46761880815029" r="2" style="fill: steelblue;"></circle><circle cx="67.27063208818436" cy="75.72385594248772" r="2" style="fill: steelblue;"></circle><circle cx="36.25483177602291" cy="41.119422018527985" r="2" style="fill: steelblue;"></circle><circle cx="64.61913716048002" cy="70.20349353551865" r="2" style="fill: steelblue;"></circle><circle cx="67.2946397215128" cy="16.076970100402832" r="2" style="fill: steelblue;"></circle><circle cx="83.01077708601952" cy="42.765157017856836" r="2" style="fill: steelblue;"></circle><circle cx="92.10149124264717" cy="30.180034413933754" r="2" style="fill: steelblue;"></circle><circle cx="50.29883213574067" cy="22.880370914936066" r="2" style="fill: steelblue;"></circle><circle cx="63.441747054457664" cy="43.417495395988226" r="2" style="fill: steelblue;"></circle><circle cx="17.97381713986397" cy="17.659950256347656" r="2" style="fill: steelblue;"></circle><circle cx="31.679201126098633" cy="72.32382819056511" r="2" style="fill: steelblue;"></circle><circle cx="38.5958693921566" cy="90.57429358363152" r="2" style="fill: steelblue;"></circle><circle cx="62.99357134848833" cy="93.17695647478104" r="2" style="fill: steelblue;"></circle><circle cx="55.791615694761276" cy="69.07344162464142" r="2" style="fill: steelblue;"></circle><circle cx="29.852695018053055" cy="42.638696916401386" r="2" style="fill: steelblue;"></circle><circle cx="11.627669632434849" cy="16.416586190462112" r="2" style="fill: steelblue;"></circle><circle cx="19.25361827015877" cy="50.80421130405739" r="2" style="fill: steelblue;"></circle><circle cx="23.37216138839722" cy="63.19693122059107" r="2" style="fill: steelblue;"></circle><circle cx="38.54115977883339" cy="61.308666318655014" r="2" style="fill: steelblue;"></circle><circle cx="43.32126649096608" cy="61.05435285717249" r="2" style="fill: steelblue;"></circle><circle cx="28.39144617319107" cy="50.34939878969453" r="2" style="fill: steelblue;"></circle><circle cx="39.90827891975641" cy="78.49557437002659" r="2" style="fill: steelblue;"></circle><circle cx="17.41321682929993" cy="65.88007248938084" r="2" style="fill: steelblue;"></circle><circle cx="29.844041168689728" cy="84.74735841155052" r="2" style="fill: steelblue;"></circle><circle cx="24.85064528882504" cy="72.5314311683178" r="2" style="fill: steelblue;"></circle><circle cx="18.42405200004578" cy="72.09178358316422" r="2" style="fill: steelblue;"></circle><circle cx="36.01067811250687" cy="91.20798408985138" r="2" style="fill: steelblue;"></circle><circle cx="1.529797166585925" cy="74.98361468315125" r="2" style="fill: steelblue;"></circle><circle cx="33.615994453430176" cy="53.01510188728571" r="2" style="fill: steelblue;"></circle><circle cx="25.673841312527657" cy="84.07886251807213" r="2" style="fill: steelblue;"></circle><circle cx="17.82096475362778" cy="65.8858560025692" r="2" style="fill: steelblue;"></circle><circle cx="29.780303314328194" cy="85.88001430034637" r="2" style="fill: steelblue;"></circle><circle cx="60.72998810559511" cy="58.73137265443802" r="2" style="fill: steelblue;"></circle><circle cx="64.40999936312437" cy="40.62786158174276" r="2" style="fill: steelblue;"></circle><circle cx="50.07574256596854" cy="29.951083660125732" r="2" style="fill: steelblue;"></circle><circle cx="45.400909800082445" cy="14.663464576005936" r="2" style="fill: steelblue;"></circle><circle cx="61.812569573521614" cy="31.61730170249939" r="2" style="fill: steelblue;"></circle><circle cx="97.38051816821098" cy="31.180785223841667" r="2" style="fill: steelblue;"></circle><circle cx="44.6327256038785" cy="8.253160119056702" r="2" style="fill: steelblue;"></circle><circle cx="68.99766363203526" cy="27.40442305803299" r="2" style="fill: steelblue;"></circle><circle cx="66.39161631464958" cy="46.174813248217106" r="2" style="fill: steelblue;"></circle><circle cx="27.934276685118675" cy="8.105914294719696" r="2" style="fill: steelblue;"></circle><circle cx="76.5011414885521" cy="19.565102830529213" r="2" style="fill: steelblue;"></circle><circle cx="99.81368035078049" cy="21.606038510799408" r="2" style="fill: steelblue;"></circle><circle cx="35.840633511543274" cy="16.191083192825317" r="2" style="fill: steelblue;"></circle><circle cx="16.22414514422417" cy="62.69346754997969" r="2" style="fill: steelblue;"></circle><circle cx="46.19066179729998" cy="65.57475421577692" r="2" style="fill: steelblue;"></circle><circle cx="64.442702755332" cy="78.53444032371044" r="2" style="fill: steelblue;"></circle><circle cx="21.685953438282016" cy="26.144835352897644" r="2" style="fill: steelblue;"></circle><circle cx="36.48497089743614" cy="86.10220924019814" r="2" style="fill: steelblue;"></circle><circle cx="35.49921624362469" cy="76.67645551264286" r="2" style="fill: steelblue;"></circle><circle cx="57.55724497139454" cy="7.854013890028" r="2" style="fill: steelblue;"></circle><circle cx="63.07252608239651" cy="30.319522321224213" r="2" style="fill: steelblue;"></circle><circle cx="81.66954591870308" cy="29.28285039961338" r="2" style="fill: steelblue;"></circle><circle cx="80.89135885238647" cy="6.644117832183838" r="2" style="fill: steelblue;"></circle><circle cx="51.87629321590066" cy="28.735873475670815" r="2" style="fill: steelblue;"></circle><circle cx="82.27232024073601" cy="51.45203934516758" r="2" style="fill: steelblue;"></circle><circle cx="32.05112852156162" cy="23.075056448578835" r="2" style="fill: steelblue;"></circle><circle cx="77.3766778409481" cy="37.48692963272333" r="2" style="fill: steelblue;"></circle><circle cx="43.40663431212306" cy="49.96504746741266" r="2" style="fill: steelblue;"></circle><circle cx="61.62425335496664" cy="28.1605564057827" r="2" style="fill: steelblue;"></circle><circle cx="30.632338672876358" cy="81.59713000059128" r="2" style="fill: steelblue;"></circle><circle cx="57.4275485239923" cy="47.75773170404136" r="2" style="fill: steelblue;"></circle><circle cx="40.91480299830437" cy="48.700776137411594" r="2" style="fill: steelblue;"></circle><circle cx="64.90684412419796" cy="43.45923960208893" r="2" style="fill: steelblue;"></circle><circle cx="52.67330603674054" cy="33.1470251083374" r="2" style="fill: steelblue;"></circle><circle cx="65.71258343756199" cy="13.56729045510292" r="2" style="fill: steelblue;"></circle><circle cx="50.4017865867354" cy="8.504382520914078" r="2" style="fill: steelblue;"></circle><circle cx="72.67615497112274" cy="36.917153000831604" r="2" style="fill: steelblue;"></circle><circle cx="74.49161000549793" cy="41.37027282267809" r="2" style="fill: steelblue;"></circle><circle cx="74.95472133159637" cy="68.16362887620926" r="2" style="fill: steelblue;"></circle><circle cx="67.10261963307858" cy="16.124512255191803" r="2" style="fill: steelblue;"></circle><circle cx="79.30539473891258" cy="45.76409626752138" r="2" style="fill: steelblue;"></circle><circle cx="61.974296532571316" cy="35.99926847964525" r="2" style="fill: steelblue;"></circle><circle cx="24.317420274019245" cy="27.967631071805954" r="2" style="fill: steelblue;"></circle><circle cx="35.32198462635279" cy="77.29447558522224" r="2" style="fill: steelblue;"></circle><circle cx="31.648022308945656" cy="63.64994142204523" r="2" style="fill: steelblue;"></circle><circle cx="68.92364211380482" cy="79.24222685396671" r="2" style="fill: steelblue;"></circle><circle cx="42.11290664970875" cy="67.98107102513313" r="2" style="fill: steelblue;"></circle><circle cx="30.85513524711132" cy="55.960522685199976" r="2" style="fill: steelblue;"></circle></g></svg>