<svg xmlns="http://www.w3.org/2000/svg"><g><circle cx="42.311105597764254" cy="57.688894402235746" r="2" style="fill: steelblue;"></circle><circle cx="13.162444531917576" cy="86.83755546808243" r="2" style="fill: steelblue;"></circle><circle cx="42.08755977451801" cy="57.91244022548199" r="2" style="fill: steelblue;"></circle><circle cx="10.917200893163685" cy="89.08279910683632" r="2" style="fill: steelblue;"></circle><circle cx="10.017118602991108" cy="89.9828813970089" r="2" style="fill: steelblue;"></circle><circle cx="13.019624352455143" cy="86.98037564754486" r="2" style="fill: steelblue;"></circle><circle cx="48.867103131487966" cy="51.132896868512034" r="2" style="fill: steelblue;"></circle><circle cx="70.76990716159344" cy="29.230092838406563" r="2" style="fill: steelblue;"></circle><circle cx="22.04552218317986" cy="77.95447781682014" r="2" style="fill: steelblue;"></circle><circle cx="40.74689485132694" cy="59.25310514867306" r="2" style="fill: steelblue;"></circle><circle cx="38.056909292936325" cy="61.943090707063675" r="2" style="fill: steelblue;"></circle><circle cx="28.431856259703636" cy="71.56814374029636" r="2" style="fill: steelblue;"></circle><circle cx="24.357521161437038" cy="75.64247883856297" r="2" style="fill: steelblue;"></circle><circle cx="38.412171602249146" cy="61.587828397750854" r="2" style="fill: steelblue;"></circle><circle cx="46.913319919258356" cy="53.086680080741644" r="2" style="fill: steelblue;"></circle><circle cx="40.8934123814106" cy="59.1065876185894" r="2" style="fill: steelblue;"></circle><circle cx="19.19229440391064" cy="80.80770559608936" r="2" style="fill: steelblue;"></circle><circle cx="42.64597240835428" cy="57.35402759164572" r="2" style="fill: steelblue;"></circle><circle cx="46.512401616200805" cy="53.487598383799195" r="2" style="fill: steelblue;"></circle><circle cx="41.20675306767225" cy="58.79324693232775" r="2" style="fill: steelblue;"></circle><circle cx="33.953049406409264" cy="66.04695059359074" r="2" style="fill: steelblue;"></circle><circle cx="39.88156020641327" cy="60.11843979358673" r="2" style="fill: steelblue;"></circle><circle cx="29.49846461415291" cy="70.50153538584709" r="2" style="fill: steelblue;"></circle><circle cx="47.95438186265528" cy="52.04561813734472" r="2" style="fill: steelblue;"></circle><circle cx="51.20032345876098" cy="48.79967654123902" r="2" style="fill: steelblue;"></circle><circle cx="34.864030964672565" cy="65.13596903532743" r="2" style="fill: steelblue;"></circle><circle cx="62.54955120384693" cy="37.45044879615307" r="2" style="fill: steelblue;"></circle><circle cx="65.67714847624302" cy="34.32285152375698" r="2" style="fill: steelblue;"></circle><circle cx="25.342215970158577" cy="74.65778402984142" r="2" style="fill: steelblue;"></circle><circle cx="60.89523173868656" cy="39.10476826131344" r="2" style="fill: steelblue;"></circle><circle cx="85.74599698185921" cy="14.254003018140793" r="2" style="fill: steelblue;"></circle><circle cx="77.00731717050076" cy="22.992682829499245" r="2" style="fill: steelblue;"></circle><circle cx="45.312762912362814" cy="54.687237087637186" r="2" style="fill: steelblue;"></circle><circle cx="64.02645464986563" cy="35.97354535013437" r="2" style="fill: steelblue;"></circle><circle cx="70.78002318739891" cy="29.21997681260109" r="2" style="fill: steelblue;"></circle><circle cx="96.42381146550179" cy="3.5761885344982147" r="2" style="fill: steelblue;"></circle><circle cx="60.80967579036951" cy="39.19032420963049" r="2" style="fill: steelblue;"></circle><circle cx="57.928384467959404" cy="42.071615532040596" r="2" style="fill: steelblue;"></circle><circle cx="35.49271002411842" cy="64.50728997588158" r="2" style="fill: steelblue;"></circle><circle cx="6.979654729366305" cy="93.0203452706337" r="2" style="fill: steelblue;"></circle><circle cx="59.250941686332226" cy="40.749058313667774" r="2" style="fill: steelblue;"></circle><circle cx="91.34327173233032" cy="8.656728267669678" r="2" style="fill: steelblue;"></circle><circle cx="96.1583212018013" cy="3.8416787981987" r="2" style="fill: steelblue;"></circle><circle cx="91.9527143239975" cy="8.047285676002502" r="2" style="fill: steelblue;"></circle><circle cx="37.69229743629694" cy="62.30770256370306" r="2" style="fill: steelblue;"></circle><circle cx="31.670716777443886" cy="68.32928322255611" r="2" style="fill: steelblue;"></circle><circle cx="32.60548152029514" cy="67.39451847970486" r="2" style="fill: steelblue;"></circle><circle cx="8.614051342010502" cy="91.3859486579895" r="2" style="fill: steelblue;"></circle><circle cx="17.798497527837757" cy="82.20150247216225" r="2" style="fill: steelblue;"></circle><circle cx="30.580834671854973" cy="69.41916532814503" r="2" style="fill: steelblue;"></circle><circle cx="33.80212485790253" cy="66.19787514209747" r="2" style="fill: steelblue;"></circle><circle cx="30.498362332582474" cy="69.50163766741753" r="2" style="fill: steelblue;"></circle><circle cx="33.91472175717354" cy="66.08527824282646" r="2" style="fill: steelblue;"></circle><circle cx="24.25533272325993" cy="75.74466727674007" r="2" style="fill: steelblue;"></circle><circle cx="40.11222459375858" cy="59.88777540624142" r="2" style="fill: steelblue;"></circle><circle cx="35.73652841150761" cy="64.2634715884924" r="2" style="fill: steelblue;"></circle><circle cx="54.51167766004801" cy="45.48832233995199" r="2" style="fill: steelblue;"></circle><circle cx="0.2448141574859647" cy="99.75518584251404" r="2" style="fill: steelblue;"></circle><circle cx="33.77436213195324" cy="66.22563786804676" r="2" style="fill: steelblue;"></circle><circle cx="29.831848293542862" cy="70.16815170645714" r="2" style="fill: steelblue;"></circle><circle cx="29.53389212489128" cy="70.46610787510872" r="2" style="fill: steelblue;"></circle><circle cx="32.297440990805626" cy="67.70255900919437" r="2" style="fill: steelblue;"></circle><circle cx="10.057869553565983" cy="89.94213044643402" r="2" style="fill: steelblue;"></circle><circle cx="13.262345641851429" cy="86.73765435814857" r="2" style="fill: steelblue;"></circle><circle cx="49.8306468478404" cy="50.1693531521596" r="2" style="fill: steelblue;"></circle><circle cx="28.42087224125862" cy="71.57912775874138" r="2" style="fill: steelblue;"></circle><circle cx="47.85305792465806" cy="52.14694207534194" r="2" style="fill: steelblue;"></circle><circle cx="19.918066635727886" cy="80.08193336427212" r="2" style="fill: steelblue;"></circle><circle cx="18.294657766819004" cy="81.705342233181" r="2" style="fill: steelblue;"></circle><circle cx="65.79605229198933" cy="34.20394770801067" r="2" style="fill: steelblue;"></circle><circle cx="34.1405488550663" cy="65.8594511449337" r="2" style="fill: steelblue;"></circle><circle cx="70.71604132652283" cy="29.283958673477173" r="2" style="fill: steelblue;"></circle><circle cx="31.836317107081413" cy="68.16368289291859" r="2" style="fill: steelblue;"></circle><circle cx="79.76709231734276" cy="20.232907682657242" r="2" style="fill: steelblue;"></circle><circle cx="73.06845597922802" cy="26.93154402077198" r="2" style="fill: steelblue;"></circle><circle cx="45.627470780164" cy="54.372529219836" r="2" style="fill: steelblue;"></circle><circle cx="73.11335317790508" cy="26.886646822094917" r="2" style="fill: steelblue;"></circle><circle cx="82.64335542917252" cy="17.356644570827484" r="2" style="fill: steelblue;"></circle><circle cx="74.59929138422012" cy="25.400708615779877" r="2" style="fill: steelblue;"></circle><circle cx="73.28266948461533" cy="26.717330515384674" r="2" style="fill: steelblue;"></circle><circle cx="94.4025844335556" cy="5.597415566444397" r="2" style="fill: steelblue;"></circle><circle cx="73.72392453253269" cy="26.276075467467308" r="2" style="fill: steelblue;"></circle><circle cx="65.71593061089516" cy="34.28406938910484" r="2" style="fill: steelblue;"></circle><circle cx="18.917269259691242" cy="81.08273074030876" r="2" style="fill: steelblue;"></circle><circle cx="33.5004098713398" cy="66.4995901286602" r="2" style="fill: steelblue;"></circle><circle cx="45.34581741318107" cy="54.65418258681893" r="2" style="fill: steelblue;"></circle><circle cx="63.67304474115372" cy="36.32695525884628" r="2" style="fill: steelblue;"></circle><circle cx="42.027982138097286" cy="57.972017861902714" r="2" style="fill: steelblue;"></circle><circle cx="58.376057259738445" cy="41.623942740261555" r="2" style="fill: steelblue;"></circle><circle cx="64.22889903187752" cy="35.77110096812248" r="2" style="fill: steelblue;"></circle><circle cx="69.90986801683903" cy="30.090131983160973" r="2" style="fill: steelblue;"></circle><circle cx="54.28480142727494" cy="45.71519857272506" r="2" style="fill: steelblue;"></circle><circle cx="74.27899092435837" cy="25.721009075641632" r="2" style="fill: steelblue;"></circle><circle cx="73.97123351693153" cy="26.028766483068466" r="2" style="fill: steelblue;"></circle><circle cx="27.378983050584793" cy="72.6210169494152" r="2" style="fill: steelblue;"></circle><circle cx="51.8913249950856" cy="48.1086750049144" r="2" style="fill: steelblue;"></circle><circle cx="89.81607779860497" cy="10.183922201395035" r="2" style="fill: steelblue;"></circle><circle cx="81.33978322148323" cy="18.66021677851677" r="2" style="fill: steelblue;"></circle><circle cx="69.05936561524868" cy="30.94063438475132" r="2" style="fill: steelblue;"></circle><circle cx="54.89205401390791" cy="45.10794598609209" r="2" style="fill: steelblue;"></circle><circle cx="51.31194852292538" cy="48.68805147707462" r="2" style="fill: steelblue;"></circle><circle cx="55.06521062925458" cy="44.93478937074542" r="2" style="fill: steelblue;"></circle><circle cx="82.90662169456482" cy="17.09337830543518" r="2" style="fill: steelblue;"></circle><circle cx="42.18062777072191" cy="57.81937222927809" r="2" style="fill: steelblue;"></circle><circle cx="28.59293781220913" cy="71.40706218779087" r="2" style="fill: steelblue;"></circle><circle cx="69.98423598706722" cy="30.015764012932777" r="2" style="fill: steelblue;"></circle><circle cx="50.787099183071405" cy="49.212900816928595" r="2" style="fill: steelblue;"></circle><circle cx="51.73828238621354" cy="48.26171761378646" r="2" style="fill: steelblue;"></circle><circle cx="75.04291012883186" cy="24.957089871168137" r="2" style="fill: steelblue;"></circle><circle cx="72.79597707092762" cy="27.20402292907238" r="2" style="fill: steelblue;"></circle><circle cx="78.51827442646027" cy="21.481725573539734" r="2" style="fill: steelblue;"></circle><circle cx="31.08302243053913" cy="68.91697756946087" r="2" style="fill: steelblue;"></circle><circle cx="36.96125391870737" cy="63.03874608129263" r="2" style="fill: steelblue;"></circle><circle cx="46.92488578148186" cy="53.07511421851814" r="2" style="fill: steelblue;"></circle><circle cx="21.539709717035297" cy="78.4602902829647" r="2" style="fill: steelblue;"></circle><circle cx="25.835436955094337" cy="74.16456304490566" r="2" style="fill: steelblue;"></circle><circle cx="43.18147636950016" cy="56.81852363049984" r="2" style="fill: steelblue;"></circle><circle cx="44.12336014211178" cy="55.87663985788822" r="2" style="fill: steelblue;"></circle></g></svg>