<svg xmlns="http://www.w3.org/2000/svg"><g><circle cx="25.30322819948197" cy="180.89669942855835" r="2" style="fill: steelblue;"></circle><circle cx="22.168336808681495" cy="139.41502571105957" r="2" style="fill: steelblue;"></circle><circle cx="81.58187977969646" cy="159.25151109695435" r="2" style="fill: steelblue;"></circle><circle cx="68.14857423305511" cy="147.37480216556125" r="2" style="fill: steelblue;"></circle><circle cx="49.75865632295609" cy="124.13092702627182" r="2" style="fill: steelblue;"></circle><circle cx="20.62747478485108" cy="135.56754257943894" r="2" style="fill: steelblue;"></circle><circle cx="81.08974099159241" cy="117.12964127461115" r="2" style="fill: steelblue;"></circle><circle cx="173.45454394817352" cy="137.4452147218916" r="2" style="fill: steelblue;"></circle><circle cx="135.86376458406448" cy="115.07642848624124" r="2" style="fill: steelblue;"></circle><circle cx="99.95662644505501" cy="130.84760804971057" r="2" style="fill: steelblue;"></circle><circle cx="78.96265424787998" cy="173.16291067335342" r="2" style="fill: steelblue;"></circle><circle cx="37.81262263655663" cy="103.6461086736785" r="2" style="fill: steelblue;"></circle><circle cx="112.8625575453043" cy="177.11300320095486" r="2" style="fill: steelblue;"></circle><circle cx="140.49724712967873" cy="113.56098970605268" r="2" style="fill: steelblue;"></circle><circle cx="98.35426930803806" cy="150.38981702592636" r="2" style="fill: steelblue;"></circle><circle cx="110.9321866184473" cy="186.97644604576956" r="2" style="fill: steelblue;"></circle><circle cx="53.03620025515556" cy="81.341952085495" r="2" style="fill: steelblue;"></circle><circle cx="56.00029081106186" cy="102.42517126931085" r="2" style="fill: steelblue;"></circle><circle cx="134.50002893805504" cy="119.01180197795232" r="2" style="fill: steelblue;"></circle><circle cx="76.11411847174168" cy="92.36619538731046" r="2" style="fill: steelblue;"></circle><circle cx="109.23390034586191" cy="101.03337963422139" r="2" style="fill: steelblue;"></circle><circle cx="80.9476938098669" cy="103.8846191432741" r="2" style="fill: steelblue;"></circle><circle cx="86.98403220623732" cy="82.64194263352287" r="2" style="fill: steelblue;"></circle><circle cx="100.7271563517861" cy="121.67563620540831" r="2" style="fill: steelblue;"></circle><circle cx="122.89046160876751" cy="155.21819392840067" r="2" style="fill: steelblue;"></circle><circle cx="38.38219344615937" cy="144.14273699124652" r="2" style="fill: steelblue;"></circle><circle cx="65.37969261407852" cy="190.30045138465033" r="2" style="fill: steelblue;"></circle><circle cx="75.81806965172291" cy="180.0208290417989" r="2" style="fill: steelblue;"></circle><circle cx="4.262259602546697" cy="132.74640672736697" r="2" style="fill: steelblue;"></circle><circle cx="81.88492469489574" cy="78.69887683126662" r="2" style="fill: steelblue;"></circle><circle cx="108.77795834094286" cy="94.40757168663872" r="2" style="fill: steelblue;"></circle><circle cx="142.9108776152134" cy="45.527100563049316" r="2" style="fill: steelblue;"></circle><circle cx="164.8997724056244" cy="104.89803966548708" r="2" style="fill: steelblue;"></circle><circle cx="131.4583256840706" cy="96.74288001325395" r="2" style="fill: steelblue;"></circle><circle cx="123.0853296816349" cy="108.97899025844202" r="2" style="fill: steelblue;"></circle><circle cx="78.02427597343922" cy="48.88705412546794" r="2" style="fill: steelblue;"></circle><circle cx="68.49755197763443" cy="115.4730228914155" r="2" style="fill: steelblue;"></circle><circle cx="77.97369584441185" cy="168.53408681021796" r="2" style="fill: steelblue;"></circle><circle cx="39.637228846549995" cy="150.86933308177524" r="2" style="fill: steelblue;"></circle><circle cx="9.655578434467321" cy="110.97039124514494" r="2" style="fill: steelblue;"></circle><circle cx="76.41313262283802" cy="168.81165239546036" r="2" style="fill: steelblue;"></circle><circle cx="148.3274757862091" cy="179.29303646087646" r="2" style="fill: steelblue;"></circle><circle cx="131.769011169672" cy="114.6238177186913" r="2" style="fill: steelblue;"></circle><circle cx="158.7681122124195" cy="32.85303380754259" r="2" style="fill: steelblue;"></circle><circle cx="149.69916865229607" cy="114.73294720053673" r="2" style="fill: steelblue;"></circle><circle cx="135.6634184718132" cy="115.1001039478514" r="2" style="fill: steelblue;"></circle><circle cx="156.38791620731354" cy="135.0278208653132" r="2" style="fill: steelblue;"></circle><circle cx="19.18545216321946" cy="172.93073733647662" r="2" style="fill: steelblue;"></circle><circle cx="111.01572904735804" cy="94.53726145956252" r="2" style="fill: steelblue;"></circle><circle cx="36.743311583995826" cy="182.67354038026596" r="2" style="fill: steelblue;"></circle><circle cx="13.893736898899084" cy="89.97031218475766" r="2" style="fill: steelblue;"></circle><circle cx="14.06970471143723" cy="126.94882187578412" r="2" style="fill: steelblue;"></circle><circle cx="92.38093011081219" cy="121.02423525518842" r="2" style="fill: steelblue;"></circle><circle cx="105.59094548225403" cy="79.88827096091376" r="2" style="fill: steelblue;"></circle><circle cx="75.3787312656641" cy="141.96428325441147" r="2" style="fill: steelblue;"></circle><circle cx="3.1517431139946037" cy="146.7640267478095" r="2" style="fill: steelblue;"></circle><circle cx="95.34970941022038" cy="79.18138305346172" r="2" style="fill: steelblue;"></circle><circle cx="90.42527936398983" cy="141.7598161432478" r="2" style="fill: steelblue;"></circle><circle cx="80.1378920674324" cy="105.35041077269449" r="2" style="fill: steelblue;"></circle><circle cx="38.949320465326316" cy="122.54785663551755" r="2" style="fill: steelblue;"></circle><circle cx="132.0902317762375" cy="115.73247073425188" r="2" style="fill: steelblue;"></circle><circle cx="35.61839312314988" cy="116.00399431255128" r="2" style="fill: steelblue;"></circle><circle cx="19.780455529689796" cy="193.34289762708877" r="2" style="fill: steelblue;"></circle><circle cx="53.8276381790638" cy="186.7319477929009" r="2" style="fill: steelblue;"></circle><circle cx="49.10646602511407" cy="173.22464783986408" r="2" style="fill: steelblue;"></circle><circle cx="11.90256923437119" cy="133.01935129695468" r="2" style="fill: steelblue;"></circle><circle cx="29.519996047019966" cy="168.4504747390747" r="2" style="fill: steelblue;"></circle><circle cx="130.90598993003368" cy="108.75815235906177" r="2" style="fill: steelblue;"></circle><circle cx="1.249468326568609" cy="187.36720747417874" r="2" style="fill: steelblue;"></circle><circle cx="102.03495752066374" cy="185.3552328215705" r="2" style="fill: steelblue;"></circle><circle cx="61.99754625558853" cy="131.68361286322275" r="2" style="fill: steelblue;"></circle><circle cx="139.89021852612495" cy="97.16001980834537" r="2" style="fill: steelblue;"></circle><circle cx="158.21043252944946" cy="55.41325940026176" r="2" style="fill: steelblue;"></circle><circle cx="151.53675377368927" cy="72.72433903482225" r="2" style="fill: steelblue;"></circle><circle cx="156.22746422886848" cy="71.7564324537913" r="2" style="fill: steelblue;"></circle><circle cx="171.81689143180847" cy="109.8359323417147" r="2" style="fill: steelblue;"></circle><circle cx="120.65936475992203" cy="168.33925909466214" r="2" style="fill: steelblue;"></circle><circle cx="129.04046699404716" cy="63.17894326315985" r="2" style="fill: steelblue;"></circle><circle cx="126.11209452152252" cy="88.38724096616109" r="2" style="fill: steelblue;"></circle><circle cx="174.77576285600662" cy="101.41965415742662" r="2" style="fill: steelblue;"></circle><circle cx="167.37105548381805" cy="24.18049176534016" r="2" style="fill: steelblue;"></circle><circle cx="193.73819082975388" cy="34.93458032608032" r="2" style="fill: steelblue;"></circle><circle cx="178.94038408994675" cy="45.6834700372484" r="2" style="fill: steelblue;"></circle><circle cx="92.26798862218857" cy="128.20819682545132" r="2" style="fill: steelblue;"></circle><circle cx="52.40611955523491" cy="124.59969520568848" r="2" style="fill: steelblue;"></circle><circle cx="46.07025384902955" cy="108.4327803303798" r="2" style="fill: steelblue;"></circle><circle cx="88.32819703966379" cy="101.39068878359265" r="2" style="fill: steelblue;"></circle><circle cx="89.25452027469873" cy="155.92513812912836" r="2" style="fill: steelblue;"></circle><circle cx="76.34582035243511" cy="160.8877182006836" r="2" style="fill: steelblue;"></circle><circle cx="150.01036077737808" cy="50.25749074088202" r="2" style="fill: steelblue;"></circle><circle cx="122.52707444131374" cy="142.09674133194818" r="2" style="fill: steelblue;"></circle><circle cx="192.8347408771515" cy="97.46752844916449" r="2" style="fill: steelblue;"></circle><circle cx="112.15313002467155" cy="18.678380383385562" r="2" style="fill: steelblue;"></circle><circle cx="187.94615417718887" cy="111.62587467374073" r="2" style="fill: steelblue;"></circle><circle cx="146.47845402359962" cy="94.69299183951483" r="2" style="fill: steelblue;"></circle><circle cx="198.87941926717758" cy="44.12002033657498" r="2" style="fill: steelblue;"></circle><circle cx="106.99724955484271" cy="32.57432911131117" r="2" style="fill: steelblue;"></circle><circle cx="112.2781340032816" cy="107.55318072107103" r="2" style="fill: steelblue;"></circle><circle cx="120.68202011287212" cy="152.97395322057938" r="2" style="fill: steelblue;"></circle><circle cx="128.69689278304577" cy="119.34215492672391" r="2" style="fill: steelblue;"></circle><circle cx="128.42485159635544" cy="59.779895676506875" r="2" style="fill: steelblue;"></circle><circle cx="153.3897876739502" cy="70.60313887066312" r="2" style="fill: steelblue;"></circle><circle cx="97.33261833898723" cy="44.35558451546564" r="2" style="fill: steelblue;"></circle><circle cx="141.25871136784554" cy="53.84543206956651" r="2" style="fill: steelblue;"></circle><circle cx="122.60256186127663" cy="55.70518308215671" r="2" style="fill: steelblue;"></circle><circle cx="17.02623665332795" cy="81.55242270893521" r="2" style="fill: steelblue;"></circle><circle cx="121.68139815330505" cy="106.63114281164275" r="2" style="fill: steelblue;"></circle><circle cx="55.4317444562912" cy="70.51023840904236" r="2" style="fill: steelblue;"></circle><circle cx="101.58308551181108" cy="107.37825557589531" r="2" style="fill: steelblue;"></circle><circle cx="159.07607078552246" cy="84.39837065007951" r="2" style="fill: steelblue;"></circle><circle cx="118.94950307905674" cy="89.0462961461809" r="2" style="fill: steelblue;"></circle><circle cx="132.95357897877693" cy="61.055309242672394" r="2" style="fill: steelblue;"></circle><circle cx="51.133400201797485" cy="121.75734258360333" r="2" style="fill: steelblue;"></circle><circle cx="34.315592050552375" cy="159.98183025254144" r="2" style="fill: steelblue;"></circle><circle cx="101.00572477094829" cy="117.43898689746857" r="2" style="fill: steelblue;"></circle><circle cx="61.38085797429085" cy="87.77830998102824" r="2" style="fill: steelblue;"></circle><circle cx="28.947769105434425" cy="93.7491837475035" r="2" style="fill: steelblue;"></circle><circle cx="66.18926525115967" cy="160.92434856626724" r="2" style="fill: steelblue;"></circle></g></svg>