<svg xmlns="http://www.w3.org/2000/svg"><rect width="200" height="200" fill="white"></rect><g><circle cx="19.103300571441657" cy="136.80867552757263" r="2" style="fill: steelblue;"></circle><circle cx="60.58497428894043" cy="171.27264075809055" r="2" style="fill: steelblue;"></circle><circle cx="40.74848890304566" cy="119.51622234450446" r="2" style="fill: steelblue;"></circle><circle cx="52.62519783443875" cy="72.50987357563443" r="2" style="fill: steelblue;"></circle><circle cx="75.86907297372818" cy="136.12832493252225" r="2" style="fill: steelblue;"></circle><circle cx="64.43245742056105" cy="128.4720950656467" r="2" style="fill: steelblue;"></circle><circle cx="82.87035872538885" cy="63.96485732661355" r="2" style="fill: steelblue;"></circle><circle cx="62.55478527810839" cy="93.93101301458147" r="2" style="fill: steelblue;"></circle><circle cx="84.92357151375877" cy="94.59801796409819" r="2" style="fill: steelblue;"></circle><circle cx="69.15239195028941" cy="56.690280967288544" r="2" style="fill: steelblue;"></circle><circle cx="26.837089326646595" cy="107.51583543088701" r="2" style="fill: steelblue;"></circle><circle cx="96.35389132632149" cy="69.99235881699457" r="2" style="fill: steelblue;"></circle><circle cx="22.886996799045143" cy="124.58256747987535" r="2" style="fill: steelblue;"></circle><circle cx="86.43901029394733" cy="144.2462424437205" r="2" style="fill: steelblue;"></circle><circle cx="49.61018297407362" cy="83.6058047082689" r="2" style="fill: steelblue;"></circle><circle cx="13.023553954230419" cy="37.4908102883233" r="2" style="fill: steelblue;"></circle><circle cx="118.658047914505" cy="168.66012944115533" r="2" style="fill: steelblue;"></circle><circle cx="97.57482873068916" cy="153.44991816414728" r="2" style="fill: steelblue;"></circle><circle cx="80.98819802204768" cy="65.25600320763058" r="2" style="fill: steelblue;"></circle><circle cx="107.63380461268954" cy="93.9514524406857" r="2" style="fill: steelblue;"></circle><circle cx="98.96662036577861" cy="57.981529500749375" r="2" style="fill: steelblue;"></circle><circle cx="96.1153808567259" cy="102.16045743889279" r="2" style="fill: steelblue;"></circle><circle cx="117.35805736647713" cy="49.427921904457946" r="2" style="fill: steelblue;"></circle><circle cx="78.32436379459169" cy="102.72984074221716" r="2" style="fill: steelblue;"></circle><circle cx="44.78180607159933" cy="39.02061316702101" r="2" style="fill: steelblue;"></circle><circle cx="55.85726300875346" cy="94.14812872807185" r="2" style="fill: steelblue;"></circle><circle cx="9.699548615349668" cy="141.4165516694387" r="2" style="fill: steelblue;"></circle><circle cx="19.979170958201095" cy="92.78519774476688" r="2" style="fill: steelblue;"></circle><circle cx="67.25359327263303" cy="125.21845300992331" r="2" style="fill: steelblue;"></circle><circle cx="121.30112316873338" cy="124.70953199598524" r="2" style="fill: steelblue;"></circle><circle cx="105.59242831336128" cy="57.784615622626426" r="2" style="fill: steelblue;"></circle><circle cx="154.47289943695068" cy="75.88819613059361" r="2" style="fill: steelblue;"></circle><circle cx="95.10196033451292" cy="91.3057144317362" r="2" style="fill: steelblue;"></circle><circle cx="103.25711998674605" cy="105.8055794901318" r="2" style="fill: steelblue;"></circle><circle cx="91.02100974155796" cy="68.34153532981873" r="2" style="fill: steelblue;"></circle><circle cx="151.11294587453204" cy="135.58879031075372" r="2" style="fill: steelblue;"></circle><circle cx="84.52697710858452" cy="29.966624577840186" r="2" style="fill: steelblue;"></circle><circle cx="31.46591318978204" cy="105.34980263974931" r="2" style="fill: steelblue;"></circle><circle cx="49.13066691822476" cy="75.38028342856302" r="2" style="fill: steelblue;"></circle><circle cx="89.02960875485506" cy="59.82101162274678" r="2" style="fill: steelblue;"></circle><circle cx="31.18834760453966" cy="79.0920012527042" r="2" style="fill: steelblue;"></circle><circle cx="20.706963539123542" cy="24.369708697001148" r="2" style="fill: steelblue;"></circle><circle cx="85.37618228130872" cy="44.576070706049606" r="2" style="fill: steelblue;"></circle><circle cx="167.14696619245743" cy="80.5758406718572" r="2" style="fill: steelblue;"></circle><circle cx="85.26705279946327" cy="62.48087220721774" r="2" style="fill: steelblue;"></circle><circle cx="84.8998960521486" cy="53.67016990979512" r="2" style="fill: steelblue;"></circle><circle cx="64.9721791346868" cy="90.16305779417355" r="2" style="fill: steelblue;"></circle><circle cx="27.069262663523357" cy="133.89581309424506" r="2" style="fill: steelblue;"></circle><circle cx="105.46273854043748" cy="115.4924237065845" r="2" style="fill: steelblue;"></circle><circle cx="17.326459619734027" cy="139.8550060060289" r="2" style="fill: steelblue;"></circle><circle cx="110.02968781524234" cy="113.63581518332164" r="2" style="fill: steelblue;"></circle><circle cx="73.05117812421588" cy="74.24228423171573" r="2" style="fill: steelblue;"></circle><circle cx="78.9757647448116" cy="76.50684846772089" r="2" style="fill: steelblue;"></circle><circle cx="120.11172903908624" cy="105.22088441583846" r="2" style="fill: steelblue;"></circle><circle cx="58.035716745588516" cy="25.60985618167453" r="2" style="fill: steelblue;"></circle><circle cx="53.23597325219048" cy="93.70045728153653" r="2" style="fill: steelblue;"></circle><circle cx="120.81861694653828" cy="102.45471977525287" r="2" style="fill: steelblue;"></circle><circle cx="58.24018385675219" cy="107.56615002950033" r="2" style="fill: steelblue;"></circle><circle cx="94.64958922730553" cy="159.12854539023505" r="2" style="fill: steelblue;"></circle><circle cx="77.45214336448247" cy="145.82280185487534" r="2" style="fill: steelblue;"></circle><circle cx="84.26752926574814" cy="141.98575615882874" r="2" style="fill: steelblue;"></circle><circle cx="83.99600568744872" cy="113.05637856324515" r="2" style="fill: steelblue;"></circle><circle cx="6.657102372911246" cy="100.53409669134352" r="2" style="fill: steelblue;"></circle><circle cx="13.268052207099071" cy="120.83014713393317" r="2" style="fill: steelblue;"></circle><circle cx="26.775352160135906" cy="181.52777221467758" r="2" style="fill: steelblue;"></circle><circle cx="66.98064870304532" cy="145.61107291115655" r="2" style="fill: steelblue;"></circle><circle cx="31.5495252609253" cy="133.10161431630453" r="2" style="fill: steelblue;"></circle><circle cx="91.24184764093823" cy="147.13140196270413" r="2" style="fill: steelblue;"></circle><circle cx="12.632792525821266" cy="168.40752495659723" r="2" style="fill: steelblue;"></circle><circle cx="14.644767178429502" cy="133.76825584305658" r="2" style="fill: steelblue;"></circle><circle cx="68.31638713677725" cy="126.06872320175171" r="2" style="fill: steelblue;"></circle><circle cx="102.83998019165463" cy="34.75203646553888" r="2" style="fill: steelblue;"></circle><circle cx="144.58674059973825" cy="132.47027860747443" r="2" style="fill: steelblue;"></circle><circle cx="127.27566096517775" cy="49.12252426147461" r="2" style="fill: steelblue;"></circle><circle cx="128.24356754620868" cy="81.54168095853593" r="2" style="fill: steelblue;"></circle><circle cx="90.1640676582853" cy="109.64849458800421" r="2" style="fill: steelblue;"></circle><circle cx="31.66074090533787" cy="119.21808984544542" r="2" style="fill: steelblue;"></circle><circle cx="136.82105673684015" cy="133.2753088739183" r="2" style="fill: steelblue;"></circle><circle cx="111.61275903383891" cy="63.18354143036737" r="2" style="fill: steelblue;"></circle><circle cx="98.58034584257338" cy="88.99962600165357" r="2" style="fill: steelblue;"></circle><circle cx="175.81950823465985" cy="41.00888503922357" r="2" style="fill: steelblue;"></circle><circle cx="165.06541967391968" cy="7.125363085005021" r="2" style="fill: steelblue;"></circle><circle cx="154.31652996275162" cy="89.32848411301772" r="2" style="fill: steelblue;"></circle><circle cx="71.79180317454869" cy="107.84410470061832" r="2" style="fill: steelblue;"></circle><circle cx="75.40030479431152" cy="98.4819758269522" r="2" style="fill: steelblue;"></circle><circle cx="91.5672196696202" cy="100.78424496783151" r="2" style="fill: steelblue;"></circle><circle cx="98.60931121640736" cy="108.61975484424167" r="2" style="fill: steelblue;"></circle><circle cx="44.07486187087165" cy="127.89697315957811" r="2" style="fill: steelblue;"></circle><circle cx="39.11228179931641" cy="63.45937351385753" r="2" style="fill: steelblue;"></circle><circle cx="149.74250925911798" cy="70.12225886185963" r="2" style="fill: steelblue;"></circle><circle cx="57.903258668051826" cy="113.24866149160597" r="2" style="fill: steelblue;"></circle><circle cx="102.53247155083551" cy="75.29709190130234" r="2" style="fill: steelblue;"></circle><circle cx="181.32161961661444" cy="57.421096828248764" r="2" style="fill: steelblue;"></circle><circle cx="88.37412532625926" cy="38.32558658387926" r="2" style="fill: steelblue;"></circle><circle cx="105.30700816048517" cy="46.5878168741862" r="2" style="fill: steelblue;"></circle><circle cx="155.87997966342502" cy="104.10737527741327" r="2" style="fill: steelblue;"></circle><circle cx="167.4256708886888" cy="1.6599681642320396" r="2" style="fill: steelblue;"></circle><circle cx="92.44681927892897" cy="105.31781646940443" r="2" style="fill: steelblue;"></circle><circle cx="47.026046779420646" cy="53.66595453686185" r="2" style="fill: steelblue;"></circle><circle cx="80.6578450732761" cy="152.74982849756879" r="2" style="fill: steelblue;"></circle><circle cx="140.22010432349313" cy="106.54763413800134" r="2" style="fill: steelblue;"></circle><circle cx="129.39686112933688" cy="106.65627519289653" r="2" style="fill: steelblue;"></circle><circle cx="155.64441548453436" cy="54.28039564026727" r="2" style="fill: steelblue;"></circle><circle cx="146.1545679304335" cy="45.71413199106853" r="2" style="fill: steelblue;"></circle><circle cx="144.2948169178433" cy="170.73077493243747" r="2" style="fill: steelblue;"></circle><circle cx="118.44757729106479" cy="37.54854732089572" r="2" style="fill: steelblue;"></circle><circle cx="93.36885718835724" cy="86.74623850319121" r="2" style="fill: steelblue;"></circle><circle cx="129.48976159095764" cy="73.85732928911845" r="2" style="fill: steelblue;"></circle><circle cx="92.62174442410469" cy="75.7575187418196" r="2" style="fill: steelblue;"></circle><circle cx="115.60162934992049" cy="23.925985230339908" r="2" style="fill: steelblue;"></circle><circle cx="110.9537038538191" cy="122.76606957117717" r="2" style="fill: steelblue;"></circle><circle cx="138.9446907573276" cy="85.95727417204115" r="2" style="fill: steelblue;"></circle><circle cx="78.24265741639668" cy="127.3470573955112" r="2" style="fill: steelblue;"></circle><circle cx="40.018169747458565" cy="154.67272731992935" r="2" style="fill: steelblue;"></circle><circle cx="82.56101310253143" cy="155.52216635810004" r="2" style="fill: steelblue;"></circle><circle cx="112.22169001897176" cy="142.5587256749471" r="2" style="fill: steelblue;"></circle><circle cx="106.2508162524965" cy="128.1122088432312" r="2" style="fill: steelblue;"></circle><circle cx="39.07565143373278" cy="120.34476002057394" r="2" style="fill: steelblue;"></circle></g></svg>