<svg xmlns="http://www.w3.org/2000/svg"><g transform="translate(40,20)"><circle cx="430.94471141695976" cy="156.47526495158672" r="3" style="fill: steelblue;"></circle><circle cx="223.58364544808865" cy="99.75470826029778" r="3" style="fill: steelblue;"></circle><circle cx="266.9570743152872" cy="81.86119645833969" r="3" style="fill: steelblue;"></circle><circle cx="478.67796689271927" cy="161.92405298352242" r="3" style="fill: steelblue;"></circle><circle cx="402.8821901232004" cy="138.30404840409756" r="3" style="fill: steelblue;"></circle><circle cx="374.0583472698927" cy="132.44999460875988" r="3" style="fill: steelblue;"></circle><circle cx="323.22694927453995" cy="112.57060468196869" r="3" style="fill: steelblue;"></circle><circle cx="439.6928232908249" cy="73.49352538585663" r="3" style="fill: steelblue;"></circle><circle cx="384.8794010281563" cy="71.5974435210228" r="3" style="fill: steelblue;"></circle><circle cx="356.526607722044" cy="95.12451216578484" r="3" style="fill: steelblue;"></circle><circle cx="517.1600353717804" cy="129.83569651842117" r="3" style="fill: steelblue;"></circle><circle cx="407.51527704298496" cy="68.6019018292427" r="3" style="fill: steelblue;"></circle><circle cx="387.8529817610979" cy="234.1407373547554" r="3" style="fill: steelblue;"></circle><circle cx="325.1046447828412" cy="122.2244992852211" r="3" style="fill: steelblue;"></circle><circle cx="314.7851222008467" cy="166.80122269317508" r="3" style="fill: steelblue;"></circle><circle cx="290.7482466939837" cy="192.9009098559618" r="3" style="fill: steelblue;"></circle><circle cx="105.62315069139005" cy="181.76303328946233" r="3" style="fill: steelblue;"></circle><circle cx="312.3934534192085" cy="227.10238471627235" r="3" style="fill: steelblue;"></circle><circle cx="432.24529780447483" cy="105.76800927519798" r="3" style="fill: steelblue;"></circle><circle cx="162.8848497569561" cy="150.5058828741312" r="3" style="fill: steelblue;"></circle><circle cx="451.5317250788212" cy="202.80740223824978" r="3" style="fill: steelblue;"></circle><circle cx="102.98449069261552" cy="205.62192499637604" r="3" style="fill: steelblue;"></circle><circle cx="493.7201504409313" cy="173.87703930726275" r="3" style="fill: steelblue;"></circle><circle cx="485.28159230947495" cy="140.8002644777298" r="3" style="fill: steelblue;"></circle><circle cx="377.71712847054005" cy="93.87668967247009" r="3" style="fill: steelblue;"></circle><circle cx="142.73486852645874" cy="123.69115501642227" r="3" style="fill: steelblue;"></circle><circle cx="311.24586107209325" cy="241.6727177798748" r="3" style="fill: steelblue;"></circle><circle cx="381.80688701570034" cy="74.36216175556183" r="3" style="fill: steelblue;"></circle><circle cx="207.26089149713516" cy="187.47574891895056" r="3" style="fill: steelblue;"></circle><circle cx="257.27672612294555" cy="224.55556094646454" r="3" style="fill: steelblue;"></circle><circle cx="271.89825731213205" cy="216.82740300893784" r="3" style="fill: steelblue;"></circle><circle cx="217.67035525292158" cy="122.60991781949997" r="3" style="fill: steelblue;"></circle><circle cx="334.72459863871336" cy="203.92303243279457" r="3" style="fill: steelblue;"></circle><circle cx="360.8523738384247" cy="217.40197129547596" r="3" style="fill: steelblue;"></circle><circle cx="287.32166977599263" cy="142.81093403697014" r="3" style="fill: steelblue;"></circle><circle cx="260.95971069764346" cy="246.84790819883347" r="3" style="fill: steelblue;"></circle><circle cx="170.55870674550533" cy="231.23050928115845" r="3" style="fill: steelblue;"></circle><circle cx="356.695234850049" cy="214.558195322752" r="3" style="fill: steelblue;"></circle><circle cx="230.44636219739914" cy="297.8746101260185" r="3" style="fill: steelblue;"></circle><circle cx="285.75943725183606" cy="125.89400708675385" r="3" style="fill: steelblue;"></circle><circle cx="325.7965088635683" cy="141.5440570563078" r="3" style="fill: steelblue;"></circle><circle cx="324.46052234619856" cy="222.46612310409546" r="3" style="fill: steelblue;"></circle><circle cx="200.38968052715063" cy="248.24314936995506" r="3" style="fill: steelblue;"></circle><circle cx="225.63425794243813" cy="222.19403013586998" r="3" style="fill: steelblue;"></circle><circle cx="207.11674623191357" cy="205.2126720547676" r="3" style="fill: steelblue;"></circle><circle cx="208.19026686251163" cy="288.1643369793892" r="3" style="fill: steelblue;"></circle><circle cx="25.122973769903197" cy="157.86169730126858" r="3" style="fill: steelblue;"></circle><circle cx="272.16984873404726" cy="253.66368293762207" r="3" style="fill: steelblue;"></circle><circle cx="116.3048066943884" cy="189.65745512396097" r="3" style="fill: steelblue;"></circle><circle cx="203.83129835128784" cy="212.93423771858215" r="3" style="fill: steelblue;"></circle><circle cx="239.8070260696113" cy="211.41509674489498" r="3" style="fill: steelblue;"></circle><circle cx="305.4322283528745" cy="185.55966075509787" r="3" style="fill: steelblue;"></circle><circle cx="247.8633115813136" cy="146.89830280840397" r="3" style="fill: steelblue;"></circle><circle cx="385.9077700227499" cy="270.29723078012466" r="3" style="fill: steelblue;"></circle><circle cx="35.84098041057588" cy="203.21330167353153" r="3" style="fill: steelblue;"></circle><circle cx="148.3295776695013" cy="195.77873460948467" r="3" style="fill: steelblue;"></circle><circle cx="206.70469354838133" cy="221.39597907662392" r="3" style="fill: steelblue;"></circle><circle cx="190.7656480371952" cy="324.6814340353012" r="3" style="fill: steelblue;"></circle><circle cx="178.37616585195065" cy="169.44054821506143" r="3" style="fill: steelblue;"></circle><circle cx="179.28947813808918" cy="187.18181904405355" r="3" style="fill: steelblue;"></circle><circle cx="399.3556250631809" cy="71.7078223824501" r="3" style="fill: steelblue;"></circle><circle cx="321.90892182290554" cy="128.67842391133308" r="3" style="fill: steelblue;"></circle><circle cx="442.9997053742409" cy="158.66084229201078" r="3" style="fill: steelblue;"></circle><circle cx="400.5614322423935" cy="95.58674842119217" r="3" style="fill: steelblue;"></circle><circle cx="483.22887763381004" cy="74.20593947172165" r="3" style="fill: steelblue;"></circle><circle cx="445.95068514347076" cy="86.084945499897" r="3" style="fill: steelblue;"></circle><circle cx="180.77511683106422" cy="141.12004190683365" r="3" style="fill: steelblue;"></circle><circle cx="462.86193922162056" cy="127.01105326414108" r="3" style="fill: steelblue;"></circle><circle cx="359.23791870474815" cy="62.33144998550415" r="3" style="fill: steelblue;"></circle><circle cx="485.15342965722084" cy="123.62873703241348" r="3" style="fill: steelblue;"></circle><circle cx="419.7638024389744" cy="130.13008534908295" r="3" style="fill: steelblue;"></circle><circle cx="295.76326048001647" cy="253.65152582526207" r="3" style="fill: steelblue;"></circle><circle cx="198.0259033665061" cy="149.50540624558926" r="3" style="fill: steelblue;"></circle><circle cx="130.25975011289123" cy="213.5876003652811" r="3" style="fill: steelblue;"></circle><circle cx="291.35722171515226" cy="174.67206606233958" r="3" style="fill: steelblue;"></circle><circle cx="147.66705863177776" cy="246.76069617271423" r="3" style="fill: steelblue;"></circle><circle cx="104.04446281492712" cy="172.44758906308562" r="3" style="fill: steelblue;"></circle><circle cx="5.957416892051712" cy="184.0205630287528" r="3" style="fill: steelblue;"></circle><circle cx="166.0275001823902" cy="175.01476220786572" r="3" style="fill: steelblue;"></circle><circle cx="41.362958103418364" cy="161.84867341071367" r="3" style="fill: steelblue;"></circle><circle cx="175.23734763264656" cy="178.08012254536152" r="3" style="fill: steelblue;"></circle><circle cx="245.22145304828882" cy="209.10356864333153" r="3" style="fill: steelblue;"></circle><circle cx="114.24717351794244" cy="225.99498182535172" r="3" style="fill: steelblue;"></circle><circle cx="307.0182713493705" cy="214.22485783696175" r="3" style="fill: steelblue;"></circle><circle cx="294.78557266294956" cy="212.23343051970005" r="3" style="fill: steelblue;"></circle><circle cx="408.94215524196625" cy="78.66848111152649" r="3" style="fill: steelblue;"></circle><circle cx="441.1099348962307" cy="125.69540441036224" r="3" style="fill: steelblue;"></circle><circle cx="306.33679496124387" cy="131.9915473461151" r="3" style="fill: steelblue;"></circle><circle cx="379.40790586173534" cy="116.96134582161903" r="3" style="fill: steelblue;"></circle><circle cx="448.9278566837311" cy="106.14504665136337" r="3" style="fill: steelblue;"></circle><circle cx="359.0481188893318" cy="163.5745583102107" r="3" style="fill: steelblue;"></circle><circle cx="225.92851303517818" cy="145.85131257772446" r="3" style="fill: steelblue;"></circle><circle cx="480.3238843381405" cy="154.28392849862576" r="3" style="fill: steelblue;"></circle><circle cx="398.7511423230171" cy="106.38980567455292" r="3" style="fill: steelblue;"></circle><circle cx="148.33185084164143" cy="232.81307220458984" r="3" style="fill: steelblue;"></circle><circle cx="136.343754529953" cy="193.01024563610554" r="3" style="fill: steelblue;"></circle><circle cx="90.68620696663858" cy="225.38369968533516" r="3" style="fill: steelblue;"></circle><circle cx="222.0558826625347" cy="228.14892902970314" r="3" style="fill: steelblue;"></circle><circle cx="151.9093007594347" cy="202.33653709292412" r="3" style="fill: steelblue;"></circle><circle cx="425.5464506149292" cy="244.73178833723068" r="3" style="fill: steelblue;"></circle><circle cx="382.05791160464287" cy="204.96333129703999" r="3" style="fill: steelblue;"></circle><circle cx="207.76500765234232" cy="225.6507858633995" r="3" style="fill: steelblue;"></circle><circle cx="208.86218033730984" cy="154.62770462036133" r="3" style="fill: steelblue;"></circle><circle cx="120.16689598560335" cy="236.2605758011341" r="3" style="fill: steelblue;"></circle><circle cx="212.97862350940704" cy="122.9314997792244" r="3" style="fill: steelblue;"></circle><circle cx="219.98209085315466" cy="188.29511012881994" r="3" style="fill: steelblue;"></circle><circle cx="419.5668411254883" cy="169.78297159075737" r="3" style="fill: steelblue;"></circle><circle cx="184.70134779810905" cy="133.0752618610859" r="3" style="fill: steelblue;"></circle><circle cx="426.77221342921257" cy="54.62832599878311" r="3" style="fill: steelblue;"></circle><circle cx="401.9947075098753" cy="169.24666743725538" r="3" style="fill: steelblue;"></circle><circle cx="325.11610619723797" cy="66.28896296024323" r="3" style="fill: steelblue;"></circle><circle cx="312.6005082204938" cy="23.92885833978653" r="3" style="fill: steelblue;"></circle><circle cx="109.53515924513341" cy="292.5366625189781" r="3" style="fill: steelblue;"></circle><circle cx="20.724546611309066" cy="252.2064983844757" r="3" style="fill: steelblue;"></circle><circle cx="158.2373694330454" cy="136.4907741546631" r="3" style="fill: steelblue;"></circle><circle cx="112.73457862436773" cy="309.5369890332222" r="3" style="fill: steelblue;"></circle><circle cx="139.84775885939598" cy="266.4896607398987" r="3" style="fill: steelblue;"></circle><circle cx="174.51532378792763" cy="234.6432365477085" r="3" style="fill: steelblue;"></circle></g></svg>