<svg xmlns="http://www.w3.org/2000/svg"><g><circle cx="25.30322819948197" cy="115.37778880447149" r="2" style="fill: steelblue;"></circle><circle cx="22.168336808681495" cy="173.67511093616486" r="2" style="fill: steelblue;"></circle><circle cx="81.58187977969646" cy="115.82488045096397" r="2" style="fill: steelblue;"></circle><circle cx="68.14857423305511" cy="178.16559821367264" r="2" style="fill: steelblue;"></circle><circle cx="49.75865632295609" cy="179.9657627940178" r="2" style="fill: steelblue;"></circle><circle cx="20.62747478485108" cy="173.96075129508972" r="2" style="fill: steelblue;"></circle><circle cx="81.08974099159241" cy="102.26579373702407" r="2" style="fill: steelblue;"></circle><circle cx="173.45454394817352" cy="58.460185676813126" r="2" style="fill: steelblue;"></circle><circle cx="135.86376458406448" cy="155.9089556336403" r="2" style="fill: steelblue;"></circle><circle cx="99.95662644505501" cy="118.50621029734612" r="2" style="fill: steelblue;"></circle><circle cx="78.96265424787998" cy="123.88618141412735" r="2" style="fill: steelblue;"></circle><circle cx="37.81262263655663" cy="143.13628748059273" r="2" style="fill: steelblue;"></circle><circle cx="112.8625575453043" cy="151.28495767712593" r="2" style="fill: steelblue;"></circle><circle cx="140.49724712967873" cy="123.17565679550171" r="2" style="fill: steelblue;"></circle><circle cx="98.35426930803806" cy="106.17336016148329" r="2" style="fill: steelblue;"></circle><circle cx="110.9321866184473" cy="118.2131752371788" r="2" style="fill: steelblue;"></circle><circle cx="53.03620025515556" cy="161.61541119217873" r="2" style="fill: steelblue;"></circle><circle cx="56.00029081106186" cy="114.70805518329144" r="2" style="fill: steelblue;"></circle><circle cx="134.50002893805504" cy="106.97519676759839" r="2" style="fill: steelblue;"></circle><circle cx="76.11411847174168" cy="117.5864938646555" r="2" style="fill: steelblue;"></circle><circle cx="109.23390034586191" cy="132.09390118718147" r="2" style="fill: steelblue;"></circle><circle cx="80.9476938098669" cy="120.23687958717346" r="2" style="fill: steelblue;"></circle><circle cx="86.98403220623732" cy="141.00307077169418" r="2" style="fill: steelblue;"></circle><circle cx="100.7271563517861" cy="104.09123627468944" r="2" style="fill: steelblue;"></circle><circle cx="122.89046160876751" cy="97.59935308247805" r="2" style="fill: steelblue;"></circle><circle cx="38.38219344615937" cy="130.27193807065487" r="2" style="fill: steelblue;"></circle><circle cx="65.37969261407852" cy="74.90089759230614" r="2" style="fill: steelblue;"></circle><circle cx="75.81806965172291" cy="68.64570304751396" r="2" style="fill: steelblue;"></circle><circle cx="4.262259602546697" cy="149.31556805968285" r="2" style="fill: steelblue;"></circle><circle cx="81.88492469489574" cy="78.20953652262688" r="2" style="fill: steelblue;"></circle><circle cx="108.77795834094286" cy="28.508006036281586" r="2" style="fill: steelblue;"></circle><circle cx="142.9108776152134" cy="45.98536565899849" r="2" style="fill: steelblue;"></circle><circle cx="164.8997724056244" cy="109.37447417527437" r="2" style="fill: steelblue;"></circle><circle cx="131.4583256840706" cy="71.94709070026875" r="2" style="fill: steelblue;"></circle><circle cx="123.0853296816349" cy="58.43995362520218" r="2" style="fill: steelblue;"></circle><circle cx="78.02427597343922" cy="7.152377068996429" r="2" style="fill: steelblue;"></circle><circle cx="68.49755197763443" cy="78.38064841926098" r="2" style="fill: steelblue;"></circle><circle cx="77.97369584441185" cy="84.14323106408119" r="2" style="fill: steelblue;"></circle><circle cx="39.637228846549995" cy="129.01457995176315" r="2" style="fill: steelblue;"></circle><circle cx="9.655578434467321" cy="186.0406905412674" r="2" style="fill: steelblue;"></circle><circle cx="76.41313262283802" cy="81.49811662733555" r="2" style="fill: steelblue;"></circle><circle cx="148.3274757862091" cy="17.313456535339355" r="2" style="fill: steelblue;"></circle><circle cx="131.769011169672" cy="7.6833575963974" r="2" style="fill: steelblue;"></circle><circle cx="158.7681122124195" cy="16.094571352005005" r="2" style="fill: steelblue;"></circle><circle cx="149.69916865229607" cy="124.61540512740612" r="2" style="fill: steelblue;"></circle><circle cx="135.6634184718132" cy="136.65856644511223" r="2" style="fill: steelblue;"></circle><circle cx="156.38791620731354" cy="134.7890369594097" r="2" style="fill: steelblue;"></circle><circle cx="19.18545216321946" cy="182.771897315979" r="2" style="fill: steelblue;"></circle><circle cx="111.01572904735804" cy="164.4030049443245" r="2" style="fill: steelblue;"></circle><circle cx="36.743311583995826" cy="138.83833065629005" r="2" style="fill: steelblue;"></circle><circle cx="13.893736898899084" cy="132.39575028419495" r="2" style="fill: steelblue;"></circle><circle cx="14.06970471143723" cy="139.00327533483505" r="2" style="fill: steelblue;"></circle><circle cx="92.38093011081219" cy="132.17055648565292" r="2" style="fill: steelblue;"></circle><circle cx="105.59094548225403" cy="151.48933455348015" r="2" style="fill: steelblue;"></circle><circle cx="75.3787312656641" cy="119.77555081248283" r="2" style="fill: steelblue;"></circle><circle cx="3.1517431139946037" cy="128.5269431769848" r="2" style="fill: steelblue;"></circle><circle cx="95.34970941022038" cy="90.97664467990398" r="2" style="fill: steelblue;"></circle><circle cx="90.42527936398983" cy="199.51037168502808" r="2" style="fill: steelblue;"></circle><circle cx="80.1378920674324" cy="132.45127573609352" r="2" style="fill: steelblue;"></circle><circle cx="38.949320465326316" cy="140.33630341291428" r="2" style="fill: steelblue;"></circle><circle cx="132.0902317762375" cy="140.93221575021744" r="2" style="fill: steelblue;"></circle><circle cx="35.61839312314988" cy="135.40511801838875" r="2" style="fill: steelblue;"></circle><circle cx="19.780455529689796" cy="179.88426089286804" r="2" style="fill: steelblue;"></circle><circle cx="53.8276381790638" cy="173.47530871629715" r="2" style="fill: steelblue;"></circle><circle cx="49.10646602511407" cy="100.3387063043192" r="2" style="fill: steelblue;"></circle><circle cx="11.90256923437119" cy="143.15825551748276" r="2" style="fill: steelblue;"></circle><circle cx="29.519996047019966" cy="104.29388415068388" r="2" style="fill: steelblue;"></circle><circle cx="130.90598993003368" cy="160.16386672854424" r="2" style="fill: steelblue;"></circle><circle cx="1.249468326568609" cy="163.410684466362" r="2" style="fill: steelblue;"></circle><circle cx="102.03495752066374" cy="68.40789541602135" r="2" style="fill: steelblue;"></circle><circle cx="61.99754625558853" cy="131.7189022898674" r="2" style="fill: steelblue;"></circle><circle cx="139.89021852612495" cy="58.567917346954346" r="2" style="fill: steelblue;"></circle><circle cx="158.21043252944946" cy="136.32736578583717" r="2" style="fill: steelblue;"></circle><circle cx="151.53675377368927" cy="40.465815365314484" r="2" style="fill: steelblue;"></circle><circle cx="156.22746422886848" cy="53.86308804154396" r="2" style="fill: steelblue;"></circle><circle cx="171.81689143180847" cy="108.745058439672" r="2" style="fill: steelblue;"></circle><circle cx="120.65936475992203" cy="53.773293644189835" r="2" style="fill: steelblue;"></circle><circle cx="129.04046699404716" cy="34.71328914165497" r="2" style="fill: steelblue;"></circle><circle cx="126.11209452152252" cy="50.80141723155975" r="2" style="fill: steelblue;"></circle><circle cx="174.77576285600662" cy="53.43466103076935" r="2" style="fill: steelblue;"></circle><circle cx="167.37105548381805" cy="11.194831132888794" r="2" style="fill: steelblue;"></circle><circle cx="193.73819082975388" cy="52.552150934934616" r="2" style="fill: steelblue;"></circle><circle cx="178.94038408994675" cy="68.56813877820969" r="2" style="fill: steelblue;"></circle><circle cx="92.26798862218857" cy="162.16546148061752" r="2" style="fill: steelblue;"></circle><circle cx="52.40611955523491" cy="132.9991802573204" r="2" style="fill: steelblue;"></circle><circle cx="46.07025384902955" cy="109.30836517363787" r="2" style="fill: steelblue;"></circle><circle cx="88.32819703966379" cy="72.65391051769257" r="2" style="fill: steelblue;"></circle><circle cx="89.25452027469873" cy="115.94403572380543" r="2" style="fill: steelblue;"></circle><circle cx="76.34582035243511" cy="83.24788548052311" r="2" style="fill: steelblue;"></circle><circle cx="150.01036077737808" cy="71.54220193624496" r="2" style="fill: steelblue;"></circle><circle cx="122.52707444131374" cy="60.180263966321945" r="2" style="fill: steelblue;"></circle><circle cx="192.8347408771515" cy="91.43039714545012" r="2" style="fill: steelblue;"></circle><circle cx="112.15313002467155" cy="51.442018151283264" r="2" style="fill: steelblue;"></circle><circle cx="187.94615417718887" cy="52.05753296613693" r="2" style="fill: steelblue;"></circle><circle cx="146.47845402359962" cy="145.2420338988304" r="2" style="fill: steelblue;"></circle><circle cx="198.87941926717758" cy="96.2173500098288" r="2" style="fill: steelblue;"></circle><circle cx="106.99724955484271" cy="20.36784440279007" r="2" style="fill: steelblue;"></circle><circle cx="112.2781340032816" cy="37.32043355703354" r="2" style="fill: steelblue;"></circle><circle cx="120.68202011287212" cy="61.88126876950264" r="2" style="fill: steelblue;"></circle><circle cx="128.69689278304577" cy="90.21589197218418" r="2" style="fill: steelblue;"></circle><circle cx="128.42485159635544" cy="97.37610295414925" r="2" style="fill: steelblue;"></circle><circle cx="153.3897876739502" cy="89.86957874149084" r="2" style="fill: steelblue;"></circle><circle cx="97.33261833898723" cy="34.18675661087036" r="2" style="fill: steelblue;"></circle><circle cx="141.25871136784554" cy="115.63874445855618" r="2" style="fill: steelblue;"></circle><circle cx="122.60256186127663" cy="142.81412437558174" r="2" style="fill: steelblue;"></circle><circle cx="17.02623665332795" cy="60.031528025865555" r="2" style="fill: steelblue;"></circle><circle cx="121.68139815330505" cy="98.42580163385719" r="2" style="fill: steelblue;"></circle><circle cx="55.4317444562912" cy="96.52343522757292" r="2" style="fill: steelblue;"></circle><circle cx="101.58308551181108" cy="49.91417974233627" r="2" style="fill: steelblue;"></circle><circle cx="159.07607078552246" cy="54.40804585814476" r="2" style="fill: steelblue;"></circle><circle cx="118.94950307905674" cy="42.96345114707947" r="2" style="fill: steelblue;"></circle><circle cx="132.95357897877693" cy="137.83395513892174" r="2" style="fill: steelblue;"></circle><circle cx="51.133400201797485" cy="126.07749216258526" r="2" style="fill: steelblue;"></circle><circle cx="34.315592050552375" cy="106.15022843703628" r="2" style="fill: steelblue;"></circle><circle cx="101.00572477094829" cy="156.9205805659294" r="2" style="fill: steelblue;"></circle><circle cx="61.38085797429085" cy="148.32912608981133" r="2" style="fill: steelblue;"></circle><circle cx="28.947769105434425" cy="113.63704726099968" r="2" style="fill: steelblue;"></circle><circle cx="66.18926525115967" cy="111.75327971577644" r="2" style="fill: steelblue;"></circle></g></svg>