<svg xmlns="http://www.w3.org/2000/svg"><g><circle cx="40.13993516564369" cy="79.49604950845242" r="2" style="fill: steelblue;"></circle><circle cx="21.13747708499432" cy="28.942258283495903" r="2" style="fill: steelblue;"></circle><circle cx="41.410703398287296" cy="57.75112397968769" r="2" style="fill: steelblue;"></circle><circle cx="41.934376768767834" cy="88.84390369057655" r="2" style="fill: steelblue;"></circle><circle cx="31.376908719539642" cy="91.22630134224892" r="2" style="fill: steelblue;"></circle><circle cx="52.29633180424571" cy="65.45531023293734" r="2" style="fill: steelblue;"></circle><circle cx="73.84800277650356" cy="34.23852398991585" r="2" style="fill: steelblue;"></circle><circle cx="66.10059291124344" cy="61.65698282420635" r="2" style="fill: steelblue;"></circle><circle cx="63.02329171448946" cy="71.06895670294762" r="2" style="fill: steelblue;"></circle><circle cx="39.22432400286198" cy="78.07941846549511" r="2" style="fill: steelblue;"></circle><circle cx="43.52963361889124" cy="42.833845783025026" r="2" style="fill: steelblue;"></circle><circle cx="29.642115533351898" cy="60.808651335537434" r="2" style="fill: steelblue;"></circle><circle cx="62.995229102671146" cy="25.06503574550152" r="2" style="fill: steelblue;"></circle><circle cx="66.54906384646893" cy="72.92986027896404" r="2" style="fill: steelblue;"></circle><circle cx="21.29430435597897" cy="69.10098642110825" r="2" style="fill: steelblue;"></circle><circle cx="22.47245162725449" cy="49.13103983271867" r="2" style="fill: steelblue;"></circle><circle cx="52.03125877305865" cy="47.66407418064773" r="2" style="fill: steelblue;"></circle><circle cx="75.31152404844761" cy="54.862121772021055" r="2" style="fill: steelblue;"></circle><circle cx="42.33862664550543" cy="40.88436830788851" r="2" style="fill: steelblue;"></circle><circle cx="51.836681040003896" cy="24.108800292015076" r="2" style="fill: steelblue;"></circle><circle cx="45.81391690298915" cy="60.46431530267" r="2" style="fill: steelblue;"></circle><circle cx="67.80821941792965" cy="59.26185492426157" r="2" style="fill: steelblue;"></circle><circle cx="74.24517646431923" cy="52.07521207630634" r="2" style="fill: steelblue;"></circle><circle cx="14.118011295795444" cy="30.71122169494629" r="2" style="fill: steelblue;"></circle><circle cx="25.759651511907578" cy="59.42203216254711" r="2" style="fill: steelblue;"></circle><circle cx="19.22787092626095" cy="60.50079148262739" r="2" style="fill: steelblue;"></circle><circle cx="45.346732437610626" cy="45.4155758023262" r="2" style="fill: steelblue;"></circle><circle cx="21.943249925971035" cy="78.49549613893032" r="2" style="fill: steelblue;"></circle><circle cx="34.483253210783005" cy="80.64009360969067" r="2" style="fill: steelblue;"></circle><circle cx="81.4960852265358" cy="93.96787658333778" r="2" style="fill: steelblue;"></circle><circle cx="41.99958052486181" cy="6.741645932197571" r="2" style="fill: steelblue;"></circle><circle cx="57.946169935166836" cy="31.834907084703445" r="2" style="fill: steelblue;"></circle><circle cx="68.23710091412067" cy="64.56423290073872" r="2" style="fill: steelblue;"></circle><circle cx="55.351061932742596" cy="70.86428180336952" r="2" style="fill: steelblue;"></circle><circle cx="79.34523485600948" cy="20.787759870290756" r="2" style="fill: steelblue;"></circle><circle cx="34.82839949429035" cy="14.139364659786224" r="2" style="fill: steelblue;"></circle><circle cx="52.063336316496134" cy="63.71776219457388" r="2" style="fill: steelblue;"></circle><circle cx="0.3024742007255582" cy="86.78629547357559" r="2" style="fill: steelblue;"></circle><circle cx="13.87368813157082" cy="61.0291400924325" r="2" style="fill: steelblue;"></circle><circle cx="31.005588546395302" cy="72.83097431063652" r="2" style="fill: steelblue;"></circle><circle cx="7.258123904466632" cy="52.696637297049165" r="2" style="fill: steelblue;"></circle><circle cx="71.92235924303532" cy="66.62897132337093" r="2" style="fill: steelblue;"></circle><circle cx="77.5073479861021" cy="84.04302895069122" r="2" style="fill: steelblue;"></circle><circle cx="50.38677331758663" cy="5.477487295866013" r="2" style="fill: steelblue;"></circle><circle cx="58.318773470818996" cy="51.35201634839177" r="2" style="fill: steelblue;"></circle><circle cx="60.702140629291534" cy="44.275054428726435" r="2" style="fill: steelblue;"></circle><circle cx="63.45237623900175" cy="38.08138072490692" r="2" style="fill: steelblue;"></circle><circle cx="5.1159404218196896" cy="53.16683063283563" r="2" style="fill: steelblue;"></circle><circle cx="55.66911231726408" cy="66.91532507538795" r="2" style="fill: steelblue;"></circle><circle cx="44.920533150434494" cy="27.696798741817474" r="2" style="fill: steelblue;"></circle><circle cx="50.336524564772844" cy="55.21955266594887" r="2" style="fill: steelblue;"></circle><circle cx="60.70739142596722" cy="23.67781400680542" r="2" style="fill: steelblue;"></circle><circle cx="27.229276672005653" cy="34.92808733135462" r="2" style="fill: steelblue;"></circle><circle cx="20.551796257495884" cy="75.87588876485825" r="2" style="fill: steelblue;"></circle><circle cx="36.256605945527554" cy="70.14877647161484" r="2" style="fill: steelblue;"></circle><circle cx="1.6530409455299404" cy="87.87291795015335" r="2" style="fill: steelblue;"></circle><circle cx="37.92556952685118" cy="51.74369663000107" r="2" style="fill: steelblue;"></circle><circle cx="44.59347827360034" cy="57.854984141886234" r="2" style="fill: steelblue;"></circle><circle cx="52.88381869904697" cy="53.184487111866474" r="2" style="fill: steelblue;"></circle><circle cx="56.55291462317109" cy="55.71354478597641" r="2" style="fill: steelblue;"></circle><circle cx="38.13251685351133" cy="75.18108673393726" r="2" style="fill: steelblue;"></circle><circle cx="49.02234657201916" cy="76.67241916060448" r="2" style="fill: steelblue;"></circle><circle cx="22.87085093557835" cy="93.40264573693275" r="2" style="fill: steelblue;"></circle><circle cx="2.321544289588931" cy="85.77841073274612" r="2" style="fill: steelblue;"></circle><circle cx="10.947629064321521" cy="86.0424555838108" r="2" style="fill: steelblue;"></circle><circle cx="29.92471419274807" cy="80.76350130140781" r="2" style="fill: steelblue;"></circle><circle cx="3.9655707776546505" cy="87.78468072414398" r="2" style="fill: steelblue;"></circle><circle cx="11.777597665786747" cy="96.87542468309402" r="2" style="fill: steelblue;"></circle><circle cx="46.1834114510566" cy="82.86366164684296" r="2" style="fill: steelblue;"></circle><circle cx="17.2628790140152" cy="55.61451958492398" r="2" style="fill: steelblue;"></circle><circle cx="73.59387651085854" cy="85.48961505293846" r="2" style="fill: steelblue;"></circle><circle cx="96.83225974440575" cy="13.112492114305496" r="2" style="fill: steelblue;"></circle><circle cx="93.12372952699661" cy="31.097934767603874" r="2" style="fill: steelblue;"></circle><circle cx="54.34363167732954" cy="54.50366735458374" r="2" style="fill: steelblue;"></circle><circle cx="83.90581905841827" cy="11.27299964427948" r="2" style="fill: steelblue;"></circle><circle cx="26.68212465941906" cy="44.70618739724159" r="2" style="fill: steelblue;"></circle><circle cx="81.19284100830555" cy="27.011658251285553" r="2" style="fill: steelblue;"></circle><circle cx="73.47132004797459" cy="56.8924049846828" r="2" style="fill: steelblue;"></circle><circle cx="64.45701345801353" cy="15.35518392920494" r="2" style="fill: steelblue;"></circle><circle cx="87.56362199783325" cy="22.589386627078056" r="2" style="fill: steelblue;"></circle><circle cx="41.69659707695246" cy="24.793102592229843" r="2" style="fill: steelblue;"></circle><circle cx="82.89661929011345" cy="74.84982088208199" r="2" style="fill: steelblue;"></circle><circle cx="27.26118005812168" cy="52.836160361766815" r="2" style="fill: steelblue;"></circle><circle cx="17.317990958690647" cy="62.62697018682957" r="2" style="fill: steelblue;"></circle><circle cx="45.0300557538867" cy="30.3359005600214" r="2" style="fill: steelblue;"></circle><circle cx="46.554320910945535" cy="78.52136082947254" r="2" style="fill: steelblue;"></circle><circle cx="62.899366207420826" cy="47.712494572624564" r="2" style="fill: steelblue;"></circle><circle cx="54.50519332662225" cy="66.8148148804903" r="2" style="fill: steelblue;"></circle><circle cx="58.813878521323204" cy="87.13623061776161" r="2" style="fill: steelblue;"></circle><circle cx="65.06856083869934" cy="53.84909939020872" r="2" style="fill: steelblue;"></circle><circle cx="59.11391992121935" cy="23.266476765275" r="2" style="fill: steelblue;"></circle><circle cx="52.75250896811485" cy="49.10311691928655" r="2" style="fill: steelblue;"></circle><circle cx="71.80277183651924" cy="38.98094613105059" r="2" style="fill: steelblue;"></circle><circle cx="77.43457071483135" cy="53.0789056327194" r="2" style="fill: steelblue;"></circle><circle cx="78.96015532314777" cy="42.96829290688038" r="2" style="fill: steelblue;"></circle><circle cx="72.73613028228283" cy="13.130604475736618" r="2" style="fill: steelblue;"></circle><circle cx="78.4857377409935" cy="17.866603285074234" r="2" style="fill: steelblue;"></circle><circle cx="14.792352169752125" cy="32.645656913518906" r="2" style="fill: steelblue;"></circle><circle cx="16.62603318691254" cy="68.34100857377052" r="2" style="fill: steelblue;"></circle><circle cx="89.79546576738358" cy="38.80191147327423" r="2" style="fill: steelblue;"></circle><circle cx="90.12355208396912" cy="28.664211928844452" r="2" style="fill: steelblue;"></circle><circle cx="65.07910527288914" cy="30.893343687057495" r="2" style="fill: steelblue;"></circle><circle cx="46.6153409332037" cy="34.4015771523118" r="2" style="fill: steelblue;"></circle><circle cx="12.23004907369614" cy="23.486581817269325" r="2" style="fill: steelblue;"></circle><circle cx="77.51004137098789" cy="26.292412728071213" r="2" style="fill: steelblue;"></circle><circle cx="28.962920606136322" cy="40.19753560423851" r="2" style="fill: steelblue;"></circle><circle cx="50.08733564754948" cy="67.62807182967663" r="2" style="fill: steelblue;"></circle><circle cx="55.883955396711826" cy="67.4962654709816" r="2" style="fill: steelblue;"></circle><circle cx="40.88849499821663" cy="36.687094904482365" r="2" style="fill: steelblue;"></circle><circle cx="72.47589081525803" cy="55.45963831245899" r="2" style="fill: steelblue;"></circle><circle cx="55.462946370244026" cy="36.39364540576935" r="2" style="fill: steelblue;"></circle><circle cx="85.39767116308212" cy="20.561020076274872" r="2" style="fill: steelblue;"></circle><circle cx="33.80422592163086" cy="37.69154120236635" r="2" style="fill: steelblue;"></circle><circle cx="37.976052798330784" cy="62.50744052231312" r="2" style="fill: steelblue;"></circle><circle cx="32.139986008405685" cy="88.15798461437225" r="2" style="fill: steelblue;"></circle><circle cx="3.18204537034035" cy="59.372107684612274" r="2" style="fill: steelblue;"></circle><circle cx="30.622893199324608" cy="52.103023463860154" r="2" style="fill: steelblue;"></circle><circle cx="30.931272730231285" cy="21.360407769680023" r="2" style="fill: steelblue;"></circle></g></svg>