<svg xmlns="http://www.w3.org/2000/svg"><g><circle cx="14.455294609069824" cy="86.26283539666069" r="2" style="fill: steelblue;"></circle><circle cx="50.79420683905482" cy="70.95828155676523" r="2" style="fill: steelblue;"></circle><circle cx="33.27045738697052" cy="73.13560114966498" r="2" style="fill: steelblue;"></circle><circle cx="18.192291259765625" cy="84.90247196621364" r="2" style="fill: steelblue;"></circle><circle cx="34.84492748975754" cy="44.47403881284926" r="2" style="fill: steelblue;"></circle><circle cx="63.26363533735275" cy="65.6915803750356" r="2" style="fill: steelblue;"></circle><circle cx="24.96059536933899" cy="42.157375978098976" r="2" style="fill: steelblue;"></circle><circle cx="60.51061674952507" cy="75.9053412410948" r="2" style="fill: steelblue;"></circle><circle cx="34.012214839458466" cy="67.12462670273251" r="2" style="fill: steelblue;"></circle><circle cx="37.13478595018387" cy="60.864661302831436" r="2" style="fill: steelblue;"></circle><circle cx="58.56676027178764" cy="64.57760516140196" r="2" style="fill: steelblue;"></circle><circle cx="40.83548113703728" cy="71.20735612180498" r="2" style="fill: steelblue;"></circle><circle cx="51.101985946297646" cy="80.08059859275818" r="2" style="fill: steelblue;"></circle><circle cx="33.30651968717575" cy="69.61705784002939" r="2" style="fill: steelblue;"></circle><circle cx="42.061732709407806" cy="79.24842337767282" r="2" style="fill: steelblue;"></circle><circle cx="13.740023970603943" cy="93.4202704164717" r="2" style="fill: steelblue;"></circle><circle cx="44.281017780303955" cy="48.500671154922905" r="2" style="fill: steelblue;"></circle><circle cx="30.20695447921753" cy="30.335472689734566" r="2" style="fill: steelblue;"></circle><circle cx="64.14172500371933" cy="49.41626348429256" r="2" style="fill: steelblue;"></circle><circle cx="72.31239527463913" cy="68.35089541143842" r="2" style="fill: steelblue;"></circle><circle cx="66.16838127374649" cy="73.61965212557051" r="2" style="fill: steelblue;"></circle><circle cx="32.03022927045822" cy="25.150693125194966" r="2" style="fill: steelblue;"></circle><circle cx="37.95551881194115" cy="51.87758679191271" r="2" style="fill: steelblue;"></circle><circle cx="38.87124061584473" cy="76.32306880421109" r="2" style="fill: steelblue;"></circle><circle cx="16.813132166862488" cy="77.32770343621571" r="2" style="fill: steelblue;"></circle><circle cx="55.79223595559597" cy="79.12138601144154" r="2" style="fill: steelblue;"></circle><circle cx="33.18971544504166" cy="91.71887569957309" r="2" style="fill: steelblue;"></circle><circle cx="48.63825226202607" cy="32.80821277035607" r="2" style="fill: steelblue;"></circle><circle cx="18.0417001247406" cy="74.3539896276262" r="2" style="fill: steelblue;"></circle><circle cx="65.67257046699524" cy="55.164006719779636" r="2" style="fill: steelblue;"></circle><circle cx="60.840655118227005" cy="18.644677268134224" r="2" style="fill: steelblue;"></circle><circle cx="72.47530072927475" cy="37.57355444961124" r="2" style="fill: steelblue;"></circle><circle cx="73.06648790836334" cy="24.785995483398438" r="2" style="fill: steelblue;"></circle><circle cx="48.41947853565216" cy="32.735955384042526" r="2" style="fill: steelblue;"></circle><circle cx="56.01290389895439" cy="28.999229272206627" r="2" style="fill: steelblue;"></circle><circle cx="58.09464007616043" cy="74.36858945422702" r="2" style="fill: steelblue;"></circle><circle cx="40.8977136015892" cy="62.61357913414637" r="2" style="fill: steelblue;"></circle><circle cx="42.74080619215965" cy="70.71872717804379" r="2" style="fill: steelblue;"></circle><circle cx="26.266349852085114" cy="57.03863191107909" r="2" style="fill: steelblue;"></circle><circle cx="47.48634807765484" cy="71.16628852155473" r="2" style="fill: steelblue;"></circle><circle cx="72.45334386825562" cy="91.71436230341592" r="2" style="fill: steelblue;"></circle><circle cx="75.39635896682739" cy="46.54688802030351" r="2" style="fill: steelblue;"></circle><circle cx="56.088144704699516" cy="33.537318309148155" r="2" style="fill: steelblue;"></circle><circle cx="68.36737394332886" cy="45.36635759803984" r="2" style="fill: steelblue;"></circle><circle cx="55.74011541903019" cy="40.5329234070248" r="2" style="fill: steelblue;"></circle><circle cx="75.50442218780518" cy="26.920408010482788" r="2" style="fill: steelblue;"></circle><circle cx="31.662018597126007" cy="46.28582298755646" r="2" style="fill: steelblue;"></circle><circle cx="19.14512813091278" cy="83.18457504113515" r="2" style="fill: steelblue;"></circle><circle cx="24.706822633743286" cy="84.67951748106215" r="2" style="fill: steelblue;"></circle><circle cx="20.553845167160034" cy="53.524985288580254" r="2" style="fill: steelblue;"></circle><circle cx="54.40408103168011" cy="55.12716641856564" r="2" style="fill: steelblue;"></circle><circle cx="19.98373568058014" cy="34.05473795202043" r="2" style="fill: steelblue;"></circle><circle cx="37.879637628793716" cy="78.22192708651224" r="2" style="fill: steelblue;"></circle><circle cx="45.10496035218239" cy="53.01769181258149" r="2" style="fill: steelblue;"></circle><circle cx="57.936666905879974" cy="69.67366238435109" r="2" style="fill: steelblue;"></circle><circle cx="32.34524875879288" cy="54.119085996515224" r="2" style="fill: steelblue;"></circle><circle cx="54.21577990055084" cy="65.04554384284549" r="2" style="fill: steelblue;"></circle><circle cx="36.93167269229889" cy="72.37818506028917" r="2" style="fill: steelblue;"></circle><circle cx="66.23155474662781" cy="41.2424686882231" r="2" style="fill: steelblue;"></circle><circle cx="38.17470893263817" cy="38.04280029402839" r="2" style="fill: steelblue;"></circle><circle cx="19.64544653892517" cy="81.54566751586067" r="2" style="fill: steelblue;"></circle><circle cx="25.794024765491486" cy="51.2069563070933" r="2" style="fill: steelblue;"></circle><circle cx="4.609659314155579" cy="56.68224011444383" r="2" style="fill: steelblue;"></circle><circle cx="7.538917660713196" cy="92.45698319541084" r="2" style="fill: steelblue;"></circle><circle cx="38.16690444946289" cy="87.27190891901651" r="2" style="fill: steelblue;"></circle><circle cx="24.971702694892883" cy="96.7999365594652" r="2" style="fill: steelblue;"></circle><circle cx="23.917585611343384" cy="68.74421570036147" r="2" style="fill: steelblue;"></circle><circle cx="60.450179874897" cy="90.49762619866264" r="2" style="fill: steelblue;"></circle><circle cx="17.391332983970642" cy="73.55026735199822" r="2" style="fill: steelblue;"></circle><circle cx="47.57793713361025" cy="44.38577261235979" r="2" style="fill: steelblue;"></circle><circle cx="14.643409848213196" cy="54.242966179218556" r="2" style="fill: steelblue;"></circle><circle cx="64.3913671374321" cy="28.458030687438118" r="2" style="fill: steelblue;"></circle><circle cx="61.11847534775734" cy="71.52594129244486" r="2" style="fill: steelblue;"></circle><circle cx="77.02809870243073" cy="61.5762977136506" r="2" style="fill: steelblue;"></circle><circle cx="53.05855888873339" cy="42.991403076383804" r="2" style="fill: steelblue;"></circle><circle cx="45.89683152735233" cy="17.842123905817665" r="2" style="fill: steelblue;"></circle><circle cx="72.8761613368988" cy="59.01776585314009" r="2" style="fill: steelblue;"></circle><circle cx="53.77677530050278" cy="26.753607723448013" r="2" style="fill: steelblue;"></circle><circle cx="47.96872306615114" cy="19.809027512868248" r="2" style="fill: steelblue;"></circle><circle cx="64.6350085735321" cy="16.896761125988434" r="2" style="fill: steelblue;"></circle><circle cx="74.67431426048279" cy="35.53084863556756" r="2" style="fill: steelblue;"></circle><circle cx="92.24546253681183" cy="30.249620477358498" r="2" style="fill: steelblue;"></circle><circle cx="56.61469027400017" cy="75.39971007241142" r="2" style="fill: steelblue;"></circle><circle cx="40.535734593868256" cy="52.012882712814545" r="2" style="fill: steelblue;"></circle><circle cx="34.10608768463135" cy="67.33294741974936" r="2" style="fill: steelblue;"></circle><circle cx="41.484442353248596" cy="31.91706207063463" r="2" style="fill: steelblue;"></circle><circle cx="47.25682307034731" cy="50.134062353107666" r="2" style="fill: steelblue;"></circle><circle cx="66.40995591878891" cy="73.7621933221817" r="2" style="fill: steelblue;"></circle><circle cx="56.730351597070694" cy="32.41207864549425" r="2" style="fill: steelblue;"></circle><circle cx="59.373778104782104" cy="56.37034396123555" r="2" style="fill: steelblue;"></circle><circle cx="55.32130151987076" cy="42.62561847766241" r="2" style="fill: steelblue;"></circle><circle cx="63.79447430372238" cy="43.242271575662826" r="2" style="fill: steelblue;"></circle><circle cx="49.69175551086664" cy="61.89508322212431" r="2" style="fill: steelblue;"></circle><circle cx="52.33028568327427" cy="42.93133566776911" r="2" style="fill: steelblue;"></circle><circle cx="55.59246987104416" cy="19.594338205125595" r="2" style="fill: steelblue;"></circle><circle cx="58.97243693470955" cy="33.227549658881294" r="2" style="fill: steelblue;"></circle><circle cx="61.074621975421906" cy="38.65750299559699" r="2" style="fill: steelblue;"></circle><circle cx="34.71137881278992" cy="74.17886621422238" r="2" style="fill: steelblue;"></circle><circle cx="68.5273602604866" cy="15.704419877794052" r="2" style="fill: steelblue;"></circle><circle cx="65.68276137113571" cy="10.342333051893448" r="2" style="fill: steelblue;"></circle><circle cx="49.95317311550025" cy="54.039339224497475" r="2" style="fill: steelblue;"></circle><circle cx="56.92307651042938" cy="31.960757242308723" r="2" style="fill: steelblue;"></circle><circle cx="66.40593707561493" cy="72.72884084118736" r="2" style="fill: steelblue;"></circle><circle cx="85.61111092567444" cy="9.945521752039587" r="2" style="fill: steelblue;"></circle><circle cx="79.703289270401" cy="40.3888291782803" r="2" style="fill: steelblue;"></circle><circle cx="73.63985180854797" cy="40.36462638113234" r="2" style="fill: steelblue;"></circle><circle cx="72.54918068647385" cy="47.08433896303177" r="2" style="fill: steelblue;"></circle><circle cx="64.80840742588043" cy="59.47650348146756" r="2" style="fill: steelblue;"></circle><circle cx="58.88036862015724" cy="24.88414115375943" r="2" style="fill: steelblue;"></circle><circle cx="41.68143644928932" cy="10.555638207329643" r="2" style="fill: steelblue;"></circle><circle cx="70.68994045257568" cy="26.199645466274678" r="2" style="fill: steelblue;"></circle><circle cx="53.10046374797821" cy="51.871754229068756" r="2" style="fill: steelblue;"></circle><circle cx="20.425590872764587" cy="68.81013098690245" r="2" style="fill: steelblue;"></circle><circle cx="57.62682631611824" cy="39.45130109786987" r="2" style="fill: steelblue;"></circle><circle cx="33.58806073665619" cy="33.97894402345022" r="2" style="fill: steelblue;"></circle><circle cx="40.21695479750633" cy="74.71053302288055" r="2" style="fill: steelblue;"></circle><circle cx="27.112555503845215" cy="72.91565669907463" r="2" style="fill: steelblue;"></circle><circle cx="53.40318977832794" cy="53.340736155708626" r="2" style="fill: steelblue;"></circle></g></svg>