<svg xmlns="http://www.w3.org/2000/svg"><g><circle cx="14.770379662513733" cy="77.0962119102478" r="2" style="fill: steelblue;"></circle><circle cx="30.349788069725037" cy="62.125140987336636" r="2" style="fill: steelblue;"></circle><circle cx="59.702398627996445" cy="59.543717838823795" r="2" style="fill: steelblue;"></circle><circle cx="41.05459749698639" cy="40.49415532499552" r="2" style="fill: steelblue;"></circle><circle cx="56.38028308749199" cy="76.36056207120419" r="2" style="fill: steelblue;"></circle><circle cx="17.051950097084045" cy="37.25073877722025" r="2" style="fill: steelblue;"></circle><circle cx="49.772182200104" cy="57.160062436014414" r="2" style="fill: steelblue;"></circle><circle cx="57.924485951662064" cy="27.087270468473434" r="2" style="fill: steelblue;"></circle><circle cx="34.70764607191086" cy="85.82027181982994" r="2" style="fill: steelblue;"></circle><circle cx="34.599995613098145" cy="70.65091393887997" r="2" style="fill: steelblue;"></circle><circle cx="37.87140995264053" cy="42.92196333408356" r="2" style="fill: steelblue;"></circle><circle cx="45.54692879319191" cy="66.45965874195099" r="2" style="fill: steelblue;"></circle><circle cx="45.14731802046299" cy="59.09544061869383" r="2" style="fill: steelblue;"></circle><circle cx="23.338085412979126" cy="57.03486613929272" r="2" style="fill: steelblue;"></circle><circle cx="54.41786088049412" cy="89.07936066389084" r="2" style="fill: steelblue;"></circle><circle cx="14.765819907188416" cy="67.42372289299965" r="2" style="fill: steelblue;"></circle><circle cx="26.811407506465912" cy="37.982106395065784" r="2" style="fill: steelblue;"></circle><circle cx="67.29426681995392" cy="22.759094089269638" r="2" style="fill: steelblue;"></circle><circle cx="50.55094105191529" cy="23.973380401730537" r="2" style="fill: steelblue;"></circle><circle cx="78.9130836725235" cy="37.296282313764095" r="2" style="fill: steelblue;"></circle><circle cx="49.66583042405546" cy="27.024253457784653" r="2" style="fill: steelblue;"></circle><circle cx="54.556525498628616" cy="45.723516680300236" r="2" style="fill: steelblue;"></circle><circle cx="59.838926047086716" cy="52.15789838694036" r="2" style="fill: steelblue;"></circle><circle cx="28.500083088874817" cy="68.19662004709244" r="2" style="fill: steelblue;"></circle><circle cx="61.32168844342232" cy="33.39948058128357" r="2" style="fill: steelblue;"></circle><circle cx="30.08050173521042" cy="78.68222072720528" r="2" style="fill: steelblue;"></circle><circle cx="39.619775116443634" cy="70.1173797249794" r="2" style="fill: steelblue;"></circle><circle cx="39.676619321107864" cy="63.10624834150076" r="2" style="fill: steelblue;"></circle><circle cx="23.788118362426758" cy="64.03277553617954" r="2" style="fill: steelblue;"></circle><circle cx="54.3805118650198" cy="17.116795480251312" r="2" style="fill: steelblue;"></circle><circle cx="72.54134714603424" cy="57.06937350332737" r="2" style="fill: steelblue;"></circle><circle cx="71.50287330150604" cy="12.062083184719086" r="2" style="fill: steelblue;"></circle><circle cx="81.37311637401581" cy="5.4702118039131165" r="2" style="fill: steelblue;"></circle><circle cx="47.44942933320999" cy="50.69924787385389" r="2" style="fill: steelblue;"></circle><circle cx="55.09973578155041" cy="48.14978486392647" r="2" style="fill: steelblue;"></circle><circle cx="41.93370118737221" cy="54.45108208805323" r="2" style="fill: steelblue;"></circle><circle cx="50.95364656299353" cy="92.41538792848587" r="2" style="fill: steelblue;"></circle><circle cx="32.411424815654755" cy="53.58027848415077" r="2" style="fill: steelblue;"></circle><circle cx="19.538041949272156" cy="80.05925938487053" r="2" style="fill: steelblue;"></circle><circle cx="21.12640142440796" cy="32.72936791181564" r="2" style="fill: steelblue;"></circle><circle cx="9.456852078437805" cy="63.74516822397709" r="2" style="fill: steelblue;"></circle><circle cx="65.15545099973679" cy="35.38086283951998" r="2" style="fill: steelblue;"></circle><circle cx="23.9138662815094" cy="32.705360278487206" r="2" style="fill: steelblue;"></circle><circle cx="62.50302344560623" cy="16.989222913980484" r="2" style="fill: steelblue;"></circle><circle cx="68.19115877151489" cy="7.898508757352829" r="2" style="fill: steelblue;"></circle><circle cx="63.784608244895935" cy="49.70116786425933" r="2" style="fill: steelblue;"></circle><circle cx="75.86694657802582" cy="36.558252945542336" r="2" style="fill: steelblue;"></circle><circle cx="27.315524220466614" cy="82.02618286013603" r="2" style="fill: steelblue;"></circle><circle cx="26.585301756858826" cy="68.32079887390137" r="2" style="fill: steelblue;"></circle><circle cx="34.499940276145935" cy="61.4041306078434" r="2" style="fill: steelblue;"></circle><circle cx="58.458470553159714" cy="37.00642865151167" r="2" style="fill: steelblue;"></circle><circle cx="73.16857427358627" cy="44.208384305238724" r="2" style="fill: steelblue;"></circle><circle cx="63.03853541612625" cy="70.14730498194695" r="2" style="fill: steelblue;"></circle><circle cx="37.752486765384674" cy="88.37233036756516" r="2" style="fill: steelblue;"></circle><circle cx="47.58428055793047" cy="80.74638172984123" r="2" style="fill: steelblue;"></circle><circle cx="54.85990680754185" cy="76.62783861160278" r="2" style="fill: steelblue;"></circle><circle cx="53.151752054691315" cy="61.45884022116661" r="2" style="fill: steelblue;"></circle><circle cx="27.02210545539856" cy="56.67873350903392" r="2" style="fill: steelblue;"></circle><circle cx="44.41794492304325" cy="71.60855382680893" r="2" style="fill: steelblue;"></circle><circle cx="38.52541968226433" cy="60.09172108024359" r="2" style="fill: steelblue;"></circle><circle cx="57.01616331934929" cy="82.58678317070007" r="2" style="fill: steelblue;"></circle><circle cx="42.02144145965576" cy="70.15595883131027" r="2" style="fill: steelblue;"></circle><circle cx="16.33695662021637" cy="75.14935471117496" r="2" style="fill: steelblue;"></circle><circle cx="15.971487760543823" cy="81.57594799995422" r="2" style="fill: steelblue;"></circle><circle cx="31.497643887996674" cy="63.98932188749313" r="2" style="fill: steelblue;"></circle><circle cx="40.509284287691116" cy="98.47020283341408" r="2" style="fill: steelblue;"></circle><circle cx="26.426105201244354" cy="66.38400554656982" r="2" style="fill: steelblue;"></circle><circle cx="40.508174896240234" cy="74.32615868747234" r="2" style="fill: steelblue;"></circle><circle cx="19.21028196811676" cy="82.17903524637222" r="2" style="fill: steelblue;"></circle><circle cx="34.94899421930313" cy="70.2196966856718" r="2" style="fill: steelblue;"></circle><circle cx="20.43212056159973" cy="39.27001189440489" r="2" style="fill: steelblue;"></circle><circle cx="52.582635171711445" cy="35.59000063687563" r="2" style="fill: steelblue;"></circle><circle cx="58.550599962472916" cy="49.92425743403146" r="2" style="fill: steelblue;"></circle><circle cx="72.27054685354233" cy="54.599090199917555" r="2" style="fill: steelblue;"></circle><circle cx="66.0333588719368" cy="38.187430426478386" r="2" style="fill: steelblue;"></circle><circle cx="34.338656067848206" cy="2.6194818317890167" r="2" style="fill: steelblue;"></circle><circle cx="64.10422325134277" cy="55.3672743961215" r="2" style="fill: steelblue;"></circle><circle cx="69.30467784404755" cy="31.002336367964745" r="2" style="fill: steelblue;"></circle><circle cx="68.50477904081345" cy="33.60838368535042" r="2" style="fill: steelblue;"></circle><circle cx="77.19546854496002" cy="72.06572331488132" r="2" style="fill: steelblue;"></circle><circle cx="83.36285650730133" cy="23.498858511447906" r="2" style="fill: steelblue;"></circle><circle cx="79.19363975524902" cy="0.18631964921951294" r="2" style="fill: steelblue;"></circle><circle cx="51.44479274749756" cy="64.15936648845673" r="2" style="fill: steelblue;"></circle><circle cx="39.16694223880768" cy="83.77585485577583" r="2" style="fill: steelblue;"></circle><circle cx="35.1365864276886" cy="53.80933820270002" r="2" style="fill: steelblue;"></circle><circle cx="51.658470183610916" cy="35.55729724466801" r="2" style="fill: steelblue;"></circle><circle cx="43.39080974459648" cy="78.31404656171799" r="2" style="fill: steelblue;"></circle><circle cx="34.536221623420715" cy="63.51502910256386" r="2" style="fill: steelblue;"></circle><circle cx="30.554932355880737" cy="64.50078375637531" r="2" style="fill: steelblue;"></circle><circle cx="67.99358874559402" cy="42.44275502860546" r="2" style="fill: steelblue;"></circle><circle cx="61.57868951559067" cy="36.92747391760349" r="2" style="fill: steelblue;"></circle><circle cx="91.98991358280182" cy="18.33045408129692" r="2" style="fill: steelblue;"></circle><circle cx="85.70870459079742" cy="19.108641147613525" r="2" style="fill: steelblue;"></circle><circle cx="59.04022455215454" cy="48.12370678409934" r="2" style="fill: steelblue;"></circle><circle cx="59.75715517997742" cy="17.727679759263992" r="2" style="fill: steelblue;"></circle><circle cx="54.221295565366745" cy="67.94887147843838" r="2" style="fill: steelblue;"></circle><circle cx="75.33791065216064" cy="22.623322159051895" r="2" style="fill: steelblue;"></circle><circle cx="80.41203320026398" cy="56.59336568787694" r="2" style="fill: steelblue;"></circle><circle cx="60.86973547935486" cy="38.37574664503336" r="2" style="fill: steelblue;"></circle><circle cx="55.753712356090546" cy="69.36766132712364" r="2" style="fill: steelblue;"></circle><circle cx="52.2905258461833" cy="42.5724514760077" r="2" style="fill: steelblue;"></circle><circle cx="40.865008533000946" cy="59.08519700169563" r="2" style="fill: steelblue;"></circle><circle cx="55.66446669399738" cy="35.09315587580204" r="2" style="fill: steelblue;"></circle><circle cx="86.59546673297882" cy="47.32669396325946" r="2" style="fill: steelblue;"></circle><circle cx="37.022753059864044" cy="34.28741656243801" r="2" style="fill: steelblue;"></circle><circle cx="67.68258512020111" cy="49.5982134132646" r="2" style="fill: steelblue;"></circle><circle cx="72.01222479343414" cy="27.32384502887726" r="2" style="fill: steelblue;"></circle><circle cx="77.7965098619461" cy="25.508389994502068" r="2" style="fill: steelblue;"></circle><circle cx="64.8368775844574" cy="25.045278668403625" r="2" style="fill: steelblue;"></circle><circle cx="59.067096561193466" cy="32.897380366921425" r="2" style="fill: steelblue;"></circle><circle cx="82.07729160785675" cy="20.694605261087418" r="2" style="fill: steelblue;"></circle><circle cx="35.91125011444092" cy="38.025703467428684" r="2" style="fill: steelblue;"></circle><circle cx="28.515371680259705" cy="75.68257972598076" r="2" style="fill: steelblue;"></circle><circle cx="31.41009360551834" cy="64.67801537364721" r="2" style="fill: steelblue;"></circle><circle cx="51.58290322870016" cy="68.35197769105434" r="2" style="fill: steelblue;"></circle><circle cx="65.05420356988907" cy="31.076357886195183" r="2" style="fill: steelblue;"></circle><circle cx="60.040684044361115" cy="57.88709335029125" r="2" style="fill: steelblue;"></circle><circle cx="25.045859813690186" cy="69.14486475288868" r="2" style="fill: steelblue;"></circle></g></svg>