<svg xmlns="http://www.w3.org/2000/svg"><g><circle cx="63.19132447242737" cy="144.57962777879501" r="2" style="fill: steelblue;"></circle><circle cx="28.72735924190945" cy="141.6809644964006" r="2" style="fill: steelblue;"></circle><circle cx="80.48377765549553" cy="44.7554541958703" r="2" style="fill: steelblue;"></circle><circle cx="127.49012642436557" cy="90.3693590934078" r="2" style="fill: steelblue;"></circle><circle cx="63.87167506747775" cy="130.500199397405" r="2" style="fill: steelblue;"></circle><circle cx="71.52790493435329" cy="105.08753226863013" r="2" style="fill: steelblue;"></circle><circle cx="136.03514267338645" cy="135.91542376412286" r="2" style="fill: steelblue;"></circle><circle cx="106.06898698541853" cy="108.3116137319141" r="2" style="fill: steelblue;"></circle><circle cx="105.40198203590181" cy="114.4438472059038" r="2" style="fill: steelblue;"></circle><circle cx="143.30971903271146" cy="82.90243637230661" r="2" style="fill: steelblue;"></circle><circle cx="92.48416456911299" cy="134.01028050316705" r="2" style="fill: steelblue;"></circle><circle cx="130.00764118300543" cy="43.06754337416756" r="2" style="fill: steelblue;"></circle><circle cx="75.41743252012465" cy="132.44335717625088" r="2" style="fill: steelblue;"></circle><circle cx="55.7537575562795" cy="156.24252822664047" r="2" style="fill: steelblue;"></circle><circle cx="116.3941952917311" cy="94.63687108622658" r="2" style="fill: steelblue;"></circle><circle cx="162.5091897116767" cy="100.96929503811731" r="2" style="fill: steelblue;"></circle><circle cx="31.339870558844673" cy="93.60504431857004" r="2" style="fill: steelblue;"></circle><circle cx="46.55008183585273" cy="55.07133934232924" r="2" style="fill: steelblue;"></circle><circle cx="134.74399679236942" cy="27.987253665924072" r="2" style="fill: steelblue;"></circle><circle cx="106.0485475593143" cy="40.05401531855266" r="2" style="fill: steelblue;"></circle><circle cx="142.01847049925064" cy="115.34300148487091" r="2" style="fill: steelblue;"></circle><circle cx="97.83954256110721" cy="34.467411041259766" r="2" style="fill: steelblue;"></circle><circle cx="150.57207809554205" cy="154.89791366789078" r="2" style="fill: steelblue;"></circle><circle cx="97.27015925778282" cy="118.66282290882535" r="2" style="fill: steelblue;"></circle><circle cx="160.97938683297897" cy="100.21777484152052" r="2" style="fill: steelblue;"></circle><circle cx="105.85187127192815" cy="83.52458303173383" r="2" style="fill: steelblue;"></circle><circle cx="58.58344833056132" cy="83.05730703804228" r="2" style="fill: steelblue;"></circle><circle cx="107.21480225523312" cy="137.99501326349045" r="2" style="fill: steelblue;"></circle><circle cx="74.78154699007669" cy="134.10942289564346" r="2" style="fill: steelblue;"></circle><circle cx="75.29046800401476" cy="97.00434605280559" r="2" style="fill: steelblue;"></circle><circle cx="142.21538437737357" cy="37.118860748079086" r="2" style="fill: steelblue;"></circle><circle cx="124.11180386940639" cy="33.35128426551819" r="2" style="fill: steelblue;"></circle><circle cx="108.6942855682638" cy="85.48447812596957" r="2" style="fill: steelblue;"></circle><circle cx="94.1944205098682" cy="84.05671053462558" r="2" style="fill: steelblue;"></circle><circle cx="131.65846467018127" cy="70.99630965126886" r="2" style="fill: steelblue;"></circle><circle cx="64.41120968924629" cy="110.46761804156833" r="2" style="fill: steelblue;"></circle><circle cx="170.03337542215982" cy="149.16027122073703" r="2" style="fill: steelblue;"></circle><circle cx="94.65019736025069" cy="149.07056623035007" r="2" style="fill: steelblue;"></circle><circle cx="124.61971657143698" cy="155.19951979319256" r="2" style="fill: steelblue;"></circle><circle cx="140.17898837725323" cy="132.38160014152527" r="2" style="fill: steelblue;"></circle><circle cx="120.9079987472958" cy="115.1889830827713" r="2" style="fill: steelblue;"></circle><circle cx="175.63029130299884" cy="22.5899338722229" r="2" style="fill: steelblue;"></circle><circle cx="155.42392929395038" cy="107.67078432771895" r="2" style="fill: steelblue;"></circle><circle cx="119.4241593281428" cy="69.06614071793027" r="2" style="fill: steelblue;"></circle><circle cx="137.51912779278226" cy="37.922533353169776" r="2" style="fill: steelblue;"></circle><circle cx="146.3298300902049" cy="85.90375747945573" r="2" style="fill: steelblue;"></circle><circle cx="109.83694220582645" cy="48.305096228917456" r="2" style="fill: steelblue;"></circle><circle cx="66.10418690575493" cy="125.06870627403259" r="2" style="fill: steelblue;"></circle><circle cx="84.50757629341548" cy="93.79581643475427" r="2" style="fill: steelblue;"></circle><circle cx="60.144993993971084" cy="145.60609261194864" r="2" style="fill: steelblue;"></circle><circle cx="86.36418481667836" cy="114.6700551112493" r="2" style="fill: steelblue;"></circle><circle cx="125.75771576828427" cy="54.40143611696031" r="2" style="fill: steelblue;"></circle><circle cx="123.49315153227911" cy="85.73415122098393" r="2" style="fill: steelblue;"></circle><circle cx="94.77911558416154" cy="95.91724425554276" r="2" style="fill: steelblue;"></circle><circle cx="174.39014381832547" cy="71.98627822928958" r="2" style="fill: steelblue;"></circle><circle cx="106.29954271846347" cy="143.84192758136325" r="2" style="fill: steelblue;"></circle><circle cx="97.54528022474712" cy="146.89633448918661" r="2" style="fill: steelblue;"></circle><circle cx="92.43384997049967" cy="117.22842388682895" r="2" style="fill: steelblue;"></circle><circle cx="40.871454609764946" cy="116.61409371429019" r="2" style="fill: steelblue;"></circle><circle cx="54.17719814512465" cy="61.023128032684326" r="2" style="fill: steelblue;"></circle><circle cx="58.014243841171265" cy="144.16517681545682" r="2" style="fill: steelblue;"></circle><circle cx="86.94362143675485" cy="71.21207349830203" r="2" style="fill: steelblue;"></circle><circle cx="99.46590330865648" cy="74.47673082351685" r="2" style="fill: steelblue;"></circle><circle cx="79.16985286606682" cy="136.17654509014554" r="2" style="fill: steelblue;"></circle><circle cx="18.4722277853224" cy="139.51931926939224" r="2" style="fill: steelblue;"></circle><circle cx="54.38892708884345" cy="165.16421768400406" r="2" style="fill: steelblue;"></circle><circle cx="66.89838568369547" cy="78.09314578771591" r="2" style="fill: steelblue;"></circle><circle cx="52.86859803729587" cy="126.02669530444675" r="2" style="fill: steelblue;"></circle><circle cx="31.59247504340278" cy="164.64987595876056" r="2" style="fill: steelblue;"></circle><circle cx="66.23174415694344" cy="140.12449185053507" r="2" style="fill: steelblue;"></circle><circle cx="73.93127679824829" cy="183.0127027299669" r="2" style="fill: steelblue;"></circle><circle cx="165.24796353446112" cy="43.99056434631348" r="2" style="fill: steelblue;"></circle><circle cx="67.52972139252556" cy="78.71392485168245" r="2" style="fill: steelblue;"></circle><circle cx="150.8774757385254" cy="55.387147929933334" r="2" style="fill: steelblue;"></circle><circle cx="118.45831904146407" cy="31.25880029466417" r="2" style="fill: steelblue;"></circle><circle cx="90.35150541199577" cy="91.70889742672443" r="2" style="fill: steelblue;"></circle><circle cx="80.78191015455458" cy="80.26114304860432" r="2" style="fill: steelblue;"></circle><circle cx="66.72469112608168" cy="15.914882553948306" r="2" style="fill: steelblue;"></circle><circle cx="136.81645856963263" cy="33.39381217956543" r="2" style="fill: steelblue;"></circle><circle cx="111.00037399834643" cy="58.98675852351718" r="2" style="fill: steelblue;"></circle><circle cx="158.99111496077643" cy="42.12848875257704" r="2" style="fill: steelblue;"></circle><circle cx="192.87463691499497" cy="6.24979072146945" r="2" style="fill: steelblue;"></circle><circle cx="110.67151588698228" cy="71.16629878679912" r="2" style="fill: steelblue;"></circle><circle cx="92.15589529938167" cy="128.6367760764228" r="2" style="fill: steelblue;"></circle><circle cx="101.5180241730478" cy="51.3684736357795" r="2" style="fill: steelblue;"></circle><circle cx="99.2157550321685" cy="112.1453861395518" r="2" style="fill: steelblue;"></circle><circle cx="91.38024515575832" cy="65.30195011032953" r="2" style="fill: steelblue;"></circle><circle cx="72.10302684042189" cy="58.78777835104201" r="2" style="fill: steelblue;"></circle><circle cx="136.54062648614246" cy="80.05316423045265" r="2" style="fill: steelblue;"></circle><circle cx="129.87774113814038" cy="55.62930835617914" r="2" style="fill: steelblue;"></circle><circle cx="86.75133850839403" cy="28.883435991075302" r="2" style="fill: steelblue;"></circle><circle cx="124.70290809869766" cy="35.09664403067696" r="2" style="fill: steelblue;"></circle><circle cx="142.57890317175125" cy="125.0126083691915" r="2" style="fill: steelblue;"></circle><circle cx="161.67441341612076" cy="122.73267772462633" r="2" style="fill: steelblue;"></circle><circle cx="153.41218312581378" cy="86.0308343751563" r="2" style="fill: steelblue;"></circle><circle cx="95.89262472258675" cy="106.43039180172815" r="2" style="fill: steelblue;"></circle><circle cx="198.34003183576797" cy="44.914532370037506" r="2" style="fill: steelblue;"></circle><circle cx="94.68218353059557" cy="74.85688924789429" r="2" style="fill: steelblue;"></circle><circle cx="146.33404546313815" cy="32.28027820587158" r="2" style="fill: steelblue;"></circle><circle cx="47.25017150243123" cy="143.96929608450995" r="2" style="fill: steelblue;"></circle><circle cx="93.45236586199867" cy="47.28727738062541" r="2" style="fill: steelblue;"></circle><circle cx="93.34372480710347" cy="91.34378669162591" r="2" style="fill: steelblue;"></circle><circle cx="145.71960435973273" cy="72.05864985783894" r="2" style="fill: steelblue;"></circle><circle cx="154.28586800893146" cy="146.59378131230673" r="2" style="fill: steelblue;"></circle><circle cx="29.269225067562527" cy="48.614477448993256" r="2" style="fill: steelblue;"></circle><circle cx="162.45145267910428" cy="81.27906372149785" r="2" style="fill: steelblue;"></circle><circle cx="113.25376149680879" cy="72.30193118254344" r="2" style="fill: steelblue;"></circle><circle cx="126.14267071088155" cy="77.58533077107536" r="2" style="fill: steelblue;"></circle><circle cx="124.2424812581804" cy="93.24872733818161" r="2" style="fill: steelblue;"></circle><circle cx="176.0740147696601" cy="104.02452150980632" r="2" style="fill: steelblue;"></circle><circle cx="77.23393042882283" cy="51.26344031757779" r="2" style="fill: steelblue;"></circle><circle cx="114.04272582795885" cy="53.064232402377655" r="2" style="fill: steelblue;"></circle><circle cx="72.65294260448879" cy="125.13401309649149" r="2" style="fill: steelblue;"></circle><circle cx="45.327272680070664" cy="121.40077551205954" r="2" style="fill: steelblue;"></circle><circle cx="44.477833641899956" cy="98.90474329392116" r="2" style="fill: steelblue;"></circle><circle cx="57.441274325052895" cy="150.88260703616672" r="2" style="fill: steelblue;"></circle><circle cx="71.8877911567688" cy="91.7734498778979" r="2" style="fill: steelblue;"></circle><circle cx="79.65523997942606" cy="127.0581669277615" r="2" style="fill: steelblue;"></circle></g></svg>