<svg xmlns="http://www.w3.org/2000/svg"><g transform="translate(40,20)"><circle cx="386.991650685668" cy="94.87334224912854" r="3" style="fill: steelblue;"></circle><circle cx="494.49186220765114" cy="183.40844671345417" r="3" style="fill: steelblue;"></circle><circle cx="342.7561080828309" cy="78.45969332589044" r="3" style="fill: steelblue;"></circle><circle cx="475.7091034948826" cy="212.96262430648005" r="3" style="fill: steelblue;"></circle><circle cx="454.6426919102669" cy="201.20066445734767" r="3" style="fill: steelblue;"></circle><circle cx="401.35393448174" cy="130.96186849806043" r="3" style="fill: steelblue;"></circle><circle cx="270.65021194168366" cy="62.50391072697108" r="3" style="fill: steelblue;"></circle><circle cx="478.8225647807121" cy="118.45725940333472" r="3" style="fill: steelblue;"></circle><circle cx="279.0972437057644" cy="81.40454358524745" r="3" style="fill: steelblue;"></circle><circle cx="136.50049276649952" cy="159.12870524658098" r="3" style="fill: steelblue;"></circle><circle cx="538.1612491607666" cy="73.18597866429224" r="3" style="fill: steelblue;"></circle><circle cx="292.70386749878526" cy="162.05084820588428" r="3" style="fill: steelblue;"></circle><circle cx="272.7722522383556" cy="124.12748403019374" r="3" style="fill: steelblue;"></circle><circle cx="225.88785242289305" cy="188.03582402567065" r="3" style="fill: steelblue;"></circle><circle cx="429.94357019662857" cy="64.90033202701146" r="3" style="fill: steelblue;"></circle><circle cx="484.2702117562294" cy="192.32523919911023" r="3" style="fill: steelblue;"></circle><circle cx="349.74720373749733" cy="206.34316094219685" r="3" style="fill: steelblue;"></circle><circle cx="228.14539147540927" cy="214.36427057617243" r="3" style="fill: steelblue;"></circle><circle cx="337.95233711600304" cy="50.038115845786194" r="3" style="fill: steelblue;"></circle><circle cx="354.96560230851173" cy="219.7283146282037" r="3" style="fill: steelblue;"></circle><circle cx="258.36963661015034" cy="146.7627853982978" r="3" style="fill: steelblue;"></circle><circle cx="417.9818567633629" cy="175.76728305882875" r="3" style="fill: steelblue;"></circle><circle cx="244.15131200104952" cy="245.38353333870566" r="3" style="fill: steelblue;"></circle><circle cx="249.86834370531142" cy="92.51889917585584" r="3" style="fill: steelblue;"></circle><circle cx="364.75250355899334" cy="209.9817051655716" r="3" style="fill: steelblue;"></circle><circle cx="337.29028578847647" cy="172.03468477560415" r="3" style="fill: steelblue;"></circle><circle cx="370.1686681061983" cy="176.81008328994113" r="3" style="fill: steelblue;"></circle><circle cx="347.5632033124566" cy="143.13181655274497" r="3" style="fill: steelblue;"></circle><circle cx="353.89583341777325" cy="185.28837182869512" r="3" style="fill: steelblue;"></circle><circle cx="116.37053757905962" cy="248.54755815532474" r="3" style="fill: steelblue;"></circle><circle cx="291.53685009106994" cy="226.51759742034804" r="3" style="fill: steelblue;"></circle><circle cx="214.26398668438196" cy="213.84060900244447" r="3" style="fill: steelblue;"></circle><circle cx="228.27251812443137" cy="264.31397514210806" r="3" style="fill: steelblue;"></circle><circle cx="378.4529221057892" cy="184.14979355616703" r="3" style="fill: steelblue;"></circle><circle cx="472.65810415148735" cy="185.64451527264384" r="3" style="fill: steelblue;"></circle><circle cx="198.16032227128744" cy="177.62474425964888" r="3" style="fill: steelblue;"></circle><circle cx="270.2085987282044" cy="339.04344174597" r="3" style="fill: steelblue;"></circle><circle cx="266.0777326254174" cy="227.90097238288985" r="3" style="fill: steelblue;"></circle><circle cx="293.9262381568551" cy="184.93487954967554" r="3" style="fill: steelblue;"></circle><circle cx="182.86394074559212" cy="136.3186008400387" r="3" style="fill: steelblue;"></circle><circle cx="74.3202929198742" cy="184.76835234711564" r="3" style="fill: steelblue;"></circle><circle cx="151.4085491001606" cy="193.193343687906" r="3" style="fill: steelblue;"></circle><circle cx="192.6984679698944" cy="266.8926633066601" r="3" style="fill: steelblue;"></circle><circle cx="199.41985074430704" cy="190.22577318052447" r="3" style="fill: steelblue;"></circle><circle cx="223.88676188886166" cy="137.29797303676605" r="3" style="fill: steelblue;"></circle><circle cx="250.24692619219422" cy="331.9411476453145" r="3" style="fill: steelblue;"></circle><circle cx="146.7713986337185" cy="207.79092009696694" r="3" style="fill: steelblue;"></circle><circle cx="218.1298729777336" cy="263.58841359615326" r="3" style="fill: steelblue;"></circle><circle cx="196.59268844872713" cy="266.6356480783886" r="3" style="fill: steelblue;"></circle><circle cx="193.7070020288229" cy="168.03659912612704" r="3" style="fill: steelblue;"></circle><circle cx="217.34758995473385" cy="162.70322021510867" r="3" style="fill: steelblue;"></circle><circle cx="169.5597381144762" cy="297.638573580318" r="3" style="fill: steelblue;"></circle><circle cx="196.3265261426568" cy="259.6573821372456" r="3" style="fill: steelblue;"></circle><circle cx="151.79683908820152" cy="215.45978987382517" r="3" style="fill: steelblue;"></circle><circle cx="28.61195102334024" cy="297.9107598463694" r="3" style="fill: steelblue;"></circle><circle cx="170.62233544886112" cy="230.09856500559385" r="3" style="fill: steelblue;"></circle><circle cx="345.09551402181387" cy="276.1748350328869" r="3" style="fill: steelblue;"></circle><circle cx="286.30307491868734" cy="293.49190824561646" r="3" style="fill: steelblue;"></circle><circle cx="112.44681112468244" cy="245.71722663111154" r="3" style="fill: steelblue;"></circle><circle cx="206.50565519928932" cy="192.13396018474464" r="3" style="fill: steelblue;"></circle><circle cx="392.9131333529949" cy="189.27347002964882" r="3" style="fill: steelblue;"></circle><circle cx="376.244545429945" cy="249.03837425841223" r="3" style="fill: steelblue;"></circle><circle cx="412.3719897866249" cy="171.14030342135163" r="3" style="fill: steelblue;"></circle><circle cx="369.75328110158443" cy="192.5588443150951" r="3" style="fill: steelblue;"></circle><circle cx="147.9531665146351" cy="215.46564851370124" r="3" style="fill: steelblue;"></circle><circle cx="466.59609720110893" cy="166.0241853031847" r="3" style="fill: steelblue;"></circle><circle cx="293.26594199985266" cy="109.91325891680187" r="3" style="fill: steelblue;"></circle><circle cx="364.95997577905655" cy="87.33017245928448" r="3" style="fill: steelblue;"></circle><circle cx="421.7714962363243" cy="165.48306660519705" r="3" style="fill: steelblue;"></circle><circle cx="468.54820892214775" cy="193.87324607103233" r="3" style="fill: steelblue;"></circle><circle cx="116.81319259107114" cy="200.18497021454903" r="3" style="fill: steelblue;"></circle><circle cx="257.4484813772142" cy="213.12934636241857" r="3" style="fill: steelblue;"></circle><circle cx="119.29621070623399" cy="166.94139275285931" r="3" style="fill: steelblue;"></circle><circle cx="213.3423813432455" cy="170.6685597697894" r="3" style="fill: steelblue;"></circle><circle cx="317.85836040973663" cy="311.31969723436566" r="3" style="fill: steelblue;"></circle><circle cx="329.48246754705906" cy="313.03448809517755" r="3" style="fill: steelblue;"></circle><circle cx="110.82956984639169" cy="169.99836845530405" r="3" style="fill: steelblue;"></circle><circle cx="137.4173355102539" cy="329.9865060382419" r="3" style="fill: steelblue;"></circle><circle cx="107.26451173424722" cy="289.8047723703914" r="3" style="fill: steelblue;"></circle><circle cx="118.24513010680677" cy="140.27131100495654" r="3" style="fill: steelblue;"></circle><circle cx="174.88282330334187" cy="283.1743044985665" r="3" style="fill: steelblue;"></circle><circle cx="168.45718927681446" cy="263.46672657463284" r="3" style="fill: steelblue;"></circle><circle cx="364.5453029125929" cy="297.2891181707382" r="3" style="fill: steelblue;"></circle><circle cx="384.63628225028515" cy="196.13295074345336" r="3" style="fill: steelblue;"></circle><circle cx="243.91848787665367" cy="193.90465997599273" r="3" style="fill: steelblue;"></circle><circle cx="351.0668908059597" cy="236.18130510052043" r="3" style="fill: steelblue;"></circle><circle cx="201.03320952504873" cy="107.25515749719409" r="3" style="fill: steelblue;"></circle><circle cx="183.2802028208971" cy="105.55229832728702" r="3" style="fill: steelblue;"></circle><circle cx="482.0489001274109" cy="33.91810589366491" r="3" style="fill: steelblue;"></circle><circle cx="247.44977781549096" cy="110.07270548078748" r="3" style="fill: steelblue;"></circle><circle cx="315.18776033073664" cy="159.3539383676317" r="3" style="fill: steelblue;"></circle><circle cx="464.0711461007595" cy="119.00332404507532" r="3" style="fill: steelblue;"></circle><circle cx="476.52133002877235" cy="89.49402140246497" r="3" style="fill: steelblue;"></circle><circle cx="330.67148745059967" cy="137.63425085279675" r="3" style="fill: steelblue;"></circle><circle cx="202.76735823601484" cy="221.1403917107317" r="3" style="fill: steelblue;"></circle><circle cx="61.002883762121215" cy="235.61617814832266" r="3" style="fill: steelblue;"></circle><circle cx="125.5479269474745" cy="213.93038208285964" r="3" style="fill: steelblue;"></circle><circle cx="215.7348145544529" cy="184.95512764073078" r="3" style="fill: steelblue;"></circle><circle cx="152.8633289784193" cy="233.55489306979712" r="3" style="fill: steelblue;"></circle><circle cx="328.87507796287537" cy="311.4222321245405" r="3" style="fill: steelblue;"></circle><circle cx="306.3927969709039" cy="263.13204235500757" r="3" style="fill: steelblue;"></circle><circle cx="127.73684084415437" cy="211.4513994505008" r="3" style="fill: steelblue;"></circle><circle cx="102.55946785211565" cy="207.4043990837203" r="3" style="fill: steelblue;"></circle><circle cx="221.1242240667343" cy="334.9287062883377" r="3" style="fill: steelblue;"></circle><circle cx="86.77458062767984" cy="282.5782646735509" r="3" style="fill: steelblue;"></circle><circle cx="67.40349277853967" cy="325.24950305620825" r="3" style="fill: steelblue;"></circle><circle cx="460.1053659617901" cy="90.14300339751772" r="3" style="fill: steelblue;"></circle><circle cx="430.2365981787443" cy="65.78824917475384" r="3" style="fill: steelblue;"></circle><circle cx="410.2901664376259" cy="175.19269159270658" r="3" style="fill: steelblue;"></circle><circle cx="415.58793492615223" cy="180.52837107744483" r="3" style="fill: steelblue;"></circle><circle cx="486.9662743806839" cy="130.94237446784973" r="3" style="fill: steelblue;"></circle><circle cx="495.3942511975765" cy="131.6303213437398" r="3" style="fill: steelblue;"></circle><circle cx="195.5635952576995" cy="151.2367696397834" r="3" style="fill: steelblue;"></circle><circle cx="153.13042670488358" cy="193.47995852068482" r="3" style="fill: steelblue;"></circle><circle cx="129.08589810132983" cy="190.10832403889958" r="3" style="fill: steelblue;"></circle><circle cx="163.42665933072567" cy="172.661780897114" r="3" style="fill: steelblue;"></circle><circle cx="292.478886321187" cy="269.78660540448294" r="3" style="fill: steelblue;"></circle><circle cx="286.5634335950017" cy="295.2664560741848" r="3" style="fill: steelblue;"></circle></g></svg>