<svg xmlns="http://www.w3.org/2000/svg"><g><circle cx="49.47386176791042" cy="68.31309795379639" r="2" style="fill: steelblue;"></circle><circle cx="45.30809745192528" cy="49.01090322269334" r="2" style="fill: steelblue;"></circle><circle cx="41.67623743414879" cy="82.2656942738427" r="2" style="fill: steelblue;"></circle><circle cx="37.97738831490278" cy="61.410747634039986" r="2" style="fill: steelblue;"></circle><circle cx="25.588273257017136" cy="34.70790982246399" r="2" style="fill: steelblue;"></circle><circle cx="46.86887580901384" cy="55.45826355616252" r="2" style="fill: steelblue;"></circle><circle cx="39.47016801685095" cy="64.72678747442033" r="2" style="fill: steelblue;"></circle><circle cx="45.431993156671524" cy="48.39637767937448" r="2" style="fill: steelblue;"></circle><circle cx="25.4603523761034" cy="46.869658099280464" r="2" style="fill: steelblue;"></circle><circle cx="47.33578087761998" cy="56.21754477421443" r="2" style="fill: steelblue;"></circle><circle cx="64.02647327631712" cy="65.12721478939056" r="2" style="fill: steelblue;"></circle><circle cx="31.92428983747959" cy="30.76473391718335" r="2" style="fill: steelblue;"></circle><circle cx="22.876839339733127" cy="75.02628631061978" r="2" style="fill: steelblue;"></circle><circle cx="18.409996479749683" cy="33.048585222827064" r="2" style="fill: steelblue;"></circle><circle cx="39.17714226990938" cy="58.7404727935791" r="2" style="fill: steelblue;"></circle><circle cx="7.728710025548938" cy="50.700348450077904" r="2" style="fill: steelblue;"></circle><circle cx="30.861129239201546" cy="60.56431531906128" r="2" style="fill: steelblue;"></circle><circle cx="50.77839457662776" cy="50.65390898121728" r="2" style="fill: steelblue;"></circle><circle cx="38.26981242746115" cy="36.364609334203934" r="2" style="fill: steelblue;"></circle><circle cx="59.805018082261086" cy="51.619025733735825" r="2" style="fill: steelblue;"></circle><circle cx="78.65765802562237" cy="30.490760339630974" r="2" style="fill: steelblue;"></circle><circle cx="68.91474239528179" cy="29.239372412363686" r="2" style="fill: steelblue;"></circle><circle cx="11.957242339849476" cy="17.294455899132622" r="2" style="fill: steelblue;"></circle><circle cx="52.84274714067578" cy="50.195668472184074" r="2" style="fill: steelblue;"></circle><circle cx="27.979499846696854" cy="64.08722632461124" r="2" style="fill: steelblue;"></circle><circle cx="34.245190396904945" cy="57.01695730288824" r="2" style="fill: steelblue;"></circle><circle cx="25.796561688184738" cy="76.37870245509677" r="2" style="fill: steelblue;"></circle><circle cx="43.6546366661787" cy="80.7047446568807" r="2" style="fill: steelblue;"></circle><circle cx="17.150121927261356" cy="81.58115479681227" r="2" style="fill: steelblue;"></circle><circle cx="34.99211575835943" cy="47.465148857898185" r="2" style="fill: steelblue;"></circle><circle cx="48.02075116895139" cy="19.2877858877182" r="2" style="fill: steelblue;"></circle><circle cx="60.33191941678524" cy="11.357025305430103" r="2" style="fill: steelblue;"></circle><circle cx="93.9145565032959" cy="10.183651579750908" r="2" style="fill: steelblue;"></circle><circle cx="42.405857890844345" cy="24.73451958762275" r="2" style="fill: steelblue;"></circle><circle cx="57.17077683657408" cy="43.341713812616135" r="2" style="fill: steelblue;"></circle><circle cx="80.69580905139446" cy="30.561064018143547" r="2" style="fill: steelblue;"></circle><circle cx="53.56254447251558" cy="65.92477626270718" r="2" style="fill: steelblue;"></circle><circle cx="85.46590730547905" cy="53.95823816458385" r="2" style="fill: steelblue;"></circle><circle cx="27.53238119184971" cy="43.36403792517053" r="2" style="fill: steelblue;"></circle><circle cx="24.276144057512287" cy="71.14253706402249" r="2" style="fill: steelblue;"></circle><circle cx="58.880577981472015" cy="58.90392694208357" r="2" style="fill: steelblue;"></circle><circle cx="29.796506464481354" cy="56.878324349721275" r="2" style="fill: steelblue;"></circle><circle cx="83.92302989959717" cy="0.8089138401879192" r="2" style="fill: steelblue;"></circle><circle cx="57.234842982143164" cy="44.19508761105438" r="2" style="fill: steelblue;"></circle><circle cx="69.81996558606625" cy="53.01344411240684" r="2" style="fill: steelblue;"></circle><circle cx="77.11962908506393" cy="17.721299661530388" r="2" style="fill: steelblue;"></circle><circle cx="56.582504604011774" cy="42.656636238098145" r="2" style="fill: steelblue;"></circle><circle cx="82.34004974365234" cy="27.793449825710724" r="2" style="fill: steelblue;"></circle><circle cx="27.67617180943489" cy="55.889856649769676" r="2" style="fill: steelblue;"></circle><circle cx="9.425706416368488" cy="26.70749624570211" r="2" style="fill: steelblue;"></circle><circle cx="6.823043525218966" cy="50.744332952631844" r="2" style="fill: steelblue;"></circle><circle cx="30.92655837535858" cy="39.22022357583046" r="2" style="fill: steelblue;"></circle><circle cx="57.361303083598614" cy="20.227302445305718" r="2" style="fill: steelblue;"></circle><circle cx="83.58341380953789" cy="29.281183414989055" r="2" style="fill: steelblue;"></circle><circle cx="49.19578869594261" cy="51.894408298863304" r="2" style="fill: steelblue;"></circle><circle cx="36.80306877940893" cy="78.59651843706767" r="2" style="fill: steelblue;"></circle><circle cx="38.691333681344986" cy="48.25735398464733" r="2" style="fill: steelblue;"></circle><circle cx="38.94564714282751" cy="52.27552867598004" r="2" style="fill: steelblue;"></circle><circle cx="49.65060121030547" cy="56.9838328493966" r="2" style="fill: steelblue;"></circle><circle cx="21.504425629973415" cy="46.19532364110152" r="2" style="fill: steelblue;"></circle><circle cx="34.11992751061916" cy="57.09336631827884" r="2" style="fill: steelblue;"></circle><circle cx="15.252641588449482" cy="67.5916035970052" r="2" style="fill: steelblue;"></circle><circle cx="27.468568831682205" cy="54.72557428810332" r="2" style="fill: steelblue;"></circle><circle cx="27.908216416835785" cy="65.20281334718068" r="2" style="fill: steelblue;"></circle><circle cx="8.792015910148624" cy="77.60165068838332" r="2" style="fill: steelblue;"></circle><circle cx="25.016385316848755" cy="45.15384438758095" r="2" style="fill: steelblue;"></circle><circle cx="46.98489811271429" cy="61.50060660309262" r="2" style="fill: steelblue;"></circle><circle cx="15.921137481927875" cy="90.96373054716322" r="2" style="fill: steelblue;"></circle><circle cx="34.1141439974308" cy="70.00679704878065" r="2" style="fill: steelblue;"></circle><circle cx="14.119985699653629" cy="71.52709298663669" r="2" style="fill: steelblue;"></circle><circle cx="41.26862734556198" cy="36.123122771581016" r="2" style="fill: steelblue;"></circle><circle cx="59.37213841825724" cy="33.08233221371969" r="2" style="fill: steelblue;"></circle><circle cx="70.04891633987427" cy="52.464761005507576" r="2" style="fill: steelblue;"></circle><circle cx="85.33653542399406" cy="50.08112531569269" r="2" style="fill: steelblue;"></circle><circle cx="68.38269829750061" cy="21.01415329509312" r="2" style="fill: steelblue;"></circle><circle cx="68.81921477615833" cy="12.331720193227136" r="2" style="fill: steelblue;"></circle><circle cx="91.7468398809433" cy="32.92284177409278" r="2" style="fill: steelblue;"></circle><circle cx="72.59557694196701" cy="28.1172106663386" r="2" style="fill: steelblue;"></circle><circle cx="53.825186751782894" cy="17.14820762475332" r="2" style="fill: steelblue;"></circle><circle cx="91.8940857052803" cy="34.543258614010284" r="2" style="fill: steelblue;"></circle><circle cx="80.43489716947079" cy="16.50309496455723" r="2" style="fill: steelblue;"></circle><circle cx="78.39396148920059" cy="24.355682399537827" r="2" style="fill: steelblue;"></circle><circle cx="83.80891680717468" cy="18.22863949669732" r="2" style="fill: steelblue;"></circle><circle cx="37.30653245002031" cy="59.54763227038913" r="2" style="fill: steelblue;"></circle><circle cx="34.42524578422308" cy="65.65557519594829" r="2" style="fill: steelblue;"></circle><circle cx="21.465559676289562" cy="54.871281153625915" r="2" style="fill: steelblue;"></circle><circle cx="73.85516464710236" cy="48.148296525081" r="2" style="fill: steelblue;"></circle><circle cx="13.897790759801868" cy="30.490470594829986" r="2" style="fill: steelblue;"></circle><circle cx="23.323544487357143" cy="55.721004969543884" r="2" style="fill: steelblue;"></circle><circle cx="92.145986109972" cy="28.33817501862844" r="2" style="fill: steelblue;"></circle><circle cx="69.68047767877579" cy="26.350090238783096" r="2" style="fill: steelblue;"></circle><circle cx="70.71714960038662" cy="16.788720422320903" r="2" style="fill: steelblue;"></circle><circle cx="93.35588216781616" cy="22.017049458291794" r="2" style="fill: steelblue;"></circle><circle cx="71.26412652432919" cy="7.229436768425835" r="2" style="fill: steelblue;"></circle><circle cx="48.54796065483242" cy="45.78335082365407" r="2" style="fill: steelblue;"></circle><circle cx="76.92494355142117" cy="2.2941357559628006" r="2" style="fill: steelblue;"></circle><circle cx="62.51307036727667" cy="0.9786215093400719" r="2" style="fill: steelblue;"></circle><circle cx="50.03495253258734" cy="42.04924566050371" r="2" style="fill: steelblue;"></circle><circle cx="71.8394435942173" cy="34.13751572370529" r="2" style="fill: steelblue;"></circle><circle cx="18.402869999408725" cy="20.0271252128813" r="2" style="fill: steelblue;"></circle><circle cx="52.24226829595864" cy="17.857082353697884" r="2" style="fill: steelblue;"></circle><circle cx="51.299223862588406" cy="51.033477154042984" r="2" style="fill: steelblue;"></circle><circle cx="56.54076039791107" cy="43.68602330279019" r="2" style="fill: steelblue;"></circle><circle cx="66.8529748916626" cy="27.915796637535095" r="2" style="fill: steelblue;"></circle><circle cx="86.43270954489708" cy="67.92498562071059" r="2" style="fill: steelblue;"></circle><circle cx="91.49561747908592" cy="66.52667721112569" r="2" style="fill: steelblue;"></circle><circle cx="63.082846999168396" cy="19.397875666618347" r="2" style="fill: steelblue;"></circle><circle cx="58.62972717732191" cy="52.72241036097209" r="2" style="fill: steelblue;"></circle><circle cx="31.83637112379074" cy="36.67820427152846" r="2" style="fill: steelblue;"></circle><circle cx="83.8754877448082" cy="17.614352371957565" r="2" style="fill: steelblue;"></circle><circle cx="54.23590373247862" cy="20.368663138813446" r="2" style="fill: steelblue;"></circle><circle cx="64.00073152035475" cy="8.640152878231477" r="2" style="fill: steelblue;"></circle><circle cx="72.03236892819405" cy="45.276966266747976" r="2" style="fill: steelblue;"></circle><circle cx="22.70552441477776" cy="52.9746456278695" r="2" style="fill: steelblue;"></circle><circle cx="36.35005857795477" cy="62.34507030910916" r="2" style="fill: steelblue;"></circle><circle cx="20.75777314603329" cy="57.28318062093523" r="2" style="fill: steelblue;"></circle><circle cx="32.01892897486687" cy="67.78859694798787" r="2" style="fill: steelblue;"></circle><circle cx="44.039477314800024" cy="57.5536201397578" r="2" style="fill: steelblue;"></circle></g></svg>