<svg xmlns="http://www.w3.org/2000/svg"><rect width="200" height="200" fill="white"></rect><g><circle cx="10.353067186143667" cy="150.55926367640495" r="2" style="fill: steelblue;"></circle><circle cx="49.78980157110426" cy="189.74582701921463" r="2" style="fill: steelblue;"></circle><circle cx="17.73443354500665" cy="119.84838023781776" r="2" style="fill: steelblue;"></circle><circle cx="40.84271060095893" cy="190.386800467968" r="2" style="fill: steelblue;"></circle><circle cx="45.48155797852411" cy="91.44833162426949" r="2" style="fill: steelblue;"></circle><circle cx="47.565134366353355" cy="87.16834001243114" r="2" style="fill: steelblue;"></circle><circle cx="92.11529990037283" cy="107.53079866990447" r="2" style="fill: steelblue;"></circle><circle cx="10.472183757358131" cy="88.43353521078825" r="2" style="fill: steelblue;"></circle><circle cx="113.2905619011985" cy="131.88197314739227" r="2" style="fill: steelblue;"></circle><circle cx="58.70229535632664" cy="169.88425552845" r="2" style="fill: steelblue;"></circle><circle cx="62.89118230342865" cy="62.61921897530556" r="2" style="fill: steelblue;"></circle><circle cx="78.49891185760498" cy="5.796945095062256" r="2" style="fill: steelblue;"></circle><circle cx="142.74403651555377" cy="149.10908639431" r="2" style="fill: steelblue;"></circle><circle cx="12.63926956388686" cy="50.05292817950249" r="2" style="fill: steelblue;"></circle><circle cx="109.35241679350536" cy="128.8969650864601" r="2" style="fill: steelblue;"></circle><circle cx="44.38409407933553" cy="106.49724807590246" r="2" style="fill: steelblue;"></circle><circle cx="38.09123105472989" cy="113.40391393750906" r="2" style="fill: steelblue;"></circle><circle cx="39.497543043560455" cy="181.20658993721008" r="2" style="fill: steelblue;"></circle><circle cx="134.35524238480463" cy="94.80910412967205" r="2" style="fill: steelblue;"></circle><circle cx="102.49861694044537" cy="61.817700415849686" r="2" style="fill: steelblue;"></circle><circle cx="81.71994768910939" cy="85.67312117666006" r="2" style="fill: steelblue;"></circle><circle cx="91.44911327295834" cy="37.98612803220749" r="2" style="fill: steelblue;"></circle><circle cx="108.14985169304742" cy="132.16257318854332" r="2" style="fill: steelblue;"></circle><circle cx="76.41533215840658" cy="76.25332325696945" r="2" style="fill: steelblue;"></circle><circle cx="18.103161123063835" cy="128.11694703996181" r="2" style="fill: steelblue;"></circle><circle cx="15.001679791344541" cy="174.85520094633102" r="2" style="fill: steelblue;"></circle><circle cx="43.89054112964207" cy="182.9845741391182" r="2" style="fill: steelblue;"></circle><circle cx="66.90136128001744" cy="100.61966344946995" r="2" style="fill: steelblue;"></circle><circle cx="65.75078633096484" cy="88.88835497200489" r="2" style="fill: steelblue;"></circle><circle cx="103.12255753411188" cy="199.8760685324669" r="2" style="fill: steelblue;"></circle><circle cx="140.59805737601388" cy="36.45084649324417" r="2" style="fill: steelblue;"></circle><circle cx="107.66810211870406" cy="116.56470634043217" r="2" style="fill: steelblue;"></circle><circle cx="143.32509901788498" cy="75.42893327772617" r="2" style="fill: steelblue;"></circle><circle cx="122.1911562813653" cy="28.51272225379944" r="2" style="fill: steelblue;"></circle><circle cx="113.29179207483928" cy="129.6773985028267" r="2" style="fill: steelblue;"></circle><circle cx="16.38966004053752" cy="55.842483788728714" r="2" style="fill: steelblue;"></circle><circle cx="33.01995860205757" cy="130.2347056567669" r="2" style="fill: steelblue;"></circle><circle cx="131.41734931204056" cy="158.51049348711967" r="2" style="fill: steelblue;"></circle><circle cx="60.1328366332584" cy="108.69902689009905" r="2" style="fill: steelblue;"></circle><circle cx="125.47738883230421" cy="89.56817481666803" r="2" style="fill: steelblue;"></circle><circle cx="69.93242800235748" cy="118.37942376732826" r="2" style="fill: steelblue;"></circle><circle cx="145.6128544277615" cy="10.964258015155792" r="2" style="fill: steelblue;"></circle><circle cx="127.85651485125224" cy="69.18060444295406" r="2" style="fill: steelblue;"></circle><circle cx="127.90939410527547" cy="123.85162189602852" r="2" style="fill: steelblue;"></circle><circle cx="109.24800932407379" cy="44.84138861298561" r="2" style="fill: steelblue;"></circle><circle cx="75.89722209506566" cy="109.49870608747005" r="2" style="fill: steelblue;"></circle><circle cx="113.14818792872958" cy="101.1458876542747" r="2" style="fill: steelblue;"></circle><circle cx="28.226029872894294" cy="111.10097113996744" r="2" style="fill: steelblue;"></circle><circle cx="13.791202174292675" cy="117.28502847254276" r="2" style="fill: steelblue;"></circle><circle cx="39.005221923192344" cy="89.73971512168646" r="2" style="fill: steelblue;"></circle><circle cx="110.280908147494" cy="95.18433259800076" r="2" style="fill: steelblue;"></circle><circle cx="74.02473721239302" cy="172.4933072924614" r="2" style="fill: steelblue;"></circle><circle cx="43.13555227385627" cy="110.83032134920359" r="2" style="fill: steelblue;"></circle><circle cx="77.21195651425255" cy="106.39878492802382" r="2" style="fill: steelblue;"></circle><circle cx="107.08156757884555" cy="148.97627606987953" r="2" style="fill: steelblue;"></circle><circle cx="66.65043069256676" cy="121.8740813434124" r="2" style="fill: steelblue;"></circle><circle cx="23.092407650417755" cy="168.29936802387238" r="2" style="fill: steelblue;"></circle><circle cx="82.6921246945858" cy="121.50632813572884" r="2" style="fill: steelblue;"></circle><circle cx="57.40073853068882" cy="198.59977662563324" r="2" style="fill: steelblue;"></circle><circle cx="62.39064236481985" cy="166.6128769516945" r="2" style="fill: steelblue;"></circle><circle cx="126.01413859261407" cy="152.96799167990685" r="2" style="fill: steelblue;"></circle><circle cx="146.95258140563965" cy="103.4113007131964" r="2" style="fill: steelblue;"></circle><circle cx="20.235497421688507" cy="139.8879311978817" r="2" style="fill: steelblue;"></circle><circle cx="2.2879229651557127" cy="127.78254449367523" r="2" style="fill: steelblue;"></circle><circle cx="20.787456300523548" cy="110.61720959842205" r="2" style="fill: steelblue;"></circle><circle cx="4.482148753272167" cy="139.4754558801651" r="2" style="fill: steelblue;"></circle><circle cx="97.49173571666083" cy="156.65745958685875" r="2" style="fill: steelblue;"></circle><circle cx="55.95958762698704" cy="172.34547287225723" r="2" style="fill: steelblue;"></circle><circle cx="92.42891801728142" cy="119.81434971094131" r="2" style="fill: steelblue;"></circle><circle cx="46.774482064776954" cy="150.327867269516" r="2" style="fill: steelblue;"></circle><circle cx="23.931852976481125" cy="161.50270625948906" r="2" style="fill: steelblue;"></circle><circle cx="139.69958358340793" cy="40.83165377378464" r="2" style="fill: steelblue;"></circle><circle cx="101.13613092237048" cy="20.77627032995224" r="2" style="fill: steelblue;"></circle><circle cx="126.12835764884949" cy="71.65587916970253" r="2" style="fill: steelblue;"></circle><circle cx="145.34956746631198" cy="70.09625472128391" r="2" style="fill: steelblue;"></circle><circle cx="75.80224209361607" cy="41.44290313124657" r="2" style="fill: steelblue;"></circle><circle cx="93.27951023976009" cy="73.05196337401867" r="2" style="fill: steelblue;"></circle><circle cx="137.6351965798272" cy="24.293309450149536" r="2" style="fill: steelblue;"></circle><circle cx="161.07460392846002" cy="49.75486770272255" r="2" style="fill: steelblue;"></circle><circle cx="37.028212017483185" cy="24.998141825199127" r="2" style="fill: steelblue;"></circle><circle cx="183.94984669155545" cy="139.30839523673058" r="2" style="fill: steelblue;"></circle><circle cx="151.1462516254849" cy="44.20280307531357" r="2" style="fill: steelblue;"></circle><circle cx="91.90131591426002" cy="60.874494165182114" r="2" style="fill: steelblue;"></circle><circle cx="130.17683095402188" cy="93.21697978302836" r="2" style="fill: steelblue;"></circle><circle cx="14.808216359880241" cy="111.75695564597845" r="2" style="fill: steelblue;"></circle><circle cx="46.74936864111159" cy="135.13434529304504" r="2" style="fill: steelblue;"></circle><circle cx="68.7531335486306" cy="121.14692702889442" r="2" style="fill: steelblue;"></circle><circle cx="135.41580107476975" cy="92.16283764690161" r="2" style="fill: steelblue;"></circle><circle cx="62.82999482419756" cy="81.0892678797245" r="2" style="fill: steelblue;"></circle><circle cx="188.27513058980304" cy="66.83409810066223" r="2" style="fill: steelblue;"></circle><circle cx="158.96799034542508" cy="39.38932940363884" r="2" style="fill: steelblue;"></circle><circle cx="155.3679757648044" cy="24.515031278133392" r="2" style="fill: steelblue;"></circle><circle cx="175.33903519312543" cy="55.64253255724907" r="2" style="fill: steelblue;"></circle><circle cx="107.45642118983798" cy="54.224806278944016" r="2" style="fill: steelblue;"></circle><circle cx="117.7289605140686" cy="74.03586097061634" r="2" style="fill: steelblue;"></circle><circle cx="151.4455000559489" cy="52.93315127491951" r="2" style="fill: steelblue;"></circle><circle cx="166.06049935022992" cy="12.81149536371231" r="2" style="fill: steelblue;"></circle><circle cx="82.7946281267537" cy="142.8214631974697" r="2" style="fill: steelblue;"></circle><circle cx="38.199668460422096" cy="120.0918223708868" r="2" style="fill: steelblue;"></circle><circle cx="134.45661664009094" cy="83.03046822547913" r="2" style="fill: steelblue;"></circle><circle cx="70.30227482318878" cy="82.57249966263771" r="2" style="fill: steelblue;"></circle><circle cx="117.0326292514801" cy="74.55530986189842" r="2" style="fill: steelblue;"></circle><circle cx="126.82412597868178" cy="87.55958024412394" r="2" style="fill: steelblue;"></circle><circle cx="110.06397869851854" cy="97.12955020368099" r="2" style="fill: steelblue;"></circle><circle cx="113.9891631073422" cy="41.07047840952873" r="2" style="fill: steelblue;"></circle><circle cx="124.56452051798503" cy="35.89547276496887" r="2" style="fill: steelblue;"></circle><circle cx="130.33447199397617" cy="64.77672085165977" r="2" style="fill: steelblue;"></circle><circle cx="82.72745658953986" cy="29.326653480529785" r="2" style="fill: steelblue;"></circle><circle cx="124.82669485939874" cy="118.29788275063038" r="2" style="fill: steelblue;"></circle><circle cx="133.14234415690106" cy="59.922775626182556" r="2" style="fill: steelblue;"></circle><circle cx="123.44245314598083" cy="65.10112285614014" r="2" style="fill: steelblue;"></circle><circle cx="68.32367380460104" cy="103.31758637912571" r="2" style="fill: steelblue;"></circle><circle cx="68.30950776735942" cy="164.0370100736618" r="2" style="fill: steelblue;"></circle><circle cx="109.03899073600769" cy="175.6722018122673" r="2" style="fill: steelblue;"></circle><circle cx="61.64822677771251" cy="164.45839256048203" r="2" style="fill: steelblue;"></circle><circle cx="33.706878953509865" cy="162.41824105381966" r="2" style="fill: steelblue;"></circle><circle cx="74.70838096406726" cy="140.40320590138435" r="2" style="fill: steelblue;"></circle><circle cx="103.34284636709425" cy="98.02506202831864" r="2" style="fill: steelblue;"></circle></g></svg>