<svg xmlns="http://www.w3.org/2000/svg"><g><circle cx="27.710186110602486" cy="77.96299457550049" r="2" style="fill: steelblue;"></circle><circle cx="29.15951775179969" cy="59.6589669585228" r="2" style="fill: steelblue;"></circle><circle cx="77.62227290206485" cy="61.341821402311325" r="2" style="fill: steelblue;"></circle><circle cx="54.8153204532961" cy="54.03400883078575" r="2" style="fill: steelblue;"></circle><circle cx="34.7499003012975" cy="58.83096754550934" r="2" style="fill: steelblue;"></circle><circle cx="47.45623386568493" cy="76.35443806648254" r="2" style="fill: steelblue;"></circle><circle cx="32.042288117938575" cy="36.30523681640625" r="2" style="fill: steelblue;"></circle><circle cx="45.844193134042946" cy="43.659765273332596" r="2" style="fill: steelblue;"></circle><circle cx="42.7780763970481" cy="55.857522413134575" r="2" style="fill: steelblue;"></circle><circle cx="58.548781813846695" cy="45.384445786476135" r="2" style="fill: steelblue;"></circle><circle cx="32.99485974841648" cy="77.95657515525818" r="2" style="fill: steelblue;"></circle><circle cx="78.46622831291621" cy="64.82372432947159" r="2" style="fill: steelblue;"></circle><circle cx="33.77832141187456" cy="91.24099314212799" r="2" style="fill: steelblue;"></circle><circle cx="21.878735886679753" cy="62.15927302837372" r="2" style="fill: steelblue;"></circle><circle cx="52.68156445688671" cy="43.00777465105057" r="2" style="fill: steelblue;"></circle><circle cx="49.51535248094135" cy="73.84037971496582" r="2" style="fill: steelblue;"></circle><circle cx="53.19747784071498" cy="72.02651798725128" r="2" style="fill: steelblue;"></circle><circle cx="72.46433032883537" cy="57.89051726460457" r="2" style="fill: steelblue;"></circle><circle cx="86.00637316703796" cy="31.53521418571472" r="2" style="fill: steelblue;"></circle><circle cx="79.97299234072366" cy="40.7518744468689" r="2" style="fill: steelblue;"></circle><circle cx="42.328499257564545" cy="41.87542125582695" r="2" style="fill: steelblue;"></circle><circle cx="82.76629447937012" cy="39.04068097472191" r="2" style="fill: steelblue;"></circle><circle cx="22.55104316605462" cy="55.399364605546" r="2" style="fill: steelblue;"></circle><circle cx="40.668588545587326" cy="53.55382077395916" r="2" style="fill: steelblue;"></circle><circle cx="49.89111257923974" cy="43.25411170721054" r="2" style="fill: steelblue;"></circle><circle cx="58.23770848413309" cy="71.51899933815002" r="2" style="fill: steelblue;"></circle><circle cx="58.47134648097886" cy="70.22558003664017" r="2" style="fill: steelblue;"></circle><circle cx="31.00249336825477" cy="77.92846858501434" r="2" style="fill: steelblue;"></circle><circle cx="32.945288552178276" cy="42.9277777671814" r="2" style="fill: steelblue;"></circle><circle cx="51.497826973597206" cy="50.22773137316108" r="2" style="fill: steelblue;"></circle><circle cx="81.44056962596046" cy="9.292793273925781" r="2" style="fill: steelblue;"></circle><circle cx="83.3243578672409" cy="9.970930218696594" r="2" style="fill: steelblue;"></circle><circle cx="57.25776093701521" cy="41.1520317196846" r="2" style="fill: steelblue;"></circle><circle cx="57.97164473268721" cy="44.26210708916187" r="2" style="fill: steelblue;"></circle><circle cx="64.50184517436557" cy="41.21790677309036" r="2" style="fill: steelblue;"></circle><circle cx="44.76619097921583" cy="55.547669157385826" r="2" style="fill: steelblue;"></circle><circle cx="25.41986438963148" cy="69.98981982469559" r="2" style="fill: steelblue;"></circle><circle cx="25.464716884824963" cy="64.89157229661942" r="2" style="fill: steelblue;"></circle><circle cx="22.400240103403725" cy="62.05235719680786" r="2" style="fill: steelblue;"></circle><circle cx="33.809199929237366" cy="68.03193390369415" r="2" style="fill: steelblue;"></circle><circle cx="42.40550845861435" cy="62.63139992952347" r="2" style="fill: steelblue;"></circle><circle cx="88.70503306388855" cy="44.64488476514816" r="2" style="fill: steelblue;"></circle><circle cx="46.164607836140526" cy="33.31102281808853" r="2" style="fill: steelblue;"></circle><circle cx="65.46692964103487" cy="56.66622593998909" r="2" style="fill: steelblue;"></circle><circle cx="81.03873332341512" cy="46.843716874718666" r="2" style="fill: steelblue;"></circle><circle cx="57.04812126027213" cy="70.66988199949265" r="2" style="fill: steelblue;"></circle><circle cx="75.84745188554128" cy="34.81080383062363" r="2" style="fill: steelblue;"></circle><circle cx="37.465646862983704" cy="67.2365054488182" r="2" style="fill: steelblue;"></circle><circle cx="53.102091782622864" cy="72.57867157459259" r="2" style="fill: steelblue;"></circle><circle cx="27.196953694025677" cy="62.84918040037155" r="2" style="fill: steelblue;"></circle><circle cx="42.66497244437535" cy="65.52006155252457" r="2" style="fill: steelblue;"></circle><circle cx="72.79928194151985" cy="37.87057027220726" r="2" style="fill: steelblue;"></circle><circle cx="57.132924389508034" cy="42.834681272506714" r="2" style="fill: steelblue;"></circle><circle cx="52.04137787222862" cy="49.31806530803442" r="2" style="fill: steelblue;"></circle><circle cx="64.00686088535521" cy="57.942015677690506" r="2" style="fill: steelblue;"></circle><circle cx="28.07903620931837" cy="62.84809708595276" r="2" style="fill: steelblue;"></circle><circle cx="26.551832755406696" cy="64.18083310127258" r="2" style="fill: steelblue;"></circle><circle cx="41.38578805658552" cy="55.80214820802212" r="2" style="fill: steelblue;"></circle><circle cx="41.6929531428549" cy="67.73124635219574" r="2" style="fill: steelblue;"></circle><circle cx="69.48843598365784" cy="70.08515894412994" r="2" style="fill: steelblue;"></circle><circle cx="27.91741159227159" cy="79.3896347284317" r="2" style="fill: steelblue;"></circle><circle cx="64.39396325084898" cy="54.73991148173809" r="2" style="fill: steelblue;"></circle><circle cx="62.76163458824158" cy="76.75122618675232" r="2" style="fill: steelblue;"></circle><circle cx="31.91172745492723" cy="54.29356284439564" r="2" style="fill: steelblue;"></circle><circle cx="30.240340365303886" cy="63.05438280105591" r="2" style="fill: steelblue;"></circle><circle cx="17.41789115799798" cy="82.14889168739319" r="2" style="fill: steelblue;"></circle><circle cx="60.953427106142044" cy="48.402261920273304" r="2" style="fill: steelblue;"></circle><circle cx="36.98665234777662" cy="52.27547809481621" r="2" style="fill: steelblue;"></circle><circle cx="17.675062020619713" cy="73.78451079130173" r="2" style="fill: steelblue;"></circle><circle cx="29.937754074732464" cy="80.6109607219696" r="2" style="fill: steelblue;"></circle><circle cx="8.493648635016546" cy="26.97260081768036" r="2" style="fill: steelblue;"></circle><circle cx="78.00471782684326" cy="17.594102025032043" r="2" style="fill: steelblue;"></circle><circle cx="60.643037574158775" cy="37.42448687553406" r="2" style="fill: steelblue;"></circle><circle cx="72.30642603503334" cy="72.36301004886627" r="2" style="fill: steelblue;"></circle><circle cx="84.37059985266792" cy="54.67668958008289" r="2" style="fill: steelblue;"></circle><circle cx="54.14555128663778" cy="56.4179353415966" r="2" style="fill: steelblue;"></circle><circle cx="59.86942847569784" cy="58.518023788928986" r="2" style="fill: steelblue;"></circle><circle cx="92.04255872302585" cy="40.91363921761513" r="2" style="fill: steelblue;"></circle><circle cx="83.30309391021729" cy="31.518247723579407" r="2" style="fill: steelblue;"></circle><circle cx="70.50662073824141" cy="20.711255073547363" r="2" style="fill: steelblue;"></circle><circle cx="78.93575562371147" cy="30.84801882505417" r="2" style="fill: steelblue;"></circle><circle cx="96.87510463926527" cy="56.96817860007286" r="2" style="fill: steelblue;"></circle><circle cx="64.41685060660043" cy="48.3757097274065" r="2" style="fill: steelblue;"></circle><circle cx="35.6816119617886" cy="79.85512018203735" r="2" style="fill: steelblue;"></circle><circle cx="74.31576318211025" cy="60.975464433431625" r="2" style="fill: steelblue;"></circle><circle cx="43.9273069302241" cy="68.43589544296265" r="2" style="fill: steelblue;"></circle><circle cx="67.34902494483524" cy="60.55543124675751" r="2" style="fill: steelblue;"></circle><circle cx="70.60611082447899" cy="63.56920599937439" r="2" style="fill: steelblue;"></circle><circle cx="59.973417884773674" cy="25.613585114479065" r="2" style="fill: steelblue;"></circle><circle cx="72.18534582191043" cy="67.01485812664032" r="2" style="fill: steelblue;"></circle><circle cx="85.55828200446236" cy="37.64584884047508" r="2" style="fill: steelblue;"></circle><circle cx="82.45167798466152" cy="62.0198979973793" r="2" style="fill: steelblue;"></circle><circle cx="37.49369581540425" cy="30.5345818400383" r="2" style="fill: steelblue;"></circle><circle cx="38.633661137686836" cy="30.473831295967102" r="2" style="fill: steelblue;"></circle><circle cx="56.98458281242185" cy="22.610384225845337" r="2" style="fill: steelblue;"></circle><circle cx="46.78480409913593" cy="18.97335648536682" r="2" style="fill: steelblue;"></circle><circle cx="77.54273381498125" cy="34.48998034000397" r="2" style="fill: steelblue;"></circle><circle cx="62.571555376052856" cy="39.25054892897606" r="2" style="fill: steelblue;"></circle><circle cx="83.85986089706421" cy="44.16503123939037" r="2" style="fill: steelblue;"></circle><circle cx="28.015351957745022" cy="68.15562695264816" r="2" style="fill: steelblue;"></circle><circle cx="76.35636130968729" cy="36.715395748615265" r="2" style="fill: steelblue;"></circle><circle cx="54.328106654187046" cy="37.789708375930786" r="2" style="fill: steelblue;"></circle><circle cx="63.97067507108053" cy="43.102799355983734" r="2" style="fill: steelblue;"></circle><circle cx="26.703109343846638" cy="46.02564573287964" r="2" style="fill: steelblue;"></circle><circle cx="75.69276127550337" cy="41.86473563313484" r="2" style="fill: steelblue;"></circle><circle cx="59.360468139251076" cy="17.196151614189148" r="2" style="fill: steelblue;"></circle><circle cx="63.84903440872828" cy="38.716042786836624" r="2" style="fill: steelblue;"></circle><circle cx="61.20733461446232" cy="56.25912547111511" r="2" style="fill: steelblue;"></circle><circle cx="53.375636330909195" cy="34.87640470266342" r="2" style="fill: steelblue;"></circle><circle cx="47.98773924509684" cy="56.59109875559807" r="2" style="fill: steelblue;"></circle><circle cx="74.3682798412111" cy="17.972740530967712" r="2" style="fill: steelblue;"></circle><circle cx="73.46788379881117" cy="35.2172926068306" r="2" style="fill: steelblue;"></circle><circle cx="37.43299345175426" cy="49.9204360647127" r="2" style="fill: steelblue;"></circle><circle cx="39.29961224397023" cy="62.24094554781914" r="2" style="fill: steelblue;"></circle><circle cx="50.54762835303942" cy="72.44293242692947" r="2" style="fill: steelblue;"></circle><circle cx="24.558696481916638" cy="66.20021760463715" r="2" style="fill: steelblue;"></circle><circle cx="54.11327506105105" cy="51.38602200895548" r="2" style="fill: steelblue;"></circle><circle cx="36.47091653611925" cy="72.41701185703278" r="2" style="fill: steelblue;"></circle></g></svg>