<svg xmlns="http://www.w3.org/2000/svg"><g transform="translate(40,20)"><circle cx="417.7915037423372" cy="79.25078123807907" r="3" style="fill: steelblue;"></circle><circle cx="265.13535629957914" cy="136.14850673410626" r="3" style="fill: steelblue;"></circle><circle cx="346.42756775021553" cy="48.609115348921875" r="3" style="fill: steelblue;"></circle><circle cx="231.30433129146695" cy="72.83125917116803" r="3" style="fill: steelblue;"></circle><circle cx="433.1464496254921" cy="70.02967612610922" r="3" style="fill: steelblue;"></circle><circle cx="293.7344518303871" cy="43.33571361170874" r="3" style="fill: steelblue;"></circle><circle cx="326.96903821080923" cy="161.41891899622152" r="3" style="fill: steelblue;"></circle><circle cx="384.75272700190544" cy="105.21668460634021" r="3" style="fill: steelblue;"></circle><circle cx="401.7318443208933" cy="95.62981145249472" r="3" style="fill: steelblue;"></circle><circle cx="472.15700045228004" cy="29.156275259123905" r="3" style="fill: steelblue;"></circle><circle cx="486.8905757367611" cy="69.56323915057713" r="3" style="fill: steelblue;"></circle><circle cx="341.68642971664667" cy="141.0164772636361" r="3" style="fill: steelblue;"></circle><circle cx="296.41430804505944" cy="109.29377931687566" r="3" style="fill: steelblue;"></circle><circle cx="398.94609197974205" cy="162.58141208026143" r="3" style="fill: steelblue;"></circle><circle cx="395.42280592024326" cy="87.46258351537915" r="3" style="fill: steelblue;"></circle><circle cx="530.3952281177044" cy="172.6201581872172" r="3" style="fill: steelblue;"></circle><circle cx="416.8546852469444" cy="138.92930638458995" r="3" style="fill: steelblue;"></circle><circle cx="484.72239196300507" cy="143.4682687951459" r="3" style="fill: steelblue;"></circle><circle cx="228.37307581678033" cy="49.46818550427757" r="3" style="fill: steelblue;"></circle><circle cx="389.5824634283781" cy="43.98123025894165" r="3" style="fill: steelblue;"></circle><circle cx="199.66842614114285" cy="149.14118080503414" r="3" style="fill: steelblue;"></circle><circle cx="281.7556393146515" cy="45.859089493751526" r="3" style="fill: steelblue;"></circle><circle cx="368.56736920773983" cy="123.00964337256221" r="3" style="fill: steelblue;"></circle><circle cx="366.53223641216755" cy="52.14698049757215" r="3" style="fill: steelblue;"></circle><circle cx="263.23102897033095" cy="219.9244434634844" r="3" style="fill: steelblue;"></circle><circle cx="196.97755862027407" cy="151.7876757722762" r="3" style="fill: steelblue;"></circle><circle cx="308.1796561181545" cy="133.05955044925213" r="3" style="fill: steelblue;"></circle><circle cx="166.58100754022598" cy="196.78042266103955" r="3" style="fill: steelblue;"></circle><circle cx="226.00450336933136" cy="219.88321857319937" r="3" style="fill: steelblue;"></circle><circle cx="125.74373155832292" cy="160.68479549139738" r="3" style="fill: steelblue;"></circle><circle cx="131.28301955759528" cy="144.33190170675516" r="3" style="fill: steelblue;"></circle><circle cx="281.09719262458384" cy="142.76591291030246" r="3" style="fill: steelblue;"></circle><circle cx="274.6905747265555" cy="128.60649012857016" r="3" style="fill: steelblue;"></circle><circle cx="376.9221217185259" cy="312.03211943308514" r="3" style="fill: steelblue;"></circle><circle cx="297.1033985540271" cy="140.5224725190136" r="3" style="fill: steelblue;"></circle><circle cx="221.86397060751915" cy="218.4531483385298" r="3" style="fill: steelblue;"></circle><circle cx="196.6327053308487" cy="227.58105993270874" r="3" style="fill: steelblue;"></circle><circle cx="52.14720860123636" cy="214.7548109292984" r="3" style="fill: steelblue;"></circle><circle cx="87.44241043925287" cy="225.32069699631796" r="3" style="fill: steelblue;"></circle><circle cx="107.78427354991437" cy="83.94281003210278" r="3" style="fill: steelblue;"></circle><circle cx="139.59711648523808" cy="87.1617936425739" r="3" style="fill: steelblue;"></circle><circle cx="254.83243491500616" cy="215.67096660534543" r="3" style="fill: steelblue;"></circle><circle cx="272.19940374372527" cy="221.53534922334882" r="3" style="fill: steelblue;"></circle><circle cx="315.5625018104911" cy="177.26774302621686" r="3" style="fill: steelblue;"></circle><circle cx="260.01885757315904" cy="254.4225894742542" r="3" style="fill: steelblue;"></circle><circle cx="68.77421557903291" cy="206.54231905937195" r="3" style="fill: steelblue;"></circle><circle cx="225.47335054725409" cy="224.50160003370706" r="3" style="fill: steelblue;"></circle><circle cx="227.03801717609167" cy="161.3313396461308" r="3" style="fill: steelblue;"></circle><circle cx="230.24361234158278" cy="272.8310618135664" r="3" style="fill: steelblue;"></circle><circle cx="337.63002444058657" cy="181.3966571456856" r="3" style="fill: steelblue;"></circle><circle cx="258.28702666796744" cy="91.23118983374701" r="3" style="fill: steelblue;"></circle><circle cx="161.1379773169756" cy="196.26483917236328" r="3" style="fill: steelblue;"></circle><circle cx="235.07340157404542" cy="145.59048648095796" r="3" style="fill: steelblue;"></circle><circle cx="172.63602398335934" cy="229.39072483115729" r="3" style="fill: steelblue;"></circle><circle cx="186.32670611143112" cy="200.74710142281322" r="3" style="fill: steelblue;"></circle><circle cx="213.84081959724426" cy="59.556276599566154" r="3" style="fill: steelblue;"></circle><circle cx="172.07919739186764" cy="80.8497437172466" r="3" style="fill: steelblue;"></circle><circle cx="230.3062754496932" cy="174.52928957839805" r="3" style="fill: steelblue;"></circle><circle cx="333.5318420827389" cy="200.62612427605524" r="3" style="fill: steelblue;"></circle><circle cx="266.3952280115336" cy="176.95645135309962" r="3" style="fill: steelblue;"></circle><circle cx="294.4199817068875" cy="38.73448504341974" r="3" style="fill: steelblue;"></circle><circle cx="451.6390872001648" cy="173.8227700607644" r="3" style="fill: steelblue;"></circle><circle cx="355.98898239433765" cy="33.65361293156944" r="3" style="fill: steelblue;"></circle><circle cx="394.66794177889824" cy="106.81346820460425" r="3" style="fill: steelblue;"></circle><circle cx="96.32932662963869" cy="73.53798730505838" r="3" style="fill: steelblue;"></circle><circle cx="285.0928370654583" cy="68.0123511287901" r="3" style="fill: steelblue;"></circle><circle cx="312.7969867363572" cy="58.100900053977966" r="3" style="fill: steelblue;"></circle><circle cx="300.6510985828936" cy="163.0216517796119" r="3" style="fill: steelblue;"></circle><circle cx="191.99844662100077" cy="76.47894339429007" r="3" style="fill: steelblue;"></circle><circle cx="182.8874871879816" cy="14.522551827960562" r="3" style="fill: steelblue;"></circle><circle cx="383.4795494377613" cy="76.88885115914876" r="3" style="fill: steelblue;"></circle><circle cx="166.710055321455" cy="111.05617814593846" r="3" style="fill: steelblue;"></circle><circle cx="228.82750656455755" cy="256.37964175807105" r="3" style="fill: steelblue;"></circle><circle cx="250.11126508936286" cy="111.72868452138373" r="3" style="fill: steelblue;"></circle><circle cx="226.20641838759184" cy="257.1251435412301" r="3" style="fill: steelblue;"></circle><circle cx="180.28607301414013" cy="102.14042928483752" r="3" style="fill: steelblue;"></circle><circle cx="98.09884026646615" cy="179.8211596492264" r="3" style="fill: steelblue;"></circle><circle cx="206.50058079510927" cy="233.9183350404104" r="3" style="fill: steelblue;"></circle><circle cx="164.85175721347332" cy="287.2470478216807" r="3" style="fill: steelblue;"></circle><circle cx="208.256973400712" cy="291.33626255724164" r="3" style="fill: steelblue;"></circle><circle cx="116.40841707587244" cy="168.07920522987843" r="3" style="fill: steelblue;"></circle><circle cx="70.37871301174165" cy="288.668269250128" r="3" style="fill: steelblue;"></circle><circle cx="182.76130601763725" cy="223.80334403779773" r="3" style="fill: steelblue;"></circle><circle cx="283.7369188014418" cy="160.82672661998208" r="3" style="fill: steelblue;"></circle><circle cx="304.9893596023321" cy="100.53349882364273" r="3" style="fill: steelblue;"></circle><circle cx="304.1946143656969" cy="76.4662583669027" r="3" style="fill: steelblue;"></circle><circle cx="364.8126319795847" cy="85.42562541034488" r="3" style="fill: steelblue;"></circle><circle cx="334.08759243786335" cy="192.06294558114473" r="3" style="fill: steelblue;"></circle><circle cx="358.7600999325514" cy="162.15732130739423" r="3" style="fill: steelblue;"></circle><circle cx="436.81380048394203" cy="75.10656714439392" r="3" style="fill: steelblue;"></circle><circle cx="417.5269205868244" cy="104.66688225666684" r="3" style="fill: steelblue;"></circle><circle cx="532.0003692805767" cy="129.5263052814537" r="3" style="fill: steelblue;"></circle><circle cx="477.6253071427345" cy="166.8196034514242" r="3" style="fill: steelblue;"></circle><circle cx="433.0463194102049" cy="203.44313043687077" r="3" style="fill: steelblue;"></circle><circle cx="337.5960374996066" cy="106.57971368895636" r="3" style="fill: steelblue;"></circle><circle cx="262.4345813691616" cy="208.7995121876399" r="3" style="fill: steelblue;"></circle><circle cx="180.64756773412228" cy="156.81829780547156" r="3" style="fill: steelblue;"></circle><circle cx="194.08480122685432" cy="172.79600575566292" r="3" style="fill: steelblue;"></circle><circle cx="234.95855106040835" cy="214.52790018584994" r="3" style="fill: steelblue;"></circle><circle cx="237.07536717876792" cy="170.15526294708252" r="3" style="fill: steelblue;"></circle><circle cx="192.91410248726606" cy="120.75079290403261" r="3" style="fill: steelblue;"></circle><circle cx="216.68768104165792" cy="232.11988326576022" r="3" style="fill: steelblue;"></circle><circle cx="135.80592803657055" cy="206.33891820907593" r="3" style="fill: steelblue;"></circle><circle cx="243.20771673694253" cy="287.0310256878535" r="3" style="fill: steelblue;"></circle><circle cx="61.93945080041887" cy="215.65744131803513" r="3" style="fill: steelblue;"></circle><circle cx="107.07450069487096" cy="102.75213271379471" r="3" style="fill: steelblue;"></circle><circle cx="358.0298584699631" cy="21.154091755549125" r="3" style="fill: steelblue;"></circle><circle cx="420.4732836037874" cy="110.83606481552124" r="3" style="fill: steelblue;"></circle><circle cx="440.8668865263462" cy="87.52283884419336" r="3" style="fill: steelblue;"></circle><circle cx="515.4054482281208" cy="79.950654009978" r="3" style="fill: steelblue;"></circle><circle cx="300.870892200619" cy="14.820061789618594" r="3" style="fill: steelblue;"></circle><circle cx="418.670869320631" cy="144.91551727470426" r="3" style="fill: steelblue;"></circle><circle cx="211.176294721663" cy="113.52950061360997" r="3" style="fill: steelblue;"></circle><circle cx="79.53048393130304" cy="147.52066276139686" r="3" style="fill: steelblue;"></circle><circle cx="195.93942806124687" cy="256.7308008670807" r="3" style="fill: steelblue;"></circle><circle cx="14.217883050441756" cy="171.87202262381714" r="3" style="fill: steelblue;"></circle><circle cx="137.74721704423428" cy="194.20242119166585" r="3" style="fill: steelblue;"></circle><circle cx="213.168443441391" cy="236.24285327063666" r="3" style="fill: steelblue;"></circle></g></svg>