<svg xmlns="http://www.w3.org/2000/svg"><g><circle cx="121.61954823467467" cy="154.1924238204956" r="2" style="fill: steelblue;"></circle><circle cx="87.00083030594719" cy="124.25028197467327" r="2" style="fill: steelblue;"></circle><circle cx="89.8856586880154" cy="119.08743567764759" r="2" style="fill: steelblue;"></circle><circle cx="78.96788252724541" cy="80.98831064999104" r="2" style="fill: steelblue;"></circle><circle cx="34.85655122333103" cy="152.72112414240837" r="2" style="fill: steelblue;"></circle><circle cx="88.51338260703616" cy="74.5014775544405" r="2" style="fill: steelblue;"></circle><circle cx="134.28691360685562" cy="114.32012487202883" r="2" style="fill: steelblue;"></circle><circle cx="70.77695594893562" cy="54.17454093694687" r="2" style="fill: steelblue;"></circle><circle cx="87.09773586855995" cy="171.64054363965988" r="2" style="fill: steelblue;"></circle><circle cx="170.34140560362076" cy="141.30182787775993" r="2" style="fill: steelblue;"></circle><circle cx="102.5827071732945" cy="85.84392666816711" r="2" style="fill: steelblue;"></circle><circle cx="127.34911176893446" cy="132.91931748390198" r="2" style="fill: steelblue;"></circle><circle cx="74.32587941487631" cy="118.19088123738766" r="2" style="fill: steelblue;"></circle><circle cx="82.46574799219766" cy="114.06973227858543" r="2" style="fill: steelblue;"></circle><circle cx="86.78204152319167" cy="178.15872132778168" r="2" style="fill: steelblue;"></circle><circle cx="21.147463056776257" cy="134.8474457859993" r="2" style="fill: steelblue;"></circle><circle cx="129.28371462557052" cy="75.96421279013157" r="2" style="fill: steelblue;"></circle><circle cx="146.09742495748733" cy="45.518188178539276" r="2" style="fill: steelblue;"></circle><circle cx="127.36736403571234" cy="47.946760803461075" r="2" style="fill: steelblue;"></circle><circle cx="140.88137613402472" cy="74.59256462752819" r="2" style="fill: steelblue;"></circle><circle cx="182.95236428578693" cy="54.048506915569305" r="2" style="fill: steelblue;"></circle><circle cx="142.00426472557913" cy="91.44703336060047" r="2" style="fill: steelblue;"></circle><circle cx="41.00339942508274" cy="104.31579677388072" r="2" style="fill: steelblue;"></circle><circle cx="73.16012846099007" cy="136.39324009418488" r="2" style="fill: steelblue;"></circle><circle cx="46.05933692720201" cy="66.79896116256714" r="2" style="fill: steelblue;"></circle><circle cx="118.62331380446751" cy="157.36444145441055" r="2" style="fill: steelblue;"></circle><circle cx="73.71679610676235" cy="140.2347594499588" r="2" style="fill: steelblue;"></circle><circle cx="96.17303477393257" cy="126.21249668300152" r="2" style="fill: steelblue;"></circle><circle cx="95.55372099081674" cy="128.06555107235909" r="2" style="fill: steelblue;"></circle><circle cx="150.62595076031155" cy="34.233590960502625" r="2" style="fill: steelblue;"></circle><circle cx="114.03849182857407" cy="114.13874700665474" r="2" style="fill: steelblue;"></circle><circle cx="84.30497348308563" cy="24.12416636943817" r="2" style="fill: steelblue;"></circle><circle cx="159.82827213075424" cy="10.940423607826233" r="2" style="fill: steelblue;"></circle><circle cx="156.21655186017352" cy="101.39849574770778" r="2" style="fill: steelblue;"></circle><circle cx="115.45570774210823" cy="96.29956972785294" r="2" style="fill: steelblue;"></circle><circle cx="102.82138486703236" cy="108.90216417610645" r="2" style="fill: steelblue;"></circle><circle cx="45.9219151073032" cy="184.83077585697174" r="2" style="fill: steelblue;"></circle><circle cx="71.8380974398719" cy="107.16055696830153" r="2" style="fill: steelblue;"></circle><circle cx="52.5924629635281" cy="160.11851876974106" r="2" style="fill: steelblue;"></circle><circle cx="54.799669318728974" cy="65.45873582363129" r="2" style="fill: steelblue;"></circle><circle cx="85.12121107843187" cy="127.49033644795418" r="2" style="fill: steelblue;"></circle><circle cx="146.46363920635648" cy="70.76172567903996" r="2" style="fill: steelblue;"></circle><circle cx="106.55015334486961" cy="65.41072055697441" r="2" style="fill: steelblue;"></circle><circle cx="155.27875224749246" cy="33.97844582796097" r="2" style="fill: steelblue;"></circle><circle cx="129.73345981703864" cy="15.797017514705658" r="2" style="fill: steelblue;"></circle><circle cx="167.18200842539468" cy="99.40233572851866" r="2" style="fill: steelblue;"></circle><circle cx="165.30576348304749" cy="73.11650589108467" r="2" style="fill: steelblue;"></circle><circle cx="67.17816326353285" cy="164.05236572027206" r="2" style="fill: steelblue;"></circle><circle cx="51.840762297312416" cy="136.64159774780273" r="2" style="fill: steelblue;"></circle><circle cx="112.81230331708987" cy="122.8082612156868" r="2" style="fill: steelblue;"></circle><circle cx="22.228691313001843" cy="74.01285730302334" r="2" style="fill: steelblue;"></circle><circle cx="75.38895474539864" cy="88.41676861047745" r="2" style="fill: steelblue;"></circle><circle cx="110.5413503634433" cy="140.2946099638939" r="2" style="fill: steelblue;"></circle><circle cx="91.42283764150407" cy="176.7446607351303" r="2" style="fill: steelblue;"></circle><circle cx="111.34991013548441" cy="161.49276345968246" r="2" style="fill: steelblue;"></circle><circle cx="81.11354377534654" cy="153.25567722320557" r="2" style="fill: steelblue;"></circle><circle cx="129.9162424272961" cy="122.91768044233322" r="2" style="fill: steelblue;"></circle><circle cx="88.34241992897456" cy="113.35746701806784" r="2" style="fill: steelblue;"></circle><circle cx="105.93245385421646" cy="143.21710765361786" r="2" style="fill: steelblue;"></circle><circle cx="69.16602121459114" cy="120.18344216048717" r="2" style="fill: steelblue;"></circle><circle cx="84.02213950951894" cy="165.17356634140015" r="2" style="fill: steelblue;"></circle><circle cx="49.71721437242296" cy="140.31191766262054" r="2" style="fill: steelblue;"></circle><circle cx="22.187219725714787" cy="150.29870942234993" r="2" style="fill: steelblue;"></circle><circle cx="122.27735088931189" cy="163.15189599990845" r="2" style="fill: steelblue;"></circle><circle cx="76.62165496084425" cy="127.97864377498627" r="2" style="fill: steelblue;"></circle><circle cx="70.83092464341057" cy="196.94040566682816" r="2" style="fill: steelblue;"></circle><circle cx="78.55240503946939" cy="132.76801109313965" r="2" style="fill: steelblue;"></circle><circle cx="79.347163438797" cy="148.6523173749447" r="2" style="fill: steelblue;"></circle><circle cx="91.40988190968831" cy="164.35807049274445" r="2" style="fill: steelblue;"></circle><circle cx="58.35306975576613" cy="140.4393933713436" r="2" style="fill: steelblue;"></circle><circle cx="62.805400954352486" cy="78.54002378880978" r="2" style="fill: steelblue;"></circle><circle cx="111.15480793523602" cy="71.18000127375126" r="2" style="fill: steelblue;"></circle><circle cx="162.17645009358722" cy="99.84851486806292" r="2" style="fill: steelblue;"></circle><circle cx="156.44850002394782" cy="109.19818039983511" r="2" style="fill: steelblue;"></circle><circle cx="125.37346945868597" cy="76.37486085295677" r="2" style="fill: steelblue;"></circle><circle cx="153.49125862121582" cy="5.2389636635780334" r="2" style="fill: steelblue;"></circle><circle cx="105.69813847541809" cy="110.734548792243" r="2" style="fill: steelblue;"></circle><circle cx="117.62432919608221" cy="62.00467273592949" r="2" style="fill: steelblue;"></circle><circle cx="167.98863146040176" cy="67.21676737070084" r="2" style="fill: steelblue;"></circle><circle cx="161.67232394218445" cy="144.13144662976265" r="2" style="fill: steelblue;"></circle><circle cx="106.56592870752017" cy="46.99771702289581" r="2" style="fill: steelblue;"></circle><circle cx="129.3969733847512" cy="0.3726392984390259" r="2" style="fill: steelblue;"></circle><circle cx="132.3944197760688" cy="128.31873297691345" r="2" style="fill: steelblue;"></circle><circle cx="111.66492140748434" cy="167.55170971155167" r="2" style="fill: steelblue;"></circle><circle cx="66.79257419374254" cy="107.61867640540004" r="2" style="fill: steelblue;"></circle><circle cx="72.34279645813835" cy="71.11459448933601" r="2" style="fill: steelblue;"></circle><circle cx="96.90782924493153" cy="156.62809312343597" r="2" style="fill: steelblue;"></circle><circle cx="105.96961817807622" cy="127.03005820512772" r="2" style="fill: steelblue;"></circle><circle cx="86.12096971935695" cy="129.00156751275063" r="2" style="fill: steelblue;"></circle><circle cx="156.01433979140387" cy="84.88551005721092" r="2" style="fill: steelblue;"></circle><circle cx="177.63664325078327" cy="73.85494783520699" r="2" style="fill: steelblue;"></circle><circle cx="101.94593750768237" cy="36.66090816259384" r="2" style="fill: steelblue;"></circle><circle cx="161.77418165736728" cy="38.21728229522705" r="2" style="fill: steelblue;"></circle><circle cx="111.7736188073953" cy="96.24741356819868" r="2" style="fill: steelblue;"></circle><circle cx="142.17090275552536" cy="35.455359518527985" r="2" style="fill: steelblue;"></circle><circle cx="168.86201832029556" cy="135.89774295687675" r="2" style="fill: steelblue;"></circle><circle cx="157.59433640374075" cy="45.24664431810379" r="2" style="fill: steelblue;"></circle><circle cx="155.33291631274753" cy="113.18673137575388" r="2" style="fill: steelblue;"></circle><circle cx="146.20666702588397" cy="76.75149329006672" r="2" style="fill: steelblue;"></circle><circle cx="133.32486318217383" cy="138.73532265424728" r="2" style="fill: steelblue;"></circle><circle cx="124.05299312538571" cy="85.1449029520154" r="2" style="fill: steelblue;"></circle><circle cx="140.72760608461166" cy="118.17039400339127" r="2" style="fill: steelblue;"></circle><circle cx="127.50810219181908" cy="70.18631175160408" r="2" style="fill: steelblue;"></circle><circle cx="126.4910962846544" cy="94.65338792651892" r="2" style="fill: steelblue;"></circle><circle cx="186.00647979312473" cy="68.57483312487602" r="2" style="fill: steelblue;"></circle><circle cx="144.51635546154446" cy="99.1964268265292" r="2" style="fill: steelblue;"></circle><circle cx="151.85832977294922" cy="54.64769005775452" r="2" style="fill: steelblue;"></circle><circle cx="125.62246455086601" cy="51.016779989004135" r="2" style="fill: steelblue;"></circle><circle cx="121.00459552473492" cy="50.09055733680725" r="2" style="fill: steelblue;"></circle><circle cx="135.65885689523483" cy="65.79476073384285" r="2" style="fill: steelblue;"></circle><circle cx="151.49656931559244" cy="41.389210522174835" r="2" style="fill: steelblue;"></circle><circle cx="144.97750335269504" cy="76.05140693485737" r="2" style="fill: steelblue;"></circle><circle cx="69.12723183631897" cy="151.36515945196152" r="2" style="fill: steelblue;"></circle><circle cx="96.9882325993644" cy="129.35603074729443" r="2" style="fill: steelblue;"></circle><circle cx="47.25121789508396" cy="136.7039553821087" r="2" style="fill: steelblue;"></circle><circle cx="36.13342179192437" cy="62.152715772390366" r="2" style="fill: steelblue;"></circle><circle cx="61.199085579978096" cy="115.7741867005825" r="2" style="fill: steelblue;"></circle><circle cx="146.32383982340497" cy="138.28972950577736" r="2" style="fill: steelblue;"></circle></g></svg>