<svg xmlns="http://www.w3.org/2000/svg"><g><circle cx="22.419559955596927" cy="68.40433776378632" r="2" style="fill: steelblue;"></circle><circle cx="16.911356896162037" cy="85.63632037904527" r="2" style="fill: steelblue;"></circle><circle cx="53.99223389104009" cy="59.75811117225223" r="2" style="fill: steelblue;"></circle><circle cx="29.31068204343319" cy="36.254936787817215" r="2" style="fill: steelblue;"></circle><circle cx="15.54191038012505" cy="68.06416246626112" r="2" style="fill: steelblue;"></circle><circle cx="45.41853228583932" cy="64.23604753282335" r="2" style="fill: steelblue;"></circle><circle cx="30.506420135498047" cy="31.982428663306774" r="2" style="fill: steelblue;"></circle><circle cx="5.0533480942249325" cy="46.96550650729073" r="2" style="fill: steelblue;"></circle><circle cx="29.069435968995094" cy="47.299008982049095" r="2" style="fill: steelblue;"></circle><circle cx="25.55752284824848" cy="28.345140483644272" r="2" style="fill: steelblue;"></circle><circle cx="34.623183496296406" cy="53.757917715443504" r="2" style="fill: steelblue;"></circle><circle cx="61.58340647816658" cy="34.996179408497284" r="2" style="fill: steelblue;"></circle><circle cx="34.87969394773245" cy="62.291283739937676" r="2" style="fill: steelblue;"></circle><circle cx="54.833643324673176" cy="72.12312122186025" r="2" style="fill: steelblue;"></circle><circle cx="18.81782449781895" cy="41.80290235413445" r="2" style="fill: steelblue;"></circle><circle cx="30.107204988598824" cy="18.74540514416165" r="2" style="fill: steelblue;"></circle><circle cx="63.62768281251192" cy="84.33006472057767" r="2" style="fill: steelblue;"></circle><circle cx="38.46178688108921" cy="76.72495908207364" r="2" style="fill: steelblue;"></circle><circle cx="41.35947972536087" cy="32.62800160381529" r="2" style="fill: steelblue;"></circle><circle cx="79.64040264487267" cy="46.97572622034285" r="2" style="fill: steelblue;"></circle><circle cx="67.20892079174519" cy="28.990764750374687" r="2" style="fill: steelblue;"></circle><circle cx="41.08402710407972" cy="51.080228719446396" r="2" style="fill: steelblue;"></circle><circle cx="27.586274966597557" cy="24.713960952228973" r="2" style="fill: steelblue;"></circle><circle cx="28.357577696442604" cy="51.36492037110858" r="2" style="fill: steelblue;"></circle><circle cx="21.12653218209744" cy="19.510306583510506" r="2" style="fill: steelblue;"></circle><circle cx="8.11446383595467" cy="47.07406436403593" r="2" style="fill: steelblue;"></circle><circle cx="27.51440294086933" cy="70.70827583471934" r="2" style="fill: steelblue;"></circle><circle cx="52.786809112876654" cy="46.39259887238344" r="2" style="fill: steelblue;"></circle><circle cx="10.251569747924808" cy="62.609226504961654" r="2" style="fill: steelblue;"></circle><circle cx="47.56471021100879" cy="62.35476599799262" r="2" style="fill: steelblue;"></circle><circle cx="76.69778652489185" cy="28.892307811313213" r="2" style="fill: steelblue;"></circle><circle cx="88.99319842457771" cy="37.94409806529681" r="2" style="fill: steelblue;"></circle><circle cx="68.52369122207165" cy="45.6528572158681" r="2" style="fill: steelblue;"></circle><circle cx="69.55843716859818" cy="52.9027897450659" r="2" style="fill: steelblue;"></circle><circle cx="65.36552608013153" cy="34.17076766490936" r="2" style="fill: steelblue;"></circle><circle cx="75.06574802100658" cy="67.79439515537686" r="2" style="fill: steelblue;"></circle><circle cx="67.00508035719395" cy="14.983312288920093" r="2" style="fill: steelblue;"></circle><circle cx="43.31946577876806" cy="52.67490131987466" r="2" style="fill: steelblue;"></circle><circle cx="19.39177624881268" cy="37.69014171428151" r="2" style="fill: steelblue;"></circle><circle cx="19.118800014257435" cy="29.91050581137339" r="2" style="fill: steelblue;"></circle><circle cx="50.25767501210794" cy="39.5460006263521" r="2" style="fill: steelblue;"></circle><circle cx="32.90135897696018" cy="12.184854348500574" r="2" style="fill: steelblue;"></circle><circle cx="92.44597256183624" cy="22.288035353024803" r="2" style="fill: steelblue;"></circle><circle cx="61.86859142035246" cy="40.2879203359286" r="2" style="fill: steelblue;"></circle><circle cx="71.49147726595402" cy="31.24043610360887" r="2" style="fill: steelblue;"></circle><circle cx="43.02837997674942" cy="26.83508495489756" r="2" style="fill: steelblue;"></circle><circle cx="52.851443365216255" cy="45.08152889708678" r="2" style="fill: steelblue;"></circle><circle cx="82.68235921859741" cy="66.94790654712253" r="2" style="fill: steelblue;"></circle><circle cx="27.42554359138012" cy="57.74621185329225" r="2" style="fill: steelblue;"></circle><circle cx="30.953585356473923" cy="69.92750300301445" r="2" style="fill: steelblue;"></circle><circle cx="55.24752587080002" cy="56.81790759166082" r="2" style="fill: steelblue;"></circle><circle cx="57.03898537904024" cy="37.121142115857864" r="2" style="fill: steelblue;"></circle><circle cx="67.15612038969994" cy="38.25342423386044" r="2" style="fill: steelblue;"></circle><circle cx="76.93707123398781" cy="52.61044220791923" r="2" style="fill: steelblue;"></circle><circle cx="37.07024473696947" cy="12.804928090837265" r="2" style="fill: steelblue;"></circle><circle cx="7.602575421333316" cy="46.850228640768265" r="2" style="fill: steelblue;"></circle><circle cx="10.146017372608188" cy="51.227359887626434" r="2" style="fill: steelblue;"></circle><circle cx="56.37445319443941" cy="53.78307501475017" r="2" style="fill: steelblue;"></circle><circle cx="31.592359021306038" cy="79.56427269511752" r="2" style="fill: steelblue;"></circle><circle cx="40.51580112427473" cy="72.91140092743767" r="2" style="fill: steelblue;"></circle><circle cx="45.68274710327387" cy="70.99287807941437" r="2" style="fill: steelblue;"></circle><circle cx="83.19317102432251" cy="56.52818928162257" r="2" style="fill: steelblue;"></circle><circle cx="9.792941808700565" cy="50.26704834567176" r="2" style="fill: steelblue;"></circle><circle cx="22.451226785779003" cy="60.41507356696658" r="2" style="fill: steelblue;"></circle><circle cx="53.788757836446166" cy="90.76388610733879" r="2" style="fill: steelblue;"></circle><circle cx="64.07914701849222" cy="72.80553645557828" r="2" style="fill: steelblue;"></circle><circle cx="46.53474404476583" cy="66.55080715815227" r="2" style="fill: steelblue;"></circle><circle cx="14.20182287693024" cy="73.56570098135207" r="2" style="fill: steelblue;"></circle><circle cx="8.817448467016224" cy="84.20376247829861" r="2" style="fill: steelblue;"></circle><circle cx="47.19929997809231" cy="66.88412792152829" r="2" style="fill: steelblue;"></circle><circle cx="22.100565209984783" cy="63.034361600875854" r="2" style="fill: steelblue;"></circle><circle cx="78.57469767332077" cy="17.37601823276944" r="2" style="fill: steelblue;"></circle><circle cx="60.74833609163761" cy="66.23513930373721" r="2" style="fill: steelblue;"></circle><circle cx="75.58978646993637" cy="24.561262130737305" r="2" style="fill: steelblue;"></circle><circle cx="67.27763377130032" cy="40.77084047926797" r="2" style="fill: steelblue;"></circle><circle cx="49.585462297545746" cy="54.824247294002106" r="2" style="fill: steelblue;"></circle><circle cx="75.57698078453541" cy="59.60904492272271" r="2" style="fill: steelblue;"></circle><circle cx="70.56855149567127" cy="66.63765443695915" r="2" style="fill: steelblue;"></circle><circle cx="55.29261212795973" cy="31.591770715183685" r="2" style="fill: steelblue;"></circle><circle cx="49.33120928471908" cy="44.499813000826784" r="2" style="fill: steelblue;"></circle><circle cx="47.0347648486495" cy="20.504442519611786" r="2" style="fill: steelblue;"></circle><circle cx="81.74613043665886" cy="3.5626815425025105" r="2" style="fill: steelblue;"></circle><circle cx="69.4674227386713" cy="44.66424205650886" r="2" style="fill: steelblue;"></circle><circle cx="23.844174295663837" cy="53.92205235030916" r="2" style="fill: steelblue;"></circle><circle cx="13.589746505022053" cy="49.2409879134761" r="2" style="fill: steelblue;"></circle><circle cx="34.324412420392036" cy="50.392122483915756" r="2" style="fill: steelblue;"></circle><circle cx="34.78159308433533" cy="54.309877422120834" r="2" style="fill: steelblue;"></circle><circle cx="67.71005801856518" cy="63.948486579789055" r="2" style="fill: steelblue;"></circle><circle cx="33.441488817334175" cy="31.729686756928764" r="2" style="fill: steelblue;"></circle><circle cx="63.98883014917374" cy="35.06112943092982" r="2" style="fill: steelblue;"></circle><circle cx="69.93410848081112" cy="56.624330745802986" r="2" style="fill: steelblue;"></circle><circle cx="67.5710916519165" cy="37.64854595065117" r="2" style="fill: steelblue;"></circle><circle cx="66.0768423229456" cy="28.710548414124382" r="2" style="fill: steelblue;"></circle><circle cx="80.34951724112034" cy="19.16279329193963" r="2" style="fill: steelblue;"></circle><circle cx="72.98163808882236" cy="23.2939084370931" r="2" style="fill: steelblue;"></circle><circle cx="89.43033888936043" cy="52.053687638706634" r="2" style="fill: steelblue;"></circle><circle cx="85.20035371184349" cy="0.8299840821160198" r="2" style="fill: steelblue;"></circle><circle cx="73.04414287209511" cy="52.65890823470222" r="2" style="fill: steelblue;"></circle><circle cx="57.101322524249554" cy="26.832977268430923" r="2" style="fill: steelblue;"></circle><circle cx="67.42861047387123" cy="76.37491424878439" r="2" style="fill: steelblue;"></circle><circle cx="90.89723527431488" cy="53.27381706900067" r="2" style="fill: steelblue;"></circle><circle cx="58.92631430178881" cy="53.328137596448265" r="2" style="fill: steelblue;"></circle><circle cx="74.41776730120182" cy="27.140197820133636" r="2" style="fill: steelblue;"></circle><circle cx="43.528444319963455" cy="22.857065995534263" r="2" style="fill: steelblue;"></circle><circle cx="44.566853158175945" cy="85.36538746621873" r="2" style="fill: steelblue;"></circle><circle cx="58.239259012043476" cy="18.77427366044786" r="2" style="fill: steelblue;"></circle><circle cx="55.775755271315575" cy="43.373119251595604" r="2" style="fill: steelblue;"></circle><circle cx="42.55911819636822" cy="36.92866464455923" r="2" style="fill: steelblue;"></circle><circle cx="60.777479968965054" cy="37.8787593709098" r="2" style="fill: steelblue;"></circle><circle cx="59.54417325556278" cy="11.962992615169954" r="2" style="fill: steelblue;"></circle><circle cx="81.16823919117451" cy="61.383034785588585" r="2" style="fill: steelblue;"></circle><circle cx="68.16284470260143" cy="42.978637086020576" r="2" style="fill: steelblue;"></circle><circle cx="46.49000237695873" cy="63.6735286977556" r="2" style="fill: steelblue;"></circle><circle cx="18.997135758399967" cy="77.33636365996468" r="2" style="fill: steelblue;"></circle><circle cx="9.863197058439258" cy="77.76108317905002" r="2" style="fill: steelblue;"></circle><circle cx="60.315450839698315" cy="71.27936283747356" r="2" style="fill: steelblue;"></circle><circle cx="17.775981873273853" cy="64.0561044216156" r="2" style="fill: steelblue;"></circle><circle cx="54.77242702618241" cy="60.17238001028697" r="2" style="fill: steelblue;"></circle></g></svg>