<svg xmlns="http://www.w3.org/2000/svg"><g><circle cx="121.61954823467467" cy="150.55926367640495" r="2" style="fill: steelblue;"></circle><circle cx="87.00083030594719" cy="189.74582701921463" r="2" style="fill: steelblue;"></circle><circle cx="89.8856586880154" cy="119.84838023781776" r="2" style="fill: steelblue;"></circle><circle cx="78.96788252724541" cy="190.386800467968" r="2" style="fill: steelblue;"></circle><circle cx="34.85655122333103" cy="91.44833162426949" r="2" style="fill: steelblue;"></circle><circle cx="88.51338260703616" cy="87.16834001243114" r="2" style="fill: steelblue;"></circle><circle cx="134.28691360685562" cy="107.53079866990447" r="2" style="fill: steelblue;"></circle><circle cx="70.77695594893562" cy="88.43353521078825" r="2" style="fill: steelblue;"></circle><circle cx="87.09773586855995" cy="131.88197314739227" r="2" style="fill: steelblue;"></circle><circle cx="170.34140560362076" cy="169.88425552845" r="2" style="fill: steelblue;"></circle><circle cx="102.5827071732945" cy="62.61921897530556" r="2" style="fill: steelblue;"></circle><circle cx="127.34911176893446" cy="5.796945095062256" r="2" style="fill: steelblue;"></circle><circle cx="74.32587941487631" cy="149.10908639431" r="2" style="fill: steelblue;"></circle><circle cx="82.46574799219766" cy="50.05292817950249" r="2" style="fill: steelblue;"></circle><circle cx="86.78204152319167" cy="128.8969650864601" r="2" style="fill: steelblue;"></circle><circle cx="21.147463056776257" cy="106.49724807590246" r="2" style="fill: steelblue;"></circle><circle cx="129.28371462557052" cy="113.40391393750906" r="2" style="fill: steelblue;"></circle><circle cx="146.09742495748733" cy="181.20658993721008" r="2" style="fill: steelblue;"></circle><circle cx="127.36736403571234" cy="94.80910412967205" r="2" style="fill: steelblue;"></circle><circle cx="140.88137613402472" cy="61.817700415849686" r="2" style="fill: steelblue;"></circle><circle cx="182.95236428578693" cy="85.67312117666006" r="2" style="fill: steelblue;"></circle><circle cx="142.00426472557913" cy="37.98612803220749" r="2" style="fill: steelblue;"></circle><circle cx="41.00339942508274" cy="132.16257318854332" r="2" style="fill: steelblue;"></circle><circle cx="73.16012846099007" cy="76.25332325696945" r="2" style="fill: steelblue;"></circle><circle cx="46.05933692720201" cy="128.11694703996181" r="2" style="fill: steelblue;"></circle><circle cx="118.62331380446751" cy="174.85520094633102" r="2" style="fill: steelblue;"></circle><circle cx="73.71679610676235" cy="182.9845741391182" r="2" style="fill: steelblue;"></circle><circle cx="96.17303477393257" cy="100.61966344946995" r="2" style="fill: steelblue;"></circle><circle cx="95.55372099081674" cy="88.88835497200489" r="2" style="fill: steelblue;"></circle><circle cx="150.62595076031155" cy="199.8760685324669" r="2" style="fill: steelblue;"></circle><circle cx="114.03849182857407" cy="36.45084649324417" r="2" style="fill: steelblue;"></circle><circle cx="84.30497348308563" cy="116.56470634043217" r="2" style="fill: steelblue;"></circle><circle cx="159.82827213075424" cy="75.42893327772617" r="2" style="fill: steelblue;"></circle><circle cx="156.21655186017352" cy="28.51272225379944" r="2" style="fill: steelblue;"></circle><circle cx="115.45570774210823" cy="129.6773985028267" r="2" style="fill: steelblue;"></circle><circle cx="102.82138486703236" cy="55.842483788728714" r="2" style="fill: steelblue;"></circle><circle cx="45.9219151073032" cy="130.2347056567669" r="2" style="fill: steelblue;"></circle><circle cx="71.8380974398719" cy="158.51049348711967" r="2" style="fill: steelblue;"></circle><circle cx="52.5924629635281" cy="108.69902689009905" r="2" style="fill: steelblue;"></circle><circle cx="54.799669318728974" cy="89.56817481666803" r="2" style="fill: steelblue;"></circle><circle cx="85.12121107843187" cy="118.37942376732826" r="2" style="fill: steelblue;"></circle><circle cx="146.46363920635648" cy="10.964258015155792" r="2" style="fill: steelblue;"></circle><circle cx="106.55015334486961" cy="69.18060444295406" r="2" style="fill: steelblue;"></circle><circle cx="155.27875224749246" cy="123.85162189602852" r="2" style="fill: steelblue;"></circle><circle cx="129.73345981703864" cy="44.84138861298561" r="2" style="fill: steelblue;"></circle><circle cx="167.18200842539468" cy="109.49870608747005" r="2" style="fill: steelblue;"></circle><circle cx="165.30576348304749" cy="101.1458876542747" r="2" style="fill: steelblue;"></circle><circle cx="67.17816326353285" cy="111.10097113996744" r="2" style="fill: steelblue;"></circle><circle cx="51.840762297312416" cy="117.28502847254276" r="2" style="fill: steelblue;"></circle><circle cx="112.81230331708987" cy="89.73971512168646" r="2" style="fill: steelblue;"></circle><circle cx="22.228691313001843" cy="95.18433259800076" r="2" style="fill: steelblue;"></circle><circle cx="75.38895474539864" cy="172.4933072924614" r="2" style="fill: steelblue;"></circle><circle cx="110.5413503634433" cy="110.83032134920359" r="2" style="fill: steelblue;"></circle><circle cx="91.42283764150407" cy="106.39878492802382" r="2" style="fill: steelblue;"></circle><circle cx="111.34991013548441" cy="148.97627606987953" r="2" style="fill: steelblue;"></circle><circle cx="81.11354377534654" cy="121.8740813434124" r="2" style="fill: steelblue;"></circle><circle cx="129.9162424272961" cy="168.29936802387238" r="2" style="fill: steelblue;"></circle><circle cx="88.34241992897456" cy="121.50632813572884" r="2" style="fill: steelblue;"></circle><circle cx="105.93245385421646" cy="198.59977662563324" r="2" style="fill: steelblue;"></circle><circle cx="69.16602121459114" cy="166.6128769516945" r="2" style="fill: steelblue;"></circle><circle cx="84.02213950951894" cy="152.96799167990685" r="2" style="fill: steelblue;"></circle><circle cx="49.71721437242296" cy="103.4113007131964" r="2" style="fill: steelblue;"></circle><circle cx="22.187219725714787" cy="139.8879311978817" r="2" style="fill: steelblue;"></circle><circle cx="122.27735088931189" cy="127.78254449367523" r="2" style="fill: steelblue;"></circle><circle cx="76.62165496084425" cy="110.61720959842205" r="2" style="fill: steelblue;"></circle><circle cx="70.83092464341057" cy="139.4754558801651" r="2" style="fill: steelblue;"></circle><circle cx="78.55240503946939" cy="156.65745958685875" r="2" style="fill: steelblue;"></circle><circle cx="79.347163438797" cy="172.34547287225723" r="2" style="fill: steelblue;"></circle><circle cx="91.40988190968831" cy="119.81434971094131" r="2" style="fill: steelblue;"></circle><circle cx="58.35306975576613" cy="150.327867269516" r="2" style="fill: steelblue;"></circle><circle cx="62.805400954352486" cy="161.50270625948906" r="2" style="fill: steelblue;"></circle><circle cx="111.15480793523602" cy="40.83165377378464" r="2" style="fill: steelblue;"></circle><circle cx="162.17645009358722" cy="20.77627032995224" r="2" style="fill: steelblue;"></circle><circle cx="156.44850002394782" cy="71.65587916970253" r="2" style="fill: steelblue;"></circle><circle cx="125.37346945868597" cy="70.09625472128391" r="2" style="fill: steelblue;"></circle><circle cx="153.49125862121582" cy="41.44290313124657" r="2" style="fill: steelblue;"></circle><circle cx="105.69813847541809" cy="73.05196337401867" r="2" style="fill: steelblue;"></circle><circle cx="117.62432919608221" cy="24.293309450149536" r="2" style="fill: steelblue;"></circle><circle cx="167.98863146040176" cy="49.75486770272255" r="2" style="fill: steelblue;"></circle><circle cx="161.67232394218445" cy="24.998141825199127" r="2" style="fill: steelblue;"></circle><circle cx="106.56592870752017" cy="139.30839523673058" r="2" style="fill: steelblue;"></circle><circle cx="129.3969733847512" cy="44.20280307531357" r="2" style="fill: steelblue;"></circle><circle cx="132.3944197760688" cy="60.874494165182114" r="2" style="fill: steelblue;"></circle><circle cx="111.66492140748434" cy="93.21697978302836" r="2" style="fill: steelblue;"></circle><circle cx="66.79257419374254" cy="111.75695564597845" r="2" style="fill: steelblue;"></circle><circle cx="72.34279645813835" cy="135.13434529304504" r="2" style="fill: steelblue;"></circle><circle cx="96.90782924493153" cy="121.14692702889442" r="2" style="fill: steelblue;"></circle><circle cx="105.96961817807622" cy="92.16283764690161" r="2" style="fill: steelblue;"></circle><circle cx="86.12096971935695" cy="81.0892678797245" r="2" style="fill: steelblue;"></circle><circle cx="156.01433979140387" cy="66.83409810066223" r="2" style="fill: steelblue;"></circle><circle cx="177.63664325078327" cy="39.38932940363884" r="2" style="fill: steelblue;"></circle><circle cx="101.94593750768237" cy="24.515031278133392" r="2" style="fill: steelblue;"></circle><circle cx="161.77418165736728" cy="55.64253255724907" r="2" style="fill: steelblue;"></circle><circle cx="111.7736188073953" cy="54.224806278944016" r="2" style="fill: steelblue;"></circle><circle cx="142.17090275552536" cy="74.03586097061634" r="2" style="fill: steelblue;"></circle><circle cx="168.86201832029556" cy="52.93315127491951" r="2" style="fill: steelblue;"></circle><circle cx="157.59433640374075" cy="12.81149536371231" r="2" style="fill: steelblue;"></circle><circle cx="155.33291631274753" cy="142.8214631974697" r="2" style="fill: steelblue;"></circle><circle cx="146.20666702588397" cy="120.0918223708868" r="2" style="fill: steelblue;"></circle><circle cx="133.32486318217383" cy="83.03046822547913" r="2" style="fill: steelblue;"></circle><circle cx="124.05299312538571" cy="82.57249966263771" r="2" style="fill: steelblue;"></circle><circle cx="140.72760608461166" cy="74.55530986189842" r="2" style="fill: steelblue;"></circle><circle cx="127.50810219181908" cy="87.55958024412394" r="2" style="fill: steelblue;"></circle><circle cx="126.4910962846544" cy="97.12955020368099" r="2" style="fill: steelblue;"></circle><circle cx="186.00647979312473" cy="41.07047840952873" r="2" style="fill: steelblue;"></circle><circle cx="144.51635546154446" cy="35.89547276496887" r="2" style="fill: steelblue;"></circle><circle cx="151.85832977294922" cy="64.77672085165977" r="2" style="fill: steelblue;"></circle><circle cx="125.62246455086601" cy="29.326653480529785" r="2" style="fill: steelblue;"></circle><circle cx="121.00459552473492" cy="118.29788275063038" r="2" style="fill: steelblue;"></circle><circle cx="135.65885689523483" cy="59.922775626182556" r="2" style="fill: steelblue;"></circle><circle cx="151.49656931559244" cy="65.10112285614014" r="2" style="fill: steelblue;"></circle><circle cx="144.97750335269504" cy="103.31758637912571" r="2" style="fill: steelblue;"></circle><circle cx="69.12723183631897" cy="164.0370100736618" r="2" style="fill: steelblue;"></circle><circle cx="96.9882325993644" cy="175.6722018122673" r="2" style="fill: steelblue;"></circle><circle cx="47.25121789508396" cy="164.45839256048203" r="2" style="fill: steelblue;"></circle><circle cx="36.13342179192437" cy="162.41824105381966" r="2" style="fill: steelblue;"></circle><circle cx="61.199085579978096" cy="140.40320590138435" r="2" style="fill: steelblue;"></circle><circle cx="146.32383982340497" cy="98.02506202831864" r="2" style="fill: steelblue;"></circle></g></svg>