<svg xmlns="http://www.w3.org/2000/svg"><rect width="200" height="200" fill="white"></rect><g><circle cx="10.353067186143667" cy="158.99209901690483" r="2" style="fill: steelblue;"></circle><circle cx="49.78980157110426" cy="57.884516566991806" r="2" style="fill: steelblue;"></circle><circle cx="17.73443354500665" cy="115.50224795937538" r="2" style="fill: steelblue;"></circle><circle cx="40.84271060095893" cy="177.6878073811531" r="2" style="fill: steelblue;"></circle><circle cx="45.48155797852411" cy="182.45260268449783" r="2" style="fill: steelblue;"></circle><circle cx="47.565134366353355" cy="130.91062046587467" r="2" style="fill: steelblue;"></circle><circle cx="92.11529990037283" cy="68.4770479798317" r="2" style="fill: steelblue;"></circle><circle cx="10.472183757358131" cy="123.3139656484127" r="2" style="fill: steelblue;"></circle><circle cx="113.2905619011985" cy="142.13791340589523" r="2" style="fill: steelblue;"></circle><circle cx="58.70229535632664" cy="156.15883693099022" r="2" style="fill: steelblue;"></circle><circle cx="62.89118230342865" cy="85.66769156605005" r="2" style="fill: steelblue;"></circle><circle cx="78.49891185760498" cy="121.61730267107487" r="2" style="fill: steelblue;"></circle><circle cx="142.74403651555377" cy="50.13007149100304" r="2" style="fill: steelblue;"></circle><circle cx="12.63926956388686" cy="145.85972055792809" r="2" style="fill: steelblue;"></circle><circle cx="109.35241679350536" cy="138.2019728422165" r="2" style="fill: steelblue;"></circle><circle cx="44.38409407933553" cy="98.26207966543734" r="2" style="fill: steelblue;"></circle><circle cx="38.09123105472989" cy="95.32814836129546" r="2" style="fill: steelblue;"></circle><circle cx="39.497543043560455" cy="109.72424354404211" r="2" style="fill: steelblue;"></circle><circle cx="134.35524238480463" cy="81.76873661577702" r="2" style="fill: steelblue;"></circle><circle cx="102.49861694044537" cy="48.21760058403015" r="2" style="fill: steelblue;"></circle><circle cx="81.71994768910939" cy="120.92863060534" r="2" style="fill: steelblue;"></circle><circle cx="91.44911327295834" cy="118.52370984852314" r="2" style="fill: steelblue;"></circle><circle cx="108.14985169304742" cy="104.15042415261269" r="2" style="fill: steelblue;"></circle><circle cx="76.41533215840658" cy="61.42244338989258" r="2" style="fill: steelblue;"></circle><circle cx="18.103161123063835" cy="118.84406432509422" r="2" style="fill: steelblue;"></circle><circle cx="15.001679791344541" cy="121.00158296525478" r="2" style="fill: steelblue;"></circle><circle cx="43.89054112964207" cy="90.8311516046524" r="2" style="fill: steelblue;"></circle><circle cx="66.90136128001744" cy="156.99099227786064" r="2" style="fill: steelblue;"></circle><circle cx="65.75078633096484" cy="161.28018721938133" r="2" style="fill: steelblue;"></circle><circle cx="103.12255753411188" cy="187.93575316667557" r="2" style="fill: steelblue;"></circle><circle cx="140.59805737601388" cy="13.483291864395142" r="2" style="fill: steelblue;"></circle><circle cx="107.66810211870406" cy="63.66981416940689" r="2" style="fill: steelblue;"></circle><circle cx="143.32509901788498" cy="129.12846580147743" r="2" style="fill: steelblue;"></circle><circle cx="122.1911562813653" cy="141.72856360673904" r="2" style="fill: steelblue;"></circle><circle cx="113.29179207483928" cy="41.57551974058151" r="2" style="fill: steelblue;"></circle><circle cx="16.38966004053752" cy="28.27872931957245" r="2" style="fill: steelblue;"></circle><circle cx="33.01995860205757" cy="127.43552438914776" r="2" style="fill: steelblue;"></circle><circle cx="131.41734931204056" cy="173.57259094715118" r="2" style="fill: steelblue;"></circle><circle cx="60.1328366332584" cy="122.058280184865" r="2" style="fill: steelblue;"></circle><circle cx="125.47738883230421" cy="145.66194862127304" r="2" style="fill: steelblue;"></circle><circle cx="69.93242800235748" cy="105.39327459409833" r="2" style="fill: steelblue;"></circle><circle cx="145.6128544277615" cy="133.25794264674187" r="2" style="fill: steelblue;"></circle><circle cx="127.85651485125224" cy="168.08605790138245" r="2" style="fill: steelblue;"></circle><circle cx="127.90939410527547" cy="10.954974591732025" r="2" style="fill: steelblue;"></circle><circle cx="109.24800932407379" cy="102.70403269678354" r="2" style="fill: steelblue;"></circle><circle cx="75.89722209506566" cy="88.55010885745287" r="2" style="fill: steelblue;"></circle><circle cx="113.14818792872958" cy="76.16276144981384" r="2" style="fill: steelblue;"></circle><circle cx="28.226029872894294" cy="106.33366126567125" r="2" style="fill: steelblue;"></circle><circle cx="13.791202174292675" cy="133.8306501507759" r="2" style="fill: steelblue;"></circle><circle cx="39.005221923192344" cy="55.39359748363495" r="2" style="fill: steelblue;"></circle><circle cx="110.280908147494" cy="110.43910533189774" r="2" style="fill: steelblue;"></circle><circle cx="74.02473721239302" cy="47.35562801361084" r="2" style="fill: steelblue;"></circle><circle cx="43.13555227385627" cy="69.85617466270924" r="2" style="fill: steelblue;"></circle><circle cx="77.21195651425255" cy="151.7517775297165" r="2" style="fill: steelblue;"></circle><circle cx="107.08156757884555" cy="140.29755294322968" r="2" style="fill: steelblue;"></circle><circle cx="66.65043069256676" cy="175.7458359003067" r="2" style="fill: steelblue;"></circle><circle cx="23.092407650417755" cy="103.48739326000214" r="2" style="fill: steelblue;"></circle><circle cx="82.6921246945858" cy="115.70996828377247" r="2" style="fill: steelblue;"></circle><circle cx="57.40073853068882" cy="106.36897422373295" r="2" style="fill: steelblue;"></circle><circle cx="62.39064236481985" cy="111.42708957195282" r="2" style="fill: steelblue;"></circle><circle cx="126.01413859261407" cy="150.36217346787453" r="2" style="fill: steelblue;"></circle><circle cx="146.95258140563965" cy="153.34483832120895" r="2" style="fill: steelblue;"></circle><circle cx="20.235497421688507" cy="186.8052914738655" r="2" style="fill: steelblue;"></circle><circle cx="2.2879229651557127" cy="171.55682146549225" r="2" style="fill: steelblue;"></circle><circle cx="20.787456300523548" cy="172.0849111676216" r="2" style="fill: steelblue;"></circle><circle cx="4.482148753272167" cy="161.52700260281563" r="2" style="fill: steelblue;"></circle><circle cx="97.49173571666083" cy="175.56936144828796" r="2" style="fill: steelblue;"></circle><circle cx="55.95958762698704" cy="193.75084936618805" r="2" style="fill: steelblue;"></circle><circle cx="92.42891801728142" cy="165.7273232936859" r="2" style="fill: steelblue;"></circle><circle cx="46.774482064776954" cy="111.22903916984797" r="2" style="fill: steelblue;"></circle><circle cx="23.931852976481125" cy="170.97923010587692" r="2" style="fill: steelblue;"></circle><circle cx="139.69958358340793" cy="26.224984228610992" r="2" style="fill: steelblue;"></circle><circle cx="101.13613092237048" cy="62.19586953520775" r="2" style="fill: steelblue;"></circle><circle cx="126.12835764884949" cy="109.00733470916748" r="2" style="fill: steelblue;"></circle><circle cx="145.34956746631198" cy="22.54599928855896" r="2" style="fill: steelblue;"></circle><circle cx="75.80224209361607" cy="89.41237479448318" r="2" style="fill: steelblue;"></circle><circle cx="93.27951023976009" cy="54.023316502571106" r="2" style="fill: steelblue;"></circle><circle cx="137.6351965798272" cy="113.7848099693656" r="2" style="fill: steelblue;"></circle><circle cx="161.07460392846002" cy="30.71036785840988" r="2" style="fill: steelblue;"></circle><circle cx="37.028212017483185" cy="45.17877325415611" r="2" style="fill: steelblue;"></circle><circle cx="183.94984669155545" cy="49.586205184459686" r="2" style="fill: steelblue;"></circle><circle cx="151.1462516254849" cy="149.69964176416397" r="2" style="fill: steelblue;"></circle><circle cx="91.90131591426002" cy="105.67232072353363" r="2" style="fill: steelblue;"></circle><circle cx="130.17683095402188" cy="125.25394037365913" r="2" style="fill: steelblue;"></circle><circle cx="14.808216359880241" cy="60.6718011200428" r="2" style="fill: steelblue;"></circle><circle cx="46.74936864111159" cy="157.04272165894508" r="2" style="fill: steelblue;"></circle><circle cx="68.7531335486306" cy="95.42498914524913" r="2" style="fill: steelblue;"></circle><circle cx="135.41580107476975" cy="133.6296297609806" r="2" style="fill: steelblue;"></circle><circle cx="62.82999482419756" cy="174.27246123552322" r="2" style="fill: steelblue;"></circle><circle cx="188.27513058980304" cy="107.69819878041744" r="2" style="fill: steelblue;"></circle><circle cx="158.96799034542508" cy="46.53295353055" r="2" style="fill: steelblue;"></circle><circle cx="155.3679757648044" cy="98.2062338385731" r="2" style="fill: steelblue;"></circle><circle cx="175.33903519312543" cy="77.96189226210117" r="2" style="fill: steelblue;"></circle><circle cx="107.45642118983798" cy="106.1578112654388" r="2" style="fill: steelblue;"></circle><circle cx="117.7289605140686" cy="85.93658581376076" r="2" style="fill: steelblue;"></circle><circle cx="151.4455000559489" cy="26.261208951473236" r="2" style="fill: steelblue;"></circle><circle cx="166.06049935022992" cy="35.73320657014847" r="2" style="fill: steelblue;"></circle><circle cx="82.7946281267537" cy="65.29131382703781" r="2" style="fill: steelblue;"></circle><circle cx="38.199668460422096" cy="136.68201714754105" r="2" style="fill: steelblue;"></circle><circle cx="134.45661664009094" cy="77.60382294654846" r="2" style="fill: steelblue;"></circle><circle cx="70.30227482318878" cy="57.328423857688904" r="2" style="fill: steelblue;"></circle><circle cx="117.0326292514801" cy="61.78668737411499" r="2" style="fill: steelblue;"></circle><circle cx="126.82412597868178" cy="68.8031543046236" r="2" style="fill: steelblue;"></circle><circle cx="110.06397869851854" cy="46.97316363453865" r="2" style="fill: steelblue;"></circle><circle cx="113.9891631073422" cy="52.584825456142426" r="2" style="fill: steelblue;"></circle><circle cx="124.56452051798503" cy="80.39507120847702" r="2" style="fill: steelblue;"></circle><circle cx="130.33447199397617" cy="135.25614365935326" r="2" style="fill: steelblue;"></circle><circle cx="82.72745658953986" cy="134.9925309419632" r="2" style="fill: steelblue;"></circle><circle cx="124.82669485939874" cy="73.37418980896473" r="2" style="fill: steelblue;"></circle><circle cx="133.14234415690106" cy="110.91927662491798" r="2" style="fill: steelblue;"></circle><circle cx="123.44245314598083" cy="72.7872908115387" r="2" style="fill: steelblue;"></circle><circle cx="68.32367380460104" cy="41.122040152549744" r="2" style="fill: steelblue;"></circle><circle cx="68.30950776735942" cy="75.3830824047327" r="2" style="fill: steelblue;"></circle><circle cx="109.03899073600769" cy="125.01488104462624" r="2" style="fill: steelblue;"></circle><circle cx="61.64822677771251" cy="176.3159692287445" r="2" style="fill: steelblue;"></circle><circle cx="33.706878953509865" cy="118.74421536922455" r="2" style="fill: steelblue;"></circle><circle cx="74.70838096406726" cy="104.20604692772031" r="2" style="fill: steelblue;"></circle><circle cx="103.34284636709425" cy="42.720815539360046" r="2" style="fill: steelblue;"></circle></g></svg>