<svg xmlns="http://www.w3.org/2000/svg"><g transform="translate(40,20)"><circle cx="276.51744425296783" cy="170.77573057678012" r="3" style="fill: steelblue;"></circle><circle cx="329.87642526626587" cy="136.19120584593878" r="3" style="fill: steelblue;"></circle><circle cx="158.81517469882968" cy="247.0642386211289" r="3" style="fill: steelblue;"></circle><circle cx="237.49621599912646" cy="196.0672674079736" r="3" style="fill: steelblue;"></circle><circle cx="342.61322557926184" cy="127.93587230973772" r="3" style="fill: steelblue;"></circle><circle cx="335.6553786993027" cy="132.44558788008158" r="3" style="fill: steelblue;"></circle><circle cx="354.68161940574646" cy="120.11376519997913" r="3" style="fill: steelblue;"></circle><circle cx="214.36275109648705" cy="211.0611798448695" r="3" style="fill: steelblue;"></circle><circle cx="313.7135097384453" cy="146.66716961397066" r="3" style="fill: steelblue;"></circle><circle cx="481.0862624645233" cy="38.18482988410528" r="3" style="fill: steelblue;"></circle><circle cx="450.7539653778076" cy="57.844652069939514" r="3" style="fill: steelblue;"></circle><circle cx="241.93361341953278" cy="193.19117648733987" r="3" style="fill: steelblue;"></circle><circle cx="253.8883162289858" cy="185.44275799973144" r="3" style="fill: steelblue;"></circle><circle cx="423.7625026702881" cy="75.33911863962811" r="3" style="fill: steelblue;"></circle><circle cx="206.34542271494865" cy="216.2575963884592" r="3" style="fill: steelblue;"></circle><circle cx="377.25538551807404" cy="105.48262049754459" r="3" style="fill: steelblue;"></circle><circle cx="404.8949861526489" cy="87.56806453069049" r="3" style="fill: steelblue;"></circle><circle cx="363.2796013355255" cy="114.5409991343816" r="3" style="fill: steelblue;"></circle><circle cx="423.9047312736511" cy="75.24693343374463" r="3" style="fill: steelblue;"></circle><circle cx="392.74134278297424" cy="95.44542597399817" r="3" style="fill: steelblue;"></circle><circle cx="313.9524677395821" cy="146.51228942804863" r="3" style="fill: steelblue;"></circle><circle cx="283.350313603878" cy="166.34701896044942" r="3" style="fill: steelblue;"></circle><circle cx="436.4950740337372" cy="67.08652608924443" r="3" style="fill: steelblue;"></circle><circle cx="162.4640965461731" cy="244.69919668303595" r="3" style="fill: steelblue;"></circle><circle cx="222.82718360424042" cy="205.57497358984415" r="3" style="fill: steelblue;"></circle><circle cx="253.71510922908783" cy="185.55502179596158" r="3" style="fill: steelblue;"></circle><circle cx="273.75535011291504" cy="172.5659767786662" r="3" style="fill: steelblue;"></circle><circle cx="227.06401214003563" cy="202.82888102034724" r="3" style="fill: steelblue;"></circle><circle cx="355.15127420425415" cy="119.8093593120575" r="3" style="fill: steelblue;"></circle><circle cx="265.97797214984894" cy="177.6068699028757" r="3" style="fill: steelblue;"></circle><circle cx="288.45230877399445" cy="163.04017023907767" r="3" style="fill: steelblue;"></circle><circle cx="143.15345227718356" cy="257.2153550055292" r="3" style="fill: steelblue;"></circle><circle cx="250.1238515228033" cy="187.88268882781267" r="3" style="fill: steelblue;"></circle><circle cx="334.39895153045654" cy="133.25993882285223" r="3" style="fill: steelblue;"></circle><circle cx="201.59885376691818" cy="219.33407626218263" r="3" style="fill: steelblue;"></circle><circle cx="222.10204057395458" cy="206.0449737020665" r="3" style="fill: steelblue;"></circle><circle cx="172.68016129732132" cy="238.07767323321764" r="3" style="fill: steelblue;"></circle><circle cx="346.079363822937" cy="125.68930122587415" r="3" style="fill: steelblue;"></circle><circle cx="249.6158266067505" cy="188.21196423636542" r="3" style="fill: steelblue;"></circle><circle cx="84.22085881233217" cy="295.41240632534027" r="3" style="fill: steelblue;"></circle><circle cx="214.17947798967361" cy="211.179967969656" r="3" style="fill: steelblue;"></circle><circle cx="64.7851073741913" cy="308.009652627839" r="3" style="fill: steelblue;"></circle><circle cx="240.5061189411208" cy="194.11640439001428" r="3" style="fill: steelblue;"></circle><circle cx="23.67501497268678" cy="334.65508288807337" r="3" style="fill: steelblue;"></circle><circle cx="61.50703668594362" cy="310.1343280739254" r="3" style="fill: steelblue;"></circle><circle cx="141.6626089811325" cy="258.18164232704373" r="3" style="fill: steelblue;"></circle><circle cx="118.76932919025423" cy="273.0198792285389" r="3" style="fill: steelblue;"></circle><circle cx="304.81064558029175" cy="152.43754453129236" r="3" style="fill: steelblue;"></circle><circle cx="93.89143824577333" cy="289.1444381740358" r="3" style="fill: steelblue;"></circle><circle cx="227.31791116297245" cy="202.66431683881416" r="3" style="fill: steelblue;"></circle><circle cx="255.12919440865517" cy="184.63848510550127" r="3" style="fill: steelblue;"></circle><circle cx="98.09044539928438" cy="286.4228594634268" r="3" style="fill: steelblue;"></circle><circle cx="245.56850228458646" cy="190.83523000073103" r="3" style="fill: steelblue;"></circle><circle cx="225.0029144436121" cy="204.1647776754366" r="3" style="fill: steelblue;"></circle><circle cx="112.68416583538057" cy="276.96396658817923" r="3" style="fill: steelblue;"></circle><circle cx="290.97359418869024" cy="161.40600376658966" r="3" style="fill: steelblue;"></circle><circle cx="130.57428538799286" cy="265.3685187300046" r="3" style="fill: steelblue;"></circle><circle cx="152.8427892923355" cy="250.9352291623751" r="3" style="fill: steelblue;"></circle><circle cx="121.04173243045808" cy="271.54702527655496" r="3" style="fill: steelblue;"></circle><circle cx="310.5566883087158" cy="148.7132575776842" r="3" style="fill: steelblue;"></circle><circle cx="400.1875841617584" cy="90.61915841367511" r="3" style="fill: steelblue;"></circle><circle cx="398.70357155799866" cy="91.5810184346305" r="3" style="fill: steelblue;"></circle><circle cx="323.1154704093933" cy="140.57330621613397" r="3" style="fill: steelblue;"></circle><circle cx="267.7845360338688" cy="176.43594886693688" r="3" style="fill: steelblue;"></circle><circle cx="339.2691904306412" cy="130.10330249865848" r="3" style="fill: steelblue;"></circle><circle cx="259.9170984327793" cy="181.53521397875414" r="3" style="fill: steelblue;"></circle><circle cx="229.4447386264801" cy="201.28581755691107" r="3" style="fill: steelblue;"></circle><circle cx="355.6119704246521" cy="119.5107599099477" r="3" style="fill: steelblue;"></circle><circle cx="133.9130812883377" cy="263.20448435015146" r="3" style="fill: steelblue;"></circle><circle cx="217.1585449576378" cy="209.24909123116072" r="3" style="fill: steelblue;"></circle><circle cx="357.32769906520844" cy="118.3987135688464" r="3" style="fill: steelblue;"></circle><circle cx="201.75182908773422" cy="219.2349255912834" r="3" style="fill: steelblue;"></circle><circle cx="102.82356083393097" cy="283.35509945948917" r="3" style="fill: steelblue;"></circle><circle cx="185.39983570575714" cy="229.83343982034262" r="3" style="fill: steelblue;"></circle><circle cx="236.34942999109626" cy="196.81055463540054" r="3" style="fill: steelblue;"></circle><circle cx="60.02990841865541" cy="311.09172602494556" r="3" style="fill: steelblue;"></circle><circle cx="201.3228589296341" cy="219.5129618048668" r="3" style="fill: steelblue;"></circle><circle cx="129.9245649576187" cy="265.78963382376566" r="3" style="fill: steelblue;"></circle><circle cx="133.79741549491885" cy="263.27945291996" r="3" style="fill: steelblue;"></circle><circle cx="188.05593341588977" cy="228.1118950082196" r="3" style="fill: steelblue;"></circle><circle cx="74.37307476997377" cy="301.79522931575775" r="3" style="fill: steelblue;"></circle><circle cx="205.86215570569038" cy="216.570825005571" r="3" style="fill: steelblue;"></circle><circle cx="69.73460555076599" cy="304.80164455042944" r="3" style="fill: steelblue;"></circle><circle cx="173.70105922222137" cy="237.4159801337454" r="3" style="fill: steelblue;"></circle><circle cx="226.42694167792797" cy="203.24179706060227" r="3" style="fill: steelblue;"></circle><circle cx="246.6730219870806" cy="190.11933760096628" r="3" style="fill: steelblue;"></circle><circle cx="360.1653331518174" cy="116.55950629048876" r="3" style="fill: steelblue;"></circle><circle cx="166.06599032878879" cy="242.36463589800726" r="3" style="fill: steelblue;"></circle><circle cx="225.39346978068352" cy="203.9116399569644" r="3" style="fill: steelblue;"></circle><circle cx="228.35581205785275" cy="201.99160329583617" r="3" style="fill: steelblue;"></circle><circle cx="420.5454969406128" cy="77.42421494589911" r="3" style="fill: steelblue;"></circle><circle cx="357.62319803237915" cy="118.207186460495" r="3" style="fill: steelblue;"></circle><circle cx="423.31514596939087" cy="75.62907205687628" r="3" style="fill: steelblue;"></circle><circle cx="428.91146779060364" cy="72.00182643201617" r="3" style="fill: steelblue;"></circle><circle cx="69.91624474525453" cy="304.68391544289057" r="3" style="fill: steelblue;"></circle><circle cx="146.23545348644257" cy="255.21776162915762" r="3" style="fill: steelblue;"></circle><circle cx="89.42463040351869" cy="292.03959140512677" r="3" style="fill: steelblue;"></circle><circle cx="143.11018824577332" cy="257.24339650736914" r="3" style="fill: steelblue;"></circle><circle cx="43.3406674861908" cy="321.90882662932074" r="3" style="fill: steelblue;"></circle><circle cx="89.20107722282411" cy="292.1844869852066" r="3" style="fill: steelblue;"></circle><circle cx="194.66231256723404" cy="223.82998259531126" r="3" style="fill: steelblue;"></circle><circle cx="149.95616912841797" cy="252.8061866760254" r="3" style="fill: steelblue;"></circle><circle cx="184.3123072385788" cy="230.53831938240262" r="3" style="fill: steelblue;"></circle><circle cx="62.05873131752015" cy="309.7767482201258" r="3" style="fill: steelblue;"></circle><circle cx="378.63268196582794" cy="104.5899283554819" r="3" style="fill: steelblue;"></circle><circle cx="296.912961602211" cy="157.5564137763447" r="3" style="fill: steelblue;"></circle><circle cx="237.99204342998567" cy="195.74589777686117" r="3" style="fill: steelblue;"></circle><circle cx="305.010242164135" cy="152.30817637509767" r="3" style="fill: steelblue;"></circle><circle cx="299.37921702861786" cy="155.9579148888588" r="3" style="fill: steelblue;"></circle><circle cx="328.91983330249786" cy="136.81121915578842" r="3" style="fill: steelblue;"></circle><circle cx="438.29816222190857" cy="65.91785781913335" r="3" style="fill: steelblue;"></circle><circle cx="446.3426077365875" cy="60.703865355915475" r="3" style="fill: steelblue;"></circle><circle cx="469.04106974601746" cy="45.99189923869238" r="3" style="fill: steelblue;"></circle><circle cx="127.96179592609407" cy="267.06179893679086" r="3" style="fill: steelblue;"></circle><circle cx="80.15307426452637" cy="298.0489333470662" r="3" style="fill: steelblue;"></circle><circle cx="108.301722407341" cy="279.80443918042715" r="3" style="fill: steelblue;"></circle><circle cx="98.29438269138338" cy="286.29067788521445" r="3" style="fill: steelblue;"></circle><circle cx="166.65114998817444" cy="241.98536574840546" r="3" style="fill: steelblue;"></circle></g></svg>