<svg xmlns="http://www.w3.org/2000/svg"><g transform="translate(40,20)"><circle cx="347.3830157518387" cy="79.01665773242712" r="3" style="fill: steelblue;"></circle><circle cx="253.45100663602352" cy="200.46249912120402" r="3" style="fill: steelblue;"></circle><circle cx="256.915624961257" cy="84.48509611189365" r="3" style="fill: steelblue;"></circle><circle cx="388.4267860651016" cy="121.10285246744752" r="3" style="fill: steelblue;"></circle><circle cx="355.3540223836899" cy="165.1742582442239" r="3" style="fill: steelblue;"></circle><circle cx="523.2969546318054" cy="134.53913126140833" r="3" style="fill: steelblue;"></circle><circle cx="386.1090713739395" cy="70.14785259962082" r="3" style="fill: steelblue;"></circle><circle cx="271.05764016509056" cy="150.9762587491423" r="3" style="fill: steelblue;"></circle><circle cx="449.7643554210663" cy="95.59627827256918" r="3" style="fill: steelblue;"></circle><circle cx="338.52166771888733" cy="72.05646969377995" r="3" style="fill: steelblue;"></circle><circle cx="253.2708515971899" cy="69.82402801513672" r="3" style="fill: steelblue;"></circle><circle cx="345.58155477046967" cy="172.6470916008111" r="3" style="fill: steelblue;"></circle><circle cx="373.45857560634613" cy="195.72434965521097" r="3" style="fill: steelblue;"></circle><circle cx="239.04849850572646" cy="101.49005260318518" r="3" style="fill: steelblue;"></circle><circle cx="104.9342179298401" cy="95.03829497843981" r="3" style="fill: steelblue;"></circle><circle cx="243.27317090705037" cy="104.66498993337154" r="3" style="fill: steelblue;"></circle><circle cx="304.22749757766724" cy="119.35986038297415" r="3" style="fill: steelblue;"></circle><circle cx="232.57947485893965" cy="148.20602554827929" r="3" style="fill: steelblue;"></circle><circle cx="368.38831543922424" cy="226.21268657967448" r="3" style="fill: steelblue;"></circle><circle cx="356.11165702342987" cy="69.65549867600203" r="3" style="fill: steelblue;"></circle><circle cx="109.77142989635469" cy="224.42245595157146" r="3" style="fill: steelblue;"></circle><circle cx="363.20636808872223" cy="219.3322747014463" r="3" style="fill: steelblue;"></circle><circle cx="416.68004035949707" cy="202.66034798696637" r="3" style="fill: steelblue;"></circle><circle cx="324.1915547847748" cy="255.16858715564013" r="3" style="fill: steelblue;"></circle><circle cx="273.06962326169014" cy="177.0194326643832" r="3" style="fill: steelblue;"></circle><circle cx="312.26894348859787" cy="145.34210246056318" r="3" style="fill: steelblue;"></circle><circle cx="336.6232359409333" cy="125.28587896376848" r="3" style="fill: steelblue;"></circle><circle cx="347.8182667493821" cy="195.93709097243845" r="3" style="fill: steelblue;"></circle><circle cx="234.76793836802244" cy="57.16116465628147" r="3" style="fill: steelblue;"></circle><circle cx="121.27777576446533" cy="289.82131853699684" r="3" style="fill: steelblue;"></circle><circle cx="295.2156776189804" cy="177.73556786123663" r="3" style="fill: steelblue;"></circle><circle cx="276.3388292491436" cy="200.55289515294135" r="3" style="fill: steelblue;"></circle><circle cx="194.80076372623444" cy="224.927297513932" r="3" style="fill: steelblue;"></circle><circle cx="325.2807730436325" cy="112.23963107913733" r="3" style="fill: steelblue;"></circle><circle cx="132.9894983768463" cy="214.98441202566028" r="3" style="fill: steelblue;"></circle><circle cx="135.95350027084353" cy="263.69138918817043" r="3" style="fill: steelblue;"></circle><circle cx="135.5342620611191" cy="216.48189211264253" r="3" style="fill: steelblue;"></circle><circle cx="190.5451664328575" cy="273.42412639409304" r="3" style="fill: steelblue;"></circle><circle cx="180.11087268590927" cy="230.47213833779097" r="3" style="fill: steelblue;"></circle><circle cx="230.79712685197592" cy="180.43106184341013" r="3" style="fill: steelblue;"></circle><circle cx="354.4332826137543" cy="224.25201321020722" r="3" style="fill: steelblue;"></circle><circle cx="176.7059826850891" cy="303.91172990202904" r="3" style="fill: steelblue;"></circle><circle cx="202.25114017724994" cy="222.91146144270897" r="3" style="fill: steelblue;"></circle><circle cx="191.10983401536942" cy="225.3891445696354" r="3" style="fill: steelblue;"></circle><circle cx="209.76011618971827" cy="308.8998097926378" r="3" style="fill: steelblue;"></circle><circle cx="265.356861948967" cy="299.12067502737045" r="3" style="fill: steelblue;"></circle><circle cx="259.574636220932" cy="244.53413225710392" r="3" style="fill: steelblue;"></circle><circle cx="173.15981179475787" cy="309.82082448899746" r="3" style="fill: steelblue;"></circle><circle cx="141.0873556137085" cy="162.88618855178356" r="3" style="fill: steelblue;"></circle><circle cx="329.470437169075" cy="122.7165904827416" r="3" style="fill: steelblue;"></circle><circle cx="187.4616140127182" cy="187.86209432873875" r="3" style="fill: steelblue;"></circle><circle cx="256.1286760121584" cy="156.65493831038475" r="3" style="fill: steelblue;"></circle><circle cx="190.18418580293658" cy="275.1688754186034" r="3" style="fill: steelblue;"></circle><circle cx="73.86272192001344" cy="299.9631326645613" r="3" style="fill: steelblue;"></circle><circle cx="82.4729347229004" cy="179.017960105557" r="3" style="fill: steelblue;"></circle><circle cx="247.43480790406466" cy="119.78011783212423" r="3" style="fill: steelblue;"></circle><circle cx="140.28830766677856" cy="275.51105823367834" r="3" style="fill: steelblue;"></circle><circle cx="258.38047094643116" cy="286.0083218663931" r="3" style="fill: steelblue;"></circle><circle cx="79.55778479576111" cy="166.70459294691682" r="3" style="fill: steelblue;"></circle><circle cx="71.18639588356018" cy="111.07646506279707" r="3" style="fill: steelblue;"></circle><circle cx="313.0364665389061" cy="182.80917634256184" r="3" style="fill: steelblue;"></circle><circle cx="226.34998686611652" cy="134.73437977954745" r="3" style="fill: steelblue;"></circle><circle cx="405.2763783931732" cy="81.2374820932746" r="3" style="fill: steelblue;"></circle><circle cx="163.81081581115723" cy="157.1989492047578" r="3" style="fill: steelblue;"></circle><circle cx="410.6885755062103" cy="132.71007193252444" r="3" style="fill: steelblue;"></circle><circle cx="372.92208909988403" cy="90.64651858061552" r="3" style="fill: steelblue;"></circle><circle cx="271.5033115446568" cy="151.10137634910643" r="3" style="fill: steelblue;"></circle><circle cx="361.52388095855713" cy="183.49093426950276" r="3" style="fill: steelblue;"></circle><circle cx="342.7642250061035" cy="182.60162924416363" r="3" style="fill: steelblue;"></circle><circle cx="427.5688433647156" cy="53.72662395238876" r="3" style="fill: steelblue;"></circle><circle cx="226.64235770702365" cy="90.63766542822123" r="3" style="fill: steelblue;"></circle><circle cx="41.959347724914565" cy="176.4432221360039" r="3" style="fill: steelblue;"></circle><circle cx="279.7862568497658" cy="109.22197736799717" r="3" style="fill: steelblue;"></circle><circle cx="211.47734016180038" cy="258.87528732419014" r="3" style="fill: steelblue;"></circle><circle cx="321.1691612005234" cy="241.62421580404043" r="3" style="fill: steelblue;"></circle><circle cx="288.4062686562538" cy="224.8087154701352" r="3" style="fill: steelblue;"></circle><circle cx="185.73522806167603" cy="223.83413203060627" r="3" style="fill: steelblue;"></circle><circle cx="154.18368816375735" cy="261.7991289123893" r="3" style="fill: steelblue;"></circle><circle cx="173.71925801038745" cy="305.28160855174065" r="3" style="fill: steelblue;"></circle><circle cx="48.781117200851455" cy="204.55907536670566" r="3" style="fill: steelblue;"></circle><circle cx="175.62219589948657" cy="103.54238022118807" r="3" style="fill: steelblue;"></circle><circle cx="128.14254105091095" cy="259.76707618683577" r="3" style="fill: steelblue;"></circle><circle cx="263.5758751630783" cy="164.9062702897936" r="3" style="fill: steelblue;"></circle><circle cx="332.8852468729019" cy="209.80622079223394" r="3" style="fill: steelblue;"></circle><circle cx="190.42821764945984" cy="134.6950621344149" r="3" style="fill: steelblue;"></circle><circle cx="301.0093966126442" cy="209.4882276840508" r="3" style="fill: steelblue;"></circle><circle cx="302.44260370731354" cy="104.55996468663216" r="3" style="fill: steelblue;"></circle><circle cx="200.1184844970703" cy="120.94802986830473" r="3" style="fill: steelblue;"></circle><circle cx="358.5060739517212" cy="98.99106454104185" r="3" style="fill: steelblue;"></circle><circle cx="403.767009973526" cy="192.64250569976866" r="3" style="fill: steelblue;"></circle><circle cx="226.81190684437752" cy="77.53403503447771" r="3" style="fill: steelblue;"></circle><circle cx="419.4704496860504" cy="161.54094291850924" r="3" style="fill: steelblue;"></circle><circle cx="362.54247665405273" cy="146.2249729782343" r="3" style="fill: steelblue;"></circle><circle cx="243.821874037385" cy="165.4327590484172" r="3" style="fill: steelblue;"></circle><circle cx="188.37538450956347" cy="68.42957828193903" r="3" style="fill: steelblue;"></circle><circle cx="280.53494185209274" cy="293.4186842292547" r="3" style="fill: steelblue;"></circle><circle cx="173.29416811466217" cy="231.94893281906843" r="3" style="fill: steelblue;"></circle><circle cx="284.3415507674217" cy="166.49750138167292" r="3" style="fill: steelblue;"></circle><circle cx="131.87911748886108" cy="116.83039478957653" r="3" style="fill: steelblue;"></circle><circle cx="341.52817368507385" cy="209.4406240619719" r="3" style="fill: steelblue;"></circle><circle cx="219.27249222993854" cy="264.50309548527" r="3" style="fill: steelblue;"></circle><circle cx="200.1133614778519" cy="267.5938757136464" r="3" style="fill: steelblue;"></circle><circle cx="244.19234605506063" cy="242.91612412780523" r="3" style="fill: steelblue;"></circle><circle cx="102.93116211891174" cy="165.75740424450487" r="3" style="fill: steelblue;"></circle><circle cx="322.20327794551855" cy="245.0600277632475" r="3" style="fill: steelblue;"></circle><circle cx="186.49271070957187" cy="231.0780055820942" r="3" style="fill: steelblue;"></circle><circle cx="295.78698366880417" cy="174.5313866675133" r="3" style="fill: steelblue;"></circle><circle cx="237.69207620993257" cy="40.69207161664963" r="3" style="fill: steelblue;"></circle><circle cx="304.97752368450165" cy="5.579269677400589" r="3" style="fill: steelblue;"></circle><circle cx="431.9131278991699" cy="61.524295434355736" r="3" style="fill: steelblue;"></circle><circle cx="472.1316719055176" cy="81.57467767596245" r="3" style="fill: steelblue;"></circle><circle cx="361.7515289783478" cy="10.22738330066204" r="3" style="fill: steelblue;"></circle><circle cx="328.9345943927765" cy="134.56506812945008" r="3" style="fill: steelblue;"></circle><circle cx="177.54417747259143" cy="306.12093694508076" r="3" style="fill: steelblue;"></circle><circle cx="139.06056225299835" cy="204.19775526970625" r="3" style="fill: steelblue;"></circle><circle cx="250.7898361980915" cy="244.4361999630928" r="3" style="fill: steelblue;"></circle><circle cx="216.30397975444794" cy="96.9569256529212" r="3" style="fill: steelblue;"></circle><circle cx="229.1198828816414" cy="133.98505300283432" r="3" style="fill: steelblue;"></circle></g></svg>