<svg xmlns="http://www.w3.org/2000/svg"><g><circle cx="12.506297975778583" cy="85.54470539093018" r="2" style="fill: steelblue;"></circle><circle cx="54.211719147861004" cy="49.20579316094518" r="2" style="fill: steelblue;"></circle><circle cx="49.251054134219885" cy="66.72954261302948" r="2" style="fill: steelblue;"></circle><circle cx="3.3258862793445614" cy="81.80770874023438" r="2" style="fill: steelblue;"></circle><circle cx="2.3371122777462032" cy="65.15507251024246" r="2" style="fill: steelblue;"></circle><circle cx="3.134503215551379" cy="36.73636466264725" r="2" style="fill: steelblue;"></circle><circle cx="30.370938777923584" cy="75.03940463066101" r="2" style="fill: steelblue;"></circle><circle cx="40.09354971349239" cy="39.48938325047493" r="2" style="fill: steelblue;"></circle><circle cx="41.72587040811777" cy="65.98778516054153" r="2" style="fill: steelblue;"></circle><circle cx="41.93963408470154" cy="62.86521404981613" r="2" style="fill: steelblue;"></circle><circle cx="44.30924421176314" cy="41.43323972821236" r="2" style="fill: steelblue;"></circle><circle cx="39.34716172516346" cy="59.16451886296272" r="2" style="fill: steelblue;"></circle><circle cx="33.54032076895237" cy="48.898014053702354" r="2" style="fill: steelblue;"></circle><circle cx="46.77052814513445" cy="66.69348031282425" r="2" style="fill: steelblue;"></circle><circle cx="30.29664158821106" cy="57.938267290592194" r="2" style="fill: steelblue;"></circle><circle cx="45.102353394031525" cy="86.25997602939606" r="2" style="fill: steelblue;"></circle><circle cx="53.397269174456596" cy="55.718982219696045" r="2" style="fill: steelblue;"></circle><circle cx="33.35198312997818" cy="69.79304552078247" r="2" style="fill: steelblue;"></circle><circle cx="22.55334258079529" cy="35.85827499628067" r="2" style="fill: steelblue;"></circle><circle cx="47.48712847940624" cy="27.68760472536087" r="2" style="fill: steelblue;"></circle><circle cx="31.2613595277071" cy="33.83161872625351" r="2" style="fill: steelblue;"></circle><circle cx="72.04125933349133" cy="67.96977072954178" r="2" style="fill: steelblue;"></circle><circle cx="36.17149889469147" cy="62.04448118805885" r="2" style="fill: steelblue;"></circle><circle cx="24.343340843915943" cy="61.12875938415527" r="2" style="fill: steelblue;"></circle><circle cx="25.3968957811594" cy="83.18686783313751" r="2" style="fill: steelblue;"></circle><circle cx="65.2311148121953" cy="44.20776404440403" r="2" style="fill: steelblue;"></circle><circle cx="29.36352714896202" cy="66.81028455495834" r="2" style="fill: steelblue;"></circle><circle cx="39.23750687390566" cy="51.36174773797393" r="2" style="fill: steelblue;"></circle><circle cx="69.11037415266037" cy="81.9582998752594" r="2" style="fill: steelblue;"></circle><circle cx="72.35288359224796" cy="34.32742953300476" r="2" style="fill: steelblue;"></circle><circle cx="58.10220371931791" cy="39.159344881772995" r="2" style="fill: steelblue;"></circle><circle cx="79.9496240913868" cy="27.52469927072525" r="2" style="fill: steelblue;"></circle><circle cx="56.93367002531886" cy="26.933512091636658" r="2" style="fill: steelblue;"></circle><circle cx="51.22227764222771" cy="51.58052146434784" r="2" style="fill: steelblue;"></circle><circle cx="46.48898211307824" cy="43.98709610104561" r="2" style="fill: steelblue;"></circle><circle cx="47.80268012546003" cy="41.90535992383957" r="2" style="fill: steelblue;"></circle><circle cx="45.59130426496267" cy="59.1022863984108" r="2" style="fill: steelblue;"></circle><circle cx="27.552495896816254" cy="57.25919380784035" r="2" style="fill: steelblue;"></circle><circle cx="13.159877806901935" cy="73.73365014791489" r="2" style="fill: steelblue;"></circle><circle cx="15.93611687421799" cy="52.51365192234516" r="2" style="fill: steelblue;"></circle><circle cx="28.384004905819893" cy="27.546656131744385" r="2" style="fill: steelblue;"></circle><circle cx="91.66161641478539" cy="24.603641033172607" r="2" style="fill: steelblue;"></circle><circle cx="37.327080219984055" cy="43.911855295300484" r="2" style="fill: steelblue;"></circle><circle cx="44.709907565265894" cy="31.632626056671143" r="2" style="fill: steelblue;"></circle><circle cx="60.05272660404444" cy="44.25988458096981" r="2" style="fill: steelblue;"></circle><circle cx="66.20779931545258" cy="24.495577812194824" r="2" style="fill: steelblue;"></circle><circle cx="73.080475628376" cy="68.337981402874" r="2" style="fill: steelblue;"></circle><circle cx="23.558718338608745" cy="80.85487186908722" r="2" style="fill: steelblue;"></circle><circle cx="71.6514840722084" cy="75.29317736625671" r="2" style="fill: steelblue;"></circle><circle cx="73.88627640902996" cy="79.44615483283997" r="2" style="fill: steelblue;"></circle><circle cx="59.84502863138914" cy="45.59591896831989" r="2" style="fill: steelblue;"></circle><circle cx="41.408584639430046" cy="80.01626431941986" r="2" style="fill: steelblue;"></circle><circle cx="35.64415704458952" cy="62.120362371206284" r="2" style="fill: steelblue;"></circle><circle cx="67.99377985298634" cy="54.89503964781761" r="2" style="fill: steelblue;"></circle><circle cx="19.533497467637066" cy="42.063333094120026" r="2" style="fill: steelblue;"></circle><circle cx="23.116071894764904" cy="67.65475124120712" r="2" style="fill: steelblue;"></circle><circle cx="79.08934839069843" cy="45.78422009944916" r="2" style="fill: steelblue;"></circle><circle cx="50.507621094584465" cy="63.06832730770111" r="2" style="fill: steelblue;"></circle><circle cx="37.939104437828064" cy="33.76844525337219" r="2" style="fill: steelblue;"></circle><circle cx="57.65809090808034" cy="61.82529106736183" r="2" style="fill: steelblue;"></circle><circle cx="46.44453846849501" cy="80.35455346107483" r="2" style="fill: steelblue;"></circle><circle cx="28.34308072924614" cy="74.20597523450851" r="2" style="fill: steelblue;"></circle><circle cx="43.71366295963526" cy="95.39034068584442" r="2" style="fill: steelblue;"></circle><circle cx="15.600613504648212" cy="92.4610823392868" r="2" style="fill: steelblue;"></circle><circle cx="52.7080534491688" cy="61.83309555053711" r="2" style="fill: steelblue;"></circle><circle cx="18.751179054379467" cy="75.02829730510712" r="2" style="fill: steelblue;"></circle><circle cx="18.846881762146953" cy="76.08241438865662" r="2" style="fill: steelblue;"></circle><circle cx="21.071371808648113" cy="39.549820125103" r="2" style="fill: steelblue;"></circle><circle cx="47.5923968013376" cy="82.60866701602936" r="2" style="fill: steelblue;"></circle><circle cx="22.60013595223427" cy="52.42206286638975" r="2" style="fill: steelblue;"></circle><circle cx="25.170321762561798" cy="85.3565901517868" r="2" style="fill: steelblue;"></circle><circle cx="67.38291792571545" cy="35.6086328625679" r="2" style="fill: steelblue;"></circle><circle cx="73.43706041574478" cy="38.88152465224266" r="2" style="fill: steelblue;"></circle><circle cx="33.786558732390404" cy="22.971901297569275" r="2" style="fill: steelblue;"></circle><circle cx="53.14490939490497" cy="46.94144111126661" r="2" style="fill: steelblue;"></circle><circle cx="47.23415914922953" cy="54.10316847264767" r="2" style="fill: steelblue;"></circle><circle cx="65.61640109866858" cy="27.123838663101196" r="2" style="fill: steelblue;"></circle><circle cx="35.08038092404604" cy="46.22322469949722" r="2" style="fill: steelblue;"></circle><circle cx="69.29602026939392" cy="52.03127693384886" r="2" style="fill: steelblue;"></circle><circle cx="71.52719721198082" cy="35.364991426467896" r="2" style="fill: steelblue;"></circle><circle cx="52.63250223360956" cy="25.325685739517212" r="2" style="fill: steelblue;"></circle><circle cx="89.28244858980179" cy="7.754537463188171" r="2" style="fill: steelblue;"></circle><circle cx="52.15144641697407" cy="43.38530972599983" r="2" style="fill: steelblue;"></circle><circle cx="53.393905935809016" cy="59.464265406131744" r="2" style="fill: steelblue;"></circle><circle cx="42.38028470426798" cy="65.89391231536865" r="2" style="fill: steelblue;"></circle><circle cx="42.48291179537773" cy="58.515557646751404" r="2" style="fill: steelblue;"></circle><circle cx="45.537593960762024" cy="52.74317692965269" r="2" style="fill: steelblue;"></circle><circle cx="40.96005316823721" cy="33.59004408121109" r="2" style="fill: steelblue;"></circle><circle cx="48.5950292320922" cy="43.269648402929306" r="2" style="fill: steelblue;"></circle><circle cx="52.077351324260235" cy="40.626221895217896" r="2" style="fill: steelblue;"></circle><circle cx="83.34102034568787" cy="44.67869848012924" r="2" style="fill: steelblue;"></circle><circle cx="59.49105527251959" cy="36.20552569627762" r="2" style="fill: steelblue;"></circle><circle cx="60.080499574542046" cy="50.30824448913336" r="2" style="fill: steelblue;"></circle><circle cx="67.21109077334404" cy="47.66971431672573" r="2" style="fill: steelblue;"></circle><circle cx="47.672228841111064" cy="44.40753012895584" r="2" style="fill: steelblue;"></circle><circle cx="84.10917147994041" cy="41.02756306529045" r="2" style="fill: steelblue;"></circle><circle cx="79.50792573392391" cy="38.925378024578094" r="2" style="fill: steelblue;"></circle><circle cx="79.7713354229927" cy="65.28862118721008" r="2" style="fill: steelblue;"></circle><circle cx="54.116468131542206" cy="31.472639739513397" r="2" style="fill: steelblue;"></circle><circle cx="50.39463525172323" cy="34.31723862886429" r="2" style="fill: steelblue;"></circle><circle cx="73.6346535384655" cy="50.04682688449975" r="2" style="fill: steelblue;"></circle><circle cx="62.03829329460859" cy="43.07692348957062" r="2" style="fill: steelblue;"></circle><circle cx="71.5530302375555" cy="33.59406292438507" r="2" style="fill: steelblue;"></circle><circle cx="64.45778924971819" cy="14.388889074325562" r="2" style="fill: steelblue;"></circle><circle cx="70.34419029951096" cy="20.296710729599" r="2" style="fill: steelblue;"></circle><circle cx="36.719170585274696" cy="26.360148191452026" r="2" style="fill: steelblue;"></circle><circle cx="62.2804855927825" cy="27.450819313526154" r="2" style="fill: steelblue;"></circle><circle cx="70.80280892550945" cy="35.19159257411957" r="2" style="fill: steelblue;"></circle><circle cx="86.70082986354828" cy="41.11963137984276" r="2" style="fill: steelblue;"></circle><circle cx="49.93296808679588" cy="58.31856355071068" r="2" style="fill: steelblue;"></circle><circle cx="92.31419041752815" cy="29.310059547424316" r="2" style="fill: steelblue;"></circle><circle cx="41.35925155133009" cy="46.89953625202179" r="2" style="fill: steelblue;"></circle><circle cx="14.848693460226063" cy="79.57440912723541" r="2" style="fill: steelblue;"></circle><circle cx="23.750477656722072" cy="42.37317368388176" r="2" style="fill: steelblue;"></circle><circle cx="39.005557261407375" cy="66.41193926334381" r="2" style="fill: steelblue;"></circle><circle cx="21.993580460548404" cy="59.78304520249367" r="2" style="fill: steelblue;"></circle><circle cx="18.174573034048084" cy="72.88744449615479" r="2" style="fill: steelblue;"></circle><circle cx="16.740831732749943" cy="46.59681022167206" r="2" style="fill: steelblue;"></circle></g></svg>