<svg xmlns="http://www.w3.org/2000/svg"><rect width="200" height="200" fill="white"></rect><g><circle cx="55.42037222120497" cy="136.80867552757263" r="2" style="fill: steelblue;"></circle><circle cx="58.31903550359938" cy="171.27264075809055" r="2" style="fill: steelblue;"></circle><circle cx="155.2445458041297" cy="119.51622234450446" r="2" style="fill: steelblue;"></circle><circle cx="109.6306409065922" cy="72.50987357563443" r="2" style="fill: steelblue;"></circle><circle cx="69.499800602595" cy="136.12832493252225" r="2" style="fill: steelblue;"></circle><circle cx="94.91246773136986" cy="128.4720950656467" r="2" style="fill: steelblue;"></circle><circle cx="64.08457623587715" cy="63.96485732661355" r="2" style="fill: steelblue;"></circle><circle cx="91.68838626808589" cy="93.93101301458147" r="2" style="fill: steelblue;"></circle><circle cx="85.5561527940962" cy="94.59801796409819" r="2" style="fill: steelblue;"></circle><circle cx="117.09756362769339" cy="56.690280967288544" r="2" style="fill: steelblue;"></circle><circle cx="65.98971949683296" cy="107.51583543088701" r="2" style="fill: steelblue;"></circle><circle cx="156.93245662583243" cy="69.99235881699457" r="2" style="fill: steelblue;"></circle><circle cx="67.55664282374912" cy="124.58256747987535" r="2" style="fill: steelblue;"></circle><circle cx="43.757471773359505" cy="144.2462424437205" r="2" style="fill: steelblue;"></circle><circle cx="105.36312891377342" cy="83.6058047082689" r="2" style="fill: steelblue;"></circle><circle cx="99.0307049618827" cy="37.4908102883233" r="2" style="fill: steelblue;"></circle><circle cx="106.39495568142996" cy="168.66012944115533" r="2" style="fill: steelblue;"></circle><circle cx="144.92866065767075" cy="153.44991816414728" r="2" style="fill: steelblue;"></circle><circle cx="172.01274633407593" cy="65.25600320763058" r="2" style="fill: steelblue;"></circle><circle cx="159.94598468144733" cy="93.9514524406857" r="2" style="fill: steelblue;"></circle><circle cx="84.65699851512909" cy="57.981529500749375" r="2" style="fill: steelblue;"></circle><circle cx="165.53258895874023" cy="102.16045743889279" r="2" style="fill: steelblue;"></circle><circle cx="45.10208633210924" cy="49.427921904457946" r="2" style="fill: steelblue;"></circle><circle cx="81.33717709117465" cy="102.72984074221716" r="2" style="fill: steelblue;"></circle><circle cx="99.78222515847948" cy="39.02061316702101" r="2" style="fill: steelblue;"></circle><circle cx="116.47541696826617" cy="94.14812872807185" r="2" style="fill: steelblue;"></circle><circle cx="116.94269296195772" cy="141.4165516694387" r="2" style="fill: steelblue;"></circle><circle cx="62.00498673650954" cy="92.78519774476688" r="2" style="fill: steelblue;"></circle><circle cx="65.89057710435655" cy="125.21845300992331" r="2" style="fill: steelblue;"></circle><circle cx="102.99565394719441" cy="124.70953199598524" r="2" style="fill: steelblue;"></circle><circle cx="162.88113925192093" cy="57.784615622626426" r="2" style="fill: steelblue;"></circle><circle cx="166.6487157344818" cy="75.88819613059361" r="2" style="fill: steelblue;"></circle><circle cx="114.51552187403043" cy="91.3057144317362" r="2" style="fill: steelblue;"></circle><circle cx="115.94328946537442" cy="105.8055794901318" r="2" style="fill: steelblue;"></circle><circle cx="129.00369034873114" cy="68.34153532981873" r="2" style="fill: steelblue;"></circle><circle cx="89.53238195843166" cy="135.58879031075372" r="2" style="fill: steelblue;"></circle><circle cx="50.83972877926296" cy="29.966624577840186" r="2" style="fill: steelblue;"></circle><circle cx="50.929433769649926" cy="105.34980263974931" r="2" style="fill: steelblue;"></circle><circle cx="44.80048020680745" cy="75.38028342856302" r="2" style="fill: steelblue;"></circle><circle cx="67.61839985847473" cy="59.82101162274678" r="2" style="fill: steelblue;"></circle><circle cx="84.8110169172287" cy="79.0920012527042" r="2" style="fill: steelblue;"></circle><circle cx="177.4100661277771" cy="24.369708697001148" r="2" style="fill: steelblue;"></circle><circle cx="92.32921567228105" cy="44.576070706049606" r="2" style="fill: steelblue;"></circle><circle cx="130.93385928206973" cy="80.5758406718572" r="2" style="fill: steelblue;"></circle><circle cx="162.07746664683023" cy="62.48087220721774" r="2" style="fill: steelblue;"></circle><circle cx="114.09624252054427" cy="53.67016990979512" r="2" style="fill: steelblue;"></circle><circle cx="151.69490377108255" cy="90.16305779417355" r="2" style="fill: steelblue;"></circle><circle cx="74.93129372596741" cy="133.89581309424506" r="2" style="fill: steelblue;"></circle><circle cx="106.20418356524573" cy="115.4924237065845" r="2" style="fill: steelblue;"></circle><circle cx="54.39390738805135" cy="139.8550060060289" r="2" style="fill: steelblue;"></circle><circle cx="85.3299448887507" cy="113.63581518332164" r="2" style="fill: steelblue;"></circle><circle cx="145.5985638830397" cy="74.24228423171573" r="2" style="fill: steelblue;"></circle><circle cx="114.26584877901607" cy="76.50684846772089" r="2" style="fill: steelblue;"></circle><circle cx="104.08275574445724" cy="105.22088441583846" r="2" style="fill: steelblue;"></circle><circle cx="128.01372177071042" cy="25.60985618167453" r="2" style="fill: steelblue;"></circle><circle cx="56.15807241863674" cy="93.70045728153653" r="2" style="fill: steelblue;"></circle><circle cx="53.10366551081339" cy="102.45471977525287" r="2" style="fill: steelblue;"></circle><circle cx="82.77157611317104" cy="107.56615002950033" r="2" style="fill: steelblue;"></circle><circle cx="83.3859062857098" cy="159.12854539023505" r="2" style="fill: steelblue;"></circle><circle cx="138.97687196731567" cy="145.82280185487534" r="2" style="fill: steelblue;"></circle><circle cx="55.83482318454318" cy="141.98575615882874" r="2" style="fill: steelblue;"></circle><circle cx="128.78792650169797" cy="113.05637856324515" r="2" style="fill: steelblue;"></circle><circle cx="125.52326917648315" cy="100.53409669134352" r="2" style="fill: steelblue;"></circle><circle cx="63.82345490985446" cy="120.83014713393317" r="2" style="fill: steelblue;"></circle><circle cx="60.48068073060777" cy="181.52777221467758" r="2" style="fill: steelblue;"></circle><circle cx="34.83578231599596" cy="145.61107291115655" r="2" style="fill: steelblue;"></circle><circle cx="121.90685421228409" cy="133.10161431630453" r="2" style="fill: steelblue;"></circle><circle cx="73.97330469555324" cy="147.13140196270413" r="2" style="fill: steelblue;"></circle><circle cx="35.350124041239425" cy="168.40752495659723" r="2" style="fill: steelblue;"></circle><circle cx="59.87550814946493" cy="133.76825584305658" r="2" style="fill: steelblue;"></circle><circle cx="16.987297270033093" cy="126.06872320175171" r="2" style="fill: steelblue;"></circle><circle cx="156.00943565368652" cy="34.75203646553888" r="2" style="fill: steelblue;"></circle><circle cx="121.28607514831755" cy="132.47027860747443" r="2" style="fill: steelblue;"></circle><circle cx="144.61285207006668" cy="49.12252426147461" r="2" style="fill: steelblue;"></circle><circle cx="168.74119970533584" cy="81.54168095853593" r="2" style="fill: steelblue;"></circle><circle cx="108.29110257327557" cy="109.64849458800421" r="2" style="fill: steelblue;"></circle><circle cx="119.73885695139568" cy="119.21808984544542" r="2" style="fill: steelblue;"></circle><circle cx="184.0851174460517" cy="133.2753088739183" r="2" style="fill: steelblue;"></circle><circle cx="166.60618782043457" cy="63.18354143036737" r="2" style="fill: steelblue;"></circle><circle cx="141.01324147648282" cy="88.99962600165357" r="2" style="fill: steelblue;"></circle><circle cx="157.87151124742294" cy="41.00888503922357" r="2" style="fill: steelblue;"></circle><circle cx="193.75020927853055" cy="7.125363085005021" r="2" style="fill: steelblue;"></circle><circle cx="128.83370121320087" cy="89.32848411301772" r="2" style="fill: steelblue;"></circle><circle cx="71.3632239235772" cy="107.84410470061832" r="2" style="fill: steelblue;"></circle><circle cx="148.6315263642205" cy="98.4819758269522" r="2" style="fill: steelblue;"></circle><circle cx="87.8546138604482" cy="100.78424496783151" r="2" style="fill: steelblue;"></circle><circle cx="134.69804988967047" cy="108.61975484424167" r="2" style="fill: steelblue;"></circle><circle cx="141.21222164895798" cy="127.89697315957811" r="2" style="fill: steelblue;"></circle><circle cx="119.94683576954735" cy="63.45937351385753" r="2" style="fill: steelblue;"></circle><circle cx="144.37069164382086" cy="70.12225886185963" r="2" style="fill: steelblue;"></circle><circle cx="171.1165640089247" cy="113.24866149160597" r="2" style="fill: steelblue;"></circle><circle cx="164.90335596932303" cy="75.29709190130234" r="2" style="fill: steelblue;"></circle><circle cx="74.9873916308085" cy="57.421096828248764" r="2" style="fill: steelblue;"></circle><circle cx="77.26732227537367" cy="38.32558658387926" r="2" style="fill: steelblue;"></circle><circle cx="113.9691656248437" cy="46.5878168741862" r="2" style="fill: steelblue;"></circle><circle cx="93.56960819827187" cy="104.10737527741327" r="2" style="fill: steelblue;"></circle><circle cx="155.0854676299625" cy="1.6599681642320396" r="2" style="fill: steelblue;"></circle><circle cx="125.14311075210571" cy="105.31781646940443" r="2" style="fill: steelblue;"></circle><circle cx="167.71972179412842" cy="53.66595453686185" r="2" style="fill: steelblue;"></circle><circle cx="56.030703915490044" cy="152.74982849756879" r="2" style="fill: steelblue;"></circle><circle cx="152.71272261937457" cy="106.54763413800134" r="2" style="fill: steelblue;"></circle><circle cx="108.65621330837409" cy="106.65627519289653" r="2" style="fill: steelblue;"></circle><circle cx="127.94135014216106" cy="54.28039564026727" r="2" style="fill: steelblue;"></circle><circle cx="53.406218687693276" cy="45.71413199106853" r="2" style="fill: steelblue;"></circle><circle cx="151.38552255100674" cy="170.73077493243747" r="2" style="fill: steelblue;"></circle><circle cx="118.72093627850215" cy="37.54854732089572" r="2" style="fill: steelblue;"></circle><circle cx="127.69806881745656" cy="86.74623850319121" r="2" style="fill: steelblue;"></circle><circle cx="122.41466922892464" cy="73.85732928911845" r="2" style="fill: steelblue;"></circle><circle cx="106.75127266181839" cy="75.7575187418196" r="2" style="fill: steelblue;"></circle><circle cx="95.97547849019368" cy="23.925985230339908" r="2" style="fill: steelblue;"></circle><circle cx="148.7365596824222" cy="122.76606957117717" r="2" style="fill: steelblue;"></circle><circle cx="146.93576759762234" cy="85.95727417204115" r="2" style="fill: steelblue;"></circle><circle cx="74.86598690350851" cy="127.3470573955112" r="2" style="fill: steelblue;"></circle><circle cx="78.59922448794046" cy="154.67272731992935" r="2" style="fill: steelblue;"></circle><circle cx="101.09525670607884" cy="155.52216635810004" r="2" style="fill: steelblue;"></circle><circle cx="49.117392963833275" cy="142.5587256749471" r="2" style="fill: steelblue;"></circle><circle cx="108.2265501221021" cy="128.1122088432312" r="2" style="fill: steelblue;"></circle><circle cx="72.9418330722385" cy="120.34476002057394" r="2" style="fill: steelblue;"></circle></g></svg>