<svg xmlns="http://www.w3.org/2000/svg"><g><circle cx="14.770379662513733" cy="77.58044004440308" r="2" style="fill: steelblue;"></circle><circle cx="30.349788069725037" cy="83.08864310383797" r="2" style="fill: steelblue;"></circle><circle cx="59.702398627996445" cy="46.00776610895991" r="2" style="fill: steelblue;"></circle><circle cx="41.05459749698639" cy="70.68931795656681" r="2" style="fill: steelblue;"></circle><circle cx="56.38028308749199" cy="84.45808961987495" r="2" style="fill: steelblue;"></circle><circle cx="17.051950097084045" cy="54.58146771416068" r="2" style="fill: steelblue;"></circle><circle cx="49.772182200104" cy="69.49357986450195" r="2" style="fill: steelblue;"></circle><circle cx="57.924485951662064" cy="94.94665190577507" r="2" style="fill: steelblue;"></circle><circle cx="34.70764607191086" cy="70.9305640310049" r="2" style="fill: steelblue;"></circle><circle cx="34.599995613098145" cy="74.44247715175152" r="2" style="fill: steelblue;"></circle><circle cx="37.87140995264053" cy="65.3768165037036" r="2" style="fill: steelblue;"></circle><circle cx="45.54692879319191" cy="38.41659352183342" r="2" style="fill: steelblue;"></circle><circle cx="45.14731802046299" cy="65.12030605226755" r="2" style="fill: steelblue;"></circle><circle cx="23.338085412979126" cy="45.166356675326824" r="2" style="fill: steelblue;"></circle><circle cx="54.41786088049412" cy="81.18217550218105" r="2" style="fill: steelblue;"></circle><circle cx="14.765819907188416" cy="69.89279501140118" r="2" style="fill: steelblue;"></circle><circle cx="26.811407506465912" cy="36.37231718748808" r="2" style="fill: steelblue;"></circle><circle cx="67.29426681995392" cy="61.53821311891079" r="2" style="fill: steelblue;"></circle><circle cx="50.55094105191529" cy="58.64052027463913" r="2" style="fill: steelblue;"></circle><circle cx="78.9130836725235" cy="20.359597355127335" r="2" style="fill: steelblue;"></circle><circle cx="49.66583042405546" cy="32.791079208254814" r="2" style="fill: steelblue;"></circle><circle cx="54.556525498628616" cy="58.91597289592028" r="2" style="fill: steelblue;"></circle><circle cx="59.838926047086716" cy="72.41372503340244" r="2" style="fill: steelblue;"></circle><circle cx="28.500083088874817" cy="71.6424223035574" r="2" style="fill: steelblue;"></circle><circle cx="61.32168844342232" cy="78.87346781790257" r="2" style="fill: steelblue;"></circle><circle cx="30.08050173521042" cy="91.88553616404533" r="2" style="fill: steelblue;"></circle><circle cx="39.619775116443634" cy="72.48559705913067" r="2" style="fill: steelblue;"></circle><circle cx="39.676619321107864" cy="47.213190887123346" r="2" style="fill: steelblue;"></circle><circle cx="23.788118362426758" cy="89.7484302520752" r="2" style="fill: steelblue;"></circle><circle cx="54.3805118650198" cy="52.43528978899121" r="2" style="fill: steelblue;"></circle><circle cx="72.54134714603424" cy="23.302213475108147" r="2" style="fill: steelblue;"></circle><circle cx="71.50287330150604" cy="11.006801575422287" r="2" style="fill: steelblue;"></circle><circle cx="81.37311637401581" cy="31.476308777928352" r="2" style="fill: steelblue;"></circle><circle cx="47.44942933320999" cy="30.441562831401825" r="2" style="fill: steelblue;"></circle><circle cx="55.09973578155041" cy="34.63447391986847" r="2" style="fill: steelblue;"></circle><circle cx="41.93370118737221" cy="24.934251978993416" r="2" style="fill: steelblue;"></circle><circle cx="50.95364656299353" cy="32.99491964280605" r="2" style="fill: steelblue;"></circle><circle cx="32.411424815654755" cy="56.68053422123194" r="2" style="fill: steelblue;"></circle><circle cx="19.538041949272156" cy="80.60822375118732" r="2" style="fill: steelblue;"></circle><circle cx="21.12640142440796" cy="80.88119998574257" r="2" style="fill: steelblue;"></circle><circle cx="9.456852078437805" cy="49.74232498789206" r="2" style="fill: steelblue;"></circle><circle cx="65.15545099973679" cy="67.09864102303982" r="2" style="fill: steelblue;"></circle><circle cx="23.9138662815094" cy="7.554027438163757" r="2" style="fill: steelblue;"></circle><circle cx="62.50302344560623" cy="38.13140857964754" r="2" style="fill: steelblue;"></circle><circle cx="68.19115877151489" cy="28.508522734045982" r="2" style="fill: steelblue;"></circle><circle cx="63.784608244895935" cy="56.97162002325058" r="2" style="fill: steelblue;"></circle><circle cx="75.86694657802582" cy="47.148556634783745" r="2" style="fill: steelblue;"></circle><circle cx="27.315524220466614" cy="17.317640781402588" r="2" style="fill: steelblue;"></circle><circle cx="26.585301756858826" cy="72.57445640861988" r="2" style="fill: steelblue;"></circle><circle cx="34.499940276145935" cy="69.04641464352608" r="2" style="fill: steelblue;"></circle><circle cx="58.458470553159714" cy="44.75247412919998" r="2" style="fill: steelblue;"></circle><circle cx="73.16857427358627" cy="42.96101462095976" r="2" style="fill: steelblue;"></circle><circle cx="63.03853541612625" cy="32.843879610300064" r="2" style="fill: steelblue;"></circle><circle cx="37.752486765384674" cy="23.06292876601219" r="2" style="fill: steelblue;"></circle><circle cx="47.58428055793047" cy="62.92975526303053" r="2" style="fill: steelblue;"></circle><circle cx="54.85990680754185" cy="92.39742457866669" r="2" style="fill: steelblue;"></circle><circle cx="53.151752054691315" cy="89.85398262739182" r="2" style="fill: steelblue;"></circle><circle cx="27.02210545539856" cy="43.62554680556059" r="2" style="fill: steelblue;"></circle><circle cx="44.41794492304325" cy="68.40764097869396" r="2" style="fill: steelblue;"></circle><circle cx="38.52541968226433" cy="59.48419887572527" r="2" style="fill: steelblue;"></circle><circle cx="57.01616331934929" cy="54.31725289672613" r="2" style="fill: steelblue;"></circle><circle cx="42.02144145965576" cy="16.80682897567749" r="2" style="fill: steelblue;"></circle><circle cx="16.33695662021637" cy="90.20705819129944" r="2" style="fill: steelblue;"></circle><circle cx="15.971487760543823" cy="77.548773214221" r="2" style="fill: steelblue;"></circle><circle cx="31.497643887996674" cy="46.211242163553834" r="2" style="fill: steelblue;"></circle><circle cx="40.509284287691116" cy="35.92085298150778" r="2" style="fill: steelblue;"></circle><circle cx="26.426105201244354" cy="53.46525595523417" r="2" style="fill: steelblue;"></circle><circle cx="40.508174896240234" cy="85.79817712306976" r="2" style="fill: steelblue;"></circle><circle cx="19.21028196811676" cy="91.18255153298378" r="2" style="fill: steelblue;"></circle><circle cx="34.94899421930313" cy="52.80070002190769" r="2" style="fill: steelblue;"></circle><circle cx="20.43212056159973" cy="77.89943479001522" r="2" style="fill: steelblue;"></circle><circle cx="52.582635171711445" cy="21.42530232667923" r="2" style="fill: steelblue;"></circle><circle cx="58.550599962472916" cy="39.25166390836239" r="2" style="fill: steelblue;"></circle><circle cx="72.27054685354233" cy="24.41021353006363" r="2" style="fill: steelblue;"></circle><circle cx="66.0333588719368" cy="32.722366228699684" r="2" style="fill: steelblue;"></circle><circle cx="34.338656067848206" cy="50.414537702454254" r="2" style="fill: steelblue;"></circle><circle cx="64.10422325134277" cy="24.423019215464592" r="2" style="fill: steelblue;"></circle><circle cx="69.30467784404755" cy="29.431448504328728" r="2" style="fill: steelblue;"></circle><circle cx="68.50477904081345" cy="44.70738787204027" r="2" style="fill: steelblue;"></circle><circle cx="77.19546854496002" cy="50.66879071528092" r="2" style="fill: steelblue;"></circle><circle cx="83.36285650730133" cy="52.9652351513505" r="2" style="fill: steelblue;"></circle><circle cx="79.19363975524902" cy="18.25386956334114" r="2" style="fill: steelblue;"></circle><circle cx="51.44479274749756" cy="30.532577261328697" r="2" style="fill: steelblue;"></circle><circle cx="39.16694223880768" cy="76.15582570433617" r="2" style="fill: steelblue;"></circle><circle cx="35.1365864276886" cy="86.41025349497795" r="2" style="fill: steelblue;"></circle><circle cx="51.658470183610916" cy="65.67558757960796" r="2" style="fill: steelblue;"></circle><circle cx="43.39080974459648" cy="65.21840691566467" r="2" style="fill: steelblue;"></circle><circle cx="34.536221623420715" cy="32.28994198143482" r="2" style="fill: steelblue;"></circle><circle cx="30.554932355880737" cy="66.55851118266582" r="2" style="fill: steelblue;"></circle><circle cx="67.99358874559402" cy="36.01116985082626" r="2" style="fill: steelblue;"></circle><circle cx="61.57868951559067" cy="30.06589151918888" r="2" style="fill: steelblue;"></circle><circle cx="91.98991358280182" cy="32.428908348083496" r="2" style="fill: steelblue;"></circle><circle cx="85.70870459079742" cy="33.923157677054405" r="2" style="fill: steelblue;"></circle><circle cx="59.04022455215454" cy="19.65048275887966" r="2" style="fill: steelblue;"></circle><circle cx="59.75715517997742" cy="27.018361911177635" r="2" style="fill: steelblue;"></circle><circle cx="54.221295565366745" cy="10.569661110639572" r="2" style="fill: steelblue;"></circle><circle cx="75.33791065216064" cy="14.79964628815651" r="2" style="fill: steelblue;"></circle><circle cx="80.41203320026398" cy="26.955857127904892" r="2" style="fill: steelblue;"></circle><circle cx="60.86973547935486" cy="42.898677475750446" r="2" style="fill: steelblue;"></circle><circle cx="55.753712356090546" cy="32.57138952612877" r="2" style="fill: steelblue;"></circle><circle cx="52.2905258461833" cy="9.10276472568512" r="2" style="fill: steelblue;"></circle><circle cx="40.865008533000946" cy="41.07368569821119" r="2" style="fill: steelblue;"></circle><circle cx="55.66446669399738" cy="25.58223269879818" r="2" style="fill: steelblue;"></circle><circle cx="86.59546673297882" cy="56.471555680036545" r="2" style="fill: steelblue;"></circle><circle cx="37.022753059864044" cy="55.433146841824055" r="2" style="fill: steelblue;"></circle><circle cx="67.68258512020111" cy="41.760740987956524" r="2" style="fill: steelblue;"></circle><circle cx="72.01222479343414" cy="44.224244728684425" r="2" style="fill: steelblue;"></circle><circle cx="77.7965098619461" cy="57.44088180363178" r="2" style="fill: steelblue;"></circle><circle cx="64.8368775844574" cy="39.222520031034946" r="2" style="fill: steelblue;"></circle><circle cx="59.067096561193466" cy="40.45582674443722" r="2" style="fill: steelblue;"></circle><circle cx="82.07729160785675" cy="18.831760808825493" r="2" style="fill: steelblue;"></circle><circle cx="35.91125011444092" cy="31.837155297398567" r="2" style="fill: steelblue;"></circle><circle cx="28.515371680259705" cy="53.50999762304127" r="2" style="fill: steelblue;"></circle><circle cx="31.41009360551834" cy="81.00286424160004" r="2" style="fill: steelblue;"></circle><circle cx="51.58290322870016" cy="90.13680294156075" r="2" style="fill: steelblue;"></circle><circle cx="65.05420356988907" cy="39.684549160301685" r="2" style="fill: steelblue;"></circle><circle cx="60.040684044361115" cy="82.22401812672615" r="2" style="fill: steelblue;"></circle><circle cx="25.045859813690186" cy="45.22757297381759" r="2" style="fill: steelblue;"></circle></g></svg>