<svg xmlns="http://www.w3.org/2000/svg"><g><circle cx="31.686902046203613" cy="79.49604950845242" r="2" style="fill: steelblue;"></circle><circle cx="50.98909677730666" cy="28.942258283495903" r="2" style="fill: steelblue;"></circle><circle cx="17.73430572615729" cy="57.75112397968769" r="2" style="fill: steelblue;"></circle><circle cx="38.589252365960014" cy="88.84390369057655" r="2" style="fill: steelblue;"></circle><circle cx="65.29209017753601" cy="91.22630134224892" r="2" style="fill: steelblue;"></circle><circle cx="44.54173644383748" cy="65.45531023293734" r="2" style="fill: steelblue;"></circle><circle cx="35.27321252557966" cy="34.23852398991585" r="2" style="fill: steelblue;"></circle><circle cx="51.60362232062552" cy="61.65698282420635" r="2" style="fill: steelblue;"></circle><circle cx="53.130341900719536" cy="71.06895670294762" r="2" style="fill: steelblue;"></circle><circle cx="43.78245522578557" cy="78.07941846549511" r="2" style="fill: steelblue;"></circle><circle cx="34.872785210609436" cy="42.833845783025026" r="2" style="fill: steelblue;"></circle><circle cx="69.23526608281665" cy="60.808651335537434" r="2" style="fill: steelblue;"></circle><circle cx="24.973713689380222" cy="25.06503574550152" r="2" style="fill: steelblue;"></circle><circle cx="66.95141477717293" cy="72.92986027896404" r="2" style="fill: steelblue;"></circle><circle cx="41.2595272064209" cy="69.10098642110825" r="2" style="fill: steelblue;"></circle><circle cx="49.299651549922096" cy="49.13103983271867" r="2" style="fill: steelblue;"></circle><circle cx="39.43568468093872" cy="47.66407418064773" r="2" style="fill: steelblue;"></circle><circle cx="49.34609101878272" cy="54.862121772021055" r="2" style="fill: steelblue;"></circle><circle cx="63.635390665796066" cy="40.88436830788851" r="2" style="fill: steelblue;"></circle><circle cx="48.38097426626417" cy="24.108800292015076" r="2" style="fill: steelblue;"></circle><circle cx="69.50923966036903" cy="60.46431530267" r="2" style="fill: steelblue;"></circle><circle cx="70.76062758763632" cy="59.26185492426157" r="2" style="fill: steelblue;"></circle><circle cx="82.70554410086739" cy="52.07521207630634" r="2" style="fill: steelblue;"></circle><circle cx="49.804331527815926" cy="30.71122169494629" r="2" style="fill: steelblue;"></circle><circle cx="35.912773675388756" cy="59.42203216254711" r="2" style="fill: steelblue;"></circle><circle cx="42.98304269711176" cy="60.50079148262739" r="2" style="fill: steelblue;"></circle><circle cx="23.621297544903225" cy="45.4155758023262" r="2" style="fill: steelblue;"></circle><circle cx="19.2952553431193" cy="78.49549613893032" r="2" style="fill: steelblue;"></circle><circle cx="18.418845203187733" cy="80.64009360969067" r="2" style="fill: steelblue;"></circle><circle cx="52.534851142101815" cy="93.96787658333778" r="2" style="fill: steelblue;"></circle><circle cx="80.7122141122818" cy="6.741645932197571" r="2" style="fill: steelblue;"></circle><circle cx="88.6429746945699" cy="31.834907084703445" r="2" style="fill: steelblue;"></circle><circle cx="89.8163484202491" cy="64.56423290073872" r="2" style="fill: steelblue;"></circle><circle cx="75.26548041237724" cy="70.86428180336952" r="2" style="fill: steelblue;"></circle><circle cx="56.658286187383865" cy="20.787759870290756" r="2" style="fill: steelblue;"></circle><circle cx="69.43893598185646" cy="14.139364659786224" r="2" style="fill: steelblue;"></circle><circle cx="34.07522373729282" cy="63.71776219457388" r="2" style="fill: steelblue;"></circle><circle cx="46.04176183541615" cy="86.78629547357559" r="2" style="fill: steelblue;"></circle><circle cx="56.63596207482947" cy="61.0291400924325" r="2" style="fill: steelblue;"></circle><circle cx="28.857462935977512" cy="72.83097431063652" r="2" style="fill: steelblue;"></circle><circle cx="41.09607305791643" cy="52.696637297049165" r="2" style="fill: steelblue;"></circle><circle cx="43.121675650278725" cy="66.62897132337093" r="2" style="fill: steelblue;"></circle><circle cx="99.19108615981209" cy="84.04302895069122" r="2" style="fill: steelblue;"></circle><circle cx="55.80491238894562" cy="5.477487295866013" r="2" style="fill: steelblue;"></circle><circle cx="46.98655588759316" cy="51.35201634839177" r="2" style="fill: steelblue;"></circle><circle cx="82.27870033846962" cy="44.275054428726435" r="2" style="fill: steelblue;"></circle><circle cx="57.343363761901855" cy="38.08138072490692" r="2" style="fill: steelblue;"></circle><circle cx="72.20655017428928" cy="53.16683063283563" r="2" style="fill: steelblue;"></circle><circle cx="44.110143350230324" cy="66.91532507538795" r="2" style="fill: steelblue;"></circle><circle cx="73.29250375429788" cy="27.696798741817474" r="2" style="fill: steelblue;"></circle><circle cx="49.255667047368156" cy="55.21955266594887" r="2" style="fill: steelblue;"></circle><circle cx="60.77977642416954" cy="23.67781400680542" r="2" style="fill: steelblue;"></circle><circle cx="79.77269755469429" cy="34.92808733135462" r="2" style="fill: steelblue;"></circle><circle cx="70.71881658501094" cy="75.87588876485825" r="2" style="fill: steelblue;"></circle><circle cx="48.105591701136696" cy="70.14877647161484" r="2" style="fill: steelblue;"></circle><circle cx="21.40348156293233" cy="87.87291795015335" r="2" style="fill: steelblue;"></circle><circle cx="51.74264601535267" cy="51.74369663000107" r="2" style="fill: steelblue;"></circle><circle cx="47.724471324019966" cy="57.854984141886234" r="2" style="fill: steelblue;"></circle><circle cx="43.0161671506034" cy="53.184487111866474" r="2" style="fill: steelblue;"></circle><circle cx="53.80467635889848" cy="55.71354478597641" r="2" style="fill: steelblue;"></circle><circle cx="42.90663368172115" cy="75.18108673393726" r="2" style="fill: steelblue;"></circle><circle cx="32.408396402994796" cy="76.67241916060448" r="2" style="fill: steelblue;"></circle><circle cx="45.27442571189668" cy="93.40264573693275" r="2" style="fill: steelblue;"></circle><circle cx="34.79718665281932" cy="85.77841073274612" r="2" style="fill: steelblue;"></circle><circle cx="22.398349311616688" cy="86.0424555838108" r="2" style="fill: steelblue;"></circle><circle cx="54.84615561241905" cy="80.76350130140781" r="2" style="fill: steelblue;"></circle><circle cx="38.49939339690739" cy="87.78468072414398" r="2" style="fill: steelblue;"></circle><circle cx="9.036269452836779" cy="96.87542468309402" r="2" style="fill: steelblue;"></circle><circle cx="29.993202951219345" cy="82.86366164684296" r="2" style="fill: steelblue;"></circle><circle cx="28.472907013363308" cy="55.61451958492398" r="2" style="fill: steelblue;"></circle><circle cx="63.876877228418984" cy="85.48961505293846" r="2" style="fill: steelblue;"></circle><circle cx="66.9176677862803" cy="13.112492114305496" r="2" style="fill: steelblue;"></circle><circle cx="47.535238994492424" cy="31.097934767603874" r="2" style="fill: steelblue;"></circle><circle cx="49.918874684307305" cy="54.50366735458374" r="2" style="fill: steelblue;"></circle><circle cx="78.98584670490688" cy="11.27299964427948" r="2" style="fill: steelblue;"></circle><circle cx="87.66827980677286" cy="44.70618739724159" r="2" style="fill: steelblue;"></circle><circle cx="67.07715822590721" cy="27.011658251285553" r="2" style="fill: steelblue;"></circle><circle cx="71.8827893336614" cy="56.8924049846828" r="2" style="fill: steelblue;"></circle><circle cx="82.85179237524667" cy="15.35518392920494" r="2" style="fill: steelblue;"></circle><circle cx="65.45674138598972" cy="22.589386627078056" r="2" style="fill: steelblue;"></circle><circle cx="83.49690503544277" cy="24.793102592229843" r="2" style="fill: steelblue;"></circle><circle cx="75.64431760046217" cy="74.84982088208199" r="2" style="fill: steelblue;"></circle><circle cx="81.77136050330269" cy="52.836160361766815" r="2" style="fill: steelblue;"></circle><circle cx="40.45236772961086" cy="62.62697018682957" r="2" style="fill: steelblue;"></circle><circle cx="34.34442480405171" cy="30.3359005600214" r="2" style="fill: steelblue;"></circle><circle cx="45.12871884637409" cy="78.52136082947254" r="2" style="fill: steelblue;"></circle><circle cx="51.851703474919" cy="47.712494572624564" r="2" style="fill: steelblue;"></circle><circle cx="69.50952940517001" cy="66.8148148804903" r="2" style="fill: steelblue;"></circle><circle cx="44.27899503045612" cy="87.13623061776161" r="2" style="fill: steelblue;"></circle><circle cx="71.66182498137155" cy="53.84909939020872" r="2" style="fill: steelblue;"></circle><circle cx="73.6499097612169" cy="23.266476765275" r="2" style="fill: steelblue;"></circle><circle cx="83.2112795776791" cy="49.10311691928655" r="2" style="fill: steelblue;"></circle><circle cx="77.9829505417082" cy="38.98094613105059" r="2" style="fill: steelblue;"></circle><circle cx="92.77056323157417" cy="53.0789056327194" r="2" style="fill: steelblue;"></circle><circle cx="54.21664917634593" cy="42.96829290688038" r="2" style="fill: steelblue;"></circle><circle cx="97.7058642440372" cy="13.130604475736618" r="2" style="fill: steelblue;"></circle><circle cx="99.02137849065993" cy="17.866603285074234" r="2" style="fill: steelblue;"></circle><circle cx="57.95075433949629" cy="32.645656913518906" r="2" style="fill: steelblue;"></circle><circle cx="65.86248427629471" cy="68.34100857377052" r="2" style="fill: steelblue;"></circle><circle cx="79.9728747871187" cy="38.80191147327423" r="2" style="fill: steelblue;"></circle><circle cx="82.14291764630211" cy="28.664211928844452" r="2" style="fill: steelblue;"></circle><circle cx="48.96652284595701" cy="30.893343687057495" r="2" style="fill: steelblue;"></circle><circle cx="56.31397669720981" cy="34.4015771523118" r="2" style="fill: steelblue;"></circle><circle cx="72.0842033624649" cy="23.486581817269325" r="2" style="fill: steelblue;"></circle><circle cx="32.075014379289414" cy="26.292412728071213" r="2" style="fill: steelblue;"></circle><circle cx="33.47332278887431" cy="40.19753560423851" r="2" style="fill: steelblue;"></circle><circle cx="80.60212433338165" cy="67.62807182967663" r="2" style="fill: steelblue;"></circle><circle cx="47.27758963902791" cy="67.4962654709816" r="2" style="fill: steelblue;"></circle><circle cx="63.32179572847154" cy="36.687094904482365" r="2" style="fill: steelblue;"></circle><circle cx="82.38564762804243" cy="55.45963831245899" r="2" style="fill: steelblue;"></circle><circle cx="79.63133686118655" cy="36.39364540576935" r="2" style="fill: steelblue;"></circle><circle cx="91.35984712176852" cy="20.561020076274872" r="2" style="fill: steelblue;"></circle><circle cx="54.723033733252024" cy="37.69154120236635" r="2" style="fill: steelblue;"></circle><circle cx="47.0253543721305" cy="62.50744052231312" r="2" style="fill: steelblue;"></circle><circle cx="37.654929690890846" cy="88.15798461437225" r="2" style="fill: steelblue;"></circle><circle cx="42.716819379064766" cy="59.372107684612274" r="2" style="fill: steelblue;"></circle><circle cx="32.21140305201213" cy="52.103023463860154" r="2" style="fill: steelblue;"></circle><circle cx="42.4463798602422" cy="21.360407769680023" r="2" style="fill: steelblue;"></circle></g></svg>