<svg xmlns="http://www.w3.org/2000/svg"><g><circle cx="12.506297975778583" cy="87.49370202422142" r="2" style="fill: steelblue;"></circle><circle cx="54.211719147861004" cy="45.788280852138996" r="2" style="fill: steelblue;"></circle><circle cx="49.251054134219885" cy="50.748945865780115" r="2" style="fill: steelblue;"></circle><circle cx="3.3258862793445614" cy="96.67411372065544" r="2" style="fill: steelblue;"></circle><circle cx="2.3371122777462032" cy="97.6628877222538" r="2" style="fill: steelblue;"></circle><circle cx="3.134503215551379" cy="96.86549678444862" r="2" style="fill: steelblue;"></circle><circle cx="30.370938777923584" cy="69.62906122207642" r="2" style="fill: steelblue;"></circle><circle cx="40.09354971349239" cy="59.90645028650761" r="2" style="fill: steelblue;"></circle><circle cx="41.72587040811777" cy="58.27412959188223" r="2" style="fill: steelblue;"></circle><circle cx="41.93963408470154" cy="58.06036591529846" r="2" style="fill: steelblue;"></circle><circle cx="44.30924421176314" cy="55.69075578823686" r="2" style="fill: steelblue;"></circle><circle cx="39.34716172516346" cy="60.65283827483654" r="2" style="fill: steelblue;"></circle><circle cx="33.54032076895237" cy="66.45967923104763" r="2" style="fill: steelblue;"></circle><circle cx="46.77052814513445" cy="53.22947185486555" r="2" style="fill: steelblue;"></circle><circle cx="30.29664158821106" cy="69.70335841178894" r="2" style="fill: steelblue;"></circle><circle cx="45.102353394031525" cy="54.897646605968475" r="2" style="fill: steelblue;"></circle><circle cx="53.397269174456596" cy="46.602730825543404" r="2" style="fill: steelblue;"></circle><circle cx="33.35198312997818" cy="66.64801687002182" r="2" style="fill: steelblue;"></circle><circle cx="22.55334258079529" cy="77.44665741920471" r="2" style="fill: steelblue;"></circle><circle cx="47.48712847940624" cy="52.51287152059376" r="2" style="fill: steelblue;"></circle><circle cx="31.2613595277071" cy="68.7386404722929" r="2" style="fill: steelblue;"></circle><circle cx="72.04125933349133" cy="27.958740666508675" r="2" style="fill: steelblue;"></circle><circle cx="36.17149889469147" cy="63.82850110530853" r="2" style="fill: steelblue;"></circle><circle cx="24.343340843915943" cy="75.65665915608406" r="2" style="fill: steelblue;"></circle><circle cx="25.3968957811594" cy="74.6031042188406" r="2" style="fill: steelblue;"></circle><circle cx="65.2311148121953" cy="34.7688851878047" r="2" style="fill: steelblue;"></circle><circle cx="29.36352714896202" cy="70.63647285103798" r="2" style="fill: steelblue;"></circle><circle cx="39.23750687390566" cy="60.76249312609434" r="2" style="fill: steelblue;"></circle><circle cx="69.11037415266037" cy="30.88962584733963" r="2" style="fill: steelblue;"></circle><circle cx="72.35288359224796" cy="27.647116407752037" r="2" style="fill: steelblue;"></circle><circle cx="58.10220371931791" cy="41.89779628068209" r="2" style="fill: steelblue;"></circle><circle cx="79.9496240913868" cy="20.050375908613205" r="2" style="fill: steelblue;"></circle><circle cx="56.93367002531886" cy="43.06632997468114" r="2" style="fill: steelblue;"></circle><circle cx="51.22227764222771" cy="48.77772235777229" r="2" style="fill: steelblue;"></circle><circle cx="46.48898211307824" cy="53.51101788692176" r="2" style="fill: steelblue;"></circle><circle cx="47.80268012546003" cy="52.19731987453997" r="2" style="fill: steelblue;"></circle><circle cx="45.59130426496267" cy="54.40869573503733" r="2" style="fill: steelblue;"></circle><circle cx="27.552495896816254" cy="72.44750410318375" r="2" style="fill: steelblue;"></circle><circle cx="13.159877806901935" cy="86.84012219309807" r="2" style="fill: steelblue;"></circle><circle cx="15.93611687421799" cy="84.06388312578201" r="2" style="fill: steelblue;"></circle><circle cx="28.384004905819893" cy="71.61599509418011" r="2" style="fill: steelblue;"></circle><circle cx="91.66161641478539" cy="8.338383585214615" r="2" style="fill: steelblue;"></circle><circle cx="37.327080219984055" cy="62.672919780015945" r="2" style="fill: steelblue;"></circle><circle cx="44.709907565265894" cy="55.290092434734106" r="2" style="fill: steelblue;"></circle><circle cx="60.05272660404444" cy="39.94727339595556" r="2" style="fill: steelblue;"></circle><circle cx="66.20779931545258" cy="33.792200684547424" r="2" style="fill: steelblue;"></circle><circle cx="73.080475628376" cy="26.919524371623993" r="2" style="fill: steelblue;"></circle><circle cx="23.558718338608745" cy="76.44128166139126" r="2" style="fill: steelblue;"></circle><circle cx="71.6514840722084" cy="28.348515927791595" r="2" style="fill: steelblue;"></circle><circle cx="73.88627640902996" cy="26.11372359097004" r="2" style="fill: steelblue;"></circle><circle cx="59.84502863138914" cy="40.15497136861086" r="2" style="fill: steelblue;"></circle><circle cx="41.408584639430046" cy="58.591415360569954" r="2" style="fill: steelblue;"></circle><circle cx="35.64415704458952" cy="64.35584295541048" r="2" style="fill: steelblue;"></circle><circle cx="67.99377985298634" cy="32.006220147013664" r="2" style="fill: steelblue;"></circle><circle cx="19.533497467637066" cy="80.46650253236294" r="2" style="fill: steelblue;"></circle><circle cx="23.116071894764904" cy="76.8839281052351" r="2" style="fill: steelblue;"></circle><circle cx="79.08934839069843" cy="20.910651609301567" r="2" style="fill: steelblue;"></circle><circle cx="50.507621094584465" cy="49.492378905415535" r="2" style="fill: steelblue;"></circle><circle cx="37.939104437828064" cy="62.060895562171936" r="2" style="fill: steelblue;"></circle><circle cx="57.65809090808034" cy="42.34190909191966" r="2" style="fill: steelblue;"></circle><circle cx="46.44453846849501" cy="53.55546153150499" r="2" style="fill: steelblue;"></circle><circle cx="28.34308072924614" cy="71.65691927075386" r="2" style="fill: steelblue;"></circle><circle cx="43.71366295963526" cy="56.28633704036474" r="2" style="fill: steelblue;"></circle><circle cx="15.600613504648212" cy="84.39938649535179" r="2" style="fill: steelblue;"></circle><circle cx="52.7080534491688" cy="47.2919465508312" r="2" style="fill: steelblue;"></circle><circle cx="18.751179054379467" cy="81.24882094562054" r="2" style="fill: steelblue;"></circle><circle cx="18.846881762146953" cy="81.15311823785305" r="2" style="fill: steelblue;"></circle><circle cx="21.071371808648113" cy="78.92862819135189" r="2" style="fill: steelblue;"></circle><circle cx="47.5923968013376" cy="52.4076031986624" r="2" style="fill: steelblue;"></circle><circle cx="22.60013595223427" cy="77.39986404776573" r="2" style="fill: steelblue;"></circle><circle cx="25.170321762561798" cy="74.8296782374382" r="2" style="fill: steelblue;"></circle><circle cx="67.38291792571545" cy="32.61708207428455" r="2" style="fill: steelblue;"></circle><circle cx="73.43706041574478" cy="26.56293958425522" r="2" style="fill: steelblue;"></circle><circle cx="33.786558732390404" cy="66.2134412676096" r="2" style="fill: steelblue;"></circle><circle cx="53.14490939490497" cy="46.85509060509503" r="2" style="fill: steelblue;"></circle><circle cx="47.23415914922953" cy="52.76584085077047" r="2" style="fill: steelblue;"></circle><circle cx="65.61640109866858" cy="34.383598901331425" r="2" style="fill: steelblue;"></circle><circle cx="35.08038092404604" cy="64.91961907595396" r="2" style="fill: steelblue;"></circle><circle cx="69.29602026939392" cy="30.70397973060608" r="2" style="fill: steelblue;"></circle><circle cx="71.52719721198082" cy="28.47280278801918" r="2" style="fill: steelblue;"></circle><circle cx="52.63250223360956" cy="47.36749776639044" r="2" style="fill: steelblue;"></circle><circle cx="89.28244858980179" cy="10.717551410198212" r="2" style="fill: steelblue;"></circle><circle cx="52.15144641697407" cy="47.84855358302593" r="2" style="fill: steelblue;"></circle><circle cx="53.393905935809016" cy="46.606094064190984" r="2" style="fill: steelblue;"></circle><circle cx="42.38028470426798" cy="57.61971529573202" r="2" style="fill: steelblue;"></circle><circle cx="42.48291179537773" cy="57.51708820462227" r="2" style="fill: steelblue;"></circle><circle cx="45.537593960762024" cy="54.462406039237976" r="2" style="fill: steelblue;"></circle><circle cx="40.96005316823721" cy="59.03994683176279" r="2" style="fill: steelblue;"></circle><circle cx="48.5950292320922" cy="51.4049707679078" r="2" style="fill: steelblue;"></circle><circle cx="52.077351324260235" cy="47.922648675739765" r="2" style="fill: steelblue;"></circle><circle cx="83.34102034568787" cy="16.658979654312134" r="2" style="fill: steelblue;"></circle><circle cx="59.49105527251959" cy="40.50894472748041" r="2" style="fill: steelblue;"></circle><circle cx="60.080499574542046" cy="39.919500425457954" r="2" style="fill: steelblue;"></circle><circle cx="67.21109077334404" cy="32.78890922665596" r="2" style="fill: steelblue;"></circle><circle cx="47.672228841111064" cy="52.327771158888936" r="2" style="fill: steelblue;"></circle><circle cx="84.10917147994041" cy="15.890828520059586" r="2" style="fill: steelblue;"></circle><circle cx="79.50792573392391" cy="20.492074266076088" r="2" style="fill: steelblue;"></circle><circle cx="79.7713354229927" cy="20.228664577007294" r="2" style="fill: steelblue;"></circle><circle cx="54.116468131542206" cy="45.883531868457794" r="2" style="fill: steelblue;"></circle><circle cx="50.39463525172323" cy="49.60536474827677" r="2" style="fill: steelblue;"></circle><circle cx="73.6346535384655" cy="26.3653464615345" r="2" style="fill: steelblue;"></circle><circle cx="62.03829329460859" cy="37.96170670539141" r="2" style="fill: steelblue;"></circle><circle cx="71.5530302375555" cy="28.446969762444496" r="2" style="fill: steelblue;"></circle><circle cx="64.45778924971819" cy="35.54221075028181" r="2" style="fill: steelblue;"></circle><circle cx="70.34419029951096" cy="29.655809700489044" r="2" style="fill: steelblue;"></circle><circle cx="36.719170585274696" cy="63.280829414725304" r="2" style="fill: steelblue;"></circle><circle cx="62.2804855927825" cy="37.7195144072175" r="2" style="fill: steelblue;"></circle><circle cx="70.80280892550945" cy="29.197191074490547" r="2" style="fill: steelblue;"></circle><circle cx="86.70082986354828" cy="13.299170136451721" r="2" style="fill: steelblue;"></circle><circle cx="49.93296808679588" cy="50.06703191320412" r="2" style="fill: steelblue;"></circle><circle cx="92.31419041752815" cy="7.6858095824718475" r="2" style="fill: steelblue;"></circle><circle cx="41.35925155133009" cy="58.64074844866991" r="2" style="fill: steelblue;"></circle><circle cx="14.848693460226063" cy="85.15130653977394" r="2" style="fill: steelblue;"></circle><circle cx="23.750477656722072" cy="76.24952234327793" r="2" style="fill: steelblue;"></circle><circle cx="39.005557261407375" cy="60.994442738592625" r="2" style="fill: steelblue;"></circle><circle cx="21.993580460548404" cy="78.0064195394516" r="2" style="fill: steelblue;"></circle><circle cx="18.174573034048084" cy="81.82542696595192" r="2" style="fill: steelblue;"></circle><circle cx="16.740831732749943" cy="83.25916826725006" r="2" style="fill: steelblue;"></circle></g></svg>