<svg xmlns="http://www.w3.org/2000/svg"><g transform="translate(40,20)"><circle cx="431.36942625045776" cy="126.56762550274533" r="3" style="fill: steelblue;"></circle><circle cx="348.7976217269898" cy="122.73342675632902" r="3" style="fill: steelblue;"></circle><circle cx="349.7120136022568" cy="174.34406007329625" r="3" style="fill: steelblue;"></circle><circle cx="185.76553702354434" cy="190.47006774279805" r="3" style="fill: steelblue;"></circle><circle cx="294.1421502828598" cy="93.16820916202335" r="3" style="fill: steelblue;"></circle><circle cx="424.4033718109131" cy="54.03641793462965" r="3" style="fill: steelblue;"></circle><circle cx="342.68349051475525" cy="204.97428394026224" r="3" style="fill: steelblue;"></circle><circle cx="263.71619269251823" cy="160.6771397093932" r="3" style="fill: steelblue;"></circle><circle cx="267.6593081653118" cy="42.81268947654302" r="3" style="fill: steelblue;"></circle><circle cx="369.78047132492065" cy="161.9319078202049" r="3" style="fill: steelblue;"></circle><circle cx="243.07968920096755" cy="78.7232486738099" r="3" style="fill: steelblue;"></circle><circle cx="260.06693333387375" cy="23.55747852060529" r="3" style="fill: steelblue;"></circle><circle cx="166.05915516614914" cy="82.63703452216254" r="3" style="fill: steelblue;"></circle><circle cx="324.08249616622925" cy="118.0511362850666" r="3" style="fill: steelblue;"></circle><circle cx="288.2930079102516" cy="153.47879303412304" r="3" style="fill: steelblue;"></circle><circle cx="255.47902487218383" cy="33.29696026113299" r="3" style="fill: steelblue;"></circle><circle cx="242.9797243885696" cy="133.5715686281522" r="3" style="fill: steelblue;"></circle><circle cx="304.25308138132095" cy="92.32929944992065" r="3" style="fill: steelblue;"></circle><circle cx="326.3139599561691" cy="186.64807884229555" r="3" style="fill: steelblue;"></circle><circle cx="428.43632340431213" cy="101.57695098055734" r="3" style="fill: steelblue;"></circle><circle cx="194.29940074682236" cy="110.83448280890781" r="3" style="fill: steelblue;"></circle><circle cx="125.9509527683258" cy="247.71875821881827" r="3" style="fill: steelblue;"></circle><circle cx="297.64484256505966" cy="55.48856092823877" r="3" style="fill: steelblue;"></circle><circle cx="386.5099632740021" cy="175.720697020491" r="3" style="fill: steelblue;"></circle><circle cx="215.19817650318146" cy="145.02857931786116" r="3" style="fill: steelblue;"></circle><circle cx="141.32957696914673" cy="156.34376427365675" r="3" style="fill: steelblue;"></circle><circle cx="139.6068924665451" cy="86.47407276762857" r="3" style="fill: steelblue;"></circle><circle cx="323.54359567165375" cy="162.12445845206577" r="3" style="fill: steelblue;"></circle><circle cx="350.89550256729126" cy="60.727836522791115" r="3" style="fill: steelblue;"></circle><circle cx="378.42068016529083" cy="202.16344934370784" r="3" style="fill: steelblue;"></circle><circle cx="274.77584570646286" cy="153.67128100867075" r="3" style="fill: steelblue;"></circle><circle cx="215.78342109918594" cy="97.0543243818813" r="3" style="fill: steelblue;"></circle><circle cx="393.85776758193975" cy="139.55898413227663" r="3" style="fill: steelblue;"></circle><circle cx="116.74394845962526" cy="164.2517734732893" r="3" style="fill: steelblue;"></circle><circle cx="251.43247559666634" cy="64.06314108106824" r="3" style="fill: steelblue;"></circle><circle cx="225.0703876465559" cy="228.4416135814455" r="3" style="fill: steelblue;"></circle><circle cx="62.006106376647956" cy="81.79987486865787" r="3" style="fill: steelblue;"></circle><circle cx="219.92453947663307" cy="180.4104440742069" r="3" style="fill: steelblue;"></circle><circle cx="324.6595376729965" cy="144.94131470306053" r="3" style="fill: steelblue;"></circle><circle cx="261.1225390434265" cy="182.9909402463171" r="3" style="fill: steelblue;"></circle><circle cx="144.70674633979797" cy="193.13701507118014" r="3" style="fill: steelblue;"></circle><circle cx="231.80465452373028" cy="119.7917636897829" r="3" style="fill: steelblue;"></circle><circle cx="166.8634915351868" cy="216.01465029848947" r="3" style="fill: steelblue;"></circle><circle cx="168.7180691957474" cy="235.19857244359122" r="3" style="fill: steelblue;"></circle><circle cx="172.4933186173439" cy="101.14933401346207" r="3" style="fill: steelblue;"></circle><circle cx="254.58428911864758" cy="205.92207395368155" r="3" style="fill: steelblue;"></circle><circle cx="275.5385921895504" cy="214.72016904089185" r="3" style="fill: steelblue;"></circle><circle cx="118.64747643470764" cy="143.04721020162106" r="3" style="fill: steelblue;"></circle><circle cx="367.4148166179657" cy="175.11690217587682" r="3" style="fill: steelblue;"></circle><circle cx="178.28969299793246" cy="83.979109260771" r="3" style="fill: steelblue;"></circle><circle cx="329.5131558179856" cy="173.8362069759104" r="3" style="fill: steelblue;"></circle><circle cx="305.6798243522644" cy="103.83276492357254" r="3" style="fill: steelblue;"></circle><circle cx="261.3422544300556" cy="311.5898761484358" r="3" style="fill: steelblue;"></circle><circle cx="63.8569736480713" cy="192.7617752717601" r="3" style="fill: steelblue;"></circle><circle cx="71.2654495239258" cy="167.469183045129" r="3" style="fill: steelblue;"></circle><circle cx="165.03181546926498" cy="159.9311569498645" r="3" style="fill: steelblue;"></circle><circle cx="228.7767802923918" cy="186.72499739461477" r="3" style="fill: steelblue;"></circle><circle cx="171.5987527370453" cy="210.08256011539038" r="3" style="fill: steelblue;"></circle><circle cx="154.20660316944122" cy="253.55697108639612" r="3" style="fill: steelblue;"></circle><circle cx="309.71518099308014" cy="94.15761811865701" r="3" style="fill: steelblue;"></circle><circle cx="113.75560104846956" cy="239.53404708041086" r="3" style="fill: steelblue;"></circle><circle cx="345.8172047138214" cy="74.77628125084772" r="3" style="fill: steelblue;"></circle><circle cx="226.99266873300076" cy="61.26826273070441" r="3" style="fill: steelblue;"></circle><circle cx="392.8524219989777" cy="114.97571542859077" r="3" style="fill: steelblue;"></circle><circle cx="297.9501673579216" cy="161.8305956530902" r="3" style="fill: steelblue;"></circle><circle cx="317.32453644275665" cy="69.83263807164298" r="3" style="fill: steelblue;"></circle><circle cx="178.9759674668312" cy="130.2563115126557" r="3" style="fill: steelblue;"></circle><circle cx="339.2795526981354" cy="124.9225153691239" r="3" style="fill: steelblue;"></circle><circle cx="499.2885732650757" cy="84.62785366508695" r="3" style="fill: steelblue;"></circle><circle cx="272.31799453496933" cy="113.78089479274222" r="3" style="fill: steelblue;"></circle><circle cx="376.5344077348709" cy="187.72579042447938" r="3" style="fill: steelblue;"></circle><circle cx="269.30842861533165" cy="139.8564361449745" r="3" style="fill: steelblue;"></circle><circle cx="313.1167942285538" cy="253.53234277831183" r="3" style="fill: steelblue;"></circle><circle cx="352.6793771982193" cy="83.15967039929495" r="3" style="fill: steelblue;"></circle><circle cx="192.96943634748462" cy="250.22742665476267" r="3" style="fill: steelblue;"></circle><circle cx="205.30747041106227" cy="214.00285363197327" r="3" style="fill: steelblue;"></circle><circle cx="167.51123160123825" cy="217.25588805145685" r="3" style="fill: steelblue;"></circle><circle cx="128.0721598863602" cy="279.242256614897" r="3" style="fill: steelblue;"></circle><circle cx="109.91372108459474" cy="222.33321948183908" r="3" style="fill: steelblue;"></circle><circle cx="124.23010110855103" cy="267.5677084260517" r="3" style="fill: steelblue;"></circle><circle cx="160.9201276302338" cy="224.81212533182565" r="3" style="fill: steelblue;"></circle><circle cx="361.6910809278488" cy="152.23135039624242" r="3" style="fill: steelblue;"></circle><circle cx="163.35110306739807" cy="133.98120258417396" r="3" style="fill: steelblue;"></circle><circle cx="314.38752204179764" cy="186.6812604169051" r="3" style="fill: steelblue;"></circle><circle cx="138.0611085891724" cy="155.9137898251518" r="3" style="fill: steelblue;"></circle><circle cx="337.6993292570114" cy="146.38528254710968" r="3" style="fill: steelblue;"></circle><circle cx="271.58094361424446" cy="161.1128941592243" r="3" style="fill: steelblue;"></circle><circle cx="331.98930859565735" cy="69.03323796060351" r="3" style="fill: steelblue;"></circle><circle cx="331.40911996364594" cy="45.534783932897774" r="3" style="fill: steelblue;"></circle><circle cx="378.60938251018524" cy="109.32886161737973" r="3" style="fill: steelblue;"></circle><circle cx="401.96526288986206" cy="142.6857216904561" r="3" style="fill: steelblue;"></circle><circle cx="361.2052345275879" cy="101.61402093039618" r="3" style="fill: steelblue;"></circle><circle cx="349.0073347091675" cy="176.71674547923936" r="3" style="fill: steelblue;"></circle><circle cx="274.41383466124535" cy="120.3208290040493" r="3" style="fill: steelblue;"></circle><circle cx="160.67164778709414" cy="213.76053426000806" r="3" style="fill: steelblue;"></circle><circle cx="288.19948822259903" cy="270.1578531000349" r="3" style="fill: steelblue;"></circle><circle cx="176.11120730638504" cy="225.9594741794798" r="3" style="fill: steelblue;"></circle><circle cx="83.9286231994629" cy="244.1956642601225" r="3" style="fill: steelblue;"></circle><circle cx="152.08052337169647" cy="148.98326699104575" r="3" style="fill: steelblue;"></circle><circle cx="363.4935700893402" cy="270.94943589634363" r="3" style="fill: steelblue;"></circle><circle cx="194.05147969722748" cy="203.0252459976408" r="3" style="fill: steelblue;"></circle><circle cx="218.56059595942497" cy="266.104010409779" r="3" style="fill: steelblue;"></circle><circle cx="174.22840833663943" cy="192.13392146759566" r="3" style="fill: steelblue;"></circle><circle cx="132.44726300239563" cy="190.0883289674918" r="3" style="fill: steelblue;"></circle><circle cx="127.26636171340944" cy="265.04812240600586" r="3" style="fill: steelblue;"></circle><circle cx="174.1832399368286" cy="197.06052185760603" r="3" style="fill: steelblue;"></circle><circle cx="362.1015751361847" cy="136.31575033068657" r="3" style="fill: steelblue;"></circle><circle cx="258.2647727429867" cy="149.5675725138022" r="3" style="fill: steelblue;"></circle><circle cx="288.43453019857407" cy="46.3213599390454" r="3" style="fill: steelblue;"></circle><circle cx="335.73715031147003" cy="97.40156034628552" r="3" style="fill: steelblue;"></circle><circle cx="424.0862452983856" cy="29.83853154712255" r="3" style="fill: steelblue;"></circle><circle cx="320.4642409086228" cy="93.59390222364003" r="3" style="fill: steelblue;"></circle><circle cx="59.57411170005799" cy="237.67649895615045" r="3" style="fill: steelblue;"></circle><circle cx="237.89125523529947" cy="251.81130501959058" r="3" style="fill: steelblue;"></circle><circle cx="162.4065899848938" cy="129.18454549378822" r="3" style="fill: steelblue;"></circle><circle cx="200.31062453985217" cy="232.48024466964932" r="3" style="fill: steelblue;"></circle><circle cx="241.0009609395638" cy="242.48213089174692" r="3" style="fill: steelblue;"></circle><circle cx="240.03805607557297" cy="170.83830878966387" r="3" style="fill: steelblue;"></circle></g></svg>