<svg xmlns="http://www.w3.org/2000/svg"><g><circle cx="63.37380409240723" cy="180.89669942855835" r="2" style="fill: steelblue;"></circle><circle cx="101.97819355461333" cy="139.41502571105957" r="2" style="fill: steelblue;"></circle><circle cx="35.46861145231458" cy="159.25151109695435" r="2" style="fill: steelblue;"></circle><circle cx="77.17850473192003" cy="147.37480216556125" r="2" style="fill: steelblue;"></circle><circle cx="130.58418035507202" cy="124.13092702627182" r="2" style="fill: steelblue;"></circle><circle cx="89.08347288767496" cy="135.56754257943894" r="2" style="fill: steelblue;"></circle><circle cx="70.54642505115932" cy="117.12964127461115" r="2" style="fill: steelblue;"></circle><circle cx="103.20724464125104" cy="137.4452147218916" r="2" style="fill: steelblue;"></circle><circle cx="106.26068380143907" cy="115.07642848624124" r="2" style="fill: steelblue;"></circle><circle cx="87.56491045157114" cy="130.84760804971057" r="2" style="fill: steelblue;"></circle><circle cx="69.74557042121887" cy="173.16291067335342" r="2" style="fill: steelblue;"></circle><circle cx="138.4705321656333" cy="103.6461086736785" r="2" style="fill: steelblue;"></circle><circle cx="49.947427378760445" cy="177.11300320095486" r="2" style="fill: steelblue;"></circle><circle cx="133.90282955434586" cy="113.56098970605268" r="2" style="fill: steelblue;"></circle><circle cx="82.5190544128418" cy="150.38981702592636" r="2" style="fill: steelblue;"></circle><circle cx="98.59930309984419" cy="186.97644604576956" r="2" style="fill: steelblue;"></circle><circle cx="78.87136936187744" cy="81.341952085495" r="2" style="fill: steelblue;"></circle><circle cx="98.69218203756544" cy="102.42517126931085" r="2" style="fill: steelblue;"></circle><circle cx="127.27078133159213" cy="119.01180197795232" r="2" style="fill: steelblue;"></circle><circle cx="96.76194853252834" cy="92.36619538731046" r="2" style="fill: steelblue;"></circle><circle cx="139.01847932073807" cy="101.03337963422139" r="2" style="fill: steelblue;"></circle><circle cx="141.52125517527264" cy="103.8846191432741" r="2" style="fill: steelblue;"></circle><circle cx="165.41108820173477" cy="82.64194263352287" r="2" style="fill: steelblue;"></circle><circle cx="99.60866305563185" cy="121.67563620540831" r="2" style="fill: steelblue;"></circle><circle cx="71.82554735077751" cy="155.21819392840067" r="2" style="fill: steelblue;"></circle><circle cx="85.96608539422353" cy="144.14273699124652" r="2" style="fill: steelblue;"></circle><circle cx="47.24259508980645" cy="190.30045138465033" r="2" style="fill: steelblue;"></circle><circle cx="38.5905106862386" cy="180.0208290417989" r="2" style="fill: steelblue;"></circle><circle cx="36.837690406375465" cy="132.74640672736697" r="2" style="fill: steelblue;"></circle><circle cx="105.06970228420363" cy="78.69887683126662" r="2" style="fill: steelblue;"></circle><circle cx="161.4244282245636" cy="94.40757168663872" r="2" style="fill: steelblue;"></circle><circle cx="177.2859493891398" cy="45.527100563049316" r="2" style="fill: steelblue;"></circle><circle cx="179.6326968404982" cy="104.89803966548708" r="2" style="fill: steelblue;"></circle><circle cx="150.5309608247545" cy="96.74288001325395" r="2" style="fill: steelblue;"></circle><circle cx="113.31657237476773" cy="108.97899025844202" r="2" style="fill: steelblue;"></circle><circle cx="138.87787196371292" cy="48.88705412546794" r="2" style="fill: steelblue;"></circle><circle cx="68.15044747458565" cy="115.4730228914155" r="2" style="fill: steelblue;"></circle><circle cx="92.0835236708323" cy="168.53408681021796" r="2" style="fill: steelblue;"></circle><circle cx="113.27192414965894" cy="150.86933308177524" r="2" style="fill: steelblue;"></circle><circle cx="57.714925871955025" cy="110.97039124514494" r="2" style="fill: steelblue;"></circle><circle cx="82.19214611583286" cy="168.81165239546036" r="2" style="fill: steelblue;"></circle><circle cx="86.24335130055745" cy="179.29303646087646" r="2" style="fill: steelblue;"></circle><circle cx="198.38217231962417" cy="114.6238177186913" r="2" style="fill: steelblue;"></circle><circle cx="111.60982477789123" cy="32.85303380754259" r="2" style="fill: steelblue;"></circle><circle cx="93.97311177518633" cy="114.73294720053673" r="2" style="fill: steelblue;"></circle><circle cx="164.55740067693924" cy="115.1001039478514" r="2" style="fill: steelblue;"></circle><circle cx="114.68672752380371" cy="135.0278208653132" r="2" style="fill: steelblue;"></circle><circle cx="144.41310034857855" cy="172.93073733647662" r="2" style="fill: steelblue;"></circle><circle cx="88.22028670046065" cy="94.53726145956252" r="2" style="fill: steelblue;"></circle><circle cx="146.58500750859577" cy="182.67354038026596" r="2" style="fill: steelblue;"></circle><circle cx="98.51133409473631" cy="89.97031218475766" r="2" style="fill: steelblue;"></circle><circle cx="121.55955284833908" cy="126.94882187578412" r="2" style="fill: steelblue;"></circle><circle cx="159.54539510938858" cy="121.02423525518842" r="2" style="fill: steelblue;"></circle><circle cx="141.43763317002188" cy="79.88827096091376" r="2" style="fill: steelblue;"></circle><circle cx="96.21118340227339" cy="141.96428325441147" r="2" style="fill: steelblue;"></circle><circle cx="42.80696312586466" cy="146.7640267478095" r="2" style="fill: steelblue;"></circle><circle cx="103.48529203070534" cy="79.18138305346172" r="2" style="fill: steelblue;"></circle><circle cx="95.44894264803993" cy="141.7598161432478" r="2" style="fill: steelblue;"></circle><circle cx="86.0323343012068" cy="105.35041077269449" r="2" style="fill: steelblue;"></circle><circle cx="107.60935271779697" cy="122.54785663551755" r="2" style="fill: steelblue;"></circle><circle cx="85.8132673634423" cy="115.73247073425188" r="2" style="fill: steelblue;"></circle><circle cx="64.81679280598959" cy="116.00399431255128" r="2" style="fill: steelblue;"></circle><circle cx="90.54885142379337" cy="193.34289762708877" r="2" style="fill: steelblue;"></circle><circle cx="69.59437330563864" cy="186.7319477929009" r="2" style="fill: steelblue;"></circle><circle cx="44.796698623233375" cy="173.22464783986408" r="2" style="fill: steelblue;"></circle><circle cx="109.6923112248381" cy="133.01935129695468" r="2" style="fill: steelblue;"></circle><circle cx="76.99878679381477" cy="168.4504747390747" r="2" style="fill: steelblue;"></circle><circle cx="18.072538905673557" cy="108.75815235906177" r="2" style="fill: steelblue;"></circle><circle cx="59.98640590243869" cy="187.36720747417874" r="2" style="fill: steelblue;"></circle><circle cx="56.945814026726616" cy="185.3552328215705" r="2" style="fill: steelblue;"></circle><circle cx="127.75375445683797" cy="131.68361286322275" r="2" style="fill: steelblue;"></circle><circle cx="133.8353355725606" cy="97.16001980834537" r="2" style="fill: steelblue;"></circle><circle cx="95.07047798898485" cy="55.41325940026176" r="2" style="fill: steelblue;"></circle><circle cx="99.83774936861461" cy="72.72433903482225" r="2" style="fill: steelblue;"></circle><circle cx="157.97169340981375" cy="71.7564324537913" r="2" style="fill: steelblue;"></circle><circle cx="175.33655961354572" cy="109.8359323417147" r="2" style="fill: steelblue;"></circle><circle cx="134.15431645181442" cy="168.33925909466214" r="2" style="fill: steelblue;"></circle><circle cx="143.7655786673228" cy="63.17894326315985" r="2" style="fill: steelblue;"></circle><circle cx="165.70358475049335" cy="88.38724096616109" r="2" style="fill: steelblue;"></circle><circle cx="130.91348277197943" cy="101.41965415742662" r="2" style="fill: steelblue;"></circle><circle cx="166.99381007088553" cy="24.18049176534016" r="2" style="fill: steelblue;"></circle><circle cx="151.28863520092435" cy="34.93458032608032" r="2" style="fill: steelblue;"></circle><circle cx="163.54272100660538" cy="45.6834700372484" r="2" style="fill: steelblue;"></circle><circle cx="80.90473545922173" cy="128.20819682545132" r="2" style="fill: steelblue;"></circle><circle cx="68.68884960810342" cy="124.59969520568848" r="2" style="fill: steelblue;"></circle><circle cx="90.25743769274818" cy="108.4327803303798" r="2" style="fill: steelblue;"></circle><circle cx="103.703406949838" cy="101.39068878359265" r="2" style="fill: steelblue;"></circle><circle cx="139.01905881034003" cy="155.92513812912836" r="2" style="fill: steelblue;"></circle><circle cx="88.55799006091225" cy="160.8877182006836" r="2" style="fill: steelblue;"></circle><circle cx="143.3236499627431" cy="50.25749074088202" r="2" style="fill: steelblue;"></circle><circle cx="147.2998195224338" cy="142.09674133194818" r="2" style="fill: steelblue;"></circle><circle cx="166.4225591553582" cy="97.46752844916449" r="2" style="fill: steelblue;"></circle><circle cx="155.9659010834164" cy="18.678380383385562" r="2" style="fill: steelblue;"></circle><circle cx="185.54112646314834" cy="111.62587467374073" r="2" style="fill: steelblue;"></circle><circle cx="108.43329835269186" cy="94.69299183951483" r="2" style="fill: steelblue;"></circle><circle cx="195.4117284880744" cy="44.12002033657498" r="2" style="fill: steelblue;"></circle><circle cx="198.04275698131985" cy="32.57432911131117" r="2" style="fill: steelblue;"></circle><circle cx="115.90150867899258" cy="107.55318072107103" r="2" style="fill: steelblue;"></circle><circle cx="131.72496855258942" cy="152.97395322057938" r="2" style="fill: steelblue;"></circle><circle cx="159.9457495742374" cy="119.34215492672391" r="2" style="fill: steelblue;"></circle><circle cx="164.28583529260422" cy="59.779895676506875" r="2" style="fill: steelblue;"></circle><circle cx="97.93304569191402" cy="70.60313887066312" r="2" style="fill: steelblue;"></circle><circle cx="112.62795339441962" cy="44.35558451546564" r="2" style="fill: steelblue;"></circle><circle cx="144.1684067249298" cy="53.84543206956651" r="2" style="fill: steelblue;"></circle><circle cx="64.15002875857883" cy="55.70518308215671" r="2" style="fill: steelblue;"></circle><circle cx="66.94664557774863" cy="81.55242270893521" r="2" style="fill: steelblue;"></circle><circle cx="161.2042486667633" cy="106.63114281164275" r="2" style="fill: steelblue;"></circle><circle cx="94.55517927805582" cy="70.51023840904236" r="2" style="fill: steelblue;"></circle><circle cx="126.64359145694308" cy="107.37825557589531" r="2" style="fill: steelblue;"></circle><circle cx="164.77129525608487" cy="84.39837065007951" r="2" style="fill: steelblue;"></circle><circle cx="159.2626737223731" cy="89.0462961461809" r="2" style="fill: steelblue;"></circle><circle cx="182.71969424353705" cy="61.055309242672394" r="2" style="fill: steelblue;"></circle><circle cx="109.44606746650405" cy="121.75734258360333" r="2" style="fill: steelblue;"></circle><circle cx="94.050708744261" cy="159.98183025254144" r="2" style="fill: steelblue;"></circle><circle cx="75.30985938178169" cy="117.43898689746857" r="2" style="fill: steelblue;"></circle><circle cx="85.43363875812953" cy="87.77830998102824" r="2" style="fill: steelblue;"></circle><circle cx="64.42280610402426" cy="93.7491837475035" r="2" style="fill: steelblue;"></circle><circle cx="84.8927597204844" cy="160.92434856626724" r="2" style="fill: steelblue;"></circle></g></svg>