<svg xmlns="http://www.w3.org/2000/svg"><g transform="translate(40,20)"><circle cx="276.51744425296783" cy="136.55408173799512" r="3" style="fill: steelblue;"></circle><circle cx="329.87642526626587" cy="198.0944428825751" r="3" style="fill: steelblue;"></circle><circle cx="158.81517469882968" cy="42.64677762985223" r="3" style="fill: steelblue;"></circle><circle cx="237.49621599912646" cy="74.53782558441159" r="3" style="fill: steelblue;"></circle><circle cx="342.61322557926184" cy="57.13970661163326" r="3" style="fill: steelblue;"></circle><circle cx="335.6553786993027" cy="2.0858615636825064" r="3" style="fill: steelblue;"></circle><circle cx="354.68161940574646" cy="122.90917038917539" r="3" style="fill: steelblue;"></circle><circle cx="214.36275109648705" cy="47.29523956775662" r="3" style="fill: steelblue;"></circle><circle cx="313.7135097384453" cy="89.00396227836605" r="3" style="fill: steelblue;"></circle><circle cx="481.0862624645233" cy="17.307874560356098" r="3" style="fill: steelblue;"></circle><circle cx="450.7539653778076" cy="89.4174769520759" r="3" style="fill: steelblue;"></circle><circle cx="241.93361341953278" cy="100.7107317447662" r="3" style="fill: steelblue;"></circle><circle cx="253.8883162289858" cy="145.45962661504745" r="3" style="fill: steelblue;"></circle><circle cx="423.7625026702881" cy="113.40244561433792" r="3" style="fill: steelblue;"></circle><circle cx="206.34542271494865" cy="186.92352883517742" r="3" style="fill: steelblue;"></circle><circle cx="377.25538551807404" cy="203.4256854560226" r="3" style="fill: steelblue;"></circle><circle cx="404.8949861526489" cy="75.07849931716913" r="3" style="fill: steelblue;"></circle><circle cx="363.2796013355255" cy="175.1079361885786" r="3" style="fill: steelblue;"></circle><circle cx="423.9047312736511" cy="155.1459215581417" r="3" style="fill: steelblue;"></circle><circle cx="392.74134278297424" cy="4.372221231460532" r="3" style="fill: steelblue;"></circle><circle cx="313.9524677395821" cy="213.35854548960924" r="3" style="fill: steelblue;"></circle><circle cx="283.350313603878" cy="197.683733003214" r="3" style="fill: steelblue;"></circle><circle cx="436.4950740337372" cy="214.5034771412611" r="3" style="fill: steelblue;"></circle><circle cx="162.4640965461731" cy="99.67666566371913" r="3" style="fill: steelblue;"></circle><circle cx="222.82718360424042" cy="244.13898661732676" r="3" style="fill: steelblue;"></circle><circle cx="253.71510922908783" cy="280.3884193301201" r="3" style="fill: steelblue;"></circle><circle cx="273.75535011291504" cy="264.5393431186676" r="3" style="fill: steelblue;"></circle><circle cx="227.06401214003563" cy="14.153254032134955" r="3" style="fill: steelblue;"></circle><circle cx="355.15127420425415" cy="82.48985260725016" r="3" style="fill: steelblue;"></circle><circle cx="265.97797214984894" cy="253.65343019366264" r="3" style="fill: steelblue;"></circle><circle cx="288.45230877399445" cy="236.69713437557218" r="3" style="fill: steelblue;"></circle><circle cx="143.15345227718356" cy="186.2667340785265" r="3" style="fill: steelblue;"></circle><circle cx="250.1238515228033" cy="201.99320237152276" r="3" style="fill: steelblue;"></circle><circle cx="334.39895153045654" cy="275.205534696579" r="3" style="fill: steelblue;"></circle><circle cx="201.59885376691818" cy="178.99646684527397" r="3" style="fill: steelblue;"></circle><circle cx="222.10204057395458" cy="102.54839509725569" r="3" style="fill: steelblue;"></circle><circle cx="172.68016129732132" cy="297.8895127773285" r="3" style="fill: steelblue;"></circle><circle cx="346.079363822937" cy="309.87330228090286" r="3" style="fill: steelblue;"></circle><circle cx="249.6158266067505" cy="277.41953432559967" r="3" style="fill: steelblue;"></circle><circle cx="84.22085881233217" cy="291.2805125117302" r="3" style="fill: steelblue;"></circle><circle cx="214.17947798967361" cy="287.83983439207077" r="3" style="fill: steelblue;"></circle><circle cx="64.7851073741913" cy="207.84286856651306" r="3" style="fill: steelblue;"></circle><circle cx="240.5061189411208" cy="212.52969913184646" r="3" style="fill: steelblue;"></circle><circle cx="23.67501497268678" cy="222.2491640597582" r="3" style="fill: steelblue;"></circle><circle cx="61.50703668594362" cy="251.87920480966568" r="3" style="fill: steelblue;"></circle><circle cx="141.6626089811325" cy="265.69547206163406" r="3" style="fill: steelblue;"></circle><circle cx="118.76932919025423" cy="210.92036627233026" r="3" style="fill: steelblue;"></circle><circle cx="304.81064558029175" cy="266.61007553339005" r="3" style="fill: steelblue;"></circle><circle cx="93.89143824577333" cy="259.59169566631317" r="3" style="fill: steelblue;"></circle><circle cx="227.31791116297245" cy="268.60803067684174" r="3" style="fill: steelblue;"></circle><circle cx="255.12919440865517" cy="314.4648939371109" r="3" style="fill: steelblue;"></circle><circle cx="98.09044539928438" cy="164.77561816573143" r="3" style="fill: steelblue;"></circle><circle cx="245.56850228458646" cy="290.71819484233856" r="3" style="fill: steelblue;"></circle><circle cx="225.0029144436121" cy="246.2321229279041" r="3" style="fill: steelblue;"></circle><circle cx="112.68416583538057" cy="254.27292734384537" r="3" style="fill: steelblue;"></circle><circle cx="290.97359418869024" cy="263.9558508992195" r="3" style="fill: steelblue;"></circle><circle cx="130.57428538799286" cy="262.0352663099766" r="3" style="fill: steelblue;"></circle><circle cx="152.8427892923355" cy="279.5901417732239" r="3" style="fill: steelblue;"></circle><circle cx="121.04173243045808" cy="342.94135570526123" r="3" style="fill: steelblue;"></circle><circle cx="310.5566883087158" cy="288.8553336262703" r="3" style="fill: steelblue;"></circle><circle cx="400.1875841617584" cy="84.72190499305721" r="3" style="fill: steelblue;"></circle><circle cx="398.70357155799866" cy="42.8222835063934" r="3" style="fill: steelblue;"></circle><circle cx="323.1154704093933" cy="96.07720822095868" r="3" style="fill: steelblue;"></circle><circle cx="267.7845360338688" cy="157.61306583881378" r="3" style="fill: steelblue;"></circle><circle cx="339.2691904306412" cy="93.93767714500424" r="3" style="fill: steelblue;"></circle><circle cx="259.9170984327793" cy="122.24178463220595" r="3" style="fill: steelblue;"></circle><circle cx="229.4447386264801" cy="129.32596057653424" r="3" style="fill: steelblue;"></circle><circle cx="355.6119704246521" cy="253.1853623688221" r="3" style="fill: steelblue;"></circle><circle cx="133.9130812883377" cy="222.0568627119064" r="3" style="fill: steelblue;"></circle><circle cx="217.1585449576378" cy="168.92840787768364" r="3" style="fill: steelblue;"></circle><circle cx="357.32769906520844" cy="63.195970654487574" r="3" style="fill: steelblue;"></circle><circle cx="201.75182908773422" cy="181.79914988577363" r="3" style="fill: steelblue;"></circle><circle cx="102.82356083393097" cy="85.56845486164087" r="3" style="fill: steelblue;"></circle><circle cx="185.39983570575714" cy="309.8654121160507" r="3" style="fill: steelblue;"></circle><circle cx="236.34942999109626" cy="209.58358403295279" r="3" style="fill: steelblue;"></circle><circle cx="60.02990841865541" cy="186.12089361995456" r="3" style="fill: steelblue;"></circle><circle cx="201.3228589296341" cy="327.6120990514755" r="3" style="fill: steelblue;"></circle><circle cx="129.9245649576187" cy="349.46725964546204" r="3" style="fill: steelblue;"></circle><circle cx="133.79741549491885" cy="321.3524118065834" r="3" style="fill: steelblue;"></circle><circle cx="188.05593341588977" cy="308.6880713701248" r="3" style="fill: steelblue;"></circle><circle cx="74.37307476997377" cy="271.0557550191879" r="3" style="fill: steelblue;"></circle><circle cx="205.86215570569038" cy="282.4112296104431" r="3" style="fill: steelblue;"></circle><circle cx="69.73460555076599" cy="165.85967391729352" r="3" style="fill: steelblue;"></circle><circle cx="173.70105922222137" cy="193.1988068856299" r="3" style="fill: steelblue;"></circle><circle cx="226.42694167792797" cy="98.61915260553356" r="3" style="fill: steelblue;"></circle><circle cx="246.6730219870806" cy="153.0418328940868" r="3" style="fill: steelblue;"></circle><circle cx="360.1653331518174" cy="149.29857179522514" r="3" style="fill: steelblue;"></circle><circle cx="166.06599032878879" cy="269.80903446674347" r="3" style="fill: steelblue;"></circle><circle cx="225.39346978068352" cy="182.80497081577775" r="3" style="fill: steelblue;"></circle><circle cx="228.35581205785275" cy="107.22811967134476" r="3" style="fill: steelblue;"></circle><circle cx="420.5454969406128" cy="66.02282524108884" r="3" style="fill: steelblue;"></circle><circle cx="357.62319803237915" cy="267.8297281265259" r="3" style="fill: steelblue;"></circle><circle cx="423.31514596939087" cy="196.66108307428658" r="3" style="fill: steelblue;"></circle><circle cx="428.91146779060364" cy="180.77098466455934" r="3" style="fill: steelblue;"></circle><circle cx="69.91624474525453" cy="179.67818006873134" r="3" style="fill: steelblue;"></circle><circle cx="146.23545348644257" cy="173.51179085671902" r="3" style="fill: steelblue;"></circle><circle cx="89.42463040351869" cy="336.67812943458557" r="3" style="fill: steelblue;"></circle><circle cx="143.11018824577332" cy="195.63457118347287" r="3" style="fill: steelblue;"></circle><circle cx="43.3406674861908" cy="241.03483259677887" r="3" style="fill: steelblue;"></circle><circle cx="89.20107722282411" cy="279.63743060827255" r="3" style="fill: steelblue;"></circle><circle cx="194.66231256723404" cy="247.5422963500023" r="3" style="fill: steelblue;"></circle><circle cx="149.95616912841797" cy="266.1676600575447" r="3" style="fill: steelblue;"></circle><circle cx="184.3123072385788" cy="127.99307405948637" r="3" style="fill: steelblue;"></circle><circle cx="62.05873131752015" cy="346.35685086250305" r="3" style="fill: steelblue;"></circle><circle cx="378.63268196582794" cy="268.25272738933563" r="3" style="fill: steelblue;"></circle><circle cx="296.912961602211" cy="319.11164969205856" r="3" style="fill: steelblue;"></circle><circle cx="237.99204342998567" cy="151.87838003039357" r="3" style="fill: steelblue;"></circle><circle cx="305.010242164135" cy="39.58694338798519" r="3" style="fill: steelblue;"></circle><circle cx="299.37921702861786" cy="134.99369919300077" r="3" style="fill: steelblue;"></circle><circle cx="328.91983330249786" cy="81.18970394134516" r="3" style="fill: steelblue;"></circle><circle cx="438.29816222190857" cy="44.5568978786468" r="3" style="fill: steelblue;"></circle><circle cx="446.3426077365875" cy="157.35948532819745" r="3" style="fill: steelblue;"></circle><circle cx="469.04106974601746" cy="141.2377029657364" r="3" style="fill: steelblue;"></circle><circle cx="127.96179592609407" cy="157.92551711201668" r="3" style="fill: steelblue;"></circle><circle cx="80.15307426452637" cy="205.5250320583582" r="3" style="fill: steelblue;"></circle><circle cx="108.301722407341" cy="253.4876063466072" r="3" style="fill: steelblue;"></circle><circle cx="98.29438269138338" cy="115.46469926834104" r="3" style="fill: steelblue;"></circle><circle cx="166.65114998817444" cy="201.86251755803826" r="3" style="fill: steelblue;"></circle></g></svg>