<svg xmlns="http://www.w3.org/2000/svg"><g><circle cx="63.37380409240723" cy="150.55926367640495" r="2" style="fill: steelblue;"></circle><circle cx="101.97819355461333" cy="189.74582701921463" r="2" style="fill: steelblue;"></circle><circle cx="35.46861145231458" cy="119.84838023781776" r="2" style="fill: steelblue;"></circle><circle cx="77.17850473192003" cy="190.386800467968" r="2" style="fill: steelblue;"></circle><circle cx="130.58418035507202" cy="91.44833162426949" r="2" style="fill: steelblue;"></circle><circle cx="89.08347288767496" cy="87.16834001243114" r="2" style="fill: steelblue;"></circle><circle cx="70.54642505115932" cy="107.53079866990447" r="2" style="fill: steelblue;"></circle><circle cx="103.20724464125104" cy="88.43353521078825" r="2" style="fill: steelblue;"></circle><circle cx="106.26068380143907" cy="131.88197314739227" r="2" style="fill: steelblue;"></circle><circle cx="87.56491045157114" cy="169.88425552845" r="2" style="fill: steelblue;"></circle><circle cx="69.74557042121887" cy="62.61921897530556" r="2" style="fill: steelblue;"></circle><circle cx="138.4705321656333" cy="5.796945095062256" r="2" style="fill: steelblue;"></circle><circle cx="49.947427378760445" cy="149.10908639431" r="2" style="fill: steelblue;"></circle><circle cx="133.90282955434586" cy="50.05292817950249" r="2" style="fill: steelblue;"></circle><circle cx="82.5190544128418" cy="128.8969650864601" r="2" style="fill: steelblue;"></circle><circle cx="98.59930309984419" cy="106.49724807590246" r="2" style="fill: steelblue;"></circle><circle cx="78.87136936187744" cy="113.40391393750906" r="2" style="fill: steelblue;"></circle><circle cx="98.69218203756544" cy="181.20658993721008" r="2" style="fill: steelblue;"></circle><circle cx="127.27078133159213" cy="94.80910412967205" r="2" style="fill: steelblue;"></circle><circle cx="96.76194853252834" cy="61.817700415849686" r="2" style="fill: steelblue;"></circle><circle cx="139.01847932073807" cy="85.67312117666006" r="2" style="fill: steelblue;"></circle><circle cx="141.52125517527264" cy="37.98612803220749" r="2" style="fill: steelblue;"></circle><circle cx="165.41108820173477" cy="132.16257318854332" r="2" style="fill: steelblue;"></circle><circle cx="99.60866305563185" cy="76.25332325696945" r="2" style="fill: steelblue;"></circle><circle cx="71.82554735077751" cy="128.11694703996181" r="2" style="fill: steelblue;"></circle><circle cx="85.96608539422353" cy="174.85520094633102" r="2" style="fill: steelblue;"></circle><circle cx="47.24259508980645" cy="182.9845741391182" r="2" style="fill: steelblue;"></circle><circle cx="38.5905106862386" cy="100.61966344946995" r="2" style="fill: steelblue;"></circle><circle cx="36.837690406375465" cy="88.88835497200489" r="2" style="fill: steelblue;"></circle><circle cx="105.06970228420363" cy="199.8760685324669" r="2" style="fill: steelblue;"></circle><circle cx="161.4244282245636" cy="36.45084649324417" r="2" style="fill: steelblue;"></circle><circle cx="177.2859493891398" cy="116.56470634043217" r="2" style="fill: steelblue;"></circle><circle cx="179.6326968404982" cy="75.42893327772617" r="2" style="fill: steelblue;"></circle><circle cx="150.5309608247545" cy="28.51272225379944" r="2" style="fill: steelblue;"></circle><circle cx="113.31657237476773" cy="129.6773985028267" r="2" style="fill: steelblue;"></circle><circle cx="138.87787196371292" cy="55.842483788728714" r="2" style="fill: steelblue;"></circle><circle cx="68.15044747458565" cy="130.2347056567669" r="2" style="fill: steelblue;"></circle><circle cx="92.0835236708323" cy="158.51049348711967" r="2" style="fill: steelblue;"></circle><circle cx="113.27192414965894" cy="108.69902689009905" r="2" style="fill: steelblue;"></circle><circle cx="57.714925871955025" cy="89.56817481666803" r="2" style="fill: steelblue;"></circle><circle cx="82.19214611583286" cy="118.37942376732826" r="2" style="fill: steelblue;"></circle><circle cx="86.24335130055745" cy="10.964258015155792" r="2" style="fill: steelblue;"></circle><circle cx="198.38217231962417" cy="69.18060444295406" r="2" style="fill: steelblue;"></circle><circle cx="111.60982477789123" cy="123.85162189602852" r="2" style="fill: steelblue;"></circle><circle cx="93.97311177518633" cy="44.84138861298561" r="2" style="fill: steelblue;"></circle><circle cx="164.55740067693924" cy="109.49870608747005" r="2" style="fill: steelblue;"></circle><circle cx="114.68672752380371" cy="101.1458876542747" r="2" style="fill: steelblue;"></circle><circle cx="144.41310034857855" cy="111.10097113996744" r="2" style="fill: steelblue;"></circle><circle cx="88.22028670046065" cy="117.28502847254276" r="2" style="fill: steelblue;"></circle><circle cx="146.58500750859577" cy="89.73971512168646" r="2" style="fill: steelblue;"></circle><circle cx="98.51133409473631" cy="95.18433259800076" r="2" style="fill: steelblue;"></circle><circle cx="121.55955284833908" cy="172.4933072924614" r="2" style="fill: steelblue;"></circle><circle cx="159.54539510938858" cy="110.83032134920359" r="2" style="fill: steelblue;"></circle><circle cx="141.43763317002188" cy="106.39878492802382" r="2" style="fill: steelblue;"></circle><circle cx="96.21118340227339" cy="148.97627606987953" r="2" style="fill: steelblue;"></circle><circle cx="42.80696312586466" cy="121.8740813434124" r="2" style="fill: steelblue;"></circle><circle cx="103.48529203070534" cy="168.29936802387238" r="2" style="fill: steelblue;"></circle><circle cx="95.44894264803993" cy="121.50632813572884" r="2" style="fill: steelblue;"></circle><circle cx="86.0323343012068" cy="198.59977662563324" r="2" style="fill: steelblue;"></circle><circle cx="107.60935271779697" cy="166.6128769516945" r="2" style="fill: steelblue;"></circle><circle cx="85.8132673634423" cy="152.96799167990685" r="2" style="fill: steelblue;"></circle><circle cx="64.81679280598959" cy="103.4113007131964" r="2" style="fill: steelblue;"></circle><circle cx="90.54885142379337" cy="139.8879311978817" r="2" style="fill: steelblue;"></circle><circle cx="69.59437330563864" cy="127.78254449367523" r="2" style="fill: steelblue;"></circle><circle cx="44.796698623233375" cy="110.61720959842205" r="2" style="fill: steelblue;"></circle><circle cx="109.6923112248381" cy="139.4754558801651" r="2" style="fill: steelblue;"></circle><circle cx="76.99878679381477" cy="156.65745958685875" r="2" style="fill: steelblue;"></circle><circle cx="18.072538905673557" cy="172.34547287225723" r="2" style="fill: steelblue;"></circle><circle cx="59.98640590243869" cy="119.81434971094131" r="2" style="fill: steelblue;"></circle><circle cx="56.945814026726616" cy="150.327867269516" r="2" style="fill: steelblue;"></circle><circle cx="127.75375445683797" cy="161.50270625948906" r="2" style="fill: steelblue;"></circle><circle cx="133.8353355725606" cy="40.83165377378464" r="2" style="fill: steelblue;"></circle><circle cx="95.07047798898485" cy="20.77627032995224" r="2" style="fill: steelblue;"></circle><circle cx="99.83774936861461" cy="71.65587916970253" r="2" style="fill: steelblue;"></circle><circle cx="157.97169340981375" cy="70.09625472128391" r="2" style="fill: steelblue;"></circle><circle cx="175.33655961354572" cy="41.44290313124657" r="2" style="fill: steelblue;"></circle><circle cx="134.15431645181442" cy="73.05196337401867" r="2" style="fill: steelblue;"></circle><circle cx="143.7655786673228" cy="24.293309450149536" r="2" style="fill: steelblue;"></circle><circle cx="165.70358475049335" cy="49.75486770272255" r="2" style="fill: steelblue;"></circle><circle cx="130.91348277197943" cy="24.998141825199127" r="2" style="fill: steelblue;"></circle><circle cx="166.99381007088553" cy="139.30839523673058" r="2" style="fill: steelblue;"></circle><circle cx="151.28863520092435" cy="44.20280307531357" r="2" style="fill: steelblue;"></circle><circle cx="163.54272100660538" cy="60.874494165182114" r="2" style="fill: steelblue;"></circle><circle cx="80.90473545922173" cy="93.21697978302836" r="2" style="fill: steelblue;"></circle><circle cx="68.68884960810342" cy="111.75695564597845" r="2" style="fill: steelblue;"></circle><circle cx="90.25743769274818" cy="135.13434529304504" r="2" style="fill: steelblue;"></circle><circle cx="103.703406949838" cy="121.14692702889442" r="2" style="fill: steelblue;"></circle><circle cx="139.01905881034003" cy="92.16283764690161" r="2" style="fill: steelblue;"></circle><circle cx="88.55799006091225" cy="81.0892678797245" r="2" style="fill: steelblue;"></circle><circle cx="143.3236499627431" cy="66.83409810066223" r="2" style="fill: steelblue;"></circle><circle cx="147.2998195224338" cy="39.38932940363884" r="2" style="fill: steelblue;"></circle><circle cx="166.4225591553582" cy="24.515031278133392" r="2" style="fill: steelblue;"></circle><circle cx="155.9659010834164" cy="55.64253255724907" r="2" style="fill: steelblue;"></circle><circle cx="185.54112646314834" cy="54.224806278944016" r="2" style="fill: steelblue;"></circle><circle cx="108.43329835269186" cy="74.03586097061634" r="2" style="fill: steelblue;"></circle><circle cx="195.4117284880744" cy="52.93315127491951" r="2" style="fill: steelblue;"></circle><circle cx="198.04275698131985" cy="12.81149536371231" r="2" style="fill: steelblue;"></circle><circle cx="115.90150867899258" cy="142.8214631974697" r="2" style="fill: steelblue;"></circle><circle cx="131.72496855258942" cy="120.0918223708868" r="2" style="fill: steelblue;"></circle><circle cx="159.9457495742374" cy="83.03046822547913" r="2" style="fill: steelblue;"></circle><circle cx="164.28583529260422" cy="82.57249966263771" r="2" style="fill: steelblue;"></circle><circle cx="97.93304569191402" cy="74.55530986189842" r="2" style="fill: steelblue;"></circle><circle cx="112.62795339441962" cy="87.55958024412394" r="2" style="fill: steelblue;"></circle><circle cx="144.1684067249298" cy="97.12955020368099" r="2" style="fill: steelblue;"></circle><circle cx="64.15002875857883" cy="41.07047840952873" r="2" style="fill: steelblue;"></circle><circle cx="66.94664557774863" cy="35.89547276496887" r="2" style="fill: steelblue;"></circle><circle cx="161.2042486667633" cy="64.77672085165977" r="2" style="fill: steelblue;"></circle><circle cx="94.55517927805582" cy="29.326653480529785" r="2" style="fill: steelblue;"></circle><circle cx="126.64359145694308" cy="118.29788275063038" r="2" style="fill: steelblue;"></circle><circle cx="164.77129525608487" cy="59.922775626182556" r="2" style="fill: steelblue;"></circle><circle cx="159.2626737223731" cy="65.10112285614014" r="2" style="fill: steelblue;"></circle><circle cx="182.71969424353705" cy="103.31758637912571" r="2" style="fill: steelblue;"></circle><circle cx="109.44606746650405" cy="164.0370100736618" r="2" style="fill: steelblue;"></circle><circle cx="94.050708744261" cy="175.6722018122673" r="2" style="fill: steelblue;"></circle><circle cx="75.30985938178169" cy="164.45839256048203" r="2" style="fill: steelblue;"></circle><circle cx="85.43363875812953" cy="162.41824105381966" r="2" style="fill: steelblue;"></circle><circle cx="64.42280610402426" cy="140.40320590138435" r="2" style="fill: steelblue;"></circle><circle cx="84.8927597204844" cy="98.02506202831864" r="2" style="fill: steelblue;"></circle></g></svg>