<svg xmlns="http://www.w3.org/2000/svg"><rect width="200" height="200" fill="white"></rect><g><circle cx="25.012595951557167" cy="78.38045176532533" r="2" style="fill: steelblue;"></circle><circle cx="108.42343829572201" cy="112.9991696940528" r="2" style="fill: steelblue;"></circle><circle cx="98.50210826843977" cy="110.11434131198459" r="2" style="fill: steelblue;"></circle><circle cx="6.651772558689123" cy="121.03211747275458" r="2" style="fill: steelblue;"></circle><circle cx="4.6742245554924065" cy="165.14344877666898" r="2" style="fill: steelblue;"></circle><circle cx="6.269006431102758" cy="111.48661739296384" r="2" style="fill: steelblue;"></circle><circle cx="60.74187755584717" cy="65.7130863931444" r="2" style="fill: steelblue;"></circle><circle cx="80.18709942698479" cy="129.2230440510644" r="2" style="fill: steelblue;"></circle><circle cx="83.45174081623554" cy="112.90226413144006" r="2" style="fill: steelblue;"></circle><circle cx="83.87926816940308" cy="29.658594396379257" r="2" style="fill: steelblue;"></circle><circle cx="88.61848842352629" cy="97.4172928267055" r="2" style="fill: steelblue;"></circle><circle cx="78.69432345032692" cy="72.65088823106554" r="2" style="fill: steelblue;"></circle><circle cx="67.08064153790474" cy="125.67412058512369" r="2" style="fill: steelblue;"></circle><circle cx="93.5410562902689" cy="117.53425200780234" r="2" style="fill: steelblue;"></circle><circle cx="60.59328317642212" cy="113.21795847680833" r="2" style="fill: steelblue;"></circle><circle cx="90.20470678806305" cy="178.85253694322373" r="2" style="fill: steelblue;"></circle><circle cx="106.79453834891319" cy="70.71628537442949" r="2" style="fill: steelblue;"></circle><circle cx="66.70396625995636" cy="53.90257504251268" r="2" style="fill: steelblue;"></circle><circle cx="45.10668516159058" cy="72.63263596428766" r="2" style="fill: steelblue;"></circle><circle cx="94.97425695881248" cy="59.11862386597528" r="2" style="fill: steelblue;"></circle><circle cx="62.5227190554142" cy="17.04763571421306" r="2" style="fill: steelblue;"></circle><circle cx="144.08251866698265" cy="57.99573527442086" r="2" style="fill: steelblue;"></circle><circle cx="72.34299778938293" cy="158.99660057491727" r="2" style="fill: steelblue;"></circle><circle cx="48.686681687831886" cy="126.83987153900995" r="2" style="fill: steelblue;"></circle><circle cx="50.7937915623188" cy="153.940663072798" r="2" style="fill: steelblue;"></circle><circle cx="130.4622296243906" cy="81.37668619553249" r="2" style="fill: steelblue;"></circle><circle cx="58.72705429792404" cy="126.28320389323764" r="2" style="fill: steelblue;"></circle><circle cx="78.47501374781132" cy="103.82696522606744" r="2" style="fill: steelblue;"></circle><circle cx="138.22074830532074" cy="104.44627900918326" r="2" style="fill: steelblue;"></circle><circle cx="144.70576718449593" cy="49.374049239688446" r="2" style="fill: steelblue;"></circle><circle cx="116.20440743863583" cy="85.96150817142593" r="2" style="fill: steelblue;"></circle><circle cx="159.8992481827736" cy="115.69502651691437" r="2" style="fill: steelblue;"></circle><circle cx="113.86734005063772" cy="40.17172786924574" r="2" style="fill: steelblue;"></circle><circle cx="102.44455528445542" cy="43.78344813982646" r="2" style="fill: steelblue;"></circle><circle cx="92.97796422615647" cy="84.54429225789177" r="2" style="fill: steelblue;"></circle><circle cx="95.60536025092006" cy="97.17861513296764" r="2" style="fill: steelblue;"></circle><circle cx="91.18260852992535" cy="154.0780848926968" r="2" style="fill: steelblue;"></circle><circle cx="55.10499179363251" cy="128.1619025601281" r="2" style="fill: steelblue;"></circle><circle cx="26.31975561380387" cy="147.4075370364719" r="2" style="fill: steelblue;"></circle><circle cx="31.87223374843598" cy="145.20033068127103" r="2" style="fill: steelblue;"></circle><circle cx="56.768009811639786" cy="114.87878892156813" r="2" style="fill: steelblue;"></circle><circle cx="183.32323282957077" cy="53.536360793643524" r="2" style="fill: steelblue;"></circle><circle cx="74.65416043996811" cy="93.44984665513039" r="2" style="fill: steelblue;"></circle><circle cx="89.41981513053179" cy="44.721247752507544" r="2" style="fill: steelblue;"></circle><circle cx="120.10545320808887" cy="70.26654018296136" r="2" style="fill: steelblue;"></circle><circle cx="132.41559863090515" cy="32.81799157460532" r="2" style="fill: steelblue;"></circle><circle cx="146.160951256752" cy="34.694236516952515" r="2" style="fill: steelblue;"></circle><circle cx="47.11743667721749" cy="132.82183673646713" r="2" style="fill: steelblue;"></circle><circle cx="143.3029681444168" cy="148.1592377026876" r="2" style="fill: steelblue;"></circle><circle cx="147.77255281805992" cy="87.18769668291013" r="2" style="fill: steelblue;"></circle><circle cx="119.69005726277828" cy="177.77130868699814" r="2" style="fill: steelblue;"></circle><circle cx="82.81716927886009" cy="124.61104525460138" r="2" style="fill: steelblue;"></circle><circle cx="71.28831408917904" cy="89.4586496365567" r="2" style="fill: steelblue;"></circle><circle cx="135.98755970597267" cy="108.57716235849593" r="2" style="fill: steelblue;"></circle><circle cx="39.06699493527413" cy="88.65008986451559" r="2" style="fill: steelblue;"></circle><circle cx="46.23214378952981" cy="118.88645622465346" r="2" style="fill: steelblue;"></circle><circle cx="158.17869678139687" cy="70.08375757270389" r="2" style="fill: steelblue;"></circle><circle cx="101.01524218916893" cy="111.65758007102542" r="2" style="fill: steelblue;"></circle><circle cx="75.87820887565613" cy="94.06754614578354" r="2" style="fill: steelblue;"></circle><circle cx="115.31618181616068" cy="130.83397878540887" r="2" style="fill: steelblue;"></circle><circle cx="92.88907693699002" cy="115.97786049048106" r="2" style="fill: steelblue;"></circle><circle cx="56.68616145849228" cy="150.28278562757706" r="2" style="fill: steelblue;"></circle><circle cx="87.42732591927052" cy="177.81278027428522" r="2" style="fill: steelblue;"></circle><circle cx="31.201227009296424" cy="77.72264911068811" r="2" style="fill: steelblue;"></circle><circle cx="105.4161068983376" cy="123.37834503915575" r="2" style="fill: steelblue;"></circle><circle cx="37.50235810875893" cy="129.16907535658942" r="2" style="fill: steelblue;"></circle><circle cx="37.69376352429391" cy="121.44759496053061" r="2" style="fill: steelblue;"></circle><circle cx="42.142743617296226" cy="120.652836561203" r="2" style="fill: steelblue;"></circle><circle cx="95.1847936026752" cy="108.59011809031169" r="2" style="fill: steelblue;"></circle><circle cx="45.20027190446854" cy="141.64693024423386" r="2" style="fill: steelblue;"></circle><circle cx="50.340643525123596" cy="137.19459904564752" r="2" style="fill: steelblue;"></circle><circle cx="134.7658358514309" cy="88.84519206476398" r="2" style="fill: steelblue;"></circle><circle cx="146.87412083148956" cy="37.823549906412765" r="2" style="fill: steelblue;"></circle><circle cx="67.57311746478081" cy="43.551499976052185" r="2" style="fill: steelblue;"></circle><circle cx="106.28981878980994" cy="74.62653054131403" r="2" style="fill: steelblue;"></circle><circle cx="94.46831829845905" cy="46.50874137878418" r="2" style="fill: steelblue;"></circle><circle cx="131.23280219733715" cy="94.30186152458191" r="2" style="fill: steelblue;"></circle><circle cx="70.16076184809208" cy="82.37567080391779" r="2" style="fill: steelblue;"></circle><circle cx="138.59204053878784" cy="32.01136853959825" r="2" style="fill: steelblue;"></circle><circle cx="143.05439442396164" cy="38.32767605781555" r="2" style="fill: steelblue;"></circle><circle cx="105.26500446721911" cy="93.43407129247983" r="2" style="fill: steelblue;"></circle><circle cx="178.56489717960358" cy="70.6030266152488" r="2" style="fill: steelblue;"></circle><circle cx="104.30289283394814" cy="67.60558022393121" r="2" style="fill: steelblue;"></circle><circle cx="106.78781187161803" cy="88.33507859251566" r="2" style="fill: steelblue;"></circle><circle cx="84.76056940853596" cy="133.20742580625748" r="2" style="fill: steelblue;"></circle><circle cx="84.96582359075546" cy="127.65720354186163" r="2" style="fill: steelblue;"></circle><circle cx="91.07518792152405" cy="103.09217075506847" r="2" style="fill: steelblue;"></circle><circle cx="81.92010633647442" cy="94.03038182192378" r="2" style="fill: steelblue;"></circle><circle cx="97.1900584641844" cy="113.87903028064304" r="2" style="fill: steelblue;"></circle><circle cx="104.15470264852047" cy="43.98566020859613" r="2" style="fill: steelblue;"></circle><circle cx="166.68204069137573" cy="22.363356749216724" r="2" style="fill: steelblue;"></circle><circle cx="118.98211054503918" cy="98.05406249231763" r="2" style="fill: steelblue;"></circle><circle cx="120.16099914908409" cy="38.22581834263272" r="2" style="fill: steelblue;"></circle><circle cx="134.42218154668808" cy="88.2263811926047" r="2" style="fill: steelblue;"></circle><circle cx="95.34445768222213" cy="57.829097244474625" r="2" style="fill: steelblue;"></circle><circle cx="168.21834295988083" cy="31.137981679704453" r="2" style="fill: steelblue;"></circle><circle cx="159.01585146784782" cy="42.40566359625924" r="2" style="fill: steelblue;"></circle><circle cx="159.5426708459854" cy="44.66708368725247" r="2" style="fill: steelblue;"></circle><circle cx="108.23293626308441" cy="53.79333297411601" r="2" style="fill: steelblue;"></circle><circle cx="100.78927050344646" cy="66.67513681782617" r="2" style="fill: steelblue;"></circle><circle cx="147.269307076931" cy="75.94700687461429" r="2" style="fill: steelblue;"></circle><circle cx="124.07658658921719" cy="59.27239391538832" r="2" style="fill: steelblue;"></circle><circle cx="143.106060475111" cy="72.49189780818092" r="2" style="fill: steelblue;"></circle><circle cx="128.91557849943638" cy="73.5089037153456" r="2" style="fill: steelblue;"></circle><circle cx="140.6883805990219" cy="13.993520206875276" r="2" style="fill: steelblue;"></circle><circle cx="73.43834117054939" cy="55.483644538455536" r="2" style="fill: steelblue;"></circle><circle cx="124.560971185565" cy="48.14167022705078" r="2" style="fill: steelblue;"></circle><circle cx="141.6056178510189" cy="74.37753544913399" r="2" style="fill: steelblue;"></circle><circle cx="173.40165972709656" cy="78.99540447526508" r="2" style="fill: steelblue;"></circle><circle cx="99.86593617359176" cy="64.34114310476515" r="2" style="fill: steelblue;"></circle><circle cx="184.6283808350563" cy="48.50343068440757" r="2" style="fill: steelblue;"></circle><circle cx="82.71850310266018" cy="55.02249664730496" r="2" style="fill: steelblue;"></circle><circle cx="29.697386920452125" cy="130.87276816368103" r="2" style="fill: steelblue;"></circle><circle cx="47.500955313444145" cy="103.01176740063562" r="2" style="fill: steelblue;"></circle><circle cx="78.01111452281475" cy="152.74878210491605" r="2" style="fill: steelblue;"></circle><circle cx="43.98716092109681" cy="163.86657820807562" r="2" style="fill: steelblue;"></circle><circle cx="36.34914606809617" cy="138.8009144200219" r="2" style="fill: steelblue;"></circle><circle cx="33.481663465499885" cy="53.67616017659505" r="2" style="fill: steelblue;"></circle></g></svg>