<svg xmlns="http://www.w3.org/2000/svg"><g><circle cx="22.419559955596927" cy="75.27963183820248" r="2" style="fill: steelblue;"></circle><circle cx="16.911356896162037" cy="94.87291350960732" r="2" style="fill: steelblue;"></circle><circle cx="53.99223389104009" cy="59.92419011890888" r="2" style="fill: steelblue;"></circle><circle cx="29.31068204343319" cy="95.193400233984" r="2" style="fill: steelblue;"></circle><circle cx="15.54191038012505" cy="45.72416581213474" r="2" style="fill: steelblue;"></circle><circle cx="45.41853228583932" cy="43.58417000621557" r="2" style="fill: steelblue;"></circle><circle cx="30.506420135498047" cy="53.765399334952235" r="2" style="fill: steelblue;"></circle><circle cx="5.0533480942249325" cy="44.216767605394125" r="2" style="fill: steelblue;"></circle><circle cx="29.069435968995094" cy="65.94098657369614" r="2" style="fill: steelblue;"></circle><circle cx="25.55752284824848" cy="84.942127764225" r="2" style="fill: steelblue;"></circle><circle cx="34.623183496296406" cy="31.30960948765278" r="2" style="fill: steelblue;"></circle><circle cx="61.58340647816658" cy="2.898472547531128" r="2" style="fill: steelblue;"></circle><circle cx="34.87969394773245" cy="74.554543197155" r="2" style="fill: steelblue;"></circle><circle cx="54.833643324673176" cy="25.026464089751244" r="2" style="fill: steelblue;"></circle><circle cx="18.81782449781895" cy="64.44848254323006" r="2" style="fill: steelblue;"></circle><circle cx="30.107204988598824" cy="53.24862403795123" r="2" style="fill: steelblue;"></circle><circle cx="63.62768281251192" cy="56.70195696875453" r="2" style="fill: steelblue;"></circle><circle cx="38.46178688108921" cy="90.60329496860504" r="2" style="fill: steelblue;"></circle><circle cx="41.35947972536087" cy="47.404552064836025" r="2" style="fill: steelblue;"></circle><circle cx="79.64040264487267" cy="30.908850207924843" r="2" style="fill: steelblue;"></circle><circle cx="67.20892079174519" cy="42.83656058833003" r="2" style="fill: steelblue;"></circle><circle cx="41.08402710407972" cy="18.993064016103745" r="2" style="fill: steelblue;"></circle><circle cx="27.586274966597557" cy="66.08128659427166" r="2" style="fill: steelblue;"></circle><circle cx="28.357577696442604" cy="38.126661628484726" r="2" style="fill: steelblue;"></circle><circle cx="21.12653218209744" cy="64.05847351998091" r="2" style="fill: steelblue;"></circle><circle cx="8.11446383595467" cy="87.42760047316551" r="2" style="fill: steelblue;"></circle><circle cx="27.51440294086933" cy="91.4922870695591" r="2" style="fill: steelblue;"></circle><circle cx="52.786809112876654" cy="50.30983172473498" r="2" style="fill: steelblue;"></circle><circle cx="10.251569747924808" cy="44.444177486002445" r="2" style="fill: steelblue;"></circle><circle cx="47.56471021100879" cy="99.93803426623344" r="2" style="fill: steelblue;"></circle><circle cx="76.69778652489185" cy="18.225423246622086" r="2" style="fill: steelblue;"></circle><circle cx="88.99319842457771" cy="58.28235317021608" r="2" style="fill: steelblue;"></circle><circle cx="68.52369122207165" cy="37.71446663886309" r="2" style="fill: steelblue;"></circle><circle cx="69.55843716859818" cy="14.25636112689972" r="2" style="fill: steelblue;"></circle><circle cx="65.36552608013153" cy="64.83869925141335" r="2" style="fill: steelblue;"></circle><circle cx="75.06574802100658" cy="27.921241894364357" r="2" style="fill: steelblue;"></circle><circle cx="67.00508035719395" cy="65.11735282838345" r="2" style="fill: steelblue;"></circle><circle cx="43.31946577876806" cy="79.25524674355984" r="2" style="fill: steelblue;"></circle><circle cx="19.39177624881268" cy="54.349513445049524" r="2" style="fill: steelblue;"></circle><circle cx="19.118800014257435" cy="44.78408740833402" r="2" style="fill: steelblue;"></circle><circle cx="50.25767501210794" cy="59.18971188366413" r="2" style="fill: steelblue;"></circle><circle cx="32.90135897696018" cy="5.482129007577896" r="2" style="fill: steelblue;"></circle><circle cx="92.44597256183624" cy="34.59030222147703" r="2" style="fill: steelblue;"></circle><circle cx="61.86859142035246" cy="61.92581094801426" r="2" style="fill: steelblue;"></circle><circle cx="71.49147726595402" cy="22.420694306492805" r="2" style="fill: steelblue;"></circle><circle cx="43.02837997674942" cy="54.74935304373503" r="2" style="fill: steelblue;"></circle><circle cx="52.851443365216255" cy="50.57294382713735" r="2" style="fill: steelblue;"></circle><circle cx="82.68235921859741" cy="55.55048556998372" r="2" style="fill: steelblue;"></circle><circle cx="27.42554359138012" cy="58.64251423627138" r="2" style="fill: steelblue;"></circle><circle cx="30.953585356473923" cy="44.86985756084323" r="2" style="fill: steelblue;"></circle><circle cx="55.24752587080002" cy="47.59216629900038" r="2" style="fill: steelblue;"></circle><circle cx="57.03898537904024" cy="86.2466536462307" r="2" style="fill: steelblue;"></circle><circle cx="67.15612038969994" cy="55.41516067460179" r="2" style="fill: steelblue;"></circle><circle cx="76.93707123398781" cy="53.19939246401191" r="2" style="fill: steelblue;"></circle><circle cx="37.07024473696947" cy="74.48813803493977" r="2" style="fill: steelblue;"></circle><circle cx="7.602575421333316" cy="60.9370406717062" r="2" style="fill: steelblue;"></circle><circle cx="10.146017372608188" cy="84.14968401193619" r="2" style="fill: steelblue;"></circle><circle cx="56.37445319443941" cy="60.75316406786442" r="2" style="fill: steelblue;"></circle><circle cx="31.592359021306038" cy="99.29988831281662" r="2" style="fill: steelblue;"></circle><circle cx="40.51580112427473" cy="83.30643847584724" r="2" style="fill: steelblue;"></circle><circle cx="45.68274710327387" cy="76.48399583995342" r="2" style="fill: steelblue;"></circle><circle cx="83.19317102432251" cy="51.7056503565982" r="2" style="fill: steelblue;"></circle><circle cx="9.792941808700565" cy="69.94396559894085" r="2" style="fill: steelblue;"></circle><circle cx="22.451226785779003" cy="63.891272246837616" r="2" style="fill: steelblue;"></circle><circle cx="53.788757836446166" cy="55.308604799211025" r="2" style="fill: steelblue;"></circle><circle cx="64.07914701849222" cy="69.73772794008255" r="2" style="fill: steelblue;"></circle><circle cx="46.53474404476583" cy="78.32872979342937" r="2" style="fill: steelblue;"></circle><circle cx="14.20182287693024" cy="86.17273643612862" r="2" style="fill: steelblue;"></circle><circle cx="8.817448467016224" cy="59.90717485547066" r="2" style="fill: steelblue;"></circle><circle cx="47.19929997809231" cy="75.163933634758" r="2" style="fill: steelblue;"></circle><circle cx="22.100565209984783" cy="80.75135312974453" r="2" style="fill: steelblue;"></circle><circle cx="78.57469767332077" cy="20.41582688689232" r="2" style="fill: steelblue;"></circle><circle cx="60.74833609163761" cy="10.38813516497612" r="2" style="fill: steelblue;"></circle><circle cx="75.58978646993637" cy="35.827939584851265" r="2" style="fill: steelblue;"></circle><circle cx="67.27763377130032" cy="35.048127360641956" r="2" style="fill: steelblue;"></circle><circle cx="49.585462297545746" cy="20.721451565623283" r="2" style="fill: steelblue;"></circle><circle cx="75.57698078453541" cy="36.525981687009335" r="2" style="fill: steelblue;"></circle><circle cx="70.56855149567127" cy="12.146654725074768" r="2" style="fill: steelblue;"></circle><circle cx="55.29261212795973" cy="24.877433851361275" r="2" style="fill: steelblue;"></circle><circle cx="49.33120928471908" cy="12.499070912599564" r="2" style="fill: steelblue;"></circle><circle cx="47.0347648486495" cy="69.65419761836529" r="2" style="fill: steelblue;"></circle><circle cx="81.74613043665886" cy="22.101401537656784" r="2" style="fill: steelblue;"></circle><circle cx="69.4674227386713" cy="30.437247082591057" r="2" style="fill: steelblue;"></circle><circle cx="23.844174295663837" cy="46.60848989151418" r="2" style="fill: steelblue;"></circle><circle cx="13.589746505022053" cy="55.878477822989225" r="2" style="fill: steelblue;"></circle><circle cx="34.324412420392036" cy="67.56717264652252" r="2" style="fill: steelblue;"></circle><circle cx="34.78159308433533" cy="60.57346351444721" r="2" style="fill: steelblue;"></circle><circle cx="67.71005801856518" cy="46.081418823450804" r="2" style="fill: steelblue;"></circle><circle cx="33.441488817334175" cy="40.54463393986225" r="2" style="fill: steelblue;"></circle><circle cx="63.98883014917374" cy="33.417049050331116" r="2" style="fill: steelblue;"></circle><circle cx="69.93410848081112" cy="19.69466470181942" r="2" style="fill: steelblue;"></circle><circle cx="67.5710916519165" cy="12.257515639066696" r="2" style="fill: steelblue;"></circle><circle cx="66.0768423229456" cy="27.821266278624535" r="2" style="fill: steelblue;"></circle><circle cx="80.34951724112034" cy="27.112403139472008" r="2" style="fill: steelblue;"></circle><circle cx="72.98163808882236" cy="37.01793048530817" r="2" style="fill: steelblue;"></circle><circle cx="89.43033888936043" cy="26.466575637459755" r="2" style="fill: steelblue;"></circle><circle cx="85.20035371184349" cy="6.405747681856155" r="2" style="fill: steelblue;"></circle><circle cx="73.04414287209511" cy="71.41073159873486" r="2" style="fill: steelblue;"></circle><circle cx="57.101322524249554" cy="60.0459111854434" r="2" style="fill: steelblue;"></circle><circle cx="67.42861047387123" cy="41.51523411273956" r="2" style="fill: steelblue;"></circle><circle cx="90.89723527431488" cy="41.286249831318855" r="2" style="fill: steelblue;"></circle><circle cx="58.92631430178881" cy="37.27765493094921" r="2" style="fill: steelblue;"></circle><circle cx="74.41776730120182" cy="43.77979012206197" r="2" style="fill: steelblue;"></circle><circle cx="43.528444319963455" cy="48.564775101840496" r="2" style="fill: steelblue;"></circle><circle cx="44.566853158175945" cy="20.535239204764366" r="2" style="fill: steelblue;"></circle><circle cx="58.239259012043476" cy="17.947736382484436" r="2" style="fill: steelblue;"></circle><circle cx="55.775755271315575" cy="32.38836042582989" r="2" style="fill: steelblue;"></circle><circle cx="42.55911819636822" cy="14.663326740264893" r="2" style="fill: steelblue;"></circle><circle cx="60.777479968965054" cy="59.14894137531519" r="2" style="fill: steelblue;"></circle><circle cx="59.54417325556278" cy="29.961387813091278" r="2" style="fill: steelblue;"></circle><circle cx="81.16823919117451" cy="32.55056142807007" r="2" style="fill: steelblue;"></circle><circle cx="68.16284470260143" cy="51.65879318956286" r="2" style="fill: steelblue;"></circle><circle cx="46.49000237695873" cy="82.0185050368309" r="2" style="fill: steelblue;"></circle><circle cx="18.997135758399967" cy="87.83610090613365" r="2" style="fill: steelblue;"></circle><circle cx="9.863197058439258" cy="82.22919628024101" r="2" style="fill: steelblue;"></circle><circle cx="60.315450839698315" cy="81.20912052690983" r="2" style="fill: steelblue;"></circle><circle cx="17.775981873273853" cy="70.20160295069218" r="2" style="fill: steelblue;"></circle><circle cx="54.77242702618241" cy="49.01253101415932" r="2" style="fill: steelblue;"></circle></g></svg>