<svg xmlns="http://www.w3.org/2000/svg"><g><circle cx="25.012595951557167" cy="189.64693281385635" r="2" style="fill: steelblue;"></circle><circle cx="108.42343829572201" cy="150.21019842889572" r="2" style="fill: steelblue;"></circle><circle cx="98.50210826843977" cy="182.26556645499335" r="2" style="fill: steelblue;"></circle><circle cx="6.651772558689123" cy="159.15728939904108" r="2" style="fill: steelblue;"></circle><circle cx="4.6742245554924065" cy="154.5184420214759" r="2" style="fill: steelblue;"></circle><circle cx="6.269006431102758" cy="152.43486563364664" r="2" style="fill: steelblue;"></circle><circle cx="60.74187755584717" cy="107.88470009962717" r="2" style="fill: steelblue;"></circle><circle cx="80.18709942698479" cy="189.52781624264188" r="2" style="fill: steelblue;"></circle><circle cx="83.45174081623554" cy="86.7094380988015" r="2" style="fill: steelblue;"></circle><circle cx="83.87926816940308" cy="141.29770464367337" r="2" style="fill: steelblue;"></circle><circle cx="88.61848842352629" cy="137.10881769657135" r="2" style="fill: steelblue;"></circle><circle cx="78.69432345032692" cy="121.50108814239502" r="2" style="fill: steelblue;"></circle><circle cx="67.08064153790474" cy="57.25596348444621" r="2" style="fill: steelblue;"></circle><circle cx="93.5410562902689" cy="187.36073043611313" r="2" style="fill: steelblue;"></circle><circle cx="60.59328317642212" cy="90.64758320649464" r="2" style="fill: steelblue;"></circle><circle cx="90.20470678806305" cy="155.61590592066446" r="2" style="fill: steelblue;"></circle><circle cx="106.79453834891319" cy="161.9087689452701" r="2" style="fill: steelblue;"></circle><circle cx="66.70396625995636" cy="160.50245695643954" r="2" style="fill: steelblue;"></circle><circle cx="45.10668516159058" cy="65.64475761519537" r="2" style="fill: steelblue;"></circle><circle cx="94.97425695881248" cy="97.50138305955463" r="2" style="fill: steelblue;"></circle><circle cx="62.5227190554142" cy="118.28005231089062" r="2" style="fill: steelblue;"></circle><circle cx="144.08251866698265" cy="108.55088672704167" r="2" style="fill: steelblue;"></circle><circle cx="72.34299778938293" cy="91.85014830695258" r="2" style="fill: steelblue;"></circle><circle cx="48.686681687831886" cy="123.58466784159342" r="2" style="fill: steelblue;"></circle><circle cx="50.7937915623188" cy="181.8968388769362" r="2" style="fill: steelblue;"></circle><circle cx="130.4622296243906" cy="184.99832020865546" r="2" style="fill: steelblue;"></circle><circle cx="58.72705429792404" cy="156.10945887035794" r="2" style="fill: steelblue;"></circle><circle cx="78.47501374781132" cy="133.09863871998257" r="2" style="fill: steelblue;"></circle><circle cx="138.22074830532074" cy="134.24921366903516" r="2" style="fill: steelblue;"></circle><circle cx="144.70576718449593" cy="96.87744246588812" r="2" style="fill: steelblue;"></circle><circle cx="116.20440743863583" cy="59.40194262398612" r="2" style="fill: steelblue;"></circle><circle cx="159.8992481827736" cy="92.33189788129594" r="2" style="fill: steelblue;"></circle><circle cx="113.86734005063772" cy="56.674900982115005" r="2" style="fill: steelblue;"></circle><circle cx="102.44455528445542" cy="77.8088437186347" r="2" style="fill: steelblue;"></circle><circle cx="92.97796422615647" cy="86.70820792516072" r="2" style="fill: steelblue;"></circle><circle cx="95.60536025092006" cy="183.61033995946246" r="2" style="fill: steelblue;"></circle><circle cx="91.18260852992535" cy="166.98004139794241" r="2" style="fill: steelblue;"></circle><circle cx="55.10499179363251" cy="68.58265068795946" r="2" style="fill: steelblue;"></circle><circle cx="26.31975561380387" cy="139.8671633667416" r="2" style="fill: steelblue;"></circle><circle cx="31.87223374843598" cy="74.52261116769579" r="2" style="fill: steelblue;"></circle><circle cx="56.768009811639786" cy="130.06757199764252" r="2" style="fill: steelblue;"></circle><circle cx="183.32323282957077" cy="54.387145572238495" r="2" style="fill: steelblue;"></circle><circle cx="74.65416043996811" cy="72.14348514874776" r="2" style="fill: steelblue;"></circle><circle cx="89.41981513053179" cy="72.09060589472453" r="2" style="fill: steelblue;"></circle><circle cx="120.10545320808887" cy="90.75199067592621" r="2" style="fill: steelblue;"></circle><circle cx="132.41559863090515" cy="124.10277790493436" r="2" style="fill: steelblue;"></circle><circle cx="146.160951256752" cy="86.85181207127042" r="2" style="fill: steelblue;"></circle><circle cx="47.11743667721749" cy="171.7739701271057" r="2" style="fill: steelblue;"></circle><circle cx="143.3029681444168" cy="186.2087978257073" r="2" style="fill: steelblue;"></circle><circle cx="147.77255281805992" cy="160.99477807680765" r="2" style="fill: steelblue;"></circle><circle cx="119.69005726277828" cy="89.719091852506" r="2" style="fill: steelblue;"></circle><circle cx="82.81716927886009" cy="125.97526278760698" r="2" style="fill: steelblue;"></circle><circle cx="71.28831408917904" cy="156.86444772614374" r="2" style="fill: steelblue;"></circle><circle cx="135.98755970597267" cy="122.78804348574744" r="2" style="fill: steelblue;"></circle><circle cx="39.06699493527413" cy="92.91843242115445" r="2" style="fill: steelblue;"></circle><circle cx="46.23214378952981" cy="133.34956930743323" r="2" style="fill: steelblue;"></circle><circle cx="158.17869678139687" cy="176.90759234958225" r="2" style="fill: steelblue;"></circle><circle cx="101.01524218916893" cy="117.3078753054142" r="2" style="fill: steelblue;"></circle><circle cx="75.87820887565613" cy="142.5992614693112" r="2" style="fill: steelblue;"></circle><circle cx="115.31618181616068" cy="137.60935763518015" r="2" style="fill: steelblue;"></circle><circle cx="92.88907693699002" cy="73.98586140738593" r="2" style="fill: steelblue;"></circle><circle cx="56.68616145849228" cy="53.04741859436035" r="2" style="fill: steelblue;"></circle><circle cx="87.42732591927052" cy="179.7645025783115" r="2" style="fill: steelblue;"></circle><circle cx="31.201227009296424" cy="197.71207703484427" r="2" style="fill: steelblue;"></circle><circle cx="105.4161068983376" cy="179.21254369947647" r="2" style="fill: steelblue;"></circle><circle cx="37.50235810875893" cy="195.51785124672782" r="2" style="fill: steelblue;"></circle><circle cx="37.69376352429391" cy="102.50826428333917" r="2" style="fill: steelblue;"></circle><circle cx="42.142743617296226" cy="144.04041237301297" r="2" style="fill: steelblue;"></circle><circle cx="95.1847936026752" cy="107.57108198271857" r="2" style="fill: steelblue;"></circle><circle cx="45.20027190446854" cy="153.22551793522305" r="2" style="fill: steelblue;"></circle><circle cx="50.340643525123596" cy="176.06814702351886" r="2" style="fill: steelblue;"></circle><circle cx="134.7658358514309" cy="60.30041641659207" r="2" style="fill: steelblue;"></circle><circle cx="146.87412083148956" cy="98.86386907762952" r="2" style="fill: steelblue;"></circle><circle cx="67.57311746478081" cy="73.87164235115051" r="2" style="fill: steelblue;"></circle><circle cx="106.28981878980994" cy="54.65043253368802" r="2" style="fill: steelblue;"></circle><circle cx="94.46831829845905" cy="124.19775790638394" r="2" style="fill: steelblue;"></circle><circle cx="131.23280219733715" cy="106.72048976023991" r="2" style="fill: steelblue;"></circle><circle cx="70.16076184809208" cy="62.36480342017279" r="2" style="fill: steelblue;"></circle><circle cx="138.59204053878784" cy="38.92539607153998" r="2" style="fill: steelblue;"></circle><circle cx="143.05439442396164" cy="162.97178798251682" r="2" style="fill: steelblue;"></circle><circle cx="105.26500446721911" cy="16.05015330844455" r="2" style="fill: steelblue;"></circle><circle cx="178.56489717960358" cy="48.853748374515106" r="2" style="fill: steelblue;"></circle><circle cx="104.30289283394814" cy="108.09868408573999" r="2" style="fill: steelblue;"></circle><circle cx="106.78781187161803" cy="69.82316904597812" r="2" style="fill: steelblue;"></circle><circle cx="84.76056940853596" cy="185.19178364011978" r="2" style="fill: steelblue;"></circle><circle cx="84.96582359075546" cy="153.2506313588884" r="2" style="fill: steelblue;"></circle><circle cx="91.07518792152405" cy="131.24686645136939" r="2" style="fill: steelblue;"></circle><circle cx="81.92010633647442" cy="64.58419892523024" r="2" style="fill: steelblue;"></circle><circle cx="97.1900584641844" cy="137.17000517580243" r="2" style="fill: steelblue;"></circle><circle cx="104.15470264852047" cy="11.724869410196948" r="2" style="fill: steelblue;"></circle><circle cx="166.68204069137573" cy="41.03200965457492" r="2" style="fill: steelblue;"></circle><circle cx="118.98211054503918" cy="44.63202423519559" r="2" style="fill: steelblue;"></circle><circle cx="120.16099914908409" cy="24.660964806874585" r="2" style="fill: steelblue;"></circle><circle cx="134.42218154668808" cy="92.54357881016202" r="2" style="fill: steelblue;"></circle><circle cx="95.34445768222213" cy="82.2710394859314" r="2" style="fill: steelblue;"></circle><circle cx="168.21834295988083" cy="48.5544999440511" r="2" style="fill: steelblue;"></circle><circle cx="159.01585146784782" cy="33.939500649770096" r="2" style="fill: steelblue;"></circle><circle cx="159.5426708459854" cy="117.20537187324629" r="2" style="fill: steelblue;"></circle><circle cx="108.23293626308441" cy="161.8003315395779" r="2" style="fill: steelblue;"></circle><circle cx="100.78927050344646" cy="65.54338335990906" r="2" style="fill: steelblue;"></circle><circle cx="147.269307076931" cy="129.69772517681122" r="2" style="fill: steelblue;"></circle><circle cx="124.07658658921719" cy="82.9673707485199" r="2" style="fill: steelblue;"></circle><circle cx="143.106060475111" cy="73.17587402131822" r="2" style="fill: steelblue;"></circle><circle cx="128.91557849943638" cy="89.93602130148146" r="2" style="fill: steelblue;"></circle><circle cx="140.6883805990219" cy="86.0108368926578" r="2" style="fill: steelblue;"></circle><circle cx="73.43834117054939" cy="75.43547948201497" r="2" style="fill: steelblue;"></circle><circle cx="124.560971185565" cy="69.66552800602383" r="2" style="fill: steelblue;"></circle><circle cx="141.6056178510189" cy="117.27254341046014" r="2" style="fill: steelblue;"></circle><circle cx="173.40165972709656" cy="75.17330514060126" r="2" style="fill: steelblue;"></circle><circle cx="99.86593617359176" cy="66.85765584309895" r="2" style="fill: steelblue;"></circle><circle cx="184.6283808350563" cy="76.55754685401917" r="2" style="fill: steelblue;"></circle><circle cx="82.71850310266018" cy="131.67632619539896" r="2" style="fill: steelblue;"></circle><circle cx="29.697386920452125" cy="131.69049223264057" r="2" style="fill: steelblue;"></circle><circle cx="47.500955313444145" cy="90.96100926399231" r="2" style="fill: steelblue;"></circle><circle cx="78.01111452281475" cy="138.35177322228748" r="2" style="fill: steelblue;"></circle><circle cx="43.98716092109681" cy="166.29312104649014" r="2" style="fill: steelblue;"></circle><circle cx="36.34914606809617" cy="125.29161903593274" r="2" style="fill: steelblue;"></circle><circle cx="33.481663465499885" cy="96.65715363290575" r="2" style="fill: steelblue;"></circle></g></svg>