<svg xmlns="http://www.w3.org/2000/svg"><g><circle cx="22.419559955596927" cy="77.96299457550049" r="2" style="fill: steelblue;"></circle><circle cx="16.911356896162037" cy="59.6589669585228" r="2" style="fill: steelblue;"></circle><circle cx="53.99223389104009" cy="61.341821402311325" r="2" style="fill: steelblue;"></circle><circle cx="29.31068204343319" cy="54.03400883078575" r="2" style="fill: steelblue;"></circle><circle cx="15.54191038012505" cy="58.83096754550934" r="2" style="fill: steelblue;"></circle><circle cx="45.41853228583932" cy="76.35443806648254" r="2" style="fill: steelblue;"></circle><circle cx="30.506420135498047" cy="36.30523681640625" r="2" style="fill: steelblue;"></circle><circle cx="5.0533480942249325" cy="43.659765273332596" r="2" style="fill: steelblue;"></circle><circle cx="29.069435968995094" cy="55.857522413134575" r="2" style="fill: steelblue;"></circle><circle cx="25.55752284824848" cy="45.384445786476135" r="2" style="fill: steelblue;"></circle><circle cx="34.623183496296406" cy="77.95657515525818" r="2" style="fill: steelblue;"></circle><circle cx="61.58340647816658" cy="64.82372432947159" r="2" style="fill: steelblue;"></circle><circle cx="34.87969394773245" cy="91.24099314212799" r="2" style="fill: steelblue;"></circle><circle cx="54.833643324673176" cy="62.15927302837372" r="2" style="fill: steelblue;"></circle><circle cx="18.81782449781895" cy="43.00777465105057" r="2" style="fill: steelblue;"></circle><circle cx="30.107204988598824" cy="73.84037971496582" r="2" style="fill: steelblue;"></circle><circle cx="63.62768281251192" cy="72.02651798725128" r="2" style="fill: steelblue;"></circle><circle cx="38.46178688108921" cy="57.89051726460457" r="2" style="fill: steelblue;"></circle><circle cx="41.35947972536087" cy="31.53521418571472" r="2" style="fill: steelblue;"></circle><circle cx="79.64040264487267" cy="40.7518744468689" r="2" style="fill: steelblue;"></circle><circle cx="67.20892079174519" cy="41.87542125582695" r="2" style="fill: steelblue;"></circle><circle cx="41.08402710407972" cy="39.04068097472191" r="2" style="fill: steelblue;"></circle><circle cx="27.586274966597557" cy="55.399364605546" r="2" style="fill: steelblue;"></circle><circle cx="28.357577696442604" cy="53.55382077395916" r="2" style="fill: steelblue;"></circle><circle cx="21.12653218209744" cy="43.25411170721054" r="2" style="fill: steelblue;"></circle><circle cx="8.11446383595467" cy="71.51899933815002" r="2" style="fill: steelblue;"></circle><circle cx="27.51440294086933" cy="70.22558003664017" r="2" style="fill: steelblue;"></circle><circle cx="52.786809112876654" cy="77.92846858501434" r="2" style="fill: steelblue;"></circle><circle cx="10.251569747924808" cy="42.9277777671814" r="2" style="fill: steelblue;"></circle><circle cx="47.56471021100879" cy="50.22773137316108" r="2" style="fill: steelblue;"></circle><circle cx="76.69778652489185" cy="9.292793273925781" r="2" style="fill: steelblue;"></circle><circle cx="88.99319842457771" cy="9.970930218696594" r="2" style="fill: steelblue;"></circle><circle cx="68.52369122207165" cy="41.1520317196846" r="2" style="fill: steelblue;"></circle><circle cx="69.55843716859818" cy="44.26210708916187" r="2" style="fill: steelblue;"></circle><circle cx="65.36552608013153" cy="41.21790677309036" r="2" style="fill: steelblue;"></circle><circle cx="75.06574802100658" cy="55.547669157385826" r="2" style="fill: steelblue;"></circle><circle cx="67.00508035719395" cy="69.98981982469559" r="2" style="fill: steelblue;"></circle><circle cx="43.31946577876806" cy="64.89157229661942" r="2" style="fill: steelblue;"></circle><circle cx="19.39177624881268" cy="62.05235719680786" r="2" style="fill: steelblue;"></circle><circle cx="19.118800014257435" cy="68.03193390369415" r="2" style="fill: steelblue;"></circle><circle cx="50.25767501210794" cy="62.63139992952347" r="2" style="fill: steelblue;"></circle><circle cx="32.90135897696018" cy="44.64488476514816" r="2" style="fill: steelblue;"></circle><circle cx="92.44597256183624" cy="33.31102281808853" r="2" style="fill: steelblue;"></circle><circle cx="61.86859142035246" cy="56.66622593998909" r="2" style="fill: steelblue;"></circle><circle cx="71.49147726595402" cy="46.843716874718666" r="2" style="fill: steelblue;"></circle><circle cx="43.02837997674942" cy="70.66988199949265" r="2" style="fill: steelblue;"></circle><circle cx="52.851443365216255" cy="34.81080383062363" r="2" style="fill: steelblue;"></circle><circle cx="82.68235921859741" cy="67.2365054488182" r="2" style="fill: steelblue;"></circle><circle cx="27.42554359138012" cy="72.57867157459259" r="2" style="fill: steelblue;"></circle><circle cx="30.953585356473923" cy="62.84918040037155" r="2" style="fill: steelblue;"></circle><circle cx="55.24752587080002" cy="65.52006155252457" r="2" style="fill: steelblue;"></circle><circle cx="57.03898537904024" cy="37.87057027220726" r="2" style="fill: steelblue;"></circle><circle cx="67.15612038969994" cy="42.834681272506714" r="2" style="fill: steelblue;"></circle><circle cx="76.93707123398781" cy="49.31806530803442" r="2" style="fill: steelblue;"></circle><circle cx="37.07024473696947" cy="57.942015677690506" r="2" style="fill: steelblue;"></circle><circle cx="7.602575421333316" cy="62.84809708595276" r="2" style="fill: steelblue;"></circle><circle cx="10.146017372608188" cy="64.18083310127258" r="2" style="fill: steelblue;"></circle><circle cx="56.37445319443941" cy="55.80214820802212" r="2" style="fill: steelblue;"></circle><circle cx="31.592359021306038" cy="67.73124635219574" r="2" style="fill: steelblue;"></circle><circle cx="40.51580112427473" cy="70.08515894412994" r="2" style="fill: steelblue;"></circle><circle cx="45.68274710327387" cy="79.3896347284317" r="2" style="fill: steelblue;"></circle><circle cx="83.19317102432251" cy="54.73991148173809" r="2" style="fill: steelblue;"></circle><circle cx="9.792941808700565" cy="76.75122618675232" r="2" style="fill: steelblue;"></circle><circle cx="22.451226785779003" cy="54.29356284439564" r="2" style="fill: steelblue;"></circle><circle cx="53.788757836446166" cy="63.05438280105591" r="2" style="fill: steelblue;"></circle><circle cx="64.07914701849222" cy="82.14889168739319" r="2" style="fill: steelblue;"></circle><circle cx="46.53474404476583" cy="48.402261920273304" r="2" style="fill: steelblue;"></circle><circle cx="14.20182287693024" cy="52.27547809481621" r="2" style="fill: steelblue;"></circle><circle cx="8.817448467016224" cy="73.78451079130173" r="2" style="fill: steelblue;"></circle><circle cx="47.19929997809231" cy="80.6109607219696" r="2" style="fill: steelblue;"></circle><circle cx="22.100565209984783" cy="26.97260081768036" r="2" style="fill: steelblue;"></circle><circle cx="78.57469767332077" cy="17.594102025032043" r="2" style="fill: steelblue;"></circle><circle cx="60.74833609163761" cy="37.42448687553406" r="2" style="fill: steelblue;"></circle><circle cx="75.58978646993637" cy="72.36301004886627" r="2" style="fill: steelblue;"></circle><circle cx="67.27763377130032" cy="54.67668958008289" r="2" style="fill: steelblue;"></circle><circle cx="49.585462297545746" cy="56.4179353415966" r="2" style="fill: steelblue;"></circle><circle cx="75.57698078453541" cy="58.518023788928986" r="2" style="fill: steelblue;"></circle><circle cx="70.56855149567127" cy="40.91363921761513" r="2" style="fill: steelblue;"></circle><circle cx="55.29261212795973" cy="31.518247723579407" r="2" style="fill: steelblue;"></circle><circle cx="49.33120928471908" cy="20.711255073547363" r="2" style="fill: steelblue;"></circle><circle cx="47.0347648486495" cy="30.84801882505417" r="2" style="fill: steelblue;"></circle><circle cx="81.74613043665886" cy="56.96817860007286" r="2" style="fill: steelblue;"></circle><circle cx="69.4674227386713" cy="48.3757097274065" r="2" style="fill: steelblue;"></circle><circle cx="23.844174295663837" cy="79.85512018203735" r="2" style="fill: steelblue;"></circle><circle cx="13.589746505022053" cy="60.975464433431625" r="2" style="fill: steelblue;"></circle><circle cx="34.324412420392036" cy="68.43589544296265" r="2" style="fill: steelblue;"></circle><circle cx="34.78159308433533" cy="60.55543124675751" r="2" style="fill: steelblue;"></circle><circle cx="67.71005801856518" cy="63.56920599937439" r="2" style="fill: steelblue;"></circle><circle cx="33.441488817334175" cy="25.613585114479065" r="2" style="fill: steelblue;"></circle><circle cx="63.98883014917374" cy="67.01485812664032" r="2" style="fill: steelblue;"></circle><circle cx="69.93410848081112" cy="37.64584884047508" r="2" style="fill: steelblue;"></circle><circle cx="67.5710916519165" cy="62.0198979973793" r="2" style="fill: steelblue;"></circle><circle cx="66.0768423229456" cy="30.5345818400383" r="2" style="fill: steelblue;"></circle><circle cx="80.34951724112034" cy="30.473831295967102" r="2" style="fill: steelblue;"></circle><circle cx="72.98163808882236" cy="22.610384225845337" r="2" style="fill: steelblue;"></circle><circle cx="89.43033888936043" cy="18.97335648536682" r="2" style="fill: steelblue;"></circle><circle cx="85.20035371184349" cy="34.48998034000397" r="2" style="fill: steelblue;"></circle><circle cx="73.04414287209511" cy="39.25054892897606" r="2" style="fill: steelblue;"></circle><circle cx="57.101322524249554" cy="44.16503123939037" r="2" style="fill: steelblue;"></circle><circle cx="67.42861047387123" cy="68.15562695264816" r="2" style="fill: steelblue;"></circle><circle cx="90.89723527431488" cy="36.715395748615265" r="2" style="fill: steelblue;"></circle><circle cx="58.92631430178881" cy="37.789708375930786" r="2" style="fill: steelblue;"></circle><circle cx="74.41776730120182" cy="43.102799355983734" r="2" style="fill: steelblue;"></circle><circle cx="43.528444319963455" cy="46.02564573287964" r="2" style="fill: steelblue;"></circle><circle cx="44.566853158175945" cy="41.86473563313484" r="2" style="fill: steelblue;"></circle><circle cx="58.239259012043476" cy="17.196151614189148" r="2" style="fill: steelblue;"></circle><circle cx="55.775755271315575" cy="38.716042786836624" r="2" style="fill: steelblue;"></circle><circle cx="42.55911819636822" cy="56.25912547111511" r="2" style="fill: steelblue;"></circle><circle cx="60.777479968965054" cy="34.87640470266342" r="2" style="fill: steelblue;"></circle><circle cx="59.54417325556278" cy="56.59109875559807" r="2" style="fill: steelblue;"></circle><circle cx="81.16823919117451" cy="17.972740530967712" r="2" style="fill: steelblue;"></circle><circle cx="68.16284470260143" cy="35.2172926068306" r="2" style="fill: steelblue;"></circle><circle cx="46.49000237695873" cy="49.9204360647127" r="2" style="fill: steelblue;"></circle><circle cx="18.997135758399967" cy="62.24094554781914" r="2" style="fill: steelblue;"></circle><circle cx="9.863197058439258" cy="72.44293242692947" r="2" style="fill: steelblue;"></circle><circle cx="60.315450839698315" cy="66.20021760463715" r="2" style="fill: steelblue;"></circle><circle cx="17.775981873273853" cy="51.38602200895548" r="2" style="fill: steelblue;"></circle><circle cx="54.77242702618241" cy="72.41701185703278" r="2" style="fill: steelblue;"></circle></g></svg>