<svg xmlns="http://www.w3.org/2000/svg"><g><circle cx="22.03700542449951" cy="87.49370202422142" r="2" style="fill: steelblue;"></circle><circle cx="40.3410330414772" cy="45.788280852138996" r="2" style="fill: steelblue;"></circle><circle cx="38.658178597688675" cy="50.748945865780115" r="2" style="fill: steelblue;"></circle><circle cx="45.96599116921425" cy="96.67411372065544" r="2" style="fill: steelblue;"></circle><circle cx="41.16903245449066" cy="97.6628877222538" r="2" style="fill: steelblue;"></circle><circle cx="23.645561933517456" cy="96.86549678444862" r="2" style="fill: steelblue;"></circle><circle cx="63.69476318359375" cy="69.62906122207642" r="2" style="fill: steelblue;"></circle><circle cx="56.340234726667404" cy="59.90645028650761" r="2" style="fill: steelblue;"></circle><circle cx="44.142477586865425" cy="58.27412959188223" r="2" style="fill: steelblue;"></circle><circle cx="54.615554213523865" cy="58.06036591529846" r="2" style="fill: steelblue;"></circle><circle cx="22.04342484474182" cy="55.69075578823686" r="2" style="fill: steelblue;"></circle><circle cx="35.17627567052841" cy="60.65283827483654" r="2" style="fill: steelblue;"></circle><circle cx="8.75900685787201" cy="66.45967923104763" r="2" style="fill: steelblue;"></circle><circle cx="37.84072697162628" cy="53.22947185486555" r="2" style="fill: steelblue;"></circle><circle cx="56.99222534894943" cy="69.70335841178894" r="2" style="fill: steelblue;"></circle><circle cx="26.15962028503418" cy="54.897646605968475" r="2" style="fill: steelblue;"></circle><circle cx="27.97348201274872" cy="46.602730825543404" r="2" style="fill: steelblue;"></circle><circle cx="42.10948273539543" cy="66.64801687002182" r="2" style="fill: steelblue;"></circle><circle cx="68.46478581428528" cy="77.44665741920471" r="2" style="fill: steelblue;"></circle><circle cx="59.2481255531311" cy="52.51287152059376" r="2" style="fill: steelblue;"></circle><circle cx="58.12457874417305" cy="68.7386404722929" r="2" style="fill: steelblue;"></circle><circle cx="60.95931902527809" cy="27.958740666508675" r="2" style="fill: steelblue;"></circle><circle cx="44.600635394454" cy="63.82850110530853" r="2" style="fill: steelblue;"></circle><circle cx="46.44617922604084" cy="75.65665915608406" r="2" style="fill: steelblue;"></circle><circle cx="56.74588829278946" cy="74.6031042188406" r="2" style="fill: steelblue;"></circle><circle cx="28.481000661849976" cy="34.7688851878047" r="2" style="fill: steelblue;"></circle><circle cx="29.774419963359833" cy="70.63647285103798" r="2" style="fill: steelblue;"></circle><circle cx="22.071531414985657" cy="60.76249312609434" r="2" style="fill: steelblue;"></circle><circle cx="57.0722222328186" cy="30.88962584733963" r="2" style="fill: steelblue;"></circle><circle cx="49.77226862683892" cy="27.647116407752037" r="2" style="fill: steelblue;"></circle><circle cx="90.70720672607422" cy="41.89779628068209" r="2" style="fill: steelblue;"></circle><circle cx="90.0290697813034" cy="20.050375908613205" r="2" style="fill: steelblue;"></circle><circle cx="58.8479682803154" cy="43.06632997468114" r="2" style="fill: steelblue;"></circle><circle cx="55.73789291083813" cy="48.77772235777229" r="2" style="fill: steelblue;"></circle><circle cx="58.78209322690964" cy="53.51101788692176" r="2" style="fill: steelblue;"></circle><circle cx="44.452330842614174" cy="52.19731987453997" r="2" style="fill: steelblue;"></circle><circle cx="30.010180175304413" cy="54.40869573503733" r="2" style="fill: steelblue;"></circle><circle cx="35.108427703380585" cy="72.44750410318375" r="2" style="fill: steelblue;"></circle><circle cx="37.94764280319214" cy="86.84012219309807" r="2" style="fill: steelblue;"></circle><circle cx="31.968066096305847" cy="84.06388312578201" r="2" style="fill: steelblue;"></circle><circle cx="37.36860007047653" cy="71.61599509418011" r="2" style="fill: steelblue;"></circle><circle cx="55.35511523485184" cy="8.338383585214615" r="2" style="fill: steelblue;"></circle><circle cx="66.68897718191147" cy="62.672919780015945" r="2" style="fill: steelblue;"></circle><circle cx="43.33377406001091" cy="55.290092434734106" r="2" style="fill: steelblue;"></circle><circle cx="53.156283125281334" cy="39.94727339595556" r="2" style="fill: steelblue;"></circle><circle cx="29.330118000507355" cy="33.792200684547424" r="2" style="fill: steelblue;"></circle><circle cx="65.18919616937637" cy="26.919524371623993" r="2" style="fill: steelblue;"></circle><circle cx="32.76349455118179" cy="76.44128166139126" r="2" style="fill: steelblue;"></circle><circle cx="27.42132842540741" cy="28.348515927791595" r="2" style="fill: steelblue;"></circle><circle cx="37.15081959962845" cy="26.11372359097004" r="2" style="fill: steelblue;"></circle><circle cx="34.47993844747543" cy="40.15497136861086" r="2" style="fill: steelblue;"></circle><circle cx="62.12942972779274" cy="58.591415360569954" r="2" style="fill: steelblue;"></circle><circle cx="57.165318727493286" cy="64.35584295541048" r="2" style="fill: steelblue;"></circle><circle cx="50.68193469196558" cy="32.006220147013664" r="2" style="fill: steelblue;"></circle><circle cx="42.057984322309494" cy="80.46650253236294" r="2" style="fill: steelblue;"></circle><circle cx="37.15190291404724" cy="76.8839281052351" r="2" style="fill: steelblue;"></circle><circle cx="35.81916689872742" cy="20.910651609301567" r="2" style="fill: steelblue;"></circle><circle cx="44.19785179197788" cy="49.492378905415535" r="2" style="fill: steelblue;"></circle><circle cx="32.26875364780426" cy="62.060895562171936" r="2" style="fill: steelblue;"></circle><circle cx="29.914841055870056" cy="42.34190909191966" r="2" style="fill: steelblue;"></circle><circle cx="20.6103652715683" cy="53.55546153150499" r="2" style="fill: steelblue;"></circle><circle cx="45.26008851826191" cy="71.65691927075386" r="2" style="fill: steelblue;"></circle><circle cx="23.24877381324768" cy="56.28633704036474" r="2" style="fill: steelblue;"></circle><circle cx="45.70643715560436" cy="84.39938649535179" r="2" style="fill: steelblue;"></circle><circle cx="36.94561719894409" cy="47.2919465508312" r="2" style="fill: steelblue;"></circle><circle cx="17.85110831260681" cy="81.24882094562054" r="2" style="fill: steelblue;"></circle><circle cx="51.597738079726696" cy="81.15311823785305" r="2" style="fill: steelblue;"></circle><circle cx="47.72452190518379" cy="78.92862819135189" r="2" style="fill: steelblue;"></circle><circle cx="26.215489208698273" cy="52.4076031986624" r="2" style="fill: steelblue;"></circle><circle cx="19.389039278030396" cy="77.39986404776573" r="2" style="fill: steelblue;"></circle><circle cx="73.02739918231964" cy="74.8296782374382" r="2" style="fill: steelblue;"></circle><circle cx="82.40589797496796" cy="32.61708207428455" r="2" style="fill: steelblue;"></circle><circle cx="62.57551312446594" cy="26.56293958425522" r="2" style="fill: steelblue;"></circle><circle cx="27.636989951133728" cy="66.2134412676096" r="2" style="fill: steelblue;"></circle><circle cx="45.32331041991711" cy="46.85509060509503" r="2" style="fill: steelblue;"></circle><circle cx="43.5820646584034" cy="52.76584085077047" r="2" style="fill: steelblue;"></circle><circle cx="41.481976211071014" cy="34.383598901331425" r="2" style="fill: steelblue;"></circle><circle cx="59.08636078238487" cy="64.91961907595396" r="2" style="fill: steelblue;"></circle><circle cx="68.4817522764206" cy="30.70397973060608" r="2" style="fill: steelblue;"></circle><circle cx="79.28874492645264" cy="28.47280278801918" r="2" style="fill: steelblue;"></circle><circle cx="69.15198117494583" cy="47.36749776639044" r="2" style="fill: steelblue;"></circle><circle cx="43.03182139992714" cy="10.717551410198212" r="2" style="fill: steelblue;"></circle><circle cx="51.6242902725935" cy="47.84855358302593" r="2" style="fill: steelblue;"></circle><circle cx="20.144879817962646" cy="46.606094064190984" r="2" style="fill: steelblue;"></circle><circle cx="39.024535566568375" cy="57.61971529573202" r="2" style="fill: steelblue;"></circle><circle cx="31.564104557037354" cy="57.51708820462227" r="2" style="fill: steelblue;"></circle><circle cx="39.44456875324249" cy="54.462406039237976" r="2" style="fill: steelblue;"></circle><circle cx="36.43079400062561" cy="59.03994683176279" r="2" style="fill: steelblue;"></circle><circle cx="74.38641488552094" cy="51.4049707679078" r="2" style="fill: steelblue;"></circle><circle cx="32.98514187335968" cy="47.922648675739765" r="2" style="fill: steelblue;"></circle><circle cx="62.35415115952492" cy="16.658979654312134" r="2" style="fill: steelblue;"></circle><circle cx="37.9801020026207" cy="40.50894472748041" r="2" style="fill: steelblue;"></circle><circle cx="69.4654181599617" cy="39.919500425457954" r="2" style="fill: steelblue;"></circle><circle cx="69.5261687040329" cy="32.78890922665596" r="2" style="fill: steelblue;"></circle><circle cx="77.38961577415466" cy="52.327771158888936" r="2" style="fill: steelblue;"></circle><circle cx="81.02664351463318" cy="15.890828520059586" r="2" style="fill: steelblue;"></circle><circle cx="65.51001965999603" cy="20.492074266076088" r="2" style="fill: steelblue;"></circle><circle cx="60.74945107102394" cy="20.228664577007294" r="2" style="fill: steelblue;"></circle><circle cx="55.83496876060963" cy="45.883531868457794" r="2" style="fill: steelblue;"></circle><circle cx="31.844373047351837" cy="49.60536474827677" r="2" style="fill: steelblue;"></circle><circle cx="63.284604251384735" cy="26.3653464615345" r="2" style="fill: steelblue;"></circle><circle cx="62.210291624069214" cy="37.96170670539141" r="2" style="fill: steelblue;"></circle><circle cx="56.897200644016266" cy="28.446969762444496" r="2" style="fill: steelblue;"></circle><circle cx="53.97435426712036" cy="35.54221075028181" r="2" style="fill: steelblue;"></circle><circle cx="58.13526436686516" cy="29.655809700489044" r="2" style="fill: steelblue;"></circle><circle cx="82.80384838581085" cy="63.280829414725304" r="2" style="fill: steelblue;"></circle><circle cx="61.283957213163376" cy="37.7195144072175" r="2" style="fill: steelblue;"></circle><circle cx="43.74087452888489" cy="29.197191074490547" r="2" style="fill: steelblue;"></circle><circle cx="65.12359529733658" cy="13.299170136451721" r="2" style="fill: steelblue;"></circle><circle cx="43.40890124440193" cy="50.06703191320412" r="2" style="fill: steelblue;"></circle><circle cx="82.02725946903229" cy="7.6858095824718475" r="2" style="fill: steelblue;"></circle><circle cx="64.7827073931694" cy="58.64074844866991" r="2" style="fill: steelblue;"></circle><circle cx="50.0795639352873" cy="85.15130653977394" r="2" style="fill: steelblue;"></circle><circle cx="37.75905445218086" cy="76.24952234327793" r="2" style="fill: steelblue;"></circle><circle cx="27.557067573070526" cy="60.994442738592625" r="2" style="fill: steelblue;"></circle><circle cx="33.799782395362854" cy="78.0064195394516" r="2" style="fill: steelblue;"></circle><circle cx="48.61397799104452" cy="81.82542696595192" r="2" style="fill: steelblue;"></circle><circle cx="27.582988142967224" cy="83.25916826725006" r="2" style="fill: steelblue;"></circle></g></svg>