<svg xmlns="http://www.w3.org/2000/svg"><g><circle cx="42.311105597764254" cy="59.86006483435631" r="2" style="fill: steelblue;"></circle><circle cx="13.162444531917576" cy="78.86252291500568" r="2" style="fill: steelblue;"></circle><circle cx="42.08755977451801" cy="58.589296601712704" r="2" style="fill: steelblue;"></circle><circle cx="10.917200893163685" cy="58.065623231232166" r="2" style="fill: steelblue;"></circle><circle cx="10.017118602991108" cy="68.62309128046036" r="2" style="fill: steelblue;"></circle><circle cx="13.019624352455143" cy="47.70366819575429" r="2" style="fill: steelblue;"></circle><circle cx="48.867103131487966" cy="26.151997223496437" r="2" style="fill: steelblue;"></circle><circle cx="70.76990716159344" cy="33.89940708875656" r="2" style="fill: steelblue;"></circle><circle cx="22.04552218317986" cy="36.97670828551054" r="2" style="fill: steelblue;"></circle><circle cx="40.74689485132694" cy="60.77567599713802" r="2" style="fill: steelblue;"></circle><circle cx="38.056909292936325" cy="56.47036638110876" r="2" style="fill: steelblue;"></circle><circle cx="28.431856259703636" cy="70.3578844666481" r="2" style="fill: steelblue;"></circle><circle cx="24.357521161437038" cy="37.004770897328854" r="2" style="fill: steelblue;"></circle><circle cx="38.412171602249146" cy="33.450936153531075" r="2" style="fill: steelblue;"></circle><circle cx="46.913319919258356" cy="78.70569564402103" r="2" style="fill: steelblue;"></circle><circle cx="40.8934123814106" cy="77.52754837274551" r="2" style="fill: steelblue;"></circle><circle cx="19.19229440391064" cy="47.96874122694135" r="2" style="fill: steelblue;"></circle><circle cx="42.64597240835428" cy="24.68847595155239" r="2" style="fill: steelblue;"></circle><circle cx="46.512401616200805" cy="57.66137335449457" r="2" style="fill: steelblue;"></circle><circle cx="41.20675306767225" cy="48.163318959996104" r="2" style="fill: steelblue;"></circle><circle cx="33.953049406409264" cy="54.18608309701085" r="2" style="fill: steelblue;"></circle><circle cx="39.88156020641327" cy="32.19178058207035" r="2" style="fill: steelblue;"></circle><circle cx="29.49846461415291" cy="25.75482353568077" r="2" style="fill: steelblue;"></circle><circle cx="47.95438186265528" cy="85.88198870420456" r="2" style="fill: steelblue;"></circle><circle cx="51.20032345876098" cy="74.24034848809242" r="2" style="fill: steelblue;"></circle><circle cx="34.864030964672565" cy="80.77212907373905" r="2" style="fill: steelblue;"></circle><circle cx="62.54955120384693" cy="54.653267562389374" r="2" style="fill: steelblue;"></circle><circle cx="65.67714847624302" cy="78.05675007402897" r="2" style="fill: steelblue;"></circle><circle cx="25.342215970158577" cy="65.516746789217" r="2" style="fill: steelblue;"></circle><circle cx="60.89523173868656" cy="18.503914773464203" r="2" style="fill: steelblue;"></circle><circle cx="85.74599698185921" cy="58.00041947513819" r="2" style="fill: steelblue;"></circle><circle cx="77.00731717050076" cy="42.053830064833164" r="2" style="fill: steelblue;"></circle><circle cx="45.312762912362814" cy="31.762899085879326" r="2" style="fill: steelblue;"></circle><circle cx="64.02645464986563" cy="44.648938067257404" r="2" style="fill: steelblue;"></circle><circle cx="70.78002318739891" cy="20.654765143990517" r="2" style="fill: steelblue;"></circle><circle cx="96.42381146550179" cy="65.17160050570965" r="2" style="fill: steelblue;"></circle><circle cx="60.80967579036951" cy="47.936663683503866" r="2" style="fill: steelblue;"></circle><circle cx="57.928384467959404" cy="99.69752579927444" r="2" style="fill: steelblue;"></circle><circle cx="35.49271002411842" cy="86.12631186842918" r="2" style="fill: steelblue;"></circle><circle cx="6.979654729366305" cy="68.9944114536047" r="2" style="fill: steelblue;"></circle><circle cx="59.250941686332226" cy="92.74187609553337" r="2" style="fill: steelblue;"></circle><circle cx="91.34327173233032" cy="28.077640756964684" r="2" style="fill: steelblue;"></circle><circle cx="96.1583212018013" cy="22.492652013897896" r="2" style="fill: steelblue;"></circle><circle cx="91.9527143239975" cy="49.61322668241337" r="2" style="fill: steelblue;"></circle><circle cx="37.69229743629694" cy="41.681226529181004" r="2" style="fill: steelblue;"></circle><circle cx="31.670716777443886" cy="39.297859370708466" r="2" style="fill: steelblue;"></circle><circle cx="32.60548152029514" cy="36.54762376099825" r="2" style="fill: steelblue;"></circle><circle cx="8.614051342010502" cy="94.88405957818031" r="2" style="fill: steelblue;"></circle><circle cx="17.798497527837757" cy="44.33088768273592" r="2" style="fill: steelblue;"></circle><circle cx="30.580834671854973" cy="55.079466849565506" r="2" style="fill: steelblue;"></circle><circle cx="33.80212485790253" cy="49.663475435227156" r="2" style="fill: steelblue;"></circle><circle cx="30.498362332582474" cy="39.29260857403278" r="2" style="fill: steelblue;"></circle><circle cx="33.91472175717354" cy="72.77072332799435" r="2" style="fill: steelblue;"></circle><circle cx="24.25533272325993" cy="79.44820374250412" r="2" style="fill: steelblue;"></circle><circle cx="40.11222459375858" cy="63.743394054472446" r="2" style="fill: steelblue;"></circle><circle cx="35.73652841150761" cy="98.34695905447006" r="2" style="fill: steelblue;"></circle><circle cx="54.51167766004801" cy="62.07443047314882" r="2" style="fill: steelblue;"></circle><circle cx="0.2448141574859647" cy="55.40652172639966" r="2" style="fill: steelblue;"></circle><circle cx="33.77436213195324" cy="47.11618130095303" r="2" style="fill: steelblue;"></circle><circle cx="29.831848293542862" cy="43.44708537682891" r="2" style="fill: steelblue;"></circle><circle cx="29.53389212489128" cy="61.86748314648867" r="2" style="fill: steelblue;"></circle><circle cx="32.297440990805626" cy="50.97765342798084" r="2" style="fill: steelblue;"></circle><circle cx="10.057869553565983" cy="77.12914906442165" r="2" style="fill: steelblue;"></circle><circle cx="13.262345641851429" cy="97.67845571041107" r="2" style="fill: steelblue;"></circle><circle cx="49.8306468478404" cy="89.05237093567848" r="2" style="fill: steelblue;"></circle><circle cx="28.42087224125862" cy="70.07528580725193" r="2" style="fill: steelblue;"></circle><circle cx="47.85305792465806" cy="96.03442922234535" r="2" style="fill: steelblue;"></circle><circle cx="19.918066635727886" cy="88.22240233421326" r="2" style="fill: steelblue;"></circle><circle cx="18.294657766819004" cy="53.8165885489434" r="2" style="fill: steelblue;"></circle><circle cx="65.79605229198933" cy="82.7371209859848" r="2" style="fill: steelblue;"></circle><circle cx="34.1405488550663" cy="26.406123489141464" r="2" style="fill: steelblue;"></circle><circle cx="70.71604132652283" cy="3.1677402555942535" r="2" style="fill: steelblue;"></circle><circle cx="31.836317107081413" cy="6.8762704730033875" r="2" style="fill: steelblue;"></circle><circle cx="79.76709231734276" cy="45.65636832267046" r="2" style="fill: steelblue;"></circle><circle cx="73.06845597922802" cy="16.094180941581726" r="2" style="fill: steelblue;"></circle><circle cx="45.627470780164" cy="73.31787534058094" r="2" style="fill: steelblue;"></circle><circle cx="73.11335317790508" cy="18.80715899169445" r="2" style="fill: steelblue;"></circle><circle cx="82.64335542917252" cy="26.528679952025414" r="2" style="fill: steelblue;"></circle><circle cx="74.59929138422012" cy="35.542986541986465" r="2" style="fill: steelblue;"></circle><circle cx="73.28266948461533" cy="12.436378002166748" r="2" style="fill: steelblue;"></circle><circle cx="94.4025844335556" cy="58.30340292304754" r="2" style="fill: steelblue;"></circle><circle cx="73.72392453253269" cy="17.10338070988655" r="2" style="fill: steelblue;"></circle><circle cx="65.71593061089516" cy="72.73881994187832" r="2" style="fill: steelblue;"></circle><circle cx="18.917269259691242" cy="82.68200904130936" r="2" style="fill: steelblue;"></circle><circle cx="33.5004098713398" cy="54.9699442461133" r="2" style="fill: steelblue;"></circle><circle cx="45.34581741318107" cy="53.445679089054465" r="2" style="fill: steelblue;"></circle><circle cx="63.67304474115372" cy="37.100633792579174" r="2" style="fill: steelblue;"></circle><circle cx="42.027982138097286" cy="45.49480667337775" r="2" style="fill: steelblue;"></circle><circle cx="58.376057259738445" cy="41.186121478676796" r="2" style="fill: steelblue;"></circle><circle cx="64.22889903187752" cy="34.93143916130066" r="2" style="fill: steelblue;"></circle><circle cx="69.90986801683903" cy="40.88608007878065" r="2" style="fill: steelblue;"></circle><circle cx="54.28480142727494" cy="47.24749103188515" r="2" style="fill: steelblue;"></circle><circle cx="74.27899092435837" cy="28.19722816348076" r="2" style="fill: steelblue;"></circle><circle cx="73.97123351693153" cy="22.565429285168648" r="2" style="fill: steelblue;"></circle><circle cx="27.378983050584793" cy="21.039844676852226" r="2" style="fill: steelblue;"></circle><circle cx="51.8913249950856" cy="27.26386971771717" r="2" style="fill: steelblue;"></circle><circle cx="89.81607779860497" cy="21.5142622590065" r="2" style="fill: steelblue;"></circle><circle cx="81.33978322148323" cy="85.20764783024788" r="2" style="fill: steelblue;"></circle><circle cx="69.05936561524868" cy="83.37396681308746" r="2" style="fill: steelblue;"></circle><circle cx="54.89205401390791" cy="10.204534232616425" r="2" style="fill: steelblue;"></circle><circle cx="51.31194852292538" cy="9.876447916030884" r="2" style="fill: steelblue;"></circle><circle cx="55.06521062925458" cy="34.92089472711086" r="2" style="fill: steelblue;"></circle><circle cx="82.90662169456482" cy="53.3846590667963" r="2" style="fill: steelblue;"></circle><circle cx="42.18062777072191" cy="87.76995092630386" r="2" style="fill: steelblue;"></circle><circle cx="28.59293781220913" cy="22.489958629012108" r="2" style="fill: steelblue;"></circle><circle cx="69.98423598706722" cy="71.03707939386368" r="2" style="fill: steelblue;"></circle><circle cx="50.787099183071405" cy="49.91266435245052" r="2" style="fill: steelblue;"></circle><circle cx="51.73828238621354" cy="44.116044603288174" r="2" style="fill: steelblue;"></circle><circle cx="75.04291012883186" cy="59.11150500178337" r="2" style="fill: steelblue;"></circle><circle cx="72.79597707092762" cy="27.524109184741974" r="2" style="fill: steelblue;"></circle><circle cx="78.51827442646027" cy="44.537053629755974" r="2" style="fill: steelblue;"></circle><circle cx="31.08302243053913" cy="14.602328836917877" r="2" style="fill: steelblue;"></circle><circle cx="36.96125391870737" cy="66.19577407836914" r="2" style="fill: steelblue;"></circle><circle cx="46.92488578148186" cy="62.023947201669216" r="2" style="fill: steelblue;"></circle><circle cx="21.539709717035297" cy="67.86001399159431" r="2" style="fill: steelblue;"></circle><circle cx="25.835436955094337" cy="96.81795462965965" r="2" style="fill: steelblue;"></circle><circle cx="43.18147636950016" cy="69.37710680067539" r="2" style="fill: steelblue;"></circle><circle cx="44.12336014211178" cy="69.06872726976871" r="2" style="fill: steelblue;"></circle></g></svg>