<svg xmlns="http://www.w3.org/2000/svg"><g><circle cx="5.1765335930718335" cy="87.34838590025902" r="2" style="fill: steelblue;"></circle><circle cx="24.89490078555213" cy="88.91583159565926" r="2" style="fill: steelblue;"></circle><circle cx="8.867216772503324" cy="59.20906011015177" r="2" style="fill: steelblue;"></circle><circle cx="20.421355300479465" cy="65.92571288347244" r="2" style="fill: steelblue;"></circle><circle cx="22.740778989262054" cy="75.12067183852196" r="2" style="fill: steelblue;"></circle><circle cx="23.782567183176678" cy="89.68626260757446" r="2" style="fill: steelblue;"></circle><circle cx="46.057649950186416" cy="59.455129504203796" r="2" style="fill: steelblue;"></circle><circle cx="5.236091878679066" cy="13.272728025913239" r="2" style="fill: steelblue;"></circle><circle cx="56.64528095059925" cy="32.06811770796776" r="2" style="fill: steelblue;"></circle><circle cx="29.35114767816332" cy="50.021686777472496" r="2" style="fill: steelblue;"></circle><circle cx="31.445591151714325" cy="60.51867287606001" r="2" style="fill: steelblue;"></circle><circle cx="39.24945592880249" cy="81.09368868172169" r="2" style="fill: steelblue;"></circle><circle cx="71.37201825777689" cy="43.56872122734785" r="2" style="fill: steelblue;"></circle><circle cx="6.31963478194343" cy="29.751376435160637" r="2" style="fill: steelblue;"></circle><circle cx="54.67620839675268" cy="50.82286534598097" r="2" style="fill: steelblue;"></circle><circle cx="22.192047039667766" cy="44.53390669077635" r="2" style="fill: steelblue;"></circle><circle cx="19.045615527364944" cy="73.48189987242222" r="2" style="fill: steelblue;"></circle><circle cx="19.748771521780228" cy="71.99985459446907" r="2" style="fill: steelblue;"></circle><circle cx="67.17762119240231" cy="32.74998553097248" r="2" style="fill: steelblue;"></circle><circle cx="51.24930847022269" cy="61.94294076412916" r="2" style="fill: steelblue;"></circle><circle cx="40.859973844554695" cy="45.383049827069044" r="2" style="fill: steelblue;"></circle><circle cx="45.72455663647917" cy="59.52615309506655" r="2" style="fill: steelblue;"></circle><circle cx="54.07492584652371" cy="56.50798389688134" r="2" style="fill: steelblue;"></circle><circle cx="38.20766607920329" cy="49.63642182410695" r="2" style="fill: steelblue;"></circle><circle cx="9.051580561531917" cy="38.554769195616245" r="2" style="fill: steelblue;"></circle><circle cx="7.500839895672271" cy="80.80890327692032" r="2" style="fill: steelblue;"></circle><circle cx="21.945270564821033" cy="67.31015369296074" r="2" style="fill: steelblue;"></circle><circle cx="33.45068064000872" cy="62.090965174138546" r="2" style="fill: steelblue;"></circle><circle cx="32.87539316548242" cy="97.86887019872665" r="2" style="fill: steelblue;"></circle><circle cx="51.56127876705594" cy="59.05753765255213" r="2" style="fill: steelblue;"></circle><circle cx="70.29902868800694" cy="45.61102082952857" r="2" style="fill: steelblue;"></circle><circle cx="53.83405105935203" cy="28.544561192393303" r="2" style="fill: steelblue;"></circle><circle cx="71.66254950894249" cy="17.550113797187805" r="2" style="fill: steelblue;"></circle><circle cx="61.09557814068265" cy="34.270837157964706" r="2" style="fill: steelblue;"></circle><circle cx="56.64589603741964" cy="38.45733515918255" r="2" style="fill: steelblue;"></circle><circle cx="8.19483002026876" cy="60.98786201328039" r="2" style="fill: steelblue;"></circle><circle cx="16.509979301028785" cy="65.75122401118279" r="2" style="fill: steelblue;"></circle><circle cx="65.70867465602028" cy="61.013152077794075" r="2" style="fill: steelblue;"></circle><circle cx="30.0664183166292" cy="80.181385576725" r="2" style="fill: steelblue;"></circle><circle cx="62.73869441615211" cy="95.17221078276634" r="2" style="fill: steelblue;"></circle><circle cx="34.96621400117874" cy="61.79343368858099" r="2" style="fill: steelblue;"></circle><circle cx="72.80642721388075" cy="25.836262106895447" r="2" style="fill: steelblue;"></circle><circle cx="63.92825742562612" cy="34.115494415163994" r="2" style="fill: steelblue;"></circle><circle cx="63.954697052637734" cy="20.615943893790245" r="2" style="fill: steelblue;"></circle><circle cx="54.624004662036896" cy="25.150415673851967" r="2" style="fill: steelblue;"></circle><circle cx="37.94861104753283" cy="32.1682907640934" r="2" style="fill: steelblue;"></circle><circle cx="56.57409396436479" cy="21.80604189634323" r="2" style="fill: steelblue;"></circle><circle cx="14.113014936447147" cy="90.40727391839027" r="2" style="fill: steelblue;"></circle><circle cx="6.895601087146337" cy="44.49213547632098" r="2" style="fill: steelblue;"></circle><circle cx="19.502610961596172" cy="81.62834420800209" r="2" style="fill: steelblue;"></circle><circle cx="55.140454073747" cy="93.05313155055046" r="2" style="fill: steelblue;"></circle><circle cx="37.01236860619651" cy="92.96514764428139" r="2" style="fill: steelblue;"></circle><circle cx="21.567776136928135" cy="53.809534944593906" r="2" style="fill: steelblue;"></circle><circle cx="38.605978257126274" cy="47.204527258872986" r="2" style="fill: steelblue;"></circle><circle cx="53.540783789422775" cy="62.31063436716795" r="2" style="fill: steelblue;"></circle><circle cx="33.32521534628338" cy="98.4241284430027" r="2" style="fill: steelblue;"></circle><circle cx="11.546203825208877" cy="52.32514529488981" r="2" style="fill: steelblue;"></circle><circle cx="41.3460623472929" cy="54.787360318005085" r="2" style="fill: steelblue;"></circle><circle cx="28.70036926534441" cy="59.9310539662838" r="2" style="fill: steelblue;"></circle><circle cx="31.195321182409923" cy="80.52533976733685" r="2" style="fill: steelblue;"></circle><circle cx="63.00706929630704" cy="33.954884111881256" r="2" style="fill: steelblue;"></circle><circle cx="73.47629070281982" cy="82.19080343842506" r="2" style="fill: steelblue;"></circle><circle cx="10.117748710844253" cy="90.1097722351551" r="2" style="fill: steelblue;"></circle><circle cx="1.1439614825778563" cy="73.0861809104681" r="2" style="fill: steelblue;"></circle><circle cx="10.393728150261774" cy="75.44676698744297" r="2" style="fill: steelblue;"></circle><circle cx="2.2410743766360834" cy="94.04871538281441" r="2" style="fill: steelblue;"></circle><circle cx="48.74586785833041" cy="85.24000197649002" r="2" style="fill: steelblue;"></circle><circle cx="27.97979381349352" cy="34.54700503498316" r="2" style="fill: steelblue;"></circle><circle cx="46.21445900864071" cy="99.3752658367157" r="2" style="fill: steelblue;"></circle><circle cx="23.387241032388477" cy="48.98252123966813" r="2" style="fill: steelblue;"></circle><circle cx="11.965926488240562" cy="69.00122687220573" r="2" style="fill: steelblue;"></circle><circle cx="69.84979179170396" cy="30.054890736937523" r="2" style="fill: steelblue;"></circle><circle cx="50.56806546118524" cy="20.89478373527527" r="2" style="fill: steelblue;"></circle><circle cx="63.064178824424744" cy="24.231623113155365" r="2" style="fill: steelblue;"></circle><circle cx="72.67478373315599" cy="21.886267885565758" r="2" style="fill: steelblue;"></circle><circle cx="37.901121046808036" cy="14.091554284095764" r="2" style="fill: steelblue;"></circle><circle cx="46.63975511988004" cy="39.670317620038986" r="2" style="fill: steelblue;"></circle><circle cx="68.8175982899136" cy="35.47976650297642" r="2" style="fill: steelblue;"></circle><circle cx="80.53730196423001" cy="36.94395273923874" r="2" style="fill: steelblue;"></circle><circle cx="18.514106008741592" cy="12.612118571996689" r="2" style="fill: steelblue;"></circle><circle cx="91.97492334577773" cy="16.314472258090973" r="2" style="fill: steelblue;"></circle><circle cx="75.57312581274245" cy="3.130904585123062" r="2" style="fill: steelblue;"></circle><circle cx="45.95065795713001" cy="10.529807955026627" r="2" style="fill: steelblue;"></circle><circle cx="65.08841547701094" cy="53.866005688905716" r="2" style="fill: steelblue;"></circle><circle cx="7.4041081799401205" cy="73.79694022238255" r="2" style="fill: steelblue;"></circle><circle cx="23.374684320555794" cy="76.96487307548523" r="2" style="fill: steelblue;"></circle><circle cx="34.3765667743153" cy="55.835901480168104" r="2" style="fill: steelblue;"></circle><circle cx="67.70790053738487" cy="55.37273986265063" r="2" style="fill: steelblue;"></circle><circle cx="31.41499741209878" cy="61.827089823782444" r="2" style="fill: steelblue;"></circle><circle cx="94.13756529490152" cy="24.99481961131096" r="2" style="fill: steelblue;"></circle><circle cx="79.48399517271254" cy="38.73646277934313" r="2" style="fill: steelblue;"></circle><circle cx="77.6839878824022" cy="3.5826295614242554" r="2" style="fill: steelblue;"></circle><circle cx="87.66951759656271" cy="43.92343498766422" r="2" style="fill: steelblue;"></circle><circle cx="53.72821059491899" cy="6.026922911405563" r="2" style="fill: steelblue;"></circle><circle cx="58.8644802570343" cy="26.760772988200188" r="2" style="fill: steelblue;"></circle><circle cx="75.72275002797446" cy="0.5602903664112091" r="2" style="fill: steelblue;"></circle><circle cx="83.03024967511496" cy="46.501375222578645" r="2" style="fill: steelblue;"></circle><circle cx="41.39731406337685" cy="43.8609329983592" r="2" style="fill: steelblue;"></circle><circle cx="19.099834230211048" cy="39.65898994356394" r="2" style="fill: steelblue;"></circle><circle cx="67.22830832004547" cy="35.651553608477116" r="2" style="fill: steelblue;"></circle><circle cx="35.15113741159439" cy="35.78757420182228" r="2" style="fill: steelblue;"></circle><circle cx="58.51631462574005" cy="23.305106163024902" r="2" style="fill: steelblue;"></circle><circle cx="63.41206298934089" cy="51.333690830506384" r="2" style="fill: steelblue;"></circle><circle cx="55.03198934925927" cy="29.370644316077232" r="2" style="fill: steelblue;"></circle><circle cx="56.9945815536711" cy="38.69871906936169" r="2" style="fill: steelblue;"></circle><circle cx="62.282260258992515" cy="91.48688167333603" r="2" style="fill: steelblue;"></circle><circle cx="65.16723599698808" cy="39.15930092334747" r="2" style="fill: steelblue;"></circle><circle cx="41.36372829476993" cy="72.2841277718544" r="2" style="fill: steelblue;"></circle><circle cx="62.41334742969937" cy="49.20845724409446" r="2" style="fill: steelblue;"></circle><circle cx="66.57117207845053" cy="20.46196460723877" r="2" style="fill: steelblue;"></circle><circle cx="61.72122657299042" cy="40.52524846047163" r="2" style="fill: steelblue;"></circle><circle cx="34.16183690230052" cy="33.523210510611534" r="2" style="fill: steelblue;"></circle><circle cx="34.15475388367971" cy="74.43329989910126" r="2" style="fill: steelblue;"></circle><circle cx="54.519495368003845" cy="82.84220397472382" r="2" style="fill: steelblue;"></circle><circle cx="30.824113388856254" cy="49.497137614525855" r="2" style="fill: steelblue;"></circle><circle cx="16.853439476754932" cy="69.30957101285458" r="2" style="fill: steelblue;"></circle><circle cx="37.35419048203363" cy="85.52611544728279" r="2" style="fill: steelblue;"></circle><circle cx="51.67142318354713" cy="66.90536737442017" r="2" style="fill: steelblue;"></circle></g></svg>