<svg xmlns="http://www.w3.org/2000/svg"><g><circle cx="60.809774117337334" cy="87.34838590025902" r="2" style="fill: steelblue;"></circle><circle cx="43.500415152973595" cy="88.91583159565926" r="2" style="fill: steelblue;"></circle><circle cx="44.9428293440077" cy="59.20906011015177" r="2" style="fill: steelblue;"></circle><circle cx="39.483941263622704" cy="65.92571288347244" r="2" style="fill: steelblue;"></circle><circle cx="17.428275611665516" cy="75.12067183852196" r="2" style="fill: steelblue;"></circle><circle cx="44.25669130351808" cy="89.68626260757446" r="2" style="fill: steelblue;"></circle><circle cx="67.14345680342781" cy="59.455129504203796" r="2" style="fill: steelblue;"></circle><circle cx="35.38847797446781" cy="13.272728025913239" r="2" style="fill: steelblue;"></circle><circle cx="43.548867934279976" cy="32.06811770796776" r="2" style="fill: steelblue;"></circle><circle cx="85.17070280181038" cy="50.021686777472496" r="2" style="fill: steelblue;"></circle><circle cx="51.29135358664725" cy="60.51867287606001" r="2" style="fill: steelblue;"></circle><circle cx="63.67455588446723" cy="81.09368868172169" r="2" style="fill: steelblue;"></circle><circle cx="37.162939707438156" cy="43.56872122734785" r="2" style="fill: steelblue;"></circle><circle cx="41.23287399609883" cy="29.751376435160637" r="2" style="fill: steelblue;"></circle><circle cx="43.39102076159583" cy="50.82286534598097" r="2" style="fill: steelblue;"></circle><circle cx="10.573731528388128" cy="44.53390669077635" r="2" style="fill: steelblue;"></circle><circle cx="64.64185731278526" cy="73.48189987242222" r="2" style="fill: steelblue;"></circle><circle cx="73.04871247874367" cy="71.99985459446907" r="2" style="fill: steelblue;"></circle><circle cx="63.68368201785617" cy="32.74998553097248" r="2" style="fill: steelblue;"></circle><circle cx="70.44068806701236" cy="61.94294076412916" r="2" style="fill: steelblue;"></circle><circle cx="91.47618214289346" cy="45.383049827069044" r="2" style="fill: steelblue;"></circle><circle cx="71.00213236278957" cy="59.52615309506655" r="2" style="fill: steelblue;"></circle><circle cx="20.50169971254137" cy="56.50798389688134" r="2" style="fill: steelblue;"></circle><circle cx="36.58006423049503" cy="49.63642182410695" r="2" style="fill: steelblue;"></circle><circle cx="23.029668463601006" cy="38.554769195616245" r="2" style="fill: steelblue;"></circle><circle cx="59.31165690223376" cy="80.80890327692032" r="2" style="fill: steelblue;"></circle><circle cx="36.85839805338117" cy="67.31015369296074" r="2" style="fill: steelblue;"></circle><circle cx="48.086517386966285" cy="62.090965174138546" r="2" style="fill: steelblue;"></circle><circle cx="47.77686049540837" cy="97.86887019872665" r="2" style="fill: steelblue;"></circle><circle cx="75.31297538015578" cy="59.05753765255213" r="2" style="fill: steelblue;"></circle><circle cx="57.01924591428703" cy="45.61102082952857" r="2" style="fill: steelblue;"></circle><circle cx="42.152486741542816" cy="28.544561192393303" r="2" style="fill: steelblue;"></circle><circle cx="79.91413606537712" cy="17.550113797187805" r="2" style="fill: steelblue;"></circle><circle cx="78.10827593008676" cy="34.270837157964706" r="2" style="fill: steelblue;"></circle><circle cx="57.727853871054116" cy="38.45733515918255" r="2" style="fill: steelblue;"></circle><circle cx="51.41069243351618" cy="60.98786201328039" r="2" style="fill: steelblue;"></circle><circle cx="22.9609575536516" cy="65.75122401118279" r="2" style="fill: steelblue;"></circle><circle cx="35.91904871993595" cy="61.013152077794075" r="2" style="fill: steelblue;"></circle><circle cx="26.29623148176405" cy="80.181385576725" r="2" style="fill: steelblue;"></circle><circle cx="27.399834659364487" cy="95.17221078276634" r="2" style="fill: steelblue;"></circle><circle cx="42.560605539215935" cy="61.79343368858099" r="2" style="fill: steelblue;"></circle><circle cx="73.23181960317824" cy="25.836262106895447" r="2" style="fill: steelblue;"></circle><circle cx="53.27507667243481" cy="34.115494415163994" r="2" style="fill: steelblue;"></circle><circle cx="77.63937612374623" cy="20.615943893790245" r="2" style="fill: steelblue;"></circle><circle cx="64.86672990851932" cy="25.150415673851967" r="2" style="fill: steelblue;"></circle><circle cx="83.59100421269734" cy="32.1682907640934" r="2" style="fill: steelblue;"></circle><circle cx="82.65288174152374" cy="21.80604189634323" r="2" style="fill: steelblue;"></circle><circle cx="33.589081631766426" cy="90.40727391839027" r="2" style="fill: steelblue;"></circle><circle cx="25.920381148656208" cy="44.49213547632098" r="2" style="fill: steelblue;"></circle><circle cx="56.406151658544935" cy="81.62834420800209" r="2" style="fill: steelblue;"></circle><circle cx="11.114345656500921" cy="93.05313155055046" r="2" style="fill: steelblue;"></circle><circle cx="37.69447737269932" cy="92.96514764428139" r="2" style="fill: steelblue;"></circle><circle cx="55.27067518172165" cy="53.809534944593906" r="2" style="fill: steelblue;"></circle><circle cx="45.71141882075204" cy="47.204527258872986" r="2" style="fill: steelblue;"></circle><circle cx="55.674955067742204" cy="62.31063436716795" r="2" style="fill: steelblue;"></circle><circle cx="40.55677188767327" cy="98.4241284430027" r="2" style="fill: steelblue;"></circle><circle cx="64.95812121364806" cy="52.32514529488981" r="2" style="fill: steelblue;"></circle><circle cx="44.17120996448728" cy="54.787360318005085" r="2" style="fill: steelblue;"></circle><circle cx="52.96622692710823" cy="59.9310539662838" r="2" style="fill: steelblue;"></circle><circle cx="34.58301060729557" cy="80.52533976733685" r="2" style="fill: steelblue;"></circle><circle cx="42.01106975475947" cy="33.954884111881256" r="2" style="fill: steelblue;"></circle><circle cx="24.85860718621148" cy="82.19080343842506" r="2" style="fill: steelblue;"></circle><circle cx="11.093609862857393" cy="90.1097722351551" r="2" style="fill: steelblue;"></circle><circle cx="61.138675444655945" cy="73.0861809104681" r="2" style="fill: steelblue;"></circle><circle cx="38.31082748042213" cy="75.44676698744297" r="2" style="fill: steelblue;"></circle><circle cx="35.415462321705284" cy="94.04871538281441" r="2" style="fill: steelblue;"></circle><circle cx="39.276202519734696" cy="85.24000197649002" r="2" style="fill: steelblue;"></circle><circle cx="39.6735817193985" cy="34.54700503498316" r="2" style="fill: steelblue;"></circle><circle cx="45.704940954844155" cy="99.3752658367157" r="2" style="fill: steelblue;"></circle><circle cx="29.176534877883064" cy="48.98252123966813" r="2" style="fill: steelblue;"></circle><circle cx="31.402700477176243" cy="69.00122687220573" r="2" style="fill: steelblue;"></circle><circle cx="55.57740396761801" cy="30.054890736937523" r="2" style="fill: steelblue;"></circle><circle cx="81.08822504679361" cy="20.89478373527527" r="2" style="fill: steelblue;"></circle><circle cx="78.22425001197391" cy="24.231623113155365" r="2" style="fill: steelblue;"></circle><circle cx="62.68673472934299" cy="21.886267885565758" r="2" style="fill: steelblue;"></circle><circle cx="76.74562931060791" cy="14.091554284095764" r="2" style="fill: steelblue;"></circle><circle cx="52.849069237709045" cy="39.670317620038986" r="2" style="fill: steelblue;"></circle><circle cx="58.81216459804111" cy="35.47976650297642" r="2" style="fill: steelblue;"></circle><circle cx="83.99431573020088" cy="36.94395273923874" r="2" style="fill: steelblue;"></circle><circle cx="80.83616197109222" cy="12.612118571996689" r="2" style="fill: steelblue;"></circle><circle cx="53.282964353760086" cy="16.314472258090973" r="2" style="fill: steelblue;"></circle><circle cx="64.6984866923756" cy="3.130904585123062" r="2" style="fill: steelblue;"></circle><circle cx="66.1972098880344" cy="10.529807955026627" r="2" style="fill: steelblue;"></circle><circle cx="55.83246070374217" cy="53.866005688905716" r="2" style="fill: steelblue;"></circle><circle cx="33.39628709687127" cy="73.79694022238255" r="2" style="fill: steelblue;"></circle><circle cx="36.171398229069176" cy="76.96487307548523" r="2" style="fill: steelblue;"></circle><circle cx="48.45391462246577" cy="55.835901480168104" r="2" style="fill: steelblue;"></circle><circle cx="52.98480908903811" cy="55.37273986265063" r="2" style="fill: steelblue;"></circle><circle cx="43.060484859678475" cy="61.827089823782444" r="2" style="fill: steelblue;"></circle><circle cx="78.00716989570194" cy="24.99481961131096" r="2" style="fill: steelblue;"></circle><circle cx="88.81832162539163" cy="38.73646277934313" r="2" style="fill: steelblue;"></circle><circle cx="50.97296875384119" cy="3.5826295614242554" r="2" style="fill: steelblue;"></circle><circle cx="80.88709082868364" cy="43.92343498766422" r="2" style="fill: steelblue;"></circle><circle cx="55.88680940369765" cy="6.026922911405563" r="2" style="fill: steelblue;"></circle><circle cx="71.08545137776268" cy="26.760772988200188" r="2" style="fill: steelblue;"></circle><circle cx="84.43100916014778" cy="0.5602903664112091" r="2" style="fill: steelblue;"></circle><circle cx="78.79716820187038" cy="46.501375222578645" r="2" style="fill: steelblue;"></circle><circle cx="77.66645815637376" cy="43.8609329983592" r="2" style="fill: steelblue;"></circle><circle cx="73.10333351294199" cy="39.65898994356394" r="2" style="fill: steelblue;"></circle><circle cx="66.66243159108691" cy="35.651553608477116" r="2" style="fill: steelblue;"></circle><circle cx="62.026496562692856" cy="35.78757420182228" r="2" style="fill: steelblue;"></circle><circle cx="70.36380304230583" cy="23.305106163024902" r="2" style="fill: steelblue;"></circle><circle cx="63.75405109590954" cy="51.333690830506384" r="2" style="fill: steelblue;"></circle><circle cx="63.2455481423272" cy="29.370644316077232" r="2" style="fill: steelblue;"></circle><circle cx="93.00323989656236" cy="38.69871906936169" r="2" style="fill: steelblue;"></circle><circle cx="72.25817773077223" cy="91.48688167333603" r="2" style="fill: steelblue;"></circle><circle cx="75.92916488647461" cy="39.15930092334747" r="2" style="fill: steelblue;"></circle><circle cx="62.81123227543301" cy="72.2841277718544" r="2" style="fill: steelblue;"></circle><circle cx="60.50229776236746" cy="49.20845724409446" r="2" style="fill: steelblue;"></circle><circle cx="67.82942844761742" cy="20.46196460723877" r="2" style="fill: steelblue;"></circle><circle cx="75.74828465779622" cy="40.52524846047163" r="2" style="fill: steelblue;"></circle><circle cx="72.48875167634752" cy="33.523210510611534" r="2" style="fill: steelblue;"></circle><circle cx="34.563615918159485" cy="74.43329989910126" r="2" style="fill: steelblue;"></circle><circle cx="48.4941162996822" cy="82.84220397472382" r="2" style="fill: steelblue;"></circle><circle cx="23.62560894754198" cy="49.497137614525855" r="2" style="fill: steelblue;"></circle><circle cx="18.066710895962185" cy="69.30957101285458" r="2" style="fill: steelblue;"></circle><circle cx="30.599542789989048" cy="85.52611544728279" r="2" style="fill: steelblue;"></circle><circle cx="73.16191991170248" cy="66.90536737442017" r="2" style="fill: steelblue;"></circle></g></svg>