<svg xmlns="http://www.w3.org/2000/svg"><g transform="translate(40,20)"><circle cx="280.73914736509323" cy="70.68398334085941" r="3" style="fill: steelblue;"></circle><circle cx="325.7203423976898" cy="205.0846742466092" r="3" style="fill: steelblue;"></circle><circle cx="288.39540123939514" cy="176.97226664749905" r="3" style="fill: steelblue;"></circle><circle cx="384.0794259309769" cy="39.74576219916344" r="3" style="fill: steelblue;"></circle><circle cx="157.85828769207" cy="88.87265454977751" r="3" style="fill: steelblue;"></circle><circle cx="370.39585053920746" cy="107.55477491766214" r="3" style="fill: steelblue;"></circle><circle cx="376.1918896436691" cy="140.50105139613152" r="3" style="fill: steelblue;"></circle><circle cx="471.47521018981934" cy="65.0139108300209" r="3" style="fill: steelblue;"></circle><circle cx="364.12584722042084" cy="100.54112896323204" r="3" style="fill: steelblue;"></circle><circle cx="277.9044994711876" cy="118.91793943941593" r="3" style="fill: steelblue;"></circle><circle cx="412.81184792518616" cy="14.803680777549744" r="3" style="fill: steelblue;"></circle><circle cx="464.4302988052368" cy="85.86972784250975" r="3" style="fill: steelblue;"></circle><circle cx="283.6656430363655" cy="98.61380811780691" r="3" style="fill: steelblue;"></circle><circle cx="357.7128195762634" cy="139.28402652963996" r="3" style="fill: steelblue;"></circle><circle cx="327.6007318496704" cy="145.9726059809327" r="3" style="fill: steelblue;"></circle><circle cx="480.19453525543213" cy="161.55206232797354" r="3" style="fill: steelblue;"></circle><circle cx="347.18499720096594" cy="281.54055047780275" r="3" style="fill: steelblue;"></circle><circle cx="289.28098171949387" cy="147.52276167273521" r="3" style="fill: steelblue;"></circle><circle cx="305.9966826438904" cy="69.84101068228483" r="3" style="fill: steelblue;"></circle><circle cx="333.19725036621094" cy="244.42648626863956" r="3" style="fill: steelblue;"></circle><circle cx="315.7950961589813" cy="57.34054856002331" r="3" style="fill: steelblue;"></circle><circle cx="177.51145899295807" cy="283.25079306960106" r="3" style="fill: steelblue;"></circle><circle cx="243.85683076456192" cy="29.996198788285255" r="3" style="fill: steelblue;"></circle><circle cx="152.60022819042206" cy="35.4656346142292" r="3" style="fill: steelblue;"></circle><circle cx="329.51245844364166" cy="105.1833426579833" r="3" style="fill: steelblue;"></circle><circle cx="311.04959338903427" cy="257.4866592884064" r="3" style="fill: steelblue;"></circle><circle cx="73.1847667694092" cy="148.26657152734697" r="3" style="fill: steelblue;"></circle><circle cx="293.54911834001547" cy="102.5325732305646" r="3" style="fill: steelblue;"></circle><circle cx="191.25918835401535" cy="215.66423699259758" r="3" style="fill: steelblue;"></circle><circle cx="188.58030080795288" cy="183.24656640179455" r="3" style="fill: steelblue;"></circle><circle cx="285.79347521066666" cy="173.76964803843293" r="3" style="fill: steelblue;"></circle><circle cx="205.46393260359764" cy="208.91736233606935" r="3" style="fill: steelblue;"></circle><circle cx="228.55915479362014" cy="133.04887125268579" r="3" style="fill: steelblue;"></circle><circle cx="206.1751113831997" cy="116.11420214176178" r="3" style="fill: steelblue;"></circle><circle cx="271.10907822847366" cy="163.77299181185663" r="3" style="fill: steelblue;"></circle><circle cx="254.58742395043373" cy="180.8594467700459" r="3" style="fill: steelblue;"></circle><circle cx="202.93140649795535" cy="239.45269007235765" r="3" style="fill: steelblue;"></circle><circle cx="138.1953710317612" cy="118.80864407867193" r="3" style="fill: steelblue;"></circle><circle cx="381.22965037822723" cy="200.63661709427834" r="3" style="fill: steelblue;"></circle><circle cx="42.527636289596565" cy="164.78554992936552" r="3" style="fill: steelblue;"></circle><circle cx="194.2748138308525" cy="138.83559610694647" r="3" style="fill: steelblue;"></circle><circle cx="85.99424600601198" cy="139.70151329413056" r="3" style="fill: steelblue;"></circle><circle cx="296.9583088159561" cy="220.1177996583283" r="3" style="fill: steelblue;"></circle><circle cx="168.76454740762713" cy="203.75557355582714" r="3" style="fill: steelblue;"></circle><circle cx="274.1983996331692" cy="215.75766447931528" r="3" style="fill: steelblue;"></circle><circle cx="31.473573446273814" cy="215.0618640705943" r="3" style="fill: steelblue;"></circle><circle cx="142.18151807785034" cy="333.71659107506275" r="3" style="fill: steelblue;"></circle><circle cx="173.0852374434471" cy="173.59361656126566" r="3" style="fill: steelblue;"></circle><circle cx="110.71467339992525" cy="274.6172549203038" r="3" style="fill: steelblue;"></circle><circle cx="148.42984914779663" cy="217.8871214389801" r="3" style="fill: steelblue;"></circle><circle cx="130.58222472667697" cy="194.56952014006674" r="3" style="fill: steelblue;"></circle><circle cx="228.9275662600994" cy="152.03466680832207" r="3" style="fill: steelblue;"></circle><circle cx="79.87585902214052" cy="189.34785360470414" r="3" style="fill: steelblue;"></circle><circle cx="135.81981897354126" cy="99.87459350377321" r="3" style="fill: steelblue;"></circle><circle cx="98.0841511487961" cy="326.7697349190712" r="3" style="fill: steelblue;"></circle><circle cx="106.82412028312683" cy="253.86045891791582" r="3" style="fill: steelblue;"></circle><circle cx="104.14869725704193" cy="216.02473566308618" r="3" style="fill: steelblue;"></circle><circle cx="183.5532331466675" cy="226.35559849441051" r="3" style="fill: steelblue;"></circle><circle cx="64.48552250862123" cy="234.38581842929125" r="3" style="fill: steelblue;"></circle><circle cx="228.1574895232916" cy="233.7938567623496" r="3" style="fill: steelblue;"></circle><circle cx="199.704065322876" cy="91.1583911627531" r="3" style="fill: steelblue;"></circle><circle cx="404.57122564315796" cy="141.35532844811678" r="3" style="fill: steelblue;"></circle><circle cx="279.6971493959427" cy="62.870561331510544" r="3" style="fill: steelblue;"></circle><circle cx="373.3394855260849" cy="90.37684947252274" r="3" style="fill: steelblue;"></circle><circle cx="335.2031135559082" cy="36.796097829937935" r="3" style="fill: steelblue;"></circle><circle cx="388.7956076860428" cy="60.95788925886154" r="3" style="fill: steelblue;"></circle><circle cx="364.7229605913162" cy="232.8309427946806" r="3" style="fill: steelblue;"></circle><circle cx="189.8639926314354" cy="49.99689124524593" r="3" style="fill: steelblue;"></circle><circle cx="158.09021830558777" cy="117.1606082469225" r="3" style="fill: steelblue;"></circle><circle cx="330.6309932470322" cy="35.548702999949455" r="3" style="fill: steelblue;"></circle><circle cx="353.003146648407" cy="77.93086878955364" r="3" style="fill: steelblue;"></circle><circle cx="264.40629601478577" cy="158.30159042961895" r="3" style="fill: steelblue;"></circle><circle cx="110.36507427692415" cy="221.64987744763494" r="3" style="fill: steelblue;"></circle><circle cx="105.78404903411867" cy="265.57238418608904" r="3" style="fill: steelblue;"></circle><circle cx="171.40087723731995" cy="161.15735629573464" r="3" style="fill: steelblue;"></circle><circle cx="124.24167931079866" cy="254.28986940532923" r="3" style="fill: steelblue;"></circle><circle cx="156.62934422492984" cy="282.56377410143614" r="3" style="fill: steelblue;"></circle><circle cx="122.44428634643556" cy="346.1387112736702" r="3" style="fill: steelblue;"></circle><circle cx="164.64669942855835" cy="242.38958321511745" r="3" style="fill: steelblue;"></circle><circle cx="306.42108857631683" cy="323.19067530333996" r="3" style="fill: steelblue;"></circle><circle cx="149.0152680873871" cy="236.42023764550686" r="3" style="fill: steelblue;"></circle><circle cx="33.38341355323793" cy="191.06016932055354" r="3" style="fill: steelblue;"></circle><circle cx="204.1522318124771" cy="275.95090605318546" r="3" style="fill: steelblue;"></circle><circle cx="219.82205897569656" cy="151.00667597725987" r="3" style="fill: steelblue;"></circle><circle cx="316.0879397392273" cy="158.93527697771788" r="3" style="fill: steelblue;"></circle><circle cx="256.21415354311466" cy="84.94489938020706" r="3" style="fill: steelblue;"></circle><circle cx="112.89674878120422" cy="64.09541256725788" r="3" style="fill: steelblue;"></circle><circle cx="324.0222090482712" cy="151.44837363623083" r="3" style="fill: steelblue;"></circle><circle cx="291.50590538978577" cy="104.08746842294931" r="3" style="fill: steelblue;"></circle><circle cx="420.64831495285034" cy="59.02824103832245" r="3" style="fill: steelblue;"></circle><circle cx="368.66511940956116" cy="117.28362664580345" r="3" style="fill: steelblue;"></circle><circle cx="448.39948654174805" cy="203.5648526623845" r="3" style="fill: steelblue;"></circle><circle cx="177.74475306272507" cy="38.67896385490894" r="3" style="fill: steelblue;"></circle><circle cx="344.58617806434637" cy="91.55018553137779" r="3" style="fill: steelblue;"></circle><circle cx="105.52476882934572" cy="253.85898556560278" r="3" style="fill: steelblue;"></circle><circle cx="7.37288832664491" cy="261.6290479898453" r="3" style="fill: steelblue;"></circle><circle cx="132.32507944107056" cy="291.2219028919935" r="3" style="fill: steelblue;"></circle><circle cx="206.62520840764046" cy="206.07489086687565" r="3" style="fill: steelblue;"></circle><circle cx="82.85790324211122" cy="251.54026802629232" r="3" style="fill: steelblue;"></circle><circle cx="11.965330839157117" cy="74.18285608291626" r="3" style="fill: steelblue;"></circle><circle cx="181.6810154914856" cy="102.36987210810184" r="3" style="fill: steelblue;"></circle><circle cx="71.00906610488893" cy="215.3374950401485" r="3" style="fill: steelblue;"></circle><circle cx="66.80768966674806" cy="214.62636459618807" r="3" style="fill: steelblue;"></circle><circle cx="341.5916705131531" cy="272.11404889822006" r="3" style="fill: steelblue;"></circle><circle cx="337.4797546863556" cy="211.95829957723618" r="3" style="fill: steelblue;"></circle><circle cx="184.68176811933517" cy="207.41901518777013" r="3" style="fill: steelblue;"></circle><circle cx="320.5165797472" cy="78.05852890014648" r="3" style="fill: steelblue;"></circle><circle cx="384.4419175386429" cy="230.28616346418858" r="3" style="fill: steelblue;"></circle><circle cx="400.55206060409546" cy="73.38838018476963" r="3" style="fill: steelblue;"></circle><circle cx="333.77979040145874" cy="89.44787476211786" r="3" style="fill: steelblue;"></circle><circle cx="466.1682629585266" cy="139.27659783512354" r="3" style="fill: steelblue;"></circle><circle cx="301.56173944473267" cy="147.38855948671699" r="3" style="fill: steelblue;"></circle><circle cx="243.19173065945506" cy="279.0049893781543" r="3" style="fill: steelblue;"></circle><circle cx="353.8651102781296" cy="336.56742349267006" r="3" style="fill: steelblue;"></circle><circle cx="220.86397647857666" cy="247.43874203413725" r="3" style="fill: steelblue;"></circle><circle cx="119.74095046520233" cy="276.93129163235426" r="3" style="fill: steelblue;"></circle><circle cx="213.69678765535357" cy="259.3579340726137" r="3" style="fill: steelblue;"></circle><circle cx="95.99518418312074" cy="236.88821606338024" r="3" style="fill: steelblue;"></circle></g></svg>