<svg xmlns="http://www.w3.org/2000/svg"><g><circle cx="14.455294609069824" cy="68.40433776378632" r="2" style="fill: steelblue;"></circle><circle cx="50.79420683905482" cy="85.63632037904527" r="2" style="fill: steelblue;"></circle><circle cx="33.27045738697052" cy="59.75811117225223" r="2" style="fill: steelblue;"></circle><circle cx="18.192291259765625" cy="36.254936787817215" r="2" style="fill: steelblue;"></circle><circle cx="34.84492748975754" cy="68.06416246626112" r="2" style="fill: steelblue;"></circle><circle cx="63.26363533735275" cy="64.23604753282335" r="2" style="fill: steelblue;"></circle><circle cx="24.96059536933899" cy="31.982428663306774" r="2" style="fill: steelblue;"></circle><circle cx="60.51061674952507" cy="46.96550650729073" r="2" style="fill: steelblue;"></circle><circle cx="34.012214839458466" cy="47.299008982049095" r="2" style="fill: steelblue;"></circle><circle cx="37.13478595018387" cy="28.345140483644272" r="2" style="fill: steelblue;"></circle><circle cx="58.56676027178764" cy="53.757917715443504" r="2" style="fill: steelblue;"></circle><circle cx="40.83548113703728" cy="34.996179408497284" r="2" style="fill: steelblue;"></circle><circle cx="51.101985946297646" cy="62.291283739937676" r="2" style="fill: steelblue;"></circle><circle cx="33.30651968717575" cy="72.12312122186025" r="2" style="fill: steelblue;"></circle><circle cx="42.061732709407806" cy="41.80290235413445" r="2" style="fill: steelblue;"></circle><circle cx="13.740023970603943" cy="18.74540514416165" r="2" style="fill: steelblue;"></circle><circle cx="44.281017780303955" cy="84.33006472057767" r="2" style="fill: steelblue;"></circle><circle cx="30.20695447921753" cy="76.72495908207364" r="2" style="fill: steelblue;"></circle><circle cx="64.14172500371933" cy="32.62800160381529" r="2" style="fill: steelblue;"></circle><circle cx="72.31239527463913" cy="46.97572622034285" r="2" style="fill: steelblue;"></circle><circle cx="66.16838127374649" cy="28.990764750374687" r="2" style="fill: steelblue;"></circle><circle cx="32.03022927045822" cy="51.080228719446396" r="2" style="fill: steelblue;"></circle><circle cx="37.95551881194115" cy="24.713960952228973" r="2" style="fill: steelblue;"></circle><circle cx="38.87124061584473" cy="51.36492037110858" r="2" style="fill: steelblue;"></circle><circle cx="16.813132166862488" cy="19.510306583510506" r="2" style="fill: steelblue;"></circle><circle cx="55.79223595559597" cy="47.07406436403593" r="2" style="fill: steelblue;"></circle><circle cx="33.18971544504166" cy="70.70827583471934" r="2" style="fill: steelblue;"></circle><circle cx="48.63825226202607" cy="46.39259887238344" r="2" style="fill: steelblue;"></circle><circle cx="18.0417001247406" cy="62.609226504961654" r="2" style="fill: steelblue;"></circle><circle cx="65.67257046699524" cy="62.35476599799262" r="2" style="fill: steelblue;"></circle><circle cx="60.840655118227005" cy="28.892307811313213" r="2" style="fill: steelblue;"></circle><circle cx="72.47530072927475" cy="37.94409806529681" r="2" style="fill: steelblue;"></circle><circle cx="73.06648790836334" cy="45.6528572158681" r="2" style="fill: steelblue;"></circle><circle cx="48.41947853565216" cy="52.9027897450659" r="2" style="fill: steelblue;"></circle><circle cx="56.01290389895439" cy="34.17076766490936" r="2" style="fill: steelblue;"></circle><circle cx="58.09464007616043" cy="67.79439515537686" r="2" style="fill: steelblue;"></circle><circle cx="40.8977136015892" cy="14.983312288920093" r="2" style="fill: steelblue;"></circle><circle cx="42.74080619215965" cy="52.67490131987466" r="2" style="fill: steelblue;"></circle><circle cx="26.266349852085114" cy="37.69014171428151" r="2" style="fill: steelblue;"></circle><circle cx="47.48634807765484" cy="29.91050581137339" r="2" style="fill: steelblue;"></circle><circle cx="72.45334386825562" cy="39.5460006263521" r="2" style="fill: steelblue;"></circle><circle cx="75.39635896682739" cy="12.184854348500574" r="2" style="fill: steelblue;"></circle><circle cx="56.088144704699516" cy="22.288035353024803" r="2" style="fill: steelblue;"></circle><circle cx="68.36737394332886" cy="40.2879203359286" r="2" style="fill: steelblue;"></circle><circle cx="55.74011541903019" cy="31.24043610360887" r="2" style="fill: steelblue;"></circle><circle cx="75.50442218780518" cy="26.83508495489756" r="2" style="fill: steelblue;"></circle><circle cx="31.662018597126007" cy="45.08152889708678" r="2" style="fill: steelblue;"></circle><circle cx="19.14512813091278" cy="66.94790654712253" r="2" style="fill: steelblue;"></circle><circle cx="24.706822633743286" cy="57.74621185329225" r="2" style="fill: steelblue;"></circle><circle cx="20.553845167160034" cy="69.92750300301445" r="2" style="fill: steelblue;"></circle><circle cx="54.40408103168011" cy="56.81790759166082" r="2" style="fill: steelblue;"></circle><circle cx="19.98373568058014" cy="37.121142115857864" r="2" style="fill: steelblue;"></circle><circle cx="37.879637628793716" cy="38.25342423386044" r="2" style="fill: steelblue;"></circle><circle cx="45.10496035218239" cy="52.61044220791923" r="2" style="fill: steelblue;"></circle><circle cx="57.936666905879974" cy="12.804928090837265" r="2" style="fill: steelblue;"></circle><circle cx="32.34524875879288" cy="46.850228640768265" r="2" style="fill: steelblue;"></circle><circle cx="54.21577990055084" cy="51.227359887626434" r="2" style="fill: steelblue;"></circle><circle cx="36.93167269229889" cy="53.78307501475017" r="2" style="fill: steelblue;"></circle><circle cx="66.23155474662781" cy="79.56427269511752" r="2" style="fill: steelblue;"></circle><circle cx="38.17470893263817" cy="72.91140092743767" r="2" style="fill: steelblue;"></circle><circle cx="19.64544653892517" cy="70.99287807941437" r="2" style="fill: steelblue;"></circle><circle cx="25.794024765491486" cy="56.52818928162257" r="2" style="fill: steelblue;"></circle><circle cx="4.609659314155579" cy="50.26704834567176" r="2" style="fill: steelblue;"></circle><circle cx="7.538917660713196" cy="60.41507356696658" r="2" style="fill: steelblue;"></circle><circle cx="38.16690444946289" cy="90.76388610733879" r="2" style="fill: steelblue;"></circle><circle cx="24.971702694892883" cy="72.80553645557828" r="2" style="fill: steelblue;"></circle><circle cx="23.917585611343384" cy="66.55080715815227" r="2" style="fill: steelblue;"></circle><circle cx="60.450179874897" cy="73.56570098135207" r="2" style="fill: steelblue;"></circle><circle cx="17.391332983970642" cy="84.20376247829861" r="2" style="fill: steelblue;"></circle><circle cx="47.57793713361025" cy="66.88412792152829" r="2" style="fill: steelblue;"></circle><circle cx="14.643409848213196" cy="63.034361600875854" r="2" style="fill: steelblue;"></circle><circle cx="64.3913671374321" cy="17.37601823276944" r="2" style="fill: steelblue;"></circle><circle cx="61.11847534775734" cy="66.23513930373721" r="2" style="fill: steelblue;"></circle><circle cx="77.02809870243073" cy="24.561262130737305" r="2" style="fill: steelblue;"></circle><circle cx="53.05855888873339" cy="40.77084047926797" r="2" style="fill: steelblue;"></circle><circle cx="45.89683152735233" cy="54.824247294002106" r="2" style="fill: steelblue;"></circle><circle cx="72.8761613368988" cy="59.60904492272271" r="2" style="fill: steelblue;"></circle><circle cx="53.77677530050278" cy="66.63765443695915" r="2" style="fill: steelblue;"></circle><circle cx="47.96872306615114" cy="31.591770715183685" r="2" style="fill: steelblue;"></circle><circle cx="64.6350085735321" cy="44.499813000826784" r="2" style="fill: steelblue;"></circle><circle cx="74.67431426048279" cy="20.504442519611786" r="2" style="fill: steelblue;"></circle><circle cx="92.24546253681183" cy="3.5626815425025105" r="2" style="fill: steelblue;"></circle><circle cx="56.61469027400017" cy="44.66424205650886" r="2" style="fill: steelblue;"></circle><circle cx="40.535734593868256" cy="53.92205235030916" r="2" style="fill: steelblue;"></circle><circle cx="34.10608768463135" cy="49.2409879134761" r="2" style="fill: steelblue;"></circle><circle cx="41.484442353248596" cy="50.392122483915756" r="2" style="fill: steelblue;"></circle><circle cx="47.25682307034731" cy="54.309877422120834" r="2" style="fill: steelblue;"></circle><circle cx="66.40995591878891" cy="63.948486579789055" r="2" style="fill: steelblue;"></circle><circle cx="56.730351597070694" cy="31.729686756928764" r="2" style="fill: steelblue;"></circle><circle cx="59.373778104782104" cy="35.06112943092982" r="2" style="fill: steelblue;"></circle><circle cx="55.32130151987076" cy="56.624330745802986" r="2" style="fill: steelblue;"></circle><circle cx="63.79447430372238" cy="37.64854595065117" r="2" style="fill: steelblue;"></circle><circle cx="49.69175551086664" cy="28.710548414124382" r="2" style="fill: steelblue;"></circle><circle cx="52.33028568327427" cy="19.16279329193963" r="2" style="fill: steelblue;"></circle><circle cx="55.59246987104416" cy="23.2939084370931" r="2" style="fill: steelblue;"></circle><circle cx="58.97243693470955" cy="52.053687638706634" r="2" style="fill: steelblue;"></circle><circle cx="61.074621975421906" cy="0.8299840821160198" r="2" style="fill: steelblue;"></circle><circle cx="34.71137881278992" cy="52.65890823470222" r="2" style="fill: steelblue;"></circle><circle cx="68.5273602604866" cy="26.832977268430923" r="2" style="fill: steelblue;"></circle><circle cx="65.68276137113571" cy="76.37491424878439" r="2" style="fill: steelblue;"></circle><circle cx="49.95317311550025" cy="53.27381706900067" r="2" style="fill: steelblue;"></circle><circle cx="56.92307651042938" cy="53.328137596448265" r="2" style="fill: steelblue;"></circle><circle cx="66.40593707561493" cy="27.140197820133636" r="2" style="fill: steelblue;"></circle><circle cx="85.61111092567444" cy="22.857065995534263" r="2" style="fill: steelblue;"></circle><circle cx="79.703289270401" cy="85.36538746621873" r="2" style="fill: steelblue;"></circle><circle cx="73.63985180854797" cy="18.77427366044786" r="2" style="fill: steelblue;"></circle><circle cx="72.54918068647385" cy="43.373119251595604" r="2" style="fill: steelblue;"></circle><circle cx="64.80840742588043" cy="36.92866464455923" r="2" style="fill: steelblue;"></circle><circle cx="58.88036862015724" cy="37.8787593709098" r="2" style="fill: steelblue;"></circle><circle cx="41.68143644928932" cy="11.962992615169954" r="2" style="fill: steelblue;"></circle><circle cx="70.68994045257568" cy="61.383034785588585" r="2" style="fill: steelblue;"></circle><circle cx="53.10046374797821" cy="42.978637086020576" r="2" style="fill: steelblue;"></circle><circle cx="20.425590872764587" cy="63.6735286977556" r="2" style="fill: steelblue;"></circle><circle cx="57.62682631611824" cy="77.33636365996468" r="2" style="fill: steelblue;"></circle><circle cx="33.58806073665619" cy="77.76108317905002" r="2" style="fill: steelblue;"></circle><circle cx="40.21695479750633" cy="71.27936283747356" r="2" style="fill: steelblue;"></circle><circle cx="27.112555503845215" cy="64.0561044216156" r="2" style="fill: steelblue;"></circle><circle cx="53.40318977832794" cy="60.17238001028697" r="2" style="fill: steelblue;"></circle></g></svg>