<svg xmlns="http://www.w3.org/2000/svg"><rect width="200" height="200" fill="white"></rect><g><circle cx="45.8075761795044" cy="101.05227646417916" r="2" style="fill: steelblue;"></circle><circle cx="75.74971802532673" cy="109.38380509614944" r="2" style="fill: steelblue;"></circle><circle cx="80.91256432235241" cy="116.64752513170242" r="2" style="fill: steelblue;"></circle><circle cx="119.01168935000896" cy="124.04522337019444" r="2" style="fill: steelblue;"></circle><circle cx="47.278875857591636" cy="148.82345348596573" r="2" style="fill: steelblue;"></circle><circle cx="125.4985224455595" cy="106.26224838197231" r="2" style="fill: steelblue;"></circle><circle cx="85.67987512797117" cy="121.0596639662981" r="2" style="fill: steelblue;"></circle><circle cx="145.82545906305313" cy="109.13601368665695" r="2" style="fill: steelblue;"></circle><circle cx="28.359456360340126" cy="149.0792952477932" r="2" style="fill: steelblue;"></circle><circle cx="58.69817212224007" cy="105.32843824476004" r="2" style="fill: steelblue;"></circle><circle cx="114.15607333183289" cy="71.94705344736576" r="2" style="fill: steelblue;"></circle><circle cx="67.08068251609802" cy="136.15142032504082" r="2" style="fill: steelblue;"></circle><circle cx="81.80911876261234" cy="154.24632132053375" r="2" style="fill: steelblue;"></circle><circle cx="85.93026772141457" cy="163.18000704050064" r="2" style="fill: steelblue;"></circle><circle cx="21.84127867221833" cy="121.64571546018124" r="2" style="fill: steelblue;"></circle><circle cx="65.1525542140007" cy="184.54257994890213" r="2" style="fill: steelblue;"></circle><circle cx="124.03578720986843" cy="138.2777415215969" r="2" style="fill: steelblue;"></circle><circle cx="154.48181182146072" cy="98.44321084674448" r="2" style="fill: steelblue;"></circle><circle cx="152.05323919653893" cy="123.4603751450777" r="2" style="fill: steelblue;"></circle><circle cx="125.40743537247181" cy="80.38996383547783" r="2" style="fill: steelblue;"></circle><circle cx="145.9514930844307" cy="42.684683948755264" r="2" style="fill: steelblue;"></circle><circle cx="108.55296663939953" cy="62.17051520943642" r="2" style="fill: steelblue;"></circle><circle cx="95.68420322611928" cy="176.08551532030106" r="2" style="fill: steelblue;"></circle><circle cx="63.606759905815125" cy="94.31450571864843" r="2" style="fill: steelblue;"></circle><circle cx="133.20103883743286" cy="144.0410003066063" r="2" style="fill: steelblue;"></circle><circle cx="42.635558545589454" cy="131.5096192061901" r="2" style="fill: steelblue;"></circle><circle cx="59.7652405500412" cy="148.40687662363052" r="2" style="fill: steelblue;"></circle><circle cx="73.78750331699848" cy="112.6907266676426" r="2" style="fill: steelblue;"></circle><circle cx="71.93444892764091" cy="165.6997561454773" r="2" style="fill: steelblue;"></circle><circle cx="165.76640903949738" cy="130.01576848328114" r="2" style="fill: steelblue;"></circle><circle cx="85.86125299334526" cy="103.95849766209722" r="2" style="fill: steelblue;"></circle><circle cx="175.87583363056183" cy="79.33616116642952" r="2" style="fill: steelblue;"></circle><circle cx="189.05957639217377" cy="12.170886993408203" r="2" style="fill: steelblue;"></circle><circle cx="98.60150425229222" cy="115.18828421831131" r="2" style="fill: steelblue;"></circle><circle cx="103.70043027214706" cy="85.65844632685184" r="2" style="fill: steelblue;"></circle><circle cx="91.09783582389355" cy="38.608381897211075" r="2" style="fill: steelblue;"></circle><circle cx="15.169224143028265" cy="92.87491105496883" r="2" style="fill: steelblue;"></circle><circle cx="92.83944303169847" cy="29.0681853890419" r="2" style="fill: steelblue;"></circle><circle cx="39.88148123025895" cy="144.93523761630058" r="2" style="fill: steelblue;"></circle><circle cx="134.5412641763687" cy="151.44771188497543" r="2" style="fill: steelblue;"></circle><circle cx="72.50966355204582" cy="82.23884403705597" r="2" style="fill: steelblue;"></circle><circle cx="129.23827432096004" cy="140.4069870710373" r="2" style="fill: steelblue;"></circle><circle cx="134.5892794430256" cy="32.153940200805664" r="2" style="fill: steelblue;"></circle><circle cx="166.02155417203903" cy="85.53031403571367" r="2" style="fill: steelblue;"></circle><circle cx="184.20298248529434" cy="60.36006882786751" r="2" style="fill: steelblue;"></circle><circle cx="100.59766427148134" cy="45.76074182987213" r="2" style="fill: steelblue;"></circle><circle cx="126.88349410891533" cy="86.83499079197645" r="2" style="fill: steelblue;"></circle><circle cx="35.94763427972794" cy="35.31990051269531" r="2" style="fill: steelblue;"></circle><circle cx="63.358402252197266" cy="144.64765638113022" r="2" style="fill: steelblue;"></circle><circle cx="77.1917387843132" cy="181.14858716726303" r="2" style="fill: steelblue;"></circle><circle cx="125.98714269697666" cy="186.35391294956207" r="2" style="fill: steelblue;"></circle><circle cx="111.58323138952255" cy="138.14688324928284" r="2" style="fill: steelblue;"></circle><circle cx="59.70539003610611" cy="85.27739383280277" r="2" style="fill: steelblue;"></circle><circle cx="23.255339264869697" cy="32.833172380924225" r="2" style="fill: steelblue;"></circle><circle cx="38.50723654031754" cy="101.60842260811478" r="2" style="fill: steelblue;"></circle><circle cx="46.74432277679444" cy="126.39386244118214" r="2" style="fill: steelblue;"></circle><circle cx="77.08231955766678" cy="122.61733263731003" r="2" style="fill: steelblue;"></circle><circle cx="86.64253298193216" cy="122.10870571434498" r="2" style="fill: steelblue;"></circle><circle cx="56.78289234638214" cy="100.69879757938907" r="2" style="fill: steelblue;"></circle><circle cx="79.81655783951283" cy="156.99114874005318" r="2" style="fill: steelblue;"></circle><circle cx="34.82643365859986" cy="131.76014497876167" r="2" style="fill: steelblue;"></circle><circle cx="59.688082337379456" cy="169.49471682310104" r="2" style="fill: steelblue;"></circle><circle cx="49.70129057765008" cy="145.0628623366356" r="2" style="fill: steelblue;"></circle><circle cx="36.84810400009156" cy="144.18356716632843" r="2" style="fill: steelblue;"></circle><circle cx="72.02135622501373" cy="182.41596817970276" r="2" style="fill: steelblue;"></circle><circle cx="3.05959433317185" cy="149.9672293663025" r="2" style="fill: steelblue;"></circle><circle cx="67.23198890686035" cy="106.03020377457142" r="2" style="fill: steelblue;"></circle><circle cx="51.34768262505531" cy="168.15772503614426" r="2" style="fill: steelblue;"></circle><circle cx="35.64192950725556" cy="131.7717120051384" r="2" style="fill: steelblue;"></circle><circle cx="59.56060662865639" cy="171.76002860069275" r="2" style="fill: steelblue;"></circle><circle cx="121.45997621119022" cy="117.46274530887604" r="2" style="fill: steelblue;"></circle><circle cx="128.81999872624874" cy="81.25572316348553" r="2" style="fill: steelblue;"></circle><circle cx="100.15148513193708" cy="59.902167320251465" r="2" style="fill: steelblue;"></circle><circle cx="90.80181960016489" cy="29.32692915201187" r="2" style="fill: steelblue;"></circle><circle cx="123.62513914704323" cy="63.23460340499878" r="2" style="fill: steelblue;"></circle><circle cx="194.76103633642197" cy="62.361570447683334" r="2" style="fill: steelblue;"></circle><circle cx="89.265451207757" cy="16.506320238113403" r="2" style="fill: steelblue;"></circle><circle cx="137.9953272640705" cy="54.80884611606598" r="2" style="fill: steelblue;"></circle><circle cx="132.78323262929916" cy="92.34962649643421" r="2" style="fill: steelblue;"></circle><circle cx="55.86855337023735" cy="16.211828589439392" r="2" style="fill: steelblue;"></circle><circle cx="153.0022829771042" cy="39.130205661058426" r="2" style="fill: steelblue;"></circle><circle cx="199.62736070156097" cy="43.212077021598816" r="2" style="fill: steelblue;"></circle><circle cx="71.68126702308655" cy="32.382166385650635" r="2" style="fill: steelblue;"></circle><circle cx="32.44829028844834" cy="125.38693509995937" r="2" style="fill: steelblue;"></circle><circle cx="92.38132359459996" cy="131.14950843155384" r="2" style="fill: steelblue;"></circle><circle cx="128.885405510664" cy="157.06888064742088" r="2" style="fill: steelblue;"></circle><circle cx="43.37190687656403" cy="52.28967070579529" r="2" style="fill: steelblue;"></circle><circle cx="72.96994179487228" cy="172.20441848039627" r="2" style="fill: steelblue;"></circle><circle cx="70.99843248724937" cy="153.35291102528572" r="2" style="fill: steelblue;"></circle><circle cx="115.11448994278908" cy="15.708027780056" r="2" style="fill: steelblue;"></circle><circle cx="126.14505216479301" cy="60.639044642448425" r="2" style="fill: steelblue;"></circle><circle cx="163.33909183740616" cy="58.56570079922676" r="2" style="fill: steelblue;"></circle><circle cx="161.78271770477295" cy="13.288235664367676" r="2" style="fill: steelblue;"></circle><circle cx="103.75258643180132" cy="57.47174695134163" r="2" style="fill: steelblue;"></circle><circle cx="164.54464048147202" cy="102.90407869033515" r="2" style="fill: steelblue;"></circle><circle cx="64.10225704312325" cy="46.15011289715767" r="2" style="fill: steelblue;"></circle><circle cx="154.7533556818962" cy="74.97385926544666" r="2" style="fill: steelblue;"></circle><circle cx="86.81326862424612" cy="99.93009493482532" r="2" style="fill: steelblue;"></circle><circle cx="123.24850670993328" cy="56.3211128115654" r="2" style="fill: steelblue;"></circle><circle cx="61.264677345752716" cy="163.19426000118256" r="2" style="fill: steelblue;"></circle><circle cx="114.8550970479846" cy="95.51546340808272" r="2" style="fill: steelblue;"></circle><circle cx="81.82960599660873" cy="97.40155227482319" r="2" style="fill: steelblue;"></circle><circle cx="129.81368824839592" cy="86.91847920417786" r="2" style="fill: steelblue;"></circle><circle cx="105.34661207348108" cy="66.2940502166748" r="2" style="fill: steelblue;"></circle><circle cx="131.42516687512398" cy="27.13458091020584" r="2" style="fill: steelblue;"></circle><circle cx="100.8035731734708" cy="17.008765041828156" r="2" style="fill: steelblue;"></circle><circle cx="145.35230994224548" cy="73.83430600166321" r="2" style="fill: steelblue;"></circle><circle cx="148.98322001099586" cy="82.74054564535618" r="2" style="fill: steelblue;"></circle><circle cx="149.90944266319275" cy="136.32725775241852" r="2" style="fill: steelblue;"></circle><circle cx="134.20523926615715" cy="32.249024510383606" r="2" style="fill: steelblue;"></circle><circle cx="158.61078947782516" cy="91.52819253504276" r="2" style="fill: steelblue;"></circle><circle cx="123.94859306514263" cy="71.9985369592905" r="2" style="fill: steelblue;"></circle><circle cx="48.63484054803849" cy="55.93526214361191" r="2" style="fill: steelblue;"></circle><circle cx="70.64396925270557" cy="154.5889511704445" r="2" style="fill: steelblue;"></circle><circle cx="63.29604461789131" cy="127.29988284409046" r="2" style="fill: steelblue;"></circle><circle cx="137.84728422760963" cy="158.48445370793343" r="2" style="fill: steelblue;"></circle><circle cx="84.2258132994175" cy="135.96214205026627" r="2" style="fill: steelblue;"></circle><circle cx="61.71027049422264" cy="111.92104537039995" r="2" style="fill: steelblue;"></circle></g></svg>