<svg xmlns="http://www.w3.org/2000/svg"><g><circle cx="98.94772353582084" cy="171.08941078186035" r="2" style="fill: steelblue;"></circle><circle cx="90.61619490385056" cy="98.41158632189035" r="2" style="fill: steelblue;"></circle><circle cx="83.35247486829758" cy="133.45908522605896" r="2" style="fill: steelblue;"></circle><circle cx="75.95477662980556" cy="163.61541748046875" r="2" style="fill: steelblue;"></circle><circle cx="51.17654651403427" cy="130.31014502048492" r="2" style="fill: steelblue;"></circle><circle cx="93.73775161802769" cy="73.4727293252945" r="2" style="fill: steelblue;"></circle><circle cx="78.9403360337019" cy="150.07880926132202" r="2" style="fill: steelblue;"></circle><circle cx="90.86398631334305" cy="78.97876650094986" r="2" style="fill: steelblue;"></circle><circle cx="50.9207047522068" cy="131.97557032108307" r="2" style="fill: steelblue;"></circle><circle cx="94.67156175523996" cy="125.73042809963226" r="2" style="fill: steelblue;"></circle><circle cx="128.05294655263424" cy="82.86647945642471" r="2" style="fill: steelblue;"></circle><circle cx="63.84857967495918" cy="118.32903772592545" r="2" style="fill: steelblue;"></circle><circle cx="45.753678679466255" cy="97.79602810740471" r="2" style="fill: steelblue;"></circle><circle cx="36.819992959499366" cy="133.3869606256485" r="2" style="fill: steelblue;"></circle><circle cx="78.35428453981876" cy="115.87653458118439" r="2" style="fill: steelblue;"></circle><circle cx="15.457420051097875" cy="172.51995205879211" r="2" style="fill: steelblue;"></circle><circle cx="61.72225847840309" cy="111.43796443939209" r="2" style="fill: steelblue;"></circle><circle cx="101.55678915325552" cy="139.58609104156494" r="2" style="fill: steelblue;"></circle><circle cx="76.5396248549223" cy="71.71654999256134" r="2" style="fill: steelblue;"></circle><circle cx="119.61003616452217" cy="55.37520945072174" r="2" style="fill: steelblue;"></circle><circle cx="157.31531605124474" cy="67.66323745250702" r="2" style="fill: steelblue;"></circle><circle cx="137.82948479056358" cy="135.93954145908356" r="2" style="fill: steelblue;"></circle><circle cx="23.91448467969895" cy="124.0889623761177" r="2" style="fill: steelblue;"></circle><circle cx="105.68549428135157" cy="122.25751876831055" r="2" style="fill: steelblue;"></circle><circle cx="55.95899969339371" cy="166.37373566627502" r="2" style="fill: steelblue;"></circle><circle cx="68.49038079380989" cy="88.41552808880806" r="2" style="fill: steelblue;"></circle><circle cx="51.593123376369476" cy="133.6205691099167" r="2" style="fill: steelblue;"></circle><circle cx="87.3092733323574" cy="102.72349547594786" r="2" style="fill: steelblue;"></circle><circle cx="34.30024385452271" cy="163.9165997505188" r="2" style="fill: steelblue;"></circle><circle cx="69.98423151671886" cy="68.65485906600952" r="2" style="fill: steelblue;"></circle><circle cx="96.04150233790278" cy="78.31868976354599" r="2" style="fill: steelblue;"></circle><circle cx="120.66383883357048" cy="55.0493985414505" r="2" style="fill: steelblue;"></circle><circle cx="187.8291130065918" cy="53.867024183273315" r="2" style="fill: steelblue;"></circle><circle cx="84.81171578168869" cy="103.16104292869568" r="2" style="fill: steelblue;"></circle><circle cx="114.34155367314816" cy="87.97419220209122" r="2" style="fill: steelblue;"></circle><circle cx="161.39161810278893" cy="83.81071984767914" r="2" style="fill: steelblue;"></circle><circle cx="107.12508894503117" cy="118.2045727968216" r="2" style="fill: steelblue;"></circle><circle cx="170.9318146109581" cy="114.5183876156807" r="2" style="fill: steelblue;"></circle><circle cx="55.06476238369942" cy="147.46730029582977" r="2" style="fill: steelblue;"></circle><circle cx="48.552288115024574" cy="105.02730384469032" r="2" style="fill: steelblue;"></circle><circle cx="117.76115596294403" cy="55.09331226348877" r="2" style="fill: steelblue;"></circle><circle cx="59.59301292896271" cy="49.207282066345215" r="2" style="fill: steelblue;"></circle><circle cx="167.84605979919434" cy="87.82371059060097" r="2" style="fill: steelblue;"></circle><circle cx="114.46968596428633" cy="63.265252113342285" r="2" style="fill: steelblue;"></circle><circle cx="139.6399311721325" cy="88.51976916193962" r="2" style="fill: steelblue;"></circle><circle cx="154.23925817012787" cy="48.99115562438965" r="2" style="fill: steelblue;"></circle><circle cx="113.16500920802355" cy="136.675962805748" r="2" style="fill: steelblue;"></circle><circle cx="164.6800994873047" cy="161.70974373817444" r="2" style="fill: steelblue;"></circle><circle cx="55.35234361886978" cy="150.58635473251343" r="2" style="fill: steelblue;"></circle><circle cx="18.851412832736976" cy="158.89230966567993" r="2" style="fill: steelblue;"></circle><circle cx="13.646087050437933" cy="91.19183793663979" r="2" style="fill: steelblue;"></circle><circle cx="61.85311675071716" cy="160.03252863883972" r="2" style="fill: steelblue;"></circle><circle cx="114.72260616719723" cy="124.24072474241257" r="2" style="fill: steelblue;"></circle><circle cx="167.16682761907578" cy="109.79007929563522" r="2" style="fill: steelblue;"></circle><circle cx="98.39157739188522" cy="84.12666618824005" r="2" style="fill: steelblue;"></circle><circle cx="73.60613755881786" cy="135.30950248241425" r="2" style="fill: steelblue;"></circle><circle cx="77.38266736268997" cy="91.56844019889832" r="2" style="fill: steelblue;"></circle><circle cx="77.89129428565502" cy="126.13665461540222" r="2" style="fill: steelblue;"></circle><circle cx="99.30120242061093" cy="67.53689050674438" r="2" style="fill: steelblue;"></circle><circle cx="43.00885125994683" cy="123.65058213472366" r="2" style="fill: steelblue;"></circle><circle cx="68.23985502123833" cy="160.70910692214966" r="2" style="fill: steelblue;"></circle><circle cx="30.505283176898963" cy="148.41195046901703" r="2" style="fill: steelblue;"></circle><circle cx="54.93713766336441" cy="190.78068137168884" r="2" style="fill: steelblue;"></circle><circle cx="55.81643283367157" cy="184.9221646785736" r="2" style="fill: steelblue;"></circle><circle cx="17.58403182029725" cy="123.66619110107422" r="2" style="fill: steelblue;"></circle><circle cx="50.03277063369751" cy="150.05659461021423" r="2" style="fill: steelblue;"></circle><circle cx="93.96979622542858" cy="152.16482877731323" r="2" style="fill: steelblue;"></circle><circle cx="31.84227496385575" cy="79.099640250206" r="2" style="fill: steelblue;"></circle><circle cx="68.2282879948616" cy="165.21733403205872" r="2" style="fill: steelblue;"></circle><circle cx="28.239971399307258" cy="104.8441257327795" r="2" style="fill: steelblue;"></circle><circle cx="82.53725469112396" cy="170.7131803035736" r="2" style="fill: steelblue;"></circle><circle cx="118.74427683651447" cy="71.2172657251358" r="2" style="fill: steelblue;"></circle><circle cx="140.09783267974854" cy="77.76304930448532" r="2" style="fill: steelblue;"></circle><circle cx="170.67307084798813" cy="45.94380259513855" r="2" style="fill: steelblue;"></circle><circle cx="136.76539659500122" cy="93.88288222253323" r="2" style="fill: steelblue;"></circle><circle cx="137.63842955231667" cy="108.20633694529533" r="2" style="fill: steelblue;"></circle><circle cx="183.4936797618866" cy="54.24767732620239" r="2" style="fill: steelblue;"></circle><circle cx="145.19115388393402" cy="92.44644939899445" r="2" style="fill: steelblue;"></circle><circle cx="107.65037350356579" cy="104.06255386769772" r="2" style="fill: steelblue;"></circle><circle cx="183.7881714105606" cy="70.72998285293579" r="2" style="fill: steelblue;"></circle><circle cx="160.86979433894157" cy="50.651371479034424" r="2" style="fill: steelblue;"></circle><circle cx="156.78792297840118" cy="15.509074926376343" r="2" style="fill: steelblue;"></circle><circle cx="167.61783361434937" cy="86.77061945199966" r="2" style="fill: steelblue;"></circle><circle cx="74.61306490004063" cy="118.92853081226349" r="2" style="fill: steelblue;"></circle><circle cx="68.85049156844616" cy="131.7878246307373" r="2" style="fill: steelblue;"></circle><circle cx="42.931119352579124" cy="117.03111529350281" r="2" style="fill: steelblue;"></circle><circle cx="147.7103292942047" cy="105.48635385930538" r="2" style="fill: steelblue;"></circle><circle cx="27.795581519603736" cy="67.18008816242218" r="2" style="fill: steelblue;"></circle><circle cx="46.647088974714286" cy="86.53929680585861" r="2" style="fill: steelblue;"></circle><circle cx="184.291972219944" cy="81.25244379043579" r="2" style="fill: steelblue;"></circle><circle cx="139.36095535755157" cy="89.35739696025848" r="2" style="fill: steelblue;"></circle><circle cx="141.43429920077324" cy="72.41105139255524" r="2" style="fill: steelblue;"></circle><circle cx="186.71176433563232" cy="100.61648897826672" r="2" style="fill: steelblue;"></circle><circle cx="142.52825304865837" cy="95.33942863345146" r="2" style="fill: steelblue;"></circle><circle cx="97.09592130966485" cy="88.81506025791168" r="2" style="fill: steelblue;"></circle><circle cx="153.84988710284233" cy="82.0551261305809" r="2" style="fill: steelblue;"></circle><circle cx="125.02614073455334" cy="77.85075604915619" r="2" style="fill: steelblue;"></circle><circle cx="100.06990506517468" cy="130.57724237442017" r="2" style="fill: steelblue;"></circle><circle cx="143.6788871884346" cy="62.945279479026794" r="2" style="fill: steelblue;"></circle><circle cx="36.80573999881745" cy="68.63447725772858" r="2" style="fill: steelblue;"></circle><circle cx="104.48453659191728" cy="100.0936537689995" r="2" style="fill: steelblue;"></circle><circle cx="102.59844772517681" cy="86.15384697914124" r="2" style="fill: steelblue;"></circle><circle cx="113.08152079582214" cy="67.18812584877014" r="2" style="fill: steelblue;"></circle><circle cx="133.7059497833252" cy="28.777778148651123" r="2" style="fill: steelblue;"></circle><circle cx="172.86541908979416" cy="40.593421459198" r="2" style="fill: steelblue;"></circle><circle cx="182.99123495817184" cy="52.72029638290405" r="2" style="fill: steelblue;"></circle><circle cx="126.16569399833679" cy="54.90163862705231" r="2" style="fill: steelblue;"></circle><circle cx="117.25945435464382" cy="70.38318514823914" r="2" style="fill: steelblue;"></circle><circle cx="63.67274224758148" cy="82.23926275968552" r="2" style="fill: steelblue;"></circle><circle cx="167.7509754896164" cy="116.63712710142136" r="2" style="fill: steelblue;"></circle><circle cx="108.47180746495724" cy="58.62011909484863" r="2" style="fill: steelblue;"></circle><circle cx="128.0014630407095" cy="93.79907250404358" r="2" style="fill: steelblue;"></circle><circle cx="144.0647378563881" cy="159.14881825447083" r="2" style="fill: steelblue;"></circle><circle cx="45.41104882955552" cy="84.74634736776352" r="2" style="fill: steelblue;"></circle><circle cx="72.70011715590954" cy="132.82387852668762" r="2" style="fill: steelblue;"></circle><circle cx="41.51554629206658" cy="119.56609040498734" r="2" style="fill: steelblue;"></circle><circle cx="64.03785794973373" cy="145.77488899230957" r="2" style="fill: steelblue;"></circle><circle cx="88.07895462960005" cy="93.19362044334412" r="2" style="fill: steelblue;"></circle></g></svg>