<svg xmlns="http://www.w3.org/2000/svg"><rect width="200" height="200" fill="white"></rect><g><circle cx="29.540759325027466" cy="115.37778880447149" r="2" style="fill: steelblue;"></circle><circle cx="60.69957613945007" cy="173.67511093616486" r="2" style="fill: steelblue;"></circle><circle cx="119.40479725599289" cy="115.82488045096397" r="2" style="fill: steelblue;"></circle><circle cx="82.10919499397278" cy="178.16559821367264" r="2" style="fill: steelblue;"></circle><circle cx="112.76056617498398" cy="179.9657627940178" r="2" style="fill: steelblue;"></circle><circle cx="34.10390019416809" cy="173.96075129508972" r="2" style="fill: steelblue;"></circle><circle cx="99.544364400208" cy="102.26579373702407" r="2" style="fill: steelblue;"></circle><circle cx="115.84897190332413" cy="58.460185676813126" r="2" style="fill: steelblue;"></circle><circle cx="69.41529214382172" cy="155.9089556336403" r="2" style="fill: steelblue;"></circle><circle cx="69.19999122619629" cy="118.50621029734612" r="2" style="fill: steelblue;"></circle><circle cx="75.74281990528107" cy="123.88618141412735" r="2" style="fill: steelblue;"></circle><circle cx="91.09385758638382" cy="143.13628748059273" r="2" style="fill: steelblue;"></circle><circle cx="90.29463604092598" cy="151.28495767712593" r="2" style="fill: steelblue;"></circle><circle cx="46.67617082595825" cy="123.17565679550171" r="2" style="fill: steelblue;"></circle><circle cx="108.83572176098824" cy="106.17336016148329" r="2" style="fill: steelblue;"></circle><circle cx="29.53163981437683" cy="118.2131752371788" r="2" style="fill: steelblue;"></circle><circle cx="53.622815012931824" cy="161.61541119217873" r="2" style="fill: steelblue;"></circle><circle cx="134.58853363990784" cy="114.70805518329144" r="2" style="fill: steelblue;"></circle><circle cx="101.10188210383058" cy="106.97519676759839" r="2" style="fill: steelblue;"></circle><circle cx="157.826167345047" cy="117.5864938646555" r="2" style="fill: steelblue;"></circle><circle cx="99.33166084811091" cy="132.09390118718147" r="2" style="fill: steelblue;"></circle><circle cx="109.11305099725723" cy="120.23687958717346" r="2" style="fill: steelblue;"></circle><circle cx="119.67785209417343" cy="141.00307077169418" r="2" style="fill: steelblue;"></circle><circle cx="57.000166177749634" cy="104.09123627468944" r="2" style="fill: steelblue;"></circle><circle cx="122.64337688684464" cy="97.59935308247805" r="2" style="fill: steelblue;"></circle><circle cx="60.16100347042084" cy="130.27193807065487" r="2" style="fill: steelblue;"></circle><circle cx="79.23955023288727" cy="74.90089759230614" r="2" style="fill: steelblue;"></circle><circle cx="79.35323864221573" cy="68.64570304751396" r="2" style="fill: steelblue;"></circle><circle cx="47.576236724853516" cy="149.31556805968285" r="2" style="fill: steelblue;"></circle><circle cx="108.7610237300396" cy="78.20953652262688" r="2" style="fill: steelblue;"></circle><circle cx="145.08269429206848" cy="28.508006036281586" r="2" style="fill: steelblue;"></circle><circle cx="143.00574660301208" cy="45.98536565899849" r="2" style="fill: steelblue;"></circle><circle cx="162.74623274803162" cy="109.37447417527437" r="2" style="fill: steelblue;"></circle><circle cx="94.89885866641998" cy="71.94709070026875" r="2" style="fill: steelblue;"></circle><circle cx="110.19947156310081" cy="58.43995362520218" r="2" style="fill: steelblue;"></circle><circle cx="83.86740237474442" cy="7.152377068996429" r="2" style="fill: steelblue;"></circle><circle cx="101.90729312598705" cy="78.38064841926098" r="2" style="fill: steelblue;"></circle><circle cx="64.82284963130951" cy="84.14323106408119" r="2" style="fill: steelblue;"></circle><circle cx="39.07608389854431" cy="129.01457995176315" r="2" style="fill: steelblue;"></circle><circle cx="42.25280284881592" cy="186.0406905412674" r="2" style="fill: steelblue;"></circle><circle cx="18.91370415687561" cy="81.49811662733555" r="2" style="fill: steelblue;"></circle><circle cx="130.31090199947357" cy="17.313456535339355" r="2" style="fill: steelblue;"></circle><circle cx="47.8277325630188" cy="7.6833575963974" r="2" style="fill: steelblue;"></circle><circle cx="125.00604689121246" cy="16.094571352005005" r="2" style="fill: steelblue;"></circle><circle cx="136.38231754302979" cy="124.61540512740612" r="2" style="fill: steelblue;"></circle><circle cx="127.56921648979187" cy="136.65856644511223" r="2" style="fill: steelblue;"></circle><circle cx="151.73389315605164" cy="134.7890369594097" r="2" style="fill: steelblue;"></circle><circle cx="54.63104844093323" cy="182.771897315979" r="2" style="fill: steelblue;"></circle><circle cx="53.17060351371765" cy="164.4030049443245" r="2" style="fill: steelblue;"></circle><circle cx="68.99988055229187" cy="138.83833065629005" r="2" style="fill: steelblue;"></circle><circle cx="116.91694110631943" cy="132.39575028419495" r="2" style="fill: steelblue;"></circle><circle cx="146.33714854717255" cy="139.00327533483505" r="2" style="fill: steelblue;"></circle><circle cx="126.0770708322525" cy="132.17055648565292" r="2" style="fill: steelblue;"></circle><circle cx="75.50497353076935" cy="151.48933455348015" r="2" style="fill: steelblue;"></circle><circle cx="95.16856111586094" cy="119.77555081248283" r="2" style="fill: steelblue;"></circle><circle cx="109.7198136150837" cy="128.5269431769848" r="2" style="fill: steelblue;"></circle><circle cx="106.30350410938263" cy="90.97664467990398" r="2" style="fill: steelblue;"></circle><circle cx="54.04421091079712" cy="199.51037168502808" r="2" style="fill: steelblue;"></circle><circle cx="88.8358898460865" cy="132.45127573609352" r="2" style="fill: steelblue;"></circle><circle cx="77.05083936452866" cy="140.33630341291428" r="2" style="fill: steelblue;"></circle><circle cx="114.03232663869858" cy="140.93221575021744" r="2" style="fill: steelblue;"></circle><circle cx="84.04288291931152" cy="135.40511801838875" r="2" style="fill: steelblue;"></circle><circle cx="32.67391324043274" cy="179.88426089286804" r="2" style="fill: steelblue;"></circle><circle cx="31.942975521087646" cy="173.47530871629715" r="2" style="fill: steelblue;"></circle><circle cx="62.99528777599335" cy="100.3387063043192" r="2" style="fill: steelblue;"></circle><circle cx="81.01856857538223" cy="143.15825551748276" r="2" style="fill: steelblue;"></circle><circle cx="52.85221040248871" cy="104.29388415068388" r="2" style="fill: steelblue;"></circle><circle cx="81.01634979248047" cy="160.16386672854424" r="2" style="fill: steelblue;"></circle><circle cx="38.42056393623352" cy="163.410684466362" r="2" style="fill: steelblue;"></circle><circle cx="69.89798843860626" cy="68.40789541602135" r="2" style="fill: steelblue;"></circle><circle cx="40.86424112319946" cy="131.7189022898674" r="2" style="fill: steelblue;"></circle><circle cx="105.16527034342289" cy="58.567917346954346" r="2" style="fill: steelblue;"></circle><circle cx="117.10119992494583" cy="136.32736578583717" r="2" style="fill: steelblue;"></circle><circle cx="144.54109370708466" cy="40.465815365314484" r="2" style="fill: steelblue;"></circle><circle cx="132.0667177438736" cy="53.86308804154396" r="2" style="fill: steelblue;"></circle><circle cx="68.67731213569641" cy="108.745058439672" r="2" style="fill: steelblue;"></circle><circle cx="128.20844650268555" cy="53.773293644189835" r="2" style="fill: steelblue;"></circle><circle cx="138.6093556880951" cy="34.71328914165497" r="2" style="fill: steelblue;"></circle><circle cx="137.0095580816269" cy="50.80141723155975" r="2" style="fill: steelblue;"></circle><circle cx="154.39093708992004" cy="53.43466103076935" r="2" style="fill: steelblue;"></circle><circle cx="166.72571301460266" cy="11.194831132888794" r="2" style="fill: steelblue;"></circle><circle cx="158.38727951049805" cy="52.552150934934616" r="2" style="fill: steelblue;"></circle><circle cx="102.88958549499512" cy="68.56813877820969" r="2" style="fill: steelblue;"></circle><circle cx="78.33388447761536" cy="162.16546148061752" r="2" style="fill: steelblue;"></circle><circle cx="70.2731728553772" cy="132.9991802573204" r="2" style="fill: steelblue;"></circle><circle cx="103.31694036722183" cy="109.30836517363787" r="2" style="fill: steelblue;"></circle><circle cx="86.78161948919296" cy="72.65391051769257" r="2" style="fill: steelblue;"></circle><circle cx="69.07244324684143" cy="115.94403572380543" r="2" style="fill: steelblue;"></circle><circle cx="61.109864711761475" cy="83.24788548052311" r="2" style="fill: steelblue;"></circle><circle cx="135.98717749118805" cy="71.54220193624496" r="2" style="fill: steelblue;"></circle><circle cx="123.15737903118134" cy="60.180263966321945" r="2" style="fill: steelblue;"></circle><circle cx="183.97982716560364" cy="91.43039714545012" r="2" style="fill: steelblue;"></circle><circle cx="171.41740918159485" cy="51.442018151283264" r="2" style="fill: steelblue;"></circle><circle cx="118.08044910430908" cy="52.05753296613693" r="2" style="fill: steelblue;"></circle><circle cx="119.51431035995483" cy="145.2420338988304" r="2" style="fill: steelblue;"></circle><circle cx="108.44259113073349" cy="96.2173500098288" r="2" style="fill: steelblue;"></circle><circle cx="150.6758213043213" cy="20.36784440279007" r="2" style="fill: steelblue;"></circle><circle cx="160.82406640052795" cy="37.32043355703354" r="2" style="fill: steelblue;"></circle><circle cx="121.73947095870972" cy="61.88126876950264" r="2" style="fill: steelblue;"></circle><circle cx="111.50742471218109" cy="90.21589197218418" r="2" style="fill: steelblue;"></circle><circle cx="104.5810516923666" cy="97.37610295414925" r="2" style="fill: steelblue;"></circle><circle cx="81.73001706600189" cy="89.86957874149084" r="2" style="fill: steelblue;"></circle><circle cx="111.32893338799477" cy="34.18675661087036" r="2" style="fill: steelblue;"></circle><circle cx="173.19093346595764" cy="115.63874445855618" r="2" style="fill: steelblue;"></circle><circle cx="74.04550611972809" cy="142.81412437558174" r="2" style="fill: steelblue;"></circle><circle cx="135.36517024040222" cy="60.031528025865555" r="2" style="fill: steelblue;"></circle><circle cx="144.0244495868683" cy="98.42580163385719" r="2" style="fill: steelblue;"></circle><circle cx="155.5930197238922" cy="96.52343522757292" r="2" style="fill: steelblue;"></circle><circle cx="129.6737551689148" cy="49.91417974233627" r="2" style="fill: steelblue;"></circle><circle cx="118.13419312238693" cy="54.40804585814476" r="2" style="fill: steelblue;"></circle><circle cx="164.1545832157135" cy="42.96345114707947" r="2" style="fill: steelblue;"></circle><circle cx="71.82250022888184" cy="137.83395513892174" r="2" style="fill: steelblue;"></circle><circle cx="57.03074336051941" cy="126.07749216258526" r="2" style="fill: steelblue;"></circle><circle cx="62.82018721103668" cy="106.15022843703628" r="2" style="fill: steelblue;"></circle><circle cx="103.16580645740032" cy="156.9205805659294" r="2" style="fill: steelblue;"></circle><circle cx="130.10840713977814" cy="148.32912608981133" r="2" style="fill: steelblue;"></circle><circle cx="120.08136808872223" cy="113.63704726099968" r="2" style="fill: steelblue;"></circle><circle cx="50.09171962738037" cy="111.75327971577644" r="2" style="fill: steelblue;"></circle></g></svg>