<svg xmlns="http://www.w3.org/2000/svg"><g><circle cx="13.737164603339302" cy="81.22635558247566" r="2" style="fill: steelblue;"></circle><circle cx="29.041718443234764" cy="89.90782424807549" r="2" style="fill: steelblue;"></circle><circle cx="26.864398850335018" cy="72.27737382054329" r="2" style="fill: steelblue;"></circle><circle cx="15.097528033786354" cy="91.8778732419014" r="2" style="fill: steelblue;"></circle><circle cx="55.52596118715074" cy="78.4530408680439" r="2" style="fill: steelblue;"></circle><circle cx="34.3084196249644" cy="77.32033282518387" r="2" style="fill: steelblue;"></circle><circle cx="57.842624021901024" cy="57.87545274943113" r="2" style="fill: steelblue;"></circle><circle cx="24.0946587589052" cy="47.517343144863844" r="2" style="fill: steelblue;"></circle><circle cx="32.875373297267494" cy="75.18287487328053" r="2" style="fill: steelblue;"></circle><circle cx="39.135338697168564" cy="83.50821509957314" r="2" style="fill: steelblue;"></circle><circle cx="35.422394838598045" cy="76.21022425591946" r="2" style="fill: steelblue;"></circle><circle cx="28.792643878195022" cy="54.71831252798438" r="2" style="fill: steelblue;"></circle><circle cx="19.919401407241825" cy="76.07433870434761" r="2" style="fill: steelblue;"></circle><circle cx="30.382942159970604" cy="54.12630429491401" r="2" style="fill: steelblue;"></circle><circle cx="20.75157662232717" cy="75.47717839479446" r="2" style="fill: steelblue;"></circle><circle cx="6.579729583528309" cy="34.97644439339638" r="2" style="fill: steelblue;"></circle><circle cx="51.499328845077095" cy="57.79317459091544" r="2" style="fill: steelblue;"></circle><circle cx="69.66452731026543" cy="56.7357555963099" r="2" style="fill: steelblue;"></circle><circle cx="50.58373651570744" cy="59.41845588386059" r="2" style="fill: steelblue;"></circle><circle cx="31.64910458856159" cy="40.762146189808846" r="2" style="fill: steelblue;"></circle><circle cx="26.380347874429493" cy="29.908958077430725" r="2" style="fill: steelblue;"></circle><circle cx="74.84930687480504" cy="13.40760588645935" r="2" style="fill: steelblue;"></circle><circle cx="48.12241320808729" cy="40.8455777913332" r="2" style="fill: steelblue;"></circle><circle cx="23.676931195788914" cy="62.89838086813688" r="2" style="fill: steelblue;"></circle><circle cx="22.672296563784283" cy="44.98058948665857" r="2" style="fill: steelblue;"></circle><circle cx="20.878613988558453" cy="31.423592194914818" r="2" style="fill: steelblue;"></circle><circle cx="8.281124300426908" cy="59.03266575187445" r="2" style="fill: steelblue;"></circle><circle cx="67.19178722964394" cy="77.71595492959023" r="2" style="fill: steelblue;"></circle><circle cx="25.646010372373794" cy="66.23301208019257" r="2" style="fill: steelblue;"></circle><circle cx="44.835993280220364" cy="63.24288081377745" r="2" style="fill: steelblue;"></circle><circle cx="81.35532273186577" cy="17.69009903073311" r="2" style="fill: steelblue;"></circle><circle cx="62.42644555038876" cy="36.50649655610323" r="2" style="fill: steelblue;"></circle><circle cx="75.21400451660156" cy="50.52470969967544" r="2" style="fill: steelblue;"></circle><circle cx="67.26404461595747" cy="77.71048434078693" r="2" style="fill: steelblue;"></circle><circle cx="71.00077072779337" cy="78.06928940117359" r="2" style="fill: steelblue;"></circle><circle cx="25.631410545772976" cy="62.77389470487833" r="2" style="fill: steelblue;"></circle><circle cx="37.38642086585363" cy="56.81068375706673" r="2" style="fill: steelblue;"></circle><circle cx="29.28127282195621" cy="94.45130750536919" r="2" style="fill: steelblue;"></circle><circle cx="42.96136808892091" cy="71.80244587361813" r="2" style="fill: steelblue;"></circle><circle cx="28.833711478445267" cy="39.896856248378754" r="2" style="fill: steelblue;"></circle><circle cx="8.285637696584068" cy="68.44597049057484" r="2" style="fill: steelblue;"></circle><circle cx="53.45311197969649" cy="61.404416523873806" r="2" style="fill: steelblue;"></circle><circle cx="66.46268169085184" cy="53.42129450291395" r="2" style="fill: steelblue;"></circle><circle cx="54.63364240196016" cy="18.74011680483818" r="2" style="fill: steelblue;"></circle><circle cx="59.4670765929752" cy="44.212211575359106" r="2" style="fill: steelblue;"></circle><circle cx="73.07959198951721" cy="11.742959916591644" r="2" style="fill: steelblue;"></circle><circle cx="53.71417701244354" cy="38.92663978040218" r="2" style="fill: steelblue;"></circle><circle cx="16.81542495886485" cy="89.91248831152916" r="2" style="fill: steelblue;"></circle><circle cx="15.320482518937856" cy="51.93997903261334" r="2" style="fill: steelblue;"></circle><circle cx="46.475014711419746" cy="59.502096101641655" r="2" style="fill: steelblue;"></circle><circle cx="44.87283358143436" cy="30.32425157725811" r="2" style="fill: steelblue;"></circle><circle cx="65.94526204797957" cy="53.035524394363165" r="2" style="fill: steelblue;"></circle><circle cx="21.778072913487755" cy="17.28389710187912" r="2" style="fill: steelblue;"></circle><circle cx="46.98230818741852" cy="69.60242539644241" r="2" style="fill: steelblue;"></circle><circle cx="30.326337615648907" cy="50.005174428224564" r="2" style="fill: steelblue;"></circle><circle cx="45.88091400348478" cy="72.83060364425182" r="2" style="fill: steelblue;"></circle><circle cx="34.9544561571545" cy="55.44359441846609" r="2" style="fill: steelblue;"></circle><circle cx="27.62181493971083" cy="44.24236640334129" r="2" style="fill: steelblue;"></circle><circle cx="58.7575313117769" cy="26.80591605603695" r="2" style="fill: steelblue;"></circle><circle cx="61.95719970597161" cy="71.38444408774376" r="2" style="fill: steelblue;"></circle><circle cx="18.45433248413934" cy="66.26410335302353" r="2" style="fill: steelblue;"></circle><circle cx="48.7930436929067" cy="63.34444712847471" r="2" style="fill: steelblue;"></circle><circle cx="43.317759885556164" cy="87.35988214612007" r="2" style="fill: steelblue;"></circle><circle cx="7.543016804589168" cy="81.48181363940239" r="2" style="fill: steelblue;"></circle><circle cx="12.72809108098348" cy="79.47048284113407" r="2" style="fill: steelblue;"></circle><circle cx="3.200063440534806" cy="49.31879615178332" r="2" style="fill: steelblue;"></circle><circle cx="31.255784299638538" cy="83.77373516559601" r="2" style="fill: steelblue;"></circle><circle cx="9.50237380133735" cy="80.77692538499832" r="2" style="fill: steelblue;"></circle><circle cx="26.449732648001778" cy="39.23155292868614" r="2" style="fill: steelblue;"></circle><circle cx="55.61422738764021" cy="55.842854268848896" r="2" style="fill: steelblue;"></circle><circle cx="45.757033820781444" cy="78.16012501716614" r="2" style="fill: steelblue;"></circle><circle cx="71.54196931256187" cy="45.625609531998634" r="2" style="fill: steelblue;"></circle><circle cx="28.474058707555137" cy="22.640326246619225" r="2" style="fill: steelblue;"></circle><circle cx="38.4237022863494" cy="26.83868370950222" r="2" style="fill: steelblue;"></circle><circle cx="57.008596923616196" cy="22.537599503993988" r="2" style="fill: steelblue;"></circle><circle cx="82.15787609418234" cy="24.676381796598434" r="2" style="fill: steelblue;"></circle><circle cx="40.982234146859916" cy="23.20694662630558" r="2" style="fill: steelblue;"></circle><circle cx="73.24639227655199" cy="23.829133436083794" r="2" style="fill: steelblue;"></circle><circle cx="80.19097248713175" cy="0.8409462869167328" r="2" style="fill: steelblue;"></circle><circle cx="83.10323887401157" cy="15.052712708711624" r="2" style="fill: steelblue;"></circle><circle cx="64.46915136443245" cy="21.423741430044174" r="2" style="fill: steelblue;"></circle><circle cx="69.75037952264151" cy="2.7191370725631714" r="2" style="fill: steelblue;"></circle><circle cx="24.60028992758857" cy="49.196140677668154" r="2" style="fill: steelblue;"></circle><circle cx="47.98711728718546" cy="60.1274810731411" r="2" style="fill: steelblue;"></circle><circle cx="32.66705258025064" cy="94.17262598872185" r="2" style="fill: steelblue;"></circle><circle cx="68.08293792936537" cy="54.52613132074475" r="2" style="fill: steelblue;"></circle><circle cx="49.86593764689234" cy="52.86068604327738" r="2" style="fill: steelblue;"></circle><circle cx="26.2378066778183" cy="47.24486330524087" r="2" style="fill: steelblue;"></circle><circle cx="67.58792135450575" cy="43.33413923159242" r="2" style="fill: steelblue;"></circle><circle cx="43.62965603876445" cy="31.357799842953682" r="2" style="fill: steelblue;"></circle><circle cx="57.37438152233759" cy="19.097375869750977" r="2" style="fill: steelblue;"></circle><circle cx="56.757728424337174" cy="17.378340661525726" r="2" style="fill: steelblue;"></circle><circle cx="38.104916777875694" cy="46.17472500540316" r="2" style="fill: steelblue;"></circle><circle cx="57.06866433223089" cy="17.424899339675903" r="2" style="fill: steelblue;"></circle><circle cx="80.4056617948744" cy="21.326712518930435" r="2" style="fill: steelblue;"></circle><circle cx="66.7724503411187" cy="23.465638235211372" r="2" style="fill: steelblue;"></circle><circle cx="61.34249700440301" cy="28.437915444374084" r="2" style="fill: steelblue;"></circle><circle cx="25.821133785777622" cy="8.80008116364479" r="2" style="fill: steelblue;"></circle><circle cx="84.29558012220595" cy="55.89819625020027" r="2" style="fill: steelblue;"></circle><circle cx="89.65766694810655" cy="72.06737920641899" r="2" style="fill: steelblue;"></circle><circle cx="45.960660775502525" cy="61.16939354687929" r="2" style="fill: steelblue;"></circle><circle cx="68.03924275769127" cy="21.074827015399933" r="2" style="fill: steelblue;"></circle><circle cx="27.27115915881263" cy="54.301386419683695" r="2" style="fill: steelblue;"></circle><circle cx="90.05447824796042" cy="42.06303805112839" r="2" style="fill: steelblue;"></circle><circle cx="59.6111708217197" cy="5.265514552593231" r="2" style="fill: steelblue;"></circle><circle cx="59.63537361886766" cy="22.546741366386414" r="2" style="fill: steelblue;"></circle><circle cx="52.91566103696823" cy="80.54207563400269" r="2" style="fill: steelblue;"></circle><circle cx="40.52349651853244" cy="22.280196845531464" r="2" style="fill: steelblue;"></circle><circle cx="75.11585884624057" cy="11.318880319595337" r="2" style="fill: steelblue;"></circle><circle cx="89.44436179267036" cy="15.891942381858826" r="2" style="fill: steelblue;"></circle><circle cx="73.80035453372533" cy="11.270194500684738" r="2" style="fill: steelblue;"></circle><circle cx="48.128245770931244" cy="13.00417184829712" r="2" style="fill: steelblue;"></circle><circle cx="31.189869013097553" cy="69.60516348481178" r="2" style="fill: steelblue;"></circle><circle cx="60.54869890213013" cy="47.280283132568" r="2" style="fill: steelblue;"></circle><circle cx="66.02105597654977" cy="61.88972033560276" r="2" style="fill: steelblue;"></circle><circle cx="25.289466977119446" cy="82.0976972579956" r="2" style="fill: steelblue;"></circle><circle cx="27.08434330092536" cy="81.41483664512634" r="2" style="fill: steelblue;"></circle><circle cx="46.659263844291374" cy="50.408528139814734" r="2" style="fill: steelblue;"></circle></g></svg>