<svg xmlns="http://www.w3.org/2000/svg"><rect width="200" height="200" fill="white"></rect><g><circle cx="63.37380409240723" cy="174.98740404844284" r="2" style="fill: steelblue;"></circle><circle cx="101.97819355461333" cy="91.57656170427799" r="2" style="fill: steelblue;"></circle><circle cx="35.46861145231458" cy="101.49789173156023" r="2" style="fill: steelblue;"></circle><circle cx="77.17850473192003" cy="193.34822744131088" r="2" style="fill: steelblue;"></circle><circle cx="130.58418035507202" cy="195.3257754445076" r="2" style="fill: steelblue;"></circle><circle cx="89.08347288767496" cy="193.73099356889725" r="2" style="fill: steelblue;"></circle><circle cx="70.54642505115932" cy="139.25812244415283" r="2" style="fill: steelblue;"></circle><circle cx="103.20724464125104" cy="119.81290057301521" r="2" style="fill: steelblue;"></circle><circle cx="106.26068380143907" cy="116.54825918376446" r="2" style="fill: steelblue;"></circle><circle cx="87.56491045157114" cy="116.12073183059692" r="2" style="fill: steelblue;"></circle><circle cx="69.74557042121887" cy="111.38151157647371" r="2" style="fill: steelblue;"></circle><circle cx="138.4705321656333" cy="121.30567654967308" r="2" style="fill: steelblue;"></circle><circle cx="49.947427378760445" cy="132.91935846209526" r="2" style="fill: steelblue;"></circle><circle cx="133.90282955434586" cy="106.4589437097311" r="2" style="fill: steelblue;"></circle><circle cx="82.5190544128418" cy="139.40671682357788" r="2" style="fill: steelblue;"></circle><circle cx="98.59930309984419" cy="109.79529321193695" r="2" style="fill: steelblue;"></circle><circle cx="78.87136936187744" cy="93.20546165108681" r="2" style="fill: steelblue;"></circle><circle cx="98.69218203756544" cy="133.29603374004364" r="2" style="fill: steelblue;"></circle><circle cx="127.27078133159213" cy="154.89331483840942" r="2" style="fill: steelblue;"></circle><circle cx="96.76194853252834" cy="105.02574304118752" r="2" style="fill: steelblue;"></circle><circle cx="139.01847932073807" cy="137.4772809445858" r="2" style="fill: steelblue;"></circle><circle cx="141.52125517527264" cy="55.91748133301735" r="2" style="fill: steelblue;"></circle><circle cx="165.41108820173477" cy="127.65700221061707" r="2" style="fill: steelblue;"></circle><circle cx="99.60866305563185" cy="151.31331831216812" r="2" style="fill: steelblue;"></circle><circle cx="71.82554735077751" cy="149.2062084376812" r="2" style="fill: steelblue;"></circle><circle cx="85.96608539422353" cy="69.5377703756094" r="2" style="fill: steelblue;"></circle><circle cx="47.24259508980645" cy="141.27294570207596" r="2" style="fill: steelblue;"></circle><circle cx="38.5905106862386" cy="121.52498625218868" r="2" style="fill: steelblue;"></circle><circle cx="36.837690406375465" cy="61.77925169467926" r="2" style="fill: steelblue;"></circle><circle cx="105.06970228420363" cy="55.294232815504074" r="2" style="fill: steelblue;"></circle><circle cx="161.4244282245636" cy="83.79559256136417" r="2" style="fill: steelblue;"></circle><circle cx="177.2859493891398" cy="40.10075181722641" r="2" style="fill: steelblue;"></circle><circle cx="179.6326968404982" cy="86.13265994936228" r="2" style="fill: steelblue;"></circle><circle cx="150.5309608247545" cy="97.55544471554458" r="2" style="fill: steelblue;"></circle><circle cx="113.31657237476773" cy="107.02203577384353" r="2" style="fill: steelblue;"></circle><circle cx="138.87787196371292" cy="104.39463974907994" r="2" style="fill: steelblue;"></circle><circle cx="68.15044747458565" cy="108.81739147007465" r="2" style="fill: steelblue;"></circle><circle cx="92.0835236708323" cy="144.8950082063675" r="2" style="fill: steelblue;"></circle><circle cx="113.27192414965894" cy="173.68024438619614" r="2" style="fill: steelblue;"></circle><circle cx="57.714925871955025" cy="168.12776625156403" r="2" style="fill: steelblue;"></circle><circle cx="82.19214611583286" cy="143.23199018836021" r="2" style="fill: steelblue;"></circle><circle cx="86.24335130055745" cy="16.67676717042923" r="2" style="fill: steelblue;"></circle><circle cx="198.38217231962417" cy="125.34583956003189" r="2" style="fill: steelblue;"></circle><circle cx="111.60982477789123" cy="110.58018486946821" r="2" style="fill: steelblue;"></circle><circle cx="93.97311177518633" cy="79.89454679191113" r="2" style="fill: steelblue;"></circle><circle cx="164.55740067693924" cy="67.58440136909485" r="2" style="fill: steelblue;"></circle><circle cx="114.68672752380371" cy="53.839048743247986" r="2" style="fill: steelblue;"></circle><circle cx="144.41310034857855" cy="152.88256332278252" r="2" style="fill: steelblue;"></circle><circle cx="88.22028670046065" cy="56.69703185558319" r="2" style="fill: steelblue;"></circle><circle cx="146.58500750859577" cy="52.22744718194008" r="2" style="fill: steelblue;"></circle><circle cx="98.51133409473631" cy="80.30994273722172" r="2" style="fill: steelblue;"></circle><circle cx="121.55955284833908" cy="117.18283072113991" r="2" style="fill: steelblue;"></circle><circle cx="159.54539510938858" cy="128.71168591082096" r="2" style="fill: steelblue;"></circle><circle cx="141.43763317002188" cy="64.01244029402733" r="2" style="fill: steelblue;"></circle><circle cx="96.21118340227339" cy="160.93300506472588" r="2" style="fill: steelblue;"></circle><circle cx="42.80696312586466" cy="153.7678562104702" r="2" style="fill: steelblue;"></circle><circle cx="103.48529203070534" cy="41.821303218603134" r="2" style="fill: steelblue;"></circle><circle cx="95.44894264803993" cy="98.98475781083107" r="2" style="fill: steelblue;"></circle><circle cx="86.0323343012068" cy="124.12179112434387" r="2" style="fill: steelblue;"></circle><circle cx="107.60935271779697" cy="84.68381818383932" r="2" style="fill: steelblue;"></circle><circle cx="85.8132673634423" cy="107.11092306300998" r="2" style="fill: steelblue;"></circle><circle cx="64.81679280598959" cy="143.31383854150772" r="2" style="fill: steelblue;"></circle><circle cx="90.54885142379337" cy="112.57267408072948" r="2" style="fill: steelblue;"></circle><circle cx="69.59437330563864" cy="168.79877299070358" r="2" style="fill: steelblue;"></circle><circle cx="44.796698623233375" cy="94.5838931016624" r="2" style="fill: steelblue;"></circle><circle cx="109.6923112248381" cy="162.49764189124107" r="2" style="fill: steelblue;"></circle><circle cx="76.99878679381477" cy="162.3062364757061" r="2" style="fill: steelblue;"></circle><circle cx="18.072538905673557" cy="157.85725638270378" r="2" style="fill: steelblue;"></circle><circle cx="59.98640590243869" cy="104.8152063973248" r="2" style="fill: steelblue;"></circle><circle cx="56.945814026726616" cy="154.79972809553146" r="2" style="fill: steelblue;"></circle><circle cx="127.75375445683797" cy="149.6593564748764" r="2" style="fill: steelblue;"></circle><circle cx="133.8353355725606" cy="65.2341641485691" r="2" style="fill: steelblue;"></circle><circle cx="95.07047798898485" cy="53.12587916851044" r="2" style="fill: steelblue;"></circle><circle cx="99.83774936861461" cy="132.4268825352192" r="2" style="fill: steelblue;"></circle><circle cx="157.97169340981375" cy="93.71018121019006" r="2" style="fill: steelblue;"></circle><circle cx="175.33655961354572" cy="105.53168170154095" r="2" style="fill: steelblue;"></circle><circle cx="134.15431645181442" cy="68.76719780266285" r="2" style="fill: steelblue;"></circle><circle cx="143.7655786673228" cy="129.83923815190792" r="2" style="fill: steelblue;"></circle><circle cx="165.70358475049335" cy="61.40795946121216" r="2" style="fill: steelblue;"></circle><circle cx="130.91348277197943" cy="56.94560557603836" r="2" style="fill: steelblue;"></circle><circle cx="166.99381007088553" cy="94.73499553278089" r="2" style="fill: steelblue;"></circle><circle cx="151.28863520092435" cy="21.435102820396423" r="2" style="fill: steelblue;"></circle><circle cx="163.54272100660538" cy="95.69710716605186" r="2" style="fill: steelblue;"></circle><circle cx="80.90473545922173" cy="93.21218812838197" r="2" style="fill: steelblue;"></circle><circle cx="68.68884960810342" cy="115.23943059146404" r="2" style="fill: steelblue;"></circle><circle cx="90.25743769274818" cy="115.03417640924454" r="2" style="fill: steelblue;"></circle><circle cx="103.703406949838" cy="108.92481207847595" r="2" style="fill: steelblue;"></circle><circle cx="139.01905881034003" cy="118.07989366352558" r="2" style="fill: steelblue;"></circle><circle cx="88.55799006091225" cy="102.8099415358156" r="2" style="fill: steelblue;"></circle><circle cx="143.3236499627431" cy="95.84529735147953" r="2" style="fill: steelblue;"></circle><circle cx="147.2998195224338" cy="33.31795930862427" r="2" style="fill: steelblue;"></circle><circle cx="166.4225591553582" cy="81.01788945496082" r="2" style="fill: steelblue;"></circle><circle cx="155.9659010834164" cy="79.83900085091591" r="2" style="fill: steelblue;"></circle><circle cx="185.54112646314834" cy="65.57781845331192" r="2" style="fill: steelblue;"></circle><circle cx="108.43329835269186" cy="104.65554231777787" r="2" style="fill: steelblue;"></circle><circle cx="195.4117284880744" cy="31.78165704011917" r="2" style="fill: steelblue;"></circle><circle cx="198.04275698131985" cy="40.984148532152176" r="2" style="fill: steelblue;"></circle><circle cx="115.90150867899258" cy="40.45732915401459" r="2" style="fill: steelblue;"></circle><circle cx="131.72496855258942" cy="91.76706373691559" r="2" style="fill: steelblue;"></circle><circle cx="159.9457495742374" cy="99.21072949655354" r="2" style="fill: steelblue;"></circle><circle cx="164.28583529260422" cy="52.730692923069" r="2" style="fill: steelblue;"></circle><circle cx="97.93304569191402" cy="75.92341341078281" r="2" style="fill: steelblue;"></circle><circle cx="112.62795339441962" cy="56.89393952488899" r="2" style="fill: steelblue;"></circle><circle cx="144.1684067249298" cy="71.08442150056362" r="2" style="fill: steelblue;"></circle><circle cx="64.15002875857883" cy="59.31161940097809" r="2" style="fill: steelblue;"></circle><circle cx="66.94664557774863" cy="126.56165882945061" r="2" style="fill: steelblue;"></circle><circle cx="161.2042486667633" cy="75.439028814435" r="2" style="fill: steelblue;"></circle><circle cx="94.55517927805582" cy="58.394382148981094" r="2" style="fill: steelblue;"></circle><circle cx="126.64359145694308" cy="26.598340272903442" r="2" style="fill: steelblue;"></circle><circle cx="164.77129525608487" cy="100.13406382640824" r="2" style="fill: steelblue;"></circle><circle cx="159.2626737223731" cy="15.371619164943695" r="2" style="fill: steelblue;"></circle><circle cx="182.71969424353705" cy="117.28149689733982" r="2" style="fill: steelblue;"></circle><circle cx="109.44606746650405" cy="170.30261307954788" r="2" style="fill: steelblue;"></circle><circle cx="94.050708744261" cy="152.49904468655586" r="2" style="fill: steelblue;"></circle><circle cx="75.30985938178169" cy="121.98888547718525" r="2" style="fill: steelblue;"></circle><circle cx="85.43363875812953" cy="156.0128390789032" r="2" style="fill: steelblue;"></circle><circle cx="64.42280610402426" cy="163.65085393190384" r="2" style="fill: steelblue;"></circle><circle cx="84.8927597204844" cy="166.51833653450012" r="2" style="fill: steelblue;"></circle></g></svg>