<svg xmlns="http://www.w3.org/2000/svg"><rect width="200" height="200" fill="white"></rect><g><circle cx="41.007900983095176" cy="154.1924238204956" r="2" style="fill: steelblue;"></circle><circle cx="142.1154834330082" cy="124.25028197467327" r="2" style="fill: steelblue;"></circle><circle cx="84.49775204062462" cy="119.08743567764759" r="2" style="fill: steelblue;"></circle><circle cx="22.3121926188469" cy="80.98831064999104" r="2" style="fill: steelblue;"></circle><circle cx="17.547397315502174" cy="152.72112414240837" r="2" style="fill: steelblue;"></circle><circle cx="69.08937953412533" cy="74.5014775544405" r="2" style="fill: steelblue;"></circle><circle cx="131.5229520201683" cy="114.32012487202883" r="2" style="fill: steelblue;"></circle><circle cx="76.6860343515873" cy="54.17454093694687" r="2" style="fill: steelblue;"></circle><circle cx="57.86208659410477" cy="171.64054363965988" r="2" style="fill: steelblue;"></circle><circle cx="43.84116306900979" cy="141.30182787775993" r="2" style="fill: steelblue;"></circle><circle cx="114.33230843394995" cy="85.84392666816711" r="2" style="fill: steelblue;"></circle><circle cx="78.38269732892513" cy="132.91931748390198" r="2" style="fill: steelblue;"></circle><circle cx="149.86992850899696" cy="118.19088123738766" r="2" style="fill: steelblue;"></circle><circle cx="54.140279442071915" cy="114.06973227858543" r="2" style="fill: steelblue;"></circle><circle cx="61.79802715778351" cy="178.15872132778168" r="2" style="fill: steelblue;"></circle><circle cx="101.73792033456266" cy="134.8474457859993" r="2" style="fill: steelblue;"></circle><circle cx="104.67185163870454" cy="75.96421279013157" r="2" style="fill: steelblue;"></circle><circle cx="90.27575645595789" cy="45.518188178539276" r="2" style="fill: steelblue;"></circle><circle cx="118.23126338422298" cy="47.946760803461075" r="2" style="fill: steelblue;"></circle><circle cx="151.78239941596985" cy="74.59256462752819" r="2" style="fill: steelblue;"></circle><circle cx="79.07136939466" cy="54.048506915569305" r="2" style="fill: steelblue;"></circle><circle cx="81.47629015147686" cy="91.44703336060047" r="2" style="fill: steelblue;"></circle><circle cx="95.84957584738731" cy="104.31579677388072" r="2" style="fill: steelblue;"></circle><circle cx="138.57755661010742" cy="136.39324009418488" r="2" style="fill: steelblue;"></circle><circle cx="81.15593567490578" cy="66.79896116256714" r="2" style="fill: steelblue;"></circle><circle cx="78.99841703474522" cy="157.36444145441055" r="2" style="fill: steelblue;"></circle><circle cx="109.1688483953476" cy="140.2347594499588" r="2" style="fill: steelblue;"></circle><circle cx="43.009007722139366" cy="126.21249668300152" r="2" style="fill: steelblue;"></circle><circle cx="38.719812780618675" cy="128.06555107235909" r="2" style="fill: steelblue;"></circle><circle cx="12.064246833324438" cy="34.233590960502625" r="2" style="fill: steelblue;"></circle><circle cx="186.51670813560486" cy="114.13874700665474" r="2" style="fill: steelblue;"></circle><circle cx="136.3301858305931" cy="24.12416636943817" r="2" style="fill: steelblue;"></circle><circle cx="70.87153419852257" cy="10.940423607826233" r="2" style="fill: steelblue;"></circle><circle cx="58.271436393260956" cy="101.39849574770778" r="2" style="fill: steelblue;"></circle><circle cx="158.4244802594185" cy="96.29956972785294" r="2" style="fill: steelblue;"></circle><circle cx="171.72127068042755" cy="108.90216417610645" r="2" style="fill: steelblue;"></circle><circle cx="72.56447561085224" cy="184.83077585697174" r="2" style="fill: steelblue;"></circle><circle cx="26.427409052848823" cy="107.16055696830153" r="2" style="fill: steelblue;"></circle><circle cx="77.941719815135" cy="160.11851876974106" r="2" style="fill: steelblue;"></circle><circle cx="54.33805137872696" cy="65.45873582363129" r="2" style="fill: steelblue;"></circle><circle cx="94.60672540590167" cy="127.49033644795418" r="2" style="fill: steelblue;"></circle><circle cx="66.74205735325813" cy="70.76172567903996" r="2" style="fill: steelblue;"></circle><circle cx="31.91394209861756" cy="65.41072055697441" r="2" style="fill: steelblue;"></circle><circle cx="189.04502540826797" cy="33.97844582796097" r="2" style="fill: steelblue;"></circle><circle cx="97.29596730321646" cy="15.797017514705658" r="2" style="fill: steelblue;"></circle><circle cx="111.44989114254713" cy="99.40233572851866" r="2" style="fill: steelblue;"></circle><circle cx="123.83723855018616" cy="73.11650589108467" r="2" style="fill: steelblue;"></circle><circle cx="93.66633873432875" cy="164.05236572027206" r="2" style="fill: steelblue;"></circle><circle cx="66.16934984922409" cy="136.64159774780273" r="2" style="fill: steelblue;"></circle><circle cx="144.60640251636505" cy="122.8082612156868" r="2" style="fill: steelblue;"></circle><circle cx="89.56089466810226" cy="74.01285730302334" r="2" style="fill: steelblue;"></circle><circle cx="152.64437198638916" cy="88.41676861047745" r="2" style="fill: steelblue;"></circle><circle cx="130.14382533729076" cy="140.2946099638939" r="2" style="fill: steelblue;"></circle><circle cx="48.248222470283515" cy="176.7446607351303" r="2" style="fill: steelblue;"></circle><circle cx="59.702447056770325" cy="161.49276345968246" r="2" style="fill: steelblue;"></circle><circle cx="24.254164099693305" cy="153.25567722320557" r="2" style="fill: steelblue;"></circle><circle cx="96.51260673999786" cy="122.91768044233322" r="2" style="fill: steelblue;"></circle><circle cx="84.29003171622753" cy="113.35746701806784" r="2" style="fill: steelblue;"></circle><circle cx="93.63102577626705" cy="143.21710765361786" r="2" style="fill: steelblue;"></circle><circle cx="88.57291042804718" cy="120.18344216048717" r="2" style="fill: steelblue;"></circle><circle cx="49.63782653212548" cy="165.17356634140015" r="2" style="fill: steelblue;"></circle><circle cx="46.65516167879105" cy="140.31191766262054" r="2" style="fill: steelblue;"></circle><circle cx="13.194708526134496" cy="150.29870942234993" r="2" style="fill: steelblue;"></circle><circle cx="28.44317853450776" cy="163.15189599990845" r="2" style="fill: steelblue;"></circle><circle cx="27.915088832378395" cy="127.97864377498627" r="2" style="fill: steelblue;"></circle><circle cx="38.47299739718438" cy="196.94040566682816" r="2" style="fill: steelblue;"></circle><circle cx="24.430638551712043" cy="132.76801109313965" r="2" style="fill: steelblue;"></circle><circle cx="6.249150633811956" cy="148.6523173749447" r="2" style="fill: steelblue;"></circle><circle cx="34.272676706314094" cy="164.35807049274445" r="2" style="fill: steelblue;"></circle><circle cx="88.77096083015203" cy="140.4393933713436" r="2" style="fill: steelblue;"></circle><circle cx="29.020769894123084" cy="78.54002378880978" r="2" style="fill: steelblue;"></circle><circle cx="173.775015771389" cy="71.18000127375126" r="2" style="fill: steelblue;"></circle><circle cx="137.80413046479225" cy="99.84851486806292" r="2" style="fill: steelblue;"></circle><circle cx="90.99266529083252" cy="109.19818039983511" r="2" style="fill: steelblue;"></circle><circle cx="177.45400071144104" cy="76.37486085295677" r="2" style="fill: steelblue;"></circle><circle cx="110.58762520551682" cy="5.2389636635780334" r="2" style="fill: steelblue;"></circle><circle cx="145.9766834974289" cy="110.734548792243" r="2" style="fill: steelblue;"></circle><circle cx="86.2151900306344" cy="62.00467273592949" r="2" style="fill: steelblue;"></circle><circle cx="169.28963214159012" cy="67.21676737070084" r="2" style="fill: steelblue;"></circle><circle cx="154.8212267458439" cy="144.13144662976265" r="2" style="fill: steelblue;"></circle><circle cx="150.4137948155403" cy="46.99771702289581" r="2" style="fill: steelblue;"></circle><circle cx="50.30035823583603" cy="0.3726392984390259" r="2" style="fill: steelblue;"></circle><circle cx="94.32767927646637" cy="128.31873297691345" r="2" style="fill: steelblue;"></circle><circle cx="74.74605962634087" cy="167.55170971155167" r="2" style="fill: steelblue;"></circle><circle cx="139.3281988799572" cy="107.61867640540004" r="2" style="fill: steelblue;"></circle><circle cx="42.95727834105492" cy="71.11459448933601" r="2" style="fill: steelblue;"></circle><circle cx="104.57501085475087" cy="156.62809312343597" r="2" style="fill: steelblue;"></circle><circle cx="66.3703702390194" cy="127.03005820512772" r="2" style="fill: steelblue;"></circle><circle cx="25.727538764476783" cy="129.00156751275063" r="2" style="fill: steelblue;"></circle><circle cx="92.30180121958256" cy="84.88551005721092" r="2" style="fill: steelblue;"></circle><circle cx="153.46704646945" cy="73.85494783520699" r="2" style="fill: steelblue;"></circle><circle cx="101.7937661614269" cy="36.66090816259384" r="2" style="fill: steelblue;"></circle><circle cx="122.03810773789883" cy="38.21728229522705" r="2" style="fill: steelblue;"></circle><circle cx="93.8421887345612" cy="96.24741356819868" r="2" style="fill: steelblue;"></circle><circle cx="114.06341418623924" cy="35.455359518527985" r="2" style="fill: steelblue;"></circle><circle cx="173.73879104852676" cy="135.89774295687675" r="2" style="fill: steelblue;"></circle><circle cx="164.26679342985153" cy="45.24664431810379" r="2" style="fill: steelblue;"></circle><circle cx="134.7086861729622" cy="113.18673137575388" r="2" style="fill: steelblue;"></circle><circle cx="63.317982852458954" cy="76.75149329006672" r="2" style="fill: steelblue;"></circle><circle cx="122.39617705345154" cy="138.73532265424728" r="2" style="fill: steelblue;"></circle><circle cx="142.6715761423111" cy="85.1449029520154" r="2" style="fill: steelblue;"></circle><circle cx="138.213312625885" cy="118.17039400339127" r="2" style="fill: steelblue;"></circle><circle cx="131.1968456953764" cy="70.18631175160408" r="2" style="fill: steelblue;"></circle><circle cx="153.02683636546135" cy="94.65338792651892" r="2" style="fill: steelblue;"></circle><circle cx="147.41517454385757" cy="68.57483312487602" r="2" style="fill: steelblue;"></circle><circle cx="119.60492879152298" cy="99.1964268265292" r="2" style="fill: steelblue;"></circle><circle cx="64.74385634064674" cy="54.64769005775452" r="2" style="fill: steelblue;"></circle><circle cx="65.0074690580368" cy="51.016779989004135" r="2" style="fill: steelblue;"></circle><circle cx="126.62581019103527" cy="50.09055733680725" r="2" style="fill: steelblue;"></circle><circle cx="89.08072337508202" cy="65.79476073384285" r="2" style="fill: steelblue;"></circle><circle cx="127.2127091884613" cy="41.389210522174835" r="2" style="fill: steelblue;"></circle><circle cx="158.87795984745026" cy="76.05140693485737" r="2" style="fill: steelblue;"></circle><circle cx="124.6169175952673" cy="151.36515945196152" r="2" style="fill: steelblue;"></circle><circle cx="74.98511895537376" cy="129.35603074729443" r="2" style="fill: steelblue;"></circle><circle cx="23.6840307712555" cy="136.7039553821087" r="2" style="fill: steelblue;"></circle><circle cx="81.25578463077545" cy="62.152715772390366" r="2" style="fill: steelblue;"></circle><circle cx="95.79395307227969" cy="115.7741867005825" r="2" style="fill: steelblue;"></circle><circle cx="157.27918446063995" cy="138.28972950577736" r="2" style="fill: steelblue;"></circle></g></svg>