<svg xmlns="http://www.w3.org/2000/svg"><rect width="200" height="200" fill="white"></rect><g><circle cx="45.8075761795044" cy="170.45924067497253" r="2" style="fill: steelblue;"></circle><circle cx="75.74971802532673" cy="139.30042386054993" r="2" style="fill: steelblue;"></circle><circle cx="80.91256432235241" cy="80.59520274400711" r="2" style="fill: steelblue;"></circle><circle cx="119.01168935000896" cy="117.89080500602722" r="2" style="fill: steelblue;"></circle><circle cx="47.278875857591636" cy="87.23943382501602" r="2" style="fill: steelblue;"></circle><circle cx="125.4985224455595" cy="165.8960998058319" r="2" style="fill: steelblue;"></circle><circle cx="85.67987512797117" cy="100.455635599792" r="2" style="fill: steelblue;"></circle><circle cx="145.82545906305313" cy="84.15102809667587" r="2" style="fill: steelblue;"></circle><circle cx="28.359456360340126" cy="130.58470785617828" r="2" style="fill: steelblue;"></circle><circle cx="58.69817212224007" cy="130.8000087738037" r="2" style="fill: steelblue;"></circle><circle cx="114.15607333183289" cy="124.25718009471893" r="2" style="fill: steelblue;"></circle><circle cx="67.08068251609802" cy="108.90614241361618" r="2" style="fill: steelblue;"></circle><circle cx="81.80911876261234" cy="109.70536395907402" r="2" style="fill: steelblue;"></circle><circle cx="85.93026772141457" cy="153.32382917404175" r="2" style="fill: steelblue;"></circle><circle cx="21.84127867221833" cy="91.16427823901176" r="2" style="fill: steelblue;"></circle><circle cx="65.1525542140007" cy="170.46836018562317" r="2" style="fill: steelblue;"></circle><circle cx="124.03578720986843" cy="146.37718498706818" r="2" style="fill: steelblue;"></circle><circle cx="154.48181182146072" cy="65.41146636009216" r="2" style="fill: steelblue;"></circle><circle cx="152.05323919653893" cy="98.89811789616942" r="2" style="fill: steelblue;"></circle><circle cx="125.40743537247181" cy="42.173832654953" r="2" style="fill: steelblue;"></circle><circle cx="145.9514930844307" cy="100.66833915188909" r="2" style="fill: steelblue;"></circle><circle cx="108.55296663939953" cy="90.88694900274277" r="2" style="fill: steelblue;"></circle><circle cx="95.68420322611928" cy="80.32214790582657" r="2" style="fill: steelblue;"></circle><circle cx="63.606759905815125" cy="142.99983382225037" r="2" style="fill: steelblue;"></circle><circle cx="133.20103883743286" cy="77.35662311315536" r="2" style="fill: steelblue;"></circle><circle cx="42.635558545589454" cy="139.83899652957916" r="2" style="fill: steelblue;"></circle><circle cx="59.7652405500412" cy="120.76044976711273" r="2" style="fill: steelblue;"></circle><circle cx="73.78750331699848" cy="120.64676135778427" r="2" style="fill: steelblue;"></circle><circle cx="71.93444892764091" cy="152.42376327514648" r="2" style="fill: steelblue;"></circle><circle cx="165.76640903949738" cy="91.2389762699604" r="2" style="fill: steelblue;"></circle><circle cx="85.86125299334526" cy="54.91730570793152" r="2" style="fill: steelblue;"></circle><circle cx="175.87583363056183" cy="56.994253396987915" r="2" style="fill: steelblue;"></circle><circle cx="189.05957639217377" cy="37.253767251968384" r="2" style="fill: steelblue;"></circle><circle cx="98.60150425229222" cy="105.10114133358002" r="2" style="fill: steelblue;"></circle><circle cx="103.70043027214706" cy="89.80052843689919" r="2" style="fill: steelblue;"></circle><circle cx="91.09783582389355" cy="116.13259762525558" r="2" style="fill: steelblue;"></circle><circle cx="15.169224143028265" cy="98.09270687401295" r="2" style="fill: steelblue;"></circle><circle cx="92.83944303169847" cy="135.1771503686905" r="2" style="fill: steelblue;"></circle><circle cx="39.88148123025895" cy="160.9239161014557" r="2" style="fill: steelblue;"></circle><circle cx="134.5412641763687" cy="157.74719715118408" r="2" style="fill: steelblue;"></circle><circle cx="72.50966355204582" cy="181.0862958431244" r="2" style="fill: steelblue;"></circle><circle cx="129.23827432096004" cy="69.68909800052643" r="2" style="fill: steelblue;"></circle><circle cx="134.5892794430256" cy="152.1722674369812" r="2" style="fill: steelblue;"></circle><circle cx="166.02155417203903" cy="74.99395310878754" r="2" style="fill: steelblue;"></circle><circle cx="184.20298248529434" cy="63.617682456970215" r="2" style="fill: steelblue;"></circle><circle cx="100.59766427148134" cy="72.43078351020813" r="2" style="fill: steelblue;"></circle><circle cx="126.88349410891533" cy="48.266106843948364" r="2" style="fill: steelblue;"></circle><circle cx="35.94763427972794" cy="145.36895155906677" r="2" style="fill: steelblue;"></circle><circle cx="63.358402252197266" cy="146.82939648628235" r="2" style="fill: steelblue;"></circle><circle cx="77.1917387843132" cy="131.00011944770813" r="2" style="fill: steelblue;"></circle><circle cx="125.98714269697666" cy="83.08305889368057" r="2" style="fill: steelblue;"></circle><circle cx="111.58323138952255" cy="53.662851452827454" r="2" style="fill: steelblue;"></circle><circle cx="59.70539003610611" cy="73.9229291677475" r="2" style="fill: steelblue;"></circle><circle cx="23.255339264869697" cy="124.49502646923065" r="2" style="fill: steelblue;"></circle><circle cx="38.50723654031754" cy="104.83143888413906" r="2" style="fill: steelblue;"></circle><circle cx="46.74432277679444" cy="90.2801863849163" r="2" style="fill: steelblue;"></circle><circle cx="77.08231955766678" cy="93.69649589061737" r="2" style="fill: steelblue;"></circle><circle cx="86.64253298193216" cy="145.95578908920288" r="2" style="fill: steelblue;"></circle><circle cx="56.78289234638214" cy="111.1641101539135" r="2" style="fill: steelblue;"></circle><circle cx="79.81655783951283" cy="122.94916063547134" r="2" style="fill: steelblue;"></circle><circle cx="34.82643365859986" cy="85.96767336130142" r="2" style="fill: steelblue;"></circle><circle cx="59.688082337379456" cy="115.95711708068848" r="2" style="fill: steelblue;"></circle><circle cx="49.70129057765008" cy="167.32608675956726" r="2" style="fill: steelblue;"></circle><circle cx="36.84810400009156" cy="168.05702447891235" r="2" style="fill: steelblue;"></circle><circle cx="72.02135622501373" cy="137.00471222400665" r="2" style="fill: steelblue;"></circle><circle cx="3.05959433317185" cy="118.98143142461777" r="2" style="fill: steelblue;"></circle><circle cx="67.23198890686035" cy="147.1477895975113" r="2" style="fill: steelblue;"></circle><circle cx="51.34768262505531" cy="118.98365020751953" r="2" style="fill: steelblue;"></circle><circle cx="35.64192950725556" cy="161.57943606376648" r="2" style="fill: steelblue;"></circle><circle cx="59.56060662865639" cy="130.10201156139374" r="2" style="fill: steelblue;"></circle><circle cx="121.45997621119022" cy="159.13575887680054" r="2" style="fill: steelblue;"></circle><circle cx="128.81999872624874" cy="94.83472965657711" r="2" style="fill: steelblue;"></circle><circle cx="100.15148513193708" cy="82.89880007505417" r="2" style="fill: steelblue;"></circle><circle cx="90.80181960016489" cy="55.458906292915344" r="2" style="fill: steelblue;"></circle><circle cx="123.62513914704323" cy="67.9332822561264" r="2" style="fill: steelblue;"></circle><circle cx="194.76103633642197" cy="131.3226878643036" r="2" style="fill: steelblue;"></circle><circle cx="89.265451207757" cy="71.79155349731445" r="2" style="fill: steelblue;"></circle><circle cx="137.9953272640705" cy="61.39064431190491" r="2" style="fill: steelblue;"></circle><circle cx="132.78323262929916" cy="62.99044191837311" r="2" style="fill: steelblue;"></circle><circle cx="55.86855337023735" cy="45.609062910079956" r="2" style="fill: steelblue;"></circle><circle cx="153.0022829771042" cy="33.27428698539734" r="2" style="fill: steelblue;"></circle><circle cx="199.62736070156097" cy="41.61272048950195" r="2" style="fill: steelblue;"></circle><circle cx="71.68126702308655" cy="97.11041450500488" r="2" style="fill: steelblue;"></circle><circle cx="32.44829028844834" cy="121.66611552238464" r="2" style="fill: steelblue;"></circle><circle cx="92.38132359459996" cy="129.7268271446228" r="2" style="fill: steelblue;"></circle><circle cx="128.885405510664" cy="96.68305963277817" r="2" style="fill: steelblue;"></circle><circle cx="43.37190687656403" cy="113.21838051080704" r="2" style="fill: steelblue;"></circle><circle cx="72.96994179487228" cy="130.92755675315857" r="2" style="fill: steelblue;"></circle><circle cx="70.99843248724937" cy="138.89013528823853" r="2" style="fill: steelblue;"></circle><circle cx="115.11448994278908" cy="64.01282250881195" r="2" style="fill: steelblue;"></circle><circle cx="126.14505216479301" cy="76.84262096881866" r="2" style="fill: steelblue;"></circle><circle cx="163.33909183740616" cy="16.020172834396362" r="2" style="fill: steelblue;"></circle><circle cx="161.78271770477295" cy="28.58259081840515" r="2" style="fill: steelblue;"></circle><circle cx="103.75258643180132" cy="81.91955089569092" r="2" style="fill: steelblue;"></circle><circle cx="164.54464048147202" cy="80.48568964004517" r="2" style="fill: steelblue;"></circle><circle cx="64.10225704312325" cy="91.55740886926651" r="2" style="fill: steelblue;"></circle><circle cx="154.7533556818962" cy="49.32417869567871" r="2" style="fill: steelblue;"></circle><circle cx="86.81326862424612" cy="39.175933599472046" r="2" style="fill: steelblue;"></circle><circle cx="123.24850670993328" cy="78.26052904129028" r="2" style="fill: steelblue;"></circle><circle cx="61.264677345752716" cy="88.49257528781891" r="2" style="fill: steelblue;"></circle><circle cx="114.8550970479846" cy="95.4189483076334" r="2" style="fill: steelblue;"></circle><circle cx="81.82960599660873" cy="118.26998293399811" r="2" style="fill: steelblue;"></circle><circle cx="129.81368824839592" cy="88.67106661200523" r="2" style="fill: steelblue;"></circle><circle cx="105.34661207348108" cy="26.80906653404236" r="2" style="fill: steelblue;"></circle><circle cx="131.42516687512398" cy="125.95449388027191" r="2" style="fill: steelblue;"></circle><circle cx="100.8035731734708" cy="64.63482975959778" r="2" style="fill: steelblue;"></circle><circle cx="145.35230994224548" cy="55.975550413131714" r="2" style="fill: steelblue;"></circle><circle cx="148.98322001099586" cy="44.40698027610779" r="2" style="fill: steelblue;"></circle><circle cx="149.90944266319275" cy="70.3262448310852" r="2" style="fill: steelblue;"></circle><circle cx="134.20523926615715" cy="81.86580687761307" r="2" style="fill: steelblue;"></circle><circle cx="158.61078947782516" cy="35.8454167842865" r="2" style="fill: steelblue;"></circle><circle cx="123.94859306514263" cy="128.17749977111816" r="2" style="fill: steelblue;"></circle><circle cx="48.63484054803849" cy="142.9692566394806" r="2" style="fill: steelblue;"></circle><circle cx="70.64396925270557" cy="137.17981278896332" r="2" style="fill: steelblue;"></circle><circle cx="63.29604461789131" cy="96.83419354259968" r="2" style="fill: steelblue;"></circle><circle cx="137.84728422760963" cy="69.89159286022186" r="2" style="fill: steelblue;"></circle><circle cx="84.2258132994175" cy="79.91863191127777" r="2" style="fill: steelblue;"></circle><circle cx="61.71027049422264" cy="149.90828037261963" r="2" style="fill: steelblue;"></circle></g></svg>