<svg xmlns="http://www.w3.org/2000/svg"><rect width="200" height="200" fill="white"></rect><g><circle cx="98.94772353582084" cy="162.45271116495132" r="2" style="fill: steelblue;"></circle><circle cx="90.61619490385056" cy="179.81564849615097" r="2" style="fill: steelblue;"></circle><circle cx="83.35247486829758" cy="144.55474764108658" r="2" style="fill: steelblue;"></circle><circle cx="75.95477662980556" cy="183.7557464838028" r="2" style="fill: steelblue;"></circle><circle cx="51.17654651403427" cy="156.9060817360878" r="2" style="fill: steelblue;"></circle><circle cx="93.73775161802769" cy="154.64066565036774" r="2" style="fill: steelblue;"></circle><circle cx="78.9403360337019" cy="115.75090549886227" r="2" style="fill: steelblue;"></circle><circle cx="90.86398631334305" cy="95.03468628972769" r="2" style="fill: steelblue;"></circle><circle cx="50.9207047522068" cy="150.36574974656105" r="2" style="fill: steelblue;"></circle><circle cx="94.67156175523996" cy="167.01643019914627" r="2" style="fill: steelblue;"></circle><circle cx="128.05294655263424" cy="152.4204485118389" r="2" style="fill: steelblue;"></circle><circle cx="63.84857967495918" cy="109.43662505596876" r="2" style="fill: steelblue;"></circle><circle cx="45.753678679466255" cy="152.14867740869522" r="2" style="fill: steelblue;"></circle><circle cx="36.819992959499366" cy="108.25260858982801" r="2" style="fill: steelblue;"></circle><circle cx="78.35428453981876" cy="150.95435678958893" r="2" style="fill: steelblue;"></circle><circle cx="15.457420051097875" cy="69.95288878679276" r="2" style="fill: steelblue;"></circle><circle cx="61.72225847840309" cy="115.58634918183088" r="2" style="fill: steelblue;"></circle><circle cx="101.55678915325552" cy="113.4715111926198" r="2" style="fill: steelblue;"></circle><circle cx="76.5396248549223" cy="118.83691176772118" r="2" style="fill: steelblue;"></circle><circle cx="119.61003616452217" cy="81.52429237961769" r="2" style="fill: steelblue;"></circle><circle cx="157.31531605124474" cy="59.81791615486145" r="2" style="fill: steelblue;"></circle><circle cx="137.82948479056358" cy="26.8152117729187" r="2" style="fill: steelblue;"></circle><circle cx="23.91448467969895" cy="81.6911555826664" r="2" style="fill: steelblue;"></circle><circle cx="105.68549428135157" cy="125.79676173627377" r="2" style="fill: steelblue;"></circle><circle cx="55.95899969339371" cy="89.96117897331715" r="2" style="fill: steelblue;"></circle><circle cx="68.49038079380989" cy="62.847184389829636" r="2" style="fill: steelblue;"></circle><circle cx="51.593123376369476" cy="118.0653315037489" r="2" style="fill: steelblue;"></circle><circle cx="87.3092733323574" cy="155.43190985918045" r="2" style="fill: steelblue;"></circle><circle cx="34.30024385452271" cy="132.46602416038513" r="2" style="fill: steelblue;"></circle><circle cx="69.98423151671886" cy="126.4857616275549" r="2" style="fill: steelblue;"></circle><circle cx="96.04150233790278" cy="35.38019806146622" r="2" style="fill: steelblue;"></circle><circle cx="120.66383883357048" cy="73.01299311220646" r="2" style="fill: steelblue;"></circle><circle cx="187.8291130065918" cy="101.04941939935088" r="2" style="fill: steelblue;"></circle><circle cx="84.81171578168869" cy="155.42096868157387" r="2" style="fill: steelblue;"></circle><circle cx="114.34155367314816" cy="156.13857880234718" r="2" style="fill: steelblue;"></circle><circle cx="161.39161810278893" cy="125.54778940975666" r="2" style="fill: steelblue;"></circle><circle cx="107.12508894503117" cy="113.62136751413345" r="2" style="fill: steelblue;"></circle><circle cx="170.9318146109581" cy="188.90261501073837" r="2" style="fill: steelblue;"></circle><circle cx="55.06476238369942" cy="143.60489174723625" r="2" style="fill: steelblue;"></circle><circle cx="48.552288115024574" cy="79.79371249675751" r="2" style="fill: steelblue;"></circle><circle cx="117.76115596294403" cy="136.89194098114967" r="2" style="fill: steelblue;"></circle><circle cx="59.59301292896271" cy="122.80883304774761" r="2" style="fill: steelblue;"></circle><circle cx="167.84605979919434" cy="106.8425890058279" r="2" style="fill: steelblue;"></circle><circle cx="114.46968596428633" cy="37.48023360967636" r="2" style="fill: steelblue;"></circle><circle cx="139.6399311721325" cy="88.42442315071821" r="2" style="fill: steelblue;"></circle><circle cx="154.23925817012787" cy="23.48591983318329" r="2" style="fill: steelblue;"></circle><circle cx="113.16500920802355" cy="77.85327956080437" r="2" style="fill: steelblue;"></circle><circle cx="164.6800994873047" cy="179.82497662305832" r="2" style="fill: steelblue;"></circle><circle cx="55.35234361886978" cy="103.87995806522667" r="2" style="fill: steelblue;"></circle><circle cx="18.851412832736976" cy="119.00419220328331" r="2" style="fill: steelblue;"></circle><circle cx="13.646087050437933" cy="60.64850315451622" r="2" style="fill: steelblue;"></circle><circle cx="61.85311675071716" cy="106.07104878872633" r="2" style="fill: steelblue;"></circle><circle cx="114.72260616719723" cy="34.56779420375824" r="2" style="fill: steelblue;"></circle><circle cx="167.16682761907578" cy="139.20485079288483" r="2" style="fill: steelblue;"></circle><circle cx="98.39157739188522" cy="100.01034885644913" r="2" style="fill: steelblue;"></circle><circle cx="73.60613755881786" cy="145.66120728850365" r="2" style="fill: steelblue;"></circle><circle cx="77.38266736268997" cy="110.88718883693218" r="2" style="fill: steelblue;"></circle><circle cx="77.89129428565502" cy="88.48473280668259" r="2" style="fill: steelblue;"></circle><circle cx="99.30120242061093" cy="53.6118321120739" r="2" style="fill: steelblue;"></circle><circle cx="43.00885125994683" cy="142.76888817548752" r="2" style="fill: steelblue;"></circle><circle cx="68.23985502123833" cy="132.52820670604706" r="2" style="fill: steelblue;"></circle><circle cx="30.505283176898963" cy="126.68889425694942" r="2" style="fill: steelblue;"></circle><circle cx="54.93713766336441" cy="174.71976429224014" r="2" style="fill: steelblue;"></circle><circle cx="55.81643283367157" cy="162.96362727880478" r="2" style="fill: steelblue;"></circle><circle cx="17.58403182029725" cy="158.94096568226814" r="2" style="fill: steelblue;"></circle><circle cx="50.03277063369751" cy="98.63759230356663" r="2" style="fill: steelblue;"></circle><circle cx="93.96979622542858" cy="167.54747033119202" r="2" style="fill: steelblue;"></circle><circle cx="31.84227496385575" cy="161.55385076999664" r="2" style="fill: steelblue;"></circle><circle cx="68.2282879948616" cy="78.46310585737228" r="2" style="fill: steelblue;"></circle><circle cx="28.239971399307258" cy="111.68570853769779" r="2" style="fill: steelblue;"></circle><circle cx="82.53725469112396" cy="156.32025003433228" r="2" style="fill: steelblue;"></circle><circle cx="118.74427683651447" cy="91.25121906399727" r="2" style="fill: steelblue;"></circle><circle cx="140.09783267974854" cy="45.28065249323845" r="2" style="fill: steelblue;"></circle><circle cx="170.67307084798813" cy="53.67736741900444" r="2" style="fill: steelblue;"></circle><circle cx="136.76539659500122" cy="45.075199007987976" r="2" style="fill: steelblue;"></circle><circle cx="137.63842955231667" cy="49.35276359319687" r="2" style="fill: steelblue;"></circle><circle cx="183.4936797618866" cy="46.41389325261116" r="2" style="fill: steelblue;"></circle><circle cx="145.19115388393402" cy="47.65826687216759" r="2" style="fill: steelblue;"></circle><circle cx="107.65037350356579" cy="1.6818925738334656" r="2" style="fill: steelblue;"></circle><circle cx="183.7881714105606" cy="30.10542541742325" r="2" style="fill: steelblue;"></circle><circle cx="160.86979433894157" cy="42.84748286008835" r="2" style="fill: steelblue;"></circle><circle cx="156.78792297840118" cy="5.438274145126343" r="2" style="fill: steelblue;"></circle><circle cx="167.61783361434937" cy="98.39228135533631" r="2" style="fill: steelblue;"></circle><circle cx="74.61306490004063" cy="120.2549621462822" r="2" style="fill: steelblue;"></circle><circle cx="68.85049156844616" cy="188.3452519774437" r="2" style="fill: steelblue;"></circle><circle cx="42.931119352579124" cy="109.0522626414895" r="2" style="fill: steelblue;"></circle><circle cx="147.7103292942047" cy="105.72137208655477" r="2" style="fill: steelblue;"></circle><circle cx="27.795581519603736" cy="94.48972661048174" r="2" style="fill: steelblue;"></circle><circle cx="46.647088974714286" cy="86.66827846318483" r="2" style="fill: steelblue;"></circle><circle cx="184.291972219944" cy="62.715599685907364" r="2" style="fill: steelblue;"></circle><circle cx="139.36095535755157" cy="38.19475173950195" r="2" style="fill: steelblue;"></circle><circle cx="141.43429920077324" cy="34.75668132305145" r="2" style="fill: steelblue;"></circle><circle cx="186.71176433563232" cy="92.34945001080632" r="2" style="fill: steelblue;"></circle><circle cx="142.52825304865837" cy="34.84979867935181" r="2" style="fill: steelblue;"></circle><circle cx="97.09592130966485" cy="42.65342503786087" r="2" style="fill: steelblue;"></circle><circle cx="153.84988710284233" cy="46.931276470422745" r="2" style="fill: steelblue;"></circle><circle cx="125.02614073455334" cy="56.87583088874817" r="2" style="fill: steelblue;"></circle><circle cx="100.06990506517468" cy="17.60016232728958" r="2" style="fill: steelblue;"></circle><circle cx="143.6788871884346" cy="111.79639250040054" r="2" style="fill: steelblue;"></circle><circle cx="36.80573999881745" cy="144.13475841283798" r="2" style="fill: steelblue;"></circle><circle cx="104.48453659191728" cy="122.33878709375858" r="2" style="fill: steelblue;"></circle><circle cx="102.59844772517681" cy="42.149654030799866" r="2" style="fill: steelblue;"></circle><circle cx="113.08152079582214" cy="108.60277283936739" r="2" style="fill: steelblue;"></circle><circle cx="133.7059497833252" cy="84.12607610225677" r="2" style="fill: steelblue;"></circle><circle cx="172.86541908979416" cy="10.531029105186462" r="2" style="fill: steelblue;"></circle><circle cx="182.99123495817184" cy="45.09348273277283" r="2" style="fill: steelblue;"></circle><circle cx="126.16569399833679" cy="161.08415126800537" r="2" style="fill: steelblue;"></circle><circle cx="117.25945435464382" cy="44.56039369106293" r="2" style="fill: steelblue;"></circle><circle cx="63.67274224758148" cy="22.637760639190674" r="2" style="fill: steelblue;"></circle><circle cx="167.7509754896164" cy="31.78388476371765" r="2" style="fill: steelblue;"></circle><circle cx="108.47180746495724" cy="22.540389001369476" r="2" style="fill: steelblue;"></circle><circle cx="128.0014630407095" cy="26.00834369659424" r="2" style="fill: steelblue;"></circle><circle cx="144.0647378563881" cy="139.21032696962357" r="2" style="fill: steelblue;"></circle><circle cx="45.41104882955552" cy="94.560566265136" r="2" style="fill: steelblue;"></circle><circle cx="72.70011715590954" cy="123.77944067120552" r="2" style="fill: steelblue;"></circle><circle cx="41.51554629206658" cy="164.1953945159912" r="2" style="fill: steelblue;"></circle><circle cx="64.03785794973373" cy="162.82967329025269" r="2" style="fill: steelblue;"></circle><circle cx="88.07895462960005" cy="100.81705627962947" r="2" style="fill: steelblue;"></circle></g></svg>