<svg xmlns="http://www.w3.org/2000/svg"><rect width="200" height="200" fill="white"></rect><g><circle cx="25.30322819948197" cy="172.52567079332138" r="2" style="fill: steelblue;"></circle><circle cx="22.168336808681495" cy="141.91656311353046" r="2" style="fill: steelblue;"></circle><circle cx="81.58187977969646" cy="146.27120229932996" r="2" style="fill: steelblue;"></circle><circle cx="68.14857423305511" cy="169.80494393242728" r="2" style="fill: steelblue;"></circle><circle cx="49.75865632295609" cy="88.94807762569852" r="2" style="fill: steelblue;"></circle><circle cx="20.62747478485108" cy="131.3831607500712" r="2" style="fill: steelblue;"></circle><circle cx="81.08974099159241" cy="84.31475195619795" r="2" style="fill: steelblue;"></circle><circle cx="173.45454394817352" cy="151.8106824821896" r="2" style="fill: steelblue;"></circle><circle cx="135.86376458406448" cy="134.24925340546503" r="2" style="fill: steelblue;"></circle><circle cx="99.95662644505501" cy="121.72932260566287" r="2" style="fill: steelblue;"></circle><circle cx="78.96265424787998" cy="129.15521032280392" r="2" style="fill: steelblue;"></circle><circle cx="37.81262263655663" cy="142.41471224360996" r="2" style="fill: steelblue;"></circle><circle cx="112.8625575453043" cy="160.16119718551636" r="2" style="fill: steelblue;"></circle><circle cx="140.49724712967873" cy="139.23411568005878" r="2" style="fill: steelblue;"></circle><circle cx="98.35426930803806" cy="158.49684675534564" r="2" style="fill: steelblue;"></circle><circle cx="110.9321866184473" cy="186.8405408329434" r="2" style="fill: steelblue;"></circle><circle cx="53.03620025515556" cy="97.00134230984581" r="2" style="fill: steelblue;"></circle><circle cx="56.00029081106186" cy="60.67094537946913" r="2" style="fill: steelblue;"></circle><circle cx="134.50002893805504" cy="98.83252696858511" r="2" style="fill: steelblue;"></circle><circle cx="76.11411847174168" cy="136.70179082287683" r="2" style="fill: steelblue;"></circle><circle cx="109.23390034586191" cy="147.23930425114102" r="2" style="fill: steelblue;"></circle><circle cx="80.9476938098669" cy="50.30138625038993" r="2" style="fill: steelblue;"></circle><circle cx="86.98403220623732" cy="103.75517358382542" r="2" style="fill: steelblue;"></circle><circle cx="100.7271563517861" cy="152.64613760842218" r="2" style="fill: steelblue;"></circle><circle cx="122.89046160876751" cy="154.65540687243143" r="2" style="fill: steelblue;"></circle><circle cx="38.38219344615937" cy="158.2427720228831" r="2" style="fill: steelblue;"></circle><circle cx="65.37969261407852" cy="183.43775139914618" r="2" style="fill: steelblue;"></circle><circle cx="75.81806965172291" cy="65.61642554071214" r="2" style="fill: steelblue;"></circle><circle cx="4.262259602546697" cy="148.7079792552524" r="2" style="fill: steelblue;"></circle><circle cx="81.88492469489574" cy="110.32801343955927" r="2" style="fill: steelblue;"></circle><circle cx="108.77795834094286" cy="37.28935453626845" r="2" style="fill: steelblue;"></circle><circle cx="142.9108776152134" cy="75.14710889922247" r="2" style="fill: steelblue;"></circle><circle cx="164.8997724056244" cy="49.571990966796875" r="2" style="fill: steelblue;"></circle><circle cx="131.4583256840706" cy="65.47191076808505" r="2" style="fill: steelblue;"></circle><circle cx="123.0853296816349" cy="57.99845854441325" r="2" style="fill: steelblue;"></circle><circle cx="78.02427597343922" cy="148.73717890845404" r="2" style="fill: steelblue;"></circle><circle cx="68.49755197763443" cy="125.22715826829274" r="2" style="fill: steelblue;"></circle><circle cx="77.97369584441185" cy="141.43745435608758" r="2" style="fill: steelblue;"></circle><circle cx="39.637228846549995" cy="114.07726382215817" r="2" style="fill: steelblue;"></circle><circle cx="9.655578434467321" cy="142.33257704310947" r="2" style="fill: steelblue;"></circle><circle cx="76.41313262283802" cy="183.42872460683185" r="2" style="fill: steelblue;"></circle><circle cx="148.3274757862091" cy="93.09377604060703" r="2" style="fill: steelblue;"></circle><circle cx="131.769011169672" cy="67.07463661829631" r="2" style="fill: steelblue;"></circle><circle cx="158.7681122124195" cy="90.73271519607968" r="2" style="fill: steelblue;"></circle><circle cx="149.69916865229607" cy="81.0658468140496" r="2" style="fill: steelblue;"></circle><circle cx="135.6634184718132" cy="53.840816020965576" r="2" style="fill: steelblue;"></circle><circle cx="156.38791620731354" cy="92.57164597511292" r="2" style="fill: steelblue;"></circle><circle cx="19.18545216321946" cy="166.3691500822703" r="2" style="fill: steelblue;"></circle><circle cx="111.01572904735804" cy="169.3590349621243" r="2" style="fill: steelblue;"></circle><circle cx="36.743311583995826" cy="107.04997057716051" r="2" style="fill: steelblue;"></circle><circle cx="13.893736898899084" cy="110.25433283713129" r="2" style="fill: steelblue;"></circle><circle cx="14.06970471143723" cy="68.10947590404086" r="2" style="fill: steelblue;"></circle><circle cx="92.38093011081219" cy="156.44385417302448" r="2" style="fill: steelblue;"></circle><circle cx="105.59094548225403" cy="106.03538362516298" r="2" style="fill: steelblue;"></circle><circle cx="75.3787312656641" cy="139.34732476870218" r="2" style="fill: steelblue;"></circle><circle cx="3.1517431139946037" cy="108.23817199303045" r="2" style="fill: steelblue;"></circle><circle cx="95.34970941022038" cy="130.09108768569098" r="2" style="fill: steelblue;"></circle><circle cx="90.42527936398983" cy="144.75637012057834" r="2" style="fill: steelblue;"></circle><circle cx="80.1378920674324" cy="82.4849373764462" r="2" style="fill: steelblue;"></circle><circle cx="38.949320465326316" cy="76.08560058805678" r="2" style="fill: steelblue;"></circle><circle cx="132.0902317762375" cy="163.09133503172134" r="2" style="fill: steelblue;"></circle><circle cx="35.61839312314988" cy="102.4139126141866" r="2" style="fill: steelblue;"></circle><circle cx="19.780455529689796" cy="113.36448022888766" r="2" style="fill: steelblue;"></circle><circle cx="53.8276381790638" cy="184.91396639082168" r="2" style="fill: steelblue;"></circle><circle cx="49.10646602511407" cy="174.54381783803302" r="2" style="fill: steelblue;"></circle><circle cx="11.90256923437119" cy="193.5998731189304" r="2" style="fill: steelblue;"></circle><circle cx="29.519996047019966" cy="137.48843140072293" r="2" style="fill: steelblue;"></circle><circle cx="130.90598993003368" cy="180.9952523973253" r="2" style="fill: steelblue;"></circle><circle cx="1.249468326568609" cy="147.10053470399643" r="2" style="fill: steelblue;"></circle><circle cx="102.03495752066374" cy="88.77154522471957" r="2" style="fill: steelblue;"></circle><circle cx="61.99754625558853" cy="108.48593235843711" r="2" style="fill: steelblue;"></circle><circle cx="139.89021852612495" cy="56.916061374876236" r="2" style="fill: steelblue;"></circle><circle cx="158.21043252944946" cy="143.0518825848897" r="2" style="fill: steelblue;"></circle><circle cx="151.53675377368927" cy="123.1525954273012" r="2" style="fill: steelblue;"></circle><circle cx="156.22746422886848" cy="85.98280615276761" r="2" style="fill: steelblue;"></circle><circle cx="171.81689143180847" cy="35.68424781163533" r="2" style="fill: steelblue;"></circle><circle cx="120.65936475992203" cy="118.03553170628018" r="2" style="fill: steelblue;"></circle><circle cx="129.04046699404716" cy="53.507215446896026" r="2" style="fill: steelblue;"></circle><circle cx="126.11209452152252" cy="39.618055025736496" r="2" style="fill: steelblue;"></circle><circle cx="174.77576285600662" cy="33.79352225197687" r="2" style="fill: steelblue;"></circle><circle cx="167.37105548381805" cy="71.06169727113512" r="2" style="fill: steelblue;"></circle><circle cx="193.73819082975388" cy="60.499240954716996" r="2" style="fill: steelblue;"></circle><circle cx="178.94038408994675" cy="150.79942014482285" r="2" style="fill: steelblue;"></circle><circle cx="92.26798862218857" cy="104.02576542562909" r="2" style="fill: steelblue;"></circle><circle cx="52.40611955523491" cy="134.66589483949872" r="2" style="fill: steelblue;"></circle><circle cx="46.07025384902955" cy="63.83412414126926" r="2" style="fill: steelblue;"></circle><circle cx="88.32819703966379" cy="100.26812470621533" r="2" style="fill: steelblue;"></circle><circle cx="89.25452027469873" cy="147.5243866443634" r="2" style="fill: steelblue;"></circle><circle cx="76.34582035243511" cy="64.8241572909885" r="2" style="fill: steelblue;"></circle><circle cx="150.01036077737808" cy="112.7406879224711" r="2" style="fill: steelblue;"></circle><circle cx="122.52707444131374" cy="85.25123695532481" r="2" style="fill: steelblue;"></circle><circle cx="192.8347408771515" cy="86.48454315132565" r="2" style="fill: steelblue;"></circle><circle cx="112.15313002467155" cy="123.79016644424863" r="2" style="fill: steelblue;"></circle><circle cx="187.94615417718887" cy="85.86267133553822" r="2" style="fill: steelblue;"></circle><circle cx="146.47845402359962" cy="39.18867641025119" r="2" style="fill: steelblue;"></circle><circle cx="198.87941926717758" cy="66.45509931776259" r="2" style="fill: steelblue;"></circle><circle cx="106.99724955484271" cy="77.31500599119398" r="2" style="fill: steelblue;"></circle><circle cx="112.2781340032816" cy="148.35773242844476" r="2" style="fill: steelblue;"></circle><circle cx="120.68202011287212" cy="31.408839755588104" r="2" style="fill: steelblue;"></circle><circle cx="128.69689278304577" cy="20.684666103786896" r="2" style="fill: steelblue;"></circle><circle cx="128.42485159635544" cy="108.07867844899495" r="2" style="fill: steelblue;"></circle><circle cx="153.3897876739502" cy="63.92151448461745" r="2" style="fill: steelblue;"></circle><circle cx="97.33261833898723" cy="145.45768168237473" r="2" style="fill: steelblue;"></circle><circle cx="141.25871136784554" cy="19.891043504079175" r="2" style="fill: steelblue;"></circle><circle cx="122.60256186127663" cy="80.7776583565606" r="2" style="fill: steelblue;"></circle><circle cx="17.02623665332795" cy="80.72925276226468" r="2" style="fill: steelblue;"></circle><circle cx="121.68139815330505" cy="94.16867792606354" r="2" style="fill: steelblue;"></circle><circle cx="55.4317444562912" cy="118.95300696293512" r="2" style="fill: steelblue;"></circle><circle cx="101.58308551181108" cy="49.76828230751886" r="2" style="fill: steelblue;"></circle><circle cx="159.07607078552246" cy="21.111276414659287" r="2" style="fill: steelblue;"></circle><circle cx="118.94950307905674" cy="52.399290932549356" r="2" style="fill: steelblue;"></circle><circle cx="132.95357897877693" cy="103.74350845813751" r="2" style="fill: steelblue;"></circle><circle cx="51.133400201797485" cy="137.6202619738049" r="2" style="fill: steelblue;"></circle><circle cx="34.315592050552375" cy="78.90260219573975" r="2" style="fill: steelblue;"></circle><circle cx="101.00572477094829" cy="67.95788804690044" r="2" style="fill: steelblue;"></circle><circle cx="61.38085797429085" cy="149.4210660457611" r="2" style="fill: steelblue;"></circle><circle cx="28.947769105434425" cy="145.83131339814926" r="2" style="fill: steelblue;"></circle><circle cx="66.18926525115967" cy="106.68147231141725" r="2" style="fill: steelblue;"></circle></g></svg>