<svg xmlns="http://www.w3.org/2000/svg"><g transform="translate(40,20)"><circle cx="430.94471141695976" cy="79.20921053737402" r="3" style="fill: steelblue;"></circle><circle cx="223.58364544808865" cy="178.15300980582833" r="3" style="fill: steelblue;"></circle><circle cx="266.9570743152872" cy="125.46361349523067" r="3" style="fill: steelblue;"></circle><circle cx="478.67796689271927" cy="200.08052601478994" r="3" style="fill: steelblue;"></circle><circle cx="402.8821901232004" cy="69.25693079829216" r="3" style="fill: steelblue;"></circle><circle cx="374.0583472698927" cy="159.61655899882317" r="3" style="fill: steelblue;"></circle><circle cx="323.22694927453995" cy="138.0756233818829" r="3" style="fill: steelblue;"></circle><circle cx="439.6928232908249" cy="100.62323249876499" r="3" style="fill: steelblue;"></circle><circle cx="384.8794010281563" cy="89.61824905127287" r="3" style="fill: steelblue;"></circle><circle cx="356.526607722044" cy="43.97231452167034" r="3" style="fill: steelblue;"></circle><circle cx="517.1600353717804" cy="34.422774985432625" r="3" style="fill: steelblue;"></circle><circle cx="407.51527704298496" cy="128.53657333180308" r="3" style="fill: steelblue;"></circle><circle cx="387.8529817610979" cy="157.87961515598" r="3" style="fill: steelblue;"></circle><circle cx="325.1046447828412" cy="91.42382927238941" r="3" style="fill: steelblue;"></circle><circle cx="314.7851222008467" cy="93.70744060724974" r="3" style="fill: steelblue;"></circle><circle cx="290.7482466939837" cy="6.225315108895302" r="3" style="fill: steelblue;"></circle><circle cx="105.62315069139005" cy="79.8164077103138" r="3" style="fill: steelblue;"></circle><circle cx="312.3934534192085" cy="35.82807928323746" r="3" style="fill: steelblue;"></circle><circle cx="432.24529780447483" cy="201.9804138224572" r="3" style="fill: steelblue;"></circle><circle cx="162.8848497569561" cy="97.49284777790308" r="3" style="fill: steelblue;"></circle><circle cx="451.5317250788212" cy="220.58527935296297" r="3" style="fill: steelblue;"></circle><circle cx="102.98449069261552" cy="167.38060414791107" r="3" style="fill: steelblue;"></circle><circle cx="493.7201504409313" cy="111.11374218016863" r="3" style="fill: steelblue;"></circle><circle cx="485.28159230947495" cy="112.43280973285437" r="3" style="fill: steelblue;"></circle><circle cx="377.71712847054005" cy="179.38729603774846" r="3" style="fill: steelblue;"></circle><circle cx="142.73486852645874" cy="222.32936015352607" r="3" style="fill: steelblue;"></circle><circle cx="311.24586107209325" cy="150.25392659008503" r="3" style="fill: steelblue;"></circle><circle cx="381.80688701570034" cy="242.03082844614983" r="3" style="fill: steelblue;"></circle><circle cx="207.26089149713516" cy="203.51559966802597" r="3" style="fill: steelblue;"></circle><circle cx="257.27672612294555" cy="268.49943324923515" r="3" style="fill: steelblue;"></circle><circle cx="271.89825731213205" cy="264.9091539904475" r="3" style="fill: steelblue;"></circle><circle cx="217.67035525292158" cy="167.8073751507327" r="3" style="fill: steelblue;"></circle><circle cx="334.72459863871336" cy="171.95981267723255" r="3" style="fill: steelblue;"></circle><circle cx="360.8523738384247" cy="105.69862481206656" r="3" style="fill: steelblue;"></circle><circle cx="287.32166977599263" cy="157.43298241868615" r="3" style="fill: steelblue;"></circle><circle cx="260.95971069764346" cy="206.1992783099413" r="3" style="fill: steelblue;"></circle><circle cx="170.55870674550533" cy="222.55287617444992" r="3" style="fill: steelblue;"></circle><circle cx="356.695234850049" cy="316.2008833140135" r="3" style="fill: steelblue;"></circle><circle cx="230.44636219739914" cy="293.32436360418797" r="3" style="fill: steelblue;"></circle><circle cx="285.75943725183606" cy="280.1398226991296" r="3" style="fill: steelblue;"></circle><circle cx="325.7965088635683" cy="259.5203874632716" r="3" style="fill: steelblue;"></circle><circle cx="324.46052234619856" cy="184.83082922175527" r="3" style="fill: steelblue;"></circle><circle cx="200.38968052715063" cy="173.57446053647436" r="3" style="fill: steelblue;"></circle><circle cx="225.63425794243813" cy="145.46874882653356" r="3" style="fill: steelblue;"></circle><circle cx="207.11674623191357" cy="181.46925898035988" r="3" style="fill: steelblue;"></circle><circle cx="208.19026686251163" cy="305.4241195321083" r="3" style="fill: steelblue;"></circle><circle cx="25.122973769903197" cy="203.85986538603902" r="3" style="fill: steelblue;"></circle><circle cx="272.16984873404726" cy="202.84572960808873" r="3" style="fill: steelblue;"></circle><circle cx="116.3048066943884" cy="200.76802903786302" r="3" style="fill: steelblue;"></circle><circle cx="203.83129835128784" cy="131.16572489961982" r="3" style="fill: steelblue;"></circle><circle cx="239.8070260696113" cy="182.59174197446555" r="3" style="fill: steelblue;"></circle><circle cx="305.4322283528745" cy="245.55871840566397" r="3" style="fill: steelblue;"></circle><circle cx="247.8633115813136" cy="197.6376100908965" r="3" style="fill: steelblue;"></circle><circle cx="385.9077700227499" cy="238.10628075152636" r="3" style="fill: steelblue;"></circle><circle cx="35.84098041057588" cy="229.23269048333168" r="3" style="fill: steelblue;"></circle><circle cx="148.3295776695013" cy="211.3994687795639" r="3" style="fill: steelblue;"></circle><circle cx="206.70469354838133" cy="238.46718687564135" r="3" style="fill: steelblue;"></circle><circle cx="190.7656480371952" cy="200.72741406038404" r="3" style="fill: steelblue;"></circle><circle cx="178.37616585195065" cy="133.8219542056322" r="3" style="fill: steelblue;"></circle><circle cx="179.28947813808918" cy="177.3364262888208" r="3" style="fill: steelblue;"></circle><circle cx="399.3556250631809" cy="159.17223407886922" r="3" style="fill: steelblue;"></circle><circle cx="321.90892182290554" cy="57.27096199989319" r="3" style="fill: steelblue;"></circle><circle cx="442.9997053742409" cy="119.26640029996634" r="3" style="fill: steelblue;"></circle><circle cx="400.5614322423935" cy="94.19670440256596" r="3" style="fill: steelblue;"></circle><circle cx="483.22887763381004" cy="287.5643253326416" r="3" style="fill: steelblue;"></circle><circle cx="445.95068514347076" cy="165.21760560572147" r="3" style="fill: steelblue;"></circle><circle cx="180.77511683106422" cy="147.26121230050921" r="3" style="fill: steelblue;"></circle><circle cx="462.86193922162056" cy="155.13354721479118" r="3" style="fill: steelblue;"></circle><circle cx="359.23791870474815" cy="225.55656237527728" r="3" style="fill: steelblue;"></circle><circle cx="485.15342965722084" cy="231.46181385964155" r="3" style="fill: steelblue;"></circle><circle cx="419.7638024389744" cy="101.44844017922878" r="3" style="fill: steelblue;"></circle><circle cx="295.76326048001647" cy="241.9471863657236" r="3" style="fill: steelblue;"></circle><circle cx="198.0259033665061" cy="201.6858753748238" r="3" style="fill: steelblue;"></circle><circle cx="130.25975011289123" cy="187.8908467013389" r="3" style="fill: steelblue;"></circle><circle cx="291.35722171515226" cy="203.38472882285714" r="3" style="fill: steelblue;"></circle><circle cx="147.66705863177776" cy="233.14791563898325" r="3" style="fill: steelblue;"></circle><circle cx="104.04446281492712" cy="286.417418345809" r="3" style="fill: steelblue;"></circle><circle cx="5.957416892051712" cy="216.15703096613288" r="3" style="fill: steelblue;"></circle><circle cx="166.0275001823902" cy="243.15163884311914" r="3" style="fill: steelblue;"></circle><circle cx="41.362958103418364" cy="215.01862835139036" r="3" style="fill: steelblue;"></circle><circle cx="175.23734763264656" cy="274.550100043416" r="3" style="fill: steelblue;"></circle><circle cx="245.22145304828882" cy="304.3841674923897" r="3" style="fill: steelblue;"></circle><circle cx="114.24717351794244" cy="231.5435979515314" r="3" style="fill: steelblue;"></circle><circle cx="307.0182713493705" cy="166.09644151758403" r="3" style="fill: steelblue;"></circle><circle cx="294.78557266294956" cy="152.32171136885881" r="3" style="fill: steelblue;"></circle><circle cx="408.94215524196625" cy="152.8368240222335" r="3" style="fill: steelblue;"></circle><circle cx="441.1099348962307" cy="113.54736816138029" r="3" style="fill: steelblue;"></circle><circle cx="306.33679496124387" cy="133.4617456421256" r="3" style="fill: steelblue;"></circle><circle cx="379.40790586173534" cy="117.47030559927225" r="3" style="fill: steelblue;"></circle><circle cx="448.9278566837311" cy="66.87994413077831" r="3" style="fill: steelblue;"></circle><circle cx="359.0481188893318" cy="79.38069961965084" r="3" style="fill: steelblue;"></circle><circle cx="225.92851303517818" cy="5.184945836663246" r="3" style="fill: steelblue;"></circle><circle cx="480.3238843381405" cy="40.42804166674614" r="3" style="fill: steelblue;"></circle><circle cx="398.7511423230171" cy="69.32183001190424" r="3" style="fill: steelblue;"></circle><circle cx="148.33185084164143" cy="131.1877534724772" r="3" style="fill: steelblue;"></circle><circle cx="136.343754529953" cy="179.9035120755434" r="3" style="fill: steelblue;"></circle><circle cx="90.68620696663858" cy="232.9136135056615" r="3" style="fill: steelblue;"></circle><circle cx="222.0558826625347" cy="224.20429550111294" r="3" style="fill: steelblue;"></circle><circle cx="151.9093007594347" cy="197.71205023862422" r="3" style="fill: steelblue;"></circle><circle cx="425.5464506149292" cy="196.3400397915393" r="3" style="fill: steelblue;"></circle><circle cx="382.05791160464287" cy="224.96308172121644" r="3" style="fill: steelblue;"></circle><circle cx="207.76500765234232" cy="209.55428080633283" r="3" style="fill: steelblue;"></circle><circle cx="208.86218033730984" cy="261.9776392355561" r="3" style="fill: steelblue;"></circle><circle cx="120.16689598560335" cy="192.36536878161132" r="3" style="fill: steelblue;"></circle><circle cx="212.97862350940704" cy="309.8540596663952" r="3" style="fill: steelblue;"></circle><circle cx="219.98209085315466" cy="280.5998606607318" r="3" style="fill: steelblue;"></circle><circle cx="419.5668411254883" cy="117.94361025094986" r="3" style="fill: steelblue;"></circle><circle cx="184.70134779810905" cy="77.47101988643408" r="3" style="fill: steelblue;"></circle><circle cx="426.77221342921257" cy="64.25294391810894" r="3" style="fill: steelblue;"></circle><circle cx="401.9947075098753" cy="15.940913185477257" r="3" style="fill: steelblue;"></circle><circle cx="325.11610619723797" cy="154.9910883884877" r="3" style="fill: steelblue;"></circle><circle cx="312.6005082204938" cy="78.63925136625767" r="3" style="fill: steelblue;"></circle><circle cx="109.53515924513341" cy="213.12647564336658" r="3" style="fill: steelblue;"></circle><circle cx="20.724546611309066" cy="298.4524641185999" r="3" style="fill: steelblue;"></circle><circle cx="158.2373694330454" cy="223.00222255289555" r="3" style="fill: steelblue;"></circle><circle cx="112.73457862436773" cy="340.78470543026924" r="3" style="fill: steelblue;"></circle><circle cx="139.84775885939598" cy="260.7193963602185" r="3" style="fill: steelblue;"></circle><circle cx="174.51532378792763" cy="211.83526813983917" r="3" style="fill: steelblue;"></circle></g></svg>