<svg xmlns="http://www.w3.org/2000/svg"><g><circle cx="18.77364441752434" cy="77.58044004440308" r="2" style="fill: steelblue;"></circle><circle cx="10.092175751924518" cy="83.08864310383797" r="2" style="fill: steelblue;"></circle><circle cx="27.72262617945671" cy="46.00776610895991" r="2" style="fill: steelblue;"></circle><circle cx="8.122126758098606" cy="70.68931795656681" r="2" style="fill: steelblue;"></circle><circle cx="21.546959131956104" cy="84.45808961987495" r="2" style="fill: steelblue;"></circle><circle cx="22.679667174816135" cy="54.58146771416068" r="2" style="fill: steelblue;"></circle><circle cx="42.12454725056887" cy="69.49357986450195" r="2" style="fill: steelblue;"></circle><circle cx="52.482656855136156" cy="94.94665190577507" r="2" style="fill: steelblue;"></circle><circle cx="24.81712512671948" cy="70.9305640310049" r="2" style="fill: steelblue;"></circle><circle cx="16.491784900426868" cy="74.44247715175152" r="2" style="fill: steelblue;"></circle><circle cx="23.789775744080547" cy="65.3768165037036" r="2" style="fill: steelblue;"></circle><circle cx="45.28168747201562" cy="38.41659352183342" r="2" style="fill: steelblue;"></circle><circle cx="23.925661295652393" cy="65.12030605226755" r="2" style="fill: steelblue;"></circle><circle cx="45.87369570508599" cy="45.166356675326824" r="2" style="fill: steelblue;"></circle><circle cx="24.52282160520554" cy="81.18217550218105" r="2" style="fill: steelblue;"></circle><circle cx="65.02355560660362" cy="69.89279501140118" r="2" style="fill: steelblue;"></circle><circle cx="42.20682540908456" cy="36.37231718748808" r="2" style="fill: steelblue;"></circle><circle cx="43.2642444036901" cy="61.53821311891079" r="2" style="fill: steelblue;"></circle><circle cx="40.58154411613941" cy="58.64052027463913" r="2" style="fill: steelblue;"></circle><circle cx="59.237853810191154" cy="20.359597355127335" r="2" style="fill: steelblue;"></circle><circle cx="70.09104192256927" cy="32.791079208254814" r="2" style="fill: steelblue;"></circle><circle cx="86.59239411354065" cy="58.91597289592028" r="2" style="fill: steelblue;"></circle><circle cx="59.1544222086668" cy="72.41372503340244" r="2" style="fill: steelblue;"></circle><circle cx="37.10161913186312" cy="71.6424223035574" r="2" style="fill: steelblue;"></circle><circle cx="55.01941051334143" cy="78.87346781790257" r="2" style="fill: steelblue;"></circle><circle cx="68.57640780508518" cy="91.88553616404533" r="2" style="fill: steelblue;"></circle><circle cx="40.96733424812555" cy="72.48559705913067" r="2" style="fill: steelblue;"></circle><circle cx="22.28404507040978" cy="47.213190887123346" r="2" style="fill: steelblue;"></circle><circle cx="33.766987919807434" cy="89.7484302520752" r="2" style="fill: steelblue;"></circle><circle cx="36.75711918622255" cy="52.43528978899121" r="2" style="fill: steelblue;"></circle><circle cx="82.30990096926689" cy="23.302213475108147" r="2" style="fill: steelblue;"></circle><circle cx="63.49350344389677" cy="11.006801575422287" r="2" style="fill: steelblue;"></circle><circle cx="49.47529030032456" cy="31.476308777928352" r="2" style="fill: steelblue;"></circle><circle cx="22.28951565921307" cy="30.441562831401825" r="2" style="fill: steelblue;"></circle><circle cx="21.930710598826412" cy="34.63447391986847" r="2" style="fill: steelblue;"></circle><circle cx="37.22610529512167" cy="24.934251978993416" r="2" style="fill: steelblue;"></circle><circle cx="43.18931624293327" cy="32.99491964280605" r="2" style="fill: steelblue;"></circle><circle cx="5.548692494630816" cy="56.68053422123194" r="2" style="fill: steelblue;"></circle><circle cx="28.197554126381874" cy="80.60822375118732" r="2" style="fill: steelblue;"></circle><circle cx="60.103143751621246" cy="80.88119998574257" r="2" style="fill: steelblue;"></circle><circle cx="31.554029509425163" cy="49.74232498789206" r="2" style="fill: steelblue;"></circle><circle cx="38.595583476126194" cy="67.09864102303982" r="2" style="fill: steelblue;"></circle><circle cx="46.57870549708605" cy="7.554027438163757" r="2" style="fill: steelblue;"></circle><circle cx="81.25988319516182" cy="38.13140857964754" r="2" style="fill: steelblue;"></circle><circle cx="55.787788424640894" cy="28.508522734045982" r="2" style="fill: steelblue;"></circle><circle cx="88.25704008340836" cy="56.97162002325058" r="2" style="fill: steelblue;"></circle><circle cx="61.07336021959782" cy="47.148556634783745" r="2" style="fill: steelblue;"></circle><circle cx="10.087511688470844" cy="17.317640781402588" r="2" style="fill: steelblue;"></circle><circle cx="48.06002096738666" cy="72.57445640861988" r="2" style="fill: steelblue;"></circle><circle cx="40.497903898358345" cy="69.04641464352608" r="2" style="fill: steelblue;"></circle><circle cx="69.67574842274189" cy="44.75247412919998" r="2" style="fill: steelblue;"></circle><circle cx="46.964475605636835" cy="42.96101462095976" r="2" style="fill: steelblue;"></circle><circle cx="82.71610289812088" cy="32.843879610300064" r="2" style="fill: steelblue;"></circle><circle cx="30.397574603557587" cy="23.06292876601219" r="2" style="fill: steelblue;"></circle><circle cx="49.994825571775436" cy="62.92975526303053" r="2" style="fill: steelblue;"></circle><circle cx="27.169396355748177" cy="92.39742457866669" r="2" style="fill: steelblue;"></circle><circle cx="44.55640558153391" cy="89.85398262739182" r="2" style="fill: steelblue;"></circle><circle cx="55.75763359665871" cy="43.62554680556059" r="2" style="fill: steelblue;"></circle><circle cx="73.19408394396305" cy="68.40764097869396" r="2" style="fill: steelblue;"></circle><circle cx="28.61555591225624" cy="59.48419887572527" r="2" style="fill: steelblue;"></circle><circle cx="33.73589664697647" cy="54.31725289672613" r="2" style="fill: steelblue;"></circle><circle cx="36.65555287152529" cy="16.80682897567749" r="2" style="fill: steelblue;"></circle><circle cx="12.640117853879932" cy="90.20705819129944" r="2" style="fill: steelblue;"></circle><circle cx="18.518186360597614" cy="77.548773214221" r="2" style="fill: steelblue;"></circle><circle cx="20.529517158865932" cy="46.211242163553834" r="2" style="fill: steelblue;"></circle><circle cx="50.68120384821668" cy="35.92085298150778" r="2" style="fill: steelblue;"></circle><circle cx="16.226264834403995" cy="53.46525595523417" r="2" style="fill: steelblue;"></circle><circle cx="19.223074615001682" cy="85.79817712306976" r="2" style="fill: steelblue;"></circle><circle cx="60.76844707131386" cy="91.18255153298378" r="2" style="fill: steelblue;"></circle><circle cx="44.157145731151104" cy="52.80070002190769" r="2" style="fill: steelblue;"></circle><circle cx="21.839874982833866" cy="77.89943479001522" r="2" style="fill: steelblue;"></circle><circle cx="54.374390468001366" cy="21.42530232667923" r="2" style="fill: steelblue;"></circle><circle cx="77.35967375338078" cy="39.25166390836239" r="2" style="fill: steelblue;"></circle><circle cx="73.16131629049778" cy="24.41021353006363" r="2" style="fill: steelblue;"></circle><circle cx="77.46240049600601" cy="32.722366228699684" r="2" style="fill: steelblue;"></circle><circle cx="75.32361820340157" cy="50.414537702454254" r="2" style="fill: steelblue;"></circle><circle cx="76.79305337369442" cy="24.423019215464592" r="2" style="fill: steelblue;"></circle><circle cx="76.1708665639162" cy="29.431448504328728" r="2" style="fill: steelblue;"></circle><circle cx="99.15905371308327" cy="44.70738787204027" r="2" style="fill: steelblue;"></circle><circle cx="84.94728729128838" cy="50.66879071528092" r="2" style="fill: steelblue;"></circle><circle cx="78.57625856995583" cy="52.9652351513505" r="2" style="fill: steelblue;"></circle><circle cx="97.28086292743683" cy="18.25386956334114" r="2" style="fill: steelblue;"></circle><circle cx="50.803859322331846" cy="30.532577261328697" r="2" style="fill: steelblue;"></circle><circle cx="39.8725189268589" cy="76.15582570433617" r="2" style="fill: steelblue;"></circle><circle cx="5.827374011278155" cy="86.41025349497795" r="2" style="fill: steelblue;"></circle><circle cx="45.47386867925525" cy="65.67558757960796" r="2" style="fill: steelblue;"></circle><circle cx="47.13931395672262" cy="65.21840691566467" r="2" style="fill: steelblue;"></circle><circle cx="52.75513669475913" cy="32.28994198143482" r="2" style="fill: steelblue;"></circle><circle cx="56.66586076840758" cy="66.55851118266582" r="2" style="fill: steelblue;"></circle><circle cx="68.64220015704632" cy="36.01116985082626" r="2" style="fill: steelblue;"></circle><circle cx="80.90262413024902" cy="30.06589151918888" r="2" style="fill: steelblue;"></circle><circle cx="82.62165933847427" cy="32.428908348083496" r="2" style="fill: steelblue;"></circle><circle cx="53.82527499459684" cy="33.923157677054405" r="2" style="fill: steelblue;"></circle><circle cx="82.5751006603241" cy="19.65048275887966" r="2" style="fill: steelblue;"></circle><circle cx="78.67328748106956" cy="27.018361911177635" r="2" style="fill: steelblue;"></circle><circle cx="76.53436176478863" cy="10.569661110639572" r="2" style="fill: steelblue;"></circle><circle cx="71.56208455562592" cy="14.79964628815651" r="2" style="fill: steelblue;"></circle><circle cx="91.19991883635521" cy="26.955857127904892" r="2" style="fill: steelblue;"></circle><circle cx="44.10180374979973" cy="42.898677475750446" r="2" style="fill: steelblue;"></circle><circle cx="27.93262079358101" cy="32.57138952612877" r="2" style="fill: steelblue;"></circle><circle cx="38.83060645312071" cy="9.10276472568512" r="2" style="fill: steelblue;"></circle><circle cx="78.92517298460007" cy="41.07368569821119" r="2" style="fill: steelblue;"></circle><circle cx="45.698613580316305" cy="25.58223269879818" r="2" style="fill: steelblue;"></circle><circle cx="57.93696194887161" cy="56.471555680036545" r="2" style="fill: steelblue;"></circle><circle cx="94.73448544740677" cy="55.433146841824055" r="2" style="fill: steelblue;"></circle><circle cx="77.45325863361359" cy="41.760740987956524" r="2" style="fill: steelblue;"></circle><circle cx="19.457924365997318" cy="44.224244728684425" r="2" style="fill: steelblue;"></circle><circle cx="77.71980315446854" cy="57.44088180363178" r="2" style="fill: steelblue;"></circle><circle cx="88.68111968040466" cy="39.222520031034946" r="2" style="fill: steelblue;"></circle><circle cx="84.10805761814117" cy="40.45582674443722" r="2" style="fill: steelblue;"></circle><circle cx="88.72980549931526" cy="18.831760808825493" r="2" style="fill: steelblue;"></circle><circle cx="86.99582815170288" cy="31.837155297398567" r="2" style="fill: steelblue;"></circle><circle cx="30.394836515188217" cy="53.50999762304127" r="2" style="fill: steelblue;"></circle><circle cx="52.719716867432" cy="81.00286424160004" r="2" style="fill: steelblue;"></circle><circle cx="38.11027966439724" cy="90.13680294156075" r="2" style="fill: steelblue;"></circle><circle cx="17.902302742004398" cy="39.684549160301685" r="2" style="fill: steelblue;"></circle><circle cx="18.58516335487366" cy="82.22401812672615" r="2" style="fill: steelblue;"></circle><circle cx="49.591471860185266" cy="45.22757297381759" r="2" style="fill: steelblue;"></circle></g></svg>