<svg xmlns="http://www.w3.org/2000/svg"><g><circle cx="12.651614099740986" cy="59.86006483435631" r="2" style="fill: steelblue;"></circle><circle cx="11.084168404340748" cy="78.86252291500568" r="2" style="fill: steelblue;"></circle><circle cx="40.79093988984823" cy="58.589296601712704" r="2" style="fill: steelblue;"></circle><circle cx="34.07428711652756" cy="58.065623231232166" r="2" style="fill: steelblue;"></circle><circle cx="24.879328161478046" cy="68.62309128046036" r="2" style="fill: steelblue;"></circle><circle cx="10.31373739242554" cy="47.70366819575429" r="2" style="fill: steelblue;"></circle><circle cx="40.544870495796204" cy="26.151997223496437" r="2" style="fill: steelblue;"></circle><circle cx="86.72727197408676" cy="33.89940708875656" r="2" style="fill: steelblue;"></circle><circle cx="67.93188229203224" cy="36.97670828551054" r="2" style="fill: steelblue;"></circle><circle cx="49.978313222527504" cy="60.77567599713802" r="2" style="fill: steelblue;"></circle><circle cx="39.48132712393999" cy="56.47036638110876" r="2" style="fill: steelblue;"></circle><circle cx="18.906311318278316" cy="70.3578844666481" r="2" style="fill: steelblue;"></circle><circle cx="56.43127877265215" cy="37.004770897328854" r="2" style="fill: steelblue;"></circle><circle cx="70.24862356483936" cy="33.450936153531075" r="2" style="fill: steelblue;"></circle><circle cx="49.17713465401903" cy="78.70569564402103" r="2" style="fill: steelblue;"></circle><circle cx="55.46609330922365" cy="77.52754837274551" r="2" style="fill: steelblue;"></circle><circle cx="26.51810012757778" cy="47.96874122694135" r="2" style="fill: steelblue;"></circle><circle cx="28.00014540553093" cy="24.68847595155239" r="2" style="fill: steelblue;"></circle><circle cx="67.25001446902752" cy="57.66137335449457" r="2" style="fill: steelblue;"></circle><circle cx="38.05705923587084" cy="48.163318959996104" r="2" style="fill: steelblue;"></circle><circle cx="54.616950172930956" cy="54.18608309701085" r="2" style="fill: steelblue;"></circle><circle cx="40.47384690493345" cy="32.19178058207035" r="2" style="fill: steelblue;"></circle><circle cx="43.49201610311866" cy="25.75482353568077" r="2" style="fill: steelblue;"></circle><circle cx="50.36357817589305" cy="85.88198870420456" r="2" style="fill: steelblue;"></circle><circle cx="61.445230804383755" cy="74.24034848809242" r="2" style="fill: steelblue;"></circle><circle cx="19.191096723079685" cy="80.77212907373905" r="2" style="fill: steelblue;"></circle><circle cx="32.68984630703926" cy="54.653267562389374" r="2" style="fill: steelblue;"></circle><circle cx="37.909034825861454" cy="78.05675007402897" r="2" style="fill: steelblue;"></circle><circle cx="2.1311298012733486" cy="65.516746789217" r="2" style="fill: steelblue;"></circle><circle cx="40.94246234744787" cy="18.503914773464203" r="2" style="fill: steelblue;"></circle><circle cx="54.38897917047143" cy="58.00041947513819" r="2" style="fill: steelblue;"></circle><circle cx="71.4554388076067" cy="42.053830064833164" r="2" style="fill: steelblue;"></circle><circle cx="82.4498862028122" cy="31.762899085879326" r="2" style="fill: steelblue;"></circle><circle cx="65.7291628420353" cy="44.648938067257404" r="2" style="fill: steelblue;"></circle><circle cx="61.54266484081745" cy="20.654765143990517" r="2" style="fill: steelblue;"></circle><circle cx="39.01213798671961" cy="65.17160050570965" r="2" style="fill: steelblue;"></circle><circle cx="34.248775988817215" cy="47.936663683503866" r="2" style="fill: steelblue;"></circle><circle cx="38.986847922205925" cy="99.69752579927444" r="2" style="fill: steelblue;"></circle><circle cx="19.818614423274997" cy="86.12631186842918" r="2" style="fill: steelblue;"></circle><circle cx="4.8277892172336605" cy="68.9944114536047" r="2" style="fill: steelblue;"></circle><circle cx="38.20656631141901" cy="92.74187609553337" r="2" style="fill: steelblue;"></circle><circle cx="74.16373789310455" cy="28.077640756964684" r="2" style="fill: steelblue;"></circle><circle cx="65.884505584836" cy="22.492652013897896" r="2" style="fill: steelblue;"></circle><circle cx="79.38405610620975" cy="49.61322668241337" r="2" style="fill: steelblue;"></circle><circle cx="74.84958432614803" cy="41.681226529181004" r="2" style="fill: steelblue;"></circle><circle cx="67.8317092359066" cy="39.297859370708466" r="2" style="fill: steelblue;"></circle><circle cx="78.19395810365677" cy="36.54762376099825" r="2" style="fill: steelblue;"></circle><circle cx="9.59272608160973" cy="94.88405957818031" r="2" style="fill: steelblue;"></circle><circle cx="55.50786452367902" cy="44.33088768273592" r="2" style="fill: steelblue;"></circle><circle cx="18.371655791997913" cy="55.079466849565506" r="2" style="fill: steelblue;"></circle><circle cx="6.946868449449542" cy="49.663475435227156" r="2" style="fill: steelblue;"></circle><circle cx="7.034852355718615" cy="39.29260857403278" r="2" style="fill: steelblue;"></circle><circle cx="46.190465055406094" cy="72.77072332799435" r="2" style="fill: steelblue;"></circle><circle cx="52.795472741127014" cy="79.44820374250412" r="2" style="fill: steelblue;"></circle><circle cx="37.68936563283205" cy="63.743394054472446" r="2" style="fill: steelblue;"></circle><circle cx="1.5758715569973019" cy="98.34695905447006" r="2" style="fill: steelblue;"></circle><circle cx="47.67485470511019" cy="62.07443047314882" r="2" style="fill: steelblue;"></circle><circle cx="45.212639681994915" cy="55.40652172639966" r="2" style="fill: steelblue;"></circle><circle cx="40.0689460337162" cy="47.11618130095303" r="2" style="fill: steelblue;"></circle><circle cx="19.474660232663158" cy="43.44708537682891" r="2" style="fill: steelblue;"></circle><circle cx="66.04511588811874" cy="61.86748314648867" r="2" style="fill: steelblue;"></circle><circle cx="17.80919656157494" cy="50.97765342798084" r="2" style="fill: steelblue;"></circle><circle cx="9.890227764844898" cy="77.12914906442165" r="2" style="fill: steelblue;"></circle><circle cx="26.9138190895319" cy="97.67845571041107" r="2" style="fill: steelblue;"></circle><circle cx="24.553233012557033" cy="89.05237093567848" r="2" style="fill: steelblue;"></circle><circle cx="5.951284617185595" cy="70.07528580725193" r="2" style="fill: steelblue;"></circle><circle cx="14.759998023509983" cy="96.03442922234535" r="2" style="fill: steelblue;"></circle><circle cx="65.45299496501684" cy="88.22240233421326" r="2" style="fill: steelblue;"></circle><circle cx="0.6247341632843045" cy="53.8165885489434" r="2" style="fill: steelblue;"></circle><circle cx="51.01747876033187" cy="82.7371209859848" r="2" style="fill: steelblue;"></circle><circle cx="30.998773127794266" cy="26.406123489141464" r="2" style="fill: steelblue;"></circle><circle cx="69.94510926306248" cy="3.1677402555942535" r="2" style="fill: steelblue;"></circle><circle cx="79.10521626472473" cy="6.8762704730033875" r="2" style="fill: steelblue;"></circle><circle cx="75.76837688684464" cy="45.65636832267046" r="2" style="fill: steelblue;"></circle><circle cx="78.11373211443424" cy="16.094180941581726" r="2" style="fill: steelblue;"></circle><circle cx="85.90844571590424" cy="73.31787534058094" r="2" style="fill: steelblue;"></circle><circle cx="60.329682379961014" cy="18.80715899169445" r="2" style="fill: steelblue;"></circle><circle cx="64.52023349702358" cy="26.528679952025414" r="2" style="fill: steelblue;"></circle><circle cx="63.05604726076126" cy="35.542986541986465" r="2" style="fill: steelblue;"></circle><circle cx="87.38788142800331" cy="12.436378002166748" r="2" style="fill: steelblue;"></circle><circle cx="83.68552774190903" cy="58.30340292304754" r="2" style="fill: steelblue;"></circle><circle cx="96.86909541487694" cy="17.10338070988655" r="2" style="fill: steelblue;"></circle><circle cx="89.47019204497337" cy="72.73881994187832" r="2" style="fill: steelblue;"></circle><circle cx="46.133994311094284" cy="82.68200904130936" r="2" style="fill: steelblue;"></circle><circle cx="26.203059777617455" cy="54.9699442461133" r="2" style="fill: steelblue;"></circle><circle cx="23.035126924514774" cy="53.445679089054465" r="2" style="fill: steelblue;"></circle><circle cx="44.164098519831896" cy="37.100633792579174" r="2" style="fill: steelblue;"></circle><circle cx="44.62726013734937" cy="45.49480667337775" r="2" style="fill: steelblue;"></circle><circle cx="38.172910176217556" cy="41.186121478676796" r="2" style="fill: steelblue;"></circle><circle cx="75.00518038868904" cy="34.93143916130066" r="2" style="fill: steelblue;"></circle><circle cx="61.26353722065687" cy="40.88608007878065" r="2" style="fill: steelblue;"></circle><circle cx="96.41737043857574" cy="47.24749103188515" r="2" style="fill: steelblue;"></circle><circle cx="56.07656501233578" cy="28.19722816348076" r="2" style="fill: steelblue;"></circle><circle cx="93.97307708859444" cy="22.565429285168648" r="2" style="fill: steelblue;"></circle><circle cx="73.23922701179981" cy="21.039844676852226" r="2" style="fill: steelblue;"></circle><circle cx="99.43970963358879" cy="27.26386971771717" r="2" style="fill: steelblue;"></circle><circle cx="53.498624777421355" cy="21.5142622590065" r="2" style="fill: steelblue;"></circle><circle cx="56.1390670016408" cy="85.20764783024788" r="2" style="fill: steelblue;"></circle><circle cx="60.34101005643606" cy="83.37396681308746" r="2" style="fill: steelblue;"></circle><circle cx="64.34844639152288" cy="10.204534232616425" r="2" style="fill: steelblue;"></circle><circle cx="64.21242579817772" cy="9.876447916030884" r="2" style="fill: steelblue;"></circle><circle cx="76.6948938369751" cy="34.92089472711086" r="2" style="fill: steelblue;"></circle><circle cx="48.666309169493616" cy="53.3846590667963" r="2" style="fill: steelblue;"></circle><circle cx="70.62935568392277" cy="87.76995092630386" r="2" style="fill: steelblue;"></circle><circle cx="61.30128093063831" cy="22.489958629012108" r="2" style="fill: steelblue;"></circle><circle cx="8.513118326663974" cy="71.03707939386368" r="2" style="fill: steelblue;"></circle><circle cx="60.84069907665253" cy="49.91266435245052" r="2" style="fill: steelblue;"></circle><circle cx="27.7158722281456" cy="44.116044603288174" r="2" style="fill: steelblue;"></circle><circle cx="50.79154275590554" cy="59.11150500178337" r="2" style="fill: steelblue;"></circle><circle cx="79.53803539276123" cy="27.524109184741974" r="2" style="fill: steelblue;"></circle><circle cx="59.47475153952837" cy="44.537053629755974" r="2" style="fill: steelblue;"></circle><circle cx="66.47678948938847" cy="14.602328836917877" r="2" style="fill: steelblue;"></circle><circle cx="25.566700100898743" cy="66.19577407836914" r="2" style="fill: steelblue;"></circle><circle cx="17.157796025276188" cy="62.023947201669216" r="2" style="fill: steelblue;"></circle><circle cx="50.502862385474145" cy="67.86001399159431" r="2" style="fill: steelblue;"></circle><circle cx="30.690428987145424" cy="96.81795462965965" r="2" style="fill: steelblue;"></circle><circle cx="14.473884552717212" cy="69.37710680067539" r="2" style="fill: steelblue;"></circle><circle cx="33.094632625579834" cy="69.06872726976871" r="2" style="fill: steelblue;"></circle></g></svg>