<svg xmlns="http://www.w3.org/2000/svg"><g><circle cx="98.94772353582084" cy="158.99209901690483" r="2" style="fill: steelblue;"></circle><circle cx="90.61619490385056" cy="57.884516566991806" r="2" style="fill: steelblue;"></circle><circle cx="83.35247486829758" cy="115.50224795937538" r="2" style="fill: steelblue;"></circle><circle cx="75.95477662980556" cy="177.6878073811531" r="2" style="fill: steelblue;"></circle><circle cx="51.17654651403427" cy="182.45260268449783" r="2" style="fill: steelblue;"></circle><circle cx="93.73775161802769" cy="130.91062046587467" r="2" style="fill: steelblue;"></circle><circle cx="78.9403360337019" cy="68.4770479798317" r="2" style="fill: steelblue;"></circle><circle cx="90.86398631334305" cy="123.3139656484127" r="2" style="fill: steelblue;"></circle><circle cx="50.9207047522068" cy="142.13791340589523" r="2" style="fill: steelblue;"></circle><circle cx="94.67156175523996" cy="156.15883693099022" r="2" style="fill: steelblue;"></circle><circle cx="128.05294655263424" cy="85.66769156605005" r="2" style="fill: steelblue;"></circle><circle cx="63.84857967495918" cy="121.61730267107487" r="2" style="fill: steelblue;"></circle><circle cx="45.753678679466255" cy="50.13007149100304" r="2" style="fill: steelblue;"></circle><circle cx="36.819992959499366" cy="145.85972055792809" r="2" style="fill: steelblue;"></circle><circle cx="78.35428453981876" cy="138.2019728422165" r="2" style="fill: steelblue;"></circle><circle cx="15.457420051097875" cy="98.26207966543734" r="2" style="fill: steelblue;"></circle><circle cx="61.72225847840309" cy="95.32814836129546" r="2" style="fill: steelblue;"></circle><circle cx="101.55678915325552" cy="109.72424354404211" r="2" style="fill: steelblue;"></circle><circle cx="76.5396248549223" cy="81.76873661577702" r="2" style="fill: steelblue;"></circle><circle cx="119.61003616452217" cy="48.21760058403015" r="2" style="fill: steelblue;"></circle><circle cx="157.31531605124474" cy="120.92863060534" r="2" style="fill: steelblue;"></circle><circle cx="137.82948479056358" cy="118.52370984852314" r="2" style="fill: steelblue;"></circle><circle cx="23.91448467969895" cy="104.15042415261269" r="2" style="fill: steelblue;"></circle><circle cx="105.68549428135157" cy="61.42244338989258" r="2" style="fill: steelblue;"></circle><circle cx="55.95899969339371" cy="118.84406432509422" r="2" style="fill: steelblue;"></circle><circle cx="68.49038079380989" cy="121.00158296525478" r="2" style="fill: steelblue;"></circle><circle cx="51.593123376369476" cy="90.8311516046524" r="2" style="fill: steelblue;"></circle><circle cx="87.3092733323574" cy="156.99099227786064" r="2" style="fill: steelblue;"></circle><circle cx="34.30024385452271" cy="161.28018721938133" r="2" style="fill: steelblue;"></circle><circle cx="69.98423151671886" cy="187.93575316667557" r="2" style="fill: steelblue;"></circle><circle cx="96.04150233790278" cy="13.483291864395142" r="2" style="fill: steelblue;"></circle><circle cx="120.66383883357048" cy="63.66981416940689" r="2" style="fill: steelblue;"></circle><circle cx="187.8291130065918" cy="129.12846580147743" r="2" style="fill: steelblue;"></circle><circle cx="84.81171578168869" cy="141.72856360673904" r="2" style="fill: steelblue;"></circle><circle cx="114.34155367314816" cy="41.57551974058151" r="2" style="fill: steelblue;"></circle><circle cx="161.39161810278893" cy="28.27872931957245" r="2" style="fill: steelblue;"></circle><circle cx="107.12508894503117" cy="127.43552438914776" r="2" style="fill: steelblue;"></circle><circle cx="170.9318146109581" cy="173.57259094715118" r="2" style="fill: steelblue;"></circle><circle cx="55.06476238369942" cy="122.058280184865" r="2" style="fill: steelblue;"></circle><circle cx="48.552288115024574" cy="145.66194862127304" r="2" style="fill: steelblue;"></circle><circle cx="117.76115596294403" cy="105.39327459409833" r="2" style="fill: steelblue;"></circle><circle cx="59.59301292896271" cy="133.25794264674187" r="2" style="fill: steelblue;"></circle><circle cx="167.84605979919434" cy="168.08605790138245" r="2" style="fill: steelblue;"></circle><circle cx="114.46968596428633" cy="10.954974591732025" r="2" style="fill: steelblue;"></circle><circle cx="139.6399311721325" cy="102.70403269678354" r="2" style="fill: steelblue;"></circle><circle cx="154.23925817012787" cy="88.55010885745287" r="2" style="fill: steelblue;"></circle><circle cx="113.16500920802355" cy="76.16276144981384" r="2" style="fill: steelblue;"></circle><circle cx="164.6800994873047" cy="106.33366126567125" r="2" style="fill: steelblue;"></circle><circle cx="55.35234361886978" cy="133.8306501507759" r="2" style="fill: steelblue;"></circle><circle cx="18.851412832736976" cy="55.39359748363495" r="2" style="fill: steelblue;"></circle><circle cx="13.646087050437933" cy="110.43910533189774" r="2" style="fill: steelblue;"></circle><circle cx="61.85311675071716" cy="47.35562801361084" r="2" style="fill: steelblue;"></circle><circle cx="114.72260616719723" cy="69.85617466270924" r="2" style="fill: steelblue;"></circle><circle cx="167.16682761907578" cy="151.7517775297165" r="2" style="fill: steelblue;"></circle><circle cx="98.39157739188522" cy="140.29755294322968" r="2" style="fill: steelblue;"></circle><circle cx="73.60613755881786" cy="175.7458359003067" r="2" style="fill: steelblue;"></circle><circle cx="77.38266736268997" cy="103.48739326000214" r="2" style="fill: steelblue;"></circle><circle cx="77.89129428565502" cy="115.70996828377247" r="2" style="fill: steelblue;"></circle><circle cx="99.30120242061093" cy="106.36897422373295" r="2" style="fill: steelblue;"></circle><circle cx="43.00885125994683" cy="111.42708957195282" r="2" style="fill: steelblue;"></circle><circle cx="68.23985502123833" cy="150.36217346787453" r="2" style="fill: steelblue;"></circle><circle cx="30.505283176898963" cy="153.34483832120895" r="2" style="fill: steelblue;"></circle><circle cx="54.93713766336441" cy="186.8052914738655" r="2" style="fill: steelblue;"></circle><circle cx="55.81643283367157" cy="171.55682146549225" r="2" style="fill: steelblue;"></circle><circle cx="17.58403182029725" cy="172.0849111676216" r="2" style="fill: steelblue;"></circle><circle cx="50.03277063369751" cy="161.52700260281563" r="2" style="fill: steelblue;"></circle><circle cx="93.96979622542858" cy="175.56936144828796" r="2" style="fill: steelblue;"></circle><circle cx="31.84227496385575" cy="193.75084936618805" r="2" style="fill: steelblue;"></circle><circle cx="68.2282879948616" cy="165.7273232936859" r="2" style="fill: steelblue;"></circle><circle cx="28.239971399307258" cy="111.22903916984797" r="2" style="fill: steelblue;"></circle><circle cx="82.53725469112396" cy="170.97923010587692" r="2" style="fill: steelblue;"></circle><circle cx="118.74427683651447" cy="26.224984228610992" r="2" style="fill: steelblue;"></circle><circle cx="140.09783267974854" cy="62.19586953520775" r="2" style="fill: steelblue;"></circle><circle cx="170.67307084798813" cy="109.00733470916748" r="2" style="fill: steelblue;"></circle><circle cx="136.76539659500122" cy="22.54599928855896" r="2" style="fill: steelblue;"></circle><circle cx="137.63842955231667" cy="89.41237479448318" r="2" style="fill: steelblue;"></circle><circle cx="183.4936797618866" cy="54.023316502571106" r="2" style="fill: steelblue;"></circle><circle cx="145.19115388393402" cy="113.7848099693656" r="2" style="fill: steelblue;"></circle><circle cx="107.65037350356579" cy="30.71036785840988" r="2" style="fill: steelblue;"></circle><circle cx="183.7881714105606" cy="45.17877325415611" r="2" style="fill: steelblue;"></circle><circle cx="160.86979433894157" cy="49.586205184459686" r="2" style="fill: steelblue;"></circle><circle cx="156.78792297840118" cy="149.69964176416397" r="2" style="fill: steelblue;"></circle><circle cx="167.61783361434937" cy="105.67232072353363" r="2" style="fill: steelblue;"></circle><circle cx="74.61306490004063" cy="125.25394037365913" r="2" style="fill: steelblue;"></circle><circle cx="68.85049156844616" cy="60.6718011200428" r="2" style="fill: steelblue;"></circle><circle cx="42.931119352579124" cy="157.04272165894508" r="2" style="fill: steelblue;"></circle><circle cx="147.7103292942047" cy="95.42498914524913" r="2" style="fill: steelblue;"></circle><circle cx="27.795581519603736" cy="133.6296297609806" r="2" style="fill: steelblue;"></circle><circle cx="46.647088974714286" cy="174.27246123552322" r="2" style="fill: steelblue;"></circle><circle cx="184.291972219944" cy="107.69819878041744" r="2" style="fill: steelblue;"></circle><circle cx="139.36095535755157" cy="46.53295353055" r="2" style="fill: steelblue;"></circle><circle cx="141.43429920077324" cy="98.2062338385731" r="2" style="fill: steelblue;"></circle><circle cx="186.71176433563232" cy="77.96189226210117" r="2" style="fill: steelblue;"></circle><circle cx="142.52825304865837" cy="106.1578112654388" r="2" style="fill: steelblue;"></circle><circle cx="97.09592130966485" cy="85.93658581376076" r="2" style="fill: steelblue;"></circle><circle cx="153.84988710284233" cy="26.261208951473236" r="2" style="fill: steelblue;"></circle><circle cx="125.02614073455334" cy="35.73320657014847" r="2" style="fill: steelblue;"></circle><circle cx="100.06990506517468" cy="65.29131382703781" r="2" style="fill: steelblue;"></circle><circle cx="143.6788871884346" cy="136.68201714754105" r="2" style="fill: steelblue;"></circle><circle cx="36.80573999881745" cy="77.60382294654846" r="2" style="fill: steelblue;"></circle><circle cx="104.48453659191728" cy="57.328423857688904" r="2" style="fill: steelblue;"></circle><circle cx="102.59844772517681" cy="61.78668737411499" r="2" style="fill: steelblue;"></circle><circle cx="113.08152079582214" cy="68.8031543046236" r="2" style="fill: steelblue;"></circle><circle cx="133.7059497833252" cy="46.97316363453865" r="2" style="fill: steelblue;"></circle><circle cx="172.86541908979416" cy="52.584825456142426" r="2" style="fill: steelblue;"></circle><circle cx="182.99123495817184" cy="80.39507120847702" r="2" style="fill: steelblue;"></circle><circle cx="126.16569399833679" cy="135.25614365935326" r="2" style="fill: steelblue;"></circle><circle cx="117.25945435464382" cy="134.9925309419632" r="2" style="fill: steelblue;"></circle><circle cx="63.67274224758148" cy="73.37418980896473" r="2" style="fill: steelblue;"></circle><circle cx="167.7509754896164" cy="110.91927662491798" r="2" style="fill: steelblue;"></circle><circle cx="108.47180746495724" cy="72.7872908115387" r="2" style="fill: steelblue;"></circle><circle cx="128.0014630407095" cy="41.122040152549744" r="2" style="fill: steelblue;"></circle><circle cx="144.0647378563881" cy="75.3830824047327" r="2" style="fill: steelblue;"></circle><circle cx="45.41104882955552" cy="125.01488104462624" r="2" style="fill: steelblue;"></circle><circle cx="72.70011715590954" cy="176.3159692287445" r="2" style="fill: steelblue;"></circle><circle cx="41.51554629206658" cy="118.74421536922455" r="2" style="fill: steelblue;"></circle><circle cx="64.03785794973373" cy="104.20604692772031" r="2" style="fill: steelblue;"></circle><circle cx="88.07895462960005" cy="42.720815539360046" r="2" style="fill: steelblue;"></circle></g></svg>