<svg xmlns="http://www.w3.org/2000/svg"><g><circle cx="60.809774117337334" cy="94.82346640692818" r="2" style="fill: steelblue;"></circle><circle cx="43.500415152973595" cy="75.10509921444786" r="2" style="fill: steelblue;"></circle><circle cx="44.9428293440077" cy="91.13278322749667" r="2" style="fill: steelblue;"></circle><circle cx="39.483941263622704" cy="79.57864469952054" r="2" style="fill: steelblue;"></circle><circle cx="17.428275611665516" cy="77.25922101073795" r="2" style="fill: steelblue;"></circle><circle cx="44.25669130351808" cy="76.21743281682332" r="2" style="fill: steelblue;"></circle><circle cx="67.14345680342781" cy="53.942350049813584" r="2" style="fill: steelblue;"></circle><circle cx="35.38847797446781" cy="94.76390812132094" r="2" style="fill: steelblue;"></circle><circle cx="43.548867934279976" cy="43.35471904940075" r="2" style="fill: steelblue;"></circle><circle cx="85.17070280181038" cy="70.64885232183669" r="2" style="fill: steelblue;"></circle><circle cx="51.29135358664725" cy="68.55440884828568" r="2" style="fill: steelblue;"></circle><circle cx="63.67455588446723" cy="60.75054407119751" r="2" style="fill: steelblue;"></circle><circle cx="37.162939707438156" cy="28.627981742223106" r="2" style="fill: steelblue;"></circle><circle cx="41.23287399609883" cy="93.68036521805656" r="2" style="fill: steelblue;"></circle><circle cx="43.39102076159583" cy="45.32379160324732" r="2" style="fill: steelblue;"></circle><circle cx="10.573731528388128" cy="77.80795296033223" r="2" style="fill: steelblue;"></circle><circle cx="64.64185731278526" cy="80.95438447263506" r="2" style="fill: steelblue;"></circle><circle cx="73.04871247874367" cy="80.25122847821977" r="2" style="fill: steelblue;"></circle><circle cx="63.68368201785617" cy="32.82237880759769" r="2" style="fill: steelblue;"></circle><circle cx="70.44068806701236" cy="48.75069152977731" r="2" style="fill: steelblue;"></circle><circle cx="91.47618214289346" cy="59.14002615544531" r="2" style="fill: steelblue;"></circle><circle cx="71.00213236278957" cy="54.275443363520836" r="2" style="fill: steelblue;"></circle><circle cx="20.50169971254137" cy="45.92507415347629" r="2" style="fill: steelblue;"></circle><circle cx="36.58006423049503" cy="61.79233392079671" r="2" style="fill: steelblue;"></circle><circle cx="23.029668463601006" cy="90.9484194384681" r="2" style="fill: steelblue;"></circle><circle cx="59.31165690223376" cy="92.49916010432773" r="2" style="fill: steelblue;"></circle><circle cx="36.85839805338117" cy="78.05472943517897" r="2" style="fill: steelblue;"></circle><circle cx="48.086517386966285" cy="66.54931935999129" r="2" style="fill: steelblue;"></circle><circle cx="47.77686049540837" cy="67.12460683451758" r="2" style="fill: steelblue;"></circle><circle cx="75.31297538015578" cy="48.43872123294406" r="2" style="fill: steelblue;"></circle><circle cx="57.01924591428703" cy="29.70097131199306" r="2" style="fill: steelblue;"></circle><circle cx="42.152486741542816" cy="46.16594894064797" r="2" style="fill: steelblue;"></circle><circle cx="79.91413606537712" cy="28.337450491057503" r="2" style="fill: steelblue;"></circle><circle cx="78.10827593008676" cy="38.90442185931735" r="2" style="fill: steelblue;"></circle><circle cx="57.727853871054116" cy="43.35410396258036" r="2" style="fill: steelblue;"></circle><circle cx="51.41069243351618" cy="91.80516997973123" r="2" style="fill: steelblue;"></circle><circle cx="22.9609575536516" cy="83.49002069897121" r="2" style="fill: steelblue;"></circle><circle cx="35.91904871993595" cy="34.29132534397973" r="2" style="fill: steelblue;"></circle><circle cx="26.29623148176405" cy="69.9335816833708" r="2" style="fill: steelblue;"></circle><circle cx="27.399834659364487" cy="37.26130558384789" r="2" style="fill: steelblue;"></circle><circle cx="42.560605539215935" cy="65.03378599882126" r="2" style="fill: steelblue;"></circle><circle cx="73.23181960317824" cy="27.193572786119248" r="2" style="fill: steelblue;"></circle><circle cx="53.27507667243481" cy="36.07174257437388" r="2" style="fill: steelblue;"></circle><circle cx="77.63937612374623" cy="36.045302947362266" r="2" style="fill: steelblue;"></circle><circle cx="64.86672990851932" cy="45.375995337963104" r="2" style="fill: steelblue;"></circle><circle cx="83.59100421269734" cy="62.05138895246718" r="2" style="fill: steelblue;"></circle><circle cx="82.65288174152374" cy="43.42590603563521" r="2" style="fill: steelblue;"></circle><circle cx="33.589081631766426" cy="85.88698506355286" r="2" style="fill: steelblue;"></circle><circle cx="25.920381148656208" cy="93.10439891285365" r="2" style="fill: steelblue;"></circle><circle cx="56.406151658544935" cy="80.49738903840382" r="2" style="fill: steelblue;"></circle><circle cx="11.114345656500921" cy="44.859545926253" r="2" style="fill: steelblue;"></circle><circle cx="37.69447737269932" cy="62.98763139380349" r="2" style="fill: steelblue;"></circle><circle cx="55.27067518172165" cy="78.43222386307187" r="2" style="fill: steelblue;"></circle><circle cx="45.71141882075204" cy="61.39402174287372" r="2" style="fill: steelblue;"></circle><circle cx="55.674955067742204" cy="46.459216210577225" r="2" style="fill: steelblue;"></circle><circle cx="40.55677188767327" cy="66.67478465371661" r="2" style="fill: steelblue;"></circle><circle cx="64.95812121364806" cy="88.45379617479112" r="2" style="fill: steelblue;"></circle><circle cx="44.17120996448728" cy="58.6539376527071" r="2" style="fill: steelblue;"></circle><circle cx="52.96622692710823" cy="71.2996307346556" r="2" style="fill: steelblue;"></circle><circle cx="34.58301060729557" cy="68.80467881759007" r="2" style="fill: steelblue;"></circle><circle cx="42.01106975475947" cy="36.99293070369296" r="2" style="fill: steelblue;"></circle><circle cx="24.85860718621148" cy="26.523709297180176" r="2" style="fill: steelblue;"></circle><circle cx="11.093609862857393" cy="89.88225128915575" r="2" style="fill: steelblue;"></circle><circle cx="61.138675444655945" cy="98.85603851742214" r="2" style="fill: steelblue;"></circle><circle cx="38.31082748042213" cy="89.60627184973823" r="2" style="fill: steelblue;"></circle><circle cx="35.415462321705284" cy="97.75892562336391" r="2" style="fill: steelblue;"></circle><circle cx="39.276202519734696" cy="51.25413214166959" r="2" style="fill: steelblue;"></circle><circle cx="39.6735817193985" cy="72.02020618650648" r="2" style="fill: steelblue;"></circle><circle cx="45.704940954844155" cy="53.785540991359284" r="2" style="fill: steelblue;"></circle><circle cx="29.176534877883064" cy="76.61275896761153" r="2" style="fill: steelblue;"></circle><circle cx="31.402700477176243" cy="88.03407351175943" r="2" style="fill: steelblue;"></circle><circle cx="55.57740396761801" cy="30.150208208296036" r="2" style="fill: steelblue;"></circle><circle cx="81.08822504679361" cy="49.43193453881476" r="2" style="fill: steelblue;"></circle><circle cx="78.22425001197391" cy="36.935821175575256" r="2" style="fill: steelblue;"></circle><circle cx="62.68673472934299" cy="27.32521626684401" r="2" style="fill: steelblue;"></circle><circle cx="76.74562931060791" cy="62.09887895319197" r="2" style="fill: steelblue;"></circle><circle cx="52.849069237709045" cy="53.36024488011996" r="2" style="fill: steelblue;"></circle><circle cx="58.81216459804111" cy="31.182401710086395" r="2" style="fill: steelblue;"></circle><circle cx="83.99431573020088" cy="19.46269803576999" r="2" style="fill: steelblue;"></circle><circle cx="80.83616197109222" cy="81.48589399125841" r="2" style="fill: steelblue;"></circle><circle cx="53.282964353760086" cy="8.025076654222275" r="2" style="fill: steelblue;"></circle><circle cx="64.6984866923756" cy="24.426874187257553" r="2" style="fill: steelblue;"></circle><circle cx="66.1972098880344" cy="54.049342042869995" r="2" style="fill: steelblue;"></circle><circle cx="55.83246070374217" cy="34.91158452298906" r="2" style="fill: steelblue;"></circle><circle cx="33.39628709687127" cy="92.59589182005989" r="2" style="fill: steelblue;"></circle><circle cx="36.171398229069176" cy="76.6253156794442" r="2" style="fill: steelblue;"></circle><circle cx="48.45391462246577" cy="65.62343322568469" r="2" style="fill: steelblue;"></circle><circle cx="52.98480908903811" cy="32.29209946261512" r="2" style="fill: steelblue;"></circle><circle cx="43.060484859678475" cy="68.58500258790122" r="2" style="fill: steelblue;"></circle><circle cx="78.00716989570194" cy="5.862434705098474" r="2" style="fill: steelblue;"></circle><circle cx="88.81832162539163" cy="20.51600482728746" r="2" style="fill: steelblue;"></circle><circle cx="50.97296875384119" cy="22.316012117597793" r="2" style="fill: steelblue;"></circle><circle cx="80.88709082868364" cy="12.330482403437292" r="2" style="fill: steelblue;"></circle><circle cx="55.88680940369765" cy="46.27178940508101" r="2" style="fill: steelblue;"></circle><circle cx="71.08545137776268" cy="41.1355197429657" r="2" style="fill: steelblue;"></circle><circle cx="84.43100916014778" cy="24.27724997202555" r="2" style="fill: steelblue;"></circle><circle cx="78.79716820187038" cy="16.969750324885048" r="2" style="fill: steelblue;"></circle><circle cx="77.66645815637376" cy="58.602685936623146" r="2" style="fill: steelblue;"></circle><circle cx="73.10333351294199" cy="80.90016576978896" r="2" style="fill: steelblue;"></circle><circle cx="66.66243159108691" cy="32.77169167995453" r="2" style="fill: steelblue;"></circle><circle cx="62.026496562692856" cy="64.84886258840561" r="2" style="fill: steelblue;"></circle><circle cx="70.36380304230583" cy="41.48368537425995" r="2" style="fill: steelblue;"></circle><circle cx="63.75405109590954" cy="36.58793701065911" r="2" style="fill: steelblue;"></circle><circle cx="63.2455481423272" cy="44.96801065074073" r="2" style="fill: steelblue;"></circle><circle cx="93.00323989656236" cy="43.0054184463289" r="2" style="fill: steelblue;"></circle><circle cx="72.25817773077223" cy="37.717739741007485" r="2" style="fill: steelblue;"></circle><circle cx="75.92916488647461" cy="34.83276400301192" r="2" style="fill: steelblue;"></circle><circle cx="62.81123227543301" cy="58.63627170523007" r="2" style="fill: steelblue;"></circle><circle cx="60.50229776236746" cy="37.58665257030063" r="2" style="fill: steelblue;"></circle><circle cx="67.82942844761742" cy="33.42882792154948" r="2" style="fill: steelblue;"></circle><circle cx="75.74828465779622" cy="38.27877342700958" r="2" style="fill: steelblue;"></circle><circle cx="72.48875167634752" cy="65.83816309769948" r="2" style="fill: steelblue;"></circle><circle cx="34.563615918159485" cy="65.84524611632028" r="2" style="fill: steelblue;"></circle><circle cx="48.4941162996822" cy="45.480504631996155" r="2" style="fill: steelblue;"></circle><circle cx="23.62560894754198" cy="69.17588661114374" r="2" style="fill: steelblue;"></circle><circle cx="18.066710895962185" cy="83.14656052324507" r="2" style="fill: steelblue;"></circle><circle cx="30.599542789989048" cy="62.64580951796637" r="2" style="fill: steelblue;"></circle><circle cx="73.16191991170248" cy="48.32857681645287" r="2" style="fill: steelblue;"></circle></g></svg>