<svg xmlns="http://www.w3.org/2000/svg"><rect width="200" height="200" fill="white"></rect><g><circle cx="84.62221119552851" cy="170.45924067497253" r="2" style="fill: steelblue;"></circle><circle cx="26.32488906383515" cy="139.30042386054993" r="2" style="fill: steelblue;"></circle><circle cx="84.17511954903603" cy="80.59520274400711" r="2" style="fill: steelblue;"></circle><circle cx="21.83440178632737" cy="117.89080500602722" r="2" style="fill: steelblue;"></circle><circle cx="20.034237205982215" cy="87.23943382501602" r="2" style="fill: steelblue;"></circle><circle cx="26.039248704910285" cy="165.8960998058319" r="2" style="fill: steelblue;"></circle><circle cx="97.73420626297593" cy="100.455635599792" r="2" style="fill: steelblue;"></circle><circle cx="141.53981432318687" cy="84.15102809667587" r="2" style="fill: steelblue;"></circle><circle cx="44.09104436635972" cy="130.58470785617828" r="2" style="fill: steelblue;"></circle><circle cx="81.49378970265388" cy="130.8000087738037" r="2" style="fill: steelblue;"></circle><circle cx="76.11381858587265" cy="124.25718009471893" r="2" style="fill: steelblue;"></circle><circle cx="56.86371251940727" cy="108.90614241361618" r="2" style="fill: steelblue;"></circle><circle cx="48.715042322874076" cy="109.70536395907402" r="2" style="fill: steelblue;"></circle><circle cx="76.82434320449829" cy="153.32382917404175" r="2" style="fill: steelblue;"></circle><circle cx="93.82663983851671" cy="91.16427823901176" r="2" style="fill: steelblue;"></circle><circle cx="81.7868247628212" cy="170.46836018562317" r="2" style="fill: steelblue;"></circle><circle cx="38.38458880782128" cy="146.37718498706818" r="2" style="fill: steelblue;"></circle><circle cx="85.29194481670856" cy="65.41146636009216" r="2" style="fill: steelblue;"></circle><circle cx="93.02480323240161" cy="98.89811789616942" r="2" style="fill: steelblue;"></circle><circle cx="82.4135061353445" cy="42.173832654953" r="2" style="fill: steelblue;"></circle><circle cx="67.90609881281853" cy="100.66833915188909" r="2" style="fill: steelblue;"></circle><circle cx="79.76312041282654" cy="90.88694900274277" r="2" style="fill: steelblue;"></circle><circle cx="58.99692922830582" cy="80.32214790582657" r="2" style="fill: steelblue;"></circle><circle cx="95.90876372531056" cy="142.99983382225037" r="2" style="fill: steelblue;"></circle><circle cx="102.40064691752195" cy="77.35662311315536" r="2" style="fill: steelblue;"></circle><circle cx="69.72806192934513" cy="139.83899652957916" r="2" style="fill: steelblue;"></circle><circle cx="125.09910240769386" cy="120.76044976711273" r="2" style="fill: steelblue;"></circle><circle cx="131.35429695248604" cy="120.64676135778427" r="2" style="fill: steelblue;"></circle><circle cx="50.684431940317154" cy="152.42376327514648" r="2" style="fill: steelblue;"></circle><circle cx="121.79046347737312" cy="91.2389762699604" r="2" style="fill: steelblue;"></circle><circle cx="171.49199396371841" cy="54.91730570793152" r="2" style="fill: steelblue;"></circle><circle cx="154.0146343410015" cy="56.994253396987915" r="2" style="fill: steelblue;"></circle><circle cx="90.62552582472563" cy="37.253767251968384" r="2" style="fill: steelblue;"></circle><circle cx="128.05290929973125" cy="105.10114133358002" r="2" style="fill: steelblue;"></circle><circle cx="141.56004637479782" cy="89.80052843689919" r="2" style="fill: steelblue;"></circle><circle cx="192.84762293100357" cy="116.13259762525558" r="2" style="fill: steelblue;"></circle><circle cx="121.61935158073902" cy="98.09270687401295" r="2" style="fill: steelblue;"></circle><circle cx="115.85676893591881" cy="135.1771503686905" r="2" style="fill: steelblue;"></circle><circle cx="70.98542004823685" cy="160.9239161014557" r="2" style="fill: steelblue;"></circle><circle cx="13.95930945873261" cy="157.74719715118408" r="2" style="fill: steelblue;"></circle><circle cx="118.50188337266445" cy="181.0862958431244" r="2" style="fill: steelblue;"></circle><circle cx="182.68654346466064" cy="69.68909800052643" r="2" style="fill: steelblue;"></circle><circle cx="192.3166424036026" cy="152.1722674369812" r="2" style="fill: steelblue;"></circle><circle cx="183.905428647995" cy="74.99395310878754" r="2" style="fill: steelblue;"></circle><circle cx="75.38459487259388" cy="63.617682456970215" r="2" style="fill: steelblue;"></circle><circle cx="63.34143355488777" cy="72.43078351020813" r="2" style="fill: steelblue;"></circle><circle cx="65.21096304059029" cy="48.266106843948364" r="2" style="fill: steelblue;"></circle><circle cx="17.228102684021003" cy="145.36895155906677" r="2" style="fill: steelblue;"></circle><circle cx="35.596995055675514" cy="146.82939648628235" r="2" style="fill: steelblue;"></circle><circle cx="61.161669343709946" cy="131.00011944770813" r="2" style="fill: steelblue;"></circle><circle cx="67.60424971580505" cy="83.08305889368057" r="2" style="fill: steelblue;"></circle><circle cx="60.99672466516495" cy="53.662851452827454" r="2" style="fill: steelblue;"></circle><circle cx="67.82944351434708" cy="73.9229291677475" r="2" style="fill: steelblue;"></circle><circle cx="48.51066544651986" cy="124.49502646923065" r="2" style="fill: steelblue;"></circle><circle cx="80.22444918751717" cy="104.83143888413906" r="2" style="fill: steelblue;"></circle><circle cx="71.47305682301521" cy="90.2801863849163" r="2" style="fill: steelblue;"></circle><circle cx="109.02335532009602" cy="93.69649589061737" r="2" style="fill: steelblue;"></circle><circle cx="0.4896283149719294" cy="145.95578908920288" r="2" style="fill: steelblue;"></circle><circle cx="67.54872426390648" cy="111.1641101539135" r="2" style="fill: steelblue;"></circle><circle cx="59.663696587085724" cy="122.94916063547134" r="2" style="fill: steelblue;"></circle><circle cx="59.06778424978256" cy="85.96767336130142" r="2" style="fill: steelblue;"></circle><circle cx="64.59488198161125" cy="115.95711708068848" r="2" style="fill: steelblue;"></circle><circle cx="20.115739107131965" cy="167.32608675956726" r="2" style="fill: steelblue;"></circle><circle cx="26.524691283702857" cy="168.05702447891235" r="2" style="fill: steelblue;"></circle><circle cx="99.6612936956808" cy="137.00471222400665" r="2" style="fill: steelblue;"></circle><circle cx="56.84174448251724" cy="118.98143142461777" r="2" style="fill: steelblue;"></circle><circle cx="95.70611584931612" cy="147.1477895975113" r="2" style="fill: steelblue;"></circle><circle cx="39.83613327145577" cy="118.98365020751953" r="2" style="fill: steelblue;"></circle><circle cx="36.58931553363801" cy="161.57943606376648" r="2" style="fill: steelblue;"></circle><circle cx="131.59210458397865" cy="130.10201156139374" r="2" style="fill: steelblue;"></circle><circle cx="68.2810977101326" cy="159.13575887680054" r="2" style="fill: steelblue;"></circle><circle cx="141.43208265304565" cy="94.83472965657711" r="2" style="fill: steelblue;"></circle><circle cx="63.67263421416283" cy="82.89880007505417" r="2" style="fill: steelblue;"></circle><circle cx="159.53418463468552" cy="55.458906292915344" r="2" style="fill: steelblue;"></circle><circle cx="146.13691195845604" cy="67.9332822561264" r="2" style="fill: steelblue;"></circle><circle cx="91.254941560328" cy="131.3226878643036" r="2" style="fill: steelblue;"></circle><circle cx="146.22670635581017" cy="71.79155349731445" r="2" style="fill: steelblue;"></circle><circle cx="165.28671085834503" cy="61.39064431190491" r="2" style="fill: steelblue;"></circle><circle cx="149.19858276844025" cy="62.99044191837311" r="2" style="fill: steelblue;"></circle><circle cx="146.56533896923065" cy="45.609062910079956" r="2" style="fill: steelblue;"></circle><circle cx="188.8051688671112" cy="33.27428698539734" r="2" style="fill: steelblue;"></circle><circle cx="147.44784906506538" cy="41.61272048950195" r="2" style="fill: steelblue;"></circle><circle cx="131.4318612217903" cy="97.11041450500488" r="2" style="fill: steelblue;"></circle><circle cx="37.834538519382484" cy="121.66611552238464" r="2" style="fill: steelblue;"></circle><circle cx="67.0008197426796" cy="129.7268271446228" r="2" style="fill: steelblue;"></circle><circle cx="90.69163482636213" cy="96.68305963277817" r="2" style="fill: steelblue;"></circle><circle cx="127.34608948230743" cy="113.21838051080704" r="2" style="fill: steelblue;"></circle><circle cx="84.05596427619457" cy="130.92755675315857" r="2" style="fill: steelblue;"></circle><circle cx="116.75211451947689" cy="138.89013528823853" r="2" style="fill: steelblue;"></circle><circle cx="128.45779806375504" cy="64.01282250881195" r="2" style="fill: steelblue;"></circle><circle cx="139.81973603367805" cy="76.84262096881866" r="2" style="fill: steelblue;"></circle><circle cx="108.56960285454988" cy="16.020172834396362" r="2" style="fill: steelblue;"></circle><circle cx="148.55798184871674" cy="28.58259081840515" r="2" style="fill: steelblue;"></circle><circle cx="147.94246703386307" cy="81.91955089569092" r="2" style="fill: steelblue;"></circle><circle cx="54.757966101169586" cy="80.48568964004517" r="2" style="fill: steelblue;"></circle><circle cx="103.7826499901712" cy="91.55740886926651" r="2" style="fill: steelblue;"></circle><circle cx="179.63215559720993" cy="49.32417869567871" r="2" style="fill: steelblue;"></circle><circle cx="162.67956644296646" cy="39.175933599472046" r="2" style="fill: steelblue;"></circle><circle cx="138.11873123049736" cy="78.26052904129028" r="2" style="fill: steelblue;"></circle><circle cx="109.78410802781582" cy="88.49257528781891" r="2" style="fill: steelblue;"></circle><circle cx="102.62389704585075" cy="95.4189483076334" r="2" style="fill: steelblue;"></circle><circle cx="110.13042125850916" cy="118.26998293399811" r="2" style="fill: steelblue;"></circle><circle cx="165.81324338912964" cy="88.67106661200523" r="2" style="fill: steelblue;"></circle><circle cx="84.36125554144382" cy="26.80906653404236" r="2" style="fill: steelblue;"></circle><circle cx="57.18587562441826" cy="125.95449388027191" r="2" style="fill: steelblue;"></circle><circle cx="139.96847197413445" cy="64.63482975959778" r="2" style="fill: steelblue;"></circle><circle cx="101.57419836614281" cy="55.975550413131714" r="2" style="fill: steelblue;"></circle><circle cx="103.47656477242708" cy="44.40698027610779" r="2" style="fill: steelblue;"></circle><circle cx="150.08582025766373" cy="70.3262448310852" r="2" style="fill: steelblue;"></circle><circle cx="145.59195414185524" cy="81.86580687761307" r="2" style="fill: steelblue;"></circle><circle cx="157.03654885292053" cy="35.8454167842865" r="2" style="fill: steelblue;"></circle><circle cx="62.16604486107826" cy="128.17749977111816" r="2" style="fill: steelblue;"></circle><circle cx="73.92250783741474" cy="142.9692566394806" r="2" style="fill: steelblue;"></circle><circle cx="93.84977156296372" cy="137.17981278896332" r="2" style="fill: steelblue;"></circle><circle cx="43.079419434070594" cy="96.83419354259968" r="2" style="fill: steelblue;"></circle><circle cx="51.670873910188675" cy="69.89159286022186" r="2" style="fill: steelblue;"></circle><circle cx="86.36295273900032" cy="79.91863191127777" r="2" style="fill: steelblue;"></circle><circle cx="88.24672028422356" cy="149.90828037261963" r="2" style="fill: steelblue;"></circle></g></svg>