<svg xmlns="http://www.w3.org/2000/svg"><g transform="translate(40,20)"><circle cx="280.73914736509323" cy="127.53649966584311" r="3" style="fill: steelblue;"></circle><circle cx="325.7203423976898" cy="187.11837319036323" r="3" style="fill: steelblue;"></circle><circle cx="288.39540123939514" cy="162.99389799435932" r="3" style="fill: steelblue;"></circle><circle cx="384.0794259309769" cy="186.86059593326513" r="3" style="fill: steelblue;"></circle><circle cx="157.85828769207" cy="107.3760911822319" r="3" style="fill: steelblue;"></circle><circle cx="370.39585053920746" cy="116.21228191587659" r="3" style="fill: steelblue;"></circle><circle cx="376.1918896436691" cy="119.0012204978201" r="3" style="fill: steelblue;"></circle><circle cx="471.47521018981934" cy="79.78464994165631" r="3" style="fill: steelblue;"></circle><circle cx="364.12584722042084" cy="63.92407748434278" r="3" style="fill: steelblue;"></circle><circle cx="277.9044994711876" cy="76.99633141358692" r="3" style="fill: steelblue;"></circle><circle cx="412.81184792518616" cy="130.20025110907022" r="3" style="fill: steelblue;"></circle><circle cx="464.4302988052368" cy="138.03518232372073" r="3" style="fill: steelblue;"></circle><circle cx="283.6656430363655" cy="149.01299277941388" r="3" style="fill: steelblue;"></circle><circle cx="357.7128195762634" cy="178.36424687670336" r="3" style="fill: steelblue;"></circle><circle cx="327.6007318496704" cy="225.91860509581034" r="3" style="fill: steelblue;"></circle><circle cx="480.19453525543213" cy="130.91793739133408" r="3" style="fill: steelblue;"></circle><circle cx="347.18499720096594" cy="148.5692399243514" r="3" style="fill: steelblue;"></circle><circle cx="289.28098171949387" cy="60.248606734805655" r="3" style="fill: steelblue;"></circle><circle cx="305.9966826438904" cy="140.02813978327646" r="3" style="fill: steelblue;"></circle><circle cx="333.19725036621094" cy="123.79697213570279" r="3" style="fill: steelblue;"></circle><circle cx="315.7950961589813" cy="195.19609085465265" r="3" style="fill: steelblue;"></circle><circle cx="177.51145899295807" cy="92.4431367052926" r="3" style="fill: steelblue;"></circle><circle cx="243.85683076456192" cy="291.49869001573984" r="3" style="fill: steelblue;"></circle><circle cx="152.60022819042206" cy="168.71269254220857" r="3" style="fill: steelblue;"></circle><circle cx="329.51245844364166" cy="189.83710733138855" r="3" style="fill: steelblue;"></circle><circle cx="311.04959338903427" cy="147.92516041133138" r="3" style="fill: steelblue;"></circle><circle cx="73.1847667694092" cy="243.02569735381337" r="3" style="fill: steelblue;"></circle><circle cx="293.54911834001547" cy="251.91875050465262" r="3" style="fill: steelblue;"></circle><circle cx="191.25918835401535" cy="256.0836697618166" r="3" style="fill: steelblue;"></circle><circle cx="188.58030080795288" cy="97.27121227317384" r="3" style="fill: steelblue;"></circle><circle cx="285.79347521066666" cy="245.43555991517172" r="3" style="fill: steelblue;"></circle><circle cx="205.46393260359764" cy="172.33635837005244" r="3" style="fill: steelblue;"></circle><circle cx="228.55915479362014" cy="257.21960845920773" r="3" style="fill: steelblue;"></circle><circle cx="206.1751113831997" cy="246.52818176481458" r="3" style="fill: steelblue;"></circle><circle cx="271.10907822847366" cy="118.86874337991077" r="3" style="fill: steelblue;"></circle><circle cx="254.58742395043373" cy="171.0159724785222" r="3" style="fill: steelblue;"></circle><circle cx="202.93140649795535" cy="245.0635623600748" r="3" style="fill: steelblue;"></circle><circle cx="138.1953710317612" cy="235.34452501270505" r="3" style="fill: steelblue;"></circle><circle cx="381.22965037822723" cy="234.65106139580405" r="3" style="fill: steelblue;"></circle><circle cx="42.527636289596565" cy="230.3525495032469" r="3" style="fill: steelblue;"></circle><circle cx="194.2748138308525" cy="186.64329457614156" r="3" style="fill: steelblue;"></circle><circle cx="85.99424600601198" cy="249.5725999275843" r="3" style="fill: steelblue;"></circle><circle cx="296.9583088159561" cy="229.13951550920802" r="3" style="fill: steelblue;"></circle><circle cx="168.76454740762713" cy="213.11726545294124" r="3" style="fill: steelblue;"></circle><circle cx="274.1983996331692" cy="211.55827326907053" r="3" style="fill: steelblue;"></circle><circle cx="31.473573446273814" cy="243.59995126724243" r="3" style="fill: steelblue;"></circle><circle cx="142.18151807785034" cy="236.8808823327223" r="3" style="fill: steelblue;"></circle><circle cx="173.0852374434471" cy="270.71069429318106" r="3" style="fill: steelblue;"></circle><circle cx="110.71467339992525" cy="206.3256944012311" r="3" style="fill: steelblue;"></circle><circle cx="148.42984914779663" cy="158.3137371473842" r="3" style="fill: steelblue;"></circle><circle cx="130.58222472667697" cy="201.08453618983424" r="3" style="fill: steelblue;"></circle><circle cx="228.9275662600994" cy="242.1693131327629" r="3" style="fill: steelblue;"></circle><circle cx="79.87585902214052" cy="217.83724592791663" r="3" style="fill: steelblue;"></circle><circle cx="135.81981897354126" cy="290.20079556438657" r="3" style="fill: steelblue;"></circle><circle cx="98.0841511487961" cy="120.64314633607864" r="3" style="fill: steelblue;"></circle><circle cx="106.82412028312683" cy="206.00805514388617" r="3" style="fill: steelblue;"></circle><circle cx="104.14869725704193" cy="246.8719176120228" r="3" style="fill: steelblue;"></circle><circle cx="183.5532331466675" cy="146.71292031804722" r="3" style="fill: steelblue;"></circle><circle cx="64.48552250862123" cy="315.0363696946038" r="3" style="fill: steelblue;"></circle><circle cx="228.1574895232916" cy="236.94796404904787" r="3" style="fill: steelblue;"></circle><circle cx="199.704065322876" cy="137.1933635738161" r="3" style="fill: steelblue;"></circle><circle cx="404.57122564315796" cy="223.80871242947046" r="3" style="fill: steelblue;"></circle><circle cx="279.6971493959427" cy="132.10264593362808" r="3" style="fill: steelblue;"></circle><circle cx="373.3394855260849" cy="86.38937109046513" r="3" style="fill: steelblue;"></circle><circle cx="335.2031135559082" cy="173.7407630102502" r="3" style="fill: steelblue;"></circle><circle cx="388.7956076860428" cy="128.7075090739462" r="3" style="fill: steelblue;"></circle><circle cx="364.7229605913162" cy="204.04512248933315" r="3" style="fill: steelblue;"></circle><circle cx="189.8639926314354" cy="67.4492402209176" r="3" style="fill: steelblue;"></circle><circle cx="158.09021830558777" cy="195.90964170897172" r="3" style="fill: steelblue;"></circle><circle cx="330.6309932470322" cy="21.164745092391968" r="3" style="fill: steelblue;"></circle><circle cx="353.003146648407" cy="161.56497225165367" r="3" style="fill: steelblue;"></circle><circle cx="264.40629601478577" cy="268.63386150863437" r="3" style="fill: steelblue;"></circle><circle cx="110.36507427692415" cy="232.44578474097784" r="3" style="fill: steelblue;"></circle><circle cx="105.78404903411867" cy="208.1175305777126" r="3" style="fill: steelblue;"></circle><circle cx="171.40087723731995" cy="281.24124308427173" r="3" style="fill: steelblue;"></circle><circle cx="124.24167931079866" cy="260.2835496266683" r="3" style="fill: steelblue;"></circle><circle cx="156.62934422492984" cy="147.87760749459267" r="3" style="fill: steelblue;"></circle><circle cx="122.44428634643556" cy="215.8265169709921" r="3" style="fill: steelblue;"></circle><circle cx="164.64669942855835" cy="274.53917347722586" r="3" style="fill: steelblue;"></circle><circle cx="306.42108857631683" cy="177.04353212482397" r="3" style="fill: steelblue;"></circle><circle cx="149.0152680873871" cy="163.07798193560706" r="3" style="fill: steelblue;"></circle><circle cx="33.38341355323793" cy="239.40353964765865" r="3" style="fill: steelblue;"></circle><circle cx="204.1522318124771" cy="206.2515320463313" r="3" style="fill: steelblue;"></circle><circle cx="219.82205897569656" cy="182.47638622091876" r="3" style="fill: steelblue;"></circle><circle cx="316.0879397392273" cy="178.8280109564463" r="3" style="fill: steelblue;"></circle><circle cx="256.21415354311466" cy="205.91195186393128" r="3" style="fill: steelblue;"></circle><circle cx="112.89674878120422" cy="229.8394954866833" r="3" style="fill: steelblue;"></circle><circle cx="324.0222090482712" cy="205.24658987091647" r="3" style="fill: steelblue;"></circle><circle cx="291.50590538978577" cy="77.91841526826221" r="3" style="fill: steelblue;"></circle><circle cx="420.64831495285034" cy="69.95389858881634" r="3" style="fill: steelblue;"></circle><circle cx="368.66511940956116" cy="117.93851769632762" r="3" style="fill: steelblue;"></circle><circle cx="448.39948654174805" cy="171.58134136762885" r="3" style="fill: steelblue;"></circle><circle cx="177.74475306272507" cy="214.91688924531138" r="3" style="fill: steelblue;"></circle><circle cx="344.58617806434637" cy="134.22615660561456" r="3" style="fill: steelblue;"></circle><circle cx="105.52476882934572" cy="229.42755950821768" r="3" style="fill: steelblue;"></circle><circle cx="7.37288832664491" cy="285.6932762596342" r="3" style="fill: steelblue;"></circle><circle cx="132.32507944107056" cy="246.47051675452124" r="3" style="fill: steelblue;"></circle><circle cx="206.62520840764046" cy="255.45711980925665" r="3" style="fill: steelblue;"></circle><circle cx="82.85790324211122" cy="266.3622564739651" r="3" style="fill: steelblue;"></circle><circle cx="11.965330839157117" cy="133.4448829293251" r="3" style="fill: steelblue;"></circle><circle cx="181.6810154914856" cy="240.92022329568863" r="3" style="fill: steelblue;"></circle><circle cx="71.00906610488893" cy="205.5694974131054" r="3" style="fill: steelblue;"></circle><circle cx="66.80768966674806" cy="194.880900801056" r="3" style="fill: steelblue;"></circle><circle cx="341.5916705131531" cy="201.95564234422312" r="3" style="fill: steelblue;"></circle><circle cx="337.4797546863556" cy="299.29387403859033" r="3" style="fill: steelblue;"></circle><circle cx="184.68176811933517" cy="241.9003169569704" r="3" style="fill: steelblue;"></circle><circle cx="320.5165797472" cy="160.5536701778571" r="3" style="fill: steelblue;"></circle><circle cx="384.4419175386429" cy="170.4289321270254" r="3" style="fill: steelblue;"></circle><circle cx="400.55206060409546" cy="221.02365063296423" r="3" style="fill: steelblue;"></circle><circle cx="333.77979040145874" cy="111.47863417863846" r="3" style="fill: steelblue;"></circle><circle cx="466.1682629585266" cy="108.0484381980366" r="3" style="fill: steelblue;"></circle><circle cx="301.56173944473267" cy="203.9780900296238" r="3" style="fill: steelblue;"></circle><circle cx="243.19173065945506" cy="306.5276543299357" r="3" style="fill: steelblue;"></circle><circle cx="353.8651102781296" cy="220.24989873170853" r="3" style="fill: steelblue;"></circle><circle cx="220.86397647857666" cy="258.8666280110677" r="3" style="fill: steelblue;"></circle><circle cx="119.74095046520233" cy="221.30316744248069" r="3" style="fill: steelblue;"></circle><circle cx="213.69678765535357" cy="207.65119646158485" r="3" style="fill: steelblue;"></circle><circle cx="95.99518418312074" cy="224.1729593111409" r="3" style="fill: steelblue;"></circle></g></svg>