<svg xmlns="http://www.w3.org/2000/svg"><g transform="translate(40,20)"><circle cx="431.36942625045776" cy="79.20921053737402" r="3" style="fill: steelblue;"></circle><circle cx="348.7976217269898" cy="178.15300980582833" r="3" style="fill: steelblue;"></circle><circle cx="349.7120136022568" cy="125.46361349523067" r="3" style="fill: steelblue;"></circle><circle cx="185.76553702354434" cy="200.08052601478994" r="3" style="fill: steelblue;"></circle><circle cx="294.1421502828598" cy="69.25693079829216" r="3" style="fill: steelblue;"></circle><circle cx="424.4033718109131" cy="159.61655899882317" r="3" style="fill: steelblue;"></circle><circle cx="342.68349051475525" cy="138.0756233818829" r="3" style="fill: steelblue;"></circle><circle cx="263.71619269251823" cy="100.62323249876499" r="3" style="fill: steelblue;"></circle><circle cx="267.6593081653118" cy="89.61824905127287" r="3" style="fill: steelblue;"></circle><circle cx="369.78047132492065" cy="43.97231452167034" r="3" style="fill: steelblue;"></circle><circle cx="243.07968920096755" cy="34.422774985432625" r="3" style="fill: steelblue;"></circle><circle cx="260.06693333387375" cy="128.53657333180308" r="3" style="fill: steelblue;"></circle><circle cx="166.05915516614914" cy="157.87961515598" r="3" style="fill: steelblue;"></circle><circle cx="324.08249616622925" cy="91.42382927238941" r="3" style="fill: steelblue;"></circle><circle cx="288.2930079102516" cy="93.70744060724974" r="3" style="fill: steelblue;"></circle><circle cx="255.47902487218383" cy="6.225315108895302" r="3" style="fill: steelblue;"></circle><circle cx="242.9797243885696" cy="79.8164077103138" r="3" style="fill: steelblue;"></circle><circle cx="304.25308138132095" cy="35.82807928323746" r="3" style="fill: steelblue;"></circle><circle cx="326.3139599561691" cy="201.9804138224572" r="3" style="fill: steelblue;"></circle><circle cx="428.43632340431213" cy="97.49284777790308" r="3" style="fill: steelblue;"></circle><circle cx="194.29940074682236" cy="220.58527935296297" r="3" style="fill: steelblue;"></circle><circle cx="125.9509527683258" cy="167.38060414791107" r="3" style="fill: steelblue;"></circle><circle cx="297.64484256505966" cy="111.11374218016863" r="3" style="fill: steelblue;"></circle><circle cx="386.5099632740021" cy="112.43280973285437" r="3" style="fill: steelblue;"></circle><circle cx="215.19817650318146" cy="179.38729603774846" r="3" style="fill: steelblue;"></circle><circle cx="141.32957696914673" cy="222.32936015352607" r="3" style="fill: steelblue;"></circle><circle cx="139.6068924665451" cy="150.25392659008503" r="3" style="fill: steelblue;"></circle><circle cx="323.54359567165375" cy="242.03082844614983" r="3" style="fill: steelblue;"></circle><circle cx="350.89550256729126" cy="203.51559966802597" r="3" style="fill: steelblue;"></circle><circle cx="378.42068016529083" cy="268.49943324923515" r="3" style="fill: steelblue;"></circle><circle cx="274.77584570646286" cy="264.9091539904475" r="3" style="fill: steelblue;"></circle><circle cx="215.78342109918594" cy="167.8073751507327" r="3" style="fill: steelblue;"></circle><circle cx="393.85776758193975" cy="171.95981267723255" r="3" style="fill: steelblue;"></circle><circle cx="116.74394845962526" cy="105.69862481206656" r="3" style="fill: steelblue;"></circle><circle cx="251.43247559666634" cy="157.43298241868615" r="3" style="fill: steelblue;"></circle><circle cx="225.0703876465559" cy="206.1992783099413" r="3" style="fill: steelblue;"></circle><circle cx="62.006106376647956" cy="222.55287617444992" r="3" style="fill: steelblue;"></circle><circle cx="219.92453947663307" cy="316.2008833140135" r="3" style="fill: steelblue;"></circle><circle cx="324.6595376729965" cy="293.32436360418797" r="3" style="fill: steelblue;"></circle><circle cx="261.1225390434265" cy="280.1398226991296" r="3" style="fill: steelblue;"></circle><circle cx="144.70674633979797" cy="259.5203874632716" r="3" style="fill: steelblue;"></circle><circle cx="231.80465452373028" cy="184.83082922175527" r="3" style="fill: steelblue;"></circle><circle cx="166.8634915351868" cy="173.57446053647436" r="3" style="fill: steelblue;"></circle><circle cx="168.7180691957474" cy="145.46874882653356" r="3" style="fill: steelblue;"></circle><circle cx="172.4933186173439" cy="181.46925898035988" r="3" style="fill: steelblue;"></circle><circle cx="254.58428911864758" cy="305.4241195321083" r="3" style="fill: steelblue;"></circle><circle cx="275.5385921895504" cy="203.85986538603902" r="3" style="fill: steelblue;"></circle><circle cx="118.64747643470764" cy="202.84572960808873" r="3" style="fill: steelblue;"></circle><circle cx="367.4148166179657" cy="200.76802903786302" r="3" style="fill: steelblue;"></circle><circle cx="178.28969299793246" cy="131.16572489961982" r="3" style="fill: steelblue;"></circle><circle cx="329.5131558179856" cy="182.59174197446555" r="3" style="fill: steelblue;"></circle><circle cx="305.6798243522644" cy="245.55871840566397" r="3" style="fill: steelblue;"></circle><circle cx="261.3422544300556" cy="197.6376100908965" r="3" style="fill: steelblue;"></circle><circle cx="63.8569736480713" cy="238.10628075152636" r="3" style="fill: steelblue;"></circle><circle cx="71.2654495239258" cy="229.23269048333168" r="3" style="fill: steelblue;"></circle><circle cx="165.03181546926498" cy="211.3994687795639" r="3" style="fill: steelblue;"></circle><circle cx="228.7767802923918" cy="238.46718687564135" r="3" style="fill: steelblue;"></circle><circle cx="171.5987527370453" cy="200.72741406038404" r="3" style="fill: steelblue;"></circle><circle cx="154.20660316944122" cy="133.8219542056322" r="3" style="fill: steelblue;"></circle><circle cx="309.71518099308014" cy="177.3364262888208" r="3" style="fill: steelblue;"></circle><circle cx="113.75560104846956" cy="159.17223407886922" r="3" style="fill: steelblue;"></circle><circle cx="345.8172047138214" cy="57.27096199989319" r="3" style="fill: steelblue;"></circle><circle cx="226.99266873300076" cy="119.26640029996634" r="3" style="fill: steelblue;"></circle><circle cx="392.8524219989777" cy="94.19670440256596" r="3" style="fill: steelblue;"></circle><circle cx="297.9501673579216" cy="287.5643253326416" r="3" style="fill: steelblue;"></circle><circle cx="317.32453644275665" cy="165.21760560572147" r="3" style="fill: steelblue;"></circle><circle cx="178.9759674668312" cy="147.26121230050921" r="3" style="fill: steelblue;"></circle><circle cx="339.2795526981354" cy="155.13354721479118" r="3" style="fill: steelblue;"></circle><circle cx="499.2885732650757" cy="225.55656237527728" r="3" style="fill: steelblue;"></circle><circle cx="272.31799453496933" cy="231.46181385964155" r="3" style="fill: steelblue;"></circle><circle cx="376.5344077348709" cy="101.44844017922878" r="3" style="fill: steelblue;"></circle><circle cx="269.30842861533165" cy="241.9471863657236" r="3" style="fill: steelblue;"></circle><circle cx="313.1167942285538" cy="201.6858753748238" r="3" style="fill: steelblue;"></circle><circle cx="352.6793771982193" cy="187.8908467013389" r="3" style="fill: steelblue;"></circle><circle cx="192.96943634748462" cy="203.38472882285714" r="3" style="fill: steelblue;"></circle><circle cx="205.30747041106227" cy="233.14791563898325" r="3" style="fill: steelblue;"></circle><circle cx="167.51123160123825" cy="286.417418345809" r="3" style="fill: steelblue;"></circle><circle cx="128.0721598863602" cy="216.15703096613288" r="3" style="fill: steelblue;"></circle><circle cx="109.91372108459474" cy="243.15163884311914" r="3" style="fill: steelblue;"></circle><circle cx="124.23010110855103" cy="215.01862835139036" r="3" style="fill: steelblue;"></circle><circle cx="160.9201276302338" cy="274.550100043416" r="3" style="fill: steelblue;"></circle><circle cx="361.6910809278488" cy="304.3841674923897" r="3" style="fill: steelblue;"></circle><circle cx="163.35110306739807" cy="231.5435979515314" r="3" style="fill: steelblue;"></circle><circle cx="314.38752204179764" cy="166.09644151758403" r="3" style="fill: steelblue;"></circle><circle cx="138.0611085891724" cy="152.32171136885881" r="3" style="fill: steelblue;"></circle><circle cx="337.6993292570114" cy="152.8368240222335" r="3" style="fill: steelblue;"></circle><circle cx="271.58094361424446" cy="113.54736816138029" r="3" style="fill: steelblue;"></circle><circle cx="331.98930859565735" cy="133.4617456421256" r="3" style="fill: steelblue;"></circle><circle cx="331.40911996364594" cy="117.47030559927225" r="3" style="fill: steelblue;"></circle><circle cx="378.60938251018524" cy="66.87994413077831" r="3" style="fill: steelblue;"></circle><circle cx="401.96526288986206" cy="79.38069961965084" r="3" style="fill: steelblue;"></circle><circle cx="361.2052345275879" cy="5.184945836663246" r="3" style="fill: steelblue;"></circle><circle cx="349.0073347091675" cy="40.42804166674614" r="3" style="fill: steelblue;"></circle><circle cx="274.41383466124535" cy="69.32183001190424" r="3" style="fill: steelblue;"></circle><circle cx="160.67164778709414" cy="131.1877534724772" r="3" style="fill: steelblue;"></circle><circle cx="288.19948822259903" cy="179.9035120755434" r="3" style="fill: steelblue;"></circle><circle cx="176.11120730638504" cy="232.9136135056615" r="3" style="fill: steelblue;"></circle><circle cx="83.9286231994629" cy="224.20429550111294" r="3" style="fill: steelblue;"></circle><circle cx="152.08052337169647" cy="197.71205023862422" r="3" style="fill: steelblue;"></circle><circle cx="363.4935700893402" cy="196.3400397915393" r="3" style="fill: steelblue;"></circle><circle cx="194.05147969722748" cy="224.96308172121644" r="3" style="fill: steelblue;"></circle><circle cx="218.56059595942497" cy="209.55428080633283" r="3" style="fill: steelblue;"></circle><circle cx="174.22840833663943" cy="261.9776392355561" r="3" style="fill: steelblue;"></circle><circle cx="132.44726300239563" cy="192.36536878161132" r="3" style="fill: steelblue;"></circle><circle cx="127.26636171340944" cy="309.8540596663952" r="3" style="fill: steelblue;"></circle><circle cx="174.1832399368286" cy="280.5998606607318" r="3" style="fill: steelblue;"></circle><circle cx="362.1015751361847" cy="117.94361025094986" r="3" style="fill: steelblue;"></circle><circle cx="258.2647727429867" cy="77.47101988643408" r="3" style="fill: steelblue;"></circle><circle cx="288.43453019857407" cy="64.25294391810894" r="3" style="fill: steelblue;"></circle><circle cx="335.73715031147003" cy="15.940913185477257" r="3" style="fill: steelblue;"></circle><circle cx="424.0862452983856" cy="154.9910883884877" r="3" style="fill: steelblue;"></circle><circle cx="320.4642409086228" cy="78.63925136625767" r="3" style="fill: steelblue;"></circle><circle cx="59.57411170005799" cy="213.12647564336658" r="3" style="fill: steelblue;"></circle><circle cx="237.89125523529947" cy="298.4524641185999" r="3" style="fill: steelblue;"></circle><circle cx="162.4065899848938" cy="223.00222255289555" r="3" style="fill: steelblue;"></circle><circle cx="200.31062453985217" cy="340.78470543026924" r="3" style="fill: steelblue;"></circle><circle cx="241.0009609395638" cy="260.7193963602185" r="3" style="fill: steelblue;"></circle><circle cx="240.03805607557297" cy="211.83526813983917" r="3" style="fill: steelblue;"></circle></g></svg>