<svg xmlns="http://www.w3.org/2000/svg"><g><circle cx="42.311105597764254" cy="85.54470539093018" r="2" style="fill: steelblue;"></circle><circle cx="13.162444531917576" cy="49.20579316094518" r="2" style="fill: steelblue;"></circle><circle cx="42.08755977451801" cy="66.72954261302948" r="2" style="fill: steelblue;"></circle><circle cx="10.917200893163685" cy="81.80770874023438" r="2" style="fill: steelblue;"></circle><circle cx="10.017118602991108" cy="65.15507251024246" r="2" style="fill: steelblue;"></circle><circle cx="13.019624352455143" cy="36.73636466264725" r="2" style="fill: steelblue;"></circle><circle cx="48.867103131487966" cy="75.03940463066101" r="2" style="fill: steelblue;"></circle><circle cx="70.76990716159344" cy="39.48938325047493" r="2" style="fill: steelblue;"></circle><circle cx="22.04552218317986" cy="65.98778516054153" r="2" style="fill: steelblue;"></circle><circle cx="40.74689485132694" cy="62.86521404981613" r="2" style="fill: steelblue;"></circle><circle cx="38.056909292936325" cy="41.43323972821236" r="2" style="fill: steelblue;"></circle><circle cx="28.431856259703636" cy="59.16451886296272" r="2" style="fill: steelblue;"></circle><circle cx="24.357521161437038" cy="48.898014053702354" r="2" style="fill: steelblue;"></circle><circle cx="38.412171602249146" cy="66.69348031282425" r="2" style="fill: steelblue;"></circle><circle cx="46.913319919258356" cy="57.938267290592194" r="2" style="fill: steelblue;"></circle><circle cx="40.8934123814106" cy="86.25997602939606" r="2" style="fill: steelblue;"></circle><circle cx="19.19229440391064" cy="55.718982219696045" r="2" style="fill: steelblue;"></circle><circle cx="42.64597240835428" cy="69.79304552078247" r="2" style="fill: steelblue;"></circle><circle cx="46.512401616200805" cy="35.85827499628067" r="2" style="fill: steelblue;"></circle><circle cx="41.20675306767225" cy="27.68760472536087" r="2" style="fill: steelblue;"></circle><circle cx="33.953049406409264" cy="33.83161872625351" r="2" style="fill: steelblue;"></circle><circle cx="39.88156020641327" cy="67.96977072954178" r="2" style="fill: steelblue;"></circle><circle cx="29.49846461415291" cy="62.04448118805885" r="2" style="fill: steelblue;"></circle><circle cx="47.95438186265528" cy="61.12875938415527" r="2" style="fill: steelblue;"></circle><circle cx="51.20032345876098" cy="83.18686783313751" r="2" style="fill: steelblue;"></circle><circle cx="34.864030964672565" cy="44.20776404440403" r="2" style="fill: steelblue;"></circle><circle cx="62.54955120384693" cy="66.81028455495834" r="2" style="fill: steelblue;"></circle><circle cx="65.67714847624302" cy="51.36174773797393" r="2" style="fill: steelblue;"></circle><circle cx="25.342215970158577" cy="81.9582998752594" r="2" style="fill: steelblue;"></circle><circle cx="60.89523173868656" cy="34.32742953300476" r="2" style="fill: steelblue;"></circle><circle cx="85.74599698185921" cy="39.159344881772995" r="2" style="fill: steelblue;"></circle><circle cx="77.00731717050076" cy="27.52469927072525" r="2" style="fill: steelblue;"></circle><circle cx="45.312762912362814" cy="26.933512091636658" r="2" style="fill: steelblue;"></circle><circle cx="64.02645464986563" cy="51.58052146434784" r="2" style="fill: steelblue;"></circle><circle cx="70.78002318739891" cy="43.98709610104561" r="2" style="fill: steelblue;"></circle><circle cx="96.42381146550179" cy="41.90535992383957" r="2" style="fill: steelblue;"></circle><circle cx="60.80967579036951" cy="59.1022863984108" r="2" style="fill: steelblue;"></circle><circle cx="57.928384467959404" cy="57.25919380784035" r="2" style="fill: steelblue;"></circle><circle cx="35.49271002411842" cy="73.73365014791489" r="2" style="fill: steelblue;"></circle><circle cx="6.979654729366305" cy="52.51365192234516" r="2" style="fill: steelblue;"></circle><circle cx="59.250941686332226" cy="27.546656131744385" r="2" style="fill: steelblue;"></circle><circle cx="91.34327173233032" cy="24.603641033172607" r="2" style="fill: steelblue;"></circle><circle cx="96.1583212018013" cy="43.911855295300484" r="2" style="fill: steelblue;"></circle><circle cx="91.9527143239975" cy="31.632626056671143" r="2" style="fill: steelblue;"></circle><circle cx="37.69229743629694" cy="44.25988458096981" r="2" style="fill: steelblue;"></circle><circle cx="31.670716777443886" cy="24.495577812194824" r="2" style="fill: steelblue;"></circle><circle cx="32.60548152029514" cy="68.337981402874" r="2" style="fill: steelblue;"></circle><circle cx="8.614051342010502" cy="80.85487186908722" r="2" style="fill: steelblue;"></circle><circle cx="17.798497527837757" cy="75.29317736625671" r="2" style="fill: steelblue;"></circle><circle cx="30.580834671854973" cy="79.44615483283997" r="2" style="fill: steelblue;"></circle><circle cx="33.80212485790253" cy="45.59591896831989" r="2" style="fill: steelblue;"></circle><circle cx="30.498362332582474" cy="80.01626431941986" r="2" style="fill: steelblue;"></circle><circle cx="33.91472175717354" cy="62.120362371206284" r="2" style="fill: steelblue;"></circle><circle cx="24.25533272325993" cy="54.89503964781761" r="2" style="fill: steelblue;"></circle><circle cx="40.11222459375858" cy="42.063333094120026" r="2" style="fill: steelblue;"></circle><circle cx="35.73652841150761" cy="67.65475124120712" r="2" style="fill: steelblue;"></circle><circle cx="54.51167766004801" cy="45.78422009944916" r="2" style="fill: steelblue;"></circle><circle cx="0.2448141574859647" cy="63.06832730770111" r="2" style="fill: steelblue;"></circle><circle cx="33.77436213195324" cy="33.76844525337219" r="2" style="fill: steelblue;"></circle><circle cx="29.831848293542862" cy="61.82529106736183" r="2" style="fill: steelblue;"></circle><circle cx="29.53389212489128" cy="80.35455346107483" r="2" style="fill: steelblue;"></circle><circle cx="32.297440990805626" cy="74.20597523450851" r="2" style="fill: steelblue;"></circle><circle cx="10.057869553565983" cy="95.39034068584442" r="2" style="fill: steelblue;"></circle><circle cx="13.262345641851429" cy="92.4610823392868" r="2" style="fill: steelblue;"></circle><circle cx="49.8306468478404" cy="61.83309555053711" r="2" style="fill: steelblue;"></circle><circle cx="28.42087224125862" cy="75.02829730510712" r="2" style="fill: steelblue;"></circle><circle cx="47.85305792465806" cy="76.08241438865662" r="2" style="fill: steelblue;"></circle><circle cx="19.918066635727886" cy="39.549820125103" r="2" style="fill: steelblue;"></circle><circle cx="18.294657766819004" cy="82.60866701602936" r="2" style="fill: steelblue;"></circle><circle cx="65.79605229198933" cy="52.42206286638975" r="2" style="fill: steelblue;"></circle><circle cx="34.1405488550663" cy="85.3565901517868" r="2" style="fill: steelblue;"></circle><circle cx="70.71604132652283" cy="35.6086328625679" r="2" style="fill: steelblue;"></circle><circle cx="31.836317107081413" cy="38.88152465224266" r="2" style="fill: steelblue;"></circle><circle cx="79.76709231734276" cy="22.971901297569275" r="2" style="fill: steelblue;"></circle><circle cx="73.06845597922802" cy="46.94144111126661" r="2" style="fill: steelblue;"></circle><circle cx="45.627470780164" cy="54.10316847264767" r="2" style="fill: steelblue;"></circle><circle cx="73.11335317790508" cy="27.123838663101196" r="2" style="fill: steelblue;"></circle><circle cx="82.64335542917252" cy="46.22322469949722" r="2" style="fill: steelblue;"></circle><circle cx="74.59929138422012" cy="52.03127693384886" r="2" style="fill: steelblue;"></circle><circle cx="73.28266948461533" cy="35.364991426467896" r="2" style="fill: steelblue;"></circle><circle cx="94.4025844335556" cy="25.325685739517212" r="2" style="fill: steelblue;"></circle><circle cx="73.72392453253269" cy="7.754537463188171" r="2" style="fill: steelblue;"></circle><circle cx="65.71593061089516" cy="43.38530972599983" r="2" style="fill: steelblue;"></circle><circle cx="18.917269259691242" cy="59.464265406131744" r="2" style="fill: steelblue;"></circle><circle cx="33.5004098713398" cy="65.89391231536865" r="2" style="fill: steelblue;"></circle><circle cx="45.34581741318107" cy="58.515557646751404" r="2" style="fill: steelblue;"></circle><circle cx="63.67304474115372" cy="52.74317692965269" r="2" style="fill: steelblue;"></circle><circle cx="42.027982138097286" cy="33.59004408121109" r="2" style="fill: steelblue;"></circle><circle cx="58.376057259738445" cy="43.269648402929306" r="2" style="fill: steelblue;"></circle><circle cx="64.22889903187752" cy="40.626221895217896" r="2" style="fill: steelblue;"></circle><circle cx="69.90986801683903" cy="44.67869848012924" r="2" style="fill: steelblue;"></circle><circle cx="54.28480142727494" cy="36.20552569627762" r="2" style="fill: steelblue;"></circle><circle cx="74.27899092435837" cy="50.30824448913336" r="2" style="fill: steelblue;"></circle><circle cx="73.97123351693153" cy="47.66971431672573" r="2" style="fill: steelblue;"></circle><circle cx="27.378983050584793" cy="44.40753012895584" r="2" style="fill: steelblue;"></circle><circle cx="51.8913249950856" cy="41.02756306529045" r="2" style="fill: steelblue;"></circle><circle cx="89.81607779860497" cy="38.925378024578094" r="2" style="fill: steelblue;"></circle><circle cx="81.33978322148323" cy="65.28862118721008" r="2" style="fill: steelblue;"></circle><circle cx="69.05936561524868" cy="31.472639739513397" r="2" style="fill: steelblue;"></circle><circle cx="54.89205401390791" cy="34.31723862886429" r="2" style="fill: steelblue;"></circle><circle cx="51.31194852292538" cy="50.04682688449975" r="2" style="fill: steelblue;"></circle><circle cx="55.06521062925458" cy="43.07692348957062" r="2" style="fill: steelblue;"></circle><circle cx="82.90662169456482" cy="33.59406292438507" r="2" style="fill: steelblue;"></circle><circle cx="42.18062777072191" cy="14.388889074325562" r="2" style="fill: steelblue;"></circle><circle cx="28.59293781220913" cy="20.296710729599" r="2" style="fill: steelblue;"></circle><circle cx="69.98423598706722" cy="26.360148191452026" r="2" style="fill: steelblue;"></circle><circle cx="50.787099183071405" cy="27.450819313526154" r="2" style="fill: steelblue;"></circle><circle cx="51.73828238621354" cy="35.19159257411957" r="2" style="fill: steelblue;"></circle><circle cx="75.04291012883186" cy="41.11963137984276" r="2" style="fill: steelblue;"></circle><circle cx="72.79597707092762" cy="58.31856355071068" r="2" style="fill: steelblue;"></circle><circle cx="78.51827442646027" cy="29.310059547424316" r="2" style="fill: steelblue;"></circle><circle cx="31.08302243053913" cy="46.89953625202179" r="2" style="fill: steelblue;"></circle><circle cx="36.96125391870737" cy="79.57440912723541" r="2" style="fill: steelblue;"></circle><circle cx="46.92488578148186" cy="42.37317368388176" r="2" style="fill: steelblue;"></circle><circle cx="21.539709717035297" cy="66.41193926334381" r="2" style="fill: steelblue;"></circle><circle cx="25.835436955094337" cy="59.78304520249367" r="2" style="fill: steelblue;"></circle><circle cx="43.18147636950016" cy="72.88744449615479" r="2" style="fill: steelblue;"></circle><circle cx="44.12336014211178" cy="46.59681022167206" r="2" style="fill: steelblue;"></circle></g></svg>