<svg xmlns="http://www.w3.org/2000/svg"><rect width="200" height="200" fill="white"></rect><g><circle cx="25.30322819948197" cy="136.62619590759277" r="2" style="fill: steelblue;"></circle><circle cx="22.168336808681495" cy="98.02180644538667" r="2" style="fill: steelblue;"></circle><circle cx="81.58187977969646" cy="164.5313885476854" r="2" style="fill: steelblue;"></circle><circle cx="68.14857423305511" cy="122.82149526807997" r="2" style="fill: steelblue;"></circle><circle cx="49.75865632295609" cy="69.41581964492798" r="2" style="fill: steelblue;"></circle><circle cx="20.62747478485108" cy="110.91652711232504" r="2" style="fill: steelblue;"></circle><circle cx="81.08974099159241" cy="129.45357494884067" r="2" style="fill: steelblue;"></circle><circle cx="173.45454394817352" cy="96.79275535874896" r="2" style="fill: steelblue;"></circle><circle cx="135.86376458406448" cy="93.73931619856093" r="2" style="fill: steelblue;"></circle><circle cx="99.95662644505501" cy="112.43508954842886" r="2" style="fill: steelblue;"></circle><circle cx="78.96265424787998" cy="130.25442957878113" r="2" style="fill: steelblue;"></circle><circle cx="37.81262263655663" cy="61.5294678343667" r="2" style="fill: steelblue;"></circle><circle cx="112.8625575453043" cy="150.05257262123956" r="2" style="fill: steelblue;"></circle><circle cx="140.49724712967873" cy="66.09717044565413" r="2" style="fill: steelblue;"></circle><circle cx="98.35426930803806" cy="117.4809455871582" r="2" style="fill: steelblue;"></circle><circle cx="110.9321866184473" cy="101.40069690015581" r="2" style="fill: steelblue;"></circle><circle cx="53.03620025515556" cy="121.12863063812256" r="2" style="fill: steelblue;"></circle><circle cx="56.00029081106186" cy="101.30781796243456" r="2" style="fill: steelblue;"></circle><circle cx="134.50002893805504" cy="72.72921866840787" r="2" style="fill: steelblue;"></circle><circle cx="76.11411847174168" cy="103.23805146747165" r="2" style="fill: steelblue;"></circle><circle cx="109.23390034586191" cy="60.98152067926195" r="2" style="fill: steelblue;"></circle><circle cx="80.9476938098669" cy="58.47874482472737" r="2" style="fill: steelblue;"></circle><circle cx="86.98403220623732" cy="34.588911798265244" r="2" style="fill: steelblue;"></circle><circle cx="100.7271563517861" cy="100.39133694436815" r="2" style="fill: steelblue;"></circle><circle cx="122.89046160876751" cy="128.17445264922247" r="2" style="fill: steelblue;"></circle><circle cx="38.38219344615937" cy="114.03391460577647" r="2" style="fill: steelblue;"></circle><circle cx="65.37969261407852" cy="152.75740491019354" r="2" style="fill: steelblue;"></circle><circle cx="75.81806965172291" cy="161.4094893137614" r="2" style="fill: steelblue;"></circle><circle cx="4.262259602546697" cy="163.16230959362454" r="2" style="fill: steelblue;"></circle><circle cx="81.88492469489574" cy="94.93029771579637" r="2" style="fill: steelblue;"></circle><circle cx="108.77795834094286" cy="38.5755717754364" r="2" style="fill: steelblue;"></circle><circle cx="142.9108776152134" cy="22.714050610860205" r="2" style="fill: steelblue;"></circle><circle cx="164.8997724056244" cy="20.367303159501816" r="2" style="fill: steelblue;"></circle><circle cx="131.4583256840706" cy="49.4690391752455" r="2" style="fill: steelblue;"></circle><circle cx="123.0853296816349" cy="86.68342762523227" r="2" style="fill: steelblue;"></circle><circle cx="78.02427597343922" cy="61.122128036287094" r="2" style="fill: steelblue;"></circle><circle cx="68.49755197763443" cy="131.84955252541437" r="2" style="fill: steelblue;"></circle><circle cx="77.97369584441185" cy="107.9164763291677" r="2" style="fill: steelblue;"></circle><circle cx="39.637228846549995" cy="86.72807585034106" r="2" style="fill: steelblue;"></circle><circle cx="9.655578434467321" cy="142.28507412804498" r="2" style="fill: steelblue;"></circle><circle cx="76.41313262283802" cy="117.80785388416714" r="2" style="fill: steelblue;"></circle><circle cx="148.3274757862091" cy="113.75664869944255" r="2" style="fill: steelblue;"></circle><circle cx="131.769011169672" cy="1.6178276803758385" r="2" style="fill: steelblue;"></circle><circle cx="158.7681122124195" cy="88.39017522210877" r="2" style="fill: steelblue;"></circle><circle cx="149.69916865229607" cy="106.02688822481367" r="2" style="fill: steelblue;"></circle><circle cx="135.6634184718132" cy="35.442599323060776" r="2" style="fill: steelblue;"></circle><circle cx="156.38791620731354" cy="85.31327247619629" r="2" style="fill: steelblue;"></circle><circle cx="19.18545216321946" cy="55.58689965142145" r="2" style="fill: steelblue;"></circle><circle cx="111.01572904735804" cy="111.77971329953935" r="2" style="fill: steelblue;"></circle><circle cx="36.743311583995826" cy="53.41499249140422" r="2" style="fill: steelblue;"></circle><circle cx="13.893736898899084" cy="101.48866590526369" r="2" style="fill: steelblue;"></circle><circle cx="14.06970471143723" cy="78.44044715166092" r="2" style="fill: steelblue;"></circle><circle cx="92.38093011081219" cy="40.454604890611435" r="2" style="fill: steelblue;"></circle><circle cx="105.59094548225403" cy="58.56236682997811" r="2" style="fill: steelblue;"></circle><circle cx="75.3787312656641" cy="103.78881659772661" r="2" style="fill: steelblue;"></circle><circle cx="3.1517431139946037" cy="157.19303687413534" r="2" style="fill: steelblue;"></circle><circle cx="95.34970941022038" cy="96.51470796929466" r="2" style="fill: steelblue;"></circle><circle cx="90.42527936398983" cy="104.55105735196008" r="2" style="fill: steelblue;"></circle><circle cx="80.1378920674324" cy="113.9676656987932" r="2" style="fill: steelblue;"></circle><circle cx="38.949320465326316" cy="92.39064728220303" r="2" style="fill: steelblue;"></circle><circle cx="132.0902317762375" cy="114.18673263655768" r="2" style="fill: steelblue;"></circle><circle cx="35.61839312314988" cy="135.1832071940104" r="2" style="fill: steelblue;"></circle><circle cx="19.780455529689796" cy="109.45114857620663" r="2" style="fill: steelblue;"></circle><circle cx="53.8276381790638" cy="130.40562669436136" r="2" style="fill: steelblue;"></circle><circle cx="49.10646602511407" cy="155.20330137676663" r="2" style="fill: steelblue;"></circle><circle cx="11.90256923437119" cy="90.3076887751619" r="2" style="fill: steelblue;"></circle><circle cx="29.519996047019966" cy="123.00121320618524" r="2" style="fill: steelblue;"></circle><circle cx="130.90598993003368" cy="181.92746109432645" r="2" style="fill: steelblue;"></circle><circle cx="1.249468326568609" cy="140.0135940975613" r="2" style="fill: steelblue;"></circle><circle cx="102.03495752066374" cy="143.05418597327338" r="2" style="fill: steelblue;"></circle><circle cx="61.99754625558853" cy="72.24624554316203" r="2" style="fill: steelblue;"></circle><circle cx="139.89021852612495" cy="66.16466442743938" r="2" style="fill: steelblue;"></circle><circle cx="158.21043252944946" cy="104.92952201101515" r="2" style="fill: steelblue;"></circle><circle cx="151.53675377368927" cy="100.16225063138538" r="2" style="fill: steelblue;"></circle><circle cx="156.22746422886848" cy="42.02830659018624" r="2" style="fill: steelblue;"></circle><circle cx="171.81689143180847" cy="24.663440386454273" r="2" style="fill: steelblue;"></circle><circle cx="120.65936475992203" cy="65.84568354818556" r="2" style="fill: steelblue;"></circle><circle cx="129.04046699404716" cy="56.2344213326772" r="2" style="fill: steelblue;"></circle><circle cx="126.11209452152252" cy="34.29641524950664" r="2" style="fill: steelblue;"></circle><circle cx="174.77576285600662" cy="69.08651722802057" r="2" style="fill: steelblue;"></circle><circle cx="167.37105548381805" cy="33.00618992911446" r="2" style="fill: steelblue;"></circle><circle cx="193.73819082975388" cy="48.71136479907565" r="2" style="fill: steelblue;"></circle><circle cx="178.94038408994675" cy="36.45727899339464" r="2" style="fill: steelblue;"></circle><circle cx="92.26798862218857" cy="119.09526454077826" r="2" style="fill: steelblue;"></circle><circle cx="52.40611955523491" cy="131.31115039189658" r="2" style="fill: steelblue;"></circle><circle cx="46.07025384902955" cy="109.74256230725183" r="2" style="fill: steelblue;"></circle><circle cx="88.32819703966379" cy="96.296593050162" r="2" style="fill: steelblue;"></circle><circle cx="89.25452027469873" cy="60.98094118965997" r="2" style="fill: steelblue;"></circle><circle cx="76.34582035243511" cy="111.44200993908777" r="2" style="fill: steelblue;"></circle><circle cx="150.01036077737808" cy="56.67635003725688" r="2" style="fill: steelblue;"></circle><circle cx="122.52707444131374" cy="52.70018047756619" r="2" style="fill: steelblue;"></circle><circle cx="192.8347408771515" cy="33.57744084464181" r="2" style="fill: steelblue;"></circle><circle cx="112.15313002467155" cy="44.03409891658359" r="2" style="fill: steelblue;"></circle><circle cx="187.94615417718887" cy="14.45887353685167" r="2" style="fill: steelblue;"></circle><circle cx="146.47845402359962" cy="91.56670164730814" r="2" style="fill: steelblue;"></circle><circle cx="198.87941926717758" cy="4.588271511925601" r="2" style="fill: steelblue;"></circle><circle cx="106.99724955484271" cy="1.9572430186801437" r="2" style="fill: steelblue;"></circle><circle cx="112.2781340032816" cy="84.09849132100742" r="2" style="fill: steelblue;"></circle><circle cx="120.68202011287212" cy="68.27503144741058" r="2" style="fill: steelblue;"></circle><circle cx="128.69689278304577" cy="40.0542504257626" r="2" style="fill: steelblue;"></circle><circle cx="128.42485159635544" cy="35.71416470739577" r="2" style="fill: steelblue;"></circle><circle cx="153.3897876739502" cy="102.06695430808597" r="2" style="fill: steelblue;"></circle><circle cx="97.33261833898723" cy="87.37204660558038" r="2" style="fill: steelblue;"></circle><circle cx="141.25871136784554" cy="55.83159327507019" r="2" style="fill: steelblue;"></circle><circle cx="122.60256186127663" cy="135.84997124142117" r="2" style="fill: steelblue;"></circle><circle cx="17.02623665332795" cy="133.05335442225137" r="2" style="fill: steelblue;"></circle><circle cx="121.68139815330505" cy="38.795751333236694" r="2" style="fill: steelblue;"></circle><circle cx="55.4317444562912" cy="105.44482072194418" r="2" style="fill: steelblue;"></circle><circle cx="101.58308551181108" cy="73.35640854305692" r="2" style="fill: steelblue;"></circle><circle cx="159.07607078552246" cy="35.22870474391513" r="2" style="fill: steelblue;"></circle><circle cx="118.94950307905674" cy="40.73732627762689" r="2" style="fill: steelblue;"></circle><circle cx="132.95357897877693" cy="17.280305756462955" r="2" style="fill: steelblue;"></circle><circle cx="51.133400201797485" cy="90.55393253349595" r="2" style="fill: steelblue;"></circle><circle cx="34.315592050552375" cy="105.949291255739" r="2" style="fill: steelblue;"></circle><circle cx="101.00572477094829" cy="124.69014061821832" r="2" style="fill: steelblue;"></circle><circle cx="61.38085797429085" cy="114.56636124187045" r="2" style="fill: steelblue;"></circle><circle cx="28.947769105434425" cy="135.57719389597574" r="2" style="fill: steelblue;"></circle><circle cx="66.18926525115967" cy="115.1072402795156" r="2" style="fill: steelblue;"></circle></g></svg>