<svg xmlns="http://www.w3.org/2000/svg"><g><circle cx="20.503950491547588" cy="77.58044004440308" r="2" style="fill: steelblue;"></circle><circle cx="71.0577417165041" cy="83.08864310383797" r="2" style="fill: steelblue;"></circle><circle cx="42.24887602031231" cy="46.00776610895991" r="2" style="fill: steelblue;"></circle><circle cx="11.15609630942345" cy="70.68931795656681" r="2" style="fill: steelblue;"></circle><circle cx="8.773698657751087" cy="84.45808961987495" r="2" style="fill: steelblue;"></circle><circle cx="34.544689767062664" cy="54.58146771416068" r="2" style="fill: steelblue;"></circle><circle cx="65.76147601008415" cy="69.49357986450195" r="2" style="fill: steelblue;"></circle><circle cx="38.34301717579365" cy="94.94665190577507" r="2" style="fill: steelblue;"></circle><circle cx="28.931043297052383" cy="70.9305640310049" r="2" style="fill: steelblue;"></circle><circle cx="21.920581534504894" cy="74.44247715175152" r="2" style="fill: steelblue;"></circle><circle cx="57.166154216974974" cy="65.3768165037036" r="2" style="fill: steelblue;"></circle><circle cx="39.191348664462566" cy="38.41659352183342" r="2" style="fill: steelblue;"></circle><circle cx="74.93496425449848" cy="65.12030605226755" r="2" style="fill: steelblue;"></circle><circle cx="27.070139721035957" cy="45.166356675326824" r="2" style="fill: steelblue;"></circle><circle cx="30.899013578891754" cy="81.18217550218105" r="2" style="fill: steelblue;"></circle><circle cx="50.86896016728133" cy="69.89279501140118" r="2" style="fill: steelblue;"></circle><circle cx="52.33592581935227" cy="36.37231718748808" r="2" style="fill: steelblue;"></circle><circle cx="45.137878227978945" cy="61.53821311891079" r="2" style="fill: steelblue;"></circle><circle cx="59.11563169211149" cy="58.64052027463913" r="2" style="fill: steelblue;"></circle><circle cx="75.89119970798492" cy="20.359597355127335" r="2" style="fill: steelblue;"></circle><circle cx="39.53568469733" cy="32.791079208254814" r="2" style="fill: steelblue;"></circle><circle cx="40.73814507573843" cy="58.91597289592028" r="2" style="fill: steelblue;"></circle><circle cx="47.92478792369366" cy="72.41372503340244" r="2" style="fill: steelblue;"></circle><circle cx="69.28877830505371" cy="71.6424223035574" r="2" style="fill: steelblue;"></circle><circle cx="40.57796783745289" cy="78.87346781790257" r="2" style="fill: steelblue;"></circle><circle cx="39.49920851737261" cy="91.88553616404533" r="2" style="fill: steelblue;"></circle><circle cx="54.5844241976738" cy="72.48559705913067" r="2" style="fill: steelblue;"></circle><circle cx="21.504503861069683" cy="47.213190887123346" r="2" style="fill: steelblue;"></circle><circle cx="19.359906390309337" cy="89.7484302520752" r="2" style="fill: steelblue;"></circle><circle cx="6.032123416662219" cy="52.43528978899121" r="2" style="fill: steelblue;"></circle><circle cx="93.25835406780243" cy="23.302213475108147" r="2" style="fill: steelblue;"></circle><circle cx="68.16509291529655" cy="11.006801575422287" r="2" style="fill: steelblue;"></circle><circle cx="35.435767099261284" cy="31.476308777928352" r="2" style="fill: steelblue;"></circle><circle cx="29.135718196630478" cy="30.441562831401825" r="2" style="fill: steelblue;"></circle><circle cx="79.21224012970924" cy="34.63447391986847" r="2" style="fill: steelblue;"></circle><circle cx="85.86063534021378" cy="24.934251978993416" r="2" style="fill: steelblue;"></circle><circle cx="36.28223780542612" cy="32.99491964280605" r="2" style="fill: steelblue;"></circle><circle cx="13.213704526424412" cy="56.68053422123194" r="2" style="fill: steelblue;"></circle><circle cx="38.9708599075675" cy="80.60822375118732" r="2" style="fill: steelblue;"></circle><circle cx="27.16902568936348" cy="80.88119998574257" r="2" style="fill: steelblue;"></circle><circle cx="47.303362702950835" cy="49.74232498789206" r="2" style="fill: steelblue;"></circle><circle cx="33.37102867662907" cy="67.09864102303982" r="2" style="fill: steelblue;"></circle><circle cx="15.95697104930878" cy="7.554027438163757" r="2" style="fill: steelblue;"></circle><circle cx="94.52251270413399" cy="38.13140857964754" r="2" style="fill: steelblue;"></circle><circle cx="48.64798365160823" cy="28.508522734045982" r="2" style="fill: steelblue;"></circle><circle cx="55.724945571273565" cy="56.97162002325058" r="2" style="fill: steelblue;"></circle><circle cx="61.91861927509308" cy="47.148556634783745" r="2" style="fill: steelblue;"></circle><circle cx="46.83316936716437" cy="17.317640781402588" r="2" style="fill: steelblue;"></circle><circle cx="33.084674924612045" cy="72.57445640861988" r="2" style="fill: steelblue;"></circle><circle cx="72.30320125818253" cy="69.04641464352608" r="2" style="fill: steelblue;"></circle><circle cx="44.78044733405113" cy="44.75247412919998" r="2" style="fill: steelblue;"></circle><circle cx="76.32218599319458" cy="42.96101462095976" r="2" style="fill: steelblue;"></circle><circle cx="65.07191266864538" cy="32.843879610300064" r="2" style="fill: steelblue;"></circle><circle cx="24.124111235141758" cy="23.06292876601219" r="2" style="fill: steelblue;"></circle><circle cx="29.851223528385162" cy="62.92975526303053" r="2" style="fill: steelblue;"></circle><circle cx="12.127082049846653" cy="92.39742457866669" r="2" style="fill: steelblue;"></circle><circle cx="48.25630336999893" cy="89.85398262739182" r="2" style="fill: steelblue;"></circle><circle cx="42.145015858113766" cy="43.62554680556059" r="2" style="fill: steelblue;"></circle><circle cx="46.815512888133526" cy="68.40764097869396" r="2" style="fill: steelblue;"></circle><circle cx="44.28645521402359" cy="59.48419887572527" r="2" style="fill: steelblue;"></circle><circle cx="24.81891326606274" cy="54.31725289672613" r="2" style="fill: steelblue;"></circle><circle cx="23.327580839395527" cy="16.80682897567749" r="2" style="fill: steelblue;"></circle><circle cx="6.597354263067248" cy="90.20705819129944" r="2" style="fill: steelblue;"></circle><circle cx="14.22158926725388" cy="77.548773214221" r="2" style="fill: steelblue;"></circle><circle cx="13.957544416189197" cy="46.211242163553834" r="2" style="fill: steelblue;"></circle><circle cx="19.23649869859219" cy="35.92085298150778" r="2" style="fill: steelblue;"></circle><circle cx="12.215319275856022" cy="53.46525595523417" r="2" style="fill: steelblue;"></circle><circle cx="3.124575316905978" cy="85.79817712306976" r="2" style="fill: steelblue;"></circle><circle cx="17.136338353157047" cy="91.18255153298378" r="2" style="fill: steelblue;"></circle><circle cx="44.38548041507602" cy="52.80070002190769" r="2" style="fill: steelblue;"></circle><circle cx="14.510384947061542" cy="77.89943479001522" r="2" style="fill: steelblue;"></circle><circle cx="86.8875078856945" cy="21.42530232667923" r="2" style="fill: steelblue;"></circle><circle cx="68.90206523239613" cy="39.25166390836239" r="2" style="fill: steelblue;"></circle><circle cx="45.49633264541626" cy="24.41021353006363" r="2" style="fill: steelblue;"></circle><circle cx="88.72700035572052" cy="32.722366228699684" r="2" style="fill: steelblue;"></circle><circle cx="55.29381260275841" cy="50.414537702454254" r="2" style="fill: steelblue;"></circle><circle cx="72.98834174871445" cy="24.423019215464592" r="2" style="fill: steelblue;"></circle><circle cx="43.1075950153172" cy="29.431448504328728" r="2" style="fill: steelblue;"></circle><circle cx="84.64481607079506" cy="44.70738787204027" r="2" style="fill: steelblue;"></circle><circle cx="77.41061337292194" cy="50.66879071528092" r="2" style="fill: steelblue;"></circle><circle cx="75.20689740777016" cy="52.9652351513505" r="2" style="fill: steelblue;"></circle><circle cx="25.150179117918015" cy="18.25386956334114" r="2" style="fill: steelblue;"></circle><circle cx="47.163839638233185" cy="30.532577261328697" r="2" style="fill: steelblue;"></circle><circle cx="37.37302981317043" cy="76.15582570433617" r="2" style="fill: steelblue;"></circle><circle cx="69.6640994399786" cy="86.41025349497795" r="2" style="fill: steelblue;"></circle><circle cx="21.47863917052746" cy="65.67558757960796" r="2" style="fill: steelblue;"></circle><circle cx="52.287505427375436" cy="65.21840691566467" r="2" style="fill: steelblue;"></circle><circle cx="33.1851851195097" cy="32.28994198143482" r="2" style="fill: steelblue;"></circle><circle cx="12.863769382238392" cy="66.55851118266582" r="2" style="fill: steelblue;"></circle><circle cx="46.15090060979128" cy="36.01116985082626" r="2" style="fill: steelblue;"></circle><circle cx="76.733523234725" cy="30.06589151918888" r="2" style="fill: steelblue;"></circle><circle cx="50.89688308071345" cy="32.428908348083496" r="2" style="fill: steelblue;"></circle><circle cx="61.01905386894941" cy="33.923157677054405" r="2" style="fill: steelblue;"></circle><circle cx="46.9210943672806" cy="19.65048275887966" r="2" style="fill: steelblue;"></circle><circle cx="57.03170709311962" cy="27.018361911177635" r="2" style="fill: steelblue;"></circle><circle cx="86.86939552426338" cy="10.569661110639572" r="2" style="fill: steelblue;"></circle><circle cx="82.13339671492577" cy="14.79964628815651" r="2" style="fill: steelblue;"></circle><circle cx="67.3543430864811" cy="26.955857127904892" r="2" style="fill: steelblue;"></circle><circle cx="31.658991426229477" cy="42.898677475750446" r="2" style="fill: steelblue;"></circle><circle cx="61.19808852672577" cy="32.57138952612877" r="2" style="fill: steelblue;"></circle><circle cx="71.33578807115555" cy="9.10276472568512" r="2" style="fill: steelblue;"></circle><circle cx="69.1066563129425" cy="41.07368569821119" r="2" style="fill: steelblue;"></circle><circle cx="65.5984228476882" cy="25.58223269879818" r="2" style="fill: steelblue;"></circle><circle cx="76.51341818273067" cy="56.471555680036545" r="2" style="fill: steelblue;"></circle><circle cx="73.70758727192879" cy="55.433146841824055" r="2" style="fill: steelblue;"></circle><circle cx="59.80246439576149" cy="41.760740987956524" r="2" style="fill: steelblue;"></circle><circle cx="32.37192817032337" cy="44.224244728684425" r="2" style="fill: steelblue;"></circle><circle cx="32.5037345290184" cy="57.44088180363178" r="2" style="fill: steelblue;"></circle><circle cx="63.312905095517635" cy="39.222520031034946" r="2" style="fill: steelblue;"></circle><circle cx="44.54036168754101" cy="40.45582674443722" r="2" style="fill: steelblue;"></circle><circle cx="63.60635459423065" cy="18.831760808825493" r="2" style="fill: steelblue;"></circle><circle cx="79.43897992372513" cy="31.837155297398567" r="2" style="fill: steelblue;"></circle><circle cx="62.30845879763365" cy="53.50999762304127" r="2" style="fill: steelblue;"></circle><circle cx="37.49255947768688" cy="81.00286424160004" r="2" style="fill: steelblue;"></circle><circle cx="11.84201538562775" cy="90.13680294156075" r="2" style="fill: steelblue;"></circle><circle cx="40.627892315387726" cy="39.684549160301685" r="2" style="fill: steelblue;"></circle><circle cx="47.896976536139846" cy="82.22401812672615" r="2" style="fill: steelblue;"></circle><circle cx="78.63959223031998" cy="45.22757297381759" r="2" style="fill: steelblue;"></circle></g></svg>