<svg xmlns="http://www.w3.org/2000/svg"><g><circle cx="24.720368161797527" cy="75.27963183820248" r="2" style="fill: steelblue;"></circle><circle cx="5.127086490392688" cy="94.87291350960732" r="2" style="fill: steelblue;"></circle><circle cx="40.07580988109112" cy="59.92419011890888" r="2" style="fill: steelblue;"></circle><circle cx="4.806599766016009" cy="95.193400233984" r="2" style="fill: steelblue;"></circle><circle cx="54.27583418786526" cy="45.72416581213474" r="2" style="fill: steelblue;"></circle><circle cx="56.41582999378443" cy="43.58417000621557" r="2" style="fill: steelblue;"></circle><circle cx="46.234600665047765" cy="53.765399334952235" r="2" style="fill: steelblue;"></circle><circle cx="55.783232394605875" cy="44.216767605394125" r="2" style="fill: steelblue;"></circle><circle cx="34.05901342630386" cy="65.94098657369614" r="2" style="fill: steelblue;"></circle><circle cx="15.057872235774997" cy="84.942127764225" r="2" style="fill: steelblue;"></circle><circle cx="68.69039051234722" cy="31.30960948765278" r="2" style="fill: steelblue;"></circle><circle cx="97.10152745246887" cy="2.898472547531128" r="2" style="fill: steelblue;"></circle><circle cx="25.445456802845" cy="74.554543197155" r="2" style="fill: steelblue;"></circle><circle cx="74.97353591024876" cy="25.026464089751244" r="2" style="fill: steelblue;"></circle><circle cx="35.55151745676994" cy="64.44848254323006" r="2" style="fill: steelblue;"></circle><circle cx="46.75137596204877" cy="53.24862403795123" r="2" style="fill: steelblue;"></circle><circle cx="43.29804303124547" cy="56.70195696875453" r="2" style="fill: steelblue;"></circle><circle cx="9.396705031394962" cy="90.60329496860504" r="2" style="fill: steelblue;"></circle><circle cx="52.595447935163975" cy="47.404552064836025" r="2" style="fill: steelblue;"></circle><circle cx="69.09114979207516" cy="30.908850207924843" r="2" style="fill: steelblue;"></circle><circle cx="57.16343941166997" cy="42.83656058833003" r="2" style="fill: steelblue;"></circle><circle cx="81.00693598389626" cy="18.993064016103745" r="2" style="fill: steelblue;"></circle><circle cx="33.91871340572834" cy="66.08128659427166" r="2" style="fill: steelblue;"></circle><circle cx="61.873338371515274" cy="38.126661628484726" r="2" style="fill: steelblue;"></circle><circle cx="35.94152648001909" cy="64.05847351998091" r="2" style="fill: steelblue;"></circle><circle cx="12.572399526834491" cy="87.42760047316551" r="2" style="fill: steelblue;"></circle><circle cx="8.507712930440906" cy="91.4922870695591" r="2" style="fill: steelblue;"></circle><circle cx="49.69016827526502" cy="50.30983172473498" r="2" style="fill: steelblue;"></circle><circle cx="55.555822513997555" cy="44.444177486002445" r="2" style="fill: steelblue;"></circle><circle cx="0.06196573376655856" cy="99.93803426623344" r="2" style="fill: steelblue;"></circle><circle cx="81.77457675337791" cy="18.225423246622086" r="2" style="fill: steelblue;"></circle><circle cx="41.71764682978392" cy="58.28235317021608" r="2" style="fill: steelblue;"></circle><circle cx="62.28553336113691" cy="37.71446663886309" r="2" style="fill: steelblue;"></circle><circle cx="85.74363887310028" cy="14.25636112689972" r="2" style="fill: steelblue;"></circle><circle cx="35.161300748586655" cy="64.83869925141335" r="2" style="fill: steelblue;"></circle><circle cx="72.07875810563564" cy="27.921241894364357" r="2" style="fill: steelblue;"></circle><circle cx="34.882647171616554" cy="65.11735282838345" r="2" style="fill: steelblue;"></circle><circle cx="20.744753256440166" cy="79.25524674355984" r="2" style="fill: steelblue;"></circle><circle cx="45.650486554950476" cy="54.349513445049524" r="2" style="fill: steelblue;"></circle><circle cx="55.21591259166598" cy="44.78408740833402" r="2" style="fill: steelblue;"></circle><circle cx="40.81028811633587" cy="59.18971188366413" r="2" style="fill: steelblue;"></circle><circle cx="94.5178709924221" cy="5.482129007577896" r="2" style="fill: steelblue;"></circle><circle cx="65.40969777852297" cy="34.59030222147703" r="2" style="fill: steelblue;"></circle><circle cx="38.07418905198574" cy="61.92581094801426" r="2" style="fill: steelblue;"></circle><circle cx="77.5793056935072" cy="22.420694306492805" r="2" style="fill: steelblue;"></circle><circle cx="45.25064695626497" cy="54.74935304373503" r="2" style="fill: steelblue;"></circle><circle cx="49.42705617286265" cy="50.57294382713735" r="2" style="fill: steelblue;"></circle><circle cx="44.44951443001628" cy="55.55048556998372" r="2" style="fill: steelblue;"></circle><circle cx="41.35748576372862" cy="58.64251423627138" r="2" style="fill: steelblue;"></circle><circle cx="55.13014243915677" cy="44.86985756084323" r="2" style="fill: steelblue;"></circle><circle cx="52.40783370099962" cy="47.59216629900038" r="2" style="fill: steelblue;"></circle><circle cx="13.753346353769306" cy="86.2466536462307" r="2" style="fill: steelblue;"></circle><circle cx="44.58483932539821" cy="55.41516067460179" r="2" style="fill: steelblue;"></circle><circle cx="46.80060753598809" cy="53.19939246401191" r="2" style="fill: steelblue;"></circle><circle cx="25.511861965060234" cy="74.48813803493977" r="2" style="fill: steelblue;"></circle><circle cx="39.0629593282938" cy="60.9370406717062" r="2" style="fill: steelblue;"></circle><circle cx="15.850315988063816" cy="84.14968401193619" r="2" style="fill: steelblue;"></circle><circle cx="39.24683593213558" cy="60.75316406786442" r="2" style="fill: steelblue;"></circle><circle cx="0.7001116871833829" cy="99.29988831281662" r="2" style="fill: steelblue;"></circle><circle cx="16.69356152415276" cy="83.30643847584724" r="2" style="fill: steelblue;"></circle><circle cx="23.51600416004658" cy="76.48399583995342" r="2" style="fill: steelblue;"></circle><circle cx="48.2943496434018" cy="51.7056503565982" r="2" style="fill: steelblue;"></circle><circle cx="30.05603440105915" cy="69.94396559894085" r="2" style="fill: steelblue;"></circle><circle cx="36.108727753162384" cy="63.891272246837616" r="2" style="fill: steelblue;"></circle><circle cx="44.691395200788975" cy="55.308604799211025" r="2" style="fill: steelblue;"></circle><circle cx="30.26227205991745" cy="69.73772794008255" r="2" style="fill: steelblue;"></circle><circle cx="21.67127020657063" cy="78.32872979342937" r="2" style="fill: steelblue;"></circle><circle cx="13.827263563871387" cy="86.17273643612862" r="2" style="fill: steelblue;"></circle><circle cx="40.09282514452934" cy="59.90717485547066" r="2" style="fill: steelblue;"></circle><circle cx="24.836066365242008" cy="75.163933634758" r="2" style="fill: steelblue;"></circle><circle cx="19.248646870255474" cy="80.75135312974453" r="2" style="fill: steelblue;"></circle><circle cx="79.58417311310768" cy="20.41582688689232" r="2" style="fill: steelblue;"></circle><circle cx="89.61186483502388" cy="10.38813516497612" r="2" style="fill: steelblue;"></circle><circle cx="64.17206041514874" cy="35.827939584851265" r="2" style="fill: steelblue;"></circle><circle cx="64.95187263935804" cy="35.048127360641956" r="2" style="fill: steelblue;"></circle><circle cx="79.27854843437672" cy="20.721451565623283" r="2" style="fill: steelblue;"></circle><circle cx="63.474018312990665" cy="36.525981687009335" r="2" style="fill: steelblue;"></circle><circle cx="87.85334527492523" cy="12.146654725074768" r="2" style="fill: steelblue;"></circle><circle cx="75.12256614863873" cy="24.877433851361275" r="2" style="fill: steelblue;"></circle><circle cx="87.50092908740044" cy="12.499070912599564" r="2" style="fill: steelblue;"></circle><circle cx="30.345802381634712" cy="69.65419761836529" r="2" style="fill: steelblue;"></circle><circle cx="77.89859846234322" cy="22.101401537656784" r="2" style="fill: steelblue;"></circle><circle cx="69.56275291740894" cy="30.437247082591057" r="2" style="fill: steelblue;"></circle><circle cx="53.39151010848582" cy="46.60848989151418" r="2" style="fill: steelblue;"></circle><circle cx="44.121522177010775" cy="55.878477822989225" r="2" style="fill: steelblue;"></circle><circle cx="32.43282735347748" cy="67.56717264652252" r="2" style="fill: steelblue;"></circle><circle cx="39.42653648555279" cy="60.57346351444721" r="2" style="fill: steelblue;"></circle><circle cx="53.918581176549196" cy="46.081418823450804" r="2" style="fill: steelblue;"></circle><circle cx="59.45536606013775" cy="40.54463393986225" r="2" style="fill: steelblue;"></circle><circle cx="66.58295094966888" cy="33.417049050331116" r="2" style="fill: steelblue;"></circle><circle cx="80.30533529818058" cy="19.69466470181942" r="2" style="fill: steelblue;"></circle><circle cx="87.7424843609333" cy="12.257515639066696" r="2" style="fill: steelblue;"></circle><circle cx="72.17873372137547" cy="27.821266278624535" r="2" style="fill: steelblue;"></circle><circle cx="72.88759686052799" cy="27.112403139472008" r="2" style="fill: steelblue;"></circle><circle cx="62.98206951469183" cy="37.01793048530817" r="2" style="fill: steelblue;"></circle><circle cx="73.53342436254025" cy="26.466575637459755" r="2" style="fill: steelblue;"></circle><circle cx="93.59425231814384" cy="6.405747681856155" r="2" style="fill: steelblue;"></circle><circle cx="28.589268401265144" cy="71.41073159873486" r="2" style="fill: steelblue;"></circle><circle cx="39.9540888145566" cy="60.0459111854434" r="2" style="fill: steelblue;"></circle><circle cx="58.48476588726044" cy="41.51523411273956" r="2" style="fill: steelblue;"></circle><circle cx="58.713750168681145" cy="41.286249831318855" r="2" style="fill: steelblue;"></circle><circle cx="62.72234506905079" cy="37.27765493094921" r="2" style="fill: steelblue;"></circle><circle cx="56.22020987793803" cy="43.77979012206197" r="2" style="fill: steelblue;"></circle><circle cx="51.435224898159504" cy="48.564775101840496" r="2" style="fill: steelblue;"></circle><circle cx="79.46476079523563" cy="20.535239204764366" r="2" style="fill: steelblue;"></circle><circle cx="82.05226361751556" cy="17.947736382484436" r="2" style="fill: steelblue;"></circle><circle cx="67.61163957417011" cy="32.38836042582989" r="2" style="fill: steelblue;"></circle><circle cx="85.33667325973511" cy="14.663326740264893" r="2" style="fill: steelblue;"></circle><circle cx="40.85105862468481" cy="59.14894137531519" r="2" style="fill: steelblue;"></circle><circle cx="70.03861218690872" cy="29.961387813091278" r="2" style="fill: steelblue;"></circle><circle cx="67.44943857192993" cy="32.55056142807007" r="2" style="fill: steelblue;"></circle><circle cx="48.34120681043714" cy="51.65879318956286" r="2" style="fill: steelblue;"></circle><circle cx="17.9814949631691" cy="82.0185050368309" r="2" style="fill: steelblue;"></circle><circle cx="12.163899093866352" cy="87.83610090613365" r="2" style="fill: steelblue;"></circle><circle cx="17.77080371975899" cy="82.22919628024101" r="2" style="fill: steelblue;"></circle><circle cx="18.790879473090175" cy="81.20912052690983" r="2" style="fill: steelblue;"></circle><circle cx="29.798397049307823" cy="70.20160295069218" r="2" style="fill: steelblue;"></circle><circle cx="50.98746898584068" cy="49.01253101415932" r="2" style="fill: steelblue;"></circle></g></svg>