<svg xmlns="http://www.w3.org/2000/svg"><g><circle cx="80.27987033128738" cy="155.16088008880615" r="2" style="fill: steelblue;"></circle><circle cx="42.27495416998864" cy="166.17728620767593" r="2" style="fill: steelblue;"></circle><circle cx="82.82140679657459" cy="92.01553221791983" r="2" style="fill: steelblue;"></circle><circle cx="83.86875353753567" cy="141.37863591313362" r="2" style="fill: steelblue;"></circle><circle cx="62.753817439079285" cy="168.9161792397499" r="2" style="fill: steelblue;"></circle><circle cx="104.59266360849142" cy="109.16293542832136" r="2" style="fill: steelblue;"></circle><circle cx="147.69600555300713" cy="138.9871597290039" r="2" style="fill: steelblue;"></circle><circle cx="132.20118582248688" cy="189.89330381155014" r="2" style="fill: steelblue;"></circle><circle cx="126.04658342897892" cy="141.8611280620098" r="2" style="fill: steelblue;"></circle><circle cx="78.44864800572395" cy="148.88495430350304" r="2" style="fill: steelblue;"></circle><circle cx="87.05926723778248" cy="130.7536330074072" r="2" style="fill: steelblue;"></circle><circle cx="59.284231066703796" cy="76.83318704366684" r="2" style="fill: steelblue;"></circle><circle cx="125.99045820534229" cy="130.2406121045351" r="2" style="fill: steelblue;"></circle><circle cx="133.09812769293785" cy="90.33271335065365" r="2" style="fill: steelblue;"></circle><circle cx="42.58860871195794" cy="162.3643510043621" r="2" style="fill: steelblue;"></circle><circle cx="44.94490325450898" cy="139.78559002280235" r="2" style="fill: steelblue;"></circle><circle cx="104.0625175461173" cy="72.74463437497616" r="2" style="fill: steelblue;"></circle><circle cx="150.62304809689522" cy="123.07642623782158" r="2" style="fill: steelblue;"></circle><circle cx="84.67725329101086" cy="117.28104054927826" r="2" style="fill: steelblue;"></circle><circle cx="103.67336208000779" cy="40.71919471025467" r="2" style="fill: steelblue;"></circle><circle cx="91.6278338059783" cy="65.58215841650963" r="2" style="fill: steelblue;"></circle><circle cx="135.6164388358593" cy="117.83194579184055" r="2" style="fill: steelblue;"></circle><circle cx="148.49035292863846" cy="144.8274500668049" r="2" style="fill: steelblue;"></circle><circle cx="28.23602259159089" cy="143.2848446071148" r="2" style="fill: steelblue;"></circle><circle cx="51.519303023815155" cy="157.74693563580513" r="2" style="fill: steelblue;"></circle><circle cx="38.4557418525219" cy="183.77107232809067" r="2" style="fill: steelblue;"></circle><circle cx="90.69346487522125" cy="144.97119411826134" r="2" style="fill: steelblue;"></circle><circle cx="43.88649985194207" cy="94.42638177424669" r="2" style="fill: steelblue;"></circle><circle cx="68.96650642156601" cy="179.4968605041504" r="2" style="fill: steelblue;"></circle><circle cx="162.9921704530716" cy="104.87057957798243" r="2" style="fill: steelblue;"></circle><circle cx="83.99916104972363" cy="46.60442695021629" r="2" style="fill: steelblue;"></circle><circle cx="115.89233987033367" cy="22.013603150844574" r="2" style="fill: steelblue;"></circle><circle cx="136.47420182824135" cy="62.952617555856705" r="2" style="fill: steelblue;"></circle><circle cx="110.70212386548519" cy="60.88312566280365" r="2" style="fill: steelblue;"></circle><circle cx="158.69046971201897" cy="69.26894783973694" r="2" style="fill: steelblue;"></circle><circle cx="69.6567989885807" cy="49.86850395798683" r="2" style="fill: steelblue;"></circle><circle cx="104.12667263299227" cy="65.9898392856121" r="2" style="fill: steelblue;"></circle><circle cx="0.6049484014511164" cy="113.36106844246387" r="2" style="fill: steelblue;"></circle><circle cx="27.74737626314164" cy="161.21644750237465" r="2" style="fill: steelblue;"></circle><circle cx="62.011177092790604" cy="161.76239997148514" r="2" style="fill: steelblue;"></circle><circle cx="14.516247808933263" cy="99.48464997578412" r="2" style="fill: steelblue;"></circle><circle cx="143.84471848607063" cy="134.19728204607964" r="2" style="fill: steelblue;"></circle><circle cx="155.0146959722042" cy="15.108054876327515" r="2" style="fill: steelblue;"></circle><circle cx="100.77354663517326" cy="76.26281715929508" r="2" style="fill: steelblue;"></circle><circle cx="116.63754694163799" cy="57.017045468091965" r="2" style="fill: steelblue;"></circle><circle cx="121.40428125858307" cy="113.94324004650116" r="2" style="fill: steelblue;"></circle><circle cx="126.9047524780035" cy="94.29711326956749" r="2" style="fill: steelblue;"></circle><circle cx="10.231880843639379" cy="34.635281562805176" r="2" style="fill: steelblue;"></circle><circle cx="111.33822463452816" cy="145.14891281723976" r="2" style="fill: steelblue;"></circle><circle cx="89.84106630086899" cy="138.09282928705215" r="2" style="fill: steelblue;"></circle><circle cx="100.67304912954569" cy="89.50494825839996" r="2" style="fill: steelblue;"></circle><circle cx="121.41478285193443" cy="85.92202924191952" r="2" style="fill: steelblue;"></circle><circle cx="54.45855334401131" cy="65.68775922060013" r="2" style="fill: steelblue;"></circle><circle cx="41.10359251499177" cy="46.12585753202438" r="2" style="fill: steelblue;"></circle><circle cx="72.51321189105511" cy="125.85951052606106" r="2" style="fill: steelblue;"></circle><circle cx="3.306081891059881" cy="184.79484915733337" r="2" style="fill: steelblue;"></circle><circle cx="75.85113905370235" cy="179.70796525478363" r="2" style="fill: steelblue;"></circle><circle cx="89.18695654720068" cy="87.25109361112118" r="2" style="fill: steelblue;"></circle><circle cx="105.76763739809394" cy="136.81528195738792" r="2" style="fill: steelblue;"></circle><circle cx="113.10582924634218" cy="118.96839775145054" r="2" style="fill: steelblue;"></circle><circle cx="76.26503370702267" cy="108.63450579345226" r="2" style="fill: steelblue;"></circle><circle cx="98.04469314403832" cy="33.61365795135498" r="2" style="fill: steelblue;"></circle><circle cx="45.7417018711567" cy="180.41411638259888" r="2" style="fill: steelblue;"></circle><circle cx="4.643088579177862" cy="155.097546428442" r="2" style="fill: steelblue;"></circle><circle cx="21.895258128643043" cy="92.42248432710767" r="2" style="fill: steelblue;"></circle><circle cx="59.84942838549614" cy="71.84170596301556" r="2" style="fill: steelblue;"></circle><circle cx="7.931141555309301" cy="106.93051191046834" r="2" style="fill: steelblue;"></circle><circle cx="23.555195331573493" cy="171.59635424613953" r="2" style="fill: steelblue;"></circle><circle cx="92.3668229021132" cy="182.36510306596756" r="2" style="fill: steelblue;"></circle><circle cx="34.5257580280304" cy="105.60140004381537" r="2" style="fill: steelblue;"></circle><circle cx="147.18775302171707" cy="155.79886958003044" r="2" style="fill: steelblue;"></circle><circle cx="193.6645194888115" cy="42.85060465335846" r="2" style="fill: steelblue;"></circle><circle cx="186.24745905399323" cy="78.50332781672478" r="2" style="fill: steelblue;"></circle><circle cx="108.68726335465908" cy="48.82042706012726" r="2" style="fill: steelblue;"></circle><circle cx="167.81163811683655" cy="65.44473245739937" r="2" style="fill: steelblue;"></circle><circle cx="53.36424931883812" cy="100.82907540490851" r="2" style="fill: steelblue;"></circle><circle cx="162.3856820166111" cy="48.846038430929184" r="2" style="fill: steelblue;"></circle><circle cx="146.94264009594917" cy="58.862897008657455" r="2" style="fill: steelblue;"></circle><circle cx="128.91402691602707" cy="89.41477574408054" r="2" style="fill: steelblue;"></circle><circle cx="175.1272439956665" cy="101.33758143056184" r="2" style="fill: steelblue;"></circle><circle cx="83.39319415390491" cy="105.930470302701" r="2" style="fill: steelblue;"></circle><circle cx="165.7932385802269" cy="36.50773912668228" r="2" style="fill: steelblue;"></circle><circle cx="54.52236011624336" cy="61.065154522657394" r="2" style="fill: steelblue;"></circle><circle cx="34.635981917381294" cy="152.31165140867233" r="2" style="fill: steelblue;"></circle><circle cx="90.0601115077734" cy="172.8205069899559" r="2" style="fill: steelblue;"></circle><circle cx="93.10864182189107" cy="131.35117515921593" r="2" style="fill: steelblue;"></circle><circle cx="125.79873241484165" cy="130.43681383132935" r="2" style="fill: steelblue;"></circle><circle cx="109.0103866532445" cy="64.57988396286964" r="2" style="fill: steelblue;"></circle><circle cx="117.62775704264641" cy="133.11702236533165" r="2" style="fill: steelblue;"></circle><circle cx="130.13712167739868" cy="72.02233970165253" r="2" style="fill: steelblue;"></circle><circle cx="118.2278398424387" cy="60.13178303837776" r="2" style="fill: steelblue;"></circle><circle cx="105.5050179362297" cy="64.85781669616699" r="2" style="fill: steelblue;"></circle><circle cx="143.60554367303848" cy="67.84631535410881" r="2" style="fill: steelblue;"></circle><circle cx="154.8691414296627" cy="39.30096551775932" r="2" style="fill: steelblue;"></circle><circle cx="157.92031064629555" cy="54.03672382235527" r="2" style="fill: steelblue;"></circle><circle cx="145.47226056456566" cy="21.139322221279144" r="2" style="fill: steelblue;"></circle><circle cx="156.971475481987" cy="29.59929257631302" r="2" style="fill: steelblue;"></circle><circle cx="29.58470433950425" cy="53.911714255809784" r="2" style="fill: steelblue;"></circle><circle cx="33.25206637382508" cy="85.79735495150089" r="2" style="fill: steelblue;"></circle><circle cx="179.59093153476715" cy="65.14277905225754" r="2" style="fill: steelblue;"></circle><circle cx="180.24710416793823" cy="18.20552945137024" r="2" style="fill: steelblue;"></circle><circle cx="130.15821054577827" cy="82.14737139642239" r="2" style="fill: steelblue;"></circle><circle cx="93.2306818664074" cy="51.16446539759636" r="2" style="fill: steelblue;"></circle><circle cx="24.46009814739228" cy="112.94311136007309" r="2" style="fill: steelblue;"></circle><circle cx="155.02008274197578" cy="110.86629368364811" r="2" style="fill: steelblue;"></circle><circle cx="57.925841212272644" cy="83.52148197591305" r="2" style="fill: steelblue;"></circle><circle cx="100.17467129509896" cy="88.44848945736885" r="2" style="fill: steelblue;"></circle><circle cx="111.76791079342365" cy="114.88176360726357" r="2" style="fill: steelblue;"></circle><circle cx="81.77698999643326" cy="78.44504006206989" r="2" style="fill: steelblue;"></circle><circle cx="144.95178163051605" cy="80.91165348887444" r="2" style="fill: steelblue;"></circle><circle cx="110.92589274048805" cy="37.663521617650986" r="2" style="fill: steelblue;"></circle><circle cx="170.79534232616425" cy="63.674310594797134" r="2" style="fill: steelblue;"></circle><circle cx="67.60845184326172" cy="107.01999524608254" r="2" style="fill: steelblue;"></circle><circle cx="75.95210559666157" cy="162.00572848320007" r="2" style="fill: steelblue;"></circle><circle cx="64.27997201681137" cy="180.2736058831215" r="2" style="fill: steelblue;"></circle><circle cx="6.3640907406807" cy="79.36909832060337" r="2" style="fill: steelblue;"></circle><circle cx="61.245786398649216" cy="164.4480362534523" r="2" style="fill: steelblue;"></circle><circle cx="61.86254546046257" cy="90.45514594763517" r="2" style="fill: steelblue;"></circle></g></svg>