<svg xmlns="http://www.w3.org/2000/svg"><g transform="translate(40,20)"><circle cx="431.36942625045776" cy="79.25078123807907" r="3" style="fill: steelblue;"></circle><circle cx="348.7976217269898" cy="136.14850673410626" r="3" style="fill: steelblue;"></circle><circle cx="349.7120136022568" cy="48.609115348921875" r="3" style="fill: steelblue;"></circle><circle cx="185.76553702354434" cy="72.83125917116803" r="3" style="fill: steelblue;"></circle><circle cx="294.1421502828598" cy="70.02967612610922" r="3" style="fill: steelblue;"></circle><circle cx="424.4033718109131" cy="43.33571361170874" r="3" style="fill: steelblue;"></circle><circle cx="342.68349051475525" cy="161.41891899622152" r="3" style="fill: steelblue;"></circle><circle cx="263.71619269251823" cy="105.21668460634021" r="3" style="fill: steelblue;"></circle><circle cx="267.6593081653118" cy="95.62981145249472" r="3" style="fill: steelblue;"></circle><circle cx="369.78047132492065" cy="29.156275259123905" r="3" style="fill: steelblue;"></circle><circle cx="243.07968920096755" cy="69.56323915057713" r="3" style="fill: steelblue;"></circle><circle cx="260.06693333387375" cy="141.0164772636361" r="3" style="fill: steelblue;"></circle><circle cx="166.05915516614914" cy="109.29377931687566" r="3" style="fill: steelblue;"></circle><circle cx="324.08249616622925" cy="162.58141208026143" r="3" style="fill: steelblue;"></circle><circle cx="288.2930079102516" cy="87.46258351537915" r="3" style="fill: steelblue;"></circle><circle cx="255.47902487218383" cy="172.6201581872172" r="3" style="fill: steelblue;"></circle><circle cx="242.9797243885696" cy="138.92930638458995" r="3" style="fill: steelblue;"></circle><circle cx="304.25308138132095" cy="143.4682687951459" r="3" style="fill: steelblue;"></circle><circle cx="326.3139599561691" cy="49.46818550427757" r="3" style="fill: steelblue;"></circle><circle cx="428.43632340431213" cy="43.98123025894165" r="3" style="fill: steelblue;"></circle><circle cx="194.29940074682236" cy="149.14118080503414" r="3" style="fill: steelblue;"></circle><circle cx="125.9509527683258" cy="45.859089493751526" r="3" style="fill: steelblue;"></circle><circle cx="297.64484256505966" cy="123.00964337256221" r="3" style="fill: steelblue;"></circle><circle cx="386.5099632740021" cy="52.14698049757215" r="3" style="fill: steelblue;"></circle><circle cx="215.19817650318146" cy="219.9244434634844" r="3" style="fill: steelblue;"></circle><circle cx="141.32957696914673" cy="151.7876757722762" r="3" style="fill: steelblue;"></circle><circle cx="139.6068924665451" cy="133.05955044925213" r="3" style="fill: steelblue;"></circle><circle cx="323.54359567165375" cy="196.78042266103955" r="3" style="fill: steelblue;"></circle><circle cx="350.89550256729126" cy="219.88321857319937" r="3" style="fill: steelblue;"></circle><circle cx="378.42068016529083" cy="160.68479549139738" r="3" style="fill: steelblue;"></circle><circle cx="274.77584570646286" cy="144.33190170675516" r="3" style="fill: steelblue;"></circle><circle cx="215.78342109918594" cy="142.76591291030246" r="3" style="fill: steelblue;"></circle><circle cx="393.85776758193975" cy="128.60649012857016" r="3" style="fill: steelblue;"></circle><circle cx="116.74394845962526" cy="312.03211943308514" r="3" style="fill: steelblue;"></circle><circle cx="251.43247559666634" cy="140.5224725190136" r="3" style="fill: steelblue;"></circle><circle cx="225.0703876465559" cy="218.4531483385298" r="3" style="fill: steelblue;"></circle><circle cx="62.006106376647956" cy="227.58105993270874" r="3" style="fill: steelblue;"></circle><circle cx="219.92453947663307" cy="214.7548109292984" r="3" style="fill: steelblue;"></circle><circle cx="324.6595376729965" cy="225.32069699631796" r="3" style="fill: steelblue;"></circle><circle cx="261.1225390434265" cy="83.94281003210278" r="3" style="fill: steelblue;"></circle><circle cx="144.70674633979797" cy="87.1617936425739" r="3" style="fill: steelblue;"></circle><circle cx="231.80465452373028" cy="215.67096660534543" r="3" style="fill: steelblue;"></circle><circle cx="166.8634915351868" cy="221.53534922334882" r="3" style="fill: steelblue;"></circle><circle cx="168.7180691957474" cy="177.26774302621686" r="3" style="fill: steelblue;"></circle><circle cx="172.4933186173439" cy="254.4225894742542" r="3" style="fill: steelblue;"></circle><circle cx="254.58428911864758" cy="206.54231905937195" r="3" style="fill: steelblue;"></circle><circle cx="275.5385921895504" cy="224.50160003370706" r="3" style="fill: steelblue;"></circle><circle cx="118.64747643470764" cy="161.3313396461308" r="3" style="fill: steelblue;"></circle><circle cx="367.4148166179657" cy="272.8310618135664" r="3" style="fill: steelblue;"></circle><circle cx="178.28969299793246" cy="181.3966571456856" r="3" style="fill: steelblue;"></circle><circle cx="329.5131558179856" cy="91.23118983374701" r="3" style="fill: steelblue;"></circle><circle cx="305.6798243522644" cy="196.26483917236328" r="3" style="fill: steelblue;"></circle><circle cx="261.3422544300556" cy="145.59048648095796" r="3" style="fill: steelblue;"></circle><circle cx="63.8569736480713" cy="229.39072483115729" r="3" style="fill: steelblue;"></circle><circle cx="71.2654495239258" cy="200.74710142281322" r="3" style="fill: steelblue;"></circle><circle cx="165.03181546926498" cy="59.556276599566154" r="3" style="fill: steelblue;"></circle><circle cx="228.7767802923918" cy="80.8497437172466" r="3" style="fill: steelblue;"></circle><circle cx="171.5987527370453" cy="174.52928957839805" r="3" style="fill: steelblue;"></circle><circle cx="154.20660316944122" cy="200.62612427605524" r="3" style="fill: steelblue;"></circle><circle cx="309.71518099308014" cy="176.95645135309962" r="3" style="fill: steelblue;"></circle><circle cx="113.75560104846956" cy="38.73448504341974" r="3" style="fill: steelblue;"></circle><circle cx="345.8172047138214" cy="173.8227700607644" r="3" style="fill: steelblue;"></circle><circle cx="226.99266873300076" cy="33.65361293156944" r="3" style="fill: steelblue;"></circle><circle cx="392.8524219989777" cy="106.81346820460425" r="3" style="fill: steelblue;"></circle><circle cx="297.9501673579216" cy="73.53798730505838" r="3" style="fill: steelblue;"></circle><circle cx="317.32453644275665" cy="68.0123511287901" r="3" style="fill: steelblue;"></circle><circle cx="178.9759674668312" cy="58.100900053977966" r="3" style="fill: steelblue;"></circle><circle cx="339.2795526981354" cy="163.0216517796119" r="3" style="fill: steelblue;"></circle><circle cx="499.2885732650757" cy="76.47894339429007" r="3" style="fill: steelblue;"></circle><circle cx="272.31799453496933" cy="14.522551827960562" r="3" style="fill: steelblue;"></circle><circle cx="376.5344077348709" cy="76.88885115914876" r="3" style="fill: steelblue;"></circle><circle cx="269.30842861533165" cy="111.05617814593846" r="3" style="fill: steelblue;"></circle><circle cx="313.1167942285538" cy="256.37964175807105" r="3" style="fill: steelblue;"></circle><circle cx="352.6793771982193" cy="111.72868452138373" r="3" style="fill: steelblue;"></circle><circle cx="192.96943634748462" cy="257.1251435412301" r="3" style="fill: steelblue;"></circle><circle cx="205.30747041106227" cy="102.14042928483752" r="3" style="fill: steelblue;"></circle><circle cx="167.51123160123825" cy="179.8211596492264" r="3" style="fill: steelblue;"></circle><circle cx="128.0721598863602" cy="233.9183350404104" r="3" style="fill: steelblue;"></circle><circle cx="109.91372108459474" cy="287.2470478216807" r="3" style="fill: steelblue;"></circle><circle cx="124.23010110855103" cy="291.33626255724164" r="3" style="fill: steelblue;"></circle><circle cx="160.9201276302338" cy="168.07920522987843" r="3" style="fill: steelblue;"></circle><circle cx="361.6910809278488" cy="288.668269250128" r="3" style="fill: steelblue;"></circle><circle cx="163.35110306739807" cy="223.80334403779773" r="3" style="fill: steelblue;"></circle><circle cx="314.38752204179764" cy="160.82672661998208" r="3" style="fill: steelblue;"></circle><circle cx="138.0611085891724" cy="100.53349882364273" r="3" style="fill: steelblue;"></circle><circle cx="337.6993292570114" cy="76.4662583669027" r="3" style="fill: steelblue;"></circle><circle cx="271.58094361424446" cy="85.42562541034488" r="3" style="fill: steelblue;"></circle><circle cx="331.98930859565735" cy="192.06294558114473" r="3" style="fill: steelblue;"></circle><circle cx="331.40911996364594" cy="162.15732130739423" r="3" style="fill: steelblue;"></circle><circle cx="378.60938251018524" cy="75.10656714439392" r="3" style="fill: steelblue;"></circle><circle cx="401.96526288986206" cy="104.66688225666684" r="3" style="fill: steelblue;"></circle><circle cx="361.2052345275879" cy="129.5263052814537" r="3" style="fill: steelblue;"></circle><circle cx="349.0073347091675" cy="166.8196034514242" r="3" style="fill: steelblue;"></circle><circle cx="274.41383466124535" cy="203.44313043687077" r="3" style="fill: steelblue;"></circle><circle cx="160.67164778709414" cy="106.57971368895636" r="3" style="fill: steelblue;"></circle><circle cx="288.19948822259903" cy="208.7995121876399" r="3" style="fill: steelblue;"></circle><circle cx="176.11120730638504" cy="156.81829780547156" r="3" style="fill: steelblue;"></circle><circle cx="83.9286231994629" cy="172.79600575566292" r="3" style="fill: steelblue;"></circle><circle cx="152.08052337169647" cy="214.52790018584994" r="3" style="fill: steelblue;"></circle><circle cx="363.4935700893402" cy="170.15526294708252" r="3" style="fill: steelblue;"></circle><circle cx="194.05147969722748" cy="120.75079290403261" r="3" style="fill: steelblue;"></circle><circle cx="218.56059595942497" cy="232.11988326576022" r="3" style="fill: steelblue;"></circle><circle cx="174.22840833663943" cy="206.33891820907593" r="3" style="fill: steelblue;"></circle><circle cx="132.44726300239563" cy="287.0310256878535" r="3" style="fill: steelblue;"></circle><circle cx="127.26636171340944" cy="215.65744131803513" r="3" style="fill: steelblue;"></circle><circle cx="174.1832399368286" cy="102.75213271379471" r="3" style="fill: steelblue;"></circle><circle cx="362.1015751361847" cy="21.154091755549125" r="3" style="fill: steelblue;"></circle><circle cx="258.2647727429867" cy="110.83606481552124" r="3" style="fill: steelblue;"></circle><circle cx="288.43453019857407" cy="87.52283884419336" r="3" style="fill: steelblue;"></circle><circle cx="335.73715031147003" cy="79.950654009978" r="3" style="fill: steelblue;"></circle><circle cx="424.0862452983856" cy="14.820061789618594" r="3" style="fill: steelblue;"></circle><circle cx="320.4642409086228" cy="144.91551727470426" r="3" style="fill: steelblue;"></circle><circle cx="59.57411170005799" cy="113.52950061360997" r="3" style="fill: steelblue;"></circle><circle cx="237.89125523529947" cy="147.52066276139686" r="3" style="fill: steelblue;"></circle><circle cx="162.4065899848938" cy="256.7308008670807" r="3" style="fill: steelblue;"></circle><circle cx="200.31062453985217" cy="171.87202262381714" r="3" style="fill: steelblue;"></circle><circle cx="241.0009609395638" cy="194.20242119166585" r="3" style="fill: steelblue;"></circle><circle cx="240.03805607557297" cy="236.24285327063666" r="3" style="fill: steelblue;"></circle></g></svg>