<svg xmlns="http://www.w3.org/2000/svg"><g><circle cx="28.91058921813965" cy="158.99209901690483" r="2" style="fill: steelblue;"></circle><circle cx="101.58841367810965" cy="57.884516566991806" r="2" style="fill: steelblue;"></circle><circle cx="66.54091477394104" cy="115.50224795937538" r="2" style="fill: steelblue;"></circle><circle cx="36.38458251953125" cy="177.6878073811531" r="2" style="fill: steelblue;"></circle><circle cx="69.68985497951508" cy="182.45260268449783" r="2" style="fill: steelblue;"></circle><circle cx="126.5272706747055" cy="130.91062046587467" r="2" style="fill: steelblue;"></circle><circle cx="49.92119073867798" cy="68.4770479798317" r="2" style="fill: steelblue;"></circle><circle cx="121.02123349905014" cy="123.3139656484127" r="2" style="fill: steelblue;"></circle><circle cx="68.02442967891693" cy="142.13791340589523" r="2" style="fill: steelblue;"></circle><circle cx="74.26957190036774" cy="156.15883693099022" r="2" style="fill: steelblue;"></circle><circle cx="117.13352054357529" cy="85.66769156605005" r="2" style="fill: steelblue;"></circle><circle cx="81.67096227407455" cy="121.61730267107487" r="2" style="fill: steelblue;"></circle><circle cx="102.20397189259529" cy="50.13007149100304" r="2" style="fill: steelblue;"></circle><circle cx="66.6130393743515" cy="145.85972055792809" r="2" style="fill: steelblue;"></circle><circle cx="84.12346541881561" cy="138.2019728422165" r="2" style="fill: steelblue;"></circle><circle cx="27.480047941207886" cy="98.26207966543734" r="2" style="fill: steelblue;"></circle><circle cx="88.56203556060791" cy="95.32814836129546" r="2" style="fill: steelblue;"></circle><circle cx="60.41390895843506" cy="109.72424354404211" r="2" style="fill: steelblue;"></circle><circle cx="128.28345000743866" cy="81.76873661577702" r="2" style="fill: steelblue;"></circle><circle cx="144.62479054927826" cy="48.21760058403015" r="2" style="fill: steelblue;"></circle><circle cx="132.33676254749298" cy="120.92863060534" r="2" style="fill: steelblue;"></circle><circle cx="64.06045854091644" cy="118.52370984852314" r="2" style="fill: steelblue;"></circle><circle cx="75.9110376238823" cy="104.15042415261269" r="2" style="fill: steelblue;"></circle><circle cx="77.74248123168945" cy="61.42244338989258" r="2" style="fill: steelblue;"></circle><circle cx="33.626264333724976" cy="118.84406432509422" r="2" style="fill: steelblue;"></circle><circle cx="111.58447191119194" cy="121.00158296525478" r="2" style="fill: steelblue;"></circle><circle cx="66.37943089008331" cy="90.8311516046524" r="2" style="fill: steelblue;"></circle><circle cx="97.27650452405214" cy="156.99099227786064" r="2" style="fill: steelblue;"></circle><circle cx="36.0834002494812" cy="161.28018721938133" r="2" style="fill: steelblue;"></circle><circle cx="131.34514093399048" cy="187.93575316667557" r="2" style="fill: steelblue;"></circle><circle cx="121.68131023645401" cy="13.483291864395142" r="2" style="fill: steelblue;"></circle><circle cx="144.9506014585495" cy="63.66981416940689" r="2" style="fill: steelblue;"></circle><circle cx="146.13297581672668" cy="129.12846580147743" r="2" style="fill: steelblue;"></circle><circle cx="96.83895707130432" cy="141.72856360673904" r="2" style="fill: steelblue;"></circle><circle cx="112.02580779790878" cy="41.57551974058151" r="2" style="fill: steelblue;"></circle><circle cx="116.18928015232086" cy="28.27872931957245" r="2" style="fill: steelblue;"></circle><circle cx="81.7954272031784" cy="127.43552438914776" r="2" style="fill: steelblue;"></circle><circle cx="85.4816123843193" cy="173.57259094715118" r="2" style="fill: steelblue;"></circle><circle cx="52.53269970417023" cy="122.058280184865" r="2" style="fill: steelblue;"></circle><circle cx="94.97269615530968" cy="145.66194862127304" r="2" style="fill: steelblue;"></circle><circle cx="144.90668773651123" cy="105.39327459409833" r="2" style="fill: steelblue;"></circle><circle cx="150.79271793365479" cy="133.25794264674187" r="2" style="fill: steelblue;"></circle><circle cx="112.17628940939903" cy="168.08605790138245" r="2" style="fill: steelblue;"></circle><circle cx="136.73474788665771" cy="10.954974591732025" r="2" style="fill: steelblue;"></circle><circle cx="111.48023083806038" cy="102.70403269678354" r="2" style="fill: steelblue;"></circle><circle cx="151.00884437561035" cy="88.55010885745287" r="2" style="fill: steelblue;"></circle><circle cx="63.324037194252014" cy="76.16276144981384" r="2" style="fill: steelblue;"></circle><circle cx="38.29025626182556" cy="106.33366126567125" r="2" style="fill: steelblue;"></circle><circle cx="49.41364526748657" cy="133.8306501507759" r="2" style="fill: steelblue;"></circle><circle cx="41.10769033432007" cy="55.39359748363495" r="2" style="fill: steelblue;"></circle><circle cx="108.80816206336021" cy="110.43910533189774" r="2" style="fill: steelblue;"></circle><circle cx="39.96747136116028" cy="47.35562801361084" r="2" style="fill: steelblue;"></circle><circle cx="75.75927525758743" cy="69.85617466270924" r="2" style="fill: steelblue;"></circle><circle cx="90.20992070436478" cy="151.7517775297165" r="2" style="fill: steelblue;"></circle><circle cx="115.87333381175995" cy="140.29755294322968" r="2" style="fill: steelblue;"></circle><circle cx="64.69049751758575" cy="175.7458359003067" r="2" style="fill: steelblue;"></circle><circle cx="108.43155980110168" cy="103.48739326000214" r="2" style="fill: steelblue;"></circle><circle cx="73.86334538459778" cy="115.70996828377247" r="2" style="fill: steelblue;"></circle><circle cx="132.46310949325562" cy="106.36897422373295" r="2" style="fill: steelblue;"></circle><circle cx="76.34941786527634" cy="111.42708957195282" r="2" style="fill: steelblue;"></circle><circle cx="39.29089307785034" cy="150.36217346787453" r="2" style="fill: steelblue;"></circle><circle cx="51.58804953098297" cy="153.34483832120895" r="2" style="fill: steelblue;"></circle><circle cx="9.219318628311157" cy="186.8052914738655" r="2" style="fill: steelblue;"></circle><circle cx="15.077835321426392" cy="171.55682146549225" r="2" style="fill: steelblue;"></circle><circle cx="76.33380889892578" cy="172.0849111676216" r="2" style="fill: steelblue;"></circle><circle cx="49.94340538978577" cy="161.52700260281563" r="2" style="fill: steelblue;"></circle><circle cx="47.83517122268677" cy="175.56936144828796" r="2" style="fill: steelblue;"></circle><circle cx="120.900359749794" cy="193.75084936618805" r="2" style="fill: steelblue;"></circle><circle cx="34.782665967941284" cy="165.7273232936859" r="2" style="fill: steelblue;"></circle><circle cx="95.1558742672205" cy="111.22903916984797" r="2" style="fill: steelblue;"></circle><circle cx="29.28681969642639" cy="170.97923010587692" r="2" style="fill: steelblue;"></circle><circle cx="128.7827342748642" cy="26.224984228610992" r="2" style="fill: steelblue;"></circle><circle cx="122.23695069551468" cy="62.19586953520775" r="2" style="fill: steelblue;"></circle><circle cx="154.05619740486145" cy="109.00733470916748" r="2" style="fill: steelblue;"></circle><circle cx="106.11711777746677" cy="22.54599928855896" r="2" style="fill: steelblue;"></circle><circle cx="91.79366305470467" cy="89.41237479448318" r="2" style="fill: steelblue;"></circle><circle cx="145.7523226737976" cy="54.023316502571106" r="2" style="fill: steelblue;"></circle><circle cx="107.55355060100555" cy="113.7848099693656" r="2" style="fill: steelblue;"></circle><circle cx="95.93744613230228" cy="30.71036785840988" r="2" style="fill: steelblue;"></circle><circle cx="129.2700171470642" cy="45.17877325415611" r="2" style="fill: steelblue;"></circle><circle cx="149.34862852096558" cy="49.586205184459686" r="2" style="fill: steelblue;"></circle><circle cx="184.49092507362366" cy="149.69964176416397" r="2" style="fill: steelblue;"></circle><circle cx="113.22938054800034" cy="105.67232072353363" r="2" style="fill: steelblue;"></circle><circle cx="81.07146918773651" cy="125.25394037365913" r="2" style="fill: steelblue;"></circle><circle cx="68.2121753692627" cy="60.6718011200428" r="2" style="fill: steelblue;"></circle><circle cx="82.96888470649719" cy="157.04272165894508" r="2" style="fill: steelblue;"></circle><circle cx="94.51364614069462" cy="95.42498914524913" r="2" style="fill: steelblue;"></circle><circle cx="132.81991183757782" cy="133.6296297609806" r="2" style="fill: steelblue;"></circle><circle cx="113.46070319414139" cy="174.27246123552322" r="2" style="fill: steelblue;"></circle><circle cx="118.74755620956421" cy="107.69819878041744" r="2" style="fill: steelblue;"></circle><circle cx="110.64260303974152" cy="46.53295353055" r="2" style="fill: steelblue;"></circle><circle cx="127.58894860744476" cy="98.2062338385731" r="2" style="fill: steelblue;"></circle><circle cx="99.38351102173328" cy="77.96189226210117" r="2" style="fill: steelblue;"></circle><circle cx="104.66057136654854" cy="106.1578112654388" r="2" style="fill: steelblue;"></circle><circle cx="111.18493974208832" cy="85.93658581376076" r="2" style="fill: steelblue;"></circle><circle cx="117.9448738694191" cy="26.261208951473236" r="2" style="fill: steelblue;"></circle><circle cx="122.14924395084381" cy="35.73320657014847" r="2" style="fill: steelblue;"></circle><circle cx="69.42275762557983" cy="65.29131382703781" r="2" style="fill: steelblue;"></circle><circle cx="137.0547205209732" cy="136.68201714754105" r="2" style="fill: steelblue;"></circle><circle cx="131.36552274227142" cy="77.60382294654846" r="2" style="fill: steelblue;"></circle><circle cx="99.9063462310005" cy="57.328423857688904" r="2" style="fill: steelblue;"></circle><circle cx="113.84615302085876" cy="61.78668737411499" r="2" style="fill: steelblue;"></circle><circle cx="132.81187415122986" cy="68.8031543046236" r="2" style="fill: steelblue;"></circle><circle cx="171.22222185134888" cy="46.97316363453865" r="2" style="fill: steelblue;"></circle><circle cx="159.406578540802" cy="52.584825456142426" r="2" style="fill: steelblue;"></circle><circle cx="147.27970361709595" cy="80.39507120847702" r="2" style="fill: steelblue;"></circle><circle cx="145.0983613729477" cy="135.25614365935326" r="2" style="fill: steelblue;"></circle><circle cx="129.61681485176086" cy="134.9925309419632" r="2" style="fill: steelblue;"></circle><circle cx="117.76073724031448" cy="73.37418980896473" r="2" style="fill: steelblue;"></circle><circle cx="83.36287289857864" cy="110.91927662491798" r="2" style="fill: steelblue;"></circle><circle cx="141.37988090515137" cy="72.7872908115387" r="2" style="fill: steelblue;"></circle><circle cx="106.20092749595642" cy="41.122040152549744" r="2" style="fill: steelblue;"></circle><circle cx="40.851181745529175" cy="75.3830824047327" r="2" style="fill: steelblue;"></circle><circle cx="115.25365263223648" cy="125.01488104462624" r="2" style="fill: steelblue;"></circle><circle cx="67.17612147331238" cy="176.3159692287445" r="2" style="fill: steelblue;"></circle><circle cx="80.43390959501266" cy="118.74421536922455" r="2" style="fill: steelblue;"></circle><circle cx="54.22511100769043" cy="104.20604692772031" r="2" style="fill: steelblue;"></circle><circle cx="106.80637955665588" cy="42.720815539360046" r="2" style="fill: steelblue;"></circle></g></svg>