<svg xmlns="http://www.w3.org/2000/svg"><g transform="translate(40,20)"><circle cx="417.7915037423372" cy="170.77573057678012" r="3" style="fill: steelblue;"></circle><circle cx="265.13535629957914" cy="136.19120584593878" r="3" style="fill: steelblue;"></circle><circle cx="346.42756775021553" cy="247.0642386211289" r="3" style="fill: steelblue;"></circle><circle cx="231.30433129146695" cy="196.0672674079736" r="3" style="fill: steelblue;"></circle><circle cx="433.1464496254921" cy="127.93587230973772" r="3" style="fill: steelblue;"></circle><circle cx="293.7344518303871" cy="132.44558788008158" r="3" style="fill: steelblue;"></circle><circle cx="326.96903821080923" cy="120.11376519997913" r="3" style="fill: steelblue;"></circle><circle cx="384.75272700190544" cy="211.0611798448695" r="3" style="fill: steelblue;"></circle><circle cx="401.7318443208933" cy="146.66716961397066" r="3" style="fill: steelblue;"></circle><circle cx="472.15700045228004" cy="38.18482988410528" r="3" style="fill: steelblue;"></circle><circle cx="486.8905757367611" cy="57.844652069939514" r="3" style="fill: steelblue;"></circle><circle cx="341.68642971664667" cy="193.19117648733987" r="3" style="fill: steelblue;"></circle><circle cx="296.41430804505944" cy="185.44275799973144" r="3" style="fill: steelblue;"></circle><circle cx="398.94609197974205" cy="75.33911863962811" r="3" style="fill: steelblue;"></circle><circle cx="395.42280592024326" cy="216.2575963884592" r="3" style="fill: steelblue;"></circle><circle cx="530.3952281177044" cy="105.48262049754459" r="3" style="fill: steelblue;"></circle><circle cx="416.8546852469444" cy="87.56806453069049" r="3" style="fill: steelblue;"></circle><circle cx="484.72239196300507" cy="114.5409991343816" r="3" style="fill: steelblue;"></circle><circle cx="228.37307581678033" cy="75.24693343374463" r="3" style="fill: steelblue;"></circle><circle cx="389.5824634283781" cy="95.44542597399817" r="3" style="fill: steelblue;"></circle><circle cx="199.66842614114285" cy="146.51228942804863" r="3" style="fill: steelblue;"></circle><circle cx="281.7556393146515" cy="166.34701896044942" r="3" style="fill: steelblue;"></circle><circle cx="368.56736920773983" cy="67.08652608924443" r="3" style="fill: steelblue;"></circle><circle cx="366.53223641216755" cy="244.69919668303595" r="3" style="fill: steelblue;"></circle><circle cx="263.23102897033095" cy="205.57497358984415" r="3" style="fill: steelblue;"></circle><circle cx="196.97755862027407" cy="185.55502179596158" r="3" style="fill: steelblue;"></circle><circle cx="308.1796561181545" cy="172.5659767786662" r="3" style="fill: steelblue;"></circle><circle cx="166.58100754022598" cy="202.82888102034724" r="3" style="fill: steelblue;"></circle><circle cx="226.00450336933136" cy="119.8093593120575" r="3" style="fill: steelblue;"></circle><circle cx="125.74373155832292" cy="177.6068699028757" r="3" style="fill: steelblue;"></circle><circle cx="131.28301955759528" cy="163.04017023907767" r="3" style="fill: steelblue;"></circle><circle cx="281.09719262458384" cy="257.2153550055292" r="3" style="fill: steelblue;"></circle><circle cx="274.6905747265555" cy="187.88268882781267" r="3" style="fill: steelblue;"></circle><circle cx="376.9221217185259" cy="133.25993882285223" r="3" style="fill: steelblue;"></circle><circle cx="297.1033985540271" cy="219.33407626218263" r="3" style="fill: steelblue;"></circle><circle cx="221.86397060751915" cy="206.0449737020665" r="3" style="fill: steelblue;"></circle><circle cx="196.6327053308487" cy="238.07767323321764" r="3" style="fill: steelblue;"></circle><circle cx="52.14720860123636" cy="125.68930122587415" r="3" style="fill: steelblue;"></circle><circle cx="87.44241043925287" cy="188.21196423636542" r="3" style="fill: steelblue;"></circle><circle cx="107.78427354991437" cy="295.41240632534027" r="3" style="fill: steelblue;"></circle><circle cx="139.59711648523808" cy="211.179967969656" r="3" style="fill: steelblue;"></circle><circle cx="254.83243491500616" cy="308.009652627839" r="3" style="fill: steelblue;"></circle><circle cx="272.19940374372527" cy="194.11640439001428" r="3" style="fill: steelblue;"></circle><circle cx="315.5625018104911" cy="334.65508288807337" r="3" style="fill: steelblue;"></circle><circle cx="260.01885757315904" cy="310.1343280739254" r="3" style="fill: steelblue;"></circle><circle cx="68.77421557903291" cy="258.18164232704373" r="3" style="fill: steelblue;"></circle><circle cx="225.47335054725409" cy="273.0198792285389" r="3" style="fill: steelblue;"></circle><circle cx="227.03801717609167" cy="152.43754453129236" r="3" style="fill: steelblue;"></circle><circle cx="230.24361234158278" cy="289.1444381740358" r="3" style="fill: steelblue;"></circle><circle cx="337.63002444058657" cy="202.66431683881416" r="3" style="fill: steelblue;"></circle><circle cx="258.28702666796744" cy="184.63848510550127" r="3" style="fill: steelblue;"></circle><circle cx="161.1379773169756" cy="286.4228594634268" r="3" style="fill: steelblue;"></circle><circle cx="235.07340157404542" cy="190.83523000073103" r="3" style="fill: steelblue;"></circle><circle cx="172.63602398335934" cy="204.1647776754366" r="3" style="fill: steelblue;"></circle><circle cx="186.32670611143112" cy="276.96396658817923" r="3" style="fill: steelblue;"></circle><circle cx="213.84081959724426" cy="161.40600376658966" r="3" style="fill: steelblue;"></circle><circle cx="172.07919739186764" cy="265.3685187300046" r="3" style="fill: steelblue;"></circle><circle cx="230.3062754496932" cy="250.9352291623751" r="3" style="fill: steelblue;"></circle><circle cx="333.5318420827389" cy="271.54702527655496" r="3" style="fill: steelblue;"></circle><circle cx="266.3952280115336" cy="148.7132575776842" r="3" style="fill: steelblue;"></circle><circle cx="294.4199817068875" cy="90.61915841367511" r="3" style="fill: steelblue;"></circle><circle cx="451.6390872001648" cy="91.5810184346305" r="3" style="fill: steelblue;"></circle><circle cx="355.98898239433765" cy="140.57330621613397" r="3" style="fill: steelblue;"></circle><circle cx="394.66794177889824" cy="176.43594886693688" r="3" style="fill: steelblue;"></circle><circle cx="96.32932662963869" cy="130.10330249865848" r="3" style="fill: steelblue;"></circle><circle cx="285.0928370654583" cy="181.53521397875414" r="3" style="fill: steelblue;"></circle><circle cx="312.7969867363572" cy="201.28581755691107" r="3" style="fill: steelblue;"></circle><circle cx="300.6510985828936" cy="119.5107599099477" r="3" style="fill: steelblue;"></circle><circle cx="191.99844662100077" cy="263.20448435015146" r="3" style="fill: steelblue;"></circle><circle cx="182.8874871879816" cy="209.24909123116072" r="3" style="fill: steelblue;"></circle><circle cx="383.4795494377613" cy="118.3987135688464" r="3" style="fill: steelblue;"></circle><circle cx="166.710055321455" cy="219.2349255912834" r="3" style="fill: steelblue;"></circle><circle cx="228.82750656455755" cy="283.35509945948917" r="3" style="fill: steelblue;"></circle><circle cx="250.11126508936286" cy="229.83343982034262" r="3" style="fill: steelblue;"></circle><circle cx="226.20641838759184" cy="196.81055463540054" r="3" style="fill: steelblue;"></circle><circle cx="180.28607301414013" cy="311.09172602494556" r="3" style="fill: steelblue;"></circle><circle cx="98.09884026646615" cy="219.5129618048668" r="3" style="fill: steelblue;"></circle><circle cx="206.50058079510927" cy="265.78963382376566" r="3" style="fill: steelblue;"></circle><circle cx="164.85175721347332" cy="263.27945291996" r="3" style="fill: steelblue;"></circle><circle cx="208.256973400712" cy="228.1118950082196" r="3" style="fill: steelblue;"></circle><circle cx="116.40841707587244" cy="301.79522931575775" r="3" style="fill: steelblue;"></circle><circle cx="70.37871301174165" cy="216.570825005571" r="3" style="fill: steelblue;"></circle><circle cx="182.76130601763725" cy="304.80164455042944" r="3" style="fill: steelblue;"></circle><circle cx="283.7369188014418" cy="237.4159801337454" r="3" style="fill: steelblue;"></circle><circle cx="304.9893596023321" cy="203.24179706060227" r="3" style="fill: steelblue;"></circle><circle cx="304.1946143656969" cy="190.11933760096628" r="3" style="fill: steelblue;"></circle><circle cx="364.8126319795847" cy="116.55950629048876" r="3" style="fill: steelblue;"></circle><circle cx="334.08759243786335" cy="242.36463589800726" r="3" style="fill: steelblue;"></circle><circle cx="358.7600999325514" cy="203.9116399569644" r="3" style="fill: steelblue;"></circle><circle cx="436.81380048394203" cy="201.99160329583617" r="3" style="fill: steelblue;"></circle><circle cx="417.5269205868244" cy="77.42421494589911" r="3" style="fill: steelblue;"></circle><circle cx="532.0003692805767" cy="118.207186460495" r="3" style="fill: steelblue;"></circle><circle cx="477.6253071427345" cy="75.62907205687628" r="3" style="fill: steelblue;"></circle><circle cx="433.0463194102049" cy="72.00182643201617" r="3" style="fill: steelblue;"></circle><circle cx="337.5960374996066" cy="304.68391544289057" r="3" style="fill: steelblue;"></circle><circle cx="262.4345813691616" cy="255.21776162915762" r="3" style="fill: steelblue;"></circle><circle cx="180.64756773412228" cy="292.03959140512677" r="3" style="fill: steelblue;"></circle><circle cx="194.08480122685432" cy="257.24339650736914" r="3" style="fill: steelblue;"></circle><circle cx="234.95855106040835" cy="321.90882662932074" r="3" style="fill: steelblue;"></circle><circle cx="237.07536717876792" cy="292.1844869852066" r="3" style="fill: steelblue;"></circle><circle cx="192.91410248726606" cy="223.82998259531126" r="3" style="fill: steelblue;"></circle><circle cx="216.68768104165792" cy="252.8061866760254" r="3" style="fill: steelblue;"></circle><circle cx="135.80592803657055" cy="230.53831938240262" r="3" style="fill: steelblue;"></circle><circle cx="243.20771673694253" cy="309.7767482201258" r="3" style="fill: steelblue;"></circle><circle cx="61.93945080041887" cy="104.5899283554819" r="3" style="fill: steelblue;"></circle><circle cx="107.07450069487096" cy="157.5564137763447" r="3" style="fill: steelblue;"></circle><circle cx="358.0298584699631" cy="195.74589777686117" r="3" style="fill: steelblue;"></circle><circle cx="420.4732836037874" cy="152.30817637509767" r="3" style="fill: steelblue;"></circle><circle cx="440.8668865263462" cy="155.9579148888588" r="3" style="fill: steelblue;"></circle><circle cx="515.4054482281208" cy="136.81121915578842" r="3" style="fill: steelblue;"></circle><circle cx="300.870892200619" cy="65.91785781913335" r="3" style="fill: steelblue;"></circle><circle cx="418.670869320631" cy="60.703865355915475" r="3" style="fill: steelblue;"></circle><circle cx="211.176294721663" cy="45.99189923869238" r="3" style="fill: steelblue;"></circle><circle cx="79.53048393130304" cy="267.06179893679086" r="3" style="fill: steelblue;"></circle><circle cx="195.93942806124687" cy="298.0489333470662" r="3" style="fill: steelblue;"></circle><circle cx="14.217883050441756" cy="279.80443918042715" r="3" style="fill: steelblue;"></circle><circle cx="137.74721704423428" cy="286.29067788521445" r="3" style="fill: steelblue;"></circle><circle cx="213.168443441391" cy="241.98536574840546" r="3" style="fill: steelblue;"></circle></g></svg>