<svg xmlns="http://www.w3.org/2000/svg"><g transform="translate(40,20)"><circle cx="329.3165596042361" cy="222.37345866031114" r="3" style="fill: steelblue;"></circle><circle cx="234.36857383831273" cy="101.45141267114214" r="3" style="fill: steelblue;"></circle><circle cx="474.20211451394226" cy="81.31698270638782" r="3" style="fill: steelblue;"></circle><circle cx="424.9987833840507" cy="130.72642187277478" r="3" style="fill: steelblue;"></circle><circle cx="451.8415955134801" cy="73.63419069184198" r="3" style="fill: steelblue;"></circle><circle cx="536.7818135874613" cy="97.62945274511975" r="3" style="fill: steelblue;"></circle><circle cx="350.3687085424151" cy="234.73398346039983" r="3" style="fill: steelblue;"></circle><circle cx="467.0302018097469" cy="181.96637162731753" r="3" style="fill: steelblue;"></circle><circle cx="402.67960105623524" cy="56.173867649502206" r="3" style="fill: steelblue;"></circle><circle cx="513.2964221068792" cy="95.4150375392702" r="3" style="fill: steelblue;"></circle><circle cx="402.04160698822574" cy="83.16191534201306" r="3" style="fill: steelblue;"></circle><circle cx="384.61772816521784" cy="167.22836759355334" r="3" style="fill: steelblue;"></circle><circle cx="315.5765760796411" cy="178.69013444417055" r="3" style="fill: steelblue;"></circle><circle cx="365.03622676645006" cy="45.16041278839111" r="3" style="fill: steelblue;"></circle><circle cx="251.60369836858342" cy="132.33739137649536" r="3" style="fill: steelblue;"></circle><circle cx="226.1432281535651" cy="69.30225094159442" r="3" style="fill: steelblue;"></circle><circle cx="424.16460105351047" cy="56.58711327446832" r="3" style="fill: steelblue;"></circle><circle cx="269.83346988047873" cy="122.22528043720456" r="3" style="fill: steelblue;"></circle><circle cx="300.63200673886706" cy="116.57239993413287" r="3" style="fill: steelblue;"></circle><circle cx="533.2542872428895" cy="114.23097799221676" r="3" style="fill: steelblue;"></circle><circle cx="210.81824410174573" cy="177.22506738371317" r="3" style="fill: steelblue;"></circle><circle cx="235.00224050932698" cy="176.5146493497822" r="3" style="fill: steelblue;"></circle><circle cx="209.05177812491144" cy="267.53688189718457" r="3" style="fill: steelblue;"></circle><circle cx="386.2131444045476" cy="90.37310712867311" r="3" style="fill: steelblue;"></circle><circle cx="163.32842064755303" cy="204.63835468722715" r="3" style="fill: steelblue;"></circle><circle cx="107.40072446210044" cy="191.48403470818369" r="3" style="fill: steelblue;"></circle><circle cx="131.85358490262715" cy="248.7469952967432" r="3" style="fill: steelblue;"></circle><circle cx="518.1635509218489" cy="237.58768869770896" r="3" style="fill: steelblue;"></circle><circle cx="412.7299416916712" cy="155.61765887671044" r="3" style="fill: steelblue;"></circle><circle cx="148.64899341549193" cy="159.74580662118063" r="3" style="fill: steelblue;"></circle><circle cx="174.81013553483146" cy="183.267254071931" r="3" style="fill: steelblue;"></circle><circle cx="252.61703885027342" cy="184.82497789793547" r="3" style="fill: steelblue;"></circle><circle cx="228.3533449125077" cy="169.82861566874715" r="3" style="fill: steelblue;"></circle><circle cx="115.39717503956386" cy="153.3558414214187" r="3" style="fill: steelblue;"></circle><circle cx="263.8340225815773" cy="258.1647386153539" r="3" style="fill: steelblue;"></circle><circle cx="381.78247613566265" cy="232.26195615198878" r="3" style="fill: steelblue;"></circle><circle cx="80.39903742926461" cy="243.09165196286307" r="3" style="fill: steelblue;"></circle><circle cx="61.90976219517844" cy="213.06732503904237" r="3" style="fill: steelblue;"></circle><circle cx="111.98128989764622" cy="266.10506739881305" r="3" style="fill: steelblue;"></circle><circle cx="90.5957806961877" cy="223.61112675733034" r="3" style="fill: steelblue;"></circle><circle cx="95.90425550937653" cy="196.73132084103094" r="3" style="fill: steelblue;"></circle><circle cx="219.32814564023698" cy="270.4257766405741" r="3" style="fill: steelblue;"></circle><circle cx="212.09703562515122" cy="274.1253947218259" r="3" style="fill: steelblue;"></circle><circle cx="197.10128973637308" cy="255.21323002047006" r="3" style="fill: steelblue;"></circle><circle cx="151.38636972223009" cy="168.7710935042964" r="3" style="fill: steelblue;"></circle><circle cx="130.06984310490745" cy="292.92359120315973" r="3" style="fill: steelblue;"></circle><circle cx="214.58000632269042" cy="260.8766282598177" r="3" style="fill: steelblue;"></circle><circle cx="128.6587406056268" cy="134.8865835203065" r="3" style="fill: steelblue;"></circle><circle cx="139.4870981148311" cy="141.76036169131595" r="3" style="fill: steelblue;"></circle><circle cx="125.57618124144417" cy="167.5002322428756" r="3" style="fill: steelblue;"></circle><circle cx="54.82559221131461" cy="184.35561957044735" r="3" style="fill: steelblue;"></circle><circle cx="285.7747605443001" cy="166.2406449516614" r="3" style="fill: steelblue;"></circle><circle cx="91.46335652896336" cy="316.1536024676429" r="3" style="fill: steelblue;"></circle><circle cx="160.09901033980506" cy="313.82966372701856" r="3" style="fill: steelblue;"></circle><circle cx="147.69319781235285" cy="216.59559094243582" r="3" style="fill: steelblue;"></circle><circle cx="132.7538300412042" cy="298.2362707455953" r="3" style="fill: steelblue;"></circle><circle cx="135.717017693179" cy="255.54957737525302" r="3" style="fill: steelblue;"></circle><circle cx="108.6323526927403" cy="296.03813919756146" r="3" style="fill: steelblue;"></circle><circle cx="10.890479769025523" cy="254.80554749568302" r="3" style="fill: steelblue;"></circle><circle cx="94.33748526232583" cy="138.31799642907248" r="3" style="fill: steelblue;"></circle><circle cx="409.28620372499745" cy="85.56274076302844" r="3" style="fill: steelblue;"></circle><circle cx="473.93133401870733" cy="219.34271065725218" r="3" style="fill: steelblue;"></circle><circle cx="391.7665930305209" cy="123.21438226434918" r="3" style="fill: steelblue;"></circle><circle cx="296.825555562973" cy="247.71014352639514" r="3" style="fill: steelblue;"></circle><circle cx="395.067583833422" cy="161.7793660196993" r="3" style="fill: steelblue;"></circle><circle cx="351.39838942459653" cy="111.07577300733989" r="3" style="fill: steelblue;"></circle><circle cx="340.46851796763286" cy="103.04134670231076" r="3" style="fill: steelblue;"></circle><circle cx="149.37115520238876" cy="248.72405330340064" r="3" style="fill: steelblue;"></circle><circle cx="197.39798324448722" cy="136.17013560401068" r="3" style="fill: steelblue;"></circle><circle cx="279.367599274431" cy="184.06528441442384" r="3" style="fill: steelblue;"></circle><circle cx="442.49764527593345" cy="72.95094927151996" r="3" style="fill: steelblue;"></circle><circle cx="259.50988303337783" cy="154.68426628245248" r="3" style="fill: steelblue;"></circle><circle cx="407.98009821346835" cy="251.04965517918265" r="3" style="fill: steelblue;"></circle><circle cx="61.92193559237889" cy="168.9866143796179" r="3" style="fill: steelblue;"></circle><circle cx="216.64247034915857" cy="262.89268417490854" r="3" style="fill: steelblue;"></circle><circle cx="252.84204984349864" cy="226.3151237534152" r="3" style="fill: steelblue;"></circle><circle cx="34.54133289200919" cy="328.5718560218811" r="3" style="fill: steelblue;"></circle><circle cx="0.8219422612871358" cy="250.02072503169376" r="3" style="fill: steelblue;"></circle><circle cx="44.199136069842744" cy="265.64462814066144" r="3" style="fill: steelblue;"></circle><circle cx="63.738404171807424" cy="265.5286548866166" r="3" style="fill: steelblue;"></circle><circle cx="121.79969225611005" cy="222.76866767141553" r="3" style="fill: steelblue;"></circle><circle cx="104.27981717245919" cy="273.88784454928503" r="3" style="fill: steelblue;"></circle><circle cx="284.1022173847471" cy="266.31694038709" r="3" style="fill: steelblue;"></circle><circle cx="241.92184080502818" cy="184.11048098156846" r="3" style="fill: steelblue;"></circle><circle cx="387.84473598003393" cy="125.71691390540866" r="3" style="fill: steelblue;"></circle><circle cx="303.8783149634089" cy="135.61412112580405" r="3" style="fill: steelblue;"></circle><circle cx="309.65363208736693" cy="178.60756731695596" r="3" style="fill: steelblue;"></circle><circle cx="123.72320396559579" cy="120.05788501765994" r="3" style="fill: steelblue;"></circle><circle cx="257.95804502708575" cy="123.83867220746146" r="3" style="fill: steelblue;"></circle><circle cx="374.56232964992523" cy="90.79867270257739" r="3" style="fill: steelblue;"></circle><circle cx="438.1362124851772" cy="119.0276973777347" r="3" style="fill: steelblue;"></circle><circle cx="126.77699089050293" cy="34.73614818520014" r="3" style="fill: steelblue;"></circle><circle cx="236.580043256815" cy="83.38137964407605" r="3" style="fill: steelblue;"></circle><circle cx="261.0961950889656" cy="86.1434820625517" r="3" style="fill: steelblue;"></circle><circle cx="262.78223646538595" cy="170.2718687140279" r="3" style="fill: steelblue;"></circle><circle cx="272.29609410677637" cy="242.0315568645795" r="3" style="fill: steelblue;"></circle><circle cx="20.55374315806797" cy="211.5167644288805" r="3" style="fill: steelblue;"></circle><circle cx="238.16380445978473" cy="253.5136101974381" r="3" style="fill: steelblue;"></circle><circle cx="168.11768685068404" cy="239.31359706653487" r="3" style="fill: steelblue;"></circle><circle cx="108.55939277580806" cy="204.06473314182625" r="3" style="fill: steelblue;"></circle><circle cx="158.07759991713934" cy="175.26182180477514" r="3" style="fill: steelblue;"></circle><circle cx="129.3413244826453" cy="195.80842470491513" r="3" style="fill: steelblue;"></circle><circle cx="342.52497145107816" cy="129.65659134917786" r="3" style="fill: steelblue;"></circle><circle cx="5.620858669280998" cy="193.81474138936028" r="3" style="fill: steelblue;"></circle><circle cx="126.1243634564536" cy="266.3342091772291" r="3" style="fill: steelblue;"></circle><circle cx="47.65631190368107" cy="228.94586746891338" r="3" style="fill: steelblue;"></circle><circle cx="305.6733565245356" cy="55.50351407792834" r="3" style="fill: steelblue;"></circle><circle cx="478.9230016299657" cy="148.6968696117401" r="3" style="fill: steelblue;"></circle><circle cx="331.72400695937023" cy="253.39829756153952" r="3" style="fill: steelblue;"></circle><circle cx="414.7358853476389" cy="55.3223772181405" r="3" style="fill: steelblue;"></circle><circle cx="471.2550718443735" cy="136.1172108186616" r="3" style="fill: steelblue;"></circle><circle cx="297.2167940650668" cy="70.93363006909686" r="3" style="fill: steelblue;"></circle><circle cx="322.09040113857816" cy="154.26587768726876" r="3" style="fill: steelblue;"></circle><circle cx="296.34348788431714" cy="303.08441983328925" r="3" style="fill: steelblue;"></circle><circle cx="222.9042362528188" cy="214.7816450645526" r="3" style="fill: steelblue;"></circle><circle cx="148.90483592237746" cy="168.8597322338157" r="3" style="fill: steelblue;"></circle><circle cx="361.8544639859881" cy="182.4204951731695" r="3" style="fill: steelblue;"></circle><circle cx="228.5549729104553" cy="267.4256083038118" r="3" style="fill: steelblue;"></circle></g></svg>