<svg xmlns="http://www.w3.org/2000/svg"><rect width="200" height="200" fill="white"></rect><g><circle cx="27.474329206678604" cy="115.37778880447149" r="2" style="fill: steelblue;"></circle><circle cx="58.08343688646953" cy="173.67511093616486" r="2" style="fill: steelblue;"></circle><circle cx="53.728797700670036" cy="115.82488045096397" r="2" style="fill: steelblue;"></circle><circle cx="30.195056067572708" cy="178.16559821367264" r="2" style="fill: steelblue;"></circle><circle cx="111.05192237430148" cy="179.9657627940178" r="2" style="fill: steelblue;"></circle><circle cx="68.6168392499288" cy="173.96075129508972" r="2" style="fill: steelblue;"></circle><circle cx="115.68524804380205" cy="102.26579373702407" r="2" style="fill: steelblue;"></circle><circle cx="48.1893175178104" cy="58.460185676813126" r="2" style="fill: steelblue;"></circle><circle cx="65.75074659453499" cy="155.9089556336403" r="2" style="fill: steelblue;"></circle><circle cx="78.27067739433713" cy="118.50621029734612" r="2" style="fill: steelblue;"></circle><circle cx="70.84478967719609" cy="123.88618141412735" r="2" style="fill: steelblue;"></circle><circle cx="57.585287756390045" cy="143.13628748059273" r="2" style="fill: steelblue;"></circle><circle cx="39.83880281448365" cy="151.28495767712593" r="2" style="fill: steelblue;"></circle><circle cx="60.76588431994121" cy="123.17565679550171" r="2" style="fill: steelblue;"></circle><circle cx="41.50315324465434" cy="106.17336016148329" r="2" style="fill: steelblue;"></circle><circle cx="13.159459167056617" cy="118.2131752371788" r="2" style="fill: steelblue;"></circle><circle cx="102.99865769015419" cy="161.61541119217873" r="2" style="fill: steelblue;"></circle><circle cx="139.32905462053085" cy="114.70805518329144" r="2" style="fill: steelblue;"></circle><circle cx="101.16747303141489" cy="106.97519676759839" r="2" style="fill: steelblue;"></circle><circle cx="63.29820917712318" cy="117.5864938646555" r="2" style="fill: steelblue;"></circle><circle cx="52.760695748858986" cy="132.09390118718147" r="2" style="fill: steelblue;"></circle><circle cx="149.69861374961008" cy="120.23687958717346" r="2" style="fill: steelblue;"></circle><circle cx="96.24482641617458" cy="141.00307077169418" r="2" style="fill: steelblue;"></circle><circle cx="47.35386239157783" cy="104.09123627468944" r="2" style="fill: steelblue;"></circle><circle cx="45.344593127568565" cy="97.59935308247805" r="2" style="fill: steelblue;"></circle><circle cx="41.757227977116905" cy="130.27193807065487" r="2" style="fill: steelblue;"></circle><circle cx="16.562248600853817" cy="74.90089759230614" r="2" style="fill: steelblue;"></circle><circle cx="134.38357445928787" cy="68.64570304751396" r="2" style="fill: steelblue;"></circle><circle cx="51.29202074474759" cy="149.31556805968285" r="2" style="fill: steelblue;"></circle><circle cx="89.67198656044073" cy="78.20953652262688" r="2" style="fill: steelblue;"></circle><circle cx="162.71064546373154" cy="28.508006036281586" r="2" style="fill: steelblue;"></circle><circle cx="124.85289110077753" cy="45.98536565899849" r="2" style="fill: steelblue;"></circle><circle cx="150.42800903320312" cy="109.37447417527437" r="2" style="fill: steelblue;"></circle><circle cx="134.52808923191495" cy="71.94709070026875" r="2" style="fill: steelblue;"></circle><circle cx="142.00154145558673" cy="58.43995362520218" r="2" style="fill: steelblue;"></circle><circle cx="51.26282109154595" cy="7.152377068996429" r="2" style="fill: steelblue;"></circle><circle cx="74.77284173170726" cy="78.38064841926098" r="2" style="fill: steelblue;"></circle><circle cx="58.56254564391242" cy="84.14323106408119" r="2" style="fill: steelblue;"></circle><circle cx="85.92273617784183" cy="129.01457995176315" r="2" style="fill: steelblue;"></circle><circle cx="57.66742295689053" cy="186.0406905412674" r="2" style="fill: steelblue;"></circle><circle cx="16.571275393168136" cy="81.49811662733555" r="2" style="fill: steelblue;"></circle><circle cx="106.90622395939297" cy="17.313456535339355" r="2" style="fill: steelblue;"></circle><circle cx="132.92536338170368" cy="7.6833575963974" r="2" style="fill: steelblue;"></circle><circle cx="109.26728480392032" cy="16.094571352005005" r="2" style="fill: steelblue;"></circle><circle cx="118.9341531859504" cy="124.61540512740612" r="2" style="fill: steelblue;"></circle><circle cx="146.15918397903442" cy="136.65856644511223" r="2" style="fill: steelblue;"></circle><circle cx="107.42835402488708" cy="134.7890369594097" r="2" style="fill: steelblue;"></circle><circle cx="33.6308499177297" cy="182.771897315979" r="2" style="fill: steelblue;"></circle><circle cx="30.640965037875713" cy="164.4030049443245" r="2" style="fill: steelblue;"></circle><circle cx="92.95002942283949" cy="138.83833065629005" r="2" style="fill: steelblue;"></circle><circle cx="89.74566716286871" cy="132.39575028419495" r="2" style="fill: steelblue;"></circle><circle cx="131.89052409595914" cy="139.00327533483505" r="2" style="fill: steelblue;"></circle><circle cx="43.55614582697551" cy="132.17055648565292" r="2" style="fill: steelblue;"></circle><circle cx="93.96461637483704" cy="151.48933455348015" r="2" style="fill: steelblue;"></circle><circle cx="60.65267523129781" cy="119.77555081248283" r="2" style="fill: steelblue;"></circle><circle cx="91.76182800696957" cy="128.5269431769848" r="2" style="fill: steelblue;"></circle><circle cx="69.908912314309" cy="90.97664467990398" r="2" style="fill: steelblue;"></circle><circle cx="55.24362987942166" cy="199.51037168502808" r="2" style="fill: steelblue;"></circle><circle cx="117.5150626235538" cy="132.45127573609352" r="2" style="fill: steelblue;"></circle><circle cx="123.91439941194322" cy="140.33630341291428" r="2" style="fill: steelblue;"></circle><circle cx="36.90866496827868" cy="140.93221575021744" r="2" style="fill: steelblue;"></circle><circle cx="97.5860873858134" cy="135.40511801838875" r="2" style="fill: steelblue;"></circle><circle cx="86.63551977111233" cy="179.88426089286804" r="2" style="fill: steelblue;"></circle><circle cx="15.086033609178337" cy="173.47530871629715" r="2" style="fill: steelblue;"></circle><circle cx="25.45618216196696" cy="100.3387063043192" r="2" style="fill: steelblue;"></circle><circle cx="6.400126881069612" cy="143.15825551748276" r="2" style="fill: steelblue;"></circle><circle cx="62.511568599277076" cy="104.29388415068388" r="2" style="fill: steelblue;"></circle><circle cx="19.0047476026747" cy="160.16386672854424" r="2" style="fill: steelblue;"></circle><circle cx="52.899465296003555" cy="163.410684466362" r="2" style="fill: steelblue;"></circle><circle cx="111.22845477528043" cy="68.40789541602135" r="2" style="fill: steelblue;"></circle><circle cx="91.51406764156289" cy="131.7189022898674" r="2" style="fill: steelblue;"></circle><circle cx="143.08393862512375" cy="58.567917346954346" r="2" style="fill: steelblue;"></circle><circle cx="56.948117415110275" cy="136.32736578583717" r="2" style="fill: steelblue;"></circle><circle cx="76.8474045726988" cy="40.465815365314484" r="2" style="fill: steelblue;"></circle><circle cx="114.01719384723239" cy="53.86308804154396" r="2" style="fill: steelblue;"></circle><circle cx="164.31575218836468" cy="108.745058439672" r="2" style="fill: steelblue;"></circle><circle cx="81.96446829371983" cy="53.773293644189835" r="2" style="fill: steelblue;"></circle><circle cx="146.49278455310397" cy="34.71328914165497" r="2" style="fill: steelblue;"></circle><circle cx="160.3819449742635" cy="50.80141723155975" r="2" style="fill: steelblue;"></circle><circle cx="166.20647774802313" cy="53.43466103076935" r="2" style="fill: steelblue;"></circle><circle cx="128.9383027288649" cy="11.194831132888794" r="2" style="fill: steelblue;"></circle><circle cx="139.50075904528302" cy="52.552150934934616" r="2" style="fill: steelblue;"></circle><circle cx="49.20057985517714" cy="68.56813877820969" r="2" style="fill: steelblue;"></circle><circle cx="95.97423457437093" cy="162.16546148061752" r="2" style="fill: steelblue;"></circle><circle cx="65.33410516050128" cy="132.9991802573204" r="2" style="fill: steelblue;"></circle><circle cx="136.16587585873074" cy="109.30836517363787" r="2" style="fill: steelblue;"></circle><circle cx="99.73187529378468" cy="72.65391051769257" r="2" style="fill: steelblue;"></circle><circle cx="52.4756133556366" cy="115.94403572380543" r="2" style="fill: steelblue;"></circle><circle cx="135.1758427090115" cy="83.24788548052311" r="2" style="fill: steelblue;"></circle><circle cx="87.2593120775289" cy="71.54220193624496" r="2" style="fill: steelblue;"></circle><circle cx="114.74876304467519" cy="60.180263966321945" r="2" style="fill: steelblue;"></circle><circle cx="113.51545684867435" cy="91.43039714545012" r="2" style="fill: steelblue;"></circle><circle cx="76.20983355575139" cy="51.442018151283264" r="2" style="fill: steelblue;"></circle><circle cx="114.13732866446178" cy="52.05753296613693" r="2" style="fill: steelblue;"></circle><circle cx="160.8113235897488" cy="145.2420338988304" r="2" style="fill: steelblue;"></circle><circle cx="133.5449006822374" cy="96.2173500098288" r="2" style="fill: steelblue;"></circle><circle cx="122.68499400880602" cy="20.36784440279007" r="2" style="fill: steelblue;"></circle><circle cx="51.642267571555244" cy="37.32043355703354" r="2" style="fill: steelblue;"></circle><circle cx="168.5911602444119" cy="61.88126876950264" r="2" style="fill: steelblue;"></circle><circle cx="179.3153338962131" cy="90.21589197218418" r="2" style="fill: steelblue;"></circle><circle cx="91.92132155100505" cy="97.37610295414925" r="2" style="fill: steelblue;"></circle><circle cx="136.07848551538254" cy="89.86957874149084" r="2" style="fill: steelblue;"></circle><circle cx="54.54231831762526" cy="34.18675661087036" r="2" style="fill: steelblue;"></circle><circle cx="180.10895649592084" cy="115.63874445855618" r="2" style="fill: steelblue;"></circle><circle cx="119.2223416434394" cy="142.81412437558174" r="2" style="fill: steelblue;"></circle><circle cx="119.27074723773532" cy="60.031528025865555" r="2" style="fill: steelblue;"></circle><circle cx="105.83132207393646" cy="98.42580163385719" r="2" style="fill: steelblue;"></circle><circle cx="81.04699303706488" cy="96.52343522757292" r="2" style="fill: steelblue;"></circle><circle cx="150.23171769248114" cy="49.91417974233627" r="2" style="fill: steelblue;"></circle><circle cx="178.88872358534073" cy="54.40804585814476" r="2" style="fill: steelblue;"></circle><circle cx="147.60070906745065" cy="42.96345114707947" r="2" style="fill: steelblue;"></circle><circle cx="96.25649154186249" cy="137.83395513892174" r="2" style="fill: steelblue;"></circle><circle cx="62.379738026195106" cy="126.07749216258526" r="2" style="fill: steelblue;"></circle><circle cx="121.09739780426025" cy="106.15022843703628" r="2" style="fill: steelblue;"></circle><circle cx="132.04211195309955" cy="156.9205805659294" r="2" style="fill: steelblue;"></circle><circle cx="50.57893395423889" cy="148.32912608981133" r="2" style="fill: steelblue;"></circle><circle cx="54.16868660185072" cy="113.63704726099968" r="2" style="fill: steelblue;"></circle><circle cx="93.31852768858275" cy="111.75327971577644" r="2" style="fill: steelblue;"></circle></g></svg>