<svg xmlns="http://www.w3.org/2000/svg"><rect width="200" height="200" fill="white"></rect><g><circle cx="37.54728883504868" cy="78.38045176532533" r="2" style="fill: steelblue;"></circle><circle cx="20.184351503849037" cy="112.9991696940528" r="2" style="fill: steelblue;"></circle><circle cx="55.44525235891342" cy="110.11434131198459" r="2" style="fill: steelblue;"></circle><circle cx="16.24425351619721" cy="121.03211747275458" r="2" style="fill: steelblue;"></circle><circle cx="43.09391826391221" cy="165.14344877666898" r="2" style="fill: steelblue;"></circle><circle cx="45.35933434963227" cy="111.48661739296384" r="2" style="fill: steelblue;"></circle><circle cx="84.24909450113773" cy="65.7130863931444" r="2" style="fill: steelblue;"></circle><circle cx="104.96531371027231" cy="129.2230440510644" r="2" style="fill: steelblue;"></circle><circle cx="49.63425025343896" cy="112.90226413144006" r="2" style="fill: steelblue;"></circle><circle cx="32.983569800853736" cy="29.658594396379257" r="2" style="fill: steelblue;"></circle><circle cx="47.579551488161094" cy="97.4172928267055" r="2" style="fill: steelblue;"></circle><circle cx="90.56337494403124" cy="72.65088823106554" r="2" style="fill: steelblue;"></circle><circle cx="47.851322591304786" cy="125.67412058512369" r="2" style="fill: steelblue;"></circle><circle cx="91.74739141017199" cy="117.53425200780234" r="2" style="fill: steelblue;"></circle><circle cx="49.04564321041108" cy="113.21795847680833" r="2" style="fill: steelblue;"></circle><circle cx="130.04711121320724" cy="178.85253694322373" r="2" style="fill: steelblue;"></circle><circle cx="84.41365081816912" cy="70.71628537442949" r="2" style="fill: steelblue;"></circle><circle cx="86.5284888073802" cy="53.90257504251268" r="2" style="fill: steelblue;"></circle><circle cx="81.16308823227882" cy="72.63263596428766" r="2" style="fill: steelblue;"></circle><circle cx="118.47570762038231" cy="59.11862386597528" r="2" style="fill: steelblue;"></circle><circle cx="140.18208384513855" cy="17.04763571421306" r="2" style="fill: steelblue;"></circle><circle cx="173.1847882270813" cy="57.99573527442086" r="2" style="fill: steelblue;"></circle><circle cx="118.3088444173336" cy="158.99660057491727" r="2" style="fill: steelblue;"></circle><circle cx="74.20323826372623" cy="126.83987153900995" r="2" style="fill: steelblue;"></circle><circle cx="110.03882102668285" cy="153.940663072798" r="2" style="fill: steelblue;"></circle><circle cx="137.15281561017036" cy="81.37668619553249" r="2" style="fill: steelblue;"></circle><circle cx="81.9346684962511" cy="126.28320389323764" r="2" style="fill: steelblue;"></circle><circle cx="44.56809014081956" cy="103.82696522606744" r="2" style="fill: steelblue;"></circle><circle cx="67.53397583961487" cy="104.44627900918326" r="2" style="fill: steelblue;"></circle><circle cx="73.5142383724451" cy="49.374049239688446" r="2" style="fill: steelblue;"></circle><circle cx="164.61980193853378" cy="85.96150817142593" r="2" style="fill: steelblue;"></circle><circle cx="126.98700688779354" cy="115.69502651691437" r="2" style="fill: steelblue;"></circle><circle cx="98.95058060064912" cy="40.17172786924574" r="2" style="fill: steelblue;"></circle><circle cx="44.57903131842614" cy="43.78344813982646" r="2" style="fill: steelblue;"></circle><circle cx="43.861421197652824" cy="84.54429225789177" r="2" style="fill: steelblue;"></circle><circle cx="74.45221059024334" cy="97.17861513296764" r="2" style="fill: steelblue;"></circle><circle cx="86.37863248586655" cy="154.0780848926968" r="2" style="fill: steelblue;"></circle><circle cx="11.097384989261633" cy="128.1619025601281" r="2" style="fill: steelblue;"></circle><circle cx="56.39510825276375" cy="147.4075370364719" r="2" style="fill: steelblue;"></circle><circle cx="120.20628750324249" cy="145.20033068127103" r="2" style="fill: steelblue;"></circle><circle cx="63.10805901885033" cy="114.87878892156813" r="2" style="fill: steelblue;"></circle><circle cx="77.19116695225239" cy="53.536360793643524" r="2" style="fill: steelblue;"></circle><circle cx="93.1574109941721" cy="93.44984665513039" r="2" style="fill: steelblue;"></circle><circle cx="162.51976639032364" cy="44.721247752507544" r="2" style="fill: steelblue;"></circle><circle cx="111.57557684928179" cy="70.26654018296136" r="2" style="fill: steelblue;"></circle><circle cx="176.5140801668167" cy="32.81799157460532" r="2" style="fill: steelblue;"></circle><circle cx="122.14672043919563" cy="34.694236516952515" r="2" style="fill: steelblue;"></circle><circle cx="20.175023376941688" cy="132.82183673646713" r="2" style="fill: steelblue;"></circle><circle cx="96.12004193477333" cy="148.1592377026876" r="2" style="fill: steelblue;"></circle><circle cx="80.99580779671669" cy="87.18769668291013" r="2" style="fill: steelblue;"></circle><circle cx="139.35149684548378" cy="177.77130868699814" r="2" style="fill: steelblue;"></circle><circle cx="93.92895121127367" cy="124.61104525460138" r="2" style="fill: steelblue;"></circle><circle cx="165.43220579624176" cy="89.4586496365567" r="2" style="fill: steelblue;"></circle><circle cx="60.79514920711517" cy="108.57716235849593" r="2" style="fill: steelblue;"></circle><circle cx="99.98965114355087" cy="88.65008986451559" r="2" style="fill: steelblue;"></circle><circle cx="54.33879271149635" cy="118.88645622465346" r="2" style="fill: steelblue;"></circle><circle cx="89.11281116306782" cy="70.08375757270389" r="2" style="fill: steelblue;"></circle><circle cx="111.51526719331741" cy="111.65758007102542" r="2" style="fill: steelblue;"></circle><circle cx="146.3881678879261" cy="94.06754614578354" r="2" style="fill: steelblue;"></circle><circle cx="57.23111182451248" cy="130.83397878540887" r="2" style="fill: steelblue;"></circle><circle cx="67.47179329395294" cy="115.97786049048106" r="2" style="fill: steelblue;"></circle><circle cx="73.31110574305058" cy="150.28278562757706" r="2" style="fill: steelblue;"></circle><circle cx="25.280235707759864" cy="177.81278027428522" r="2" style="fill: steelblue;"></circle><circle cx="37.03637272119523" cy="77.72264911068811" r="2" style="fill: steelblue;"></circle><circle cx="41.059034317731864" cy="123.37834503915575" r="2" style="fill: steelblue;"></circle><circle cx="101.36240769643337" cy="129.16907535658942" r="2" style="fill: steelblue;"></circle><circle cx="32.45252966880799" cy="121.44759496053061" r="2" style="fill: steelblue;"></circle><circle cx="38.446149230003364" cy="120.652836561203" r="2" style="fill: steelblue;"></circle><circle cx="121.53689414262772" cy="108.59011809031169" r="2" style="fill: steelblue;"></circle><circle cx="88.31429146230221" cy="141.64693024423386" r="2" style="fill: steelblue;"></circle><circle cx="43.67974996566773" cy="137.19459904564752" r="2" style="fill: steelblue;"></circle><circle cx="108.74878093600273" cy="88.84519206476398" r="2" style="fill: steelblue;"></circle><circle cx="154.71934750676155" cy="37.823549906412765" r="2" style="fill: steelblue;"></circle><circle cx="146.32263258099556" cy="43.551499976052185" r="2" style="fill: steelblue;"></circle><circle cx="154.92480099201202" cy="74.62653054131403" r="2" style="fill: steelblue;"></circle><circle cx="150.64723640680313" cy="46.50874137878418" r="2" style="fill: steelblue;"></circle><circle cx="153.58610674738884" cy="94.30186152458191" r="2" style="fill: steelblue;"></circle><circle cx="152.3417331278324" cy="82.37567080391779" r="2" style="fill: steelblue;"></circle><circle cx="198.31810742616653" cy="32.01136853959825" r="2" style="fill: steelblue;"></circle><circle cx="169.89457458257675" cy="38.32767605781555" r="2" style="fill: steelblue;"></circle><circle cx="157.15251713991165" cy="93.43407129247983" r="2" style="fill: steelblue;"></circle><circle cx="194.56172585487366" cy="70.6030266152488" r="2" style="fill: steelblue;"></circle><circle cx="101.60771864466369" cy="67.60558022393121" r="2" style="fill: steelblue;"></circle><circle cx="79.7450378537178" cy="88.33507859251566" r="2" style="fill: steelblue;"></circle><circle cx="11.65474802255631" cy="133.20742580625748" r="2" style="fill: steelblue;"></circle><circle cx="90.9477373585105" cy="127.65720354186163" r="2" style="fill: steelblue;"></circle><circle cx="94.27862791344523" cy="103.09217075506847" r="2" style="fill: steelblue;"></circle><circle cx="105.51027338951826" cy="94.03038182192378" r="2" style="fill: steelblue;"></circle><circle cx="113.33172153681517" cy="113.87903028064304" r="2" style="fill: steelblue;"></circle><circle cx="137.28440031409264" cy="43.98566020859613" r="2" style="fill: steelblue;"></circle><circle cx="161.80524826049805" cy="22.363356749216724" r="2" style="fill: steelblue;"></circle><circle cx="165.24331867694855" cy="98.05406249231763" r="2" style="fill: steelblue;"></circle><circle cx="107.65054998919368" cy="38.22581834263272" r="2" style="fill: steelblue;"></circle><circle cx="165.1502013206482" cy="88.2263811926047" r="2" style="fill: steelblue;"></circle><circle cx="157.34657496213913" cy="57.829097244474625" r="2" style="fill: steelblue;"></circle><circle cx="153.06872352957726" cy="31.137981679704453" r="2" style="fill: steelblue;"></circle><circle cx="143.12416911125183" cy="42.40566359625924" r="2" style="fill: steelblue;"></circle><circle cx="182.39983767271042" cy="44.66708368725247" r="2" style="fill: steelblue;"></circle><circle cx="88.20360749959946" cy="53.79333297411601" r="2" style="fill: steelblue;"></circle><circle cx="55.86524158716202" cy="66.67513681782617" r="2" style="fill: steelblue;"></circle><circle cx="77.66121290624142" cy="75.94700687461429" r="2" style="fill: steelblue;"></circle><circle cx="157.85034596920013" cy="59.27239391538832" r="2" style="fill: steelblue;"></circle><circle cx="91.39722716063261" cy="72.49189780818092" r="2" style="fill: steelblue;"></circle><circle cx="115.87392389774323" cy="73.5089037153456" r="2" style="fill: steelblue;"></circle><circle cx="189.46897089481354" cy="13.993520206875276" r="2" style="fill: steelblue;"></circle><circle cx="154.90651726722717" cy="55.483644538455536" r="2" style="fill: steelblue;"></circle><circle cx="38.915848731994636" cy="48.14167022705078" r="2" style="fill: steelblue;"></circle><circle cx="155.43960630893707" cy="74.37753544913399" r="2" style="fill: steelblue;"></circle><circle cx="177.36223936080933" cy="78.99540447526508" r="2" style="fill: steelblue;"></circle><circle cx="168.21611523628235" cy="64.34114310476515" r="2" style="fill: steelblue;"></circle><circle cx="177.45961099863052" cy="48.50343068440757" r="2" style="fill: steelblue;"></circle><circle cx="173.99165630340576" cy="55.02249664730496" r="2" style="fill: steelblue;"></circle><circle cx="60.789673030376434" cy="130.87276816368103" r="2" style="fill: steelblue;"></circle><circle cx="105.439433734864" cy="103.01176740063562" r="2" style="fill: steelblue;"></circle><circle cx="76.22055932879448" cy="152.74878210491605" r="2" style="fill: steelblue;"></circle><circle cx="35.804605484008796" cy="163.86657820807562" r="2" style="fill: steelblue;"></circle><circle cx="37.17032670974732" cy="138.8009144200219" r="2" style="fill: steelblue;"></circle><circle cx="99.18294372037053" cy="53.67616017659505" r="2" style="fill: steelblue;"></circle></g></svg>