<svg xmlns="http://www.w3.org/2000/svg"><g transform="translate(40,20)"><circle cx="386.991650685668" cy="79.25078123807907" r="3" style="fill: steelblue;"></circle><circle cx="494.49186220765114" cy="136.14850673410626" r="3" style="fill: steelblue;"></circle><circle cx="342.7561080828309" cy="48.609115348921875" r="3" style="fill: steelblue;"></circle><circle cx="475.7091034948826" cy="72.83125917116803" r="3" style="fill: steelblue;"></circle><circle cx="454.6426919102669" cy="70.02967612610922" r="3" style="fill: steelblue;"></circle><circle cx="401.35393448174" cy="43.33571361170874" r="3" style="fill: steelblue;"></circle><circle cx="270.65021194168366" cy="161.41891899622152" r="3" style="fill: steelblue;"></circle><circle cx="478.8225647807121" cy="105.21668460634021" r="3" style="fill: steelblue;"></circle><circle cx="279.0972437057644" cy="95.62981145249472" r="3" style="fill: steelblue;"></circle><circle cx="136.50049276649952" cy="29.156275259123905" r="3" style="fill: steelblue;"></circle><circle cx="538.1612491607666" cy="69.56323915057713" r="3" style="fill: steelblue;"></circle><circle cx="292.70386749878526" cy="141.0164772636361" r="3" style="fill: steelblue;"></circle><circle cx="272.7722522383556" cy="109.29377931687566" r="3" style="fill: steelblue;"></circle><circle cx="225.88785242289305" cy="162.58141208026143" r="3" style="fill: steelblue;"></circle><circle cx="429.94357019662857" cy="87.46258351537915" r="3" style="fill: steelblue;"></circle><circle cx="484.2702117562294" cy="172.6201581872172" r="3" style="fill: steelblue;"></circle><circle cx="349.74720373749733" cy="138.92930638458995" r="3" style="fill: steelblue;"></circle><circle cx="228.14539147540927" cy="143.4682687951459" r="3" style="fill: steelblue;"></circle><circle cx="337.95233711600304" cy="49.46818550427757" r="3" style="fill: steelblue;"></circle><circle cx="354.96560230851173" cy="43.98123025894165" r="3" style="fill: steelblue;"></circle><circle cx="258.36963661015034" cy="149.14118080503414" r="3" style="fill: steelblue;"></circle><circle cx="417.9818567633629" cy="45.859089493751526" r="3" style="fill: steelblue;"></circle><circle cx="244.15131200104952" cy="123.00964337256221" r="3" style="fill: steelblue;"></circle><circle cx="249.86834370531142" cy="52.14698049757215" r="3" style="fill: steelblue;"></circle><circle cx="364.75250355899334" cy="219.9244434634844" r="3" style="fill: steelblue;"></circle><circle cx="337.29028578847647" cy="151.7876757722762" r="3" style="fill: steelblue;"></circle><circle cx="370.1686681061983" cy="133.05955044925213" r="3" style="fill: steelblue;"></circle><circle cx="347.5632033124566" cy="196.78042266103955" r="3" style="fill: steelblue;"></circle><circle cx="353.89583341777325" cy="219.88321857319937" r="3" style="fill: steelblue;"></circle><circle cx="116.37053757905962" cy="160.68479549139738" r="3" style="fill: steelblue;"></circle><circle cx="291.53685009106994" cy="144.33190170675516" r="3" style="fill: steelblue;"></circle><circle cx="214.26398668438196" cy="142.76591291030246" r="3" style="fill: steelblue;"></circle><circle cx="228.27251812443137" cy="128.60649012857016" r="3" style="fill: steelblue;"></circle><circle cx="378.4529221057892" cy="312.03211943308514" r="3" style="fill: steelblue;"></circle><circle cx="472.65810415148735" cy="140.5224725190136" r="3" style="fill: steelblue;"></circle><circle cx="198.16032227128744" cy="218.4531483385298" r="3" style="fill: steelblue;"></circle><circle cx="270.2085987282044" cy="227.58105993270874" r="3" style="fill: steelblue;"></circle><circle cx="266.0777326254174" cy="214.7548109292984" r="3" style="fill: steelblue;"></circle><circle cx="293.9262381568551" cy="225.32069699631796" r="3" style="fill: steelblue;"></circle><circle cx="182.86394074559212" cy="83.94281003210278" r="3" style="fill: steelblue;"></circle><circle cx="74.3202929198742" cy="87.1617936425739" r="3" style="fill: steelblue;"></circle><circle cx="151.4085491001606" cy="215.67096660534543" r="3" style="fill: steelblue;"></circle><circle cx="192.6984679698944" cy="221.53534922334882" r="3" style="fill: steelblue;"></circle><circle cx="199.41985074430704" cy="177.26774302621686" r="3" style="fill: steelblue;"></circle><circle cx="223.88676188886166" cy="254.4225894742542" r="3" style="fill: steelblue;"></circle><circle cx="250.24692619219422" cy="206.54231905937195" r="3" style="fill: steelblue;"></circle><circle cx="146.7713986337185" cy="224.50160003370706" r="3" style="fill: steelblue;"></circle><circle cx="218.1298729777336" cy="161.3313396461308" r="3" style="fill: steelblue;"></circle><circle cx="196.59268844872713" cy="272.8310618135664" r="3" style="fill: steelblue;"></circle><circle cx="193.7070020288229" cy="181.3966571456856" r="3" style="fill: steelblue;"></circle><circle cx="217.34758995473385" cy="91.23118983374701" r="3" style="fill: steelblue;"></circle><circle cx="169.5597381144762" cy="196.26483917236328" r="3" style="fill: steelblue;"></circle><circle cx="196.3265261426568" cy="145.59048648095796" r="3" style="fill: steelblue;"></circle><circle cx="151.79683908820152" cy="229.39072483115729" r="3" style="fill: steelblue;"></circle><circle cx="28.61195102334024" cy="200.74710142281322" r="3" style="fill: steelblue;"></circle><circle cx="170.62233544886112" cy="59.556276599566154" r="3" style="fill: steelblue;"></circle><circle cx="345.09551402181387" cy="80.8497437172466" r="3" style="fill: steelblue;"></circle><circle cx="286.30307491868734" cy="174.52928957839805" r="3" style="fill: steelblue;"></circle><circle cx="112.44681112468244" cy="200.62612427605524" r="3" style="fill: steelblue;"></circle><circle cx="206.50565519928932" cy="176.95645135309962" r="3" style="fill: steelblue;"></circle><circle cx="392.9131333529949" cy="38.73448504341974" r="3" style="fill: steelblue;"></circle><circle cx="376.244545429945" cy="173.8227700607644" r="3" style="fill: steelblue;"></circle><circle cx="412.3719897866249" cy="33.65361293156944" r="3" style="fill: steelblue;"></circle><circle cx="369.75328110158443" cy="106.81346820460425" r="3" style="fill: steelblue;"></circle><circle cx="147.9531665146351" cy="73.53798730505838" r="3" style="fill: steelblue;"></circle><circle cx="466.59609720110893" cy="68.0123511287901" r="3" style="fill: steelblue;"></circle><circle cx="293.26594199985266" cy="58.100900053977966" r="3" style="fill: steelblue;"></circle><circle cx="364.95997577905655" cy="163.0216517796119" r="3" style="fill: steelblue;"></circle><circle cx="421.7714962363243" cy="76.47894339429007" r="3" style="fill: steelblue;"></circle><circle cx="468.54820892214775" cy="14.522551827960562" r="3" style="fill: steelblue;"></circle><circle cx="116.81319259107114" cy="76.88885115914876" r="3" style="fill: steelblue;"></circle><circle cx="257.4484813772142" cy="111.05617814593846" r="3" style="fill: steelblue;"></circle><circle cx="119.29621070623399" cy="256.37964175807105" r="3" style="fill: steelblue;"></circle><circle cx="213.3423813432455" cy="111.72868452138373" r="3" style="fill: steelblue;"></circle><circle cx="317.85836040973663" cy="257.1251435412301" r="3" style="fill: steelblue;"></circle><circle cx="329.48246754705906" cy="102.14042928483752" r="3" style="fill: steelblue;"></circle><circle cx="110.82956984639169" cy="179.8211596492264" r="3" style="fill: steelblue;"></circle><circle cx="137.4173355102539" cy="233.9183350404104" r="3" style="fill: steelblue;"></circle><circle cx="107.26451173424722" cy="287.2470478216807" r="3" style="fill: steelblue;"></circle><circle cx="118.24513010680677" cy="291.33626255724164" r="3" style="fill: steelblue;"></circle><circle cx="174.88282330334187" cy="168.07920522987843" r="3" style="fill: steelblue;"></circle><circle cx="168.45718927681446" cy="288.668269250128" r="3" style="fill: steelblue;"></circle><circle cx="364.5453029125929" cy="223.80334403779773" r="3" style="fill: steelblue;"></circle><circle cx="384.63628225028515" cy="160.82672661998208" r="3" style="fill: steelblue;"></circle><circle cx="243.91848787665367" cy="100.53349882364273" r="3" style="fill: steelblue;"></circle><circle cx="351.0668908059597" cy="76.4662583669027" r="3" style="fill: steelblue;"></circle><circle cx="201.03320952504873" cy="85.42562541034488" r="3" style="fill: steelblue;"></circle><circle cx="183.2802028208971" cy="192.06294558114473" r="3" style="fill: steelblue;"></circle><circle cx="482.0489001274109" cy="162.15732130739423" r="3" style="fill: steelblue;"></circle><circle cx="247.44977781549096" cy="75.10656714439392" r="3" style="fill: steelblue;"></circle><circle cx="315.18776033073664" cy="104.66688225666684" r="3" style="fill: steelblue;"></circle><circle cx="464.0711461007595" cy="129.5263052814537" r="3" style="fill: steelblue;"></circle><circle cx="476.52133002877235" cy="166.8196034514242" r="3" style="fill: steelblue;"></circle><circle cx="330.67148745059967" cy="203.44313043687077" r="3" style="fill: steelblue;"></circle><circle cx="202.76735823601484" cy="106.57971368895636" r="3" style="fill: steelblue;"></circle><circle cx="61.002883762121215" cy="208.7995121876399" r="3" style="fill: steelblue;"></circle><circle cx="125.5479269474745" cy="156.81829780547156" r="3" style="fill: steelblue;"></circle><circle cx="215.7348145544529" cy="172.79600575566292" r="3" style="fill: steelblue;"></circle><circle cx="152.8633289784193" cy="214.52790018584994" r="3" style="fill: steelblue;"></circle><circle cx="328.87507796287537" cy="170.15526294708252" r="3" style="fill: steelblue;"></circle><circle cx="306.3927969709039" cy="120.75079290403261" r="3" style="fill: steelblue;"></circle><circle cx="127.73684084415437" cy="232.11988326576022" r="3" style="fill: steelblue;"></circle><circle cx="102.55946785211565" cy="206.33891820907593" r="3" style="fill: steelblue;"></circle><circle cx="221.1242240667343" cy="287.0310256878535" r="3" style="fill: steelblue;"></circle><circle cx="86.77458062767984" cy="215.65744131803513" r="3" style="fill: steelblue;"></circle><circle cx="67.40349277853967" cy="102.75213271379471" r="3" style="fill: steelblue;"></circle><circle cx="460.1053659617901" cy="21.154091755549125" r="3" style="fill: steelblue;"></circle><circle cx="430.2365981787443" cy="110.83606481552124" r="3" style="fill: steelblue;"></circle><circle cx="410.2901664376259" cy="87.52283884419336" r="3" style="fill: steelblue;"></circle><circle cx="415.58793492615223" cy="79.950654009978" r="3" style="fill: steelblue;"></circle><circle cx="486.9662743806839" cy="14.820061789618594" r="3" style="fill: steelblue;"></circle><circle cx="495.3942511975765" cy="144.91551727470426" r="3" style="fill: steelblue;"></circle><circle cx="195.5635952576995" cy="113.52950061360997" r="3" style="fill: steelblue;"></circle><circle cx="153.13042670488358" cy="147.52066276139686" r="3" style="fill: steelblue;"></circle><circle cx="129.08589810132983" cy="256.7308008670807" r="3" style="fill: steelblue;"></circle><circle cx="163.42665933072567" cy="171.87202262381714" r="3" style="fill: steelblue;"></circle><circle cx="292.478886321187" cy="194.20242119166585" r="3" style="fill: steelblue;"></circle><circle cx="286.5634335950017" cy="236.24285327063666" r="3" style="fill: steelblue;"></circle></g></svg>