<svg xmlns="http://www.w3.org/2000/svg"><rect width="200" height="200" fill="white"></rect><g><circle cx="63.19132447242737" cy="101.05227646417916" r="2" style="fill: steelblue;"></circle><circle cx="28.72735924190945" cy="109.38380509614944" r="2" style="fill: steelblue;"></circle><circle cx="80.48377765549553" cy="116.64752513170242" r="2" style="fill: steelblue;"></circle><circle cx="127.49012642436557" cy="124.04522337019444" r="2" style="fill: steelblue;"></circle><circle cx="63.87167506747775" cy="148.82345348596573" r="2" style="fill: steelblue;"></circle><circle cx="71.52790493435329" cy="106.26224838197231" r="2" style="fill: steelblue;"></circle><circle cx="136.03514267338645" cy="121.0596639662981" r="2" style="fill: steelblue;"></circle><circle cx="106.06898698541853" cy="109.13601368665695" r="2" style="fill: steelblue;"></circle><circle cx="105.40198203590181" cy="149.0792952477932" r="2" style="fill: steelblue;"></circle><circle cx="143.30971903271146" cy="105.32843824476004" r="2" style="fill: steelblue;"></circle><circle cx="92.48416456911299" cy="71.94705344736576" r="2" style="fill: steelblue;"></circle><circle cx="130.00764118300543" cy="136.15142032504082" r="2" style="fill: steelblue;"></circle><circle cx="75.41743252012465" cy="154.24632132053375" r="2" style="fill: steelblue;"></circle><circle cx="55.7537575562795" cy="163.18000704050064" r="2" style="fill: steelblue;"></circle><circle cx="116.3941952917311" cy="121.64571546018124" r="2" style="fill: steelblue;"></circle><circle cx="162.5091897116767" cy="184.54257994890213" r="2" style="fill: steelblue;"></circle><circle cx="31.339870558844673" cy="138.2777415215969" r="2" style="fill: steelblue;"></circle><circle cx="46.55008183585273" cy="98.44321084674448" r="2" style="fill: steelblue;"></circle><circle cx="134.74399679236942" cy="123.4603751450777" r="2" style="fill: steelblue;"></circle><circle cx="106.0485475593143" cy="80.38996383547783" r="2" style="fill: steelblue;"></circle><circle cx="142.01847049925064" cy="42.684683948755264" r="2" style="fill: steelblue;"></circle><circle cx="97.83954256110721" cy="62.17051520943642" r="2" style="fill: steelblue;"></circle><circle cx="150.57207809554205" cy="176.08551532030106" r="2" style="fill: steelblue;"></circle><circle cx="97.27015925778282" cy="94.31450571864843" r="2" style="fill: steelblue;"></circle><circle cx="160.97938683297897" cy="144.0410003066063" r="2" style="fill: steelblue;"></circle><circle cx="105.85187127192815" cy="131.5096192061901" r="2" style="fill: steelblue;"></circle><circle cx="58.58344833056132" cy="148.40687662363052" r="2" style="fill: steelblue;"></circle><circle cx="107.21480225523312" cy="112.6907266676426" r="2" style="fill: steelblue;"></circle><circle cx="74.78154699007669" cy="165.6997561454773" r="2" style="fill: steelblue;"></circle><circle cx="75.29046800401476" cy="130.01576848328114" r="2" style="fill: steelblue;"></circle><circle cx="142.21538437737357" cy="103.95849766209722" r="2" style="fill: steelblue;"></circle><circle cx="124.11180386940639" cy="79.33616116642952" r="2" style="fill: steelblue;"></circle><circle cx="108.6942855682638" cy="12.170886993408203" r="2" style="fill: steelblue;"></circle><circle cx="94.1944205098682" cy="115.18828421831131" r="2" style="fill: steelblue;"></circle><circle cx="131.65846467018127" cy="85.65844632685184" r="2" style="fill: steelblue;"></circle><circle cx="64.41120968924629" cy="38.608381897211075" r="2" style="fill: steelblue;"></circle><circle cx="170.03337542215982" cy="92.87491105496883" r="2" style="fill: steelblue;"></circle><circle cx="94.65019736025069" cy="29.0681853890419" r="2" style="fill: steelblue;"></circle><circle cx="124.61971657143698" cy="144.93523761630058" r="2" style="fill: steelblue;"></circle><circle cx="140.17898837725323" cy="151.44771188497543" r="2" style="fill: steelblue;"></circle><circle cx="120.9079987472958" cy="82.23884403705597" r="2" style="fill: steelblue;"></circle><circle cx="175.63029130299884" cy="140.4069870710373" r="2" style="fill: steelblue;"></circle><circle cx="155.42392929395038" cy="32.153940200805664" r="2" style="fill: steelblue;"></circle><circle cx="119.4241593281428" cy="85.53031403571367" r="2" style="fill: steelblue;"></circle><circle cx="137.51912779278226" cy="60.36006882786751" r="2" style="fill: steelblue;"></circle><circle cx="146.3298300902049" cy="45.76074182987213" r="2" style="fill: steelblue;"></circle><circle cx="109.83694220582645" cy="86.83499079197645" r="2" style="fill: steelblue;"></circle><circle cx="66.10418690575493" cy="35.31990051269531" r="2" style="fill: steelblue;"></circle><circle cx="84.50757629341548" cy="144.64765638113022" r="2" style="fill: steelblue;"></circle><circle cx="60.144993993971084" cy="181.14858716726303" r="2" style="fill: steelblue;"></circle><circle cx="86.36418481667836" cy="186.35391294956207" r="2" style="fill: steelblue;"></circle><circle cx="125.75771576828427" cy="138.14688324928284" r="2" style="fill: steelblue;"></circle><circle cx="123.49315153227911" cy="85.27739383280277" r="2" style="fill: steelblue;"></circle><circle cx="94.77911558416154" cy="32.833172380924225" r="2" style="fill: steelblue;"></circle><circle cx="174.39014381832547" cy="101.60842260811478" r="2" style="fill: steelblue;"></circle><circle cx="106.29954271846347" cy="126.39386244118214" r="2" style="fill: steelblue;"></circle><circle cx="97.54528022474712" cy="122.61733263731003" r="2" style="fill: steelblue;"></circle><circle cx="92.43384997049967" cy="122.10870571434498" r="2" style="fill: steelblue;"></circle><circle cx="40.871454609764946" cy="100.69879757938907" r="2" style="fill: steelblue;"></circle><circle cx="54.17719814512465" cy="156.99114874005318" r="2" style="fill: steelblue;"></circle><circle cx="58.014243841171265" cy="131.76014497876167" r="2" style="fill: steelblue;"></circle><circle cx="86.94362143675485" cy="169.49471682310104" r="2" style="fill: steelblue;"></circle><circle cx="99.46590330865648" cy="145.0628623366356" r="2" style="fill: steelblue;"></circle><circle cx="79.16985286606682" cy="144.18356716632843" r="2" style="fill: steelblue;"></circle><circle cx="18.4722277853224" cy="182.41596817970276" r="2" style="fill: steelblue;"></circle><circle cx="54.38892708884345" cy="149.9672293663025" r="2" style="fill: steelblue;"></circle><circle cx="66.89838568369547" cy="106.03020377457142" r="2" style="fill: steelblue;"></circle><circle cx="52.86859803729587" cy="168.15772503614426" r="2" style="fill: steelblue;"></circle><circle cx="31.59247504340278" cy="131.7717120051384" r="2" style="fill: steelblue;"></circle><circle cx="66.23174415694344" cy="171.76002860069275" r="2" style="fill: steelblue;"></circle><circle cx="73.93127679824829" cy="117.46274530887604" r="2" style="fill: steelblue;"></circle><circle cx="165.24796353446112" cy="81.25572316348553" r="2" style="fill: steelblue;"></circle><circle cx="67.52972139252556" cy="59.902167320251465" r="2" style="fill: steelblue;"></circle><circle cx="150.8774757385254" cy="29.32692915201187" r="2" style="fill: steelblue;"></circle><circle cx="118.45831904146407" cy="63.23460340499878" r="2" style="fill: steelblue;"></circle><circle cx="90.35150541199577" cy="62.361570447683334" r="2" style="fill: steelblue;"></circle><circle cx="80.78191015455458" cy="16.506320238113403" r="2" style="fill: steelblue;"></circle><circle cx="66.72469112608168" cy="54.80884611606598" r="2" style="fill: steelblue;"></circle><circle cx="136.81645856963263" cy="92.34962649643421" r="2" style="fill: steelblue;"></circle><circle cx="111.00037399834643" cy="16.211828589439392" r="2" style="fill: steelblue;"></circle><circle cx="158.99111496077643" cy="39.130205661058426" r="2" style="fill: steelblue;"></circle><circle cx="192.87463691499497" cy="43.212077021598816" r="2" style="fill: steelblue;"></circle><circle cx="110.67151588698228" cy="32.382166385650635" r="2" style="fill: steelblue;"></circle><circle cx="92.15589529938167" cy="125.38693509995937" r="2" style="fill: steelblue;"></circle><circle cx="101.5180241730478" cy="131.14950843155384" r="2" style="fill: steelblue;"></circle><circle cx="99.2157550321685" cy="157.06888064742088" r="2" style="fill: steelblue;"></circle><circle cx="91.38024515575832" cy="52.28967070579529" r="2" style="fill: steelblue;"></circle><circle cx="72.10302684042189" cy="172.20441848039627" r="2" style="fill: steelblue;"></circle><circle cx="136.54062648614246" cy="153.35291102528572" r="2" style="fill: steelblue;"></circle><circle cx="129.87774113814038" cy="15.708027780056" r="2" style="fill: steelblue;"></circle><circle cx="86.75133850839403" cy="60.639044642448425" r="2" style="fill: steelblue;"></circle><circle cx="124.70290809869766" cy="58.56570079922676" r="2" style="fill: steelblue;"></circle><circle cx="142.57890317175125" cy="13.288235664367676" r="2" style="fill: steelblue;"></circle><circle cx="161.67441341612076" cy="57.47174695134163" r="2" style="fill: steelblue;"></circle><circle cx="153.41218312581378" cy="102.90407869033515" r="2" style="fill: steelblue;"></circle><circle cx="95.89262472258675" cy="46.15011289715767" r="2" style="fill: steelblue;"></circle><circle cx="198.34003183576797" cy="74.97385926544666" r="2" style="fill: steelblue;"></circle><circle cx="94.68218353059557" cy="99.93009493482532" r="2" style="fill: steelblue;"></circle><circle cx="146.33404546313815" cy="56.3211128115654" r="2" style="fill: steelblue;"></circle><circle cx="47.25017150243123" cy="163.19426000118256" r="2" style="fill: steelblue;"></circle><circle cx="93.45236586199867" cy="95.51546340808272" r="2" style="fill: steelblue;"></circle><circle cx="93.34372480710347" cy="97.40155227482319" r="2" style="fill: steelblue;"></circle><circle cx="145.71960435973273" cy="86.91847920417786" r="2" style="fill: steelblue;"></circle><circle cx="154.28586800893146" cy="66.2940502166748" r="2" style="fill: steelblue;"></circle><circle cx="29.269225067562527" cy="27.13458091020584" r="2" style="fill: steelblue;"></circle><circle cx="162.45145267910428" cy="17.008765041828156" r="2" style="fill: steelblue;"></circle><circle cx="113.25376149680879" cy="73.83430600166321" r="2" style="fill: steelblue;"></circle><circle cx="126.14267071088155" cy="82.74054564535618" r="2" style="fill: steelblue;"></circle><circle cx="124.2424812581804" cy="136.32725775241852" r="2" style="fill: steelblue;"></circle><circle cx="176.0740147696601" cy="32.249024510383606" r="2" style="fill: steelblue;"></circle><circle cx="77.23393042882283" cy="91.52819253504276" r="2" style="fill: steelblue;"></circle><circle cx="114.04272582795885" cy="71.9985369592905" r="2" style="fill: steelblue;"></circle><circle cx="72.65294260448879" cy="55.93526214361191" r="2" style="fill: steelblue;"></circle><circle cx="45.327272680070664" cy="154.5889511704445" r="2" style="fill: steelblue;"></circle><circle cx="44.477833641899956" cy="127.29988284409046" r="2" style="fill: steelblue;"></circle><circle cx="57.441274325052895" cy="158.48445370793343" r="2" style="fill: steelblue;"></circle><circle cx="71.8877911567688" cy="135.96214205026627" r="2" style="fill: steelblue;"></circle><circle cx="79.65523997942606" cy="111.92104537039995" r="2" style="fill: steelblue;"></circle></g></svg>