<svg xmlns="http://www.w3.org/2000/svg"><rect width="200" height="200" fill="white"></rect><g><circle cx="80.27987033128738" cy="171.08941078186035" r="2" style="fill: steelblue;"></circle><circle cx="42.27495416998864" cy="98.41158632189035" r="2" style="fill: steelblue;"></circle><circle cx="82.82140679657459" cy="133.45908522605896" r="2" style="fill: steelblue;"></circle><circle cx="83.86875353753567" cy="163.61541748046875" r="2" style="fill: steelblue;"></circle><circle cx="62.753817439079285" cy="130.31014502048492" r="2" style="fill: steelblue;"></circle><circle cx="104.59266360849142" cy="73.4727293252945" r="2" style="fill: steelblue;"></circle><circle cx="147.69600555300713" cy="150.07880926132202" r="2" style="fill: steelblue;"></circle><circle cx="132.20118582248688" cy="78.97876650094986" r="2" style="fill: steelblue;"></circle><circle cx="126.04658342897892" cy="131.97557032108307" r="2" style="fill: steelblue;"></circle><circle cx="78.44864800572395" cy="125.73042809963226" r="2" style="fill: steelblue;"></circle><circle cx="87.05926723778248" cy="82.86647945642471" r="2" style="fill: steelblue;"></circle><circle cx="59.284231066703796" cy="118.32903772592545" r="2" style="fill: steelblue;"></circle><circle cx="125.99045820534229" cy="97.79602810740471" r="2" style="fill: steelblue;"></circle><circle cx="133.09812769293785" cy="133.3869606256485" r="2" style="fill: steelblue;"></circle><circle cx="42.58860871195794" cy="115.87653458118439" r="2" style="fill: steelblue;"></circle><circle cx="44.94490325450898" cy="172.51995205879211" r="2" style="fill: steelblue;"></circle><circle cx="104.0625175461173" cy="111.43796443939209" r="2" style="fill: steelblue;"></circle><circle cx="150.62304809689522" cy="139.58609104156494" r="2" style="fill: steelblue;"></circle><circle cx="84.67725329101086" cy="71.71654999256134" r="2" style="fill: steelblue;"></circle><circle cx="103.67336208000779" cy="55.37520945072174" r="2" style="fill: steelblue;"></circle><circle cx="91.6278338059783" cy="67.66323745250702" r="2" style="fill: steelblue;"></circle><circle cx="135.6164388358593" cy="135.93954145908356" r="2" style="fill: steelblue;"></circle><circle cx="148.49035292863846" cy="124.0889623761177" r="2" style="fill: steelblue;"></circle><circle cx="28.23602259159089" cy="122.25751876831055" r="2" style="fill: steelblue;"></circle><circle cx="51.519303023815155" cy="166.37373566627502" r="2" style="fill: steelblue;"></circle><circle cx="38.4557418525219" cy="88.41552808880806" r="2" style="fill: steelblue;"></circle><circle cx="90.69346487522125" cy="133.6205691099167" r="2" style="fill: steelblue;"></circle><circle cx="43.88649985194207" cy="102.72349547594786" r="2" style="fill: steelblue;"></circle><circle cx="68.96650642156601" cy="163.9165997505188" r="2" style="fill: steelblue;"></circle><circle cx="162.9921704530716" cy="68.65485906600952" r="2" style="fill: steelblue;"></circle><circle cx="83.99916104972363" cy="78.31868976354599" r="2" style="fill: steelblue;"></circle><circle cx="115.89233987033367" cy="55.0493985414505" r="2" style="fill: steelblue;"></circle><circle cx="136.47420182824135" cy="53.867024183273315" r="2" style="fill: steelblue;"></circle><circle cx="110.70212386548519" cy="103.16104292869568" r="2" style="fill: steelblue;"></circle><circle cx="158.69046971201897" cy="87.97419220209122" r="2" style="fill: steelblue;"></circle><circle cx="69.6567989885807" cy="83.81071984767914" r="2" style="fill: steelblue;"></circle><circle cx="104.12667263299227" cy="118.2045727968216" r="2" style="fill: steelblue;"></circle><circle cx="0.6049484014511164" cy="114.5183876156807" r="2" style="fill: steelblue;"></circle><circle cx="27.74737626314164" cy="147.46730029582977" r="2" style="fill: steelblue;"></circle><circle cx="62.011177092790604" cy="105.02730384469032" r="2" style="fill: steelblue;"></circle><circle cx="14.516247808933263" cy="55.09331226348877" r="2" style="fill: steelblue;"></circle><circle cx="143.84471848607063" cy="49.207282066345215" r="2" style="fill: steelblue;"></circle><circle cx="155.0146959722042" cy="87.82371059060097" r="2" style="fill: steelblue;"></circle><circle cx="100.77354663517326" cy="63.265252113342285" r="2" style="fill: steelblue;"></circle><circle cx="116.63754694163799" cy="88.51976916193962" r="2" style="fill: steelblue;"></circle><circle cx="121.40428125858307" cy="48.99115562438965" r="2" style="fill: steelblue;"></circle><circle cx="126.9047524780035" cy="136.675962805748" r="2" style="fill: steelblue;"></circle><circle cx="10.231880843639379" cy="161.70974373817444" r="2" style="fill: steelblue;"></circle><circle cx="111.33822463452816" cy="150.58635473251343" r="2" style="fill: steelblue;"></circle><circle cx="89.84106630086899" cy="158.89230966567993" r="2" style="fill: steelblue;"></circle><circle cx="100.67304912954569" cy="91.19183793663979" r="2" style="fill: steelblue;"></circle><circle cx="121.41478285193443" cy="160.03252863883972" r="2" style="fill: steelblue;"></circle><circle cx="54.45855334401131" cy="124.24072474241257" r="2" style="fill: steelblue;"></circle><circle cx="41.10359251499177" cy="109.79007929563522" r="2" style="fill: steelblue;"></circle><circle cx="72.51321189105511" cy="84.12666618824005" r="2" style="fill: steelblue;"></circle><circle cx="3.306081891059881" cy="135.30950248241425" r="2" style="fill: steelblue;"></circle><circle cx="75.85113905370235" cy="91.56844019889832" r="2" style="fill: steelblue;"></circle><circle cx="89.18695654720068" cy="126.13665461540222" r="2" style="fill: steelblue;"></circle><circle cx="105.76763739809394" cy="67.53689050674438" r="2" style="fill: steelblue;"></circle><circle cx="113.10582924634218" cy="123.65058213472366" r="2" style="fill: steelblue;"></circle><circle cx="76.26503370702267" cy="160.70910692214966" r="2" style="fill: steelblue;"></circle><circle cx="98.04469314403832" cy="148.41195046901703" r="2" style="fill: steelblue;"></circle><circle cx="45.7417018711567" cy="190.78068137168884" r="2" style="fill: steelblue;"></circle><circle cx="4.643088579177862" cy="184.9221646785736" r="2" style="fill: steelblue;"></circle><circle cx="21.895258128643043" cy="123.66619110107422" r="2" style="fill: steelblue;"></circle><circle cx="59.84942838549614" cy="150.05659461021423" r="2" style="fill: steelblue;"></circle><circle cx="7.931141555309301" cy="152.16482877731323" r="2" style="fill: steelblue;"></circle><circle cx="23.555195331573493" cy="79.099640250206" r="2" style="fill: steelblue;"></circle><circle cx="92.3668229021132" cy="165.21733403205872" r="2" style="fill: steelblue;"></circle><circle cx="34.5257580280304" cy="104.8441257327795" r="2" style="fill: steelblue;"></circle><circle cx="147.18775302171707" cy="170.7131803035736" r="2" style="fill: steelblue;"></circle><circle cx="193.6645194888115" cy="71.2172657251358" r="2" style="fill: steelblue;"></circle><circle cx="186.24745905399323" cy="77.76304930448532" r="2" style="fill: steelblue;"></circle><circle cx="108.68726335465908" cy="45.94380259513855" r="2" style="fill: steelblue;"></circle><circle cx="167.81163811683655" cy="93.88288222253323" r="2" style="fill: steelblue;"></circle><circle cx="53.36424931883812" cy="108.20633694529533" r="2" style="fill: steelblue;"></circle><circle cx="162.3856820166111" cy="54.24767732620239" r="2" style="fill: steelblue;"></circle><circle cx="146.94264009594917" cy="92.44644939899445" r="2" style="fill: steelblue;"></circle><circle cx="128.91402691602707" cy="104.06255386769772" r="2" style="fill: steelblue;"></circle><circle cx="175.1272439956665" cy="70.72998285293579" r="2" style="fill: steelblue;"></circle><circle cx="83.39319415390491" cy="50.651371479034424" r="2" style="fill: steelblue;"></circle><circle cx="165.7932385802269" cy="15.509074926376343" r="2" style="fill: steelblue;"></circle><circle cx="54.52236011624336" cy="86.77061945199966" r="2" style="fill: steelblue;"></circle><circle cx="34.635981917381294" cy="118.92853081226349" r="2" style="fill: steelblue;"></circle><circle cx="90.0601115077734" cy="131.7878246307373" r="2" style="fill: steelblue;"></circle><circle cx="93.10864182189107" cy="117.03111529350281" r="2" style="fill: steelblue;"></circle><circle cx="125.79873241484165" cy="105.48635385930538" r="2" style="fill: steelblue;"></circle><circle cx="109.0103866532445" cy="67.18008816242218" r="2" style="fill: steelblue;"></circle><circle cx="117.62775704264641" cy="86.53929680585861" r="2" style="fill: steelblue;"></circle><circle cx="130.13712167739868" cy="81.25244379043579" r="2" style="fill: steelblue;"></circle><circle cx="118.2278398424387" cy="89.35739696025848" r="2" style="fill: steelblue;"></circle><circle cx="105.5050179362297" cy="72.41105139255524" r="2" style="fill: steelblue;"></circle><circle cx="143.60554367303848" cy="100.61648897826672" r="2" style="fill: steelblue;"></circle><circle cx="154.8691414296627" cy="95.33942863345146" r="2" style="fill: steelblue;"></circle><circle cx="157.92031064629555" cy="88.81506025791168" r="2" style="fill: steelblue;"></circle><circle cx="145.47226056456566" cy="82.0551261305809" r="2" style="fill: steelblue;"></circle><circle cx="156.971475481987" cy="77.85075604915619" r="2" style="fill: steelblue;"></circle><circle cx="29.58470433950425" cy="130.57724237442017" r="2" style="fill: steelblue;"></circle><circle cx="33.25206637382508" cy="62.945279479026794" r="2" style="fill: steelblue;"></circle><circle cx="179.59093153476715" cy="68.63447725772858" r="2" style="fill: steelblue;"></circle><circle cx="180.24710416793823" cy="100.0936537689995" r="2" style="fill: steelblue;"></circle><circle cx="130.15821054577827" cy="86.15384697914124" r="2" style="fill: steelblue;"></circle><circle cx="93.2306818664074" cy="67.18812584877014" r="2" style="fill: steelblue;"></circle><circle cx="24.46009814739228" cy="28.777778148651123" r="2" style="fill: steelblue;"></circle><circle cx="155.02008274197578" cy="40.593421459198" r="2" style="fill: steelblue;"></circle><circle cx="57.925841212272644" cy="52.72029638290405" r="2" style="fill: steelblue;"></circle><circle cx="100.17467129509896" cy="54.90163862705231" r="2" style="fill: steelblue;"></circle><circle cx="111.76791079342365" cy="70.38318514823914" r="2" style="fill: steelblue;"></circle><circle cx="81.77698999643326" cy="82.23926275968552" r="2" style="fill: steelblue;"></circle><circle cx="144.95178163051605" cy="116.63712710142136" r="2" style="fill: steelblue;"></circle><circle cx="110.92589274048805" cy="58.62011909484863" r="2" style="fill: steelblue;"></circle><circle cx="170.79534232616425" cy="93.79907250404358" r="2" style="fill: steelblue;"></circle><circle cx="67.60845184326172" cy="159.14881825447083" r="2" style="fill: steelblue;"></circle><circle cx="75.95210559666157" cy="84.74634736776352" r="2" style="fill: steelblue;"></circle><circle cx="64.27997201681137" cy="132.82387852668762" r="2" style="fill: steelblue;"></circle><circle cx="6.3640907406807" cy="119.56609040498734" r="2" style="fill: steelblue;"></circle><circle cx="61.245786398649216" cy="145.77488899230957" r="2" style="fill: steelblue;"></circle><circle cx="61.86254546046257" cy="93.19362044334412" r="2" style="fill: steelblue;"></circle></g></svg>