<svg xmlns="http://www.w3.org/2000/svg"><rect width="200" height="200" fill="white"></rect><g><circle cx="44.839119911193855" cy="158.99209901690483" r="2" style="fill: steelblue;"></circle><circle cx="33.82271379232407" cy="57.884516566991806" r="2" style="fill: steelblue;"></circle><circle cx="107.98446778208017" cy="115.50224795937538" r="2" style="fill: steelblue;"></circle><circle cx="58.62136408686638" cy="177.6878073811531" r="2" style="fill: steelblue;"></circle><circle cx="31.0838207602501" cy="182.45260268449783" r="2" style="fill: steelblue;"></circle><circle cx="90.83706457167864" cy="130.91062046587467" r="2" style="fill: steelblue;"></circle><circle cx="61.012840270996094" cy="68.4770479798317" r="2" style="fill: steelblue;"></circle><circle cx="10.106696188449865" cy="123.3139656484127" r="2" style="fill: steelblue;"></circle><circle cx="58.13887193799019" cy="142.13791340589523" r="2" style="fill: steelblue;"></circle><circle cx="51.11504569649696" cy="156.15883693099022" r="2" style="fill: steelblue;"></circle><circle cx="69.24636699259281" cy="85.66769156605005" r="2" style="fill: steelblue;"></circle><circle cx="123.16681295633316" cy="121.61730267107487" r="2" style="fill: steelblue;"></circle><circle cx="69.7593878954649" cy="50.13007149100304" r="2" style="fill: steelblue;"></circle><circle cx="109.66728664934635" cy="145.85972055792809" r="2" style="fill: steelblue;"></circle><circle cx="37.6356489956379" cy="138.2019728422165" r="2" style="fill: steelblue;"></circle><circle cx="60.21440997719765" cy="98.26207966543734" r="2" style="fill: steelblue;"></circle><circle cx="127.25536562502384" cy="95.32814836129546" r="2" style="fill: steelblue;"></circle><circle cx="76.92357376217842" cy="109.72424354404211" r="2" style="fill: steelblue;"></circle><circle cx="82.71895945072174" cy="81.76873661577702" r="2" style="fill: steelblue;"></circle><circle cx="159.28080528974533" cy="48.21760058403015" r="2" style="fill: steelblue;"></circle><circle cx="134.41784158349037" cy="120.92863060534" r="2" style="fill: steelblue;"></circle><circle cx="82.16805420815945" cy="118.52370984852314" r="2" style="fill: steelblue;"></circle><circle cx="55.172549933195114" cy="104.15042415261269" r="2" style="fill: steelblue;"></circle><circle cx="56.71515539288521" cy="61.42244338989258" r="2" style="fill: steelblue;"></circle><circle cx="42.25306436419488" cy="118.84406432509422" r="2" style="fill: steelblue;"></circle><circle cx="16.22892767190934" cy="121.00158296525478" r="2" style="fill: steelblue;"></circle><circle cx="55.02880588173866" cy="90.8311516046524" r="2" style="fill: steelblue;"></circle><circle cx="105.57361822575331" cy="156.99099227786064" r="2" style="fill: steelblue;"></circle><circle cx="20.503139495849616" cy="161.28018721938133" r="2" style="fill: steelblue;"></circle><circle cx="95.12942042201757" cy="187.93575316667557" r="2" style="fill: steelblue;"></circle><circle cx="153.3955730497837" cy="13.483291864395142" r="2" style="fill: steelblue;"></circle><circle cx="177.98639684915543" cy="63.66981416940689" r="2" style="fill: steelblue;"></circle><circle cx="137.0473824441433" cy="129.12846580147743" r="2" style="fill: steelblue;"></circle><circle cx="139.11687433719635" cy="141.72856360673904" r="2" style="fill: steelblue;"></circle><circle cx="130.73105216026306" cy="41.57551974058151" r="2" style="fill: steelblue;"></circle><circle cx="150.13149604201317" cy="28.27872931957245" r="2" style="fill: steelblue;"></circle><circle cx="134.0101607143879" cy="127.43552438914776" r="2" style="fill: steelblue;"></circle><circle cx="86.63893155753613" cy="173.57259094715118" r="2" style="fill: steelblue;"></circle><circle cx="38.78355249762536" cy="122.058280184865" r="2" style="fill: steelblue;"></circle><circle cx="38.23760002851487" cy="145.66194862127304" r="2" style="fill: steelblue;"></circle><circle cx="100.51535002421588" cy="105.39327459409833" r="2" style="fill: steelblue;"></circle><circle cx="65.80271795392036" cy="133.25794264674187" r="2" style="fill: steelblue;"></circle><circle cx="184.89194512367249" cy="168.08605790138245" r="2" style="fill: steelblue;"></circle><circle cx="123.73718284070492" cy="10.954974591732025" r="2" style="fill: steelblue;"></circle><circle cx="142.98295453190804" cy="102.70403269678354" r="2" style="fill: steelblue;"></circle><circle cx="86.05675995349884" cy="88.55010885745287" r="2" style="fill: steelblue;"></circle><circle cx="105.70288673043251" cy="76.16276144981384" r="2" style="fill: steelblue;"></circle><circle cx="165.36471843719482" cy="106.33366126567125" r="2" style="fill: steelblue;"></circle><circle cx="54.85108718276024" cy="133.8306501507759" r="2" style="fill: steelblue;"></circle><circle cx="61.907170712947845" cy="55.39359748363495" r="2" style="fill: steelblue;"></circle><circle cx="110.49505174160004" cy="110.43910533189774" r="2" style="fill: steelblue;"></circle><circle cx="114.07797075808048" cy="47.35562801361084" r="2" style="fill: steelblue;"></circle><circle cx="134.31224077939987" cy="69.85617466270924" r="2" style="fill: steelblue;"></circle><circle cx="153.87414246797562" cy="151.7517775297165" r="2" style="fill: steelblue;"></circle><circle cx="74.14048947393894" cy="140.29755294322968" r="2" style="fill: steelblue;"></circle><circle cx="15.205150842666631" cy="175.7458359003067" r="2" style="fill: steelblue;"></circle><circle cx="20.292034745216377" cy="103.48739326000214" r="2" style="fill: steelblue;"></circle><circle cx="112.74890638887882" cy="115.70996828377247" r="2" style="fill: steelblue;"></circle><circle cx="63.184718042612076" cy="106.36897422373295" r="2" style="fill: steelblue;"></circle><circle cx="81.03160224854946" cy="111.42708957195282" r="2" style="fill: steelblue;"></circle><circle cx="91.36549420654774" cy="150.36217346787453" r="2" style="fill: steelblue;"></circle><circle cx="166.38634204864502" cy="153.34483832120895" r="2" style="fill: steelblue;"></circle><circle cx="19.58588361740113" cy="186.8052914738655" r="2" style="fill: steelblue;"></circle><circle cx="44.902453571558006" cy="171.55682146549225" r="2" style="fill: steelblue;"></circle><circle cx="107.57751567289233" cy="172.0849111676216" r="2" style="fill: steelblue;"></circle><circle cx="128.15829403698444" cy="161.52700260281563" r="2" style="fill: steelblue;"></circle><circle cx="93.06948808953166" cy="175.56936144828796" r="2" style="fill: steelblue;"></circle><circle cx="28.40364575386048" cy="193.75084936618805" r="2" style="fill: steelblue;"></circle><circle cx="17.634896934032447" cy="165.7273232936859" r="2" style="fill: steelblue;"></circle><circle cx="94.39859995618463" cy="111.22903916984797" r="2" style="fill: steelblue;"></circle><circle cx="44.201130419969566" cy="170.97923010587692" r="2" style="fill: steelblue;"></circle><circle cx="157.14939534664154" cy="26.224984228610992" r="2" style="fill: steelblue;"></circle><circle cx="121.49667218327522" cy="62.19586953520775" r="2" style="fill: steelblue;"></circle><circle cx="151.17957293987274" cy="109.00733470916748" r="2" style="fill: steelblue;"></circle><circle cx="134.55526754260063" cy="22.54599928855896" r="2" style="fill: steelblue;"></circle><circle cx="99.17092459509149" cy="89.41237479448318" r="2" style="fill: steelblue;"></circle><circle cx="151.15396156907082" cy="54.023316502571106" r="2" style="fill: steelblue;"></circle><circle cx="141.13710299134254" cy="113.7848099693656" r="2" style="fill: steelblue;"></circle><circle cx="110.58522425591946" cy="30.71036785840988" r="2" style="fill: steelblue;"></circle><circle cx="98.66241856943816" cy="45.17877325415611" r="2" style="fill: steelblue;"></circle><circle cx="94.069529697299" cy="49.586205184459686" r="2" style="fill: steelblue;"></circle><circle cx="163.49226087331772" cy="149.69964176416397" r="2" style="fill: steelblue;"></circle><circle cx="138.9348454773426" cy="105.67232072353363" r="2" style="fill: steelblue;"></circle><circle cx="47.688348591327674" cy="125.25394037365913" r="2" style="fill: steelblue;"></circle><circle cx="27.179493010044105" cy="60.6718011200428" r="2" style="fill: steelblue;"></circle><circle cx="68.64882484078407" cy="157.04272165894508" r="2" style="fill: steelblue;"></circle><circle cx="69.56318616867065" cy="95.42498914524913" r="2" style="fill: steelblue;"></circle><circle cx="135.42011603713036" cy="133.6296297609806" r="2" style="fill: steelblue;"></circle><circle cx="66.88297763466835" cy="174.27246123552322" r="2" style="fill: steelblue;"></circle><circle cx="127.97766029834747" cy="107.69819878041744" r="2" style="fill: steelblue;"></circle><circle cx="139.86821696162224" cy="46.53295353055" r="2" style="fill: steelblue;"></circle><circle cx="135.142183303833" cy="98.2062338385731" r="2" style="fill: steelblue;"></circle><circle cx="132.1536846458912" cy="77.96189226210117" r="2" style="fill: steelblue;"></circle><circle cx="160.69903448224068" cy="106.1578112654388" r="2" style="fill: steelblue;"></circle><circle cx="145.96327617764473" cy="85.93658581376076" r="2" style="fill: steelblue;"></circle><circle cx="178.86067777872086" cy="26.261208951473236" r="2" style="fill: steelblue;"></circle><circle cx="170.40070742368698" cy="35.73320657014847" r="2" style="fill: steelblue;"></circle><circle cx="146.08828574419022" cy="65.29131382703781" r="2" style="fill: steelblue;"></circle><circle cx="114.20264504849911" cy="136.68201714754105" r="2" style="fill: steelblue;"></circle><circle cx="134.85722094774246" cy="77.60382294654846" r="2" style="fill: steelblue;"></circle><circle cx="181.79447054862976" cy="57.328423857688904" r="2" style="fill: steelblue;"></circle><circle cx="117.85262860357761" cy="61.78668737411499" r="2" style="fill: steelblue;"></circle><circle cx="148.83553460240364" cy="68.8031543046236" r="2" style="fill: steelblue;"></circle><circle cx="87.05688863992691" cy="46.97316363453865" r="2" style="fill: steelblue;"></circle><circle cx="89.13370631635189" cy="52.584825456142426" r="2" style="fill: steelblue;"></circle><circle cx="116.47851802408695" cy="80.39507120847702" r="2" style="fill: steelblue;"></circle><circle cx="111.55151054263115" cy="135.25614365935326" r="2" style="fill: steelblue;"></circle><circle cx="85.11823639273643" cy="134.9925309419632" r="2" style="fill: steelblue;"></circle><circle cx="121.55495993793011" cy="73.37418980896473" r="2" style="fill: steelblue;"></circle><circle cx="119.08834651112556" cy="110.91927662491798" r="2" style="fill: steelblue;"></circle><circle cx="162.33647838234901" cy="72.7872908115387" r="2" style="fill: steelblue;"></circle><circle cx="136.32568940520287" cy="41.122040152549744" r="2" style="fill: steelblue;"></circle><circle cx="92.98000475391746" cy="75.3830824047327" r="2" style="fill: steelblue;"></circle><circle cx="37.994271516799934" cy="125.01488104462624" r="2" style="fill: steelblue;"></circle><circle cx="19.726394116878517" cy="176.3159692287445" r="2" style="fill: steelblue;"></circle><circle cx="120.63090167939663" cy="118.74421536922455" r="2" style="fill: steelblue;"></circle><circle cx="35.551963746547706" cy="104.20604692772031" r="2" style="fill: steelblue;"></circle><circle cx="109.54485405236483" cy="42.720815539360046" r="2" style="fill: steelblue;"></circle></g></svg>