<svg xmlns="http://www.w3.org/2000/svg"><g transform="translate(40,20)"><circle cx="344.7242349386215" cy="126.56762550274533" r="3" style="fill: steelblue;"></circle><circle cx="350.63985586166376" cy="122.73342675632902" r="3" style="fill: steelblue;"></circle><circle cx="271.0120216012001" cy="174.34406007329625" r="3" style="fill: steelblue;"></circle><circle cx="246.1318954825401" cy="190.47006774279805" r="3" style="fill: steelblue;"></circle><circle cx="396.254763007164" cy="93.16820916202335" r="3" style="fill: steelblue;"></circle><circle cx="456.6295266151428" cy="54.03641793462965" r="3" style="fill: steelblue;"></circle><circle cx="223.75396192073822" cy="204.97428394026224" r="3" style="fill: steelblue;"></circle><circle cx="292.09812730550766" cy="160.6771397093932" r="3" style="fill: steelblue;"></circle><circle cx="473.9461362361908" cy="42.81268947654302" r="3" style="fill: steelblue;"></circle><circle cx="290.16219936311245" cy="161.9319078202049" r="3" style="fill: steelblue;"></circle><circle cx="418.5412734746933" cy="78.7232486738099" r="3" style="fill: steelblue;"></circle><circle cx="503.6541759967804" cy="23.55747852060529" r="3" style="fill: steelblue;"></circle><circle cx="412.5028610229492" cy="82.63703452216254" r="3" style="fill: steelblue;"></circle><circle cx="357.86396116018295" cy="118.0511362850666" r="3" style="fill: steelblue;"></circle><circle cx="303.20414789021015" cy="153.47879303412304" r="3" style="fill: steelblue;"></circle><circle cx="488.62754702568054" cy="33.29696026113299" r="3" style="fill: steelblue;"></circle><circle cx="333.9181512594223" cy="133.5715686281522" r="3" style="fill: steelblue;"></circle><circle cx="397.54908084869385" cy="92.32929944992065" r="3" style="fill: steelblue;"></circle><circle cx="252.02867835760117" cy="186.64807884229555" r="3" style="fill: steelblue;"></circle><circle cx="383.28127562999725" cy="101.57695098055734" r="3" style="fill: steelblue;"></circle><circle cx="368.99822652339935" cy="110.83448280890781" r="3" style="fill: steelblue;"></circle><circle cx="157.80534446239471" cy="247.71875821881827" r="3" style="fill: steelblue;"></circle><circle cx="454.38907742500305" cy="55.48856092823877" r="3" style="fill: steelblue;"></circle><circle cx="268.88806745409966" cy="175.720697020491" r="3" style="fill: steelblue;"></circle><circle cx="316.24162048101425" cy="145.02857931786116" r="3" style="fill: steelblue;"></circle><circle cx="298.7839065492153" cy="156.34376427365675" r="3" style="fill: steelblue;"></circle><circle cx="406.58285915851593" cy="86.47407276762857" r="3" style="fill: steelblue;"></circle><circle cx="289.8651212453842" cy="162.12445845206577" r="3" style="fill: steelblue;"></circle><circle cx="446.30562365055084" cy="60.727836522791115" r="3" style="fill: steelblue;"></circle><circle cx="228.0906781554222" cy="202.16344934370784" r="3" style="fill: steelblue;"></circle><circle cx="302.90716644376516" cy="153.67128100867075" r="3" style="fill: steelblue;"></circle><circle cx="390.2590423822403" cy="97.0543243818813" r="3" style="fill: steelblue;"></circle><circle cx="324.6804244816303" cy="139.55898413227663" r="3" style="fill: steelblue;"></circle><circle cx="286.58297806978226" cy="164.2517734732893" r="3" style="fill: steelblue;"></circle><circle cx="441.159725189209" cy="64.06314108106824" r="3" style="fill: steelblue;"></circle><circle cx="187.54722476005554" cy="228.4416135814455" r="3" style="fill: steelblue;"></circle><circle cx="413.79447877407074" cy="81.79987486865787" r="3" style="fill: steelblue;"></circle><circle cx="261.6524577140808" cy="180.4104440742069" r="3" style="fill: steelblue;"></circle><circle cx="316.37625731527805" cy="144.94131470306053" r="3" style="fill: steelblue;"></circle><circle cx="257.671120762825" cy="182.9909402463171" r="3" style="fill: steelblue;"></circle><circle cx="242.01717674732208" cy="193.13701507118014" r="3" style="fill: steelblue;"></circle><circle cx="355.17842173576355" cy="119.7917636897829" r="3" style="fill: steelblue;"></circle><circle cx="206.72025382518768" cy="216.01465029848947" r="3" style="fill: steelblue;"></circle><circle cx="177.1222025156021" cy="235.19857244359122" r="3" style="fill: steelblue;"></circle><circle cx="383.9410275220871" cy="101.14933401346207" r="3" style="fill: steelblue;"></circle><circle cx="222.29165732860565" cy="205.92207395368155" r="3" style="fill: steelblue;"></circle><circle cx="208.71745347976682" cy="214.72016904089185" r="3" style="fill: steelblue;"></circle><circle cx="319.2985899746418" cy="143.04721020162106" r="3" style="fill: steelblue;"></circle><circle cx="269.8196366429329" cy="175.11690217587682" r="3" style="fill: steelblue;"></circle><circle cx="410.432231426239" cy="83.979109260771" r="3" style="fill: steelblue;"></circle><circle cx="271.79556638002396" cy="173.8362069759104" r="3" style="fill: steelblue;"></circle><circle cx="379.8008769750595" cy="103.83276492357254" r="3" style="fill: steelblue;"></circle><circle cx="59.26133394241333" cy="311.5898761484358" r="3" style="fill: steelblue;"></circle><circle cx="242.59611815214157" cy="192.7617752717601" r="3" style="fill: steelblue;"></circle><circle cx="281.61897473037243" cy="167.469183045129" r="3" style="fill: steelblue;"></circle><circle cx="293.2490721344948" cy="159.9311569498645" r="3" style="fill: steelblue;"></circle><circle cx="251.91000401973724" cy="186.72499739461477" r="3" style="fill: steelblue;"></circle><circle cx="215.87262153625488" cy="210.08256011539038" r="3" style="fill: steelblue;"></circle><circle cx="148.7978160381317" cy="253.55697108639612" r="3" style="fill: steelblue;"></circle><circle cx="394.7282463312149" cy="94.15761811865701" r="3" style="fill: steelblue;"></circle><circle cx="170.43318450450897" cy="239.53404708041086" r="3" style="fill: steelblue;"></circle><circle cx="424.63088035583496" cy="74.77628125084772" r="3" style="fill: steelblue;"></circle><circle cx="445.4718232154846" cy="61.26826273070441" r="3" style="fill: steelblue;"></circle><circle cx="362.6088961958885" cy="114.97571542859077" r="3" style="fill: steelblue;"></circle><circle cx="290.3185095638037" cy="161.8305956530902" r="3" style="fill: steelblue;"></circle><circle cx="432.25821554660797" cy="69.83263807164298" r="3" style="fill: steelblue;"></circle><circle cx="339.03311938047403" cy="130.2563115126557" r="3" style="fill: steelblue;"></circle><circle cx="347.26240485906595" cy="124.9225153691239" r="3" style="fill: steelblue;"></circle><circle cx="409.43131148815155" cy="84.62785366508695" r="3" style="fill: steelblue;"></circle><circle cx="364.45233374834055" cy="113.78089479274222" r="3" style="fill: steelblue;"></circle><circle cx="250.36592334508896" cy="187.72579042447938" r="3" style="fill: steelblue;"></circle><circle cx="324.2214985191822" cy="139.8564361449745" r="3" style="fill: steelblue;"></circle><circle cx="148.83581399917603" cy="253.53234277831183" r="3" style="fill: steelblue;"></circle><circle cx="411.69650852680206" cy="83.15967039929495" r="3" style="fill: steelblue;"></circle><circle cx="153.93482744693756" cy="250.22742665476267" r="3" style="fill: steelblue;"></circle><circle cx="209.8241686820984" cy="214.00285363197327" r="3" style="fill: steelblue;"></circle><circle cx="204.80520129203796" cy="217.25588805145685" r="3" style="fill: steelblue;"></circle><circle cx="109.16908979415894" cy="279.242256614897" r="3" style="fill: steelblue;"></circle><circle cx="196.97160422801971" cy="222.33321948183908" r="3" style="fill: steelblue;"></circle><circle cx="127.18124985694885" cy="267.5677084260517" r="3" style="fill: steelblue;"></circle><circle cx="193.14700663089752" cy="224.81212533182565" r="3" style="fill: steelblue;"></circle><circle cx="305.12877367436886" cy="152.23135039624242" r="3" style="fill: steelblue;"></circle><circle cx="333.28614458441734" cy="133.98120258417396" r="3" style="fill: steelblue;"></circle><circle cx="251.97748392820355" cy="186.6812604169051" r="3" style="fill: steelblue;"></circle><circle cx="299.4472956983372" cy="155.9137898251518" r="3" style="fill: steelblue;"></circle><circle cx="314.1484212130308" cy="146.38528254710968" r="3" style="fill: steelblue;"></circle><circle cx="291.42582044005394" cy="161.1128941592243" r="3" style="fill: steelblue;"></circle><circle cx="433.491575717926" cy="69.03323796060351" r="3" style="fill: steelblue;"></circle><circle cx="469.746333360672" cy="45.534783932897774" r="3" style="fill: steelblue;"></circle><circle cx="371.3211849331856" cy="109.32886161737973" r="3" style="fill: steelblue;"></circle><circle cx="319.8563151061535" cy="142.6857216904561" r="3" style="fill: steelblue;"></circle><circle cx="383.224081993103" cy="101.61402093039618" r="3" style="fill: steelblue;"></circle><circle cx="267.35130697488785" cy="176.71674547923936" r="3" style="fill: steelblue;"></circle><circle cx="354.36214953660965" cy="120.3208290040493" r="3" style="fill: steelblue;"></circle><circle cx="210.19803285598752" cy="213.76053426000806" r="3" style="fill: steelblue;"></circle><circle cx="123.1850266456604" cy="270.1578531000349" r="3" style="fill: steelblue;"></circle><circle cx="191.3768112659454" cy="225.9594741794798" r="3" style="fill: steelblue;"></circle><circle cx="163.24097514152524" cy="244.1956642601225" r="3" style="fill: steelblue;"></circle><circle cx="310.1401023566723" cy="148.98326699104575" r="3" style="fill: steelblue;"></circle><circle cx="121.96372747421265" cy="270.94943589634363" r="3" style="fill: steelblue;"></circle><circle cx="226.76104903221128" cy="203.0252459976408" r="3" style="fill: steelblue;"></circle><circle cx="129.43952679634094" cy="266.104010409779" r="3" style="fill: steelblue;"></circle><circle cx="243.56480687856674" cy="192.13392146759566" r="3" style="fill: steelblue;"></circle><circle cx="246.72086387872693" cy="190.0883289674918" r="3" style="fill: steelblue;"></circle><circle cx="131.06861114501953" cy="265.04812240600586" r="3" style="fill: steelblue;"></circle><circle cx="235.9637662768364" cy="197.06052185760603" r="3" style="fill: steelblue;"></circle><circle cx="329.6842709183693" cy="136.31575033068657" r="3" style="fill: steelblue;"></circle><circle cx="309.23860240727663" cy="149.5675725138022" r="3" style="fill: steelblue;"></circle><circle cx="468.5327589511871" cy="46.3213599390454" r="3" style="fill: steelblue;"></circle><circle cx="389.72330689430237" cy="97.40156034628552" r="3" style="fill: steelblue;"></circle><circle cx="493.9634084701538" cy="29.83853154712255" r="3" style="fill: steelblue;"></circle><circle cx="395.597979426384" cy="93.59390222364003" r="3" style="fill: steelblue;"></circle><circle cx="173.29911589622498" cy="237.67649895615045" r="3" style="fill: steelblue;"></circle><circle cx="151.49112939834592" cy="251.81130501959058" r="3" style="fill: steelblue;"></circle><circle cx="340.6867012381553" cy="129.18454549378822" r="3" style="fill: steelblue;"></circle><circle cx="181.31619393825528" cy="232.48024466964932" r="3" style="fill: steelblue;"></circle><circle cx="165.88471233844757" cy="242.48213089174692" r="3" style="fill: steelblue;"></circle><circle cx="276.4208950102329" cy="170.83830878966387" r="3" style="fill: steelblue;"></circle></g></svg>