<svg xmlns="http://www.w3.org/2000/svg"><g><circle cx="27.710186110602486" cy="90.44834971427917" r="2" style="fill: steelblue;"></circle><circle cx="29.15951775179969" cy="69.70751285552979" r="2" style="fill: steelblue;"></circle><circle cx="77.62227290206485" cy="79.62575554847717" r="2" style="fill: steelblue;"></circle><circle cx="54.8153204532961" cy="73.68740108278062" r="2" style="fill: steelblue;"></circle><circle cx="34.7499003012975" cy="62.06546351313591" r="2" style="fill: steelblue;"></circle><circle cx="47.45623386568493" cy="67.78377128971947" r="2" style="fill: steelblue;"></circle><circle cx="32.042288117938575" cy="58.56482063730557" r="2" style="fill: steelblue;"></circle><circle cx="45.844193134042946" cy="68.7226073609458" r="2" style="fill: steelblue;"></circle><circle cx="42.7780763970481" cy="57.53821424312062" r="2" style="fill: steelblue;"></circle><circle cx="58.548781813846695" cy="65.42380402485529" r="2" style="fill: steelblue;"></circle><circle cx="32.99485974841648" cy="86.58145533667671" r="2" style="fill: steelblue;"></circle><circle cx="78.46622831291621" cy="51.82305433683925" r="2" style="fill: steelblue;"></circle><circle cx="33.77832141187456" cy="88.55650160047743" r="2" style="fill: steelblue;"></circle><circle cx="21.878735886679753" cy="56.78049485302634" r="2" style="fill: steelblue;"></circle><circle cx="52.68156445688671" cy="75.19490851296318" r="2" style="fill: steelblue;"></circle><circle cx="49.51535248094135" cy="93.48822302288478" r="2" style="fill: steelblue;"></circle><circle cx="53.19747784071498" cy="40.6709760427475" r="2" style="fill: steelblue;"></circle><circle cx="72.46433032883537" cy="51.212585634655426" r="2" style="fill: steelblue;"></circle><circle cx="86.00637316703796" cy="59.50590098897616" r="2" style="fill: steelblue;"></circle><circle cx="79.97299234072366" cy="46.18309769365523" r="2" style="fill: steelblue;"></circle><circle cx="42.328499257564545" cy="50.516689817110695" r="2" style="fill: steelblue;"></circle><circle cx="82.76629447937012" cy="51.94230957163705" r="2" style="fill: steelblue;"></circle><circle cx="22.55104316605462" cy="41.32097131676144" r="2" style="fill: steelblue;"></circle><circle cx="40.668588545587326" cy="60.837818102704155" r="2" style="fill: steelblue;"></circle><circle cx="49.89111257923974" cy="77.60909696420033" r="2" style="fill: steelblue;"></circle><circle cx="58.23770848413309" cy="72.07136849562326" r="2" style="fill: steelblue;"></circle><circle cx="58.47134648097886" cy="95.15022569232517" r="2" style="fill: steelblue;"></circle><circle cx="31.00249336825477" cy="90.01041452089945" r="2" style="fill: steelblue;"></circle><circle cx="32.945288552178276" cy="66.37320336368349" r="2" style="fill: steelblue;"></circle><circle cx="51.497826973597206" cy="39.34943841563331" r="2" style="fill: steelblue;"></circle><circle cx="81.44056962596046" cy="47.20378584331936" r="2" style="fill: steelblue;"></circle><circle cx="83.3243578672409" cy="22.763550281524658" r="2" style="fill: steelblue;"></circle><circle cx="57.25776093701521" cy="52.44901983274354" r="2" style="fill: steelblue;"></circle><circle cx="57.97164473268721" cy="48.371440006626976" r="2" style="fill: steelblue;"></circle><circle cx="64.50184517436557" cy="54.48949512922101" r="2" style="fill: steelblue;"></circle><circle cx="44.76619097921583" cy="24.44352706273397" r="2" style="fill: steelblue;"></circle><circle cx="25.41986438963148" cy="57.73651144570775" r="2" style="fill: steelblue;"></circle><circle cx="25.464716884824963" cy="84.26704340510898" r="2" style="fill: steelblue;"></circle><circle cx="22.400240103403725" cy="75.43466654088762" r="2" style="fill: steelblue;"></circle><circle cx="33.809199929237366" cy="55.48519562257247" r="2" style="fill: steelblue;"></circle><circle cx="42.40550845861435" cy="84.40582619773018" r="2" style="fill: steelblue;"></circle><circle cx="88.70503306388855" cy="89.64651823043823" r="2" style="fill: steelblue;"></circle><circle cx="46.164607836140526" cy="57.31190885934565" r="2" style="fill: steelblue;"></circle><circle cx="65.46692964103487" cy="16.426516903771294" r="2" style="fill: steelblue;"></circle><circle cx="81.03873332341512" cy="57.366473600268364" r="2" style="fill: steelblue;"></circle><circle cx="57.04812126027213" cy="57.5500519739257" r="2" style="fill: steelblue;"></circle><circle cx="75.84745188554128" cy="67.5139104326566" r="2" style="fill: steelblue;"></circle><circle cx="37.465646862983704" cy="86.46536866823831" r="2" style="fill: steelblue;"></circle><circle cx="53.102091782622864" cy="47.26863072978126" r="2" style="fill: steelblue;"></circle><circle cx="27.196953694025677" cy="91.33677019013298" r="2" style="fill: steelblue;"></circle><circle cx="42.66497244437535" cy="44.98515609237883" r="2" style="fill: steelblue;"></circle><circle cx="72.79928194151985" cy="63.47441093789206" r="2" style="fill: steelblue;"></circle><circle cx="57.132924389508034" cy="60.51211762759421" r="2" style="fill: steelblue;"></circle><circle cx="52.04137787222862" cy="39.94413548045688" r="2" style="fill: steelblue;"></circle><circle cx="64.00686088535521" cy="70.98214162720573" r="2" style="fill: steelblue;"></circle><circle cx="28.07903620931837" cy="73.38201337390475" r="2" style="fill: steelblue;"></circle><circle cx="26.551832755406696" cy="39.59069152673086" r="2" style="fill: steelblue;"></circle><circle cx="41.38578805658552" cy="70.8799080716239" r="2" style="fill: steelblue;"></circle><circle cx="41.6929531428549" cy="52.675205386347244" r="2" style="fill: steelblue;"></circle><circle cx="69.48843598365784" cy="61.273928317758774" r="2" style="fill: steelblue;"></circle><circle cx="27.91741159227159" cy="57.86623536712594" r="2" style="fill: steelblue;"></circle><circle cx="64.39396325084898" cy="58.00199715627564" r="2" style="fill: steelblue;"></circle><circle cx="62.76163458824158" cy="96.67144881354439" r="2" style="fill: steelblue;"></circle><circle cx="31.91172745492723" cy="93.36597389645046" r="2" style="fill: steelblue;"></circle><circle cx="30.240340365303886" cy="86.61232391993204" r="2" style="fill: steelblue;"></circle><circle cx="17.41789115799798" cy="66.50967564847734" r="2" style="fill: steelblue;"></circle><circle cx="60.953427106142044" cy="84.22523736953735" r="2" style="fill: steelblue;"></circle><circle cx="36.98665234777662" cy="54.379076179530884" r="2" style="fill: steelblue;"></circle><circle cx="17.675062020619713" cy="93.68360373708937" r="2" style="fill: steelblue;"></circle><circle cx="29.937754074732464" cy="92.67761641078525" r="2" style="fill: steelblue;"></circle><circle cx="8.493648635016546" cy="65.84180643161137" r="2" style="fill: steelblue;"></circle><circle cx="78.00471782684326" cy="48.580009904172684" r="2" style="fill: steelblue;"></circle><circle cx="60.643037574158775" cy="27.70662970013088" r="2" style="fill: steelblue;"></circle><circle cx="72.30642603503334" cy="36.362169517411125" r="2" style="fill: steelblue;"></circle><circle cx="84.37059985266792" cy="35.87821622689565" r="2" style="fill: steelblue;"></circle><circle cx="54.14555128663778" cy="54.91796617085735" r="2" style="fill: steelblue;"></circle><circle cx="59.86942847569784" cy="84.16962954733107" r="2" style="fill: steelblue;"></circle><circle cx="92.04255872302585" cy="31.589471631579926" r="2" style="fill: steelblue;"></circle><circle cx="83.30309391021729" cy="44.193620483080544" r="2" style="fill: steelblue;"></circle><circle cx="70.50662073824141" cy="50.70982707871331" r="2" style="fill: steelblue;"></circle><circle cx="78.93575562371147" cy="12.09024588267008" r="2" style="fill: steelblue;"></circle><circle cx="96.87510463926527" cy="17.46729016304016" r="2" style="fill: steelblue;"></circle><circle cx="64.41685060660043" cy="22.8417350186242" r="2" style="fill: steelblue;"></circle><circle cx="35.6816119617886" cy="64.10409841272566" r="2" style="fill: steelblue;"></circle><circle cx="74.31576318211025" cy="62.29984760284424" r="2" style="fill: steelblue;"></circle><circle cx="43.9273069302241" cy="54.2163901651899" r="2" style="fill: steelblue;"></circle><circle cx="67.34902494483524" cy="50.695344391796326" r="2" style="fill: steelblue;"></circle><circle cx="70.60611082447899" cy="77.96256906456418" r="2" style="fill: steelblue;"></circle><circle cx="59.973417884773674" cy="80.4438591003418" r="2" style="fill: steelblue;"></circle><circle cx="72.18534582191043" cy="25.12874537044101" r="2" style="fill: steelblue;"></circle><circle cx="85.55828200446236" cy="71.04837066597409" r="2" style="fill: steelblue;"></circle><circle cx="82.45167798466152" cy="48.733764224582245" r="2" style="fill: steelblue;"></circle><circle cx="37.49369581540425" cy="9.339190191692781" r="2" style="fill: steelblue;"></circle><circle cx="38.633661137686836" cy="55.81293733687036" r="2" style="fill: steelblue;"></circle><circle cx="56.98458281242185" cy="47.346495919757416" r="2" style="fill: steelblue;"></circle><circle cx="46.78480409913593" cy="22.06001016828749" r="2" style="fill: steelblue;"></circle><circle cx="77.54273381498125" cy="16.287164555655586" r="2" style="fill: steelblue;"></circle><circle cx="62.571555376052856" cy="53.776590360535515" r="2" style="fill: steelblue;"></circle><circle cx="83.85986089706421" cy="76.48697661028969" r="2" style="fill: steelblue;"></circle><circle cx="28.015351957745022" cy="59.671077463361954" r="2" style="fill: steelblue;"></circle><circle cx="76.35636130968729" cy="29.889947838253438" r="2" style="fill: steelblue;"></circle><circle cx="54.328106654187046" cy="35.30156943533156" r="2" style="fill: steelblue;"></circle><circle cx="63.97067507108053" cy="22.17779225773282" r="2" style="fill: steelblue;"></circle><circle cx="26.703109343846638" cy="26.922716034783257" r="2" style="fill: steelblue;"></circle><circle cx="75.69276127550337" cy="27.852591541078354" r="2" style="fill: steelblue;"></circle><circle cx="59.360468139251076" cy="40.776211354467605" r="2" style="fill: steelblue;"></circle><circle cx="63.84903440872828" cy="53.31557140582137" r="2" style="fill: steelblue;"></circle><circle cx="61.20733461446232" cy="35.25511920452118" r="2" style="fill: steelblue;"></circle><circle cx="53.375636330909195" cy="53.689127787947655" r="2" style="fill: steelblue;"></circle><circle cx="47.98773924509684" cy="42.19918532503976" r="2" style="fill: steelblue;"></circle><circle cx="74.3682798412111" cy="44.52314807309045" r="2" style="fill: steelblue;"></circle><circle cx="73.46788379881117" cy="30.527654621336197" r="2" style="fill: steelblue;"></circle><circle cx="37.43299345175426" cy="60.878671291801666" r="2" style="fill: steelblue;"></circle><circle cx="39.29961224397023" cy="79.99091512627072" r="2" style="fill: steelblue;"></circle><circle cx="50.54762835303942" cy="58.71949344873428" r="2" style="fill: steelblue;"></circle><circle cx="24.558696481916638" cy="43.88915499051412" r="2" style="fill: steelblue;"></circle><circle cx="54.11327506105105" cy="46.87459187375175" r="2" style="fill: steelblue;"></circle><circle cx="36.47091653611925" cy="80.46217428313362" r="2" style="fill: steelblue;"></circle></g></svg>