<svg xmlns="http://www.w3.org/2000/svg"><g><circle cx="22.03700542449951" cy="39.190225882662666" r="2" style="fill: steelblue;"></circle><circle cx="40.3410330414772" cy="56.4995848470264" r="2" style="fill: steelblue;"></circle><circle cx="38.658178597688675" cy="55.057170655992294" r="2" style="fill: steelblue;"></circle><circle cx="45.96599116921425" cy="60.51605873637729" r="2" style="fill: steelblue;"></circle><circle cx="41.16903245449066" cy="82.57172438833449" r="2" style="fill: steelblue;"></circle><circle cx="23.645561933517456" cy="55.74330869648192" r="2" style="fill: steelblue;"></circle><circle cx="63.69476318359375" cy="32.8565431965722" r="2" style="fill: steelblue;"></circle><circle cx="56.340234726667404" cy="64.6115220255322" r="2" style="fill: steelblue;"></circle><circle cx="44.142477586865425" cy="56.45113206572003" r="2" style="fill: steelblue;"></circle><circle cx="54.615554213523865" cy="14.829297198189629" r="2" style="fill: steelblue;"></circle><circle cx="22.04342484474182" cy="48.70864641335275" r="2" style="fill: steelblue;"></circle><circle cx="35.17627567052841" cy="36.32544411553277" r="2" style="fill: steelblue;"></circle><circle cx="8.75900685787201" cy="62.837060292561844" r="2" style="fill: steelblue;"></circle><circle cx="37.84072697162628" cy="58.76712600390117" r="2" style="fill: steelblue;"></circle><circle cx="56.99222534894943" cy="56.60897923840417" r="2" style="fill: steelblue;"></circle><circle cx="26.15962028503418" cy="89.42626847161186" r="2" style="fill: steelblue;"></circle><circle cx="27.97348201274872" cy="35.358142687214745" r="2" style="fill: steelblue;"></circle><circle cx="42.10948273539543" cy="26.95128752125634" r="2" style="fill: steelblue;"></circle><circle cx="68.46478581428528" cy="36.31631798214383" r="2" style="fill: steelblue;"></circle><circle cx="59.2481255531311" cy="29.55931193298764" r="2" style="fill: steelblue;"></circle><circle cx="58.12457874417305" cy="8.52381785710653" r="2" style="fill: steelblue;"></circle><circle cx="60.95931902527809" cy="28.99786763721043" r="2" style="fill: steelblue;"></circle><circle cx="44.600635394454" cy="79.49830028745863" r="2" style="fill: steelblue;"></circle><circle cx="46.44617922604084" cy="63.419935769504974" r="2" style="fill: steelblue;"></circle><circle cx="56.74588829278946" cy="76.970331536399" r="2" style="fill: steelblue;"></circle><circle cx="28.481000661849976" cy="40.68834309776624" r="2" style="fill: steelblue;"></circle><circle cx="29.774419963359833" cy="63.14160194661882" r="2" style="fill: steelblue;"></circle><circle cx="22.071531414985657" cy="51.91348261303372" r="2" style="fill: steelblue;"></circle><circle cx="57.0722222328186" cy="52.22313950459163" r="2" style="fill: steelblue;"></circle><circle cx="49.77226862683892" cy="24.687024619844223" r="2" style="fill: steelblue;"></circle><circle cx="90.70720672607422" cy="42.98075408571297" r="2" style="fill: steelblue;"></circle><circle cx="90.0290697813034" cy="57.847513258457184" r="2" style="fill: steelblue;"></circle><circle cx="58.8479682803154" cy="20.08586393462287" r="2" style="fill: steelblue;"></circle><circle cx="55.73789291083813" cy="21.89172406991323" r="2" style="fill: steelblue;"></circle><circle cx="58.78209322690964" cy="42.272146128945884" r="2" style="fill: steelblue;"></circle><circle cx="44.452330842614174" cy="48.58930756648382" r="2" style="fill: steelblue;"></circle><circle cx="30.010180175304413" cy="77.0390424463484" r="2" style="fill: steelblue;"></circle><circle cx="35.108427703380585" cy="64.08095128006406" r="2" style="fill: steelblue;"></circle><circle cx="37.94764280319214" cy="73.70376851823595" r="2" style="fill: steelblue;"></circle><circle cx="31.968066096305847" cy="72.60016534063551" r="2" style="fill: steelblue;"></circle><circle cx="37.36860007047653" cy="57.439394460784065" r="2" style="fill: steelblue;"></circle><circle cx="55.35511523485184" cy="26.768180396821762" r="2" style="fill: steelblue;"></circle><circle cx="66.68897718191147" cy="46.72492332756519" r="2" style="fill: steelblue;"></circle><circle cx="43.33377406001091" cy="22.360623876253772" r="2" style="fill: steelblue;"></circle><circle cx="53.156283125281334" cy="35.13327009148068" r="2" style="fill: steelblue;"></circle><circle cx="29.330118000507355" cy="16.40899578730266" r="2" style="fill: steelblue;"></circle><circle cx="65.18919616937637" cy="17.347118258476257" r="2" style="fill: steelblue;"></circle><circle cx="32.76349455118179" cy="66.41091836823357" r="2" style="fill: steelblue;"></circle><circle cx="27.42132842540741" cy="74.0796188513438" r="2" style="fill: steelblue;"></circle><circle cx="37.15081959962845" cy="43.593848341455065" r="2" style="fill: steelblue;"></circle><circle cx="34.47993844747543" cy="88.88565434349907" r="2" style="fill: steelblue;"></circle><circle cx="62.12942972779274" cy="62.30552262730069" r="2" style="fill: steelblue;"></circle><circle cx="57.165318727493286" cy="44.72932481827835" r="2" style="fill: steelblue;"></circle><circle cx="50.68193469196558" cy="54.28858117924796" r="2" style="fill: steelblue;"></circle><circle cx="42.057984322309494" cy="44.325044932257796" r="2" style="fill: steelblue;"></circle><circle cx="37.15190291404724" cy="59.44322811232673" r="2" style="fill: steelblue;"></circle><circle cx="35.81916689872742" cy="35.041878786351944" r="2" style="fill: steelblue;"></circle><circle cx="44.19785179197788" cy="55.82879003551271" r="2" style="fill: steelblue;"></circle><circle cx="32.26875364780426" cy="47.03377307289177" r="2" style="fill: steelblue;"></circle><circle cx="29.914841055870056" cy="65.41698939270444" r="2" style="fill: steelblue;"></circle><circle cx="20.6103652715683" cy="57.98893024524053" r="2" style="fill: steelblue;"></circle><circle cx="45.26008851826191" cy="75.14139281378853" r="2" style="fill: steelblue;"></circle><circle cx="23.24877381324768" cy="88.90639013714261" r="2" style="fill: steelblue;"></circle><circle cx="45.70643715560436" cy="38.861324555344055" r="2" style="fill: steelblue;"></circle><circle cx="36.94561719894409" cy="61.68917251957787" r="2" style="fill: steelblue;"></circle><circle cx="17.85110831260681" cy="64.58453767829471" r="2" style="fill: steelblue;"></circle><circle cx="51.597738079726696" cy="60.723797480265304" r="2" style="fill: steelblue;"></circle><circle cx="47.72452190518379" cy="60.3264182806015" r="2" style="fill: steelblue;"></circle><circle cx="26.215489208698273" cy="54.295059045155845" r="2" style="fill: steelblue;"></circle><circle cx="19.389039278030396" cy="70.82346512211693" r="2" style="fill: steelblue;"></circle><circle cx="73.02739918231964" cy="68.59729952282376" r="2" style="fill: steelblue;"></circle><circle cx="82.40589797496796" cy="44.42259603238199" r="2" style="fill: steelblue;"></circle><circle cx="62.57551312446594" cy="18.911774953206383" r="2" style="fill: steelblue;"></circle><circle cx="27.636989951133728" cy="21.775749988026092" r="2" style="fill: steelblue;"></circle><circle cx="45.32331041991711" cy="37.31326527065701" r="2" style="fill: steelblue;"></circle><circle cx="43.5820646584034" cy="23.25437068939209" r="2" style="fill: steelblue;"></circle><circle cx="41.481976211071014" cy="47.150930762290955" r="2" style="fill: steelblue;"></circle><circle cx="59.08636078238487" cy="41.18783540195889" r="2" style="fill: steelblue;"></circle><circle cx="68.4817522764206" cy="16.005684269799126" r="2" style="fill: steelblue;"></circle><circle cx="79.28874492645264" cy="19.163838028907776" r="2" style="fill: steelblue;"></circle><circle cx="69.15198117494583" cy="46.717035646239914" r="2" style="fill: steelblue;"></circle><circle cx="43.03182139992714" cy="35.3015133076244" r="2" style="fill: steelblue;"></circle><circle cx="51.6242902725935" cy="33.80279011196561" r="2" style="fill: steelblue;"></circle><circle cx="20.144879817962646" cy="44.16753929625783" r="2" style="fill: steelblue;"></circle><circle cx="39.024535566568375" cy="66.60371290312874" r="2" style="fill: steelblue;"></circle><circle cx="31.564104557037354" cy="63.82860177093082" r="2" style="fill: steelblue;"></circle><circle cx="39.44456875324249" cy="51.54608537753423" r="2" style="fill: steelblue;"></circle><circle cx="36.43079400062561" cy="47.01519091096189" r="2" style="fill: steelblue;"></circle><circle cx="74.38641488552094" cy="56.93951514032152" r="2" style="fill: steelblue;"></circle><circle cx="32.98514187335968" cy="21.992830104298065" r="2" style="fill: steelblue;"></circle><circle cx="62.35415115952492" cy="11.181678374608362" r="2" style="fill: steelblue;"></circle><circle cx="37.9801020026207" cy="49.02703124615881" r="2" style="fill: steelblue;"></circle><circle cx="69.4654181599617" cy="19.11290917131636" r="2" style="fill: steelblue;"></circle><circle cx="69.5261687040329" cy="44.11319059630235" r="2" style="fill: steelblue;"></circle><circle cx="77.38961577415466" cy="28.914548622237312" r="2" style="fill: steelblue;"></circle><circle cx="81.02664351463318" cy="15.568990839852226" r="2" style="fill: steelblue;"></circle><circle cx="65.51001965999603" cy="21.20283179812962" r="2" style="fill: steelblue;"></circle><circle cx="60.74945107102394" cy="22.333541843626236" r="2" style="fill: steelblue;"></circle><circle cx="55.83496876060963" cy="26.896666487058006" r="2" style="fill: steelblue;"></circle><circle cx="31.844373047351837" cy="33.337568408913086" r="2" style="fill: steelblue;"></circle><circle cx="63.284604251384735" cy="37.973503437307144" r="2" style="fill: steelblue;"></circle><circle cx="62.210291624069214" cy="29.63619695769416" r="2" style="fill: steelblue;"></circle><circle cx="56.897200644016266" cy="36.24594890409046" r="2" style="fill: steelblue;"></circle><circle cx="53.97435426712036" cy="36.7544518576728" r="2" style="fill: steelblue;"></circle><circle cx="58.13526436686516" cy="6.996760103437638" r="2" style="fill: steelblue;"></circle><circle cx="82.80384838581085" cy="27.741822269227768" r="2" style="fill: steelblue;"></circle><circle cx="61.283957213163376" cy="24.07083511352539" r="2" style="fill: steelblue;"></circle><circle cx="43.74087452888489" cy="37.18876772456699" r="2" style="fill: steelblue;"></circle><circle cx="65.12359529733658" cy="39.49770223763254" r="2" style="fill: steelblue;"></circle><circle cx="43.40890124440193" cy="32.170571552382576" r="2" style="fill: steelblue;"></circle><circle cx="82.02725946903229" cy="24.251715342203784" r="2" style="fill: steelblue;"></circle><circle cx="64.7827073931694" cy="27.51124832365248" r="2" style="fill: steelblue;"></circle><circle cx="50.0795639352873" cy="65.43638408184052" r="2" style="fill: steelblue;"></circle><circle cx="37.75905445218086" cy="51.50588370031781" r="2" style="fill: steelblue;"></circle><circle cx="27.557067573070526" cy="76.37439105245802" r="2" style="fill: steelblue;"></circle><circle cx="33.799782395362854" cy="81.93328910403781" r="2" style="fill: steelblue;"></circle><circle cx="48.61397799104452" cy="69.40045721001096" r="2" style="fill: steelblue;"></circle><circle cx="27.582988142967224" cy="26.838080088297524" r="2" style="fill: steelblue;"></circle></g></svg>