<svg xmlns="http://www.w3.org/2000/svg"><rect width="200" height="200" fill="white"></rect><g><circle cx="37.54728883504868" cy="162.45271116495132" r="2" style="fill: steelblue;"></circle><circle cx="20.184351503849037" cy="179.81564849615097" r="2" style="fill: steelblue;"></circle><circle cx="55.44525235891342" cy="144.55474764108658" r="2" style="fill: steelblue;"></circle><circle cx="16.24425351619721" cy="183.7557464838028" r="2" style="fill: steelblue;"></circle><circle cx="43.09391826391221" cy="156.9060817360878" r="2" style="fill: steelblue;"></circle><circle cx="45.35933434963227" cy="154.64066565036774" r="2" style="fill: steelblue;"></circle><circle cx="84.24909450113773" cy="115.75090549886227" r="2" style="fill: steelblue;"></circle><circle cx="104.96531371027231" cy="95.03468628972769" r="2" style="fill: steelblue;"></circle><circle cx="49.63425025343896" cy="150.36574974656105" r="2" style="fill: steelblue;"></circle><circle cx="32.983569800853736" cy="167.01643019914627" r="2" style="fill: steelblue;"></circle><circle cx="47.579551488161094" cy="152.4204485118389" r="2" style="fill: steelblue;"></circle><circle cx="90.56337494403124" cy="109.43662505596876" r="2" style="fill: steelblue;"></circle><circle cx="47.851322591304786" cy="152.14867740869522" r="2" style="fill: steelblue;"></circle><circle cx="91.74739141017199" cy="108.25260858982801" r="2" style="fill: steelblue;"></circle><circle cx="49.04564321041108" cy="150.95435678958893" r="2" style="fill: steelblue;"></circle><circle cx="130.04711121320724" cy="69.95288878679276" r="2" style="fill: steelblue;"></circle><circle cx="84.41365081816912" cy="115.58634918183088" r="2" style="fill: steelblue;"></circle><circle cx="86.5284888073802" cy="113.4715111926198" r="2" style="fill: steelblue;"></circle><circle cx="81.16308823227882" cy="118.83691176772118" r="2" style="fill: steelblue;"></circle><circle cx="118.47570762038231" cy="81.52429237961769" r="2" style="fill: steelblue;"></circle><circle cx="140.18208384513855" cy="59.81791615486145" r="2" style="fill: steelblue;"></circle><circle cx="173.1847882270813" cy="26.8152117729187" r="2" style="fill: steelblue;"></circle><circle cx="118.3088444173336" cy="81.6911555826664" r="2" style="fill: steelblue;"></circle><circle cx="74.20323826372623" cy="125.79676173627377" r="2" style="fill: steelblue;"></circle><circle cx="110.03882102668285" cy="89.96117897331715" r="2" style="fill: steelblue;"></circle><circle cx="137.15281561017036" cy="62.847184389829636" r="2" style="fill: steelblue;"></circle><circle cx="81.9346684962511" cy="118.0653315037489" r="2" style="fill: steelblue;"></circle><circle cx="44.56809014081956" cy="155.43190985918045" r="2" style="fill: steelblue;"></circle><circle cx="67.53397583961487" cy="132.46602416038513" r="2" style="fill: steelblue;"></circle><circle cx="73.5142383724451" cy="126.4857616275549" r="2" style="fill: steelblue;"></circle><circle cx="164.61980193853378" cy="35.38019806146622" r="2" style="fill: steelblue;"></circle><circle cx="126.98700688779354" cy="73.01299311220646" r="2" style="fill: steelblue;"></circle><circle cx="98.95058060064912" cy="101.04941939935088" r="2" style="fill: steelblue;"></circle><circle cx="44.57903131842614" cy="155.42096868157387" r="2" style="fill: steelblue;"></circle><circle cx="43.861421197652824" cy="156.13857880234718" r="2" style="fill: steelblue;"></circle><circle cx="74.45221059024334" cy="125.54778940975666" r="2" style="fill: steelblue;"></circle><circle cx="86.37863248586655" cy="113.62136751413345" r="2" style="fill: steelblue;"></circle><circle cx="11.097384989261633" cy="188.90261501073837" r="2" style="fill: steelblue;"></circle><circle cx="56.39510825276375" cy="143.60489174723625" r="2" style="fill: steelblue;"></circle><circle cx="120.20628750324249" cy="79.79371249675751" r="2" style="fill: steelblue;"></circle><circle cx="63.10805901885033" cy="136.89194098114967" r="2" style="fill: steelblue;"></circle><circle cx="77.19116695225239" cy="122.80883304774761" r="2" style="fill: steelblue;"></circle><circle cx="93.1574109941721" cy="106.8425890058279" r="2" style="fill: steelblue;"></circle><circle cx="162.51976639032364" cy="37.48023360967636" r="2" style="fill: steelblue;"></circle><circle cx="111.57557684928179" cy="88.42442315071821" r="2" style="fill: steelblue;"></circle><circle cx="176.5140801668167" cy="23.48591983318329" r="2" style="fill: steelblue;"></circle><circle cx="122.14672043919563" cy="77.85327956080437" r="2" style="fill: steelblue;"></circle><circle cx="20.175023376941688" cy="179.82497662305832" r="2" style="fill: steelblue;"></circle><circle cx="96.12004193477333" cy="103.87995806522667" r="2" style="fill: steelblue;"></circle><circle cx="80.99580779671669" cy="119.00419220328331" r="2" style="fill: steelblue;"></circle><circle cx="139.35149684548378" cy="60.64850315451622" r="2" style="fill: steelblue;"></circle><circle cx="93.92895121127367" cy="106.07104878872633" r="2" style="fill: steelblue;"></circle><circle cx="165.43220579624176" cy="34.56779420375824" r="2" style="fill: steelblue;"></circle><circle cx="60.79514920711517" cy="139.20485079288483" r="2" style="fill: steelblue;"></circle><circle cx="99.98965114355087" cy="100.01034885644913" r="2" style="fill: steelblue;"></circle><circle cx="54.33879271149635" cy="145.66120728850365" r="2" style="fill: steelblue;"></circle><circle cx="89.11281116306782" cy="110.88718883693218" r="2" style="fill: steelblue;"></circle><circle cx="111.51526719331741" cy="88.48473280668259" r="2" style="fill: steelblue;"></circle><circle cx="146.3881678879261" cy="53.6118321120739" r="2" style="fill: steelblue;"></circle><circle cx="57.23111182451248" cy="142.76888817548752" r="2" style="fill: steelblue;"></circle><circle cx="67.47179329395294" cy="132.52820670604706" r="2" style="fill: steelblue;"></circle><circle cx="73.31110574305058" cy="126.68889425694942" r="2" style="fill: steelblue;"></circle><circle cx="25.280235707759864" cy="174.71976429224014" r="2" style="fill: steelblue;"></circle><circle cx="37.03637272119523" cy="162.96362727880478" r="2" style="fill: steelblue;"></circle><circle cx="41.059034317731864" cy="158.94096568226814" r="2" style="fill: steelblue;"></circle><circle cx="101.36240769643337" cy="98.63759230356663" r="2" style="fill: steelblue;"></circle><circle cx="32.45252966880799" cy="167.54747033119202" r="2" style="fill: steelblue;"></circle><circle cx="38.446149230003364" cy="161.55385076999664" r="2" style="fill: steelblue;"></circle><circle cx="121.53689414262772" cy="78.46310585737228" r="2" style="fill: steelblue;"></circle><circle cx="88.31429146230221" cy="111.68570853769779" r="2" style="fill: steelblue;"></circle><circle cx="43.67974996566773" cy="156.32025003433228" r="2" style="fill: steelblue;"></circle><circle cx="108.74878093600273" cy="91.25121906399727" r="2" style="fill: steelblue;"></circle><circle cx="154.71934750676155" cy="45.28065249323845" r="2" style="fill: steelblue;"></circle><circle cx="146.32263258099556" cy="53.67736741900444" r="2" style="fill: steelblue;"></circle><circle cx="154.92480099201202" cy="45.075199007987976" r="2" style="fill: steelblue;"></circle><circle cx="150.64723640680313" cy="49.35276359319687" r="2" style="fill: steelblue;"></circle><circle cx="153.58610674738884" cy="46.41389325261116" r="2" style="fill: steelblue;"></circle><circle cx="152.3417331278324" cy="47.65826687216759" r="2" style="fill: steelblue;"></circle><circle cx="198.31810742616653" cy="1.6818925738334656" r="2" style="fill: steelblue;"></circle><circle cx="169.89457458257675" cy="30.10542541742325" r="2" style="fill: steelblue;"></circle><circle cx="157.15251713991165" cy="42.84748286008835" r="2" style="fill: steelblue;"></circle><circle cx="194.56172585487366" cy="5.438274145126343" r="2" style="fill: steelblue;"></circle><circle cx="101.60771864466369" cy="98.39228135533631" r="2" style="fill: steelblue;"></circle><circle cx="79.7450378537178" cy="120.2549621462822" r="2" style="fill: steelblue;"></circle><circle cx="11.65474802255631" cy="188.3452519774437" r="2" style="fill: steelblue;"></circle><circle cx="90.9477373585105" cy="109.0522626414895" r="2" style="fill: steelblue;"></circle><circle cx="94.27862791344523" cy="105.72137208655477" r="2" style="fill: steelblue;"></circle><circle cx="105.51027338951826" cy="94.48972661048174" r="2" style="fill: steelblue;"></circle><circle cx="113.33172153681517" cy="86.66827846318483" r="2" style="fill: steelblue;"></circle><circle cx="137.28440031409264" cy="62.715599685907364" r="2" style="fill: steelblue;"></circle><circle cx="161.80524826049805" cy="38.19475173950195" r="2" style="fill: steelblue;"></circle><circle cx="165.24331867694855" cy="34.75668132305145" r="2" style="fill: steelblue;"></circle><circle cx="107.65054998919368" cy="92.34945001080632" r="2" style="fill: steelblue;"></circle><circle cx="165.1502013206482" cy="34.84979867935181" r="2" style="fill: steelblue;"></circle><circle cx="157.34657496213913" cy="42.65342503786087" r="2" style="fill: steelblue;"></circle><circle cx="153.06872352957726" cy="46.931276470422745" r="2" style="fill: steelblue;"></circle><circle cx="143.12416911125183" cy="56.87583088874817" r="2" style="fill: steelblue;"></circle><circle cx="182.39983767271042" cy="17.60016232728958" r="2" style="fill: steelblue;"></circle><circle cx="88.20360749959946" cy="111.79639250040054" r="2" style="fill: steelblue;"></circle><circle cx="55.86524158716202" cy="144.13475841283798" r="2" style="fill: steelblue;"></circle><circle cx="77.66121290624142" cy="122.33878709375858" r="2" style="fill: steelblue;"></circle><circle cx="157.85034596920013" cy="42.149654030799866" r="2" style="fill: steelblue;"></circle><circle cx="91.39722716063261" cy="108.60277283936739" r="2" style="fill: steelblue;"></circle><circle cx="115.87392389774323" cy="84.12607610225677" r="2" style="fill: steelblue;"></circle><circle cx="189.46897089481354" cy="10.531029105186462" r="2" style="fill: steelblue;"></circle><circle cx="154.90651726722717" cy="45.09348273277283" r="2" style="fill: steelblue;"></circle><circle cx="38.915848731994636" cy="161.08415126800537" r="2" style="fill: steelblue;"></circle><circle cx="155.43960630893707" cy="44.56039369106293" r="2" style="fill: steelblue;"></circle><circle cx="177.36223936080933" cy="22.637760639190674" r="2" style="fill: steelblue;"></circle><circle cx="168.21611523628235" cy="31.78388476371765" r="2" style="fill: steelblue;"></circle><circle cx="177.45961099863052" cy="22.540389001369476" r="2" style="fill: steelblue;"></circle><circle cx="173.99165630340576" cy="26.00834369659424" r="2" style="fill: steelblue;"></circle><circle cx="60.789673030376434" cy="139.21032696962357" r="2" style="fill: steelblue;"></circle><circle cx="105.439433734864" cy="94.560566265136" r="2" style="fill: steelblue;"></circle><circle cx="76.22055932879448" cy="123.77944067120552" r="2" style="fill: steelblue;"></circle><circle cx="35.804605484008796" cy="164.1953945159912" r="2" style="fill: steelblue;"></circle><circle cx="37.17032670974732" cy="162.82967329025269" r="2" style="fill: steelblue;"></circle><circle cx="99.18294372037053" cy="100.81705627962947" r="2" style="fill: steelblue;"></circle></g></svg>