<svg xmlns="http://www.w3.org/2000/svg"><g transform="translate(40,20)"><circle cx="343.22940051555634" cy="94.87334224912854" r="3" style="fill: steelblue;"></circle><circle cx="251.3030813634396" cy="183.40844671345417" r="3" style="fill: steelblue;"></circle><circle cx="288.52370023727417" cy="78.45969332589044" r="3" style="fill: steelblue;"></circle><circle cx="251.70079484581947" cy="212.96262430648005" r="3" style="fill: steelblue;"></circle><circle cx="374.33403074741364" cy="201.20066445734767" r="3" style="fill: steelblue;"></circle><circle cx="360.7010507583618" cy="130.96186849806043" r="3" style="fill: steelblue;"></circle><circle cx="356.3981169462204" cy="62.50391072697108" r="3" style="fill: steelblue;"></circle><circle cx="416.9036829471588" cy="118.45725940333472" r="3" style="fill: steelblue;"></circle><circle cx="441.37428045272827" cy="81.40454358524745" r="3" style="fill: steelblue;"></circle><circle cx="421.2056601047516" cy="159.12870524658098" r="3" style="fill: steelblue;"></circle><circle cx="339.11961257457733" cy="73.18597866429224" r="3" style="fill: steelblue;"></circle><circle cx="327.03143298625946" cy="162.05084820588428" r="3" style="fill: steelblue;"></circle><circle cx="310.0942397117615" cy="124.12748403019374" r="3" style="fill: steelblue;"></circle><circle cx="264.8094476759434" cy="188.03582402567065" r="3" style="fill: steelblue;"></circle><circle cx="191.43986642360687" cy="64.90033202701146" r="3" style="fill: steelblue;"></circle><circle cx="338.012325167656" cy="192.32523919911023" r="3" style="fill: steelblue;"></circle><circle cx="310.7788869738579" cy="206.34316094219685" r="3" style="fill: steelblue;"></circle><circle cx="447.04500675201416" cy="214.36427057617243" r="3" style="fill: steelblue;"></circle><circle cx="323.9565843343735" cy="50.038115845786194" r="3" style="fill: steelblue;"></circle><circle cx="348.9989572763443" cy="219.7283146282037" r="3" style="fill: steelblue;"></circle><circle cx="238.84031696710738" cy="146.7627853982978" r="3" style="fill: steelblue;"></circle><circle cx="397.37344622612" cy="175.76728305882875" r="3" style="fill: steelblue;"></circle><circle cx="90.25916397571565" cy="245.38353333870566" r="3" style="fill: steelblue;"></circle><circle cx="279.7004172205925" cy="92.51889917585584" r="3" style="fill: steelblue;"></circle><circle cx="247.10846297442913" cy="209.9817051655716" r="3" style="fill: steelblue;"></circle><circle cx="311.7726096510887" cy="172.03468477560415" r="3" style="fill: steelblue;"></circle><circle cx="165.04606693983078" cy="176.81008328994113" r="3" style="fill: steelblue;"></circle><circle cx="151.32535636425018" cy="143.13181655274497" r="3" style="fill: steelblue;"></circle><circle cx="144.89948093891144" cy="185.28837182869512" r="3" style="fill: steelblue;"></circle><circle cx="389.9244153499604" cy="248.54755815532474" r="3" style="fill: steelblue;"></circle><circle cx="161.32799327373505" cy="226.51759742034804" r="3" style="fill: steelblue;"></circle><circle cx="274.10961851477623" cy="213.84060900244447" r="3" style="fill: steelblue;"></circle><circle cx="143.14688980579376" cy="264.31397514210806" r="3" style="fill: steelblue;"></circle><circle cx="159.64223384857178" cy="184.14979355616703" r="3" style="fill: steelblue;"></circle><circle cx="356.60251021385193" cy="185.64451527264384" r="3" style="fill: steelblue;"></circle><circle cx="276.14678531885147" cy="177.62474425964888" r="3" style="fill: steelblue;"></circle><circle cx="161.9019323587418" cy="339.04344174597" r="3" style="fill: steelblue;"></circle><circle cx="176.89701855182648" cy="227.90097238288985" r="3" style="fill: steelblue;"></circle><circle cx="177.9669338464737" cy="184.93487954967554" r="3" style="fill: steelblue;"></circle><circle cx="184.59892362356186" cy="136.3186008400387" r="3" style="fill: steelblue;"></circle><circle cx="252.03605979681015" cy="184.76835234711564" r="3" style="fill: steelblue;"></circle><circle cx="154.94513154029846" cy="193.193343687906" r="3" style="fill: steelblue;"></circle><circle cx="186.47046178579333" cy="266.8926633066601" r="3" style="fill: steelblue;"></circle><circle cx="211.1905047297478" cy="190.22577318052447" r="3" style="fill: steelblue;"></circle><circle cx="213.5958069562912" cy="137.29797303676605" r="3" style="fill: steelblue;"></circle><circle cx="164.1600751876831" cy="331.9411476453145" r="3" style="fill: steelblue;"></circle><circle cx="174.52663868665695" cy="207.79092009696694" r="3" style="fill: steelblue;"></circle><circle cx="122.33207166194917" cy="263.58841359615326" r="3" style="fill: steelblue;"></circle><circle cx="221.66892863810065" cy="266.6356480783886" r="3" style="fill: steelblue;"></circle><circle cx="295.7445198297501" cy="168.03659912612704" r="3" style="fill: steelblue;"></circle><circle cx="229.75528702139854" cy="162.70322021510867" r="3" style="fill: steelblue;"></circle><circle cx="166.36734545230865" cy="297.638573580318" r="3" style="fill: steelblue;"></circle><circle cx="203.90824913978577" cy="259.6573821372456" r="3" style="fill: steelblue;"></circle><circle cx="92.26162970066072" cy="215.45978987382517" r="3" style="fill: steelblue;"></circle><circle cx="353.8648599386215" cy="297.9107598463694" r="3" style="fill: steelblue;"></circle><circle cx="222.1590006351471" cy="230.09856500559385" r="3" style="fill: steelblue;"></circle><circle cx="159.1118985414505" cy="276.1748350328869" r="3" style="fill: steelblue;"></circle><circle cx="313.64292293787" cy="293.49190824561646" r="3" style="fill: steelblue;"></circle><circle cx="53.94388675689698" cy="245.71722663111154" r="3" style="fill: steelblue;"></circle><circle cx="174.42314118146896" cy="192.13396018474464" r="3" style="fill: steelblue;"></circle><circle cx="328.3302390575409" cy="189.27347002964882" r="3" style="fill: steelblue;"></circle><circle cx="194.69512939453125" cy="249.03837425841223" r="3" style="fill: steelblue;"></circle><circle cx="336.1844891309738" cy="171.14030342135163" r="3" style="fill: steelblue;"></circle><circle cx="406.7135417461395" cy="192.5588443150951" r="3" style="fill: steelblue;"></circle><circle cx="271.9428227841854" cy="215.46564851370124" r="3" style="fill: steelblue;"></circle><circle cx="341.42270028591156" cy="166.0241853031847" r="3" style="fill: steelblue;"></circle><circle cx="225.1875253021717" cy="109.91325891680187" r="3" style="fill: steelblue;"></circle><circle cx="435.93545794487" cy="87.33017245928448" r="3" style="fill: steelblue;"></circle><circle cx="237.73940993472934" cy="165.48306660519705" r="3" style="fill: steelblue;"></circle><circle cx="507.3458218574524" cy="193.87324607103233" r="3" style="fill: steelblue;"></circle><circle cx="290.72832852602005" cy="200.18497021454903" r="3" style="fill: steelblue;"></circle><circle cx="125.53632795810701" cy="213.12934636241857" r="3" style="fill: steelblue;"></circle><circle cx="181.3693606853485" cy="166.94139275285931" r="3" style="fill: steelblue;"></circle><circle cx="218.9043813943863" cy="170.6685597697894" r="3" style="fill: steelblue;"></circle><circle cx="106.0849392414093" cy="311.31969723436566" r="3" style="fill: steelblue;"></circle><circle cx="138.41966629028323" cy="313.03448809517755" r="3" style="fill: steelblue;"></circle><circle cx="311.84597700834274" cy="169.99836845530405" r="3" style="fill: steelblue;"></circle><circle cx="207.0105166733265" cy="329.9865060382419" r="3" style="fill: steelblue;"></circle><circle cx="116.42527520656586" cy="289.8047723703914" r="3" style="fill: steelblue;"></circle><circle cx="266.84712186455727" cy="140.27131100495654" r="3" style="fill: steelblue;"></circle><circle cx="288.39397072792053" cy="283.1743044985665" r="3" style="fill: steelblue;"></circle><circle cx="170.63453882932666" cy="263.46672657463284" r="3" style="fill: steelblue;"></circle><circle cx="221.78335055708885" cy="297.2891181707382" r="3" style="fill: steelblue;"></circle><circle cx="258.46500411629677" cy="196.13295074345336" r="3" style="fill: steelblue;"></circle><circle cx="264.0939259529114" cy="193.90465997599273" r="3" style="fill: steelblue;"></circle><circle cx="222.30727426707745" cy="236.18130510052043" r="3" style="fill: steelblue;"></circle><circle cx="185.3904926776886" cy="107.25515749719409" r="3" style="fill: steelblue;"></circle><circle cx="223.333832770586" cy="105.55229832728702" r="3" style="fill: steelblue;"></circle><circle cx="419.78301644325256" cy="33.91810589366491" r="3" style="fill: steelblue;"></circle><circle cx="432.0711278915405" cy="110.07270548078748" r="3" style="fill: steelblue;"></circle><circle cx="358.03771555423737" cy="159.3539383676317" r="3" style="fill: steelblue;"></circle><circle cx="275.2745018899441" cy="119.00332404507532" r="3" style="fill: steelblue;"></circle><circle cx="208.4139423072338" cy="89.49402140246497" r="3" style="fill: steelblue;"></circle><circle cx="332.9082155227661" cy="137.63425085279675" r="3" style="fill: steelblue;"></circle><circle cx="186.02605104446414" cy="221.1403917107317" r="3" style="fill: steelblue;"></circle><circle cx="99.21608805656435" cy="235.61617814832266" r="3" style="fill: steelblue;"></circle><circle cx="159.7312027215958" cy="213.93038208285964" r="3" style="fill: steelblue;"></circle><circle cx="145.86615800857544" cy="184.95512764073078" r="3" style="fill: steelblue;"></circle><circle cx="129.04109001159668" cy="233.55489306979712" r="3" style="fill: steelblue;"></circle><circle cx="334.11360919475555" cy="311.4222321245405" r="3" style="fill: steelblue;"></circle><circle cx="168.29451262950897" cy="263.13204235500757" r="3" style="fill: steelblue;"></circle><circle cx="222.83563256263733" cy="211.4513994505008" r="3" style="fill: steelblue;"></circle><circle cx="239.32661019265652" cy="207.4043990837203" r="3" style="fill: steelblue;"></circle><circle cx="228.4112946689129" cy="334.9287062883377" r="3" style="fill: steelblue;"></circle><circle cx="78.23230862617494" cy="282.5782646735509" r="3" style="fill: steelblue;"></circle><circle cx="166.78236812353134" cy="325.24950305620825" r="3" style="fill: steelblue;"></circle><circle cx="292.28862315416336" cy="90.14300339751772" r="3" style="fill: steelblue;"></circle><circle cx="277.0525047183037" cy="65.78824917475384" r="3" style="fill: steelblue;"></circle><circle cx="198.99208188056946" cy="175.19269159270658" r="3" style="fill: steelblue;"></circle><circle cx="368.00439298152924" cy="180.52837107744483" r="3" style="fill: steelblue;"></circle><circle cx="373.29669535160065" cy="130.94237446784973" r="3" style="fill: steelblue;"></circle><circle cx="225.29094681143764" cy="131.6303213437398" r="3" style="fill: steelblue;"></circle><circle cx="67.07161903381349" cy="151.2367696397834" r="3" style="fill: steelblue;"></circle><circle cx="200.18587052822113" cy="193.47995852068482" r="3" style="fill: steelblue;"></circle><circle cx="140.60577392578128" cy="190.10832403889958" r="3" style="fill: steelblue;"></circle><circle cx="198.5608273744583" cy="172.661780897114" r="3" style="fill: steelblue;"></circle><circle cx="219.623868316412" cy="269.78660540448294" r="3" style="fill: steelblue;"></circle><circle cx="194.13314849138263" cy="295.2664560741848" r="3" style="fill: steelblue;"></circle></g></svg>