<svg xmlns="http://www.w3.org/2000/svg"><rect width="200" height="200" fill="white"></rect><g><circle cx="27.474329206678604" cy="158.99209901690483" r="2" style="fill: steelblue;"></circle><circle cx="58.08343688646953" cy="57.884516566991806" r="2" style="fill: steelblue;"></circle><circle cx="53.728797700670036" cy="115.50224795937538" r="2" style="fill: steelblue;"></circle><circle cx="30.195056067572708" cy="177.6878073811531" r="2" style="fill: steelblue;"></circle><circle cx="111.05192237430148" cy="182.45260268449783" r="2" style="fill: steelblue;"></circle><circle cx="68.6168392499288" cy="130.91062046587467" r="2" style="fill: steelblue;"></circle><circle cx="115.68524804380205" cy="68.4770479798317" r="2" style="fill: steelblue;"></circle><circle cx="48.1893175178104" cy="123.3139656484127" r="2" style="fill: steelblue;"></circle><circle cx="65.75074659453499" cy="142.13791340589523" r="2" style="fill: steelblue;"></circle><circle cx="78.27067739433713" cy="156.15883693099022" r="2" style="fill: steelblue;"></circle><circle cx="70.84478967719609" cy="85.66769156605005" r="2" style="fill: steelblue;"></circle><circle cx="57.585287756390045" cy="121.61730267107487" r="2" style="fill: steelblue;"></circle><circle cx="39.83880281448365" cy="50.13007149100304" r="2" style="fill: steelblue;"></circle><circle cx="60.76588431994121" cy="145.85972055792809" r="2" style="fill: steelblue;"></circle><circle cx="41.50315324465434" cy="138.2019728422165" r="2" style="fill: steelblue;"></circle><circle cx="13.159459167056617" cy="98.26207966543734" r="2" style="fill: steelblue;"></circle><circle cx="102.99865769015419" cy="95.32814836129546" r="2" style="fill: steelblue;"></circle><circle cx="139.32905462053085" cy="109.72424354404211" r="2" style="fill: steelblue;"></circle><circle cx="101.16747303141489" cy="81.76873661577702" r="2" style="fill: steelblue;"></circle><circle cx="63.29820917712318" cy="48.21760058403015" r="2" style="fill: steelblue;"></circle><circle cx="52.760695748858986" cy="120.92863060534" r="2" style="fill: steelblue;"></circle><circle cx="149.69861374961008" cy="118.52370984852314" r="2" style="fill: steelblue;"></circle><circle cx="96.24482641617458" cy="104.15042415261269" r="2" style="fill: steelblue;"></circle><circle cx="47.35386239157783" cy="61.42244338989258" r="2" style="fill: steelblue;"></circle><circle cx="45.344593127568565" cy="118.84406432509422" r="2" style="fill: steelblue;"></circle><circle cx="41.757227977116905" cy="121.00158296525478" r="2" style="fill: steelblue;"></circle><circle cx="16.562248600853817" cy="90.8311516046524" r="2" style="fill: steelblue;"></circle><circle cx="134.38357445928787" cy="156.99099227786064" r="2" style="fill: steelblue;"></circle><circle cx="51.29202074474759" cy="161.28018721938133" r="2" style="fill: steelblue;"></circle><circle cx="89.67198656044073" cy="187.93575316667557" r="2" style="fill: steelblue;"></circle><circle cx="162.71064546373154" cy="13.483291864395142" r="2" style="fill: steelblue;"></circle><circle cx="124.85289110077753" cy="63.66981416940689" r="2" style="fill: steelblue;"></circle><circle cx="150.42800903320312" cy="129.12846580147743" r="2" style="fill: steelblue;"></circle><circle cx="134.52808923191495" cy="141.72856360673904" r="2" style="fill: steelblue;"></circle><circle cx="142.00154145558673" cy="41.57551974058151" r="2" style="fill: steelblue;"></circle><circle cx="51.26282109154595" cy="28.27872931957245" r="2" style="fill: steelblue;"></circle><circle cx="74.77284173170726" cy="127.43552438914776" r="2" style="fill: steelblue;"></circle><circle cx="58.56254564391242" cy="173.57259094715118" r="2" style="fill: steelblue;"></circle><circle cx="85.92273617784183" cy="122.058280184865" r="2" style="fill: steelblue;"></circle><circle cx="57.66742295689053" cy="145.66194862127304" r="2" style="fill: steelblue;"></circle><circle cx="16.571275393168136" cy="105.39327459409833" r="2" style="fill: steelblue;"></circle><circle cx="106.90622395939297" cy="133.25794264674187" r="2" style="fill: steelblue;"></circle><circle cx="132.92536338170368" cy="168.08605790138245" r="2" style="fill: steelblue;"></circle><circle cx="109.26728480392032" cy="10.954974591732025" r="2" style="fill: steelblue;"></circle><circle cx="118.9341531859504" cy="102.70403269678354" r="2" style="fill: steelblue;"></circle><circle cx="146.15918397903442" cy="88.55010885745287" r="2" style="fill: steelblue;"></circle><circle cx="107.42835402488708" cy="76.16276144981384" r="2" style="fill: steelblue;"></circle><circle cx="33.6308499177297" cy="106.33366126567125" r="2" style="fill: steelblue;"></circle><circle cx="30.640965037875713" cy="133.8306501507759" r="2" style="fill: steelblue;"></circle><circle cx="92.95002942283949" cy="55.39359748363495" r="2" style="fill: steelblue;"></circle><circle cx="89.74566716286871" cy="110.43910533189774" r="2" style="fill: steelblue;"></circle><circle cx="131.89052409595914" cy="47.35562801361084" r="2" style="fill: steelblue;"></circle><circle cx="43.55614582697551" cy="69.85617466270924" r="2" style="fill: steelblue;"></circle><circle cx="93.96461637483704" cy="151.7517775297165" r="2" style="fill: steelblue;"></circle><circle cx="60.65267523129781" cy="140.29755294322968" r="2" style="fill: steelblue;"></circle><circle cx="91.76182800696957" cy="175.7458359003067" r="2" style="fill: steelblue;"></circle><circle cx="69.908912314309" cy="103.48739326000214" r="2" style="fill: steelblue;"></circle><circle cx="55.24362987942166" cy="115.70996828377247" r="2" style="fill: steelblue;"></circle><circle cx="117.5150626235538" cy="106.36897422373295" r="2" style="fill: steelblue;"></circle><circle cx="123.91439941194322" cy="111.42708957195282" r="2" style="fill: steelblue;"></circle><circle cx="36.90866496827868" cy="150.36217346787453" r="2" style="fill: steelblue;"></circle><circle cx="97.5860873858134" cy="153.34483832120895" r="2" style="fill: steelblue;"></circle><circle cx="86.63551977111233" cy="186.8052914738655" r="2" style="fill: steelblue;"></circle><circle cx="15.086033609178337" cy="171.55682146549225" r="2" style="fill: steelblue;"></circle><circle cx="25.45618216196696" cy="172.0849111676216" r="2" style="fill: steelblue;"></circle><circle cx="6.400126881069612" cy="161.52700260281563" r="2" style="fill: steelblue;"></circle><circle cx="62.511568599277076" cy="175.56936144828796" r="2" style="fill: steelblue;"></circle><circle cx="19.0047476026747" cy="193.75084936618805" r="2" style="fill: steelblue;"></circle><circle cx="52.899465296003555" cy="165.7273232936859" r="2" style="fill: steelblue;"></circle><circle cx="111.22845477528043" cy="111.22903916984797" r="2" style="fill: steelblue;"></circle><circle cx="91.51406764156289" cy="170.97923010587692" r="2" style="fill: steelblue;"></circle><circle cx="143.08393862512375" cy="26.224984228610992" r="2" style="fill: steelblue;"></circle><circle cx="56.948117415110275" cy="62.19586953520775" r="2" style="fill: steelblue;"></circle><circle cx="76.8474045726988" cy="109.00733470916748" r="2" style="fill: steelblue;"></circle><circle cx="114.01719384723239" cy="22.54599928855896" r="2" style="fill: steelblue;"></circle><circle cx="164.31575218836468" cy="89.41237479448318" r="2" style="fill: steelblue;"></circle><circle cx="81.96446829371983" cy="54.023316502571106" r="2" style="fill: steelblue;"></circle><circle cx="146.49278455310397" cy="113.7848099693656" r="2" style="fill: steelblue;"></circle><circle cx="160.3819449742635" cy="30.71036785840988" r="2" style="fill: steelblue;"></circle><circle cx="166.20647774802313" cy="45.17877325415611" r="2" style="fill: steelblue;"></circle><circle cx="128.9383027288649" cy="49.586205184459686" r="2" style="fill: steelblue;"></circle><circle cx="139.50075904528302" cy="149.69964176416397" r="2" style="fill: steelblue;"></circle><circle cx="49.20057985517714" cy="105.67232072353363" r="2" style="fill: steelblue;"></circle><circle cx="95.97423457437093" cy="125.25394037365913" r="2" style="fill: steelblue;"></circle><circle cx="65.33410516050128" cy="60.6718011200428" r="2" style="fill: steelblue;"></circle><circle cx="136.16587585873074" cy="157.04272165894508" r="2" style="fill: steelblue;"></circle><circle cx="99.73187529378468" cy="95.42498914524913" r="2" style="fill: steelblue;"></circle><circle cx="52.4756133556366" cy="133.6296297609806" r="2" style="fill: steelblue;"></circle><circle cx="135.1758427090115" cy="174.27246123552322" r="2" style="fill: steelblue;"></circle><circle cx="87.2593120775289" cy="107.69819878041744" r="2" style="fill: steelblue;"></circle><circle cx="114.74876304467519" cy="46.53295353055" r="2" style="fill: steelblue;"></circle><circle cx="113.51545684867435" cy="98.2062338385731" r="2" style="fill: steelblue;"></circle><circle cx="76.20983355575139" cy="77.96189226210117" r="2" style="fill: steelblue;"></circle><circle cx="114.13732866446178" cy="106.1578112654388" r="2" style="fill: steelblue;"></circle><circle cx="160.8113235897488" cy="85.93658581376076" r="2" style="fill: steelblue;"></circle><circle cx="133.5449006822374" cy="26.261208951473236" r="2" style="fill: steelblue;"></circle><circle cx="122.68499400880602" cy="35.73320657014847" r="2" style="fill: steelblue;"></circle><circle cx="51.642267571555244" cy="65.29131382703781" r="2" style="fill: steelblue;"></circle><circle cx="168.5911602444119" cy="136.68201714754105" r="2" style="fill: steelblue;"></circle><circle cx="179.3153338962131" cy="77.60382294654846" r="2" style="fill: steelblue;"></circle><circle cx="91.92132155100505" cy="57.328423857688904" r="2" style="fill: steelblue;"></circle><circle cx="136.07848551538254" cy="61.78668737411499" r="2" style="fill: steelblue;"></circle><circle cx="54.54231831762526" cy="68.8031543046236" r="2" style="fill: steelblue;"></circle><circle cx="180.10895649592084" cy="46.97316363453865" r="2" style="fill: steelblue;"></circle><circle cx="119.2223416434394" cy="52.584825456142426" r="2" style="fill: steelblue;"></circle><circle cx="119.27074723773532" cy="80.39507120847702" r="2" style="fill: steelblue;"></circle><circle cx="105.83132207393646" cy="135.25614365935326" r="2" style="fill: steelblue;"></circle><circle cx="81.04699303706488" cy="134.9925309419632" r="2" style="fill: steelblue;"></circle><circle cx="150.23171769248114" cy="73.37418980896473" r="2" style="fill: steelblue;"></circle><circle cx="178.88872358534073" cy="110.91927662491798" r="2" style="fill: steelblue;"></circle><circle cx="147.60070906745065" cy="72.7872908115387" r="2" style="fill: steelblue;"></circle><circle cx="96.25649154186249" cy="41.122040152549744" r="2" style="fill: steelblue;"></circle><circle cx="62.379738026195106" cy="75.3830824047327" r="2" style="fill: steelblue;"></circle><circle cx="121.09739780426025" cy="125.01488104462624" r="2" style="fill: steelblue;"></circle><circle cx="132.04211195309955" cy="176.3159692287445" r="2" style="fill: steelblue;"></circle><circle cx="50.57893395423889" cy="118.74421536922455" r="2" style="fill: steelblue;"></circle><circle cx="54.16868660185072" cy="104.20604692772031" r="2" style="fill: steelblue;"></circle><circle cx="93.31852768858275" cy="42.720815539360046" r="2" style="fill: steelblue;"></circle></g></svg>