<svg xmlns="http://www.w3.org/2000/svg"><rect width="200" height="200" fill="white"></rect><g><circle cx="25.30322819948197" cy="119.72012966871262" r="2" style="fill: steelblue;"></circle><circle cx="22.168336808681495" cy="157.72504583001137" r="2" style="fill: steelblue;"></circle><circle cx="81.58187977969646" cy="117.17859320342541" r="2" style="fill: steelblue;"></circle><circle cx="68.14857423305511" cy="116.13124646246433" r="2" style="fill: steelblue;"></circle><circle cx="49.75865632295609" cy="137.24618256092072" r="2" style="fill: steelblue;"></circle><circle cx="20.62747478485108" cy="95.40733639150858" r="2" style="fill: steelblue;"></circle><circle cx="81.08974099159241" cy="52.303994446992874" r="2" style="fill: steelblue;"></circle><circle cx="173.45454394817352" cy="67.79881417751312" r="2" style="fill: steelblue;"></circle><circle cx="135.86376458406448" cy="73.95341657102108" r="2" style="fill: steelblue;"></circle><circle cx="99.95662644505501" cy="121.55135199427605" r="2" style="fill: steelblue;"></circle><circle cx="78.96265424787998" cy="112.94073276221752" r="2" style="fill: steelblue;"></circle><circle cx="37.81262263655663" cy="140.7157689332962" r="2" style="fill: steelblue;"></circle><circle cx="112.8625575453043" cy="74.00954179465771" r="2" style="fill: steelblue;"></circle><circle cx="140.49724712967873" cy="66.90187230706215" r="2" style="fill: steelblue;"></circle><circle cx="98.35426930803806" cy="157.41139128804207" r="2" style="fill: steelblue;"></circle><circle cx="110.9321866184473" cy="155.05509674549103" r="2" style="fill: steelblue;"></circle><circle cx="53.03620025515556" cy="95.9374824538827" r="2" style="fill: steelblue;"></circle><circle cx="56.00029081106186" cy="49.37695190310478" r="2" style="fill: steelblue;"></circle><circle cx="134.50002893805504" cy="115.32274670898914" r="2" style="fill: steelblue;"></circle><circle cx="76.11411847174168" cy="96.32663791999221" r="2" style="fill: steelblue;"></circle><circle cx="109.23390034586191" cy="108.3721661940217" r="2" style="fill: steelblue;"></circle><circle cx="80.9476938098669" cy="64.3835611641407" r="2" style="fill: steelblue;"></circle><circle cx="86.98403220623732" cy="51.50964707136154" r="2" style="fill: steelblue;"></circle><circle cx="100.7271563517861" cy="171.76397740840912" r="2" style="fill: steelblue;"></circle><circle cx="122.89046160876751" cy="148.48069697618484" r="2" style="fill: steelblue;"></circle><circle cx="38.38219344615937" cy="161.5442581474781" r="2" style="fill: steelblue;"></circle><circle cx="65.37969261407852" cy="109.30653512477875" r="2" style="fill: steelblue;"></circle><circle cx="75.81806965172291" cy="156.11350014805794" r="2" style="fill: steelblue;"></circle><circle cx="4.262259602546697" cy="131.033493578434" r="2" style="fill: steelblue;"></circle><circle cx="81.88492469489574" cy="37.007829546928406" r="2" style="fill: steelblue;"></circle><circle cx="108.77795834094286" cy="116.00083895027637" r="2" style="fill: steelblue;"></circle><circle cx="142.9108776152134" cy="84.10766012966633" r="2" style="fill: steelblue;"></circle><circle cx="164.8997724056244" cy="63.52579817175865" r="2" style="fill: steelblue;"></circle><circle cx="131.4583256840706" cy="89.29787613451481" r="2" style="fill: steelblue;"></circle><circle cx="123.0853296816349" cy="41.30953028798103" r="2" style="fill: steelblue;"></circle><circle cx="78.02427597343922" cy="130.3432010114193" r="2" style="fill: steelblue;"></circle><circle cx="68.49755197763443" cy="95.87332736700773" r="2" style="fill: steelblue;"></circle><circle cx="77.97369584441185" cy="199.3950515985489" r="2" style="fill: steelblue;"></circle><circle cx="39.637228846549995" cy="172.25262373685837" r="2" style="fill: steelblue;"></circle><circle cx="9.655578434467321" cy="137.9888229072094" r="2" style="fill: steelblue;"></circle><circle cx="76.41313262283802" cy="185.48375219106674" r="2" style="fill: steelblue;"></circle><circle cx="148.3274757862091" cy="56.15528151392937" r="2" style="fill: steelblue;"></circle><circle cx="131.769011169672" cy="44.98530402779579" r="2" style="fill: steelblue;"></circle><circle cx="158.7681122124195" cy="99.22645336482674" r="2" style="fill: steelblue;"></circle><circle cx="149.69916865229607" cy="83.36245305836201" r="2" style="fill: steelblue;"></circle><circle cx="135.6634184718132" cy="78.59571874141693" r="2" style="fill: steelblue;"></circle><circle cx="156.38791620731354" cy="73.0952475219965" r="2" style="fill: steelblue;"></circle><circle cx="19.18545216321946" cy="189.76811915636063" r="2" style="fill: steelblue;"></circle><circle cx="111.01572904735804" cy="88.66177536547184" r="2" style="fill: steelblue;"></circle><circle cx="36.743311583995826" cy="110.15893369913101" r="2" style="fill: steelblue;"></circle><circle cx="13.893736898899084" cy="99.32695087045431" r="2" style="fill: steelblue;"></circle><circle cx="14.06970471143723" cy="78.58521714806557" r="2" style="fill: steelblue;"></circle><circle cx="92.38093011081219" cy="145.5414466559887" r="2" style="fill: steelblue;"></circle><circle cx="105.59094548225403" cy="158.89640748500824" r="2" style="fill: steelblue;"></circle><circle cx="75.3787312656641" cy="127.48678810894489" r="2" style="fill: steelblue;"></circle><circle cx="3.1517431139946037" cy="196.69391810894012" r="2" style="fill: steelblue;"></circle><circle cx="95.34970941022038" cy="124.14886094629765" r="2" style="fill: steelblue;"></circle><circle cx="90.42527936398983" cy="110.81304345279932" r="2" style="fill: steelblue;"></circle><circle cx="80.1378920674324" cy="94.23236260190606" r="2" style="fill: steelblue;"></circle><circle cx="38.949320465326316" cy="86.89417075365782" r="2" style="fill: steelblue;"></circle><circle cx="132.0902317762375" cy="123.73496629297733" r="2" style="fill: steelblue;"></circle><circle cx="35.61839312314988" cy="101.95530685596168" r="2" style="fill: steelblue;"></circle><circle cx="19.780455529689796" cy="154.2582981288433" r="2" style="fill: steelblue;"></circle><circle cx="53.8276381790638" cy="195.35691142082214" r="2" style="fill: steelblue;"></circle><circle cx="49.10646602511407" cy="178.10474187135696" r="2" style="fill: steelblue;"></circle><circle cx="11.90256923437119" cy="140.15057161450386" r="2" style="fill: steelblue;"></circle><circle cx="29.519996047019966" cy="192.0688584446907" r="2" style="fill: steelblue;"></circle><circle cx="130.90598993003368" cy="176.4448046684265" r="2" style="fill: steelblue;"></circle><circle cx="1.249468326568609" cy="107.6331770978868" r="2" style="fill: steelblue;"></circle><circle cx="102.03495752066374" cy="165.4742419719696" r="2" style="fill: steelblue;"></circle><circle cx="61.99754625558853" cy="52.81224697828293" r="2" style="fill: steelblue;"></circle><circle cx="139.89021852612495" cy="6.335480511188507" r="2" style="fill: steelblue;"></circle><circle cx="158.21043252944946" cy="13.752540946006775" r="2" style="fill: steelblue;"></circle><circle cx="151.53675377368927" cy="91.31273664534092" r="2" style="fill: steelblue;"></circle><circle cx="156.22746422886848" cy="32.18836188316345" r="2" style="fill: steelblue;"></circle><circle cx="171.81689143180847" cy="146.63575068116188" r="2" style="fill: steelblue;"></circle><circle cx="120.65936475992203" cy="37.6143179833889" r="2" style="fill: steelblue;"></circle><circle cx="129.04046699404716" cy="53.05735990405083" r="2" style="fill: steelblue;"></circle><circle cx="126.11209452152252" cy="71.08597308397293" r="2" style="fill: steelblue;"></circle><circle cx="174.77576285600662" cy="24.872756004333496" r="2" style="fill: steelblue;"></circle><circle cx="167.37105548381805" cy="116.60680584609509" r="2" style="fill: steelblue;"></circle><circle cx="193.73819082975388" cy="34.2067614197731" r="2" style="fill: steelblue;"></circle><circle cx="178.94038408994675" cy="145.47763988375664" r="2" style="fill: steelblue;"></circle><circle cx="92.26798862218857" cy="165.3640180826187" r="2" style="fill: steelblue;"></circle><circle cx="52.40611955523491" cy="109.9398884922266" r="2" style="fill: steelblue;"></circle><circle cx="46.07025384902955" cy="106.89135817810893" r="2" style="fill: steelblue;"></circle><circle cx="88.32819703966379" cy="74.20126758515835" r="2" style="fill: steelblue;"></circle><circle cx="89.25452027469873" cy="90.9896133467555" r="2" style="fill: steelblue;"></circle><circle cx="76.34582035243511" cy="82.37224295735359" r="2" style="fill: steelblue;"></circle><circle cx="150.01036077737808" cy="69.86287832260132" r="2" style="fill: steelblue;"></circle><circle cx="122.52707444131374" cy="81.7721601575613" r="2" style="fill: steelblue;"></circle><circle cx="192.8347408771515" cy="94.4949820637703" r="2" style="fill: steelblue;"></circle><circle cx="112.15313002467155" cy="56.39445632696152" r="2" style="fill: steelblue;"></circle><circle cx="187.94615417718887" cy="45.130858570337296" r="2" style="fill: steelblue;"></circle><circle cx="146.47845402359962" cy="42.07968935370445" r="2" style="fill: steelblue;"></circle><circle cx="198.87941926717758" cy="54.52773943543434" r="2" style="fill: steelblue;"></circle><circle cx="106.99724955484271" cy="43.028524518013" r="2" style="fill: steelblue;"></circle><circle cx="112.2781340032816" cy="170.41529566049576" r="2" style="fill: steelblue;"></circle><circle cx="120.68202011287212" cy="166.74793362617493" r="2" style="fill: steelblue;"></circle><circle cx="128.69689278304577" cy="20.40906846523285" r="2" style="fill: steelblue;"></circle><circle cx="128.42485159635544" cy="19.752895832061768" r="2" style="fill: steelblue;"></circle><circle cx="153.3897876739502" cy="69.84178945422173" r="2" style="fill: steelblue;"></circle><circle cx="97.33261833898723" cy="106.7693181335926" r="2" style="fill: steelblue;"></circle><circle cx="141.25871136784554" cy="175.53990185260773" r="2" style="fill: steelblue;"></circle><circle cx="122.60256186127663" cy="44.979917258024216" r="2" style="fill: steelblue;"></circle><circle cx="17.02623665332795" cy="142.07415878772736" r="2" style="fill: steelblue;"></circle><circle cx="121.68139815330505" cy="99.82532870490104" r="2" style="fill: steelblue;"></circle><circle cx="55.4317444562912" cy="88.23208920657635" r="2" style="fill: steelblue;"></circle><circle cx="101.58308551181108" cy="118.22301000356674" r="2" style="fill: steelblue;"></circle><circle cx="159.07607078552246" cy="55.04821836948395" r="2" style="fill: steelblue;"></circle><circle cx="118.94950307905674" cy="89.07410725951195" r="2" style="fill: steelblue;"></circle><circle cx="132.95357897877693" cy="29.204657673835754" r="2" style="fill: steelblue;"></circle><circle cx="51.133400201797485" cy="132.39154815673828" r="2" style="fill: steelblue;"></circle><circle cx="34.315592050552375" cy="124.04789440333843" r="2" style="fill: steelblue;"></circle><circle cx="101.00572477094829" cy="135.72002798318863" r="2" style="fill: steelblue;"></circle><circle cx="61.38085797429085" cy="193.6359092593193" r="2" style="fill: steelblue;"></circle><circle cx="28.947769105434425" cy="138.75421360135078" r="2" style="fill: steelblue;"></circle><circle cx="66.18926525115967" cy="138.13745453953743" r="2" style="fill: steelblue;"></circle></g></svg>