<svg xmlns="http://www.w3.org/2000/svg"><g><circle cx="12.506297975778583" cy="81.22635558247566" r="2" style="fill: steelblue;"></circle><circle cx="54.211719147861004" cy="89.90782424807549" r="2" style="fill: steelblue;"></circle><circle cx="49.251054134219885" cy="72.27737382054329" r="2" style="fill: steelblue;"></circle><circle cx="3.3258862793445614" cy="91.8778732419014" r="2" style="fill: steelblue;"></circle><circle cx="2.3371122777462032" cy="78.4530408680439" r="2" style="fill: steelblue;"></circle><circle cx="3.134503215551379" cy="77.32033282518387" r="2" style="fill: steelblue;"></circle><circle cx="30.370938777923584" cy="57.87545274943113" r="2" style="fill: steelblue;"></circle><circle cx="40.09354971349239" cy="47.517343144863844" r="2" style="fill: steelblue;"></circle><circle cx="41.72587040811777" cy="75.18287487328053" r="2" style="fill: steelblue;"></circle><circle cx="41.93963408470154" cy="83.50821509957314" r="2" style="fill: steelblue;"></circle><circle cx="44.30924421176314" cy="76.21022425591946" r="2" style="fill: steelblue;"></circle><circle cx="39.34716172516346" cy="54.71831252798438" r="2" style="fill: steelblue;"></circle><circle cx="33.54032076895237" cy="76.07433870434761" r="2" style="fill: steelblue;"></circle><circle cx="46.77052814513445" cy="54.12630429491401" r="2" style="fill: steelblue;"></circle><circle cx="30.29664158821106" cy="75.47717839479446" r="2" style="fill: steelblue;"></circle><circle cx="45.102353394031525" cy="34.97644439339638" r="2" style="fill: steelblue;"></circle><circle cx="53.397269174456596" cy="57.79317459091544" r="2" style="fill: steelblue;"></circle><circle cx="33.35198312997818" cy="56.7357555963099" r="2" style="fill: steelblue;"></circle><circle cx="22.55334258079529" cy="59.41845588386059" r="2" style="fill: steelblue;"></circle><circle cx="47.48712847940624" cy="40.762146189808846" r="2" style="fill: steelblue;"></circle><circle cx="31.2613595277071" cy="29.908958077430725" r="2" style="fill: steelblue;"></circle><circle cx="72.04125933349133" cy="13.40760588645935" r="2" style="fill: steelblue;"></circle><circle cx="36.17149889469147" cy="40.8455777913332" r="2" style="fill: steelblue;"></circle><circle cx="24.343340843915943" cy="62.89838086813688" r="2" style="fill: steelblue;"></circle><circle cx="25.3968957811594" cy="44.98058948665857" r="2" style="fill: steelblue;"></circle><circle cx="65.2311148121953" cy="31.423592194914818" r="2" style="fill: steelblue;"></circle><circle cx="29.36352714896202" cy="59.03266575187445" r="2" style="fill: steelblue;"></circle><circle cx="39.23750687390566" cy="77.71595492959023" r="2" style="fill: steelblue;"></circle><circle cx="69.11037415266037" cy="66.23301208019257" r="2" style="fill: steelblue;"></circle><circle cx="72.35288359224796" cy="63.24288081377745" r="2" style="fill: steelblue;"></circle><circle cx="58.10220371931791" cy="17.69009903073311" r="2" style="fill: steelblue;"></circle><circle cx="79.9496240913868" cy="36.50649655610323" r="2" style="fill: steelblue;"></circle><circle cx="56.93367002531886" cy="50.52470969967544" r="2" style="fill: steelblue;"></circle><circle cx="51.22227764222771" cy="77.71048434078693" r="2" style="fill: steelblue;"></circle><circle cx="46.48898211307824" cy="78.06928940117359" r="2" style="fill: steelblue;"></circle><circle cx="47.80268012546003" cy="62.77389470487833" r="2" style="fill: steelblue;"></circle><circle cx="45.59130426496267" cy="56.81068375706673" r="2" style="fill: steelblue;"></circle><circle cx="27.552495896816254" cy="94.45130750536919" r="2" style="fill: steelblue;"></circle><circle cx="13.159877806901935" cy="71.80244587361813" r="2" style="fill: steelblue;"></circle><circle cx="15.93611687421799" cy="39.896856248378754" r="2" style="fill: steelblue;"></circle><circle cx="28.384004905819893" cy="68.44597049057484" r="2" style="fill: steelblue;"></circle><circle cx="91.66161641478539" cy="61.404416523873806" r="2" style="fill: steelblue;"></circle><circle cx="37.327080219984055" cy="53.42129450291395" r="2" style="fill: steelblue;"></circle><circle cx="44.709907565265894" cy="18.74011680483818" r="2" style="fill: steelblue;"></circle><circle cx="60.05272660404444" cy="44.212211575359106" r="2" style="fill: steelblue;"></circle><circle cx="66.20779931545258" cy="11.742959916591644" r="2" style="fill: steelblue;"></circle><circle cx="73.080475628376" cy="38.92663978040218" r="2" style="fill: steelblue;"></circle><circle cx="23.558718338608745" cy="89.91248831152916" r="2" style="fill: steelblue;"></circle><circle cx="71.6514840722084" cy="51.93997903261334" r="2" style="fill: steelblue;"></circle><circle cx="73.88627640902996" cy="59.502096101641655" r="2" style="fill: steelblue;"></circle><circle cx="59.84502863138914" cy="30.32425157725811" r="2" style="fill: steelblue;"></circle><circle cx="41.408584639430046" cy="53.035524394363165" r="2" style="fill: steelblue;"></circle><circle cx="35.64415704458952" cy="17.28389710187912" r="2" style="fill: steelblue;"></circle><circle cx="67.99377985298634" cy="69.60242539644241" r="2" style="fill: steelblue;"></circle><circle cx="19.533497467637066" cy="50.005174428224564" r="2" style="fill: steelblue;"></circle><circle cx="23.116071894764904" cy="72.83060364425182" r="2" style="fill: steelblue;"></circle><circle cx="79.08934839069843" cy="55.44359441846609" r="2" style="fill: steelblue;"></circle><circle cx="50.507621094584465" cy="44.24236640334129" r="2" style="fill: steelblue;"></circle><circle cx="37.939104437828064" cy="26.80591605603695" r="2" style="fill: steelblue;"></circle><circle cx="57.65809090808034" cy="71.38444408774376" r="2" style="fill: steelblue;"></circle><circle cx="46.44453846849501" cy="66.26410335302353" r="2" style="fill: steelblue;"></circle><circle cx="28.34308072924614" cy="63.34444712847471" r="2" style="fill: steelblue;"></circle><circle cx="43.71366295963526" cy="87.35988214612007" r="2" style="fill: steelblue;"></circle><circle cx="15.600613504648212" cy="81.48181363940239" r="2" style="fill: steelblue;"></circle><circle cx="52.7080534491688" cy="79.47048284113407" r="2" style="fill: steelblue;"></circle><circle cx="18.751179054379467" cy="49.31879615178332" r="2" style="fill: steelblue;"></circle><circle cx="18.846881762146953" cy="83.77373516559601" r="2" style="fill: steelblue;"></circle><circle cx="21.071371808648113" cy="80.77692538499832" r="2" style="fill: steelblue;"></circle><circle cx="47.5923968013376" cy="39.23155292868614" r="2" style="fill: steelblue;"></circle><circle cx="22.60013595223427" cy="55.842854268848896" r="2" style="fill: steelblue;"></circle><circle cx="25.170321762561798" cy="78.16012501716614" r="2" style="fill: steelblue;"></circle><circle cx="67.38291792571545" cy="45.625609531998634" r="2" style="fill: steelblue;"></circle><circle cx="73.43706041574478" cy="22.640326246619225" r="2" style="fill: steelblue;"></circle><circle cx="33.786558732390404" cy="26.83868370950222" r="2" style="fill: steelblue;"></circle><circle cx="53.14490939490497" cy="22.537599503993988" r="2" style="fill: steelblue;"></circle><circle cx="47.23415914922953" cy="24.676381796598434" r="2" style="fill: steelblue;"></circle><circle cx="65.61640109866858" cy="23.20694662630558" r="2" style="fill: steelblue;"></circle><circle cx="35.08038092404604" cy="23.829133436083794" r="2" style="fill: steelblue;"></circle><circle cx="69.29602026939392" cy="0.8409462869167328" r="2" style="fill: steelblue;"></circle><circle cx="71.52719721198082" cy="15.052712708711624" r="2" style="fill: steelblue;"></circle><circle cx="52.63250223360956" cy="21.423741430044174" r="2" style="fill: steelblue;"></circle><circle cx="89.28244858980179" cy="2.7191370725631714" r="2" style="fill: steelblue;"></circle><circle cx="52.15144641697407" cy="49.196140677668154" r="2" style="fill: steelblue;"></circle><circle cx="53.393905935809016" cy="60.1274810731411" r="2" style="fill: steelblue;"></circle><circle cx="42.38028470426798" cy="94.17262598872185" r="2" style="fill: steelblue;"></circle><circle cx="42.48291179537773" cy="54.52613132074475" r="2" style="fill: steelblue;"></circle><circle cx="45.537593960762024" cy="52.86068604327738" r="2" style="fill: steelblue;"></circle><circle cx="40.96005316823721" cy="47.24486330524087" r="2" style="fill: steelblue;"></circle><circle cx="48.5950292320922" cy="43.33413923159242" r="2" style="fill: steelblue;"></circle><circle cx="52.077351324260235" cy="31.357799842953682" r="2" style="fill: steelblue;"></circle><circle cx="83.34102034568787" cy="19.097375869750977" r="2" style="fill: steelblue;"></circle><circle cx="59.49105527251959" cy="17.378340661525726" r="2" style="fill: steelblue;"></circle><circle cx="60.080499574542046" cy="46.17472500540316" r="2" style="fill: steelblue;"></circle><circle cx="67.21109077334404" cy="17.424899339675903" r="2" style="fill: steelblue;"></circle><circle cx="47.672228841111064" cy="21.326712518930435" r="2" style="fill: steelblue;"></circle><circle cx="84.10917147994041" cy="23.465638235211372" r="2" style="fill: steelblue;"></circle><circle cx="79.50792573392391" cy="28.437915444374084" r="2" style="fill: steelblue;"></circle><circle cx="79.7713354229927" cy="8.80008116364479" r="2" style="fill: steelblue;"></circle><circle cx="54.116468131542206" cy="55.89819625020027" r="2" style="fill: steelblue;"></circle><circle cx="50.39463525172323" cy="72.06737920641899" r="2" style="fill: steelblue;"></circle><circle cx="73.6346535384655" cy="61.16939354687929" r="2" style="fill: steelblue;"></circle><circle cx="62.03829329460859" cy="21.074827015399933" r="2" style="fill: steelblue;"></circle><circle cx="71.5530302375555" cy="54.301386419683695" r="2" style="fill: steelblue;"></circle><circle cx="64.45778924971819" cy="42.06303805112839" r="2" style="fill: steelblue;"></circle><circle cx="70.34419029951096" cy="5.265514552593231" r="2" style="fill: steelblue;"></circle><circle cx="36.719170585274696" cy="22.546741366386414" r="2" style="fill: steelblue;"></circle><circle cx="62.2804855927825" cy="80.54207563400269" r="2" style="fill: steelblue;"></circle><circle cx="70.80280892550945" cy="22.280196845531464" r="2" style="fill: steelblue;"></circle><circle cx="86.70082986354828" cy="11.318880319595337" r="2" style="fill: steelblue;"></circle><circle cx="49.93296808679588" cy="15.891942381858826" r="2" style="fill: steelblue;"></circle><circle cx="92.31419041752815" cy="11.270194500684738" r="2" style="fill: steelblue;"></circle><circle cx="41.35925155133009" cy="13.00417184829712" r="2" style="fill: steelblue;"></circle><circle cx="14.848693460226063" cy="69.60516348481178" r="2" style="fill: steelblue;"></circle><circle cx="23.750477656722072" cy="47.280283132568" r="2" style="fill: steelblue;"></circle><circle cx="39.005557261407375" cy="61.88972033560276" r="2" style="fill: steelblue;"></circle><circle cx="21.993580460548404" cy="82.0976972579956" r="2" style="fill: steelblue;"></circle><circle cx="18.174573034048084" cy="81.41483664512634" r="2" style="fill: steelblue;"></circle><circle cx="16.740831732749943" cy="50.408528139814734" r="2" style="fill: steelblue;"></circle></g></svg>