<svg xmlns="http://www.w3.org/2000/svg"><g><circle cx="14.770379662513733" cy="57.688894402235746" r="2" style="fill: steelblue;"></circle><circle cx="30.349788069725037" cy="86.83755546808243" r="2" style="fill: steelblue;"></circle><circle cx="59.702398627996445" cy="57.91244022548199" r="2" style="fill: steelblue;"></circle><circle cx="41.05459749698639" cy="89.08279910683632" r="2" style="fill: steelblue;"></circle><circle cx="56.38028308749199" cy="89.9828813970089" r="2" style="fill: steelblue;"></circle><circle cx="17.051950097084045" cy="86.98037564754486" r="2" style="fill: steelblue;"></circle><circle cx="49.772182200104" cy="51.132896868512034" r="2" style="fill: steelblue;"></circle><circle cx="57.924485951662064" cy="29.230092838406563" r="2" style="fill: steelblue;"></circle><circle cx="34.70764607191086" cy="77.95447781682014" r="2" style="fill: steelblue;"></circle><circle cx="34.599995613098145" cy="59.25310514867306" r="2" style="fill: steelblue;"></circle><circle cx="37.87140995264053" cy="61.943090707063675" r="2" style="fill: steelblue;"></circle><circle cx="45.54692879319191" cy="71.56814374029636" r="2" style="fill: steelblue;"></circle><circle cx="45.14731802046299" cy="75.64247883856297" r="2" style="fill: steelblue;"></circle><circle cx="23.338085412979126" cy="61.587828397750854" r="2" style="fill: steelblue;"></circle><circle cx="54.41786088049412" cy="53.086680080741644" r="2" style="fill: steelblue;"></circle><circle cx="14.765819907188416" cy="59.1065876185894" r="2" style="fill: steelblue;"></circle><circle cx="26.811407506465912" cy="80.80770559608936" r="2" style="fill: steelblue;"></circle><circle cx="67.29426681995392" cy="57.35402759164572" r="2" style="fill: steelblue;"></circle><circle cx="50.55094105191529" cy="53.487598383799195" r="2" style="fill: steelblue;"></circle><circle cx="78.9130836725235" cy="58.79324693232775" r="2" style="fill: steelblue;"></circle><circle cx="49.66583042405546" cy="66.04695059359074" r="2" style="fill: steelblue;"></circle><circle cx="54.556525498628616" cy="60.11843979358673" r="2" style="fill: steelblue;"></circle><circle cx="59.838926047086716" cy="70.50153538584709" r="2" style="fill: steelblue;"></circle><circle cx="28.500083088874817" cy="52.04561813734472" r="2" style="fill: steelblue;"></circle><circle cx="61.32168844342232" cy="48.79967654123902" r="2" style="fill: steelblue;"></circle><circle cx="30.08050173521042" cy="65.13596903532743" r="2" style="fill: steelblue;"></circle><circle cx="39.619775116443634" cy="37.45044879615307" r="2" style="fill: steelblue;"></circle><circle cx="39.676619321107864" cy="34.32285152375698" r="2" style="fill: steelblue;"></circle><circle cx="23.788118362426758" cy="74.65778402984142" r="2" style="fill: steelblue;"></circle><circle cx="54.3805118650198" cy="39.10476826131344" r="2" style="fill: steelblue;"></circle><circle cx="72.54134714603424" cy="14.254003018140793" r="2" style="fill: steelblue;"></circle><circle cx="71.50287330150604" cy="22.992682829499245" r="2" style="fill: steelblue;"></circle><circle cx="81.37311637401581" cy="54.687237087637186" r="2" style="fill: steelblue;"></circle><circle cx="47.44942933320999" cy="35.97354535013437" r="2" style="fill: steelblue;"></circle><circle cx="55.09973578155041" cy="29.21997681260109" r="2" style="fill: steelblue;"></circle><circle cx="41.93370118737221" cy="3.5761885344982147" r="2" style="fill: steelblue;"></circle><circle cx="50.95364656299353" cy="39.19032420963049" r="2" style="fill: steelblue;"></circle><circle cx="32.411424815654755" cy="42.071615532040596" r="2" style="fill: steelblue;"></circle><circle cx="19.538041949272156" cy="64.50728997588158" r="2" style="fill: steelblue;"></circle><circle cx="21.12640142440796" cy="93.0203452706337" r="2" style="fill: steelblue;"></circle><circle cx="9.456852078437805" cy="40.749058313667774" r="2" style="fill: steelblue;"></circle><circle cx="65.15545099973679" cy="8.656728267669678" r="2" style="fill: steelblue;"></circle><circle cx="23.9138662815094" cy="3.8416787981987" r="2" style="fill: steelblue;"></circle><circle cx="62.50302344560623" cy="8.047285676002502" r="2" style="fill: steelblue;"></circle><circle cx="68.19115877151489" cy="62.30770256370306" r="2" style="fill: steelblue;"></circle><circle cx="63.784608244895935" cy="68.32928322255611" r="2" style="fill: steelblue;"></circle><circle cx="75.86694657802582" cy="67.39451847970486" r="2" style="fill: steelblue;"></circle><circle cx="27.315524220466614" cy="91.3859486579895" r="2" style="fill: steelblue;"></circle><circle cx="26.585301756858826" cy="82.20150247216225" r="2" style="fill: steelblue;"></circle><circle cx="34.499940276145935" cy="69.41916532814503" r="2" style="fill: steelblue;"></circle><circle cx="58.458470553159714" cy="66.19787514209747" r="2" style="fill: steelblue;"></circle><circle cx="73.16857427358627" cy="69.50163766741753" r="2" style="fill: steelblue;"></circle><circle cx="63.03853541612625" cy="66.08527824282646" r="2" style="fill: steelblue;"></circle><circle cx="37.752486765384674" cy="75.74466727674007" r="2" style="fill: steelblue;"></circle><circle cx="47.58428055793047" cy="59.88777540624142" r="2" style="fill: steelblue;"></circle><circle cx="54.85990680754185" cy="64.2634715884924" r="2" style="fill: steelblue;"></circle><circle cx="53.151752054691315" cy="45.48832233995199" r="2" style="fill: steelblue;"></circle><circle cx="27.02210545539856" cy="99.75518584251404" r="2" style="fill: steelblue;"></circle><circle cx="44.41794492304325" cy="66.22563786804676" r="2" style="fill: steelblue;"></circle><circle cx="38.52541968226433" cy="70.16815170645714" r="2" style="fill: steelblue;"></circle><circle cx="57.01616331934929" cy="70.46610787510872" r="2" style="fill: steelblue;"></circle><circle cx="42.02144145965576" cy="67.70255900919437" r="2" style="fill: steelblue;"></circle><circle cx="16.33695662021637" cy="89.94213044643402" r="2" style="fill: steelblue;"></circle><circle cx="15.971487760543823" cy="86.73765435814857" r="2" style="fill: steelblue;"></circle><circle cx="31.497643887996674" cy="50.1693531521596" r="2" style="fill: steelblue;"></circle><circle cx="40.509284287691116" cy="71.57912775874138" r="2" style="fill: steelblue;"></circle><circle cx="26.426105201244354" cy="52.14694207534194" r="2" style="fill: steelblue;"></circle><circle cx="40.508174896240234" cy="80.08193336427212" r="2" style="fill: steelblue;"></circle><circle cx="19.21028196811676" cy="81.705342233181" r="2" style="fill: steelblue;"></circle><circle cx="34.94899421930313" cy="34.20394770801067" r="2" style="fill: steelblue;"></circle><circle cx="20.43212056159973" cy="65.8594511449337" r="2" style="fill: steelblue;"></circle><circle cx="52.582635171711445" cy="29.283958673477173" r="2" style="fill: steelblue;"></circle><circle cx="58.550599962472916" cy="68.16368289291859" r="2" style="fill: steelblue;"></circle><circle cx="72.27054685354233" cy="20.232907682657242" r="2" style="fill: steelblue;"></circle><circle cx="66.0333588719368" cy="26.93154402077198" r="2" style="fill: steelblue;"></circle><circle cx="34.338656067848206" cy="54.372529219836" r="2" style="fill: steelblue;"></circle><circle cx="64.10422325134277" cy="26.886646822094917" r="2" style="fill: steelblue;"></circle><circle cx="69.30467784404755" cy="17.356644570827484" r="2" style="fill: steelblue;"></circle><circle cx="68.50477904081345" cy="25.400708615779877" r="2" style="fill: steelblue;"></circle><circle cx="77.19546854496002" cy="26.717330515384674" r="2" style="fill: steelblue;"></circle><circle cx="83.36285650730133" cy="5.597415566444397" r="2" style="fill: steelblue;"></circle><circle cx="79.19363975524902" cy="26.276075467467308" r="2" style="fill: steelblue;"></circle><circle cx="51.44479274749756" cy="34.28406938910484" r="2" style="fill: steelblue;"></circle><circle cx="39.16694223880768" cy="81.08273074030876" r="2" style="fill: steelblue;"></circle><circle cx="35.1365864276886" cy="66.4995901286602" r="2" style="fill: steelblue;"></circle><circle cx="51.658470183610916" cy="54.65418258681893" r="2" style="fill: steelblue;"></circle><circle cx="43.39080974459648" cy="36.32695525884628" r="2" style="fill: steelblue;"></circle><circle cx="34.536221623420715" cy="57.972017861902714" r="2" style="fill: steelblue;"></circle><circle cx="30.554932355880737" cy="41.623942740261555" r="2" style="fill: steelblue;"></circle><circle cx="67.99358874559402" cy="35.77110096812248" r="2" style="fill: steelblue;"></circle><circle cx="61.57868951559067" cy="30.090131983160973" r="2" style="fill: steelblue;"></circle><circle cx="91.98991358280182" cy="45.71519857272506" r="2" style="fill: steelblue;"></circle><circle cx="85.70870459079742" cy="25.721009075641632" r="2" style="fill: steelblue;"></circle><circle cx="59.04022455215454" cy="26.028766483068466" r="2" style="fill: steelblue;"></circle><circle cx="59.75715517997742" cy="72.6210169494152" r="2" style="fill: steelblue;"></circle><circle cx="54.221295565366745" cy="48.1086750049144" r="2" style="fill: steelblue;"></circle><circle cx="75.33791065216064" cy="10.183922201395035" r="2" style="fill: steelblue;"></circle><circle cx="80.41203320026398" cy="18.66021677851677" r="2" style="fill: steelblue;"></circle><circle cx="60.86973547935486" cy="30.94063438475132" r="2" style="fill: steelblue;"></circle><circle cx="55.753712356090546" cy="45.10794598609209" r="2" style="fill: steelblue;"></circle><circle cx="52.2905258461833" cy="48.68805147707462" r="2" style="fill: steelblue;"></circle><circle cx="40.865008533000946" cy="44.93478937074542" r="2" style="fill: steelblue;"></circle><circle cx="55.66446669399738" cy="17.09337830543518" r="2" style="fill: steelblue;"></circle><circle cx="86.59546673297882" cy="57.81937222927809" r="2" style="fill: steelblue;"></circle><circle cx="37.022753059864044" cy="71.40706218779087" r="2" style="fill: steelblue;"></circle><circle cx="67.68258512020111" cy="30.015764012932777" r="2" style="fill: steelblue;"></circle><circle cx="72.01222479343414" cy="49.212900816928595" r="2" style="fill: steelblue;"></circle><circle cx="77.7965098619461" cy="48.26171761378646" r="2" style="fill: steelblue;"></circle><circle cx="64.8368775844574" cy="24.957089871168137" r="2" style="fill: steelblue;"></circle><circle cx="59.067096561193466" cy="27.20402292907238" r="2" style="fill: steelblue;"></circle><circle cx="82.07729160785675" cy="21.481725573539734" r="2" style="fill: steelblue;"></circle><circle cx="35.91125011444092" cy="68.91697756946087" r="2" style="fill: steelblue;"></circle><circle cx="28.515371680259705" cy="63.03874608129263" r="2" style="fill: steelblue;"></circle><circle cx="31.41009360551834" cy="53.07511421851814" r="2" style="fill: steelblue;"></circle><circle cx="51.58290322870016" cy="78.4602902829647" r="2" style="fill: steelblue;"></circle><circle cx="65.05420356988907" cy="74.16456304490566" r="2" style="fill: steelblue;"></circle><circle cx="60.040684044361115" cy="56.81852363049984" r="2" style="fill: steelblue;"></circle><circle cx="25.045859813690186" cy="55.87663985788822" r="2" style="fill: steelblue;"></circle></g></svg>