<svg xmlns="http://www.w3.org/2000/svg"><g><circle cx="49.47386176791042" cy="68.40433776378632" r="2" style="fill: steelblue;"></circle><circle cx="45.30809745192528" cy="85.63632037904527" r="2" style="fill: steelblue;"></circle><circle cx="41.67623743414879" cy="59.75811117225223" r="2" style="fill: steelblue;"></circle><circle cx="37.97738831490278" cy="36.254936787817215" r="2" style="fill: steelblue;"></circle><circle cx="25.588273257017136" cy="68.06416246626112" r="2" style="fill: steelblue;"></circle><circle cx="46.86887580901384" cy="64.23604753282335" r="2" style="fill: steelblue;"></circle><circle cx="39.47016801685095" cy="31.982428663306774" r="2" style="fill: steelblue;"></circle><circle cx="45.431993156671524" cy="46.96550650729073" r="2" style="fill: steelblue;"></circle><circle cx="25.4603523761034" cy="47.299008982049095" r="2" style="fill: steelblue;"></circle><circle cx="47.33578087761998" cy="28.345140483644272" r="2" style="fill: steelblue;"></circle><circle cx="64.02647327631712" cy="53.757917715443504" r="2" style="fill: steelblue;"></circle><circle cx="31.92428983747959" cy="34.996179408497284" r="2" style="fill: steelblue;"></circle><circle cx="22.876839339733127" cy="62.291283739937676" r="2" style="fill: steelblue;"></circle><circle cx="18.409996479749683" cy="72.12312122186025" r="2" style="fill: steelblue;"></circle><circle cx="39.17714226990938" cy="41.80290235413445" r="2" style="fill: steelblue;"></circle><circle cx="7.728710025548938" cy="18.74540514416165" r="2" style="fill: steelblue;"></circle><circle cx="30.861129239201546" cy="84.33006472057767" r="2" style="fill: steelblue;"></circle><circle cx="50.77839457662776" cy="76.72495908207364" r="2" style="fill: steelblue;"></circle><circle cx="38.26981242746115" cy="32.62800160381529" r="2" style="fill: steelblue;"></circle><circle cx="59.805018082261086" cy="46.97572622034285" r="2" style="fill: steelblue;"></circle><circle cx="78.65765802562237" cy="28.990764750374687" r="2" style="fill: steelblue;"></circle><circle cx="68.91474239528179" cy="51.080228719446396" r="2" style="fill: steelblue;"></circle><circle cx="11.957242339849476" cy="24.713960952228973" r="2" style="fill: steelblue;"></circle><circle cx="52.84274714067578" cy="51.36492037110858" r="2" style="fill: steelblue;"></circle><circle cx="27.979499846696854" cy="19.510306583510506" r="2" style="fill: steelblue;"></circle><circle cx="34.245190396904945" cy="47.07406436403593" r="2" style="fill: steelblue;"></circle><circle cx="25.796561688184738" cy="70.70827583471934" r="2" style="fill: steelblue;"></circle><circle cx="43.6546366661787" cy="46.39259887238344" r="2" style="fill: steelblue;"></circle><circle cx="17.150121927261356" cy="62.609226504961654" r="2" style="fill: steelblue;"></circle><circle cx="34.99211575835943" cy="62.35476599799262" r="2" style="fill: steelblue;"></circle><circle cx="48.02075116895139" cy="28.892307811313213" r="2" style="fill: steelblue;"></circle><circle cx="60.33191941678524" cy="37.94409806529681" r="2" style="fill: steelblue;"></circle><circle cx="93.9145565032959" cy="45.6528572158681" r="2" style="fill: steelblue;"></circle><circle cx="42.405857890844345" cy="52.9027897450659" r="2" style="fill: steelblue;"></circle><circle cx="57.17077683657408" cy="34.17076766490936" r="2" style="fill: steelblue;"></circle><circle cx="80.69580905139446" cy="67.79439515537686" r="2" style="fill: steelblue;"></circle><circle cx="53.56254447251558" cy="14.983312288920093" r="2" style="fill: steelblue;"></circle><circle cx="85.46590730547905" cy="52.67490131987466" r="2" style="fill: steelblue;"></circle><circle cx="27.53238119184971" cy="37.69014171428151" r="2" style="fill: steelblue;"></circle><circle cx="24.276144057512287" cy="29.91050581137339" r="2" style="fill: steelblue;"></circle><circle cx="58.880577981472015" cy="39.5460006263521" r="2" style="fill: steelblue;"></circle><circle cx="29.796506464481354" cy="12.184854348500574" r="2" style="fill: steelblue;"></circle><circle cx="83.92302989959717" cy="22.288035353024803" r="2" style="fill: steelblue;"></circle><circle cx="57.234842982143164" cy="40.2879203359286" r="2" style="fill: steelblue;"></circle><circle cx="69.81996558606625" cy="31.24043610360887" r="2" style="fill: steelblue;"></circle><circle cx="77.11962908506393" cy="26.83508495489756" r="2" style="fill: steelblue;"></circle><circle cx="56.582504604011774" cy="45.08152889708678" r="2" style="fill: steelblue;"></circle><circle cx="82.34004974365234" cy="66.94790654712253" r="2" style="fill: steelblue;"></circle><circle cx="27.67617180943489" cy="57.74621185329225" r="2" style="fill: steelblue;"></circle><circle cx="9.425706416368488" cy="69.92750300301445" r="2" style="fill: steelblue;"></circle><circle cx="6.823043525218966" cy="56.81790759166082" r="2" style="fill: steelblue;"></circle><circle cx="30.92655837535858" cy="37.121142115857864" r="2" style="fill: steelblue;"></circle><circle cx="57.361303083598614" cy="38.25342423386044" r="2" style="fill: steelblue;"></circle><circle cx="83.58341380953789" cy="52.61044220791923" r="2" style="fill: steelblue;"></circle><circle cx="49.19578869594261" cy="12.804928090837265" r="2" style="fill: steelblue;"></circle><circle cx="36.80306877940893" cy="46.850228640768265" r="2" style="fill: steelblue;"></circle><circle cx="38.691333681344986" cy="51.227359887626434" r="2" style="fill: steelblue;"></circle><circle cx="38.94564714282751" cy="53.78307501475017" r="2" style="fill: steelblue;"></circle><circle cx="49.65060121030547" cy="79.56427269511752" r="2" style="fill: steelblue;"></circle><circle cx="21.504425629973415" cy="72.91140092743767" r="2" style="fill: steelblue;"></circle><circle cx="34.11992751061916" cy="70.99287807941437" r="2" style="fill: steelblue;"></circle><circle cx="15.252641588449482" cy="56.52818928162257" r="2" style="fill: steelblue;"></circle><circle cx="27.468568831682205" cy="50.26704834567176" r="2" style="fill: steelblue;"></circle><circle cx="27.908216416835785" cy="60.41507356696658" r="2" style="fill: steelblue;"></circle><circle cx="8.792015910148624" cy="90.76388610733879" r="2" style="fill: steelblue;"></circle><circle cx="25.016385316848755" cy="72.80553645557828" r="2" style="fill: steelblue;"></circle><circle cx="46.98489811271429" cy="66.55080715815227" r="2" style="fill: steelblue;"></circle><circle cx="15.921137481927875" cy="73.56570098135207" r="2" style="fill: steelblue;"></circle><circle cx="34.1141439974308" cy="84.20376247829861" r="2" style="fill: steelblue;"></circle><circle cx="14.119985699653629" cy="66.88412792152829" r="2" style="fill: steelblue;"></circle><circle cx="41.26862734556198" cy="63.034361600875854" r="2" style="fill: steelblue;"></circle><circle cx="59.37213841825724" cy="17.37601823276944" r="2" style="fill: steelblue;"></circle><circle cx="70.04891633987427" cy="66.23513930373721" r="2" style="fill: steelblue;"></circle><circle cx="85.33653542399406" cy="24.561262130737305" r="2" style="fill: steelblue;"></circle><circle cx="68.38269829750061" cy="40.77084047926797" r="2" style="fill: steelblue;"></circle><circle cx="68.81921477615833" cy="54.824247294002106" r="2" style="fill: steelblue;"></circle><circle cx="91.7468398809433" cy="59.60904492272271" r="2" style="fill: steelblue;"></circle><circle cx="72.59557694196701" cy="66.63765443695915" r="2" style="fill: steelblue;"></circle><circle cx="53.825186751782894" cy="31.591770715183685" r="2" style="fill: steelblue;"></circle><circle cx="91.8940857052803" cy="44.499813000826784" r="2" style="fill: steelblue;"></circle><circle cx="80.43489716947079" cy="20.504442519611786" r="2" style="fill: steelblue;"></circle><circle cx="78.39396148920059" cy="3.5626815425025105" r="2" style="fill: steelblue;"></circle><circle cx="83.80891680717468" cy="44.66424205650886" r="2" style="fill: steelblue;"></circle><circle cx="37.30653245002031" cy="53.92205235030916" r="2" style="fill: steelblue;"></circle><circle cx="34.42524578422308" cy="49.2409879134761" r="2" style="fill: steelblue;"></circle><circle cx="21.465559676289562" cy="50.392122483915756" r="2" style="fill: steelblue;"></circle><circle cx="73.85516464710236" cy="54.309877422120834" r="2" style="fill: steelblue;"></circle><circle cx="13.897790759801868" cy="63.948486579789055" r="2" style="fill: steelblue;"></circle><circle cx="23.323544487357143" cy="31.729686756928764" r="2" style="fill: steelblue;"></circle><circle cx="92.145986109972" cy="35.06112943092982" r="2" style="fill: steelblue;"></circle><circle cx="69.68047767877579" cy="56.624330745802986" r="2" style="fill: steelblue;"></circle><circle cx="70.71714960038662" cy="37.64854595065117" r="2" style="fill: steelblue;"></circle><circle cx="93.35588216781616" cy="28.710548414124382" r="2" style="fill: steelblue;"></circle><circle cx="71.26412652432919" cy="19.16279329193963" r="2" style="fill: steelblue;"></circle><circle cx="48.54796065483242" cy="23.2939084370931" r="2" style="fill: steelblue;"></circle><circle cx="76.92494355142117" cy="52.053687638706634" r="2" style="fill: steelblue;"></circle><circle cx="62.51307036727667" cy="0.8299840821160198" r="2" style="fill: steelblue;"></circle><circle cx="50.03495253258734" cy="52.65890823470222" r="2" style="fill: steelblue;"></circle><circle cx="71.8394435942173" cy="26.832977268430923" r="2" style="fill: steelblue;"></circle><circle cx="18.402869999408725" cy="76.37491424878439" r="2" style="fill: steelblue;"></circle><circle cx="52.24226829595864" cy="53.27381706900067" r="2" style="fill: steelblue;"></circle><circle cx="51.299223862588406" cy="53.328137596448265" r="2" style="fill: steelblue;"></circle><circle cx="56.54076039791107" cy="27.140197820133636" r="2" style="fill: steelblue;"></circle><circle cx="66.8529748916626" cy="22.857065995534263" r="2" style="fill: steelblue;"></circle><circle cx="86.43270954489708" cy="85.36538746621873" r="2" style="fill: steelblue;"></circle><circle cx="91.49561747908592" cy="18.77427366044786" r="2" style="fill: steelblue;"></circle><circle cx="63.082846999168396" cy="43.373119251595604" r="2" style="fill: steelblue;"></circle><circle cx="58.62972717732191" cy="36.92866464455923" r="2" style="fill: steelblue;"></circle><circle cx="31.83637112379074" cy="37.8787593709098" r="2" style="fill: steelblue;"></circle><circle cx="83.8754877448082" cy="11.962992615169954" r="2" style="fill: steelblue;"></circle><circle cx="54.23590373247862" cy="61.383034785588585" r="2" style="fill: steelblue;"></circle><circle cx="64.00073152035475" cy="42.978637086020576" r="2" style="fill: steelblue;"></circle><circle cx="72.03236892819405" cy="63.6735286977556" r="2" style="fill: steelblue;"></circle><circle cx="22.70552441477776" cy="77.33636365996468" r="2" style="fill: steelblue;"></circle><circle cx="36.35005857795477" cy="77.76108317905002" r="2" style="fill: steelblue;"></circle><circle cx="20.75777314603329" cy="71.27936283747356" r="2" style="fill: steelblue;"></circle><circle cx="32.01892897486687" cy="64.0561044216156" r="2" style="fill: steelblue;"></circle><circle cx="44.039477314800024" cy="60.17238001028697" r="2" style="fill: steelblue;"></circle></g></svg>