<svg xmlns="http://www.w3.org/2000/svg"><g><circle cx="27.710186110602486" cy="87.49370202422142" r="2" style="fill: steelblue;"></circle><circle cx="29.15951775179969" cy="45.788280852138996" r="2" style="fill: steelblue;"></circle><circle cx="77.62227290206485" cy="50.748945865780115" r="2" style="fill: steelblue;"></circle><circle cx="54.8153204532961" cy="96.67411372065544" r="2" style="fill: steelblue;"></circle><circle cx="34.7499003012975" cy="97.6628877222538" r="2" style="fill: steelblue;"></circle><circle cx="47.45623386568493" cy="96.86549678444862" r="2" style="fill: steelblue;"></circle><circle cx="32.042288117938575" cy="69.62906122207642" r="2" style="fill: steelblue;"></circle><circle cx="45.844193134042946" cy="59.90645028650761" r="2" style="fill: steelblue;"></circle><circle cx="42.7780763970481" cy="58.27412959188223" r="2" style="fill: steelblue;"></circle><circle cx="58.548781813846695" cy="58.06036591529846" r="2" style="fill: steelblue;"></circle><circle cx="32.99485974841648" cy="55.69075578823686" r="2" style="fill: steelblue;"></circle><circle cx="78.46622831291621" cy="60.65283827483654" r="2" style="fill: steelblue;"></circle><circle cx="33.77832141187456" cy="66.45967923104763" r="2" style="fill: steelblue;"></circle><circle cx="21.878735886679753" cy="53.22947185486555" r="2" style="fill: steelblue;"></circle><circle cx="52.68156445688671" cy="69.70335841178894" r="2" style="fill: steelblue;"></circle><circle cx="49.51535248094135" cy="54.897646605968475" r="2" style="fill: steelblue;"></circle><circle cx="53.19747784071498" cy="46.602730825543404" r="2" style="fill: steelblue;"></circle><circle cx="72.46433032883537" cy="66.64801687002182" r="2" style="fill: steelblue;"></circle><circle cx="86.00637316703796" cy="77.44665741920471" r="2" style="fill: steelblue;"></circle><circle cx="79.97299234072366" cy="52.51287152059376" r="2" style="fill: steelblue;"></circle><circle cx="42.328499257564545" cy="68.7386404722929" r="2" style="fill: steelblue;"></circle><circle cx="82.76629447937012" cy="27.958740666508675" r="2" style="fill: steelblue;"></circle><circle cx="22.55104316605462" cy="63.82850110530853" r="2" style="fill: steelblue;"></circle><circle cx="40.668588545587326" cy="75.65665915608406" r="2" style="fill: steelblue;"></circle><circle cx="49.89111257923974" cy="74.6031042188406" r="2" style="fill: steelblue;"></circle><circle cx="58.23770848413309" cy="34.7688851878047" r="2" style="fill: steelblue;"></circle><circle cx="58.47134648097886" cy="70.63647285103798" r="2" style="fill: steelblue;"></circle><circle cx="31.00249336825477" cy="60.76249312609434" r="2" style="fill: steelblue;"></circle><circle cx="32.945288552178276" cy="30.88962584733963" r="2" style="fill: steelblue;"></circle><circle cx="51.497826973597206" cy="27.647116407752037" r="2" style="fill: steelblue;"></circle><circle cx="81.44056962596046" cy="41.89779628068209" r="2" style="fill: steelblue;"></circle><circle cx="83.3243578672409" cy="20.050375908613205" r="2" style="fill: steelblue;"></circle><circle cx="57.25776093701521" cy="43.06632997468114" r="2" style="fill: steelblue;"></circle><circle cx="57.97164473268721" cy="48.77772235777229" r="2" style="fill: steelblue;"></circle><circle cx="64.50184517436557" cy="53.51101788692176" r="2" style="fill: steelblue;"></circle><circle cx="44.76619097921583" cy="52.19731987453997" r="2" style="fill: steelblue;"></circle><circle cx="25.41986438963148" cy="54.40869573503733" r="2" style="fill: steelblue;"></circle><circle cx="25.464716884824963" cy="72.44750410318375" r="2" style="fill: steelblue;"></circle><circle cx="22.400240103403725" cy="86.84012219309807" r="2" style="fill: steelblue;"></circle><circle cx="33.809199929237366" cy="84.06388312578201" r="2" style="fill: steelblue;"></circle><circle cx="42.40550845861435" cy="71.61599509418011" r="2" style="fill: steelblue;"></circle><circle cx="88.70503306388855" cy="8.338383585214615" r="2" style="fill: steelblue;"></circle><circle cx="46.164607836140526" cy="62.672919780015945" r="2" style="fill: steelblue;"></circle><circle cx="65.46692964103487" cy="55.290092434734106" r="2" style="fill: steelblue;"></circle><circle cx="81.03873332341512" cy="39.94727339595556" r="2" style="fill: steelblue;"></circle><circle cx="57.04812126027213" cy="33.792200684547424" r="2" style="fill: steelblue;"></circle><circle cx="75.84745188554128" cy="26.919524371623993" r="2" style="fill: steelblue;"></circle><circle cx="37.465646862983704" cy="76.44128166139126" r="2" style="fill: steelblue;"></circle><circle cx="53.102091782622864" cy="28.348515927791595" r="2" style="fill: steelblue;"></circle><circle cx="27.196953694025677" cy="26.11372359097004" r="2" style="fill: steelblue;"></circle><circle cx="42.66497244437535" cy="40.15497136861086" r="2" style="fill: steelblue;"></circle><circle cx="72.79928194151985" cy="58.591415360569954" r="2" style="fill: steelblue;"></circle><circle cx="57.132924389508034" cy="64.35584295541048" r="2" style="fill: steelblue;"></circle><circle cx="52.04137787222862" cy="32.006220147013664" r="2" style="fill: steelblue;"></circle><circle cx="64.00686088535521" cy="80.46650253236294" r="2" style="fill: steelblue;"></circle><circle cx="28.07903620931837" cy="76.8839281052351" r="2" style="fill: steelblue;"></circle><circle cx="26.551832755406696" cy="20.910651609301567" r="2" style="fill: steelblue;"></circle><circle cx="41.38578805658552" cy="49.492378905415535" r="2" style="fill: steelblue;"></circle><circle cx="41.6929531428549" cy="62.060895562171936" r="2" style="fill: steelblue;"></circle><circle cx="69.48843598365784" cy="42.34190909191966" r="2" style="fill: steelblue;"></circle><circle cx="27.91741159227159" cy="53.55546153150499" r="2" style="fill: steelblue;"></circle><circle cx="64.39396325084898" cy="71.65691927075386" r="2" style="fill: steelblue;"></circle><circle cx="62.76163458824158" cy="56.28633704036474" r="2" style="fill: steelblue;"></circle><circle cx="31.91172745492723" cy="84.39938649535179" r="2" style="fill: steelblue;"></circle><circle cx="30.240340365303886" cy="47.2919465508312" r="2" style="fill: steelblue;"></circle><circle cx="17.41789115799798" cy="81.24882094562054" r="2" style="fill: steelblue;"></circle><circle cx="60.953427106142044" cy="81.15311823785305" r="2" style="fill: steelblue;"></circle><circle cx="36.98665234777662" cy="78.92862819135189" r="2" style="fill: steelblue;"></circle><circle cx="17.675062020619713" cy="52.4076031986624" r="2" style="fill: steelblue;"></circle><circle cx="29.937754074732464" cy="77.39986404776573" r="2" style="fill: steelblue;"></circle><circle cx="8.493648635016546" cy="74.8296782374382" r="2" style="fill: steelblue;"></circle><circle cx="78.00471782684326" cy="32.61708207428455" r="2" style="fill: steelblue;"></circle><circle cx="60.643037574158775" cy="26.56293958425522" r="2" style="fill: steelblue;"></circle><circle cx="72.30642603503334" cy="66.2134412676096" r="2" style="fill: steelblue;"></circle><circle cx="84.37059985266792" cy="46.85509060509503" r="2" style="fill: steelblue;"></circle><circle cx="54.14555128663778" cy="52.76584085077047" r="2" style="fill: steelblue;"></circle><circle cx="59.86942847569784" cy="34.383598901331425" r="2" style="fill: steelblue;"></circle><circle cx="92.04255872302585" cy="64.91961907595396" r="2" style="fill: steelblue;"></circle><circle cx="83.30309391021729" cy="30.70397973060608" r="2" style="fill: steelblue;"></circle><circle cx="70.50662073824141" cy="28.47280278801918" r="2" style="fill: steelblue;"></circle><circle cx="78.93575562371147" cy="47.36749776639044" r="2" style="fill: steelblue;"></circle><circle cx="96.87510463926527" cy="10.717551410198212" r="2" style="fill: steelblue;"></circle><circle cx="64.41685060660043" cy="47.84855358302593" r="2" style="fill: steelblue;"></circle><circle cx="35.6816119617886" cy="46.606094064190984" r="2" style="fill: steelblue;"></circle><circle cx="74.31576318211025" cy="57.61971529573202" r="2" style="fill: steelblue;"></circle><circle cx="43.9273069302241" cy="57.51708820462227" r="2" style="fill: steelblue;"></circle><circle cx="67.34902494483524" cy="54.462406039237976" r="2" style="fill: steelblue;"></circle><circle cx="70.60611082447899" cy="59.03994683176279" r="2" style="fill: steelblue;"></circle><circle cx="59.973417884773674" cy="51.4049707679078" r="2" style="fill: steelblue;"></circle><circle cx="72.18534582191043" cy="47.922648675739765" r="2" style="fill: steelblue;"></circle><circle cx="85.55828200446236" cy="16.658979654312134" r="2" style="fill: steelblue;"></circle><circle cx="82.45167798466152" cy="40.50894472748041" r="2" style="fill: steelblue;"></circle><circle cx="37.49369581540425" cy="39.919500425457954" r="2" style="fill: steelblue;"></circle><circle cx="38.633661137686836" cy="32.78890922665596" r="2" style="fill: steelblue;"></circle><circle cx="56.98458281242185" cy="52.327771158888936" r="2" style="fill: steelblue;"></circle><circle cx="46.78480409913593" cy="15.890828520059586" r="2" style="fill: steelblue;"></circle><circle cx="77.54273381498125" cy="20.492074266076088" r="2" style="fill: steelblue;"></circle><circle cx="62.571555376052856" cy="20.228664577007294" r="2" style="fill: steelblue;"></circle><circle cx="83.85986089706421" cy="45.883531868457794" r="2" style="fill: steelblue;"></circle><circle cx="28.015351957745022" cy="49.60536474827677" r="2" style="fill: steelblue;"></circle><circle cx="76.35636130968729" cy="26.3653464615345" r="2" style="fill: steelblue;"></circle><circle cx="54.328106654187046" cy="37.96170670539141" r="2" style="fill: steelblue;"></circle><circle cx="63.97067507108053" cy="28.446969762444496" r="2" style="fill: steelblue;"></circle><circle cx="26.703109343846638" cy="35.54221075028181" r="2" style="fill: steelblue;"></circle><circle cx="75.69276127550337" cy="29.655809700489044" r="2" style="fill: steelblue;"></circle><circle cx="59.360468139251076" cy="63.280829414725304" r="2" style="fill: steelblue;"></circle><circle cx="63.84903440872828" cy="37.7195144072175" r="2" style="fill: steelblue;"></circle><circle cx="61.20733461446232" cy="29.197191074490547" r="2" style="fill: steelblue;"></circle><circle cx="53.375636330909195" cy="13.299170136451721" r="2" style="fill: steelblue;"></circle><circle cx="47.98773924509684" cy="50.06703191320412" r="2" style="fill: steelblue;"></circle><circle cx="74.3682798412111" cy="7.6858095824718475" r="2" style="fill: steelblue;"></circle><circle cx="73.46788379881117" cy="58.64074844866991" r="2" style="fill: steelblue;"></circle><circle cx="37.43299345175426" cy="85.15130653977394" r="2" style="fill: steelblue;"></circle><circle cx="39.29961224397023" cy="76.24952234327793" r="2" style="fill: steelblue;"></circle><circle cx="50.54762835303942" cy="60.994442738592625" r="2" style="fill: steelblue;"></circle><circle cx="24.558696481916638" cy="78.0064195394516" r="2" style="fill: steelblue;"></circle><circle cx="54.11327506105105" cy="81.82542696595192" r="2" style="fill: steelblue;"></circle><circle cx="36.47091653611925" cy="83.25916826725006" r="2" style="fill: steelblue;"></circle></g></svg>