<svg xmlns="http://www.w3.org/2000/svg"><g><circle cx="14.455294609069824" cy="94.82346640692818" r="2" style="fill: steelblue;"></circle><circle cx="50.79420683905482" cy="75.10509921444786" r="2" style="fill: steelblue;"></circle><circle cx="33.27045738697052" cy="91.13278322749667" r="2" style="fill: steelblue;"></circle><circle cx="18.192291259765625" cy="79.57864469952054" r="2" style="fill: steelblue;"></circle><circle cx="34.84492748975754" cy="77.25922101073795" r="2" style="fill: steelblue;"></circle><circle cx="63.26363533735275" cy="76.21743281682332" r="2" style="fill: steelblue;"></circle><circle cx="24.96059536933899" cy="53.942350049813584" r="2" style="fill: steelblue;"></circle><circle cx="60.51061674952507" cy="94.76390812132094" r="2" style="fill: steelblue;"></circle><circle cx="34.012214839458466" cy="43.35471904940075" r="2" style="fill: steelblue;"></circle><circle cx="37.13478595018387" cy="70.64885232183669" r="2" style="fill: steelblue;"></circle><circle cx="58.56676027178764" cy="68.55440884828568" r="2" style="fill: steelblue;"></circle><circle cx="40.83548113703728" cy="60.75054407119751" r="2" style="fill: steelblue;"></circle><circle cx="51.101985946297646" cy="28.627981742223106" r="2" style="fill: steelblue;"></circle><circle cx="33.30651968717575" cy="93.68036521805656" r="2" style="fill: steelblue;"></circle><circle cx="42.061732709407806" cy="45.32379160324732" r="2" style="fill: steelblue;"></circle><circle cx="13.740023970603943" cy="77.80795296033223" r="2" style="fill: steelblue;"></circle><circle cx="44.281017780303955" cy="80.95438447263506" r="2" style="fill: steelblue;"></circle><circle cx="30.20695447921753" cy="80.25122847821977" r="2" style="fill: steelblue;"></circle><circle cx="64.14172500371933" cy="32.82237880759769" r="2" style="fill: steelblue;"></circle><circle cx="72.31239527463913" cy="48.75069152977731" r="2" style="fill: steelblue;"></circle><circle cx="66.16838127374649" cy="59.14002615544531" r="2" style="fill: steelblue;"></circle><circle cx="32.03022927045822" cy="54.275443363520836" r="2" style="fill: steelblue;"></circle><circle cx="37.95551881194115" cy="45.92507415347629" r="2" style="fill: steelblue;"></circle><circle cx="38.87124061584473" cy="61.79233392079671" r="2" style="fill: steelblue;"></circle><circle cx="16.813132166862488" cy="90.9484194384681" r="2" style="fill: steelblue;"></circle><circle cx="55.79223595559597" cy="92.49916010432773" r="2" style="fill: steelblue;"></circle><circle cx="33.18971544504166" cy="78.05472943517897" r="2" style="fill: steelblue;"></circle><circle cx="48.63825226202607" cy="66.54931935999129" r="2" style="fill: steelblue;"></circle><circle cx="18.0417001247406" cy="67.12460683451758" r="2" style="fill: steelblue;"></circle><circle cx="65.67257046699524" cy="48.43872123294406" r="2" style="fill: steelblue;"></circle><circle cx="60.840655118227005" cy="29.70097131199306" r="2" style="fill: steelblue;"></circle><circle cx="72.47530072927475" cy="46.16594894064797" r="2" style="fill: steelblue;"></circle><circle cx="73.06648790836334" cy="28.337450491057503" r="2" style="fill: steelblue;"></circle><circle cx="48.41947853565216" cy="38.90442185931735" r="2" style="fill: steelblue;"></circle><circle cx="56.01290389895439" cy="43.35410396258036" r="2" style="fill: steelblue;"></circle><circle cx="58.09464007616043" cy="91.80516997973123" r="2" style="fill: steelblue;"></circle><circle cx="40.8977136015892" cy="83.49002069897121" r="2" style="fill: steelblue;"></circle><circle cx="42.74080619215965" cy="34.29132534397973" r="2" style="fill: steelblue;"></circle><circle cx="26.266349852085114" cy="69.9335816833708" r="2" style="fill: steelblue;"></circle><circle cx="47.48634807765484" cy="37.26130558384789" r="2" style="fill: steelblue;"></circle><circle cx="72.45334386825562" cy="65.03378599882126" r="2" style="fill: steelblue;"></circle><circle cx="75.39635896682739" cy="27.193572786119248" r="2" style="fill: steelblue;"></circle><circle cx="56.088144704699516" cy="36.07174257437388" r="2" style="fill: steelblue;"></circle><circle cx="68.36737394332886" cy="36.045302947362266" r="2" style="fill: steelblue;"></circle><circle cx="55.74011541903019" cy="45.375995337963104" r="2" style="fill: steelblue;"></circle><circle cx="75.50442218780518" cy="62.05138895246718" r="2" style="fill: steelblue;"></circle><circle cx="31.662018597126007" cy="43.42590603563521" r="2" style="fill: steelblue;"></circle><circle cx="19.14512813091278" cy="85.88698506355286" r="2" style="fill: steelblue;"></circle><circle cx="24.706822633743286" cy="93.10439891285365" r="2" style="fill: steelblue;"></circle><circle cx="20.553845167160034" cy="80.49738903840382" r="2" style="fill: steelblue;"></circle><circle cx="54.40408103168011" cy="44.859545926253" r="2" style="fill: steelblue;"></circle><circle cx="19.98373568058014" cy="62.98763139380349" r="2" style="fill: steelblue;"></circle><circle cx="37.879637628793716" cy="78.43222386307187" r="2" style="fill: steelblue;"></circle><circle cx="45.10496035218239" cy="61.39402174287372" r="2" style="fill: steelblue;"></circle><circle cx="57.936666905879974" cy="46.459216210577225" r="2" style="fill: steelblue;"></circle><circle cx="32.34524875879288" cy="66.67478465371661" r="2" style="fill: steelblue;"></circle><circle cx="54.21577990055084" cy="88.45379617479112" r="2" style="fill: steelblue;"></circle><circle cx="36.93167269229889" cy="58.6539376527071" r="2" style="fill: steelblue;"></circle><circle cx="66.23155474662781" cy="71.2996307346556" r="2" style="fill: steelblue;"></circle><circle cx="38.17470893263817" cy="68.80467881759007" r="2" style="fill: steelblue;"></circle><circle cx="19.64544653892517" cy="36.99293070369296" r="2" style="fill: steelblue;"></circle><circle cx="25.794024765491486" cy="26.523709297180176" r="2" style="fill: steelblue;"></circle><circle cx="4.609659314155579" cy="89.88225128915575" r="2" style="fill: steelblue;"></circle><circle cx="7.538917660713196" cy="98.85603851742214" r="2" style="fill: steelblue;"></circle><circle cx="38.16690444946289" cy="89.60627184973823" r="2" style="fill: steelblue;"></circle><circle cx="24.971702694892883" cy="97.75892562336391" r="2" style="fill: steelblue;"></circle><circle cx="23.917585611343384" cy="51.25413214166959" r="2" style="fill: steelblue;"></circle><circle cx="60.450179874897" cy="72.02020618650648" r="2" style="fill: steelblue;"></circle><circle cx="17.391332983970642" cy="53.785540991359284" r="2" style="fill: steelblue;"></circle><circle cx="47.57793713361025" cy="76.61275896761153" r="2" style="fill: steelblue;"></circle><circle cx="14.643409848213196" cy="88.03407351175943" r="2" style="fill: steelblue;"></circle><circle cx="64.3913671374321" cy="30.150208208296036" r="2" style="fill: steelblue;"></circle><circle cx="61.11847534775734" cy="49.43193453881476" r="2" style="fill: steelblue;"></circle><circle cx="77.02809870243073" cy="36.935821175575256" r="2" style="fill: steelblue;"></circle><circle cx="53.05855888873339" cy="27.32521626684401" r="2" style="fill: steelblue;"></circle><circle cx="45.89683152735233" cy="62.09887895319197" r="2" style="fill: steelblue;"></circle><circle cx="72.8761613368988" cy="53.36024488011996" r="2" style="fill: steelblue;"></circle><circle cx="53.77677530050278" cy="31.182401710086395" r="2" style="fill: steelblue;"></circle><circle cx="47.96872306615114" cy="19.46269803576999" r="2" style="fill: steelblue;"></circle><circle cx="64.6350085735321" cy="81.48589399125841" r="2" style="fill: steelblue;"></circle><circle cx="74.67431426048279" cy="8.025076654222275" r="2" style="fill: steelblue;"></circle><circle cx="92.24546253681183" cy="24.426874187257553" r="2" style="fill: steelblue;"></circle><circle cx="56.61469027400017" cy="54.049342042869995" r="2" style="fill: steelblue;"></circle><circle cx="40.535734593868256" cy="34.91158452298906" r="2" style="fill: steelblue;"></circle><circle cx="34.10608768463135" cy="92.59589182005989" r="2" style="fill: steelblue;"></circle><circle cx="41.484442353248596" cy="76.6253156794442" r="2" style="fill: steelblue;"></circle><circle cx="47.25682307034731" cy="65.62343322568469" r="2" style="fill: steelblue;"></circle><circle cx="66.40995591878891" cy="32.29209946261512" r="2" style="fill: steelblue;"></circle><circle cx="56.730351597070694" cy="68.58500258790122" r="2" style="fill: steelblue;"></circle><circle cx="59.373778104782104" cy="5.862434705098474" r="2" style="fill: steelblue;"></circle><circle cx="55.32130151987076" cy="20.51600482728746" r="2" style="fill: steelblue;"></circle><circle cx="63.79447430372238" cy="22.316012117597793" r="2" style="fill: steelblue;"></circle><circle cx="49.69175551086664" cy="12.330482403437292" r="2" style="fill: steelblue;"></circle><circle cx="52.33028568327427" cy="46.27178940508101" r="2" style="fill: steelblue;"></circle><circle cx="55.59246987104416" cy="41.1355197429657" r="2" style="fill: steelblue;"></circle><circle cx="58.97243693470955" cy="24.27724997202555" r="2" style="fill: steelblue;"></circle><circle cx="61.074621975421906" cy="16.969750324885048" r="2" style="fill: steelblue;"></circle><circle cx="34.71137881278992" cy="58.602685936623146" r="2" style="fill: steelblue;"></circle><circle cx="68.5273602604866" cy="80.90016576978896" r="2" style="fill: steelblue;"></circle><circle cx="65.68276137113571" cy="32.77169167995453" r="2" style="fill: steelblue;"></circle><circle cx="49.95317311550025" cy="64.84886258840561" r="2" style="fill: steelblue;"></circle><circle cx="56.92307651042938" cy="41.48368537425995" r="2" style="fill: steelblue;"></circle><circle cx="66.40593707561493" cy="36.58793701065911" r="2" style="fill: steelblue;"></circle><circle cx="85.61111092567444" cy="44.96801065074073" r="2" style="fill: steelblue;"></circle><circle cx="79.703289270401" cy="43.0054184463289" r="2" style="fill: steelblue;"></circle><circle cx="73.63985180854797" cy="37.717739741007485" r="2" style="fill: steelblue;"></circle><circle cx="72.54918068647385" cy="34.83276400301192" r="2" style="fill: steelblue;"></circle><circle cx="64.80840742588043" cy="58.63627170523007" r="2" style="fill: steelblue;"></circle><circle cx="58.88036862015724" cy="37.58665257030063" r="2" style="fill: steelblue;"></circle><circle cx="41.68143644928932" cy="33.42882792154948" r="2" style="fill: steelblue;"></circle><circle cx="70.68994045257568" cy="38.27877342700958" r="2" style="fill: steelblue;"></circle><circle cx="53.10046374797821" cy="65.83816309769948" r="2" style="fill: steelblue;"></circle><circle cx="20.425590872764587" cy="65.84524611632028" r="2" style="fill: steelblue;"></circle><circle cx="57.62682631611824" cy="45.480504631996155" r="2" style="fill: steelblue;"></circle><circle cx="33.58806073665619" cy="69.17588661114374" r="2" style="fill: steelblue;"></circle><circle cx="40.21695479750633" cy="83.14656052324507" r="2" style="fill: steelblue;"></circle><circle cx="27.112555503845215" cy="62.64580951796637" r="2" style="fill: steelblue;"></circle><circle cx="53.40318977832794" cy="48.32857681645287" r="2" style="fill: steelblue;"></circle></g></svg>