<svg xmlns="http://www.w3.org/2000/svg"><g transform="translate(40,20)"><circle cx="276.51744425296783" cy="70.40870520803662" r="3" style="fill: steelblue;"></circle><circle cx="329.87642526626587" cy="123.9274673991733" r="3" style="fill: steelblue;"></circle><circle cx="158.81517469882968" cy="123.33480599853726" r="3" style="fill: steelblue;"></circle><circle cx="237.49621599912646" cy="229.59641118844348" r="3" style="fill: steelblue;"></circle><circle cx="342.61322557926184" cy="159.35231000185013" r="3" style="fill: steelblue;"></circle><circle cx="335.6553786993027" cy="74.9237404929267" r="3" style="fill: steelblue;"></circle><circle cx="354.68161940574646" cy="127.8903302219179" r="3" style="fill: steelblue;"></circle><circle cx="214.36275109648705" cy="179.0728380696641" r="3" style="fill: steelblue;"></circle><circle cx="313.7135097384453" cy="176.51711507803861" r="3" style="fill: steelblue;"></circle><circle cx="481.0862624645233" cy="110.32747228940326" r="3" style="fill: steelblue;"></circle><circle cx="450.7539653778076" cy="192.44834959196544" r="3" style="fill: steelblue;"></circle><circle cx="241.93361341953278" cy="181.4380987650818" r="3" style="fill: steelblue;"></circle><circle cx="253.8883162289858" cy="242.36906609601442" r="3" style="fill: steelblue;"></circle><circle cx="423.7625026702881" cy="139.9465302626292" r="3" style="fill: steelblue;"></circle><circle cx="206.34542271494865" cy="163.143420798911" r="3" style="fill: steelblue;"></circle><circle cx="377.25538551807404" cy="184.4117431383994" r="3" style="fill: steelblue;"></circle><circle cx="404.8949861526489" cy="192.51314160000118" r="3" style="fill: steelblue;"></circle><circle cx="363.2796013355255" cy="152.79892873432902" r="3" style="fill: steelblue;"></circle><circle cx="423.9047312736511" cy="138.50021113952" r="3" style="fill: steelblue;"></circle><circle cx="392.74134278297424" cy="72.309790386094" r="3" style="fill: steelblue;"></circle><circle cx="313.9524677395821" cy="224.06520321965218" r="3" style="fill: steelblue;"></circle><circle cx="283.350313603878" cy="268.3651232057148" r="3" style="fill: steelblue;"></circle><circle cx="436.4950740337372" cy="157.08204648560945" r="3" style="fill: steelblue;"></circle><circle cx="162.4640965461731" cy="99.48428306314679" r="3" style="fill: steelblue;"></circle><circle cx="222.82718360424042" cy="210.51970041460459" r="3" style="fill: steelblue;"></circle><circle cx="253.71510922908783" cy="258.39749640888635" r="3" style="fill: steelblue;"></circle><circle cx="273.75535011291504" cy="259.5140511790911" r="3" style="fill: steelblue;"></circle><circle cx="227.06401214003563" cy="140.2958176202244" r="3" style="fill: steelblue;"></circle><circle cx="355.15127420425415" cy="122.5677298174964" r="3" style="fill: steelblue;"></circle><circle cx="265.97797214984894" cy="104.72733692990408" r="3" style="fill: steelblue;"></circle><circle cx="288.45230877399445" cy="171.9045444495148" r="3" style="fill: steelblue;"></circle><circle cx="143.15345227718356" cy="210.1403752134906" r="3" style="fill: steelblue;"></circle><circle cx="250.1238515228033" cy="94.72181730800203" r="3" style="fill: steelblue;"></circle><circle cx="334.39895153045654" cy="274.33262599839105" r="3" style="fill: steelblue;"></circle><circle cx="201.59885376691818" cy="187.03450655771627" r="3" style="fill: steelblue;"></circle><circle cx="222.10204057395458" cy="204.12104504389896" r="3" style="fill: steelblue;"></circle><circle cx="172.68016129732132" cy="309.8108569780985" r="3" style="fill: steelblue;"></circle><circle cx="346.079363822937" cy="207.45631700588598" r="3" style="fill: steelblue;"></circle><circle cx="249.6158266067505" cy="139.57252187861337" r="3" style="fill: steelblue;"></circle><circle cx="84.22085881233217" cy="180.75390987926062" r="3" style="fill: steelblue;"></circle><circle cx="214.17947798967361" cy="256.2085903353161" r="3" style="fill: steelblue;"></circle><circle cx="64.7851073741913" cy="199.75624243832294" r="3" style="fill: steelblue;"></circle><circle cx="240.5061189411208" cy="241.84773696793448" r="3" style="fill: steelblue;"></circle><circle cx="23.67501497268678" cy="240.64569589164523" r="3" style="fill: steelblue;"></circle><circle cx="61.50703668594362" cy="238.19877497024004" r="3" style="fill: steelblue;"></circle><circle cx="141.6626089811325" cy="184.99166446013584" r="3" style="fill: steelblue;"></circle><circle cx="118.76932919025423" cy="171.41017172899512" r="3" style="fill: steelblue;"></circle><circle cx="304.81064558029175" cy="273.0988578663932" r="3" style="fill: steelblue;"></circle><circle cx="93.89143824577333" cy="111.86076700687408" r="3" style="fill: steelblue;"></circle><circle cx="227.31791116297245" cy="234.44186564948825" r="3" style="fill: steelblue;"></circle><circle cx="255.12919440865517" cy="136.42665826612046" r="3" style="fill: steelblue;"></circle><circle cx="98.09044539928438" cy="151.87418791982861" r="3" style="fill: steelblue;"></circle><circle cx="245.56850228458646" cy="180.61150175829727" r="3" style="fill: steelblue;"></circle><circle cx="225.0029144436121" cy="308.6112207836575" r="3" style="fill: steelblue;"></circle><circle cx="112.68416583538057" cy="303.8094308641222" r="3" style="fill: steelblue;"></circle><circle cx="290.97359418869024" cy="243.03493441806899" r="3" style="fill: steelblue;"></circle><circle cx="130.57428538799286" cy="201.7187535141905" r="3" style="fill: steelblue;"></circle><circle cx="152.8427892923355" cy="238.7785861889521" r="3" style="fill: steelblue;"></circle><circle cx="121.04173243045808" cy="250.05127572351034" r="3" style="fill: steelblue;"></circle><circle cx="310.5566883087158" cy="149.25867898596658" r="3" style="fill: steelblue;"></circle><circle cx="400.1875841617584" cy="276.2695178389549" r="3" style="fill: steelblue;"></circle><circle cx="398.70357155799866" cy="125.85921916696759" r="3" style="fill: steelblue;"></circle><circle cx="323.1154704093933" cy="202.87512211749947" r="3" style="fill: steelblue;"></circle><circle cx="267.7845360338688" cy="95.3734301858478" r="3" style="fill: steelblue;"></circle><circle cx="339.2691904306412" cy="156.8841507865323" r="3" style="fill: steelblue;"></circle><circle cx="259.9170984327793" cy="144.32668934265774" r="3" style="fill: steelblue;"></circle><circle cx="229.4447386264801" cy="233.99705812335014" r="3" style="fill: steelblue;"></circle><circle cx="355.6119704246521" cy="130.0965862141715" r="3" style="fill: steelblue;"></circle><circle cx="133.9130812883377" cy="26.387035846710205" r="3" style="fill: steelblue;"></circle><circle cx="217.1585449576378" cy="173.49759613474208" r="3" style="fill: steelblue;"></circle><circle cx="357.32769906520844" cy="105.94992091258365" r="3" style="fill: steelblue;"></circle><circle cx="201.75182908773422" cy="175.44824071228504" r="3" style="fill: steelblue;"></circle><circle cx="102.82356083393097" cy="147.05392966667813" r="3" style="fill: steelblue;"></circle><circle cx="185.39983570575714" cy="121.41151477893192" r="3" style="fill: steelblue;"></circle><circle cx="236.34942999109626" cy="224.92721718218593" r="3" style="fill: steelblue;"></circle><circle cx="60.02990841865541" cy="216.9303432520893" r="3" style="fill: steelblue;"></circle><circle cx="201.3228589296341" cy="241.42790544364186" r="3" style="fill: steelblue;"></circle><circle cx="129.9245649576187" cy="266.9902667403221" r="3" style="fill: steelblue;"></circle><circle cx="133.79741549491885" cy="278.7596252229479" r="3" style="fill: steelblue;"></circle><circle cx="188.05593341588977" cy="269.4804900222355" r="3" style="fill: steelblue;"></circle><circle cx="74.37307476997377" cy="245.69991727670032" r="3" style="fill: steelblue;"></circle><circle cx="205.86215570569038" cy="115.57059569491281" r="3" style="fill: steelblue;"></circle><circle cx="69.73460555076599" cy="244.12428504890863" r="3" style="fill: steelblue;"></circle><circle cx="173.70105922222137" cy="146.23030978772374" r="3" style="fill: steelblue;"></circle><circle cx="226.42694167792797" cy="260.5159481366475" r="3" style="fill: steelblue;"></circle><circle cx="246.6730219870806" cy="131.12080511119632" r="3" style="fill: steelblue;"></circle><circle cx="360.1653331518174" cy="173.9753143241008" r="3" style="fill: steelblue;"></circle><circle cx="166.06599032878879" cy="134.8217444287406" r="3" style="fill: steelblue;"></circle><circle cx="225.39346978068352" cy="135.19779261615543" r="3" style="fill: steelblue;"></circle><circle cx="228.35581205785275" cy="104.60502985450955" r="3" style="fill: steelblue;"></circle><circle cx="420.5454969406128" cy="89.46695923805237" r="3" style="fill: steelblue;"></circle><circle cx="357.62319803237915" cy="115.88549613952637" r="3" style="fill: steelblue;"></circle><circle cx="423.31514596939087" cy="123.7915423181322" r="3" style="fill: steelblue;"></circle><circle cx="428.91146779060364" cy="172.13918123808173" r="3" style="fill: steelblue;"></circle><circle cx="69.91624474525453" cy="245.86096902688342" r="3" style="fill: steelblue;"></circle><circle cx="146.23545348644257" cy="163.20403541127843" r="3" style="fill: steelblue;"></circle><circle cx="89.42463040351869" cy="235.85384711623192" r="3" style="fill: steelblue;"></circle><circle cx="143.11018824577332" cy="295.6018182966444" r="3" style="fill: steelblue;"></circle><circle cx="43.3406674861908" cy="251.4292904072338" r="3" style="fill: steelblue;"></circle><circle cx="89.20107722282411" cy="114.40231568283504" r="3" style="fill: steelblue;"></circle><circle cx="194.66231256723404" cy="224.22589278883402" r="3" style="fill: steelblue;"></circle><circle cx="149.95616912841797" cy="208.34035447074308" r="3" style="fill: steelblue;"></circle><circle cx="184.3123072385788" cy="237.07417978180777" r="3" style="fill: steelblue;"></circle><circle cx="62.05873131752015" cy="264.15455175770654" r="3" style="fill: steelblue;"></circle><circle cx="378.63268196582794" cy="267.5125433339013" r="3" style="fill: steelblue;"></circle><circle cx="296.912961602211" cy="237.1034555965" r="3" style="fill: steelblue;"></circle><circle cx="237.99204342998567" cy="115.30453463395435" r="3" style="fill: steelblue;"></circle><circle cx="305.010242164135" cy="182.60616581473084" r="3" style="fill: steelblue;"></circle><circle cx="299.37921702861786" cy="163.05169338981312" r="3" style="fill: steelblue;"></circle><circle cx="328.91983330249786" cy="132.39258776108426" r="3" style="fill: steelblue;"></circle><circle cx="438.29816222190857" cy="75.12928545475006" r="3" style="fill: steelblue;"></circle><circle cx="446.3426077365875" cy="142.29169570737412" r="3" style="fill: steelblue;"></circle><circle cx="469.04106974601746" cy="311.3871498240365" r="3" style="fill: steelblue;"></circle><circle cx="127.96179592609407" cy="195.81122345860217" r="3" style="fill: steelblue;"></circle><circle cx="80.15307426452637" cy="244.73646945423548" r="3" style="fill: steelblue;"></circle><circle cx="108.301722407341" cy="220.1690396500958" r="3" style="fill: steelblue;"></circle><circle cx="98.29438269138338" cy="193.79567346509754" r="3" style="fill: steelblue;"></circle><circle cx="166.65114998817444" cy="194.41977846953603" r="3" style="fill: steelblue;"></circle></g></svg>