<svg xmlns="http://www.w3.org/2000/svg"><g><circle cx="13.737164603339302" cy="79.49604950845242" r="2" style="fill: steelblue;"></circle><circle cx="29.041718443234764" cy="28.942258283495903" r="2" style="fill: steelblue;"></circle><circle cx="26.864398850335018" cy="57.75112397968769" r="2" style="fill: steelblue;"></circle><circle cx="15.097528033786354" cy="88.84390369057655" r="2" style="fill: steelblue;"></circle><circle cx="55.52596118715074" cy="91.22630134224892" r="2" style="fill: steelblue;"></circle><circle cx="34.3084196249644" cy="65.45531023293734" r="2" style="fill: steelblue;"></circle><circle cx="57.842624021901024" cy="34.23852398991585" r="2" style="fill: steelblue;"></circle><circle cx="24.0946587589052" cy="61.65698282420635" r="2" style="fill: steelblue;"></circle><circle cx="32.875373297267494" cy="71.06895670294762" r="2" style="fill: steelblue;"></circle><circle cx="39.135338697168564" cy="78.07941846549511" r="2" style="fill: steelblue;"></circle><circle cx="35.422394838598045" cy="42.833845783025026" r="2" style="fill: steelblue;"></circle><circle cx="28.792643878195022" cy="60.808651335537434" r="2" style="fill: steelblue;"></circle><circle cx="19.919401407241825" cy="25.06503574550152" r="2" style="fill: steelblue;"></circle><circle cx="30.382942159970604" cy="72.92986027896404" r="2" style="fill: steelblue;"></circle><circle cx="20.75157662232717" cy="69.10098642110825" r="2" style="fill: steelblue;"></circle><circle cx="6.579729583528309" cy="49.13103983271867" r="2" style="fill: steelblue;"></circle><circle cx="51.499328845077095" cy="47.66407418064773" r="2" style="fill: steelblue;"></circle><circle cx="69.66452731026543" cy="54.862121772021055" r="2" style="fill: steelblue;"></circle><circle cx="50.58373651570744" cy="40.88436830788851" r="2" style="fill: steelblue;"></circle><circle cx="31.64910458856159" cy="24.108800292015076" r="2" style="fill: steelblue;"></circle><circle cx="26.380347874429493" cy="60.46431530267" r="2" style="fill: steelblue;"></circle><circle cx="74.84930687480504" cy="59.26185492426157" r="2" style="fill: steelblue;"></circle><circle cx="48.12241320808729" cy="52.07521207630634" r="2" style="fill: steelblue;"></circle><circle cx="23.676931195788914" cy="30.71122169494629" r="2" style="fill: steelblue;"></circle><circle cx="22.672296563784283" cy="59.42203216254711" r="2" style="fill: steelblue;"></circle><circle cx="20.878613988558453" cy="60.50079148262739" r="2" style="fill: steelblue;"></circle><circle cx="8.281124300426908" cy="45.4155758023262" r="2" style="fill: steelblue;"></circle><circle cx="67.19178722964394" cy="78.49549613893032" r="2" style="fill: steelblue;"></circle><circle cx="25.646010372373794" cy="80.64009360969067" r="2" style="fill: steelblue;"></circle><circle cx="44.835993280220364" cy="93.96787658333778" r="2" style="fill: steelblue;"></circle><circle cx="81.35532273186577" cy="6.741645932197571" r="2" style="fill: steelblue;"></circle><circle cx="62.42644555038876" cy="31.834907084703445" r="2" style="fill: steelblue;"></circle><circle cx="75.21400451660156" cy="64.56423290073872" r="2" style="fill: steelblue;"></circle><circle cx="67.26404461595747" cy="70.86428180336952" r="2" style="fill: steelblue;"></circle><circle cx="71.00077072779337" cy="20.787759870290756" r="2" style="fill: steelblue;"></circle><circle cx="25.631410545772976" cy="14.139364659786224" r="2" style="fill: steelblue;"></circle><circle cx="37.38642086585363" cy="63.71776219457388" r="2" style="fill: steelblue;"></circle><circle cx="29.28127282195621" cy="86.78629547357559" r="2" style="fill: steelblue;"></circle><circle cx="42.96136808892091" cy="61.0291400924325" r="2" style="fill: steelblue;"></circle><circle cx="28.833711478445267" cy="72.83097431063652" r="2" style="fill: steelblue;"></circle><circle cx="8.285637696584068" cy="52.696637297049165" r="2" style="fill: steelblue;"></circle><circle cx="53.45311197969649" cy="66.62897132337093" r="2" style="fill: steelblue;"></circle><circle cx="66.46268169085184" cy="84.04302895069122" r="2" style="fill: steelblue;"></circle><circle cx="54.63364240196016" cy="5.477487295866013" r="2" style="fill: steelblue;"></circle><circle cx="59.4670765929752" cy="51.35201634839177" r="2" style="fill: steelblue;"></circle><circle cx="73.07959198951721" cy="44.275054428726435" r="2" style="fill: steelblue;"></circle><circle cx="53.71417701244354" cy="38.08138072490692" r="2" style="fill: steelblue;"></circle><circle cx="16.81542495886485" cy="53.16683063283563" r="2" style="fill: steelblue;"></circle><circle cx="15.320482518937856" cy="66.91532507538795" r="2" style="fill: steelblue;"></circle><circle cx="46.475014711419746" cy="27.696798741817474" r="2" style="fill: steelblue;"></circle><circle cx="44.87283358143436" cy="55.21955266594887" r="2" style="fill: steelblue;"></circle><circle cx="65.94526204797957" cy="23.67781400680542" r="2" style="fill: steelblue;"></circle><circle cx="21.778072913487755" cy="34.92808733135462" r="2" style="fill: steelblue;"></circle><circle cx="46.98230818741852" cy="75.87588876485825" r="2" style="fill: steelblue;"></circle><circle cx="30.326337615648907" cy="70.14877647161484" r="2" style="fill: steelblue;"></circle><circle cx="45.88091400348478" cy="87.87291795015335" r="2" style="fill: steelblue;"></circle><circle cx="34.9544561571545" cy="51.74369663000107" r="2" style="fill: steelblue;"></circle><circle cx="27.62181493971083" cy="57.854984141886234" r="2" style="fill: steelblue;"></circle><circle cx="58.7575313117769" cy="53.184487111866474" r="2" style="fill: steelblue;"></circle><circle cx="61.95719970597161" cy="55.71354478597641" r="2" style="fill: steelblue;"></circle><circle cx="18.45433248413934" cy="75.18108673393726" r="2" style="fill: steelblue;"></circle><circle cx="48.7930436929067" cy="76.67241916060448" r="2" style="fill: steelblue;"></circle><circle cx="43.317759885556164" cy="93.40264573693275" r="2" style="fill: steelblue;"></circle><circle cx="7.543016804589168" cy="85.77841073274612" r="2" style="fill: steelblue;"></circle><circle cx="12.72809108098348" cy="86.0424555838108" r="2" style="fill: steelblue;"></circle><circle cx="3.200063440534806" cy="80.76350130140781" r="2" style="fill: steelblue;"></circle><circle cx="31.255784299638538" cy="87.78468072414398" r="2" style="fill: steelblue;"></circle><circle cx="9.50237380133735" cy="96.87542468309402" r="2" style="fill: steelblue;"></circle><circle cx="26.449732648001778" cy="82.86366164684296" r="2" style="fill: steelblue;"></circle><circle cx="55.61422738764021" cy="55.61451958492398" r="2" style="fill: steelblue;"></circle><circle cx="45.757033820781444" cy="85.48961505293846" r="2" style="fill: steelblue;"></circle><circle cx="71.54196931256187" cy="13.112492114305496" r="2" style="fill: steelblue;"></circle><circle cx="28.474058707555137" cy="31.097934767603874" r="2" style="fill: steelblue;"></circle><circle cx="38.4237022863494" cy="54.50366735458374" r="2" style="fill: steelblue;"></circle><circle cx="57.008596923616196" cy="11.27299964427948" r="2" style="fill: steelblue;"></circle><circle cx="82.15787609418234" cy="44.70618739724159" r="2" style="fill: steelblue;"></circle><circle cx="40.982234146859916" cy="27.011658251285553" r="2" style="fill: steelblue;"></circle><circle cx="73.24639227655199" cy="56.8924049846828" r="2" style="fill: steelblue;"></circle><circle cx="80.19097248713175" cy="15.35518392920494" r="2" style="fill: steelblue;"></circle><circle cx="83.10323887401157" cy="22.589386627078056" r="2" style="fill: steelblue;"></circle><circle cx="64.46915136443245" cy="24.793102592229843" r="2" style="fill: steelblue;"></circle><circle cx="69.75037952264151" cy="74.84982088208199" r="2" style="fill: steelblue;"></circle><circle cx="24.60028992758857" cy="52.836160361766815" r="2" style="fill: steelblue;"></circle><circle cx="47.98711728718546" cy="62.62697018682957" r="2" style="fill: steelblue;"></circle><circle cx="32.66705258025064" cy="30.3359005600214" r="2" style="fill: steelblue;"></circle><circle cx="68.08293792936537" cy="78.52136082947254" r="2" style="fill: steelblue;"></circle><circle cx="49.86593764689234" cy="47.712494572624564" r="2" style="fill: steelblue;"></circle><circle cx="26.2378066778183" cy="66.8148148804903" r="2" style="fill: steelblue;"></circle><circle cx="67.58792135450575" cy="87.13623061776161" r="2" style="fill: steelblue;"></circle><circle cx="43.62965603876445" cy="53.84909939020872" r="2" style="fill: steelblue;"></circle><circle cx="57.37438152233759" cy="23.266476765275" r="2" style="fill: steelblue;"></circle><circle cx="56.757728424337174" cy="49.10311691928655" r="2" style="fill: steelblue;"></circle><circle cx="38.104916777875694" cy="38.98094613105059" r="2" style="fill: steelblue;"></circle><circle cx="57.06866433223089" cy="53.0789056327194" r="2" style="fill: steelblue;"></circle><circle cx="80.4056617948744" cy="42.96829290688038" r="2" style="fill: steelblue;"></circle><circle cx="66.7724503411187" cy="13.130604475736618" r="2" style="fill: steelblue;"></circle><circle cx="61.34249700440301" cy="17.866603285074234" r="2" style="fill: steelblue;"></circle><circle cx="25.821133785777622" cy="32.645656913518906" r="2" style="fill: steelblue;"></circle><circle cx="84.29558012220595" cy="68.34100857377052" r="2" style="fill: steelblue;"></circle><circle cx="89.65766694810655" cy="38.80191147327423" r="2" style="fill: steelblue;"></circle><circle cx="45.960660775502525" cy="28.664211928844452" r="2" style="fill: steelblue;"></circle><circle cx="68.03924275769127" cy="30.893343687057495" r="2" style="fill: steelblue;"></circle><circle cx="27.27115915881263" cy="34.4015771523118" r="2" style="fill: steelblue;"></circle><circle cx="90.05447824796042" cy="23.486581817269325" r="2" style="fill: steelblue;"></circle><circle cx="59.6111708217197" cy="26.292412728071213" r="2" style="fill: steelblue;"></circle><circle cx="59.63537361886766" cy="40.19753560423851" r="2" style="fill: steelblue;"></circle><circle cx="52.91566103696823" cy="67.62807182967663" r="2" style="fill: steelblue;"></circle><circle cx="40.52349651853244" cy="67.4962654709816" r="2" style="fill: steelblue;"></circle><circle cx="75.11585884624057" cy="36.687094904482365" r="2" style="fill: steelblue;"></circle><circle cx="89.44436179267036" cy="55.45963831245899" r="2" style="fill: steelblue;"></circle><circle cx="73.80035453372533" cy="36.39364540576935" r="2" style="fill: steelblue;"></circle><circle cx="48.128245770931244" cy="20.561020076274872" r="2" style="fill: steelblue;"></circle><circle cx="31.189869013097553" cy="37.69154120236635" r="2" style="fill: steelblue;"></circle><circle cx="60.54869890213013" cy="62.50744052231312" r="2" style="fill: steelblue;"></circle><circle cx="66.02105597654977" cy="88.15798461437225" r="2" style="fill: steelblue;"></circle><circle cx="25.289466977119446" cy="59.372107684612274" r="2" style="fill: steelblue;"></circle><circle cx="27.08434330092536" cy="52.103023463860154" r="2" style="fill: steelblue;"></circle><circle cx="46.659263844291374" cy="21.360407769680023" r="2" style="fill: steelblue;"></circle></g></svg>