<svg xmlns="http://www.w3.org/2000/svg"><g><circle cx="31.686902046203613" cy="72.28981388939751" r="2" style="fill: steelblue;"></circle><circle cx="50.98909677730666" cy="70.8404822482003" r="2" style="fill: steelblue;"></circle><circle cx="17.73430572615729" cy="22.37772709793515" r="2" style="fill: steelblue;"></circle><circle cx="38.589252365960014" cy="45.1846795467039" r="2" style="fill: steelblue;"></circle><circle cx="65.29209017753601" cy="65.2500996987025" r="2" style="fill: steelblue;"></circle><circle cx="44.54173644383748" cy="52.543766134315064" r="2" style="fill: steelblue;"></circle><circle cx="35.27321252557966" cy="67.95771188206143" r="2" style="fill: steelblue;"></circle><circle cx="51.60362232062552" cy="54.15580686595705" r="2" style="fill: steelblue;"></circle><circle cx="53.130341900719536" cy="57.2219236029519" r="2" style="fill: steelblue;"></circle><circle cx="43.78245522578557" cy="41.451218186153305" r="2" style="fill: steelblue;"></circle><circle cx="34.872785210609436" cy="67.00514025158353" r="2" style="fill: steelblue;"></circle><circle cx="69.23526608281665" cy="21.53377168708378" r="2" style="fill: steelblue;"></circle><circle cx="24.973713689380222" cy="66.22167858812544" r="2" style="fill: steelblue;"></circle><circle cx="66.95141477717293" cy="78.12126411332024" r="2" style="fill: steelblue;"></circle><circle cx="41.2595272064209" cy="47.31843554311329" r="2" style="fill: steelblue;"></circle><circle cx="49.299651549922096" cy="50.484647519058655" r="2" style="fill: steelblue;"></circle><circle cx="39.43568468093872" cy="46.80252215928502" r="2" style="fill: steelblue;"></circle><circle cx="49.34609101878272" cy="27.53566967116462" r="2" style="fill: steelblue;"></circle><circle cx="63.635390665796066" cy="13.993626832962036" r="2" style="fill: steelblue;"></circle><circle cx="48.38097426626417" cy="20.02700765927633" r="2" style="fill: steelblue;"></circle><circle cx="69.50923966036903" cy="57.671500742435455" r="2" style="fill: steelblue;"></circle><circle cx="70.76062758763632" cy="17.233705520629883" r="2" style="fill: steelblue;"></circle><circle cx="82.70554410086739" cy="77.44895683394539" r="2" style="fill: steelblue;"></circle><circle cx="49.804331527815926" cy="59.331411454412674" r="2" style="fill: steelblue;"></circle><circle cx="35.912773675388756" cy="50.10888742076026" r="2" style="fill: steelblue;"></circle><circle cx="42.98304269711176" cy="41.76229151586691" r="2" style="fill: steelblue;"></circle><circle cx="23.621297544903225" cy="41.52865351902114" r="2" style="fill: steelblue;"></circle><circle cx="19.2952553431193" cy="68.99750663174522" r="2" style="fill: steelblue;"></circle><circle cx="18.418845203187733" cy="67.05471144782173" r="2" style="fill: steelblue;"></circle><circle cx="52.534851142101815" cy="48.502173026402794" r="2" style="fill: steelblue;"></circle><circle cx="80.7122141122818" cy="18.559430374039543" r="2" style="fill: steelblue;"></circle><circle cx="88.6429746945699" cy="16.675642132759094" r="2" style="fill: steelblue;"></circle><circle cx="89.8163484202491" cy="42.74223906298479" r="2" style="fill: steelblue;"></circle><circle cx="75.26548041237724" cy="42.02835526731279" r="2" style="fill: steelblue;"></circle><circle cx="56.658286187383865" cy="35.49815482563443" r="2" style="fill: steelblue;"></circle><circle cx="69.43893598185646" cy="55.233809020784165" r="2" style="fill: steelblue;"></circle><circle cx="34.07522373729282" cy="74.58013561036852" r="2" style="fill: steelblue;"></circle><circle cx="46.04176183541615" cy="74.53528311517503" r="2" style="fill: steelblue;"></circle><circle cx="56.63596207482947" cy="77.59975989659628" r="2" style="fill: steelblue;"></circle><circle cx="28.857462935977512" cy="66.19080007076263" r="2" style="fill: steelblue;"></circle><circle cx="41.09607305791643" cy="57.59449154138565" r="2" style="fill: steelblue;"></circle><circle cx="43.121675650278725" cy="11.29496693611145" r="2" style="fill: steelblue;"></circle><circle cx="99.19108615981209" cy="53.835392163859474" r="2" style="fill: steelblue;"></circle><circle cx="55.80491238894562" cy="34.53307035896513" r="2" style="fill: steelblue;"></circle><circle cx="46.98655588759316" cy="18.961266676584888" r="2" style="fill: steelblue;"></circle><circle cx="82.27870033846962" cy="42.95187873972787" r="2" style="fill: steelblue;"></circle><circle cx="57.343363761901855" cy="24.152548114458728" r="2" style="fill: steelblue;"></circle><circle cx="72.20655017428928" cy="62.534353137016296" r="2" style="fill: steelblue;"></circle><circle cx="44.110143350230324" cy="46.897908217377136" r="2" style="fill: steelblue;"></circle><circle cx="73.29250375429788" cy="72.80304630597432" r="2" style="fill: steelblue;"></circle><circle cx="49.255667047368156" cy="57.33502755562465" r="2" style="fill: steelblue;"></circle><circle cx="60.77977642416954" cy="27.200718058480156" r="2" style="fill: steelblue;"></circle><circle cx="79.77269755469429" cy="42.867075610491966" r="2" style="fill: steelblue;"></circle><circle cx="70.71881658501094" cy="47.95862212777138" r="2" style="fill: steelblue;"></circle><circle cx="48.105591701136696" cy="35.99313911464479" r="2" style="fill: steelblue;"></circle><circle cx="21.40348156293233" cy="71.92096379068163" r="2" style="fill: steelblue;"></circle><circle cx="51.74264601535267" cy="73.44816724459331" r="2" style="fill: steelblue;"></circle><circle cx="47.724471324019966" cy="58.614211943414475" r="2" style="fill: steelblue;"></circle><circle cx="43.0161671506034" cy="58.307046857145096" r="2" style="fill: steelblue;"></circle><circle cx="53.80467635889848" cy="30.511564016342163" r="2" style="fill: steelblue;"></circle><circle cx="42.90663368172115" cy="72.08258840772841" r="2" style="fill: steelblue;"></circle><circle cx="32.408396402994796" cy="35.606036749151016" r="2" style="fill: steelblue;"></circle><circle cx="45.27442571189668" cy="37.23836541175842" r="2" style="fill: steelblue;"></circle><circle cx="34.79718665281932" cy="68.08827254507277" r="2" style="fill: steelblue;"></circle><circle cx="22.398349311616688" cy="69.75965963469612" r="2" style="fill: steelblue;"></circle><circle cx="54.84615561241905" cy="82.58210884200203" r="2" style="fill: steelblue;"></circle><circle cx="38.49939339690739" cy="39.046572893857956" r="2" style="fill: steelblue;"></circle><circle cx="9.036269452836779" cy="63.01334765222337" r="2" style="fill: steelblue;"></circle><circle cx="29.993202951219345" cy="82.32493797938028" r="2" style="fill: steelblue;"></circle><circle cx="28.472907013363308" cy="70.06224592526753" r="2" style="fill: steelblue;"></circle><circle cx="63.876877228418984" cy="91.50635136498344" r="2" style="fill: steelblue;"></circle><circle cx="66.9176677862803" cy="21.99528217315674" r="2" style="fill: steelblue;"></circle><circle cx="47.535238994492424" cy="39.356962425841225" r="2" style="fill: steelblue;"></circle><circle cx="49.918874684307305" cy="27.693573964966667" r="2" style="fill: steelblue;"></circle><circle cx="78.98584670490688" cy="15.629400147332085" r="2" style="fill: steelblue;"></circle><circle cx="87.66827980677286" cy="45.85444871336222" r="2" style="fill: steelblue;"></circle><circle cx="67.07715822590721" cy="40.13057152430216" r="2" style="fill: steelblue;"></circle><circle cx="71.8827893336614" cy="7.957441276974153" r="2" style="fill: steelblue;"></circle><circle cx="82.85179237524667" cy="16.696906089782715" r="2" style="fill: steelblue;"></circle><circle cx="65.45674138598972" cy="29.49337926175859" r="2" style="fill: steelblue;"></circle><circle cx="83.49690503544277" cy="21.06424437628852" r="2" style="fill: steelblue;"></circle><circle cx="75.64431760046217" cy="3.124895360734725" r="2" style="fill: steelblue;"></circle><circle cx="81.77136050330269" cy="35.58314939339956" r="2" style="fill: steelblue;"></circle><circle cx="40.45236772961086" cy="64.3183880382114" r="2" style="fill: steelblue;"></circle><circle cx="34.34442480405171" cy="25.68423681788975" r="2" style="fill: steelblue;"></circle><circle cx="45.12871884637409" cy="56.0726930697759" r="2" style="fill: steelblue;"></circle><circle cx="51.851703474919" cy="32.650975055164764" r="2" style="fill: steelblue;"></circle><circle cx="69.50952940517001" cy="29.393889175521004" r="2" style="fill: steelblue;"></circle><circle cx="44.27899503045612" cy="40.026582115226326" r="2" style="fill: steelblue;"></circle><circle cx="71.66182498137155" cy="27.81465417808957" r="2" style="fill: steelblue;"></circle><circle cx="73.6499097612169" cy="14.441717995537651" r="2" style="fill: steelblue;"></circle><circle cx="83.2112795776791" cy="17.54832201533848" r="2" style="fill: steelblue;"></circle><circle cx="77.9829505417082" cy="62.50630418459575" r="2" style="fill: steelblue;"></circle><circle cx="92.77056323157417" cy="61.366338862313164" r="2" style="fill: steelblue;"></circle><circle cx="54.21664917634593" cy="43.01541718757815" r="2" style="fill: steelblue;"></circle><circle cx="97.7058642440372" cy="53.215195900864074" r="2" style="fill: steelblue;"></circle><circle cx="99.02137849065993" cy="22.457266185018753" r="2" style="fill: steelblue;"></circle><circle cx="57.95075433949629" cy="37.428444623947144" r="2" style="fill: steelblue;"></circle><circle cx="65.86248427629471" cy="16.14013910293579" r="2" style="fill: steelblue;"></circle><circle cx="79.9728747871187" cy="71.98464804225497" r="2" style="fill: steelblue;"></circle><circle cx="82.14291764630211" cy="23.643638690312706" r="2" style="fill: steelblue;"></circle><circle cx="48.96652284595701" cy="45.671893345812954" r="2" style="fill: steelblue;"></circle><circle cx="56.31397669720981" cy="36.02932492891947" r="2" style="fill: steelblue;"></circle><circle cx="72.0842033624649" cy="73.29689065615337" r="2" style="fill: steelblue;"></circle><circle cx="32.075014379289414" cy="24.307238724496628" r="2" style="fill: steelblue;"></circle><circle cx="33.47332278887431" cy="40.639531860748924" r="2" style="fill: steelblue;"></circle><circle cx="80.60212433338165" cy="36.15096559127172" r="2" style="fill: steelblue;"></circle><circle cx="47.27758963902791" cy="38.79266538553768" r="2" style="fill: steelblue;"></circle><circle cx="63.32179572847154" cy="46.624363669090805" r="2" style="fill: steelblue;"></circle><circle cx="82.38564762804243" cy="52.01226075490316" r="2" style="fill: steelblue;"></circle><circle cx="79.63133686118655" cy="25.631720158788895" r="2" style="fill: steelblue;"></circle><circle cx="91.35984712176852" cy="26.532116201188828" r="2" style="fill: steelblue;"></circle><circle cx="54.723033733252024" cy="62.56700654824574" r="2" style="fill: steelblue;"></circle><circle cx="47.0253543721305" cy="60.70038775602977" r="2" style="fill: steelblue;"></circle><circle cx="37.654929690890846" cy="49.45237164696058" r="2" style="fill: steelblue;"></circle><circle cx="42.716819379064766" cy="75.44130351808336" r="2" style="fill: steelblue;"></circle><circle cx="32.21140305201213" cy="45.88672493894895" r="2" style="fill: steelblue;"></circle><circle cx="42.4463798602422" cy="63.52908346388075" r="2" style="fill: steelblue;"></circle></g></svg>