<svg xmlns="http://www.w3.org/2000/svg"><rect width="200" height="200" fill="white"></rect><g><circle cx="45.8075761795044" cy="189.64693281385635" r="2" style="fill: steelblue;"></circle><circle cx="75.74971802532673" cy="150.21019842889572" r="2" style="fill: steelblue;"></circle><circle cx="80.91256432235241" cy="182.26556645499335" r="2" style="fill: steelblue;"></circle><circle cx="119.01168935000896" cy="159.15728939904108" r="2" style="fill: steelblue;"></circle><circle cx="47.278875857591636" cy="154.5184420214759" r="2" style="fill: steelblue;"></circle><circle cx="125.4985224455595" cy="152.43486563364664" r="2" style="fill: steelblue;"></circle><circle cx="85.67987512797117" cy="107.88470009962717" r="2" style="fill: steelblue;"></circle><circle cx="145.82545906305313" cy="189.52781624264188" r="2" style="fill: steelblue;"></circle><circle cx="28.359456360340126" cy="86.7094380988015" r="2" style="fill: steelblue;"></circle><circle cx="58.69817212224007" cy="141.29770464367337" r="2" style="fill: steelblue;"></circle><circle cx="114.15607333183289" cy="137.10881769657135" r="2" style="fill: steelblue;"></circle><circle cx="67.08068251609802" cy="121.50108814239502" r="2" style="fill: steelblue;"></circle><circle cx="81.80911876261234" cy="57.25596348444621" r="2" style="fill: steelblue;"></circle><circle cx="85.93026772141457" cy="187.36073043611313" r="2" style="fill: steelblue;"></circle><circle cx="21.84127867221833" cy="90.64758320649464" r="2" style="fill: steelblue;"></circle><circle cx="65.1525542140007" cy="155.61590592066446" r="2" style="fill: steelblue;"></circle><circle cx="124.03578720986843" cy="161.9087689452701" r="2" style="fill: steelblue;"></circle><circle cx="154.48181182146072" cy="160.50245695643954" r="2" style="fill: steelblue;"></circle><circle cx="152.05323919653893" cy="65.64475761519537" r="2" style="fill: steelblue;"></circle><circle cx="125.40743537247181" cy="97.50138305955463" r="2" style="fill: steelblue;"></circle><circle cx="145.9514930844307" cy="118.28005231089062" r="2" style="fill: steelblue;"></circle><circle cx="108.55296663939953" cy="108.55088672704167" r="2" style="fill: steelblue;"></circle><circle cx="95.68420322611928" cy="91.85014830695258" r="2" style="fill: steelblue;"></circle><circle cx="63.606759905815125" cy="123.58466784159342" r="2" style="fill: steelblue;"></circle><circle cx="133.20103883743286" cy="181.8968388769362" r="2" style="fill: steelblue;"></circle><circle cx="42.635558545589454" cy="184.99832020865546" r="2" style="fill: steelblue;"></circle><circle cx="59.7652405500412" cy="156.10945887035794" r="2" style="fill: steelblue;"></circle><circle cx="73.78750331699848" cy="133.09863871998257" r="2" style="fill: steelblue;"></circle><circle cx="71.93444892764091" cy="134.24921366903516" r="2" style="fill: steelblue;"></circle><circle cx="165.76640903949738" cy="96.87744246588812" r="2" style="fill: steelblue;"></circle><circle cx="85.86125299334526" cy="59.40194262398612" r="2" style="fill: steelblue;"></circle><circle cx="175.87583363056183" cy="92.33189788129594" r="2" style="fill: steelblue;"></circle><circle cx="189.05957639217377" cy="56.674900982115005" r="2" style="fill: steelblue;"></circle><circle cx="98.60150425229222" cy="77.8088437186347" r="2" style="fill: steelblue;"></circle><circle cx="103.70043027214706" cy="86.70820792516072" r="2" style="fill: steelblue;"></circle><circle cx="91.09783582389355" cy="183.61033995946246" r="2" style="fill: steelblue;"></circle><circle cx="15.169224143028265" cy="166.98004139794241" r="2" style="fill: steelblue;"></circle><circle cx="92.83944303169847" cy="68.58265068795946" r="2" style="fill: steelblue;"></circle><circle cx="39.88148123025895" cy="139.8671633667416" r="2" style="fill: steelblue;"></circle><circle cx="134.5412641763687" cy="74.52261116769579" r="2" style="fill: steelblue;"></circle><circle cx="72.50966355204582" cy="130.06757199764252" r="2" style="fill: steelblue;"></circle><circle cx="129.23827432096004" cy="54.387145572238495" r="2" style="fill: steelblue;"></circle><circle cx="134.5892794430256" cy="72.14348514874776" r="2" style="fill: steelblue;"></circle><circle cx="166.02155417203903" cy="72.09060589472453" r="2" style="fill: steelblue;"></circle><circle cx="184.20298248529434" cy="90.75199067592621" r="2" style="fill: steelblue;"></circle><circle cx="100.59766427148134" cy="124.10277790493436" r="2" style="fill: steelblue;"></circle><circle cx="126.88349410891533" cy="86.85181207127042" r="2" style="fill: steelblue;"></circle><circle cx="35.94763427972794" cy="171.7739701271057" r="2" style="fill: steelblue;"></circle><circle cx="63.358402252197266" cy="186.2087978257073" r="2" style="fill: steelblue;"></circle><circle cx="77.1917387843132" cy="160.99477807680765" r="2" style="fill: steelblue;"></circle><circle cx="125.98714269697666" cy="89.719091852506" r="2" style="fill: steelblue;"></circle><circle cx="111.58323138952255" cy="125.97526278760698" r="2" style="fill: steelblue;"></circle><circle cx="59.70539003610611" cy="156.86444772614374" r="2" style="fill: steelblue;"></circle><circle cx="23.255339264869697" cy="122.78804348574744" r="2" style="fill: steelblue;"></circle><circle cx="38.50723654031754" cy="92.91843242115445" r="2" style="fill: steelblue;"></circle><circle cx="46.74432277679444" cy="133.34956930743323" r="2" style="fill: steelblue;"></circle><circle cx="77.08231955766678" cy="176.90759234958225" r="2" style="fill: steelblue;"></circle><circle cx="86.64253298193216" cy="117.3078753054142" r="2" style="fill: steelblue;"></circle><circle cx="56.78289234638214" cy="142.5992614693112" r="2" style="fill: steelblue;"></circle><circle cx="79.81655783951283" cy="137.60935763518015" r="2" style="fill: steelblue;"></circle><circle cx="34.82643365859986" cy="73.98586140738593" r="2" style="fill: steelblue;"></circle><circle cx="59.688082337379456" cy="53.04741859436035" r="2" style="fill: steelblue;"></circle><circle cx="49.70129057765008" cy="179.7645025783115" r="2" style="fill: steelblue;"></circle><circle cx="36.84810400009156" cy="197.71207703484427" r="2" style="fill: steelblue;"></circle><circle cx="72.02135622501373" cy="179.21254369947647" r="2" style="fill: steelblue;"></circle><circle cx="3.05959433317185" cy="195.51785124672782" r="2" style="fill: steelblue;"></circle><circle cx="67.23198890686035" cy="102.50826428333917" r="2" style="fill: steelblue;"></circle><circle cx="51.34768262505531" cy="144.04041237301297" r="2" style="fill: steelblue;"></circle><circle cx="35.64192950725556" cy="107.57108198271857" r="2" style="fill: steelblue;"></circle><circle cx="59.56060662865639" cy="153.22551793522305" r="2" style="fill: steelblue;"></circle><circle cx="121.45997621119022" cy="176.06814702351886" r="2" style="fill: steelblue;"></circle><circle cx="128.81999872624874" cy="60.30041641659207" r="2" style="fill: steelblue;"></circle><circle cx="100.15148513193708" cy="98.86386907762952" r="2" style="fill: steelblue;"></circle><circle cx="90.80181960016489" cy="73.87164235115051" r="2" style="fill: steelblue;"></circle><circle cx="123.62513914704323" cy="54.65043253368802" r="2" style="fill: steelblue;"></circle><circle cx="194.76103633642197" cy="124.19775790638394" r="2" style="fill: steelblue;"></circle><circle cx="89.265451207757" cy="106.72048976023991" r="2" style="fill: steelblue;"></circle><circle cx="137.9953272640705" cy="62.36480342017279" r="2" style="fill: steelblue;"></circle><circle cx="132.78323262929916" cy="38.92539607153998" r="2" style="fill: steelblue;"></circle><circle cx="55.86855337023735" cy="162.97178798251682" r="2" style="fill: steelblue;"></circle><circle cx="153.0022829771042" cy="16.05015330844455" r="2" style="fill: steelblue;"></circle><circle cx="199.62736070156097" cy="48.853748374515106" r="2" style="fill: steelblue;"></circle><circle cx="71.68126702308655" cy="108.09868408573999" r="2" style="fill: steelblue;"></circle><circle cx="32.44829028844834" cy="69.82316904597812" r="2" style="fill: steelblue;"></circle><circle cx="92.38132359459996" cy="185.19178364011978" r="2" style="fill: steelblue;"></circle><circle cx="128.885405510664" cy="153.2506313588884" r="2" style="fill: steelblue;"></circle><circle cx="43.37190687656403" cy="131.24686645136939" r="2" style="fill: steelblue;"></circle><circle cx="72.96994179487228" cy="64.58419892523024" r="2" style="fill: steelblue;"></circle><circle cx="70.99843248724937" cy="137.17000517580243" r="2" style="fill: steelblue;"></circle><circle cx="115.11448994278908" cy="11.724869410196948" r="2" style="fill: steelblue;"></circle><circle cx="126.14505216479301" cy="41.03200965457492" r="2" style="fill: steelblue;"></circle><circle cx="163.33909183740616" cy="44.63202423519559" r="2" style="fill: steelblue;"></circle><circle cx="161.78271770477295" cy="24.660964806874585" r="2" style="fill: steelblue;"></circle><circle cx="103.75258643180132" cy="92.54357881016202" r="2" style="fill: steelblue;"></circle><circle cx="164.54464048147202" cy="82.2710394859314" r="2" style="fill: steelblue;"></circle><circle cx="64.10225704312325" cy="48.5544999440511" r="2" style="fill: steelblue;"></circle><circle cx="154.7533556818962" cy="33.939500649770096" r="2" style="fill: steelblue;"></circle><circle cx="86.81326862424612" cy="117.20537187324629" r="2" style="fill: steelblue;"></circle><circle cx="123.24850670993328" cy="161.8003315395779" r="2" style="fill: steelblue;"></circle><circle cx="61.264677345752716" cy="65.54338335990906" r="2" style="fill: steelblue;"></circle><circle cx="114.8550970479846" cy="129.69772517681122" r="2" style="fill: steelblue;"></circle><circle cx="81.82960599660873" cy="82.9673707485199" r="2" style="fill: steelblue;"></circle><circle cx="129.81368824839592" cy="73.17587402131822" r="2" style="fill: steelblue;"></circle><circle cx="105.34661207348108" cy="89.93602130148146" r="2" style="fill: steelblue;"></circle><circle cx="131.42516687512398" cy="86.0108368926578" r="2" style="fill: steelblue;"></circle><circle cx="100.8035731734708" cy="75.43547948201497" r="2" style="fill: steelblue;"></circle><circle cx="145.35230994224548" cy="69.66552800602383" r="2" style="fill: steelblue;"></circle><circle cx="148.98322001099586" cy="117.27254341046014" r="2" style="fill: steelblue;"></circle><circle cx="149.90944266319275" cy="75.17330514060126" r="2" style="fill: steelblue;"></circle><circle cx="134.20523926615715" cy="66.85765584309895" r="2" style="fill: steelblue;"></circle><circle cx="158.61078947782516" cy="76.55754685401917" r="2" style="fill: steelblue;"></circle><circle cx="123.94859306514263" cy="131.67632619539896" r="2" style="fill: steelblue;"></circle><circle cx="48.63484054803849" cy="131.69049223264057" r="2" style="fill: steelblue;"></circle><circle cx="70.64396925270557" cy="90.96100926399231" r="2" style="fill: steelblue;"></circle><circle cx="63.29604461789131" cy="138.35177322228748" r="2" style="fill: steelblue;"></circle><circle cx="137.84728422760963" cy="166.29312104649014" r="2" style="fill: steelblue;"></circle><circle cx="84.2258132994175" cy="125.29161903593274" r="2" style="fill: steelblue;"></circle><circle cx="61.71027049422264" cy="96.65715363290575" r="2" style="fill: steelblue;"></circle></g></svg>