<svg xmlns="http://www.w3.org/2000/svg"><g transform="translate(40,20)"><circle cx="196.90952092409134" cy="126.56762550274533" r="3" style="fill: steelblue;"></circle><circle cx="383.47496330738073" cy="122.73342675632902" r="3" style="fill: steelblue;"></circle><circle cx="414.53951239585876" cy="174.34406007329625" r="3" style="fill: steelblue;"></circle><circle cx="338.3078062534332" cy="190.47006774279805" r="3" style="fill: steelblue;"></circle><circle cx="426.39296293258667" cy="93.16820916202335" r="3" style="fill: steelblue;"></circle><circle cx="389.37170147895813" cy="54.03641793462965" r="3" style="fill: steelblue;"></circle><circle cx="177.83899694681168" cy="204.97428394026224" r="3" style="fill: steelblue;"></circle><circle cx="259.2518837749958" cy="160.6771397093932" r="3" style="fill: steelblue;"></circle><circle cx="453.3317470550537" cy="42.81268947654302" r="3" style="fill: steelblue;"></circle><circle cx="392.78822779655457" cy="161.9319078202049" r="3" style="fill: steelblue;"></circle><circle cx="411.69304490089417" cy="78.7232486738099" r="3" style="fill: steelblue;"></circle><circle cx="281.9905185699463" cy="23.55747852060529" r="3" style="fill: steelblue;"></circle><circle cx="264.3066497147083" cy="82.63703452216254" r="3" style="fill: steelblue;"></circle><circle cx="470.3239345550537" cy="118.0511362850666" r="3" style="fill: steelblue;"></circle><circle cx="335.82231044769287" cy="153.47879303412304" r="3" style="fill: steelblue;"></circle><circle cx="433.07652711868286" cy="33.29696026113299" r="3" style="fill: steelblue;"></circle><circle cx="452.6941680908203" cy="133.5715686281522" r="3" style="fill: steelblue;"></circle><circle cx="351.4238530397415" cy="92.32929944992065" r="3" style="fill: steelblue;"></circle><circle cx="360.14544010162354" cy="186.64807884229555" r="3" style="fill: steelblue;"></circle><circle cx="363.7579196691513" cy="101.57695098055734" r="3" style="fill: steelblue;"></circle><circle cx="266.56703889369965" cy="110.83448280890781" r="3" style="fill: steelblue;"></circle><circle cx="267.6631124317646" cy="247.71875821881827" r="3" style="fill: steelblue;"></circle><circle cx="127.22881078720094" cy="55.48856092823877" r="3" style="fill: steelblue;"></circle><circle cx="400.56720614433294" cy="175.720697020491" r="3" style="fill: steelblue;"></circle><circle cx="224.27225276827812" cy="145.02857931786116" r="3" style="fill: steelblue;"></circle><circle cx="244.5674893073738" cy="156.34376427365675" r="3" style="fill: steelblue;"></circle><circle cx="156.2189215421677" cy="86.47407276762857" r="3" style="fill: steelblue;"></circle><circle cx="173.43613743782046" cy="162.12445845206577" r="3" style="fill: steelblue;"></circle><circle cx="299.90418344736105" cy="60.727836522791115" r="3" style="fill: steelblue;"></circle><circle cx="293.5350412130356" cy="202.16344934370784" r="3" style="fill: steelblue;"></circle><circle cx="257.2448080033064" cy="153.67128100867075" r="3" style="fill: steelblue;"></circle><circle cx="254.84146267175674" cy="97.0543243818813" r="3" style="fill: steelblue;"></circle><circle cx="277.97870725393295" cy="139.55898413227663" r="3" style="fill: steelblue;"></circle><circle cx="303.3938446640969" cy="164.2517734732893" r="3" style="fill: steelblue;"></circle><circle cx="141.688688993454" cy="64.06314108106824" r="3" style="fill: steelblue;"></circle><circle cx="181.65298193693164" cy="228.4416135814455" r="3" style="fill: steelblue;"></circle><circle cx="164.9443084001541" cy="81.79987486865787" r="3" style="fill: steelblue;"></circle><circle cx="211.26755565404892" cy="180.4104440742069" r="3" style="fill: steelblue;"></circle><circle cx="129.43789601325992" cy="144.94131470306053" r="3" style="fill: steelblue;"></circle><circle cx="194.99997586011887" cy="182.9909402463171" r="3" style="fill: steelblue;"></circle><circle cx="236.47167641669512" cy="193.13701507118014" r="3" style="fill: steelblue;"></circle><circle cx="122.77165889739992" cy="119.7917636897829" r="3" style="fill: steelblue;"></circle><circle cx="117.06367671489716" cy="216.01465029848947" r="3" style="fill: steelblue;"></circle><circle cx="146.24244511127472" cy="235.19857244359122" r="3" style="fill: steelblue;"></circle><circle cx="279.61031287908554" cy="101.14933401346207" r="3" style="fill: steelblue;"></circle><circle cx="88.06074500083925" cy="205.92207395368155" r="3" style="fill: steelblue;"></circle><circle cx="137.5046306848526" cy="214.72016904089185" r="3" style="fill: steelblue;"></circle><circle cx="331.8892711400986" cy="143.04721020162106" r="3" style="fill: steelblue;"></circle><circle cx="321.2840133905411" cy="175.11690217587682" r="3" style="fill: steelblue;"></circle><circle cx="281.5710702538491" cy="83.979109260771" r="3" style="fill: steelblue;"></circle><circle cx="255.56561551988125" cy="173.8362069759104" r="3" style="fill: steelblue;"></circle><circle cx="283.51443350315094" cy="103.83276492357254" r="3" style="fill: steelblue;"></circle><circle cx="52.220156192779555" cy="311.5898761484358" r="3" style="fill: steelblue;"></circle><circle cx="55.80566167831422" cy="192.7617752717601" r="3" style="fill: steelblue;"></circle><circle cx="205.82394540309906" cy="167.469183045129" r="3" style="fill: steelblue;"></circle><circle cx="79.86403942108154" cy="159.9311569498645" r="3" style="fill: steelblue;"></circle><circle cx="145.72350919246676" cy="186.72499739461477" r="3" style="fill: steelblue;"></circle><circle cx="83.25544238090517" cy="210.08256011539038" r="3" style="fill: steelblue;"></circle><circle cx="146.8714410066605" cy="253.55697108639612" r="3" style="fill: steelblue;"></circle><circle cx="326.59509122371674" cy="94.15761811865701" r="3" style="fill: steelblue;"></circle><circle cx="407.9889142513275" cy="239.53404708041086" r="3" style="fill: steelblue;"></circle><circle cx="201.5855321288109" cy="74.77628125084772" r="3" style="fill: steelblue;"></circle><circle cx="349.8978102207184" cy="61.26826273070441" r="3" style="fill: steelblue;"></circle><circle cx="157.8186357021332" cy="114.97571542859077" r="3" style="fill: steelblue;"></circle><circle cx="290.3975495696068" cy="161.8305956530902" r="3" style="fill: steelblue;"></circle><circle cx="368.625950217247" cy="69.83263807164298" r="3" style="fill: steelblue;"></circle><circle cx="381.0219222307205" cy="130.2563115126557" r="3" style="fill: steelblue;"></circle><circle cx="156.25431776046753" cy="124.9225153691239" r="3" style="fill: steelblue;"></circle><circle cx="329.90893363952637" cy="84.62785366508695" r="3" style="fill: steelblue;"></circle><circle cx="256.01356118917465" cy="113.78089479274222" r="3" style="fill: steelblue;"></circle><circle cx="427.4471068382263" cy="187.72579042447938" r="3" style="fill: steelblue;"></circle><circle cx="301.3442748785019" cy="139.8564361449745" r="3" style="fill: steelblue;"></circle><circle cx="152.66624629497528" cy="253.53234277831183" r="3" style="fill: steelblue;"></circle><circle cx="279.27779495716095" cy="83.15967039929495" r="3" style="fill: steelblue;"></circle><circle cx="134.3941444158554" cy="250.22742665476267" r="3" style="fill: steelblue;"></circle><circle cx="190.8280947804451" cy="214.00285363197327" r="3" style="fill: steelblue;"></circle><circle cx="33.060564994812026" cy="217.25588805145685" r="3" style="fill: steelblue;"></circle><circle cx="154.25373852252963" cy="279.242256614897" r="3" style="fill: steelblue;"></circle><circle cx="130.1482880115509" cy="222.33321948183908" r="3" style="fill: steelblue;"></circle><circle cx="130.3272181749344" cy="267.5677084260517" r="3" style="fill: steelblue;"></circle><circle cx="196.29976987838745" cy="224.81212533182565" r="3" style="fill: steelblue;"></circle><circle cx="117.4301826953888" cy="152.23135039624242" r="3" style="fill: steelblue;"></circle><circle cx="129.1110062599182" cy="133.98120258417396" r="3" style="fill: steelblue;"></circle><circle cx="255.9438293427229" cy="186.6812604169051" r="3" style="fill: steelblue;"></circle><circle cx="346.0367614030838" cy="155.9137898251518" r="3" style="fill: steelblue;"></circle><circle cx="330.76678454875946" cy="146.38528254710968" r="3" style="fill: steelblue;"></circle><circle cx="264.4340389966965" cy="161.1128941592243" r="3" style="fill: steelblue;"></circle><circle cx="354.7678345441818" cy="69.03323796060351" r="3" style="fill: steelblue;"></circle><circle cx="348.93462002277374" cy="45.534783932897774" r="3" style="fill: steelblue;"></circle><circle cx="399.9106192588806" cy="109.32886161737973" r="3" style="fill: steelblue;"></circle><circle cx="356.35726690292364" cy="142.6857216904561" r="3" style="fill: steelblue;"></circle><circle cx="486.40708565711975" cy="101.61402093039618" r="3" style="fill: steelblue;"></circle><circle cx="411.3544428348541" cy="176.71674547923936" r="3" style="fill: steelblue;"></circle><circle cx="407.09291338920593" cy="120.3208290040493" r="3" style="fill: steelblue;"></circle><circle cx="277.2948311269284" cy="213.76053426000806" r="3" style="fill: steelblue;"></circle><circle cx="166.57988369464877" cy="270.1578531000349" r="3" style="fill: steelblue;"></circle><circle cx="213.65984916687015" cy="225.9594741794798" r="3" style="fill: steelblue;"></circle><circle cx="148.8647156953812" cy="244.1956642601225" r="3" style="fill: steelblue;"></circle><circle cx="170.77330738306048" cy="148.98326699104575" r="3" style="fill: steelblue;"></circle><circle cx="225.15726886689663" cy="270.94943589634363" r="3" style="fill: steelblue;"></circle><circle cx="269.59604635834694" cy="203.0252459976408" r="3" style="fill: steelblue;"></circle><circle cx="237.89557331241667" cy="266.104010409779" r="3" style="fill: steelblue;"></circle><circle cx="339.9584019184113" cy="192.13392146759566" r="3" style="fill: steelblue;"></circle><circle cx="240.97154185641557" cy="190.0883289674918" r="3" style="fill: steelblue;"></circle><circle cx="129.0843629837036" cy="265.04812240600586" r="3" style="fill: steelblue;"></circle><circle cx="186.76923304796222" cy="197.06052185760603" r="3" style="fill: steelblue;"></circle><circle cx="454.3660068511963" cy="136.31575033068657" r="3" style="fill: steelblue;"></circle><circle cx="310.58197259902954" cy="149.5675725138022" r="3" style="fill: steelblue;"></circle><circle cx="149.04262661933902" cy="46.3213599390454" r="3" style="fill: steelblue;"></circle><circle cx="454.64547514915466" cy="97.40156034628552" r="3" style="fill: steelblue;"></circle><circle cx="329.9905890226364" cy="29.83853154712255" r="3" style="fill: steelblue;"></circle><circle cx="430.55954217910767" cy="93.59390222364003" r="3" style="fill: steelblue;"></circle><circle cx="301.98978871107107" cy="237.67649895615045" r="3" style="fill: steelblue;"></circle><circle cx="72.38403797149658" cy="251.81130501959058" r="3" style="fill: steelblue;"></circle><circle cx="208.6226047575474" cy="129.18454549378822" r="3" style="fill: steelblue;"></circle><circle cx="279.47355598211294" cy="232.48024466964932" r="3" style="fill: steelblue;"></circle><circle cx="258.5512360185385" cy="242.48213089174692" r="3" style="fill: steelblue;"></circle><circle cx="127.4004900455475" cy="170.83830878966387" r="3" style="fill: steelblue;"></circle></g></svg>