<svg xmlns="http://www.w3.org/2000/svg"><g transform="translate(40,20)"><circle cx="344.7242349386215" cy="136.55408173799512" r="3" style="fill: steelblue;"></circle><circle cx="350.63985586166376" cy="198.0944428825751" r="3" style="fill: steelblue;"></circle><circle cx="271.0120216012001" cy="42.64677762985223" r="3" style="fill: steelblue;"></circle><circle cx="246.1318954825401" cy="74.53782558441159" r="3" style="fill: steelblue;"></circle><circle cx="396.254763007164" cy="57.13970661163326" r="3" style="fill: steelblue;"></circle><circle cx="456.6295266151428" cy="2.0858615636825064" r="3" style="fill: steelblue;"></circle><circle cx="223.75396192073822" cy="122.90917038917539" r="3" style="fill: steelblue;"></circle><circle cx="292.09812730550766" cy="47.29523956775662" r="3" style="fill: steelblue;"></circle><circle cx="473.9461362361908" cy="89.00396227836605" r="3" style="fill: steelblue;"></circle><circle cx="290.16219936311245" cy="17.307874560356098" r="3" style="fill: steelblue;"></circle><circle cx="418.5412734746933" cy="89.4174769520759" r="3" style="fill: steelblue;"></circle><circle cx="503.6541759967804" cy="100.7107317447662" r="3" style="fill: steelblue;"></circle><circle cx="412.5028610229492" cy="145.45962661504745" r="3" style="fill: steelblue;"></circle><circle cx="357.86396116018295" cy="113.40244561433792" r="3" style="fill: steelblue;"></circle><circle cx="303.20414789021015" cy="186.92352883517742" r="3" style="fill: steelblue;"></circle><circle cx="488.62754702568054" cy="203.4256854560226" r="3" style="fill: steelblue;"></circle><circle cx="333.9181512594223" cy="75.07849931716913" r="3" style="fill: steelblue;"></circle><circle cx="397.54908084869385" cy="175.1079361885786" r="3" style="fill: steelblue;"></circle><circle cx="252.02867835760117" cy="155.1459215581417" r="3" style="fill: steelblue;"></circle><circle cx="383.28127562999725" cy="4.372221231460532" r="3" style="fill: steelblue;"></circle><circle cx="368.99822652339935" cy="213.35854548960924" r="3" style="fill: steelblue;"></circle><circle cx="157.80534446239471" cy="197.683733003214" r="3" style="fill: steelblue;"></circle><circle cx="454.38907742500305" cy="214.5034771412611" r="3" style="fill: steelblue;"></circle><circle cx="268.88806745409966" cy="99.67666566371913" r="3" style="fill: steelblue;"></circle><circle cx="316.24162048101425" cy="244.13898661732676" r="3" style="fill: steelblue;"></circle><circle cx="298.7839065492153" cy="280.3884193301201" r="3" style="fill: steelblue;"></circle><circle cx="406.58285915851593" cy="264.5393431186676" r="3" style="fill: steelblue;"></circle><circle cx="289.8651212453842" cy="14.153254032134955" r="3" style="fill: steelblue;"></circle><circle cx="446.30562365055084" cy="82.48985260725016" r="3" style="fill: steelblue;"></circle><circle cx="228.0906781554222" cy="253.65343019366264" r="3" style="fill: steelblue;"></circle><circle cx="302.90716644376516" cy="236.69713437557218" r="3" style="fill: steelblue;"></circle><circle cx="390.2590423822403" cy="186.2667340785265" r="3" style="fill: steelblue;"></circle><circle cx="324.6804244816303" cy="201.99320237152276" r="3" style="fill: steelblue;"></circle><circle cx="286.58297806978226" cy="275.205534696579" r="3" style="fill: steelblue;"></circle><circle cx="441.159725189209" cy="178.99646684527397" r="3" style="fill: steelblue;"></circle><circle cx="187.54722476005554" cy="102.54839509725569" r="3" style="fill: steelblue;"></circle><circle cx="413.79447877407074" cy="297.8895127773285" r="3" style="fill: steelblue;"></circle><circle cx="261.6524577140808" cy="309.87330228090286" r="3" style="fill: steelblue;"></circle><circle cx="316.37625731527805" cy="277.41953432559967" r="3" style="fill: steelblue;"></circle><circle cx="257.671120762825" cy="291.2805125117302" r="3" style="fill: steelblue;"></circle><circle cx="242.01717674732208" cy="287.83983439207077" r="3" style="fill: steelblue;"></circle><circle cx="355.17842173576355" cy="207.84286856651306" r="3" style="fill: steelblue;"></circle><circle cx="206.72025382518768" cy="212.52969913184646" r="3" style="fill: steelblue;"></circle><circle cx="177.1222025156021" cy="222.2491640597582" r="3" style="fill: steelblue;"></circle><circle cx="383.9410275220871" cy="251.87920480966568" r="3" style="fill: steelblue;"></circle><circle cx="222.29165732860565" cy="265.69547206163406" r="3" style="fill: steelblue;"></circle><circle cx="208.71745347976682" cy="210.92036627233026" r="3" style="fill: steelblue;"></circle><circle cx="319.2985899746418" cy="266.61007553339005" r="3" style="fill: steelblue;"></circle><circle cx="269.8196366429329" cy="259.59169566631317" r="3" style="fill: steelblue;"></circle><circle cx="410.432231426239" cy="268.60803067684174" r="3" style="fill: steelblue;"></circle><circle cx="271.79556638002396" cy="314.4648939371109" r="3" style="fill: steelblue;"></circle><circle cx="379.8008769750595" cy="164.77561816573143" r="3" style="fill: steelblue;"></circle><circle cx="59.26133394241333" cy="290.71819484233856" r="3" style="fill: steelblue;"></circle><circle cx="242.59611815214157" cy="246.2321229279041" r="3" style="fill: steelblue;"></circle><circle cx="281.61897473037243" cy="254.27292734384537" r="3" style="fill: steelblue;"></circle><circle cx="293.2490721344948" cy="263.9558508992195" r="3" style="fill: steelblue;"></circle><circle cx="251.91000401973724" cy="262.0352663099766" r="3" style="fill: steelblue;"></circle><circle cx="215.87262153625488" cy="279.5901417732239" r="3" style="fill: steelblue;"></circle><circle cx="148.7978160381317" cy="342.94135570526123" r="3" style="fill: steelblue;"></circle><circle cx="394.7282463312149" cy="288.8553336262703" r="3" style="fill: steelblue;"></circle><circle cx="170.43318450450897" cy="84.72190499305721" r="3" style="fill: steelblue;"></circle><circle cx="424.63088035583496" cy="42.8222835063934" r="3" style="fill: steelblue;"></circle><circle cx="445.4718232154846" cy="96.07720822095868" r="3" style="fill: steelblue;"></circle><circle cx="362.6088961958885" cy="157.61306583881378" r="3" style="fill: steelblue;"></circle><circle cx="290.3185095638037" cy="93.93767714500424" r="3" style="fill: steelblue;"></circle><circle cx="432.25821554660797" cy="122.24178463220595" r="3" style="fill: steelblue;"></circle><circle cx="339.03311938047403" cy="129.32596057653424" r="3" style="fill: steelblue;"></circle><circle cx="347.26240485906595" cy="253.1853623688221" r="3" style="fill: steelblue;"></circle><circle cx="409.43131148815155" cy="222.0568627119064" r="3" style="fill: steelblue;"></circle><circle cx="364.45233374834055" cy="168.92840787768364" r="3" style="fill: steelblue;"></circle><circle cx="250.36592334508896" cy="63.195970654487574" r="3" style="fill: steelblue;"></circle><circle cx="324.2214985191822" cy="181.79914988577363" r="3" style="fill: steelblue;"></circle><circle cx="148.83581399917603" cy="85.56845486164087" r="3" style="fill: steelblue;"></circle><circle cx="411.69650852680206" cy="309.8654121160507" r="3" style="fill: steelblue;"></circle><circle cx="153.93482744693756" cy="209.58358403295279" r="3" style="fill: steelblue;"></circle><circle cx="209.8241686820984" cy="186.12089361995456" r="3" style="fill: steelblue;"></circle><circle cx="204.80520129203796" cy="327.6120990514755" r="3" style="fill: steelblue;"></circle><circle cx="109.16908979415894" cy="349.46725964546204" r="3" style="fill: steelblue;"></circle><circle cx="196.97160422801971" cy="321.3524118065834" r="3" style="fill: steelblue;"></circle><circle cx="127.18124985694885" cy="308.6880713701248" r="3" style="fill: steelblue;"></circle><circle cx="193.14700663089752" cy="271.0557550191879" r="3" style="fill: steelblue;"></circle><circle cx="305.12877367436886" cy="282.4112296104431" r="3" style="fill: steelblue;"></circle><circle cx="333.28614458441734" cy="165.85967391729352" r="3" style="fill: steelblue;"></circle><circle cx="251.97748392820355" cy="193.1988068856299" r="3" style="fill: steelblue;"></circle><circle cx="299.4472956983372" cy="98.61915260553356" r="3" style="fill: steelblue;"></circle><circle cx="314.1484212130308" cy="153.0418328940868" r="3" style="fill: steelblue;"></circle><circle cx="291.42582044005394" cy="149.29857179522514" r="3" style="fill: steelblue;"></circle><circle cx="433.491575717926" cy="269.80903446674347" r="3" style="fill: steelblue;"></circle><circle cx="469.746333360672" cy="182.80497081577775" r="3" style="fill: steelblue;"></circle><circle cx="371.3211849331856" cy="107.22811967134476" r="3" style="fill: steelblue;"></circle><circle cx="319.8563151061535" cy="66.02282524108884" r="3" style="fill: steelblue;"></circle><circle cx="383.224081993103" cy="267.8297281265259" r="3" style="fill: steelblue;"></circle><circle cx="267.35130697488785" cy="196.66108307428658" r="3" style="fill: steelblue;"></circle><circle cx="354.36214953660965" cy="180.77098466455934" r="3" style="fill: steelblue;"></circle><circle cx="210.19803285598752" cy="179.67818006873134" r="3" style="fill: steelblue;"></circle><circle cx="123.1850266456604" cy="173.51179085671902" r="3" style="fill: steelblue;"></circle><circle cx="191.3768112659454" cy="336.67812943458557" r="3" style="fill: steelblue;"></circle><circle cx="163.24097514152524" cy="195.63457118347287" r="3" style="fill: steelblue;"></circle><circle cx="310.1401023566723" cy="241.03483259677887" r="3" style="fill: steelblue;"></circle><circle cx="121.96372747421265" cy="279.63743060827255" r="3" style="fill: steelblue;"></circle><circle cx="226.76104903221128" cy="247.5422963500023" r="3" style="fill: steelblue;"></circle><circle cx="129.43952679634094" cy="266.1676600575447" r="3" style="fill: steelblue;"></circle><circle cx="243.56480687856674" cy="127.99307405948637" r="3" style="fill: steelblue;"></circle><circle cx="246.72086387872693" cy="346.35685086250305" r="3" style="fill: steelblue;"></circle><circle cx="131.06861114501953" cy="268.25272738933563" r="3" style="fill: steelblue;"></circle><circle cx="235.9637662768364" cy="319.11164969205856" r="3" style="fill: steelblue;"></circle><circle cx="329.6842709183693" cy="151.87838003039357" r="3" style="fill: steelblue;"></circle><circle cx="309.23860240727663" cy="39.58694338798519" r="3" style="fill: steelblue;"></circle><circle cx="468.5327589511871" cy="134.99369919300077" r="3" style="fill: steelblue;"></circle><circle cx="389.72330689430237" cy="81.18970394134516" r="3" style="fill: steelblue;"></circle><circle cx="493.9634084701538" cy="44.5568978786468" r="3" style="fill: steelblue;"></circle><circle cx="395.597979426384" cy="157.35948532819745" r="3" style="fill: steelblue;"></circle><circle cx="173.29911589622498" cy="141.2377029657364" r="3" style="fill: steelblue;"></circle><circle cx="151.49112939834592" cy="157.92551711201668" r="3" style="fill: steelblue;"></circle><circle cx="340.6867012381553" cy="205.5250320583582" r="3" style="fill: steelblue;"></circle><circle cx="181.31619393825528" cy="253.4876063466072" r="3" style="fill: steelblue;"></circle><circle cx="165.88471233844757" cy="115.46469926834104" r="3" style="fill: steelblue;"></circle><circle cx="276.4208950102329" cy="201.86251755803826" r="3" style="fill: steelblue;"></circle></g></svg>