<svg xmlns="http://www.w3.org/2000/svg"><g><circle cx="12.651614099740986" cy="87.49370202422142" r="2" style="fill: steelblue;"></circle><circle cx="11.084168404340748" cy="45.788280852138996" r="2" style="fill: steelblue;"></circle><circle cx="40.79093988984823" cy="50.748945865780115" r="2" style="fill: steelblue;"></circle><circle cx="34.07428711652756" cy="96.67411372065544" r="2" style="fill: steelblue;"></circle><circle cx="24.879328161478046" cy="97.6628877222538" r="2" style="fill: steelblue;"></circle><circle cx="10.31373739242554" cy="96.86549678444862" r="2" style="fill: steelblue;"></circle><circle cx="40.544870495796204" cy="69.62906122207642" r="2" style="fill: steelblue;"></circle><circle cx="86.72727197408676" cy="59.90645028650761" r="2" style="fill: steelblue;"></circle><circle cx="67.93188229203224" cy="58.27412959188223" r="2" style="fill: steelblue;"></circle><circle cx="49.978313222527504" cy="58.06036591529846" r="2" style="fill: steelblue;"></circle><circle cx="39.48132712393999" cy="55.69075578823686" r="2" style="fill: steelblue;"></circle><circle cx="18.906311318278316" cy="60.65283827483654" r="2" style="fill: steelblue;"></circle><circle cx="56.43127877265215" cy="66.45967923104763" r="2" style="fill: steelblue;"></circle><circle cx="70.24862356483936" cy="53.22947185486555" r="2" style="fill: steelblue;"></circle><circle cx="49.17713465401903" cy="69.70335841178894" r="2" style="fill: steelblue;"></circle><circle cx="55.46609330922365" cy="54.897646605968475" r="2" style="fill: steelblue;"></circle><circle cx="26.51810012757778" cy="46.602730825543404" r="2" style="fill: steelblue;"></circle><circle cx="28.00014540553093" cy="66.64801687002182" r="2" style="fill: steelblue;"></circle><circle cx="67.25001446902752" cy="77.44665741920471" r="2" style="fill: steelblue;"></circle><circle cx="38.05705923587084" cy="52.51287152059376" r="2" style="fill: steelblue;"></circle><circle cx="54.616950172930956" cy="68.7386404722929" r="2" style="fill: steelblue;"></circle><circle cx="40.47384690493345" cy="27.958740666508675" r="2" style="fill: steelblue;"></circle><circle cx="43.49201610311866" cy="63.82850110530853" r="2" style="fill: steelblue;"></circle><circle cx="50.36357817589305" cy="75.65665915608406" r="2" style="fill: steelblue;"></circle><circle cx="61.445230804383755" cy="74.6031042188406" r="2" style="fill: steelblue;"></circle><circle cx="19.191096723079685" cy="34.7688851878047" r="2" style="fill: steelblue;"></circle><circle cx="32.68984630703926" cy="70.63647285103798" r="2" style="fill: steelblue;"></circle><circle cx="37.909034825861454" cy="60.76249312609434" r="2" style="fill: steelblue;"></circle><circle cx="2.1311298012733486" cy="30.88962584733963" r="2" style="fill: steelblue;"></circle><circle cx="40.94246234744787" cy="27.647116407752037" r="2" style="fill: steelblue;"></circle><circle cx="54.38897917047143" cy="41.89779628068209" r="2" style="fill: steelblue;"></circle><circle cx="71.4554388076067" cy="20.050375908613205" r="2" style="fill: steelblue;"></circle><circle cx="82.4498862028122" cy="43.06632997468114" r="2" style="fill: steelblue;"></circle><circle cx="65.7291628420353" cy="48.77772235777229" r="2" style="fill: steelblue;"></circle><circle cx="61.54266484081745" cy="53.51101788692176" r="2" style="fill: steelblue;"></circle><circle cx="39.01213798671961" cy="52.19731987453997" r="2" style="fill: steelblue;"></circle><circle cx="34.248775988817215" cy="54.40869573503733" r="2" style="fill: steelblue;"></circle><circle cx="38.986847922205925" cy="72.44750410318375" r="2" style="fill: steelblue;"></circle><circle cx="19.818614423274997" cy="86.84012219309807" r="2" style="fill: steelblue;"></circle><circle cx="4.8277892172336605" cy="84.06388312578201" r="2" style="fill: steelblue;"></circle><circle cx="38.20656631141901" cy="71.61599509418011" r="2" style="fill: steelblue;"></circle><circle cx="74.16373789310455" cy="8.338383585214615" r="2" style="fill: steelblue;"></circle><circle cx="65.884505584836" cy="62.672919780015945" r="2" style="fill: steelblue;"></circle><circle cx="79.38405610620975" cy="55.290092434734106" r="2" style="fill: steelblue;"></circle><circle cx="74.84958432614803" cy="39.94727339595556" r="2" style="fill: steelblue;"></circle><circle cx="67.8317092359066" cy="33.792200684547424" r="2" style="fill: steelblue;"></circle><circle cx="78.19395810365677" cy="26.919524371623993" r="2" style="fill: steelblue;"></circle><circle cx="9.59272608160973" cy="76.44128166139126" r="2" style="fill: steelblue;"></circle><circle cx="55.50786452367902" cy="28.348515927791595" r="2" style="fill: steelblue;"></circle><circle cx="18.371655791997913" cy="26.11372359097004" r="2" style="fill: steelblue;"></circle><circle cx="6.946868449449542" cy="40.15497136861086" r="2" style="fill: steelblue;"></circle><circle cx="7.034852355718615" cy="58.591415360569954" r="2" style="fill: steelblue;"></circle><circle cx="46.190465055406094" cy="64.35584295541048" r="2" style="fill: steelblue;"></circle><circle cx="52.795472741127014" cy="32.006220147013664" r="2" style="fill: steelblue;"></circle><circle cx="37.68936563283205" cy="80.46650253236294" r="2" style="fill: steelblue;"></circle><circle cx="1.5758715569973019" cy="76.8839281052351" r="2" style="fill: steelblue;"></circle><circle cx="47.67485470511019" cy="20.910651609301567" r="2" style="fill: steelblue;"></circle><circle cx="45.212639681994915" cy="49.492378905415535" r="2" style="fill: steelblue;"></circle><circle cx="40.0689460337162" cy="62.060895562171936" r="2" style="fill: steelblue;"></circle><circle cx="19.474660232663158" cy="42.34190909191966" r="2" style="fill: steelblue;"></circle><circle cx="66.04511588811874" cy="53.55546153150499" r="2" style="fill: steelblue;"></circle><circle cx="17.80919656157494" cy="71.65691927075386" r="2" style="fill: steelblue;"></circle><circle cx="9.890227764844898" cy="56.28633704036474" r="2" style="fill: steelblue;"></circle><circle cx="26.9138190895319" cy="84.39938649535179" r="2" style="fill: steelblue;"></circle><circle cx="24.553233012557033" cy="47.2919465508312" r="2" style="fill: steelblue;"></circle><circle cx="5.951284617185595" cy="81.24882094562054" r="2" style="fill: steelblue;"></circle><circle cx="14.759998023509983" cy="81.15311823785305" r="2" style="fill: steelblue;"></circle><circle cx="65.45299496501684" cy="78.92862819135189" r="2" style="fill: steelblue;"></circle><circle cx="0.6247341632843045" cy="52.4076031986624" r="2" style="fill: steelblue;"></circle><circle cx="51.01747876033187" cy="77.39986404776573" r="2" style="fill: steelblue;"></circle><circle cx="30.998773127794266" cy="74.8296782374382" r="2" style="fill: steelblue;"></circle><circle cx="69.94510926306248" cy="32.61708207428455" r="2" style="fill: steelblue;"></circle><circle cx="79.10521626472473" cy="26.56293958425522" r="2" style="fill: steelblue;"></circle><circle cx="75.76837688684464" cy="66.2134412676096" r="2" style="fill: steelblue;"></circle><circle cx="78.11373211443424" cy="46.85509060509503" r="2" style="fill: steelblue;"></circle><circle cx="85.90844571590424" cy="52.76584085077047" r="2" style="fill: steelblue;"></circle><circle cx="60.329682379961014" cy="34.383598901331425" r="2" style="fill: steelblue;"></circle><circle cx="64.52023349702358" cy="64.91961907595396" r="2" style="fill: steelblue;"></circle><circle cx="63.05604726076126" cy="30.70397973060608" r="2" style="fill: steelblue;"></circle><circle cx="87.38788142800331" cy="28.47280278801918" r="2" style="fill: steelblue;"></circle><circle cx="83.68552774190903" cy="47.36749776639044" r="2" style="fill: steelblue;"></circle><circle cx="96.86909541487694" cy="10.717551410198212" r="2" style="fill: steelblue;"></circle><circle cx="89.47019204497337" cy="47.84855358302593" r="2" style="fill: steelblue;"></circle><circle cx="46.133994311094284" cy="46.606094064190984" r="2" style="fill: steelblue;"></circle><circle cx="26.203059777617455" cy="57.61971529573202" r="2" style="fill: steelblue;"></circle><circle cx="23.035126924514774" cy="57.51708820462227" r="2" style="fill: steelblue;"></circle><circle cx="44.164098519831896" cy="54.462406039237976" r="2" style="fill: steelblue;"></circle><circle cx="44.62726013734937" cy="59.03994683176279" r="2" style="fill: steelblue;"></circle><circle cx="38.172910176217556" cy="51.4049707679078" r="2" style="fill: steelblue;"></circle><circle cx="75.00518038868904" cy="47.922648675739765" r="2" style="fill: steelblue;"></circle><circle cx="61.26353722065687" cy="16.658979654312134" r="2" style="fill: steelblue;"></circle><circle cx="96.41737043857574" cy="40.50894472748041" r="2" style="fill: steelblue;"></circle><circle cx="56.07656501233578" cy="39.919500425457954" r="2" style="fill: steelblue;"></circle><circle cx="93.97307708859444" cy="32.78890922665596" r="2" style="fill: steelblue;"></circle><circle cx="73.23922701179981" cy="52.327771158888936" r="2" style="fill: steelblue;"></circle><circle cx="99.43970963358879" cy="15.890828520059586" r="2" style="fill: steelblue;"></circle><circle cx="53.498624777421355" cy="20.492074266076088" r="2" style="fill: steelblue;"></circle><circle cx="56.1390670016408" cy="20.228664577007294" r="2" style="fill: steelblue;"></circle><circle cx="60.34101005643606" cy="45.883531868457794" r="2" style="fill: steelblue;"></circle><circle cx="64.34844639152288" cy="49.60536474827677" r="2" style="fill: steelblue;"></circle><circle cx="64.21242579817772" cy="26.3653464615345" r="2" style="fill: steelblue;"></circle><circle cx="76.6948938369751" cy="37.96170670539141" r="2" style="fill: steelblue;"></circle><circle cx="48.666309169493616" cy="28.446969762444496" r="2" style="fill: steelblue;"></circle><circle cx="70.62935568392277" cy="35.54221075028181" r="2" style="fill: steelblue;"></circle><circle cx="61.30128093063831" cy="29.655809700489044" r="2" style="fill: steelblue;"></circle><circle cx="8.513118326663974" cy="63.280829414725304" r="2" style="fill: steelblue;"></circle><circle cx="60.84069907665253" cy="37.7195144072175" r="2" style="fill: steelblue;"></circle><circle cx="27.7158722281456" cy="29.197191074490547" r="2" style="fill: steelblue;"></circle><circle cx="50.79154275590554" cy="13.299170136451721" r="2" style="fill: steelblue;"></circle><circle cx="79.53803539276123" cy="50.06703191320412" r="2" style="fill: steelblue;"></circle><circle cx="59.47475153952837" cy="7.6858095824718475" r="2" style="fill: steelblue;"></circle><circle cx="66.47678948938847" cy="58.64074844866991" r="2" style="fill: steelblue;"></circle><circle cx="25.566700100898743" cy="85.15130653977394" r="2" style="fill: steelblue;"></circle><circle cx="17.157796025276188" cy="76.24952234327793" r="2" style="fill: steelblue;"></circle><circle cx="50.502862385474145" cy="60.994442738592625" r="2" style="fill: steelblue;"></circle><circle cx="30.690428987145424" cy="78.0064195394516" r="2" style="fill: steelblue;"></circle><circle cx="14.473884552717212" cy="81.82542696595192" r="2" style="fill: steelblue;"></circle><circle cx="33.094632625579834" cy="83.25916826725006" r="2" style="fill: steelblue;"></circle></g></svg>