<svg xmlns="http://www.w3.org/2000/svg"><g transform="translate(40,20)"><circle cx="454.05383974313736" cy="100.57273838255139" r="3" style="fill: steelblue;"></circle><circle cx="473.22442576289177" cy="217.52793755796222" r="3" style="fill: steelblue;"></circle><circle cx="397.3367363959551" cy="92.34864513079327" r="3" style="fill: steelblue;"></circle><circle cx="528.2107499241829" cy="114.65352442529468" r="3" style="fill: steelblue;"></circle><circle cx="440.57895809412" cy="145.5971971154213" r="3" style="fill: steelblue;"></circle><circle cx="260.09538979735225" cy="173.80875017907886" r="3" style="fill: steelblue;"></circle><circle cx="384.77768160402775" cy="63.72426946957905" r="3" style="fill: steelblue;"></circle><circle cx="378.3924315869808" cy="128.52328353457978" r="3" style="fill: steelblue;"></circle><circle cx="422.59604416787624" cy="107.48927709129123" r="3" style="fill: steelblue;"></circle><circle cx="458.405978679657" cy="59.019555648167916" r="3" style="fill: steelblue;"></circle><circle cx="528.5868895053864" cy="108.99385230408774" r="3" style="fill: steelblue;"></circle><circle cx="446.52191519737244" cy="133.23806309037735" r="3" style="fill: steelblue;"></circle><circle cx="422.1826487034559" cy="147.7335782514678" r="3" style="fill: steelblue;"></circle><circle cx="393.0789039283991" cy="149.6209179361661" r="3" style="fill: steelblue;"></circle><circle cx="386.2788402289152" cy="166.61081711451214" r="3" style="fill: steelblue;"></circle><circle cx="311.01022565737367" cy="166.21617890066568" r="3" style="fill: steelblue;"></circle><circle cx="458.82907032966614" cy="51.21135049396093" r="3" style="fill: steelblue;"></circle><circle cx="502.1707181632519" cy="71.60380979379016" r="3" style="fill: steelblue;"></circle><circle cx="363.4158582240343" cy="147.77584332558843" r="3" style="fill: steelblue;"></circle><circle cx="388.56075301766396" cy="112.13869601488113" r="3" style="fill: steelblue;"></circle><circle cx="414.6003623306751" cy="162.7905290159914" r="3" style="fill: steelblue;"></circle><circle cx="467.1047446131706" cy="178.20035852491856" r="3" style="fill: steelblue;"></circle><circle cx="303.5001854225993" cy="174.39653082854215" r="3" style="fill: steelblue;"></circle><circle cx="484.73890766501427" cy="47.04527225759295" r="3" style="fill: steelblue;"></circle><circle cx="172.5021482259035" cy="206.48097008880643" r="3" style="fill: steelblue;"></circle><circle cx="385.9001559019089" cy="177.4975593305296" r="3" style="fill: steelblue;"></circle><circle cx="344.5879327878356" cy="195.74604554670964" r="3" style="fill: steelblue;"></circle><circle cx="363.1217238306999" cy="201.16986096319226" r="3" style="fill: steelblue;"></circle><circle cx="105.77710278332235" cy="193.57060898457553" r="3" style="fill: steelblue;"></circle><circle cx="196.02399308234453" cy="194.6873315804017" r="3" style="fill: steelblue;"></circle><circle cx="332.24850565195084" cy="243.25307458639145" r="3" style="fill: steelblue;"></circle><circle cx="298.6254733800888" cy="197.42711002214088" r="3" style="fill: steelblue;"></circle><circle cx="376.95391595363617" cy="217.13455683655206" r="3" style="fill: steelblue;"></circle><circle cx="228.95629785954952" cy="207.2813676463233" r="3" style="fill: steelblue;"></circle><circle cx="245.81607112661004" cy="189.68858161113326" r="3" style="fill: steelblue;"></circle><circle cx="156.8025552481413" cy="234.49025013380583" r="3" style="fill: steelblue;"></circle><circle cx="163.75727511942387" cy="293.20604602495825" r="3" style="fill: steelblue;"></circle><circle cx="204.20078437775373" cy="161.07378527522087" r="3" style="fill: steelblue;"></circle><circle cx="421.4559678733349" cy="196.69756430408194" r="3" style="fill: steelblue;"></circle><circle cx="53.26959237456323" cy="155.86173989706566" r="3" style="fill: steelblue;"></circle><circle cx="241.26883920282125" cy="170.58752394384805" r="3" style="fill: steelblue;"></circle><circle cx="233.7892202474177" cy="183.06485936045647" r="3" style="fill: steelblue;"></circle><circle cx="227.0114180445671" cy="325.7101741102007" r="3" style="fill: steelblue;"></circle><circle cx="263.19067639298737" cy="138.83378853400546" r="3" style="fill: steelblue;"></circle><circle cx="219.10338912159204" cy="279.68243923452167" r="3" style="fill: steelblue;"></circle><circle cx="211.90089851617813" cy="263.07889156871374" r="3" style="fill: steelblue;"></circle><circle cx="415.9595985710621" cy="282.7793185909589" r="3" style="fill: steelblue;"></circle><circle cx="88.65785345435144" cy="195.9702932638013" r="3" style="fill: steelblue;"></circle><circle cx="161.28580391407013" cy="148.07419644461737" r="3" style="fill: steelblue;"></circle><circle cx="199.02376558631659" cy="203.48547895749408" r="3" style="fill: steelblue;"></circle><circle cx="404.8392404615879" cy="150.11168188518945" r="3" style="fill: steelblue;"></circle><circle cx="325.1612477749586" cy="129.09024457136792" r="3" style="fill: steelblue;"></circle><circle cx="254.34208477847278" cy="247.53954178757135" r="3" style="fill: steelblue;"></circle><circle cx="276.9606932345778" cy="243.36143334706622" r="3" style="fill: steelblue;"></circle><circle cx="28.915932476520553" cy="220.0701700316535" r="3" style="fill: steelblue;"></circle><circle cx="203.38920157402754" cy="250.03612207041846" r="3" style="fill: steelblue;"></circle><circle cx="259.6599415456876" cy="231.4250253968769" r="3" style="fill: steelblue;"></circle><circle cx="0.41946664452554294" cy="237.3168642322222" r="3" style="fill: steelblue;"></circle><circle cx="124.92702908813955" cy="218.3120652205414" r="3" style="fill: steelblue;"></circle><circle cx="198.0353480949998" cy="234.9625370568699" r="3" style="fill: steelblue;"></circle><circle cx="303.5167489014566" cy="93.69528624746533" r="3" style="fill: steelblue;"></circle><circle cx="198.02389673888683" cy="167.96885679165524" r="3" style="fill: steelblue;"></circle><circle cx="251.6906834486872" cy="194.93720948877228" r="3" style="fill: steelblue;"></circle><circle cx="446.9322529435158" cy="84.09945997926923" r="3" style="fill: steelblue;"></circle><circle cx="469.3407413363457" cy="135.1750534441736" r="3" style="fill: steelblue;"></circle><circle cx="423.4963008016348" cy="153.43313374453118" r="3" style="fill: steelblue;"></circle><circle cx="166.66554741561413" cy="155.80684484706984" r="3" style="fill: steelblue;"></circle><circle cx="329.8048958927393" cy="82.83927871121301" r="3" style="fill: steelblue;"></circle><circle cx="332.7946302294731" cy="123.78569526804819" r="3" style="fill: steelblue;"></circle><circle cx="423.6131680011749" cy="112.27053569422827" r="3" style="fill: steelblue;"></circle><circle cx="393.08792620897293" cy="211.7414137141572" r="3" style="fill: steelblue;"></circle><circle cx="412.8560145199299" cy="169.90170379479724" r="3" style="fill: steelblue;"></circle><circle cx="399.8047173768282" cy="180.08553961084948" r="3" style="fill: steelblue;"></circle><circle cx="267.08200857276097" cy="276.0041000114547" r="3" style="fill: steelblue;"></circle><circle cx="164.6330700069666" cy="226.1620197031233" r="3" style="fill: steelblue;"></circle><circle cx="343.8327719271183" cy="204.92781771139965" r="3" style="fill: steelblue;"></circle><circle cx="205.68659406155348" cy="235.3046097689205" r="3" style="fill: steelblue;"></circle><circle cx="115.43879851698877" cy="270.0146229730712" r="3" style="fill: steelblue;"></circle><circle cx="240.08649297058582" cy="304.1523959901598" r="3" style="fill: steelblue;"></circle><circle cx="99.65892031788827" cy="120.46103593375949" r="3" style="fill: steelblue;"></circle><circle cx="286.4442165289074" cy="281.07166124714746" r="3" style="fill: steelblue;"></circle><circle cx="292.4099116399884" cy="204.36359910915291" r="3" style="fill: steelblue;"></circle><circle cx="197.8364958241582" cy="294.6212755309211" r="3" style="fill: steelblue;"></circle><circle cx="309.4544052891433" cy="172.76797381540138" r="3" style="fill: steelblue;"></circle><circle cx="450.42452931404114" cy="140.58945659134122" r="3" style="fill: steelblue;"></circle><circle cx="407.37801164388657" cy="230.9004192550977" r="3" style="fill: steelblue;"></circle><circle cx="120.41446052491666" cy="246.39991174141562" r="3" style="fill: steelblue;"></circle><circle cx="342.3588813096285" cy="188.9741679963966" r="3" style="fill: steelblue;"></circle><circle cx="250.25319376029074" cy="175.42522193657027" r="3" style="fill: steelblue;"></circle><circle cx="314.8416195809841" cy="280.6608842478858" r="3" style="fill: steelblue;"></circle><circle cx="334.2722826451063" cy="167.17675245470468" r="3" style="fill: steelblue;"></circle><circle cx="436.9915705919266" cy="115.14619489510852" r="3" style="fill: steelblue;"></circle><circle cx="416.76375836133957" cy="205.2722221447362" r="3" style="fill: steelblue;"></circle><circle cx="110.83248674869539" cy="122.61077430513171" r="3" style="fill: steelblue;"></circle><circle cx="159.43272605538368" cy="173.64737826089066" r="3" style="fill: steelblue;"></circle><circle cx="161.46358408033848" cy="220.12851304478113" r="3" style="fill: steelblue;"></circle><circle cx="342.35522512346506" cy="234.63439817229903" r="3" style="fill: steelblue;"></circle><circle cx="486.84597730636597" cy="196.55806105583906" r="3" style="fill: steelblue;"></circle><circle cx="258.1807797588408" cy="238.37213218212128" r="3" style="fill: steelblue;"></circle><circle cx="302.8623393550515" cy="229.358101884524" r="3" style="fill: steelblue;"></circle><circle cx="115.49324400722982" cy="136.51645017994775" r="3" style="fill: steelblue;"></circle><circle cx="323.40602193027735" cy="243.15997958183289" r="3" style="fill: steelblue;"></circle><circle cx="168.73062372207642" cy="148.06302967998715" r="3" style="fill: steelblue;"></circle><circle cx="115.23164816200735" cy="101.76606973012287" r="3" style="fill: steelblue;"></circle><circle cx="255.6177505105734" cy="191.28584039087093" r="3" style="fill: steelblue;"></circle><circle cx="90.55144608020784" cy="324.15672474437287" r="3" style="fill: steelblue;"></circle><circle cx="411.5176894515753" cy="62.73159219159021" r="3" style="fill: steelblue;"></circle><circle cx="303.99986336007714" cy="113.90452252493964" r="3" style="fill: steelblue;"></circle><circle cx="413.3665730059147" cy="127.18744989898471" r="3" style="fill: steelblue;"></circle><circle cx="440.3945495188236" cy="17.11835463841755" r="3" style="fill: steelblue;"></circle><circle cx="439.75415870547295" cy="152.215049498611" r="3" style="fill: steelblue;"></circle><circle cx="296.5277277678251" cy="84.75835124651593" r="3" style="fill: steelblue;"></circle><circle cx="279.0094424318522" cy="190.94006510244475" r="3" style="fill: steelblue;"></circle><circle cx="24.879060387611403" cy="273.93736773067053" r="3" style="fill: steelblue;"></circle><circle cx="162.06712134182453" cy="206.22110522041714" r="3" style="fill: steelblue;"></circle><circle cx="161.1901194602251" cy="211.12256228095953" r="3" style="fill: steelblue;"></circle><circle cx="347.2437421604991" cy="278.2252488864793" r="3" style="fill: steelblue;"></circle><circle cx="185.72022680193186" cy="331.465525759591" r="3" style="fill: steelblue;"></circle></g></svg>