<svg xmlns="http://www.w3.org/2000/svg"><g><circle cx="22.03700542449951" cy="68.40433776378632" r="2" style="fill: steelblue;"></circle><circle cx="40.3410330414772" cy="85.63632037904527" r="2" style="fill: steelblue;"></circle><circle cx="38.658178597688675" cy="59.75811117225223" r="2" style="fill: steelblue;"></circle><circle cx="45.96599116921425" cy="36.254936787817215" r="2" style="fill: steelblue;"></circle><circle cx="41.16903245449066" cy="68.06416246626112" r="2" style="fill: steelblue;"></circle><circle cx="23.645561933517456" cy="64.23604753282335" r="2" style="fill: steelblue;"></circle><circle cx="63.69476318359375" cy="31.982428663306774" r="2" style="fill: steelblue;"></circle><circle cx="56.340234726667404" cy="46.96550650729073" r="2" style="fill: steelblue;"></circle><circle cx="44.142477586865425" cy="47.299008982049095" r="2" style="fill: steelblue;"></circle><circle cx="54.615554213523865" cy="28.345140483644272" r="2" style="fill: steelblue;"></circle><circle cx="22.04342484474182" cy="53.757917715443504" r="2" style="fill: steelblue;"></circle><circle cx="35.17627567052841" cy="34.996179408497284" r="2" style="fill: steelblue;"></circle><circle cx="8.75900685787201" cy="62.291283739937676" r="2" style="fill: steelblue;"></circle><circle cx="37.84072697162628" cy="72.12312122186025" r="2" style="fill: steelblue;"></circle><circle cx="56.99222534894943" cy="41.80290235413445" r="2" style="fill: steelblue;"></circle><circle cx="26.15962028503418" cy="18.74540514416165" r="2" style="fill: steelblue;"></circle><circle cx="27.97348201274872" cy="84.33006472057767" r="2" style="fill: steelblue;"></circle><circle cx="42.10948273539543" cy="76.72495908207364" r="2" style="fill: steelblue;"></circle><circle cx="68.46478581428528" cy="32.62800160381529" r="2" style="fill: steelblue;"></circle><circle cx="59.2481255531311" cy="46.97572622034285" r="2" style="fill: steelblue;"></circle><circle cx="58.12457874417305" cy="28.990764750374687" r="2" style="fill: steelblue;"></circle><circle cx="60.95931902527809" cy="51.080228719446396" r="2" style="fill: steelblue;"></circle><circle cx="44.600635394454" cy="24.713960952228973" r="2" style="fill: steelblue;"></circle><circle cx="46.44617922604084" cy="51.36492037110858" r="2" style="fill: steelblue;"></circle><circle cx="56.74588829278946" cy="19.510306583510506" r="2" style="fill: steelblue;"></circle><circle cx="28.481000661849976" cy="47.07406436403593" r="2" style="fill: steelblue;"></circle><circle cx="29.774419963359833" cy="70.70827583471934" r="2" style="fill: steelblue;"></circle><circle cx="22.071531414985657" cy="46.39259887238344" r="2" style="fill: steelblue;"></circle><circle cx="57.0722222328186" cy="62.609226504961654" r="2" style="fill: steelblue;"></circle><circle cx="49.77226862683892" cy="62.35476599799262" r="2" style="fill: steelblue;"></circle><circle cx="90.70720672607422" cy="28.892307811313213" r="2" style="fill: steelblue;"></circle><circle cx="90.0290697813034" cy="37.94409806529681" r="2" style="fill: steelblue;"></circle><circle cx="58.8479682803154" cy="45.6528572158681" r="2" style="fill: steelblue;"></circle><circle cx="55.73789291083813" cy="52.9027897450659" r="2" style="fill: steelblue;"></circle><circle cx="58.78209322690964" cy="34.17076766490936" r="2" style="fill: steelblue;"></circle><circle cx="44.452330842614174" cy="67.79439515537686" r="2" style="fill: steelblue;"></circle><circle cx="30.010180175304413" cy="14.983312288920093" r="2" style="fill: steelblue;"></circle><circle cx="35.108427703380585" cy="52.67490131987466" r="2" style="fill: steelblue;"></circle><circle cx="37.94764280319214" cy="37.69014171428151" r="2" style="fill: steelblue;"></circle><circle cx="31.968066096305847" cy="29.91050581137339" r="2" style="fill: steelblue;"></circle><circle cx="37.36860007047653" cy="39.5460006263521" r="2" style="fill: steelblue;"></circle><circle cx="55.35511523485184" cy="12.184854348500574" r="2" style="fill: steelblue;"></circle><circle cx="66.68897718191147" cy="22.288035353024803" r="2" style="fill: steelblue;"></circle><circle cx="43.33377406001091" cy="40.2879203359286" r="2" style="fill: steelblue;"></circle><circle cx="53.156283125281334" cy="31.24043610360887" r="2" style="fill: steelblue;"></circle><circle cx="29.330118000507355" cy="26.83508495489756" r="2" style="fill: steelblue;"></circle><circle cx="65.18919616937637" cy="45.08152889708678" r="2" style="fill: steelblue;"></circle><circle cx="32.76349455118179" cy="66.94790654712253" r="2" style="fill: steelblue;"></circle><circle cx="27.42132842540741" cy="57.74621185329225" r="2" style="fill: steelblue;"></circle><circle cx="37.15081959962845" cy="69.92750300301445" r="2" style="fill: steelblue;"></circle><circle cx="34.47993844747543" cy="56.81790759166082" r="2" style="fill: steelblue;"></circle><circle cx="62.12942972779274" cy="37.121142115857864" r="2" style="fill: steelblue;"></circle><circle cx="57.165318727493286" cy="38.25342423386044" r="2" style="fill: steelblue;"></circle><circle cx="50.68193469196558" cy="52.61044220791923" r="2" style="fill: steelblue;"></circle><circle cx="42.057984322309494" cy="12.804928090837265" r="2" style="fill: steelblue;"></circle><circle cx="37.15190291404724" cy="46.850228640768265" r="2" style="fill: steelblue;"></circle><circle cx="35.81916689872742" cy="51.227359887626434" r="2" style="fill: steelblue;"></circle><circle cx="44.19785179197788" cy="53.78307501475017" r="2" style="fill: steelblue;"></circle><circle cx="32.26875364780426" cy="79.56427269511752" r="2" style="fill: steelblue;"></circle><circle cx="29.914841055870056" cy="72.91140092743767" r="2" style="fill: steelblue;"></circle><circle cx="20.6103652715683" cy="70.99287807941437" r="2" style="fill: steelblue;"></circle><circle cx="45.26008851826191" cy="56.52818928162257" r="2" style="fill: steelblue;"></circle><circle cx="23.24877381324768" cy="50.26704834567176" r="2" style="fill: steelblue;"></circle><circle cx="45.70643715560436" cy="60.41507356696658" r="2" style="fill: steelblue;"></circle><circle cx="36.94561719894409" cy="90.76388610733879" r="2" style="fill: steelblue;"></circle><circle cx="17.85110831260681" cy="72.80553645557828" r="2" style="fill: steelblue;"></circle><circle cx="51.597738079726696" cy="66.55080715815227" r="2" style="fill: steelblue;"></circle><circle cx="47.72452190518379" cy="73.56570098135207" r="2" style="fill: steelblue;"></circle><circle cx="26.215489208698273" cy="84.20376247829861" r="2" style="fill: steelblue;"></circle><circle cx="19.389039278030396" cy="66.88412792152829" r="2" style="fill: steelblue;"></circle><circle cx="73.02739918231964" cy="63.034361600875854" r="2" style="fill: steelblue;"></circle><circle cx="82.40589797496796" cy="17.37601823276944" r="2" style="fill: steelblue;"></circle><circle cx="62.57551312446594" cy="66.23513930373721" r="2" style="fill: steelblue;"></circle><circle cx="27.636989951133728" cy="24.561262130737305" r="2" style="fill: steelblue;"></circle><circle cx="45.32331041991711" cy="40.77084047926797" r="2" style="fill: steelblue;"></circle><circle cx="43.5820646584034" cy="54.824247294002106" r="2" style="fill: steelblue;"></circle><circle cx="41.481976211071014" cy="59.60904492272271" r="2" style="fill: steelblue;"></circle><circle cx="59.08636078238487" cy="66.63765443695915" r="2" style="fill: steelblue;"></circle><circle cx="68.4817522764206" cy="31.591770715183685" r="2" style="fill: steelblue;"></circle><circle cx="79.28874492645264" cy="44.499813000826784" r="2" style="fill: steelblue;"></circle><circle cx="69.15198117494583" cy="20.504442519611786" r="2" style="fill: steelblue;"></circle><circle cx="43.03182139992714" cy="3.5626815425025105" r="2" style="fill: steelblue;"></circle><circle cx="51.6242902725935" cy="44.66424205650886" r="2" style="fill: steelblue;"></circle><circle cx="20.144879817962646" cy="53.92205235030916" r="2" style="fill: steelblue;"></circle><circle cx="39.024535566568375" cy="49.2409879134761" r="2" style="fill: steelblue;"></circle><circle cx="31.564104557037354" cy="50.392122483915756" r="2" style="fill: steelblue;"></circle><circle cx="39.44456875324249" cy="54.309877422120834" r="2" style="fill: steelblue;"></circle><circle cx="36.43079400062561" cy="63.948486579789055" r="2" style="fill: steelblue;"></circle><circle cx="74.38641488552094" cy="31.729686756928764" r="2" style="fill: steelblue;"></circle><circle cx="32.98514187335968" cy="35.06112943092982" r="2" style="fill: steelblue;"></circle><circle cx="62.35415115952492" cy="56.624330745802986" r="2" style="fill: steelblue;"></circle><circle cx="37.9801020026207" cy="37.64854595065117" r="2" style="fill: steelblue;"></circle><circle cx="69.4654181599617" cy="28.710548414124382" r="2" style="fill: steelblue;"></circle><circle cx="69.5261687040329" cy="19.16279329193963" r="2" style="fill: steelblue;"></circle><circle cx="77.38961577415466" cy="23.2939084370931" r="2" style="fill: steelblue;"></circle><circle cx="81.02664351463318" cy="52.053687638706634" r="2" style="fill: steelblue;"></circle><circle cx="65.51001965999603" cy="0.8299840821160198" r="2" style="fill: steelblue;"></circle><circle cx="60.74945107102394" cy="52.65890823470222" r="2" style="fill: steelblue;"></circle><circle cx="55.83496876060963" cy="26.832977268430923" r="2" style="fill: steelblue;"></circle><circle cx="31.844373047351837" cy="76.37491424878439" r="2" style="fill: steelblue;"></circle><circle cx="63.284604251384735" cy="53.27381706900067" r="2" style="fill: steelblue;"></circle><circle cx="62.210291624069214" cy="53.328137596448265" r="2" style="fill: steelblue;"></circle><circle cx="56.897200644016266" cy="27.140197820133636" r="2" style="fill: steelblue;"></circle><circle cx="53.97435426712036" cy="22.857065995534263" r="2" style="fill: steelblue;"></circle><circle cx="58.13526436686516" cy="85.36538746621873" r="2" style="fill: steelblue;"></circle><circle cx="82.80384838581085" cy="18.77427366044786" r="2" style="fill: steelblue;"></circle><circle cx="61.283957213163376" cy="43.373119251595604" r="2" style="fill: steelblue;"></circle><circle cx="43.74087452888489" cy="36.92866464455923" r="2" style="fill: steelblue;"></circle><circle cx="65.12359529733658" cy="37.8787593709098" r="2" style="fill: steelblue;"></circle><circle cx="43.40890124440193" cy="11.962992615169954" r="2" style="fill: steelblue;"></circle><circle cx="82.02725946903229" cy="61.383034785588585" r="2" style="fill: steelblue;"></circle><circle cx="64.7827073931694" cy="42.978637086020576" r="2" style="fill: steelblue;"></circle><circle cx="50.0795639352873" cy="63.6735286977556" r="2" style="fill: steelblue;"></circle><circle cx="37.75905445218086" cy="77.33636365996468" r="2" style="fill: steelblue;"></circle><circle cx="27.557067573070526" cy="77.76108317905002" r="2" style="fill: steelblue;"></circle><circle cx="33.799782395362854" cy="71.27936283747356" r="2" style="fill: steelblue;"></circle><circle cx="48.61397799104452" cy="64.0561044216156" r="2" style="fill: steelblue;"></circle><circle cx="27.582988142967224" cy="60.17238001028697" r="2" style="fill: steelblue;"></circle></g></svg>