<svg xmlns="http://www.w3.org/2000/svg"><rect width="200" height="200" fill="white"></rect><g><circle cx="55.42037222120497" cy="155.92598915100098" r="2" style="fill: steelblue;"></circle><circle cx="58.31903550359938" cy="119.3179339170456" r="2" style="fill: steelblue;"></circle><circle cx="155.2445458041297" cy="122.68364280462265" r="2" style="fill: steelblue;"></circle><circle cx="109.6306409065922" cy="108.0680176615715" r="2" style="fill: steelblue;"></circle><circle cx="69.499800602595" cy="117.66193509101868" r="2" style="fill: steelblue;"></circle><circle cx="94.91246773136986" cy="152.7088761329651" r="2" style="fill: steelblue;"></circle><circle cx="64.08457623587715" cy="72.6104736328125" r="2" style="fill: steelblue;"></circle><circle cx="91.68838626808589" cy="87.31953054666519" r="2" style="fill: steelblue;"></circle><circle cx="85.5561527940962" cy="111.71504482626915" r="2" style="fill: steelblue;"></circle><circle cx="117.09756362769339" cy="90.76889157295227" r="2" style="fill: steelblue;"></circle><circle cx="65.98971949683296" cy="155.91315031051636" r="2" style="fill: steelblue;"></circle><circle cx="156.93245662583243" cy="129.64744865894318" r="2" style="fill: steelblue;"></circle><circle cx="67.55664282374912" cy="182.48198628425598" r="2" style="fill: steelblue;"></circle><circle cx="43.757471773359505" cy="124.31854605674744" r="2" style="fill: steelblue;"></circle><circle cx="105.36312891377342" cy="86.01554930210114" r="2" style="fill: steelblue;"></circle><circle cx="99.0307049618827" cy="147.68075942993164" r="2" style="fill: steelblue;"></circle><circle cx="106.39495568142996" cy="144.05303597450256" r="2" style="fill: steelblue;"></circle><circle cx="144.92866065767075" cy="115.78103452920914" r="2" style="fill: steelblue;"></circle><circle cx="172.01274633407593" cy="63.07042837142944" r="2" style="fill: steelblue;"></circle><circle cx="159.94598468144733" cy="81.5037488937378" r="2" style="fill: steelblue;"></circle><circle cx="84.65699851512909" cy="83.7508425116539" r="2" style="fill: steelblue;"></circle><circle cx="165.53258895874023" cy="78.08136194944382" r="2" style="fill: steelblue;"></circle><circle cx="45.10208633210924" cy="110.798729211092" r="2" style="fill: steelblue;"></circle><circle cx="81.33717709117465" cy="107.10764154791832" r="2" style="fill: steelblue;"></circle><circle cx="99.78222515847948" cy="86.50822341442108" r="2" style="fill: steelblue;"></circle><circle cx="116.47541696826617" cy="143.03799867630005" r="2" style="fill: steelblue;"></circle><circle cx="116.94269296195772" cy="140.45116007328033" r="2" style="fill: steelblue;"></circle><circle cx="62.00498673650954" cy="155.8569371700287" r="2" style="fill: steelblue;"></circle><circle cx="65.89057710435655" cy="85.8555555343628" r="2" style="fill: steelblue;"></circle><circle cx="102.99565394719441" cy="100.45546274632215" r="2" style="fill: steelblue;"></circle><circle cx="162.88113925192093" cy="18.585586547851562" r="2" style="fill: steelblue;"></circle><circle cx="166.6487157344818" cy="19.94186043739319" r="2" style="fill: steelblue;"></circle><circle cx="114.51552187403043" cy="82.3040634393692" r="2" style="fill: steelblue;"></circle><circle cx="115.94328946537442" cy="88.52421417832375" r="2" style="fill: steelblue;"></circle><circle cx="129.00369034873114" cy="82.43581354618073" r="2" style="fill: steelblue;"></circle><circle cx="89.53238195843166" cy="111.09533831477165" r="2" style="fill: steelblue;"></circle><circle cx="50.83972877926296" cy="139.97963964939117" r="2" style="fill: steelblue;"></circle><circle cx="50.929433769649926" cy="129.78314459323883" r="2" style="fill: steelblue;"></circle><circle cx="44.80048020680745" cy="124.10471439361572" r="2" style="fill: steelblue;"></circle><circle cx="67.61839985847473" cy="136.0638678073883" r="2" style="fill: steelblue;"></circle><circle cx="84.8110169172287" cy="125.26279985904694" r="2" style="fill: steelblue;"></circle><circle cx="177.4100661277771" cy="89.28976953029633" r="2" style="fill: steelblue;"></circle><circle cx="92.32921567228105" cy="66.62204563617706" r="2" style="fill: steelblue;"></circle><circle cx="130.93385928206973" cy="113.33245187997818" r="2" style="fill: steelblue;"></circle><circle cx="162.07746664683023" cy="93.68743374943733" r="2" style="fill: steelblue;"></circle><circle cx="114.09624252054427" cy="141.3397639989853" r="2" style="fill: steelblue;"></circle><circle cx="151.69490377108255" cy="69.62160766124725" r="2" style="fill: steelblue;"></circle><circle cx="74.93129372596741" cy="134.4730108976364" r="2" style="fill: steelblue;"></circle><circle cx="106.20418356524573" cy="145.15734314918518" r="2" style="fill: steelblue;"></circle><circle cx="54.39390738805135" cy="125.6983608007431" r="2" style="fill: steelblue;"></circle><circle cx="85.3299448887507" cy="131.04012310504913" r="2" style="fill: steelblue;"></circle><circle cx="145.5985638830397" cy="75.74114054441452" r="2" style="fill: steelblue;"></circle><circle cx="114.26584877901607" cy="85.66936254501343" r="2" style="fill: steelblue;"></circle><circle cx="104.08275574445724" cy="98.63613061606884" r="2" style="fill: steelblue;"></circle><circle cx="128.01372177071042" cy="115.88403135538101" r="2" style="fill: steelblue;"></circle><circle cx="56.15807241863674" cy="125.69619417190552" r="2" style="fill: steelblue;"></circle><circle cx="53.10366551081339" cy="128.36166620254517" r="2" style="fill: steelblue;"></circle><circle cx="82.77157611317104" cy="111.60429641604424" r="2" style="fill: steelblue;"></circle><circle cx="83.3859062857098" cy="135.46249270439148" r="2" style="fill: steelblue;"></circle><circle cx="138.97687196731567" cy="140.1703178882599" r="2" style="fill: steelblue;"></circle><circle cx="55.83482318454318" cy="158.7792694568634" r="2" style="fill: steelblue;"></circle><circle cx="128.78792650169797" cy="109.47982296347618" r="2" style="fill: steelblue;"></circle><circle cx="125.52326917648315" cy="153.50245237350464" r="2" style="fill: steelblue;"></circle><circle cx="63.82345490985446" cy="108.58712568879128" r="2" style="fill: steelblue;"></circle><circle cx="60.48068073060777" cy="126.10876560211182" r="2" style="fill: steelblue;"></circle><circle cx="34.83578231599596" cy="164.29778337478638" r="2" style="fill: steelblue;"></circle><circle cx="121.90685421228409" cy="96.80452384054661" r="2" style="fill: steelblue;"></circle><circle cx="73.97330469555324" cy="104.55095618963242" r="2" style="fill: steelblue;"></circle><circle cx="35.350124041239425" cy="147.56902158260345" r="2" style="fill: steelblue;"></circle><circle cx="59.87550814946493" cy="161.2219214439392" r="2" style="fill: steelblue;"></circle><circle cx="16.987297270033093" cy="53.94520163536072" r="2" style="fill: steelblue;"></circle><circle cx="156.00943565368652" cy="35.18820405006409" r="2" style="fill: steelblue;"></circle><circle cx="121.28607514831755" cy="74.84897375106812" r="2" style="fill: steelblue;"></circle><circle cx="144.61285207006668" cy="144.72602009773254" r="2" style="fill: steelblue;"></circle><circle cx="168.74119970533584" cy="109.35337916016579" r="2" style="fill: steelblue;"></circle><circle cx="108.29110257327557" cy="112.8358706831932" r="2" style="fill: steelblue;"></circle><circle cx="119.73885695139568" cy="117.03604757785797" r="2" style="fill: steelblue;"></circle><circle cx="184.0851174460517" cy="81.82727843523026" r="2" style="fill: steelblue;"></circle><circle cx="166.60618782043457" cy="63.03649544715881" r="2" style="fill: steelblue;"></circle><circle cx="141.01324147648282" cy="41.42251014709473" r="2" style="fill: steelblue;"></circle><circle cx="157.87151124742294" cy="61.69603765010834" r="2" style="fill: steelblue;"></circle><circle cx="193.75020927853055" cy="113.93635720014572" r="2" style="fill: steelblue;"></circle><circle cx="128.83370121320087" cy="96.751419454813" r="2" style="fill: steelblue;"></circle><circle cx="71.3632239235772" cy="159.7102403640747" r="2" style="fill: steelblue;"></circle><circle cx="148.6315263642205" cy="121.95092886686325" r="2" style="fill: steelblue;"></circle><circle cx="87.8546138604482" cy="136.8717908859253" r="2" style="fill: steelblue;"></circle><circle cx="134.69804988967047" cy="121.11086249351501" r="2" style="fill: steelblue;"></circle><circle cx="141.21222164895798" cy="127.13841199874878" r="2" style="fill: steelblue;"></circle><circle cx="119.94683576954735" cy="51.22717022895813" r="2" style="fill: steelblue;"></circle><circle cx="144.37069164382086" cy="134.02971625328064" r="2" style="fill: steelblue;"></circle><circle cx="171.1165640089247" cy="75.29169768095016" r="2" style="fill: steelblue;"></circle><circle cx="164.90335596932303" cy="124.0397959947586" r="2" style="fill: steelblue;"></circle><circle cx="74.9873916308085" cy="61.0691636800766" r="2" style="fill: steelblue;"></circle><circle cx="77.26732227537367" cy="60.947662591934204" r="2" style="fill: steelblue;"></circle><circle cx="113.9691656248437" cy="45.220768451690674" r="2" style="fill: steelblue;"></circle><circle cx="93.56960819827187" cy="37.94671297073364" r="2" style="fill: steelblue;"></circle><circle cx="155.0854676299625" cy="68.97996068000793" r="2" style="fill: steelblue;"></circle><circle cx="125.14311075210571" cy="78.50109785795212" r="2" style="fill: steelblue;"></circle><circle cx="167.71972179412842" cy="88.33006247878075" r="2" style="fill: steelblue;"></circle><circle cx="56.030703915490044" cy="136.31125390529633" r="2" style="fill: steelblue;"></circle><circle cx="152.71272261937457" cy="73.43079149723053" r="2" style="fill: steelblue;"></circle><circle cx="108.65621330837409" cy="75.57941675186157" r="2" style="fill: steelblue;"></circle><circle cx="127.94135014216106" cy="86.20559871196747" r="2" style="fill: steelblue;"></circle><circle cx="53.406218687693276" cy="92.05129146575928" r="2" style="fill: steelblue;"></circle><circle cx="151.38552255100674" cy="83.72947126626968" r="2" style="fill: steelblue;"></circle><circle cx="118.72093627850215" cy="34.392303228378296" r="2" style="fill: steelblue;"></circle><circle cx="127.69806881745656" cy="77.43208557367325" r="2" style="fill: steelblue;"></circle><circle cx="122.41466922892464" cy="112.51825094223022" r="2" style="fill: steelblue;"></circle><circle cx="106.75127266181839" cy="69.75280940532684" r="2" style="fill: steelblue;"></circle><circle cx="95.97547849019368" cy="113.18219751119614" r="2" style="fill: steelblue;"></circle><circle cx="148.7365596824222" cy="35.945481061935425" r="2" style="fill: steelblue;"></circle><circle cx="146.93576759762234" cy="70.4345852136612" r="2" style="fill: steelblue;"></circle><circle cx="74.86598690350851" cy="99.8408721294254" r="2" style="fill: steelblue;"></circle><circle cx="78.59922448794046" cy="124.48189109563828" r="2" style="fill: steelblue;"></circle><circle cx="101.09525670607884" cy="144.88586485385895" r="2" style="fill: steelblue;"></circle><circle cx="49.117392963833275" cy="132.4004352092743" r="2" style="fill: steelblue;"></circle><circle cx="108.2265501221021" cy="102.77204401791096" r="2" style="fill: steelblue;"></circle><circle cx="72.9418330722385" cy="144.83402371406555" r="2" style="fill: steelblue;"></circle></g></svg>