<svg xmlns="http://www.w3.org/2000/svg"><g><circle cx="18.77364441752434" cy="77.96299457550049" r="2" style="fill: steelblue;"></circle><circle cx="10.092175751924518" cy="59.6589669585228" r="2" style="fill: steelblue;"></circle><circle cx="27.72262617945671" cy="61.341821402311325" r="2" style="fill: steelblue;"></circle><circle cx="8.122126758098606" cy="54.03400883078575" r="2" style="fill: steelblue;"></circle><circle cx="21.546959131956104" cy="58.83096754550934" r="2" style="fill: steelblue;"></circle><circle cx="22.679667174816135" cy="76.35443806648254" r="2" style="fill: steelblue;"></circle><circle cx="42.12454725056887" cy="36.30523681640625" r="2" style="fill: steelblue;"></circle><circle cx="52.482656855136156" cy="43.659765273332596" r="2" style="fill: steelblue;"></circle><circle cx="24.81712512671948" cy="55.857522413134575" r="2" style="fill: steelblue;"></circle><circle cx="16.491784900426868" cy="45.384445786476135" r="2" style="fill: steelblue;"></circle><circle cx="23.789775744080547" cy="77.95657515525818" r="2" style="fill: steelblue;"></circle><circle cx="45.28168747201562" cy="64.82372432947159" r="2" style="fill: steelblue;"></circle><circle cx="23.925661295652393" cy="91.24099314212799" r="2" style="fill: steelblue;"></circle><circle cx="45.87369570508599" cy="62.15927302837372" r="2" style="fill: steelblue;"></circle><circle cx="24.52282160520554" cy="43.00777465105057" r="2" style="fill: steelblue;"></circle><circle cx="65.02355560660362" cy="73.84037971496582" r="2" style="fill: steelblue;"></circle><circle cx="42.20682540908456" cy="72.02651798725128" r="2" style="fill: steelblue;"></circle><circle cx="43.2642444036901" cy="57.89051726460457" r="2" style="fill: steelblue;"></circle><circle cx="40.58154411613941" cy="31.53521418571472" r="2" style="fill: steelblue;"></circle><circle cx="59.237853810191154" cy="40.7518744468689" r="2" style="fill: steelblue;"></circle><circle cx="70.09104192256927" cy="41.87542125582695" r="2" style="fill: steelblue;"></circle><circle cx="86.59239411354065" cy="39.04068097472191" r="2" style="fill: steelblue;"></circle><circle cx="59.1544222086668" cy="55.399364605546" r="2" style="fill: steelblue;"></circle><circle cx="37.10161913186312" cy="53.55382077395916" r="2" style="fill: steelblue;"></circle><circle cx="55.01941051334143" cy="43.25411170721054" r="2" style="fill: steelblue;"></circle><circle cx="68.57640780508518" cy="71.51899933815002" r="2" style="fill: steelblue;"></circle><circle cx="40.96733424812555" cy="70.22558003664017" r="2" style="fill: steelblue;"></circle><circle cx="22.28404507040978" cy="77.92846858501434" r="2" style="fill: steelblue;"></circle><circle cx="33.766987919807434" cy="42.9277777671814" r="2" style="fill: steelblue;"></circle><circle cx="36.75711918622255" cy="50.22773137316108" r="2" style="fill: steelblue;"></circle><circle cx="82.30990096926689" cy="9.292793273925781" r="2" style="fill: steelblue;"></circle><circle cx="63.49350344389677" cy="9.970930218696594" r="2" style="fill: steelblue;"></circle><circle cx="49.47529030032456" cy="41.1520317196846" r="2" style="fill: steelblue;"></circle><circle cx="22.28951565921307" cy="44.26210708916187" r="2" style="fill: steelblue;"></circle><circle cx="21.930710598826412" cy="41.21790677309036" r="2" style="fill: steelblue;"></circle><circle cx="37.22610529512167" cy="55.547669157385826" r="2" style="fill: steelblue;"></circle><circle cx="43.18931624293327" cy="69.98981982469559" r="2" style="fill: steelblue;"></circle><circle cx="5.548692494630816" cy="64.89157229661942" r="2" style="fill: steelblue;"></circle><circle cx="28.197554126381874" cy="62.05235719680786" r="2" style="fill: steelblue;"></circle><circle cx="60.103143751621246" cy="68.03193390369415" r="2" style="fill: steelblue;"></circle><circle cx="31.554029509425163" cy="62.63139992952347" r="2" style="fill: steelblue;"></circle><circle cx="38.595583476126194" cy="44.64488476514816" r="2" style="fill: steelblue;"></circle><circle cx="46.57870549708605" cy="33.31102281808853" r="2" style="fill: steelblue;"></circle><circle cx="81.25988319516182" cy="56.66622593998909" r="2" style="fill: steelblue;"></circle><circle cx="55.787788424640894" cy="46.843716874718666" r="2" style="fill: steelblue;"></circle><circle cx="88.25704008340836" cy="70.66988199949265" r="2" style="fill: steelblue;"></circle><circle cx="61.07336021959782" cy="34.81080383062363" r="2" style="fill: steelblue;"></circle><circle cx="10.087511688470844" cy="67.2365054488182" r="2" style="fill: steelblue;"></circle><circle cx="48.06002096738666" cy="72.57867157459259" r="2" style="fill: steelblue;"></circle><circle cx="40.497903898358345" cy="62.84918040037155" r="2" style="fill: steelblue;"></circle><circle cx="69.67574842274189" cy="65.52006155252457" r="2" style="fill: steelblue;"></circle><circle cx="46.964475605636835" cy="37.87057027220726" r="2" style="fill: steelblue;"></circle><circle cx="82.71610289812088" cy="42.834681272506714" r="2" style="fill: steelblue;"></circle><circle cx="30.397574603557587" cy="49.31806530803442" r="2" style="fill: steelblue;"></circle><circle cx="49.994825571775436" cy="57.942015677690506" r="2" style="fill: steelblue;"></circle><circle cx="27.169396355748177" cy="62.84809708595276" r="2" style="fill: steelblue;"></circle><circle cx="44.55640558153391" cy="64.18083310127258" r="2" style="fill: steelblue;"></circle><circle cx="55.75763359665871" cy="55.80214820802212" r="2" style="fill: steelblue;"></circle><circle cx="73.19408394396305" cy="67.73124635219574" r="2" style="fill: steelblue;"></circle><circle cx="28.61555591225624" cy="70.08515894412994" r="2" style="fill: steelblue;"></circle><circle cx="33.73589664697647" cy="79.3896347284317" r="2" style="fill: steelblue;"></circle><circle cx="36.65555287152529" cy="54.73991148173809" r="2" style="fill: steelblue;"></circle><circle cx="12.640117853879932" cy="76.75122618675232" r="2" style="fill: steelblue;"></circle><circle cx="18.518186360597614" cy="54.29356284439564" r="2" style="fill: steelblue;"></circle><circle cx="20.529517158865932" cy="63.05438280105591" r="2" style="fill: steelblue;"></circle><circle cx="50.68120384821668" cy="82.14889168739319" r="2" style="fill: steelblue;"></circle><circle cx="16.226264834403995" cy="48.402261920273304" r="2" style="fill: steelblue;"></circle><circle cx="19.223074615001682" cy="52.27547809481621" r="2" style="fill: steelblue;"></circle><circle cx="60.76844707131386" cy="73.78451079130173" r="2" style="fill: steelblue;"></circle><circle cx="44.157145731151104" cy="80.6109607219696" r="2" style="fill: steelblue;"></circle><circle cx="21.839874982833866" cy="26.97260081768036" r="2" style="fill: steelblue;"></circle><circle cx="54.374390468001366" cy="17.594102025032043" r="2" style="fill: steelblue;"></circle><circle cx="77.35967375338078" cy="37.42448687553406" r="2" style="fill: steelblue;"></circle><circle cx="73.16131629049778" cy="72.36301004886627" r="2" style="fill: steelblue;"></circle><circle cx="77.46240049600601" cy="54.67668958008289" r="2" style="fill: steelblue;"></circle><circle cx="75.32361820340157" cy="56.4179353415966" r="2" style="fill: steelblue;"></circle><circle cx="76.79305337369442" cy="58.518023788928986" r="2" style="fill: steelblue;"></circle><circle cx="76.1708665639162" cy="40.91363921761513" r="2" style="fill: steelblue;"></circle><circle cx="99.15905371308327" cy="31.518247723579407" r="2" style="fill: steelblue;"></circle><circle cx="84.94728729128838" cy="20.711255073547363" r="2" style="fill: steelblue;"></circle><circle cx="78.57625856995583" cy="30.84801882505417" r="2" style="fill: steelblue;"></circle><circle cx="97.28086292743683" cy="56.96817860007286" r="2" style="fill: steelblue;"></circle><circle cx="50.803859322331846" cy="48.3757097274065" r="2" style="fill: steelblue;"></circle><circle cx="39.8725189268589" cy="79.85512018203735" r="2" style="fill: steelblue;"></circle><circle cx="5.827374011278155" cy="60.975464433431625" r="2" style="fill: steelblue;"></circle><circle cx="45.47386867925525" cy="68.43589544296265" r="2" style="fill: steelblue;"></circle><circle cx="47.13931395672262" cy="60.55543124675751" r="2" style="fill: steelblue;"></circle><circle cx="52.75513669475913" cy="63.56920599937439" r="2" style="fill: steelblue;"></circle><circle cx="56.66586076840758" cy="25.613585114479065" r="2" style="fill: steelblue;"></circle><circle cx="68.64220015704632" cy="67.01485812664032" r="2" style="fill: steelblue;"></circle><circle cx="80.90262413024902" cy="37.64584884047508" r="2" style="fill: steelblue;"></circle><circle cx="82.62165933847427" cy="62.0198979973793" r="2" style="fill: steelblue;"></circle><circle cx="53.82527499459684" cy="30.5345818400383" r="2" style="fill: steelblue;"></circle><circle cx="82.5751006603241" cy="30.473831295967102" r="2" style="fill: steelblue;"></circle><circle cx="78.67328748106956" cy="22.610384225845337" r="2" style="fill: steelblue;"></circle><circle cx="76.53436176478863" cy="18.97335648536682" r="2" style="fill: steelblue;"></circle><circle cx="71.56208455562592" cy="34.48998034000397" r="2" style="fill: steelblue;"></circle><circle cx="91.19991883635521" cy="39.25054892897606" r="2" style="fill: steelblue;"></circle><circle cx="44.10180374979973" cy="44.16503123939037" r="2" style="fill: steelblue;"></circle><circle cx="27.93262079358101" cy="68.15562695264816" r="2" style="fill: steelblue;"></circle><circle cx="38.83060645312071" cy="36.715395748615265" r="2" style="fill: steelblue;"></circle><circle cx="78.92517298460007" cy="37.789708375930786" r="2" style="fill: steelblue;"></circle><circle cx="45.698613580316305" cy="43.102799355983734" r="2" style="fill: steelblue;"></circle><circle cx="57.93696194887161" cy="46.02564573287964" r="2" style="fill: steelblue;"></circle><circle cx="94.73448544740677" cy="41.86473563313484" r="2" style="fill: steelblue;"></circle><circle cx="77.45325863361359" cy="17.196151614189148" r="2" style="fill: steelblue;"></circle><circle cx="19.457924365997318" cy="38.716042786836624" r="2" style="fill: steelblue;"></circle><circle cx="77.71980315446854" cy="56.25912547111511" r="2" style="fill: steelblue;"></circle><circle cx="88.68111968040466" cy="34.87640470266342" r="2" style="fill: steelblue;"></circle><circle cx="84.10805761814117" cy="56.59109875559807" r="2" style="fill: steelblue;"></circle><circle cx="88.72980549931526" cy="17.972740530967712" r="2" style="fill: steelblue;"></circle><circle cx="86.99582815170288" cy="35.2172926068306" r="2" style="fill: steelblue;"></circle><circle cx="30.394836515188217" cy="49.9204360647127" r="2" style="fill: steelblue;"></circle><circle cx="52.719716867432" cy="62.24094554781914" r="2" style="fill: steelblue;"></circle><circle cx="38.11027966439724" cy="72.44293242692947" r="2" style="fill: steelblue;"></circle><circle cx="17.902302742004398" cy="66.20021760463715" r="2" style="fill: steelblue;"></circle><circle cx="18.58516335487366" cy="51.38602200895548" r="2" style="fill: steelblue;"></circle><circle cx="49.591471860185266" cy="72.41701185703278" r="2" style="fill: steelblue;"></circle></g></svg>