<svg xmlns="http://www.w3.org/2000/svg"><g><circle cx="84.62221119552851" cy="78.38045176532533" r="2" style="fill: steelblue;"></circle><circle cx="26.32488906383515" cy="112.9991696940528" r="2" style="fill: steelblue;"></circle><circle cx="84.17511954903603" cy="110.11434131198459" r="2" style="fill: steelblue;"></circle><circle cx="21.83440178632737" cy="121.03211747275458" r="2" style="fill: steelblue;"></circle><circle cx="20.034237205982215" cy="165.14344877666898" r="2" style="fill: steelblue;"></circle><circle cx="26.039248704910285" cy="111.48661739296384" r="2" style="fill: steelblue;"></circle><circle cx="97.73420626297593" cy="65.7130863931444" r="2" style="fill: steelblue;"></circle><circle cx="141.53981432318687" cy="129.2230440510644" r="2" style="fill: steelblue;"></circle><circle cx="44.09104436635972" cy="112.90226413144006" r="2" style="fill: steelblue;"></circle><circle cx="81.49378970265388" cy="29.658594396379257" r="2" style="fill: steelblue;"></circle><circle cx="76.11381858587265" cy="97.4172928267055" r="2" style="fill: steelblue;"></circle><circle cx="56.86371251940727" cy="72.65088823106554" r="2" style="fill: steelblue;"></circle><circle cx="48.715042322874076" cy="125.67412058512369" r="2" style="fill: steelblue;"></circle><circle cx="76.82434320449829" cy="117.53425200780234" r="2" style="fill: steelblue;"></circle><circle cx="93.82663983851671" cy="113.21795847680833" r="2" style="fill: steelblue;"></circle><circle cx="81.7868247628212" cy="178.85253694322373" r="2" style="fill: steelblue;"></circle><circle cx="38.38458880782128" cy="70.71628537442949" r="2" style="fill: steelblue;"></circle><circle cx="85.29194481670856" cy="53.90257504251268" r="2" style="fill: steelblue;"></circle><circle cx="93.02480323240161" cy="72.63263596428766" r="2" style="fill: steelblue;"></circle><circle cx="82.4135061353445" cy="59.11862386597528" r="2" style="fill: steelblue;"></circle><circle cx="67.90609881281853" cy="17.04763571421306" r="2" style="fill: steelblue;"></circle><circle cx="79.76312041282654" cy="57.99573527442086" r="2" style="fill: steelblue;"></circle><circle cx="58.99692922830582" cy="158.99660057491727" r="2" style="fill: steelblue;"></circle><circle cx="95.90876372531056" cy="126.83987153900995" r="2" style="fill: steelblue;"></circle><circle cx="102.40064691752195" cy="153.940663072798" r="2" style="fill: steelblue;"></circle><circle cx="69.72806192934513" cy="81.37668619553249" r="2" style="fill: steelblue;"></circle><circle cx="125.09910240769386" cy="126.28320389323764" r="2" style="fill: steelblue;"></circle><circle cx="131.35429695248604" cy="103.82696522606744" r="2" style="fill: steelblue;"></circle><circle cx="50.684431940317154" cy="104.44627900918326" r="2" style="fill: steelblue;"></circle><circle cx="121.79046347737312" cy="49.374049239688446" r="2" style="fill: steelblue;"></circle><circle cx="171.49199396371841" cy="85.96150817142593" r="2" style="fill: steelblue;"></circle><circle cx="154.0146343410015" cy="115.69502651691437" r="2" style="fill: steelblue;"></circle><circle cx="90.62552582472563" cy="40.17172786924574" r="2" style="fill: steelblue;"></circle><circle cx="128.05290929973125" cy="43.78344813982646" r="2" style="fill: steelblue;"></circle><circle cx="141.56004637479782" cy="84.54429225789177" r="2" style="fill: steelblue;"></circle><circle cx="192.84762293100357" cy="97.17861513296764" r="2" style="fill: steelblue;"></circle><circle cx="121.61935158073902" cy="154.0780848926968" r="2" style="fill: steelblue;"></circle><circle cx="115.85676893591881" cy="128.1619025601281" r="2" style="fill: steelblue;"></circle><circle cx="70.98542004823685" cy="147.4075370364719" r="2" style="fill: steelblue;"></circle><circle cx="13.95930945873261" cy="145.20033068127103" r="2" style="fill: steelblue;"></circle><circle cx="118.50188337266445" cy="114.87878892156813" r="2" style="fill: steelblue;"></circle><circle cx="182.68654346466064" cy="53.536360793643524" r="2" style="fill: steelblue;"></circle><circle cx="192.3166424036026" cy="93.44984665513039" r="2" style="fill: steelblue;"></circle><circle cx="183.905428647995" cy="44.721247752507544" r="2" style="fill: steelblue;"></circle><circle cx="75.38459487259388" cy="70.26654018296136" r="2" style="fill: steelblue;"></circle><circle cx="63.34143355488777" cy="32.81799157460532" r="2" style="fill: steelblue;"></circle><circle cx="65.21096304059029" cy="34.694236516952515" r="2" style="fill: steelblue;"></circle><circle cx="17.228102684021003" cy="132.82183673646713" r="2" style="fill: steelblue;"></circle><circle cx="35.596995055675514" cy="148.1592377026876" r="2" style="fill: steelblue;"></circle><circle cx="61.161669343709946" cy="87.18769668291013" r="2" style="fill: steelblue;"></circle><circle cx="67.60424971580505" cy="177.77130868699814" r="2" style="fill: steelblue;"></circle><circle cx="60.99672466516495" cy="124.61104525460138" r="2" style="fill: steelblue;"></circle><circle cx="67.82944351434708" cy="89.4586496365567" r="2" style="fill: steelblue;"></circle><circle cx="48.51066544651986" cy="108.57716235849593" r="2" style="fill: steelblue;"></circle><circle cx="80.22444918751717" cy="88.65008986451559" r="2" style="fill: steelblue;"></circle><circle cx="71.47305682301521" cy="118.88645622465346" r="2" style="fill: steelblue;"></circle><circle cx="109.02335532009602" cy="70.08375757270389" r="2" style="fill: steelblue;"></circle><circle cx="0.4896283149719294" cy="111.65758007102542" r="2" style="fill: steelblue;"></circle><circle cx="67.54872426390648" cy="94.06754614578354" r="2" style="fill: steelblue;"></circle><circle cx="59.663696587085724" cy="130.83397878540887" r="2" style="fill: steelblue;"></circle><circle cx="59.06778424978256" cy="115.97786049048106" r="2" style="fill: steelblue;"></circle><circle cx="64.59488198161125" cy="150.28278562757706" r="2" style="fill: steelblue;"></circle><circle cx="20.115739107131965" cy="177.81278027428522" r="2" style="fill: steelblue;"></circle><circle cx="26.524691283702857" cy="77.72264911068811" r="2" style="fill: steelblue;"></circle><circle cx="99.6612936956808" cy="123.37834503915575" r="2" style="fill: steelblue;"></circle><circle cx="56.84174448251724" cy="129.16907535658942" r="2" style="fill: steelblue;"></circle><circle cx="95.70611584931612" cy="121.44759496053061" r="2" style="fill: steelblue;"></circle><circle cx="39.83613327145577" cy="120.652836561203" r="2" style="fill: steelblue;"></circle><circle cx="36.58931553363801" cy="108.59011809031169" r="2" style="fill: steelblue;"></circle><circle cx="131.59210458397865" cy="141.64693024423386" r="2" style="fill: steelblue;"></circle><circle cx="68.2810977101326" cy="137.19459904564752" r="2" style="fill: steelblue;"></circle><circle cx="141.43208265304565" cy="88.84519206476398" r="2" style="fill: steelblue;"></circle><circle cx="63.67263421416283" cy="37.823549906412765" r="2" style="fill: steelblue;"></circle><circle cx="159.53418463468552" cy="43.551499976052185" r="2" style="fill: steelblue;"></circle><circle cx="146.13691195845604" cy="74.62653054131403" r="2" style="fill: steelblue;"></circle><circle cx="91.254941560328" cy="46.50874137878418" r="2" style="fill: steelblue;"></circle><circle cx="146.22670635581017" cy="94.30186152458191" r="2" style="fill: steelblue;"></circle><circle cx="165.28671085834503" cy="82.37567080391779" r="2" style="fill: steelblue;"></circle><circle cx="149.19858276844025" cy="32.01136853959825" r="2" style="fill: steelblue;"></circle><circle cx="146.56533896923065" cy="38.32767605781555" r="2" style="fill: steelblue;"></circle><circle cx="188.8051688671112" cy="93.43407129247983" r="2" style="fill: steelblue;"></circle><circle cx="147.44784906506538" cy="70.6030266152488" r="2" style="fill: steelblue;"></circle><circle cx="131.4318612217903" cy="67.60558022393121" r="2" style="fill: steelblue;"></circle><circle cx="37.834538519382484" cy="88.33507859251566" r="2" style="fill: steelblue;"></circle><circle cx="67.0008197426796" cy="133.20742580625748" r="2" style="fill: steelblue;"></circle><circle cx="90.69163482636213" cy="127.65720354186163" r="2" style="fill: steelblue;"></circle><circle cx="127.34608948230743" cy="103.09217075506847" r="2" style="fill: steelblue;"></circle><circle cx="84.05596427619457" cy="94.03038182192378" r="2" style="fill: steelblue;"></circle><circle cx="116.75211451947689" cy="113.87903028064304" r="2" style="fill: steelblue;"></circle><circle cx="128.45779806375504" cy="43.98566020859613" r="2" style="fill: steelblue;"></circle><circle cx="139.81973603367805" cy="22.363356749216724" r="2" style="fill: steelblue;"></circle><circle cx="108.56960285454988" cy="98.05406249231763" r="2" style="fill: steelblue;"></circle><circle cx="148.55798184871674" cy="38.22581834263272" r="2" style="fill: steelblue;"></circle><circle cx="147.94246703386307" cy="88.2263811926047" r="2" style="fill: steelblue;"></circle><circle cx="54.757966101169586" cy="57.829097244474625" r="2" style="fill: steelblue;"></circle><circle cx="103.7826499901712" cy="31.137981679704453" r="2" style="fill: steelblue;"></circle><circle cx="179.63215559720993" cy="42.40566359625924" r="2" style="fill: steelblue;"></circle><circle cx="162.67956644296646" cy="44.66708368725247" r="2" style="fill: steelblue;"></circle><circle cx="138.11873123049736" cy="53.79333297411601" r="2" style="fill: steelblue;"></circle><circle cx="109.78410802781582" cy="66.67513681782617" r="2" style="fill: steelblue;"></circle><circle cx="102.62389704585075" cy="75.94700687461429" r="2" style="fill: steelblue;"></circle><circle cx="110.13042125850916" cy="59.27239391538832" r="2" style="fill: steelblue;"></circle><circle cx="165.81324338912964" cy="72.49189780818092" r="2" style="fill: steelblue;"></circle><circle cx="84.36125554144382" cy="73.5089037153456" r="2" style="fill: steelblue;"></circle><circle cx="57.18587562441826" cy="13.993520206875276" r="2" style="fill: steelblue;"></circle><circle cx="139.96847197413445" cy="55.483644538455536" r="2" style="fill: steelblue;"></circle><circle cx="101.57419836614281" cy="48.14167022705078" r="2" style="fill: steelblue;"></circle><circle cx="103.47656477242708" cy="74.37753544913399" r="2" style="fill: steelblue;"></circle><circle cx="150.08582025766373" cy="78.99540447526508" r="2" style="fill: steelblue;"></circle><circle cx="145.59195414185524" cy="64.34114310476515" r="2" style="fill: steelblue;"></circle><circle cx="157.03654885292053" cy="48.50343068440757" r="2" style="fill: steelblue;"></circle><circle cx="62.16604486107826" cy="55.02249664730496" r="2" style="fill: steelblue;"></circle><circle cx="73.92250783741474" cy="130.87276816368103" r="2" style="fill: steelblue;"></circle><circle cx="93.84977156296372" cy="103.01176740063562" r="2" style="fill: steelblue;"></circle><circle cx="43.079419434070594" cy="152.74878210491605" r="2" style="fill: steelblue;"></circle><circle cx="51.670873910188675" cy="163.86657820807562" r="2" style="fill: steelblue;"></circle><circle cx="86.36295273900032" cy="138.8009144200219" r="2" style="fill: steelblue;"></circle><circle cx="88.24672028422356" cy="53.67616017659505" r="2" style="fill: steelblue;"></circle></g></svg>