<svg xmlns="http://www.w3.org/2000/svg"><g><circle cx="14.455294609069824" cy="85.54470539093018" r="2" style="fill: steelblue;"></circle><circle cx="50.79420683905482" cy="49.20579316094518" r="2" style="fill: steelblue;"></circle><circle cx="33.27045738697052" cy="66.72954261302948" r="2" style="fill: steelblue;"></circle><circle cx="18.192291259765625" cy="81.80770874023438" r="2" style="fill: steelblue;"></circle><circle cx="34.84492748975754" cy="65.15507251024246" r="2" style="fill: steelblue;"></circle><circle cx="63.26363533735275" cy="36.73636466264725" r="2" style="fill: steelblue;"></circle><circle cx="24.96059536933899" cy="75.03940463066101" r="2" style="fill: steelblue;"></circle><circle cx="60.51061674952507" cy="39.48938325047493" r="2" style="fill: steelblue;"></circle><circle cx="34.012214839458466" cy="65.98778516054153" r="2" style="fill: steelblue;"></circle><circle cx="37.13478595018387" cy="62.86521404981613" r="2" style="fill: steelblue;"></circle><circle cx="58.56676027178764" cy="41.43323972821236" r="2" style="fill: steelblue;"></circle><circle cx="40.83548113703728" cy="59.16451886296272" r="2" style="fill: steelblue;"></circle><circle cx="51.101985946297646" cy="48.898014053702354" r="2" style="fill: steelblue;"></circle><circle cx="33.30651968717575" cy="66.69348031282425" r="2" style="fill: steelblue;"></circle><circle cx="42.061732709407806" cy="57.938267290592194" r="2" style="fill: steelblue;"></circle><circle cx="13.740023970603943" cy="86.25997602939606" r="2" style="fill: steelblue;"></circle><circle cx="44.281017780303955" cy="55.718982219696045" r="2" style="fill: steelblue;"></circle><circle cx="30.20695447921753" cy="69.79304552078247" r="2" style="fill: steelblue;"></circle><circle cx="64.14172500371933" cy="35.85827499628067" r="2" style="fill: steelblue;"></circle><circle cx="72.31239527463913" cy="27.68760472536087" r="2" style="fill: steelblue;"></circle><circle cx="66.16838127374649" cy="33.83161872625351" r="2" style="fill: steelblue;"></circle><circle cx="32.03022927045822" cy="67.96977072954178" r="2" style="fill: steelblue;"></circle><circle cx="37.95551881194115" cy="62.04448118805885" r="2" style="fill: steelblue;"></circle><circle cx="38.87124061584473" cy="61.12875938415527" r="2" style="fill: steelblue;"></circle><circle cx="16.813132166862488" cy="83.18686783313751" r="2" style="fill: steelblue;"></circle><circle cx="55.79223595559597" cy="44.20776404440403" r="2" style="fill: steelblue;"></circle><circle cx="33.18971544504166" cy="66.81028455495834" r="2" style="fill: steelblue;"></circle><circle cx="48.63825226202607" cy="51.36174773797393" r="2" style="fill: steelblue;"></circle><circle cx="18.0417001247406" cy="81.9582998752594" r="2" style="fill: steelblue;"></circle><circle cx="65.67257046699524" cy="34.32742953300476" r="2" style="fill: steelblue;"></circle><circle cx="60.840655118227005" cy="39.159344881772995" r="2" style="fill: steelblue;"></circle><circle cx="72.47530072927475" cy="27.52469927072525" r="2" style="fill: steelblue;"></circle><circle cx="73.06648790836334" cy="26.933512091636658" r="2" style="fill: steelblue;"></circle><circle cx="48.41947853565216" cy="51.58052146434784" r="2" style="fill: steelblue;"></circle><circle cx="56.01290389895439" cy="43.98709610104561" r="2" style="fill: steelblue;"></circle><circle cx="58.09464007616043" cy="41.90535992383957" r="2" style="fill: steelblue;"></circle><circle cx="40.8977136015892" cy="59.1022863984108" r="2" style="fill: steelblue;"></circle><circle cx="42.74080619215965" cy="57.25919380784035" r="2" style="fill: steelblue;"></circle><circle cx="26.266349852085114" cy="73.73365014791489" r="2" style="fill: steelblue;"></circle><circle cx="47.48634807765484" cy="52.51365192234516" r="2" style="fill: steelblue;"></circle><circle cx="72.45334386825562" cy="27.546656131744385" r="2" style="fill: steelblue;"></circle><circle cx="75.39635896682739" cy="24.603641033172607" r="2" style="fill: steelblue;"></circle><circle cx="56.088144704699516" cy="43.911855295300484" r="2" style="fill: steelblue;"></circle><circle cx="68.36737394332886" cy="31.632626056671143" r="2" style="fill: steelblue;"></circle><circle cx="55.74011541903019" cy="44.25988458096981" r="2" style="fill: steelblue;"></circle><circle cx="75.50442218780518" cy="24.495577812194824" r="2" style="fill: steelblue;"></circle><circle cx="31.662018597126007" cy="68.337981402874" r="2" style="fill: steelblue;"></circle><circle cx="19.14512813091278" cy="80.85487186908722" r="2" style="fill: steelblue;"></circle><circle cx="24.706822633743286" cy="75.29317736625671" r="2" style="fill: steelblue;"></circle><circle cx="20.553845167160034" cy="79.44615483283997" r="2" style="fill: steelblue;"></circle><circle cx="54.40408103168011" cy="45.59591896831989" r="2" style="fill: steelblue;"></circle><circle cx="19.98373568058014" cy="80.01626431941986" r="2" style="fill: steelblue;"></circle><circle cx="37.879637628793716" cy="62.120362371206284" r="2" style="fill: steelblue;"></circle><circle cx="45.10496035218239" cy="54.89503964781761" r="2" style="fill: steelblue;"></circle><circle cx="57.936666905879974" cy="42.063333094120026" r="2" style="fill: steelblue;"></circle><circle cx="32.34524875879288" cy="67.65475124120712" r="2" style="fill: steelblue;"></circle><circle cx="54.21577990055084" cy="45.78422009944916" r="2" style="fill: steelblue;"></circle><circle cx="36.93167269229889" cy="63.06832730770111" r="2" style="fill: steelblue;"></circle><circle cx="66.23155474662781" cy="33.76844525337219" r="2" style="fill: steelblue;"></circle><circle cx="38.17470893263817" cy="61.82529106736183" r="2" style="fill: steelblue;"></circle><circle cx="19.64544653892517" cy="80.35455346107483" r="2" style="fill: steelblue;"></circle><circle cx="25.794024765491486" cy="74.20597523450851" r="2" style="fill: steelblue;"></circle><circle cx="4.609659314155579" cy="95.39034068584442" r="2" style="fill: steelblue;"></circle><circle cx="7.538917660713196" cy="92.4610823392868" r="2" style="fill: steelblue;"></circle><circle cx="38.16690444946289" cy="61.83309555053711" r="2" style="fill: steelblue;"></circle><circle cx="24.971702694892883" cy="75.02829730510712" r="2" style="fill: steelblue;"></circle><circle cx="23.917585611343384" cy="76.08241438865662" r="2" style="fill: steelblue;"></circle><circle cx="60.450179874897" cy="39.549820125103" r="2" style="fill: steelblue;"></circle><circle cx="17.391332983970642" cy="82.60866701602936" r="2" style="fill: steelblue;"></circle><circle cx="47.57793713361025" cy="52.42206286638975" r="2" style="fill: steelblue;"></circle><circle cx="14.643409848213196" cy="85.3565901517868" r="2" style="fill: steelblue;"></circle><circle cx="64.3913671374321" cy="35.6086328625679" r="2" style="fill: steelblue;"></circle><circle cx="61.11847534775734" cy="38.88152465224266" r="2" style="fill: steelblue;"></circle><circle cx="77.02809870243073" cy="22.971901297569275" r="2" style="fill: steelblue;"></circle><circle cx="53.05855888873339" cy="46.94144111126661" r="2" style="fill: steelblue;"></circle><circle cx="45.89683152735233" cy="54.10316847264767" r="2" style="fill: steelblue;"></circle><circle cx="72.8761613368988" cy="27.123838663101196" r="2" style="fill: steelblue;"></circle><circle cx="53.77677530050278" cy="46.22322469949722" r="2" style="fill: steelblue;"></circle><circle cx="47.96872306615114" cy="52.03127693384886" r="2" style="fill: steelblue;"></circle><circle cx="64.6350085735321" cy="35.364991426467896" r="2" style="fill: steelblue;"></circle><circle cx="74.67431426048279" cy="25.325685739517212" r="2" style="fill: steelblue;"></circle><circle cx="92.24546253681183" cy="7.754537463188171" r="2" style="fill: steelblue;"></circle><circle cx="56.61469027400017" cy="43.38530972599983" r="2" style="fill: steelblue;"></circle><circle cx="40.535734593868256" cy="59.464265406131744" r="2" style="fill: steelblue;"></circle><circle cx="34.10608768463135" cy="65.89391231536865" r="2" style="fill: steelblue;"></circle><circle cx="41.484442353248596" cy="58.515557646751404" r="2" style="fill: steelblue;"></circle><circle cx="47.25682307034731" cy="52.74317692965269" r="2" style="fill: steelblue;"></circle><circle cx="66.40995591878891" cy="33.59004408121109" r="2" style="fill: steelblue;"></circle><circle cx="56.730351597070694" cy="43.269648402929306" r="2" style="fill: steelblue;"></circle><circle cx="59.373778104782104" cy="40.626221895217896" r="2" style="fill: steelblue;"></circle><circle cx="55.32130151987076" cy="44.67869848012924" r="2" style="fill: steelblue;"></circle><circle cx="63.79447430372238" cy="36.20552569627762" r="2" style="fill: steelblue;"></circle><circle cx="49.69175551086664" cy="50.30824448913336" r="2" style="fill: steelblue;"></circle><circle cx="52.33028568327427" cy="47.66971431672573" r="2" style="fill: steelblue;"></circle><circle cx="55.59246987104416" cy="44.40753012895584" r="2" style="fill: steelblue;"></circle><circle cx="58.97243693470955" cy="41.02756306529045" r="2" style="fill: steelblue;"></circle><circle cx="61.074621975421906" cy="38.925378024578094" r="2" style="fill: steelblue;"></circle><circle cx="34.71137881278992" cy="65.28862118721008" r="2" style="fill: steelblue;"></circle><circle cx="68.5273602604866" cy="31.472639739513397" r="2" style="fill: steelblue;"></circle><circle cx="65.68276137113571" cy="34.31723862886429" r="2" style="fill: steelblue;"></circle><circle cx="49.95317311550025" cy="50.04682688449975" r="2" style="fill: steelblue;"></circle><circle cx="56.92307651042938" cy="43.07692348957062" r="2" style="fill: steelblue;"></circle><circle cx="66.40593707561493" cy="33.59406292438507" r="2" style="fill: steelblue;"></circle><circle cx="85.61111092567444" cy="14.388889074325562" r="2" style="fill: steelblue;"></circle><circle cx="79.703289270401" cy="20.296710729599" r="2" style="fill: steelblue;"></circle><circle cx="73.63985180854797" cy="26.360148191452026" r="2" style="fill: steelblue;"></circle><circle cx="72.54918068647385" cy="27.450819313526154" r="2" style="fill: steelblue;"></circle><circle cx="64.80840742588043" cy="35.19159257411957" r="2" style="fill: steelblue;"></circle><circle cx="58.88036862015724" cy="41.11963137984276" r="2" style="fill: steelblue;"></circle><circle cx="41.68143644928932" cy="58.31856355071068" r="2" style="fill: steelblue;"></circle><circle cx="70.68994045257568" cy="29.310059547424316" r="2" style="fill: steelblue;"></circle><circle cx="53.10046374797821" cy="46.89953625202179" r="2" style="fill: steelblue;"></circle><circle cx="20.425590872764587" cy="79.57440912723541" r="2" style="fill: steelblue;"></circle><circle cx="57.62682631611824" cy="42.37317368388176" r="2" style="fill: steelblue;"></circle><circle cx="33.58806073665619" cy="66.41193926334381" r="2" style="fill: steelblue;"></circle><circle cx="40.21695479750633" cy="59.78304520249367" r="2" style="fill: steelblue;"></circle><circle cx="27.112555503845215" cy="72.88744449615479" r="2" style="fill: steelblue;"></circle><circle cx="53.40318977832794" cy="46.59681022167206" r="2" style="fill: steelblue;"></circle></g></svg>