<svg xmlns="http://www.w3.org/2000/svg"><g><circle cx="27.710186110602486" cy="87.34838590025902" r="2" style="fill: steelblue;"></circle><circle cx="29.15951775179969" cy="88.91583159565926" r="2" style="fill: steelblue;"></circle><circle cx="77.62227290206485" cy="59.20906011015177" r="2" style="fill: steelblue;"></circle><circle cx="54.8153204532961" cy="65.92571288347244" r="2" style="fill: steelblue;"></circle><circle cx="34.7499003012975" cy="75.12067183852196" r="2" style="fill: steelblue;"></circle><circle cx="47.45623386568493" cy="89.68626260757446" r="2" style="fill: steelblue;"></circle><circle cx="32.042288117938575" cy="59.455129504203796" r="2" style="fill: steelblue;"></circle><circle cx="45.844193134042946" cy="13.272728025913239" r="2" style="fill: steelblue;"></circle><circle cx="42.7780763970481" cy="32.06811770796776" r="2" style="fill: steelblue;"></circle><circle cx="58.548781813846695" cy="50.021686777472496" r="2" style="fill: steelblue;"></circle><circle cx="32.99485974841648" cy="60.51867287606001" r="2" style="fill: steelblue;"></circle><circle cx="78.46622831291621" cy="81.09368868172169" r="2" style="fill: steelblue;"></circle><circle cx="33.77832141187456" cy="43.56872122734785" r="2" style="fill: steelblue;"></circle><circle cx="21.878735886679753" cy="29.751376435160637" r="2" style="fill: steelblue;"></circle><circle cx="52.68156445688671" cy="50.82286534598097" r="2" style="fill: steelblue;"></circle><circle cx="49.51535248094135" cy="44.53390669077635" r="2" style="fill: steelblue;"></circle><circle cx="53.19747784071498" cy="73.48189987242222" r="2" style="fill: steelblue;"></circle><circle cx="72.46433032883537" cy="71.99985459446907" r="2" style="fill: steelblue;"></circle><circle cx="86.00637316703796" cy="32.74998553097248" r="2" style="fill: steelblue;"></circle><circle cx="79.97299234072366" cy="61.94294076412916" r="2" style="fill: steelblue;"></circle><circle cx="42.328499257564545" cy="45.383049827069044" r="2" style="fill: steelblue;"></circle><circle cx="82.76629447937012" cy="59.52615309506655" r="2" style="fill: steelblue;"></circle><circle cx="22.55104316605462" cy="56.50798389688134" r="2" style="fill: steelblue;"></circle><circle cx="40.668588545587326" cy="49.63642182410695" r="2" style="fill: steelblue;"></circle><circle cx="49.89111257923974" cy="38.554769195616245" r="2" style="fill: steelblue;"></circle><circle cx="58.23770848413309" cy="80.80890327692032" r="2" style="fill: steelblue;"></circle><circle cx="58.47134648097886" cy="67.31015369296074" r="2" style="fill: steelblue;"></circle><circle cx="31.00249336825477" cy="62.090965174138546" r="2" style="fill: steelblue;"></circle><circle cx="32.945288552178276" cy="97.86887019872665" r="2" style="fill: steelblue;"></circle><circle cx="51.497826973597206" cy="59.05753765255213" r="2" style="fill: steelblue;"></circle><circle cx="81.44056962596046" cy="45.61102082952857" r="2" style="fill: steelblue;"></circle><circle cx="83.3243578672409" cy="28.544561192393303" r="2" style="fill: steelblue;"></circle><circle cx="57.25776093701521" cy="17.550113797187805" r="2" style="fill: steelblue;"></circle><circle cx="57.97164473268721" cy="34.270837157964706" r="2" style="fill: steelblue;"></circle><circle cx="64.50184517436557" cy="38.45733515918255" r="2" style="fill: steelblue;"></circle><circle cx="44.76619097921583" cy="60.98786201328039" r="2" style="fill: steelblue;"></circle><circle cx="25.41986438963148" cy="65.75122401118279" r="2" style="fill: steelblue;"></circle><circle cx="25.464716884824963" cy="61.013152077794075" r="2" style="fill: steelblue;"></circle><circle cx="22.400240103403725" cy="80.181385576725" r="2" style="fill: steelblue;"></circle><circle cx="33.809199929237366" cy="95.17221078276634" r="2" style="fill: steelblue;"></circle><circle cx="42.40550845861435" cy="61.79343368858099" r="2" style="fill: steelblue;"></circle><circle cx="88.70503306388855" cy="25.836262106895447" r="2" style="fill: steelblue;"></circle><circle cx="46.164607836140526" cy="34.115494415163994" r="2" style="fill: steelblue;"></circle><circle cx="65.46692964103487" cy="20.615943893790245" r="2" style="fill: steelblue;"></circle><circle cx="81.03873332341512" cy="25.150415673851967" r="2" style="fill: steelblue;"></circle><circle cx="57.04812126027213" cy="32.1682907640934" r="2" style="fill: steelblue;"></circle><circle cx="75.84745188554128" cy="21.80604189634323" r="2" style="fill: steelblue;"></circle><circle cx="37.465646862983704" cy="90.40727391839027" r="2" style="fill: steelblue;"></circle><circle cx="53.102091782622864" cy="44.49213547632098" r="2" style="fill: steelblue;"></circle><circle cx="27.196953694025677" cy="81.62834420800209" r="2" style="fill: steelblue;"></circle><circle cx="42.66497244437535" cy="93.05313155055046" r="2" style="fill: steelblue;"></circle><circle cx="72.79928194151985" cy="92.96514764428139" r="2" style="fill: steelblue;"></circle><circle cx="57.132924389508034" cy="53.809534944593906" r="2" style="fill: steelblue;"></circle><circle cx="52.04137787222862" cy="47.204527258872986" r="2" style="fill: steelblue;"></circle><circle cx="64.00686088535521" cy="62.31063436716795" r="2" style="fill: steelblue;"></circle><circle cx="28.07903620931837" cy="98.4241284430027" r="2" style="fill: steelblue;"></circle><circle cx="26.551832755406696" cy="52.32514529488981" r="2" style="fill: steelblue;"></circle><circle cx="41.38578805658552" cy="54.787360318005085" r="2" style="fill: steelblue;"></circle><circle cx="41.6929531428549" cy="59.9310539662838" r="2" style="fill: steelblue;"></circle><circle cx="69.48843598365784" cy="80.52533976733685" r="2" style="fill: steelblue;"></circle><circle cx="27.91741159227159" cy="33.954884111881256" r="2" style="fill: steelblue;"></circle><circle cx="64.39396325084898" cy="82.19080343842506" r="2" style="fill: steelblue;"></circle><circle cx="62.76163458824158" cy="90.1097722351551" r="2" style="fill: steelblue;"></circle><circle cx="31.91172745492723" cy="73.0861809104681" r="2" style="fill: steelblue;"></circle><circle cx="30.240340365303886" cy="75.44676698744297" r="2" style="fill: steelblue;"></circle><circle cx="17.41789115799798" cy="94.04871538281441" r="2" style="fill: steelblue;"></circle><circle cx="60.953427106142044" cy="85.24000197649002" r="2" style="fill: steelblue;"></circle><circle cx="36.98665234777662" cy="34.54700503498316" r="2" style="fill: steelblue;"></circle><circle cx="17.675062020619713" cy="99.3752658367157" r="2" style="fill: steelblue;"></circle><circle cx="29.937754074732464" cy="48.98252123966813" r="2" style="fill: steelblue;"></circle><circle cx="8.493648635016546" cy="69.00122687220573" r="2" style="fill: steelblue;"></circle><circle cx="78.00471782684326" cy="30.054890736937523" r="2" style="fill: steelblue;"></circle><circle cx="60.643037574158775" cy="20.89478373527527" r="2" style="fill: steelblue;"></circle><circle cx="72.30642603503334" cy="24.231623113155365" r="2" style="fill: steelblue;"></circle><circle cx="84.37059985266792" cy="21.886267885565758" r="2" style="fill: steelblue;"></circle><circle cx="54.14555128663778" cy="14.091554284095764" r="2" style="fill: steelblue;"></circle><circle cx="59.86942847569784" cy="39.670317620038986" r="2" style="fill: steelblue;"></circle><circle cx="92.04255872302585" cy="35.47976650297642" r="2" style="fill: steelblue;"></circle><circle cx="83.30309391021729" cy="36.94395273923874" r="2" style="fill: steelblue;"></circle><circle cx="70.50662073824141" cy="12.612118571996689" r="2" style="fill: steelblue;"></circle><circle cx="78.93575562371147" cy="16.314472258090973" r="2" style="fill: steelblue;"></circle><circle cx="96.87510463926527" cy="3.130904585123062" r="2" style="fill: steelblue;"></circle><circle cx="64.41685060660043" cy="10.529807955026627" r="2" style="fill: steelblue;"></circle><circle cx="35.6816119617886" cy="53.866005688905716" r="2" style="fill: steelblue;"></circle><circle cx="74.31576318211025" cy="73.79694022238255" r="2" style="fill: steelblue;"></circle><circle cx="43.9273069302241" cy="76.96487307548523" r="2" style="fill: steelblue;"></circle><circle cx="67.34902494483524" cy="55.835901480168104" r="2" style="fill: steelblue;"></circle><circle cx="70.60611082447899" cy="55.37273986265063" r="2" style="fill: steelblue;"></circle><circle cx="59.973417884773674" cy="61.827089823782444" r="2" style="fill: steelblue;"></circle><circle cx="72.18534582191043" cy="24.99481961131096" r="2" style="fill: steelblue;"></circle><circle cx="85.55828200446236" cy="38.73646277934313" r="2" style="fill: steelblue;"></circle><circle cx="82.45167798466152" cy="3.5826295614242554" r="2" style="fill: steelblue;"></circle><circle cx="37.49369581540425" cy="43.92343498766422" r="2" style="fill: steelblue;"></circle><circle cx="38.633661137686836" cy="6.026922911405563" r="2" style="fill: steelblue;"></circle><circle cx="56.98458281242185" cy="26.760772988200188" r="2" style="fill: steelblue;"></circle><circle cx="46.78480409913593" cy="0.5602903664112091" r="2" style="fill: steelblue;"></circle><circle cx="77.54273381498125" cy="46.501375222578645" r="2" style="fill: steelblue;"></circle><circle cx="62.571555376052856" cy="43.8609329983592" r="2" style="fill: steelblue;"></circle><circle cx="83.85986089706421" cy="39.65898994356394" r="2" style="fill: steelblue;"></circle><circle cx="28.015351957745022" cy="35.651553608477116" r="2" style="fill: steelblue;"></circle><circle cx="76.35636130968729" cy="35.78757420182228" r="2" style="fill: steelblue;"></circle><circle cx="54.328106654187046" cy="23.305106163024902" r="2" style="fill: steelblue;"></circle><circle cx="63.97067507108053" cy="51.333690830506384" r="2" style="fill: steelblue;"></circle><circle cx="26.703109343846638" cy="29.370644316077232" r="2" style="fill: steelblue;"></circle><circle cx="75.69276127550337" cy="38.69871906936169" r="2" style="fill: steelblue;"></circle><circle cx="59.360468139251076" cy="91.48688167333603" r="2" style="fill: steelblue;"></circle><circle cx="63.84903440872828" cy="39.15930092334747" r="2" style="fill: steelblue;"></circle><circle cx="61.20733461446232" cy="72.2841277718544" r="2" style="fill: steelblue;"></circle><circle cx="53.375636330909195" cy="49.20845724409446" r="2" style="fill: steelblue;"></circle><circle cx="47.98773924509684" cy="20.46196460723877" r="2" style="fill: steelblue;"></circle><circle cx="74.3682798412111" cy="40.52524846047163" r="2" style="fill: steelblue;"></circle><circle cx="73.46788379881117" cy="33.523210510611534" r="2" style="fill: steelblue;"></circle><circle cx="37.43299345175426" cy="74.43329989910126" r="2" style="fill: steelblue;"></circle><circle cx="39.29961224397023" cy="82.84220397472382" r="2" style="fill: steelblue;"></circle><circle cx="50.54762835303942" cy="49.497137614525855" r="2" style="fill: steelblue;"></circle><circle cx="24.558696481916638" cy="69.30957101285458" r="2" style="fill: steelblue;"></circle><circle cx="54.11327506105105" cy="85.52611544728279" r="2" style="fill: steelblue;"></circle><circle cx="36.47091653611925" cy="66.90536737442017" r="2" style="fill: steelblue;"></circle></g></svg>