<svg xmlns="http://www.w3.org/2000/svg"><g><circle cx="84.62221119552851" cy="162.45271116495132" r="2" style="fill: steelblue;"></circle><circle cx="26.32488906383515" cy="179.81564849615097" r="2" style="fill: steelblue;"></circle><circle cx="84.17511954903603" cy="144.55474764108658" r="2" style="fill: steelblue;"></circle><circle cx="21.83440178632737" cy="183.7557464838028" r="2" style="fill: steelblue;"></circle><circle cx="20.034237205982215" cy="156.9060817360878" r="2" style="fill: steelblue;"></circle><circle cx="26.039248704910285" cy="154.64066565036774" r="2" style="fill: steelblue;"></circle><circle cx="97.73420626297593" cy="115.75090549886227" r="2" style="fill: steelblue;"></circle><circle cx="141.53981432318687" cy="95.03468628972769" r="2" style="fill: steelblue;"></circle><circle cx="44.09104436635972" cy="150.36574974656105" r="2" style="fill: steelblue;"></circle><circle cx="81.49378970265388" cy="167.01643019914627" r="2" style="fill: steelblue;"></circle><circle cx="76.11381858587265" cy="152.4204485118389" r="2" style="fill: steelblue;"></circle><circle cx="56.86371251940727" cy="109.43662505596876" r="2" style="fill: steelblue;"></circle><circle cx="48.715042322874076" cy="152.14867740869522" r="2" style="fill: steelblue;"></circle><circle cx="76.82434320449829" cy="108.25260858982801" r="2" style="fill: steelblue;"></circle><circle cx="93.82663983851671" cy="150.95435678958893" r="2" style="fill: steelblue;"></circle><circle cx="81.7868247628212" cy="69.95288878679276" r="2" style="fill: steelblue;"></circle><circle cx="38.38458880782128" cy="115.58634918183088" r="2" style="fill: steelblue;"></circle><circle cx="85.29194481670856" cy="113.4715111926198" r="2" style="fill: steelblue;"></circle><circle cx="93.02480323240161" cy="118.83691176772118" r="2" style="fill: steelblue;"></circle><circle cx="82.4135061353445" cy="81.52429237961769" r="2" style="fill: steelblue;"></circle><circle cx="67.90609881281853" cy="59.81791615486145" r="2" style="fill: steelblue;"></circle><circle cx="79.76312041282654" cy="26.8152117729187" r="2" style="fill: steelblue;"></circle><circle cx="58.99692922830582" cy="81.6911555826664" r="2" style="fill: steelblue;"></circle><circle cx="95.90876372531056" cy="125.79676173627377" r="2" style="fill: steelblue;"></circle><circle cx="102.40064691752195" cy="89.96117897331715" r="2" style="fill: steelblue;"></circle><circle cx="69.72806192934513" cy="62.847184389829636" r="2" style="fill: steelblue;"></circle><circle cx="125.09910240769386" cy="118.0653315037489" r="2" style="fill: steelblue;"></circle><circle cx="131.35429695248604" cy="155.43190985918045" r="2" style="fill: steelblue;"></circle><circle cx="50.684431940317154" cy="132.46602416038513" r="2" style="fill: steelblue;"></circle><circle cx="121.79046347737312" cy="126.4857616275549" r="2" style="fill: steelblue;"></circle><circle cx="171.49199396371841" cy="35.38019806146622" r="2" style="fill: steelblue;"></circle><circle cx="154.0146343410015" cy="73.01299311220646" r="2" style="fill: steelblue;"></circle><circle cx="90.62552582472563" cy="101.04941939935088" r="2" style="fill: steelblue;"></circle><circle cx="128.05290929973125" cy="155.42096868157387" r="2" style="fill: steelblue;"></circle><circle cx="141.56004637479782" cy="156.13857880234718" r="2" style="fill: steelblue;"></circle><circle cx="192.84762293100357" cy="125.54778940975666" r="2" style="fill: steelblue;"></circle><circle cx="121.61935158073902" cy="113.62136751413345" r="2" style="fill: steelblue;"></circle><circle cx="115.85676893591881" cy="188.90261501073837" r="2" style="fill: steelblue;"></circle><circle cx="70.98542004823685" cy="143.60489174723625" r="2" style="fill: steelblue;"></circle><circle cx="13.95930945873261" cy="79.79371249675751" r="2" style="fill: steelblue;"></circle><circle cx="118.50188337266445" cy="136.89194098114967" r="2" style="fill: steelblue;"></circle><circle cx="182.68654346466064" cy="122.80883304774761" r="2" style="fill: steelblue;"></circle><circle cx="192.3166424036026" cy="106.8425890058279" r="2" style="fill: steelblue;"></circle><circle cx="183.905428647995" cy="37.48023360967636" r="2" style="fill: steelblue;"></circle><circle cx="75.38459487259388" cy="88.42442315071821" r="2" style="fill: steelblue;"></circle><circle cx="63.34143355488777" cy="23.48591983318329" r="2" style="fill: steelblue;"></circle><circle cx="65.21096304059029" cy="77.85327956080437" r="2" style="fill: steelblue;"></circle><circle cx="17.228102684021003" cy="179.82497662305832" r="2" style="fill: steelblue;"></circle><circle cx="35.596995055675514" cy="103.87995806522667" r="2" style="fill: steelblue;"></circle><circle cx="61.161669343709946" cy="119.00419220328331" r="2" style="fill: steelblue;"></circle><circle cx="67.60424971580505" cy="60.64850315451622" r="2" style="fill: steelblue;"></circle><circle cx="60.99672466516495" cy="106.07104878872633" r="2" style="fill: steelblue;"></circle><circle cx="67.82944351434708" cy="34.56779420375824" r="2" style="fill: steelblue;"></circle><circle cx="48.51066544651986" cy="139.20485079288483" r="2" style="fill: steelblue;"></circle><circle cx="80.22444918751717" cy="100.01034885644913" r="2" style="fill: steelblue;"></circle><circle cx="71.47305682301521" cy="145.66120728850365" r="2" style="fill: steelblue;"></circle><circle cx="109.02335532009602" cy="110.88718883693218" r="2" style="fill: steelblue;"></circle><circle cx="0.4896283149719294" cy="88.48473280668259" r="2" style="fill: steelblue;"></circle><circle cx="67.54872426390648" cy="53.6118321120739" r="2" style="fill: steelblue;"></circle><circle cx="59.663696587085724" cy="142.76888817548752" r="2" style="fill: steelblue;"></circle><circle cx="59.06778424978256" cy="132.52820670604706" r="2" style="fill: steelblue;"></circle><circle cx="64.59488198161125" cy="126.68889425694942" r="2" style="fill: steelblue;"></circle><circle cx="20.115739107131965" cy="174.71976429224014" r="2" style="fill: steelblue;"></circle><circle cx="26.524691283702857" cy="162.96362727880478" r="2" style="fill: steelblue;"></circle><circle cx="99.6612936956808" cy="158.94096568226814" r="2" style="fill: steelblue;"></circle><circle cx="56.84174448251724" cy="98.63759230356663" r="2" style="fill: steelblue;"></circle><circle cx="95.70611584931612" cy="167.54747033119202" r="2" style="fill: steelblue;"></circle><circle cx="39.83613327145577" cy="161.55385076999664" r="2" style="fill: steelblue;"></circle><circle cx="36.58931553363801" cy="78.46310585737228" r="2" style="fill: steelblue;"></circle><circle cx="131.59210458397865" cy="111.68570853769779" r="2" style="fill: steelblue;"></circle><circle cx="68.2810977101326" cy="156.32025003433228" r="2" style="fill: steelblue;"></circle><circle cx="141.43208265304565" cy="91.25121906399727" r="2" style="fill: steelblue;"></circle><circle cx="63.67263421416283" cy="45.28065249323845" r="2" style="fill: steelblue;"></circle><circle cx="159.53418463468552" cy="53.67736741900444" r="2" style="fill: steelblue;"></circle><circle cx="146.13691195845604" cy="45.075199007987976" r="2" style="fill: steelblue;"></circle><circle cx="91.254941560328" cy="49.35276359319687" r="2" style="fill: steelblue;"></circle><circle cx="146.22670635581017" cy="46.41389325261116" r="2" style="fill: steelblue;"></circle><circle cx="165.28671085834503" cy="47.65826687216759" r="2" style="fill: steelblue;"></circle><circle cx="149.19858276844025" cy="1.6818925738334656" r="2" style="fill: steelblue;"></circle><circle cx="146.56533896923065" cy="30.10542541742325" r="2" style="fill: steelblue;"></circle><circle cx="188.8051688671112" cy="42.84748286008835" r="2" style="fill: steelblue;"></circle><circle cx="147.44784906506538" cy="5.438274145126343" r="2" style="fill: steelblue;"></circle><circle cx="131.4318612217903" cy="98.39228135533631" r="2" style="fill: steelblue;"></circle><circle cx="37.834538519382484" cy="120.2549621462822" r="2" style="fill: steelblue;"></circle><circle cx="67.0008197426796" cy="188.3452519774437" r="2" style="fill: steelblue;"></circle><circle cx="90.69163482636213" cy="109.0522626414895" r="2" style="fill: steelblue;"></circle><circle cx="127.34608948230743" cy="105.72137208655477" r="2" style="fill: steelblue;"></circle><circle cx="84.05596427619457" cy="94.48972661048174" r="2" style="fill: steelblue;"></circle><circle cx="116.75211451947689" cy="86.66827846318483" r="2" style="fill: steelblue;"></circle><circle cx="128.45779806375504" cy="62.715599685907364" r="2" style="fill: steelblue;"></circle><circle cx="139.81973603367805" cy="38.19475173950195" r="2" style="fill: steelblue;"></circle><circle cx="108.56960285454988" cy="34.75668132305145" r="2" style="fill: steelblue;"></circle><circle cx="148.55798184871674" cy="92.34945001080632" r="2" style="fill: steelblue;"></circle><circle cx="147.94246703386307" cy="34.84979867935181" r="2" style="fill: steelblue;"></circle><circle cx="54.757966101169586" cy="42.65342503786087" r="2" style="fill: steelblue;"></circle><circle cx="103.7826499901712" cy="46.931276470422745" r="2" style="fill: steelblue;"></circle><circle cx="179.63215559720993" cy="56.87583088874817" r="2" style="fill: steelblue;"></circle><circle cx="162.67956644296646" cy="17.60016232728958" r="2" style="fill: steelblue;"></circle><circle cx="138.11873123049736" cy="111.79639250040054" r="2" style="fill: steelblue;"></circle><circle cx="109.78410802781582" cy="144.13475841283798" r="2" style="fill: steelblue;"></circle><circle cx="102.62389704585075" cy="122.33878709375858" r="2" style="fill: steelblue;"></circle><circle cx="110.13042125850916" cy="42.149654030799866" r="2" style="fill: steelblue;"></circle><circle cx="165.81324338912964" cy="108.60277283936739" r="2" style="fill: steelblue;"></circle><circle cx="84.36125554144382" cy="84.12607610225677" r="2" style="fill: steelblue;"></circle><circle cx="57.18587562441826" cy="10.531029105186462" r="2" style="fill: steelblue;"></circle><circle cx="139.96847197413445" cy="45.09348273277283" r="2" style="fill: steelblue;"></circle><circle cx="101.57419836614281" cy="161.08415126800537" r="2" style="fill: steelblue;"></circle><circle cx="103.47656477242708" cy="44.56039369106293" r="2" style="fill: steelblue;"></circle><circle cx="150.08582025766373" cy="22.637760639190674" r="2" style="fill: steelblue;"></circle><circle cx="145.59195414185524" cy="31.78388476371765" r="2" style="fill: steelblue;"></circle><circle cx="157.03654885292053" cy="22.540389001369476" r="2" style="fill: steelblue;"></circle><circle cx="62.16604486107826" cy="26.00834369659424" r="2" style="fill: steelblue;"></circle><circle cx="73.92250783741474" cy="139.21032696962357" r="2" style="fill: steelblue;"></circle><circle cx="93.84977156296372" cy="94.560566265136" r="2" style="fill: steelblue;"></circle><circle cx="43.079419434070594" cy="123.77944067120552" r="2" style="fill: steelblue;"></circle><circle cx="51.670873910188675" cy="164.1953945159912" r="2" style="fill: steelblue;"></circle><circle cx="86.36295273900032" cy="162.82967329025269" r="2" style="fill: steelblue;"></circle><circle cx="88.24672028422356" cy="100.81705627962947" r="2" style="fill: steelblue;"></circle></g></svg>