<svg xmlns="http://www.w3.org/2000/svg"><rect width="200" height="200" fill="white"></rect><g><circle cx="19.103300571441657" cy="119.72012966871262" r="2" style="fill: steelblue;"></circle><circle cx="60.58497428894043" cy="157.72504583001137" r="2" style="fill: steelblue;"></circle><circle cx="40.74848890304566" cy="117.17859320342541" r="2" style="fill: steelblue;"></circle><circle cx="52.62519783443875" cy="116.13124646246433" r="2" style="fill: steelblue;"></circle><circle cx="75.86907297372818" cy="137.24618256092072" r="2" style="fill: steelblue;"></circle><circle cx="64.43245742056105" cy="95.40733639150858" r="2" style="fill: steelblue;"></circle><circle cx="82.87035872538885" cy="52.303994446992874" r="2" style="fill: steelblue;"></circle><circle cx="62.55478527810839" cy="67.79881417751312" r="2" style="fill: steelblue;"></circle><circle cx="84.92357151375877" cy="73.95341657102108" r="2" style="fill: steelblue;"></circle><circle cx="69.15239195028941" cy="121.55135199427605" r="2" style="fill: steelblue;"></circle><circle cx="26.837089326646595" cy="112.94073276221752" r="2" style="fill: steelblue;"></circle><circle cx="96.35389132632149" cy="140.7157689332962" r="2" style="fill: steelblue;"></circle><circle cx="22.886996799045143" cy="74.00954179465771" r="2" style="fill: steelblue;"></circle><circle cx="86.43901029394733" cy="66.90187230706215" r="2" style="fill: steelblue;"></circle><circle cx="49.61018297407362" cy="157.41139128804207" r="2" style="fill: steelblue;"></circle><circle cx="13.023553954230419" cy="155.05509674549103" r="2" style="fill: steelblue;"></circle><circle cx="118.658047914505" cy="95.9374824538827" r="2" style="fill: steelblue;"></circle><circle cx="97.57482873068916" cy="49.37695190310478" r="2" style="fill: steelblue;"></circle><circle cx="80.98819802204768" cy="115.32274670898914" r="2" style="fill: steelblue;"></circle><circle cx="107.63380461268954" cy="96.32663791999221" r="2" style="fill: steelblue;"></circle><circle cx="98.96662036577861" cy="108.3721661940217" r="2" style="fill: steelblue;"></circle><circle cx="96.1153808567259" cy="64.3835611641407" r="2" style="fill: steelblue;"></circle><circle cx="117.35805736647713" cy="51.50964707136154" r="2" style="fill: steelblue;"></circle><circle cx="78.32436379459169" cy="171.76397740840912" r="2" style="fill: steelblue;"></circle><circle cx="44.78180607159933" cy="148.48069697618484" r="2" style="fill: steelblue;"></circle><circle cx="55.85726300875346" cy="161.5442581474781" r="2" style="fill: steelblue;"></circle><circle cx="9.699548615349668" cy="109.30653512477875" r="2" style="fill: steelblue;"></circle><circle cx="19.979170958201095" cy="156.11350014805794" r="2" style="fill: steelblue;"></circle><circle cx="67.25359327263303" cy="131.033493578434" r="2" style="fill: steelblue;"></circle><circle cx="121.30112316873338" cy="37.007829546928406" r="2" style="fill: steelblue;"></circle><circle cx="105.59242831336128" cy="116.00083895027637" r="2" style="fill: steelblue;"></circle><circle cx="154.47289943695068" cy="84.10766012966633" r="2" style="fill: steelblue;"></circle><circle cx="95.10196033451292" cy="63.52579817175865" r="2" style="fill: steelblue;"></circle><circle cx="103.25711998674605" cy="89.29787613451481" r="2" style="fill: steelblue;"></circle><circle cx="91.02100974155796" cy="41.30953028798103" r="2" style="fill: steelblue;"></circle><circle cx="151.11294587453204" cy="130.3432010114193" r="2" style="fill: steelblue;"></circle><circle cx="84.52697710858452" cy="95.87332736700773" r="2" style="fill: steelblue;"></circle><circle cx="31.46591318978204" cy="199.3950515985489" r="2" style="fill: steelblue;"></circle><circle cx="49.13066691822476" cy="172.25262373685837" r="2" style="fill: steelblue;"></circle><circle cx="89.02960875485506" cy="137.9888229072094" r="2" style="fill: steelblue;"></circle><circle cx="31.18834760453966" cy="185.48375219106674" r="2" style="fill: steelblue;"></circle><circle cx="20.706963539123542" cy="56.15528151392937" r="2" style="fill: steelblue;"></circle><circle cx="85.37618228130872" cy="44.98530402779579" r="2" style="fill: steelblue;"></circle><circle cx="167.14696619245743" cy="99.22645336482674" r="2" style="fill: steelblue;"></circle><circle cx="85.26705279946327" cy="83.36245305836201" r="2" style="fill: steelblue;"></circle><circle cx="84.8998960521486" cy="78.59571874141693" r="2" style="fill: steelblue;"></circle><circle cx="64.9721791346868" cy="73.0952475219965" r="2" style="fill: steelblue;"></circle><circle cx="27.069262663523357" cy="189.76811915636063" r="2" style="fill: steelblue;"></circle><circle cx="105.46273854043748" cy="88.66177536547184" r="2" style="fill: steelblue;"></circle><circle cx="17.326459619734027" cy="110.15893369913101" r="2" style="fill: steelblue;"></circle><circle cx="110.02968781524234" cy="99.32695087045431" r="2" style="fill: steelblue;"></circle><circle cx="73.05117812421588" cy="78.58521714806557" r="2" style="fill: steelblue;"></circle><circle cx="78.9757647448116" cy="145.5414466559887" r="2" style="fill: steelblue;"></circle><circle cx="120.11172903908624" cy="158.89640748500824" r="2" style="fill: steelblue;"></circle><circle cx="58.035716745588516" cy="127.48678810894489" r="2" style="fill: steelblue;"></circle><circle cx="53.23597325219048" cy="196.69391810894012" r="2" style="fill: steelblue;"></circle><circle cx="120.81861694653828" cy="124.14886094629765" r="2" style="fill: steelblue;"></circle><circle cx="58.24018385675219" cy="110.81304345279932" r="2" style="fill: steelblue;"></circle><circle cx="94.64958922730553" cy="94.23236260190606" r="2" style="fill: steelblue;"></circle><circle cx="77.45214336448247" cy="86.89417075365782" r="2" style="fill: steelblue;"></circle><circle cx="84.26752926574814" cy="123.73496629297733" r="2" style="fill: steelblue;"></circle><circle cx="83.99600568744872" cy="101.95530685596168" r="2" style="fill: steelblue;"></circle><circle cx="6.657102372911246" cy="154.2582981288433" r="2" style="fill: steelblue;"></circle><circle cx="13.268052207099071" cy="195.35691142082214" r="2" style="fill: steelblue;"></circle><circle cx="26.775352160135906" cy="178.10474187135696" r="2" style="fill: steelblue;"></circle><circle cx="66.98064870304532" cy="140.15057161450386" r="2" style="fill: steelblue;"></circle><circle cx="31.5495252609253" cy="192.0688584446907" r="2" style="fill: steelblue;"></circle><circle cx="91.24184764093823" cy="176.4448046684265" r="2" style="fill: steelblue;"></circle><circle cx="12.632792525821266" cy="107.6331770978868" r="2" style="fill: steelblue;"></circle><circle cx="14.644767178429502" cy="165.4742419719696" r="2" style="fill: steelblue;"></circle><circle cx="68.31638713677725" cy="52.81224697828293" r="2" style="fill: steelblue;"></circle><circle cx="102.83998019165463" cy="6.335480511188507" r="2" style="fill: steelblue;"></circle><circle cx="144.58674059973825" cy="13.752540946006775" r="2" style="fill: steelblue;"></circle><circle cx="127.27566096517775" cy="91.31273664534092" r="2" style="fill: steelblue;"></circle><circle cx="128.24356754620868" cy="32.18836188316345" r="2" style="fill: steelblue;"></circle><circle cx="90.1640676582853" cy="146.63575068116188" r="2" style="fill: steelblue;"></circle><circle cx="31.66074090533787" cy="37.6143179833889" r="2" style="fill: steelblue;"></circle><circle cx="136.82105673684015" cy="53.05735990405083" r="2" style="fill: steelblue;"></circle><circle cx="111.61275903383891" cy="71.08597308397293" r="2" style="fill: steelblue;"></circle><circle cx="98.58034584257338" cy="24.872756004333496" r="2" style="fill: steelblue;"></circle><circle cx="175.81950823465985" cy="116.60680584609509" r="2" style="fill: steelblue;"></circle><circle cx="165.06541967391968" cy="34.2067614197731" r="2" style="fill: steelblue;"></circle><circle cx="154.31652996275162" cy="145.47763988375664" r="2" style="fill: steelblue;"></circle><circle cx="71.79180317454869" cy="165.3640180826187" r="2" style="fill: steelblue;"></circle><circle cx="75.40030479431152" cy="109.9398884922266" r="2" style="fill: steelblue;"></circle><circle cx="91.5672196696202" cy="106.89135817810893" r="2" style="fill: steelblue;"></circle><circle cx="98.60931121640736" cy="74.20126758515835" r="2" style="fill: steelblue;"></circle><circle cx="44.07486187087165" cy="90.9896133467555" r="2" style="fill: steelblue;"></circle><circle cx="39.11228179931641" cy="82.37224295735359" r="2" style="fill: steelblue;"></circle><circle cx="149.74250925911798" cy="69.86287832260132" r="2" style="fill: steelblue;"></circle><circle cx="57.903258668051826" cy="81.7721601575613" r="2" style="fill: steelblue;"></circle><circle cx="102.53247155083551" cy="94.4949820637703" r="2" style="fill: steelblue;"></circle><circle cx="181.32161961661444" cy="56.39445632696152" r="2" style="fill: steelblue;"></circle><circle cx="88.37412532625926" cy="45.130858570337296" r="2" style="fill: steelblue;"></circle><circle cx="105.30700816048517" cy="42.07968935370445" r="2" style="fill: steelblue;"></circle><circle cx="155.87997966342502" cy="54.52773943543434" r="2" style="fill: steelblue;"></circle><circle cx="167.4256708886888" cy="43.028524518013" r="2" style="fill: steelblue;"></circle><circle cx="92.44681927892897" cy="170.41529566049576" r="2" style="fill: steelblue;"></circle><circle cx="47.026046779420646" cy="166.74793362617493" r="2" style="fill: steelblue;"></circle><circle cx="80.6578450732761" cy="20.40906846523285" r="2" style="fill: steelblue;"></circle><circle cx="140.22010432349313" cy="19.752895832061768" r="2" style="fill: steelblue;"></circle><circle cx="129.39686112933688" cy="69.84178945422173" r="2" style="fill: steelblue;"></circle><circle cx="155.64441548453436" cy="106.7693181335926" r="2" style="fill: steelblue;"></circle><circle cx="146.1545679304335" cy="175.53990185260773" r="2" style="fill: steelblue;"></circle><circle cx="144.2948169178433" cy="44.979917258024216" r="2" style="fill: steelblue;"></circle><circle cx="118.44757729106479" cy="142.07415878772736" r="2" style="fill: steelblue;"></circle><circle cx="93.36885718835724" cy="99.82532870490104" r="2" style="fill: steelblue;"></circle><circle cx="129.48976159095764" cy="88.23208920657635" r="2" style="fill: steelblue;"></circle><circle cx="92.62174442410469" cy="118.22301000356674" r="2" style="fill: steelblue;"></circle><circle cx="115.60162934992049" cy="55.04821836948395" r="2" style="fill: steelblue;"></circle><circle cx="110.9537038538191" cy="89.07410725951195" r="2" style="fill: steelblue;"></circle><circle cx="138.9446907573276" cy="29.204657673835754" r="2" style="fill: steelblue;"></circle><circle cx="78.24265741639668" cy="132.39154815673828" r="2" style="fill: steelblue;"></circle><circle cx="40.018169747458565" cy="124.04789440333843" r="2" style="fill: steelblue;"></circle><circle cx="82.56101310253143" cy="135.72002798318863" r="2" style="fill: steelblue;"></circle><circle cx="112.22169001897176" cy="193.6359092593193" r="2" style="fill: steelblue;"></circle><circle cx="106.2508162524965" cy="138.75421360135078" r="2" style="fill: steelblue;"></circle><circle cx="39.07565143373278" cy="138.13745453953743" r="2" style="fill: steelblue;"></circle></g></svg>