<svg xmlns="http://www.w3.org/2000/svg"><g transform="translate(40,20)"><circle cx="343.22940051555634" cy="55.70584461092949" r="3" style="fill: steelblue;"></circle><circle cx="251.3030813634396" cy="43.28046478331089" r="3" style="fill: steelblue;"></circle><circle cx="288.52370023727417" cy="92.46693011373281" r="3" style="fill: steelblue;"></circle><circle cx="251.70079484581947" cy="7.641180604696274" r="3" style="fill: steelblue;"></circle><circle cx="374.33403074741364" cy="64.43956419825554" r="3" style="fill: steelblue;"></circle><circle cx="360.7010507583618" cy="181.4196547609754" r="3" style="fill: steelblue;"></circle><circle cx="356.3981169462204" cy="100.60705821961164" r="3" style="fill: steelblue;"></circle><circle cx="416.9036829471588" cy="104.74564619362354" r="3" style="fill: steelblue;"></circle><circle cx="441.37428045272827" cy="76.09515655785799" r="3" style="fill: steelblue;"></circle><circle cx="421.2056601047516" cy="52.885013818740845" r="3" style="fill: steelblue;"></circle><circle cx="339.11961257457733" cy="7.397386431694031" r="3" style="fill: steelblue;"></circle><circle cx="327.03143298625946" cy="60.587647557258606" r="3" style="fill: steelblue;"></circle><circle cx="310.0942397117615" cy="76.36309806257486" r="3" style="fill: steelblue;"></circle><circle cx="264.8094476759434" cy="95.2266363427043" r="3" style="fill: steelblue;"></circle><circle cx="191.43986642360687" cy="99.63408503681421" r="3" style="fill: steelblue;"></circle><circle cx="338.012325167656" cy="148.4192981850356" r="3" style="fill: steelblue;"></circle><circle cx="310.7788869738579" cy="52.610787749290466" r="3" style="fill: steelblue;"></circle><circle cx="447.04500675201416" cy="24.518978968262672" r="3" style="fill: steelblue;"></circle><circle cx="323.9565843343735" cy="114.4526844844222" r="3" style="fill: steelblue;"></circle><circle cx="348.9989572763443" cy="98.15506748855114" r="3" style="fill: steelblue;"></circle><circle cx="238.84031696710738" cy="81.27754293382168" r="3" style="fill: steelblue;"></circle><circle cx="397.37344622612" cy="47.24692478775978" r="3" style="fill: steelblue;"></circle><circle cx="90.25916397571565" cy="153.28691685572267" r="3" style="fill: steelblue;"></circle><circle cx="279.7004172205925" cy="35.81737466156483" r="3" style="fill: steelblue;"></circle><circle cx="247.10846297442913" cy="238.19305207580328" r="3" style="fill: steelblue;"></circle><circle cx="311.7726096510887" cy="99.8795285820961" r="3" style="fill: steelblue;"></circle><circle cx="165.04606693983078" cy="126.65596948936582" r="3" style="fill: steelblue;"></circle><circle cx="151.32535636425018" cy="114.64332714676857" r="3" style="fill: steelblue;"></circle><circle cx="144.89948093891144" cy="281.4407667145133" r="3" style="fill: steelblue;"></circle><circle cx="389.9244153499604" cy="222.947411891073" r="3" style="fill: steelblue;"></circle><circle cx="161.32799327373505" cy="134.65374633669853" r="3" style="fill: steelblue;"></circle><circle cx="274.10961851477623" cy="156.44645243883133" r="3" style="fill: steelblue;"></circle><circle cx="143.14688980579376" cy="105.67801743745804" r="3" style="fill: steelblue;"></circle><circle cx="159.64223384857178" cy="201.60239953547716" r="3" style="fill: steelblue;"></circle><circle cx="356.60251021385193" cy="190.67476871423423" r="3" style="fill: steelblue;"></circle><circle cx="276.14678531885147" cy="248.36871419101954" r="3" style="fill: steelblue;"></circle><circle cx="161.9019323587418" cy="243.8610253855586" r="3" style="fill: steelblue;"></circle><circle cx="176.89701855182648" cy="217.64763975515962" r="3" style="fill: steelblue;"></circle><circle cx="177.9669338464737" cy="76.83409489691257" r="3" style="fill: steelblue;"></circle><circle cx="184.59892362356186" cy="315.47341234982014" r="3" style="fill: steelblue;"></circle><circle cx="252.03605979681015" cy="193.62204866483808" r="3" style="fill: steelblue;"></circle><circle cx="154.94513154029846" cy="198.46994983963668" r="3" style="fill: steelblue;"></circle><circle cx="186.47046178579333" cy="202.86296978592873" r="3" style="fill: steelblue;"></circle><circle cx="211.1905047297478" cy="179.4134504860267" r="3" style="fill: steelblue;"></circle><circle cx="213.5958069562912" cy="207.988544087857" r="3" style="fill: steelblue;"></circle><circle cx="164.1600751876831" cy="212.65682503581047" r="3" style="fill: steelblue;"></circle><circle cx="174.52663868665695" cy="80.39655648171902" r="3" style="fill: steelblue;"></circle><circle cx="122.33207166194917" cy="292.5365764647722" r="3" style="fill: steelblue;"></circle><circle cx="221.66892863810065" cy="245.4629048705101" r="3" style="fill: steelblue;"></circle><circle cx="295.7445198297501" cy="221.00311489775777" r="3" style="fill: steelblue;"></circle><circle cx="229.75528702139854" cy="87.60419599711895" r="3" style="fill: steelblue;"></circle><circle cx="166.36734545230865" cy="139.24733940511942" r="3" style="fill: steelblue;"></circle><circle cx="203.90824913978577" cy="185.14864875469357" r="3" style="fill: steelblue;"></circle><circle cx="92.26162970066072" cy="170.48843957018107" r="3" style="fill: steelblue;"></circle><circle cx="353.8648599386215" cy="331.2581919133663" r="3" style="fill: steelblue;"></circle><circle cx="222.1590006351471" cy="218.17366564646363" r="3" style="fill: steelblue;"></circle><circle cx="159.1118985414505" cy="181.70188973890617" r="3" style="fill: steelblue;"></circle><circle cx="313.64292293787" cy="349.72812347114086" r="3" style="fill: steelblue;"></circle><circle cx="53.94388675689698" cy="269.0287774428725" r="3" style="fill: steelblue;"></circle><circle cx="174.42314118146896" cy="221.643755864352" r="3" style="fill: steelblue;"></circle><circle cx="328.3302390575409" cy="153.27618126757443" r="3" style="fill: steelblue;"></circle><circle cx="194.69512939453125" cy="221.6511780396104" r="3" style="fill: steelblue;"></circle><circle cx="336.1844891309738" cy="186.86714961659163" r="3" style="fill: steelblue;"></circle><circle cx="406.7135417461395" cy="60.321687906980515" r="3" style="fill: steelblue;"></circle><circle cx="271.9428227841854" cy="45.797667652368546" r="3" style="fill: steelblue;"></circle><circle cx="341.42270028591156" cy="75.5116568878293" r="3" style="fill: steelblue;"></circle><circle cx="225.1875253021717" cy="241.97603408247232" r="3" style="fill: steelblue;"></circle><circle cx="435.93545794487" cy="136.23756747692823" r="3" style="fill: steelblue;"></circle><circle cx="237.73940993472934" cy="134.29977670311928" r="3" style="fill: steelblue;"></circle><circle cx="507.3458218574524" cy="75.4359096288681" r="3" style="fill: steelblue;"></circle><circle cx="290.72832852602005" cy="95.22078856825829" r="3" style="fill: steelblue;"></circle><circle cx="125.53632795810701" cy="82.40813873708248" r="3" style="fill: steelblue;"></circle><circle cx="181.3693606853485" cy="90.86731281131506" r="3" style="fill: steelblue;"></circle><circle cx="218.9043813943863" cy="176.89129073987715" r="3" style="fill: steelblue;"></circle><circle cx="106.0849392414093" cy="243.29338055104017" r="3" style="fill: steelblue;"></circle><circle cx="138.41966629028323" cy="127.1454256027937" r="3" style="fill: steelblue;"></circle><circle cx="311.84597700834274" cy="216.68461496010423" r="3" style="fill: steelblue;"></circle><circle cx="207.0105166733265" cy="275.17855651676655" r="3" style="fill: steelblue;"></circle><circle cx="116.42527520656586" cy="194.3883841857314" r="3" style="fill: steelblue;"></circle><circle cx="266.84712186455727" cy="285.40625534951687" r="3" style="fill: steelblue;"></circle><circle cx="288.39397072792053" cy="164.3417115090415" r="3" style="fill: steelblue;"></circle><circle cx="170.63453882932666" cy="160.47505727037787" r="3" style="fill: steelblue;"></circle><circle cx="221.78335055708885" cy="221.77264159545302" r="3" style="fill: steelblue;"></circle><circle cx="258.46500411629677" cy="149.42770027555525" r="3" style="fill: steelblue;"></circle><circle cx="264.0939259529114" cy="58.058175444602966" r="3" style="fill: steelblue;"></circle><circle cx="222.30727426707745" cy="85.95869615674019" r="3" style="fill: steelblue;"></circle><circle cx="185.3904926776886" cy="271.953590400517" r="3" style="fill: steelblue;"></circle><circle cx="223.333832770586" cy="128.10072507709265" r="3" style="fill: steelblue;"></circle><circle cx="419.78301644325256" cy="187.79885589610785" r="3" style="fill: steelblue;"></circle><circle cx="432.0711278915405" cy="145.9359873086214" r="3" style="fill: steelblue;"></circle><circle cx="358.03771555423737" cy="133.34203902631998" r="3" style="fill: steelblue;"></circle><circle cx="275.2745018899441" cy="66.76472276449203" r="3" style="fill: steelblue;"></circle><circle cx="208.4139423072338" cy="79.87534180283546" r="3" style="fill: steelblue;"></circle><circle cx="332.9082155227661" cy="278.1641289591789" r="3" style="fill: steelblue;"></circle><circle cx="186.02605104446414" cy="246.66397385299206" r="3" style="fill: steelblue;"></circle><circle cx="99.21608805656435" cy="245.3476769849658" r="3" style="fill: steelblue;"></circle><circle cx="159.7312027215958" cy="128.10309482738376" r="3" style="fill: steelblue;"></circle><circle cx="145.86615800857544" cy="34.45168137550354" r="3" style="fill: steelblue;"></circle><circle cx="129.04109001159668" cy="182.66060571186244" r="3" style="fill: steelblue;"></circle><circle cx="334.11360919475555" cy="153.70033560320735" r="3" style="fill: steelblue;"></circle><circle cx="168.29451262950897" cy="275.1432677730918" r="3" style="fill: steelblue;"></circle><circle cx="222.83563256263733" cy="140.38498578593135" r="3" style="fill: steelblue;"></circle><circle cx="239.32661019265652" cy="240.63755869865417" r="3" style="fill: steelblue;"></circle><circle cx="228.4112946689129" cy="275.312820635736" r="3" style="fill: steelblue;"></circle><circle cx="78.23230862617494" cy="184.3218283727765" r="3" style="fill: steelblue;"></circle><circle cx="166.78236812353134" cy="291.3092479109764" r="3" style="fill: steelblue;"></circle><circle cx="292.28862315416336" cy="83.27557165175676" r="3" style="fill: steelblue;"></circle><circle cx="277.0525047183037" cy="152.96305152587593" r="3" style="fill: steelblue;"></circle><circle cx="198.99208188056946" cy="82.07722119987011" r="3" style="fill: steelblue;"></circle><circle cx="368.00439298152924" cy="64.55908827483654" r="3" style="fill: steelblue;"></circle><circle cx="373.29669535160065" cy="64.97415639460087" r="3" style="fill: steelblue;"></circle><circle cx="225.29094681143764" cy="157.80610237270594" r="3" style="fill: steelblue;"></circle><circle cx="67.07161903381349" cy="169.16054657194763" r="3" style="fill: steelblue;"></circle><circle cx="200.18587052822113" cy="333.87468308210373" r="3" style="fill: steelblue;"></circle><circle cx="140.60577392578128" cy="244.9564954265952" r="3" style="fill: steelblue;"></circle><circle cx="198.5608273744583" cy="245.52492257207632" r="3" style="fill: steelblue;"></circle><circle cx="219.623868316412" cy="124.93461156263947" r="3" style="fill: steelblue;"></circle><circle cx="194.13314849138263" cy="229.6257789246738" r="3" style="fill: steelblue;"></circle></g></svg>