<svg xmlns="http://www.w3.org/2000/svg"><g transform="translate(40,20)"><circle cx="298.5810197889805" cy="170.77573057678012" r="3" style="fill: steelblue;"></circle><circle cx="386.09273582696915" cy="136.19120584593878" r="3" style="fill: steelblue;"></circle><circle cx="413.69986832141876" cy="247.0642386211289" r="3" style="fill: steelblue;"></circle><circle cx="290.174318253994" cy="196.0672674079736" r="3" style="fill: steelblue;"></circle><circle cx="326.61661103367805" cy="127.93587230973772" r="3" style="fill: steelblue;"></circle><circle cx="335.64857974648476" cy="132.44558788008158" r="3" style="fill: steelblue;"></circle><circle cx="366.3196384906769" cy="120.11376519997913" r="3" style="fill: steelblue;"></circle><circle cx="426.60998940467834" cy="211.0611798448695" r="3" style="fill: steelblue;"></circle><circle cx="429.5353728532791" cy="146.66716961397066" r="3" style="fill: steelblue;"></circle><circle cx="393.2364669442177" cy="38.18482988410528" r="3" style="fill: steelblue;"></circle><circle cx="339.6820682287216" cy="57.844652069939514" r="3" style="fill: steelblue;"></circle><circle cx="434.1570657491684" cy="193.19117648733987" r="3" style="fill: steelblue;"></circle><circle cx="178.75429093837738" cy="185.44275799973144" r="3" style="fill: steelblue;"></circle><circle cx="351.4250582456589" cy="75.33911863962811" r="3" style="fill: steelblue;"></circle><circle cx="282.6495421305299" cy="216.2575963884592" r="3" style="fill: steelblue;"></circle><circle cx="242.3814533650875" cy="105.48262049754459" r="3" style="fill: steelblue;"></circle><circle cx="259.5656057819724" cy="87.56806453069049" r="3" style="fill: steelblue;"></circle><circle cx="189.61346358060837" cy="114.5409991343816" r="3" style="fill: steelblue;"></circle><circle cx="376.81507140398026" cy="75.24693343374463" r="3" style="fill: steelblue;"></circle><circle cx="307.79092356562614" cy="95.44542597399817" r="3" style="fill: steelblue;"></circle><circle cx="227.09715083241463" cy="146.51228942804863" r="3" style="fill: steelblue;"></circle><circle cx="222.75474429130554" cy="166.34701896044942" r="3" style="fill: steelblue;"></circle><circle cx="271.7325679259375" cy="67.08652608924443" r="3" style="fill: steelblue;"></circle><circle cx="322.76530623435974" cy="244.69919668303595" r="3" style="fill: steelblue;"></circle><circle cx="395.16167879104614" cy="205.57497358984415" r="3" style="fill: steelblue;"></circle><circle cx="349.1622179746628" cy="185.55502179596158" r="3" style="fill: steelblue;"></circle><circle cx="167.13352113962173" cy="172.5659767786662" r="3" style="fill: steelblue;"></circle><circle cx="425.2698075771332" cy="202.82888102034724" r="3" style="fill: steelblue;"></circle><circle cx="250.75170166790485" cy="119.8093593120575" r="3" style="fill: steelblue;"></circle><circle cx="193.5428488254547" cy="177.6068699028757" r="3" style="fill: steelblue;"></circle><circle cx="205.4662925004959" cy="163.04017023907767" r="3" style="fill: steelblue;"></circle><circle cx="350.8304125070572" cy="257.2153550055292" r="3" style="fill: steelblue;"></circle><circle cx="225.3758928179741" cy="187.88268882781267" r="3" style="fill: steelblue;"></circle><circle cx="204.57981571555138" cy="133.25993882285223" r="3" style="fill: steelblue;"></circle><circle cx="319.66313034296036" cy="219.33407626218263" r="3" style="fill: steelblue;"></circle><circle cx="159.1489416360855" cy="206.0449737020665" r="3" style="fill: steelblue;"></circle><circle cx="183.24435710906982" cy="238.07767323321764" r="3" style="fill: steelblue;"></circle><circle cx="208.96735578775406" cy="125.68930122587415" r="3" style="fill: steelblue;"></circle><circle cx="80.4220300912857" cy="188.21196423636542" r="3" style="fill: steelblue;"></circle><circle cx="345.76353192329407" cy="295.41240632534027" r="3" style="fill: steelblue;"></circle><circle cx="321.61774054169655" cy="211.179967969656" r="3" style="fill: steelblue;"></circle><circle cx="196.76655292510986" cy="308.009652627839" r="3" style="fill: steelblue;"></circle><circle cx="156.9962838292122" cy="194.11640439001428" r="3" style="fill: steelblue;"></circle><circle cx="197.18635350465775" cy="334.65508288807337" r="3" style="fill: steelblue;"></circle><circle cx="223.3861631155014" cy="310.1343280739254" r="3" style="fill: steelblue;"></circle><circle cx="95.40359437465668" cy="258.18164232704373" r="3" style="fill: steelblue;"></circle><circle cx="296.4419527351856" cy="273.0198792285389" r="3" style="fill: steelblue;"></circle><circle cx="148.63317489624023" cy="152.43754453129236" r="3" style="fill: steelblue;"></circle><circle cx="247.3856406658888" cy="289.1444381740358" r="3" style="fill: steelblue;"></circle><circle cx="211.47289037704468" cy="202.66431683881416" r="3" style="fill: steelblue;"></circle><circle cx="213.8167078793049" cy="184.63848510550127" r="3" style="fill: steelblue;"></circle><circle cx="253.707951977849" cy="286.4228594634268" r="3" style="fill: steelblue;"></circle><circle cx="313.35690423846245" cy="190.83523000073103" r="3" style="fill: steelblue;"></circle><circle cx="122.96998679637909" cy="204.1647776754366" r="3" style="fill: steelblue;"></circle><circle cx="226.4709059894085" cy="276.96396658817923" r="3" style="fill: steelblue;"></circle><circle cx="237.94138088822365" cy="161.40600376658966" r="3" style="fill: steelblue;"></circle><circle cx="198.41763228178024" cy="265.3685187300046" r="3" style="fill: steelblue;"></circle><circle cx="39.06293034553528" cy="250.9352291623751" r="3" style="fill: steelblue;"></circle><circle cx="278.57743989676237" cy="271.54702527655496" r="3" style="fill: steelblue;"></circle><circle cx="251.2051934748888" cy="148.7132575776842" r="3" style="fill: steelblue;"></circle><circle cx="429.36507403850555" cy="90.61915841367511" r="3" style="fill: steelblue;"></circle><circle cx="341.4675745368004" cy="91.5810184346305" r="3" style="fill: steelblue;"></circle><circle cx="295.2089861780405" cy="140.57330621613397" r="3" style="fill: steelblue;"></circle><circle cx="392.52330243587494" cy="176.43594886693688" r="3" style="fill: steelblue;"></circle><circle cx="425.51083624362946" cy="130.10330249865848" r="3" style="fill: steelblue;"></circle><circle cx="407.18322694301605" cy="181.53521397875414" r="3" style="fill: steelblue;"></circle><circle cx="322.27193534374237" cy="201.28581755691107" r="3" style="fill: steelblue;"></circle><circle cx="344.0400892496109" cy="119.5107599099477" r="3" style="fill: steelblue;"></circle><circle cx="443.83147716522217" cy="263.20448435015146" r="3" style="fill: steelblue;"></circle><circle cx="349.2585200071335" cy="209.24909123116072" r="3" style="fill: steelblue;"></circle><circle cx="339.22786831855774" cy="118.3987135688464" r="3" style="fill: steelblue;"></circle><circle cx="148.65193158388138" cy="219.2349255912834" r="3" style="fill: steelblue;"></circle><circle cx="309.3345160782337" cy="283.35509945948917" r="3" style="fill: steelblue;"></circle><circle cx="210.46484515070915" cy="229.83343982034262" r="3" style="fill: steelblue;"></circle><circle cx="270.50595521810465" cy="196.81055463540054" r="3" style="fill: steelblue;"></circle><circle cx="159.2834973335266" cy="311.09172602494556" r="3" style="fill: steelblue;"></circle><circle cx="273.93800544552505" cy="219.5129618048668" r="3" style="fill: steelblue;"></circle><circle cx="256.0825598984957" cy="265.78963382376566" r="3" style="fill: steelblue;"></circle><circle cx="269.97722402215004" cy="263.27945291996" r="3" style="fill: steelblue;"></circle><circle cx="290.2906181663275" cy="228.1118950082196" r="3" style="fill: steelblue;"></circle><circle cx="265.24781093001366" cy="301.79522931575775" r="3" style="fill: steelblue;"></circle><circle cx="217.38306552171707" cy="216.570825005571" r="3" style="fill: steelblue;"></circle><circle cx="191.32202804088593" cy="304.80164455042944" r="3" style="fill: steelblue;"></circle><circle cx="209.4816479086876" cy="237.4159801337454" r="3" style="fill: steelblue;"></circle><circle cx="212.55413576960564" cy="203.24179706060227" r="3" style="fill: steelblue;"></circle><circle cx="418.62577199935913" cy="190.11933760096628" r="3" style="fill: steelblue;"></circle><circle cx="346.0699474811554" cy="116.55950629048876" r="3" style="fill: steelblue;"></circle><circle cx="336.35589838027954" cy="242.36463589800726" r="3" style="fill: steelblue;"></circle><circle cx="359.54535216093063" cy="203.9116399569644" r="3" style="fill: steelblue;"></circle><circle cx="376.23335659503937" cy="201.99160329583617" r="3" style="fill: steelblue;"></circle><circle cx="287.6278243213892" cy="77.42421494589911" r="3" style="fill: steelblue;"></circle><circle cx="314.972260594368" cy="118.207186460495" r="3" style="fill: steelblue;"></circle><circle cx="301.96193888783455" cy="75.62907205687628" r="3" style="fill: steelblue;"></circle><circle cx="375.85572838783264" cy="72.00182643201617" r="3" style="fill: steelblue;"></circle><circle cx="180.8026885986328" cy="304.68391544289057" r="3" style="fill: steelblue;"></circle><circle cx="242.21276387572289" cy="255.21776162915762" r="3" style="fill: steelblue;"></circle><circle cx="192.26514905691147" cy="292.03959140512677" r="3" style="fill: steelblue;"></circle><circle cx="187.99879521131516" cy="257.24339650736914" r="3" style="fill: steelblue;"></circle><circle cx="227.8236284852028" cy="321.90882662932074" r="3" style="fill: steelblue;"></circle><circle cx="162.41381227970123" cy="292.1844869852066" r="3" style="fill: steelblue;"></circle><circle cx="223.77086028456688" cy="223.82998259531126" r="3" style="fill: steelblue;"></circle><circle cx="191.85307323932648" cy="252.8061866760254" r="3" style="fill: steelblue;"></circle><circle cx="301.4315414428711" cy="230.53831938240262" r="3" style="fill: steelblue;"></circle><circle cx="175.4836830496788" cy="309.7767482201258" r="3" style="fill: steelblue;"></circle><circle cx="350.33425748348236" cy="104.5899283554819" r="3" style="fill: steelblue;"></circle><circle cx="249.4875443726778" cy="157.5564137763447" r="3" style="fill: steelblue;"></circle><circle cx="278.04912954568863" cy="195.74589777686117" r="3" style="fill: steelblue;"></circle><circle cx="334.6838817000389" cy="152.30817637509767" r="3" style="fill: steelblue;"></circle><circle cx="455.7162970304489" cy="155.9579148888588" r="3" style="fill: steelblue;"></circle><circle cx="278.8765702396631" cy="136.81121915578842" r="3" style="fill: steelblue;"></circle><circle cx="437.72560000419617" cy="65.91785781913335" r="3" style="fill: steelblue;"></circle><circle cx="503.08118999004364" cy="60.703865355915475" r="3" style="fill: steelblue;"></circle><circle cx="88.65772068500519" cy="45.99189923869238" r="3" style="fill: steelblue;"></circle><circle cx="150.8814024925232" cy="267.06179893679086" r="3" style="fill: steelblue;"></circle><circle cx="329.41423416137695" cy="298.0489333470662" r="3" style="fill: steelblue;"></circle><circle cx="62.42864549160004" cy="279.80443918042715" r="3" style="fill: steelblue;"></circle><circle cx="128.8445234298706" cy="286.29067788521445" r="3" style="fill: steelblue;"></circle><circle cx="177.97900646924973" cy="241.98536574840546" r="3" style="fill: steelblue;"></circle></g></svg>