<svg xmlns="http://www.w3.org/2000/svg"><g><circle cx="31.595662236213684" cy="79.49604950845242" r="2" style="fill: steelblue;"></circle><circle cx="14.363679620954725" cy="28.942258283495903" r="2" style="fill: steelblue;"></circle><circle cx="40.241888827747765" cy="57.75112397968769" r="2" style="fill: steelblue;"></circle><circle cx="63.745063212182785" cy="88.84390369057655" r="2" style="fill: steelblue;"></circle><circle cx="31.935837533738876" cy="91.22630134224892" r="2" style="fill: steelblue;"></circle><circle cx="35.763952467176644" cy="65.45531023293734" r="2" style="fill: steelblue;"></circle><circle cx="68.01757133669322" cy="34.23852398991585" r="2" style="fill: steelblue;"></circle><circle cx="53.03449349270927" cy="61.65698282420635" r="2" style="fill: steelblue;"></circle><circle cx="52.700991017950905" cy="71.06895670294762" r="2" style="fill: steelblue;"></circle><circle cx="71.65485951635573" cy="78.07941846549511" r="2" style="fill: steelblue;"></circle><circle cx="46.242082284556496" cy="42.833845783025026" r="2" style="fill: steelblue;"></circle><circle cx="65.00382059150272" cy="60.808651335537434" r="2" style="fill: steelblue;"></circle><circle cx="37.708716260062324" cy="25.06503574550152" r="2" style="fill: steelblue;"></circle><circle cx="27.87687877813975" cy="72.92986027896404" r="2" style="fill: steelblue;"></circle><circle cx="58.19709764586555" cy="69.10098642110825" r="2" style="fill: steelblue;"></circle><circle cx="81.25459485583835" cy="49.13103983271867" r="2" style="fill: steelblue;"></circle><circle cx="15.669935279422337" cy="47.66407418064773" r="2" style="fill: steelblue;"></circle><circle cx="23.275040917926365" cy="54.862121772021055" r="2" style="fill: steelblue;"></circle><circle cx="67.37199839618471" cy="40.88436830788851" r="2" style="fill: steelblue;"></circle><circle cx="53.02427377965715" cy="24.108800292015076" r="2" style="fill: steelblue;"></circle><circle cx="71.00923524962532" cy="60.46431530267" r="2" style="fill: steelblue;"></circle><circle cx="48.919771280553604" cy="59.26185492426157" r="2" style="fill: steelblue;"></circle><circle cx="75.28603904777103" cy="52.07521207630634" r="2" style="fill: steelblue;"></circle><circle cx="48.63507962889141" cy="30.71122169494629" r="2" style="fill: steelblue;"></circle><circle cx="80.48969341648949" cy="59.42203216254711" r="2" style="fill: steelblue;"></circle><circle cx="52.92593563596407" cy="60.50079148262739" r="2" style="fill: steelblue;"></circle><circle cx="29.29172416528066" cy="45.4155758023262" r="2" style="fill: steelblue;"></circle><circle cx="53.60740112761656" cy="78.49549613893032" r="2" style="fill: steelblue;"></circle><circle cx="37.390773495038346" cy="80.64009360969067" r="2" style="fill: steelblue;"></circle><circle cx="37.64523400200738" cy="93.96787658333778" r="2" style="fill: steelblue;"></circle><circle cx="71.10769218868678" cy="6.741645932197571" r="2" style="fill: steelblue;"></circle><circle cx="62.05590193470319" cy="31.834907084703445" r="2" style="fill: steelblue;"></circle><circle cx="54.3471427841319" cy="64.56423290073872" r="2" style="fill: steelblue;"></circle><circle cx="47.0972102549341" cy="70.86428180336952" r="2" style="fill: steelblue;"></circle><circle cx="65.82923233509064" cy="20.787759870290756" r="2" style="fill: steelblue;"></circle><circle cx="32.205604844623146" cy="14.139364659786224" r="2" style="fill: steelblue;"></circle><circle cx="85.01668771107991" cy="63.71776219457388" r="2" style="fill: steelblue;"></circle><circle cx="47.32509868012534" cy="86.78629547357559" r="2" style="fill: steelblue;"></circle><circle cx="62.30985828571849" cy="61.0291400924325" r="2" style="fill: steelblue;"></circle><circle cx="70.08949418862662" cy="72.83097431063652" r="2" style="fill: steelblue;"></circle><circle cx="60.4539993736479" cy="52.696637297049165" r="2" style="fill: steelblue;"></circle><circle cx="87.81514565149942" cy="66.62897132337093" r="2" style="fill: steelblue;"></circle><circle cx="77.71196464697519" cy="84.04302895069122" r="2" style="fill: steelblue;"></circle><circle cx="59.7120796640714" cy="5.477487295866013" r="2" style="fill: steelblue;"></circle><circle cx="68.75956389639113" cy="51.35201634839177" r="2" style="fill: steelblue;"></circle><circle cx="73.16491504510245" cy="44.275054428726435" r="2" style="fill: steelblue;"></circle><circle cx="54.91847110291322" cy="38.08138072490692" r="2" style="fill: steelblue;"></circle><circle cx="33.052093452877465" cy="53.16683063283563" r="2" style="fill: steelblue;"></circle><circle cx="42.25378814670774" cy="66.91532507538795" r="2" style="fill: steelblue;"></circle><circle cx="30.072496996985542" cy="27.696798741817474" r="2" style="fill: steelblue;"></circle><circle cx="43.18209240833918" cy="55.21955266594887" r="2" style="fill: steelblue;"></circle><circle cx="62.878857884142136" cy="23.67781400680542" r="2" style="fill: steelblue;"></circle><circle cx="61.74657576613956" cy="34.92808733135462" r="2" style="fill: steelblue;"></circle><circle cx="47.38955779208077" cy="75.87588876485825" r="2" style="fill: steelblue;"></circle><circle cx="87.19507190916273" cy="70.14877647161484" r="2" style="fill: steelblue;"></circle><circle cx="53.149771359231735" cy="87.87291795015335" r="2" style="fill: steelblue;"></circle><circle cx="48.77264011237356" cy="51.74369663000107" r="2" style="fill: steelblue;"></circle><circle cx="46.21692498524983" cy="57.854984141886234" r="2" style="fill: steelblue;"></circle><circle cx="20.435727304882473" cy="53.184487111866474" r="2" style="fill: steelblue;"></circle><circle cx="27.088599072562324" cy="55.71354478597641" r="2" style="fill: steelblue;"></circle><circle cx="29.007121920585632" cy="75.18108673393726" r="2" style="fill: steelblue;"></circle><circle cx="43.47181071837743" cy="76.67241916060448" r="2" style="fill: steelblue;"></circle><circle cx="49.73295165432824" cy="93.40264573693275" r="2" style="fill: steelblue;"></circle><circle cx="39.58492643303341" cy="85.77841073274612" r="2" style="fill: steelblue;"></circle><circle cx="9.2361138926612" cy="86.0424555838108" r="2" style="fill: steelblue;"></circle><circle cx="27.194463544421726" cy="80.76350130140781" r="2" style="fill: steelblue;"></circle><circle cx="33.44919284184773" cy="87.78468072414398" r="2" style="fill: steelblue;"></circle><circle cx="26.434299018647934" cy="96.87542468309402" r="2" style="fill: steelblue;"></circle><circle cx="15.79623752170139" cy="82.86366164684296" r="2" style="fill: steelblue;"></circle><circle cx="33.11587207847172" cy="55.61451958492398" r="2" style="fill: steelblue;"></circle><circle cx="36.965638399124146" cy="85.48961505293846" r="2" style="fill: steelblue;"></circle><circle cx="82.62398176723056" cy="13.112492114305496" r="2" style="fill: steelblue;"></circle><circle cx="33.76486069626278" cy="31.097934767603874" r="2" style="fill: steelblue;"></circle><circle cx="75.4387378692627" cy="54.50366735458374" r="2" style="fill: steelblue;"></circle><circle cx="59.22915952073203" cy="11.27299964427948" r="2" style="fill: steelblue;"></circle><circle cx="45.17575270599789" cy="44.70618739724159" r="2" style="fill: steelblue;"></circle><circle cx="40.39095507727729" cy="27.011658251285553" r="2" style="fill: steelblue;"></circle><circle cx="33.36234556304084" cy="56.8924049846828" r="2" style="fill: steelblue;"></circle><circle cx="68.40822928481631" cy="15.35518392920494" r="2" style="fill: steelblue;"></circle><circle cx="55.500186999173216" cy="22.589386627078056" r="2" style="fill: steelblue;"></circle><circle cx="79.49555748038821" cy="24.793102592229843" r="2" style="fill: steelblue;"></circle><circle cx="96.43731845749748" cy="74.84982088208199" r="2" style="fill: steelblue;"></circle><circle cx="55.33575794349114" cy="52.836160361766815" r="2" style="fill: steelblue;"></circle><circle cx="46.077947649690834" cy="62.62697018682957" r="2" style="fill: steelblue;"></circle><circle cx="50.7590120865239" cy="30.3359005600214" r="2" style="fill: steelblue;"></circle><circle cx="49.60787751608425" cy="78.52136082947254" r="2" style="fill: steelblue;"></circle><circle cx="45.69012257787916" cy="47.712494572624564" r="2" style="fill: steelblue;"></circle><circle cx="36.051513420210945" cy="66.8148148804903" r="2" style="fill: steelblue;"></circle><circle cx="68.27031324307123" cy="87.13623061776161" r="2" style="fill: steelblue;"></circle><circle cx="64.93887056907019" cy="53.84909939020872" r="2" style="fill: steelblue;"></circle><circle cx="43.375669254197014" cy="23.266476765275" r="2" style="fill: steelblue;"></circle><circle cx="62.35145404934883" cy="49.10311691928655" r="2" style="fill: steelblue;"></circle><circle cx="71.28945158587563" cy="38.98094613105059" r="2" style="fill: steelblue;"></circle><circle cx="80.83720670806038" cy="53.0789056327194" r="2" style="fill: steelblue;"></circle><circle cx="76.70609156290689" cy="42.96829290688038" r="2" style="fill: steelblue;"></circle><circle cx="47.94631236129337" cy="13.130604475736618" r="2" style="fill: steelblue;"></circle><circle cx="99.17001591788399" cy="17.866603285074234" r="2" style="fill: steelblue;"></circle><circle cx="47.34109176529778" cy="32.645656913518906" r="2" style="fill: steelblue;"></circle><circle cx="73.16702273156908" cy="68.34100857377052" r="2" style="fill: steelblue;"></circle><circle cx="23.625085751215614" cy="38.80191147327423" r="2" style="fill: steelblue;"></circle><circle cx="46.726182930999336" cy="28.664211928844452" r="2" style="fill: steelblue;"></circle><circle cx="46.671862403551735" cy="30.893343687057495" r="2" style="fill: steelblue;"></circle><circle cx="72.85980217986636" cy="34.4015771523118" r="2" style="fill: steelblue;"></circle><circle cx="77.14293400446573" cy="23.486581817269325" r="2" style="fill: steelblue;"></circle><circle cx="14.634612533781263" cy="26.292412728071213" r="2" style="fill: steelblue;"></circle><circle cx="81.22572633955214" cy="40.19753560423851" r="2" style="fill: steelblue;"></circle><circle cx="56.626880748404396" cy="67.62807182967663" r="2" style="fill: steelblue;"></circle><circle cx="63.07133535544077" cy="67.4962654709816" r="2" style="fill: steelblue;"></circle><circle cx="62.1212406290902" cy="36.687094904482365" r="2" style="fill: steelblue;"></circle><circle cx="88.03700738483005" cy="55.45963831245899" r="2" style="fill: steelblue;"></circle><circle cx="38.616965214411415" cy="36.39364540576935" r="2" style="fill: steelblue;"></circle><circle cx="57.021362913979424" cy="20.561020076274872" r="2" style="fill: steelblue;"></circle><circle cx="36.32647130224439" cy="37.69154120236635" r="2" style="fill: steelblue;"></circle><circle cx="22.663636340035332" cy="62.50744052231312" r="2" style="fill: steelblue;"></circle><circle cx="22.238916820949978" cy="88.15798461437225" r="2" style="fill: steelblue;"></circle><circle cx="28.720637162526447" cy="59.372107684612274" r="2" style="fill: steelblue;"></circle><circle cx="35.9438955783844" cy="52.103023463860154" r="2" style="fill: steelblue;"></circle><circle cx="39.82761998971303" cy="21.360407769680023" r="2" style="fill: steelblue;"></circle></g></svg>