<svg xmlns="http://www.w3.org/2000/svg"><g><circle cx="14.770379662513733" cy="81.22635558247566" r="2" style="fill: steelblue;"></circle><circle cx="30.349788069725037" cy="89.90782424807549" r="2" style="fill: steelblue;"></circle><circle cx="59.702398627996445" cy="72.27737382054329" r="2" style="fill: steelblue;"></circle><circle cx="41.05459749698639" cy="91.8778732419014" r="2" style="fill: steelblue;"></circle><circle cx="56.38028308749199" cy="78.4530408680439" r="2" style="fill: steelblue;"></circle><circle cx="17.051950097084045" cy="77.32033282518387" r="2" style="fill: steelblue;"></circle><circle cx="49.772182200104" cy="57.87545274943113" r="2" style="fill: steelblue;"></circle><circle cx="57.924485951662064" cy="47.517343144863844" r="2" style="fill: steelblue;"></circle><circle cx="34.70764607191086" cy="75.18287487328053" r="2" style="fill: steelblue;"></circle><circle cx="34.599995613098145" cy="83.50821509957314" r="2" style="fill: steelblue;"></circle><circle cx="37.87140995264053" cy="76.21022425591946" r="2" style="fill: steelblue;"></circle><circle cx="45.54692879319191" cy="54.71831252798438" r="2" style="fill: steelblue;"></circle><circle cx="45.14731802046299" cy="76.07433870434761" r="2" style="fill: steelblue;"></circle><circle cx="23.338085412979126" cy="54.12630429491401" r="2" style="fill: steelblue;"></circle><circle cx="54.41786088049412" cy="75.47717839479446" r="2" style="fill: steelblue;"></circle><circle cx="14.765819907188416" cy="34.97644439339638" r="2" style="fill: steelblue;"></circle><circle cx="26.811407506465912" cy="57.79317459091544" r="2" style="fill: steelblue;"></circle><circle cx="67.29426681995392" cy="56.7357555963099" r="2" style="fill: steelblue;"></circle><circle cx="50.55094105191529" cy="59.41845588386059" r="2" style="fill: steelblue;"></circle><circle cx="78.9130836725235" cy="40.762146189808846" r="2" style="fill: steelblue;"></circle><circle cx="49.66583042405546" cy="29.908958077430725" r="2" style="fill: steelblue;"></circle><circle cx="54.556525498628616" cy="13.40760588645935" r="2" style="fill: steelblue;"></circle><circle cx="59.838926047086716" cy="40.8455777913332" r="2" style="fill: steelblue;"></circle><circle cx="28.500083088874817" cy="62.89838086813688" r="2" style="fill: steelblue;"></circle><circle cx="61.32168844342232" cy="44.98058948665857" r="2" style="fill: steelblue;"></circle><circle cx="30.08050173521042" cy="31.423592194914818" r="2" style="fill: steelblue;"></circle><circle cx="39.619775116443634" cy="59.03266575187445" r="2" style="fill: steelblue;"></circle><circle cx="39.676619321107864" cy="77.71595492959023" r="2" style="fill: steelblue;"></circle><circle cx="23.788118362426758" cy="66.23301208019257" r="2" style="fill: steelblue;"></circle><circle cx="54.3805118650198" cy="63.24288081377745" r="2" style="fill: steelblue;"></circle><circle cx="72.54134714603424" cy="17.69009903073311" r="2" style="fill: steelblue;"></circle><circle cx="71.50287330150604" cy="36.50649655610323" r="2" style="fill: steelblue;"></circle><circle cx="81.37311637401581" cy="50.52470969967544" r="2" style="fill: steelblue;"></circle><circle cx="47.44942933320999" cy="77.71048434078693" r="2" style="fill: steelblue;"></circle><circle cx="55.09973578155041" cy="78.06928940117359" r="2" style="fill: steelblue;"></circle><circle cx="41.93370118737221" cy="62.77389470487833" r="2" style="fill: steelblue;"></circle><circle cx="50.95364656299353" cy="56.81068375706673" r="2" style="fill: steelblue;"></circle><circle cx="32.411424815654755" cy="94.45130750536919" r="2" style="fill: steelblue;"></circle><circle cx="19.538041949272156" cy="71.80244587361813" r="2" style="fill: steelblue;"></circle><circle cx="21.12640142440796" cy="39.896856248378754" r="2" style="fill: steelblue;"></circle><circle cx="9.456852078437805" cy="68.44597049057484" r="2" style="fill: steelblue;"></circle><circle cx="65.15545099973679" cy="61.404416523873806" r="2" style="fill: steelblue;"></circle><circle cx="23.9138662815094" cy="53.42129450291395" r="2" style="fill: steelblue;"></circle><circle cx="62.50302344560623" cy="18.74011680483818" r="2" style="fill: steelblue;"></circle><circle cx="68.19115877151489" cy="44.212211575359106" r="2" style="fill: steelblue;"></circle><circle cx="63.784608244895935" cy="11.742959916591644" r="2" style="fill: steelblue;"></circle><circle cx="75.86694657802582" cy="38.92663978040218" r="2" style="fill: steelblue;"></circle><circle cx="27.315524220466614" cy="89.91248831152916" r="2" style="fill: steelblue;"></circle><circle cx="26.585301756858826" cy="51.93997903261334" r="2" style="fill: steelblue;"></circle><circle cx="34.499940276145935" cy="59.502096101641655" r="2" style="fill: steelblue;"></circle><circle cx="58.458470553159714" cy="30.32425157725811" r="2" style="fill: steelblue;"></circle><circle cx="73.16857427358627" cy="53.035524394363165" r="2" style="fill: steelblue;"></circle><circle cx="63.03853541612625" cy="17.28389710187912" r="2" style="fill: steelblue;"></circle><circle cx="37.752486765384674" cy="69.60242539644241" r="2" style="fill: steelblue;"></circle><circle cx="47.58428055793047" cy="50.005174428224564" r="2" style="fill: steelblue;"></circle><circle cx="54.85990680754185" cy="72.83060364425182" r="2" style="fill: steelblue;"></circle><circle cx="53.151752054691315" cy="55.44359441846609" r="2" style="fill: steelblue;"></circle><circle cx="27.02210545539856" cy="44.24236640334129" r="2" style="fill: steelblue;"></circle><circle cx="44.41794492304325" cy="26.80591605603695" r="2" style="fill: steelblue;"></circle><circle cx="38.52541968226433" cy="71.38444408774376" r="2" style="fill: steelblue;"></circle><circle cx="57.01616331934929" cy="66.26410335302353" r="2" style="fill: steelblue;"></circle><circle cx="42.02144145965576" cy="63.34444712847471" r="2" style="fill: steelblue;"></circle><circle cx="16.33695662021637" cy="87.35988214612007" r="2" style="fill: steelblue;"></circle><circle cx="15.971487760543823" cy="81.48181363940239" r="2" style="fill: steelblue;"></circle><circle cx="31.497643887996674" cy="79.47048284113407" r="2" style="fill: steelblue;"></circle><circle cx="40.509284287691116" cy="49.31879615178332" r="2" style="fill: steelblue;"></circle><circle cx="26.426105201244354" cy="83.77373516559601" r="2" style="fill: steelblue;"></circle><circle cx="40.508174896240234" cy="80.77692538499832" r="2" style="fill: steelblue;"></circle><circle cx="19.21028196811676" cy="39.23155292868614" r="2" style="fill: steelblue;"></circle><circle cx="34.94899421930313" cy="55.842854268848896" r="2" style="fill: steelblue;"></circle><circle cx="20.43212056159973" cy="78.16012501716614" r="2" style="fill: steelblue;"></circle><circle cx="52.582635171711445" cy="45.625609531998634" r="2" style="fill: steelblue;"></circle><circle cx="58.550599962472916" cy="22.640326246619225" r="2" style="fill: steelblue;"></circle><circle cx="72.27054685354233" cy="26.83868370950222" r="2" style="fill: steelblue;"></circle><circle cx="66.0333588719368" cy="22.537599503993988" r="2" style="fill: steelblue;"></circle><circle cx="34.338656067848206" cy="24.676381796598434" r="2" style="fill: steelblue;"></circle><circle cx="64.10422325134277" cy="23.20694662630558" r="2" style="fill: steelblue;"></circle><circle cx="69.30467784404755" cy="23.829133436083794" r="2" style="fill: steelblue;"></circle><circle cx="68.50477904081345" cy="0.8409462869167328" r="2" style="fill: steelblue;"></circle><circle cx="77.19546854496002" cy="15.052712708711624" r="2" style="fill: steelblue;"></circle><circle cx="83.36285650730133" cy="21.423741430044174" r="2" style="fill: steelblue;"></circle><circle cx="79.19363975524902" cy="2.7191370725631714" r="2" style="fill: steelblue;"></circle><circle cx="51.44479274749756" cy="49.196140677668154" r="2" style="fill: steelblue;"></circle><circle cx="39.16694223880768" cy="60.1274810731411" r="2" style="fill: steelblue;"></circle><circle cx="35.1365864276886" cy="94.17262598872185" r="2" style="fill: steelblue;"></circle><circle cx="51.658470183610916" cy="54.52613132074475" r="2" style="fill: steelblue;"></circle><circle cx="43.39080974459648" cy="52.86068604327738" r="2" style="fill: steelblue;"></circle><circle cx="34.536221623420715" cy="47.24486330524087" r="2" style="fill: steelblue;"></circle><circle cx="30.554932355880737" cy="43.33413923159242" r="2" style="fill: steelblue;"></circle><circle cx="67.99358874559402" cy="31.357799842953682" r="2" style="fill: steelblue;"></circle><circle cx="61.57868951559067" cy="19.097375869750977" r="2" style="fill: steelblue;"></circle><circle cx="91.98991358280182" cy="17.378340661525726" r="2" style="fill: steelblue;"></circle><circle cx="85.70870459079742" cy="46.17472500540316" r="2" style="fill: steelblue;"></circle><circle cx="59.04022455215454" cy="17.424899339675903" r="2" style="fill: steelblue;"></circle><circle cx="59.75715517997742" cy="21.326712518930435" r="2" style="fill: steelblue;"></circle><circle cx="54.221295565366745" cy="23.465638235211372" r="2" style="fill: steelblue;"></circle><circle cx="75.33791065216064" cy="28.437915444374084" r="2" style="fill: steelblue;"></circle><circle cx="80.41203320026398" cy="8.80008116364479" r="2" style="fill: steelblue;"></circle><circle cx="60.86973547935486" cy="55.89819625020027" r="2" style="fill: steelblue;"></circle><circle cx="55.753712356090546" cy="72.06737920641899" r="2" style="fill: steelblue;"></circle><circle cx="52.2905258461833" cy="61.16939354687929" r="2" style="fill: steelblue;"></circle><circle cx="40.865008533000946" cy="21.074827015399933" r="2" style="fill: steelblue;"></circle><circle cx="55.66446669399738" cy="54.301386419683695" r="2" style="fill: steelblue;"></circle><circle cx="86.59546673297882" cy="42.06303805112839" r="2" style="fill: steelblue;"></circle><circle cx="37.022753059864044" cy="5.265514552593231" r="2" style="fill: steelblue;"></circle><circle cx="67.68258512020111" cy="22.546741366386414" r="2" style="fill: steelblue;"></circle><circle cx="72.01222479343414" cy="80.54207563400269" r="2" style="fill: steelblue;"></circle><circle cx="77.7965098619461" cy="22.280196845531464" r="2" style="fill: steelblue;"></circle><circle cx="64.8368775844574" cy="11.318880319595337" r="2" style="fill: steelblue;"></circle><circle cx="59.067096561193466" cy="15.891942381858826" r="2" style="fill: steelblue;"></circle><circle cx="82.07729160785675" cy="11.270194500684738" r="2" style="fill: steelblue;"></circle><circle cx="35.91125011444092" cy="13.00417184829712" r="2" style="fill: steelblue;"></circle><circle cx="28.515371680259705" cy="69.60516348481178" r="2" style="fill: steelblue;"></circle><circle cx="31.41009360551834" cy="47.280283132568" r="2" style="fill: steelblue;"></circle><circle cx="51.58290322870016" cy="61.88972033560276" r="2" style="fill: steelblue;"></circle><circle cx="65.05420356988907" cy="82.0976972579956" r="2" style="fill: steelblue;"></circle><circle cx="60.040684044361115" cy="81.41483664512634" r="2" style="fill: steelblue;"></circle><circle cx="25.045859813690186" cy="50.408528139814734" r="2" style="fill: steelblue;"></circle></g></svg>