<svg xmlns="http://www.w3.org/2000/svg"><rect width="200" height="200" fill="white"></rect><g><circle cx="19.103300571441657" cy="101.05227646417916" r="2" style="fill: steelblue;"></circle><circle cx="60.58497428894043" cy="109.38380509614944" r="2" style="fill: steelblue;"></circle><circle cx="40.74848890304566" cy="116.64752513170242" r="2" style="fill: steelblue;"></circle><circle cx="52.62519783443875" cy="124.04522337019444" r="2" style="fill: steelblue;"></circle><circle cx="75.86907297372818" cy="148.82345348596573" r="2" style="fill: steelblue;"></circle><circle cx="64.43245742056105" cy="106.26224838197231" r="2" style="fill: steelblue;"></circle><circle cx="82.87035872538885" cy="121.0596639662981" r="2" style="fill: steelblue;"></circle><circle cx="62.55478527810839" cy="109.13601368665695" r="2" style="fill: steelblue;"></circle><circle cx="84.92357151375877" cy="149.0792952477932" r="2" style="fill: steelblue;"></circle><circle cx="69.15239195028941" cy="105.32843824476004" r="2" style="fill: steelblue;"></circle><circle cx="26.837089326646595" cy="71.94705344736576" r="2" style="fill: steelblue;"></circle><circle cx="96.35389132632149" cy="136.15142032504082" r="2" style="fill: steelblue;"></circle><circle cx="22.886996799045143" cy="154.24632132053375" r="2" style="fill: steelblue;"></circle><circle cx="86.43901029394733" cy="163.18000704050064" r="2" style="fill: steelblue;"></circle><circle cx="49.61018297407362" cy="121.64571546018124" r="2" style="fill: steelblue;"></circle><circle cx="13.023553954230419" cy="184.54257994890213" r="2" style="fill: steelblue;"></circle><circle cx="118.658047914505" cy="138.2777415215969" r="2" style="fill: steelblue;"></circle><circle cx="97.57482873068916" cy="98.44321084674448" r="2" style="fill: steelblue;"></circle><circle cx="80.98819802204768" cy="123.4603751450777" r="2" style="fill: steelblue;"></circle><circle cx="107.63380461268954" cy="80.38996383547783" r="2" style="fill: steelblue;"></circle><circle cx="98.96662036577861" cy="42.684683948755264" r="2" style="fill: steelblue;"></circle><circle cx="96.1153808567259" cy="62.17051520943642" r="2" style="fill: steelblue;"></circle><circle cx="117.35805736647713" cy="176.08551532030106" r="2" style="fill: steelblue;"></circle><circle cx="78.32436379459169" cy="94.31450571864843" r="2" style="fill: steelblue;"></circle><circle cx="44.78180607159933" cy="144.0410003066063" r="2" style="fill: steelblue;"></circle><circle cx="55.85726300875346" cy="131.5096192061901" r="2" style="fill: steelblue;"></circle><circle cx="9.699548615349668" cy="148.40687662363052" r="2" style="fill: steelblue;"></circle><circle cx="19.979170958201095" cy="112.6907266676426" r="2" style="fill: steelblue;"></circle><circle cx="67.25359327263303" cy="165.6997561454773" r="2" style="fill: steelblue;"></circle><circle cx="121.30112316873338" cy="130.01576848328114" r="2" style="fill: steelblue;"></circle><circle cx="105.59242831336128" cy="103.95849766209722" r="2" style="fill: steelblue;"></circle><circle cx="154.47289943695068" cy="79.33616116642952" r="2" style="fill: steelblue;"></circle><circle cx="95.10196033451292" cy="12.170886993408203" r="2" style="fill: steelblue;"></circle><circle cx="103.25711998674605" cy="115.18828421831131" r="2" style="fill: steelblue;"></circle><circle cx="91.02100974155796" cy="85.65844632685184" r="2" style="fill: steelblue;"></circle><circle cx="151.11294587453204" cy="38.608381897211075" r="2" style="fill: steelblue;"></circle><circle cx="84.52697710858452" cy="92.87491105496883" r="2" style="fill: steelblue;"></circle><circle cx="31.46591318978204" cy="29.0681853890419" r="2" style="fill: steelblue;"></circle><circle cx="49.13066691822476" cy="144.93523761630058" r="2" style="fill: steelblue;"></circle><circle cx="89.02960875485506" cy="151.44771188497543" r="2" style="fill: steelblue;"></circle><circle cx="31.18834760453966" cy="82.23884403705597" r="2" style="fill: steelblue;"></circle><circle cx="20.706963539123542" cy="140.4069870710373" r="2" style="fill: steelblue;"></circle><circle cx="85.37618228130872" cy="32.153940200805664" r="2" style="fill: steelblue;"></circle><circle cx="167.14696619245743" cy="85.53031403571367" r="2" style="fill: steelblue;"></circle><circle cx="85.26705279946327" cy="60.36006882786751" r="2" style="fill: steelblue;"></circle><circle cx="84.8998960521486" cy="45.76074182987213" r="2" style="fill: steelblue;"></circle><circle cx="64.9721791346868" cy="86.83499079197645" r="2" style="fill: steelblue;"></circle><circle cx="27.069262663523357" cy="35.31990051269531" r="2" style="fill: steelblue;"></circle><circle cx="105.46273854043748" cy="144.64765638113022" r="2" style="fill: steelblue;"></circle><circle cx="17.326459619734027" cy="181.14858716726303" r="2" style="fill: steelblue;"></circle><circle cx="110.02968781524234" cy="186.35391294956207" r="2" style="fill: steelblue;"></circle><circle cx="73.05117812421588" cy="138.14688324928284" r="2" style="fill: steelblue;"></circle><circle cx="78.9757647448116" cy="85.27739383280277" r="2" style="fill: steelblue;"></circle><circle cx="120.11172903908624" cy="32.833172380924225" r="2" style="fill: steelblue;"></circle><circle cx="58.035716745588516" cy="101.60842260811478" r="2" style="fill: steelblue;"></circle><circle cx="53.23597325219048" cy="126.39386244118214" r="2" style="fill: steelblue;"></circle><circle cx="120.81861694653828" cy="122.61733263731003" r="2" style="fill: steelblue;"></circle><circle cx="58.24018385675219" cy="122.10870571434498" r="2" style="fill: steelblue;"></circle><circle cx="94.64958922730553" cy="100.69879757938907" r="2" style="fill: steelblue;"></circle><circle cx="77.45214336448247" cy="156.99114874005318" r="2" style="fill: steelblue;"></circle><circle cx="84.26752926574814" cy="131.76014497876167" r="2" style="fill: steelblue;"></circle><circle cx="83.99600568744872" cy="169.49471682310104" r="2" style="fill: steelblue;"></circle><circle cx="6.657102372911246" cy="145.0628623366356" r="2" style="fill: steelblue;"></circle><circle cx="13.268052207099071" cy="144.18356716632843" r="2" style="fill: steelblue;"></circle><circle cx="26.775352160135906" cy="182.41596817970276" r="2" style="fill: steelblue;"></circle><circle cx="66.98064870304532" cy="149.9672293663025" r="2" style="fill: steelblue;"></circle><circle cx="31.5495252609253" cy="106.03020377457142" r="2" style="fill: steelblue;"></circle><circle cx="91.24184764093823" cy="168.15772503614426" r="2" style="fill: steelblue;"></circle><circle cx="12.632792525821266" cy="131.7717120051384" r="2" style="fill: steelblue;"></circle><circle cx="14.644767178429502" cy="171.76002860069275" r="2" style="fill: steelblue;"></circle><circle cx="68.31638713677725" cy="117.46274530887604" r="2" style="fill: steelblue;"></circle><circle cx="102.83998019165463" cy="81.25572316348553" r="2" style="fill: steelblue;"></circle><circle cx="144.58674059973825" cy="59.902167320251465" r="2" style="fill: steelblue;"></circle><circle cx="127.27566096517775" cy="29.32692915201187" r="2" style="fill: steelblue;"></circle><circle cx="128.24356754620868" cy="63.23460340499878" r="2" style="fill: steelblue;"></circle><circle cx="90.1640676582853" cy="62.361570447683334" r="2" style="fill: steelblue;"></circle><circle cx="31.66074090533787" cy="16.506320238113403" r="2" style="fill: steelblue;"></circle><circle cx="136.82105673684015" cy="54.80884611606598" r="2" style="fill: steelblue;"></circle><circle cx="111.61275903383891" cy="92.34962649643421" r="2" style="fill: steelblue;"></circle><circle cx="98.58034584257338" cy="16.211828589439392" r="2" style="fill: steelblue;"></circle><circle cx="175.81950823465985" cy="39.130205661058426" r="2" style="fill: steelblue;"></circle><circle cx="165.06541967391968" cy="43.212077021598816" r="2" style="fill: steelblue;"></circle><circle cx="154.31652996275162" cy="32.382166385650635" r="2" style="fill: steelblue;"></circle><circle cx="71.79180317454869" cy="125.38693509995937" r="2" style="fill: steelblue;"></circle><circle cx="75.40030479431152" cy="131.14950843155384" r="2" style="fill: steelblue;"></circle><circle cx="91.5672196696202" cy="157.06888064742088" r="2" style="fill: steelblue;"></circle><circle cx="98.60931121640736" cy="52.28967070579529" r="2" style="fill: steelblue;"></circle><circle cx="44.07486187087165" cy="172.20441848039627" r="2" style="fill: steelblue;"></circle><circle cx="39.11228179931641" cy="153.35291102528572" r="2" style="fill: steelblue;"></circle><circle cx="149.74250925911798" cy="15.708027780056" r="2" style="fill: steelblue;"></circle><circle cx="57.903258668051826" cy="60.639044642448425" r="2" style="fill: steelblue;"></circle><circle cx="102.53247155083551" cy="58.56570079922676" r="2" style="fill: steelblue;"></circle><circle cx="181.32161961661444" cy="13.288235664367676" r="2" style="fill: steelblue;"></circle><circle cx="88.37412532625926" cy="57.47174695134163" r="2" style="fill: steelblue;"></circle><circle cx="105.30700816048517" cy="102.90407869033515" r="2" style="fill: steelblue;"></circle><circle cx="155.87997966342502" cy="46.15011289715767" r="2" style="fill: steelblue;"></circle><circle cx="167.4256708886888" cy="74.97385926544666" r="2" style="fill: steelblue;"></circle><circle cx="92.44681927892897" cy="99.93009493482532" r="2" style="fill: steelblue;"></circle><circle cx="47.026046779420646" cy="56.3211128115654" r="2" style="fill: steelblue;"></circle><circle cx="80.6578450732761" cy="163.19426000118256" r="2" style="fill: steelblue;"></circle><circle cx="140.22010432349313" cy="95.51546340808272" r="2" style="fill: steelblue;"></circle><circle cx="129.39686112933688" cy="97.40155227482319" r="2" style="fill: steelblue;"></circle><circle cx="155.64441548453436" cy="86.91847920417786" r="2" style="fill: steelblue;"></circle><circle cx="146.1545679304335" cy="66.2940502166748" r="2" style="fill: steelblue;"></circle><circle cx="144.2948169178433" cy="27.13458091020584" r="2" style="fill: steelblue;"></circle><circle cx="118.44757729106479" cy="17.008765041828156" r="2" style="fill: steelblue;"></circle><circle cx="93.36885718835724" cy="73.83430600166321" r="2" style="fill: steelblue;"></circle><circle cx="129.48976159095764" cy="82.74054564535618" r="2" style="fill: steelblue;"></circle><circle cx="92.62174442410469" cy="136.32725775241852" r="2" style="fill: steelblue;"></circle><circle cx="115.60162934992049" cy="32.249024510383606" r="2" style="fill: steelblue;"></circle><circle cx="110.9537038538191" cy="91.52819253504276" r="2" style="fill: steelblue;"></circle><circle cx="138.9446907573276" cy="71.9985369592905" r="2" style="fill: steelblue;"></circle><circle cx="78.24265741639668" cy="55.93526214361191" r="2" style="fill: steelblue;"></circle><circle cx="40.018169747458565" cy="154.5889511704445" r="2" style="fill: steelblue;"></circle><circle cx="82.56101310253143" cy="127.29988284409046" r="2" style="fill: steelblue;"></circle><circle cx="112.22169001897176" cy="158.48445370793343" r="2" style="fill: steelblue;"></circle><circle cx="106.2508162524965" cy="135.96214205026627" r="2" style="fill: steelblue;"></circle><circle cx="39.07565143373278" cy="111.92104537039995" r="2" style="fill: steelblue;"></circle></g></svg>