<svg xmlns="http://www.w3.org/2000/svg"><g><circle cx="22.03700542449951" cy="79.49604950845242" r="2" style="fill: steelblue;"></circle><circle cx="40.3410330414772" cy="28.942258283495903" r="2" style="fill: steelblue;"></circle><circle cx="38.658178597688675" cy="57.75112397968769" r="2" style="fill: steelblue;"></circle><circle cx="45.96599116921425" cy="88.84390369057655" r="2" style="fill: steelblue;"></circle><circle cx="41.16903245449066" cy="91.22630134224892" r="2" style="fill: steelblue;"></circle><circle cx="23.645561933517456" cy="65.45531023293734" r="2" style="fill: steelblue;"></circle><circle cx="63.69476318359375" cy="34.23852398991585" r="2" style="fill: steelblue;"></circle><circle cx="56.340234726667404" cy="61.65698282420635" r="2" style="fill: steelblue;"></circle><circle cx="44.142477586865425" cy="71.06895670294762" r="2" style="fill: steelblue;"></circle><circle cx="54.615554213523865" cy="78.07941846549511" r="2" style="fill: steelblue;"></circle><circle cx="22.04342484474182" cy="42.833845783025026" r="2" style="fill: steelblue;"></circle><circle cx="35.17627567052841" cy="60.808651335537434" r="2" style="fill: steelblue;"></circle><circle cx="8.75900685787201" cy="25.06503574550152" r="2" style="fill: steelblue;"></circle><circle cx="37.84072697162628" cy="72.92986027896404" r="2" style="fill: steelblue;"></circle><circle cx="56.99222534894943" cy="69.10098642110825" r="2" style="fill: steelblue;"></circle><circle cx="26.15962028503418" cy="49.13103983271867" r="2" style="fill: steelblue;"></circle><circle cx="27.97348201274872" cy="47.66407418064773" r="2" style="fill: steelblue;"></circle><circle cx="42.10948273539543" cy="54.862121772021055" r="2" style="fill: steelblue;"></circle><circle cx="68.46478581428528" cy="40.88436830788851" r="2" style="fill: steelblue;"></circle><circle cx="59.2481255531311" cy="24.108800292015076" r="2" style="fill: steelblue;"></circle><circle cx="58.12457874417305" cy="60.46431530267" r="2" style="fill: steelblue;"></circle><circle cx="60.95931902527809" cy="59.26185492426157" r="2" style="fill: steelblue;"></circle><circle cx="44.600635394454" cy="52.07521207630634" r="2" style="fill: steelblue;"></circle><circle cx="46.44617922604084" cy="30.71122169494629" r="2" style="fill: steelblue;"></circle><circle cx="56.74588829278946" cy="59.42203216254711" r="2" style="fill: steelblue;"></circle><circle cx="28.481000661849976" cy="60.50079148262739" r="2" style="fill: steelblue;"></circle><circle cx="29.774419963359833" cy="45.4155758023262" r="2" style="fill: steelblue;"></circle><circle cx="22.071531414985657" cy="78.49549613893032" r="2" style="fill: steelblue;"></circle><circle cx="57.0722222328186" cy="80.64009360969067" r="2" style="fill: steelblue;"></circle><circle cx="49.77226862683892" cy="93.96787658333778" r="2" style="fill: steelblue;"></circle><circle cx="90.70720672607422" cy="6.741645932197571" r="2" style="fill: steelblue;"></circle><circle cx="90.0290697813034" cy="31.834907084703445" r="2" style="fill: steelblue;"></circle><circle cx="58.8479682803154" cy="64.56423290073872" r="2" style="fill: steelblue;"></circle><circle cx="55.73789291083813" cy="70.86428180336952" r="2" style="fill: steelblue;"></circle><circle cx="58.78209322690964" cy="20.787759870290756" r="2" style="fill: steelblue;"></circle><circle cx="44.452330842614174" cy="14.139364659786224" r="2" style="fill: steelblue;"></circle><circle cx="30.010180175304413" cy="63.71776219457388" r="2" style="fill: steelblue;"></circle><circle cx="35.108427703380585" cy="86.78629547357559" r="2" style="fill: steelblue;"></circle><circle cx="37.94764280319214" cy="61.0291400924325" r="2" style="fill: steelblue;"></circle><circle cx="31.968066096305847" cy="72.83097431063652" r="2" style="fill: steelblue;"></circle><circle cx="37.36860007047653" cy="52.696637297049165" r="2" style="fill: steelblue;"></circle><circle cx="55.35511523485184" cy="66.62897132337093" r="2" style="fill: steelblue;"></circle><circle cx="66.68897718191147" cy="84.04302895069122" r="2" style="fill: steelblue;"></circle><circle cx="43.33377406001091" cy="5.477487295866013" r="2" style="fill: steelblue;"></circle><circle cx="53.156283125281334" cy="51.35201634839177" r="2" style="fill: steelblue;"></circle><circle cx="29.330118000507355" cy="44.275054428726435" r="2" style="fill: steelblue;"></circle><circle cx="65.18919616937637" cy="38.08138072490692" r="2" style="fill: steelblue;"></circle><circle cx="32.76349455118179" cy="53.16683063283563" r="2" style="fill: steelblue;"></circle><circle cx="27.42132842540741" cy="66.91532507538795" r="2" style="fill: steelblue;"></circle><circle cx="37.15081959962845" cy="27.696798741817474" r="2" style="fill: steelblue;"></circle><circle cx="34.47993844747543" cy="55.21955266594887" r="2" style="fill: steelblue;"></circle><circle cx="62.12942972779274" cy="23.67781400680542" r="2" style="fill: steelblue;"></circle><circle cx="57.165318727493286" cy="34.92808733135462" r="2" style="fill: steelblue;"></circle><circle cx="50.68193469196558" cy="75.87588876485825" r="2" style="fill: steelblue;"></circle><circle cx="42.057984322309494" cy="70.14877647161484" r="2" style="fill: steelblue;"></circle><circle cx="37.15190291404724" cy="87.87291795015335" r="2" style="fill: steelblue;"></circle><circle cx="35.81916689872742" cy="51.74369663000107" r="2" style="fill: steelblue;"></circle><circle cx="44.19785179197788" cy="57.854984141886234" r="2" style="fill: steelblue;"></circle><circle cx="32.26875364780426" cy="53.184487111866474" r="2" style="fill: steelblue;"></circle><circle cx="29.914841055870056" cy="55.71354478597641" r="2" style="fill: steelblue;"></circle><circle cx="20.6103652715683" cy="75.18108673393726" r="2" style="fill: steelblue;"></circle><circle cx="45.26008851826191" cy="76.67241916060448" r="2" style="fill: steelblue;"></circle><circle cx="23.24877381324768" cy="93.40264573693275" r="2" style="fill: steelblue;"></circle><circle cx="45.70643715560436" cy="85.77841073274612" r="2" style="fill: steelblue;"></circle><circle cx="36.94561719894409" cy="86.0424555838108" r="2" style="fill: steelblue;"></circle><circle cx="17.85110831260681" cy="80.76350130140781" r="2" style="fill: steelblue;"></circle><circle cx="51.597738079726696" cy="87.78468072414398" r="2" style="fill: steelblue;"></circle><circle cx="47.72452190518379" cy="96.87542468309402" r="2" style="fill: steelblue;"></circle><circle cx="26.215489208698273" cy="82.86366164684296" r="2" style="fill: steelblue;"></circle><circle cx="19.389039278030396" cy="55.61451958492398" r="2" style="fill: steelblue;"></circle><circle cx="73.02739918231964" cy="85.48961505293846" r="2" style="fill: steelblue;"></circle><circle cx="82.40589797496796" cy="13.112492114305496" r="2" style="fill: steelblue;"></circle><circle cx="62.57551312446594" cy="31.097934767603874" r="2" style="fill: steelblue;"></circle><circle cx="27.636989951133728" cy="54.50366735458374" r="2" style="fill: steelblue;"></circle><circle cx="45.32331041991711" cy="11.27299964427948" r="2" style="fill: steelblue;"></circle><circle cx="43.5820646584034" cy="44.70618739724159" r="2" style="fill: steelblue;"></circle><circle cx="41.481976211071014" cy="27.011658251285553" r="2" style="fill: steelblue;"></circle><circle cx="59.08636078238487" cy="56.8924049846828" r="2" style="fill: steelblue;"></circle><circle cx="68.4817522764206" cy="15.35518392920494" r="2" style="fill: steelblue;"></circle><circle cx="79.28874492645264" cy="22.589386627078056" r="2" style="fill: steelblue;"></circle><circle cx="69.15198117494583" cy="24.793102592229843" r="2" style="fill: steelblue;"></circle><circle cx="43.03182139992714" cy="74.84982088208199" r="2" style="fill: steelblue;"></circle><circle cx="51.6242902725935" cy="52.836160361766815" r="2" style="fill: steelblue;"></circle><circle cx="20.144879817962646" cy="62.62697018682957" r="2" style="fill: steelblue;"></circle><circle cx="39.024535566568375" cy="30.3359005600214" r="2" style="fill: steelblue;"></circle><circle cx="31.564104557037354" cy="78.52136082947254" r="2" style="fill: steelblue;"></circle><circle cx="39.44456875324249" cy="47.712494572624564" r="2" style="fill: steelblue;"></circle><circle cx="36.43079400062561" cy="66.8148148804903" r="2" style="fill: steelblue;"></circle><circle cx="74.38641488552094" cy="87.13623061776161" r="2" style="fill: steelblue;"></circle><circle cx="32.98514187335968" cy="53.84909939020872" r="2" style="fill: steelblue;"></circle><circle cx="62.35415115952492" cy="23.266476765275" r="2" style="fill: steelblue;"></circle><circle cx="37.9801020026207" cy="49.10311691928655" r="2" style="fill: steelblue;"></circle><circle cx="69.4654181599617" cy="38.98094613105059" r="2" style="fill: steelblue;"></circle><circle cx="69.5261687040329" cy="53.0789056327194" r="2" style="fill: steelblue;"></circle><circle cx="77.38961577415466" cy="42.96829290688038" r="2" style="fill: steelblue;"></circle><circle cx="81.02664351463318" cy="13.130604475736618" r="2" style="fill: steelblue;"></circle><circle cx="65.51001965999603" cy="17.866603285074234" r="2" style="fill: steelblue;"></circle><circle cx="60.74945107102394" cy="32.645656913518906" r="2" style="fill: steelblue;"></circle><circle cx="55.83496876060963" cy="68.34100857377052" r="2" style="fill: steelblue;"></circle><circle cx="31.844373047351837" cy="38.80191147327423" r="2" style="fill: steelblue;"></circle><circle cx="63.284604251384735" cy="28.664211928844452" r="2" style="fill: steelblue;"></circle><circle cx="62.210291624069214" cy="30.893343687057495" r="2" style="fill: steelblue;"></circle><circle cx="56.897200644016266" cy="34.4015771523118" r="2" style="fill: steelblue;"></circle><circle cx="53.97435426712036" cy="23.486581817269325" r="2" style="fill: steelblue;"></circle><circle cx="58.13526436686516" cy="26.292412728071213" r="2" style="fill: steelblue;"></circle><circle cx="82.80384838581085" cy="40.19753560423851" r="2" style="fill: steelblue;"></circle><circle cx="61.283957213163376" cy="67.62807182967663" r="2" style="fill: steelblue;"></circle><circle cx="43.74087452888489" cy="67.4962654709816" r="2" style="fill: steelblue;"></circle><circle cx="65.12359529733658" cy="36.687094904482365" r="2" style="fill: steelblue;"></circle><circle cx="43.40890124440193" cy="55.45963831245899" r="2" style="fill: steelblue;"></circle><circle cx="82.02725946903229" cy="36.39364540576935" r="2" style="fill: steelblue;"></circle><circle cx="64.7827073931694" cy="20.561020076274872" r="2" style="fill: steelblue;"></circle><circle cx="50.0795639352873" cy="37.69154120236635" r="2" style="fill: steelblue;"></circle><circle cx="37.75905445218086" cy="62.50744052231312" r="2" style="fill: steelblue;"></circle><circle cx="27.557067573070526" cy="88.15798461437225" r="2" style="fill: steelblue;"></circle><circle cx="33.799782395362854" cy="59.372107684612274" r="2" style="fill: steelblue;"></circle><circle cx="48.61397799104452" cy="52.103023463860154" r="2" style="fill: steelblue;"></circle><circle cx="27.582988142967224" cy="21.360407769680023" r="2" style="fill: steelblue;"></circle></g></svg>