<svg xmlns="http://www.w3.org/2000/svg"><g><circle cx="45.8075761795044" cy="158.99209901690483" r="2" style="fill: steelblue;"></circle><circle cx="75.74971802532673" cy="57.884516566991806" r="2" style="fill: steelblue;"></circle><circle cx="80.91256432235241" cy="115.50224795937538" r="2" style="fill: steelblue;"></circle><circle cx="119.01168935000896" cy="177.6878073811531" r="2" style="fill: steelblue;"></circle><circle cx="47.278875857591636" cy="182.45260268449783" r="2" style="fill: steelblue;"></circle><circle cx="125.4985224455595" cy="130.91062046587467" r="2" style="fill: steelblue;"></circle><circle cx="85.67987512797117" cy="68.4770479798317" r="2" style="fill: steelblue;"></circle><circle cx="145.82545906305313" cy="123.3139656484127" r="2" style="fill: steelblue;"></circle><circle cx="28.359456360340126" cy="142.13791340589523" r="2" style="fill: steelblue;"></circle><circle cx="58.69817212224007" cy="156.15883693099022" r="2" style="fill: steelblue;"></circle><circle cx="114.15607333183289" cy="85.66769156605005" r="2" style="fill: steelblue;"></circle><circle cx="67.08068251609802" cy="121.61730267107487" r="2" style="fill: steelblue;"></circle><circle cx="81.80911876261234" cy="50.13007149100304" r="2" style="fill: steelblue;"></circle><circle cx="85.93026772141457" cy="145.85972055792809" r="2" style="fill: steelblue;"></circle><circle cx="21.84127867221833" cy="138.2019728422165" r="2" style="fill: steelblue;"></circle><circle cx="65.1525542140007" cy="98.26207966543734" r="2" style="fill: steelblue;"></circle><circle cx="124.03578720986843" cy="95.32814836129546" r="2" style="fill: steelblue;"></circle><circle cx="154.48181182146072" cy="109.72424354404211" r="2" style="fill: steelblue;"></circle><circle cx="152.05323919653893" cy="81.76873661577702" r="2" style="fill: steelblue;"></circle><circle cx="125.40743537247181" cy="48.21760058403015" r="2" style="fill: steelblue;"></circle><circle cx="145.9514930844307" cy="120.92863060534" r="2" style="fill: steelblue;"></circle><circle cx="108.55296663939953" cy="118.52370984852314" r="2" style="fill: steelblue;"></circle><circle cx="95.68420322611928" cy="104.15042415261269" r="2" style="fill: steelblue;"></circle><circle cx="63.606759905815125" cy="61.42244338989258" r="2" style="fill: steelblue;"></circle><circle cx="133.20103883743286" cy="118.84406432509422" r="2" style="fill: steelblue;"></circle><circle cx="42.635558545589454" cy="121.00158296525478" r="2" style="fill: steelblue;"></circle><circle cx="59.7652405500412" cy="90.8311516046524" r="2" style="fill: steelblue;"></circle><circle cx="73.78750331699848" cy="156.99099227786064" r="2" style="fill: steelblue;"></circle><circle cx="71.93444892764091" cy="161.28018721938133" r="2" style="fill: steelblue;"></circle><circle cx="165.76640903949738" cy="187.93575316667557" r="2" style="fill: steelblue;"></circle><circle cx="85.86125299334526" cy="13.483291864395142" r="2" style="fill: steelblue;"></circle><circle cx="175.87583363056183" cy="63.66981416940689" r="2" style="fill: steelblue;"></circle><circle cx="189.05957639217377" cy="129.12846580147743" r="2" style="fill: steelblue;"></circle><circle cx="98.60150425229222" cy="141.72856360673904" r="2" style="fill: steelblue;"></circle><circle cx="103.70043027214706" cy="41.57551974058151" r="2" style="fill: steelblue;"></circle><circle cx="91.09783582389355" cy="28.27872931957245" r="2" style="fill: steelblue;"></circle><circle cx="15.169224143028265" cy="127.43552438914776" r="2" style="fill: steelblue;"></circle><circle cx="92.83944303169847" cy="173.57259094715118" r="2" style="fill: steelblue;"></circle><circle cx="39.88148123025895" cy="122.058280184865" r="2" style="fill: steelblue;"></circle><circle cx="134.5412641763687" cy="145.66194862127304" r="2" style="fill: steelblue;"></circle><circle cx="72.50966355204582" cy="105.39327459409833" r="2" style="fill: steelblue;"></circle><circle cx="129.23827432096004" cy="133.25794264674187" r="2" style="fill: steelblue;"></circle><circle cx="134.5892794430256" cy="168.08605790138245" r="2" style="fill: steelblue;"></circle><circle cx="166.02155417203903" cy="10.954974591732025" r="2" style="fill: steelblue;"></circle><circle cx="184.20298248529434" cy="102.70403269678354" r="2" style="fill: steelblue;"></circle><circle cx="100.59766427148134" cy="88.55010885745287" r="2" style="fill: steelblue;"></circle><circle cx="126.88349410891533" cy="76.16276144981384" r="2" style="fill: steelblue;"></circle><circle cx="35.94763427972794" cy="106.33366126567125" r="2" style="fill: steelblue;"></circle><circle cx="63.358402252197266" cy="133.8306501507759" r="2" style="fill: steelblue;"></circle><circle cx="77.1917387843132" cy="55.39359748363495" r="2" style="fill: steelblue;"></circle><circle cx="125.98714269697666" cy="110.43910533189774" r="2" style="fill: steelblue;"></circle><circle cx="111.58323138952255" cy="47.35562801361084" r="2" style="fill: steelblue;"></circle><circle cx="59.70539003610611" cy="69.85617466270924" r="2" style="fill: steelblue;"></circle><circle cx="23.255339264869697" cy="151.7517775297165" r="2" style="fill: steelblue;"></circle><circle cx="38.50723654031754" cy="140.29755294322968" r="2" style="fill: steelblue;"></circle><circle cx="46.74432277679444" cy="175.7458359003067" r="2" style="fill: steelblue;"></circle><circle cx="77.08231955766678" cy="103.48739326000214" r="2" style="fill: steelblue;"></circle><circle cx="86.64253298193216" cy="115.70996828377247" r="2" style="fill: steelblue;"></circle><circle cx="56.78289234638214" cy="106.36897422373295" r="2" style="fill: steelblue;"></circle><circle cx="79.81655783951283" cy="111.42708957195282" r="2" style="fill: steelblue;"></circle><circle cx="34.82643365859986" cy="150.36217346787453" r="2" style="fill: steelblue;"></circle><circle cx="59.688082337379456" cy="153.34483832120895" r="2" style="fill: steelblue;"></circle><circle cx="49.70129057765008" cy="186.8052914738655" r="2" style="fill: steelblue;"></circle><circle cx="36.84810400009156" cy="171.55682146549225" r="2" style="fill: steelblue;"></circle><circle cx="72.02135622501373" cy="172.0849111676216" r="2" style="fill: steelblue;"></circle><circle cx="3.05959433317185" cy="161.52700260281563" r="2" style="fill: steelblue;"></circle><circle cx="67.23198890686035" cy="175.56936144828796" r="2" style="fill: steelblue;"></circle><circle cx="51.34768262505531" cy="193.75084936618805" r="2" style="fill: steelblue;"></circle><circle cx="35.64192950725556" cy="165.7273232936859" r="2" style="fill: steelblue;"></circle><circle cx="59.56060662865639" cy="111.22903916984797" r="2" style="fill: steelblue;"></circle><circle cx="121.45997621119022" cy="170.97923010587692" r="2" style="fill: steelblue;"></circle><circle cx="128.81999872624874" cy="26.224984228610992" r="2" style="fill: steelblue;"></circle><circle cx="100.15148513193708" cy="62.19586953520775" r="2" style="fill: steelblue;"></circle><circle cx="90.80181960016489" cy="109.00733470916748" r="2" style="fill: steelblue;"></circle><circle cx="123.62513914704323" cy="22.54599928855896" r="2" style="fill: steelblue;"></circle><circle cx="194.76103633642197" cy="89.41237479448318" r="2" style="fill: steelblue;"></circle><circle cx="89.265451207757" cy="54.023316502571106" r="2" style="fill: steelblue;"></circle><circle cx="137.9953272640705" cy="113.7848099693656" r="2" style="fill: steelblue;"></circle><circle cx="132.78323262929916" cy="30.71036785840988" r="2" style="fill: steelblue;"></circle><circle cx="55.86855337023735" cy="45.17877325415611" r="2" style="fill: steelblue;"></circle><circle cx="153.0022829771042" cy="49.586205184459686" r="2" style="fill: steelblue;"></circle><circle cx="199.62736070156097" cy="149.69964176416397" r="2" style="fill: steelblue;"></circle><circle cx="71.68126702308655" cy="105.67232072353363" r="2" style="fill: steelblue;"></circle><circle cx="32.44829028844834" cy="125.25394037365913" r="2" style="fill: steelblue;"></circle><circle cx="92.38132359459996" cy="60.6718011200428" r="2" style="fill: steelblue;"></circle><circle cx="128.885405510664" cy="157.04272165894508" r="2" style="fill: steelblue;"></circle><circle cx="43.37190687656403" cy="95.42498914524913" r="2" style="fill: steelblue;"></circle><circle cx="72.96994179487228" cy="133.6296297609806" r="2" style="fill: steelblue;"></circle><circle cx="70.99843248724937" cy="174.27246123552322" r="2" style="fill: steelblue;"></circle><circle cx="115.11448994278908" cy="107.69819878041744" r="2" style="fill: steelblue;"></circle><circle cx="126.14505216479301" cy="46.53295353055" r="2" style="fill: steelblue;"></circle><circle cx="163.33909183740616" cy="98.2062338385731" r="2" style="fill: steelblue;"></circle><circle cx="161.78271770477295" cy="77.96189226210117" r="2" style="fill: steelblue;"></circle><circle cx="103.75258643180132" cy="106.1578112654388" r="2" style="fill: steelblue;"></circle><circle cx="164.54464048147202" cy="85.93658581376076" r="2" style="fill: steelblue;"></circle><circle cx="64.10225704312325" cy="26.261208951473236" r="2" style="fill: steelblue;"></circle><circle cx="154.7533556818962" cy="35.73320657014847" r="2" style="fill: steelblue;"></circle><circle cx="86.81326862424612" cy="65.29131382703781" r="2" style="fill: steelblue;"></circle><circle cx="123.24850670993328" cy="136.68201714754105" r="2" style="fill: steelblue;"></circle><circle cx="61.264677345752716" cy="77.60382294654846" r="2" style="fill: steelblue;"></circle><circle cx="114.8550970479846" cy="57.328423857688904" r="2" style="fill: steelblue;"></circle><circle cx="81.82960599660873" cy="61.78668737411499" r="2" style="fill: steelblue;"></circle><circle cx="129.81368824839592" cy="68.8031543046236" r="2" style="fill: steelblue;"></circle><circle cx="105.34661207348108" cy="46.97316363453865" r="2" style="fill: steelblue;"></circle><circle cx="131.42516687512398" cy="52.584825456142426" r="2" style="fill: steelblue;"></circle><circle cx="100.8035731734708" cy="80.39507120847702" r="2" style="fill: steelblue;"></circle><circle cx="145.35230994224548" cy="135.25614365935326" r="2" style="fill: steelblue;"></circle><circle cx="148.98322001099586" cy="134.9925309419632" r="2" style="fill: steelblue;"></circle><circle cx="149.90944266319275" cy="73.37418980896473" r="2" style="fill: steelblue;"></circle><circle cx="134.20523926615715" cy="110.91927662491798" r="2" style="fill: steelblue;"></circle><circle cx="158.61078947782516" cy="72.7872908115387" r="2" style="fill: steelblue;"></circle><circle cx="123.94859306514263" cy="41.122040152549744" r="2" style="fill: steelblue;"></circle><circle cx="48.63484054803849" cy="75.3830824047327" r="2" style="fill: steelblue;"></circle><circle cx="70.64396925270557" cy="125.01488104462624" r="2" style="fill: steelblue;"></circle><circle cx="63.29604461789131" cy="176.3159692287445" r="2" style="fill: steelblue;"></circle><circle cx="137.84728422760963" cy="118.74421536922455" r="2" style="fill: steelblue;"></circle><circle cx="84.2258132994175" cy="104.20604692772031" r="2" style="fill: steelblue;"></circle><circle cx="61.71027049422264" cy="42.720815539360046" r="2" style="fill: steelblue;"></circle></g></svg>