<svg xmlns="http://www.w3.org/2000/svg"><g transform="translate(40,20)"><circle cx="454.05383974313736" cy="136.55408173799512" r="3" style="fill: steelblue;"></circle><circle cx="473.22442576289177" cy="198.0944428825751" r="3" style="fill: steelblue;"></circle><circle cx="397.3367363959551" cy="42.64677762985223" r="3" style="fill: steelblue;"></circle><circle cx="528.2107499241829" cy="74.53782558441159" r="3" style="fill: steelblue;"></circle><circle cx="440.57895809412" cy="57.13970661163326" r="3" style="fill: steelblue;"></circle><circle cx="260.09538979735225" cy="2.0858615636825064" r="3" style="fill: steelblue;"></circle><circle cx="384.77768160402775" cy="122.90917038917539" r="3" style="fill: steelblue;"></circle><circle cx="378.3924315869808" cy="47.29523956775662" r="3" style="fill: steelblue;"></circle><circle cx="422.59604416787624" cy="89.00396227836605" r="3" style="fill: steelblue;"></circle><circle cx="458.405978679657" cy="17.307874560356098" r="3" style="fill: steelblue;"></circle><circle cx="528.5868895053864" cy="89.4174769520759" r="3" style="fill: steelblue;"></circle><circle cx="446.52191519737244" cy="100.7107317447662" r="3" style="fill: steelblue;"></circle><circle cx="422.1826487034559" cy="145.45962661504745" r="3" style="fill: steelblue;"></circle><circle cx="393.0789039283991" cy="113.40244561433792" r="3" style="fill: steelblue;"></circle><circle cx="386.2788402289152" cy="186.92352883517742" r="3" style="fill: steelblue;"></circle><circle cx="311.01022565737367" cy="203.4256854560226" r="3" style="fill: steelblue;"></circle><circle cx="458.82907032966614" cy="75.07849931716913" r="3" style="fill: steelblue;"></circle><circle cx="502.1707181632519" cy="175.1079361885786" r="3" style="fill: steelblue;"></circle><circle cx="363.4158582240343" cy="155.1459215581417" r="3" style="fill: steelblue;"></circle><circle cx="388.56075301766396" cy="4.372221231460532" r="3" style="fill: steelblue;"></circle><circle cx="414.6003623306751" cy="213.35854548960924" r="3" style="fill: steelblue;"></circle><circle cx="467.1047446131706" cy="197.683733003214" r="3" style="fill: steelblue;"></circle><circle cx="303.5001854225993" cy="214.5034771412611" r="3" style="fill: steelblue;"></circle><circle cx="484.73890766501427" cy="99.67666566371913" r="3" style="fill: steelblue;"></circle><circle cx="172.5021482259035" cy="244.13898661732676" r="3" style="fill: steelblue;"></circle><circle cx="385.9001559019089" cy="280.3884193301201" r="3" style="fill: steelblue;"></circle><circle cx="344.5879327878356" cy="264.5393431186676" r="3" style="fill: steelblue;"></circle><circle cx="363.1217238306999" cy="14.153254032134955" r="3" style="fill: steelblue;"></circle><circle cx="105.77710278332235" cy="82.48985260725016" r="3" style="fill: steelblue;"></circle><circle cx="196.02399308234453" cy="253.65343019366264" r="3" style="fill: steelblue;"></circle><circle cx="332.24850565195084" cy="236.69713437557218" r="3" style="fill: steelblue;"></circle><circle cx="298.6254733800888" cy="186.2667340785265" r="3" style="fill: steelblue;"></circle><circle cx="376.95391595363617" cy="201.99320237152276" r="3" style="fill: steelblue;"></circle><circle cx="228.95629785954952" cy="275.205534696579" r="3" style="fill: steelblue;"></circle><circle cx="245.81607112661004" cy="178.99646684527397" r="3" style="fill: steelblue;"></circle><circle cx="156.8025552481413" cy="102.54839509725569" r="3" style="fill: steelblue;"></circle><circle cx="163.75727511942387" cy="297.8895127773285" r="3" style="fill: steelblue;"></circle><circle cx="204.20078437775373" cy="309.87330228090286" r="3" style="fill: steelblue;"></circle><circle cx="421.4559678733349" cy="277.41953432559967" r="3" style="fill: steelblue;"></circle><circle cx="53.26959237456323" cy="291.2805125117302" r="3" style="fill: steelblue;"></circle><circle cx="241.26883920282125" cy="287.83983439207077" r="3" style="fill: steelblue;"></circle><circle cx="233.7892202474177" cy="207.84286856651306" r="3" style="fill: steelblue;"></circle><circle cx="227.0114180445671" cy="212.52969913184646" r="3" style="fill: steelblue;"></circle><circle cx="263.19067639298737" cy="222.2491640597582" r="3" style="fill: steelblue;"></circle><circle cx="219.10338912159204" cy="251.87920480966568" r="3" style="fill: steelblue;"></circle><circle cx="211.90089851617813" cy="265.69547206163406" r="3" style="fill: steelblue;"></circle><circle cx="415.9595985710621" cy="210.92036627233026" r="3" style="fill: steelblue;"></circle><circle cx="88.65785345435144" cy="266.61007553339005" r="3" style="fill: steelblue;"></circle><circle cx="161.28580391407013" cy="259.59169566631317" r="3" style="fill: steelblue;"></circle><circle cx="199.02376558631659" cy="268.60803067684174" r="3" style="fill: steelblue;"></circle><circle cx="404.8392404615879" cy="314.4648939371109" r="3" style="fill: steelblue;"></circle><circle cx="325.1612477749586" cy="164.77561816573143" r="3" style="fill: steelblue;"></circle><circle cx="254.34208477847278" cy="290.71819484233856" r="3" style="fill: steelblue;"></circle><circle cx="276.9606932345778" cy="246.2321229279041" r="3" style="fill: steelblue;"></circle><circle cx="28.915932476520553" cy="254.27292734384537" r="3" style="fill: steelblue;"></circle><circle cx="203.38920157402754" cy="263.9558508992195" r="3" style="fill: steelblue;"></circle><circle cx="259.6599415456876" cy="262.0352663099766" r="3" style="fill: steelblue;"></circle><circle cx="0.41946664452554294" cy="279.5901417732239" r="3" style="fill: steelblue;"></circle><circle cx="124.92702908813955" cy="342.94135570526123" r="3" style="fill: steelblue;"></circle><circle cx="198.0353480949998" cy="288.8553336262703" r="3" style="fill: steelblue;"></circle><circle cx="303.5167489014566" cy="84.72190499305721" r="3" style="fill: steelblue;"></circle><circle cx="198.02389673888683" cy="42.8222835063934" r="3" style="fill: steelblue;"></circle><circle cx="251.6906834486872" cy="96.07720822095868" r="3" style="fill: steelblue;"></circle><circle cx="446.9322529435158" cy="157.61306583881378" r="3" style="fill: steelblue;"></circle><circle cx="469.3407413363457" cy="93.93767714500424" r="3" style="fill: steelblue;"></circle><circle cx="423.4963008016348" cy="122.24178463220595" r="3" style="fill: steelblue;"></circle><circle cx="166.66554741561413" cy="129.32596057653424" r="3" style="fill: steelblue;"></circle><circle cx="329.8048958927393" cy="253.1853623688221" r="3" style="fill: steelblue;"></circle><circle cx="332.7946302294731" cy="222.0568627119064" r="3" style="fill: steelblue;"></circle><circle cx="423.6131680011749" cy="168.92840787768364" r="3" style="fill: steelblue;"></circle><circle cx="393.08792620897293" cy="63.195970654487574" r="3" style="fill: steelblue;"></circle><circle cx="412.8560145199299" cy="181.79914988577363" r="3" style="fill: steelblue;"></circle><circle cx="399.8047173768282" cy="85.56845486164087" r="3" style="fill: steelblue;"></circle><circle cx="267.08200857276097" cy="309.8654121160507" r="3" style="fill: steelblue;"></circle><circle cx="164.6330700069666" cy="209.58358403295279" r="3" style="fill: steelblue;"></circle><circle cx="343.8327719271183" cy="186.12089361995456" r="3" style="fill: steelblue;"></circle><circle cx="205.68659406155348" cy="327.6120990514755" r="3" style="fill: steelblue;"></circle><circle cx="115.43879851698877" cy="349.46725964546204" r="3" style="fill: steelblue;"></circle><circle cx="240.08649297058582" cy="321.3524118065834" r="3" style="fill: steelblue;"></circle><circle cx="99.65892031788827" cy="308.6880713701248" r="3" style="fill: steelblue;"></circle><circle cx="286.4442165289074" cy="271.0557550191879" r="3" style="fill: steelblue;"></circle><circle cx="292.4099116399884" cy="282.4112296104431" r="3" style="fill: steelblue;"></circle><circle cx="197.8364958241582" cy="165.85967391729352" r="3" style="fill: steelblue;"></circle><circle cx="309.4544052891433" cy="193.1988068856299" r="3" style="fill: steelblue;"></circle><circle cx="450.42452931404114" cy="98.61915260553356" r="3" style="fill: steelblue;"></circle><circle cx="407.37801164388657" cy="153.0418328940868" r="3" style="fill: steelblue;"></circle><circle cx="120.41446052491666" cy="149.29857179522514" r="3" style="fill: steelblue;"></circle><circle cx="342.3588813096285" cy="269.80903446674347" r="3" style="fill: steelblue;"></circle><circle cx="250.25319376029074" cy="182.80497081577775" r="3" style="fill: steelblue;"></circle><circle cx="314.8416195809841" cy="107.22811967134476" r="3" style="fill: steelblue;"></circle><circle cx="334.2722826451063" cy="66.02282524108884" r="3" style="fill: steelblue;"></circle><circle cx="436.9915705919266" cy="267.8297281265259" r="3" style="fill: steelblue;"></circle><circle cx="416.76375836133957" cy="196.66108307428658" r="3" style="fill: steelblue;"></circle><circle cx="110.83248674869539" cy="180.77098466455934" r="3" style="fill: steelblue;"></circle><circle cx="159.43272605538368" cy="179.67818006873134" r="3" style="fill: steelblue;"></circle><circle cx="161.46358408033848" cy="173.51179085671902" r="3" style="fill: steelblue;"></circle><circle cx="342.35522512346506" cy="336.67812943458557" r="3" style="fill: steelblue;"></circle><circle cx="486.84597730636597" cy="195.63457118347287" r="3" style="fill: steelblue;"></circle><circle cx="258.1807797588408" cy="241.03483259677887" r="3" style="fill: steelblue;"></circle><circle cx="302.8623393550515" cy="279.63743060827255" r="3" style="fill: steelblue;"></circle><circle cx="115.49324400722982" cy="247.5422963500023" r="3" style="fill: steelblue;"></circle><circle cx="323.40602193027735" cy="266.1676600575447" r="3" style="fill: steelblue;"></circle><circle cx="168.73062372207642" cy="127.99307405948637" r="3" style="fill: steelblue;"></circle><circle cx="115.23164816200735" cy="346.35685086250305" r="3" style="fill: steelblue;"></circle><circle cx="255.6177505105734" cy="268.25272738933563" r="3" style="fill: steelblue;"></circle><circle cx="90.55144608020784" cy="319.11164969205856" r="3" style="fill: steelblue;"></circle><circle cx="411.5176894515753" cy="151.87838003039357" r="3" style="fill: steelblue;"></circle><circle cx="303.99986336007714" cy="39.58694338798519" r="3" style="fill: steelblue;"></circle><circle cx="413.3665730059147" cy="134.99369919300077" r="3" style="fill: steelblue;"></circle><circle cx="440.3945495188236" cy="81.18970394134516" r="3" style="fill: steelblue;"></circle><circle cx="439.75415870547295" cy="44.5568978786468" r="3" style="fill: steelblue;"></circle><circle cx="296.5277277678251" cy="157.35948532819745" r="3" style="fill: steelblue;"></circle><circle cx="279.0094424318522" cy="141.2377029657364" r="3" style="fill: steelblue;"></circle><circle cx="24.879060387611403" cy="157.92551711201668" r="3" style="fill: steelblue;"></circle><circle cx="162.06712134182453" cy="205.5250320583582" r="3" style="fill: steelblue;"></circle><circle cx="161.1901194602251" cy="253.4876063466072" r="3" style="fill: steelblue;"></circle><circle cx="347.2437421604991" cy="115.46469926834104" r="3" style="fill: steelblue;"></circle><circle cx="185.72022680193186" cy="201.86251755803826" r="3" style="fill: steelblue;"></circle></g></svg>