<svg xmlns="http://www.w3.org/2000/svg"><g><circle cx="13.737164603339302" cy="39.190225882662666" r="2" style="fill: steelblue;"></circle><circle cx="29.041718443234764" cy="56.4995848470264" r="2" style="fill: steelblue;"></circle><circle cx="26.864398850335018" cy="55.057170655992294" r="2" style="fill: steelblue;"></circle><circle cx="15.097528033786354" cy="60.51605873637729" r="2" style="fill: steelblue;"></circle><circle cx="55.52596118715074" cy="82.57172438833449" r="2" style="fill: steelblue;"></circle><circle cx="34.3084196249644" cy="55.74330869648192" r="2" style="fill: steelblue;"></circle><circle cx="57.842624021901024" cy="32.8565431965722" r="2" style="fill: steelblue;"></circle><circle cx="24.0946587589052" cy="64.6115220255322" r="2" style="fill: steelblue;"></circle><circle cx="32.875373297267494" cy="56.45113206572003" r="2" style="fill: steelblue;"></circle><circle cx="39.135338697168564" cy="14.829297198189629" r="2" style="fill: steelblue;"></circle><circle cx="35.422394838598045" cy="48.70864641335275" r="2" style="fill: steelblue;"></circle><circle cx="28.792643878195022" cy="36.32544411553277" r="2" style="fill: steelblue;"></circle><circle cx="19.919401407241825" cy="62.837060292561844" r="2" style="fill: steelblue;"></circle><circle cx="30.382942159970604" cy="58.76712600390117" r="2" style="fill: steelblue;"></circle><circle cx="20.75157662232717" cy="56.60897923840417" r="2" style="fill: steelblue;"></circle><circle cx="6.579729583528309" cy="89.42626847161186" r="2" style="fill: steelblue;"></circle><circle cx="51.499328845077095" cy="35.358142687214745" r="2" style="fill: steelblue;"></circle><circle cx="69.66452731026543" cy="26.95128752125634" r="2" style="fill: steelblue;"></circle><circle cx="50.58373651570744" cy="36.31631798214383" r="2" style="fill: steelblue;"></circle><circle cx="31.64910458856159" cy="29.55931193298764" r="2" style="fill: steelblue;"></circle><circle cx="26.380347874429493" cy="8.52381785710653" r="2" style="fill: steelblue;"></circle><circle cx="74.84930687480504" cy="28.99786763721043" r="2" style="fill: steelblue;"></circle><circle cx="48.12241320808729" cy="79.49830028745863" r="2" style="fill: steelblue;"></circle><circle cx="23.676931195788914" cy="63.419935769504974" r="2" style="fill: steelblue;"></circle><circle cx="22.672296563784283" cy="76.970331536399" r="2" style="fill: steelblue;"></circle><circle cx="20.878613988558453" cy="40.68834309776624" r="2" style="fill: steelblue;"></circle><circle cx="8.281124300426908" cy="63.14160194661882" r="2" style="fill: steelblue;"></circle><circle cx="67.19178722964394" cy="51.91348261303372" r="2" style="fill: steelblue;"></circle><circle cx="25.646010372373794" cy="52.22313950459163" r="2" style="fill: steelblue;"></circle><circle cx="44.835993280220364" cy="24.687024619844223" r="2" style="fill: steelblue;"></circle><circle cx="81.35532273186577" cy="42.98075408571297" r="2" style="fill: steelblue;"></circle><circle cx="62.42644555038876" cy="57.847513258457184" r="2" style="fill: steelblue;"></circle><circle cx="75.21400451660156" cy="20.08586393462287" r="2" style="fill: steelblue;"></circle><circle cx="67.26404461595747" cy="21.89172406991323" r="2" style="fill: steelblue;"></circle><circle cx="71.00077072779337" cy="42.272146128945884" r="2" style="fill: steelblue;"></circle><circle cx="25.631410545772976" cy="48.58930756648382" r="2" style="fill: steelblue;"></circle><circle cx="37.38642086585363" cy="77.0390424463484" r="2" style="fill: steelblue;"></circle><circle cx="29.28127282195621" cy="64.08095128006406" r="2" style="fill: steelblue;"></circle><circle cx="42.96136808892091" cy="73.70376851823595" r="2" style="fill: steelblue;"></circle><circle cx="28.833711478445267" cy="72.60016534063551" r="2" style="fill: steelblue;"></circle><circle cx="8.285637696584068" cy="57.439394460784065" r="2" style="fill: steelblue;"></circle><circle cx="53.45311197969649" cy="26.768180396821762" r="2" style="fill: steelblue;"></circle><circle cx="66.46268169085184" cy="46.72492332756519" r="2" style="fill: steelblue;"></circle><circle cx="54.63364240196016" cy="22.360623876253772" r="2" style="fill: steelblue;"></circle><circle cx="59.4670765929752" cy="35.13327009148068" r="2" style="fill: steelblue;"></circle><circle cx="73.07959198951721" cy="16.40899578730266" r="2" style="fill: steelblue;"></circle><circle cx="53.71417701244354" cy="17.347118258476257" r="2" style="fill: steelblue;"></circle><circle cx="16.81542495886485" cy="66.41091836823357" r="2" style="fill: steelblue;"></circle><circle cx="15.320482518937856" cy="74.0796188513438" r="2" style="fill: steelblue;"></circle><circle cx="46.475014711419746" cy="43.593848341455065" r="2" style="fill: steelblue;"></circle><circle cx="44.87283358143436" cy="88.88565434349907" r="2" style="fill: steelblue;"></circle><circle cx="65.94526204797957" cy="62.30552262730069" r="2" style="fill: steelblue;"></circle><circle cx="21.778072913487755" cy="44.72932481827835" r="2" style="fill: steelblue;"></circle><circle cx="46.98230818741852" cy="54.28858117924796" r="2" style="fill: steelblue;"></circle><circle cx="30.326337615648907" cy="44.325044932257796" r="2" style="fill: steelblue;"></circle><circle cx="45.88091400348478" cy="59.44322811232673" r="2" style="fill: steelblue;"></circle><circle cx="34.9544561571545" cy="35.041878786351944" r="2" style="fill: steelblue;"></circle><circle cx="27.62181493971083" cy="55.82879003551271" r="2" style="fill: steelblue;"></circle><circle cx="58.7575313117769" cy="47.03377307289177" r="2" style="fill: steelblue;"></circle><circle cx="61.95719970597161" cy="65.41698939270444" r="2" style="fill: steelblue;"></circle><circle cx="18.45433248413934" cy="57.98893024524053" r="2" style="fill: steelblue;"></circle><circle cx="48.7930436929067" cy="75.14139281378853" r="2" style="fill: steelblue;"></circle><circle cx="43.317759885556164" cy="88.90639013714261" r="2" style="fill: steelblue;"></circle><circle cx="7.543016804589168" cy="38.861324555344055" r="2" style="fill: steelblue;"></circle><circle cx="12.72809108098348" cy="61.68917251957787" r="2" style="fill: steelblue;"></circle><circle cx="3.200063440534806" cy="64.58453767829471" r="2" style="fill: steelblue;"></circle><circle cx="31.255784299638538" cy="60.723797480265304" r="2" style="fill: steelblue;"></circle><circle cx="9.50237380133735" cy="60.3264182806015" r="2" style="fill: steelblue;"></circle><circle cx="26.449732648001778" cy="54.295059045155845" r="2" style="fill: steelblue;"></circle><circle cx="55.61422738764021" cy="70.82346512211693" r="2" style="fill: steelblue;"></circle><circle cx="45.757033820781444" cy="68.59729952282376" r="2" style="fill: steelblue;"></circle><circle cx="71.54196931256187" cy="44.42259603238199" r="2" style="fill: steelblue;"></circle><circle cx="28.474058707555137" cy="18.911774953206383" r="2" style="fill: steelblue;"></circle><circle cx="38.4237022863494" cy="21.775749988026092" r="2" style="fill: steelblue;"></circle><circle cx="57.008596923616196" cy="37.31326527065701" r="2" style="fill: steelblue;"></circle><circle cx="82.15787609418234" cy="23.25437068939209" r="2" style="fill: steelblue;"></circle><circle cx="40.982234146859916" cy="47.150930762290955" r="2" style="fill: steelblue;"></circle><circle cx="73.24639227655199" cy="41.18783540195889" r="2" style="fill: steelblue;"></circle><circle cx="80.19097248713175" cy="16.005684269799126" r="2" style="fill: steelblue;"></circle><circle cx="83.10323887401157" cy="19.163838028907776" r="2" style="fill: steelblue;"></circle><circle cx="64.46915136443245" cy="46.717035646239914" r="2" style="fill: steelblue;"></circle><circle cx="69.75037952264151" cy="35.3015133076244" r="2" style="fill: steelblue;"></circle><circle cx="24.60028992758857" cy="33.80279011196561" r="2" style="fill: steelblue;"></circle><circle cx="47.98711728718546" cy="44.16753929625783" r="2" style="fill: steelblue;"></circle><circle cx="32.66705258025064" cy="66.60371290312874" r="2" style="fill: steelblue;"></circle><circle cx="68.08293792936537" cy="63.82860177093082" r="2" style="fill: steelblue;"></circle><circle cx="49.86593764689234" cy="51.54608537753423" r="2" style="fill: steelblue;"></circle><circle cx="26.2378066778183" cy="47.01519091096189" r="2" style="fill: steelblue;"></circle><circle cx="67.58792135450575" cy="56.93951514032152" r="2" style="fill: steelblue;"></circle><circle cx="43.62965603876445" cy="21.992830104298065" r="2" style="fill: steelblue;"></circle><circle cx="57.37438152233759" cy="11.181678374608362" r="2" style="fill: steelblue;"></circle><circle cx="56.757728424337174" cy="49.02703124615881" r="2" style="fill: steelblue;"></circle><circle cx="38.104916777875694" cy="19.11290917131636" r="2" style="fill: steelblue;"></circle><circle cx="57.06866433223089" cy="44.11319059630235" r="2" style="fill: steelblue;"></circle><circle cx="80.4056617948744" cy="28.914548622237312" r="2" style="fill: steelblue;"></circle><circle cx="66.7724503411187" cy="15.568990839852226" r="2" style="fill: steelblue;"></circle><circle cx="61.34249700440301" cy="21.20283179812962" r="2" style="fill: steelblue;"></circle><circle cx="25.821133785777622" cy="22.333541843626236" r="2" style="fill: steelblue;"></circle><circle cx="84.29558012220595" cy="26.896666487058006" r="2" style="fill: steelblue;"></circle><circle cx="89.65766694810655" cy="33.337568408913086" r="2" style="fill: steelblue;"></circle><circle cx="45.960660775502525" cy="37.973503437307144" r="2" style="fill: steelblue;"></circle><circle cx="68.03924275769127" cy="29.63619695769416" r="2" style="fill: steelblue;"></circle><circle cx="27.27115915881263" cy="36.24594890409046" r="2" style="fill: steelblue;"></circle><circle cx="90.05447824796042" cy="36.7544518576728" r="2" style="fill: steelblue;"></circle><circle cx="59.6111708217197" cy="6.996760103437638" r="2" style="fill: steelblue;"></circle><circle cx="59.63537361886766" cy="27.741822269227768" r="2" style="fill: steelblue;"></circle><circle cx="52.91566103696823" cy="24.07083511352539" r="2" style="fill: steelblue;"></circle><circle cx="40.52349651853244" cy="37.18876772456699" r="2" style="fill: steelblue;"></circle><circle cx="75.11585884624057" cy="39.49770223763254" r="2" style="fill: steelblue;"></circle><circle cx="89.44436179267036" cy="32.170571552382576" r="2" style="fill: steelblue;"></circle><circle cx="73.80035453372533" cy="24.251715342203784" r="2" style="fill: steelblue;"></circle><circle cx="48.128245770931244" cy="27.51124832365248" r="2" style="fill: steelblue;"></circle><circle cx="31.189869013097553" cy="65.43638408184052" r="2" style="fill: steelblue;"></circle><circle cx="60.54869890213013" cy="51.50588370031781" r="2" style="fill: steelblue;"></circle><circle cx="66.02105597654977" cy="76.37439105245802" r="2" style="fill: steelblue;"></circle><circle cx="25.289466977119446" cy="81.93328910403781" r="2" style="fill: steelblue;"></circle><circle cx="27.08434330092536" cy="69.40045721001096" r="2" style="fill: steelblue;"></circle><circle cx="46.659263844291374" cy="26.838080088297524" r="2" style="fill: steelblue;"></circle></g></svg>