<svg xmlns="http://www.w3.org/2000/svg"><g><circle cx="25.012595951557167" cy="136.80867552757263" r="2" style="fill: steelblue;"></circle><circle cx="108.42343829572201" cy="171.27264075809055" r="2" style="fill: steelblue;"></circle><circle cx="98.50210826843977" cy="119.51622234450446" r="2" style="fill: steelblue;"></circle><circle cx="6.651772558689123" cy="72.50987357563443" r="2" style="fill: steelblue;"></circle><circle cx="4.6742245554924065" cy="136.12832493252225" r="2" style="fill: steelblue;"></circle><circle cx="6.269006431102758" cy="128.4720950656467" r="2" style="fill: steelblue;"></circle><circle cx="60.74187755584717" cy="63.96485732661355" r="2" style="fill: steelblue;"></circle><circle cx="80.18709942698479" cy="93.93101301458147" r="2" style="fill: steelblue;"></circle><circle cx="83.45174081623554" cy="94.59801796409819" r="2" style="fill: steelblue;"></circle><circle cx="83.87926816940308" cy="56.690280967288544" r="2" style="fill: steelblue;"></circle><circle cx="88.61848842352629" cy="107.51583543088701" r="2" style="fill: steelblue;"></circle><circle cx="78.69432345032692" cy="69.99235881699457" r="2" style="fill: steelblue;"></circle><circle cx="67.08064153790474" cy="124.58256747987535" r="2" style="fill: steelblue;"></circle><circle cx="93.5410562902689" cy="144.2462424437205" r="2" style="fill: steelblue;"></circle><circle cx="60.59328317642212" cy="83.6058047082689" r="2" style="fill: steelblue;"></circle><circle cx="90.20470678806305" cy="37.4908102883233" r="2" style="fill: steelblue;"></circle><circle cx="106.79453834891319" cy="168.66012944115533" r="2" style="fill: steelblue;"></circle><circle cx="66.70396625995636" cy="153.44991816414728" r="2" style="fill: steelblue;"></circle><circle cx="45.10668516159058" cy="65.25600320763058" r="2" style="fill: steelblue;"></circle><circle cx="94.97425695881248" cy="93.9514524406857" r="2" style="fill: steelblue;"></circle><circle cx="62.5227190554142" cy="57.981529500749375" r="2" style="fill: steelblue;"></circle><circle cx="144.08251866698265" cy="102.16045743889279" r="2" style="fill: steelblue;"></circle><circle cx="72.34299778938293" cy="49.427921904457946" r="2" style="fill: steelblue;"></circle><circle cx="48.686681687831886" cy="102.72984074221716" r="2" style="fill: steelblue;"></circle><circle cx="50.7937915623188" cy="39.02061316702101" r="2" style="fill: steelblue;"></circle><circle cx="130.4622296243906" cy="94.14812872807185" r="2" style="fill: steelblue;"></circle><circle cx="58.72705429792404" cy="141.4165516694387" r="2" style="fill: steelblue;"></circle><circle cx="78.47501374781132" cy="92.78519774476688" r="2" style="fill: steelblue;"></circle><circle cx="138.22074830532074" cy="125.21845300992331" r="2" style="fill: steelblue;"></circle><circle cx="144.70576718449593" cy="124.70953199598524" r="2" style="fill: steelblue;"></circle><circle cx="116.20440743863583" cy="57.784615622626426" r="2" style="fill: steelblue;"></circle><circle cx="159.8992481827736" cy="75.88819613059361" r="2" style="fill: steelblue;"></circle><circle cx="113.86734005063772" cy="91.3057144317362" r="2" style="fill: steelblue;"></circle><circle cx="102.44455528445542" cy="105.8055794901318" r="2" style="fill: steelblue;"></circle><circle cx="92.97796422615647" cy="68.34153532981873" r="2" style="fill: steelblue;"></circle><circle cx="95.60536025092006" cy="135.58879031075372" r="2" style="fill: steelblue;"></circle><circle cx="91.18260852992535" cy="29.966624577840186" r="2" style="fill: steelblue;"></circle><circle cx="55.10499179363251" cy="105.34980263974931" r="2" style="fill: steelblue;"></circle><circle cx="26.31975561380387" cy="75.38028342856302" r="2" style="fill: steelblue;"></circle><circle cx="31.87223374843598" cy="59.82101162274678" r="2" style="fill: steelblue;"></circle><circle cx="56.768009811639786" cy="79.0920012527042" r="2" style="fill: steelblue;"></circle><circle cx="183.32323282957077" cy="24.369708697001148" r="2" style="fill: steelblue;"></circle><circle cx="74.65416043996811" cy="44.576070706049606" r="2" style="fill: steelblue;"></circle><circle cx="89.41981513053179" cy="80.5758406718572" r="2" style="fill: steelblue;"></circle><circle cx="120.10545320808887" cy="62.48087220721774" r="2" style="fill: steelblue;"></circle><circle cx="132.41559863090515" cy="53.67016990979512" r="2" style="fill: steelblue;"></circle><circle cx="146.160951256752" cy="90.16305779417355" r="2" style="fill: steelblue;"></circle><circle cx="47.11743667721749" cy="133.89581309424506" r="2" style="fill: steelblue;"></circle><circle cx="143.3029681444168" cy="115.4924237065845" r="2" style="fill: steelblue;"></circle><circle cx="147.77255281805992" cy="139.8550060060289" r="2" style="fill: steelblue;"></circle><circle cx="119.69005726277828" cy="113.63581518332164" r="2" style="fill: steelblue;"></circle><circle cx="82.81716927886009" cy="74.24228423171573" r="2" style="fill: steelblue;"></circle><circle cx="71.28831408917904" cy="76.50684846772089" r="2" style="fill: steelblue;"></circle><circle cx="135.98755970597267" cy="105.22088441583846" r="2" style="fill: steelblue;"></circle><circle cx="39.06699493527413" cy="25.60985618167453" r="2" style="fill: steelblue;"></circle><circle cx="46.23214378952981" cy="93.70045728153653" r="2" style="fill: steelblue;"></circle><circle cx="158.17869678139687" cy="102.45471977525287" r="2" style="fill: steelblue;"></circle><circle cx="101.01524218916893" cy="107.56615002950033" r="2" style="fill: steelblue;"></circle><circle cx="75.87820887565613" cy="159.12854539023505" r="2" style="fill: steelblue;"></circle><circle cx="115.31618181616068" cy="145.82280185487534" r="2" style="fill: steelblue;"></circle><circle cx="92.88907693699002" cy="141.98575615882874" r="2" style="fill: steelblue;"></circle><circle cx="56.68616145849228" cy="113.05637856324515" r="2" style="fill: steelblue;"></circle><circle cx="87.42732591927052" cy="100.53409669134352" r="2" style="fill: steelblue;"></circle><circle cx="31.201227009296424" cy="120.83014713393317" r="2" style="fill: steelblue;"></circle><circle cx="105.4161068983376" cy="181.52777221467758" r="2" style="fill: steelblue;"></circle><circle cx="37.50235810875893" cy="145.61107291115655" r="2" style="fill: steelblue;"></circle><circle cx="37.69376352429391" cy="133.10161431630453" r="2" style="fill: steelblue;"></circle><circle cx="42.142743617296226" cy="147.13140196270413" r="2" style="fill: steelblue;"></circle><circle cx="95.1847936026752" cy="168.40752495659723" r="2" style="fill: steelblue;"></circle><circle cx="45.20027190446854" cy="133.76825584305658" r="2" style="fill: steelblue;"></circle><circle cx="50.340643525123596" cy="126.06872320175171" r="2" style="fill: steelblue;"></circle><circle cx="134.7658358514309" cy="34.75203646553888" r="2" style="fill: steelblue;"></circle><circle cx="146.87412083148956" cy="132.47027860747443" r="2" style="fill: steelblue;"></circle><circle cx="67.57311746478081" cy="49.12252426147461" r="2" style="fill: steelblue;"></circle><circle cx="106.28981878980994" cy="81.54168095853593" r="2" style="fill: steelblue;"></circle><circle cx="94.46831829845905" cy="109.64849458800421" r="2" style="fill: steelblue;"></circle><circle cx="131.23280219733715" cy="119.21808984544542" r="2" style="fill: steelblue;"></circle><circle cx="70.16076184809208" cy="133.2753088739183" r="2" style="fill: steelblue;"></circle><circle cx="138.59204053878784" cy="63.18354143036737" r="2" style="fill: steelblue;"></circle><circle cx="143.05439442396164" cy="88.99962600165357" r="2" style="fill: steelblue;"></circle><circle cx="105.26500446721911" cy="41.00888503922357" r="2" style="fill: steelblue;"></circle><circle cx="178.56489717960358" cy="7.125363085005021" r="2" style="fill: steelblue;"></circle><circle cx="104.30289283394814" cy="89.32848411301772" r="2" style="fill: steelblue;"></circle><circle cx="106.78781187161803" cy="107.84410470061832" r="2" style="fill: steelblue;"></circle><circle cx="84.76056940853596" cy="98.4819758269522" r="2" style="fill: steelblue;"></circle><circle cx="84.96582359075546" cy="100.78424496783151" r="2" style="fill: steelblue;"></circle><circle cx="91.07518792152405" cy="108.61975484424167" r="2" style="fill: steelblue;"></circle><circle cx="81.92010633647442" cy="127.89697315957811" r="2" style="fill: steelblue;"></circle><circle cx="97.1900584641844" cy="63.45937351385753" r="2" style="fill: steelblue;"></circle><circle cx="104.15470264852047" cy="70.12225886185963" r="2" style="fill: steelblue;"></circle><circle cx="166.68204069137573" cy="113.24866149160597" r="2" style="fill: steelblue;"></circle><circle cx="118.98211054503918" cy="75.29709190130234" r="2" style="fill: steelblue;"></circle><circle cx="120.16099914908409" cy="57.421096828248764" r="2" style="fill: steelblue;"></circle><circle cx="134.42218154668808" cy="38.32558658387926" r="2" style="fill: steelblue;"></circle><circle cx="95.34445768222213" cy="46.5878168741862" r="2" style="fill: steelblue;"></circle><circle cx="168.21834295988083" cy="104.10737527741327" r="2" style="fill: steelblue;"></circle><circle cx="159.01585146784782" cy="1.6599681642320396" r="2" style="fill: steelblue;"></circle><circle cx="159.5426708459854" cy="105.31781646940443" r="2" style="fill: steelblue;"></circle><circle cx="108.23293626308441" cy="53.66595453686185" r="2" style="fill: steelblue;"></circle><circle cx="100.78927050344646" cy="152.74982849756879" r="2" style="fill: steelblue;"></circle><circle cx="147.269307076931" cy="106.54763413800134" r="2" style="fill: steelblue;"></circle><circle cx="124.07658658921719" cy="106.65627519289653" r="2" style="fill: steelblue;"></circle><circle cx="143.106060475111" cy="54.28039564026727" r="2" style="fill: steelblue;"></circle><circle cx="128.91557849943638" cy="45.71413199106853" r="2" style="fill: steelblue;"></circle><circle cx="140.6883805990219" cy="170.73077493243747" r="2" style="fill: steelblue;"></circle><circle cx="73.43834117054939" cy="37.54854732089572" r="2" style="fill: steelblue;"></circle><circle cx="124.560971185565" cy="86.74623850319121" r="2" style="fill: steelblue;"></circle><circle cx="141.6056178510189" cy="73.85732928911845" r="2" style="fill: steelblue;"></circle><circle cx="173.40165972709656" cy="75.7575187418196" r="2" style="fill: steelblue;"></circle><circle cx="99.86593617359176" cy="23.925985230339908" r="2" style="fill: steelblue;"></circle><circle cx="184.6283808350563" cy="122.76606957117717" r="2" style="fill: steelblue;"></circle><circle cx="82.71850310266018" cy="85.95727417204115" r="2" style="fill: steelblue;"></circle><circle cx="29.697386920452125" cy="127.3470573955112" r="2" style="fill: steelblue;"></circle><circle cx="47.500955313444145" cy="154.67272731992935" r="2" style="fill: steelblue;"></circle><circle cx="78.01111452281475" cy="155.52216635810004" r="2" style="fill: steelblue;"></circle><circle cx="43.98716092109681" cy="142.5587256749471" r="2" style="fill: steelblue;"></circle><circle cx="36.34914606809617" cy="128.1122088432312" r="2" style="fill: steelblue;"></circle><circle cx="33.481663465499885" cy="120.34476002057394" r="2" style="fill: steelblue;"></circle></g></svg>