<svg xmlns="http://www.w3.org/2000/svg"><g><circle cx="12.506297975778583" cy="57.688894402235746" r="2" style="fill: steelblue;"></circle><circle cx="54.211719147861004" cy="86.83755546808243" r="2" style="fill: steelblue;"></circle><circle cx="49.251054134219885" cy="57.91244022548199" r="2" style="fill: steelblue;"></circle><circle cx="3.3258862793445614" cy="89.08279910683632" r="2" style="fill: steelblue;"></circle><circle cx="2.3371122777462032" cy="89.9828813970089" r="2" style="fill: steelblue;"></circle><circle cx="3.134503215551379" cy="86.98037564754486" r="2" style="fill: steelblue;"></circle><circle cx="30.370938777923584" cy="51.132896868512034" r="2" style="fill: steelblue;"></circle><circle cx="40.09354971349239" cy="29.230092838406563" r="2" style="fill: steelblue;"></circle><circle cx="41.72587040811777" cy="77.95447781682014" r="2" style="fill: steelblue;"></circle><circle cx="41.93963408470154" cy="59.25310514867306" r="2" style="fill: steelblue;"></circle><circle cx="44.30924421176314" cy="61.943090707063675" r="2" style="fill: steelblue;"></circle><circle cx="39.34716172516346" cy="71.56814374029636" r="2" style="fill: steelblue;"></circle><circle cx="33.54032076895237" cy="75.64247883856297" r="2" style="fill: steelblue;"></circle><circle cx="46.77052814513445" cy="61.587828397750854" r="2" style="fill: steelblue;"></circle><circle cx="30.29664158821106" cy="53.086680080741644" r="2" style="fill: steelblue;"></circle><circle cx="45.102353394031525" cy="59.1065876185894" r="2" style="fill: steelblue;"></circle><circle cx="53.397269174456596" cy="80.80770559608936" r="2" style="fill: steelblue;"></circle><circle cx="33.35198312997818" cy="57.35402759164572" r="2" style="fill: steelblue;"></circle><circle cx="22.55334258079529" cy="53.487598383799195" r="2" style="fill: steelblue;"></circle><circle cx="47.48712847940624" cy="58.79324693232775" r="2" style="fill: steelblue;"></circle><circle cx="31.2613595277071" cy="66.04695059359074" r="2" style="fill: steelblue;"></circle><circle cx="72.04125933349133" cy="60.11843979358673" r="2" style="fill: steelblue;"></circle><circle cx="36.17149889469147" cy="70.50153538584709" r="2" style="fill: steelblue;"></circle><circle cx="24.343340843915943" cy="52.04561813734472" r="2" style="fill: steelblue;"></circle><circle cx="25.3968957811594" cy="48.79967654123902" r="2" style="fill: steelblue;"></circle><circle cx="65.2311148121953" cy="65.13596903532743" r="2" style="fill: steelblue;"></circle><circle cx="29.36352714896202" cy="37.45044879615307" r="2" style="fill: steelblue;"></circle><circle cx="39.23750687390566" cy="34.32285152375698" r="2" style="fill: steelblue;"></circle><circle cx="69.11037415266037" cy="74.65778402984142" r="2" style="fill: steelblue;"></circle><circle cx="72.35288359224796" cy="39.10476826131344" r="2" style="fill: steelblue;"></circle><circle cx="58.10220371931791" cy="14.254003018140793" r="2" style="fill: steelblue;"></circle><circle cx="79.9496240913868" cy="22.992682829499245" r="2" style="fill: steelblue;"></circle><circle cx="56.93367002531886" cy="54.687237087637186" r="2" style="fill: steelblue;"></circle><circle cx="51.22227764222771" cy="35.97354535013437" r="2" style="fill: steelblue;"></circle><circle cx="46.48898211307824" cy="29.21997681260109" r="2" style="fill: steelblue;"></circle><circle cx="47.80268012546003" cy="3.5761885344982147" r="2" style="fill: steelblue;"></circle><circle cx="45.59130426496267" cy="39.19032420963049" r="2" style="fill: steelblue;"></circle><circle cx="27.552495896816254" cy="42.071615532040596" r="2" style="fill: steelblue;"></circle><circle cx="13.159877806901935" cy="64.50728997588158" r="2" style="fill: steelblue;"></circle><circle cx="15.93611687421799" cy="93.0203452706337" r="2" style="fill: steelblue;"></circle><circle cx="28.384004905819893" cy="40.749058313667774" r="2" style="fill: steelblue;"></circle><circle cx="91.66161641478539" cy="8.656728267669678" r="2" style="fill: steelblue;"></circle><circle cx="37.327080219984055" cy="3.8416787981987" r="2" style="fill: steelblue;"></circle><circle cx="44.709907565265894" cy="8.047285676002502" r="2" style="fill: steelblue;"></circle><circle cx="60.05272660404444" cy="62.30770256370306" r="2" style="fill: steelblue;"></circle><circle cx="66.20779931545258" cy="68.32928322255611" r="2" style="fill: steelblue;"></circle><circle cx="73.080475628376" cy="67.39451847970486" r="2" style="fill: steelblue;"></circle><circle cx="23.558718338608745" cy="91.3859486579895" r="2" style="fill: steelblue;"></circle><circle cx="71.6514840722084" cy="82.20150247216225" r="2" style="fill: steelblue;"></circle><circle cx="73.88627640902996" cy="69.41916532814503" r="2" style="fill: steelblue;"></circle><circle cx="59.84502863138914" cy="66.19787514209747" r="2" style="fill: steelblue;"></circle><circle cx="41.408584639430046" cy="69.50163766741753" r="2" style="fill: steelblue;"></circle><circle cx="35.64415704458952" cy="66.08527824282646" r="2" style="fill: steelblue;"></circle><circle cx="67.99377985298634" cy="75.74466727674007" r="2" style="fill: steelblue;"></circle><circle cx="19.533497467637066" cy="59.88777540624142" r="2" style="fill: steelblue;"></circle><circle cx="23.116071894764904" cy="64.2634715884924" r="2" style="fill: steelblue;"></circle><circle cx="79.08934839069843" cy="45.48832233995199" r="2" style="fill: steelblue;"></circle><circle cx="50.507621094584465" cy="99.75518584251404" r="2" style="fill: steelblue;"></circle><circle cx="37.939104437828064" cy="66.22563786804676" r="2" style="fill: steelblue;"></circle><circle cx="57.65809090808034" cy="70.16815170645714" r="2" style="fill: steelblue;"></circle><circle cx="46.44453846849501" cy="70.46610787510872" r="2" style="fill: steelblue;"></circle><circle cx="28.34308072924614" cy="67.70255900919437" r="2" style="fill: steelblue;"></circle><circle cx="43.71366295963526" cy="89.94213044643402" r="2" style="fill: steelblue;"></circle><circle cx="15.600613504648212" cy="86.73765435814857" r="2" style="fill: steelblue;"></circle><circle cx="52.7080534491688" cy="50.1693531521596" r="2" style="fill: steelblue;"></circle><circle cx="18.751179054379467" cy="71.57912775874138" r="2" style="fill: steelblue;"></circle><circle cx="18.846881762146953" cy="52.14694207534194" r="2" style="fill: steelblue;"></circle><circle cx="21.071371808648113" cy="80.08193336427212" r="2" style="fill: steelblue;"></circle><circle cx="47.5923968013376" cy="81.705342233181" r="2" style="fill: steelblue;"></circle><circle cx="22.60013595223427" cy="34.20394770801067" r="2" style="fill: steelblue;"></circle><circle cx="25.170321762561798" cy="65.8594511449337" r="2" style="fill: steelblue;"></circle><circle cx="67.38291792571545" cy="29.283958673477173" r="2" style="fill: steelblue;"></circle><circle cx="73.43706041574478" cy="68.16368289291859" r="2" style="fill: steelblue;"></circle><circle cx="33.786558732390404" cy="20.232907682657242" r="2" style="fill: steelblue;"></circle><circle cx="53.14490939490497" cy="26.93154402077198" r="2" style="fill: steelblue;"></circle><circle cx="47.23415914922953" cy="54.372529219836" r="2" style="fill: steelblue;"></circle><circle cx="65.61640109866858" cy="26.886646822094917" r="2" style="fill: steelblue;"></circle><circle cx="35.08038092404604" cy="17.356644570827484" r="2" style="fill: steelblue;"></circle><circle cx="69.29602026939392" cy="25.400708615779877" r="2" style="fill: steelblue;"></circle><circle cx="71.52719721198082" cy="26.717330515384674" r="2" style="fill: steelblue;"></circle><circle cx="52.63250223360956" cy="5.597415566444397" r="2" style="fill: steelblue;"></circle><circle cx="89.28244858980179" cy="26.276075467467308" r="2" style="fill: steelblue;"></circle><circle cx="52.15144641697407" cy="34.28406938910484" r="2" style="fill: steelblue;"></circle><circle cx="53.393905935809016" cy="81.08273074030876" r="2" style="fill: steelblue;"></circle><circle cx="42.38028470426798" cy="66.4995901286602" r="2" style="fill: steelblue;"></circle><circle cx="42.48291179537773" cy="54.65418258681893" r="2" style="fill: steelblue;"></circle><circle cx="45.537593960762024" cy="36.32695525884628" r="2" style="fill: steelblue;"></circle><circle cx="40.96005316823721" cy="57.972017861902714" r="2" style="fill: steelblue;"></circle><circle cx="48.5950292320922" cy="41.623942740261555" r="2" style="fill: steelblue;"></circle><circle cx="52.077351324260235" cy="35.77110096812248" r="2" style="fill: steelblue;"></circle><circle cx="83.34102034568787" cy="30.090131983160973" r="2" style="fill: steelblue;"></circle><circle cx="59.49105527251959" cy="45.71519857272506" r="2" style="fill: steelblue;"></circle><circle cx="60.080499574542046" cy="25.721009075641632" r="2" style="fill: steelblue;"></circle><circle cx="67.21109077334404" cy="26.028766483068466" r="2" style="fill: steelblue;"></circle><circle cx="47.672228841111064" cy="72.6210169494152" r="2" style="fill: steelblue;"></circle><circle cx="84.10917147994041" cy="48.1086750049144" r="2" style="fill: steelblue;"></circle><circle cx="79.50792573392391" cy="10.183922201395035" r="2" style="fill: steelblue;"></circle><circle cx="79.7713354229927" cy="18.66021677851677" r="2" style="fill: steelblue;"></circle><circle cx="54.116468131542206" cy="30.94063438475132" r="2" style="fill: steelblue;"></circle><circle cx="50.39463525172323" cy="45.10794598609209" r="2" style="fill: steelblue;"></circle><circle cx="73.6346535384655" cy="48.68805147707462" r="2" style="fill: steelblue;"></circle><circle cx="62.03829329460859" cy="44.93478937074542" r="2" style="fill: steelblue;"></circle><circle cx="71.5530302375555" cy="17.09337830543518" r="2" style="fill: steelblue;"></circle><circle cx="64.45778924971819" cy="57.81937222927809" r="2" style="fill: steelblue;"></circle><circle cx="70.34419029951096" cy="71.40706218779087" r="2" style="fill: steelblue;"></circle><circle cx="36.719170585274696" cy="30.015764012932777" r="2" style="fill: steelblue;"></circle><circle cx="62.2804855927825" cy="49.212900816928595" r="2" style="fill: steelblue;"></circle><circle cx="70.80280892550945" cy="48.26171761378646" r="2" style="fill: steelblue;"></circle><circle cx="86.70082986354828" cy="24.957089871168137" r="2" style="fill: steelblue;"></circle><circle cx="49.93296808679588" cy="27.20402292907238" r="2" style="fill: steelblue;"></circle><circle cx="92.31419041752815" cy="21.481725573539734" r="2" style="fill: steelblue;"></circle><circle cx="41.35925155133009" cy="68.91697756946087" r="2" style="fill: steelblue;"></circle><circle cx="14.848693460226063" cy="63.03874608129263" r="2" style="fill: steelblue;"></circle><circle cx="23.750477656722072" cy="53.07511421851814" r="2" style="fill: steelblue;"></circle><circle cx="39.005557261407375" cy="78.4602902829647" r="2" style="fill: steelblue;"></circle><circle cx="21.993580460548404" cy="74.16456304490566" r="2" style="fill: steelblue;"></circle><circle cx="18.174573034048084" cy="56.81852363049984" r="2" style="fill: steelblue;"></circle><circle cx="16.740831732749943" cy="55.87663985788822" r="2" style="fill: steelblue;"></circle></g></svg>