<svg xmlns="http://www.w3.org/2000/svg"><g><circle cx="31.686902046203613" cy="77.0962119102478" r="2" style="fill: steelblue;"></circle><circle cx="50.98909677730666" cy="62.125140987336636" r="2" style="fill: steelblue;"></circle><circle cx="17.73430572615729" cy="59.543717838823795" r="2" style="fill: steelblue;"></circle><circle cx="38.589252365960014" cy="40.49415532499552" r="2" style="fill: steelblue;"></circle><circle cx="65.29209017753601" cy="76.36056207120419" r="2" style="fill: steelblue;"></circle><circle cx="44.54173644383748" cy="37.25073877722025" r="2" style="fill: steelblue;"></circle><circle cx="35.27321252557966" cy="57.160062436014414" r="2" style="fill: steelblue;"></circle><circle cx="51.60362232062552" cy="27.087270468473434" r="2" style="fill: steelblue;"></circle><circle cx="53.130341900719536" cy="85.82027181982994" r="2" style="fill: steelblue;"></circle><circle cx="43.78245522578557" cy="70.65091393887997" r="2" style="fill: steelblue;"></circle><circle cx="34.872785210609436" cy="42.92196333408356" r="2" style="fill: steelblue;"></circle><circle cx="69.23526608281665" cy="66.45965874195099" r="2" style="fill: steelblue;"></circle><circle cx="24.973713689380222" cy="59.09544061869383" r="2" style="fill: steelblue;"></circle><circle cx="66.95141477717293" cy="57.03486613929272" r="2" style="fill: steelblue;"></circle><circle cx="41.2595272064209" cy="89.07936066389084" r="2" style="fill: steelblue;"></circle><circle cx="49.299651549922096" cy="67.42372289299965" r="2" style="fill: steelblue;"></circle><circle cx="39.43568468093872" cy="37.982106395065784" r="2" style="fill: steelblue;"></circle><circle cx="49.34609101878272" cy="22.759094089269638" r="2" style="fill: steelblue;"></circle><circle cx="63.635390665796066" cy="23.973380401730537" r="2" style="fill: steelblue;"></circle><circle cx="48.38097426626417" cy="37.296282313764095" r="2" style="fill: steelblue;"></circle><circle cx="69.50923966036903" cy="27.024253457784653" r="2" style="fill: steelblue;"></circle><circle cx="70.76062758763632" cy="45.723516680300236" r="2" style="fill: steelblue;"></circle><circle cx="82.70554410086739" cy="52.15789838694036" r="2" style="fill: steelblue;"></circle><circle cx="49.804331527815926" cy="68.19662004709244" r="2" style="fill: steelblue;"></circle><circle cx="35.912773675388756" cy="33.39948058128357" r="2" style="fill: steelblue;"></circle><circle cx="42.98304269711176" cy="78.68222072720528" r="2" style="fill: steelblue;"></circle><circle cx="23.621297544903225" cy="70.1173797249794" r="2" style="fill: steelblue;"></circle><circle cx="19.2952553431193" cy="63.10624834150076" r="2" style="fill: steelblue;"></circle><circle cx="18.418845203187733" cy="64.03277553617954" r="2" style="fill: steelblue;"></circle><circle cx="52.534851142101815" cy="17.116795480251312" r="2" style="fill: steelblue;"></circle><circle cx="80.7122141122818" cy="57.06937350332737" r="2" style="fill: steelblue;"></circle><circle cx="88.6429746945699" cy="12.062083184719086" r="2" style="fill: steelblue;"></circle><circle cx="89.8163484202491" cy="5.4702118039131165" r="2" style="fill: steelblue;"></circle><circle cx="75.26548041237724" cy="50.69924787385389" r="2" style="fill: steelblue;"></circle><circle cx="56.658286187383865" cy="48.14978486392647" r="2" style="fill: steelblue;"></circle><circle cx="69.43893598185646" cy="54.45108208805323" r="2" style="fill: steelblue;"></circle><circle cx="34.07522373729282" cy="92.41538792848587" r="2" style="fill: steelblue;"></circle><circle cx="46.04176183541615" cy="53.58027848415077" r="2" style="fill: steelblue;"></circle><circle cx="56.63596207482947" cy="80.05925938487053" r="2" style="fill: steelblue;"></circle><circle cx="28.857462935977512" cy="32.72936791181564" r="2" style="fill: steelblue;"></circle><circle cx="41.09607305791643" cy="63.74516822397709" r="2" style="fill: steelblue;"></circle><circle cx="43.121675650278725" cy="35.38086283951998" r="2" style="fill: steelblue;"></circle><circle cx="99.19108615981209" cy="32.705360278487206" r="2" style="fill: steelblue;"></circle><circle cx="55.80491238894562" cy="16.989222913980484" r="2" style="fill: steelblue;"></circle><circle cx="46.98655588759316" cy="7.898508757352829" r="2" style="fill: steelblue;"></circle><circle cx="82.27870033846962" cy="49.70116786425933" r="2" style="fill: steelblue;"></circle><circle cx="57.343363761901855" cy="36.558252945542336" r="2" style="fill: steelblue;"></circle><circle cx="72.20655017428928" cy="82.02618286013603" r="2" style="fill: steelblue;"></circle><circle cx="44.110143350230324" cy="68.32079887390137" r="2" style="fill: steelblue;"></circle><circle cx="73.29250375429788" cy="61.4041306078434" r="2" style="fill: steelblue;"></circle><circle cx="49.255667047368156" cy="37.00642865151167" r="2" style="fill: steelblue;"></circle><circle cx="60.77977642416954" cy="44.208384305238724" r="2" style="fill: steelblue;"></circle><circle cx="79.77269755469429" cy="70.14730498194695" r="2" style="fill: steelblue;"></circle><circle cx="70.71881658501094" cy="88.37233036756516" r="2" style="fill: steelblue;"></circle><circle cx="48.105591701136696" cy="80.74638172984123" r="2" style="fill: steelblue;"></circle><circle cx="21.40348156293233" cy="76.62783861160278" r="2" style="fill: steelblue;"></circle><circle cx="51.74264601535267" cy="61.45884022116661" r="2" style="fill: steelblue;"></circle><circle cx="47.724471324019966" cy="56.67873350903392" r="2" style="fill: steelblue;"></circle><circle cx="43.0161671506034" cy="71.60855382680893" r="2" style="fill: steelblue;"></circle><circle cx="53.80467635889848" cy="60.09172108024359" r="2" style="fill: steelblue;"></circle><circle cx="42.90663368172115" cy="82.58678317070007" r="2" style="fill: steelblue;"></circle><circle cx="32.408396402994796" cy="70.15595883131027" r="2" style="fill: steelblue;"></circle><circle cx="45.27442571189668" cy="75.14935471117496" r="2" style="fill: steelblue;"></circle><circle cx="34.79718665281932" cy="81.57594799995422" r="2" style="fill: steelblue;"></circle><circle cx="22.398349311616688" cy="63.98932188749313" r="2" style="fill: steelblue;"></circle><circle cx="54.84615561241905" cy="98.47020283341408" r="2" style="fill: steelblue;"></circle><circle cx="38.49939339690739" cy="66.38400554656982" r="2" style="fill: steelblue;"></circle><circle cx="9.036269452836779" cy="74.32615868747234" r="2" style="fill: steelblue;"></circle><circle cx="29.993202951219345" cy="82.17903524637222" r="2" style="fill: steelblue;"></circle><circle cx="28.472907013363308" cy="70.2196966856718" r="2" style="fill: steelblue;"></circle><circle cx="63.876877228418984" cy="39.27001189440489" r="2" style="fill: steelblue;"></circle><circle cx="66.9176677862803" cy="35.59000063687563" r="2" style="fill: steelblue;"></circle><circle cx="47.535238994492424" cy="49.92425743403146" r="2" style="fill: steelblue;"></circle><circle cx="49.918874684307305" cy="54.599090199917555" r="2" style="fill: steelblue;"></circle><circle cx="78.98584670490688" cy="38.187430426478386" r="2" style="fill: steelblue;"></circle><circle cx="87.66827980677286" cy="2.6194818317890167" r="2" style="fill: steelblue;"></circle><circle cx="67.07715822590721" cy="55.3672743961215" r="2" style="fill: steelblue;"></circle><circle cx="71.8827893336614" cy="31.002336367964745" r="2" style="fill: steelblue;"></circle><circle cx="82.85179237524667" cy="33.60838368535042" r="2" style="fill: steelblue;"></circle><circle cx="65.45674138598972" cy="72.06572331488132" r="2" style="fill: steelblue;"></circle><circle cx="83.49690503544277" cy="23.498858511447906" r="2" style="fill: steelblue;"></circle><circle cx="75.64431760046217" cy="0.18631964921951294" r="2" style="fill: steelblue;"></circle><circle cx="81.77136050330269" cy="64.15936648845673" r="2" style="fill: steelblue;"></circle><circle cx="40.45236772961086" cy="83.77585485577583" r="2" style="fill: steelblue;"></circle><circle cx="34.34442480405171" cy="53.80933820270002" r="2" style="fill: steelblue;"></circle><circle cx="45.12871884637409" cy="35.55729724466801" r="2" style="fill: steelblue;"></circle><circle cx="51.851703474919" cy="78.31404656171799" r="2" style="fill: steelblue;"></circle><circle cx="69.50952940517001" cy="63.51502910256386" r="2" style="fill: steelblue;"></circle><circle cx="44.27899503045612" cy="64.50078375637531" r="2" style="fill: steelblue;"></circle><circle cx="71.66182498137155" cy="42.44275502860546" r="2" style="fill: steelblue;"></circle><circle cx="73.6499097612169" cy="36.92747391760349" r="2" style="fill: steelblue;"></circle><circle cx="83.2112795776791" cy="18.33045408129692" r="2" style="fill: steelblue;"></circle><circle cx="77.9829505417082" cy="19.108641147613525" r="2" style="fill: steelblue;"></circle><circle cx="92.77056323157417" cy="48.12370678409934" r="2" style="fill: steelblue;"></circle><circle cx="54.21664917634593" cy="17.727679759263992" r="2" style="fill: steelblue;"></circle><circle cx="97.7058642440372" cy="67.94887147843838" r="2" style="fill: steelblue;"></circle><circle cx="99.02137849065993" cy="22.623322159051895" r="2" style="fill: steelblue;"></circle><circle cx="57.95075433949629" cy="56.59336568787694" r="2" style="fill: steelblue;"></circle><circle cx="65.86248427629471" cy="38.37574664503336" r="2" style="fill: steelblue;"></circle><circle cx="79.9728747871187" cy="69.36766132712364" r="2" style="fill: steelblue;"></circle><circle cx="82.14291764630211" cy="42.5724514760077" r="2" style="fill: steelblue;"></circle><circle cx="48.96652284595701" cy="59.08519700169563" r="2" style="fill: steelblue;"></circle><circle cx="56.31397669720981" cy="35.09315587580204" r="2" style="fill: steelblue;"></circle><circle cx="72.0842033624649" cy="47.32669396325946" r="2" style="fill: steelblue;"></circle><circle cx="32.075014379289414" cy="34.28741656243801" r="2" style="fill: steelblue;"></circle><circle cx="33.47332278887431" cy="49.5982134132646" r="2" style="fill: steelblue;"></circle><circle cx="80.60212433338165" cy="27.32384502887726" r="2" style="fill: steelblue;"></circle><circle cx="47.27758963902791" cy="25.508389994502068" r="2" style="fill: steelblue;"></circle><circle cx="63.32179572847154" cy="25.045278668403625" r="2" style="fill: steelblue;"></circle><circle cx="82.38564762804243" cy="32.897380366921425" r="2" style="fill: steelblue;"></circle><circle cx="79.63133686118655" cy="20.694605261087418" r="2" style="fill: steelblue;"></circle><circle cx="91.35984712176852" cy="38.025703467428684" r="2" style="fill: steelblue;"></circle><circle cx="54.723033733252024" cy="75.68257972598076" r="2" style="fill: steelblue;"></circle><circle cx="47.0253543721305" cy="64.67801537364721" r="2" style="fill: steelblue;"></circle><circle cx="37.654929690890846" cy="68.35197769105434" r="2" style="fill: steelblue;"></circle><circle cx="42.716819379064766" cy="31.076357886195183" r="2" style="fill: steelblue;"></circle><circle cx="32.21140305201213" cy="57.88709335029125" r="2" style="fill: steelblue;"></circle><circle cx="42.4463798602422" cy="69.14486475288868" r="2" style="fill: steelblue;"></circle></g></svg>