<svg xmlns="http://www.w3.org/2000/svg"><rect width="200" height="200" fill="white"></rect><g><circle cx="27.474329206678604" cy="136.80867552757263" r="2" style="fill: steelblue;"></circle><circle cx="58.08343688646953" cy="171.27264075809055" r="2" style="fill: steelblue;"></circle><circle cx="53.728797700670036" cy="119.51622234450446" r="2" style="fill: steelblue;"></circle><circle cx="30.195056067572708" cy="72.50987357563443" r="2" style="fill: steelblue;"></circle><circle cx="111.05192237430148" cy="136.12832493252225" r="2" style="fill: steelblue;"></circle><circle cx="68.6168392499288" cy="128.4720950656467" r="2" style="fill: steelblue;"></circle><circle cx="115.68524804380205" cy="63.96485732661355" r="2" style="fill: steelblue;"></circle><circle cx="48.1893175178104" cy="93.93101301458147" r="2" style="fill: steelblue;"></circle><circle cx="65.75074659453499" cy="94.59801796409819" r="2" style="fill: steelblue;"></circle><circle cx="78.27067739433713" cy="56.690280967288544" r="2" style="fill: steelblue;"></circle><circle cx="70.84478967719609" cy="107.51583543088701" r="2" style="fill: steelblue;"></circle><circle cx="57.585287756390045" cy="69.99235881699457" r="2" style="fill: steelblue;"></circle><circle cx="39.83880281448365" cy="124.58256747987535" r="2" style="fill: steelblue;"></circle><circle cx="60.76588431994121" cy="144.2462424437205" r="2" style="fill: steelblue;"></circle><circle cx="41.50315324465434" cy="83.6058047082689" r="2" style="fill: steelblue;"></circle><circle cx="13.159459167056617" cy="37.4908102883233" r="2" style="fill: steelblue;"></circle><circle cx="102.99865769015419" cy="168.66012944115533" r="2" style="fill: steelblue;"></circle><circle cx="139.32905462053085" cy="153.44991816414728" r="2" style="fill: steelblue;"></circle><circle cx="101.16747303141489" cy="65.25600320763058" r="2" style="fill: steelblue;"></circle><circle cx="63.29820917712318" cy="93.9514524406857" r="2" style="fill: steelblue;"></circle><circle cx="52.760695748858986" cy="57.981529500749375" r="2" style="fill: steelblue;"></circle><circle cx="149.69861374961008" cy="102.16045743889279" r="2" style="fill: steelblue;"></circle><circle cx="96.24482641617458" cy="49.427921904457946" r="2" style="fill: steelblue;"></circle><circle cx="47.35386239157783" cy="102.72984074221716" r="2" style="fill: steelblue;"></circle><circle cx="45.344593127568565" cy="39.02061316702101" r="2" style="fill: steelblue;"></circle><circle cx="41.757227977116905" cy="94.14812872807185" r="2" style="fill: steelblue;"></circle><circle cx="16.562248600853817" cy="141.4165516694387" r="2" style="fill: steelblue;"></circle><circle cx="134.38357445928787" cy="92.78519774476688" r="2" style="fill: steelblue;"></circle><circle cx="51.29202074474759" cy="125.21845300992331" r="2" style="fill: steelblue;"></circle><circle cx="89.67198656044073" cy="124.70953199598524" r="2" style="fill: steelblue;"></circle><circle cx="162.71064546373154" cy="57.784615622626426" r="2" style="fill: steelblue;"></circle><circle cx="124.85289110077753" cy="75.88819613059361" r="2" style="fill: steelblue;"></circle><circle cx="150.42800903320312" cy="91.3057144317362" r="2" style="fill: steelblue;"></circle><circle cx="134.52808923191495" cy="105.8055794901318" r="2" style="fill: steelblue;"></circle><circle cx="142.00154145558673" cy="68.34153532981873" r="2" style="fill: steelblue;"></circle><circle cx="51.26282109154595" cy="135.58879031075372" r="2" style="fill: steelblue;"></circle><circle cx="74.77284173170726" cy="29.966624577840186" r="2" style="fill: steelblue;"></circle><circle cx="58.56254564391242" cy="105.34980263974931" r="2" style="fill: steelblue;"></circle><circle cx="85.92273617784183" cy="75.38028342856302" r="2" style="fill: steelblue;"></circle><circle cx="57.66742295689053" cy="59.82101162274678" r="2" style="fill: steelblue;"></circle><circle cx="16.571275393168136" cy="79.0920012527042" r="2" style="fill: steelblue;"></circle><circle cx="106.90622395939297" cy="24.369708697001148" r="2" style="fill: steelblue;"></circle><circle cx="132.92536338170368" cy="44.576070706049606" r="2" style="fill: steelblue;"></circle><circle cx="109.26728480392032" cy="80.5758406718572" r="2" style="fill: steelblue;"></circle><circle cx="118.9341531859504" cy="62.48087220721774" r="2" style="fill: steelblue;"></circle><circle cx="146.15918397903442" cy="53.67016990979512" r="2" style="fill: steelblue;"></circle><circle cx="107.42835402488708" cy="90.16305779417355" r="2" style="fill: steelblue;"></circle><circle cx="33.6308499177297" cy="133.89581309424506" r="2" style="fill: steelblue;"></circle><circle cx="30.640965037875713" cy="115.4924237065845" r="2" style="fill: steelblue;"></circle><circle cx="92.95002942283949" cy="139.8550060060289" r="2" style="fill: steelblue;"></circle><circle cx="89.74566716286871" cy="113.63581518332164" r="2" style="fill: steelblue;"></circle><circle cx="131.89052409595914" cy="74.24228423171573" r="2" style="fill: steelblue;"></circle><circle cx="43.55614582697551" cy="76.50684846772089" r="2" style="fill: steelblue;"></circle><circle cx="93.96461637483704" cy="105.22088441583846" r="2" style="fill: steelblue;"></circle><circle cx="60.65267523129781" cy="25.60985618167453" r="2" style="fill: steelblue;"></circle><circle cx="91.76182800696957" cy="93.70045728153653" r="2" style="fill: steelblue;"></circle><circle cx="69.908912314309" cy="102.45471977525287" r="2" style="fill: steelblue;"></circle><circle cx="55.24362987942166" cy="107.56615002950033" r="2" style="fill: steelblue;"></circle><circle cx="117.5150626235538" cy="159.12854539023505" r="2" style="fill: steelblue;"></circle><circle cx="123.91439941194322" cy="145.82280185487534" r="2" style="fill: steelblue;"></circle><circle cx="36.90866496827868" cy="141.98575615882874" r="2" style="fill: steelblue;"></circle><circle cx="97.5860873858134" cy="113.05637856324515" r="2" style="fill: steelblue;"></circle><circle cx="86.63551977111233" cy="100.53409669134352" r="2" style="fill: steelblue;"></circle><circle cx="15.086033609178337" cy="120.83014713393317" r="2" style="fill: steelblue;"></circle><circle cx="25.45618216196696" cy="181.52777221467758" r="2" style="fill: steelblue;"></circle><circle cx="6.400126881069612" cy="145.61107291115655" r="2" style="fill: steelblue;"></circle><circle cx="62.511568599277076" cy="133.10161431630453" r="2" style="fill: steelblue;"></circle><circle cx="19.0047476026747" cy="147.13140196270413" r="2" style="fill: steelblue;"></circle><circle cx="52.899465296003555" cy="168.40752495659723" r="2" style="fill: steelblue;"></circle><circle cx="111.22845477528043" cy="133.76825584305658" r="2" style="fill: steelblue;"></circle><circle cx="91.51406764156289" cy="126.06872320175171" r="2" style="fill: steelblue;"></circle><circle cx="143.08393862512375" cy="34.75203646553888" r="2" style="fill: steelblue;"></circle><circle cx="56.948117415110275" cy="132.47027860747443" r="2" style="fill: steelblue;"></circle><circle cx="76.8474045726988" cy="49.12252426147461" r="2" style="fill: steelblue;"></circle><circle cx="114.01719384723239" cy="81.54168095853593" r="2" style="fill: steelblue;"></circle><circle cx="164.31575218836468" cy="109.64849458800421" r="2" style="fill: steelblue;"></circle><circle cx="81.96446829371983" cy="119.21808984544542" r="2" style="fill: steelblue;"></circle><circle cx="146.49278455310397" cy="133.2753088739183" r="2" style="fill: steelblue;"></circle><circle cx="160.3819449742635" cy="63.18354143036737" r="2" style="fill: steelblue;"></circle><circle cx="166.20647774802313" cy="88.99962600165357" r="2" style="fill: steelblue;"></circle><circle cx="128.9383027288649" cy="41.00888503922357" r="2" style="fill: steelblue;"></circle><circle cx="139.50075904528302" cy="7.125363085005021" r="2" style="fill: steelblue;"></circle><circle cx="49.20057985517714" cy="89.32848411301772" r="2" style="fill: steelblue;"></circle><circle cx="95.97423457437093" cy="107.84410470061832" r="2" style="fill: steelblue;"></circle><circle cx="65.33410516050128" cy="98.4819758269522" r="2" style="fill: steelblue;"></circle><circle cx="136.16587585873074" cy="100.78424496783151" r="2" style="fill: steelblue;"></circle><circle cx="99.73187529378468" cy="108.61975484424167" r="2" style="fill: steelblue;"></circle><circle cx="52.4756133556366" cy="127.89697315957811" r="2" style="fill: steelblue;"></circle><circle cx="135.1758427090115" cy="63.45937351385753" r="2" style="fill: steelblue;"></circle><circle cx="87.2593120775289" cy="70.12225886185963" r="2" style="fill: steelblue;"></circle><circle cx="114.74876304467519" cy="113.24866149160597" r="2" style="fill: steelblue;"></circle><circle cx="113.51545684867435" cy="75.29709190130234" r="2" style="fill: steelblue;"></circle><circle cx="76.20983355575139" cy="57.421096828248764" r="2" style="fill: steelblue;"></circle><circle cx="114.13732866446178" cy="38.32558658387926" r="2" style="fill: steelblue;"></circle><circle cx="160.8113235897488" cy="46.5878168741862" r="2" style="fill: steelblue;"></circle><circle cx="133.5449006822374" cy="104.10737527741327" r="2" style="fill: steelblue;"></circle><circle cx="122.68499400880602" cy="1.6599681642320396" r="2" style="fill: steelblue;"></circle><circle cx="51.642267571555244" cy="105.31781646940443" r="2" style="fill: steelblue;"></circle><circle cx="168.5911602444119" cy="53.66595453686185" r="2" style="fill: steelblue;"></circle><circle cx="179.3153338962131" cy="152.74982849756879" r="2" style="fill: steelblue;"></circle><circle cx="91.92132155100505" cy="106.54763413800134" r="2" style="fill: steelblue;"></circle><circle cx="136.07848551538254" cy="106.65627519289653" r="2" style="fill: steelblue;"></circle><circle cx="54.54231831762526" cy="54.28039564026727" r="2" style="fill: steelblue;"></circle><circle cx="180.10895649592084" cy="45.71413199106853" r="2" style="fill: steelblue;"></circle><circle cx="119.2223416434394" cy="170.73077493243747" r="2" style="fill: steelblue;"></circle><circle cx="119.27074723773532" cy="37.54854732089572" r="2" style="fill: steelblue;"></circle><circle cx="105.83132207393646" cy="86.74623850319121" r="2" style="fill: steelblue;"></circle><circle cx="81.04699303706488" cy="73.85732928911845" r="2" style="fill: steelblue;"></circle><circle cx="150.23171769248114" cy="75.7575187418196" r="2" style="fill: steelblue;"></circle><circle cx="178.88872358534073" cy="23.925985230339908" r="2" style="fill: steelblue;"></circle><circle cx="147.60070906745065" cy="122.76606957117717" r="2" style="fill: steelblue;"></circle><circle cx="96.25649154186249" cy="85.95727417204115" r="2" style="fill: steelblue;"></circle><circle cx="62.379738026195106" cy="127.3470573955112" r="2" style="fill: steelblue;"></circle><circle cx="121.09739780426025" cy="154.67272731992935" r="2" style="fill: steelblue;"></circle><circle cx="132.04211195309955" cy="155.52216635810004" r="2" style="fill: steelblue;"></circle><circle cx="50.57893395423889" cy="142.5587256749471" r="2" style="fill: steelblue;"></circle><circle cx="54.16868660185072" cy="128.1122088432312" r="2" style="fill: steelblue;"></circle><circle cx="93.31852768858275" cy="120.34476002057394" r="2" style="fill: steelblue;"></circle></g></svg>