<svg xmlns="http://www.w3.org/2000/svg"><g><circle cx="45.8075761795044" cy="155.92598915100098" r="2" style="fill: steelblue;"></circle><circle cx="75.74971802532673" cy="119.3179339170456" r="2" style="fill: steelblue;"></circle><circle cx="80.91256432235241" cy="122.68364280462265" r="2" style="fill: steelblue;"></circle><circle cx="119.01168935000896" cy="108.0680176615715" r="2" style="fill: steelblue;"></circle><circle cx="47.278875857591636" cy="117.66193509101868" r="2" style="fill: steelblue;"></circle><circle cx="125.4985224455595" cy="152.7088761329651" r="2" style="fill: steelblue;"></circle><circle cx="85.67987512797117" cy="72.6104736328125" r="2" style="fill: steelblue;"></circle><circle cx="145.82545906305313" cy="87.31953054666519" r="2" style="fill: steelblue;"></circle><circle cx="28.359456360340126" cy="111.71504482626915" r="2" style="fill: steelblue;"></circle><circle cx="58.69817212224007" cy="90.76889157295227" r="2" style="fill: steelblue;"></circle><circle cx="114.15607333183289" cy="155.91315031051636" r="2" style="fill: steelblue;"></circle><circle cx="67.08068251609802" cy="129.64744865894318" r="2" style="fill: steelblue;"></circle><circle cx="81.80911876261234" cy="182.48198628425598" r="2" style="fill: steelblue;"></circle><circle cx="85.93026772141457" cy="124.31854605674744" r="2" style="fill: steelblue;"></circle><circle cx="21.84127867221833" cy="86.01554930210114" r="2" style="fill: steelblue;"></circle><circle cx="65.1525542140007" cy="147.68075942993164" r="2" style="fill: steelblue;"></circle><circle cx="124.03578720986843" cy="144.05303597450256" r="2" style="fill: steelblue;"></circle><circle cx="154.48181182146072" cy="115.78103452920914" r="2" style="fill: steelblue;"></circle><circle cx="152.05323919653893" cy="63.07042837142944" r="2" style="fill: steelblue;"></circle><circle cx="125.40743537247181" cy="81.5037488937378" r="2" style="fill: steelblue;"></circle><circle cx="145.9514930844307" cy="83.7508425116539" r="2" style="fill: steelblue;"></circle><circle cx="108.55296663939953" cy="78.08136194944382" r="2" style="fill: steelblue;"></circle><circle cx="95.68420322611928" cy="110.798729211092" r="2" style="fill: steelblue;"></circle><circle cx="63.606759905815125" cy="107.10764154791832" r="2" style="fill: steelblue;"></circle><circle cx="133.20103883743286" cy="86.50822341442108" r="2" style="fill: steelblue;"></circle><circle cx="42.635558545589454" cy="143.03799867630005" r="2" style="fill: steelblue;"></circle><circle cx="59.7652405500412" cy="140.45116007328033" r="2" style="fill: steelblue;"></circle><circle cx="73.78750331699848" cy="155.8569371700287" r="2" style="fill: steelblue;"></circle><circle cx="71.93444892764091" cy="85.8555555343628" r="2" style="fill: steelblue;"></circle><circle cx="165.76640903949738" cy="100.45546274632215" r="2" style="fill: steelblue;"></circle><circle cx="85.86125299334526" cy="18.585586547851562" r="2" style="fill: steelblue;"></circle><circle cx="175.87583363056183" cy="19.94186043739319" r="2" style="fill: steelblue;"></circle><circle cx="189.05957639217377" cy="82.3040634393692" r="2" style="fill: steelblue;"></circle><circle cx="98.60150425229222" cy="88.52421417832375" r="2" style="fill: steelblue;"></circle><circle cx="103.70043027214706" cy="82.43581354618073" r="2" style="fill: steelblue;"></circle><circle cx="91.09783582389355" cy="111.09533831477165" r="2" style="fill: steelblue;"></circle><circle cx="15.169224143028265" cy="139.97963964939117" r="2" style="fill: steelblue;"></circle><circle cx="92.83944303169847" cy="129.78314459323883" r="2" style="fill: steelblue;"></circle><circle cx="39.88148123025895" cy="124.10471439361572" r="2" style="fill: steelblue;"></circle><circle cx="134.5412641763687" cy="136.0638678073883" r="2" style="fill: steelblue;"></circle><circle cx="72.50966355204582" cy="125.26279985904694" r="2" style="fill: steelblue;"></circle><circle cx="129.23827432096004" cy="89.28976953029633" r="2" style="fill: steelblue;"></circle><circle cx="134.5892794430256" cy="66.62204563617706" r="2" style="fill: steelblue;"></circle><circle cx="166.02155417203903" cy="113.33245187997818" r="2" style="fill: steelblue;"></circle><circle cx="184.20298248529434" cy="93.68743374943733" r="2" style="fill: steelblue;"></circle><circle cx="100.59766427148134" cy="141.3397639989853" r="2" style="fill: steelblue;"></circle><circle cx="126.88349410891533" cy="69.62160766124725" r="2" style="fill: steelblue;"></circle><circle cx="35.94763427972794" cy="134.4730108976364" r="2" style="fill: steelblue;"></circle><circle cx="63.358402252197266" cy="145.15734314918518" r="2" style="fill: steelblue;"></circle><circle cx="77.1917387843132" cy="125.6983608007431" r="2" style="fill: steelblue;"></circle><circle cx="125.98714269697666" cy="131.04012310504913" r="2" style="fill: steelblue;"></circle><circle cx="111.58323138952255" cy="75.74114054441452" r="2" style="fill: steelblue;"></circle><circle cx="59.70539003610611" cy="85.66936254501343" r="2" style="fill: steelblue;"></circle><circle cx="23.255339264869697" cy="98.63613061606884" r="2" style="fill: steelblue;"></circle><circle cx="38.50723654031754" cy="115.88403135538101" r="2" style="fill: steelblue;"></circle><circle cx="46.74432277679444" cy="125.69619417190552" r="2" style="fill: steelblue;"></circle><circle cx="77.08231955766678" cy="128.36166620254517" r="2" style="fill: steelblue;"></circle><circle cx="86.64253298193216" cy="111.60429641604424" r="2" style="fill: steelblue;"></circle><circle cx="56.78289234638214" cy="135.46249270439148" r="2" style="fill: steelblue;"></circle><circle cx="79.81655783951283" cy="140.1703178882599" r="2" style="fill: steelblue;"></circle><circle cx="34.82643365859986" cy="158.7792694568634" r="2" style="fill: steelblue;"></circle><circle cx="59.688082337379456" cy="109.47982296347618" r="2" style="fill: steelblue;"></circle><circle cx="49.70129057765008" cy="153.50245237350464" r="2" style="fill: steelblue;"></circle><circle cx="36.84810400009156" cy="108.58712568879128" r="2" style="fill: steelblue;"></circle><circle cx="72.02135622501373" cy="126.10876560211182" r="2" style="fill: steelblue;"></circle><circle cx="3.05959433317185" cy="164.29778337478638" r="2" style="fill: steelblue;"></circle><circle cx="67.23198890686035" cy="96.80452384054661" r="2" style="fill: steelblue;"></circle><circle cx="51.34768262505531" cy="104.55095618963242" r="2" style="fill: steelblue;"></circle><circle cx="35.64192950725556" cy="147.56902158260345" r="2" style="fill: steelblue;"></circle><circle cx="59.56060662865639" cy="161.2219214439392" r="2" style="fill: steelblue;"></circle><circle cx="121.45997621119022" cy="53.94520163536072" r="2" style="fill: steelblue;"></circle><circle cx="128.81999872624874" cy="35.18820405006409" r="2" style="fill: steelblue;"></circle><circle cx="100.15148513193708" cy="74.84897375106812" r="2" style="fill: steelblue;"></circle><circle cx="90.80181960016489" cy="144.72602009773254" r="2" style="fill: steelblue;"></circle><circle cx="123.62513914704323" cy="109.35337916016579" r="2" style="fill: steelblue;"></circle><circle cx="194.76103633642197" cy="112.8358706831932" r="2" style="fill: steelblue;"></circle><circle cx="89.265451207757" cy="117.03604757785797" r="2" style="fill: steelblue;"></circle><circle cx="137.9953272640705" cy="81.82727843523026" r="2" style="fill: steelblue;"></circle><circle cx="132.78323262929916" cy="63.03649544715881" r="2" style="fill: steelblue;"></circle><circle cx="55.86855337023735" cy="41.42251014709473" r="2" style="fill: steelblue;"></circle><circle cx="153.0022829771042" cy="61.69603765010834" r="2" style="fill: steelblue;"></circle><circle cx="199.62736070156097" cy="113.93635720014572" r="2" style="fill: steelblue;"></circle><circle cx="71.68126702308655" cy="96.751419454813" r="2" style="fill: steelblue;"></circle><circle cx="32.44829028844834" cy="159.7102403640747" r="2" style="fill: steelblue;"></circle><circle cx="92.38132359459996" cy="121.95092886686325" r="2" style="fill: steelblue;"></circle><circle cx="128.885405510664" cy="136.8717908859253" r="2" style="fill: steelblue;"></circle><circle cx="43.37190687656403" cy="121.11086249351501" r="2" style="fill: steelblue;"></circle><circle cx="72.96994179487228" cy="127.13841199874878" r="2" style="fill: steelblue;"></circle><circle cx="70.99843248724937" cy="51.22717022895813" r="2" style="fill: steelblue;"></circle><circle cx="115.11448994278908" cy="134.02971625328064" r="2" style="fill: steelblue;"></circle><circle cx="126.14505216479301" cy="75.29169768095016" r="2" style="fill: steelblue;"></circle><circle cx="163.33909183740616" cy="124.0397959947586" r="2" style="fill: steelblue;"></circle><circle cx="161.78271770477295" cy="61.0691636800766" r="2" style="fill: steelblue;"></circle><circle cx="103.75258643180132" cy="60.947662591934204" r="2" style="fill: steelblue;"></circle><circle cx="164.54464048147202" cy="45.220768451690674" r="2" style="fill: steelblue;"></circle><circle cx="64.10225704312325" cy="37.94671297073364" r="2" style="fill: steelblue;"></circle><circle cx="154.7533556818962" cy="68.97996068000793" r="2" style="fill: steelblue;"></circle><circle cx="86.81326862424612" cy="78.50109785795212" r="2" style="fill: steelblue;"></circle><circle cx="123.24850670993328" cy="88.33006247878075" r="2" style="fill: steelblue;"></circle><circle cx="61.264677345752716" cy="136.31125390529633" r="2" style="fill: steelblue;"></circle><circle cx="114.8550970479846" cy="73.43079149723053" r="2" style="fill: steelblue;"></circle><circle cx="81.82960599660873" cy="75.57941675186157" r="2" style="fill: steelblue;"></circle><circle cx="129.81368824839592" cy="86.20559871196747" r="2" style="fill: steelblue;"></circle><circle cx="105.34661207348108" cy="92.05129146575928" r="2" style="fill: steelblue;"></circle><circle cx="131.42516687512398" cy="83.72947126626968" r="2" style="fill: steelblue;"></circle><circle cx="100.8035731734708" cy="34.392303228378296" r="2" style="fill: steelblue;"></circle><circle cx="145.35230994224548" cy="77.43208557367325" r="2" style="fill: steelblue;"></circle><circle cx="148.98322001099586" cy="112.51825094223022" r="2" style="fill: steelblue;"></circle><circle cx="149.90944266319275" cy="69.75280940532684" r="2" style="fill: steelblue;"></circle><circle cx="134.20523926615715" cy="113.18219751119614" r="2" style="fill: steelblue;"></circle><circle cx="158.61078947782516" cy="35.945481061935425" r="2" style="fill: steelblue;"></circle><circle cx="123.94859306514263" cy="70.4345852136612" r="2" style="fill: steelblue;"></circle><circle cx="48.63484054803849" cy="99.8408721294254" r="2" style="fill: steelblue;"></circle><circle cx="70.64396925270557" cy="124.48189109563828" r="2" style="fill: steelblue;"></circle><circle cx="63.29604461789131" cy="144.88586485385895" r="2" style="fill: steelblue;"></circle><circle cx="137.84728422760963" cy="132.4004352092743" r="2" style="fill: steelblue;"></circle><circle cx="84.2258132994175" cy="102.77204401791096" r="2" style="fill: steelblue;"></circle><circle cx="61.71027049422264" cy="144.83402371406555" r="2" style="fill: steelblue;"></circle></g></svg>