<svg xmlns="http://www.w3.org/2000/svg"><rect width="200" height="200" fill="white"></rect><g><circle cx="44.839119911193855" cy="150.55926367640495" r="2" style="fill: steelblue;"></circle><circle cx="33.82271379232407" cy="189.74582701921463" r="2" style="fill: steelblue;"></circle><circle cx="107.98446778208017" cy="119.84838023781776" r="2" style="fill: steelblue;"></circle><circle cx="58.62136408686638" cy="190.386800467968" r="2" style="fill: steelblue;"></circle><circle cx="31.0838207602501" cy="91.44833162426949" r="2" style="fill: steelblue;"></circle><circle cx="90.83706457167864" cy="87.16834001243114" r="2" style="fill: steelblue;"></circle><circle cx="61.012840270996094" cy="107.53079866990447" r="2" style="fill: steelblue;"></circle><circle cx="10.106696188449865" cy="88.43353521078825" r="2" style="fill: steelblue;"></circle><circle cx="58.13887193799019" cy="131.88197314739227" r="2" style="fill: steelblue;"></circle><circle cx="51.11504569649696" cy="169.88425552845" r="2" style="fill: steelblue;"></circle><circle cx="69.24636699259281" cy="62.61921897530556" r="2" style="fill: steelblue;"></circle><circle cx="123.16681295633316" cy="5.796945095062256" r="2" style="fill: steelblue;"></circle><circle cx="69.7593878954649" cy="149.10908639431" r="2" style="fill: steelblue;"></circle><circle cx="109.66728664934635" cy="50.05292817950249" r="2" style="fill: steelblue;"></circle><circle cx="37.6356489956379" cy="128.8969650864601" r="2" style="fill: steelblue;"></circle><circle cx="60.21440997719765" cy="106.49724807590246" r="2" style="fill: steelblue;"></circle><circle cx="127.25536562502384" cy="113.40391393750906" r="2" style="fill: steelblue;"></circle><circle cx="76.92357376217842" cy="181.20658993721008" r="2" style="fill: steelblue;"></circle><circle cx="82.71895945072174" cy="94.80910412967205" r="2" style="fill: steelblue;"></circle><circle cx="159.28080528974533" cy="61.817700415849686" r="2" style="fill: steelblue;"></circle><circle cx="134.41784158349037" cy="85.67312117666006" r="2" style="fill: steelblue;"></circle><circle cx="82.16805420815945" cy="37.98612803220749" r="2" style="fill: steelblue;"></circle><circle cx="55.172549933195114" cy="132.16257318854332" r="2" style="fill: steelblue;"></circle><circle cx="56.71515539288521" cy="76.25332325696945" r="2" style="fill: steelblue;"></circle><circle cx="42.25306436419488" cy="128.11694703996181" r="2" style="fill: steelblue;"></circle><circle cx="16.22892767190934" cy="174.85520094633102" r="2" style="fill: steelblue;"></circle><circle cx="55.02880588173866" cy="182.9845741391182" r="2" style="fill: steelblue;"></circle><circle cx="105.57361822575331" cy="100.61966344946995" r="2" style="fill: steelblue;"></circle><circle cx="20.503139495849616" cy="88.88835497200489" r="2" style="fill: steelblue;"></circle><circle cx="95.12942042201757" cy="199.8760685324669" r="2" style="fill: steelblue;"></circle><circle cx="153.3955730497837" cy="36.45084649324417" r="2" style="fill: steelblue;"></circle><circle cx="177.98639684915543" cy="116.56470634043217" r="2" style="fill: steelblue;"></circle><circle cx="137.0473824441433" cy="75.42893327772617" r="2" style="fill: steelblue;"></circle><circle cx="139.11687433719635" cy="28.51272225379944" r="2" style="fill: steelblue;"></circle><circle cx="130.73105216026306" cy="129.6773985028267" r="2" style="fill: steelblue;"></circle><circle cx="150.13149604201317" cy="55.842483788728714" r="2" style="fill: steelblue;"></circle><circle cx="134.0101607143879" cy="130.2347056567669" r="2" style="fill: steelblue;"></circle><circle cx="86.63893155753613" cy="158.51049348711967" r="2" style="fill: steelblue;"></circle><circle cx="38.78355249762536" cy="108.69902689009905" r="2" style="fill: steelblue;"></circle><circle cx="38.23760002851487" cy="89.56817481666803" r="2" style="fill: steelblue;"></circle><circle cx="100.51535002421588" cy="118.37942376732826" r="2" style="fill: steelblue;"></circle><circle cx="65.80271795392036" cy="10.964258015155792" r="2" style="fill: steelblue;"></circle><circle cx="184.89194512367249" cy="69.18060444295406" r="2" style="fill: steelblue;"></circle><circle cx="123.73718284070492" cy="123.85162189602852" r="2" style="fill: steelblue;"></circle><circle cx="142.98295453190804" cy="44.84138861298561" r="2" style="fill: steelblue;"></circle><circle cx="86.05675995349884" cy="109.49870608747005" r="2" style="fill: steelblue;"></circle><circle cx="105.70288673043251" cy="101.1458876542747" r="2" style="fill: steelblue;"></circle><circle cx="165.36471843719482" cy="111.10097113996744" r="2" style="fill: steelblue;"></circle><circle cx="54.85108718276024" cy="117.28502847254276" r="2" style="fill: steelblue;"></circle><circle cx="61.907170712947845" cy="89.73971512168646" r="2" style="fill: steelblue;"></circle><circle cx="110.49505174160004" cy="95.18433259800076" r="2" style="fill: steelblue;"></circle><circle cx="114.07797075808048" cy="172.4933072924614" r="2" style="fill: steelblue;"></circle><circle cx="134.31224077939987" cy="110.83032134920359" r="2" style="fill: steelblue;"></circle><circle cx="153.87414246797562" cy="106.39878492802382" r="2" style="fill: steelblue;"></circle><circle cx="74.14048947393894" cy="148.97627606987953" r="2" style="fill: steelblue;"></circle><circle cx="15.205150842666631" cy="121.8740813434124" r="2" style="fill: steelblue;"></circle><circle cx="20.292034745216377" cy="168.29936802387238" r="2" style="fill: steelblue;"></circle><circle cx="112.74890638887882" cy="121.50632813572884" r="2" style="fill: steelblue;"></circle><circle cx="63.184718042612076" cy="198.59977662563324" r="2" style="fill: steelblue;"></circle><circle cx="81.03160224854946" cy="166.6128769516945" r="2" style="fill: steelblue;"></circle><circle cx="91.36549420654774" cy="152.96799167990685" r="2" style="fill: steelblue;"></circle><circle cx="166.38634204864502" cy="103.4113007131964" r="2" style="fill: steelblue;"></circle><circle cx="19.58588361740113" cy="139.8879311978817" r="2" style="fill: steelblue;"></circle><circle cx="44.902453571558006" cy="127.78254449367523" r="2" style="fill: steelblue;"></circle><circle cx="107.57751567289233" cy="110.61720959842205" r="2" style="fill: steelblue;"></circle><circle cx="128.15829403698444" cy="139.4754558801651" r="2" style="fill: steelblue;"></circle><circle cx="93.06948808953166" cy="156.65745958685875" r="2" style="fill: steelblue;"></circle><circle cx="28.40364575386048" cy="172.34547287225723" r="2" style="fill: steelblue;"></circle><circle cx="17.634896934032447" cy="119.81434971094131" r="2" style="fill: steelblue;"></circle><circle cx="94.39859995618463" cy="150.327867269516" r="2" style="fill: steelblue;"></circle><circle cx="44.201130419969566" cy="161.50270625948906" r="2" style="fill: steelblue;"></circle><circle cx="157.14939534664154" cy="40.83165377378464" r="2" style="fill: steelblue;"></circle><circle cx="121.49667218327522" cy="20.77627032995224" r="2" style="fill: steelblue;"></circle><circle cx="151.17957293987274" cy="71.65587916970253" r="2" style="fill: steelblue;"></circle><circle cx="134.55526754260063" cy="70.09625472128391" r="2" style="fill: steelblue;"></circle><circle cx="99.17092459509149" cy="41.44290313124657" r="2" style="fill: steelblue;"></circle><circle cx="151.15396156907082" cy="73.05196337401867" r="2" style="fill: steelblue;"></circle><circle cx="141.13710299134254" cy="24.293309450149536" r="2" style="fill: steelblue;"></circle><circle cx="110.58522425591946" cy="49.75486770272255" r="2" style="fill: steelblue;"></circle><circle cx="98.66241856943816" cy="24.998141825199127" r="2" style="fill: steelblue;"></circle><circle cx="94.069529697299" cy="139.30839523673058" r="2" style="fill: steelblue;"></circle><circle cx="163.49226087331772" cy="44.20280307531357" r="2" style="fill: steelblue;"></circle><circle cx="138.9348454773426" cy="60.874494165182114" r="2" style="fill: steelblue;"></circle><circle cx="47.688348591327674" cy="93.21697978302836" r="2" style="fill: steelblue;"></circle><circle cx="27.179493010044105" cy="111.75695564597845" r="2" style="fill: steelblue;"></circle><circle cx="68.64882484078407" cy="135.13434529304504" r="2" style="fill: steelblue;"></circle><circle cx="69.56318616867065" cy="121.14692702889442" r="2" style="fill: steelblue;"></circle><circle cx="135.42011603713036" cy="92.16283764690161" r="2" style="fill: steelblue;"></circle><circle cx="66.88297763466835" cy="81.0892678797245" r="2" style="fill: steelblue;"></circle><circle cx="127.97766029834747" cy="66.83409810066223" r="2" style="fill: steelblue;"></circle><circle cx="139.86821696162224" cy="39.38932940363884" r="2" style="fill: steelblue;"></circle><circle cx="135.142183303833" cy="24.515031278133392" r="2" style="fill: steelblue;"></circle><circle cx="132.1536846458912" cy="55.64253255724907" r="2" style="fill: steelblue;"></circle><circle cx="160.69903448224068" cy="54.224806278944016" r="2" style="fill: steelblue;"></circle><circle cx="145.96327617764473" cy="74.03586097061634" r="2" style="fill: steelblue;"></circle><circle cx="178.86067777872086" cy="52.93315127491951" r="2" style="fill: steelblue;"></circle><circle cx="170.40070742368698" cy="12.81149536371231" r="2" style="fill: steelblue;"></circle><circle cx="146.08828574419022" cy="142.8214631974697" r="2" style="fill: steelblue;"></circle><circle cx="114.20264504849911" cy="120.0918223708868" r="2" style="fill: steelblue;"></circle><circle cx="134.85722094774246" cy="83.03046822547913" r="2" style="fill: steelblue;"></circle><circle cx="181.79447054862976" cy="82.57249966263771" r="2" style="fill: steelblue;"></circle><circle cx="117.85262860357761" cy="74.55530986189842" r="2" style="fill: steelblue;"></circle><circle cx="148.83553460240364" cy="87.55958024412394" r="2" style="fill: steelblue;"></circle><circle cx="87.05688863992691" cy="97.12955020368099" r="2" style="fill: steelblue;"></circle><circle cx="89.13370631635189" cy="41.07047840952873" r="2" style="fill: steelblue;"></circle><circle cx="116.47851802408695" cy="35.89547276496887" r="2" style="fill: steelblue;"></circle><circle cx="111.55151054263115" cy="64.77672085165977" r="2" style="fill: steelblue;"></circle><circle cx="85.11823639273643" cy="29.326653480529785" r="2" style="fill: steelblue;"></circle><circle cx="121.55495993793011" cy="118.29788275063038" r="2" style="fill: steelblue;"></circle><circle cx="119.08834651112556" cy="59.922775626182556" r="2" style="fill: steelblue;"></circle><circle cx="162.33647838234901" cy="65.10112285614014" r="2" style="fill: steelblue;"></circle><circle cx="136.32568940520287" cy="103.31758637912571" r="2" style="fill: steelblue;"></circle><circle cx="92.98000475391746" cy="164.0370100736618" r="2" style="fill: steelblue;"></circle><circle cx="37.994271516799934" cy="175.6722018122673" r="2" style="fill: steelblue;"></circle><circle cx="19.726394116878517" cy="164.45839256048203" r="2" style="fill: steelblue;"></circle><circle cx="120.63090167939663" cy="162.41824105381966" r="2" style="fill: steelblue;"></circle><circle cx="35.551963746547706" cy="140.40320590138435" r="2" style="fill: steelblue;"></circle><circle cx="109.54485405236483" cy="98.02506202831864" r="2" style="fill: steelblue;"></circle></g></svg>