<svg xmlns="http://www.w3.org/2000/svg"><g><circle cx="31.595662236213684" cy="59.86006483435631" r="2" style="fill: steelblue;"></circle><circle cx="14.363679620954725" cy="78.86252291500568" r="2" style="fill: steelblue;"></circle><circle cx="40.241888827747765" cy="58.589296601712704" r="2" style="fill: steelblue;"></circle><circle cx="63.745063212182785" cy="58.065623231232166" r="2" style="fill: steelblue;"></circle><circle cx="31.935837533738876" cy="68.62309128046036" r="2" style="fill: steelblue;"></circle><circle cx="35.763952467176644" cy="47.70366819575429" r="2" style="fill: steelblue;"></circle><circle cx="68.01757133669322" cy="26.151997223496437" r="2" style="fill: steelblue;"></circle><circle cx="53.03449349270927" cy="33.89940708875656" r="2" style="fill: steelblue;"></circle><circle cx="52.700991017950905" cy="36.97670828551054" r="2" style="fill: steelblue;"></circle><circle cx="71.65485951635573" cy="60.77567599713802" r="2" style="fill: steelblue;"></circle><circle cx="46.242082284556496" cy="56.47036638110876" r="2" style="fill: steelblue;"></circle><circle cx="65.00382059150272" cy="70.3578844666481" r="2" style="fill: steelblue;"></circle><circle cx="37.708716260062324" cy="37.004770897328854" r="2" style="fill: steelblue;"></circle><circle cx="27.87687877813975" cy="33.450936153531075" r="2" style="fill: steelblue;"></circle><circle cx="58.19709764586555" cy="78.70569564402103" r="2" style="fill: steelblue;"></circle><circle cx="81.25459485583835" cy="77.52754837274551" r="2" style="fill: steelblue;"></circle><circle cx="15.669935279422337" cy="47.96874122694135" r="2" style="fill: steelblue;"></circle><circle cx="23.275040917926365" cy="24.68847595155239" r="2" style="fill: steelblue;"></circle><circle cx="67.37199839618471" cy="57.66137335449457" r="2" style="fill: steelblue;"></circle><circle cx="53.02427377965715" cy="48.163318959996104" r="2" style="fill: steelblue;"></circle><circle cx="71.00923524962532" cy="54.18608309701085" r="2" style="fill: steelblue;"></circle><circle cx="48.919771280553604" cy="32.19178058207035" r="2" style="fill: steelblue;"></circle><circle cx="75.28603904777103" cy="25.75482353568077" r="2" style="fill: steelblue;"></circle><circle cx="48.63507962889141" cy="85.88198870420456" r="2" style="fill: steelblue;"></circle><circle cx="80.48969341648949" cy="74.24034848809242" r="2" style="fill: steelblue;"></circle><circle cx="52.92593563596407" cy="80.77212907373905" r="2" style="fill: steelblue;"></circle><circle cx="29.29172416528066" cy="54.653267562389374" r="2" style="fill: steelblue;"></circle><circle cx="53.60740112761656" cy="78.05675007402897" r="2" style="fill: steelblue;"></circle><circle cx="37.390773495038346" cy="65.516746789217" r="2" style="fill: steelblue;"></circle><circle cx="37.64523400200738" cy="18.503914773464203" r="2" style="fill: steelblue;"></circle><circle cx="71.10769218868678" cy="58.00041947513819" r="2" style="fill: steelblue;"></circle><circle cx="62.05590193470319" cy="42.053830064833164" r="2" style="fill: steelblue;"></circle><circle cx="54.3471427841319" cy="31.762899085879326" r="2" style="fill: steelblue;"></circle><circle cx="47.0972102549341" cy="44.648938067257404" r="2" style="fill: steelblue;"></circle><circle cx="65.82923233509064" cy="20.654765143990517" r="2" style="fill: steelblue;"></circle><circle cx="32.205604844623146" cy="65.17160050570965" r="2" style="fill: steelblue;"></circle><circle cx="85.01668771107991" cy="47.936663683503866" r="2" style="fill: steelblue;"></circle><circle cx="47.32509868012534" cy="99.69752579927444" r="2" style="fill: steelblue;"></circle><circle cx="62.30985828571849" cy="86.12631186842918" r="2" style="fill: steelblue;"></circle><circle cx="70.08949418862662" cy="68.9944114536047" r="2" style="fill: steelblue;"></circle><circle cx="60.4539993736479" cy="92.74187609553337" r="2" style="fill: steelblue;"></circle><circle cx="87.81514565149942" cy="28.077640756964684" r="2" style="fill: steelblue;"></circle><circle cx="77.71196464697519" cy="22.492652013897896" r="2" style="fill: steelblue;"></circle><circle cx="59.7120796640714" cy="49.61322668241337" r="2" style="fill: steelblue;"></circle><circle cx="68.75956389639113" cy="41.681226529181004" r="2" style="fill: steelblue;"></circle><circle cx="73.16491504510245" cy="39.297859370708466" r="2" style="fill: steelblue;"></circle><circle cx="54.91847110291322" cy="36.54762376099825" r="2" style="fill: steelblue;"></circle><circle cx="33.052093452877465" cy="94.88405957818031" r="2" style="fill: steelblue;"></circle><circle cx="42.25378814670774" cy="44.33088768273592" r="2" style="fill: steelblue;"></circle><circle cx="30.072496996985542" cy="55.079466849565506" r="2" style="fill: steelblue;"></circle><circle cx="43.18209240833918" cy="49.663475435227156" r="2" style="fill: steelblue;"></circle><circle cx="62.878857884142136" cy="39.29260857403278" r="2" style="fill: steelblue;"></circle><circle cx="61.74657576613956" cy="72.77072332799435" r="2" style="fill: steelblue;"></circle><circle cx="47.38955779208077" cy="79.44820374250412" r="2" style="fill: steelblue;"></circle><circle cx="87.19507190916273" cy="63.743394054472446" r="2" style="fill: steelblue;"></circle><circle cx="53.149771359231735" cy="98.34695905447006" r="2" style="fill: steelblue;"></circle><circle cx="48.77264011237356" cy="62.07443047314882" r="2" style="fill: steelblue;"></circle><circle cx="46.21692498524983" cy="55.40652172639966" r="2" style="fill: steelblue;"></circle><circle cx="20.435727304882473" cy="47.11618130095303" r="2" style="fill: steelblue;"></circle><circle cx="27.088599072562324" cy="43.44708537682891" r="2" style="fill: steelblue;"></circle><circle cx="29.007121920585632" cy="61.86748314648867" r="2" style="fill: steelblue;"></circle><circle cx="43.47181071837743" cy="50.97765342798084" r="2" style="fill: steelblue;"></circle><circle cx="49.73295165432824" cy="77.12914906442165" r="2" style="fill: steelblue;"></circle><circle cx="39.58492643303341" cy="97.67845571041107" r="2" style="fill: steelblue;"></circle><circle cx="9.2361138926612" cy="89.05237093567848" r="2" style="fill: steelblue;"></circle><circle cx="27.194463544421726" cy="70.07528580725193" r="2" style="fill: steelblue;"></circle><circle cx="33.44919284184773" cy="96.03442922234535" r="2" style="fill: steelblue;"></circle><circle cx="26.434299018647934" cy="88.22240233421326" r="2" style="fill: steelblue;"></circle><circle cx="15.79623752170139" cy="53.8165885489434" r="2" style="fill: steelblue;"></circle><circle cx="33.11587207847172" cy="82.7371209859848" r="2" style="fill: steelblue;"></circle><circle cx="36.965638399124146" cy="26.406123489141464" r="2" style="fill: steelblue;"></circle><circle cx="82.62398176723056" cy="3.1677402555942535" r="2" style="fill: steelblue;"></circle><circle cx="33.76486069626278" cy="6.8762704730033875" r="2" style="fill: steelblue;"></circle><circle cx="75.4387378692627" cy="45.65636832267046" r="2" style="fill: steelblue;"></circle><circle cx="59.22915952073203" cy="16.094180941581726" r="2" style="fill: steelblue;"></circle><circle cx="45.17575270599789" cy="73.31787534058094" r="2" style="fill: steelblue;"></circle><circle cx="40.39095507727729" cy="18.80715899169445" r="2" style="fill: steelblue;"></circle><circle cx="33.36234556304084" cy="26.528679952025414" r="2" style="fill: steelblue;"></circle><circle cx="68.40822928481631" cy="35.542986541986465" r="2" style="fill: steelblue;"></circle><circle cx="55.500186999173216" cy="12.436378002166748" r="2" style="fill: steelblue;"></circle><circle cx="79.49555748038821" cy="58.30340292304754" r="2" style="fill: steelblue;"></circle><circle cx="96.43731845749748" cy="17.10338070988655" r="2" style="fill: steelblue;"></circle><circle cx="55.33575794349114" cy="72.73881994187832" r="2" style="fill: steelblue;"></circle><circle cx="46.077947649690834" cy="82.68200904130936" r="2" style="fill: steelblue;"></circle><circle cx="50.7590120865239" cy="54.9699442461133" r="2" style="fill: steelblue;"></circle><circle cx="49.60787751608425" cy="53.445679089054465" r="2" style="fill: steelblue;"></circle><circle cx="45.69012257787916" cy="37.100633792579174" r="2" style="fill: steelblue;"></circle><circle cx="36.051513420210945" cy="45.49480667337775" r="2" style="fill: steelblue;"></circle><circle cx="68.27031324307123" cy="41.186121478676796" r="2" style="fill: steelblue;"></circle><circle cx="64.93887056907019" cy="34.93143916130066" r="2" style="fill: steelblue;"></circle><circle cx="43.375669254197014" cy="40.88608007878065" r="2" style="fill: steelblue;"></circle><circle cx="62.35145404934883" cy="47.24749103188515" r="2" style="fill: steelblue;"></circle><circle cx="71.28945158587563" cy="28.19722816348076" r="2" style="fill: steelblue;"></circle><circle cx="80.83720670806038" cy="22.565429285168648" r="2" style="fill: steelblue;"></circle><circle cx="76.70609156290689" cy="21.039844676852226" r="2" style="fill: steelblue;"></circle><circle cx="47.94631236129337" cy="27.26386971771717" r="2" style="fill: steelblue;"></circle><circle cx="99.17001591788399" cy="21.5142622590065" r="2" style="fill: steelblue;"></circle><circle cx="47.34109176529778" cy="85.20764783024788" r="2" style="fill: steelblue;"></circle><circle cx="73.16702273156908" cy="83.37396681308746" r="2" style="fill: steelblue;"></circle><circle cx="23.625085751215614" cy="10.204534232616425" r="2" style="fill: steelblue;"></circle><circle cx="46.726182930999336" cy="9.876447916030884" r="2" style="fill: steelblue;"></circle><circle cx="46.671862403551735" cy="34.92089472711086" r="2" style="fill: steelblue;"></circle><circle cx="72.85980217986636" cy="53.3846590667963" r="2" style="fill: steelblue;"></circle><circle cx="77.14293400446573" cy="87.76995092630386" r="2" style="fill: steelblue;"></circle><circle cx="14.634612533781263" cy="22.489958629012108" r="2" style="fill: steelblue;"></circle><circle cx="81.22572633955214" cy="71.03707939386368" r="2" style="fill: steelblue;"></circle><circle cx="56.626880748404396" cy="49.91266435245052" r="2" style="fill: steelblue;"></circle><circle cx="63.07133535544077" cy="44.116044603288174" r="2" style="fill: steelblue;"></circle><circle cx="62.1212406290902" cy="59.11150500178337" r="2" style="fill: steelblue;"></circle><circle cx="88.03700738483005" cy="27.524109184741974" r="2" style="fill: steelblue;"></circle><circle cx="38.616965214411415" cy="44.537053629755974" r="2" style="fill: steelblue;"></circle><circle cx="57.021362913979424" cy="14.602328836917877" r="2" style="fill: steelblue;"></circle><circle cx="36.32647130224439" cy="66.19577407836914" r="2" style="fill: steelblue;"></circle><circle cx="22.663636340035332" cy="62.023947201669216" r="2" style="fill: steelblue;"></circle><circle cx="22.238916820949978" cy="67.86001399159431" r="2" style="fill: steelblue;"></circle><circle cx="28.720637162526447" cy="96.81795462965965" r="2" style="fill: steelblue;"></circle><circle cx="35.9438955783844" cy="69.37710680067539" r="2" style="fill: steelblue;"></circle><circle cx="39.82761998971303" cy="69.06872726976871" r="2" style="fill: steelblue;"></circle></g></svg>