<svg xmlns="http://www.w3.org/2000/svg"><g><circle cx="37.54728883504868" cy="150.55926367640495" r="2" style="fill: steelblue;"></circle><circle cx="20.184351503849037" cy="189.74582701921463" r="2" style="fill: steelblue;"></circle><circle cx="55.44525235891342" cy="119.84838023781776" r="2" style="fill: steelblue;"></circle><circle cx="16.24425351619721" cy="190.386800467968" r="2" style="fill: steelblue;"></circle><circle cx="43.09391826391221" cy="91.44833162426949" r="2" style="fill: steelblue;"></circle><circle cx="45.35933434963227" cy="87.16834001243114" r="2" style="fill: steelblue;"></circle><circle cx="84.24909450113773" cy="107.53079866990447" r="2" style="fill: steelblue;"></circle><circle cx="104.96531371027231" cy="88.43353521078825" r="2" style="fill: steelblue;"></circle><circle cx="49.63425025343896" cy="131.88197314739227" r="2" style="fill: steelblue;"></circle><circle cx="32.983569800853736" cy="169.88425552845" r="2" style="fill: steelblue;"></circle><circle cx="47.579551488161094" cy="62.61921897530556" r="2" style="fill: steelblue;"></circle><circle cx="90.56337494403124" cy="5.796945095062256" r="2" style="fill: steelblue;"></circle><circle cx="47.851322591304786" cy="149.10908639431" r="2" style="fill: steelblue;"></circle><circle cx="91.74739141017199" cy="50.05292817950249" r="2" style="fill: steelblue;"></circle><circle cx="49.04564321041108" cy="128.8969650864601" r="2" style="fill: steelblue;"></circle><circle cx="130.04711121320724" cy="106.49724807590246" r="2" style="fill: steelblue;"></circle><circle cx="84.41365081816912" cy="113.40391393750906" r="2" style="fill: steelblue;"></circle><circle cx="86.5284888073802" cy="181.20658993721008" r="2" style="fill: steelblue;"></circle><circle cx="81.16308823227882" cy="94.80910412967205" r="2" style="fill: steelblue;"></circle><circle cx="118.47570762038231" cy="61.817700415849686" r="2" style="fill: steelblue;"></circle><circle cx="140.18208384513855" cy="85.67312117666006" r="2" style="fill: steelblue;"></circle><circle cx="173.1847882270813" cy="37.98612803220749" r="2" style="fill: steelblue;"></circle><circle cx="118.3088444173336" cy="132.16257318854332" r="2" style="fill: steelblue;"></circle><circle cx="74.20323826372623" cy="76.25332325696945" r="2" style="fill: steelblue;"></circle><circle cx="110.03882102668285" cy="128.11694703996181" r="2" style="fill: steelblue;"></circle><circle cx="137.15281561017036" cy="174.85520094633102" r="2" style="fill: steelblue;"></circle><circle cx="81.9346684962511" cy="182.9845741391182" r="2" style="fill: steelblue;"></circle><circle cx="44.56809014081956" cy="100.61966344946995" r="2" style="fill: steelblue;"></circle><circle cx="67.53397583961487" cy="88.88835497200489" r="2" style="fill: steelblue;"></circle><circle cx="73.5142383724451" cy="199.8760685324669" r="2" style="fill: steelblue;"></circle><circle cx="164.61980193853378" cy="36.45084649324417" r="2" style="fill: steelblue;"></circle><circle cx="126.98700688779354" cy="116.56470634043217" r="2" style="fill: steelblue;"></circle><circle cx="98.95058060064912" cy="75.42893327772617" r="2" style="fill: steelblue;"></circle><circle cx="44.57903131842614" cy="28.51272225379944" r="2" style="fill: steelblue;"></circle><circle cx="43.861421197652824" cy="129.6773985028267" r="2" style="fill: steelblue;"></circle><circle cx="74.45221059024334" cy="55.842483788728714" r="2" style="fill: steelblue;"></circle><circle cx="86.37863248586655" cy="130.2347056567669" r="2" style="fill: steelblue;"></circle><circle cx="11.097384989261633" cy="158.51049348711967" r="2" style="fill: steelblue;"></circle><circle cx="56.39510825276375" cy="108.69902689009905" r="2" style="fill: steelblue;"></circle><circle cx="120.20628750324249" cy="89.56817481666803" r="2" style="fill: steelblue;"></circle><circle cx="63.10805901885033" cy="118.37942376732826" r="2" style="fill: steelblue;"></circle><circle cx="77.19116695225239" cy="10.964258015155792" r="2" style="fill: steelblue;"></circle><circle cx="93.1574109941721" cy="69.18060444295406" r="2" style="fill: steelblue;"></circle><circle cx="162.51976639032364" cy="123.85162189602852" r="2" style="fill: steelblue;"></circle><circle cx="111.57557684928179" cy="44.84138861298561" r="2" style="fill: steelblue;"></circle><circle cx="176.5140801668167" cy="109.49870608747005" r="2" style="fill: steelblue;"></circle><circle cx="122.14672043919563" cy="101.1458876542747" r="2" style="fill: steelblue;"></circle><circle cx="20.175023376941688" cy="111.10097113996744" r="2" style="fill: steelblue;"></circle><circle cx="96.12004193477333" cy="117.28502847254276" r="2" style="fill: steelblue;"></circle><circle cx="80.99580779671669" cy="89.73971512168646" r="2" style="fill: steelblue;"></circle><circle cx="139.35149684548378" cy="95.18433259800076" r="2" style="fill: steelblue;"></circle><circle cx="93.92895121127367" cy="172.4933072924614" r="2" style="fill: steelblue;"></circle><circle cx="165.43220579624176" cy="110.83032134920359" r="2" style="fill: steelblue;"></circle><circle cx="60.79514920711517" cy="106.39878492802382" r="2" style="fill: steelblue;"></circle><circle cx="99.98965114355087" cy="148.97627606987953" r="2" style="fill: steelblue;"></circle><circle cx="54.33879271149635" cy="121.8740813434124" r="2" style="fill: steelblue;"></circle><circle cx="89.11281116306782" cy="168.29936802387238" r="2" style="fill: steelblue;"></circle><circle cx="111.51526719331741" cy="121.50632813572884" r="2" style="fill: steelblue;"></circle><circle cx="146.3881678879261" cy="198.59977662563324" r="2" style="fill: steelblue;"></circle><circle cx="57.23111182451248" cy="166.6128769516945" r="2" style="fill: steelblue;"></circle><circle cx="67.47179329395294" cy="152.96799167990685" r="2" style="fill: steelblue;"></circle><circle cx="73.31110574305058" cy="103.4113007131964" r="2" style="fill: steelblue;"></circle><circle cx="25.280235707759864" cy="139.8879311978817" r="2" style="fill: steelblue;"></circle><circle cx="37.03637272119523" cy="127.78254449367523" r="2" style="fill: steelblue;"></circle><circle cx="41.059034317731864" cy="110.61720959842205" r="2" style="fill: steelblue;"></circle><circle cx="101.36240769643337" cy="139.4754558801651" r="2" style="fill: steelblue;"></circle><circle cx="32.45252966880799" cy="156.65745958685875" r="2" style="fill: steelblue;"></circle><circle cx="38.446149230003364" cy="172.34547287225723" r="2" style="fill: steelblue;"></circle><circle cx="121.53689414262772" cy="119.81434971094131" r="2" style="fill: steelblue;"></circle><circle cx="88.31429146230221" cy="150.327867269516" r="2" style="fill: steelblue;"></circle><circle cx="43.67974996566773" cy="161.50270625948906" r="2" style="fill: steelblue;"></circle><circle cx="108.74878093600273" cy="40.83165377378464" r="2" style="fill: steelblue;"></circle><circle cx="154.71934750676155" cy="20.77627032995224" r="2" style="fill: steelblue;"></circle><circle cx="146.32263258099556" cy="71.65587916970253" r="2" style="fill: steelblue;"></circle><circle cx="154.92480099201202" cy="70.09625472128391" r="2" style="fill: steelblue;"></circle><circle cx="150.64723640680313" cy="41.44290313124657" r="2" style="fill: steelblue;"></circle><circle cx="153.58610674738884" cy="73.05196337401867" r="2" style="fill: steelblue;"></circle><circle cx="152.3417331278324" cy="24.293309450149536" r="2" style="fill: steelblue;"></circle><circle cx="198.31810742616653" cy="49.75486770272255" r="2" style="fill: steelblue;"></circle><circle cx="169.89457458257675" cy="24.998141825199127" r="2" style="fill: steelblue;"></circle><circle cx="157.15251713991165" cy="139.30839523673058" r="2" style="fill: steelblue;"></circle><circle cx="194.56172585487366" cy="44.20280307531357" r="2" style="fill: steelblue;"></circle><circle cx="101.60771864466369" cy="60.874494165182114" r="2" style="fill: steelblue;"></circle><circle cx="79.7450378537178" cy="93.21697978302836" r="2" style="fill: steelblue;"></circle><circle cx="11.65474802255631" cy="111.75695564597845" r="2" style="fill: steelblue;"></circle><circle cx="90.9477373585105" cy="135.13434529304504" r="2" style="fill: steelblue;"></circle><circle cx="94.27862791344523" cy="121.14692702889442" r="2" style="fill: steelblue;"></circle><circle cx="105.51027338951826" cy="92.16283764690161" r="2" style="fill: steelblue;"></circle><circle cx="113.33172153681517" cy="81.0892678797245" r="2" style="fill: steelblue;"></circle><circle cx="137.28440031409264" cy="66.83409810066223" r="2" style="fill: steelblue;"></circle><circle cx="161.80524826049805" cy="39.38932940363884" r="2" style="fill: steelblue;"></circle><circle cx="165.24331867694855" cy="24.515031278133392" r="2" style="fill: steelblue;"></circle><circle cx="107.65054998919368" cy="55.64253255724907" r="2" style="fill: steelblue;"></circle><circle cx="165.1502013206482" cy="54.224806278944016" r="2" style="fill: steelblue;"></circle><circle cx="157.34657496213913" cy="74.03586097061634" r="2" style="fill: steelblue;"></circle><circle cx="153.06872352957726" cy="52.93315127491951" r="2" style="fill: steelblue;"></circle><circle cx="143.12416911125183" cy="12.81149536371231" r="2" style="fill: steelblue;"></circle><circle cx="182.39983767271042" cy="142.8214631974697" r="2" style="fill: steelblue;"></circle><circle cx="88.20360749959946" cy="120.0918223708868" r="2" style="fill: steelblue;"></circle><circle cx="55.86524158716202" cy="83.03046822547913" r="2" style="fill: steelblue;"></circle><circle cx="77.66121290624142" cy="82.57249966263771" r="2" style="fill: steelblue;"></circle><circle cx="157.85034596920013" cy="74.55530986189842" r="2" style="fill: steelblue;"></circle><circle cx="91.39722716063261" cy="87.55958024412394" r="2" style="fill: steelblue;"></circle><circle cx="115.87392389774323" cy="97.12955020368099" r="2" style="fill: steelblue;"></circle><circle cx="189.46897089481354" cy="41.07047840952873" r="2" style="fill: steelblue;"></circle><circle cx="154.90651726722717" cy="35.89547276496887" r="2" style="fill: steelblue;"></circle><circle cx="38.915848731994636" cy="64.77672085165977" r="2" style="fill: steelblue;"></circle><circle cx="155.43960630893707" cy="29.326653480529785" r="2" style="fill: steelblue;"></circle><circle cx="177.36223936080933" cy="118.29788275063038" r="2" style="fill: steelblue;"></circle><circle cx="168.21611523628235" cy="59.922775626182556" r="2" style="fill: steelblue;"></circle><circle cx="177.45961099863052" cy="65.10112285614014" r="2" style="fill: steelblue;"></circle><circle cx="173.99165630340576" cy="103.31758637912571" r="2" style="fill: steelblue;"></circle><circle cx="60.789673030376434" cy="164.0370100736618" r="2" style="fill: steelblue;"></circle><circle cx="105.439433734864" cy="175.6722018122673" r="2" style="fill: steelblue;"></circle><circle cx="76.22055932879448" cy="164.45839256048203" r="2" style="fill: steelblue;"></circle><circle cx="35.804605484008796" cy="162.41824105381966" r="2" style="fill: steelblue;"></circle><circle cx="37.17032670974732" cy="140.40320590138435" r="2" style="fill: steelblue;"></circle><circle cx="99.18294372037053" cy="98.02506202831864" r="2" style="fill: steelblue;"></circle></g></svg>