<svg xmlns="http://www.w3.org/2000/svg"><g transform="translate(40,20)"><circle cx="343.22940051555634" cy="126.56762550274533" r="3" style="fill: steelblue;"></circle><circle cx="251.3030813634396" cy="122.73342675632902" r="3" style="fill: steelblue;"></circle><circle cx="288.52370023727417" cy="174.34406007329625" r="3" style="fill: steelblue;"></circle><circle cx="251.70079484581947" cy="190.47006774279805" r="3" style="fill: steelblue;"></circle><circle cx="374.33403074741364" cy="93.16820916202335" r="3" style="fill: steelblue;"></circle><circle cx="360.7010507583618" cy="54.03641793462965" r="3" style="fill: steelblue;"></circle><circle cx="356.3981169462204" cy="204.97428394026224" r="3" style="fill: steelblue;"></circle><circle cx="416.9036829471588" cy="160.6771397093932" r="3" style="fill: steelblue;"></circle><circle cx="441.37428045272827" cy="42.81268947654302" r="3" style="fill: steelblue;"></circle><circle cx="421.2056601047516" cy="161.9319078202049" r="3" style="fill: steelblue;"></circle><circle cx="339.11961257457733" cy="78.7232486738099" r="3" style="fill: steelblue;"></circle><circle cx="327.03143298625946" cy="23.55747852060529" r="3" style="fill: steelblue;"></circle><circle cx="310.0942397117615" cy="82.63703452216254" r="3" style="fill: steelblue;"></circle><circle cx="264.8094476759434" cy="118.0511362850666" r="3" style="fill: steelblue;"></circle><circle cx="191.43986642360687" cy="153.47879303412304" r="3" style="fill: steelblue;"></circle><circle cx="338.012325167656" cy="33.29696026113299" r="3" style="fill: steelblue;"></circle><circle cx="310.7788869738579" cy="133.5715686281522" r="3" style="fill: steelblue;"></circle><circle cx="447.04500675201416" cy="92.32929944992065" r="3" style="fill: steelblue;"></circle><circle cx="323.9565843343735" cy="186.64807884229555" r="3" style="fill: steelblue;"></circle><circle cx="348.9989572763443" cy="101.57695098055734" r="3" style="fill: steelblue;"></circle><circle cx="238.84031696710738" cy="110.83448280890781" r="3" style="fill: steelblue;"></circle><circle cx="397.37344622612" cy="247.71875821881827" r="3" style="fill: steelblue;"></circle><circle cx="90.25916397571565" cy="55.48856092823877" r="3" style="fill: steelblue;"></circle><circle cx="279.7004172205925" cy="175.720697020491" r="3" style="fill: steelblue;"></circle><circle cx="247.10846297442913" cy="145.02857931786116" r="3" style="fill: steelblue;"></circle><circle cx="311.7726096510887" cy="156.34376427365675" r="3" style="fill: steelblue;"></circle><circle cx="165.04606693983078" cy="86.47407276762857" r="3" style="fill: steelblue;"></circle><circle cx="151.32535636425018" cy="162.12445845206577" r="3" style="fill: steelblue;"></circle><circle cx="144.89948093891144" cy="60.727836522791115" r="3" style="fill: steelblue;"></circle><circle cx="389.9244153499604" cy="202.16344934370784" r="3" style="fill: steelblue;"></circle><circle cx="161.32799327373505" cy="153.67128100867075" r="3" style="fill: steelblue;"></circle><circle cx="274.10961851477623" cy="97.0543243818813" r="3" style="fill: steelblue;"></circle><circle cx="143.14688980579376" cy="139.55898413227663" r="3" style="fill: steelblue;"></circle><circle cx="159.64223384857178" cy="164.2517734732893" r="3" style="fill: steelblue;"></circle><circle cx="356.60251021385193" cy="64.06314108106824" r="3" style="fill: steelblue;"></circle><circle cx="276.14678531885147" cy="228.4416135814455" r="3" style="fill: steelblue;"></circle><circle cx="161.9019323587418" cy="81.79987486865787" r="3" style="fill: steelblue;"></circle><circle cx="176.89701855182648" cy="180.4104440742069" r="3" style="fill: steelblue;"></circle><circle cx="177.9669338464737" cy="144.94131470306053" r="3" style="fill: steelblue;"></circle><circle cx="184.59892362356186" cy="182.9909402463171" r="3" style="fill: steelblue;"></circle><circle cx="252.03605979681015" cy="193.13701507118014" r="3" style="fill: steelblue;"></circle><circle cx="154.94513154029846" cy="119.7917636897829" r="3" style="fill: steelblue;"></circle><circle cx="186.47046178579333" cy="216.01465029848947" r="3" style="fill: steelblue;"></circle><circle cx="211.1905047297478" cy="235.19857244359122" r="3" style="fill: steelblue;"></circle><circle cx="213.5958069562912" cy="101.14933401346207" r="3" style="fill: steelblue;"></circle><circle cx="164.1600751876831" cy="205.92207395368155" r="3" style="fill: steelblue;"></circle><circle cx="174.52663868665695" cy="214.72016904089185" r="3" style="fill: steelblue;"></circle><circle cx="122.33207166194917" cy="143.04721020162106" r="3" style="fill: steelblue;"></circle><circle cx="221.66892863810065" cy="175.11690217587682" r="3" style="fill: steelblue;"></circle><circle cx="295.7445198297501" cy="83.979109260771" r="3" style="fill: steelblue;"></circle><circle cx="229.75528702139854" cy="173.8362069759104" r="3" style="fill: steelblue;"></circle><circle cx="166.36734545230865" cy="103.83276492357254" r="3" style="fill: steelblue;"></circle><circle cx="203.90824913978577" cy="311.5898761484358" r="3" style="fill: steelblue;"></circle><circle cx="92.26162970066072" cy="192.7617752717601" r="3" style="fill: steelblue;"></circle><circle cx="353.8648599386215" cy="167.469183045129" r="3" style="fill: steelblue;"></circle><circle cx="222.1590006351471" cy="159.9311569498645" r="3" style="fill: steelblue;"></circle><circle cx="159.1118985414505" cy="186.72499739461477" r="3" style="fill: steelblue;"></circle><circle cx="313.64292293787" cy="210.08256011539038" r="3" style="fill: steelblue;"></circle><circle cx="53.94388675689698" cy="253.55697108639612" r="3" style="fill: steelblue;"></circle><circle cx="174.42314118146896" cy="94.15761811865701" r="3" style="fill: steelblue;"></circle><circle cx="328.3302390575409" cy="239.53404708041086" r="3" style="fill: steelblue;"></circle><circle cx="194.69512939453125" cy="74.77628125084772" r="3" style="fill: steelblue;"></circle><circle cx="336.1844891309738" cy="61.26826273070441" r="3" style="fill: steelblue;"></circle><circle cx="406.7135417461395" cy="114.97571542859077" r="3" style="fill: steelblue;"></circle><circle cx="271.9428227841854" cy="161.8305956530902" r="3" style="fill: steelblue;"></circle><circle cx="341.42270028591156" cy="69.83263807164298" r="3" style="fill: steelblue;"></circle><circle cx="225.1875253021717" cy="130.2563115126557" r="3" style="fill: steelblue;"></circle><circle cx="435.93545794487" cy="124.9225153691239" r="3" style="fill: steelblue;"></circle><circle cx="237.73940993472934" cy="84.62785366508695" r="3" style="fill: steelblue;"></circle><circle cx="507.3458218574524" cy="113.78089479274222" r="3" style="fill: steelblue;"></circle><circle cx="290.72832852602005" cy="187.72579042447938" r="3" style="fill: steelblue;"></circle><circle cx="125.53632795810701" cy="139.8564361449745" r="3" style="fill: steelblue;"></circle><circle cx="181.3693606853485" cy="253.53234277831183" r="3" style="fill: steelblue;"></circle><circle cx="218.9043813943863" cy="83.15967039929495" r="3" style="fill: steelblue;"></circle><circle cx="106.0849392414093" cy="250.22742665476267" r="3" style="fill: steelblue;"></circle><circle cx="138.41966629028323" cy="214.00285363197327" r="3" style="fill: steelblue;"></circle><circle cx="311.84597700834274" cy="217.25588805145685" r="3" style="fill: steelblue;"></circle><circle cx="207.0105166733265" cy="279.242256614897" r="3" style="fill: steelblue;"></circle><circle cx="116.42527520656586" cy="222.33321948183908" r="3" style="fill: steelblue;"></circle><circle cx="266.84712186455727" cy="267.5677084260517" r="3" style="fill: steelblue;"></circle><circle cx="288.39397072792053" cy="224.81212533182565" r="3" style="fill: steelblue;"></circle><circle cx="170.63453882932666" cy="152.23135039624242" r="3" style="fill: steelblue;"></circle><circle cx="221.78335055708885" cy="133.98120258417396" r="3" style="fill: steelblue;"></circle><circle cx="258.46500411629677" cy="186.6812604169051" r="3" style="fill: steelblue;"></circle><circle cx="264.0939259529114" cy="155.9137898251518" r="3" style="fill: steelblue;"></circle><circle cx="222.30727426707745" cy="146.38528254710968" r="3" style="fill: steelblue;"></circle><circle cx="185.3904926776886" cy="161.1128941592243" r="3" style="fill: steelblue;"></circle><circle cx="223.333832770586" cy="69.03323796060351" r="3" style="fill: steelblue;"></circle><circle cx="419.78301644325256" cy="45.534783932897774" r="3" style="fill: steelblue;"></circle><circle cx="432.0711278915405" cy="109.32886161737973" r="3" style="fill: steelblue;"></circle><circle cx="358.03771555423737" cy="142.6857216904561" r="3" style="fill: steelblue;"></circle><circle cx="275.2745018899441" cy="101.61402093039618" r="3" style="fill: steelblue;"></circle><circle cx="208.4139423072338" cy="176.71674547923936" r="3" style="fill: steelblue;"></circle><circle cx="332.9082155227661" cy="120.3208290040493" r="3" style="fill: steelblue;"></circle><circle cx="186.02605104446414" cy="213.76053426000806" r="3" style="fill: steelblue;"></circle><circle cx="99.21608805656435" cy="270.1578531000349" r="3" style="fill: steelblue;"></circle><circle cx="159.7312027215958" cy="225.9594741794798" r="3" style="fill: steelblue;"></circle><circle cx="145.86615800857544" cy="244.1956642601225" r="3" style="fill: steelblue;"></circle><circle cx="129.04109001159668" cy="148.98326699104575" r="3" style="fill: steelblue;"></circle><circle cx="334.11360919475555" cy="270.94943589634363" r="3" style="fill: steelblue;"></circle><circle cx="168.29451262950897" cy="203.0252459976408" r="3" style="fill: steelblue;"></circle><circle cx="222.83563256263733" cy="266.104010409779" r="3" style="fill: steelblue;"></circle><circle cx="239.32661019265652" cy="192.13392146759566" r="3" style="fill: steelblue;"></circle><circle cx="228.4112946689129" cy="190.0883289674918" r="3" style="fill: steelblue;"></circle><circle cx="78.23230862617494" cy="265.04812240600586" r="3" style="fill: steelblue;"></circle><circle cx="166.78236812353134" cy="197.06052185760603" r="3" style="fill: steelblue;"></circle><circle cx="292.28862315416336" cy="136.31575033068657" r="3" style="fill: steelblue;"></circle><circle cx="277.0525047183037" cy="149.5675725138022" r="3" style="fill: steelblue;"></circle><circle cx="198.99208188056946" cy="46.3213599390454" r="3" style="fill: steelblue;"></circle><circle cx="368.00439298152924" cy="97.40156034628552" r="3" style="fill: steelblue;"></circle><circle cx="373.29669535160065" cy="29.83853154712255" r="3" style="fill: steelblue;"></circle><circle cx="225.29094681143764" cy="93.59390222364003" r="3" style="fill: steelblue;"></circle><circle cx="67.07161903381349" cy="237.67649895615045" r="3" style="fill: steelblue;"></circle><circle cx="200.18587052822113" cy="251.81130501959058" r="3" style="fill: steelblue;"></circle><circle cx="140.60577392578128" cy="129.18454549378822" r="3" style="fill: steelblue;"></circle><circle cx="198.5608273744583" cy="232.48024466964932" r="3" style="fill: steelblue;"></circle><circle cx="219.623868316412" cy="242.48213089174692" r="3" style="fill: steelblue;"></circle><circle cx="194.13314849138263" cy="170.83830878966387" r="3" style="fill: steelblue;"></circle></g></svg>