<svg xmlns="http://www.w3.org/2000/svg"><g transform="translate(40,20)"><circle cx="344.7242349386215" cy="127.53649966584311" r="3" style="fill: steelblue;"></circle><circle cx="350.63985586166376" cy="187.11837319036323" r="3" style="fill: steelblue;"></circle><circle cx="271.0120216012001" cy="162.99389799435932" r="3" style="fill: steelblue;"></circle><circle cx="246.1318954825401" cy="186.86059593326513" r="3" style="fill: steelblue;"></circle><circle cx="396.254763007164" cy="107.3760911822319" r="3" style="fill: steelblue;"></circle><circle cx="456.6295266151428" cy="116.21228191587659" r="3" style="fill: steelblue;"></circle><circle cx="223.75396192073822" cy="119.0012204978201" r="3" style="fill: steelblue;"></circle><circle cx="292.09812730550766" cy="79.78464994165631" r="3" style="fill: steelblue;"></circle><circle cx="473.9461362361908" cy="63.92407748434278" r="3" style="fill: steelblue;"></circle><circle cx="290.16219936311245" cy="76.99633141358692" r="3" style="fill: steelblue;"></circle><circle cx="418.5412734746933" cy="130.20025110907022" r="3" style="fill: steelblue;"></circle><circle cx="503.6541759967804" cy="138.03518232372073" r="3" style="fill: steelblue;"></circle><circle cx="412.5028610229492" cy="149.01299277941388" r="3" style="fill: steelblue;"></circle><circle cx="357.86396116018295" cy="178.36424687670336" r="3" style="fill: steelblue;"></circle><circle cx="303.20414789021015" cy="225.91860509581034" r="3" style="fill: steelblue;"></circle><circle cx="488.62754702568054" cy="130.91793739133408" r="3" style="fill: steelblue;"></circle><circle cx="333.9181512594223" cy="148.5692399243514" r="3" style="fill: steelblue;"></circle><circle cx="397.54908084869385" cy="60.248606734805655" r="3" style="fill: steelblue;"></circle><circle cx="252.02867835760117" cy="140.02813978327646" r="3" style="fill: steelblue;"></circle><circle cx="383.28127562999725" cy="123.79697213570279" r="3" style="fill: steelblue;"></circle><circle cx="368.99822652339935" cy="195.19609085465265" r="3" style="fill: steelblue;"></circle><circle cx="157.80534446239471" cy="92.4431367052926" r="3" style="fill: steelblue;"></circle><circle cx="454.38907742500305" cy="291.49869001573984" r="3" style="fill: steelblue;"></circle><circle cx="268.88806745409966" cy="168.71269254220857" r="3" style="fill: steelblue;"></circle><circle cx="316.24162048101425" cy="189.83710733138855" r="3" style="fill: steelblue;"></circle><circle cx="298.7839065492153" cy="147.92516041133138" r="3" style="fill: steelblue;"></circle><circle cx="406.58285915851593" cy="243.02569735381337" r="3" style="fill: steelblue;"></circle><circle cx="289.8651212453842" cy="251.91875050465262" r="3" style="fill: steelblue;"></circle><circle cx="446.30562365055084" cy="256.0836697618166" r="3" style="fill: steelblue;"></circle><circle cx="228.0906781554222" cy="97.27121227317384" r="3" style="fill: steelblue;"></circle><circle cx="302.90716644376516" cy="245.43555991517172" r="3" style="fill: steelblue;"></circle><circle cx="390.2590423822403" cy="172.33635837005244" r="3" style="fill: steelblue;"></circle><circle cx="324.6804244816303" cy="257.21960845920773" r="3" style="fill: steelblue;"></circle><circle cx="286.58297806978226" cy="246.52818176481458" r="3" style="fill: steelblue;"></circle><circle cx="441.159725189209" cy="118.86874337991077" r="3" style="fill: steelblue;"></circle><circle cx="187.54722476005554" cy="171.0159724785222" r="3" style="fill: steelblue;"></circle><circle cx="413.79447877407074" cy="245.0635623600748" r="3" style="fill: steelblue;"></circle><circle cx="261.6524577140808" cy="235.34452501270505" r="3" style="fill: steelblue;"></circle><circle cx="316.37625731527805" cy="234.65106139580405" r="3" style="fill: steelblue;"></circle><circle cx="257.671120762825" cy="230.3525495032469" r="3" style="fill: steelblue;"></circle><circle cx="242.01717674732208" cy="186.64329457614156" r="3" style="fill: steelblue;"></circle><circle cx="355.17842173576355" cy="249.5725999275843" r="3" style="fill: steelblue;"></circle><circle cx="206.72025382518768" cy="229.13951550920802" r="3" style="fill: steelblue;"></circle><circle cx="177.1222025156021" cy="213.11726545294124" r="3" style="fill: steelblue;"></circle><circle cx="383.9410275220871" cy="211.55827326907053" r="3" style="fill: steelblue;"></circle><circle cx="222.29165732860565" cy="243.59995126724243" r="3" style="fill: steelblue;"></circle><circle cx="208.71745347976682" cy="236.8808823327223" r="3" style="fill: steelblue;"></circle><circle cx="319.2985899746418" cy="270.71069429318106" r="3" style="fill: steelblue;"></circle><circle cx="269.8196366429329" cy="206.3256944012311" r="3" style="fill: steelblue;"></circle><circle cx="410.432231426239" cy="158.3137371473842" r="3" style="fill: steelblue;"></circle><circle cx="271.79556638002396" cy="201.08453618983424" r="3" style="fill: steelblue;"></circle><circle cx="379.8008769750595" cy="242.1693131327629" r="3" style="fill: steelblue;"></circle><circle cx="59.26133394241333" cy="217.83724592791663" r="3" style="fill: steelblue;"></circle><circle cx="242.59611815214157" cy="290.20079556438657" r="3" style="fill: steelblue;"></circle><circle cx="281.61897473037243" cy="120.64314633607864" r="3" style="fill: steelblue;"></circle><circle cx="293.2490721344948" cy="206.00805514388617" r="3" style="fill: steelblue;"></circle><circle cx="251.91000401973724" cy="246.8719176120228" r="3" style="fill: steelblue;"></circle><circle cx="215.87262153625488" cy="146.71292031804722" r="3" style="fill: steelblue;"></circle><circle cx="148.7978160381317" cy="315.0363696946038" r="3" style="fill: steelblue;"></circle><circle cx="394.7282463312149" cy="236.94796404904787" r="3" style="fill: steelblue;"></circle><circle cx="170.43318450450897" cy="137.1933635738161" r="3" style="fill: steelblue;"></circle><circle cx="424.63088035583496" cy="223.80871242947046" r="3" style="fill: steelblue;"></circle><circle cx="445.4718232154846" cy="132.10264593362808" r="3" style="fill: steelblue;"></circle><circle cx="362.6088961958885" cy="86.38937109046513" r="3" style="fill: steelblue;"></circle><circle cx="290.3185095638037" cy="173.7407630102502" r="3" style="fill: steelblue;"></circle><circle cx="432.25821554660797" cy="128.7075090739462" r="3" style="fill: steelblue;"></circle><circle cx="339.03311938047403" cy="204.04512248933315" r="3" style="fill: steelblue;"></circle><circle cx="347.26240485906595" cy="67.4492402209176" r="3" style="fill: steelblue;"></circle><circle cx="409.43131148815155" cy="195.90964170897172" r="3" style="fill: steelblue;"></circle><circle cx="364.45233374834055" cy="21.164745092391968" r="3" style="fill: steelblue;"></circle><circle cx="250.36592334508896" cy="161.56497225165367" r="3" style="fill: steelblue;"></circle><circle cx="324.2214985191822" cy="268.63386150863437" r="3" style="fill: steelblue;"></circle><circle cx="148.83581399917603" cy="232.44578474097784" r="3" style="fill: steelblue;"></circle><circle cx="411.69650852680206" cy="208.1175305777126" r="3" style="fill: steelblue;"></circle><circle cx="153.93482744693756" cy="281.24124308427173" r="3" style="fill: steelblue;"></circle><circle cx="209.8241686820984" cy="260.2835496266683" r="3" style="fill: steelblue;"></circle><circle cx="204.80520129203796" cy="147.87760749459267" r="3" style="fill: steelblue;"></circle><circle cx="109.16908979415894" cy="215.8265169709921" r="3" style="fill: steelblue;"></circle><circle cx="196.97160422801971" cy="274.53917347722586" r="3" style="fill: steelblue;"></circle><circle cx="127.18124985694885" cy="177.04353212482397" r="3" style="fill: steelblue;"></circle><circle cx="193.14700663089752" cy="163.07798193560706" r="3" style="fill: steelblue;"></circle><circle cx="305.12877367436886" cy="239.40353964765865" r="3" style="fill: steelblue;"></circle><circle cx="333.28614458441734" cy="206.2515320463313" r="3" style="fill: steelblue;"></circle><circle cx="251.97748392820355" cy="182.47638622091876" r="3" style="fill: steelblue;"></circle><circle cx="299.4472956983372" cy="178.8280109564463" r="3" style="fill: steelblue;"></circle><circle cx="314.1484212130308" cy="205.91195186393128" r="3" style="fill: steelblue;"></circle><circle cx="291.42582044005394" cy="229.8394954866833" r="3" style="fill: steelblue;"></circle><circle cx="433.491575717926" cy="205.24658987091647" r="3" style="fill: steelblue;"></circle><circle cx="469.746333360672" cy="77.91841526826221" r="3" style="fill: steelblue;"></circle><circle cx="371.3211849331856" cy="69.95389858881634" r="3" style="fill: steelblue;"></circle><circle cx="319.8563151061535" cy="117.93851769632762" r="3" style="fill: steelblue;"></circle><circle cx="383.224081993103" cy="171.58134136762885" r="3" style="fill: steelblue;"></circle><circle cx="267.35130697488785" cy="214.91688924531138" r="3" style="fill: steelblue;"></circle><circle cx="354.36214953660965" cy="134.22615660561456" r="3" style="fill: steelblue;"></circle><circle cx="210.19803285598752" cy="229.42755950821768" r="3" style="fill: steelblue;"></circle><circle cx="123.1850266456604" cy="285.6932762596342" r="3" style="fill: steelblue;"></circle><circle cx="191.3768112659454" cy="246.47051675452124" r="3" style="fill: steelblue;"></circle><circle cx="163.24097514152524" cy="255.45711980925665" r="3" style="fill: steelblue;"></circle><circle cx="310.1401023566723" cy="266.3622564739651" r="3" style="fill: steelblue;"></circle><circle cx="121.96372747421265" cy="133.4448829293251" r="3" style="fill: steelblue;"></circle><circle cx="226.76104903221128" cy="240.92022329568863" r="3" style="fill: steelblue;"></circle><circle cx="129.43952679634094" cy="205.5694974131054" r="3" style="fill: steelblue;"></circle><circle cx="243.56480687856674" cy="194.880900801056" r="3" style="fill: steelblue;"></circle><circle cx="246.72086387872693" cy="201.95564234422312" r="3" style="fill: steelblue;"></circle><circle cx="131.06861114501953" cy="299.29387403859033" r="3" style="fill: steelblue;"></circle><circle cx="235.9637662768364" cy="241.9003169569704" r="3" style="fill: steelblue;"></circle><circle cx="329.6842709183693" cy="160.5536701778571" r="3" style="fill: steelblue;"></circle><circle cx="309.23860240727663" cy="170.4289321270254" r="3" style="fill: steelblue;"></circle><circle cx="468.5327589511871" cy="221.02365063296423" r="3" style="fill: steelblue;"></circle><circle cx="389.72330689430237" cy="111.47863417863846" r="3" style="fill: steelblue;"></circle><circle cx="493.9634084701538" cy="108.0484381980366" r="3" style="fill: steelblue;"></circle><circle cx="395.597979426384" cy="203.9780900296238" r="3" style="fill: steelblue;"></circle><circle cx="173.29911589622498" cy="306.5276543299357" r="3" style="fill: steelblue;"></circle><circle cx="151.49112939834592" cy="220.24989873170853" r="3" style="fill: steelblue;"></circle><circle cx="340.6867012381553" cy="258.8666280110677" r="3" style="fill: steelblue;"></circle><circle cx="181.31619393825528" cy="221.30316744248069" r="3" style="fill: steelblue;"></circle><circle cx="165.88471233844757" cy="207.65119646158485" r="3" style="fill: steelblue;"></circle><circle cx="276.4208950102329" cy="224.1729593111409" r="3" style="fill: steelblue;"></circle></g></svg>