<svg xmlns="http://www.w3.org/2000/svg"><g transform="translate(40,20)"><circle cx="343.22940051555634" cy="124.84434164232677" r="3" style="fill: steelblue;"></circle><circle cx="251.3030813634396" cy="185.72619940257732" r="3" style="fill: steelblue;"></circle><circle cx="288.52370023727417" cy="183.48061345103713" r="3" style="fill: steelblue;"></circle><circle cx="251.70079484581947" cy="98.24189792076749" r="3" style="fill: steelblue;"></circle><circle cx="374.33403074741364" cy="119.67794845501584" r="3" style="fill: steelblue;"></circle><circle cx="360.7010507583618" cy="10.82604792382983" r="3" style="fill: steelblue;"></circle><circle cx="356.3981169462204" cy="99.74412040577994" r="3" style="fill: steelblue;"></circle><circle cx="416.9036829471588" cy="174.31449248558943" r="3" style="fill: steelblue;"></circle><circle cx="441.37428045272827" cy="58.48606593079035" r="3" style="fill: steelblue;"></circle><circle cx="421.2056601047516" cy="130.5878079599804" r="3" style="fill: steelblue;"></circle><circle cx="339.11961257457733" cy="185.84296655737694" r="3" style="fill: steelblue;"></circle><circle cx="327.03143298625946" cy="126.01195524136227" r="3" style="fill: steelblue;"></circle><circle cx="310.0942397117615" cy="107.94351581070157" r="3" style="fill: steelblue;"></circle><circle cx="264.8094476759434" cy="195.061158375918" r="3" style="fill: steelblue;"></circle><circle cx="191.43986642360687" cy="281.9870809713999" r="3" style="fill: steelblue;"></circle><circle cx="338.012325167656" cy="192.32294478246735" r="3" style="fill: steelblue;"></circle><circle cx="310.7788869738579" cy="152.81551082928974" r="3" style="fill: steelblue;"></circle><circle cx="447.04500675201416" cy="199.2540440729095" r="3" style="fill: steelblue;"></circle><circle cx="323.9565843343735" cy="111.22979554865094" r="3" style="fill: steelblue;"></circle><circle cx="348.9989572763443" cy="119.18688896629544" r="3" style="fill: steelblue;"></circle><circle cx="238.84031696710738" cy="278.8518509931034" r="3" style="fill: steelblue;"></circle><circle cx="397.37344622612" cy="114.58846512768002" r="3" style="fill: steelblue;"></circle><circle cx="90.25916397571565" cy="79.92960347069635" r="3" style="fill: steelblue;"></circle><circle cx="279.7004172205925" cy="139.8758441209793" r="3" style="fill: steelblue;"></circle><circle cx="247.10846297442913" cy="173.01042936742306" r="3" style="fill: steelblue;"></circle><circle cx="311.7726096510887" cy="147.60346255368654" r="3" style="fill: steelblue;"></circle><circle cx="165.04606693983078" cy="131.81827300124695" r="3" style="fill: steelblue;"></circle><circle cx="151.32535636425018" cy="124.56223451428941" r="3" style="fill: steelblue;"></circle><circle cx="144.89948093891144" cy="197.83559550220764" r="3" style="fill: steelblue;"></circle><circle cx="389.9244153499604" cy="271.3940342267354" r="3" style="fill: steelblue;"></circle><circle cx="161.32799327373505" cy="158.65650524695712" r="3" style="fill: steelblue;"></circle><circle cx="274.10961851477623" cy="170.89149956074027" r="3" style="fill: steelblue;"></circle><circle cx="143.14688980579376" cy="223.7402457329962" r="3" style="fill: steelblue;"></circle><circle cx="159.64223384857178" cy="139.1698693235715" r="3" style="fill: steelblue;"></circle><circle cx="356.60251021385193" cy="263.80310290389593" r="3" style="fill: steelblue;"></circle><circle cx="276.14678531885147" cy="261.881990565194" r="3" style="fill: steelblue;"></circle><circle cx="161.9019323587418" cy="262.15371903445987" r="3" style="fill: steelblue;"></circle><circle cx="176.89701855182648" cy="226.49850323796272" r="3" style="fill: steelblue;"></circle><circle cx="177.9669338464737" cy="233.26147140728102" r="3" style="fill: steelblue;"></circle><circle cx="184.59892362356186" cy="200.40926963297858" r="3" style="fill: steelblue;"></circle><circle cx="252.03605979681015" cy="120.27472423182593" r="3" style="fill: steelblue;"></circle><circle cx="154.94513154029846" cy="235.46834455596075" r="3" style="fill: steelblue;"></circle><circle cx="186.47046178579333" cy="218.91129803326396" r="3" style="fill: steelblue;"></circle><circle cx="211.1905047297478" cy="226.13251499003832" r="3" style="fill: steelblue;"></circle><circle cx="213.5958069562912" cy="214.0443691362937" r="3" style="fill: steelblue;"></circle><circle cx="164.1600751876831" cy="178.00944132937326" r="3" style="fill: steelblue;"></circle><circle cx="174.52663868665695" cy="181.7571802271737" r="3" style="fill: steelblue;"></circle><circle cx="122.33207166194917" cy="237.76678865154582" r="3" style="fill: steelblue;"></circle><circle cx="221.66892863810065" cy="258.5544917318556" r="3" style="fill: steelblue;"></circle><circle cx="295.7445198297501" cy="136.45434627930325" r="3" style="fill: steelblue;"></circle><circle cx="229.75528702139854" cy="228.49710202879373" r="3" style="fill: steelblue;"></circle><circle cx="166.36734545230865" cy="183.99067295508252" r="3" style="fill: steelblue;"></circle><circle cx="203.90824913978577" cy="226.73247216476332" r="3" style="fill: steelblue;"></circle><circle cx="92.26162970066072" cy="302.12601357036164" r="3" style="fill: steelblue;"></circle><circle cx="353.8648599386215" cy="296.545320087009" r="3" style="fill: steelblue;"></circle><circle cx="222.1590006351471" cy="189.62558746958769" r="3" style="fill: steelblue;"></circle><circle cx="159.1118985414505" cy="259.0723931789398" r="3" style="fill: steelblue;"></circle><circle cx="313.64292293787" cy="182.53117623842422" r="3" style="fill: steelblue;"></circle><circle cx="53.94388675689698" cy="298.4347691138585" r="3" style="fill: steelblue;"></circle><circle cx="174.42314118146896" cy="303.8606693347295" r="3" style="fill: steelblue;"></circle><circle cx="328.3302390575409" cy="147.10599390996828" r="3" style="fill: steelblue;"></circle><circle cx="194.69512939453125" cy="203.2916751793689" r="3" style="fill: steelblue;"></circle><circle cx="336.1844891309738" cy="87.32086585627661" r="3" style="fill: steelblue;"></circle><circle cx="406.7135417461395" cy="243.82632308536108" r="3" style="fill: steelblue;"></circle><circle cx="271.9428227841854" cy="83.81296032004887" r="3" style="fill: steelblue;"></circle><circle cx="341.42270028591156" cy="108.29123854637146" r="3" style="fill: steelblue;"></circle><circle cx="225.1875253021717" cy="174.02563140624096" r="3" style="fill: steelblue;"></circle><circle cx="435.93545794487" cy="115.67896604537964" r="3" style="fill: steelblue;"></circle><circle cx="237.73940993472934" cy="127.83800231085883" r="3" style="fill: steelblue;"></circle><circle cx="507.3458218574524" cy="72.87204596731397" r="3" style="fill: steelblue;"></circle><circle cx="290.72832852602005" cy="203.10217556026248" r="3" style="fill: steelblue;"></circle><circle cx="125.53632795810701" cy="322.8041264745924" r="3" style="fill: steelblue;"></circle><circle cx="181.3693606853485" cy="168.6570557455222" r="3" style="fill: steelblue;"></circle><circle cx="218.9043813943863" cy="212.93135359883308" r="3" style="fill: steelblue;"></circle><circle cx="106.0849392414093" cy="141.8348029255867" r="3" style="fill: steelblue;"></circle><circle cx="138.41966629028323" cy="163.07001105613176" r="3" style="fill: steelblue;"></circle><circle cx="311.84597700834274" cy="229.6160558859507" r="3" style="fill: steelblue;"></circle><circle cx="207.0105166733265" cy="250.06612804200915" r="3" style="fill: steelblue;"></circle><circle cx="116.42527520656586" cy="237.40418462289702" r="3" style="fill: steelblue;"></circle><circle cx="266.84712186455727" cy="318.38260922167035" r="3" style="fill: steelblue;"></circle><circle cx="288.39397072792053" cy="236.1707989540365" r="3" style="fill: steelblue;"></circle><circle cx="170.63453882932666" cy="266.944649318854" r="3" style="fill: steelblue;"></circle><circle cx="221.78335055708885" cy="179.16378461652334" r="3" style="fill: steelblue;"></circle><circle cx="258.46500411629677" cy="134.24104369348947" r="3" style="fill: steelblue;"></circle><circle cx="264.0939259529114" cy="226.5743033753501" r="3" style="fill: steelblue;"></circle><circle cx="222.30727426707745" cy="154.90131701032323" r="3" style="fill: steelblue;"></circle><circle cx="185.3904926776886" cy="153.97238648600046" r="3" style="fill: steelblue;"></circle><circle cx="223.333832770586" cy="220.29357486301" r="3" style="fill: steelblue;"></circle><circle cx="419.78301644325256" cy="117.63495206832886" r="3" style="fill: steelblue;"></circle><circle cx="432.0711278915405" cy="88.29916020234424" r="3" style="fill: steelblue;"></circle><circle cx="358.03771555423737" cy="202.99228260086642" r="3" style="fill: steelblue;"></circle><circle cx="275.2745018899441" cy="78.12100483311548" r="3" style="fill: steelblue;"></circle><circle cx="208.4139423072338" cy="115.0187651316325" r="3" style="fill: steelblue;"></circle><circle cx="332.9082155227661" cy="191.96730386465788" r="3" style="fill: steelblue;"></circle><circle cx="186.02605104446414" cy="227.90484337343108" r="3" style="fill: steelblue;"></circle><circle cx="99.21608805656435" cy="168.17179694771767" r="3" style="fill: steelblue;"></circle><circle cx="159.7312027215958" cy="237.67970585160788" r="3" style="fill: steelblue;"></circle><circle cx="145.86615800857544" cy="165.70455042852296" r="3" style="fill: steelblue;"></circle><circle cx="129.04109001159668" cy="264.5227942201826" r="3" style="fill: steelblue;"></circle><circle cx="334.11360919475555" cy="128.63914668560028" r="3" style="fill: steelblue;"></circle><circle cx="168.29451262950897" cy="207.87894022133617" r="3" style="fill: steelblue;"></circle><circle cx="222.83563256263733" cy="220.29689533842932" r="3" style="fill: steelblue;"></circle><circle cx="239.32661019265652" cy="191.7271831124607" r="3" style="fill: steelblue;"></circle><circle cx="228.4112946689129" cy="283.28535788589056" r="3" style="fill: steelblue;"></circle><circle cx="78.23230862617494" cy="141.1645420723491" r="3" style="fill: steelblue;"></circle><circle cx="166.78236812353134" cy="229.12509491046268" r="3" style="fill: steelblue;"></circle><circle cx="292.28862315416336" cy="158.28621428873805" r="3" style="fill: steelblue;"></circle><circle cx="277.0525047183037" cy="195.94032097504373" r="3" style="fill: steelblue;"></circle><circle cx="198.99208188056946" cy="152.32938279708225" r="3" style="fill: steelblue;"></circle><circle cx="368.00439298152924" cy="70.05630599127875" r="3" style="fill: steelblue;"></circle><circle cx="373.29669535160065" cy="43.98873117234972" r="3" style="fill: steelblue;"></circle><circle cx="225.29094681143764" cy="115.53141640292273" r="3" style="fill: steelblue;"></circle><circle cx="67.07161903381349" cy="136.80165178245966" r="3" style="fill: steelblue;"></circle><circle cx="200.18587052822113" cy="234.9250701566537" r="3" style="fill: steelblue;"></circle><circle cx="140.60577392578128" cy="259.86815409527884" r="3" style="fill: steelblue;"></circle><circle cx="198.5608273744583" cy="187.45103209382955" r="3" style="fill: steelblue;"></circle><circle cx="219.623868316412" cy="209.80297608508005" r="3" style="fill: steelblue;"></circle><circle cx="194.13314849138263" cy="201.49637220634355" r="3" style="fill: steelblue;"></circle></g></svg>