<svg xmlns="http://www.w3.org/2000/svg"><g transform="translate(40,20)"><circle cx="347.3830157518387" cy="100.57273838255139" r="3" style="fill: steelblue;"></circle><circle cx="253.45100663602352" cy="217.52793755796222" r="3" style="fill: steelblue;"></circle><circle cx="256.915624961257" cy="92.34864513079327" r="3" style="fill: steelblue;"></circle><circle cx="388.4267860651016" cy="114.65352442529468" r="3" style="fill: steelblue;"></circle><circle cx="355.3540223836899" cy="145.5971971154213" r="3" style="fill: steelblue;"></circle><circle cx="523.2969546318054" cy="173.80875017907886" r="3" style="fill: steelblue;"></circle><circle cx="386.1090713739395" cy="63.72426946957905" r="3" style="fill: steelblue;"></circle><circle cx="271.05764016509056" cy="128.52328353457978" r="3" style="fill: steelblue;"></circle><circle cx="449.7643554210663" cy="107.48927709129123" r="3" style="fill: steelblue;"></circle><circle cx="338.52166771888733" cy="59.019555648167916" r="3" style="fill: steelblue;"></circle><circle cx="253.2708515971899" cy="108.99385230408774" r="3" style="fill: steelblue;"></circle><circle cx="345.58155477046967" cy="133.23806309037735" r="3" style="fill: steelblue;"></circle><circle cx="373.45857560634613" cy="147.7335782514678" r="3" style="fill: steelblue;"></circle><circle cx="239.04849850572646" cy="149.6209179361661" r="3" style="fill: steelblue;"></circle><circle cx="104.9342179298401" cy="166.61081711451214" r="3" style="fill: steelblue;"></circle><circle cx="243.27317090705037" cy="166.21617890066568" r="3" style="fill: steelblue;"></circle><circle cx="304.22749757766724" cy="51.21135049396093" r="3" style="fill: steelblue;"></circle><circle cx="232.57947485893965" cy="71.60380979379016" r="3" style="fill: steelblue;"></circle><circle cx="368.38831543922424" cy="147.77584332558843" r="3" style="fill: steelblue;"></circle><circle cx="356.11165702342987" cy="112.13869601488113" r="3" style="fill: steelblue;"></circle><circle cx="109.77142989635469" cy="162.7905290159914" r="3" style="fill: steelblue;"></circle><circle cx="363.20636808872223" cy="178.20035852491856" r="3" style="fill: steelblue;"></circle><circle cx="416.68004035949707" cy="174.39653082854215" r="3" style="fill: steelblue;"></circle><circle cx="324.1915547847748" cy="47.04527225759295" r="3" style="fill: steelblue;"></circle><circle cx="273.06962326169014" cy="206.48097008880643" r="3" style="fill: steelblue;"></circle><circle cx="312.26894348859787" cy="177.4975593305296" r="3" style="fill: steelblue;"></circle><circle cx="336.6232359409333" cy="195.74604554670964" r="3" style="fill: steelblue;"></circle><circle cx="347.8182667493821" cy="201.16986096319226" r="3" style="fill: steelblue;"></circle><circle cx="234.76793836802244" cy="193.57060898457553" r="3" style="fill: steelblue;"></circle><circle cx="121.27777576446533" cy="194.6873315804017" r="3" style="fill: steelblue;"></circle><circle cx="295.2156776189804" cy="243.25307458639145" r="3" style="fill: steelblue;"></circle><circle cx="276.3388292491436" cy="197.42711002214088" r="3" style="fill: steelblue;"></circle><circle cx="194.80076372623444" cy="217.13455683655206" r="3" style="fill: steelblue;"></circle><circle cx="325.2807730436325" cy="207.2813676463233" r="3" style="fill: steelblue;"></circle><circle cx="132.9894983768463" cy="189.68858161113326" r="3" style="fill: steelblue;"></circle><circle cx="135.95350027084353" cy="234.49025013380583" r="3" style="fill: steelblue;"></circle><circle cx="135.5342620611191" cy="293.20604602495825" r="3" style="fill: steelblue;"></circle><circle cx="190.5451664328575" cy="161.07378527522087" r="3" style="fill: steelblue;"></circle><circle cx="180.11087268590927" cy="196.69756430408194" r="3" style="fill: steelblue;"></circle><circle cx="230.79712685197592" cy="155.86173989706566" r="3" style="fill: steelblue;"></circle><circle cx="354.4332826137543" cy="170.58752394384805" r="3" style="fill: steelblue;"></circle><circle cx="176.7059826850891" cy="183.06485936045647" r="3" style="fill: steelblue;"></circle><circle cx="202.25114017724994" cy="325.7101741102007" r="3" style="fill: steelblue;"></circle><circle cx="191.10983401536942" cy="138.83378853400546" r="3" style="fill: steelblue;"></circle><circle cx="209.76011618971827" cy="279.68243923452167" r="3" style="fill: steelblue;"></circle><circle cx="265.356861948967" cy="263.07889156871374" r="3" style="fill: steelblue;"></circle><circle cx="259.574636220932" cy="282.7793185909589" r="3" style="fill: steelblue;"></circle><circle cx="173.15981179475787" cy="195.9702932638013" r="3" style="fill: steelblue;"></circle><circle cx="141.0873556137085" cy="148.07419644461737" r="3" style="fill: steelblue;"></circle><circle cx="329.470437169075" cy="203.48547895749408" r="3" style="fill: steelblue;"></circle><circle cx="187.4616140127182" cy="150.11168188518945" r="3" style="fill: steelblue;"></circle><circle cx="256.1286760121584" cy="129.09024457136792" r="3" style="fill: steelblue;"></circle><circle cx="190.18418580293658" cy="247.53954178757135" r="3" style="fill: steelblue;"></circle><circle cx="73.86272192001344" cy="243.36143334706622" r="3" style="fill: steelblue;"></circle><circle cx="82.4729347229004" cy="220.0701700316535" r="3" style="fill: steelblue;"></circle><circle cx="247.43480790406466" cy="250.03612207041846" r="3" style="fill: steelblue;"></circle><circle cx="140.28830766677856" cy="231.4250253968769" r="3" style="fill: steelblue;"></circle><circle cx="258.38047094643116" cy="237.3168642322222" r="3" style="fill: steelblue;"></circle><circle cx="79.55778479576111" cy="218.3120652205414" r="3" style="fill: steelblue;"></circle><circle cx="71.18639588356018" cy="234.9625370568699" r="3" style="fill: steelblue;"></circle><circle cx="313.0364665389061" cy="93.69528624746533" r="3" style="fill: steelblue;"></circle><circle cx="226.34998686611652" cy="167.96885679165524" r="3" style="fill: steelblue;"></circle><circle cx="405.2763783931732" cy="194.93720948877228" r="3" style="fill: steelblue;"></circle><circle cx="163.81081581115723" cy="84.09945997926923" r="3" style="fill: steelblue;"></circle><circle cx="410.6885755062103" cy="135.1750534441736" r="3" style="fill: steelblue;"></circle><circle cx="372.92208909988403" cy="153.43313374453118" r="3" style="fill: steelblue;"></circle><circle cx="271.5033115446568" cy="155.80684484706984" r="3" style="fill: steelblue;"></circle><circle cx="361.52388095855713" cy="82.83927871121301" r="3" style="fill: steelblue;"></circle><circle cx="342.7642250061035" cy="123.78569526804819" r="3" style="fill: steelblue;"></circle><circle cx="427.5688433647156" cy="112.27053569422827" r="3" style="fill: steelblue;"></circle><circle cx="226.64235770702365" cy="211.7414137141572" r="3" style="fill: steelblue;"></circle><circle cx="41.959347724914565" cy="169.90170379479724" r="3" style="fill: steelblue;"></circle><circle cx="279.7862568497658" cy="180.08553961084948" r="3" style="fill: steelblue;"></circle><circle cx="211.47734016180038" cy="276.0041000114547" r="3" style="fill: steelblue;"></circle><circle cx="321.1691612005234" cy="226.1620197031233" r="3" style="fill: steelblue;"></circle><circle cx="288.4062686562538" cy="204.92781771139965" r="3" style="fill: steelblue;"></circle><circle cx="185.73522806167603" cy="235.3046097689205" r="3" style="fill: steelblue;"></circle><circle cx="154.18368816375735" cy="270.0146229730712" r="3" style="fill: steelblue;"></circle><circle cx="173.71925801038745" cy="304.1523959901598" r="3" style="fill: steelblue;"></circle><circle cx="48.781117200851455" cy="120.46103593375949" r="3" style="fill: steelblue;"></circle><circle cx="175.62219589948657" cy="281.07166124714746" r="3" style="fill: steelblue;"></circle><circle cx="128.14254105091095" cy="204.36359910915291" r="3" style="fill: steelblue;"></circle><circle cx="263.5758751630783" cy="294.6212755309211" r="3" style="fill: steelblue;"></circle><circle cx="332.8852468729019" cy="172.76797381540138" r="3" style="fill: steelblue;"></circle><circle cx="190.42821764945984" cy="140.58945659134122" r="3" style="fill: steelblue;"></circle><circle cx="301.0093966126442" cy="230.9004192550977" r="3" style="fill: steelblue;"></circle><circle cx="302.44260370731354" cy="246.39991174141562" r="3" style="fill: steelblue;"></circle><circle cx="200.1184844970703" cy="188.9741679963966" r="3" style="fill: steelblue;"></circle><circle cx="358.5060739517212" cy="175.42522193657027" r="3" style="fill: steelblue;"></circle><circle cx="403.767009973526" cy="280.6608842478858" r="3" style="fill: steelblue;"></circle><circle cx="226.81190684437752" cy="167.17675245470468" r="3" style="fill: steelblue;"></circle><circle cx="419.4704496860504" cy="115.14619489510852" r="3" style="fill: steelblue;"></circle><circle cx="362.54247665405273" cy="205.2722221447362" r="3" style="fill: steelblue;"></circle><circle cx="243.821874037385" cy="122.61077430513171" r="3" style="fill: steelblue;"></circle><circle cx="188.37538450956347" cy="173.64737826089066" r="3" style="fill: steelblue;"></circle><circle cx="280.53494185209274" cy="220.12851304478113" r="3" style="fill: steelblue;"></circle><circle cx="173.29416811466217" cy="234.63439817229903" r="3" style="fill: steelblue;"></circle><circle cx="284.3415507674217" cy="196.55806105583906" r="3" style="fill: steelblue;"></circle><circle cx="131.87911748886108" cy="238.37213218212128" r="3" style="fill: steelblue;"></circle><circle cx="341.52817368507385" cy="229.358101884524" r="3" style="fill: steelblue;"></circle><circle cx="219.27249222993854" cy="136.51645017994775" r="3" style="fill: steelblue;"></circle><circle cx="200.1133614778519" cy="243.15997958183289" r="3" style="fill: steelblue;"></circle><circle cx="244.19234605506063" cy="148.06302967998715" r="3" style="fill: steelblue;"></circle><circle cx="102.93116211891174" cy="101.76606973012287" r="3" style="fill: steelblue;"></circle><circle cx="322.20327794551855" cy="191.28584039087093" r="3" style="fill: steelblue;"></circle><circle cx="186.49271070957187" cy="324.15672474437287" r="3" style="fill: steelblue;"></circle><circle cx="295.78698366880417" cy="62.73159219159021" r="3" style="fill: steelblue;"></circle><circle cx="237.69207620993257" cy="113.90452252493964" r="3" style="fill: steelblue;"></circle><circle cx="304.97752368450165" cy="127.18744989898471" r="3" style="fill: steelblue;"></circle><circle cx="431.9131278991699" cy="17.11835463841755" r="3" style="fill: steelblue;"></circle><circle cx="472.1316719055176" cy="152.215049498611" r="3" style="fill: steelblue;"></circle><circle cx="361.7515289783478" cy="84.75835124651593" r="3" style="fill: steelblue;"></circle><circle cx="328.9345943927765" cy="190.94006510244475" r="3" style="fill: steelblue;"></circle><circle cx="177.54417747259143" cy="273.93736773067053" r="3" style="fill: steelblue;"></circle><circle cx="139.06056225299835" cy="206.22110522041714" r="3" style="fill: steelblue;"></circle><circle cx="250.7898361980915" cy="211.12256228095953" r="3" style="fill: steelblue;"></circle><circle cx="216.30397975444794" cy="278.2252488864793" r="3" style="fill: steelblue;"></circle><circle cx="229.1198828816414" cy="331.465525759591" r="3" style="fill: steelblue;"></circle></g></svg>