<svg xmlns="http://www.w3.org/2000/svg"><g transform="translate(40,20)"><circle cx="417.72736608982086" cy="70.68398334085941" r="3" style="fill: steelblue;"></circle><circle cx="329.9423038959503" cy="205.0846742466092" r="3" style="fill: steelblue;"></circle><circle cx="465.0030791759491" cy="176.97226664749905" r="3" style="fill: steelblue;"></circle><circle cx="427.63177156448364" cy="39.74576219916344" r="3" style="fill: steelblue;"></circle><circle cx="431.95421397686005" cy="88.87265454977751" r="3" style="fill: steelblue;"></circle><circle cx="473.13918471336365" cy="107.55477491766214" r="3" style="fill: steelblue;"></circle><circle cx="290.9536678344011" cy="140.50105139613152" r="3" style="fill: steelblue;"></circle><circle cx="377.66568660736084" cy="65.0139108300209" r="3" style="fill: steelblue;"></circle><circle cx="392.4568623304367" cy="100.54112896323204" r="3" style="fill: steelblue;"></circle><circle cx="495.0160324573517" cy="118.91793943941593" r="3" style="fill: steelblue;"></circle><circle cx="432.67385959625244" cy="14.803680777549744" r="3" style="fill: steelblue;"></circle><circle cx="322.43172079324717" cy="85.86972784250975" r="3" style="fill: steelblue;"></circle><circle cx="371.3753119111061" cy="98.61380811780691" r="3" style="fill: steelblue;"></circle><circle cx="289.16010707616806" cy="139.28402652963996" r="3" style="fill: steelblue;"></circle><circle cx="405.05772829055786" cy="145.9726059809327" r="3" style="fill: steelblue;"></circle><circle cx="273.671755939722" cy="161.55206232797354" r="3" style="fill: steelblue;"></circle><circle cx="325.65192729234695" cy="281.54055047780275" r="3" style="fill: steelblue;"></circle><circle cx="318.64895671606064" cy="147.52276167273521" r="3" style="fill: steelblue;"></circle><circle cx="463.67765665054316" cy="69.84101068228483" r="3" style="fill: steelblue;"></circle><circle cx="472.14324474334717" cy="244.42648626863956" r="3" style="fill: steelblue;"></circle><circle cx="309.89646390080446" cy="57.34054856002331" r="3" style="fill: steelblue;"></circle><circle cx="469.2459762096405" cy="283.25079306960106" r="3" style="fill: steelblue;"></circle><circle cx="350.2136930823326" cy="29.996198788285255" r="3" style="fill: steelblue;"></circle><circle cx="459.5446586608887" cy="35.4656346142292" r="3" style="fill: steelblue;"></circle><circle cx="200.68800151348114" cy="105.1833426579833" r="3" style="fill: steelblue;"></circle><circle cx="305.8133002370596" cy="257.4866592884064" r="3" style="fill: steelblue;"></circle><circle cx="334.708122164011" cy="148.26657152734697" r="3" style="fill: steelblue;"></circle><circle cx="236.3959193229675" cy="102.5325732305646" r="3" style="fill: steelblue;"></circle><circle cx="200.75160562992096" cy="215.66423699259758" r="3" style="fill: steelblue;"></circle><circle cx="292.0863155275583" cy="183.24656640179455" r="3" style="fill: steelblue;"></circle><circle cx="317.31649450957775" cy="173.76964803843293" r="3" style="fill: steelblue;"></circle><circle cx="319.73259150981903" cy="208.91736233606935" r="3" style="fill: steelblue;"></circle><circle cx="341.57855808734894" cy="133.04887125268579" r="3" style="fill: steelblue;"></circle><circle cx="58.579015731811516" cy="116.11420214176178" r="3" style="fill: steelblue;"></circle><circle cx="323.1938995420933" cy="163.77299181185663" r="3" style="fill: steelblue;"></circle><circle cx="202.95799970626828" cy="180.8594467700459" r="3" style="fill: steelblue;"></circle><circle cx="188.8749361038208" cy="239.45269007235765" r="3" style="fill: steelblue;"></circle><circle cx="208.66400599479675" cy="118.80864407867193" r="3" style="fill: steelblue;"></circle><circle cx="192.36235320568085" cy="200.63661709427834" r="3" style="fill: steelblue;"></circle><circle cx="410.48823595046997" cy="164.78554992936552" r="3" style="fill: steelblue;"></circle><circle cx="405.5218040943146" cy="138.83559610694647" r="3" style="fill: steelblue;"></circle><circle cx="207.25050866603848" cy="139.70151329413056" r="3" style="fill: steelblue;"></circle><circle cx="198.20260405540463" cy="220.1177996583283" r="3" style="fill: steelblue;"></circle><circle cx="266.5011964738369" cy="203.75557355582714" r="3" style="fill: steelblue;"></circle><circle cx="147.4622905254364" cy="215.75766447931528" r="3" style="fill: steelblue;"></circle><circle cx="221.334707736969" cy="215.0618640705943" r="3" style="fill: steelblue;"></circle><circle cx="193.62610280513763" cy="333.71659107506275" r="3" style="fill: steelblue;"></circle><circle cx="291.08879026025534" cy="173.59361656126566" r="3" style="fill: steelblue;"></circle><circle cx="119.06064748764038" cy="274.6172549203038" r="3" style="fill: steelblue;"></circle><circle cx="260.13087183237076" cy="217.8871214389801" r="3" style="fill: steelblue;"></circle><circle cx="399.24330711364746" cy="194.56952014006674" r="3" style="fill: steelblue;"></circle><circle cx="237.19139099121094" cy="152.03466680832207" r="3" style="fill: steelblue;"></circle><circle cx="315.3746780008077" cy="189.34785360470414" r="3" style="fill: steelblue;"></circle><circle cx="186.08288168907166" cy="99.87459350377321" r="3" style="fill: steelblue;"></circle><circle cx="230.27590066194534" cy="326.7697349190712" r="3" style="fill: steelblue;"></circle><circle cx="448.11317324638367" cy="253.86045891791582" r="3" style="fill: steelblue;"></circle><circle cx="415.2603954076767" cy="216.02473566308618" r="3" style="fill: steelblue;"></circle><circle cx="270.72623893618584" cy="226.35559849441051" r="3" style="fill: steelblue;"></circle><circle cx="230.46255111694336" cy="234.38581842929125" r="3" style="fill: steelblue;"></circle><circle cx="266.98147505521774" cy="233.7938567623496" r="3" style="fill: steelblue;"></circle><circle cx="480.2382230758667" cy="91.1583911627531" r="3" style="fill: steelblue;"></circle><circle cx="271.8162976205349" cy="141.35532844811678" r="3" style="fill: steelblue;"></circle><circle cx="488.07728290557856" cy="62.870561331510544" r="3" style="fill: steelblue;"></circle><circle cx="375.202077627182" cy="90.37684947252274" r="3" style="fill: steelblue;"></circle><circle cx="426.5413910150528" cy="36.796097829937935" r="3" style="fill: steelblue;"></circle><circle cx="435.0666582584381" cy="60.95788925886154" r="3" style="fill: steelblue;"></circle><circle cx="450.35861134529114" cy="232.8309427946806" r="3" style="fill: steelblue;"></circle><circle cx="288.4808801114559" cy="49.99689124524593" r="3" style="fill: steelblue;"></circle><circle cx="422.00391590595245" cy="117.1606082469225" r="3" style="fill: steelblue;"></circle><circle cx="517.593777179718" cy="35.548702999949455" r="3" style="fill: steelblue;"></circle><circle cx="421.37148678302765" cy="77.93086878955364" r="3" style="fill: steelblue;"></circle><circle cx="368.65618228912354" cy="158.30159042961895" r="3" style="fill: steelblue;"></circle><circle cx="144.44283843040466" cy="221.64987744763494" r="3" style="fill: steelblue;"></circle><circle cx="367.6186010241508" cy="265.57238418608904" r="3" style="fill: steelblue;"></circle><circle cx="143.292635679245" cy="161.15735629573464" r="3" style="fill: steelblue;"></circle><circle cx="382.41190910339355" cy="254.28986940532923" r="3" style="fill: steelblue;"></circle><circle cx="262.5616393983364" cy="282.56377410143614" r="3" style="fill: steelblue;"></circle><circle cx="179.0974259376526" cy="346.1387112736702" r="3" style="fill: steelblue;"></circle><circle cx="96.81884050369263" cy="242.38958321511745" r="3" style="fill: steelblue;"></circle><circle cx="90.50976634025574" cy="323.19067530333996" r="3" style="fill: steelblue;"></circle><circle cx="280.67779764533043" cy="236.42023764550686" r="3" style="fill: steelblue;"></circle><circle cx="94.62609887123108" cy="191.06016932055354" r="3" style="fill: steelblue;"></circle><circle cx="194.70341205596924" cy="275.95090605318546" r="3" style="fill: steelblue;"></circle><circle cx="291.8673360720277" cy="151.00667597725987" r="3" style="fill: steelblue;"></circle><circle cx="384.89117324352264" cy="158.93527697771788" r="3" style="fill: steelblue;"></circle><circle cx="422.0234870910644" cy="84.94489938020706" r="3" style="fill: steelblue;"></circle><circle cx="408.2004636526108" cy="64.09541256725788" r="3" style="fill: steelblue;"></circle><circle cx="243.6743125319481" cy="151.44837363623083" r="3" style="fill: steelblue;"></circle><circle cx="289.81441855430603" cy="104.08746842294931" r="3" style="fill: steelblue;"></circle><circle cx="424.12129640579224" cy="59.02824103832245" r="3" style="fill: steelblue;"></circle><circle cx="378.51395308971405" cy="117.28362664580345" r="3" style="fill: steelblue;"></circle><circle cx="340.15941470861435" cy="203.5648526623845" r="3" style="fill: steelblue;"></circle><circle cx="282.62118324637413" cy="38.67896385490894" r="3" style="fill: steelblue;"></circle><circle cx="226.11631304025647" cy="91.55018553137779" r="3" style="fill: steelblue;"></circle><circle cx="375.56272745132446" cy="253.85898556560278" r="3" style="fill: steelblue;"></circle><circle cx="217.85218119621274" cy="261.6290479898453" r="3" style="fill: steelblue;"></circle><circle cx="298.0517691001296" cy="291.2219028919935" r="3" style="fill: steelblue;"></circle><circle cx="273.4004482626915" cy="206.07489086687565" r="3" style="fill: steelblue;"></circle><circle cx="209.01409685611725" cy="251.54026802629232" r="3" style="fill: steelblue;"></circle><circle cx="277.4747371673584" cy="74.18285608291626" r="3" style="fill: steelblue;"></circle><circle cx="353.6987766623497" cy="102.36987210810184" r="3" style="fill: steelblue;"></circle><circle cx="181.87218010425568" cy="215.3374950401485" r="3" style="fill: steelblue;"></circle><circle cx="221.64852619171143" cy="214.62636459618807" r="3" style="fill: steelblue;"></circle><circle cx="97.15213179588318" cy="272.11404889822006" r="3" style="fill: steelblue;"></circle><circle cx="207.27137625217438" cy="211.95829957723618" r="3" style="fill: steelblue;"></circle><circle cx="381.46813809871674" cy="207.41901518777013" r="3" style="fill: steelblue;"></circle><circle cx="507.36225843429565" cy="78.05852890014648" r="3" style="fill: steelblue;"></circle><circle cx="368.9957857131958" cy="230.28616346418858" r="3" style="fill: steelblue;"></circle><circle cx="404.9647629261017" cy="73.38838018476963" r="3" style="fill: steelblue;"></circle><circle cx="416.6475623846054" cy="89.44787476211786" r="3" style="fill: steelblue;"></circle><circle cx="517.1347618103027" cy="139.27659783512354" r="3" style="fill: steelblue;"></circle><circle cx="316.4160590618849" cy="147.38855948671699" r="3" style="fill: steelblue;"></circle><circle cx="364.8401990532875" cy="279.0049893781543" r="3" style="fill: steelblue;"></circle><circle cx="312.3966917395591" cy="336.56742349267006" r="3" style="fill: steelblue;"></circle><circle cx="143.9010500907898" cy="247.43874203413725" r="3" style="fill: steelblue;"></circle><circle cx="274.8260222375393" cy="276.93129163235426" r="3" style="fill: steelblue;"></circle><circle cx="240.37340730428693" cy="259.3579340726137" r="3" style="fill: steelblue;"></circle><circle cx="175.5110263824463" cy="236.88821606338024" r="3" style="fill: steelblue;"></circle></g></svg>