<svg xmlns="http://www.w3.org/2000/svg"><g transform="translate(40,20)"><circle cx="280.73914736509323" cy="79.01665773242712" r="3" style="fill: steelblue;"></circle><circle cx="325.7203423976898" cy="200.46249912120402" r="3" style="fill: steelblue;"></circle><circle cx="288.39540123939514" cy="84.48509611189365" r="3" style="fill: steelblue;"></circle><circle cx="384.0794259309769" cy="121.10285246744752" r="3" style="fill: steelblue;"></circle><circle cx="157.85828769207" cy="165.1742582442239" r="3" style="fill: steelblue;"></circle><circle cx="370.39585053920746" cy="134.53913126140833" r="3" style="fill: steelblue;"></circle><circle cx="376.1918896436691" cy="70.14785259962082" r="3" style="fill: steelblue;"></circle><circle cx="471.47521018981934" cy="150.9762587491423" r="3" style="fill: steelblue;"></circle><circle cx="364.12584722042084" cy="95.59627827256918" r="3" style="fill: steelblue;"></circle><circle cx="277.9044994711876" cy="72.05646969377995" r="3" style="fill: steelblue;"></circle><circle cx="412.81184792518616" cy="69.82402801513672" r="3" style="fill: steelblue;"></circle><circle cx="464.4302988052368" cy="172.6470916008111" r="3" style="fill: steelblue;"></circle><circle cx="283.6656430363655" cy="195.72434965521097" r="3" style="fill: steelblue;"></circle><circle cx="357.7128195762634" cy="101.49005260318518" r="3" style="fill: steelblue;"></circle><circle cx="327.6007318496704" cy="95.03829497843981" r="3" style="fill: steelblue;"></circle><circle cx="480.19453525543213" cy="104.66498993337154" r="3" style="fill: steelblue;"></circle><circle cx="347.18499720096594" cy="119.35986038297415" r="3" style="fill: steelblue;"></circle><circle cx="289.28098171949387" cy="148.20602554827929" r="3" style="fill: steelblue;"></circle><circle cx="305.9966826438904" cy="226.21268657967448" r="3" style="fill: steelblue;"></circle><circle cx="333.19725036621094" cy="69.65549867600203" r="3" style="fill: steelblue;"></circle><circle cx="315.7950961589813" cy="224.42245595157146" r="3" style="fill: steelblue;"></circle><circle cx="177.51145899295807" cy="219.3322747014463" r="3" style="fill: steelblue;"></circle><circle cx="243.85683076456192" cy="202.66034798696637" r="3" style="fill: steelblue;"></circle><circle cx="152.60022819042206" cy="255.16858715564013" r="3" style="fill: steelblue;"></circle><circle cx="329.51245844364166" cy="177.0194326643832" r="3" style="fill: steelblue;"></circle><circle cx="311.04959338903427" cy="145.34210246056318" r="3" style="fill: steelblue;"></circle><circle cx="73.1847667694092" cy="125.28587896376848" r="3" style="fill: steelblue;"></circle><circle cx="293.54911834001547" cy="195.93709097243845" r="3" style="fill: steelblue;"></circle><circle cx="191.25918835401535" cy="57.16116465628147" r="3" style="fill: steelblue;"></circle><circle cx="188.58030080795288" cy="289.82131853699684" r="3" style="fill: steelblue;"></circle><circle cx="285.79347521066666" cy="177.73556786123663" r="3" style="fill: steelblue;"></circle><circle cx="205.46393260359764" cy="200.55289515294135" r="3" style="fill: steelblue;"></circle><circle cx="228.55915479362014" cy="224.927297513932" r="3" style="fill: steelblue;"></circle><circle cx="206.1751113831997" cy="112.23963107913733" r="3" style="fill: steelblue;"></circle><circle cx="271.10907822847366" cy="214.98441202566028" r="3" style="fill: steelblue;"></circle><circle cx="254.58742395043373" cy="263.69138918817043" r="3" style="fill: steelblue;"></circle><circle cx="202.93140649795535" cy="216.48189211264253" r="3" style="fill: steelblue;"></circle><circle cx="138.1953710317612" cy="273.42412639409304" r="3" style="fill: steelblue;"></circle><circle cx="381.22965037822723" cy="230.47213833779097" r="3" style="fill: steelblue;"></circle><circle cx="42.527636289596565" cy="180.43106184341013" r="3" style="fill: steelblue;"></circle><circle cx="194.2748138308525" cy="224.25201321020722" r="3" style="fill: steelblue;"></circle><circle cx="85.99424600601198" cy="303.91172990202904" r="3" style="fill: steelblue;"></circle><circle cx="296.9583088159561" cy="222.91146144270897" r="3" style="fill: steelblue;"></circle><circle cx="168.76454740762713" cy="225.3891445696354" r="3" style="fill: steelblue;"></circle><circle cx="274.1983996331692" cy="308.8998097926378" r="3" style="fill: steelblue;"></circle><circle cx="31.473573446273814" cy="299.12067502737045" r="3" style="fill: steelblue;"></circle><circle cx="142.18151807785034" cy="244.53413225710392" r="3" style="fill: steelblue;"></circle><circle cx="173.0852374434471" cy="309.82082448899746" r="3" style="fill: steelblue;"></circle><circle cx="110.71467339992525" cy="162.88618855178356" r="3" style="fill: steelblue;"></circle><circle cx="148.42984914779663" cy="122.7165904827416" r="3" style="fill: steelblue;"></circle><circle cx="130.58222472667697" cy="187.86209432873875" r="3" style="fill: steelblue;"></circle><circle cx="228.9275662600994" cy="156.65493831038475" r="3" style="fill: steelblue;"></circle><circle cx="79.87585902214052" cy="275.1688754186034" r="3" style="fill: steelblue;"></circle><circle cx="135.81981897354126" cy="299.9631326645613" r="3" style="fill: steelblue;"></circle><circle cx="98.0841511487961" cy="179.017960105557" r="3" style="fill: steelblue;"></circle><circle cx="106.82412028312683" cy="119.78011783212423" r="3" style="fill: steelblue;"></circle><circle cx="104.14869725704193" cy="275.51105823367834" r="3" style="fill: steelblue;"></circle><circle cx="183.5532331466675" cy="286.0083218663931" r="3" style="fill: steelblue;"></circle><circle cx="64.48552250862123" cy="166.70459294691682" r="3" style="fill: steelblue;"></circle><circle cx="228.1574895232916" cy="111.07646506279707" r="3" style="fill: steelblue;"></circle><circle cx="199.704065322876" cy="182.80917634256184" r="3" style="fill: steelblue;"></circle><circle cx="404.57122564315796" cy="134.73437977954745" r="3" style="fill: steelblue;"></circle><circle cx="279.6971493959427" cy="81.2374820932746" r="3" style="fill: steelblue;"></circle><circle cx="373.3394855260849" cy="157.1989492047578" r="3" style="fill: steelblue;"></circle><circle cx="335.2031135559082" cy="132.71007193252444" r="3" style="fill: steelblue;"></circle><circle cx="388.7956076860428" cy="90.64651858061552" r="3" style="fill: steelblue;"></circle><circle cx="364.7229605913162" cy="151.10137634910643" r="3" style="fill: steelblue;"></circle><circle cx="189.8639926314354" cy="183.49093426950276" r="3" style="fill: steelblue;"></circle><circle cx="158.09021830558777" cy="182.60162924416363" r="3" style="fill: steelblue;"></circle><circle cx="330.6309932470322" cy="53.72662395238876" r="3" style="fill: steelblue;"></circle><circle cx="353.003146648407" cy="90.63766542822123" r="3" style="fill: steelblue;"></circle><circle cx="264.40629601478577" cy="176.4432221360039" r="3" style="fill: steelblue;"></circle><circle cx="110.36507427692415" cy="109.22197736799717" r="3" style="fill: steelblue;"></circle><circle cx="105.78404903411867" cy="258.87528732419014" r="3" style="fill: steelblue;"></circle><circle cx="171.40087723731995" cy="241.62421580404043" r="3" style="fill: steelblue;"></circle><circle cx="124.24167931079866" cy="224.8087154701352" r="3" style="fill: steelblue;"></circle><circle cx="156.62934422492984" cy="223.83413203060627" r="3" style="fill: steelblue;"></circle><circle cx="122.44428634643556" cy="261.7991289123893" r="3" style="fill: steelblue;"></circle><circle cx="164.64669942855835" cy="305.28160855174065" r="3" style="fill: steelblue;"></circle><circle cx="306.42108857631683" cy="204.55907536670566" r="3" style="fill: steelblue;"></circle><circle cx="149.0152680873871" cy="103.54238022118807" r="3" style="fill: steelblue;"></circle><circle cx="33.38341355323793" cy="259.76707618683577" r="3" style="fill: steelblue;"></circle><circle cx="204.1522318124771" cy="164.9062702897936" r="3" style="fill: steelblue;"></circle><circle cx="219.82205897569656" cy="209.80622079223394" r="3" style="fill: steelblue;"></circle><circle cx="316.0879397392273" cy="134.6950621344149" r="3" style="fill: steelblue;"></circle><circle cx="256.21415354311466" cy="209.4882276840508" r="3" style="fill: steelblue;"></circle><circle cx="112.89674878120422" cy="104.55996468663216" r="3" style="fill: steelblue;"></circle><circle cx="324.0222090482712" cy="120.94802986830473" r="3" style="fill: steelblue;"></circle><circle cx="291.50590538978577" cy="98.99106454104185" r="3" style="fill: steelblue;"></circle><circle cx="420.64831495285034" cy="192.64250569976866" r="3" style="fill: steelblue;"></circle><circle cx="368.66511940956116" cy="77.53403503447771" r="3" style="fill: steelblue;"></circle><circle cx="448.39948654174805" cy="161.54094291850924" r="3" style="fill: steelblue;"></circle><circle cx="177.74475306272507" cy="146.2249729782343" r="3" style="fill: steelblue;"></circle><circle cx="344.58617806434637" cy="165.4327590484172" r="3" style="fill: steelblue;"></circle><circle cx="105.52476882934572" cy="68.42957828193903" r="3" style="fill: steelblue;"></circle><circle cx="7.37288832664491" cy="293.4186842292547" r="3" style="fill: steelblue;"></circle><circle cx="132.32507944107056" cy="231.94893281906843" r="3" style="fill: steelblue;"></circle><circle cx="206.62520840764046" cy="166.49750138167292" r="3" style="fill: steelblue;"></circle><circle cx="82.85790324211122" cy="116.83039478957653" r="3" style="fill: steelblue;"></circle><circle cx="11.965330839157117" cy="209.4406240619719" r="3" style="fill: steelblue;"></circle><circle cx="181.6810154914856" cy="264.50309548527" r="3" style="fill: steelblue;"></circle><circle cx="71.00906610488893" cy="267.5938757136464" r="3" style="fill: steelblue;"></circle><circle cx="66.80768966674806" cy="242.91612412780523" r="3" style="fill: steelblue;"></circle><circle cx="341.5916705131531" cy="165.75740424450487" r="3" style="fill: steelblue;"></circle><circle cx="337.4797546863556" cy="245.0600277632475" r="3" style="fill: steelblue;"></circle><circle cx="184.68176811933517" cy="231.0780055820942" r="3" style="fill: steelblue;"></circle><circle cx="320.5165797472" cy="174.5313866675133" r="3" style="fill: steelblue;"></circle><circle cx="384.4419175386429" cy="40.69207161664963" r="3" style="fill: steelblue;"></circle><circle cx="400.55206060409546" cy="5.579269677400589" r="3" style="fill: steelblue;"></circle><circle cx="333.77979040145874" cy="61.524295434355736" r="3" style="fill: steelblue;"></circle><circle cx="466.1682629585266" cy="81.57467767596245" r="3" style="fill: steelblue;"></circle><circle cx="301.56173944473267" cy="10.22738330066204" r="3" style="fill: steelblue;"></circle><circle cx="243.19173065945506" cy="134.56506812945008" r="3" style="fill: steelblue;"></circle><circle cx="353.8651102781296" cy="306.12093694508076" r="3" style="fill: steelblue;"></circle><circle cx="220.86397647857666" cy="204.19775526970625" r="3" style="fill: steelblue;"></circle><circle cx="119.74095046520233" cy="244.4361999630928" r="3" style="fill: steelblue;"></circle><circle cx="213.69678765535357" cy="96.9569256529212" r="3" style="fill: steelblue;"></circle><circle cx="95.99518418312074" cy="133.98505300283432" r="3" style="fill: steelblue;"></circle></g></svg>