<svg xmlns="http://www.w3.org/2000/svg"><g transform="translate(40,20)"><circle cx="430.94471141695976" cy="127.53649966584311" r="3" style="fill: steelblue;"></circle><circle cx="223.58364544808865" cy="187.11837319036323" r="3" style="fill: steelblue;"></circle><circle cx="266.9570743152872" cy="162.99389799435932" r="3" style="fill: steelblue;"></circle><circle cx="478.67796689271927" cy="186.86059593326513" r="3" style="fill: steelblue;"></circle><circle cx="402.8821901232004" cy="107.3760911822319" r="3" style="fill: steelblue;"></circle><circle cx="374.0583472698927" cy="116.21228191587659" r="3" style="fill: steelblue;"></circle><circle cx="323.22694927453995" cy="119.0012204978201" r="3" style="fill: steelblue;"></circle><circle cx="439.6928232908249" cy="79.78464994165631" r="3" style="fill: steelblue;"></circle><circle cx="384.8794010281563" cy="63.92407748434278" r="3" style="fill: steelblue;"></circle><circle cx="356.526607722044" cy="76.99633141358692" r="3" style="fill: steelblue;"></circle><circle cx="517.1600353717804" cy="130.20025110907022" r="3" style="fill: steelblue;"></circle><circle cx="407.51527704298496" cy="138.03518232372073" r="3" style="fill: steelblue;"></circle><circle cx="387.8529817610979" cy="149.01299277941388" r="3" style="fill: steelblue;"></circle><circle cx="325.1046447828412" cy="178.36424687670336" r="3" style="fill: steelblue;"></circle><circle cx="314.7851222008467" cy="225.91860509581034" r="3" style="fill: steelblue;"></circle><circle cx="290.7482466939837" cy="130.91793739133408" r="3" style="fill: steelblue;"></circle><circle cx="105.62315069139005" cy="148.5692399243514" r="3" style="fill: steelblue;"></circle><circle cx="312.3934534192085" cy="60.248606734805655" r="3" style="fill: steelblue;"></circle><circle cx="432.24529780447483" cy="140.02813978327646" r="3" style="fill: steelblue;"></circle><circle cx="162.8848497569561" cy="123.79697213570279" r="3" style="fill: steelblue;"></circle><circle cx="451.5317250788212" cy="195.19609085465265" r="3" style="fill: steelblue;"></circle><circle cx="102.98449069261552" cy="92.4431367052926" r="3" style="fill: steelblue;"></circle><circle cx="493.7201504409313" cy="291.49869001573984" r="3" style="fill: steelblue;"></circle><circle cx="485.28159230947495" cy="168.71269254220857" r="3" style="fill: steelblue;"></circle><circle cx="377.71712847054005" cy="189.83710733138855" r="3" style="fill: steelblue;"></circle><circle cx="142.73486852645874" cy="147.92516041133138" r="3" style="fill: steelblue;"></circle><circle cx="311.24586107209325" cy="243.02569735381337" r="3" style="fill: steelblue;"></circle><circle cx="381.80688701570034" cy="251.91875050465262" r="3" style="fill: steelblue;"></circle><circle cx="207.26089149713516" cy="256.0836697618166" r="3" style="fill: steelblue;"></circle><circle cx="257.27672612294555" cy="97.27121227317384" r="3" style="fill: steelblue;"></circle><circle cx="271.89825731213205" cy="245.43555991517172" r="3" style="fill: steelblue;"></circle><circle cx="217.67035525292158" cy="172.33635837005244" r="3" style="fill: steelblue;"></circle><circle cx="334.72459863871336" cy="257.21960845920773" r="3" style="fill: steelblue;"></circle><circle cx="360.8523738384247" cy="246.52818176481458" r="3" style="fill: steelblue;"></circle><circle cx="287.32166977599263" cy="118.86874337991077" r="3" style="fill: steelblue;"></circle><circle cx="260.95971069764346" cy="171.0159724785222" r="3" style="fill: steelblue;"></circle><circle cx="170.55870674550533" cy="245.0635623600748" r="3" style="fill: steelblue;"></circle><circle cx="356.695234850049" cy="235.34452501270505" r="3" style="fill: steelblue;"></circle><circle cx="230.44636219739914" cy="234.65106139580405" r="3" style="fill: steelblue;"></circle><circle cx="285.75943725183606" cy="230.3525495032469" r="3" style="fill: steelblue;"></circle><circle cx="325.7965088635683" cy="186.64329457614156" r="3" style="fill: steelblue;"></circle><circle cx="324.46052234619856" cy="249.5725999275843" r="3" style="fill: steelblue;"></circle><circle cx="200.38968052715063" cy="229.13951550920802" r="3" style="fill: steelblue;"></circle><circle cx="225.63425794243813" cy="213.11726545294124" r="3" style="fill: steelblue;"></circle><circle cx="207.11674623191357" cy="211.55827326907053" r="3" style="fill: steelblue;"></circle><circle cx="208.19026686251163" cy="243.59995126724243" r="3" style="fill: steelblue;"></circle><circle cx="25.122973769903197" cy="236.8808823327223" r="3" style="fill: steelblue;"></circle><circle cx="272.16984873404726" cy="270.71069429318106" r="3" style="fill: steelblue;"></circle><circle cx="116.3048066943884" cy="206.3256944012311" r="3" style="fill: steelblue;"></circle><circle cx="203.83129835128784" cy="158.3137371473842" r="3" style="fill: steelblue;"></circle><circle cx="239.8070260696113" cy="201.08453618983424" r="3" style="fill: steelblue;"></circle><circle cx="305.4322283528745" cy="242.1693131327629" r="3" style="fill: steelblue;"></circle><circle cx="247.8633115813136" cy="217.83724592791663" r="3" style="fill: steelblue;"></circle><circle cx="385.9077700227499" cy="290.20079556438657" r="3" style="fill: steelblue;"></circle><circle cx="35.84098041057588" cy="120.64314633607864" r="3" style="fill: steelblue;"></circle><circle cx="148.3295776695013" cy="206.00805514388617" r="3" style="fill: steelblue;"></circle><circle cx="206.70469354838133" cy="246.8719176120228" r="3" style="fill: steelblue;"></circle><circle cx="190.7656480371952" cy="146.71292031804722" r="3" style="fill: steelblue;"></circle><circle cx="178.37616585195065" cy="315.0363696946038" r="3" style="fill: steelblue;"></circle><circle cx="179.28947813808918" cy="236.94796404904787" r="3" style="fill: steelblue;"></circle><circle cx="399.3556250631809" cy="137.1933635738161" r="3" style="fill: steelblue;"></circle><circle cx="321.90892182290554" cy="223.80871242947046" r="3" style="fill: steelblue;"></circle><circle cx="442.9997053742409" cy="132.10264593362808" r="3" style="fill: steelblue;"></circle><circle cx="400.5614322423935" cy="86.38937109046513" r="3" style="fill: steelblue;"></circle><circle cx="483.22887763381004" cy="173.7407630102502" r="3" style="fill: steelblue;"></circle><circle cx="445.95068514347076" cy="128.7075090739462" r="3" style="fill: steelblue;"></circle><circle cx="180.77511683106422" cy="204.04512248933315" r="3" style="fill: steelblue;"></circle><circle cx="462.86193922162056" cy="67.4492402209176" r="3" style="fill: steelblue;"></circle><circle cx="359.23791870474815" cy="195.90964170897172" r="3" style="fill: steelblue;"></circle><circle cx="485.15342965722084" cy="21.164745092391968" r="3" style="fill: steelblue;"></circle><circle cx="419.7638024389744" cy="161.56497225165367" r="3" style="fill: steelblue;"></circle><circle cx="295.76326048001647" cy="268.63386150863437" r="3" style="fill: steelblue;"></circle><circle cx="198.0259033665061" cy="232.44578474097784" r="3" style="fill: steelblue;"></circle><circle cx="130.25975011289123" cy="208.1175305777126" r="3" style="fill: steelblue;"></circle><circle cx="291.35722171515226" cy="281.24124308427173" r="3" style="fill: steelblue;"></circle><circle cx="147.66705863177776" cy="260.2835496266683" r="3" style="fill: steelblue;"></circle><circle cx="104.04446281492712" cy="147.87760749459267" r="3" style="fill: steelblue;"></circle><circle cx="5.957416892051712" cy="215.8265169709921" r="3" style="fill: steelblue;"></circle><circle cx="166.0275001823902" cy="274.53917347722586" r="3" style="fill: steelblue;"></circle><circle cx="41.362958103418364" cy="177.04353212482397" r="3" style="fill: steelblue;"></circle><circle cx="175.23734763264656" cy="163.07798193560706" r="3" style="fill: steelblue;"></circle><circle cx="245.22145304828882" cy="239.40353964765865" r="3" style="fill: steelblue;"></circle><circle cx="114.24717351794244" cy="206.2515320463313" r="3" style="fill: steelblue;"></circle><circle cx="307.0182713493705" cy="182.47638622091876" r="3" style="fill: steelblue;"></circle><circle cx="294.78557266294956" cy="178.8280109564463" r="3" style="fill: steelblue;"></circle><circle cx="408.94215524196625" cy="205.91195186393128" r="3" style="fill: steelblue;"></circle><circle cx="441.1099348962307" cy="229.8394954866833" r="3" style="fill: steelblue;"></circle><circle cx="306.33679496124387" cy="205.24658987091647" r="3" style="fill: steelblue;"></circle><circle cx="379.40790586173534" cy="77.91841526826221" r="3" style="fill: steelblue;"></circle><circle cx="448.9278566837311" cy="69.95389858881634" r="3" style="fill: steelblue;"></circle><circle cx="359.0481188893318" cy="117.93851769632762" r="3" style="fill: steelblue;"></circle><circle cx="225.92851303517818" cy="171.58134136762885" r="3" style="fill: steelblue;"></circle><circle cx="480.3238843381405" cy="214.91688924531138" r="3" style="fill: steelblue;"></circle><circle cx="398.7511423230171" cy="134.22615660561456" r="3" style="fill: steelblue;"></circle><circle cx="148.33185084164143" cy="229.42755950821768" r="3" style="fill: steelblue;"></circle><circle cx="136.343754529953" cy="285.6932762596342" r="3" style="fill: steelblue;"></circle><circle cx="90.68620696663858" cy="246.47051675452124" r="3" style="fill: steelblue;"></circle><circle cx="222.0558826625347" cy="255.45711980925665" r="3" style="fill: steelblue;"></circle><circle cx="151.9093007594347" cy="266.3622564739651" r="3" style="fill: steelblue;"></circle><circle cx="425.5464506149292" cy="133.4448829293251" r="3" style="fill: steelblue;"></circle><circle cx="382.05791160464287" cy="240.92022329568863" r="3" style="fill: steelblue;"></circle><circle cx="207.76500765234232" cy="205.5694974131054" r="3" style="fill: steelblue;"></circle><circle cx="208.86218033730984" cy="194.880900801056" r="3" style="fill: steelblue;"></circle><circle cx="120.16689598560335" cy="201.95564234422312" r="3" style="fill: steelblue;"></circle><circle cx="212.97862350940704" cy="299.29387403859033" r="3" style="fill: steelblue;"></circle><circle cx="219.98209085315466" cy="241.9003169569704" r="3" style="fill: steelblue;"></circle><circle cx="419.5668411254883" cy="160.5536701778571" r="3" style="fill: steelblue;"></circle><circle cx="184.70134779810905" cy="170.4289321270254" r="3" style="fill: steelblue;"></circle><circle cx="426.77221342921257" cy="221.02365063296423" r="3" style="fill: steelblue;"></circle><circle cx="401.9947075098753" cy="111.47863417863846" r="3" style="fill: steelblue;"></circle><circle cx="325.11610619723797" cy="108.0484381980366" r="3" style="fill: steelblue;"></circle><circle cx="312.6005082204938" cy="203.9780900296238" r="3" style="fill: steelblue;"></circle><circle cx="109.53515924513341" cy="306.5276543299357" r="3" style="fill: steelblue;"></circle><circle cx="20.724546611309066" cy="220.24989873170853" r="3" style="fill: steelblue;"></circle><circle cx="158.2373694330454" cy="258.8666280110677" r="3" style="fill: steelblue;"></circle><circle cx="112.73457862436773" cy="221.30316744248069" r="3" style="fill: steelblue;"></circle><circle cx="139.84775885939598" cy="207.65119646158485" r="3" style="fill: steelblue;"></circle><circle cx="174.51532378792763" cy="224.1729593111409" r="3" style="fill: steelblue;"></circle></g></svg>