<svg xmlns="http://www.w3.org/2000/svg"><g transform="translate(40,20)"><circle cx="417.7915037423372" cy="79.01665773242712" r="3" style="fill: steelblue;"></circle><circle cx="265.13535629957914" cy="200.46249912120402" r="3" style="fill: steelblue;"></circle><circle cx="346.42756775021553" cy="84.48509611189365" r="3" style="fill: steelblue;"></circle><circle cx="231.30433129146695" cy="121.10285246744752" r="3" style="fill: steelblue;"></circle><circle cx="433.1464496254921" cy="165.1742582442239" r="3" style="fill: steelblue;"></circle><circle cx="293.7344518303871" cy="134.53913126140833" r="3" style="fill: steelblue;"></circle><circle cx="326.96903821080923" cy="70.14785259962082" r="3" style="fill: steelblue;"></circle><circle cx="384.75272700190544" cy="150.9762587491423" r="3" style="fill: steelblue;"></circle><circle cx="401.7318443208933" cy="95.59627827256918" r="3" style="fill: steelblue;"></circle><circle cx="472.15700045228004" cy="72.05646969377995" r="3" style="fill: steelblue;"></circle><circle cx="486.8905757367611" cy="69.82402801513672" r="3" style="fill: steelblue;"></circle><circle cx="341.68642971664667" cy="172.6470916008111" r="3" style="fill: steelblue;"></circle><circle cx="296.41430804505944" cy="195.72434965521097" r="3" style="fill: steelblue;"></circle><circle cx="398.94609197974205" cy="101.49005260318518" r="3" style="fill: steelblue;"></circle><circle cx="395.42280592024326" cy="95.03829497843981" r="3" style="fill: steelblue;"></circle><circle cx="530.3952281177044" cy="104.66498993337154" r="3" style="fill: steelblue;"></circle><circle cx="416.8546852469444" cy="119.35986038297415" r="3" style="fill: steelblue;"></circle><circle cx="484.72239196300507" cy="148.20602554827929" r="3" style="fill: steelblue;"></circle><circle cx="228.37307581678033" cy="226.21268657967448" r="3" style="fill: steelblue;"></circle><circle cx="389.5824634283781" cy="69.65549867600203" r="3" style="fill: steelblue;"></circle><circle cx="199.66842614114285" cy="224.42245595157146" r="3" style="fill: steelblue;"></circle><circle cx="281.7556393146515" cy="219.3322747014463" r="3" style="fill: steelblue;"></circle><circle cx="368.56736920773983" cy="202.66034798696637" r="3" style="fill: steelblue;"></circle><circle cx="366.53223641216755" cy="255.16858715564013" r="3" style="fill: steelblue;"></circle><circle cx="263.23102897033095" cy="177.0194326643832" r="3" style="fill: steelblue;"></circle><circle cx="196.97755862027407" cy="145.34210246056318" r="3" style="fill: steelblue;"></circle><circle cx="308.1796561181545" cy="125.28587896376848" r="3" style="fill: steelblue;"></circle><circle cx="166.58100754022598" cy="195.93709097243845" r="3" style="fill: steelblue;"></circle><circle cx="226.00450336933136" cy="57.16116465628147" r="3" style="fill: steelblue;"></circle><circle cx="125.74373155832292" cy="289.82131853699684" r="3" style="fill: steelblue;"></circle><circle cx="131.28301955759528" cy="177.73556786123663" r="3" style="fill: steelblue;"></circle><circle cx="281.09719262458384" cy="200.55289515294135" r="3" style="fill: steelblue;"></circle><circle cx="274.6905747265555" cy="224.927297513932" r="3" style="fill: steelblue;"></circle><circle cx="376.9221217185259" cy="112.23963107913733" r="3" style="fill: steelblue;"></circle><circle cx="297.1033985540271" cy="214.98441202566028" r="3" style="fill: steelblue;"></circle><circle cx="221.86397060751915" cy="263.69138918817043" r="3" style="fill: steelblue;"></circle><circle cx="196.6327053308487" cy="216.48189211264253" r="3" style="fill: steelblue;"></circle><circle cx="52.14720860123636" cy="273.42412639409304" r="3" style="fill: steelblue;"></circle><circle cx="87.44241043925287" cy="230.47213833779097" r="3" style="fill: steelblue;"></circle><circle cx="107.78427354991437" cy="180.43106184341013" r="3" style="fill: steelblue;"></circle><circle cx="139.59711648523808" cy="224.25201321020722" r="3" style="fill: steelblue;"></circle><circle cx="254.83243491500616" cy="303.91172990202904" r="3" style="fill: steelblue;"></circle><circle cx="272.19940374372527" cy="222.91146144270897" r="3" style="fill: steelblue;"></circle><circle cx="315.5625018104911" cy="225.3891445696354" r="3" style="fill: steelblue;"></circle><circle cx="260.01885757315904" cy="308.8998097926378" r="3" style="fill: steelblue;"></circle><circle cx="68.77421557903291" cy="299.12067502737045" r="3" style="fill: steelblue;"></circle><circle cx="225.47335054725409" cy="244.53413225710392" r="3" style="fill: steelblue;"></circle><circle cx="227.03801717609167" cy="309.82082448899746" r="3" style="fill: steelblue;"></circle><circle cx="230.24361234158278" cy="162.88618855178356" r="3" style="fill: steelblue;"></circle><circle cx="337.63002444058657" cy="122.7165904827416" r="3" style="fill: steelblue;"></circle><circle cx="258.28702666796744" cy="187.86209432873875" r="3" style="fill: steelblue;"></circle><circle cx="161.1379773169756" cy="156.65493831038475" r="3" style="fill: steelblue;"></circle><circle cx="235.07340157404542" cy="275.1688754186034" r="3" style="fill: steelblue;"></circle><circle cx="172.63602398335934" cy="299.9631326645613" r="3" style="fill: steelblue;"></circle><circle cx="186.32670611143112" cy="179.017960105557" r="3" style="fill: steelblue;"></circle><circle cx="213.84081959724426" cy="119.78011783212423" r="3" style="fill: steelblue;"></circle><circle cx="172.07919739186764" cy="275.51105823367834" r="3" style="fill: steelblue;"></circle><circle cx="230.3062754496932" cy="286.0083218663931" r="3" style="fill: steelblue;"></circle><circle cx="333.5318420827389" cy="166.70459294691682" r="3" style="fill: steelblue;"></circle><circle cx="266.3952280115336" cy="111.07646506279707" r="3" style="fill: steelblue;"></circle><circle cx="294.4199817068875" cy="182.80917634256184" r="3" style="fill: steelblue;"></circle><circle cx="451.6390872001648" cy="134.73437977954745" r="3" style="fill: steelblue;"></circle><circle cx="355.98898239433765" cy="81.2374820932746" r="3" style="fill: steelblue;"></circle><circle cx="394.66794177889824" cy="157.1989492047578" r="3" style="fill: steelblue;"></circle><circle cx="96.32932662963869" cy="132.71007193252444" r="3" style="fill: steelblue;"></circle><circle cx="285.0928370654583" cy="90.64651858061552" r="3" style="fill: steelblue;"></circle><circle cx="312.7969867363572" cy="151.10137634910643" r="3" style="fill: steelblue;"></circle><circle cx="300.6510985828936" cy="183.49093426950276" r="3" style="fill: steelblue;"></circle><circle cx="191.99844662100077" cy="182.60162924416363" r="3" style="fill: steelblue;"></circle><circle cx="182.8874871879816" cy="53.72662395238876" r="3" style="fill: steelblue;"></circle><circle cx="383.4795494377613" cy="90.63766542822123" r="3" style="fill: steelblue;"></circle><circle cx="166.710055321455" cy="176.4432221360039" r="3" style="fill: steelblue;"></circle><circle cx="228.82750656455755" cy="109.22197736799717" r="3" style="fill: steelblue;"></circle><circle cx="250.11126508936286" cy="258.87528732419014" r="3" style="fill: steelblue;"></circle><circle cx="226.20641838759184" cy="241.62421580404043" r="3" style="fill: steelblue;"></circle><circle cx="180.28607301414013" cy="224.8087154701352" r="3" style="fill: steelblue;"></circle><circle cx="98.09884026646615" cy="223.83413203060627" r="3" style="fill: steelblue;"></circle><circle cx="206.50058079510927" cy="261.7991289123893" r="3" style="fill: steelblue;"></circle><circle cx="164.85175721347332" cy="305.28160855174065" r="3" style="fill: steelblue;"></circle><circle cx="208.256973400712" cy="204.55907536670566" r="3" style="fill: steelblue;"></circle><circle cx="116.40841707587244" cy="103.54238022118807" r="3" style="fill: steelblue;"></circle><circle cx="70.37871301174165" cy="259.76707618683577" r="3" style="fill: steelblue;"></circle><circle cx="182.76130601763725" cy="164.9062702897936" r="3" style="fill: steelblue;"></circle><circle cx="283.7369188014418" cy="209.80622079223394" r="3" style="fill: steelblue;"></circle><circle cx="304.9893596023321" cy="134.6950621344149" r="3" style="fill: steelblue;"></circle><circle cx="304.1946143656969" cy="209.4882276840508" r="3" style="fill: steelblue;"></circle><circle cx="364.8126319795847" cy="104.55996468663216" r="3" style="fill: steelblue;"></circle><circle cx="334.08759243786335" cy="120.94802986830473" r="3" style="fill: steelblue;"></circle><circle cx="358.7600999325514" cy="98.99106454104185" r="3" style="fill: steelblue;"></circle><circle cx="436.81380048394203" cy="192.64250569976866" r="3" style="fill: steelblue;"></circle><circle cx="417.5269205868244" cy="77.53403503447771" r="3" style="fill: steelblue;"></circle><circle cx="532.0003692805767" cy="161.54094291850924" r="3" style="fill: steelblue;"></circle><circle cx="477.6253071427345" cy="146.2249729782343" r="3" style="fill: steelblue;"></circle><circle cx="433.0463194102049" cy="165.4327590484172" r="3" style="fill: steelblue;"></circle><circle cx="337.5960374996066" cy="68.42957828193903" r="3" style="fill: steelblue;"></circle><circle cx="262.4345813691616" cy="293.4186842292547" r="3" style="fill: steelblue;"></circle><circle cx="180.64756773412228" cy="231.94893281906843" r="3" style="fill: steelblue;"></circle><circle cx="194.08480122685432" cy="166.49750138167292" r="3" style="fill: steelblue;"></circle><circle cx="234.95855106040835" cy="116.83039478957653" r="3" style="fill: steelblue;"></circle><circle cx="237.07536717876792" cy="209.4406240619719" r="3" style="fill: steelblue;"></circle><circle cx="192.91410248726606" cy="264.50309548527" r="3" style="fill: steelblue;"></circle><circle cx="216.68768104165792" cy="267.5938757136464" r="3" style="fill: steelblue;"></circle><circle cx="135.80592803657055" cy="242.91612412780523" r="3" style="fill: steelblue;"></circle><circle cx="243.20771673694253" cy="165.75740424450487" r="3" style="fill: steelblue;"></circle><circle cx="61.93945080041887" cy="245.0600277632475" r="3" style="fill: steelblue;"></circle><circle cx="107.07450069487096" cy="231.0780055820942" r="3" style="fill: steelblue;"></circle><circle cx="358.0298584699631" cy="174.5313866675133" r="3" style="fill: steelblue;"></circle><circle cx="420.4732836037874" cy="40.69207161664963" r="3" style="fill: steelblue;"></circle><circle cx="440.8668865263462" cy="5.579269677400589" r="3" style="fill: steelblue;"></circle><circle cx="515.4054482281208" cy="61.524295434355736" r="3" style="fill: steelblue;"></circle><circle cx="300.870892200619" cy="81.57467767596245" r="3" style="fill: steelblue;"></circle><circle cx="418.670869320631" cy="10.22738330066204" r="3" style="fill: steelblue;"></circle><circle cx="211.176294721663" cy="134.56506812945008" r="3" style="fill: steelblue;"></circle><circle cx="79.53048393130304" cy="306.12093694508076" r="3" style="fill: steelblue;"></circle><circle cx="195.93942806124687" cy="204.19775526970625" r="3" style="fill: steelblue;"></circle><circle cx="14.217883050441756" cy="244.4361999630928" r="3" style="fill: steelblue;"></circle><circle cx="137.74721704423428" cy="96.9569256529212" r="3" style="fill: steelblue;"></circle><circle cx="213.168443441391" cy="133.98505300283432" r="3" style="fill: steelblue;"></circle></g></svg>