<svg xmlns="http://www.w3.org/2000/svg"><g transform="translate(40,20)"><circle cx="344.7242349386215" cy="156.47526495158672" r="3" style="fill: steelblue;"></circle><circle cx="350.63985586166376" cy="99.75470826029778" r="3" style="fill: steelblue;"></circle><circle cx="271.0120216012001" cy="81.86119645833969" r="3" style="fill: steelblue;"></circle><circle cx="246.1318954825401" cy="161.92405298352242" r="3" style="fill: steelblue;"></circle><circle cx="396.254763007164" cy="138.30404840409756" r="3" style="fill: steelblue;"></circle><circle cx="456.6295266151428" cy="132.44999460875988" r="3" style="fill: steelblue;"></circle><circle cx="223.75396192073822" cy="112.57060468196869" r="3" style="fill: steelblue;"></circle><circle cx="292.09812730550766" cy="73.49352538585663" r="3" style="fill: steelblue;"></circle><circle cx="473.9461362361908" cy="71.5974435210228" r="3" style="fill: steelblue;"></circle><circle cx="290.16219936311245" cy="95.12451216578484" r="3" style="fill: steelblue;"></circle><circle cx="418.5412734746933" cy="129.83569651842117" r="3" style="fill: steelblue;"></circle><circle cx="503.6541759967804" cy="68.6019018292427" r="3" style="fill: steelblue;"></circle><circle cx="412.5028610229492" cy="234.1407373547554" r="3" style="fill: steelblue;"></circle><circle cx="357.86396116018295" cy="122.2244992852211" r="3" style="fill: steelblue;"></circle><circle cx="303.20414789021015" cy="166.80122269317508" r="3" style="fill: steelblue;"></circle><circle cx="488.62754702568054" cy="192.9009098559618" r="3" style="fill: steelblue;"></circle><circle cx="333.9181512594223" cy="181.76303328946233" r="3" style="fill: steelblue;"></circle><circle cx="397.54908084869385" cy="227.10238471627235" r="3" style="fill: steelblue;"></circle><circle cx="252.02867835760117" cy="105.76800927519798" r="3" style="fill: steelblue;"></circle><circle cx="383.28127562999725" cy="150.5058828741312" r="3" style="fill: steelblue;"></circle><circle cx="368.99822652339935" cy="202.80740223824978" r="3" style="fill: steelblue;"></circle><circle cx="157.80534446239471" cy="205.62192499637604" r="3" style="fill: steelblue;"></circle><circle cx="454.38907742500305" cy="173.87703930726275" r="3" style="fill: steelblue;"></circle><circle cx="268.88806745409966" cy="140.8002644777298" r="3" style="fill: steelblue;"></circle><circle cx="316.24162048101425" cy="93.87668967247009" r="3" style="fill: steelblue;"></circle><circle cx="298.7839065492153" cy="123.69115501642227" r="3" style="fill: steelblue;"></circle><circle cx="406.58285915851593" cy="241.6727177798748" r="3" style="fill: steelblue;"></circle><circle cx="289.8651212453842" cy="74.36216175556183" r="3" style="fill: steelblue;"></circle><circle cx="446.30562365055084" cy="187.47574891895056" r="3" style="fill: steelblue;"></circle><circle cx="228.0906781554222" cy="224.55556094646454" r="3" style="fill: steelblue;"></circle><circle cx="302.90716644376516" cy="216.82740300893784" r="3" style="fill: steelblue;"></circle><circle cx="390.2590423822403" cy="122.60991781949997" r="3" style="fill: steelblue;"></circle><circle cx="324.6804244816303" cy="203.92303243279457" r="3" style="fill: steelblue;"></circle><circle cx="286.58297806978226" cy="217.40197129547596" r="3" style="fill: steelblue;"></circle><circle cx="441.159725189209" cy="142.81093403697014" r="3" style="fill: steelblue;"></circle><circle cx="187.54722476005554" cy="246.84790819883347" r="3" style="fill: steelblue;"></circle><circle cx="413.79447877407074" cy="231.23050928115845" r="3" style="fill: steelblue;"></circle><circle cx="261.6524577140808" cy="214.558195322752" r="3" style="fill: steelblue;"></circle><circle cx="316.37625731527805" cy="297.8746101260185" r="3" style="fill: steelblue;"></circle><circle cx="257.671120762825" cy="125.89400708675385" r="3" style="fill: steelblue;"></circle><circle cx="242.01717674732208" cy="141.5440570563078" r="3" style="fill: steelblue;"></circle><circle cx="355.17842173576355" cy="222.46612310409546" r="3" style="fill: steelblue;"></circle><circle cx="206.72025382518768" cy="248.24314936995506" r="3" style="fill: steelblue;"></circle><circle cx="177.1222025156021" cy="222.19403013586998" r="3" style="fill: steelblue;"></circle><circle cx="383.9410275220871" cy="205.2126720547676" r="3" style="fill: steelblue;"></circle><circle cx="222.29165732860565" cy="288.1643369793892" r="3" style="fill: steelblue;"></circle><circle cx="208.71745347976682" cy="157.86169730126858" r="3" style="fill: steelblue;"></circle><circle cx="319.2985899746418" cy="253.66368293762207" r="3" style="fill: steelblue;"></circle><circle cx="269.8196366429329" cy="189.65745512396097" r="3" style="fill: steelblue;"></circle><circle cx="410.432231426239" cy="212.93423771858215" r="3" style="fill: steelblue;"></circle><circle cx="271.79556638002396" cy="211.41509674489498" r="3" style="fill: steelblue;"></circle><circle cx="379.8008769750595" cy="185.55966075509787" r="3" style="fill: steelblue;"></circle><circle cx="59.26133394241333" cy="146.89830280840397" r="3" style="fill: steelblue;"></circle><circle cx="242.59611815214157" cy="270.29723078012466" r="3" style="fill: steelblue;"></circle><circle cx="281.61897473037243" cy="203.21330167353153" r="3" style="fill: steelblue;"></circle><circle cx="293.2490721344948" cy="195.77873460948467" r="3" style="fill: steelblue;"></circle><circle cx="251.91000401973724" cy="221.39597907662392" r="3" style="fill: steelblue;"></circle><circle cx="215.87262153625488" cy="324.6814340353012" r="3" style="fill: steelblue;"></circle><circle cx="148.7978160381317" cy="169.44054821506143" r="3" style="fill: steelblue;"></circle><circle cx="394.7282463312149" cy="187.18181904405355" r="3" style="fill: steelblue;"></circle><circle cx="170.43318450450897" cy="71.7078223824501" r="3" style="fill: steelblue;"></circle><circle cx="424.63088035583496" cy="128.67842391133308" r="3" style="fill: steelblue;"></circle><circle cx="445.4718232154846" cy="158.66084229201078" r="3" style="fill: steelblue;"></circle><circle cx="362.6088961958885" cy="95.58674842119217" r="3" style="fill: steelblue;"></circle><circle cx="290.3185095638037" cy="74.20593947172165" r="3" style="fill: steelblue;"></circle><circle cx="432.25821554660797" cy="86.084945499897" r="3" style="fill: steelblue;"></circle><circle cx="339.03311938047403" cy="141.12004190683365" r="3" style="fill: steelblue;"></circle><circle cx="347.26240485906595" cy="127.01105326414108" r="3" style="fill: steelblue;"></circle><circle cx="409.43131148815155" cy="62.33144998550415" r="3" style="fill: steelblue;"></circle><circle cx="364.45233374834055" cy="123.62873703241348" r="3" style="fill: steelblue;"></circle><circle cx="250.36592334508896" cy="130.13008534908295" r="3" style="fill: steelblue;"></circle><circle cx="324.2214985191822" cy="253.65152582526207" r="3" style="fill: steelblue;"></circle><circle cx="148.83581399917603" cy="149.50540624558926" r="3" style="fill: steelblue;"></circle><circle cx="411.69650852680206" cy="213.5876003652811" r="3" style="fill: steelblue;"></circle><circle cx="153.93482744693756" cy="174.67206606233958" r="3" style="fill: steelblue;"></circle><circle cx="209.8241686820984" cy="246.76069617271423" r="3" style="fill: steelblue;"></circle><circle cx="204.80520129203796" cy="172.44758906308562" r="3" style="fill: steelblue;"></circle><circle cx="109.16908979415894" cy="184.0205630287528" r="3" style="fill: steelblue;"></circle><circle cx="196.97160422801971" cy="175.01476220786572" r="3" style="fill: steelblue;"></circle><circle cx="127.18124985694885" cy="161.84867341071367" r="3" style="fill: steelblue;"></circle><circle cx="193.14700663089752" cy="178.08012254536152" r="3" style="fill: steelblue;"></circle><circle cx="305.12877367436886" cy="209.10356864333153" r="3" style="fill: steelblue;"></circle><circle cx="333.28614458441734" cy="225.99498182535172" r="3" style="fill: steelblue;"></circle><circle cx="251.97748392820355" cy="214.22485783696175" r="3" style="fill: steelblue;"></circle><circle cx="299.4472956983372" cy="212.23343051970005" r="3" style="fill: steelblue;"></circle><circle cx="314.1484212130308" cy="78.66848111152649" r="3" style="fill: steelblue;"></circle><circle cx="291.42582044005394" cy="125.69540441036224" r="3" style="fill: steelblue;"></circle><circle cx="433.491575717926" cy="131.9915473461151" r="3" style="fill: steelblue;"></circle><circle cx="469.746333360672" cy="116.96134582161903" r="3" style="fill: steelblue;"></circle><circle cx="371.3211849331856" cy="106.14504665136337" r="3" style="fill: steelblue;"></circle><circle cx="319.8563151061535" cy="163.5745583102107" r="3" style="fill: steelblue;"></circle><circle cx="383.224081993103" cy="145.85131257772446" r="3" style="fill: steelblue;"></circle><circle cx="267.35130697488785" cy="154.28392849862576" r="3" style="fill: steelblue;"></circle><circle cx="354.36214953660965" cy="106.38980567455292" r="3" style="fill: steelblue;"></circle><circle cx="210.19803285598752" cy="232.81307220458984" r="3" style="fill: steelblue;"></circle><circle cx="123.1850266456604" cy="193.01024563610554" r="3" style="fill: steelblue;"></circle><circle cx="191.3768112659454" cy="225.38369968533516" r="3" style="fill: steelblue;"></circle><circle cx="163.24097514152524" cy="228.14892902970314" r="3" style="fill: steelblue;"></circle><circle cx="310.1401023566723" cy="202.33653709292412" r="3" style="fill: steelblue;"></circle><circle cx="121.96372747421265" cy="244.73178833723068" r="3" style="fill: steelblue;"></circle><circle cx="226.76104903221128" cy="204.96333129703999" r="3" style="fill: steelblue;"></circle><circle cx="129.43952679634094" cy="225.6507858633995" r="3" style="fill: steelblue;"></circle><circle cx="243.56480687856674" cy="154.62770462036133" r="3" style="fill: steelblue;"></circle><circle cx="246.72086387872693" cy="236.2605758011341" r="3" style="fill: steelblue;"></circle><circle cx="131.06861114501953" cy="122.9314997792244" r="3" style="fill: steelblue;"></circle><circle cx="235.9637662768364" cy="188.29511012881994" r="3" style="fill: steelblue;"></circle><circle cx="329.6842709183693" cy="169.78297159075737" r="3" style="fill: steelblue;"></circle><circle cx="309.23860240727663" cy="133.0752618610859" r="3" style="fill: steelblue;"></circle><circle cx="468.5327589511871" cy="54.62832599878311" r="3" style="fill: steelblue;"></circle><circle cx="389.72330689430237" cy="169.24666743725538" r="3" style="fill: steelblue;"></circle><circle cx="493.9634084701538" cy="66.28896296024323" r="3" style="fill: steelblue;"></circle><circle cx="395.597979426384" cy="23.92885833978653" r="3" style="fill: steelblue;"></circle><circle cx="173.29911589622498" cy="292.5366625189781" r="3" style="fill: steelblue;"></circle><circle cx="151.49112939834592" cy="252.2064983844757" r="3" style="fill: steelblue;"></circle><circle cx="340.6867012381553" cy="136.4907741546631" r="3" style="fill: steelblue;"></circle><circle cx="181.31619393825528" cy="309.5369890332222" r="3" style="fill: steelblue;"></circle><circle cx="165.88471233844757" cy="266.4896607398987" r="3" style="fill: steelblue;"></circle><circle cx="276.4208950102329" cy="234.6432365477085" r="3" style="fill: steelblue;"></circle></g></svg>