<svg xmlns="http://www.w3.org/2000/svg"><g transform="translate(40,20)"><circle cx="240.7090982235968" cy="126.56762550274533" r="3" style="fill: steelblue;"></circle><circle cx="436.7958866804838" cy="122.73342675632902" r="3" style="fill: steelblue;"></circle><circle cx="509.6636165678501" cy="174.34406007329625" r="3" style="fill: steelblue;"></circle><circle cx="384.14502561092377" cy="190.47006774279805" r="3" style="fill: steelblue;"></circle><circle cx="155.499856621027" cy="93.16820916202335" r="3" style="fill: steelblue;"></circle><circle cx="527.7268056571484" cy="54.03641793462965" r="3" style="fill: steelblue;"></circle><circle cx="343.77609852701426" cy="204.97428394026224" r="3" style="fill: steelblue;"></circle><circle cx="354.11655742675066" cy="160.6771397093932" r="3" style="fill: steelblue;"></circle><circle cx="399.554970189929" cy="42.81268947654302" r="3" style="fill: steelblue;"></circle><circle cx="274.04840076807886" cy="161.9319078202049" r="3" style="fill: steelblue;"></circle><circle cx="107.96617761254312" cy="78.7232486738099" r="3" style="fill: steelblue;"></circle><circle cx="182.17198111116886" cy="23.55747852060529" r="3" style="fill: steelblue;"></circle><circle cx="457.2930496931076" cy="82.63703452216254" r="3" style="fill: steelblue;"></circle><circle cx="260.6301095383242" cy="118.0511362850666" r="3" style="fill: steelblue;"></circle><circle cx="397.16862224042416" cy="153.47879303412304" r="3" style="fill: steelblue;"></circle><circle cx="471.95096656680107" cy="33.29696026113299" r="3" style="fill: steelblue;"></circle><circle cx="85.51228612661363" cy="133.5715686281522" r="3" style="fill: steelblue;"></circle><circle cx="509.0992261469364" cy="92.32929944992065" r="3" style="fill: steelblue;"></circle><circle cx="374.72276732325554" cy="186.64807884229555" r="3" style="fill: steelblue;"></circle><circle cx="273.0202910886146" cy="101.57695098055734" r="3" style="fill: steelblue;"></circle><circle cx="457.75860741734505" cy="110.83448280890781" r="3" style="fill: steelblue;"></circle><circle cx="161.23805724084377" cy="247.71875821881827" r="3" style="fill: steelblue;"></circle><circle cx="212.01548248529434" cy="55.48856092823877" r="3" style="fill: steelblue;"></circle><circle cx="365.3200723975897" cy="175.720697020491" r="3" style="fill: steelblue;"></circle><circle cx="248.76084996387362" cy="145.02857931786116" r="3" style="fill: steelblue;"></circle><circle cx="95.52540823817255" cy="156.34376427365675" r="3" style="fill: steelblue;"></circle><circle cx="301.6527955234051" cy="86.47407276762857" r="3" style="fill: steelblue;"></circle><circle cx="352.3173265904188" cy="162.12445845206577" r="3" style="fill: steelblue;"></circle><circle cx="419.1918783634901" cy="60.727836522791115" r="3" style="fill: steelblue;"></circle><circle cx="223.4294569864869" cy="202.16344934370784" r="3" style="fill: steelblue;"></circle><circle cx="281.7883186787367" cy="153.67128100867075" r="3" style="fill: steelblue;"></circle><circle cx="205.21844632923603" cy="97.0543243818813" r="3" style="fill: steelblue;"></circle><circle cx="160.35346135497093" cy="139.55898413227663" r="3" style="fill: steelblue;"></circle><circle cx="174.5082025229931" cy="164.2517734732893" r="3" style="fill: steelblue;"></circle><circle cx="252.93043607845902" cy="64.06314108106824" r="3" style="fill: steelblue;"></circle><circle cx="326.1558762565255" cy="228.4416135814455" r="3" style="fill: steelblue;"></circle><circle cx="206.79957333952188" cy="81.79987486865787" r="3" style="fill: steelblue;"></circle><circle cx="239.41681997850537" cy="180.4104440742069" r="3" style="fill: steelblue;"></circle><circle cx="213.33391226828098" cy="144.94131470306053" r="3" style="fill: steelblue;"></circle><circle cx="262.7203699015081" cy="182.9909402463171" r="3" style="fill: steelblue;"></circle><circle cx="61.21811091899873" cy="193.13701507118014" r="3" style="fill: steelblue;"></circle><circle cx="54.97038781642915" cy="119.7917636897829" r="3" style="fill: steelblue;"></circle><circle cx="275.39679480716586" cy="216.01465029848947" r="3" style="fill: steelblue;"></circle><circle cx="186.33712649345398" cy="235.19857244359122" r="3" style="fill: steelblue;"></circle><circle cx="316.99068758636713" cy="101.14933401346207" r="3" style="fill: steelblue;"></circle><circle cx="239.41888444125652" cy="205.92207395368155" r="3" style="fill: steelblue;"></circle><circle cx="327.06519540399313" cy="214.72016904089185" r="3" style="fill: steelblue;"></circle><circle cx="253.78319246694446" cy="143.04721020162106" r="3" style="fill: steelblue;"></circle><circle cx="311.7593968100846" cy="175.11690217587682" r="3" style="fill: steelblue;"></circle><circle cx="188.58142632991076" cy="83.979109260771" r="3" style="fill: steelblue;"></circle><circle cx="195.53595509380102" cy="173.8362069759104" r="3" style="fill: steelblue;"></circle><circle cx="398.60392928123474" cy="103.83276492357254" r="3" style="fill: steelblue;"></circle><circle cx="221.90248880535364" cy="311.5898761484358" r="3" style="fill: steelblue;"></circle><circle cx="150.95978870987892" cy="192.7617752717601" r="3" style="fill: steelblue;"></circle><circle cx="293.54210475459695" cy="167.469183045129" r="3" style="fill: steelblue;"></circle><circle cx="117.50019349157812" cy="159.9311569498645" r="3" style="fill: steelblue;"></circle><circle cx="331.7529993876815" cy="186.72499739461477" r="3" style="fill: steelblue;"></circle><circle cx="243.96175861358643" cy="210.08256011539038" r="3" style="fill: steelblue;"></circle><circle cx="191.83658871799707" cy="253.55697108639612" r="3" style="fill: steelblue;"></circle><circle cx="238.80496451631188" cy="94.15761811865701" r="3" style="fill: steelblue;"></circle><circle cx="407.3160023242235" cy="239.53404708041086" r="3" style="fill: steelblue;"></circle><circle cx="296.5295357443392" cy="74.77628125084772" r="3" style="fill: steelblue;"></circle><circle cx="444.990501254797" cy="61.26826273070441" r="3" style="fill: steelblue;"></circle><circle cx="448.6754138767719" cy="114.97571542859077" r="3" style="fill: steelblue;"></circle><circle cx="430.3331074118614" cy="161.8305956530902" r="3" style="fill: steelblue;"></circle><circle cx="446.5311688184738" cy="69.83263807164298" r="3" style="fill: steelblue;"></circle><circle cx="158.26178088784218" cy="130.2563115126557" r="3" style="fill: steelblue;"></circle><circle cx="444.9619357287884" cy="124.9225153691239" r="3" style="fill: steelblue;"></circle><circle cx="243.86507838964462" cy="84.62785366508695" r="3" style="fill: steelblue;"></circle><circle cx="253.22138325311244" cy="113.78089479274222" r="3" style="fill: steelblue;"></circle><circle cx="344.94907043874264" cy="187.72579042447938" r="3" style="fill: steelblue;"></circle><circle cx="74.6583116054535" cy="139.8564361449745" r="3" style="fill: steelblue;"></circle><circle cx="274.9884850624949" cy="253.53234277831183" r="3" style="fill: steelblue;"></circle><circle cx="192.5291769951582" cy="83.15967039929495" r="3" style="fill: steelblue;"></circle><circle cx="136.27655513584614" cy="250.22742665476267" r="3" style="fill: steelblue;"></circle><circle cx="210.7350528985262" cy="214.00285363197327" r="3" style="fill: steelblue;"></circle><circle cx="126.02281875908376" cy="217.25588805145685" r="3" style="fill: steelblue;"></circle><circle cx="178.72918143868446" cy="279.242256614897" r="3" style="fill: steelblue;"></circle><circle cx="95.36697015166284" cy="222.33321948183908" r="3" style="fill: steelblue;"></circle><circle cx="133.4661700576544" cy="267.5677084260517" r="3" style="fill: steelblue;"></circle><circle cx="301.2570573762059" cy="224.81212533182565" r="3" style="fill: steelblue;"></circle><circle cx="231.56367911025882" cy="152.23135039624242" r="3" style="fill: steelblue;"></circle><circle cx="137.6877424120903" cy="133.98120258417396" r="3" style="fill: steelblue;"></circle><circle cx="257.0519674848765" cy="186.6812604169051" r="3" style="fill: steelblue;"></circle><circle cx="260.7877794234082" cy="155.9137898251518" r="3" style="fill: steelblue;"></circle><circle cx="388.87315325438976" cy="146.38528254710968" r="3" style="fill: steelblue;"></circle><circle cx="359.902338758111" cy="161.1128941592243" r="3" style="fill: steelblue;"></circle><circle cx="281.24735651537776" cy="69.03323796060351" r="3" style="fill: steelblue;"></circle><circle cx="367.1986882388592" cy="45.534783932897774" r="3" style="fill: steelblue;"></circle><circle cx="317.26357888430357" cy="109.32886161737973" r="3" style="fill: steelblue;"></circle><circle cx="320.1831013709307" cy="142.6857216904561" r="3" style="fill: steelblue;"></circle><circle cx="345.8876994252205" cy="101.61402093039618" r="3" style="fill: steelblue;"></circle><circle cx="108.27054128050806" cy="176.71674547923936" r="3" style="fill: steelblue;"></circle><circle cx="467.55050763487816" cy="120.3208290040493" r="3" style="fill: steelblue;"></circle><circle cx="98.42227444052698" cy="213.76053426000806" r="3" style="fill: steelblue;"></circle><circle cx="253.97539244033396" cy="270.1578531000349" r="3" style="fill: steelblue;"></circle><circle cx="376.65043741464615" cy="225.9594741794798" r="3" style="fill: steelblue;"></circle><circle cx="389.82391253113747" cy="244.1956642601225" r="3" style="fill: steelblue;"></circle><circle cx="248.7285503000021" cy="148.98326699104575" r="3" style="fill: steelblue;"></circle><circle cx="177.55894035100937" cy="270.94943589634363" r="3" style="fill: steelblue;"></circle><circle cx="297.3997809737921" cy="203.0252459976408" r="3" style="fill: steelblue;"></circle><circle cx="197.48841885477304" cy="266.104010409779" r="3" style="fill: steelblue;"></circle><circle cx="52.01208561658861" cy="192.13392146759566" r="3" style="fill: steelblue;"></circle><circle cx="122.9712460935116" cy="190.0883289674918" r="3" style="fill: steelblue;"></circle><circle cx="325.6986417621374" cy="265.04812240600586" r="3" style="fill: steelblue;"></circle><circle cx="59.74125310778619" cy="197.06052185760603" r="3" style="fill: steelblue;"></circle><circle cx="353.6043292656541" cy="136.31575033068657" r="3" style="fill: steelblue;"></circle><circle cx="514.8115669190884" cy="149.5675725138022" r="3" style="fill: steelblue;"></circle><circle cx="270.22125202958705" cy="46.3213599390454" r="3" style="fill: steelblue;"></circle><circle cx="319.71085488796234" cy="97.40156034628552" r="3" style="fill: steelblue;"></circle><circle cx="428.30574966967106" cy="29.83853154712255" r="3" style="fill: steelblue;"></circle><circle cx="289.7636764962226" cy="93.59390222364003" r="3" style="fill: steelblue;"></circle><circle cx="213.82080864161253" cy="237.67649895615045" r="3" style="fill: steelblue;"></circle><circle cx="312.1947671100497" cy="251.81130501959058" r="3" style="fill: steelblue;"></circle><circle cx="130.15490256249907" cy="129.18454549378822" r="3" style="fill: steelblue;"></circle><circle cx="30.015041381120696" cy="232.48024466964932" r="3" style="fill: steelblue;"></circle><circle cx="287.53360661678016" cy="242.48213089174692" r="3" style="fill: steelblue;"></circle><circle cx="237.59795285761356" cy="170.83830878966387" r="3" style="fill: steelblue;"></circle></g></svg>