<svg xmlns="http://www.w3.org/2000/svg"><g transform="translate(40,20)"><circle cx="386.991650685668" cy="70.68398334085941" r="3" style="fill: steelblue;"></circle><circle cx="494.49186220765114" cy="205.0846742466092" r="3" style="fill: steelblue;"></circle><circle cx="342.7561080828309" cy="176.97226664749905" r="3" style="fill: steelblue;"></circle><circle cx="475.7091034948826" cy="39.74576219916344" r="3" style="fill: steelblue;"></circle><circle cx="454.6426919102669" cy="88.87265454977751" r="3" style="fill: steelblue;"></circle><circle cx="401.35393448174" cy="107.55477491766214" r="3" style="fill: steelblue;"></circle><circle cx="270.65021194168366" cy="140.50105139613152" r="3" style="fill: steelblue;"></circle><circle cx="478.8225647807121" cy="65.0139108300209" r="3" style="fill: steelblue;"></circle><circle cx="279.0972437057644" cy="100.54112896323204" r="3" style="fill: steelblue;"></circle><circle cx="136.50049276649952" cy="118.91793943941593" r="3" style="fill: steelblue;"></circle><circle cx="538.1612491607666" cy="14.803680777549744" r="3" style="fill: steelblue;"></circle><circle cx="292.70386749878526" cy="85.86972784250975" r="3" style="fill: steelblue;"></circle><circle cx="272.7722522383556" cy="98.61380811780691" r="3" style="fill: steelblue;"></circle><circle cx="225.88785242289305" cy="139.28402652963996" r="3" style="fill: steelblue;"></circle><circle cx="429.94357019662857" cy="145.9726059809327" r="3" style="fill: steelblue;"></circle><circle cx="484.2702117562294" cy="161.55206232797354" r="3" style="fill: steelblue;"></circle><circle cx="349.74720373749733" cy="281.54055047780275" r="3" style="fill: steelblue;"></circle><circle cx="228.14539147540927" cy="147.52276167273521" r="3" style="fill: steelblue;"></circle><circle cx="337.95233711600304" cy="69.84101068228483" r="3" style="fill: steelblue;"></circle><circle cx="354.96560230851173" cy="244.42648626863956" r="3" style="fill: steelblue;"></circle><circle cx="258.36963661015034" cy="57.34054856002331" r="3" style="fill: steelblue;"></circle><circle cx="417.9818567633629" cy="283.25079306960106" r="3" style="fill: steelblue;"></circle><circle cx="244.15131200104952" cy="29.996198788285255" r="3" style="fill: steelblue;"></circle><circle cx="249.86834370531142" cy="35.4656346142292" r="3" style="fill: steelblue;"></circle><circle cx="364.75250355899334" cy="105.1833426579833" r="3" style="fill: steelblue;"></circle><circle cx="337.29028578847647" cy="257.4866592884064" r="3" style="fill: steelblue;"></circle><circle cx="370.1686681061983" cy="148.26657152734697" r="3" style="fill: steelblue;"></circle><circle cx="347.5632033124566" cy="102.5325732305646" r="3" style="fill: steelblue;"></circle><circle cx="353.89583341777325" cy="215.66423699259758" r="3" style="fill: steelblue;"></circle><circle cx="116.37053757905962" cy="183.24656640179455" r="3" style="fill: steelblue;"></circle><circle cx="291.53685009106994" cy="173.76964803843293" r="3" style="fill: steelblue;"></circle><circle cx="214.26398668438196" cy="208.91736233606935" r="3" style="fill: steelblue;"></circle><circle cx="228.27251812443137" cy="133.04887125268579" r="3" style="fill: steelblue;"></circle><circle cx="378.4529221057892" cy="116.11420214176178" r="3" style="fill: steelblue;"></circle><circle cx="472.65810415148735" cy="163.77299181185663" r="3" style="fill: steelblue;"></circle><circle cx="198.16032227128744" cy="180.8594467700459" r="3" style="fill: steelblue;"></circle><circle cx="270.2085987282044" cy="239.45269007235765" r="3" style="fill: steelblue;"></circle><circle cx="266.0777326254174" cy="118.80864407867193" r="3" style="fill: steelblue;"></circle><circle cx="293.9262381568551" cy="200.63661709427834" r="3" style="fill: steelblue;"></circle><circle cx="182.86394074559212" cy="164.78554992936552" r="3" style="fill: steelblue;"></circle><circle cx="74.3202929198742" cy="138.83559610694647" r="3" style="fill: steelblue;"></circle><circle cx="151.4085491001606" cy="139.70151329413056" r="3" style="fill: steelblue;"></circle><circle cx="192.6984679698944" cy="220.1177996583283" r="3" style="fill: steelblue;"></circle><circle cx="199.41985074430704" cy="203.75557355582714" r="3" style="fill: steelblue;"></circle><circle cx="223.88676188886166" cy="215.75766447931528" r="3" style="fill: steelblue;"></circle><circle cx="250.24692619219422" cy="215.0618640705943" r="3" style="fill: steelblue;"></circle><circle cx="146.7713986337185" cy="333.71659107506275" r="3" style="fill: steelblue;"></circle><circle cx="218.1298729777336" cy="173.59361656126566" r="3" style="fill: steelblue;"></circle><circle cx="196.59268844872713" cy="274.6172549203038" r="3" style="fill: steelblue;"></circle><circle cx="193.7070020288229" cy="217.8871214389801" r="3" style="fill: steelblue;"></circle><circle cx="217.34758995473385" cy="194.56952014006674" r="3" style="fill: steelblue;"></circle><circle cx="169.5597381144762" cy="152.03466680832207" r="3" style="fill: steelblue;"></circle><circle cx="196.3265261426568" cy="189.34785360470414" r="3" style="fill: steelblue;"></circle><circle cx="151.79683908820152" cy="99.87459350377321" r="3" style="fill: steelblue;"></circle><circle cx="28.61195102334024" cy="326.7697349190712" r="3" style="fill: steelblue;"></circle><circle cx="170.62233544886112" cy="253.86045891791582" r="3" style="fill: steelblue;"></circle><circle cx="345.09551402181387" cy="216.02473566308618" r="3" style="fill: steelblue;"></circle><circle cx="286.30307491868734" cy="226.35559849441051" r="3" style="fill: steelblue;"></circle><circle cx="112.44681112468244" cy="234.38581842929125" r="3" style="fill: steelblue;"></circle><circle cx="206.50565519928932" cy="233.7938567623496" r="3" style="fill: steelblue;"></circle><circle cx="392.9131333529949" cy="91.1583911627531" r="3" style="fill: steelblue;"></circle><circle cx="376.244545429945" cy="141.35532844811678" r="3" style="fill: steelblue;"></circle><circle cx="412.3719897866249" cy="62.870561331510544" r="3" style="fill: steelblue;"></circle><circle cx="369.75328110158443" cy="90.37684947252274" r="3" style="fill: steelblue;"></circle><circle cx="147.9531665146351" cy="36.796097829937935" r="3" style="fill: steelblue;"></circle><circle cx="466.59609720110893" cy="60.95788925886154" r="3" style="fill: steelblue;"></circle><circle cx="293.26594199985266" cy="232.8309427946806" r="3" style="fill: steelblue;"></circle><circle cx="364.95997577905655" cy="49.99689124524593" r="3" style="fill: steelblue;"></circle><circle cx="421.7714962363243" cy="117.1606082469225" r="3" style="fill: steelblue;"></circle><circle cx="468.54820892214775" cy="35.548702999949455" r="3" style="fill: steelblue;"></circle><circle cx="116.81319259107114" cy="77.93086878955364" r="3" style="fill: steelblue;"></circle><circle cx="257.4484813772142" cy="158.30159042961895" r="3" style="fill: steelblue;"></circle><circle cx="119.29621070623399" cy="221.64987744763494" r="3" style="fill: steelblue;"></circle><circle cx="213.3423813432455" cy="265.57238418608904" r="3" style="fill: steelblue;"></circle><circle cx="317.85836040973663" cy="161.15735629573464" r="3" style="fill: steelblue;"></circle><circle cx="329.48246754705906" cy="254.28986940532923" r="3" style="fill: steelblue;"></circle><circle cx="110.82956984639169" cy="282.56377410143614" r="3" style="fill: steelblue;"></circle><circle cx="137.4173355102539" cy="346.1387112736702" r="3" style="fill: steelblue;"></circle><circle cx="107.26451173424722" cy="242.38958321511745" r="3" style="fill: steelblue;"></circle><circle cx="118.24513010680677" cy="323.19067530333996" r="3" style="fill: steelblue;"></circle><circle cx="174.88282330334187" cy="236.42023764550686" r="3" style="fill: steelblue;"></circle><circle cx="168.45718927681446" cy="191.06016932055354" r="3" style="fill: steelblue;"></circle><circle cx="364.5453029125929" cy="275.95090605318546" r="3" style="fill: steelblue;"></circle><circle cx="384.63628225028515" cy="151.00667597725987" r="3" style="fill: steelblue;"></circle><circle cx="243.91848787665367" cy="158.93527697771788" r="3" style="fill: steelblue;"></circle><circle cx="351.0668908059597" cy="84.94489938020706" r="3" style="fill: steelblue;"></circle><circle cx="201.03320952504873" cy="64.09541256725788" r="3" style="fill: steelblue;"></circle><circle cx="183.2802028208971" cy="151.44837363623083" r="3" style="fill: steelblue;"></circle><circle cx="482.0489001274109" cy="104.08746842294931" r="3" style="fill: steelblue;"></circle><circle cx="247.44977781549096" cy="59.02824103832245" r="3" style="fill: steelblue;"></circle><circle cx="315.18776033073664" cy="117.28362664580345" r="3" style="fill: steelblue;"></circle><circle cx="464.0711461007595" cy="203.5648526623845" r="3" style="fill: steelblue;"></circle><circle cx="476.52133002877235" cy="38.67896385490894" r="3" style="fill: steelblue;"></circle><circle cx="330.67148745059967" cy="91.55018553137779" r="3" style="fill: steelblue;"></circle><circle cx="202.76735823601484" cy="253.85898556560278" r="3" style="fill: steelblue;"></circle><circle cx="61.002883762121215" cy="261.6290479898453" r="3" style="fill: steelblue;"></circle><circle cx="125.5479269474745" cy="291.2219028919935" r="3" style="fill: steelblue;"></circle><circle cx="215.7348145544529" cy="206.07489086687565" r="3" style="fill: steelblue;"></circle><circle cx="152.8633289784193" cy="251.54026802629232" r="3" style="fill: steelblue;"></circle><circle cx="328.87507796287537" cy="74.18285608291626" r="3" style="fill: steelblue;"></circle><circle cx="306.3927969709039" cy="102.36987210810184" r="3" style="fill: steelblue;"></circle><circle cx="127.73684084415437" cy="215.3374950401485" r="3" style="fill: steelblue;"></circle><circle cx="102.55946785211565" cy="214.62636459618807" r="3" style="fill: steelblue;"></circle><circle cx="221.1242240667343" cy="272.11404889822006" r="3" style="fill: steelblue;"></circle><circle cx="86.77458062767984" cy="211.95829957723618" r="3" style="fill: steelblue;"></circle><circle cx="67.40349277853967" cy="207.41901518777013" r="3" style="fill: steelblue;"></circle><circle cx="460.1053659617901" cy="78.05852890014648" r="3" style="fill: steelblue;"></circle><circle cx="430.2365981787443" cy="230.28616346418858" r="3" style="fill: steelblue;"></circle><circle cx="410.2901664376259" cy="73.38838018476963" r="3" style="fill: steelblue;"></circle><circle cx="415.58793492615223" cy="89.44787476211786" r="3" style="fill: steelblue;"></circle><circle cx="486.9662743806839" cy="139.27659783512354" r="3" style="fill: steelblue;"></circle><circle cx="495.3942511975765" cy="147.38855948671699" r="3" style="fill: steelblue;"></circle><circle cx="195.5635952576995" cy="279.0049893781543" r="3" style="fill: steelblue;"></circle><circle cx="153.13042670488358" cy="336.56742349267006" r="3" style="fill: steelblue;"></circle><circle cx="129.08589810132983" cy="247.43874203413725" r="3" style="fill: steelblue;"></circle><circle cx="163.42665933072567" cy="276.93129163235426" r="3" style="fill: steelblue;"></circle><circle cx="292.478886321187" cy="259.3579340726137" r="3" style="fill: steelblue;"></circle><circle cx="286.5634335950017" cy="236.88821606338024" r="3" style="fill: steelblue;"></circle></g></svg>