<svg xmlns="http://www.w3.org/2000/svg"><g transform="translate(40,20)"><circle cx="417.72736608982086" cy="124.84434164232677" r="3" style="fill: steelblue;"></circle><circle cx="329.9423038959503" cy="185.72619940257732" r="3" style="fill: steelblue;"></circle><circle cx="465.0030791759491" cy="183.48061345103713" r="3" style="fill: steelblue;"></circle><circle cx="427.63177156448364" cy="98.24189792076749" r="3" style="fill: steelblue;"></circle><circle cx="431.95421397686005" cy="119.67794845501584" r="3" style="fill: steelblue;"></circle><circle cx="473.13918471336365" cy="10.82604792382983" r="3" style="fill: steelblue;"></circle><circle cx="290.9536678344011" cy="99.74412040577994" r="3" style="fill: steelblue;"></circle><circle cx="377.66568660736084" cy="174.31449248558943" r="3" style="fill: steelblue;"></circle><circle cx="392.4568623304367" cy="58.48606593079035" r="3" style="fill: steelblue;"></circle><circle cx="495.0160324573517" cy="130.5878079599804" r="3" style="fill: steelblue;"></circle><circle cx="432.67385959625244" cy="185.84296655737694" r="3" style="fill: steelblue;"></circle><circle cx="322.43172079324717" cy="126.01195524136227" r="3" style="fill: steelblue;"></circle><circle cx="371.3753119111061" cy="107.94351581070157" r="3" style="fill: steelblue;"></circle><circle cx="289.16010707616806" cy="195.061158375918" r="3" style="fill: steelblue;"></circle><circle cx="405.05772829055786" cy="281.9870809713999" r="3" style="fill: steelblue;"></circle><circle cx="273.671755939722" cy="192.32294478246735" r="3" style="fill: steelblue;"></circle><circle cx="325.65192729234695" cy="152.81551082928974" r="3" style="fill: steelblue;"></circle><circle cx="318.64895671606064" cy="199.2540440729095" r="3" style="fill: steelblue;"></circle><circle cx="463.67765665054316" cy="111.22979554865094" r="3" style="fill: steelblue;"></circle><circle cx="472.14324474334717" cy="119.18688896629544" r="3" style="fill: steelblue;"></circle><circle cx="309.89646390080446" cy="278.8518509931034" r="3" style="fill: steelblue;"></circle><circle cx="469.2459762096405" cy="114.58846512768002" r="3" style="fill: steelblue;"></circle><circle cx="350.2136930823326" cy="79.92960347069635" r="3" style="fill: steelblue;"></circle><circle cx="459.5446586608887" cy="139.8758441209793" r="3" style="fill: steelblue;"></circle><circle cx="200.68800151348114" cy="173.01042936742306" r="3" style="fill: steelblue;"></circle><circle cx="305.8133002370596" cy="147.60346255368654" r="3" style="fill: steelblue;"></circle><circle cx="334.708122164011" cy="131.81827300124695" r="3" style="fill: steelblue;"></circle><circle cx="236.3959193229675" cy="124.56223451428941" r="3" style="fill: steelblue;"></circle><circle cx="200.75160562992096" cy="197.83559550220764" r="3" style="fill: steelblue;"></circle><circle cx="292.0863155275583" cy="271.3940342267354" r="3" style="fill: steelblue;"></circle><circle cx="317.31649450957775" cy="158.65650524695712" r="3" style="fill: steelblue;"></circle><circle cx="319.73259150981903" cy="170.89149956074027" r="3" style="fill: steelblue;"></circle><circle cx="341.57855808734894" cy="223.7402457329962" r="3" style="fill: steelblue;"></circle><circle cx="58.579015731811516" cy="139.1698693235715" r="3" style="fill: steelblue;"></circle><circle cx="323.1938995420933" cy="263.80310290389593" r="3" style="fill: steelblue;"></circle><circle cx="202.95799970626828" cy="261.881990565194" r="3" style="fill: steelblue;"></circle><circle cx="188.8749361038208" cy="262.15371903445987" r="3" style="fill: steelblue;"></circle><circle cx="208.66400599479675" cy="226.49850323796272" r="3" style="fill: steelblue;"></circle><circle cx="192.36235320568085" cy="233.26147140728102" r="3" style="fill: steelblue;"></circle><circle cx="410.48823595046997" cy="200.40926963297858" r="3" style="fill: steelblue;"></circle><circle cx="405.5218040943146" cy="120.27472423182593" r="3" style="fill: steelblue;"></circle><circle cx="207.25050866603848" cy="235.46834455596075" r="3" style="fill: steelblue;"></circle><circle cx="198.20260405540463" cy="218.91129803326396" r="3" style="fill: steelblue;"></circle><circle cx="266.5011964738369" cy="226.13251499003832" r="3" style="fill: steelblue;"></circle><circle cx="147.4622905254364" cy="214.0443691362937" r="3" style="fill: steelblue;"></circle><circle cx="221.334707736969" cy="178.00944132937326" r="3" style="fill: steelblue;"></circle><circle cx="193.62610280513763" cy="181.7571802271737" r="3" style="fill: steelblue;"></circle><circle cx="291.08879026025534" cy="237.76678865154582" r="3" style="fill: steelblue;"></circle><circle cx="119.06064748764038" cy="258.5544917318556" r="3" style="fill: steelblue;"></circle><circle cx="260.13087183237076" cy="136.45434627930325" r="3" style="fill: steelblue;"></circle><circle cx="399.24330711364746" cy="228.49710202879373" r="3" style="fill: steelblue;"></circle><circle cx="237.19139099121094" cy="183.99067295508252" r="3" style="fill: steelblue;"></circle><circle cx="315.3746780008077" cy="226.73247216476332" r="3" style="fill: steelblue;"></circle><circle cx="186.08288168907166" cy="302.12601357036164" r="3" style="fill: steelblue;"></circle><circle cx="230.27590066194534" cy="296.545320087009" r="3" style="fill: steelblue;"></circle><circle cx="448.11317324638367" cy="189.62558746958769" r="3" style="fill: steelblue;"></circle><circle cx="415.2603954076767" cy="259.0723931789398" r="3" style="fill: steelblue;"></circle><circle cx="270.72623893618584" cy="182.53117623842422" r="3" style="fill: steelblue;"></circle><circle cx="230.46255111694336" cy="298.4347691138585" r="3" style="fill: steelblue;"></circle><circle cx="266.98147505521774" cy="303.8606693347295" r="3" style="fill: steelblue;"></circle><circle cx="480.2382230758667" cy="147.10599390996828" r="3" style="fill: steelblue;"></circle><circle cx="271.8162976205349" cy="203.2916751793689" r="3" style="fill: steelblue;"></circle><circle cx="488.07728290557856" cy="87.32086585627661" r="3" style="fill: steelblue;"></circle><circle cx="375.202077627182" cy="243.82632308536108" r="3" style="fill: steelblue;"></circle><circle cx="426.5413910150528" cy="83.81296032004887" r="3" style="fill: steelblue;"></circle><circle cx="435.0666582584381" cy="108.29123854637146" r="3" style="fill: steelblue;"></circle><circle cx="450.35861134529114" cy="174.02563140624096" r="3" style="fill: steelblue;"></circle><circle cx="288.4808801114559" cy="115.67896604537964" r="3" style="fill: steelblue;"></circle><circle cx="422.00391590595245" cy="127.83800231085883" r="3" style="fill: steelblue;"></circle><circle cx="517.593777179718" cy="72.87204596731397" r="3" style="fill: steelblue;"></circle><circle cx="421.37148678302765" cy="203.10217556026248" r="3" style="fill: steelblue;"></circle><circle cx="368.65618228912354" cy="322.8041264745924" r="3" style="fill: steelblue;"></circle><circle cx="144.44283843040466" cy="168.6570557455222" r="3" style="fill: steelblue;"></circle><circle cx="367.6186010241508" cy="212.93135359883308" r="3" style="fill: steelblue;"></circle><circle cx="143.292635679245" cy="141.8348029255867" r="3" style="fill: steelblue;"></circle><circle cx="382.41190910339355" cy="163.07001105613176" r="3" style="fill: steelblue;"></circle><circle cx="262.5616393983364" cy="229.6160558859507" r="3" style="fill: steelblue;"></circle><circle cx="179.0974259376526" cy="250.06612804200915" r="3" style="fill: steelblue;"></circle><circle cx="96.81884050369263" cy="237.40418462289702" r="3" style="fill: steelblue;"></circle><circle cx="90.50976634025574" cy="318.38260922167035" r="3" style="fill: steelblue;"></circle><circle cx="280.67779764533043" cy="236.1707989540365" r="3" style="fill: steelblue;"></circle><circle cx="94.62609887123108" cy="266.944649318854" r="3" style="fill: steelblue;"></circle><circle cx="194.70341205596924" cy="179.16378461652334" r="3" style="fill: steelblue;"></circle><circle cx="291.8673360720277" cy="134.24104369348947" r="3" style="fill: steelblue;"></circle><circle cx="384.89117324352264" cy="226.5743033753501" r="3" style="fill: steelblue;"></circle><circle cx="422.0234870910644" cy="154.90131701032323" r="3" style="fill: steelblue;"></circle><circle cx="408.2004636526108" cy="153.97238648600046" r="3" style="fill: steelblue;"></circle><circle cx="243.6743125319481" cy="220.29357486301" r="3" style="fill: steelblue;"></circle><circle cx="289.81441855430603" cy="117.63495206832886" r="3" style="fill: steelblue;"></circle><circle cx="424.12129640579224" cy="88.29916020234424" r="3" style="fill: steelblue;"></circle><circle cx="378.51395308971405" cy="202.99228260086642" r="3" style="fill: steelblue;"></circle><circle cx="340.15941470861435" cy="78.12100483311548" r="3" style="fill: steelblue;"></circle><circle cx="282.62118324637413" cy="115.0187651316325" r="3" style="fill: steelblue;"></circle><circle cx="226.11631304025647" cy="191.96730386465788" r="3" style="fill: steelblue;"></circle><circle cx="375.56272745132446" cy="227.90484337343108" r="3" style="fill: steelblue;"></circle><circle cx="217.85218119621274" cy="168.17179694771767" r="3" style="fill: steelblue;"></circle><circle cx="298.0517691001296" cy="237.67970585160788" r="3" style="fill: steelblue;"></circle><circle cx="273.4004482626915" cy="165.70455042852296" r="3" style="fill: steelblue;"></circle><circle cx="209.01409685611725" cy="264.5227942201826" r="3" style="fill: steelblue;"></circle><circle cx="277.4747371673584" cy="128.63914668560028" r="3" style="fill: steelblue;"></circle><circle cx="353.6987766623497" cy="207.87894022133617" r="3" style="fill: steelblue;"></circle><circle cx="181.87218010425568" cy="220.29689533842932" r="3" style="fill: steelblue;"></circle><circle cx="221.64852619171143" cy="191.7271831124607" r="3" style="fill: steelblue;"></circle><circle cx="97.15213179588318" cy="283.28535788589056" r="3" style="fill: steelblue;"></circle><circle cx="207.27137625217438" cy="141.1645420723491" r="3" style="fill: steelblue;"></circle><circle cx="381.46813809871674" cy="229.12509491046268" r="3" style="fill: steelblue;"></circle><circle cx="507.36225843429565" cy="158.28621428873805" r="3" style="fill: steelblue;"></circle><circle cx="368.9957857131958" cy="195.94032097504373" r="3" style="fill: steelblue;"></circle><circle cx="404.9647629261017" cy="152.32938279708225" r="3" style="fill: steelblue;"></circle><circle cx="416.6475623846054" cy="70.05630599127875" r="3" style="fill: steelblue;"></circle><circle cx="517.1347618103027" cy="43.98873117234972" r="3" style="fill: steelblue;"></circle><circle cx="316.4160590618849" cy="115.53141640292273" r="3" style="fill: steelblue;"></circle><circle cx="364.8401990532875" cy="136.80165178245966" r="3" style="fill: steelblue;"></circle><circle cx="312.3966917395591" cy="234.9250701566537" r="3" style="fill: steelblue;"></circle><circle cx="143.9010500907898" cy="259.86815409527884" r="3" style="fill: steelblue;"></circle><circle cx="274.8260222375393" cy="187.45103209382955" r="3" style="fill: steelblue;"></circle><circle cx="240.37340730428693" cy="209.80297608508005" r="3" style="fill: steelblue;"></circle><circle cx="175.5110263824463" cy="201.49637220634355" r="3" style="fill: steelblue;"></circle></g></svg>