<svg xmlns="http://www.w3.org/2000/svg"><g transform="translate(40,20)"><circle cx="196.90952092409134" cy="79.01665773242712" r="3" style="fill: steelblue;"></circle><circle cx="383.47496330738073" cy="200.46249912120402" r="3" style="fill: steelblue;"></circle><circle cx="414.53951239585876" cy="84.48509611189365" r="3" style="fill: steelblue;"></circle><circle cx="338.3078062534332" cy="121.10285246744752" r="3" style="fill: steelblue;"></circle><circle cx="426.39296293258667" cy="165.1742582442239" r="3" style="fill: steelblue;"></circle><circle cx="389.37170147895813" cy="134.53913126140833" r="3" style="fill: steelblue;"></circle><circle cx="177.83899694681168" cy="70.14785259962082" r="3" style="fill: steelblue;"></circle><circle cx="259.2518837749958" cy="150.9762587491423" r="3" style="fill: steelblue;"></circle><circle cx="453.3317470550537" cy="95.59627827256918" r="3" style="fill: steelblue;"></circle><circle cx="392.78822779655457" cy="72.05646969377995" r="3" style="fill: steelblue;"></circle><circle cx="411.69304490089417" cy="69.82402801513672" r="3" style="fill: steelblue;"></circle><circle cx="281.9905185699463" cy="172.6470916008111" r="3" style="fill: steelblue;"></circle><circle cx="264.3066497147083" cy="195.72434965521097" r="3" style="fill: steelblue;"></circle><circle cx="470.3239345550537" cy="101.49005260318518" r="3" style="fill: steelblue;"></circle><circle cx="335.82231044769287" cy="95.03829497843981" r="3" style="fill: steelblue;"></circle><circle cx="433.07652711868286" cy="104.66498993337154" r="3" style="fill: steelblue;"></circle><circle cx="452.6941680908203" cy="119.35986038297415" r="3" style="fill: steelblue;"></circle><circle cx="351.4238530397415" cy="148.20602554827929" r="3" style="fill: steelblue;"></circle><circle cx="360.14544010162354" cy="226.21268657967448" r="3" style="fill: steelblue;"></circle><circle cx="363.7579196691513" cy="69.65549867600203" r="3" style="fill: steelblue;"></circle><circle cx="266.56703889369965" cy="224.42245595157146" r="3" style="fill: steelblue;"></circle><circle cx="267.6631124317646" cy="219.3322747014463" r="3" style="fill: steelblue;"></circle><circle cx="127.22881078720094" cy="202.66034798696637" r="3" style="fill: steelblue;"></circle><circle cx="400.56720614433294" cy="255.16858715564013" r="3" style="fill: steelblue;"></circle><circle cx="224.27225276827812" cy="177.0194326643832" r="3" style="fill: steelblue;"></circle><circle cx="244.5674893073738" cy="145.34210246056318" r="3" style="fill: steelblue;"></circle><circle cx="156.2189215421677" cy="125.28587896376848" r="3" style="fill: steelblue;"></circle><circle cx="173.43613743782046" cy="195.93709097243845" r="3" style="fill: steelblue;"></circle><circle cx="299.90418344736105" cy="57.16116465628147" r="3" style="fill: steelblue;"></circle><circle cx="293.5350412130356" cy="289.82131853699684" r="3" style="fill: steelblue;"></circle><circle cx="257.2448080033064" cy="177.73556786123663" r="3" style="fill: steelblue;"></circle><circle cx="254.84146267175674" cy="200.55289515294135" r="3" style="fill: steelblue;"></circle><circle cx="277.97870725393295" cy="224.927297513932" r="3" style="fill: steelblue;"></circle><circle cx="303.3938446640969" cy="112.23963107913733" r="3" style="fill: steelblue;"></circle><circle cx="141.688688993454" cy="214.98441202566028" r="3" style="fill: steelblue;"></circle><circle cx="181.65298193693164" cy="263.69138918817043" r="3" style="fill: steelblue;"></circle><circle cx="164.9443084001541" cy="216.48189211264253" r="3" style="fill: steelblue;"></circle><circle cx="211.26755565404892" cy="273.42412639409304" r="3" style="fill: steelblue;"></circle><circle cx="129.43789601325992" cy="230.47213833779097" r="3" style="fill: steelblue;"></circle><circle cx="194.99997586011887" cy="180.43106184341013" r="3" style="fill: steelblue;"></circle><circle cx="236.47167641669512" cy="224.25201321020722" r="3" style="fill: steelblue;"></circle><circle cx="122.77165889739992" cy="303.91172990202904" r="3" style="fill: steelblue;"></circle><circle cx="117.06367671489716" cy="222.91146144270897" r="3" style="fill: steelblue;"></circle><circle cx="146.24244511127472" cy="225.3891445696354" r="3" style="fill: steelblue;"></circle><circle cx="279.61031287908554" cy="308.8998097926378" r="3" style="fill: steelblue;"></circle><circle cx="88.06074500083925" cy="299.12067502737045" r="3" style="fill: steelblue;"></circle><circle cx="137.5046306848526" cy="244.53413225710392" r="3" style="fill: steelblue;"></circle><circle cx="331.8892711400986" cy="309.82082448899746" r="3" style="fill: steelblue;"></circle><circle cx="321.2840133905411" cy="162.88618855178356" r="3" style="fill: steelblue;"></circle><circle cx="281.5710702538491" cy="122.7165904827416" r="3" style="fill: steelblue;"></circle><circle cx="255.56561551988125" cy="187.86209432873875" r="3" style="fill: steelblue;"></circle><circle cx="283.51443350315094" cy="156.65493831038475" r="3" style="fill: steelblue;"></circle><circle cx="52.220156192779555" cy="275.1688754186034" r="3" style="fill: steelblue;"></circle><circle cx="55.80566167831422" cy="299.9631326645613" r="3" style="fill: steelblue;"></circle><circle cx="205.82394540309906" cy="179.017960105557" r="3" style="fill: steelblue;"></circle><circle cx="79.86403942108154" cy="119.78011783212423" r="3" style="fill: steelblue;"></circle><circle cx="145.72350919246676" cy="275.51105823367834" r="3" style="fill: steelblue;"></circle><circle cx="83.25544238090517" cy="286.0083218663931" r="3" style="fill: steelblue;"></circle><circle cx="146.8714410066605" cy="166.70459294691682" r="3" style="fill: steelblue;"></circle><circle cx="326.59509122371674" cy="111.07646506279707" r="3" style="fill: steelblue;"></circle><circle cx="407.9889142513275" cy="182.80917634256184" r="3" style="fill: steelblue;"></circle><circle cx="201.5855321288109" cy="134.73437977954745" r="3" style="fill: steelblue;"></circle><circle cx="349.8978102207184" cy="81.2374820932746" r="3" style="fill: steelblue;"></circle><circle cx="157.8186357021332" cy="157.1989492047578" r="3" style="fill: steelblue;"></circle><circle cx="290.3975495696068" cy="132.71007193252444" r="3" style="fill: steelblue;"></circle><circle cx="368.625950217247" cy="90.64651858061552" r="3" style="fill: steelblue;"></circle><circle cx="381.0219222307205" cy="151.10137634910643" r="3" style="fill: steelblue;"></circle><circle cx="156.25431776046753" cy="183.49093426950276" r="3" style="fill: steelblue;"></circle><circle cx="329.90893363952637" cy="182.60162924416363" r="3" style="fill: steelblue;"></circle><circle cx="256.01356118917465" cy="53.72662395238876" r="3" style="fill: steelblue;"></circle><circle cx="427.4471068382263" cy="90.63766542822123" r="3" style="fill: steelblue;"></circle><circle cx="301.3442748785019" cy="176.4432221360039" r="3" style="fill: steelblue;"></circle><circle cx="152.66624629497528" cy="109.22197736799717" r="3" style="fill: steelblue;"></circle><circle cx="279.27779495716095" cy="258.87528732419014" r="3" style="fill: steelblue;"></circle><circle cx="134.3941444158554" cy="241.62421580404043" r="3" style="fill: steelblue;"></circle><circle cx="190.8280947804451" cy="224.8087154701352" r="3" style="fill: steelblue;"></circle><circle cx="33.060564994812026" cy="223.83413203060627" r="3" style="fill: steelblue;"></circle><circle cx="154.25373852252963" cy="261.7991289123893" r="3" style="fill: steelblue;"></circle><circle cx="130.1482880115509" cy="305.28160855174065" r="3" style="fill: steelblue;"></circle><circle cx="130.3272181749344" cy="204.55907536670566" r="3" style="fill: steelblue;"></circle><circle cx="196.29976987838745" cy="103.54238022118807" r="3" style="fill: steelblue;"></circle><circle cx="117.4301826953888" cy="259.76707618683577" r="3" style="fill: steelblue;"></circle><circle cx="129.1110062599182" cy="164.9062702897936" r="3" style="fill: steelblue;"></circle><circle cx="255.9438293427229" cy="209.80622079223394" r="3" style="fill: steelblue;"></circle><circle cx="346.0367614030838" cy="134.6950621344149" r="3" style="fill: steelblue;"></circle><circle cx="330.76678454875946" cy="209.4882276840508" r="3" style="fill: steelblue;"></circle><circle cx="264.4340389966965" cy="104.55996468663216" r="3" style="fill: steelblue;"></circle><circle cx="354.7678345441818" cy="120.94802986830473" r="3" style="fill: steelblue;"></circle><circle cx="348.93462002277374" cy="98.99106454104185" r="3" style="fill: steelblue;"></circle><circle cx="399.9106192588806" cy="192.64250569976866" r="3" style="fill: steelblue;"></circle><circle cx="356.35726690292364" cy="77.53403503447771" r="3" style="fill: steelblue;"></circle><circle cx="486.40708565711975" cy="161.54094291850924" r="3" style="fill: steelblue;"></circle><circle cx="411.3544428348541" cy="146.2249729782343" r="3" style="fill: steelblue;"></circle><circle cx="407.09291338920593" cy="165.4327590484172" r="3" style="fill: steelblue;"></circle><circle cx="277.2948311269284" cy="68.42957828193903" r="3" style="fill: steelblue;"></circle><circle cx="166.57988369464877" cy="293.4186842292547" r="3" style="fill: steelblue;"></circle><circle cx="213.65984916687015" cy="231.94893281906843" r="3" style="fill: steelblue;"></circle><circle cx="148.8647156953812" cy="166.49750138167292" r="3" style="fill: steelblue;"></circle><circle cx="170.77330738306048" cy="116.83039478957653" r="3" style="fill: steelblue;"></circle><circle cx="225.15726886689663" cy="209.4406240619719" r="3" style="fill: steelblue;"></circle><circle cx="269.59604635834694" cy="264.50309548527" r="3" style="fill: steelblue;"></circle><circle cx="237.89557331241667" cy="267.5938757136464" r="3" style="fill: steelblue;"></circle><circle cx="339.9584019184113" cy="242.91612412780523" r="3" style="fill: steelblue;"></circle><circle cx="240.97154185641557" cy="165.75740424450487" r="3" style="fill: steelblue;"></circle><circle cx="129.0843629837036" cy="245.0600277632475" r="3" style="fill: steelblue;"></circle><circle cx="186.76923304796222" cy="231.0780055820942" r="3" style="fill: steelblue;"></circle><circle cx="454.3660068511963" cy="174.5313866675133" r="3" style="fill: steelblue;"></circle><circle cx="310.58197259902954" cy="40.69207161664963" r="3" style="fill: steelblue;"></circle><circle cx="149.04262661933902" cy="5.579269677400589" r="3" style="fill: steelblue;"></circle><circle cx="454.64547514915466" cy="61.524295434355736" r="3" style="fill: steelblue;"></circle><circle cx="329.9905890226364" cy="81.57467767596245" r="3" style="fill: steelblue;"></circle><circle cx="430.55954217910767" cy="10.22738330066204" r="3" style="fill: steelblue;"></circle><circle cx="301.98978871107107" cy="134.56506812945008" r="3" style="fill: steelblue;"></circle><circle cx="72.38403797149658" cy="306.12093694508076" r="3" style="fill: steelblue;"></circle><circle cx="208.6226047575474" cy="204.19775526970625" r="3" style="fill: steelblue;"></circle><circle cx="279.47355598211294" cy="244.4361999630928" r="3" style="fill: steelblue;"></circle><circle cx="258.5512360185385" cy="96.9569256529212" r="3" style="fill: steelblue;"></circle><circle cx="127.4004900455475" cy="133.98505300283432" r="3" style="fill: steelblue;"></circle></g></svg>