<svg xmlns="http://www.w3.org/2000/svg"><g transform="translate(40,20)"><circle cx="430.94471141695976" cy="170.77573057678012" r="3" style="fill: steelblue;"></circle><circle cx="223.58364544808865" cy="136.19120584593878" r="3" style="fill: steelblue;"></circle><circle cx="266.9570743152872" cy="247.0642386211289" r="3" style="fill: steelblue;"></circle><circle cx="478.67796689271927" cy="196.0672674079736" r="3" style="fill: steelblue;"></circle><circle cx="402.8821901232004" cy="127.93587230973772" r="3" style="fill: steelblue;"></circle><circle cx="374.0583472698927" cy="132.44558788008158" r="3" style="fill: steelblue;"></circle><circle cx="323.22694927453995" cy="120.11376519997913" r="3" style="fill: steelblue;"></circle><circle cx="439.6928232908249" cy="211.0611798448695" r="3" style="fill: steelblue;"></circle><circle cx="384.8794010281563" cy="146.66716961397066" r="3" style="fill: steelblue;"></circle><circle cx="356.526607722044" cy="38.18482988410528" r="3" style="fill: steelblue;"></circle><circle cx="517.1600353717804" cy="57.844652069939514" r="3" style="fill: steelblue;"></circle><circle cx="407.51527704298496" cy="193.19117648733987" r="3" style="fill: steelblue;"></circle><circle cx="387.8529817610979" cy="185.44275799973144" r="3" style="fill: steelblue;"></circle><circle cx="325.1046447828412" cy="75.33911863962811" r="3" style="fill: steelblue;"></circle><circle cx="314.7851222008467" cy="216.2575963884592" r="3" style="fill: steelblue;"></circle><circle cx="290.7482466939837" cy="105.48262049754459" r="3" style="fill: steelblue;"></circle><circle cx="105.62315069139005" cy="87.56806453069049" r="3" style="fill: steelblue;"></circle><circle cx="312.3934534192085" cy="114.5409991343816" r="3" style="fill: steelblue;"></circle><circle cx="432.24529780447483" cy="75.24693343374463" r="3" style="fill: steelblue;"></circle><circle cx="162.8848497569561" cy="95.44542597399817" r="3" style="fill: steelblue;"></circle><circle cx="451.5317250788212" cy="146.51228942804863" r="3" style="fill: steelblue;"></circle><circle cx="102.98449069261552" cy="166.34701896044942" r="3" style="fill: steelblue;"></circle><circle cx="493.7201504409313" cy="67.08652608924443" r="3" style="fill: steelblue;"></circle><circle cx="485.28159230947495" cy="244.69919668303595" r="3" style="fill: steelblue;"></circle><circle cx="377.71712847054005" cy="205.57497358984415" r="3" style="fill: steelblue;"></circle><circle cx="142.73486852645874" cy="185.55502179596158" r="3" style="fill: steelblue;"></circle><circle cx="311.24586107209325" cy="172.5659767786662" r="3" style="fill: steelblue;"></circle><circle cx="381.80688701570034" cy="202.82888102034724" r="3" style="fill: steelblue;"></circle><circle cx="207.26089149713516" cy="119.8093593120575" r="3" style="fill: steelblue;"></circle><circle cx="257.27672612294555" cy="177.6068699028757" r="3" style="fill: steelblue;"></circle><circle cx="271.89825731213205" cy="163.04017023907767" r="3" style="fill: steelblue;"></circle><circle cx="217.67035525292158" cy="257.2153550055292" r="3" style="fill: steelblue;"></circle><circle cx="334.72459863871336" cy="187.88268882781267" r="3" style="fill: steelblue;"></circle><circle cx="360.8523738384247" cy="133.25993882285223" r="3" style="fill: steelblue;"></circle><circle cx="287.32166977599263" cy="219.33407626218263" r="3" style="fill: steelblue;"></circle><circle cx="260.95971069764346" cy="206.0449737020665" r="3" style="fill: steelblue;"></circle><circle cx="170.55870674550533" cy="238.07767323321764" r="3" style="fill: steelblue;"></circle><circle cx="356.695234850049" cy="125.68930122587415" r="3" style="fill: steelblue;"></circle><circle cx="230.44636219739914" cy="188.21196423636542" r="3" style="fill: steelblue;"></circle><circle cx="285.75943725183606" cy="295.41240632534027" r="3" style="fill: steelblue;"></circle><circle cx="325.7965088635683" cy="211.179967969656" r="3" style="fill: steelblue;"></circle><circle cx="324.46052234619856" cy="308.009652627839" r="3" style="fill: steelblue;"></circle><circle cx="200.38968052715063" cy="194.11640439001428" r="3" style="fill: steelblue;"></circle><circle cx="225.63425794243813" cy="334.65508288807337" r="3" style="fill: steelblue;"></circle><circle cx="207.11674623191357" cy="310.1343280739254" r="3" style="fill: steelblue;"></circle><circle cx="208.19026686251163" cy="258.18164232704373" r="3" style="fill: steelblue;"></circle><circle cx="25.122973769903197" cy="273.0198792285389" r="3" style="fill: steelblue;"></circle><circle cx="272.16984873404726" cy="152.43754453129236" r="3" style="fill: steelblue;"></circle><circle cx="116.3048066943884" cy="289.1444381740358" r="3" style="fill: steelblue;"></circle><circle cx="203.83129835128784" cy="202.66431683881416" r="3" style="fill: steelblue;"></circle><circle cx="239.8070260696113" cy="184.63848510550127" r="3" style="fill: steelblue;"></circle><circle cx="305.4322283528745" cy="286.4228594634268" r="3" style="fill: steelblue;"></circle><circle cx="247.8633115813136" cy="190.83523000073103" r="3" style="fill: steelblue;"></circle><circle cx="385.9077700227499" cy="204.1647776754366" r="3" style="fill: steelblue;"></circle><circle cx="35.84098041057588" cy="276.96396658817923" r="3" style="fill: steelblue;"></circle><circle cx="148.3295776695013" cy="161.40600376658966" r="3" style="fill: steelblue;"></circle><circle cx="206.70469354838133" cy="265.3685187300046" r="3" style="fill: steelblue;"></circle><circle cx="190.7656480371952" cy="250.9352291623751" r="3" style="fill: steelblue;"></circle><circle cx="178.37616585195065" cy="271.54702527655496" r="3" style="fill: steelblue;"></circle><circle cx="179.28947813808918" cy="148.7132575776842" r="3" style="fill: steelblue;"></circle><circle cx="399.3556250631809" cy="90.61915841367511" r="3" style="fill: steelblue;"></circle><circle cx="321.90892182290554" cy="91.5810184346305" r="3" style="fill: steelblue;"></circle><circle cx="442.9997053742409" cy="140.57330621613397" r="3" style="fill: steelblue;"></circle><circle cx="400.5614322423935" cy="176.43594886693688" r="3" style="fill: steelblue;"></circle><circle cx="483.22887763381004" cy="130.10330249865848" r="3" style="fill: steelblue;"></circle><circle cx="445.95068514347076" cy="181.53521397875414" r="3" style="fill: steelblue;"></circle><circle cx="180.77511683106422" cy="201.28581755691107" r="3" style="fill: steelblue;"></circle><circle cx="462.86193922162056" cy="119.5107599099477" r="3" style="fill: steelblue;"></circle><circle cx="359.23791870474815" cy="263.20448435015146" r="3" style="fill: steelblue;"></circle><circle cx="485.15342965722084" cy="209.24909123116072" r="3" style="fill: steelblue;"></circle><circle cx="419.7638024389744" cy="118.3987135688464" r="3" style="fill: steelblue;"></circle><circle cx="295.76326048001647" cy="219.2349255912834" r="3" style="fill: steelblue;"></circle><circle cx="198.0259033665061" cy="283.35509945948917" r="3" style="fill: steelblue;"></circle><circle cx="130.25975011289123" cy="229.83343982034262" r="3" style="fill: steelblue;"></circle><circle cx="291.35722171515226" cy="196.81055463540054" r="3" style="fill: steelblue;"></circle><circle cx="147.66705863177776" cy="311.09172602494556" r="3" style="fill: steelblue;"></circle><circle cx="104.04446281492712" cy="219.5129618048668" r="3" style="fill: steelblue;"></circle><circle cx="5.957416892051712" cy="265.78963382376566" r="3" style="fill: steelblue;"></circle><circle cx="166.0275001823902" cy="263.27945291996" r="3" style="fill: steelblue;"></circle><circle cx="41.362958103418364" cy="228.1118950082196" r="3" style="fill: steelblue;"></circle><circle cx="175.23734763264656" cy="301.79522931575775" r="3" style="fill: steelblue;"></circle><circle cx="245.22145304828882" cy="216.570825005571" r="3" style="fill: steelblue;"></circle><circle cx="114.24717351794244" cy="304.80164455042944" r="3" style="fill: steelblue;"></circle><circle cx="307.0182713493705" cy="237.4159801337454" r="3" style="fill: steelblue;"></circle><circle cx="294.78557266294956" cy="203.24179706060227" r="3" style="fill: steelblue;"></circle><circle cx="408.94215524196625" cy="190.11933760096628" r="3" style="fill: steelblue;"></circle><circle cx="441.1099348962307" cy="116.55950629048876" r="3" style="fill: steelblue;"></circle><circle cx="306.33679496124387" cy="242.36463589800726" r="3" style="fill: steelblue;"></circle><circle cx="379.40790586173534" cy="203.9116399569644" r="3" style="fill: steelblue;"></circle><circle cx="448.9278566837311" cy="201.99160329583617" r="3" style="fill: steelblue;"></circle><circle cx="359.0481188893318" cy="77.42421494589911" r="3" style="fill: steelblue;"></circle><circle cx="225.92851303517818" cy="118.207186460495" r="3" style="fill: steelblue;"></circle><circle cx="480.3238843381405" cy="75.62907205687628" r="3" style="fill: steelblue;"></circle><circle cx="398.7511423230171" cy="72.00182643201617" r="3" style="fill: steelblue;"></circle><circle cx="148.33185084164143" cy="304.68391544289057" r="3" style="fill: steelblue;"></circle><circle cx="136.343754529953" cy="255.21776162915762" r="3" style="fill: steelblue;"></circle><circle cx="90.68620696663858" cy="292.03959140512677" r="3" style="fill: steelblue;"></circle><circle cx="222.0558826625347" cy="257.24339650736914" r="3" style="fill: steelblue;"></circle><circle cx="151.9093007594347" cy="321.90882662932074" r="3" style="fill: steelblue;"></circle><circle cx="425.5464506149292" cy="292.1844869852066" r="3" style="fill: steelblue;"></circle><circle cx="382.05791160464287" cy="223.82998259531126" r="3" style="fill: steelblue;"></circle><circle cx="207.76500765234232" cy="252.8061866760254" r="3" style="fill: steelblue;"></circle><circle cx="208.86218033730984" cy="230.53831938240262" r="3" style="fill: steelblue;"></circle><circle cx="120.16689598560335" cy="309.7767482201258" r="3" style="fill: steelblue;"></circle><circle cx="212.97862350940704" cy="104.5899283554819" r="3" style="fill: steelblue;"></circle><circle cx="219.98209085315466" cy="157.5564137763447" r="3" style="fill: steelblue;"></circle><circle cx="419.5668411254883" cy="195.74589777686117" r="3" style="fill: steelblue;"></circle><circle cx="184.70134779810905" cy="152.30817637509767" r="3" style="fill: steelblue;"></circle><circle cx="426.77221342921257" cy="155.9579148888588" r="3" style="fill: steelblue;"></circle><circle cx="401.9947075098753" cy="136.81121915578842" r="3" style="fill: steelblue;"></circle><circle cx="325.11610619723797" cy="65.91785781913335" r="3" style="fill: steelblue;"></circle><circle cx="312.6005082204938" cy="60.703865355915475" r="3" style="fill: steelblue;"></circle><circle cx="109.53515924513341" cy="45.99189923869238" r="3" style="fill: steelblue;"></circle><circle cx="20.724546611309066" cy="267.06179893679086" r="3" style="fill: steelblue;"></circle><circle cx="158.2373694330454" cy="298.0489333470662" r="3" style="fill: steelblue;"></circle><circle cx="112.73457862436773" cy="279.80443918042715" r="3" style="fill: steelblue;"></circle><circle cx="139.84775885939598" cy="286.29067788521445" r="3" style="fill: steelblue;"></circle><circle cx="174.51532378792763" cy="241.98536574840546" r="3" style="fill: steelblue;"></circle></g></svg>