<svg xmlns="http://www.w3.org/2000/svg"><g transform="translate(40,20)"><circle cx="257.64186445623636" cy="79.25078123807907" r="3" style="fill: steelblue;"></circle><circle cx="347.97096613794565" cy="136.14850673410626" r="3" style="fill: steelblue;"></circle><circle cx="273.61870113993064" cy="48.609115348921875" r="3" style="fill: steelblue;"></circle><circle cx="318.0587465688586" cy="72.83125917116803" r="3" style="fill: steelblue;"></circle><circle cx="427.97615982592106" cy="70.02967612610922" r="3" style="fill: steelblue;"></circle><circle cx="478.85187461972237" cy="43.33571361170874" r="3" style="fill: steelblue;"></circle><circle cx="478.4525004029274" cy="161.41891899622152" r="3" style="fill: steelblue;"></circle><circle cx="355.03010608255863" cy="105.21668460634021" r="3" style="fill: steelblue;"></circle><circle cx="404.8558768630028" cy="95.62981145249472" r="3" style="fill: steelblue;"></circle><circle cx="438.61433386802673" cy="29.156275259123905" r="3" style="fill: steelblue;"></circle><circle cx="427.90563113987446" cy="69.56323915057713" r="3" style="fill: steelblue;"></circle><circle cx="250.2849892526865" cy="141.0164772636361" r="3" style="fill: steelblue;"></circle><circle cx="380.74176505208015" cy="109.29377931687566" r="3" style="fill: steelblue;"></circle><circle cx="418.77310171723366" cy="162.58141208026143" r="3" style="fill: steelblue;"></circle><circle cx="237.99273546785116" cy="87.46258351537915" r="3" style="fill: steelblue;"></circle><circle cx="398.34919318556786" cy="172.6201581872172" r="3" style="fill: steelblue;"></circle><circle cx="474.1762612760067" cy="138.92930638458995" r="3" style="fill: steelblue;"></circle><circle cx="404.7721315920353" cy="143.4682687951459" r="3" style="fill: steelblue;"></circle><circle cx="418.75485599040985" cy="49.46818550427757" r="3" style="fill: steelblue;"></circle><circle cx="223.62323485314846" cy="43.98123025894165" r="3" style="fill: steelblue;"></circle><circle cx="421.8289692699909" cy="149.14118080503414" r="3" style="fill: steelblue;"></circle><circle cx="456.61317005753517" cy="45.859089493751526" r="3" style="fill: steelblue;"></circle><circle cx="411.3368918001652" cy="123.00964337256221" r="3" style="fill: steelblue;"></circle><circle cx="478.07503312826157" cy="52.14698049757215" r="3" style="fill: steelblue;"></circle><circle cx="306.4693027921021" cy="219.9244434634844" r="3" style="fill: steelblue;"></circle><circle cx="348.3355738967657" cy="151.7876757722762" r="3" style="fill: steelblue;"></circle><circle cx="327.43974577635527" cy="133.05955044925213" r="3" style="fill: steelblue;"></circle><circle cx="310.68531543016434" cy="196.78042266103955" r="3" style="fill: steelblue;"></circle><circle cx="271.0014350322308" cy="219.88321857319937" r="3" style="fill: steelblue;"></circle><circle cx="184.2240721732378" cy="160.68479549139738" r="3" style="fill: steelblue;"></circle><circle cx="293.4648445621133" cy="144.33190170675516" r="3" style="fill: steelblue;"></circle><circle cx="340.2530287206173" cy="142.76591291030246" r="3" style="fill: steelblue;"></circle><circle cx="214.85262762755156" cy="128.60649012857016" r="3" style="fill: steelblue;"></circle><circle cx="259.59537553600967" cy="312.03211943308514" r="3" style="fill: steelblue;"></circle><circle cx="151.25154934823513" cy="140.5224725190136" r="3" style="fill: steelblue;"></circle><circle cx="454.67823788523674" cy="218.4531483385298" r="3" style="fill: steelblue;"></circle><circle cx="164.3979173898697" cy="227.58105993270874" r="3" style="fill: steelblue;"></circle><circle cx="255.0337464362383" cy="214.7548109292984" r="3" style="fill: steelblue;"></circle><circle cx="373.30688282847404" cy="225.32069699631796" r="3" style="fill: steelblue;"></circle><circle cx="180.90688034892082" cy="83.94281003210278" r="3" style="fill: steelblue;"></circle><circle cx="336.9533533975482" cy="87.1617936425739" r="3" style="fill: steelblue;"></circle><circle cx="321.63787119090557" cy="215.67096660534543" r="3" style="fill: steelblue;"></circle><circle cx="248.66746885702014" cy="221.53534922334882" r="3" style="fill: steelblue;"></circle><circle cx="183.1572101265192" cy="177.26774302621686" r="3" style="fill: steelblue;"></circle><circle cx="244.46123287081718" cy="254.4225894742542" r="3" style="fill: steelblue;"></circle><circle cx="295.9659047238529" cy="206.54231905937195" r="3" style="fill: steelblue;"></circle><circle cx="56.70067414641382" cy="224.50160003370706" r="3" style="fill: steelblue;"></circle><circle cx="130.60585565865043" cy="161.3313396461308" r="3" style="fill: steelblue;"></circle><circle cx="269.6805037422746" cy="272.8310618135664" r="3" style="fill: steelblue;"></circle><circle cx="191.45739644765854" cy="181.3966571456856" r="3" style="fill: steelblue;"></circle><circle cx="303.52575609460473" cy="91.23118983374701" r="3" style="fill: steelblue;"></circle><circle cx="252.15690753422678" cy="196.26483917236328" r="3" style="fill: steelblue;"></circle><circle cx="157.50505596399307" cy="145.59048648095796" r="3" style="fill: steelblue;"></circle><circle cx="249.85542509704828" cy="229.39072483115729" r="3" style="fill: steelblue;"></circle><circle cx="255.0440762937069" cy="200.74710142281322" r="3" style="fill: steelblue;"></circle><circle cx="170.69616325199604" cy="59.556276599566154" r="3" style="fill: steelblue;"></circle><circle cx="167.95827828347683" cy="80.8497437172466" r="3" style="fill: steelblue;"></circle><circle cx="177.3184970766306" cy="174.52928957839805" r="3" style="fill: steelblue;"></circle><circle cx="86.64438620209695" cy="200.62612427605524" r="3" style="fill: steelblue;"></circle><circle cx="349.56679333001375" cy="176.95645135309962" r="3" style="fill: steelblue;"></circle><circle cx="294.2814942263067" cy="38.73448504341974" r="3" style="fill: steelblue;"></circle><circle cx="483.3044958114624" cy="173.8227700607644" r="3" style="fill: steelblue;"></circle><circle cx="280.9187548980117" cy="33.65361293156944" r="3" style="fill: steelblue;"></circle><circle cx="198.90759743750095" cy="106.81346820460425" r="3" style="fill: steelblue;"></circle><circle cx="469.86469745635986" cy="73.53798730505838" r="3" style="fill: steelblue;"></circle><circle cx="437.899551987648" cy="68.0123511287901" r="3" style="fill: steelblue;"></circle><circle cx="383.2861487567425" cy="58.100900053977966" r="3" style="fill: steelblue;"></circle><circle cx="303.9367350563407" cy="163.0216517796119" r="3" style="fill: steelblue;"></circle><circle cx="480.4984760284424" cy="76.47894339429007" r="3" style="fill: steelblue;"></circle><circle cx="287.78615629300475" cy="14.522551827960562" r="3" style="fill: steelblue;"></circle><circle cx="372.5175992399454" cy="76.88885115914876" r="3" style="fill: steelblue;"></circle><circle cx="235.45728854835033" cy="111.05617814593846" r="3" style="fill: steelblue;"></circle><circle cx="388.4969834983349" cy="256.37964175807105" r="3" style="fill: steelblue;"></circle><circle cx="196.25078223645687" cy="111.72868452138373" r="3" style="fill: steelblue;"></circle><circle cx="276.6023857332766" cy="257.1251435412301" r="3" style="fill: steelblue;"></circle><circle cx="365.78707851469517" cy="102.14042928483752" r="3" style="fill: steelblue;"></circle><circle cx="390.34800946712494" cy="179.8211596492264" r="3" style="fill: steelblue;"></circle><circle cx="234.82739858329296" cy="233.9183350404104" r="3" style="fill: steelblue;"></circle><circle cx="310.6046982854605" cy="287.2470478216807" r="3" style="fill: steelblue;"></circle><circle cx="243.07953648269176" cy="291.33626255724164" r="3" style="fill: steelblue;"></circle><circle cx="234.60324469953775" cy="168.07920522987843" r="3" style="fill: steelblue;"></circle><circle cx="229.86482743173838" cy="288.668269250128" r="3" style="fill: steelblue;"></circle><circle cx="142.15684913098812" cy="223.80334403779773" r="3" style="fill: steelblue;"></circle><circle cx="326.0079390183091" cy="160.82672661998208" r="3" style="fill: steelblue;"></circle><circle cx="380.8125854283571" cy="100.53349882364273" r="3" style="fill: steelblue;"></circle><circle cx="395.02473928034306" cy="76.4662583669027" r="3" style="fill: steelblue;"></circle><circle cx="268.3635703451" cy="85.42562541034488" r="3" style="fill: steelblue;"></circle><circle cx="215.26479598134756" cy="192.06294558114473" r="3" style="fill: steelblue;"></circle><circle cx="147.2272601723671" cy="162.15732130739423" r="3" style="fill: steelblue;"></circle><circle cx="221.02189611643553" cy="75.10656714439392" r="3" style="fill: steelblue;"></circle><circle cx="242.81877547502518" cy="104.66688225666684" r="3" style="fill: steelblue;"></circle><circle cx="389.5363663136959" cy="129.5263052814537" r="3" style="fill: steelblue;"></circle><circle cx="184.7511564195156" cy="166.8196034514242" r="3" style="fill: steelblue;"></circle><circle cx="272.1049300557934" cy="203.44313043687077" r="3" style="fill: steelblue;"></circle><circle cx="241.3198397308588" cy="106.57971368895636" r="3" style="fill: steelblue;"></circle><circle cx="208.1673088297248" cy="208.7995121876399" r="3" style="fill: steelblue;"></circle><circle cx="246.94509839639068" cy="156.81829780547156" r="3" style="fill: steelblue;"></circle><circle cx="185.14792554080486" cy="172.79600575566292" r="3" style="fill: steelblue;"></circle><circle cx="173.1676948070526" cy="214.52790018584994" r="3" style="fill: steelblue;"></circle><circle cx="270.4690074012615" cy="170.15526294708252" r="3" style="fill: steelblue;"></circle><circle cx="367.6227354258299" cy="120.75079290403261" r="3" style="fill: steelblue;"></circle><circle cx="183.52407597005367" cy="232.11988326576022" r="3" style="fill: steelblue;"></circle><circle cx="277.4731646804139" cy="206.33891820907593" r="3" style="fill: steelblue;"></circle><circle cx="360.3024673461914" cy="287.0310256878535" r="3" style="fill: steelblue;"></circle><circle cx="119.57586117088796" cy="215.65744131803513" r="3" style="fill: steelblue;"></circle><circle cx="163.8340701162815" cy="102.75213271379471" r="3" style="fill: steelblue;"></circle><circle cx="161.25818386673927" cy="21.154091755549125" r="3" style="fill: steelblue;"></circle><circle cx="511.39158949255943" cy="110.83606481552124" r="3" style="fill: steelblue;"></circle><circle cx="466.32396027445793" cy="87.52283884419336" r="3" style="fill: steelblue;"></circle><circle cx="422.46821343898773" cy="79.950654009978" r="3" style="fill: steelblue;"></circle><circle cx="513.7328562140465" cy="14.820061789618594" r="3" style="fill: steelblue;"></circle><circle cx="519.8110570013523" cy="144.91551727470426" r="3" style="fill: steelblue;"></circle><circle cx="452.9936161637306" cy="113.52950061360997" r="3" style="fill: steelblue;"></circle><circle cx="90.31449303030969" cy="147.52066276139686" r="3" style="fill: steelblue;"></circle><circle cx="338.01219899207354" cy="256.7308008670807" r="3" style="fill: steelblue;"></circle><circle cx="93.44177439808847" cy="171.87202262381714" r="3" style="fill: steelblue;"></circle><circle cx="108.31381201744081" cy="194.20242119166585" r="3" style="fill: steelblue;"></circle><circle cx="251.80918511934578" cy="236.24285327063666" r="3" style="fill: steelblue;"></circle></g></svg>