<svg xmlns="http://www.w3.org/2000/svg"><g transform="translate(40,20)"><circle cx="386.991650685668" cy="124.84434164232677" r="3" style="fill: steelblue;"></circle><circle cx="494.49186220765114" cy="185.72619940257732" r="3" style="fill: steelblue;"></circle><circle cx="342.7561080828309" cy="183.48061345103713" r="3" style="fill: steelblue;"></circle><circle cx="475.7091034948826" cy="98.24189792076749" r="3" style="fill: steelblue;"></circle><circle cx="454.6426919102669" cy="119.67794845501584" r="3" style="fill: steelblue;"></circle><circle cx="401.35393448174" cy="10.82604792382983" r="3" style="fill: steelblue;"></circle><circle cx="270.65021194168366" cy="99.74412040577994" r="3" style="fill: steelblue;"></circle><circle cx="478.8225647807121" cy="174.31449248558943" r="3" style="fill: steelblue;"></circle><circle cx="279.0972437057644" cy="58.48606593079035" r="3" style="fill: steelblue;"></circle><circle cx="136.50049276649952" cy="130.5878079599804" r="3" style="fill: steelblue;"></circle><circle cx="538.1612491607666" cy="185.84296655737694" r="3" style="fill: steelblue;"></circle><circle cx="292.70386749878526" cy="126.01195524136227" r="3" style="fill: steelblue;"></circle><circle cx="272.7722522383556" cy="107.94351581070157" r="3" style="fill: steelblue;"></circle><circle cx="225.88785242289305" cy="195.061158375918" r="3" style="fill: steelblue;"></circle><circle cx="429.94357019662857" cy="281.9870809713999" r="3" style="fill: steelblue;"></circle><circle cx="484.2702117562294" cy="192.32294478246735" r="3" style="fill: steelblue;"></circle><circle cx="349.74720373749733" cy="152.81551082928974" r="3" style="fill: steelblue;"></circle><circle cx="228.14539147540927" cy="199.2540440729095" r="3" style="fill: steelblue;"></circle><circle cx="337.95233711600304" cy="111.22979554865094" r="3" style="fill: steelblue;"></circle><circle cx="354.96560230851173" cy="119.18688896629544" r="3" style="fill: steelblue;"></circle><circle cx="258.36963661015034" cy="278.8518509931034" r="3" style="fill: steelblue;"></circle><circle cx="417.9818567633629" cy="114.58846512768002" r="3" style="fill: steelblue;"></circle><circle cx="244.15131200104952" cy="79.92960347069635" r="3" style="fill: steelblue;"></circle><circle cx="249.86834370531142" cy="139.8758441209793" r="3" style="fill: steelblue;"></circle><circle cx="364.75250355899334" cy="173.01042936742306" r="3" style="fill: steelblue;"></circle><circle cx="337.29028578847647" cy="147.60346255368654" r="3" style="fill: steelblue;"></circle><circle cx="370.1686681061983" cy="131.81827300124695" r="3" style="fill: steelblue;"></circle><circle cx="347.5632033124566" cy="124.56223451428941" r="3" style="fill: steelblue;"></circle><circle cx="353.89583341777325" cy="197.83559550220764" r="3" style="fill: steelblue;"></circle><circle cx="116.37053757905962" cy="271.3940342267354" r="3" style="fill: steelblue;"></circle><circle cx="291.53685009106994" cy="158.65650524695712" r="3" style="fill: steelblue;"></circle><circle cx="214.26398668438196" cy="170.89149956074027" r="3" style="fill: steelblue;"></circle><circle cx="228.27251812443137" cy="223.7402457329962" r="3" style="fill: steelblue;"></circle><circle cx="378.4529221057892" cy="139.1698693235715" r="3" style="fill: steelblue;"></circle><circle cx="472.65810415148735" cy="263.80310290389593" r="3" style="fill: steelblue;"></circle><circle cx="198.16032227128744" cy="261.881990565194" r="3" style="fill: steelblue;"></circle><circle cx="270.2085987282044" cy="262.15371903445987" r="3" style="fill: steelblue;"></circle><circle cx="266.0777326254174" cy="226.49850323796272" r="3" style="fill: steelblue;"></circle><circle cx="293.9262381568551" cy="233.26147140728102" r="3" style="fill: steelblue;"></circle><circle cx="182.86394074559212" cy="200.40926963297858" r="3" style="fill: steelblue;"></circle><circle cx="74.3202929198742" cy="120.27472423182593" r="3" style="fill: steelblue;"></circle><circle cx="151.4085491001606" cy="235.46834455596075" r="3" style="fill: steelblue;"></circle><circle cx="192.6984679698944" cy="218.91129803326396" r="3" style="fill: steelblue;"></circle><circle cx="199.41985074430704" cy="226.13251499003832" r="3" style="fill: steelblue;"></circle><circle cx="223.88676188886166" cy="214.0443691362937" r="3" style="fill: steelblue;"></circle><circle cx="250.24692619219422" cy="178.00944132937326" r="3" style="fill: steelblue;"></circle><circle cx="146.7713986337185" cy="181.7571802271737" r="3" style="fill: steelblue;"></circle><circle cx="218.1298729777336" cy="237.76678865154582" r="3" style="fill: steelblue;"></circle><circle cx="196.59268844872713" cy="258.5544917318556" r="3" style="fill: steelblue;"></circle><circle cx="193.7070020288229" cy="136.45434627930325" r="3" style="fill: steelblue;"></circle><circle cx="217.34758995473385" cy="228.49710202879373" r="3" style="fill: steelblue;"></circle><circle cx="169.5597381144762" cy="183.99067295508252" r="3" style="fill: steelblue;"></circle><circle cx="196.3265261426568" cy="226.73247216476332" r="3" style="fill: steelblue;"></circle><circle cx="151.79683908820152" cy="302.12601357036164" r="3" style="fill: steelblue;"></circle><circle cx="28.61195102334024" cy="296.545320087009" r="3" style="fill: steelblue;"></circle><circle cx="170.62233544886112" cy="189.62558746958769" r="3" style="fill: steelblue;"></circle><circle cx="345.09551402181387" cy="259.0723931789398" r="3" style="fill: steelblue;"></circle><circle cx="286.30307491868734" cy="182.53117623842422" r="3" style="fill: steelblue;"></circle><circle cx="112.44681112468244" cy="298.4347691138585" r="3" style="fill: steelblue;"></circle><circle cx="206.50565519928932" cy="303.8606693347295" r="3" style="fill: steelblue;"></circle><circle cx="392.9131333529949" cy="147.10599390996828" r="3" style="fill: steelblue;"></circle><circle cx="376.244545429945" cy="203.2916751793689" r="3" style="fill: steelblue;"></circle><circle cx="412.3719897866249" cy="87.32086585627661" r="3" style="fill: steelblue;"></circle><circle cx="369.75328110158443" cy="243.82632308536108" r="3" style="fill: steelblue;"></circle><circle cx="147.9531665146351" cy="83.81296032004887" r="3" style="fill: steelblue;"></circle><circle cx="466.59609720110893" cy="108.29123854637146" r="3" style="fill: steelblue;"></circle><circle cx="293.26594199985266" cy="174.02563140624096" r="3" style="fill: steelblue;"></circle><circle cx="364.95997577905655" cy="115.67896604537964" r="3" style="fill: steelblue;"></circle><circle cx="421.7714962363243" cy="127.83800231085883" r="3" style="fill: steelblue;"></circle><circle cx="468.54820892214775" cy="72.87204596731397" r="3" style="fill: steelblue;"></circle><circle cx="116.81319259107114" cy="203.10217556026248" r="3" style="fill: steelblue;"></circle><circle cx="257.4484813772142" cy="322.8041264745924" r="3" style="fill: steelblue;"></circle><circle cx="119.29621070623399" cy="168.6570557455222" r="3" style="fill: steelblue;"></circle><circle cx="213.3423813432455" cy="212.93135359883308" r="3" style="fill: steelblue;"></circle><circle cx="317.85836040973663" cy="141.8348029255867" r="3" style="fill: steelblue;"></circle><circle cx="329.48246754705906" cy="163.07001105613176" r="3" style="fill: steelblue;"></circle><circle cx="110.82956984639169" cy="229.6160558859507" r="3" style="fill: steelblue;"></circle><circle cx="137.4173355102539" cy="250.06612804200915" r="3" style="fill: steelblue;"></circle><circle cx="107.26451173424722" cy="237.40418462289702" r="3" style="fill: steelblue;"></circle><circle cx="118.24513010680677" cy="318.38260922167035" r="3" style="fill: steelblue;"></circle><circle cx="174.88282330334187" cy="236.1707989540365" r="3" style="fill: steelblue;"></circle><circle cx="168.45718927681446" cy="266.944649318854" r="3" style="fill: steelblue;"></circle><circle cx="364.5453029125929" cy="179.16378461652334" r="3" style="fill: steelblue;"></circle><circle cx="384.63628225028515" cy="134.24104369348947" r="3" style="fill: steelblue;"></circle><circle cx="243.91848787665367" cy="226.5743033753501" r="3" style="fill: steelblue;"></circle><circle cx="351.0668908059597" cy="154.90131701032323" r="3" style="fill: steelblue;"></circle><circle cx="201.03320952504873" cy="153.97238648600046" r="3" style="fill: steelblue;"></circle><circle cx="183.2802028208971" cy="220.29357486301" r="3" style="fill: steelblue;"></circle><circle cx="482.0489001274109" cy="117.63495206832886" r="3" style="fill: steelblue;"></circle><circle cx="247.44977781549096" cy="88.29916020234424" r="3" style="fill: steelblue;"></circle><circle cx="315.18776033073664" cy="202.99228260086642" r="3" style="fill: steelblue;"></circle><circle cx="464.0711461007595" cy="78.12100483311548" r="3" style="fill: steelblue;"></circle><circle cx="476.52133002877235" cy="115.0187651316325" r="3" style="fill: steelblue;"></circle><circle cx="330.67148745059967" cy="191.96730386465788" r="3" style="fill: steelblue;"></circle><circle cx="202.76735823601484" cy="227.90484337343108" r="3" style="fill: steelblue;"></circle><circle cx="61.002883762121215" cy="168.17179694771767" r="3" style="fill: steelblue;"></circle><circle cx="125.5479269474745" cy="237.67970585160788" r="3" style="fill: steelblue;"></circle><circle cx="215.7348145544529" cy="165.70455042852296" r="3" style="fill: steelblue;"></circle><circle cx="152.8633289784193" cy="264.5227942201826" r="3" style="fill: steelblue;"></circle><circle cx="328.87507796287537" cy="128.63914668560028" r="3" style="fill: steelblue;"></circle><circle cx="306.3927969709039" cy="207.87894022133617" r="3" style="fill: steelblue;"></circle><circle cx="127.73684084415437" cy="220.29689533842932" r="3" style="fill: steelblue;"></circle><circle cx="102.55946785211565" cy="191.7271831124607" r="3" style="fill: steelblue;"></circle><circle cx="221.1242240667343" cy="283.28535788589056" r="3" style="fill: steelblue;"></circle><circle cx="86.77458062767984" cy="141.1645420723491" r="3" style="fill: steelblue;"></circle><circle cx="67.40349277853967" cy="229.12509491046268" r="3" style="fill: steelblue;"></circle><circle cx="460.1053659617901" cy="158.28621428873805" r="3" style="fill: steelblue;"></circle><circle cx="430.2365981787443" cy="195.94032097504373" r="3" style="fill: steelblue;"></circle><circle cx="410.2901664376259" cy="152.32938279708225" r="3" style="fill: steelblue;"></circle><circle cx="415.58793492615223" cy="70.05630599127875" r="3" style="fill: steelblue;"></circle><circle cx="486.9662743806839" cy="43.98873117234972" r="3" style="fill: steelblue;"></circle><circle cx="495.3942511975765" cy="115.53141640292273" r="3" style="fill: steelblue;"></circle><circle cx="195.5635952576995" cy="136.80165178245966" r="3" style="fill: steelblue;"></circle><circle cx="153.13042670488358" cy="234.9250701566537" r="3" style="fill: steelblue;"></circle><circle cx="129.08589810132983" cy="259.86815409527884" r="3" style="fill: steelblue;"></circle><circle cx="163.42665933072567" cy="187.45103209382955" r="3" style="fill: steelblue;"></circle><circle cx="292.478886321187" cy="209.80297608508005" r="3" style="fill: steelblue;"></circle><circle cx="286.5634335950017" cy="201.49637220634355" r="3" style="fill: steelblue;"></circle></g></svg>