<svg xmlns="http://www.w3.org/2000/svg"><g transform="translate(40,20)"><circle cx="384.83063220977783" cy="100.57273838255139" r="3" style="fill: steelblue;"></circle><circle cx="204.38546776771548" cy="217.52793755796222" r="3" style="fill: steelblue;"></circle><circle cx="397.5192332267761" cy="92.34864513079327" r="3" style="fill: steelblue;"></circle><circle cx="363.10599088668823" cy="114.65352442529468" r="3" style="fill: steelblue;"></circle><circle cx="315.36432445049286" cy="145.5971971154213" r="3" style="fill: steelblue;"></circle><circle cx="271.8379282951355" cy="173.80875017907886" r="3" style="fill: steelblue;"></circle><circle cx="441.6825556755066" cy="63.72426946957905" r="3" style="fill: steelblue;"></circle><circle cx="341.7069339752198" cy="128.52328353457978" r="3" style="fill: steelblue;"></circle><circle cx="374.1594010591507" cy="107.48927709129123" r="3" style="fill: steelblue;"></circle><circle cx="448.9412569999695" cy="59.019555648167916" r="3" style="fill: steelblue;"></circle><circle cx="371.83805644512177" cy="108.99385230408774" r="3" style="fill: steelblue;"></circle><circle cx="334.43270266056066" cy="133.23806309037735" r="3" style="fill: steelblue;"></circle><circle cx="312.06819355487823" cy="147.7335782514678" r="3" style="fill: steelblue;"></circle><circle cx="309.1562980413437" cy="149.6209179361661" r="3" style="fill: steelblue;"></circle><circle cx="282.94331073760986" cy="166.61081711451214" r="3" style="fill: steelblue;"></circle><circle cx="283.5521811246872" cy="166.21617890066568" r="3" style="fill: steelblue;"></circle><circle cx="460.98820209503174" cy="51.21135049396093" r="3" style="fill: steelblue;"></circle><circle cx="429.5255506038666" cy="71.60380979379016" r="3" style="fill: steelblue;"></circle><circle cx="312.00298458337784" cy="147.77584332558843" r="3" style="fill: steelblue;"></circle><circle cx="366.9860118627548" cy="112.13869601488113" r="3" style="fill: steelblue;"></circle><circle cx="288.83746951818466" cy="162.7905290159914" r="3" style="fill: steelblue;"></circle><circle cx="265.06230399012566" cy="178.20035852491856" r="3" style="fill: steelblue;"></circle><circle cx="270.9310667216778" cy="174.39653082854215" r="3" style="fill: steelblue;"></circle><circle cx="467.41586565971375" cy="47.04527225759295" r="3" style="fill: steelblue;"></circle><circle cx="221.42936043441298" cy="206.48097008880643" r="3" style="fill: steelblue;"></circle><circle cx="266.14662274718285" cy="177.4975593305296" r="3" style="fill: steelblue;"></circle><circle cx="237.99181544221938" cy="195.74604554670964" r="3" style="fill: steelblue;"></circle><circle cx="229.62364308536056" cy="201.16986096319226" r="3" style="fill: steelblue;"></circle><circle cx="241.34820328094065" cy="193.57060898457553" r="3" style="fill: steelblue;"></circle><circle cx="239.62525984738025" cy="194.6873315804017" r="3" style="fill: steelblue;"></circle><circle cx="164.69525635242462" cy="243.25307458639145" r="3" style="fill: steelblue;"></circle><circle cx="235.39817310869694" cy="197.42711002214088" r="3" style="fill: steelblue;"></circle><circle cx="204.99239802360535" cy="217.13455683655206" r="3" style="fill: steelblue;"></circle><circle cx="220.1944613456726" cy="207.2813676463233" r="3" style="fill: steelblue;"></circle><circle cx="247.33761694282293" cy="189.68858161113326" r="3" style="fill: steelblue;"></circle><circle cx="178.21504265069962" cy="234.49025013380583" r="3" style="fill: steelblue;"></circle><circle cx="87.62495756149293" cy="293.20604602495825" r="3" style="fill: steelblue;"></circle><circle cx="291.4861598610878" cy="161.07378527522087" r="3" style="fill: steelblue;"></circle><circle cx="236.52375793084502" cy="196.69756430408194" r="3" style="fill: steelblue;"></circle><circle cx="299.52760130167013" cy="155.86173989706566" r="3" style="fill: steelblue;"></circle><circle cx="276.8078202009201" cy="170.58752394384805" r="3" style="fill: steelblue;"></circle><circle cx="257.55707412958145" cy="183.06485936045647" r="3" style="fill: steelblue;"></circle><circle cx="37.47573137283326" cy="325.7101741102007" r="3" style="fill: steelblue;"></circle><circle cx="325.79929769039154" cy="138.83378853400546" r="3" style="fill: steelblue;"></circle><circle cx="108.48995089530946" cy="279.68243923452167" r="3" style="fill: steelblue;"></circle><circle cx="134.10685300827026" cy="263.07889156871374" r="3" style="fill: steelblue;"></circle><circle cx="103.71190845966339" cy="282.7793185909589" r="3" style="fill: steelblue;"></circle><circle cx="237.64583325013518" cy="195.9702932638013" r="3" style="fill: steelblue;"></circle><circle cx="311.54266834259033" cy="148.07419644461737" r="3" style="fill: steelblue;"></circle><circle cx="226.05097532272342" cy="203.48547895749408" r="3" style="fill: steelblue;"></circle><circle cx="308.39911937713623" cy="150.11168188518945" r="3" style="fill: steelblue;"></circle><circle cx="340.8321940898895" cy="129.09024457136792" r="3" style="fill: steelblue;"></circle><circle cx="158.0818498134613" cy="247.53954178757135" r="3" style="fill: steelblue;"></circle><circle cx="164.5280742645264" cy="243.36143334706622" r="3" style="fill: steelblue;"></circle><circle cx="200.46316623687744" cy="220.0701700316535" r="3" style="fill: steelblue;"></circle><circle cx="154.22998309135437" cy="250.03612207041846" r="3" style="fill: steelblue;"></circle><circle cx="182.94424653053284" cy="231.4250253968769" r="3" style="fill: steelblue;"></circle><circle cx="173.85398089885712" cy="237.3168642322222" r="3" style="fill: steelblue;"></circle><circle cx="203.17567080259323" cy="218.3120652205414" r="3" style="fill: steelblue;"></circle><circle cx="177.4863713979721" cy="234.9625370568699" r="3" style="fill: steelblue;"></circle><circle cx="395.44155836105347" cy="93.69528624746533" r="3" style="fill: steelblue;"></circle><circle cx="280.8480495214462" cy="167.96885679165524" r="3" style="fill: steelblue;"></circle><circle cx="239.23973393160853" cy="194.93720948877228" r="3" style="fill: steelblue;"></circle><circle cx="410.24654746055603" cy="84.09945997926923" r="3" style="fill: steelblue;"></circle><circle cx="331.44420325756073" cy="135.1750534441736" r="3" style="fill: steelblue;"></circle><circle cx="303.27459365129477" cy="153.43313374453118" r="3" style="fill: steelblue;"></circle><circle cx="299.61229652166367" cy="155.80684484706984" r="3" style="fill: steelblue;"></circle><circle cx="412.19082713127136" cy="82.83927871121301" r="3" style="fill: steelblue;"></circle><circle cx="349.01635587215424" cy="123.78569526804819" r="3" style="fill: steelblue;"></circle><circle cx="366.7826020717621" cy="112.27053569422827" r="3" style="fill: steelblue;"></circle><circle cx="213.31324741244316" cy="211.7414137141572" r="3" style="fill: steelblue;"></circle><circle cx="277.8659427165985" cy="169.90170379479724" r="3" style="fill: steelblue;"></circle><circle cx="262.15373888611794" cy="180.08553961084948" r="3" style="fill: steelblue;"></circle><circle cx="114.16510283946991" cy="276.0041000114547" r="3" style="fill: steelblue;"></circle><circle cx="191.06431245803833" cy="226.1620197031233" r="3" style="fill: steelblue;"></circle><circle cx="223.82565267384052" cy="204.92781771139965" r="3" style="fill: steelblue;"></circle><circle cx="176.9586020708084" cy="235.3046097689205" r="3" style="fill: steelblue;"></circle><circle cx="123.40601027011871" cy="270.0146229730712" r="3" style="fill: steelblue;"></circle><circle cx="70.73630332946779" cy="304.1523959901598" r="3" style="fill: steelblue;"></circle><circle cx="354.14583027362823" cy="120.46103593375949" r="3" style="fill: steelblue;"></circle><circle cx="106.34657979011537" cy="281.07166124714746" r="3" style="fill: steelblue;"></circle><circle cx="224.69616137444973" cy="204.36359910915291" r="3" style="fill: steelblue;"></circle><circle cx="85.44146060943604" cy="294.6212755309211" r="3" style="fill: steelblue;"></circle><circle cx="273.44369754195213" cy="172.76797381540138" r="3" style="fill: steelblue;"></circle><circle cx="323.09055268764496" cy="140.58945659134122" r="3" style="fill: steelblue;"></circle><circle cx="183.75363886356357" cy="230.9004192550977" r="3" style="fill: steelblue;"></circle><circle cx="159.84013617038727" cy="246.39991174141562" r="3" style="fill: steelblue;"></circle><circle cx="248.4398550912738" cy="188.9741679963966" r="3" style="fill: steelblue;"></circle><circle cx="269.343943297863" cy="175.42522193657027" r="3" style="fill: steelblue;"></circle><circle cx="106.98035001754761" cy="280.6608842478858" r="3" style="fill: steelblue;"></circle><circle cx="282.07015335559845" cy="167.17675245470468" r="3" style="fill: steelblue;"></circle><circle cx="362.3458707332611" cy="115.14619489510852" r="3" style="fill: steelblue;"></circle><circle cx="223.2942858338356" cy="205.2722221447362" r="3" style="fill: steelblue;"></circle><circle cx="350.8290910720825" cy="122.61077430513171" r="3" style="fill: steelblue;"></circle><circle cx="272.0869021117687" cy="173.64737826089066" r="3" style="fill: steelblue;"></circle><circle cx="200.37315130233765" cy="220.12851304478113" r="3" style="fill: steelblue;"></circle><circle cx="177.99264281988144" cy="234.63439817229903" r="3" style="fill: steelblue;"></circle><circle cx="236.7389915138483" cy="196.55806105583906" r="3" style="fill: steelblue;"></circle><circle cx="172.22585320472717" cy="238.37213218212128" r="3" style="fill: steelblue;"></circle><circle cx="186.1332142353058" cy="229.358101884524" r="3" style="fill: steelblue;"></circle><circle cx="329.37461972236633" cy="136.51645017994775" r="3" style="fill: steelblue;"></circle><circle cx="164.83888864517212" cy="243.15997958183289" r="3" style="fill: steelblue;"></circle><circle cx="311.55989706516266" cy="148.06302967998715" r="3" style="fill: steelblue;"></circle><circle cx="382.98949241638184" cy="101.76606973012287" r="3" style="fill: steelblue;"></circle><circle cx="244.87327482551336" cy="191.28584039087093" r="3" style="fill: steelblue;"></circle><circle cx="39.87248182296754" cy="324.15672474437287" r="3" style="fill: steelblue;"></circle><circle cx="443.2141149044037" cy="62.73159219159021" r="3" style="fill: steelblue;"></circle><circle cx="364.26159381866455" cy="113.90452252493964" r="3" style="fill: steelblue;"></circle><circle cx="343.76793444156647" cy="127.18744989898471" r="3" style="fill: steelblue;"></circle><circle cx="513.5888242721558" cy="17.11835463841755" r="3" style="fill: steelblue;"></circle><circle cx="305.1539236307145" cy="152.215049498611" r="3" style="fill: steelblue;"></circle><circle cx="409.2299723625183" cy="84.75835124651593" r="3" style="fill: steelblue;"></circle><circle cx="245.40675669908524" cy="190.94006510244475" r="3" style="fill: steelblue;"></circle><circle cx="117.35377550125122" cy="273.93736773067053" r="3" style="fill: steelblue;"></circle><circle cx="221.83029480278492" cy="206.22110522041714" r="3" style="fill: steelblue;"></circle><circle cx="214.26804676651955" cy="211.12256228095953" r="3" style="fill: steelblue;"></circle><circle cx="110.73818743228914" cy="278.2252488864793" r="3" style="fill: steelblue;"></circle><circle cx="28.59604597091676" cy="331.465525759591" r="3" style="fill: steelblue;"></circle></g></svg>