<svg xmlns="http://www.w3.org/2000/svg"><g transform="translate(40,20)"><circle cx="329.3165596042361" cy="156.47526495158672" r="3" style="fill: steelblue;"></circle><circle cx="234.36857383831273" cy="99.75470826029778" r="3" style="fill: steelblue;"></circle><circle cx="474.20211451394226" cy="81.86119645833969" r="3" style="fill: steelblue;"></circle><circle cx="424.9987833840507" cy="161.92405298352242" r="3" style="fill: steelblue;"></circle><circle cx="451.8415955134801" cy="138.30404840409756" r="3" style="fill: steelblue;"></circle><circle cx="536.7818135874613" cy="132.44999460875988" r="3" style="fill: steelblue;"></circle><circle cx="350.3687085424151" cy="112.57060468196869" r="3" style="fill: steelblue;"></circle><circle cx="467.0302018097469" cy="73.49352538585663" r="3" style="fill: steelblue;"></circle><circle cx="402.67960105623524" cy="71.5974435210228" r="3" style="fill: steelblue;"></circle><circle cx="513.2964221068792" cy="95.12451216578484" r="3" style="fill: steelblue;"></circle><circle cx="402.04160698822574" cy="129.83569651842117" r="3" style="fill: steelblue;"></circle><circle cx="384.61772816521784" cy="68.6019018292427" r="3" style="fill: steelblue;"></circle><circle cx="315.5765760796411" cy="234.1407373547554" r="3" style="fill: steelblue;"></circle><circle cx="365.03622676645006" cy="122.2244992852211" r="3" style="fill: steelblue;"></circle><circle cx="251.60369836858342" cy="166.80122269317508" r="3" style="fill: steelblue;"></circle><circle cx="226.1432281535651" cy="192.9009098559618" r="3" style="fill: steelblue;"></circle><circle cx="424.16460105351047" cy="181.76303328946233" r="3" style="fill: steelblue;"></circle><circle cx="269.83346988047873" cy="227.10238471627235" r="3" style="fill: steelblue;"></circle><circle cx="300.63200673886706" cy="105.76800927519798" r="3" style="fill: steelblue;"></circle><circle cx="533.2542872428895" cy="150.5058828741312" r="3" style="fill: steelblue;"></circle><circle cx="210.81824410174573" cy="202.80740223824978" r="3" style="fill: steelblue;"></circle><circle cx="235.00224050932698" cy="205.62192499637604" r="3" style="fill: steelblue;"></circle><circle cx="209.05177812491144" cy="173.87703930726275" r="3" style="fill: steelblue;"></circle><circle cx="386.2131444045476" cy="140.8002644777298" r="3" style="fill: steelblue;"></circle><circle cx="163.32842064755303" cy="93.87668967247009" r="3" style="fill: steelblue;"></circle><circle cx="107.40072446210044" cy="123.69115501642227" r="3" style="fill: steelblue;"></circle><circle cx="131.85358490262715" cy="241.6727177798748" r="3" style="fill: steelblue;"></circle><circle cx="518.1635509218489" cy="74.36216175556183" r="3" style="fill: steelblue;"></circle><circle cx="412.7299416916712" cy="187.47574891895056" r="3" style="fill: steelblue;"></circle><circle cx="148.64899341549193" cy="224.55556094646454" r="3" style="fill: steelblue;"></circle><circle cx="174.81013553483146" cy="216.82740300893784" r="3" style="fill: steelblue;"></circle><circle cx="252.61703885027342" cy="122.60991781949997" r="3" style="fill: steelblue;"></circle><circle cx="228.3533449125077" cy="203.92303243279457" r="3" style="fill: steelblue;"></circle><circle cx="115.39717503956386" cy="217.40197129547596" r="3" style="fill: steelblue;"></circle><circle cx="263.8340225815773" cy="142.81093403697014" r="3" style="fill: steelblue;"></circle><circle cx="381.78247613566265" cy="246.84790819883347" r="3" style="fill: steelblue;"></circle><circle cx="80.39903742926461" cy="231.23050928115845" r="3" style="fill: steelblue;"></circle><circle cx="61.90976219517844" cy="214.558195322752" r="3" style="fill: steelblue;"></circle><circle cx="111.98128989764622" cy="297.8746101260185" r="3" style="fill: steelblue;"></circle><circle cx="90.5957806961877" cy="125.89400708675385" r="3" style="fill: steelblue;"></circle><circle cx="95.90425550937653" cy="141.5440570563078" r="3" style="fill: steelblue;"></circle><circle cx="219.32814564023698" cy="222.46612310409546" r="3" style="fill: steelblue;"></circle><circle cx="212.09703562515122" cy="248.24314936995506" r="3" style="fill: steelblue;"></circle><circle cx="197.10128973637308" cy="222.19403013586998" r="3" style="fill: steelblue;"></circle><circle cx="151.38636972223009" cy="205.2126720547676" r="3" style="fill: steelblue;"></circle><circle cx="130.06984310490745" cy="288.1643369793892" r="3" style="fill: steelblue;"></circle><circle cx="214.58000632269042" cy="157.86169730126858" r="3" style="fill: steelblue;"></circle><circle cx="128.6587406056268" cy="253.66368293762207" r="3" style="fill: steelblue;"></circle><circle cx="139.4870981148311" cy="189.65745512396097" r="3" style="fill: steelblue;"></circle><circle cx="125.57618124144417" cy="212.93423771858215" r="3" style="fill: steelblue;"></circle><circle cx="54.82559221131461" cy="211.41509674489498" r="3" style="fill: steelblue;"></circle><circle cx="285.7747605443001" cy="185.55966075509787" r="3" style="fill: steelblue;"></circle><circle cx="91.46335652896336" cy="146.89830280840397" r="3" style="fill: steelblue;"></circle><circle cx="160.09901033980506" cy="270.29723078012466" r="3" style="fill: steelblue;"></circle><circle cx="147.69319781235285" cy="203.21330167353153" r="3" style="fill: steelblue;"></circle><circle cx="132.7538300412042" cy="195.77873460948467" r="3" style="fill: steelblue;"></circle><circle cx="135.717017693179" cy="221.39597907662392" r="3" style="fill: steelblue;"></circle><circle cx="108.6323526927403" cy="324.6814340353012" r="3" style="fill: steelblue;"></circle><circle cx="10.890479769025523" cy="169.44054821506143" r="3" style="fill: steelblue;"></circle><circle cx="94.33748526232583" cy="187.18181904405355" r="3" style="fill: steelblue;"></circle><circle cx="409.28620372499745" cy="71.7078223824501" r="3" style="fill: steelblue;"></circle><circle cx="473.93133401870733" cy="128.67842391133308" r="3" style="fill: steelblue;"></circle><circle cx="391.7665930305209" cy="158.66084229201078" r="3" style="fill: steelblue;"></circle><circle cx="296.825555562973" cy="95.58674842119217" r="3" style="fill: steelblue;"></circle><circle cx="395.067583833422" cy="74.20593947172165" r="3" style="fill: steelblue;"></circle><circle cx="351.39838942459653" cy="86.084945499897" r="3" style="fill: steelblue;"></circle><circle cx="340.46851796763286" cy="141.12004190683365" r="3" style="fill: steelblue;"></circle><circle cx="149.37115520238876" cy="127.01105326414108" r="3" style="fill: steelblue;"></circle><circle cx="197.39798324448722" cy="62.33144998550415" r="3" style="fill: steelblue;"></circle><circle cx="279.367599274431" cy="123.62873703241348" r="3" style="fill: steelblue;"></circle><circle cx="442.49764527593345" cy="130.13008534908295" r="3" style="fill: steelblue;"></circle><circle cx="259.50988303337783" cy="253.65152582526207" r="3" style="fill: steelblue;"></circle><circle cx="407.98009821346835" cy="149.50540624558926" r="3" style="fill: steelblue;"></circle><circle cx="61.92193559237889" cy="213.5876003652811" r="3" style="fill: steelblue;"></circle><circle cx="216.64247034915857" cy="174.67206606233958" r="3" style="fill: steelblue;"></circle><circle cx="252.84204984349864" cy="246.76069617271423" r="3" style="fill: steelblue;"></circle><circle cx="34.54133289200919" cy="172.44758906308562" r="3" style="fill: steelblue;"></circle><circle cx="0.8219422612871358" cy="184.0205630287528" r="3" style="fill: steelblue;"></circle><circle cx="44.199136069842744" cy="175.01476220786572" r="3" style="fill: steelblue;"></circle><circle cx="63.738404171807424" cy="161.84867341071367" r="3" style="fill: steelblue;"></circle><circle cx="121.79969225611005" cy="178.08012254536152" r="3" style="fill: steelblue;"></circle><circle cx="104.27981717245919" cy="209.10356864333153" r="3" style="fill: steelblue;"></circle><circle cx="284.1022173847471" cy="225.99498182535172" r="3" style="fill: steelblue;"></circle><circle cx="241.92184080502818" cy="214.22485783696175" r="3" style="fill: steelblue;"></circle><circle cx="387.84473598003393" cy="212.23343051970005" r="3" style="fill: steelblue;"></circle><circle cx="303.8783149634089" cy="78.66848111152649" r="3" style="fill: steelblue;"></circle><circle cx="309.65363208736693" cy="125.69540441036224" r="3" style="fill: steelblue;"></circle><circle cx="123.72320396559579" cy="131.9915473461151" r="3" style="fill: steelblue;"></circle><circle cx="257.95804502708575" cy="116.96134582161903" r="3" style="fill: steelblue;"></circle><circle cx="374.56232964992523" cy="106.14504665136337" r="3" style="fill: steelblue;"></circle><circle cx="438.1362124851772" cy="163.5745583102107" r="3" style="fill: steelblue;"></circle><circle cx="126.77699089050293" cy="145.85131257772446" r="3" style="fill: steelblue;"></circle><circle cx="236.580043256815" cy="154.28392849862576" r="3" style="fill: steelblue;"></circle><circle cx="261.0961950889656" cy="106.38980567455292" r="3" style="fill: steelblue;"></circle><circle cx="262.78223646538595" cy="232.81307220458984" r="3" style="fill: steelblue;"></circle><circle cx="272.29609410677637" cy="193.01024563610554" r="3" style="fill: steelblue;"></circle><circle cx="20.55374315806797" cy="225.38369968533516" r="3" style="fill: steelblue;"></circle><circle cx="238.16380445978473" cy="228.14892902970314" r="3" style="fill: steelblue;"></circle><circle cx="168.11768685068404" cy="202.33653709292412" r="3" style="fill: steelblue;"></circle><circle cx="108.55939277580806" cy="244.73178833723068" r="3" style="fill: steelblue;"></circle><circle cx="158.07759991713934" cy="204.96333129703999" r="3" style="fill: steelblue;"></circle><circle cx="129.3413244826453" cy="225.6507858633995" r="3" style="fill: steelblue;"></circle><circle cx="342.52497145107816" cy="154.62770462036133" r="3" style="fill: steelblue;"></circle><circle cx="5.620858669280998" cy="236.2605758011341" r="3" style="fill: steelblue;"></circle><circle cx="126.1243634564536" cy="122.9314997792244" r="3" style="fill: steelblue;"></circle><circle cx="47.65631190368107" cy="188.29511012881994" r="3" style="fill: steelblue;"></circle><circle cx="305.6733565245356" cy="169.78297159075737" r="3" style="fill: steelblue;"></circle><circle cx="478.9230016299657" cy="133.0752618610859" r="3" style="fill: steelblue;"></circle><circle cx="331.72400695937023" cy="54.62832599878311" r="3" style="fill: steelblue;"></circle><circle cx="414.7358853476389" cy="169.24666743725538" r="3" style="fill: steelblue;"></circle><circle cx="471.2550718443735" cy="66.28896296024323" r="3" style="fill: steelblue;"></circle><circle cx="297.2167940650668" cy="23.92885833978653" r="3" style="fill: steelblue;"></circle><circle cx="322.09040113857816" cy="292.5366625189781" r="3" style="fill: steelblue;"></circle><circle cx="296.34348788431714" cy="252.2064983844757" r="3" style="fill: steelblue;"></circle><circle cx="222.9042362528188" cy="136.4907741546631" r="3" style="fill: steelblue;"></circle><circle cx="148.90483592237746" cy="309.5369890332222" r="3" style="fill: steelblue;"></circle><circle cx="361.8544639859881" cy="266.4896607398987" r="3" style="fill: steelblue;"></circle><circle cx="228.5549729104553" cy="234.6432365477085" r="3" style="fill: steelblue;"></circle></g></svg>