<svg xmlns="http://www.w3.org/2000/svg"><g transform="translate(40,20)"><circle cx="344.7242349386215" cy="55.70584461092949" r="3" style="fill: steelblue;"></circle><circle cx="350.63985586166376" cy="43.28046478331089" r="3" style="fill: steelblue;"></circle><circle cx="271.0120216012001" cy="92.46693011373281" r="3" style="fill: steelblue;"></circle><circle cx="246.1318954825401" cy="7.641180604696274" r="3" style="fill: steelblue;"></circle><circle cx="396.254763007164" cy="64.43956419825554" r="3" style="fill: steelblue;"></circle><circle cx="456.6295266151428" cy="181.4196547609754" r="3" style="fill: steelblue;"></circle><circle cx="223.75396192073822" cy="100.60705821961164" r="3" style="fill: steelblue;"></circle><circle cx="292.09812730550766" cy="104.74564619362354" r="3" style="fill: steelblue;"></circle><circle cx="473.9461362361908" cy="76.09515655785799" r="3" style="fill: steelblue;"></circle><circle cx="290.16219936311245" cy="52.885013818740845" r="3" style="fill: steelblue;"></circle><circle cx="418.5412734746933" cy="7.397386431694031" r="3" style="fill: steelblue;"></circle><circle cx="503.6541759967804" cy="60.587647557258606" r="3" style="fill: steelblue;"></circle><circle cx="412.5028610229492" cy="76.36309806257486" r="3" style="fill: steelblue;"></circle><circle cx="357.86396116018295" cy="95.2266363427043" r="3" style="fill: steelblue;"></circle><circle cx="303.20414789021015" cy="99.63408503681421" r="3" style="fill: steelblue;"></circle><circle cx="488.62754702568054" cy="148.4192981850356" r="3" style="fill: steelblue;"></circle><circle cx="333.9181512594223" cy="52.610787749290466" r="3" style="fill: steelblue;"></circle><circle cx="397.54908084869385" cy="24.518978968262672" r="3" style="fill: steelblue;"></circle><circle cx="252.02867835760117" cy="114.4526844844222" r="3" style="fill: steelblue;"></circle><circle cx="383.28127562999725" cy="98.15506748855114" r="3" style="fill: steelblue;"></circle><circle cx="368.99822652339935" cy="81.27754293382168" r="3" style="fill: steelblue;"></circle><circle cx="157.80534446239471" cy="47.24692478775978" r="3" style="fill: steelblue;"></circle><circle cx="454.38907742500305" cy="153.28691685572267" r="3" style="fill: steelblue;"></circle><circle cx="268.88806745409966" cy="35.81737466156483" r="3" style="fill: steelblue;"></circle><circle cx="316.24162048101425" cy="238.19305207580328" r="3" style="fill: steelblue;"></circle><circle cx="298.7839065492153" cy="99.8795285820961" r="3" style="fill: steelblue;"></circle><circle cx="406.58285915851593" cy="126.65596948936582" r="3" style="fill: steelblue;"></circle><circle cx="289.8651212453842" cy="114.64332714676857" r="3" style="fill: steelblue;"></circle><circle cx="446.30562365055084" cy="281.4407667145133" r="3" style="fill: steelblue;"></circle><circle cx="228.0906781554222" cy="222.947411891073" r="3" style="fill: steelblue;"></circle><circle cx="302.90716644376516" cy="134.65374633669853" r="3" style="fill: steelblue;"></circle><circle cx="390.2590423822403" cy="156.44645243883133" r="3" style="fill: steelblue;"></circle><circle cx="324.6804244816303" cy="105.67801743745804" r="3" style="fill: steelblue;"></circle><circle cx="286.58297806978226" cy="201.60239953547716" r="3" style="fill: steelblue;"></circle><circle cx="441.159725189209" cy="190.67476871423423" r="3" style="fill: steelblue;"></circle><circle cx="187.54722476005554" cy="248.36871419101954" r="3" style="fill: steelblue;"></circle><circle cx="413.79447877407074" cy="243.8610253855586" r="3" style="fill: steelblue;"></circle><circle cx="261.6524577140808" cy="217.64763975515962" r="3" style="fill: steelblue;"></circle><circle cx="316.37625731527805" cy="76.83409489691257" r="3" style="fill: steelblue;"></circle><circle cx="257.671120762825" cy="315.47341234982014" r="3" style="fill: steelblue;"></circle><circle cx="242.01717674732208" cy="193.62204866483808" r="3" style="fill: steelblue;"></circle><circle cx="355.17842173576355" cy="198.46994983963668" r="3" style="fill: steelblue;"></circle><circle cx="206.72025382518768" cy="202.86296978592873" r="3" style="fill: steelblue;"></circle><circle cx="177.1222025156021" cy="179.4134504860267" r="3" style="fill: steelblue;"></circle><circle cx="383.9410275220871" cy="207.988544087857" r="3" style="fill: steelblue;"></circle><circle cx="222.29165732860565" cy="212.65682503581047" r="3" style="fill: steelblue;"></circle><circle cx="208.71745347976682" cy="80.39655648171902" r="3" style="fill: steelblue;"></circle><circle cx="319.2985899746418" cy="292.5365764647722" r="3" style="fill: steelblue;"></circle><circle cx="269.8196366429329" cy="245.4629048705101" r="3" style="fill: steelblue;"></circle><circle cx="410.432231426239" cy="221.00311489775777" r="3" style="fill: steelblue;"></circle><circle cx="271.79556638002396" cy="87.60419599711895" r="3" style="fill: steelblue;"></circle><circle cx="379.8008769750595" cy="139.24733940511942" r="3" style="fill: steelblue;"></circle><circle cx="59.26133394241333" cy="185.14864875469357" r="3" style="fill: steelblue;"></circle><circle cx="242.59611815214157" cy="170.48843957018107" r="3" style="fill: steelblue;"></circle><circle cx="281.61897473037243" cy="331.2581919133663" r="3" style="fill: steelblue;"></circle><circle cx="293.2490721344948" cy="218.17366564646363" r="3" style="fill: steelblue;"></circle><circle cx="251.91000401973724" cy="181.70188973890617" r="3" style="fill: steelblue;"></circle><circle cx="215.87262153625488" cy="349.72812347114086" r="3" style="fill: steelblue;"></circle><circle cx="148.7978160381317" cy="269.0287774428725" r="3" style="fill: steelblue;"></circle><circle cx="394.7282463312149" cy="221.643755864352" r="3" style="fill: steelblue;"></circle><circle cx="170.43318450450897" cy="153.27618126757443" r="3" style="fill: steelblue;"></circle><circle cx="424.63088035583496" cy="221.6511780396104" r="3" style="fill: steelblue;"></circle><circle cx="445.4718232154846" cy="186.86714961659163" r="3" style="fill: steelblue;"></circle><circle cx="362.6088961958885" cy="60.321687906980515" r="3" style="fill: steelblue;"></circle><circle cx="290.3185095638037" cy="45.797667652368546" r="3" style="fill: steelblue;"></circle><circle cx="432.25821554660797" cy="75.5116568878293" r="3" style="fill: steelblue;"></circle><circle cx="339.03311938047403" cy="241.97603408247232" r="3" style="fill: steelblue;"></circle><circle cx="347.26240485906595" cy="136.23756747692823" r="3" style="fill: steelblue;"></circle><circle cx="409.43131148815155" cy="134.29977670311928" r="3" style="fill: steelblue;"></circle><circle cx="364.45233374834055" cy="75.4359096288681" r="3" style="fill: steelblue;"></circle><circle cx="250.36592334508896" cy="95.22078856825829" r="3" style="fill: steelblue;"></circle><circle cx="324.2214985191822" cy="82.40813873708248" r="3" style="fill: steelblue;"></circle><circle cx="148.83581399917603" cy="90.86731281131506" r="3" style="fill: steelblue;"></circle><circle cx="411.69650852680206" cy="176.89129073987715" r="3" style="fill: steelblue;"></circle><circle cx="153.93482744693756" cy="243.29338055104017" r="3" style="fill: steelblue;"></circle><circle cx="209.8241686820984" cy="127.1454256027937" r="3" style="fill: steelblue;"></circle><circle cx="204.80520129203796" cy="216.68461496010423" r="3" style="fill: steelblue;"></circle><circle cx="109.16908979415894" cy="275.17855651676655" r="3" style="fill: steelblue;"></circle><circle cx="196.97160422801971" cy="194.3883841857314" r="3" style="fill: steelblue;"></circle><circle cx="127.18124985694885" cy="285.40625534951687" r="3" style="fill: steelblue;"></circle><circle cx="193.14700663089752" cy="164.3417115090415" r="3" style="fill: steelblue;"></circle><circle cx="305.12877367436886" cy="160.47505727037787" r="3" style="fill: steelblue;"></circle><circle cx="333.28614458441734" cy="221.77264159545302" r="3" style="fill: steelblue;"></circle><circle cx="251.97748392820355" cy="149.42770027555525" r="3" style="fill: steelblue;"></circle><circle cx="299.4472956983372" cy="58.058175444602966" r="3" style="fill: steelblue;"></circle><circle cx="314.1484212130308" cy="85.95869615674019" r="3" style="fill: steelblue;"></circle><circle cx="291.42582044005394" cy="271.953590400517" r="3" style="fill: steelblue;"></circle><circle cx="433.491575717926" cy="128.10072507709265" r="3" style="fill: steelblue;"></circle><circle cx="469.746333360672" cy="187.79885589610785" r="3" style="fill: steelblue;"></circle><circle cx="371.3211849331856" cy="145.9359873086214" r="3" style="fill: steelblue;"></circle><circle cx="319.8563151061535" cy="133.34203902631998" r="3" style="fill: steelblue;"></circle><circle cx="383.224081993103" cy="66.76472276449203" r="3" style="fill: steelblue;"></circle><circle cx="267.35130697488785" cy="79.87534180283546" r="3" style="fill: steelblue;"></circle><circle cx="354.36214953660965" cy="278.1641289591789" r="3" style="fill: steelblue;"></circle><circle cx="210.19803285598752" cy="246.66397385299206" r="3" style="fill: steelblue;"></circle><circle cx="123.1850266456604" cy="245.3476769849658" r="3" style="fill: steelblue;"></circle><circle cx="191.3768112659454" cy="128.10309482738376" r="3" style="fill: steelblue;"></circle><circle cx="163.24097514152524" cy="34.45168137550354" r="3" style="fill: steelblue;"></circle><circle cx="310.1401023566723" cy="182.66060571186244" r="3" style="fill: steelblue;"></circle><circle cx="121.96372747421265" cy="153.70033560320735" r="3" style="fill: steelblue;"></circle><circle cx="226.76104903221128" cy="275.1432677730918" r="3" style="fill: steelblue;"></circle><circle cx="129.43952679634094" cy="140.38498578593135" r="3" style="fill: steelblue;"></circle><circle cx="243.56480687856674" cy="240.63755869865417" r="3" style="fill: steelblue;"></circle><circle cx="246.72086387872693" cy="275.312820635736" r="3" style="fill: steelblue;"></circle><circle cx="131.06861114501953" cy="184.3218283727765" r="3" style="fill: steelblue;"></circle><circle cx="235.9637662768364" cy="291.3092479109764" r="3" style="fill: steelblue;"></circle><circle cx="329.6842709183693" cy="83.27557165175676" r="3" style="fill: steelblue;"></circle><circle cx="309.23860240727663" cy="152.96305152587593" r="3" style="fill: steelblue;"></circle><circle cx="468.5327589511871" cy="82.07722119987011" r="3" style="fill: steelblue;"></circle><circle cx="389.72330689430237" cy="64.55908827483654" r="3" style="fill: steelblue;"></circle><circle cx="493.9634084701538" cy="64.97415639460087" r="3" style="fill: steelblue;"></circle><circle cx="395.597979426384" cy="157.80610237270594" r="3" style="fill: steelblue;"></circle><circle cx="173.29911589622498" cy="169.16054657194763" r="3" style="fill: steelblue;"></circle><circle cx="151.49112939834592" cy="333.87468308210373" r="3" style="fill: steelblue;"></circle><circle cx="340.6867012381553" cy="244.9564954265952" r="3" style="fill: steelblue;"></circle><circle cx="181.31619393825528" cy="245.52492257207632" r="3" style="fill: steelblue;"></circle><circle cx="165.88471233844757" cy="124.93461156263947" r="3" style="fill: steelblue;"></circle><circle cx="276.4208950102329" cy="229.6257789246738" r="3" style="fill: steelblue;"></circle></g></svg>