<svg xmlns="http://www.w3.org/2000/svg"><g transform="translate(40,20)"><circle cx="343.22940051555634" cy="127.53649966584311" r="3" style="fill: steelblue;"></circle><circle cx="251.3030813634396" cy="187.11837319036323" r="3" style="fill: steelblue;"></circle><circle cx="288.52370023727417" cy="162.99389799435932" r="3" style="fill: steelblue;"></circle><circle cx="251.70079484581947" cy="186.86059593326513" r="3" style="fill: steelblue;"></circle><circle cx="374.33403074741364" cy="107.3760911822319" r="3" style="fill: steelblue;"></circle><circle cx="360.7010507583618" cy="116.21228191587659" r="3" style="fill: steelblue;"></circle><circle cx="356.3981169462204" cy="119.0012204978201" r="3" style="fill: steelblue;"></circle><circle cx="416.9036829471588" cy="79.78464994165631" r="3" style="fill: steelblue;"></circle><circle cx="441.37428045272827" cy="63.92407748434278" r="3" style="fill: steelblue;"></circle><circle cx="421.2056601047516" cy="76.99633141358692" r="3" style="fill: steelblue;"></circle><circle cx="339.11961257457733" cy="130.20025110907022" r="3" style="fill: steelblue;"></circle><circle cx="327.03143298625946" cy="138.03518232372073" r="3" style="fill: steelblue;"></circle><circle cx="310.0942397117615" cy="149.01299277941388" r="3" style="fill: steelblue;"></circle><circle cx="264.8094476759434" cy="178.36424687670336" r="3" style="fill: steelblue;"></circle><circle cx="191.43986642360687" cy="225.91860509581034" r="3" style="fill: steelblue;"></circle><circle cx="338.012325167656" cy="130.91793739133408" r="3" style="fill: steelblue;"></circle><circle cx="310.7788869738579" cy="148.5692399243514" r="3" style="fill: steelblue;"></circle><circle cx="447.04500675201416" cy="60.248606734805655" r="3" style="fill: steelblue;"></circle><circle cx="323.9565843343735" cy="140.02813978327646" r="3" style="fill: steelblue;"></circle><circle cx="348.9989572763443" cy="123.79697213570279" r="3" style="fill: steelblue;"></circle><circle cx="238.84031696710738" cy="195.19609085465265" r="3" style="fill: steelblue;"></circle><circle cx="397.37344622612" cy="92.4431367052926" r="3" style="fill: steelblue;"></circle><circle cx="90.25916397571565" cy="291.49869001573984" r="3" style="fill: steelblue;"></circle><circle cx="279.7004172205925" cy="168.71269254220857" r="3" style="fill: steelblue;"></circle><circle cx="247.10846297442913" cy="189.83710733138855" r="3" style="fill: steelblue;"></circle><circle cx="311.7726096510887" cy="147.92516041133138" r="3" style="fill: steelblue;"></circle><circle cx="165.04606693983078" cy="243.02569735381337" r="3" style="fill: steelblue;"></circle><circle cx="151.32535636425018" cy="251.91875050465262" r="3" style="fill: steelblue;"></circle><circle cx="144.89948093891144" cy="256.0836697618166" r="3" style="fill: steelblue;"></circle><circle cx="389.9244153499604" cy="97.27121227317384" r="3" style="fill: steelblue;"></circle><circle cx="161.32799327373505" cy="245.43555991517172" r="3" style="fill: steelblue;"></circle><circle cx="274.10961851477623" cy="172.33635837005244" r="3" style="fill: steelblue;"></circle><circle cx="143.14688980579376" cy="257.21960845920773" r="3" style="fill: steelblue;"></circle><circle cx="159.64223384857178" cy="246.52818176481458" r="3" style="fill: steelblue;"></circle><circle cx="356.60251021385193" cy="118.86874337991077" r="3" style="fill: steelblue;"></circle><circle cx="276.14678531885147" cy="171.0159724785222" r="3" style="fill: steelblue;"></circle><circle cx="161.9019323587418" cy="245.0635623600748" r="3" style="fill: steelblue;"></circle><circle cx="176.89701855182648" cy="235.34452501270505" r="3" style="fill: steelblue;"></circle><circle cx="177.9669338464737" cy="234.65106139580405" r="3" style="fill: steelblue;"></circle><circle cx="184.59892362356186" cy="230.3525495032469" r="3" style="fill: steelblue;"></circle><circle cx="252.03605979681015" cy="186.64329457614156" r="3" style="fill: steelblue;"></circle><circle cx="154.94513154029846" cy="249.5725999275843" r="3" style="fill: steelblue;"></circle><circle cx="186.47046178579333" cy="229.13951550920802" r="3" style="fill: steelblue;"></circle><circle cx="211.1905047297478" cy="213.11726545294124" r="3" style="fill: steelblue;"></circle><circle cx="213.5958069562912" cy="211.55827326907053" r="3" style="fill: steelblue;"></circle><circle cx="164.1600751876831" cy="243.59995126724243" r="3" style="fill: steelblue;"></circle><circle cx="174.52663868665695" cy="236.8808823327223" r="3" style="fill: steelblue;"></circle><circle cx="122.33207166194917" cy="270.71069429318106" r="3" style="fill: steelblue;"></circle><circle cx="221.66892863810065" cy="206.3256944012311" r="3" style="fill: steelblue;"></circle><circle cx="295.7445198297501" cy="158.3137371473842" r="3" style="fill: steelblue;"></circle><circle cx="229.75528702139854" cy="201.08453618983424" r="3" style="fill: steelblue;"></circle><circle cx="166.36734545230865" cy="242.1693131327629" r="3" style="fill: steelblue;"></circle><circle cx="203.90824913978577" cy="217.83724592791663" r="3" style="fill: steelblue;"></circle><circle cx="92.26162970066072" cy="290.20079556438657" r="3" style="fill: steelblue;"></circle><circle cx="353.8648599386215" cy="120.64314633607864" r="3" style="fill: steelblue;"></circle><circle cx="222.1590006351471" cy="206.00805514388617" r="3" style="fill: steelblue;"></circle><circle cx="159.1118985414505" cy="246.8719176120228" r="3" style="fill: steelblue;"></circle><circle cx="313.64292293787" cy="146.71292031804722" r="3" style="fill: steelblue;"></circle><circle cx="53.94388675689698" cy="315.0363696946038" r="3" style="fill: steelblue;"></circle><circle cx="174.42314118146896" cy="236.94796404904787" r="3" style="fill: steelblue;"></circle><circle cx="328.3302390575409" cy="137.1933635738161" r="3" style="fill: steelblue;"></circle><circle cx="194.69512939453125" cy="223.80871242947046" r="3" style="fill: steelblue;"></circle><circle cx="336.1844891309738" cy="132.10264593362808" r="3" style="fill: steelblue;"></circle><circle cx="406.7135417461395" cy="86.38937109046513" r="3" style="fill: steelblue;"></circle><circle cx="271.9428227841854" cy="173.7407630102502" r="3" style="fill: steelblue;"></circle><circle cx="341.42270028591156" cy="128.7075090739462" r="3" style="fill: steelblue;"></circle><circle cx="225.1875253021717" cy="204.04512248933315" r="3" style="fill: steelblue;"></circle><circle cx="435.93545794487" cy="67.4492402209176" r="3" style="fill: steelblue;"></circle><circle cx="237.73940993472934" cy="195.90964170897172" r="3" style="fill: steelblue;"></circle><circle cx="507.3458218574524" cy="21.164745092391968" r="3" style="fill: steelblue;"></circle><circle cx="290.72832852602005" cy="161.56497225165367" r="3" style="fill: steelblue;"></circle><circle cx="125.53632795810701" cy="268.63386150863437" r="3" style="fill: steelblue;"></circle><circle cx="181.3693606853485" cy="232.44578474097784" r="3" style="fill: steelblue;"></circle><circle cx="218.9043813943863" cy="208.1175305777126" r="3" style="fill: steelblue;"></circle><circle cx="106.0849392414093" cy="281.24124308427173" r="3" style="fill: steelblue;"></circle><circle cx="138.41966629028323" cy="260.2835496266683" r="3" style="fill: steelblue;"></circle><circle cx="311.84597700834274" cy="147.87760749459267" r="3" style="fill: steelblue;"></circle><circle cx="207.0105166733265" cy="215.8265169709921" r="3" style="fill: steelblue;"></circle><circle cx="116.42527520656586" cy="274.53917347722586" r="3" style="fill: steelblue;"></circle><circle cx="266.84712186455727" cy="177.04353212482397" r="3" style="fill: steelblue;"></circle><circle cx="288.39397072792053" cy="163.07798193560706" r="3" style="fill: steelblue;"></circle><circle cx="170.63453882932666" cy="239.40353964765865" r="3" style="fill: steelblue;"></circle><circle cx="221.78335055708885" cy="206.2515320463313" r="3" style="fill: steelblue;"></circle><circle cx="258.46500411629677" cy="182.47638622091876" r="3" style="fill: steelblue;"></circle><circle cx="264.0939259529114" cy="178.8280109564463" r="3" style="fill: steelblue;"></circle><circle cx="222.30727426707745" cy="205.91195186393128" r="3" style="fill: steelblue;"></circle><circle cx="185.3904926776886" cy="229.8394954866833" r="3" style="fill: steelblue;"></circle><circle cx="223.333832770586" cy="205.24658987091647" r="3" style="fill: steelblue;"></circle><circle cx="419.78301644325256" cy="77.91841526826221" r="3" style="fill: steelblue;"></circle><circle cx="432.0711278915405" cy="69.95389858881634" r="3" style="fill: steelblue;"></circle><circle cx="358.03771555423737" cy="117.93851769632762" r="3" style="fill: steelblue;"></circle><circle cx="275.2745018899441" cy="171.58134136762885" r="3" style="fill: steelblue;"></circle><circle cx="208.4139423072338" cy="214.91688924531138" r="3" style="fill: steelblue;"></circle><circle cx="332.9082155227661" cy="134.22615660561456" r="3" style="fill: steelblue;"></circle><circle cx="186.02605104446414" cy="229.42755950821768" r="3" style="fill: steelblue;"></circle><circle cx="99.21608805656435" cy="285.6932762596342" r="3" style="fill: steelblue;"></circle><circle cx="159.7312027215958" cy="246.47051675452124" r="3" style="fill: steelblue;"></circle><circle cx="145.86615800857544" cy="255.45711980925665" r="3" style="fill: steelblue;"></circle><circle cx="129.04109001159668" cy="266.3622564739651" r="3" style="fill: steelblue;"></circle><circle cx="334.11360919475555" cy="133.4448829293251" r="3" style="fill: steelblue;"></circle><circle cx="168.29451262950897" cy="240.92022329568863" r="3" style="fill: steelblue;"></circle><circle cx="222.83563256263733" cy="205.5694974131054" r="3" style="fill: steelblue;"></circle><circle cx="239.32661019265652" cy="194.880900801056" r="3" style="fill: steelblue;"></circle><circle cx="228.4112946689129" cy="201.95564234422312" r="3" style="fill: steelblue;"></circle><circle cx="78.23230862617494" cy="299.29387403859033" r="3" style="fill: steelblue;"></circle><circle cx="166.78236812353134" cy="241.9003169569704" r="3" style="fill: steelblue;"></circle><circle cx="292.28862315416336" cy="160.5536701778571" r="3" style="fill: steelblue;"></circle><circle cx="277.0525047183037" cy="170.4289321270254" r="3" style="fill: steelblue;"></circle><circle cx="198.99208188056946" cy="221.02365063296423" r="3" style="fill: steelblue;"></circle><circle cx="368.00439298152924" cy="111.47863417863846" r="3" style="fill: steelblue;"></circle><circle cx="373.29669535160065" cy="108.0484381980366" r="3" style="fill: steelblue;"></circle><circle cx="225.29094681143764" cy="203.9780900296238" r="3" style="fill: steelblue;"></circle><circle cx="67.07161903381349" cy="306.5276543299357" r="3" style="fill: steelblue;"></circle><circle cx="200.18587052822113" cy="220.24989873170853" r="3" style="fill: steelblue;"></circle><circle cx="140.60577392578128" cy="258.8666280110677" r="3" style="fill: steelblue;"></circle><circle cx="198.5608273744583" cy="221.30316744248069" r="3" style="fill: steelblue;"></circle><circle cx="219.623868316412" cy="207.65119646158485" r="3" style="fill: steelblue;"></circle><circle cx="194.13314849138263" cy="224.1729593111409" r="3" style="fill: steelblue;"></circle></g></svg>