<svg xmlns="http://www.w3.org/2000/svg"><g transform="translate(40,20)"><circle cx="343.22940051555634" cy="100.57273838255139" r="3" style="fill: steelblue;"></circle><circle cx="251.3030813634396" cy="217.52793755796222" r="3" style="fill: steelblue;"></circle><circle cx="288.52370023727417" cy="92.34864513079327" r="3" style="fill: steelblue;"></circle><circle cx="251.70079484581947" cy="114.65352442529468" r="3" style="fill: steelblue;"></circle><circle cx="374.33403074741364" cy="145.5971971154213" r="3" style="fill: steelblue;"></circle><circle cx="360.7010507583618" cy="173.80875017907886" r="3" style="fill: steelblue;"></circle><circle cx="356.3981169462204" cy="63.72426946957905" r="3" style="fill: steelblue;"></circle><circle cx="416.9036829471588" cy="128.52328353457978" r="3" style="fill: steelblue;"></circle><circle cx="441.37428045272827" cy="107.48927709129123" r="3" style="fill: steelblue;"></circle><circle cx="421.2056601047516" cy="59.019555648167916" r="3" style="fill: steelblue;"></circle><circle cx="339.11961257457733" cy="108.99385230408774" r="3" style="fill: steelblue;"></circle><circle cx="327.03143298625946" cy="133.23806309037735" r="3" style="fill: steelblue;"></circle><circle cx="310.0942397117615" cy="147.7335782514678" r="3" style="fill: steelblue;"></circle><circle cx="264.8094476759434" cy="149.6209179361661" r="3" style="fill: steelblue;"></circle><circle cx="191.43986642360687" cy="166.61081711451214" r="3" style="fill: steelblue;"></circle><circle cx="338.012325167656" cy="166.21617890066568" r="3" style="fill: steelblue;"></circle><circle cx="310.7788869738579" cy="51.21135049396093" r="3" style="fill: steelblue;"></circle><circle cx="447.04500675201416" cy="71.60380979379016" r="3" style="fill: steelblue;"></circle><circle cx="323.9565843343735" cy="147.77584332558843" r="3" style="fill: steelblue;"></circle><circle cx="348.9989572763443" cy="112.13869601488113" r="3" style="fill: steelblue;"></circle><circle cx="238.84031696710738" cy="162.7905290159914" r="3" style="fill: steelblue;"></circle><circle cx="397.37344622612" cy="178.20035852491856" r="3" style="fill: steelblue;"></circle><circle cx="90.25916397571565" cy="174.39653082854215" r="3" style="fill: steelblue;"></circle><circle cx="279.7004172205925" cy="47.04527225759295" r="3" style="fill: steelblue;"></circle><circle cx="247.10846297442913" cy="206.48097008880643" r="3" style="fill: steelblue;"></circle><circle cx="311.7726096510887" cy="177.4975593305296" r="3" style="fill: steelblue;"></circle><circle cx="165.04606693983078" cy="195.74604554670964" r="3" style="fill: steelblue;"></circle><circle cx="151.32535636425018" cy="201.16986096319226" r="3" style="fill: steelblue;"></circle><circle cx="144.89948093891144" cy="193.57060898457553" r="3" style="fill: steelblue;"></circle><circle cx="389.9244153499604" cy="194.6873315804017" r="3" style="fill: steelblue;"></circle><circle cx="161.32799327373505" cy="243.25307458639145" r="3" style="fill: steelblue;"></circle><circle cx="274.10961851477623" cy="197.42711002214088" r="3" style="fill: steelblue;"></circle><circle cx="143.14688980579376" cy="217.13455683655206" r="3" style="fill: steelblue;"></circle><circle cx="159.64223384857178" cy="207.2813676463233" r="3" style="fill: steelblue;"></circle><circle cx="356.60251021385193" cy="189.68858161113326" r="3" style="fill: steelblue;"></circle><circle cx="276.14678531885147" cy="234.49025013380583" r="3" style="fill: steelblue;"></circle><circle cx="161.9019323587418" cy="293.20604602495825" r="3" style="fill: steelblue;"></circle><circle cx="176.89701855182648" cy="161.07378527522087" r="3" style="fill: steelblue;"></circle><circle cx="177.9669338464737" cy="196.69756430408194" r="3" style="fill: steelblue;"></circle><circle cx="184.59892362356186" cy="155.86173989706566" r="3" style="fill: steelblue;"></circle><circle cx="252.03605979681015" cy="170.58752394384805" r="3" style="fill: steelblue;"></circle><circle cx="154.94513154029846" cy="183.06485936045647" r="3" style="fill: steelblue;"></circle><circle cx="186.47046178579333" cy="325.7101741102007" r="3" style="fill: steelblue;"></circle><circle cx="211.1905047297478" cy="138.83378853400546" r="3" style="fill: steelblue;"></circle><circle cx="213.5958069562912" cy="279.68243923452167" r="3" style="fill: steelblue;"></circle><circle cx="164.1600751876831" cy="263.07889156871374" r="3" style="fill: steelblue;"></circle><circle cx="174.52663868665695" cy="282.7793185909589" r="3" style="fill: steelblue;"></circle><circle cx="122.33207166194917" cy="195.9702932638013" r="3" style="fill: steelblue;"></circle><circle cx="221.66892863810065" cy="148.07419644461737" r="3" style="fill: steelblue;"></circle><circle cx="295.7445198297501" cy="203.48547895749408" r="3" style="fill: steelblue;"></circle><circle cx="229.75528702139854" cy="150.11168188518945" r="3" style="fill: steelblue;"></circle><circle cx="166.36734545230865" cy="129.09024457136792" r="3" style="fill: steelblue;"></circle><circle cx="203.90824913978577" cy="247.53954178757135" r="3" style="fill: steelblue;"></circle><circle cx="92.26162970066072" cy="243.36143334706622" r="3" style="fill: steelblue;"></circle><circle cx="353.8648599386215" cy="220.0701700316535" r="3" style="fill: steelblue;"></circle><circle cx="222.1590006351471" cy="250.03612207041846" r="3" style="fill: steelblue;"></circle><circle cx="159.1118985414505" cy="231.4250253968769" r="3" style="fill: steelblue;"></circle><circle cx="313.64292293787" cy="237.3168642322222" r="3" style="fill: steelblue;"></circle><circle cx="53.94388675689698" cy="218.3120652205414" r="3" style="fill: steelblue;"></circle><circle cx="174.42314118146896" cy="234.9625370568699" r="3" style="fill: steelblue;"></circle><circle cx="328.3302390575409" cy="93.69528624746533" r="3" style="fill: steelblue;"></circle><circle cx="194.69512939453125" cy="167.96885679165524" r="3" style="fill: steelblue;"></circle><circle cx="336.1844891309738" cy="194.93720948877228" r="3" style="fill: steelblue;"></circle><circle cx="406.7135417461395" cy="84.09945997926923" r="3" style="fill: steelblue;"></circle><circle cx="271.9428227841854" cy="135.1750534441736" r="3" style="fill: steelblue;"></circle><circle cx="341.42270028591156" cy="153.43313374453118" r="3" style="fill: steelblue;"></circle><circle cx="225.1875253021717" cy="155.80684484706984" r="3" style="fill: steelblue;"></circle><circle cx="435.93545794487" cy="82.83927871121301" r="3" style="fill: steelblue;"></circle><circle cx="237.73940993472934" cy="123.78569526804819" r="3" style="fill: steelblue;"></circle><circle cx="507.3458218574524" cy="112.27053569422827" r="3" style="fill: steelblue;"></circle><circle cx="290.72832852602005" cy="211.7414137141572" r="3" style="fill: steelblue;"></circle><circle cx="125.53632795810701" cy="169.90170379479724" r="3" style="fill: steelblue;"></circle><circle cx="181.3693606853485" cy="180.08553961084948" r="3" style="fill: steelblue;"></circle><circle cx="218.9043813943863" cy="276.0041000114547" r="3" style="fill: steelblue;"></circle><circle cx="106.0849392414093" cy="226.1620197031233" r="3" style="fill: steelblue;"></circle><circle cx="138.41966629028323" cy="204.92781771139965" r="3" style="fill: steelblue;"></circle><circle cx="311.84597700834274" cy="235.3046097689205" r="3" style="fill: steelblue;"></circle><circle cx="207.0105166733265" cy="270.0146229730712" r="3" style="fill: steelblue;"></circle><circle cx="116.42527520656586" cy="304.1523959901598" r="3" style="fill: steelblue;"></circle><circle cx="266.84712186455727" cy="120.46103593375949" r="3" style="fill: steelblue;"></circle><circle cx="288.39397072792053" cy="281.07166124714746" r="3" style="fill: steelblue;"></circle><circle cx="170.63453882932666" cy="204.36359910915291" r="3" style="fill: steelblue;"></circle><circle cx="221.78335055708885" cy="294.6212755309211" r="3" style="fill: steelblue;"></circle><circle cx="258.46500411629677" cy="172.76797381540138" r="3" style="fill: steelblue;"></circle><circle cx="264.0939259529114" cy="140.58945659134122" r="3" style="fill: steelblue;"></circle><circle cx="222.30727426707745" cy="230.9004192550977" r="3" style="fill: steelblue;"></circle><circle cx="185.3904926776886" cy="246.39991174141562" r="3" style="fill: steelblue;"></circle><circle cx="223.333832770586" cy="188.9741679963966" r="3" style="fill: steelblue;"></circle><circle cx="419.78301644325256" cy="175.42522193657027" r="3" style="fill: steelblue;"></circle><circle cx="432.0711278915405" cy="280.6608842478858" r="3" style="fill: steelblue;"></circle><circle cx="358.03771555423737" cy="167.17675245470468" r="3" style="fill: steelblue;"></circle><circle cx="275.2745018899441" cy="115.14619489510852" r="3" style="fill: steelblue;"></circle><circle cx="208.4139423072338" cy="205.2722221447362" r="3" style="fill: steelblue;"></circle><circle cx="332.9082155227661" cy="122.61077430513171" r="3" style="fill: steelblue;"></circle><circle cx="186.02605104446414" cy="173.64737826089066" r="3" style="fill: steelblue;"></circle><circle cx="99.21608805656435" cy="220.12851304478113" r="3" style="fill: steelblue;"></circle><circle cx="159.7312027215958" cy="234.63439817229903" r="3" style="fill: steelblue;"></circle><circle cx="145.86615800857544" cy="196.55806105583906" r="3" style="fill: steelblue;"></circle><circle cx="129.04109001159668" cy="238.37213218212128" r="3" style="fill: steelblue;"></circle><circle cx="334.11360919475555" cy="229.358101884524" r="3" style="fill: steelblue;"></circle><circle cx="168.29451262950897" cy="136.51645017994775" r="3" style="fill: steelblue;"></circle><circle cx="222.83563256263733" cy="243.15997958183289" r="3" style="fill: steelblue;"></circle><circle cx="239.32661019265652" cy="148.06302967998715" r="3" style="fill: steelblue;"></circle><circle cx="228.4112946689129" cy="101.76606973012287" r="3" style="fill: steelblue;"></circle><circle cx="78.23230862617494" cy="191.28584039087093" r="3" style="fill: steelblue;"></circle><circle cx="166.78236812353134" cy="324.15672474437287" r="3" style="fill: steelblue;"></circle><circle cx="292.28862315416336" cy="62.73159219159021" r="3" style="fill: steelblue;"></circle><circle cx="277.0525047183037" cy="113.90452252493964" r="3" style="fill: steelblue;"></circle><circle cx="198.99208188056946" cy="127.18744989898471" r="3" style="fill: steelblue;"></circle><circle cx="368.00439298152924" cy="17.11835463841755" r="3" style="fill: steelblue;"></circle><circle cx="373.29669535160065" cy="152.215049498611" r="3" style="fill: steelblue;"></circle><circle cx="225.29094681143764" cy="84.75835124651593" r="3" style="fill: steelblue;"></circle><circle cx="67.07161903381349" cy="190.94006510244475" r="3" style="fill: steelblue;"></circle><circle cx="200.18587052822113" cy="273.93736773067053" r="3" style="fill: steelblue;"></circle><circle cx="140.60577392578128" cy="206.22110522041714" r="3" style="fill: steelblue;"></circle><circle cx="198.5608273744583" cy="211.12256228095953" r="3" style="fill: steelblue;"></circle><circle cx="219.623868316412" cy="278.2252488864793" r="3" style="fill: steelblue;"></circle><circle cx="194.13314849138263" cy="331.465525759591" r="3" style="fill: steelblue;"></circle></g></svg>