<svg xmlns="http://www.w3.org/2000/svg"><g transform="translate(40,20)"><circle cx="347.1727055311203" cy="193.98484374396503" r="3" style="fill: steelblue;"></circle><circle cx="61.64798185229303" cy="66.89155492931604" r="3" style="fill: steelblue;"></circle><circle cx="329.902099147439" cy="19.662470743060112" r="3" style="fill: steelblue;"></circle><circle cx="416.02401182055473" cy="101.01711302995682" r="3" style="fill: steelblue;"></circle><circle cx="465.0138285756111" cy="249.2130558937788" r="3" style="fill: steelblue;"></circle><circle cx="464.8269456624985" cy="7.954848185181618" r="3" style="fill: steelblue;"></circle><circle cx="393.9487040787935" cy="127.18215836212039" r="3" style="fill: steelblue;"></circle><circle cx="261.058528306894" cy="120.4800090752542" r="3" style="fill: steelblue;"></circle><circle cx="383.5574910789728" cy="91.02918598800898" r="3" style="fill: steelblue;"></circle><circle cx="154.25846323370934" cy="172.37603653920814" r="3" style="fill: steelblue;"></circle><circle cx="455.4861192405224" cy="280.02192191779613" r="3" style="fill: steelblue;"></circle><circle cx="298.7077199667692" cy="231.92556779831648" r="3" style="fill: steelblue;"></circle><circle cx="341.14794440567493" cy="53.60635668039322" r="3" style="fill: steelblue;"></circle><circle cx="271.39689146890305" cy="181.07307715108618" r="3" style="fill: steelblue;"></circle><circle cx="231.99628841131926" cy="92.57589299231768" r="3" style="fill: steelblue;"></circle><circle cx="412.32151731848717" cy="44.105855002999306" r="3" style="fill: steelblue;"></circle><circle cx="461.1041736602783" cy="294.5753701031208" r="3" style="fill: steelblue;"></circle><circle cx="433.55835646390915" cy="20.028279349207878" r="3" style="fill: steelblue;"></circle><circle cx="384.36290815472603" cy="107.12413229048252" r="3" style="fill: steelblue;"></circle><circle cx="309.733655937016" cy="173.04240392404608" r="3" style="fill: steelblue;"></circle><circle cx="443.24637472629547" cy="53.304606303572655" r="3" style="fill: steelblue;"></circle><circle cx="424.13267835974693" cy="245.493851788342" r="3" style="fill: steelblue;"></circle><circle cx="360.3059273958206" cy="212.58255764842033" r="3" style="fill: steelblue;"></circle><circle cx="227.72417820990086" cy="113.21847159415483" r="3" style="fill: steelblue;"></circle><circle cx="229.6264511346817" cy="188.76611576415598" r="3" style="fill: steelblue;"></circle><circle cx="378.5890609771013" cy="288.0853835493326" r="3" style="fill: steelblue;"></circle><circle cx="95.6636291742325" cy="154.484299197793" r="3" style="fill: steelblue;"></circle><circle cx="476.64911046624184" cy="121.64617720991373" r="3" style="fill: steelblue;"></circle><circle cx="345.3360377624631" cy="78.30156031996012" r="3" style="fill: steelblue;"></circle><circle cx="247.54241209477186" cy="205.1846112124622" r="3" style="fill: steelblue;"></circle><circle cx="386.9627331197262" cy="167.3594230785966" r="3" style="fill: steelblue;"></circle><circle cx="269.19005072442815" cy="216.98804404586554" r="3" style="fill: steelblue;"></circle><circle cx="112.70778335630895" cy="246.06720097362995" r="3" style="fill: steelblue;"></circle><circle cx="401.7235663533211" cy="236.89283169806004" r="3" style="fill: steelblue;"></circle><circle cx="134.8287154734135" cy="186.06360624544322" r="3" style="fill: steelblue;"></circle><circle cx="118.51997271180154" cy="138.60267279669642" r="3" style="fill: steelblue;"></circle><circle cx="137.17635914683342" cy="215.96323950216174" r="3" style="fill: steelblue;"></circle><circle cx="267.3632946086582" cy="194.82243149541318" r="3" style="fill: steelblue;"></circle><circle cx="223.48613038659096" cy="211.72801982611418" r="3" style="fill: steelblue;"></circle><circle cx="373.02268601953983" cy="179.71827876754105" r="3" style="fill: steelblue;"></circle><circle cx="294.95688535273075" cy="310.32159477472305" r="3" style="fill: steelblue;"></circle><circle cx="129.57767777144912" cy="314.37104493379593" r="3" style="fill: steelblue;"></circle><circle cx="359.9477116763592" cy="171.5020774397999" r="3" style="fill: steelblue;"></circle><circle cx="142.41356670856476" cy="229.22593653202057" r="3" style="fill: steelblue;"></circle><circle cx="296.01417945697904" cy="144.54307286068797" r="3" style="fill: steelblue;"></circle><circle cx="265.35026913508773" cy="194.8210934177041" r="3" style="fill: steelblue;"></circle><circle cx="263.47751727327704" cy="138.01329927518964" r="3" style="fill: steelblue;"></circle><circle cx="237.02888030558825" cy="185.5108937714249" r="3" style="fill: steelblue;"></circle><circle cx="144.18146096169949" cy="147.93372428976" r="3" style="fill: steelblue;"></circle><circle cx="267.60402124375105" cy="227.77129774913192" r="3" style="fill: steelblue;"></circle><circle cx="373.1999632716179" cy="223.2637328095734" r="3" style="fill: steelblue;"></circle><circle cx="121.06188207864763" cy="91.6456013917923" r="3" style="fill: steelblue;"></circle><circle cx="124.65158298611642" cy="206.17431281134486" r="3" style="fill: steelblue;"></circle><circle cx="278.6908594937995" cy="252.15569250285625" r="3" style="fill: steelblue;"></circle><circle cx="269.77134004438994" cy="159.74122839979827" r="3" style="fill: steelblue;"></circle><circle cx="233.34184790030122" cy="273.84246718138456" r="3" style="fill: steelblue;"></circle><circle cx="117.38326594233514" cy="134.97490780428052" r="3" style="fill: steelblue;"></circle><circle cx="203.20631179958582" cy="191.87663793563843" r="3" style="fill: steelblue;"></circle><circle cx="82.52968311309816" cy="225.66147027537227" r="3" style="fill: steelblue;"></circle><circle cx="436.58383794128895" cy="195.21900448016822" r="3" style="fill: steelblue;"></circle><circle cx="349.21154983341694" cy="85.99888738244772" r="3" style="fill: steelblue;"></circle><circle cx="298.59435053542256" cy="157.80493053607643" r="3" style="fill: steelblue;"></circle><circle cx="313.9291924238205" cy="61.58023066818714" r="3" style="fill: steelblue;"></circle><circle cx="219.7784860432148" cy="59.191861376166344" r="3" style="fill: steelblue;"></circle><circle cx="406.83855570852757" cy="71.0803933441639" r="3" style="fill: steelblue;"></circle><circle cx="411.03494212031364" cy="60.58164983987808" r="3" style="fill: steelblue;"></circle><circle cx="182.86001801490784" cy="247.4229197949171" r="3" style="fill: steelblue;"></circle><circle cx="510.032534301281" cy="61.5987453609705" r="3" style="fill: steelblue;"></circle><circle cx="380.8320079743862" cy="191.93930104374886" r="3" style="fill: steelblue;"></circle><circle cx="416.69336043298244" cy="185.87502937298268" r="3" style="fill: steelblue;"></circle><circle cx="154.8556436598301" cy="126.42189878970385" r="3" style="fill: steelblue;"></circle><circle cx="160.97521416842937" cy="301.6103535890579" r="3" style="fill: steelblue;"></circle><circle cx="297.0603943616152" cy="171.76672264467925" r="3" style="fill: steelblue;"></circle><circle cx="165.80577537417412" cy="225.21257046610117" r="3" style="fill: steelblue;"></circle><circle cx="19.203895032405867" cy="261.6726031526923" r="3" style="fill: steelblue;"></circle><circle cx="219.69670716673136" cy="213.4124657139182" r="3" style="fill: steelblue;"></circle><circle cx="26.273158639669433" cy="268.31854339689016" r="3" style="fill: steelblue;"></circle><circle cx="277.0085800951347" cy="234.1570120304823" r="3" style="fill: steelblue;"></circle><circle cx="143.37931282818317" cy="288.1880749017" r="3" style="fill: steelblue;"></circle><circle cx="197.17290557920933" cy="263.4941490367055" r="3" style="fill: steelblue;"></circle><circle cx="95.69794803857805" cy="154.74079614505172" r="3" style="fill: steelblue;"></circle><circle cx="174.95912544429302" cy="199.91243020631373" r="3" style="fill: steelblue;"></circle><circle cx="429.20524187386036" cy="260.75794473290443" r="3" style="fill: steelblue;"></circle><circle cx="134.09174501895907" cy="183.3922432968393" r="3" style="fill: steelblue;"></circle><circle cx="368.9611007273197" cy="180.97088370705023" r="3" style="fill: steelblue;"></circle><circle cx="429.93648916482925" cy="97.95258585363626" r="3" style="fill: steelblue;"></circle><circle cx="266.8655316741206" cy="116.72996561974287" r="3" style="fill: steelblue;"></circle><circle cx="283.8357263524085" cy="167.7100467029959" r="3" style="fill: steelblue;"></circle><circle cx="428.39068181812763" cy="112.00085021555424" r="3" style="fill: steelblue;"></circle><circle cx="367.9464713484049" cy="144.36619887128472" r="3" style="fill: steelblue;"></circle><circle cx="485.51299318671227" cy="142.4739157781005" r="3" style="fill: steelblue;"></circle><circle cx="426.23583532869816" cy="125.81352815032005" r="3" style="fill: steelblue;"></circle><circle cx="395.83823315799236" cy="279.8246491700411" r="3" style="fill: steelblue;"></circle><circle cx="517.02038615942" cy="46.95800431072712" r="3" style="fill: steelblue;"></circle><circle cx="352.75813590735197" cy="286.20778508484364" r="3" style="fill: steelblue;"></circle><circle cx="299.2975905351341" cy="185.38631971459836" r="3" style="fill: steelblue;"></circle><circle cx="60.350121259689345" cy="105.87471649050713" r="3" style="fill: steelblue;"></circle><circle cx="224.8344785347581" cy="97.33635298907757" r="3" style="fill: steelblue;"></circle><circle cx="249.56730932928622" cy="188.78705073148012" r="3" style="fill: steelblue;"></circle><circle cx="218.3959548175335" cy="234.91550162434578" r="3" style="fill: steelblue;"></circle><circle cx="375.7333532720804" cy="157.2408827021718" r="3" style="fill: steelblue;"></circle><circle cx="187.0622231438756" cy="221.99824703857303" r="3" style="fill: steelblue;"></circle><circle cx="295.0659297220409" cy="316.28846302628517" r="3" style="fill: steelblue;"></circle><circle cx="201.82692881673574" cy="270.29641456902027" r="3" style="fill: steelblue;"></circle><circle cx="309.65510576963425" cy="138.89902848750353" r="3" style="fill: steelblue;"></circle><circle cx="219.75763019174337" cy="311.2788174301386" r="3" style="fill: steelblue;"></circle><circle cx="385.6417988240719" cy="120.81200880929828" r="3" style="fill: steelblue;"></circle><circle cx="237.07079065963626" cy="16.32583625614643" r="3" style="fill: steelblue;"></circle><circle cx="233.88697419315577" cy="174.85659590674913" r="3" style="fill: steelblue;"></circle><circle cx="463.33942607045174" cy="142.7800014615059" r="3" style="fill: steelblue;"></circle><circle cx="259.7824080660939" cy="72.39442151039839" r="3" style="fill: steelblue;"></circle><circle cx="441.4650325477123" cy="162.19020967837423" r="3" style="fill: steelblue;"></circle><circle cx="125.19359372556211" cy="211.4124388433993" r="3" style="fill: steelblue;"></circle><circle cx="82.06651926040651" cy="147.65153983607888" r="3" style="fill: steelblue;"></circle><circle cx="128.6347840726376" cy="265.6403409317136" r="3" style="fill: steelblue;"></circle><circle cx="204.33528374880552" cy="330.5458065122366" r="3" style="fill: steelblue;"></circle><circle cx="320.71462634950876" cy="163.63562534097582" r="3" style="fill: steelblue;"></circle><circle cx="152.1683418005705" cy="196.00132685154676" r="3" style="fill: steelblue;"></circle></g></svg>