<svg xmlns="http://www.w3.org/2000/svg"><g transform="translate(40,20)"><circle cx="386.991650685668" cy="170.77573057678012" r="3" style="fill: steelblue;"></circle><circle cx="494.49186220765114" cy="136.19120584593878" r="3" style="fill: steelblue;"></circle><circle cx="342.7561080828309" cy="247.0642386211289" r="3" style="fill: steelblue;"></circle><circle cx="475.7091034948826" cy="196.0672674079736" r="3" style="fill: steelblue;"></circle><circle cx="454.6426919102669" cy="127.93587230973772" r="3" style="fill: steelblue;"></circle><circle cx="401.35393448174" cy="132.44558788008158" r="3" style="fill: steelblue;"></circle><circle cx="270.65021194168366" cy="120.11376519997913" r="3" style="fill: steelblue;"></circle><circle cx="478.8225647807121" cy="211.0611798448695" r="3" style="fill: steelblue;"></circle><circle cx="279.0972437057644" cy="146.66716961397066" r="3" style="fill: steelblue;"></circle><circle cx="136.50049276649952" cy="38.18482988410528" r="3" style="fill: steelblue;"></circle><circle cx="538.1612491607666" cy="57.844652069939514" r="3" style="fill: steelblue;"></circle><circle cx="292.70386749878526" cy="193.19117648733987" r="3" style="fill: steelblue;"></circle><circle cx="272.7722522383556" cy="185.44275799973144" r="3" style="fill: steelblue;"></circle><circle cx="225.88785242289305" cy="75.33911863962811" r="3" style="fill: steelblue;"></circle><circle cx="429.94357019662857" cy="216.2575963884592" r="3" style="fill: steelblue;"></circle><circle cx="484.2702117562294" cy="105.48262049754459" r="3" style="fill: steelblue;"></circle><circle cx="349.74720373749733" cy="87.56806453069049" r="3" style="fill: steelblue;"></circle><circle cx="228.14539147540927" cy="114.5409991343816" r="3" style="fill: steelblue;"></circle><circle cx="337.95233711600304" cy="75.24693343374463" r="3" style="fill: steelblue;"></circle><circle cx="354.96560230851173" cy="95.44542597399817" r="3" style="fill: steelblue;"></circle><circle cx="258.36963661015034" cy="146.51228942804863" r="3" style="fill: steelblue;"></circle><circle cx="417.9818567633629" cy="166.34701896044942" r="3" style="fill: steelblue;"></circle><circle cx="244.15131200104952" cy="67.08652608924443" r="3" style="fill: steelblue;"></circle><circle cx="249.86834370531142" cy="244.69919668303595" r="3" style="fill: steelblue;"></circle><circle cx="364.75250355899334" cy="205.57497358984415" r="3" style="fill: steelblue;"></circle><circle cx="337.29028578847647" cy="185.55502179596158" r="3" style="fill: steelblue;"></circle><circle cx="370.1686681061983" cy="172.5659767786662" r="3" style="fill: steelblue;"></circle><circle cx="347.5632033124566" cy="202.82888102034724" r="3" style="fill: steelblue;"></circle><circle cx="353.89583341777325" cy="119.8093593120575" r="3" style="fill: steelblue;"></circle><circle cx="116.37053757905962" cy="177.6068699028757" r="3" style="fill: steelblue;"></circle><circle cx="291.53685009106994" cy="163.04017023907767" r="3" style="fill: steelblue;"></circle><circle cx="214.26398668438196" cy="257.2153550055292" r="3" style="fill: steelblue;"></circle><circle cx="228.27251812443137" cy="187.88268882781267" r="3" style="fill: steelblue;"></circle><circle cx="378.4529221057892" cy="133.25993882285223" r="3" style="fill: steelblue;"></circle><circle cx="472.65810415148735" cy="219.33407626218263" r="3" style="fill: steelblue;"></circle><circle cx="198.16032227128744" cy="206.0449737020665" r="3" style="fill: steelblue;"></circle><circle cx="270.2085987282044" cy="238.07767323321764" r="3" style="fill: steelblue;"></circle><circle cx="266.0777326254174" cy="125.68930122587415" r="3" style="fill: steelblue;"></circle><circle cx="293.9262381568551" cy="188.21196423636542" r="3" style="fill: steelblue;"></circle><circle cx="182.86394074559212" cy="295.41240632534027" r="3" style="fill: steelblue;"></circle><circle cx="74.3202929198742" cy="211.179967969656" r="3" style="fill: steelblue;"></circle><circle cx="151.4085491001606" cy="308.009652627839" r="3" style="fill: steelblue;"></circle><circle cx="192.6984679698944" cy="194.11640439001428" r="3" style="fill: steelblue;"></circle><circle cx="199.41985074430704" cy="334.65508288807337" r="3" style="fill: steelblue;"></circle><circle cx="223.88676188886166" cy="310.1343280739254" r="3" style="fill: steelblue;"></circle><circle cx="250.24692619219422" cy="258.18164232704373" r="3" style="fill: steelblue;"></circle><circle cx="146.7713986337185" cy="273.0198792285389" r="3" style="fill: steelblue;"></circle><circle cx="218.1298729777336" cy="152.43754453129236" r="3" style="fill: steelblue;"></circle><circle cx="196.59268844872713" cy="289.1444381740358" r="3" style="fill: steelblue;"></circle><circle cx="193.7070020288229" cy="202.66431683881416" r="3" style="fill: steelblue;"></circle><circle cx="217.34758995473385" cy="184.63848510550127" r="3" style="fill: steelblue;"></circle><circle cx="169.5597381144762" cy="286.4228594634268" r="3" style="fill: steelblue;"></circle><circle cx="196.3265261426568" cy="190.83523000073103" r="3" style="fill: steelblue;"></circle><circle cx="151.79683908820152" cy="204.1647776754366" r="3" style="fill: steelblue;"></circle><circle cx="28.61195102334024" cy="276.96396658817923" r="3" style="fill: steelblue;"></circle><circle cx="170.62233544886112" cy="161.40600376658966" r="3" style="fill: steelblue;"></circle><circle cx="345.09551402181387" cy="265.3685187300046" r="3" style="fill: steelblue;"></circle><circle cx="286.30307491868734" cy="250.9352291623751" r="3" style="fill: steelblue;"></circle><circle cx="112.44681112468244" cy="271.54702527655496" r="3" style="fill: steelblue;"></circle><circle cx="206.50565519928932" cy="148.7132575776842" r="3" style="fill: steelblue;"></circle><circle cx="392.9131333529949" cy="90.61915841367511" r="3" style="fill: steelblue;"></circle><circle cx="376.244545429945" cy="91.5810184346305" r="3" style="fill: steelblue;"></circle><circle cx="412.3719897866249" cy="140.57330621613397" r="3" style="fill: steelblue;"></circle><circle cx="369.75328110158443" cy="176.43594886693688" r="3" style="fill: steelblue;"></circle><circle cx="147.9531665146351" cy="130.10330249865848" r="3" style="fill: steelblue;"></circle><circle cx="466.59609720110893" cy="181.53521397875414" r="3" style="fill: steelblue;"></circle><circle cx="293.26594199985266" cy="201.28581755691107" r="3" style="fill: steelblue;"></circle><circle cx="364.95997577905655" cy="119.5107599099477" r="3" style="fill: steelblue;"></circle><circle cx="421.7714962363243" cy="263.20448435015146" r="3" style="fill: steelblue;"></circle><circle cx="468.54820892214775" cy="209.24909123116072" r="3" style="fill: steelblue;"></circle><circle cx="116.81319259107114" cy="118.3987135688464" r="3" style="fill: steelblue;"></circle><circle cx="257.4484813772142" cy="219.2349255912834" r="3" style="fill: steelblue;"></circle><circle cx="119.29621070623399" cy="283.35509945948917" r="3" style="fill: steelblue;"></circle><circle cx="213.3423813432455" cy="229.83343982034262" r="3" style="fill: steelblue;"></circle><circle cx="317.85836040973663" cy="196.81055463540054" r="3" style="fill: steelblue;"></circle><circle cx="329.48246754705906" cy="311.09172602494556" r="3" style="fill: steelblue;"></circle><circle cx="110.82956984639169" cy="219.5129618048668" r="3" style="fill: steelblue;"></circle><circle cx="137.4173355102539" cy="265.78963382376566" r="3" style="fill: steelblue;"></circle><circle cx="107.26451173424722" cy="263.27945291996" r="3" style="fill: steelblue;"></circle><circle cx="118.24513010680677" cy="228.1118950082196" r="3" style="fill: steelblue;"></circle><circle cx="174.88282330334187" cy="301.79522931575775" r="3" style="fill: steelblue;"></circle><circle cx="168.45718927681446" cy="216.570825005571" r="3" style="fill: steelblue;"></circle><circle cx="364.5453029125929" cy="304.80164455042944" r="3" style="fill: steelblue;"></circle><circle cx="384.63628225028515" cy="237.4159801337454" r="3" style="fill: steelblue;"></circle><circle cx="243.91848787665367" cy="203.24179706060227" r="3" style="fill: steelblue;"></circle><circle cx="351.0668908059597" cy="190.11933760096628" r="3" style="fill: steelblue;"></circle><circle cx="201.03320952504873" cy="116.55950629048876" r="3" style="fill: steelblue;"></circle><circle cx="183.2802028208971" cy="242.36463589800726" r="3" style="fill: steelblue;"></circle><circle cx="482.0489001274109" cy="203.9116399569644" r="3" style="fill: steelblue;"></circle><circle cx="247.44977781549096" cy="201.99160329583617" r="3" style="fill: steelblue;"></circle><circle cx="315.18776033073664" cy="77.42421494589911" r="3" style="fill: steelblue;"></circle><circle cx="464.0711461007595" cy="118.207186460495" r="3" style="fill: steelblue;"></circle><circle cx="476.52133002877235" cy="75.62907205687628" r="3" style="fill: steelblue;"></circle><circle cx="330.67148745059967" cy="72.00182643201617" r="3" style="fill: steelblue;"></circle><circle cx="202.76735823601484" cy="304.68391544289057" r="3" style="fill: steelblue;"></circle><circle cx="61.002883762121215" cy="255.21776162915762" r="3" style="fill: steelblue;"></circle><circle cx="125.5479269474745" cy="292.03959140512677" r="3" style="fill: steelblue;"></circle><circle cx="215.7348145544529" cy="257.24339650736914" r="3" style="fill: steelblue;"></circle><circle cx="152.8633289784193" cy="321.90882662932074" r="3" style="fill: steelblue;"></circle><circle cx="328.87507796287537" cy="292.1844869852066" r="3" style="fill: steelblue;"></circle><circle cx="306.3927969709039" cy="223.82998259531126" r="3" style="fill: steelblue;"></circle><circle cx="127.73684084415437" cy="252.8061866760254" r="3" style="fill: steelblue;"></circle><circle cx="102.55946785211565" cy="230.53831938240262" r="3" style="fill: steelblue;"></circle><circle cx="221.1242240667343" cy="309.7767482201258" r="3" style="fill: steelblue;"></circle><circle cx="86.77458062767984" cy="104.5899283554819" r="3" style="fill: steelblue;"></circle><circle cx="67.40349277853967" cy="157.5564137763447" r="3" style="fill: steelblue;"></circle><circle cx="460.1053659617901" cy="195.74589777686117" r="3" style="fill: steelblue;"></circle><circle cx="430.2365981787443" cy="152.30817637509767" r="3" style="fill: steelblue;"></circle><circle cx="410.2901664376259" cy="155.9579148888588" r="3" style="fill: steelblue;"></circle><circle cx="415.58793492615223" cy="136.81121915578842" r="3" style="fill: steelblue;"></circle><circle cx="486.9662743806839" cy="65.91785781913335" r="3" style="fill: steelblue;"></circle><circle cx="495.3942511975765" cy="60.703865355915475" r="3" style="fill: steelblue;"></circle><circle cx="195.5635952576995" cy="45.99189923869238" r="3" style="fill: steelblue;"></circle><circle cx="153.13042670488358" cy="267.06179893679086" r="3" style="fill: steelblue;"></circle><circle cx="129.08589810132983" cy="298.0489333470662" r="3" style="fill: steelblue;"></circle><circle cx="163.42665933072567" cy="279.80443918042715" r="3" style="fill: steelblue;"></circle><circle cx="292.478886321187" cy="286.29067788521445" r="3" style="fill: steelblue;"></circle><circle cx="286.5634335950017" cy="241.98536574840546" r="3" style="fill: steelblue;"></circle></g></svg>