<svg xmlns="http://www.w3.org/2000/svg"><g transform="translate(40,20)"><circle cx="240.7090982235968" cy="70.68398334085941" r="3" style="fill: steelblue;"></circle><circle cx="436.7958866804838" cy="205.0846742466092" r="3" style="fill: steelblue;"></circle><circle cx="509.6636165678501" cy="176.97226664749905" r="3" style="fill: steelblue;"></circle><circle cx="384.14502561092377" cy="39.74576219916344" r="3" style="fill: steelblue;"></circle><circle cx="155.499856621027" cy="88.87265454977751" r="3" style="fill: steelblue;"></circle><circle cx="527.7268056571484" cy="107.55477491766214" r="3" style="fill: steelblue;"></circle><circle cx="343.77609852701426" cy="140.50105139613152" r="3" style="fill: steelblue;"></circle><circle cx="354.11655742675066" cy="65.0139108300209" r="3" style="fill: steelblue;"></circle><circle cx="399.554970189929" cy="100.54112896323204" r="3" style="fill: steelblue;"></circle><circle cx="274.04840076807886" cy="118.91793943941593" r="3" style="fill: steelblue;"></circle><circle cx="107.96617761254312" cy="14.803680777549744" r="3" style="fill: steelblue;"></circle><circle cx="182.17198111116886" cy="85.86972784250975" r="3" style="fill: steelblue;"></circle><circle cx="457.2930496931076" cy="98.61380811780691" r="3" style="fill: steelblue;"></circle><circle cx="260.6301095383242" cy="139.28402652963996" r="3" style="fill: steelblue;"></circle><circle cx="397.16862224042416" cy="145.9726059809327" r="3" style="fill: steelblue;"></circle><circle cx="471.95096656680107" cy="161.55206232797354" r="3" style="fill: steelblue;"></circle><circle cx="85.51228612661363" cy="281.54055047780275" r="3" style="fill: steelblue;"></circle><circle cx="509.0992261469364" cy="147.52276167273521" r="3" style="fill: steelblue;"></circle><circle cx="374.72276732325554" cy="69.84101068228483" r="3" style="fill: steelblue;"></circle><circle cx="273.0202910886146" cy="244.42648626863956" r="3" style="fill: steelblue;"></circle><circle cx="457.75860741734505" cy="57.34054856002331" r="3" style="fill: steelblue;"></circle><circle cx="161.23805724084377" cy="283.25079306960106" r="3" style="fill: steelblue;"></circle><circle cx="212.01548248529434" cy="29.996198788285255" r="3" style="fill: steelblue;"></circle><circle cx="365.3200723975897" cy="35.4656346142292" r="3" style="fill: steelblue;"></circle><circle cx="248.76084996387362" cy="105.1833426579833" r="3" style="fill: steelblue;"></circle><circle cx="95.52540823817255" cy="257.4866592884064" r="3" style="fill: steelblue;"></circle><circle cx="301.6527955234051" cy="148.26657152734697" r="3" style="fill: steelblue;"></circle><circle cx="352.3173265904188" cy="102.5325732305646" r="3" style="fill: steelblue;"></circle><circle cx="419.1918783634901" cy="215.66423699259758" r="3" style="fill: steelblue;"></circle><circle cx="223.4294569864869" cy="183.24656640179455" r="3" style="fill: steelblue;"></circle><circle cx="281.7883186787367" cy="173.76964803843293" r="3" style="fill: steelblue;"></circle><circle cx="205.21844632923603" cy="208.91736233606935" r="3" style="fill: steelblue;"></circle><circle cx="160.35346135497093" cy="133.04887125268579" r="3" style="fill: steelblue;"></circle><circle cx="174.5082025229931" cy="116.11420214176178" r="3" style="fill: steelblue;"></circle><circle cx="252.93043607845902" cy="163.77299181185663" r="3" style="fill: steelblue;"></circle><circle cx="326.1558762565255" cy="180.8594467700459" r="3" style="fill: steelblue;"></circle><circle cx="206.79957333952188" cy="239.45269007235765" r="3" style="fill: steelblue;"></circle><circle cx="239.41681997850537" cy="118.80864407867193" r="3" style="fill: steelblue;"></circle><circle cx="213.33391226828098" cy="200.63661709427834" r="3" style="fill: steelblue;"></circle><circle cx="262.7203699015081" cy="164.78554992936552" r="3" style="fill: steelblue;"></circle><circle cx="61.21811091899873" cy="138.83559610694647" r="3" style="fill: steelblue;"></circle><circle cx="54.97038781642915" cy="139.70151329413056" r="3" style="fill: steelblue;"></circle><circle cx="275.39679480716586" cy="220.1177996583283" r="3" style="fill: steelblue;"></circle><circle cx="186.33712649345398" cy="203.75557355582714" r="3" style="fill: steelblue;"></circle><circle cx="316.99068758636713" cy="215.75766447931528" r="3" style="fill: steelblue;"></circle><circle cx="239.41888444125652" cy="215.0618640705943" r="3" style="fill: steelblue;"></circle><circle cx="327.06519540399313" cy="333.71659107506275" r="3" style="fill: steelblue;"></circle><circle cx="253.78319246694446" cy="173.59361656126566" r="3" style="fill: steelblue;"></circle><circle cx="311.7593968100846" cy="274.6172549203038" r="3" style="fill: steelblue;"></circle><circle cx="188.58142632991076" cy="217.8871214389801" r="3" style="fill: steelblue;"></circle><circle cx="195.53595509380102" cy="194.56952014006674" r="3" style="fill: steelblue;"></circle><circle cx="398.60392928123474" cy="152.03466680832207" r="3" style="fill: steelblue;"></circle><circle cx="221.90248880535364" cy="189.34785360470414" r="3" style="fill: steelblue;"></circle><circle cx="150.95978870987892" cy="99.87459350377321" r="3" style="fill: steelblue;"></circle><circle cx="293.54210475459695" cy="326.7697349190712" r="3" style="fill: steelblue;"></circle><circle cx="117.50019349157812" cy="253.86045891791582" r="3" style="fill: steelblue;"></circle><circle cx="331.7529993876815" cy="216.02473566308618" r="3" style="fill: steelblue;"></circle><circle cx="243.96175861358643" cy="226.35559849441051" r="3" style="fill: steelblue;"></circle><circle cx="191.83658871799707" cy="234.38581842929125" r="3" style="fill: steelblue;"></circle><circle cx="238.80496451631188" cy="233.7938567623496" r="3" style="fill: steelblue;"></circle><circle cx="407.3160023242235" cy="91.1583911627531" r="3" style="fill: steelblue;"></circle><circle cx="296.5295357443392" cy="141.35532844811678" r="3" style="fill: steelblue;"></circle><circle cx="444.990501254797" cy="62.870561331510544" r="3" style="fill: steelblue;"></circle><circle cx="448.6754138767719" cy="90.37684947252274" r="3" style="fill: steelblue;"></circle><circle cx="430.3331074118614" cy="36.796097829937935" r="3" style="fill: steelblue;"></circle><circle cx="446.5311688184738" cy="60.95788925886154" r="3" style="fill: steelblue;"></circle><circle cx="158.26178088784218" cy="232.8309427946806" r="3" style="fill: steelblue;"></circle><circle cx="444.9619357287884" cy="49.99689124524593" r="3" style="fill: steelblue;"></circle><circle cx="243.86507838964462" cy="117.1606082469225" r="3" style="fill: steelblue;"></circle><circle cx="253.22138325311244" cy="35.548702999949455" r="3" style="fill: steelblue;"></circle><circle cx="344.94907043874264" cy="77.93086878955364" r="3" style="fill: steelblue;"></circle><circle cx="74.6583116054535" cy="158.30159042961895" r="3" style="fill: steelblue;"></circle><circle cx="274.9884850624949" cy="221.64987744763494" r="3" style="fill: steelblue;"></circle><circle cx="192.5291769951582" cy="265.57238418608904" r="3" style="fill: steelblue;"></circle><circle cx="136.27655513584614" cy="161.15735629573464" r="3" style="fill: steelblue;"></circle><circle cx="210.7350528985262" cy="254.28986940532923" r="3" style="fill: steelblue;"></circle><circle cx="126.02281875908376" cy="282.56377410143614" r="3" style="fill: steelblue;"></circle><circle cx="178.72918143868446" cy="346.1387112736702" r="3" style="fill: steelblue;"></circle><circle cx="95.36697015166284" cy="242.38958321511745" r="3" style="fill: steelblue;"></circle><circle cx="133.4661700576544" cy="323.19067530333996" r="3" style="fill: steelblue;"></circle><circle cx="301.2570573762059" cy="236.42023764550686" r="3" style="fill: steelblue;"></circle><circle cx="231.56367911025882" cy="191.06016932055354" r="3" style="fill: steelblue;"></circle><circle cx="137.6877424120903" cy="275.95090605318546" r="3" style="fill: steelblue;"></circle><circle cx="257.0519674848765" cy="151.00667597725987" r="3" style="fill: steelblue;"></circle><circle cx="260.7877794234082" cy="158.93527697771788" r="3" style="fill: steelblue;"></circle><circle cx="388.87315325438976" cy="84.94489938020706" r="3" style="fill: steelblue;"></circle><circle cx="359.902338758111" cy="64.09541256725788" r="3" style="fill: steelblue;"></circle><circle cx="281.24735651537776" cy="151.44837363623083" r="3" style="fill: steelblue;"></circle><circle cx="367.1986882388592" cy="104.08746842294931" r="3" style="fill: steelblue;"></circle><circle cx="317.26357888430357" cy="59.02824103832245" r="3" style="fill: steelblue;"></circle><circle cx="320.1831013709307" cy="117.28362664580345" r="3" style="fill: steelblue;"></circle><circle cx="345.8876994252205" cy="203.5648526623845" r="3" style="fill: steelblue;"></circle><circle cx="108.27054128050806" cy="38.67896385490894" r="3" style="fill: steelblue;"></circle><circle cx="467.55050763487816" cy="91.55018553137779" r="3" style="fill: steelblue;"></circle><circle cx="98.42227444052698" cy="253.85898556560278" r="3" style="fill: steelblue;"></circle><circle cx="253.97539244033396" cy="261.6290479898453" r="3" style="fill: steelblue;"></circle><circle cx="376.65043741464615" cy="291.2219028919935" r="3" style="fill: steelblue;"></circle><circle cx="389.82391253113747" cy="206.07489086687565" r="3" style="fill: steelblue;"></circle><circle cx="248.7285503000021" cy="251.54026802629232" r="3" style="fill: steelblue;"></circle><circle cx="177.55894035100937" cy="74.18285608291626" r="3" style="fill: steelblue;"></circle><circle cx="297.3997809737921" cy="102.36987210810184" r="3" style="fill: steelblue;"></circle><circle cx="197.48841885477304" cy="215.3374950401485" r="3" style="fill: steelblue;"></circle><circle cx="52.01208561658861" cy="214.62636459618807" r="3" style="fill: steelblue;"></circle><circle cx="122.9712460935116" cy="272.11404889822006" r="3" style="fill: steelblue;"></circle><circle cx="325.6986417621374" cy="211.95829957723618" r="3" style="fill: steelblue;"></circle><circle cx="59.74125310778619" cy="207.41901518777013" r="3" style="fill: steelblue;"></circle><circle cx="353.6043292656541" cy="78.05852890014648" r="3" style="fill: steelblue;"></circle><circle cx="514.8115669190884" cy="230.28616346418858" r="3" style="fill: steelblue;"></circle><circle cx="270.22125202958705" cy="73.38838018476963" r="3" style="fill: steelblue;"></circle><circle cx="319.71085488796234" cy="89.44787476211786" r="3" style="fill: steelblue;"></circle><circle cx="428.30574966967106" cy="139.27659783512354" r="3" style="fill: steelblue;"></circle><circle cx="289.7636764962226" cy="147.38855948671699" r="3" style="fill: steelblue;"></circle><circle cx="213.82080864161253" cy="279.0049893781543" r="3" style="fill: steelblue;"></circle><circle cx="312.1947671100497" cy="336.56742349267006" r="3" style="fill: steelblue;"></circle><circle cx="130.15490256249907" cy="247.43874203413725" r="3" style="fill: steelblue;"></circle><circle cx="30.015041381120696" cy="276.93129163235426" r="3" style="fill: steelblue;"></circle><circle cx="287.53360661678016" cy="259.3579340726137" r="3" style="fill: steelblue;"></circle><circle cx="237.59795285761356" cy="236.88821606338024" r="3" style="fill: steelblue;"></circle></g></svg>