<svg xmlns="http://www.w3.org/2000/svg"><g transform="translate(40,20)"><circle cx="384.83063220977783" cy="126.56762550274533" r="3" style="fill: steelblue;"></circle><circle cx="204.38546776771548" cy="122.73342675632902" r="3" style="fill: steelblue;"></circle><circle cx="397.5192332267761" cy="174.34406007329625" r="3" style="fill: steelblue;"></circle><circle cx="363.10599088668823" cy="190.47006774279805" r="3" style="fill: steelblue;"></circle><circle cx="315.36432445049286" cy="93.16820916202335" r="3" style="fill: steelblue;"></circle><circle cx="271.8379282951355" cy="54.03641793462965" r="3" style="fill: steelblue;"></circle><circle cx="441.6825556755066" cy="204.97428394026224" r="3" style="fill: steelblue;"></circle><circle cx="341.7069339752198" cy="160.6771397093932" r="3" style="fill: steelblue;"></circle><circle cx="374.1594010591507" cy="42.81268947654302" r="3" style="fill: steelblue;"></circle><circle cx="448.9412569999695" cy="161.9319078202049" r="3" style="fill: steelblue;"></circle><circle cx="371.83805644512177" cy="78.7232486738099" r="3" style="fill: steelblue;"></circle><circle cx="334.43270266056066" cy="23.55747852060529" r="3" style="fill: steelblue;"></circle><circle cx="312.06819355487823" cy="82.63703452216254" r="3" style="fill: steelblue;"></circle><circle cx="309.1562980413437" cy="118.0511362850666" r="3" style="fill: steelblue;"></circle><circle cx="282.94331073760986" cy="153.47879303412304" r="3" style="fill: steelblue;"></circle><circle cx="283.5521811246872" cy="33.29696026113299" r="3" style="fill: steelblue;"></circle><circle cx="460.98820209503174" cy="133.5715686281522" r="3" style="fill: steelblue;"></circle><circle cx="429.5255506038666" cy="92.32929944992065" r="3" style="fill: steelblue;"></circle><circle cx="312.00298458337784" cy="186.64807884229555" r="3" style="fill: steelblue;"></circle><circle cx="366.9860118627548" cy="101.57695098055734" r="3" style="fill: steelblue;"></circle><circle cx="288.83746951818466" cy="110.83448280890781" r="3" style="fill: steelblue;"></circle><circle cx="265.06230399012566" cy="247.71875821881827" r="3" style="fill: steelblue;"></circle><circle cx="270.9310667216778" cy="55.48856092823877" r="3" style="fill: steelblue;"></circle><circle cx="467.41586565971375" cy="175.720697020491" r="3" style="fill: steelblue;"></circle><circle cx="221.42936043441298" cy="145.02857931786116" r="3" style="fill: steelblue;"></circle><circle cx="266.14662274718285" cy="156.34376427365675" r="3" style="fill: steelblue;"></circle><circle cx="237.99181544221938" cy="86.47407276762857" r="3" style="fill: steelblue;"></circle><circle cx="229.62364308536056" cy="162.12445845206577" r="3" style="fill: steelblue;"></circle><circle cx="241.34820328094065" cy="60.727836522791115" r="3" style="fill: steelblue;"></circle><circle cx="239.62525984738025" cy="202.16344934370784" r="3" style="fill: steelblue;"></circle><circle cx="164.69525635242462" cy="153.67128100867075" r="3" style="fill: steelblue;"></circle><circle cx="235.39817310869694" cy="97.0543243818813" r="3" style="fill: steelblue;"></circle><circle cx="204.99239802360535" cy="139.55898413227663" r="3" style="fill: steelblue;"></circle><circle cx="220.1944613456726" cy="164.2517734732893" r="3" style="fill: steelblue;"></circle><circle cx="247.33761694282293" cy="64.06314108106824" r="3" style="fill: steelblue;"></circle><circle cx="178.21504265069962" cy="228.4416135814455" r="3" style="fill: steelblue;"></circle><circle cx="87.62495756149293" cy="81.79987486865787" r="3" style="fill: steelblue;"></circle><circle cx="291.4861598610878" cy="180.4104440742069" r="3" style="fill: steelblue;"></circle><circle cx="236.52375793084502" cy="144.94131470306053" r="3" style="fill: steelblue;"></circle><circle cx="299.52760130167013" cy="182.9909402463171" r="3" style="fill: steelblue;"></circle><circle cx="276.8078202009201" cy="193.13701507118014" r="3" style="fill: steelblue;"></circle><circle cx="257.55707412958145" cy="119.7917636897829" r="3" style="fill: steelblue;"></circle><circle cx="37.47573137283326" cy="216.01465029848947" r="3" style="fill: steelblue;"></circle><circle cx="325.79929769039154" cy="235.19857244359122" r="3" style="fill: steelblue;"></circle><circle cx="108.48995089530946" cy="101.14933401346207" r="3" style="fill: steelblue;"></circle><circle cx="134.10685300827026" cy="205.92207395368155" r="3" style="fill: steelblue;"></circle><circle cx="103.71190845966339" cy="214.72016904089185" r="3" style="fill: steelblue;"></circle><circle cx="237.64583325013518" cy="143.04721020162106" r="3" style="fill: steelblue;"></circle><circle cx="311.54266834259033" cy="175.11690217587682" r="3" style="fill: steelblue;"></circle><circle cx="226.05097532272342" cy="83.979109260771" r="3" style="fill: steelblue;"></circle><circle cx="308.39911937713623" cy="173.8362069759104" r="3" style="fill: steelblue;"></circle><circle cx="340.8321940898895" cy="103.83276492357254" r="3" style="fill: steelblue;"></circle><circle cx="158.0818498134613" cy="311.5898761484358" r="3" style="fill: steelblue;"></circle><circle cx="164.5280742645264" cy="192.7617752717601" r="3" style="fill: steelblue;"></circle><circle cx="200.46316623687744" cy="167.469183045129" r="3" style="fill: steelblue;"></circle><circle cx="154.22998309135437" cy="159.9311569498645" r="3" style="fill: steelblue;"></circle><circle cx="182.94424653053284" cy="186.72499739461477" r="3" style="fill: steelblue;"></circle><circle cx="173.85398089885712" cy="210.08256011539038" r="3" style="fill: steelblue;"></circle><circle cx="203.17567080259323" cy="253.55697108639612" r="3" style="fill: steelblue;"></circle><circle cx="177.4863713979721" cy="94.15761811865701" r="3" style="fill: steelblue;"></circle><circle cx="395.44155836105347" cy="239.53404708041086" r="3" style="fill: steelblue;"></circle><circle cx="280.8480495214462" cy="74.77628125084772" r="3" style="fill: steelblue;"></circle><circle cx="239.23973393160853" cy="61.26826273070441" r="3" style="fill: steelblue;"></circle><circle cx="410.24654746055603" cy="114.97571542859077" r="3" style="fill: steelblue;"></circle><circle cx="331.44420325756073" cy="161.8305956530902" r="3" style="fill: steelblue;"></circle><circle cx="303.27459365129477" cy="69.83263807164298" r="3" style="fill: steelblue;"></circle><circle cx="299.61229652166367" cy="130.2563115126557" r="3" style="fill: steelblue;"></circle><circle cx="412.19082713127136" cy="124.9225153691239" r="3" style="fill: steelblue;"></circle><circle cx="349.01635587215424" cy="84.62785366508695" r="3" style="fill: steelblue;"></circle><circle cx="366.7826020717621" cy="113.78089479274222" r="3" style="fill: steelblue;"></circle><circle cx="213.31324741244316" cy="187.72579042447938" r="3" style="fill: steelblue;"></circle><circle cx="277.8659427165985" cy="139.8564361449745" r="3" style="fill: steelblue;"></circle><circle cx="262.15373888611794" cy="253.53234277831183" r="3" style="fill: steelblue;"></circle><circle cx="114.16510283946991" cy="83.15967039929495" r="3" style="fill: steelblue;"></circle><circle cx="191.06431245803833" cy="250.22742665476267" r="3" style="fill: steelblue;"></circle><circle cx="223.82565267384052" cy="214.00285363197327" r="3" style="fill: steelblue;"></circle><circle cx="176.9586020708084" cy="217.25588805145685" r="3" style="fill: steelblue;"></circle><circle cx="123.40601027011871" cy="279.242256614897" r="3" style="fill: steelblue;"></circle><circle cx="70.73630332946779" cy="222.33321948183908" r="3" style="fill: steelblue;"></circle><circle cx="354.14583027362823" cy="267.5677084260517" r="3" style="fill: steelblue;"></circle><circle cx="106.34657979011537" cy="224.81212533182565" r="3" style="fill: steelblue;"></circle><circle cx="224.69616137444973" cy="152.23135039624242" r="3" style="fill: steelblue;"></circle><circle cx="85.44146060943604" cy="133.98120258417396" r="3" style="fill: steelblue;"></circle><circle cx="273.44369754195213" cy="186.6812604169051" r="3" style="fill: steelblue;"></circle><circle cx="323.09055268764496" cy="155.9137898251518" r="3" style="fill: steelblue;"></circle><circle cx="183.75363886356357" cy="146.38528254710968" r="3" style="fill: steelblue;"></circle><circle cx="159.84013617038727" cy="161.1128941592243" r="3" style="fill: steelblue;"></circle><circle cx="248.4398550912738" cy="69.03323796060351" r="3" style="fill: steelblue;"></circle><circle cx="269.343943297863" cy="45.534783932897774" r="3" style="fill: steelblue;"></circle><circle cx="106.98035001754761" cy="109.32886161737973" r="3" style="fill: steelblue;"></circle><circle cx="282.07015335559845" cy="142.6857216904561" r="3" style="fill: steelblue;"></circle><circle cx="362.3458707332611" cy="101.61402093039618" r="3" style="fill: steelblue;"></circle><circle cx="223.2942858338356" cy="176.71674547923936" r="3" style="fill: steelblue;"></circle><circle cx="350.8290910720825" cy="120.3208290040493" r="3" style="fill: steelblue;"></circle><circle cx="272.0869021117687" cy="213.76053426000806" r="3" style="fill: steelblue;"></circle><circle cx="200.37315130233765" cy="270.1578531000349" r="3" style="fill: steelblue;"></circle><circle cx="177.99264281988144" cy="225.9594741794798" r="3" style="fill: steelblue;"></circle><circle cx="236.7389915138483" cy="244.1956642601225" r="3" style="fill: steelblue;"></circle><circle cx="172.22585320472717" cy="148.98326699104575" r="3" style="fill: steelblue;"></circle><circle cx="186.1332142353058" cy="270.94943589634363" r="3" style="fill: steelblue;"></circle><circle cx="329.37461972236633" cy="203.0252459976408" r="3" style="fill: steelblue;"></circle><circle cx="164.83888864517212" cy="266.104010409779" r="3" style="fill: steelblue;"></circle><circle cx="311.55989706516266" cy="192.13392146759566" r="3" style="fill: steelblue;"></circle><circle cx="382.98949241638184" cy="190.0883289674918" r="3" style="fill: steelblue;"></circle><circle cx="244.87327482551336" cy="265.04812240600586" r="3" style="fill: steelblue;"></circle><circle cx="39.87248182296754" cy="197.06052185760603" r="3" style="fill: steelblue;"></circle><circle cx="443.2141149044037" cy="136.31575033068657" r="3" style="fill: steelblue;"></circle><circle cx="364.26159381866455" cy="149.5675725138022" r="3" style="fill: steelblue;"></circle><circle cx="343.76793444156647" cy="46.3213599390454" r="3" style="fill: steelblue;"></circle><circle cx="513.5888242721558" cy="97.40156034628552" r="3" style="fill: steelblue;"></circle><circle cx="305.1539236307145" cy="29.83853154712255" r="3" style="fill: steelblue;"></circle><circle cx="409.2299723625183" cy="93.59390222364003" r="3" style="fill: steelblue;"></circle><circle cx="245.40675669908524" cy="237.67649895615045" r="3" style="fill: steelblue;"></circle><circle cx="117.35377550125122" cy="251.81130501959058" r="3" style="fill: steelblue;"></circle><circle cx="221.83029480278492" cy="129.18454549378822" r="3" style="fill: steelblue;"></circle><circle cx="214.26804676651955" cy="232.48024466964932" r="3" style="fill: steelblue;"></circle><circle cx="110.73818743228914" cy="242.48213089174692" r="3" style="fill: steelblue;"></circle><circle cx="28.59604597091676" cy="170.83830878966387" r="3" style="fill: steelblue;"></circle></g></svg>