<svg xmlns="http://www.w3.org/2000/svg"><g transform="translate(40,20)"><circle cx="417.72736608982086" cy="99.17207825928926" r="3" style="fill: steelblue;"></circle><circle cx="329.9423038959503" cy="29.49601523578167" r="3" style="fill: steelblue;"></circle><circle cx="465.0030791759491" cy="127.84326327964664" r="3" style="fill: steelblue;"></circle><circle cx="427.63177156448364" cy="41.6700255125761" r="3" style="fill: steelblue;"></circle><circle cx="431.95421397686005" cy="55.32418116927147" r="3" style="fill: steelblue;"></circle><circle cx="473.13918471336365" cy="89.86319061368704" r="3" style="fill: steelblue;"></circle><circle cx="290.9536678344011" cy="174.57856633409392" r="3" style="fill: steelblue;"></circle><circle cx="377.66568660736084" cy="39.65204134583473" r="3" style="fill: steelblue;"></circle><circle cx="392.4568623304367" cy="169.1036383388564" r="3" style="fill: steelblue;"></circle><circle cx="495.0160324573517" cy="261.52745839208364" r="3" style="fill: steelblue;"></circle><circle cx="432.67385959625244" cy="1.1917829513549805" r="3" style="fill: steelblue;"></circle><circle cx="322.43172079324717" cy="160.2845303248614" r="3" style="fill: steelblue;"></circle><circle cx="371.3753119111061" cy="173.20316984551027" r="3" style="fill: steelblue;"></circle><circle cx="289.16010707616806" cy="203.5912067629397" r="3" style="fill: steelblue;"></circle><circle cx="405.05772829055786" cy="71.33287116885185" r="3" style="fill: steelblue;"></circle><circle cx="273.671755939722" cy="36.12115904688835" r="3" style="fill: steelblue;"></circle><circle cx="325.65192729234695" cy="123.31199757754803" r="3" style="fill: steelblue;"></circle><circle cx="318.64895671606064" cy="202.12798700667918" r="3" style="fill: steelblue;"></circle><circle cx="463.67765665054316" cy="130.95681853592396" r="3" style="fill: steelblue;"></circle><circle cx="472.14324474334717" cy="119.9297022074461" r="3" style="fill: steelblue;"></circle><circle cx="309.89646390080446" cy="182.53819849342108" r="3" style="fill: steelblue;"></circle><circle cx="469.2459762096405" cy="79.08583357930183" r="3" style="fill: steelblue;"></circle><circle cx="350.2136930823326" cy="191.75377925857902" r="3" style="fill: steelblue;"></circle><circle cx="459.5446586608887" cy="188.04829574655741" r="3" style="fill: steelblue;"></circle><circle cx="200.68800151348114" cy="113.58634028583765" r="3" style="fill: steelblue;"></circle><circle cx="305.8133002370596" cy="131.38592587783933" r="3" style="fill: steelblue;"></circle><circle cx="334.708122164011" cy="110.0758632645011" r="3" style="fill: steelblue;"></circle><circle cx="236.3959193229675" cy="124.72755340859294" r="3" style="fill: steelblue;"></circle><circle cx="200.75160562992096" cy="120.62307093292475" r="3" style="fill: steelblue;"></circle><circle cx="292.0863155275583" cy="274.57465156912804" r="3" style="fill: steelblue;"></circle><circle cx="317.31649450957775" cy="161.04093049652874" r="3" style="fill: steelblue;"></circle><circle cx="319.73259150981903" cy="211.12519381567836" r="3" style="fill: steelblue;"></circle><circle cx="341.57855808734894" cy="202.04559010453522" r="3" style="fill: steelblue;"></circle><circle cx="58.579015731811516" cy="104.70643937587738" r="3" style="fill: steelblue;"></circle><circle cx="323.1938995420933" cy="43.64752508699894" r="3" style="fill: steelblue;"></circle><circle cx="202.95799970626828" cy="221.5627540834248" r="3" style="fill: steelblue;"></circle><circle cx="188.8749361038208" cy="174.86479712060827" r="3" style="fill: steelblue;"></circle><circle cx="208.66400599479675" cy="177.5422103353776" r="3" style="fill: steelblue;"></circle><circle cx="192.36235320568085" cy="159.4922530464828" r="3" style="fill: steelblue;"></circle><circle cx="410.48823595046997" cy="231.47707544267178" r="3" style="fill: steelblue;"></circle><circle cx="405.5218040943146" cy="301.8294397741556" r="3" style="fill: steelblue;"></circle><circle cx="207.25050866603848" cy="251.86482928693295" r="3" style="fill: steelblue;"></circle><circle cx="198.20260405540463" cy="225.1028448343277" r="3" style="fill: steelblue;"></circle><circle cx="266.5011964738369" cy="220.7463930360973" r="3" style="fill: steelblue;"></circle><circle cx="147.4622905254364" cy="204.88820988684893" r="3" style="fill: steelblue;"></circle><circle cx="221.334707736969" cy="187.802918208763" r="3" style="fill: steelblue;"></circle><circle cx="193.62610280513763" cy="254.87038977444172" r="3" style="fill: steelblue;"></circle><circle cx="291.08879026025534" cy="208.61952677369118" r="3" style="fill: steelblue;"></circle><circle cx="119.06064748764038" cy="222.57881304249167" r="3" style="fill: steelblue;"></circle><circle cx="260.13087183237076" cy="224.44916535168886" r="3" style="fill: steelblue;"></circle><circle cx="399.24330711364746" cy="209.1265620663762" r="3" style="fill: steelblue;"></circle><circle cx="237.19139099121094" cy="240.10016974061728" r="3" style="fill: steelblue;"></circle><circle cx="315.3746780008077" cy="222.751325648278" r="3" style="fill: steelblue;"></circle><circle cx="186.08288168907166" cy="251.61315985023975" r="3" style="fill: steelblue;"></circle><circle cx="230.27590066194534" cy="331.4552169293165" r="3" style="fill: steelblue;"></circle><circle cx="448.11317324638367" cy="239.41144924610853" r="3" style="fill: steelblue;"></circle><circle cx="415.2603954076767" cy="126.32698165252805" r="3" style="fill: steelblue;"></circle><circle cx="270.72623893618584" cy="164.43319218233228" r="3" style="fill: steelblue;"></circle><circle cx="230.46255111694336" cy="277.1178076043725" r="3" style="fill: steelblue;"></circle><circle cx="266.98147505521774" cy="216.15374200046062" r="3" style="fill: steelblue;"></circle><circle cx="480.2382230758667" cy="95.33408023416996" r="3" style="fill: steelblue;"></circle><circle cx="271.8162976205349" cy="106.13779462873936" r="3" style="fill: steelblue;"></circle><circle cx="488.07728290557856" cy="82.721858471632" r="3" style="fill: steelblue;"></circle><circle cx="375.202077627182" cy="110.34509558230639" r="3" style="fill: steelblue;"></circle><circle cx="426.5413910150528" cy="254.10442911088467" r="3" style="fill: steelblue;"></circle><circle cx="435.0666582584381" cy="47.576603665947914" r="3" style="fill: steelblue;"></circle><circle cx="450.35861134529114" cy="159.92022277787328" r="3" style="fill: steelblue;"></circle><circle cx="288.4808801114559" cy="113.4518675506115" r="3" style="fill: steelblue;"></circle><circle cx="422.00391590595245" cy="76.62958577275276" r="3" style="fill: steelblue;"></circle><circle cx="517.593777179718" cy="46.31134606897831" r="3" style="fill: steelblue;"></circle><circle cx="421.37148678302765" cy="274.28774554282427" r="3" style="fill: steelblue;"></circle><circle cx="368.65618228912354" cy="183.13524355180562" r="3" style="fill: steelblue;"></circle><circle cx="144.44283843040466" cy="272.67838194966316" r="3" style="fill: steelblue;"></circle><circle cx="367.6186010241508" cy="211.7225306108594" r="3" style="fill: steelblue;"></circle><circle cx="143.292635679245" cy="143.98069232702255" r="3" style="fill: steelblue;"></circle><circle cx="382.41190910339355" cy="136.44654881209135" r="3" style="fill: steelblue;"></circle><circle cx="262.5616393983364" cy="278.1660195440054" r="3" style="fill: steelblue;"></circle><circle cx="179.0974259376526" cy="260.9332084655762" r="3" style="fill: steelblue;"></circle><circle cx="96.81884050369263" cy="280.47670535743237" r="3" style="fill: steelblue;"></circle><circle cx="90.50976634025574" cy="273.35963789373636" r="3" style="fill: steelblue;"></circle><circle cx="280.67779764533043" cy="236.65002193301916" r="3" style="fill: steelblue;"></circle><circle cx="94.62609887123108" cy="240.81478472799063" r="3" style="fill: steelblue;"></circle><circle cx="194.70341205596924" cy="113.7206370010972" r="3" style="fill: steelblue;"></circle><circle cx="291.8673360720277" cy="100.69870594888926" r="3" style="fill: steelblue;"></circle><circle cx="384.89117324352264" cy="191.9046837836504" r="3" style="fill: steelblue;"></circle><circle cx="422.0234870910644" cy="122.45664484798908" r="3" style="fill: steelblue;"></circle><circle cx="408.2004636526108" cy="219.700697530061" r="3" style="fill: steelblue;"></circle><circle cx="243.6743125319481" cy="231.20727594941854" r="3" style="fill: steelblue;"></circle><circle cx="289.81441855430603" cy="37.56089806556702" r="3" style="fill: steelblue;"></circle><circle cx="424.12129640579224" cy="189.61588474921882" r="3" style="fill: steelblue;"></circle><circle cx="378.51395308971405" cy="145.7116368226707" r="3" style="fill: steelblue;"></circle><circle cx="340.15941470861435" cy="49.213146045804024" r="3" style="fill: steelblue;"></circle><circle cx="282.62118324637413" cy="41.14358238875866" r="3" style="fill: steelblue;"></circle><circle cx="226.11631304025647" cy="135.6758877635002" r="3" style="fill: steelblue;"></circle><circle cx="375.56272745132446" cy="218.57671225443482" r="3" style="fill: steelblue;"></circle><circle cx="217.85218119621274" cy="310.4610938578844" r="3" style="fill: steelblue;"></circle><circle cx="298.0517691001296" cy="268.62634364515543" r="3" style="fill: steelblue;"></circle><circle cx="273.4004482626915" cy="210.1718794554472" r="3" style="fill: steelblue;"></circle><circle cx="209.01409685611725" cy="250.92191640287638" r="3" style="fill: steelblue;"></circle><circle cx="277.4747371673584" cy="136.84022724628448" r="3" style="fill: steelblue;"></circle><circle cx="353.6987766623497" cy="151.41207603737712" r="3" style="fill: steelblue;"></circle><circle cx="181.87218010425568" cy="267.2076031565666" r="3" style="fill: steelblue;"></circle><circle cx="221.64852619171143" cy="283.5262708365917" r="3" style="fill: steelblue;"></circle><circle cx="97.15213179588318" cy="206.67874366044998" r="3" style="fill: steelblue;"></circle><circle cx="207.27137625217438" cy="293.75721625983715" r="3" style="fill: steelblue;"></circle><circle cx="381.46813809871674" cy="306.31255097687244" r="3" style="fill: steelblue;"></circle><circle cx="507.36225843429565" cy="51.78355909883976" r="3" style="fill: steelblue;"></circle><circle cx="368.9957857131958" cy="71.14294562488794" r="3" style="fill: steelblue;"></circle><circle cx="404.9647629261017" cy="84.0711884200573" r="3" style="fill: steelblue;"></circle><circle cx="416.6475623846054" cy="80.63744958490133" r="3" style="fill: steelblue;"></circle><circle cx="517.1347618103027" cy="34.37371104955673" r="3" style="fill: steelblue;"></circle><circle cx="316.4160590618849" cy="28.911133483052254" r="3" style="fill: steelblue;"></circle><circle cx="364.8401990532875" cy="223.2458178885281" r="3" style="fill: steelblue;"></circle><circle cx="312.3966917395591" cy="250.74879750609398" r="3" style="fill: steelblue;"></circle><circle cx="143.9010500907898" cy="266.33321419358253" r="3" style="fill: steelblue;"></circle><circle cx="274.8260222375393" cy="244.07531339675188" r="3" style="fill: steelblue;"></circle><circle cx="240.37340730428693" cy="160.4303514584899" r="3" style="fill: steelblue;"></circle><circle cx="175.5110263824463" cy="164.26444118842483" r="3" style="fill: steelblue;"></circle></g></svg>