<svg xmlns="http://www.w3.org/2000/svg"><g transform="translate(40,20)"><circle cx="418.08858521282673" cy="70.68398334085941" r="3" style="fill: steelblue;"></circle><circle cx="230.71500135585666" cy="205.0846742466092" r="3" style="fill: steelblue;"></circle><circle cx="409.65156599879265" cy="176.97226664749905" r="3" style="fill: steelblue;"></circle><circle cx="353.1555990502238" cy="39.74576219916344" r="3" style="fill: steelblue;"></circle><circle cx="285.15971585176885" cy="88.87265454977751" r="3" style="fill: steelblue;"></circle><circle cx="332.42534033954144" cy="107.55477491766214" r="3" style="fill: steelblue;"></circle><circle cx="431.771884560585" cy="140.50105139613152" r="3" style="fill: steelblue;"></circle><circle cx="307.0652007870376" cy="65.0139108300209" r="3" style="fill: steelblue;"></circle><circle cx="392.50859923660755" cy="100.54112896323204" r="3" style="fill: steelblue;"></circle><circle cx="428.82716104388237" cy="118.91793943941593" r="3" style="fill: steelblue;"></circle><circle cx="432.27149963378906" cy="14.803680777549744" r="3" style="fill: steelblue;"></circle><circle cx="273.63020153017715" cy="85.86972784250975" r="3" style="fill: steelblue;"></circle><circle cx="238.0252891033888" cy="98.61380811780691" r="3" style="fill: steelblue;"></circle><circle cx="383.4153474122286" cy="139.28402652963996" r="3" style="fill: steelblue;"></circle><circle cx="393.36948774755" cy="145.9726059809327" r="3" style="fill: steelblue;"></circle><circle cx="378.51687267422676" cy="161.55206232797354" r="3" style="fill: steelblue;"></circle><circle cx="355.84478683769703" cy="281.54055047780275" r="3" style="fill: steelblue;"></circle><circle cx="311.3392748683691" cy="147.52276167273521" r="3" style="fill: steelblue;"></circle><circle cx="190.98614070564508" cy="69.84101068228483" r="3" style="fill: steelblue;"></circle><circle cx="432.531516328454" cy="244.42648626863956" r="3" style="fill: steelblue;"></circle><circle cx="193.74821081757545" cy="57.34054856002331" r="3" style="fill: steelblue;"></circle><circle cx="201.60163331776857" cy="283.25079306960106" r="3" style="fill: steelblue;"></circle><circle cx="227.32403453439474" cy="29.996198788285255" r="3" style="fill: steelblue;"></circle><circle cx="146.31132267415524" cy="35.4656346142292" r="3" style="fill: steelblue;"></circle><circle cx="266.88430388923734" cy="105.1833426579833" r="3" style="fill: steelblue;"></circle><circle cx="315.7578990608454" cy="257.4866592884064" r="3" style="fill: steelblue;"></circle><circle cx="346.70178674161434" cy="148.26657152734697" r="3" style="fill: steelblue;"></circle><circle cx="237.69705964252353" cy="102.5325732305646" r="3" style="fill: steelblue;"></circle><circle cx="451.8084888160229" cy="215.66423699259758" r="3" style="fill: steelblue;"></circle><circle cx="92.84710854291917" cy="183.24656640179455" r="3" style="fill: steelblue;"></circle><circle cx="265.7794095855206" cy="173.76964803843293" r="3" style="fill: steelblue;"></circle><circle cx="230.57553319260478" cy="208.91736233606935" r="3" style="fill: steelblue;"></circle><circle cx="192.96931240707636" cy="133.04887125268579" r="3" style="fill: steelblue;"></circle><circle cx="366.8302834779024" cy="116.11420214176178" r="3" style="fill: steelblue;"></circle><circle cx="208.309764303267" cy="163.77299181185663" r="3" style="fill: steelblue;"></circle><circle cx="133.1618566811085" cy="180.8594467700459" r="3" style="fill: steelblue;"></circle><circle cx="205.9993664547801" cy="239.45269007235765" r="3" style="fill: steelblue;"></circle><circle cx="118.14563356339933" cy="118.80864407867193" r="3" style="fill: steelblue;"></circle><circle cx="184.41441513597965" cy="200.63661709427834" r="3" style="fill: steelblue;"></circle><circle cx="261.6206474415958" cy="164.78554992936552" r="3" style="fill: steelblue;"></circle><circle cx="194.01117961853743" cy="138.83559610694647" r="3" style="fill: steelblue;"></circle><circle cx="71.10761672258378" cy="139.70151329413056" r="3" style="fill: steelblue;"></circle><circle cx="196.07945948839188" cy="220.1177996583283" r="3" style="fill: steelblue;"></circle><circle cx="192.25674837827682" cy="203.75557355582714" r="3" style="fill: steelblue;"></circle><circle cx="63.41172203421594" cy="215.75766447931528" r="3" style="fill: steelblue;"></circle><circle cx="78.49952995777132" cy="215.0618640705943" r="3" style="fill: steelblue;"></circle><circle cx="162.71876737475395" cy="333.71659107506275" r="3" style="fill: steelblue;"></circle><circle cx="61.99072793126108" cy="173.59361656126566" r="3" style="fill: steelblue;"></circle><circle cx="288.68988052010536" cy="274.6172549203038" r="3" style="fill: steelblue;"></circle><circle cx="350.66583182662725" cy="217.8871214389801" r="3" style="fill: steelblue;"></circle><circle cx="250.15562589280307" cy="194.56952014006674" r="3" style="fill: steelblue;"></circle><circle cx="298.3038094639778" cy="152.03466680832207" r="3" style="fill: steelblue;"></circle><circle cx="115.45373506844045" cy="189.34785360470414" r="3" style="fill: steelblue;"></circle><circle cx="77.19973817467691" cy="99.87459350377321" r="3" style="fill: steelblue;"></circle><circle cx="263.80086155142635" cy="326.7697349190712" r="3" style="fill: steelblue;"></circle><circle cx="355.1963896304369" cy="253.86045891791582" r="3" style="fill: steelblue;"></circle><circle cx="114.92579586803915" cy="216.02473566308618" r="3" style="fill: steelblue;"></circle><circle cx="98.73001769185068" cy="226.35559849441051" r="3" style="fill: steelblue;"></circle><circle cx="282.7986280247569" cy="234.38581842929125" r="3" style="fill: steelblue;"></circle><circle cx="368.62488247454166" cy="233.7938567623496" r="3" style="fill: steelblue;"></circle><circle cx="257.95155650004745" cy="91.1583911627531" r="3" style="fill: steelblue;"></circle><circle cx="332.1240997686982" cy="141.35532844811678" r="3" style="fill: steelblue;"></circle><circle cx="414.66217048466206" cy="62.870561331510544" r="3" style="fill: steelblue;"></circle><circle cx="297.46447836980224" cy="90.37684947252274" r="3" style="fill: steelblue;"></circle><circle cx="335.24731758981943" cy="36.796097829937935" r="3" style="fill: steelblue;"></circle><circle cx="400.1453713327646" cy="60.95788925886154" r="3" style="fill: steelblue;"></circle><circle cx="306.8721622042358" cy="232.8309427946806" r="3" style="fill: steelblue;"></circle><circle cx="256.8997014127672" cy="49.99689124524593" r="3" style="fill: steelblue;"></circle><circle cx="258.2717720232904" cy="117.1606082469225" r="3" style="fill: steelblue;"></circle><circle cx="457.10749447345734" cy="35.548702999949455" r="3" style="fill: steelblue;"></circle><circle cx="400.15903048217297" cy="77.93086878955364" r="3" style="fill: steelblue;"></circle><circle cx="267.77331441873685" cy="158.30159042961895" r="3" style="fill: steelblue;"></circle><circle cx="371.48609206080437" cy="221.64987744763494" r="3" style="fill: steelblue;"></circle><circle cx="140.59241384267807" cy="265.57238418608904" r="3" style="fill: steelblue;"></circle><circle cx="167.20835275948048" cy="161.15735629573464" r="3" style="fill: steelblue;"></circle><circle cx="193.15226756036282" cy="254.28986940532923" r="3" style="fill: steelblue;"></circle><circle cx="194.65591058135033" cy="282.56377410143614" r="3" style="fill: steelblue;"></circle><circle cx="136.08134396374226" cy="346.1387112736702" r="3" style="fill: steelblue;"></circle><circle cx="68.99408966302873" cy="242.38958321511745" r="3" style="fill: steelblue;"></circle><circle cx="224.39456943422556" cy="323.19067530333996" r="3" style="fill: steelblue;"></circle><circle cx="380.24889908730984" cy="236.42023764550686" r="3" style="fill: steelblue;"></circle><circle cx="139.21651102602482" cy="191.06016932055354" r="3" style="fill: steelblue;"></circle><circle cx="285.5731829814613" cy="275.95090605318546" r="3" style="fill: steelblue;"></circle><circle cx="216.29897363483906" cy="151.00667597725987" r="3" style="fill: steelblue;"></circle><circle cx="332.1847612783313" cy="158.93527697771788" r="3" style="fill: steelblue;"></circle><circle cx="216.78959157317877" cy="84.94489938020706" r="3" style="fill: steelblue;"></circle><circle cx="378.67891162633896" cy="64.09541256725788" r="3" style="fill: steelblue;"></circle><circle cx="353.394468203187" cy="151.44837363623083" r="3" style="fill: steelblue;"></circle><circle cx="387.27092899382114" cy="104.08746842294931" r="3" style="fill: steelblue;"></circle><circle cx="242.78013406321406" cy="59.02824103832245" r="3" style="fill: steelblue;"></circle><circle cx="420.3760602325201" cy="117.28362664580345" r="3" style="fill: steelblue;"></circle><circle cx="290.7654023543" cy="203.5648526623845" r="3" style="fill: steelblue;"></circle><circle cx="314.3957559764385" cy="38.67896385490894" r="3" style="fill: steelblue;"></circle><circle cx="284.7608860395849" cy="91.55018553137779" r="3" style="fill: steelblue;"></circle><circle cx="434.42293636500835" cy="253.85898556560278" r="3" style="fill: steelblue;"></circle><circle cx="87.29688718914987" cy="261.6290479898453" r="3" style="fill: steelblue;"></circle><circle cx="182.1359322220087" cy="291.2219028919935" r="3" style="fill: steelblue;"></circle><circle cx="283.1181407254189" cy="206.07489086687565" r="3" style="fill: steelblue;"></circle><circle cx="359.7473908960819" cy="251.54026802629232" r="3" style="fill: steelblue;"></circle><circle cx="216.86303716152906" cy="74.18285608291626" r="3" style="fill: steelblue;"></circle><circle cx="131.90950982272628" cy="102.36987210810184" r="3" style="fill: steelblue;"></circle><circle cx="127.14087747037412" cy="215.3374950401485" r="3" style="fill: steelblue;"></circle><circle cx="165.21512277424335" cy="214.62636459618807" r="3" style="fill: steelblue;"></circle><circle cx="284.2600048799068" cy="272.11404889822006" r="3" style="fill: steelblue;"></circle><circle cx="161.90738573670387" cy="211.95829957723618" r="3" style="fill: steelblue;"></circle><circle cx="183.47964853048325" cy="207.41901518777013" r="3" style="fill: steelblue;"></circle><circle cx="270.7230034272652" cy="78.05852890014648" r="3" style="fill: steelblue;"></circle><circle cx="477.2179466485977" cy="230.28616346418858" r="3" style="fill: steelblue;"></circle><circle cx="531.3919839262962" cy="73.38838018476963" r="3" style="fill: steelblue;"></circle><circle cx="445.07680132985115" cy="89.44787476211786" r="3" style="fill: steelblue;"></circle><circle cx="414.1419258713722" cy="139.27659783512354" r="3" style="fill: steelblue;"></circle><circle cx="524.2206086218357" cy="147.38855948671699" r="3" style="fill: steelblue;"></circle><circle cx="332.3853234574199" cy="279.0049893781543" r="3" style="fill: steelblue;"></circle><circle cx="67.69912585616113" cy="336.56742349267006" r="3" style="fill: steelblue;"></circle><circle cx="224.95203472673893" cy="247.43874203413725" r="3" style="fill: steelblue;"></circle><circle cx="162.8698629140854" cy="276.93129163235426" r="3" style="fill: steelblue;"></circle><circle cx="390.4093147069216" cy="259.3579340726137" r="3" style="fill: steelblue;"></circle><circle cx="333.2802039384842" cy="236.88821606338024" r="3" style="fill: steelblue;"></circle></g></svg>