<svg xmlns="http://www.w3.org/2000/svg"><g transform="translate(40,20)"><circle cx="454.05383974313736" cy="55.70584461092949" r="3" style="fill: steelblue;"></circle><circle cx="473.22442576289177" cy="43.28046478331089" r="3" style="fill: steelblue;"></circle><circle cx="397.3367363959551" cy="92.46693011373281" r="3" style="fill: steelblue;"></circle><circle cx="528.2107499241829" cy="7.641180604696274" r="3" style="fill: steelblue;"></circle><circle cx="440.57895809412" cy="64.43956419825554" r="3" style="fill: steelblue;"></circle><circle cx="260.09538979735225" cy="181.4196547609754" r="3" style="fill: steelblue;"></circle><circle cx="384.77768160402775" cy="100.60705821961164" r="3" style="fill: steelblue;"></circle><circle cx="378.3924315869808" cy="104.74564619362354" r="3" style="fill: steelblue;"></circle><circle cx="422.59604416787624" cy="76.09515655785799" r="3" style="fill: steelblue;"></circle><circle cx="458.405978679657" cy="52.885013818740845" r="3" style="fill: steelblue;"></circle><circle cx="528.5868895053864" cy="7.397386431694031" r="3" style="fill: steelblue;"></circle><circle cx="446.52191519737244" cy="60.587647557258606" r="3" style="fill: steelblue;"></circle><circle cx="422.1826487034559" cy="76.36309806257486" r="3" style="fill: steelblue;"></circle><circle cx="393.0789039283991" cy="95.2266363427043" r="3" style="fill: steelblue;"></circle><circle cx="386.2788402289152" cy="99.63408503681421" r="3" style="fill: steelblue;"></circle><circle cx="311.01022565737367" cy="148.4192981850356" r="3" style="fill: steelblue;"></circle><circle cx="458.82907032966614" cy="52.610787749290466" r="3" style="fill: steelblue;"></circle><circle cx="502.1707181632519" cy="24.518978968262672" r="3" style="fill: steelblue;"></circle><circle cx="363.4158582240343" cy="114.4526844844222" r="3" style="fill: steelblue;"></circle><circle cx="388.56075301766396" cy="98.15506748855114" r="3" style="fill: steelblue;"></circle><circle cx="414.6003623306751" cy="81.27754293382168" r="3" style="fill: steelblue;"></circle><circle cx="467.1047446131706" cy="47.24692478775978" r="3" style="fill: steelblue;"></circle><circle cx="303.5001854225993" cy="153.28691685572267" r="3" style="fill: steelblue;"></circle><circle cx="484.73890766501427" cy="35.81737466156483" r="3" style="fill: steelblue;"></circle><circle cx="172.5021482259035" cy="238.19305207580328" r="3" style="fill: steelblue;"></circle><circle cx="385.9001559019089" cy="99.8795285820961" r="3" style="fill: steelblue;"></circle><circle cx="344.5879327878356" cy="126.65596948936582" r="3" style="fill: steelblue;"></circle><circle cx="363.1217238306999" cy="114.64332714676857" r="3" style="fill: steelblue;"></circle><circle cx="105.77710278332235" cy="281.4407667145133" r="3" style="fill: steelblue;"></circle><circle cx="196.02399308234453" cy="222.947411891073" r="3" style="fill: steelblue;"></circle><circle cx="332.24850565195084" cy="134.65374633669853" r="3" style="fill: steelblue;"></circle><circle cx="298.6254733800888" cy="156.44645243883133" r="3" style="fill: steelblue;"></circle><circle cx="376.95391595363617" cy="105.67801743745804" r="3" style="fill: steelblue;"></circle><circle cx="228.95629785954952" cy="201.60239953547716" r="3" style="fill: steelblue;"></circle><circle cx="245.81607112661004" cy="190.67476871423423" r="3" style="fill: steelblue;"></circle><circle cx="156.8025552481413" cy="248.36871419101954" r="3" style="fill: steelblue;"></circle><circle cx="163.75727511942387" cy="243.8610253855586" r="3" style="fill: steelblue;"></circle><circle cx="204.20078437775373" cy="217.64763975515962" r="3" style="fill: steelblue;"></circle><circle cx="421.4559678733349" cy="76.83409489691257" r="3" style="fill: steelblue;"></circle><circle cx="53.26959237456323" cy="315.47341234982014" r="3" style="fill: steelblue;"></circle><circle cx="241.26883920282125" cy="193.62204866483808" r="3" style="fill: steelblue;"></circle><circle cx="233.7892202474177" cy="198.46994983963668" r="3" style="fill: steelblue;"></circle><circle cx="227.0114180445671" cy="202.86296978592873" r="3" style="fill: steelblue;"></circle><circle cx="263.19067639298737" cy="179.4134504860267" r="3" style="fill: steelblue;"></circle><circle cx="219.10338912159204" cy="207.988544087857" r="3" style="fill: steelblue;"></circle><circle cx="211.90089851617813" cy="212.65682503581047" r="3" style="fill: steelblue;"></circle><circle cx="415.9595985710621" cy="80.39655648171902" r="3" style="fill: steelblue;"></circle><circle cx="88.65785345435144" cy="292.5365764647722" r="3" style="fill: steelblue;"></circle><circle cx="161.28580391407013" cy="245.4629048705101" r="3" style="fill: steelblue;"></circle><circle cx="199.02376558631659" cy="221.00311489775777" r="3" style="fill: steelblue;"></circle><circle cx="404.8392404615879" cy="87.60419599711895" r="3" style="fill: steelblue;"></circle><circle cx="325.1612477749586" cy="139.24733940511942" r="3" style="fill: steelblue;"></circle><circle cx="254.34208477847278" cy="185.14864875469357" r="3" style="fill: steelblue;"></circle><circle cx="276.9606932345778" cy="170.48843957018107" r="3" style="fill: steelblue;"></circle><circle cx="28.915932476520553" cy="331.2581919133663" r="3" style="fill: steelblue;"></circle><circle cx="203.38920157402754" cy="218.17366564646363" r="3" style="fill: steelblue;"></circle><circle cx="259.6599415456876" cy="181.70188973890617" r="3" style="fill: steelblue;"></circle><circle cx="0.41946664452554294" cy="349.72812347114086" r="3" style="fill: steelblue;"></circle><circle cx="124.92702908813955" cy="269.0287774428725" r="3" style="fill: steelblue;"></circle><circle cx="198.0353480949998" cy="221.643755864352" r="3" style="fill: steelblue;"></circle><circle cx="303.5167489014566" cy="153.27618126757443" r="3" style="fill: steelblue;"></circle><circle cx="198.02389673888683" cy="221.6511780396104" r="3" style="fill: steelblue;"></circle><circle cx="251.6906834486872" cy="186.86714961659163" r="3" style="fill: steelblue;"></circle><circle cx="446.9322529435158" cy="60.321687906980515" r="3" style="fill: steelblue;"></circle><circle cx="469.3407413363457" cy="45.797667652368546" r="3" style="fill: steelblue;"></circle><circle cx="423.4963008016348" cy="75.5116568878293" r="3" style="fill: steelblue;"></circle><circle cx="166.66554741561413" cy="241.97603408247232" r="3" style="fill: steelblue;"></circle><circle cx="329.8048958927393" cy="136.23756747692823" r="3" style="fill: steelblue;"></circle><circle cx="332.7946302294731" cy="134.29977670311928" r="3" style="fill: steelblue;"></circle><circle cx="423.6131680011749" cy="75.4359096288681" r="3" style="fill: steelblue;"></circle><circle cx="393.08792620897293" cy="95.22078856825829" r="3" style="fill: steelblue;"></circle><circle cx="412.8560145199299" cy="82.40813873708248" r="3" style="fill: steelblue;"></circle><circle cx="399.8047173768282" cy="90.86731281131506" r="3" style="fill: steelblue;"></circle><circle cx="267.08200857276097" cy="176.89129073987715" r="3" style="fill: steelblue;"></circle><circle cx="164.6330700069666" cy="243.29338055104017" r="3" style="fill: steelblue;"></circle><circle cx="343.8327719271183" cy="127.1454256027937" r="3" style="fill: steelblue;"></circle><circle cx="205.68659406155348" cy="216.68461496010423" r="3" style="fill: steelblue;"></circle><circle cx="115.43879851698877" cy="275.17855651676655" r="3" style="fill: steelblue;"></circle><circle cx="240.08649297058582" cy="194.3883841857314" r="3" style="fill: steelblue;"></circle><circle cx="99.65892031788827" cy="285.40625534951687" r="3" style="fill: steelblue;"></circle><circle cx="286.4442165289074" cy="164.3417115090415" r="3" style="fill: steelblue;"></circle><circle cx="292.4099116399884" cy="160.47505727037787" r="3" style="fill: steelblue;"></circle><circle cx="197.8364958241582" cy="221.77264159545302" r="3" style="fill: steelblue;"></circle><circle cx="309.4544052891433" cy="149.42770027555525" r="3" style="fill: steelblue;"></circle><circle cx="450.42452931404114" cy="58.058175444602966" r="3" style="fill: steelblue;"></circle><circle cx="407.37801164388657" cy="85.95869615674019" r="3" style="fill: steelblue;"></circle><circle cx="120.41446052491666" cy="271.953590400517" r="3" style="fill: steelblue;"></circle><circle cx="342.3588813096285" cy="128.10072507709265" r="3" style="fill: steelblue;"></circle><circle cx="250.25319376029074" cy="187.79885589610785" r="3" style="fill: steelblue;"></circle><circle cx="314.8416195809841" cy="145.9359873086214" r="3" style="fill: steelblue;"></circle><circle cx="334.2722826451063" cy="133.34203902631998" r="3" style="fill: steelblue;"></circle><circle cx="436.9915705919266" cy="66.76472276449203" r="3" style="fill: steelblue;"></circle><circle cx="416.76375836133957" cy="79.87534180283546" r="3" style="fill: steelblue;"></circle><circle cx="110.83248674869539" cy="278.1641289591789" r="3" style="fill: steelblue;"></circle><circle cx="159.43272605538368" cy="246.66397385299206" r="3" style="fill: steelblue;"></circle><circle cx="161.46358408033848" cy="245.3476769849658" r="3" style="fill: steelblue;"></circle><circle cx="342.35522512346506" cy="128.10309482738376" r="3" style="fill: steelblue;"></circle><circle cx="486.84597730636597" cy="34.45168137550354" r="3" style="fill: steelblue;"></circle><circle cx="258.1807797588408" cy="182.66060571186244" r="3" style="fill: steelblue;"></circle><circle cx="302.8623393550515" cy="153.70033560320735" r="3" style="fill: steelblue;"></circle><circle cx="115.49324400722982" cy="275.1432677730918" r="3" style="fill: steelblue;"></circle><circle cx="323.40602193027735" cy="140.38498578593135" r="3" style="fill: steelblue;"></circle><circle cx="168.73062372207642" cy="240.63755869865417" r="3" style="fill: steelblue;"></circle><circle cx="115.23164816200735" cy="275.312820635736" r="3" style="fill: steelblue;"></circle><circle cx="255.6177505105734" cy="184.3218283727765" r="3" style="fill: steelblue;"></circle><circle cx="90.55144608020784" cy="291.3092479109764" r="3" style="fill: steelblue;"></circle><circle cx="411.5176894515753" cy="83.27557165175676" r="3" style="fill: steelblue;"></circle><circle cx="303.99986336007714" cy="152.96305152587593" r="3" style="fill: steelblue;"></circle><circle cx="413.3665730059147" cy="82.07722119987011" r="3" style="fill: steelblue;"></circle><circle cx="440.3945495188236" cy="64.55908827483654" r="3" style="fill: steelblue;"></circle><circle cx="439.75415870547295" cy="64.97415639460087" r="3" style="fill: steelblue;"></circle><circle cx="296.5277277678251" cy="157.80610237270594" r="3" style="fill: steelblue;"></circle><circle cx="279.0094424318522" cy="169.16054657194763" r="3" style="fill: steelblue;"></circle><circle cx="24.879060387611403" cy="333.87468308210373" r="3" style="fill: steelblue;"></circle><circle cx="162.06712134182453" cy="244.9564954265952" r="3" style="fill: steelblue;"></circle><circle cx="161.1901194602251" cy="245.52492257207632" r="3" style="fill: steelblue;"></circle><circle cx="347.2437421604991" cy="124.93461156263947" r="3" style="fill: steelblue;"></circle><circle cx="185.72022680193186" cy="229.6257789246738" r="3" style="fill: steelblue;"></circle></g></svg>