<svg xmlns="http://www.w3.org/2000/svg"><g transform="translate(40,20)"><circle cx="417.7915037423372" cy="126.56762550274533" r="3" style="fill: steelblue;"></circle><circle cx="265.13535629957914" cy="122.73342675632902" r="3" style="fill: steelblue;"></circle><circle cx="346.42756775021553" cy="174.34406007329625" r="3" style="fill: steelblue;"></circle><circle cx="231.30433129146695" cy="190.47006774279805" r="3" style="fill: steelblue;"></circle><circle cx="433.1464496254921" cy="93.16820916202335" r="3" style="fill: steelblue;"></circle><circle cx="293.7344518303871" cy="54.03641793462965" r="3" style="fill: steelblue;"></circle><circle cx="326.96903821080923" cy="204.97428394026224" r="3" style="fill: steelblue;"></circle><circle cx="384.75272700190544" cy="160.6771397093932" r="3" style="fill: steelblue;"></circle><circle cx="401.7318443208933" cy="42.81268947654302" r="3" style="fill: steelblue;"></circle><circle cx="472.15700045228004" cy="161.9319078202049" r="3" style="fill: steelblue;"></circle><circle cx="486.8905757367611" cy="78.7232486738099" r="3" style="fill: steelblue;"></circle><circle cx="341.68642971664667" cy="23.55747852060529" r="3" style="fill: steelblue;"></circle><circle cx="296.41430804505944" cy="82.63703452216254" r="3" style="fill: steelblue;"></circle><circle cx="398.94609197974205" cy="118.0511362850666" r="3" style="fill: steelblue;"></circle><circle cx="395.42280592024326" cy="153.47879303412304" r="3" style="fill: steelblue;"></circle><circle cx="530.3952281177044" cy="33.29696026113299" r="3" style="fill: steelblue;"></circle><circle cx="416.8546852469444" cy="133.5715686281522" r="3" style="fill: steelblue;"></circle><circle cx="484.72239196300507" cy="92.32929944992065" r="3" style="fill: steelblue;"></circle><circle cx="228.37307581678033" cy="186.64807884229555" r="3" style="fill: steelblue;"></circle><circle cx="389.5824634283781" cy="101.57695098055734" r="3" style="fill: steelblue;"></circle><circle cx="199.66842614114285" cy="110.83448280890781" r="3" style="fill: steelblue;"></circle><circle cx="281.7556393146515" cy="247.71875821881827" r="3" style="fill: steelblue;"></circle><circle cx="368.56736920773983" cy="55.48856092823877" r="3" style="fill: steelblue;"></circle><circle cx="366.53223641216755" cy="175.720697020491" r="3" style="fill: steelblue;"></circle><circle cx="263.23102897033095" cy="145.02857931786116" r="3" style="fill: steelblue;"></circle><circle cx="196.97755862027407" cy="156.34376427365675" r="3" style="fill: steelblue;"></circle><circle cx="308.1796561181545" cy="86.47407276762857" r="3" style="fill: steelblue;"></circle><circle cx="166.58100754022598" cy="162.12445845206577" r="3" style="fill: steelblue;"></circle><circle cx="226.00450336933136" cy="60.727836522791115" r="3" style="fill: steelblue;"></circle><circle cx="125.74373155832292" cy="202.16344934370784" r="3" style="fill: steelblue;"></circle><circle cx="131.28301955759528" cy="153.67128100867075" r="3" style="fill: steelblue;"></circle><circle cx="281.09719262458384" cy="97.0543243818813" r="3" style="fill: steelblue;"></circle><circle cx="274.6905747265555" cy="139.55898413227663" r="3" style="fill: steelblue;"></circle><circle cx="376.9221217185259" cy="164.2517734732893" r="3" style="fill: steelblue;"></circle><circle cx="297.1033985540271" cy="64.06314108106824" r="3" style="fill: steelblue;"></circle><circle cx="221.86397060751915" cy="228.4416135814455" r="3" style="fill: steelblue;"></circle><circle cx="196.6327053308487" cy="81.79987486865787" r="3" style="fill: steelblue;"></circle><circle cx="52.14720860123636" cy="180.4104440742069" r="3" style="fill: steelblue;"></circle><circle cx="87.44241043925287" cy="144.94131470306053" r="3" style="fill: steelblue;"></circle><circle cx="107.78427354991437" cy="182.9909402463171" r="3" style="fill: steelblue;"></circle><circle cx="139.59711648523808" cy="193.13701507118014" r="3" style="fill: steelblue;"></circle><circle cx="254.83243491500616" cy="119.7917636897829" r="3" style="fill: steelblue;"></circle><circle cx="272.19940374372527" cy="216.01465029848947" r="3" style="fill: steelblue;"></circle><circle cx="315.5625018104911" cy="235.19857244359122" r="3" style="fill: steelblue;"></circle><circle cx="260.01885757315904" cy="101.14933401346207" r="3" style="fill: steelblue;"></circle><circle cx="68.77421557903291" cy="205.92207395368155" r="3" style="fill: steelblue;"></circle><circle cx="225.47335054725409" cy="214.72016904089185" r="3" style="fill: steelblue;"></circle><circle cx="227.03801717609167" cy="143.04721020162106" r="3" style="fill: steelblue;"></circle><circle cx="230.24361234158278" cy="175.11690217587682" r="3" style="fill: steelblue;"></circle><circle cx="337.63002444058657" cy="83.979109260771" r="3" style="fill: steelblue;"></circle><circle cx="258.28702666796744" cy="173.8362069759104" r="3" style="fill: steelblue;"></circle><circle cx="161.1379773169756" cy="103.83276492357254" r="3" style="fill: steelblue;"></circle><circle cx="235.07340157404542" cy="311.5898761484358" r="3" style="fill: steelblue;"></circle><circle cx="172.63602398335934" cy="192.7617752717601" r="3" style="fill: steelblue;"></circle><circle cx="186.32670611143112" cy="167.469183045129" r="3" style="fill: steelblue;"></circle><circle cx="213.84081959724426" cy="159.9311569498645" r="3" style="fill: steelblue;"></circle><circle cx="172.07919739186764" cy="186.72499739461477" r="3" style="fill: steelblue;"></circle><circle cx="230.3062754496932" cy="210.08256011539038" r="3" style="fill: steelblue;"></circle><circle cx="333.5318420827389" cy="253.55697108639612" r="3" style="fill: steelblue;"></circle><circle cx="266.3952280115336" cy="94.15761811865701" r="3" style="fill: steelblue;"></circle><circle cx="294.4199817068875" cy="239.53404708041086" r="3" style="fill: steelblue;"></circle><circle cx="451.6390872001648" cy="74.77628125084772" r="3" style="fill: steelblue;"></circle><circle cx="355.98898239433765" cy="61.26826273070441" r="3" style="fill: steelblue;"></circle><circle cx="394.66794177889824" cy="114.97571542859077" r="3" style="fill: steelblue;"></circle><circle cx="96.32932662963869" cy="161.8305956530902" r="3" style="fill: steelblue;"></circle><circle cx="285.0928370654583" cy="69.83263807164298" r="3" style="fill: steelblue;"></circle><circle cx="312.7969867363572" cy="130.2563115126557" r="3" style="fill: steelblue;"></circle><circle cx="300.6510985828936" cy="124.9225153691239" r="3" style="fill: steelblue;"></circle><circle cx="191.99844662100077" cy="84.62785366508695" r="3" style="fill: steelblue;"></circle><circle cx="182.8874871879816" cy="113.78089479274222" r="3" style="fill: steelblue;"></circle><circle cx="383.4795494377613" cy="187.72579042447938" r="3" style="fill: steelblue;"></circle><circle cx="166.710055321455" cy="139.8564361449745" r="3" style="fill: steelblue;"></circle><circle cx="228.82750656455755" cy="253.53234277831183" r="3" style="fill: steelblue;"></circle><circle cx="250.11126508936286" cy="83.15967039929495" r="3" style="fill: steelblue;"></circle><circle cx="226.20641838759184" cy="250.22742665476267" r="3" style="fill: steelblue;"></circle><circle cx="180.28607301414013" cy="214.00285363197327" r="3" style="fill: steelblue;"></circle><circle cx="98.09884026646615" cy="217.25588805145685" r="3" style="fill: steelblue;"></circle><circle cx="206.50058079510927" cy="279.242256614897" r="3" style="fill: steelblue;"></circle><circle cx="164.85175721347332" cy="222.33321948183908" r="3" style="fill: steelblue;"></circle><circle cx="208.256973400712" cy="267.5677084260517" r="3" style="fill: steelblue;"></circle><circle cx="116.40841707587244" cy="224.81212533182565" r="3" style="fill: steelblue;"></circle><circle cx="70.37871301174165" cy="152.23135039624242" r="3" style="fill: steelblue;"></circle><circle cx="182.76130601763725" cy="133.98120258417396" r="3" style="fill: steelblue;"></circle><circle cx="283.7369188014418" cy="186.6812604169051" r="3" style="fill: steelblue;"></circle><circle cx="304.9893596023321" cy="155.9137898251518" r="3" style="fill: steelblue;"></circle><circle cx="304.1946143656969" cy="146.38528254710968" r="3" style="fill: steelblue;"></circle><circle cx="364.8126319795847" cy="161.1128941592243" r="3" style="fill: steelblue;"></circle><circle cx="334.08759243786335" cy="69.03323796060351" r="3" style="fill: steelblue;"></circle><circle cx="358.7600999325514" cy="45.534783932897774" r="3" style="fill: steelblue;"></circle><circle cx="436.81380048394203" cy="109.32886161737973" r="3" style="fill: steelblue;"></circle><circle cx="417.5269205868244" cy="142.6857216904561" r="3" style="fill: steelblue;"></circle><circle cx="532.0003692805767" cy="101.61402093039618" r="3" style="fill: steelblue;"></circle><circle cx="477.6253071427345" cy="176.71674547923936" r="3" style="fill: steelblue;"></circle><circle cx="433.0463194102049" cy="120.3208290040493" r="3" style="fill: steelblue;"></circle><circle cx="337.5960374996066" cy="213.76053426000806" r="3" style="fill: steelblue;"></circle><circle cx="262.4345813691616" cy="270.1578531000349" r="3" style="fill: steelblue;"></circle><circle cx="180.64756773412228" cy="225.9594741794798" r="3" style="fill: steelblue;"></circle><circle cx="194.08480122685432" cy="244.1956642601225" r="3" style="fill: steelblue;"></circle><circle cx="234.95855106040835" cy="148.98326699104575" r="3" style="fill: steelblue;"></circle><circle cx="237.07536717876792" cy="270.94943589634363" r="3" style="fill: steelblue;"></circle><circle cx="192.91410248726606" cy="203.0252459976408" r="3" style="fill: steelblue;"></circle><circle cx="216.68768104165792" cy="266.104010409779" r="3" style="fill: steelblue;"></circle><circle cx="135.80592803657055" cy="192.13392146759566" r="3" style="fill: steelblue;"></circle><circle cx="243.20771673694253" cy="190.0883289674918" r="3" style="fill: steelblue;"></circle><circle cx="61.93945080041887" cy="265.04812240600586" r="3" style="fill: steelblue;"></circle><circle cx="107.07450069487096" cy="197.06052185760603" r="3" style="fill: steelblue;"></circle><circle cx="358.0298584699631" cy="136.31575033068657" r="3" style="fill: steelblue;"></circle><circle cx="420.4732836037874" cy="149.5675725138022" r="3" style="fill: steelblue;"></circle><circle cx="440.8668865263462" cy="46.3213599390454" r="3" style="fill: steelblue;"></circle><circle cx="515.4054482281208" cy="97.40156034628552" r="3" style="fill: steelblue;"></circle><circle cx="300.870892200619" cy="29.83853154712255" r="3" style="fill: steelblue;"></circle><circle cx="418.670869320631" cy="93.59390222364003" r="3" style="fill: steelblue;"></circle><circle cx="211.176294721663" cy="237.67649895615045" r="3" style="fill: steelblue;"></circle><circle cx="79.53048393130304" cy="251.81130501959058" r="3" style="fill: steelblue;"></circle><circle cx="195.93942806124687" cy="129.18454549378822" r="3" style="fill: steelblue;"></circle><circle cx="14.217883050441756" cy="232.48024466964932" r="3" style="fill: steelblue;"></circle><circle cx="137.74721704423428" cy="242.48213089174692" r="3" style="fill: steelblue;"></circle><circle cx="213.168443441391" cy="170.83830878966387" r="3" style="fill: steelblue;"></circle></g></svg>