<svg xmlns="http://www.w3.org/2000/svg"><g transform="translate(40,20)"><circle cx="196.90952092409134" cy="170.77573057678012" r="3" style="fill: steelblue;"></circle><circle cx="383.47496330738073" cy="136.19120584593878" r="3" style="fill: steelblue;"></circle><circle cx="414.53951239585876" cy="247.0642386211289" r="3" style="fill: steelblue;"></circle><circle cx="338.3078062534332" cy="196.0672674079736" r="3" style="fill: steelblue;"></circle><circle cx="426.39296293258667" cy="127.93587230973772" r="3" style="fill: steelblue;"></circle><circle cx="389.37170147895813" cy="132.44558788008158" r="3" style="fill: steelblue;"></circle><circle cx="177.83899694681168" cy="120.11376519997913" r="3" style="fill: steelblue;"></circle><circle cx="259.2518837749958" cy="211.0611798448695" r="3" style="fill: steelblue;"></circle><circle cx="453.3317470550537" cy="146.66716961397066" r="3" style="fill: steelblue;"></circle><circle cx="392.78822779655457" cy="38.18482988410528" r="3" style="fill: steelblue;"></circle><circle cx="411.69304490089417" cy="57.844652069939514" r="3" style="fill: steelblue;"></circle><circle cx="281.9905185699463" cy="193.19117648733987" r="3" style="fill: steelblue;"></circle><circle cx="264.3066497147083" cy="185.44275799973144" r="3" style="fill: steelblue;"></circle><circle cx="470.3239345550537" cy="75.33911863962811" r="3" style="fill: steelblue;"></circle><circle cx="335.82231044769287" cy="216.2575963884592" r="3" style="fill: steelblue;"></circle><circle cx="433.07652711868286" cy="105.48262049754459" r="3" style="fill: steelblue;"></circle><circle cx="452.6941680908203" cy="87.56806453069049" r="3" style="fill: steelblue;"></circle><circle cx="351.4238530397415" cy="114.5409991343816" r="3" style="fill: steelblue;"></circle><circle cx="360.14544010162354" cy="75.24693343374463" r="3" style="fill: steelblue;"></circle><circle cx="363.7579196691513" cy="95.44542597399817" r="3" style="fill: steelblue;"></circle><circle cx="266.56703889369965" cy="146.51228942804863" r="3" style="fill: steelblue;"></circle><circle cx="267.6631124317646" cy="166.34701896044942" r="3" style="fill: steelblue;"></circle><circle cx="127.22881078720094" cy="67.08652608924443" r="3" style="fill: steelblue;"></circle><circle cx="400.56720614433294" cy="244.69919668303595" r="3" style="fill: steelblue;"></circle><circle cx="224.27225276827812" cy="205.57497358984415" r="3" style="fill: steelblue;"></circle><circle cx="244.5674893073738" cy="185.55502179596158" r="3" style="fill: steelblue;"></circle><circle cx="156.2189215421677" cy="172.5659767786662" r="3" style="fill: steelblue;"></circle><circle cx="173.43613743782046" cy="202.82888102034724" r="3" style="fill: steelblue;"></circle><circle cx="299.90418344736105" cy="119.8093593120575" r="3" style="fill: steelblue;"></circle><circle cx="293.5350412130356" cy="177.6068699028757" r="3" style="fill: steelblue;"></circle><circle cx="257.2448080033064" cy="163.04017023907767" r="3" style="fill: steelblue;"></circle><circle cx="254.84146267175674" cy="257.2153550055292" r="3" style="fill: steelblue;"></circle><circle cx="277.97870725393295" cy="187.88268882781267" r="3" style="fill: steelblue;"></circle><circle cx="303.3938446640969" cy="133.25993882285223" r="3" style="fill: steelblue;"></circle><circle cx="141.688688993454" cy="219.33407626218263" r="3" style="fill: steelblue;"></circle><circle cx="181.65298193693164" cy="206.0449737020665" r="3" style="fill: steelblue;"></circle><circle cx="164.9443084001541" cy="238.07767323321764" r="3" style="fill: steelblue;"></circle><circle cx="211.26755565404892" cy="125.68930122587415" r="3" style="fill: steelblue;"></circle><circle cx="129.43789601325992" cy="188.21196423636542" r="3" style="fill: steelblue;"></circle><circle cx="194.99997586011887" cy="295.41240632534027" r="3" style="fill: steelblue;"></circle><circle cx="236.47167641669512" cy="211.179967969656" r="3" style="fill: steelblue;"></circle><circle cx="122.77165889739992" cy="308.009652627839" r="3" style="fill: steelblue;"></circle><circle cx="117.06367671489716" cy="194.11640439001428" r="3" style="fill: steelblue;"></circle><circle cx="146.24244511127472" cy="334.65508288807337" r="3" style="fill: steelblue;"></circle><circle cx="279.61031287908554" cy="310.1343280739254" r="3" style="fill: steelblue;"></circle><circle cx="88.06074500083925" cy="258.18164232704373" r="3" style="fill: steelblue;"></circle><circle cx="137.5046306848526" cy="273.0198792285389" r="3" style="fill: steelblue;"></circle><circle cx="331.8892711400986" cy="152.43754453129236" r="3" style="fill: steelblue;"></circle><circle cx="321.2840133905411" cy="289.1444381740358" r="3" style="fill: steelblue;"></circle><circle cx="281.5710702538491" cy="202.66431683881416" r="3" style="fill: steelblue;"></circle><circle cx="255.56561551988125" cy="184.63848510550127" r="3" style="fill: steelblue;"></circle><circle cx="283.51443350315094" cy="286.4228594634268" r="3" style="fill: steelblue;"></circle><circle cx="52.220156192779555" cy="190.83523000073103" r="3" style="fill: steelblue;"></circle><circle cx="55.80566167831422" cy="204.1647776754366" r="3" style="fill: steelblue;"></circle><circle cx="205.82394540309906" cy="276.96396658817923" r="3" style="fill: steelblue;"></circle><circle cx="79.86403942108154" cy="161.40600376658966" r="3" style="fill: steelblue;"></circle><circle cx="145.72350919246676" cy="265.3685187300046" r="3" style="fill: steelblue;"></circle><circle cx="83.25544238090517" cy="250.9352291623751" r="3" style="fill: steelblue;"></circle><circle cx="146.8714410066605" cy="271.54702527655496" r="3" style="fill: steelblue;"></circle><circle cx="326.59509122371674" cy="148.7132575776842" r="3" style="fill: steelblue;"></circle><circle cx="407.9889142513275" cy="90.61915841367511" r="3" style="fill: steelblue;"></circle><circle cx="201.5855321288109" cy="91.5810184346305" r="3" style="fill: steelblue;"></circle><circle cx="349.8978102207184" cy="140.57330621613397" r="3" style="fill: steelblue;"></circle><circle cx="157.8186357021332" cy="176.43594886693688" r="3" style="fill: steelblue;"></circle><circle cx="290.3975495696068" cy="130.10330249865848" r="3" style="fill: steelblue;"></circle><circle cx="368.625950217247" cy="181.53521397875414" r="3" style="fill: steelblue;"></circle><circle cx="381.0219222307205" cy="201.28581755691107" r="3" style="fill: steelblue;"></circle><circle cx="156.25431776046753" cy="119.5107599099477" r="3" style="fill: steelblue;"></circle><circle cx="329.90893363952637" cy="263.20448435015146" r="3" style="fill: steelblue;"></circle><circle cx="256.01356118917465" cy="209.24909123116072" r="3" style="fill: steelblue;"></circle><circle cx="427.4471068382263" cy="118.3987135688464" r="3" style="fill: steelblue;"></circle><circle cx="301.3442748785019" cy="219.2349255912834" r="3" style="fill: steelblue;"></circle><circle cx="152.66624629497528" cy="283.35509945948917" r="3" style="fill: steelblue;"></circle><circle cx="279.27779495716095" cy="229.83343982034262" r="3" style="fill: steelblue;"></circle><circle cx="134.3941444158554" cy="196.81055463540054" r="3" style="fill: steelblue;"></circle><circle cx="190.8280947804451" cy="311.09172602494556" r="3" style="fill: steelblue;"></circle><circle cx="33.060564994812026" cy="219.5129618048668" r="3" style="fill: steelblue;"></circle><circle cx="154.25373852252963" cy="265.78963382376566" r="3" style="fill: steelblue;"></circle><circle cx="130.1482880115509" cy="263.27945291996" r="3" style="fill: steelblue;"></circle><circle cx="130.3272181749344" cy="228.1118950082196" r="3" style="fill: steelblue;"></circle><circle cx="196.29976987838745" cy="301.79522931575775" r="3" style="fill: steelblue;"></circle><circle cx="117.4301826953888" cy="216.570825005571" r="3" style="fill: steelblue;"></circle><circle cx="129.1110062599182" cy="304.80164455042944" r="3" style="fill: steelblue;"></circle><circle cx="255.9438293427229" cy="237.4159801337454" r="3" style="fill: steelblue;"></circle><circle cx="346.0367614030838" cy="203.24179706060227" r="3" style="fill: steelblue;"></circle><circle cx="330.76678454875946" cy="190.11933760096628" r="3" style="fill: steelblue;"></circle><circle cx="264.4340389966965" cy="116.55950629048876" r="3" style="fill: steelblue;"></circle><circle cx="354.7678345441818" cy="242.36463589800726" r="3" style="fill: steelblue;"></circle><circle cx="348.93462002277374" cy="203.9116399569644" r="3" style="fill: steelblue;"></circle><circle cx="399.9106192588806" cy="201.99160329583617" r="3" style="fill: steelblue;"></circle><circle cx="356.35726690292364" cy="77.42421494589911" r="3" style="fill: steelblue;"></circle><circle cx="486.40708565711975" cy="118.207186460495" r="3" style="fill: steelblue;"></circle><circle cx="411.3544428348541" cy="75.62907205687628" r="3" style="fill: steelblue;"></circle><circle cx="407.09291338920593" cy="72.00182643201617" r="3" style="fill: steelblue;"></circle><circle cx="277.2948311269284" cy="304.68391544289057" r="3" style="fill: steelblue;"></circle><circle cx="166.57988369464877" cy="255.21776162915762" r="3" style="fill: steelblue;"></circle><circle cx="213.65984916687015" cy="292.03959140512677" r="3" style="fill: steelblue;"></circle><circle cx="148.8647156953812" cy="257.24339650736914" r="3" style="fill: steelblue;"></circle><circle cx="170.77330738306048" cy="321.90882662932074" r="3" style="fill: steelblue;"></circle><circle cx="225.15726886689663" cy="292.1844869852066" r="3" style="fill: steelblue;"></circle><circle cx="269.59604635834694" cy="223.82998259531126" r="3" style="fill: steelblue;"></circle><circle cx="237.89557331241667" cy="252.8061866760254" r="3" style="fill: steelblue;"></circle><circle cx="339.9584019184113" cy="230.53831938240262" r="3" style="fill: steelblue;"></circle><circle cx="240.97154185641557" cy="309.7767482201258" r="3" style="fill: steelblue;"></circle><circle cx="129.0843629837036" cy="104.5899283554819" r="3" style="fill: steelblue;"></circle><circle cx="186.76923304796222" cy="157.5564137763447" r="3" style="fill: steelblue;"></circle><circle cx="454.3660068511963" cy="195.74589777686117" r="3" style="fill: steelblue;"></circle><circle cx="310.58197259902954" cy="152.30817637509767" r="3" style="fill: steelblue;"></circle><circle cx="149.04262661933902" cy="155.9579148888588" r="3" style="fill: steelblue;"></circle><circle cx="454.64547514915466" cy="136.81121915578842" r="3" style="fill: steelblue;"></circle><circle cx="329.9905890226364" cy="65.91785781913335" r="3" style="fill: steelblue;"></circle><circle cx="430.55954217910767" cy="60.703865355915475" r="3" style="fill: steelblue;"></circle><circle cx="301.98978871107107" cy="45.99189923869238" r="3" style="fill: steelblue;"></circle><circle cx="72.38403797149658" cy="267.06179893679086" r="3" style="fill: steelblue;"></circle><circle cx="208.6226047575474" cy="298.0489333470662" r="3" style="fill: steelblue;"></circle><circle cx="279.47355598211294" cy="279.80443918042715" r="3" style="fill: steelblue;"></circle><circle cx="258.5512360185385" cy="286.29067788521445" r="3" style="fill: steelblue;"></circle><circle cx="127.4004900455475" cy="241.98536574840546" r="3" style="fill: steelblue;"></circle></g></svg>