<svg xmlns="http://www.w3.org/2000/svg"><g transform="translate(40,20)"><circle cx="418.08858521282673" cy="79.20921053737402" r="3" style="fill: steelblue;"></circle><circle cx="230.71500135585666" cy="178.15300980582833" r="3" style="fill: steelblue;"></circle><circle cx="409.65156599879265" cy="125.46361349523067" r="3" style="fill: steelblue;"></circle><circle cx="353.1555990502238" cy="200.08052601478994" r="3" style="fill: steelblue;"></circle><circle cx="285.15971585176885" cy="69.25693079829216" r="3" style="fill: steelblue;"></circle><circle cx="332.42534033954144" cy="159.61655899882317" r="3" style="fill: steelblue;"></circle><circle cx="431.771884560585" cy="138.0756233818829" r="3" style="fill: steelblue;"></circle><circle cx="307.0652007870376" cy="100.62323249876499" r="3" style="fill: steelblue;"></circle><circle cx="392.50859923660755" cy="89.61824905127287" r="3" style="fill: steelblue;"></circle><circle cx="428.82716104388237" cy="43.97231452167034" r="3" style="fill: steelblue;"></circle><circle cx="432.27149963378906" cy="34.422774985432625" r="3" style="fill: steelblue;"></circle><circle cx="273.63020153017715" cy="128.53657333180308" r="3" style="fill: steelblue;"></circle><circle cx="238.0252891033888" cy="157.87961515598" r="3" style="fill: steelblue;"></circle><circle cx="383.4153474122286" cy="91.42382927238941" r="3" style="fill: steelblue;"></circle><circle cx="393.36948774755" cy="93.70744060724974" r="3" style="fill: steelblue;"></circle><circle cx="378.51687267422676" cy="6.225315108895302" r="3" style="fill: steelblue;"></circle><circle cx="355.84478683769703" cy="79.8164077103138" r="3" style="fill: steelblue;"></circle><circle cx="311.3392748683691" cy="35.82807928323746" r="3" style="fill: steelblue;"></circle><circle cx="190.98614070564508" cy="201.9804138224572" r="3" style="fill: steelblue;"></circle><circle cx="432.531516328454" cy="97.49284777790308" r="3" style="fill: steelblue;"></circle><circle cx="193.74821081757545" cy="220.58527935296297" r="3" style="fill: steelblue;"></circle><circle cx="201.60163331776857" cy="167.38060414791107" r="3" style="fill: steelblue;"></circle><circle cx="227.32403453439474" cy="111.11374218016863" r="3" style="fill: steelblue;"></circle><circle cx="146.31132267415524" cy="112.43280973285437" r="3" style="fill: steelblue;"></circle><circle cx="266.88430388923734" cy="179.38729603774846" r="3" style="fill: steelblue;"></circle><circle cx="315.7578990608454" cy="222.32936015352607" r="3" style="fill: steelblue;"></circle><circle cx="346.70178674161434" cy="150.25392659008503" r="3" style="fill: steelblue;"></circle><circle cx="237.69705964252353" cy="242.03082844614983" r="3" style="fill: steelblue;"></circle><circle cx="451.8084888160229" cy="203.51559966802597" r="3" style="fill: steelblue;"></circle><circle cx="92.84710854291917" cy="268.49943324923515" r="3" style="fill: steelblue;"></circle><circle cx="265.7794095855206" cy="264.9091539904475" r="3" style="fill: steelblue;"></circle><circle cx="230.57553319260478" cy="167.8073751507327" r="3" style="fill: steelblue;"></circle><circle cx="192.96931240707636" cy="171.95981267723255" r="3" style="fill: steelblue;"></circle><circle cx="366.8302834779024" cy="105.69862481206656" r="3" style="fill: steelblue;"></circle><circle cx="208.309764303267" cy="157.43298241868615" r="3" style="fill: steelblue;"></circle><circle cx="133.1618566811085" cy="206.1992783099413" r="3" style="fill: steelblue;"></circle><circle cx="205.9993664547801" cy="222.55287617444992" r="3" style="fill: steelblue;"></circle><circle cx="118.14563356339933" cy="316.2008833140135" r="3" style="fill: steelblue;"></circle><circle cx="184.41441513597965" cy="293.32436360418797" r="3" style="fill: steelblue;"></circle><circle cx="261.6206474415958" cy="280.1398226991296" r="3" style="fill: steelblue;"></circle><circle cx="194.01117961853743" cy="259.5203874632716" r="3" style="fill: steelblue;"></circle><circle cx="71.10761672258378" cy="184.83082922175527" r="3" style="fill: steelblue;"></circle><circle cx="196.07945948839188" cy="173.57446053647436" r="3" style="fill: steelblue;"></circle><circle cx="192.25674837827682" cy="145.46874882653356" r="3" style="fill: steelblue;"></circle><circle cx="63.41172203421594" cy="181.46925898035988" r="3" style="fill: steelblue;"></circle><circle cx="78.49952995777132" cy="305.4241195321083" r="3" style="fill: steelblue;"></circle><circle cx="162.71876737475395" cy="203.85986538603902" r="3" style="fill: steelblue;"></circle><circle cx="61.99072793126108" cy="202.84572960808873" r="3" style="fill: steelblue;"></circle><circle cx="288.68988052010536" cy="200.76802903786302" r="3" style="fill: steelblue;"></circle><circle cx="350.66583182662725" cy="131.16572489961982" r="3" style="fill: steelblue;"></circle><circle cx="250.15562589280307" cy="182.59174197446555" r="3" style="fill: steelblue;"></circle><circle cx="298.3038094639778" cy="245.55871840566397" r="3" style="fill: steelblue;"></circle><circle cx="115.45373506844045" cy="197.6376100908965" r="3" style="fill: steelblue;"></circle><circle cx="77.19973817467691" cy="238.10628075152636" r="3" style="fill: steelblue;"></circle><circle cx="263.80086155142635" cy="229.23269048333168" r="3" style="fill: steelblue;"></circle><circle cx="355.1963896304369" cy="211.3994687795639" r="3" style="fill: steelblue;"></circle><circle cx="114.92579586803915" cy="238.46718687564135" r="3" style="fill: steelblue;"></circle><circle cx="98.73001769185068" cy="200.72741406038404" r="3" style="fill: steelblue;"></circle><circle cx="282.7986280247569" cy="133.8219542056322" r="3" style="fill: steelblue;"></circle><circle cx="368.62488247454166" cy="177.3364262888208" r="3" style="fill: steelblue;"></circle><circle cx="257.95155650004745" cy="159.17223407886922" r="3" style="fill: steelblue;"></circle><circle cx="332.1240997686982" cy="57.27096199989319" r="3" style="fill: steelblue;"></circle><circle cx="414.66217048466206" cy="119.26640029996634" r="3" style="fill: steelblue;"></circle><circle cx="297.46447836980224" cy="94.19670440256596" r="3" style="fill: steelblue;"></circle><circle cx="335.24731758981943" cy="287.5643253326416" r="3" style="fill: steelblue;"></circle><circle cx="400.1453713327646" cy="165.21760560572147" r="3" style="fill: steelblue;"></circle><circle cx="306.8721622042358" cy="147.26121230050921" r="3" style="fill: steelblue;"></circle><circle cx="256.8997014127672" cy="155.13354721479118" r="3" style="fill: steelblue;"></circle><circle cx="258.2717720232904" cy="225.55656237527728" r="3" style="fill: steelblue;"></circle><circle cx="457.10749447345734" cy="231.46181385964155" r="3" style="fill: steelblue;"></circle><circle cx="400.15903048217297" cy="101.44844017922878" r="3" style="fill: steelblue;"></circle><circle cx="267.77331441873685" cy="241.9471863657236" r="3" style="fill: steelblue;"></circle><circle cx="371.48609206080437" cy="201.6858753748238" r="3" style="fill: steelblue;"></circle><circle cx="140.59241384267807" cy="187.8908467013389" r="3" style="fill: steelblue;"></circle><circle cx="167.20835275948048" cy="203.38472882285714" r="3" style="fill: steelblue;"></circle><circle cx="193.15226756036282" cy="233.14791563898325" r="3" style="fill: steelblue;"></circle><circle cx="194.65591058135033" cy="286.417418345809" r="3" style="fill: steelblue;"></circle><circle cx="136.08134396374226" cy="216.15703096613288" r="3" style="fill: steelblue;"></circle><circle cx="68.99408966302873" cy="243.15163884311914" r="3" style="fill: steelblue;"></circle><circle cx="224.39456943422556" cy="215.01862835139036" r="3" style="fill: steelblue;"></circle><circle cx="380.24889908730984" cy="274.550100043416" r="3" style="fill: steelblue;"></circle><circle cx="139.21651102602482" cy="304.3841674923897" r="3" style="fill: steelblue;"></circle><circle cx="285.5731829814613" cy="231.5435979515314" r="3" style="fill: steelblue;"></circle><circle cx="216.29897363483906" cy="166.09644151758403" r="3" style="fill: steelblue;"></circle><circle cx="332.1847612783313" cy="152.32171136885881" r="3" style="fill: steelblue;"></circle><circle cx="216.78959157317877" cy="152.8368240222335" r="3" style="fill: steelblue;"></circle><circle cx="378.67891162633896" cy="113.54736816138029" r="3" style="fill: steelblue;"></circle><circle cx="353.394468203187" cy="133.4617456421256" r="3" style="fill: steelblue;"></circle><circle cx="387.27092899382114" cy="117.47030559927225" r="3" style="fill: steelblue;"></circle><circle cx="242.78013406321406" cy="66.87994413077831" r="3" style="fill: steelblue;"></circle><circle cx="420.3760602325201" cy="79.38069961965084" r="3" style="fill: steelblue;"></circle><circle cx="290.7654023543" cy="5.184945836663246" r="3" style="fill: steelblue;"></circle><circle cx="314.3957559764385" cy="40.42804166674614" r="3" style="fill: steelblue;"></circle><circle cx="284.7608860395849" cy="69.32183001190424" r="3" style="fill: steelblue;"></circle><circle cx="434.42293636500835" cy="131.1877534724772" r="3" style="fill: steelblue;"></circle><circle cx="87.29688718914987" cy="179.9035120755434" r="3" style="fill: steelblue;"></circle><circle cx="182.1359322220087" cy="232.9136135056615" r="3" style="fill: steelblue;"></circle><circle cx="283.1181407254189" cy="224.20429550111294" r="3" style="fill: steelblue;"></circle><circle cx="359.7473908960819" cy="197.71205023862422" r="3" style="fill: steelblue;"></circle><circle cx="216.86303716152906" cy="196.3400397915393" r="3" style="fill: steelblue;"></circle><circle cx="131.90950982272628" cy="224.96308172121644" r="3" style="fill: steelblue;"></circle><circle cx="127.14087747037412" cy="209.55428080633283" r="3" style="fill: steelblue;"></circle><circle cx="165.21512277424335" cy="261.9776392355561" r="3" style="fill: steelblue;"></circle><circle cx="284.2600048799068" cy="192.36536878161132" r="3" style="fill: steelblue;"></circle><circle cx="161.90738573670387" cy="309.8540596663952" r="3" style="fill: steelblue;"></circle><circle cx="183.47964853048325" cy="280.5998606607318" r="3" style="fill: steelblue;"></circle><circle cx="270.7230034272652" cy="117.94361025094986" r="3" style="fill: steelblue;"></circle><circle cx="477.2179466485977" cy="77.47101988643408" r="3" style="fill: steelblue;"></circle><circle cx="531.3919839262962" cy="64.25294391810894" r="3" style="fill: steelblue;"></circle><circle cx="445.07680132985115" cy="15.940913185477257" r="3" style="fill: steelblue;"></circle><circle cx="414.1419258713722" cy="154.9910883884877" r="3" style="fill: steelblue;"></circle><circle cx="524.2206086218357" cy="78.63925136625767" r="3" style="fill: steelblue;"></circle><circle cx="332.3853234574199" cy="213.12647564336658" r="3" style="fill: steelblue;"></circle><circle cx="67.69912585616113" cy="298.4524641185999" r="3" style="fill: steelblue;"></circle><circle cx="224.95203472673893" cy="223.00222255289555" r="3" style="fill: steelblue;"></circle><circle cx="162.8698629140854" cy="340.78470543026924" r="3" style="fill: steelblue;"></circle><circle cx="390.4093147069216" cy="260.7193963602185" r="3" style="fill: steelblue;"></circle><circle cx="333.2802039384842" cy="211.83526813983917" r="3" style="fill: steelblue;"></circle></g></svg>