<svg xmlns="http://www.w3.org/2000/svg"><g transform="translate(40,20)"><circle cx="431.36942625045776" cy="100.57273838255139" r="3" style="fill: steelblue;"></circle><circle cx="348.7976217269898" cy="217.52793755796222" r="3" style="fill: steelblue;"></circle><circle cx="349.7120136022568" cy="92.34864513079327" r="3" style="fill: steelblue;"></circle><circle cx="185.76553702354434" cy="114.65352442529468" r="3" style="fill: steelblue;"></circle><circle cx="294.1421502828598" cy="145.5971971154213" r="3" style="fill: steelblue;"></circle><circle cx="424.4033718109131" cy="173.80875017907886" r="3" style="fill: steelblue;"></circle><circle cx="342.68349051475525" cy="63.72426946957905" r="3" style="fill: steelblue;"></circle><circle cx="263.71619269251823" cy="128.52328353457978" r="3" style="fill: steelblue;"></circle><circle cx="267.6593081653118" cy="107.48927709129123" r="3" style="fill: steelblue;"></circle><circle cx="369.78047132492065" cy="59.019555648167916" r="3" style="fill: steelblue;"></circle><circle cx="243.07968920096755" cy="108.99385230408774" r="3" style="fill: steelblue;"></circle><circle cx="260.06693333387375" cy="133.23806309037735" r="3" style="fill: steelblue;"></circle><circle cx="166.05915516614914" cy="147.7335782514678" r="3" style="fill: steelblue;"></circle><circle cx="324.08249616622925" cy="149.6209179361661" r="3" style="fill: steelblue;"></circle><circle cx="288.2930079102516" cy="166.61081711451214" r="3" style="fill: steelblue;"></circle><circle cx="255.47902487218383" cy="166.21617890066568" r="3" style="fill: steelblue;"></circle><circle cx="242.9797243885696" cy="51.21135049396093" r="3" style="fill: steelblue;"></circle><circle cx="304.25308138132095" cy="71.60380979379016" r="3" style="fill: steelblue;"></circle><circle cx="326.3139599561691" cy="147.77584332558843" r="3" style="fill: steelblue;"></circle><circle cx="428.43632340431213" cy="112.13869601488113" r="3" style="fill: steelblue;"></circle><circle cx="194.29940074682236" cy="162.7905290159914" r="3" style="fill: steelblue;"></circle><circle cx="125.9509527683258" cy="178.20035852491856" r="3" style="fill: steelblue;"></circle><circle cx="297.64484256505966" cy="174.39653082854215" r="3" style="fill: steelblue;"></circle><circle cx="386.5099632740021" cy="47.04527225759295" r="3" style="fill: steelblue;"></circle><circle cx="215.19817650318146" cy="206.48097008880643" r="3" style="fill: steelblue;"></circle><circle cx="141.32957696914673" cy="177.4975593305296" r="3" style="fill: steelblue;"></circle><circle cx="139.6068924665451" cy="195.74604554670964" r="3" style="fill: steelblue;"></circle><circle cx="323.54359567165375" cy="201.16986096319226" r="3" style="fill: steelblue;"></circle><circle cx="350.89550256729126" cy="193.57060898457553" r="3" style="fill: steelblue;"></circle><circle cx="378.42068016529083" cy="194.6873315804017" r="3" style="fill: steelblue;"></circle><circle cx="274.77584570646286" cy="243.25307458639145" r="3" style="fill: steelblue;"></circle><circle cx="215.78342109918594" cy="197.42711002214088" r="3" style="fill: steelblue;"></circle><circle cx="393.85776758193975" cy="217.13455683655206" r="3" style="fill: steelblue;"></circle><circle cx="116.74394845962526" cy="207.2813676463233" r="3" style="fill: steelblue;"></circle><circle cx="251.43247559666634" cy="189.68858161113326" r="3" style="fill: steelblue;"></circle><circle cx="225.0703876465559" cy="234.49025013380583" r="3" style="fill: steelblue;"></circle><circle cx="62.006106376647956" cy="293.20604602495825" r="3" style="fill: steelblue;"></circle><circle cx="219.92453947663307" cy="161.07378527522087" r="3" style="fill: steelblue;"></circle><circle cx="324.6595376729965" cy="196.69756430408194" r="3" style="fill: steelblue;"></circle><circle cx="261.1225390434265" cy="155.86173989706566" r="3" style="fill: steelblue;"></circle><circle cx="144.70674633979797" cy="170.58752394384805" r="3" style="fill: steelblue;"></circle><circle cx="231.80465452373028" cy="183.06485936045647" r="3" style="fill: steelblue;"></circle><circle cx="166.8634915351868" cy="325.7101741102007" r="3" style="fill: steelblue;"></circle><circle cx="168.7180691957474" cy="138.83378853400546" r="3" style="fill: steelblue;"></circle><circle cx="172.4933186173439" cy="279.68243923452167" r="3" style="fill: steelblue;"></circle><circle cx="254.58428911864758" cy="263.07889156871374" r="3" style="fill: steelblue;"></circle><circle cx="275.5385921895504" cy="282.7793185909589" r="3" style="fill: steelblue;"></circle><circle cx="118.64747643470764" cy="195.9702932638013" r="3" style="fill: steelblue;"></circle><circle cx="367.4148166179657" cy="148.07419644461737" r="3" style="fill: steelblue;"></circle><circle cx="178.28969299793246" cy="203.48547895749408" r="3" style="fill: steelblue;"></circle><circle cx="329.5131558179856" cy="150.11168188518945" r="3" style="fill: steelblue;"></circle><circle cx="305.6798243522644" cy="129.09024457136792" r="3" style="fill: steelblue;"></circle><circle cx="261.3422544300556" cy="247.53954178757135" r="3" style="fill: steelblue;"></circle><circle cx="63.8569736480713" cy="243.36143334706622" r="3" style="fill: steelblue;"></circle><circle cx="71.2654495239258" cy="220.0701700316535" r="3" style="fill: steelblue;"></circle><circle cx="165.03181546926498" cy="250.03612207041846" r="3" style="fill: steelblue;"></circle><circle cx="228.7767802923918" cy="231.4250253968769" r="3" style="fill: steelblue;"></circle><circle cx="171.5987527370453" cy="237.3168642322222" r="3" style="fill: steelblue;"></circle><circle cx="154.20660316944122" cy="218.3120652205414" r="3" style="fill: steelblue;"></circle><circle cx="309.71518099308014" cy="234.9625370568699" r="3" style="fill: steelblue;"></circle><circle cx="113.75560104846956" cy="93.69528624746533" r="3" style="fill: steelblue;"></circle><circle cx="345.8172047138214" cy="167.96885679165524" r="3" style="fill: steelblue;"></circle><circle cx="226.99266873300076" cy="194.93720948877228" r="3" style="fill: steelblue;"></circle><circle cx="392.8524219989777" cy="84.09945997926923" r="3" style="fill: steelblue;"></circle><circle cx="297.9501673579216" cy="135.1750534441736" r="3" style="fill: steelblue;"></circle><circle cx="317.32453644275665" cy="153.43313374453118" r="3" style="fill: steelblue;"></circle><circle cx="178.9759674668312" cy="155.80684484706984" r="3" style="fill: steelblue;"></circle><circle cx="339.2795526981354" cy="82.83927871121301" r="3" style="fill: steelblue;"></circle><circle cx="499.2885732650757" cy="123.78569526804819" r="3" style="fill: steelblue;"></circle><circle cx="272.31799453496933" cy="112.27053569422827" r="3" style="fill: steelblue;"></circle><circle cx="376.5344077348709" cy="211.7414137141572" r="3" style="fill: steelblue;"></circle><circle cx="269.30842861533165" cy="169.90170379479724" r="3" style="fill: steelblue;"></circle><circle cx="313.1167942285538" cy="180.08553961084948" r="3" style="fill: steelblue;"></circle><circle cx="352.6793771982193" cy="276.0041000114547" r="3" style="fill: steelblue;"></circle><circle cx="192.96943634748462" cy="226.1620197031233" r="3" style="fill: steelblue;"></circle><circle cx="205.30747041106227" cy="204.92781771139965" r="3" style="fill: steelblue;"></circle><circle cx="167.51123160123825" cy="235.3046097689205" r="3" style="fill: steelblue;"></circle><circle cx="128.0721598863602" cy="270.0146229730712" r="3" style="fill: steelblue;"></circle><circle cx="109.91372108459474" cy="304.1523959901598" r="3" style="fill: steelblue;"></circle><circle cx="124.23010110855103" cy="120.46103593375949" r="3" style="fill: steelblue;"></circle><circle cx="160.9201276302338" cy="281.07166124714746" r="3" style="fill: steelblue;"></circle><circle cx="361.6910809278488" cy="204.36359910915291" r="3" style="fill: steelblue;"></circle><circle cx="163.35110306739807" cy="294.6212755309211" r="3" style="fill: steelblue;"></circle><circle cx="314.38752204179764" cy="172.76797381540138" r="3" style="fill: steelblue;"></circle><circle cx="138.0611085891724" cy="140.58945659134122" r="3" style="fill: steelblue;"></circle><circle cx="337.6993292570114" cy="230.9004192550977" r="3" style="fill: steelblue;"></circle><circle cx="271.58094361424446" cy="246.39991174141562" r="3" style="fill: steelblue;"></circle><circle cx="331.98930859565735" cy="188.9741679963966" r="3" style="fill: steelblue;"></circle><circle cx="331.40911996364594" cy="175.42522193657027" r="3" style="fill: steelblue;"></circle><circle cx="378.60938251018524" cy="280.6608842478858" r="3" style="fill: steelblue;"></circle><circle cx="401.96526288986206" cy="167.17675245470468" r="3" style="fill: steelblue;"></circle><circle cx="361.2052345275879" cy="115.14619489510852" r="3" style="fill: steelblue;"></circle><circle cx="349.0073347091675" cy="205.2722221447362" r="3" style="fill: steelblue;"></circle><circle cx="274.41383466124535" cy="122.61077430513171" r="3" style="fill: steelblue;"></circle><circle cx="160.67164778709414" cy="173.64737826089066" r="3" style="fill: steelblue;"></circle><circle cx="288.19948822259903" cy="220.12851304478113" r="3" style="fill: steelblue;"></circle><circle cx="176.11120730638504" cy="234.63439817229903" r="3" style="fill: steelblue;"></circle><circle cx="83.9286231994629" cy="196.55806105583906" r="3" style="fill: steelblue;"></circle><circle cx="152.08052337169647" cy="238.37213218212128" r="3" style="fill: steelblue;"></circle><circle cx="363.4935700893402" cy="229.358101884524" r="3" style="fill: steelblue;"></circle><circle cx="194.05147969722748" cy="136.51645017994775" r="3" style="fill: steelblue;"></circle><circle cx="218.56059595942497" cy="243.15997958183289" r="3" style="fill: steelblue;"></circle><circle cx="174.22840833663943" cy="148.06302967998715" r="3" style="fill: steelblue;"></circle><circle cx="132.44726300239563" cy="101.76606973012287" r="3" style="fill: steelblue;"></circle><circle cx="127.26636171340944" cy="191.28584039087093" r="3" style="fill: steelblue;"></circle><circle cx="174.1832399368286" cy="324.15672474437287" r="3" style="fill: steelblue;"></circle><circle cx="362.1015751361847" cy="62.73159219159021" r="3" style="fill: steelblue;"></circle><circle cx="258.2647727429867" cy="113.90452252493964" r="3" style="fill: steelblue;"></circle><circle cx="288.43453019857407" cy="127.18744989898471" r="3" style="fill: steelblue;"></circle><circle cx="335.73715031147003" cy="17.11835463841755" r="3" style="fill: steelblue;"></circle><circle cx="424.0862452983856" cy="152.215049498611" r="3" style="fill: steelblue;"></circle><circle cx="320.4642409086228" cy="84.75835124651593" r="3" style="fill: steelblue;"></circle><circle cx="59.57411170005799" cy="190.94006510244475" r="3" style="fill: steelblue;"></circle><circle cx="237.89125523529947" cy="273.93736773067053" r="3" style="fill: steelblue;"></circle><circle cx="162.4065899848938" cy="206.22110522041714" r="3" style="fill: steelblue;"></circle><circle cx="200.31062453985217" cy="211.12256228095953" r="3" style="fill: steelblue;"></circle><circle cx="241.0009609395638" cy="278.2252488864793" r="3" style="fill: steelblue;"></circle><circle cx="240.03805607557297" cy="331.465525759591" r="3" style="fill: steelblue;"></circle></g></svg>