<svg xmlns="http://www.w3.org/2000/svg"><g transform="translate(40,20)"><circle cx="257.64186445623636" cy="79.01665773242712" r="3" style="fill: steelblue;"></circle><circle cx="347.97096613794565" cy="200.46249912120402" r="3" style="fill: steelblue;"></circle><circle cx="273.61870113993064" cy="84.48509611189365" r="3" style="fill: steelblue;"></circle><circle cx="318.0587465688586" cy="121.10285246744752" r="3" style="fill: steelblue;"></circle><circle cx="427.97615982592106" cy="165.1742582442239" r="3" style="fill: steelblue;"></circle><circle cx="478.85187461972237" cy="134.53913126140833" r="3" style="fill: steelblue;"></circle><circle cx="478.4525004029274" cy="70.14785259962082" r="3" style="fill: steelblue;"></circle><circle cx="355.03010608255863" cy="150.9762587491423" r="3" style="fill: steelblue;"></circle><circle cx="404.8558768630028" cy="95.59627827256918" r="3" style="fill: steelblue;"></circle><circle cx="438.61433386802673" cy="72.05646969377995" r="3" style="fill: steelblue;"></circle><circle cx="427.90563113987446" cy="69.82402801513672" r="3" style="fill: steelblue;"></circle><circle cx="250.2849892526865" cy="172.6470916008111" r="3" style="fill: steelblue;"></circle><circle cx="380.74176505208015" cy="195.72434965521097" r="3" style="fill: steelblue;"></circle><circle cx="418.77310171723366" cy="101.49005260318518" r="3" style="fill: steelblue;"></circle><circle cx="237.99273546785116" cy="95.03829497843981" r="3" style="fill: steelblue;"></circle><circle cx="398.34919318556786" cy="104.66498993337154" r="3" style="fill: steelblue;"></circle><circle cx="474.1762612760067" cy="119.35986038297415" r="3" style="fill: steelblue;"></circle><circle cx="404.7721315920353" cy="148.20602554827929" r="3" style="fill: steelblue;"></circle><circle cx="418.75485599040985" cy="226.21268657967448" r="3" style="fill: steelblue;"></circle><circle cx="223.62323485314846" cy="69.65549867600203" r="3" style="fill: steelblue;"></circle><circle cx="421.8289692699909" cy="224.42245595157146" r="3" style="fill: steelblue;"></circle><circle cx="456.61317005753517" cy="219.3322747014463" r="3" style="fill: steelblue;"></circle><circle cx="411.3368918001652" cy="202.66034798696637" r="3" style="fill: steelblue;"></circle><circle cx="478.07503312826157" cy="255.16858715564013" r="3" style="fill: steelblue;"></circle><circle cx="306.4693027921021" cy="177.0194326643832" r="3" style="fill: steelblue;"></circle><circle cx="348.3355738967657" cy="145.34210246056318" r="3" style="fill: steelblue;"></circle><circle cx="327.43974577635527" cy="125.28587896376848" r="3" style="fill: steelblue;"></circle><circle cx="310.68531543016434" cy="195.93709097243845" r="3" style="fill: steelblue;"></circle><circle cx="271.0014350322308" cy="57.16116465628147" r="3" style="fill: steelblue;"></circle><circle cx="184.2240721732378" cy="289.82131853699684" r="3" style="fill: steelblue;"></circle><circle cx="293.4648445621133" cy="177.73556786123663" r="3" style="fill: steelblue;"></circle><circle cx="340.2530287206173" cy="200.55289515294135" r="3" style="fill: steelblue;"></circle><circle cx="214.85262762755156" cy="224.927297513932" r="3" style="fill: steelblue;"></circle><circle cx="259.59537553600967" cy="112.23963107913733" r="3" style="fill: steelblue;"></circle><circle cx="151.25154934823513" cy="214.98441202566028" r="3" style="fill: steelblue;"></circle><circle cx="454.67823788523674" cy="263.69138918817043" r="3" style="fill: steelblue;"></circle><circle cx="164.3979173898697" cy="216.48189211264253" r="3" style="fill: steelblue;"></circle><circle cx="255.0337464362383" cy="273.42412639409304" r="3" style="fill: steelblue;"></circle><circle cx="373.30688282847404" cy="230.47213833779097" r="3" style="fill: steelblue;"></circle><circle cx="180.90688034892082" cy="180.43106184341013" r="3" style="fill: steelblue;"></circle><circle cx="336.9533533975482" cy="224.25201321020722" r="3" style="fill: steelblue;"></circle><circle cx="321.63787119090557" cy="303.91172990202904" r="3" style="fill: steelblue;"></circle><circle cx="248.66746885702014" cy="222.91146144270897" r="3" style="fill: steelblue;"></circle><circle cx="183.1572101265192" cy="225.3891445696354" r="3" style="fill: steelblue;"></circle><circle cx="244.46123287081718" cy="308.8998097926378" r="3" style="fill: steelblue;"></circle><circle cx="295.9659047238529" cy="299.12067502737045" r="3" style="fill: steelblue;"></circle><circle cx="56.70067414641382" cy="244.53413225710392" r="3" style="fill: steelblue;"></circle><circle cx="130.60585565865043" cy="309.82082448899746" r="3" style="fill: steelblue;"></circle><circle cx="269.6805037422746" cy="162.88618855178356" r="3" style="fill: steelblue;"></circle><circle cx="191.45739644765854" cy="122.7165904827416" r="3" style="fill: steelblue;"></circle><circle cx="303.52575609460473" cy="187.86209432873875" r="3" style="fill: steelblue;"></circle><circle cx="252.15690753422678" cy="156.65493831038475" r="3" style="fill: steelblue;"></circle><circle cx="157.50505596399307" cy="275.1688754186034" r="3" style="fill: steelblue;"></circle><circle cx="249.85542509704828" cy="299.9631326645613" r="3" style="fill: steelblue;"></circle><circle cx="255.0440762937069" cy="179.017960105557" r="3" style="fill: steelblue;"></circle><circle cx="170.69616325199604" cy="119.78011783212423" r="3" style="fill: steelblue;"></circle><circle cx="167.95827828347683" cy="275.51105823367834" r="3" style="fill: steelblue;"></circle><circle cx="177.3184970766306" cy="286.0083218663931" r="3" style="fill: steelblue;"></circle><circle cx="86.64438620209695" cy="166.70459294691682" r="3" style="fill: steelblue;"></circle><circle cx="349.56679333001375" cy="111.07646506279707" r="3" style="fill: steelblue;"></circle><circle cx="294.2814942263067" cy="182.80917634256184" r="3" style="fill: steelblue;"></circle><circle cx="483.3044958114624" cy="134.73437977954745" r="3" style="fill: steelblue;"></circle><circle cx="280.9187548980117" cy="81.2374820932746" r="3" style="fill: steelblue;"></circle><circle cx="198.90759743750095" cy="157.1989492047578" r="3" style="fill: steelblue;"></circle><circle cx="469.86469745635986" cy="132.71007193252444" r="3" style="fill: steelblue;"></circle><circle cx="437.899551987648" cy="90.64651858061552" r="3" style="fill: steelblue;"></circle><circle cx="383.2861487567425" cy="151.10137634910643" r="3" style="fill: steelblue;"></circle><circle cx="303.9367350563407" cy="183.49093426950276" r="3" style="fill: steelblue;"></circle><circle cx="480.4984760284424" cy="182.60162924416363" r="3" style="fill: steelblue;"></circle><circle cx="287.78615629300475" cy="53.72662395238876" r="3" style="fill: steelblue;"></circle><circle cx="372.5175992399454" cy="90.63766542822123" r="3" style="fill: steelblue;"></circle><circle cx="235.45728854835033" cy="176.4432221360039" r="3" style="fill: steelblue;"></circle><circle cx="388.4969834983349" cy="109.22197736799717" r="3" style="fill: steelblue;"></circle><circle cx="196.25078223645687" cy="258.87528732419014" r="3" style="fill: steelblue;"></circle><circle cx="276.6023857332766" cy="241.62421580404043" r="3" style="fill: steelblue;"></circle><circle cx="365.78707851469517" cy="224.8087154701352" r="3" style="fill: steelblue;"></circle><circle cx="390.34800946712494" cy="223.83413203060627" r="3" style="fill: steelblue;"></circle><circle cx="234.82739858329296" cy="261.7991289123893" r="3" style="fill: steelblue;"></circle><circle cx="310.6046982854605" cy="305.28160855174065" r="3" style="fill: steelblue;"></circle><circle cx="243.07953648269176" cy="204.55907536670566" r="3" style="fill: steelblue;"></circle><circle cx="234.60324469953775" cy="103.54238022118807" r="3" style="fill: steelblue;"></circle><circle cx="229.86482743173838" cy="259.76707618683577" r="3" style="fill: steelblue;"></circle><circle cx="142.15684913098812" cy="164.9062702897936" r="3" style="fill: steelblue;"></circle><circle cx="326.0079390183091" cy="209.80622079223394" r="3" style="fill: steelblue;"></circle><circle cx="380.8125854283571" cy="134.6950621344149" r="3" style="fill: steelblue;"></circle><circle cx="395.02473928034306" cy="209.4882276840508" r="3" style="fill: steelblue;"></circle><circle cx="268.3635703451" cy="104.55996468663216" r="3" style="fill: steelblue;"></circle><circle cx="215.26479598134756" cy="120.94802986830473" r="3" style="fill: steelblue;"></circle><circle cx="147.2272601723671" cy="98.99106454104185" r="3" style="fill: steelblue;"></circle><circle cx="221.02189611643553" cy="192.64250569976866" r="3" style="fill: steelblue;"></circle><circle cx="242.81877547502518" cy="77.53403503447771" r="3" style="fill: steelblue;"></circle><circle cx="389.5363663136959" cy="161.54094291850924" r="3" style="fill: steelblue;"></circle><circle cx="184.7511564195156" cy="146.2249729782343" r="3" style="fill: steelblue;"></circle><circle cx="272.1049300557934" cy="165.4327590484172" r="3" style="fill: steelblue;"></circle><circle cx="241.3198397308588" cy="68.42957828193903" r="3" style="fill: steelblue;"></circle><circle cx="208.1673088297248" cy="293.4186842292547" r="3" style="fill: steelblue;"></circle><circle cx="246.94509839639068" cy="231.94893281906843" r="3" style="fill: steelblue;"></circle><circle cx="185.14792554080486" cy="166.49750138167292" r="3" style="fill: steelblue;"></circle><circle cx="173.1676948070526" cy="116.83039478957653" r="3" style="fill: steelblue;"></circle><circle cx="270.4690074012615" cy="209.4406240619719" r="3" style="fill: steelblue;"></circle><circle cx="367.6227354258299" cy="264.50309548527" r="3" style="fill: steelblue;"></circle><circle cx="183.52407597005367" cy="267.5938757136464" r="3" style="fill: steelblue;"></circle><circle cx="277.4731646804139" cy="242.91612412780523" r="3" style="fill: steelblue;"></circle><circle cx="360.3024673461914" cy="165.75740424450487" r="3" style="fill: steelblue;"></circle><circle cx="119.57586117088796" cy="245.0600277632475" r="3" style="fill: steelblue;"></circle><circle cx="163.8340701162815" cy="231.0780055820942" r="3" style="fill: steelblue;"></circle><circle cx="161.25818386673927" cy="174.5313866675133" r="3" style="fill: steelblue;"></circle><circle cx="511.39158949255943" cy="40.69207161664963" r="3" style="fill: steelblue;"></circle><circle cx="466.32396027445793" cy="5.579269677400589" r="3" style="fill: steelblue;"></circle><circle cx="422.46821343898773" cy="61.524295434355736" r="3" style="fill: steelblue;"></circle><circle cx="513.7328562140465" cy="81.57467767596245" r="3" style="fill: steelblue;"></circle><circle cx="519.8110570013523" cy="10.22738330066204" r="3" style="fill: steelblue;"></circle><circle cx="452.9936161637306" cy="134.56506812945008" r="3" style="fill: steelblue;"></circle><circle cx="90.31449303030969" cy="306.12093694508076" r="3" style="fill: steelblue;"></circle><circle cx="338.01219899207354" cy="204.19775526970625" r="3" style="fill: steelblue;"></circle><circle cx="93.44177439808847" cy="244.4361999630928" r="3" style="fill: steelblue;"></circle><circle cx="108.31381201744081" cy="96.9569256529212" r="3" style="fill: steelblue;"></circle><circle cx="251.80918511934578" cy="133.98505300283432" r="3" style="fill: steelblue;"></circle></g></svg>