<svg xmlns="http://www.w3.org/2000/svg"><g transform="translate(40,20)"><circle cx="417.72736608982086" cy="79.25078123807907" r="3" style="fill: steelblue;"></circle><circle cx="329.9423038959503" cy="136.14850673410626" r="3" style="fill: steelblue;"></circle><circle cx="465.0030791759491" cy="48.609115348921875" r="3" style="fill: steelblue;"></circle><circle cx="427.63177156448364" cy="72.83125917116803" r="3" style="fill: steelblue;"></circle><circle cx="431.95421397686005" cy="70.02967612610922" r="3" style="fill: steelblue;"></circle><circle cx="473.13918471336365" cy="43.33571361170874" r="3" style="fill: steelblue;"></circle><circle cx="290.9536678344011" cy="161.41891899622152" r="3" style="fill: steelblue;"></circle><circle cx="377.66568660736084" cy="105.21668460634021" r="3" style="fill: steelblue;"></circle><circle cx="392.4568623304367" cy="95.62981145249472" r="3" style="fill: steelblue;"></circle><circle cx="495.0160324573517" cy="29.156275259123905" r="3" style="fill: steelblue;"></circle><circle cx="432.67385959625244" cy="69.56323915057713" r="3" style="fill: steelblue;"></circle><circle cx="322.43172079324717" cy="141.0164772636361" r="3" style="fill: steelblue;"></circle><circle cx="371.3753119111061" cy="109.29377931687566" r="3" style="fill: steelblue;"></circle><circle cx="289.16010707616806" cy="162.58141208026143" r="3" style="fill: steelblue;"></circle><circle cx="405.05772829055786" cy="87.46258351537915" r="3" style="fill: steelblue;"></circle><circle cx="273.671755939722" cy="172.6201581872172" r="3" style="fill: steelblue;"></circle><circle cx="325.65192729234695" cy="138.92930638458995" r="3" style="fill: steelblue;"></circle><circle cx="318.64895671606064" cy="143.4682687951459" r="3" style="fill: steelblue;"></circle><circle cx="463.67765665054316" cy="49.46818550427757" r="3" style="fill: steelblue;"></circle><circle cx="472.14324474334717" cy="43.98123025894165" r="3" style="fill: steelblue;"></circle><circle cx="309.89646390080446" cy="149.14118080503414" r="3" style="fill: steelblue;"></circle><circle cx="469.2459762096405" cy="45.859089493751526" r="3" style="fill: steelblue;"></circle><circle cx="350.2136930823326" cy="123.00964337256221" r="3" style="fill: steelblue;"></circle><circle cx="459.5446586608887" cy="52.14698049757215" r="3" style="fill: steelblue;"></circle><circle cx="200.68800151348114" cy="219.9244434634844" r="3" style="fill: steelblue;"></circle><circle cx="305.8133002370596" cy="151.7876757722762" r="3" style="fill: steelblue;"></circle><circle cx="334.708122164011" cy="133.05955044925213" r="3" style="fill: steelblue;"></circle><circle cx="236.3959193229675" cy="196.78042266103955" r="3" style="fill: steelblue;"></circle><circle cx="200.75160562992096" cy="219.88321857319937" r="3" style="fill: steelblue;"></circle><circle cx="292.0863155275583" cy="160.68479549139738" r="3" style="fill: steelblue;"></circle><circle cx="317.31649450957775" cy="144.33190170675516" r="3" style="fill: steelblue;"></circle><circle cx="319.73259150981903" cy="142.76591291030246" r="3" style="fill: steelblue;"></circle><circle cx="341.57855808734894" cy="128.60649012857016" r="3" style="fill: steelblue;"></circle><circle cx="58.579015731811516" cy="312.03211943308514" r="3" style="fill: steelblue;"></circle><circle cx="323.1938995420933" cy="140.5224725190136" r="3" style="fill: steelblue;"></circle><circle cx="202.95799970626828" cy="218.4531483385298" r="3" style="fill: steelblue;"></circle><circle cx="188.8749361038208" cy="227.58105993270874" r="3" style="fill: steelblue;"></circle><circle cx="208.66400599479675" cy="214.7548109292984" r="3" style="fill: steelblue;"></circle><circle cx="192.36235320568085" cy="225.32069699631796" r="3" style="fill: steelblue;"></circle><circle cx="410.48823595046997" cy="83.94281003210278" r="3" style="fill: steelblue;"></circle><circle cx="405.5218040943146" cy="87.1617936425739" r="3" style="fill: steelblue;"></circle><circle cx="207.25050866603848" cy="215.67096660534543" r="3" style="fill: steelblue;"></circle><circle cx="198.20260405540463" cy="221.53534922334882" r="3" style="fill: steelblue;"></circle><circle cx="266.5011964738369" cy="177.26774302621686" r="3" style="fill: steelblue;"></circle><circle cx="147.4622905254364" cy="254.4225894742542" r="3" style="fill: steelblue;"></circle><circle cx="221.334707736969" cy="206.54231905937195" r="3" style="fill: steelblue;"></circle><circle cx="193.62610280513763" cy="224.50160003370706" r="3" style="fill: steelblue;"></circle><circle cx="291.08879026025534" cy="161.3313396461308" r="3" style="fill: steelblue;"></circle><circle cx="119.06064748764038" cy="272.8310618135664" r="3" style="fill: steelblue;"></circle><circle cx="260.13087183237076" cy="181.3966571456856" r="3" style="fill: steelblue;"></circle><circle cx="399.24330711364746" cy="91.23118983374701" r="3" style="fill: steelblue;"></circle><circle cx="237.19139099121094" cy="196.26483917236328" r="3" style="fill: steelblue;"></circle><circle cx="315.3746780008077" cy="145.59048648095796" r="3" style="fill: steelblue;"></circle><circle cx="186.08288168907166" cy="229.39072483115729" r="3" style="fill: steelblue;"></circle><circle cx="230.27590066194534" cy="200.74710142281322" r="3" style="fill: steelblue;"></circle><circle cx="448.11317324638367" cy="59.556276599566154" r="3" style="fill: steelblue;"></circle><circle cx="415.2603954076767" cy="80.8497437172466" r="3" style="fill: steelblue;"></circle><circle cx="270.72623893618584" cy="174.52928957839805" r="3" style="fill: steelblue;"></circle><circle cx="230.46255111694336" cy="200.62612427605524" r="3" style="fill: steelblue;"></circle><circle cx="266.98147505521774" cy="176.95645135309962" r="3" style="fill: steelblue;"></circle><circle cx="480.2382230758667" cy="38.73448504341974" r="3" style="fill: steelblue;"></circle><circle cx="271.8162976205349" cy="173.8227700607644" r="3" style="fill: steelblue;"></circle><circle cx="488.07728290557856" cy="33.65361293156944" r="3" style="fill: steelblue;"></circle><circle cx="375.202077627182" cy="106.81346820460425" r="3" style="fill: steelblue;"></circle><circle cx="426.5413910150528" cy="73.53798730505838" r="3" style="fill: steelblue;"></circle><circle cx="435.0666582584381" cy="68.0123511287901" r="3" style="fill: steelblue;"></circle><circle cx="450.35861134529114" cy="58.100900053977966" r="3" style="fill: steelblue;"></circle><circle cx="288.4808801114559" cy="163.0216517796119" r="3" style="fill: steelblue;"></circle><circle cx="422.00391590595245" cy="76.47894339429007" r="3" style="fill: steelblue;"></circle><circle cx="517.593777179718" cy="14.522551827960562" r="3" style="fill: steelblue;"></circle><circle cx="421.37148678302765" cy="76.88885115914876" r="3" style="fill: steelblue;"></circle><circle cx="368.65618228912354" cy="111.05617814593846" r="3" style="fill: steelblue;"></circle><circle cx="144.44283843040466" cy="256.37964175807105" r="3" style="fill: steelblue;"></circle><circle cx="367.6186010241508" cy="111.72868452138373" r="3" style="fill: steelblue;"></circle><circle cx="143.292635679245" cy="257.1251435412301" r="3" style="fill: steelblue;"></circle><circle cx="382.41190910339355" cy="102.14042928483752" r="3" style="fill: steelblue;"></circle><circle cx="262.5616393983364" cy="179.8211596492264" r="3" style="fill: steelblue;"></circle><circle cx="179.0974259376526" cy="233.9183350404104" r="3" style="fill: steelblue;"></circle><circle cx="96.81884050369263" cy="287.2470478216807" r="3" style="fill: steelblue;"></circle><circle cx="90.50976634025574" cy="291.33626255724164" r="3" style="fill: steelblue;"></circle><circle cx="280.67779764533043" cy="168.07920522987843" r="3" style="fill: steelblue;"></circle><circle cx="94.62609887123108" cy="288.668269250128" r="3" style="fill: steelblue;"></circle><circle cx="194.70341205596924" cy="223.80334403779773" r="3" style="fill: steelblue;"></circle><circle cx="291.8673360720277" cy="160.82672661998208" r="3" style="fill: steelblue;"></circle><circle cx="384.89117324352264" cy="100.53349882364273" r="3" style="fill: steelblue;"></circle><circle cx="422.0234870910644" cy="76.4662583669027" r="3" style="fill: steelblue;"></circle><circle cx="408.2004636526108" cy="85.42562541034488" r="3" style="fill: steelblue;"></circle><circle cx="243.6743125319481" cy="192.06294558114473" r="3" style="fill: steelblue;"></circle><circle cx="289.81441855430603" cy="162.15732130739423" r="3" style="fill: steelblue;"></circle><circle cx="424.12129640579224" cy="75.10656714439392" r="3" style="fill: steelblue;"></circle><circle cx="378.51395308971405" cy="104.66688225666684" r="3" style="fill: steelblue;"></circle><circle cx="340.15941470861435" cy="129.5263052814537" r="3" style="fill: steelblue;"></circle><circle cx="282.62118324637413" cy="166.8196034514242" r="3" style="fill: steelblue;"></circle><circle cx="226.11631304025647" cy="203.44313043687077" r="3" style="fill: steelblue;"></circle><circle cx="375.56272745132446" cy="106.57971368895636" r="3" style="fill: steelblue;"></circle><circle cx="217.85218119621274" cy="208.7995121876399" r="3" style="fill: steelblue;"></circle><circle cx="298.0517691001296" cy="156.81829780547156" r="3" style="fill: steelblue;"></circle><circle cx="273.4004482626915" cy="172.79600575566292" r="3" style="fill: steelblue;"></circle><circle cx="209.01409685611725" cy="214.52790018584994" r="3" style="fill: steelblue;"></circle><circle cx="277.4747371673584" cy="170.15526294708252" r="3" style="fill: steelblue;"></circle><circle cx="353.6987766623497" cy="120.75079290403261" r="3" style="fill: steelblue;"></circle><circle cx="181.87218010425568" cy="232.11988326576022" r="3" style="fill: steelblue;"></circle><circle cx="221.64852619171143" cy="206.33891820907593" r="3" style="fill: steelblue;"></circle><circle cx="97.15213179588318" cy="287.0310256878535" r="3" style="fill: steelblue;"></circle><circle cx="207.27137625217438" cy="215.65744131803513" r="3" style="fill: steelblue;"></circle><circle cx="381.46813809871674" cy="102.75213271379471" r="3" style="fill: steelblue;"></circle><circle cx="507.36225843429565" cy="21.154091755549125" r="3" style="fill: steelblue;"></circle><circle cx="368.9957857131958" cy="110.83606481552124" r="3" style="fill: steelblue;"></circle><circle cx="404.9647629261017" cy="87.52283884419336" r="3" style="fill: steelblue;"></circle><circle cx="416.6475623846054" cy="79.950654009978" r="3" style="fill: steelblue;"></circle><circle cx="517.1347618103027" cy="14.820061789618594" r="3" style="fill: steelblue;"></circle><circle cx="316.4160590618849" cy="144.91551727470426" r="3" style="fill: steelblue;"></circle><circle cx="364.8401990532875" cy="113.52950061360997" r="3" style="fill: steelblue;"></circle><circle cx="312.3966917395591" cy="147.52066276139686" r="3" style="fill: steelblue;"></circle><circle cx="143.9010500907898" cy="256.7308008670807" r="3" style="fill: steelblue;"></circle><circle cx="274.8260222375393" cy="171.87202262381714" r="3" style="fill: steelblue;"></circle><circle cx="240.37340730428693" cy="194.20242119166585" r="3" style="fill: steelblue;"></circle><circle cx="175.5110263824463" cy="236.24285327063666" r="3" style="fill: steelblue;"></circle></g></svg>