<svg xmlns="http://www.w3.org/2000/svg"><g transform="translate(40,20)"><circle cx="417.72736608982086" cy="136.55408173799512" r="3" style="fill: steelblue;"></circle><circle cx="329.9423038959503" cy="198.0944428825751" r="3" style="fill: steelblue;"></circle><circle cx="465.0030791759491" cy="42.64677762985223" r="3" style="fill: steelblue;"></circle><circle cx="427.63177156448364" cy="74.53782558441159" r="3" style="fill: steelblue;"></circle><circle cx="431.95421397686005" cy="57.13970661163326" r="3" style="fill: steelblue;"></circle><circle cx="473.13918471336365" cy="2.0858615636825064" r="3" style="fill: steelblue;"></circle><circle cx="290.9536678344011" cy="122.90917038917539" r="3" style="fill: steelblue;"></circle><circle cx="377.66568660736084" cy="47.29523956775662" r="3" style="fill: steelblue;"></circle><circle cx="392.4568623304367" cy="89.00396227836605" r="3" style="fill: steelblue;"></circle><circle cx="495.0160324573517" cy="17.307874560356098" r="3" style="fill: steelblue;"></circle><circle cx="432.67385959625244" cy="89.4174769520759" r="3" style="fill: steelblue;"></circle><circle cx="322.43172079324717" cy="100.7107317447662" r="3" style="fill: steelblue;"></circle><circle cx="371.3753119111061" cy="145.45962661504745" r="3" style="fill: steelblue;"></circle><circle cx="289.16010707616806" cy="113.40244561433792" r="3" style="fill: steelblue;"></circle><circle cx="405.05772829055786" cy="186.92352883517742" r="3" style="fill: steelblue;"></circle><circle cx="273.671755939722" cy="203.4256854560226" r="3" style="fill: steelblue;"></circle><circle cx="325.65192729234695" cy="75.07849931716913" r="3" style="fill: steelblue;"></circle><circle cx="318.64895671606064" cy="175.1079361885786" r="3" style="fill: steelblue;"></circle><circle cx="463.67765665054316" cy="155.1459215581417" r="3" style="fill: steelblue;"></circle><circle cx="472.14324474334717" cy="4.372221231460532" r="3" style="fill: steelblue;"></circle><circle cx="309.89646390080446" cy="213.35854548960924" r="3" style="fill: steelblue;"></circle><circle cx="469.2459762096405" cy="197.683733003214" r="3" style="fill: steelblue;"></circle><circle cx="350.2136930823326" cy="214.5034771412611" r="3" style="fill: steelblue;"></circle><circle cx="459.5446586608887" cy="99.67666566371913" r="3" style="fill: steelblue;"></circle><circle cx="200.68800151348114" cy="244.13898661732676" r="3" style="fill: steelblue;"></circle><circle cx="305.8133002370596" cy="280.3884193301201" r="3" style="fill: steelblue;"></circle><circle cx="334.708122164011" cy="264.5393431186676" r="3" style="fill: steelblue;"></circle><circle cx="236.3959193229675" cy="14.153254032134955" r="3" style="fill: steelblue;"></circle><circle cx="200.75160562992096" cy="82.48985260725016" r="3" style="fill: steelblue;"></circle><circle cx="292.0863155275583" cy="253.65343019366264" r="3" style="fill: steelblue;"></circle><circle cx="317.31649450957775" cy="236.69713437557218" r="3" style="fill: steelblue;"></circle><circle cx="319.73259150981903" cy="186.2667340785265" r="3" style="fill: steelblue;"></circle><circle cx="341.57855808734894" cy="201.99320237152276" r="3" style="fill: steelblue;"></circle><circle cx="58.579015731811516" cy="275.205534696579" r="3" style="fill: steelblue;"></circle><circle cx="323.1938995420933" cy="178.99646684527397" r="3" style="fill: steelblue;"></circle><circle cx="202.95799970626828" cy="102.54839509725569" r="3" style="fill: steelblue;"></circle><circle cx="188.8749361038208" cy="297.8895127773285" r="3" style="fill: steelblue;"></circle><circle cx="208.66400599479675" cy="309.87330228090286" r="3" style="fill: steelblue;"></circle><circle cx="192.36235320568085" cy="277.41953432559967" r="3" style="fill: steelblue;"></circle><circle cx="410.48823595046997" cy="291.2805125117302" r="3" style="fill: steelblue;"></circle><circle cx="405.5218040943146" cy="287.83983439207077" r="3" style="fill: steelblue;"></circle><circle cx="207.25050866603848" cy="207.84286856651306" r="3" style="fill: steelblue;"></circle><circle cx="198.20260405540463" cy="212.52969913184646" r="3" style="fill: steelblue;"></circle><circle cx="266.5011964738369" cy="222.2491640597582" r="3" style="fill: steelblue;"></circle><circle cx="147.4622905254364" cy="251.87920480966568" r="3" style="fill: steelblue;"></circle><circle cx="221.334707736969" cy="265.69547206163406" r="3" style="fill: steelblue;"></circle><circle cx="193.62610280513763" cy="210.92036627233026" r="3" style="fill: steelblue;"></circle><circle cx="291.08879026025534" cy="266.61007553339005" r="3" style="fill: steelblue;"></circle><circle cx="119.06064748764038" cy="259.59169566631317" r="3" style="fill: steelblue;"></circle><circle cx="260.13087183237076" cy="268.60803067684174" r="3" style="fill: steelblue;"></circle><circle cx="399.24330711364746" cy="314.4648939371109" r="3" style="fill: steelblue;"></circle><circle cx="237.19139099121094" cy="164.77561816573143" r="3" style="fill: steelblue;"></circle><circle cx="315.3746780008077" cy="290.71819484233856" r="3" style="fill: steelblue;"></circle><circle cx="186.08288168907166" cy="246.2321229279041" r="3" style="fill: steelblue;"></circle><circle cx="230.27590066194534" cy="254.27292734384537" r="3" style="fill: steelblue;"></circle><circle cx="448.11317324638367" cy="263.9558508992195" r="3" style="fill: steelblue;"></circle><circle cx="415.2603954076767" cy="262.0352663099766" r="3" style="fill: steelblue;"></circle><circle cx="270.72623893618584" cy="279.5901417732239" r="3" style="fill: steelblue;"></circle><circle cx="230.46255111694336" cy="342.94135570526123" r="3" style="fill: steelblue;"></circle><circle cx="266.98147505521774" cy="288.8553336262703" r="3" style="fill: steelblue;"></circle><circle cx="480.2382230758667" cy="84.72190499305721" r="3" style="fill: steelblue;"></circle><circle cx="271.8162976205349" cy="42.8222835063934" r="3" style="fill: steelblue;"></circle><circle cx="488.07728290557856" cy="96.07720822095868" r="3" style="fill: steelblue;"></circle><circle cx="375.202077627182" cy="157.61306583881378" r="3" style="fill: steelblue;"></circle><circle cx="426.5413910150528" cy="93.93767714500424" r="3" style="fill: steelblue;"></circle><circle cx="435.0666582584381" cy="122.24178463220595" r="3" style="fill: steelblue;"></circle><circle cx="450.35861134529114" cy="129.32596057653424" r="3" style="fill: steelblue;"></circle><circle cx="288.4808801114559" cy="253.1853623688221" r="3" style="fill: steelblue;"></circle><circle cx="422.00391590595245" cy="222.0568627119064" r="3" style="fill: steelblue;"></circle><circle cx="517.593777179718" cy="168.92840787768364" r="3" style="fill: steelblue;"></circle><circle cx="421.37148678302765" cy="63.195970654487574" r="3" style="fill: steelblue;"></circle><circle cx="368.65618228912354" cy="181.79914988577363" r="3" style="fill: steelblue;"></circle><circle cx="144.44283843040466" cy="85.56845486164087" r="3" style="fill: steelblue;"></circle><circle cx="367.6186010241508" cy="309.8654121160507" r="3" style="fill: steelblue;"></circle><circle cx="143.292635679245" cy="209.58358403295279" r="3" style="fill: steelblue;"></circle><circle cx="382.41190910339355" cy="186.12089361995456" r="3" style="fill: steelblue;"></circle><circle cx="262.5616393983364" cy="327.6120990514755" r="3" style="fill: steelblue;"></circle><circle cx="179.0974259376526" cy="349.46725964546204" r="3" style="fill: steelblue;"></circle><circle cx="96.81884050369263" cy="321.3524118065834" r="3" style="fill: steelblue;"></circle><circle cx="90.50976634025574" cy="308.6880713701248" r="3" style="fill: steelblue;"></circle><circle cx="280.67779764533043" cy="271.0557550191879" r="3" style="fill: steelblue;"></circle><circle cx="94.62609887123108" cy="282.4112296104431" r="3" style="fill: steelblue;"></circle><circle cx="194.70341205596924" cy="165.85967391729352" r="3" style="fill: steelblue;"></circle><circle cx="291.8673360720277" cy="193.1988068856299" r="3" style="fill: steelblue;"></circle><circle cx="384.89117324352264" cy="98.61915260553356" r="3" style="fill: steelblue;"></circle><circle cx="422.0234870910644" cy="153.0418328940868" r="3" style="fill: steelblue;"></circle><circle cx="408.2004636526108" cy="149.29857179522514" r="3" style="fill: steelblue;"></circle><circle cx="243.6743125319481" cy="269.80903446674347" r="3" style="fill: steelblue;"></circle><circle cx="289.81441855430603" cy="182.80497081577775" r="3" style="fill: steelblue;"></circle><circle cx="424.12129640579224" cy="107.22811967134476" r="3" style="fill: steelblue;"></circle><circle cx="378.51395308971405" cy="66.02282524108884" r="3" style="fill: steelblue;"></circle><circle cx="340.15941470861435" cy="267.8297281265259" r="3" style="fill: steelblue;"></circle><circle cx="282.62118324637413" cy="196.66108307428658" r="3" style="fill: steelblue;"></circle><circle cx="226.11631304025647" cy="180.77098466455934" r="3" style="fill: steelblue;"></circle><circle cx="375.56272745132446" cy="179.67818006873134" r="3" style="fill: steelblue;"></circle><circle cx="217.85218119621274" cy="173.51179085671902" r="3" style="fill: steelblue;"></circle><circle cx="298.0517691001296" cy="336.67812943458557" r="3" style="fill: steelblue;"></circle><circle cx="273.4004482626915" cy="195.63457118347287" r="3" style="fill: steelblue;"></circle><circle cx="209.01409685611725" cy="241.03483259677887" r="3" style="fill: steelblue;"></circle><circle cx="277.4747371673584" cy="279.63743060827255" r="3" style="fill: steelblue;"></circle><circle cx="353.6987766623497" cy="247.5422963500023" r="3" style="fill: steelblue;"></circle><circle cx="181.87218010425568" cy="266.1676600575447" r="3" style="fill: steelblue;"></circle><circle cx="221.64852619171143" cy="127.99307405948637" r="3" style="fill: steelblue;"></circle><circle cx="97.15213179588318" cy="346.35685086250305" r="3" style="fill: steelblue;"></circle><circle cx="207.27137625217438" cy="268.25272738933563" r="3" style="fill: steelblue;"></circle><circle cx="381.46813809871674" cy="319.11164969205856" r="3" style="fill: steelblue;"></circle><circle cx="507.36225843429565" cy="151.87838003039357" r="3" style="fill: steelblue;"></circle><circle cx="368.9957857131958" cy="39.58694338798519" r="3" style="fill: steelblue;"></circle><circle cx="404.9647629261017" cy="134.99369919300077" r="3" style="fill: steelblue;"></circle><circle cx="416.6475623846054" cy="81.18970394134516" r="3" style="fill: steelblue;"></circle><circle cx="517.1347618103027" cy="44.5568978786468" r="3" style="fill: steelblue;"></circle><circle cx="316.4160590618849" cy="157.35948532819745" r="3" style="fill: steelblue;"></circle><circle cx="364.8401990532875" cy="141.2377029657364" r="3" style="fill: steelblue;"></circle><circle cx="312.3966917395591" cy="157.92551711201668" r="3" style="fill: steelblue;"></circle><circle cx="143.9010500907898" cy="205.5250320583582" r="3" style="fill: steelblue;"></circle><circle cx="274.8260222375393" cy="253.4876063466072" r="3" style="fill: steelblue;"></circle><circle cx="240.37340730428693" cy="115.46469926834104" r="3" style="fill: steelblue;"></circle><circle cx="175.5110263824463" cy="201.86251755803826" r="3" style="fill: steelblue;"></circle></g></svg>