<svg xmlns="http://www.w3.org/2000/svg"><g transform="translate(40,20)"><circle cx="343.22940051555634" cy="136.55408173799512" r="3" style="fill: steelblue;"></circle><circle cx="251.3030813634396" cy="198.0944428825751" r="3" style="fill: steelblue;"></circle><circle cx="288.52370023727417" cy="42.64677762985223" r="3" style="fill: steelblue;"></circle><circle cx="251.70079484581947" cy="74.53782558441159" r="3" style="fill: steelblue;"></circle><circle cx="374.33403074741364" cy="57.13970661163326" r="3" style="fill: steelblue;"></circle><circle cx="360.7010507583618" cy="2.0858615636825064" r="3" style="fill: steelblue;"></circle><circle cx="356.3981169462204" cy="122.90917038917539" r="3" style="fill: steelblue;"></circle><circle cx="416.9036829471588" cy="47.29523956775662" r="3" style="fill: steelblue;"></circle><circle cx="441.37428045272827" cy="89.00396227836605" r="3" style="fill: steelblue;"></circle><circle cx="421.2056601047516" cy="17.307874560356098" r="3" style="fill: steelblue;"></circle><circle cx="339.11961257457733" cy="89.4174769520759" r="3" style="fill: steelblue;"></circle><circle cx="327.03143298625946" cy="100.7107317447662" r="3" style="fill: steelblue;"></circle><circle cx="310.0942397117615" cy="145.45962661504745" r="3" style="fill: steelblue;"></circle><circle cx="264.8094476759434" cy="113.40244561433792" r="3" style="fill: steelblue;"></circle><circle cx="191.43986642360687" cy="186.92352883517742" r="3" style="fill: steelblue;"></circle><circle cx="338.012325167656" cy="203.4256854560226" r="3" style="fill: steelblue;"></circle><circle cx="310.7788869738579" cy="75.07849931716913" r="3" style="fill: steelblue;"></circle><circle cx="447.04500675201416" cy="175.1079361885786" r="3" style="fill: steelblue;"></circle><circle cx="323.9565843343735" cy="155.1459215581417" r="3" style="fill: steelblue;"></circle><circle cx="348.9989572763443" cy="4.372221231460532" r="3" style="fill: steelblue;"></circle><circle cx="238.84031696710738" cy="213.35854548960924" r="3" style="fill: steelblue;"></circle><circle cx="397.37344622612" cy="197.683733003214" r="3" style="fill: steelblue;"></circle><circle cx="90.25916397571565" cy="214.5034771412611" r="3" style="fill: steelblue;"></circle><circle cx="279.7004172205925" cy="99.67666566371913" r="3" style="fill: steelblue;"></circle><circle cx="247.10846297442913" cy="244.13898661732676" r="3" style="fill: steelblue;"></circle><circle cx="311.7726096510887" cy="280.3884193301201" r="3" style="fill: steelblue;"></circle><circle cx="165.04606693983078" cy="264.5393431186676" r="3" style="fill: steelblue;"></circle><circle cx="151.32535636425018" cy="14.153254032134955" r="3" style="fill: steelblue;"></circle><circle cx="144.89948093891144" cy="82.48985260725016" r="3" style="fill: steelblue;"></circle><circle cx="389.9244153499604" cy="253.65343019366264" r="3" style="fill: steelblue;"></circle><circle cx="161.32799327373505" cy="236.69713437557218" r="3" style="fill: steelblue;"></circle><circle cx="274.10961851477623" cy="186.2667340785265" r="3" style="fill: steelblue;"></circle><circle cx="143.14688980579376" cy="201.99320237152276" r="3" style="fill: steelblue;"></circle><circle cx="159.64223384857178" cy="275.205534696579" r="3" style="fill: steelblue;"></circle><circle cx="356.60251021385193" cy="178.99646684527397" r="3" style="fill: steelblue;"></circle><circle cx="276.14678531885147" cy="102.54839509725569" r="3" style="fill: steelblue;"></circle><circle cx="161.9019323587418" cy="297.8895127773285" r="3" style="fill: steelblue;"></circle><circle cx="176.89701855182648" cy="309.87330228090286" r="3" style="fill: steelblue;"></circle><circle cx="177.9669338464737" cy="277.41953432559967" r="3" style="fill: steelblue;"></circle><circle cx="184.59892362356186" cy="291.2805125117302" r="3" style="fill: steelblue;"></circle><circle cx="252.03605979681015" cy="287.83983439207077" r="3" style="fill: steelblue;"></circle><circle cx="154.94513154029846" cy="207.84286856651306" r="3" style="fill: steelblue;"></circle><circle cx="186.47046178579333" cy="212.52969913184646" r="3" style="fill: steelblue;"></circle><circle cx="211.1905047297478" cy="222.2491640597582" r="3" style="fill: steelblue;"></circle><circle cx="213.5958069562912" cy="251.87920480966568" r="3" style="fill: steelblue;"></circle><circle cx="164.1600751876831" cy="265.69547206163406" r="3" style="fill: steelblue;"></circle><circle cx="174.52663868665695" cy="210.92036627233026" r="3" style="fill: steelblue;"></circle><circle cx="122.33207166194917" cy="266.61007553339005" r="3" style="fill: steelblue;"></circle><circle cx="221.66892863810065" cy="259.59169566631317" r="3" style="fill: steelblue;"></circle><circle cx="295.7445198297501" cy="268.60803067684174" r="3" style="fill: steelblue;"></circle><circle cx="229.75528702139854" cy="314.4648939371109" r="3" style="fill: steelblue;"></circle><circle cx="166.36734545230865" cy="164.77561816573143" r="3" style="fill: steelblue;"></circle><circle cx="203.90824913978577" cy="290.71819484233856" r="3" style="fill: steelblue;"></circle><circle cx="92.26162970066072" cy="246.2321229279041" r="3" style="fill: steelblue;"></circle><circle cx="353.8648599386215" cy="254.27292734384537" r="3" style="fill: steelblue;"></circle><circle cx="222.1590006351471" cy="263.9558508992195" r="3" style="fill: steelblue;"></circle><circle cx="159.1118985414505" cy="262.0352663099766" r="3" style="fill: steelblue;"></circle><circle cx="313.64292293787" cy="279.5901417732239" r="3" style="fill: steelblue;"></circle><circle cx="53.94388675689698" cy="342.94135570526123" r="3" style="fill: steelblue;"></circle><circle cx="174.42314118146896" cy="288.8553336262703" r="3" style="fill: steelblue;"></circle><circle cx="328.3302390575409" cy="84.72190499305721" r="3" style="fill: steelblue;"></circle><circle cx="194.69512939453125" cy="42.8222835063934" r="3" style="fill: steelblue;"></circle><circle cx="336.1844891309738" cy="96.07720822095868" r="3" style="fill: steelblue;"></circle><circle cx="406.7135417461395" cy="157.61306583881378" r="3" style="fill: steelblue;"></circle><circle cx="271.9428227841854" cy="93.93767714500424" r="3" style="fill: steelblue;"></circle><circle cx="341.42270028591156" cy="122.24178463220595" r="3" style="fill: steelblue;"></circle><circle cx="225.1875253021717" cy="129.32596057653424" r="3" style="fill: steelblue;"></circle><circle cx="435.93545794487" cy="253.1853623688221" r="3" style="fill: steelblue;"></circle><circle cx="237.73940993472934" cy="222.0568627119064" r="3" style="fill: steelblue;"></circle><circle cx="507.3458218574524" cy="168.92840787768364" r="3" style="fill: steelblue;"></circle><circle cx="290.72832852602005" cy="63.195970654487574" r="3" style="fill: steelblue;"></circle><circle cx="125.53632795810701" cy="181.79914988577363" r="3" style="fill: steelblue;"></circle><circle cx="181.3693606853485" cy="85.56845486164087" r="3" style="fill: steelblue;"></circle><circle cx="218.9043813943863" cy="309.8654121160507" r="3" style="fill: steelblue;"></circle><circle cx="106.0849392414093" cy="209.58358403295279" r="3" style="fill: steelblue;"></circle><circle cx="138.41966629028323" cy="186.12089361995456" r="3" style="fill: steelblue;"></circle><circle cx="311.84597700834274" cy="327.6120990514755" r="3" style="fill: steelblue;"></circle><circle cx="207.0105166733265" cy="349.46725964546204" r="3" style="fill: steelblue;"></circle><circle cx="116.42527520656586" cy="321.3524118065834" r="3" style="fill: steelblue;"></circle><circle cx="266.84712186455727" cy="308.6880713701248" r="3" style="fill: steelblue;"></circle><circle cx="288.39397072792053" cy="271.0557550191879" r="3" style="fill: steelblue;"></circle><circle cx="170.63453882932666" cy="282.4112296104431" r="3" style="fill: steelblue;"></circle><circle cx="221.78335055708885" cy="165.85967391729352" r="3" style="fill: steelblue;"></circle><circle cx="258.46500411629677" cy="193.1988068856299" r="3" style="fill: steelblue;"></circle><circle cx="264.0939259529114" cy="98.61915260553356" r="3" style="fill: steelblue;"></circle><circle cx="222.30727426707745" cy="153.0418328940868" r="3" style="fill: steelblue;"></circle><circle cx="185.3904926776886" cy="149.29857179522514" r="3" style="fill: steelblue;"></circle><circle cx="223.333832770586" cy="269.80903446674347" r="3" style="fill: steelblue;"></circle><circle cx="419.78301644325256" cy="182.80497081577775" r="3" style="fill: steelblue;"></circle><circle cx="432.0711278915405" cy="107.22811967134476" r="3" style="fill: steelblue;"></circle><circle cx="358.03771555423737" cy="66.02282524108884" r="3" style="fill: steelblue;"></circle><circle cx="275.2745018899441" cy="267.8297281265259" r="3" style="fill: steelblue;"></circle><circle cx="208.4139423072338" cy="196.66108307428658" r="3" style="fill: steelblue;"></circle><circle cx="332.9082155227661" cy="180.77098466455934" r="3" style="fill: steelblue;"></circle><circle cx="186.02605104446414" cy="179.67818006873134" r="3" style="fill: steelblue;"></circle><circle cx="99.21608805656435" cy="173.51179085671902" r="3" style="fill: steelblue;"></circle><circle cx="159.7312027215958" cy="336.67812943458557" r="3" style="fill: steelblue;"></circle><circle cx="145.86615800857544" cy="195.63457118347287" r="3" style="fill: steelblue;"></circle><circle cx="129.04109001159668" cy="241.03483259677887" r="3" style="fill: steelblue;"></circle><circle cx="334.11360919475555" cy="279.63743060827255" r="3" style="fill: steelblue;"></circle><circle cx="168.29451262950897" cy="247.5422963500023" r="3" style="fill: steelblue;"></circle><circle cx="222.83563256263733" cy="266.1676600575447" r="3" style="fill: steelblue;"></circle><circle cx="239.32661019265652" cy="127.99307405948637" r="3" style="fill: steelblue;"></circle><circle cx="228.4112946689129" cy="346.35685086250305" r="3" style="fill: steelblue;"></circle><circle cx="78.23230862617494" cy="268.25272738933563" r="3" style="fill: steelblue;"></circle><circle cx="166.78236812353134" cy="319.11164969205856" r="3" style="fill: steelblue;"></circle><circle cx="292.28862315416336" cy="151.87838003039357" r="3" style="fill: steelblue;"></circle><circle cx="277.0525047183037" cy="39.58694338798519" r="3" style="fill: steelblue;"></circle><circle cx="198.99208188056946" cy="134.99369919300077" r="3" style="fill: steelblue;"></circle><circle cx="368.00439298152924" cy="81.18970394134516" r="3" style="fill: steelblue;"></circle><circle cx="373.29669535160065" cy="44.5568978786468" r="3" style="fill: steelblue;"></circle><circle cx="225.29094681143764" cy="157.35948532819745" r="3" style="fill: steelblue;"></circle><circle cx="67.07161903381349" cy="141.2377029657364" r="3" style="fill: steelblue;"></circle><circle cx="200.18587052822113" cy="157.92551711201668" r="3" style="fill: steelblue;"></circle><circle cx="140.60577392578128" cy="205.5250320583582" r="3" style="fill: steelblue;"></circle><circle cx="198.5608273744583" cy="253.4876063466072" r="3" style="fill: steelblue;"></circle><circle cx="219.623868316412" cy="115.46469926834104" r="3" style="fill: steelblue;"></circle><circle cx="194.13314849138263" cy="201.86251755803826" r="3" style="fill: steelblue;"></circle></g></svg>