<svg xmlns="http://www.w3.org/2000/svg"><g transform="translate(40,20)"><circle cx="276.51744425296783" cy="126.56762550274533" r="3" style="fill: steelblue;"></circle><circle cx="329.87642526626587" cy="122.73342675632902" r="3" style="fill: steelblue;"></circle><circle cx="158.81517469882968" cy="174.34406007329625" r="3" style="fill: steelblue;"></circle><circle cx="237.49621599912646" cy="190.47006774279805" r="3" style="fill: steelblue;"></circle><circle cx="342.61322557926184" cy="93.16820916202335" r="3" style="fill: steelblue;"></circle><circle cx="335.6553786993027" cy="54.03641793462965" r="3" style="fill: steelblue;"></circle><circle cx="354.68161940574646" cy="204.97428394026224" r="3" style="fill: steelblue;"></circle><circle cx="214.36275109648705" cy="160.6771397093932" r="3" style="fill: steelblue;"></circle><circle cx="313.7135097384453" cy="42.81268947654302" r="3" style="fill: steelblue;"></circle><circle cx="481.0862624645233" cy="161.9319078202049" r="3" style="fill: steelblue;"></circle><circle cx="450.7539653778076" cy="78.7232486738099" r="3" style="fill: steelblue;"></circle><circle cx="241.93361341953278" cy="23.55747852060529" r="3" style="fill: steelblue;"></circle><circle cx="253.8883162289858" cy="82.63703452216254" r="3" style="fill: steelblue;"></circle><circle cx="423.7625026702881" cy="118.0511362850666" r="3" style="fill: steelblue;"></circle><circle cx="206.34542271494865" cy="153.47879303412304" r="3" style="fill: steelblue;"></circle><circle cx="377.25538551807404" cy="33.29696026113299" r="3" style="fill: steelblue;"></circle><circle cx="404.8949861526489" cy="133.5715686281522" r="3" style="fill: steelblue;"></circle><circle cx="363.2796013355255" cy="92.32929944992065" r="3" style="fill: steelblue;"></circle><circle cx="423.9047312736511" cy="186.64807884229555" r="3" style="fill: steelblue;"></circle><circle cx="392.74134278297424" cy="101.57695098055734" r="3" style="fill: steelblue;"></circle><circle cx="313.9524677395821" cy="110.83448280890781" r="3" style="fill: steelblue;"></circle><circle cx="283.350313603878" cy="247.71875821881827" r="3" style="fill: steelblue;"></circle><circle cx="436.4950740337372" cy="55.48856092823877" r="3" style="fill: steelblue;"></circle><circle cx="162.4640965461731" cy="175.720697020491" r="3" style="fill: steelblue;"></circle><circle cx="222.82718360424042" cy="145.02857931786116" r="3" style="fill: steelblue;"></circle><circle cx="253.71510922908783" cy="156.34376427365675" r="3" style="fill: steelblue;"></circle><circle cx="273.75535011291504" cy="86.47407276762857" r="3" style="fill: steelblue;"></circle><circle cx="227.06401214003563" cy="162.12445845206577" r="3" style="fill: steelblue;"></circle><circle cx="355.15127420425415" cy="60.727836522791115" r="3" style="fill: steelblue;"></circle><circle cx="265.97797214984894" cy="202.16344934370784" r="3" style="fill: steelblue;"></circle><circle cx="288.45230877399445" cy="153.67128100867075" r="3" style="fill: steelblue;"></circle><circle cx="143.15345227718356" cy="97.0543243818813" r="3" style="fill: steelblue;"></circle><circle cx="250.1238515228033" cy="139.55898413227663" r="3" style="fill: steelblue;"></circle><circle cx="334.39895153045654" cy="164.2517734732893" r="3" style="fill: steelblue;"></circle><circle cx="201.59885376691818" cy="64.06314108106824" r="3" style="fill: steelblue;"></circle><circle cx="222.10204057395458" cy="228.4416135814455" r="3" style="fill: steelblue;"></circle><circle cx="172.68016129732132" cy="81.79987486865787" r="3" style="fill: steelblue;"></circle><circle cx="346.079363822937" cy="180.4104440742069" r="3" style="fill: steelblue;"></circle><circle cx="249.6158266067505" cy="144.94131470306053" r="3" style="fill: steelblue;"></circle><circle cx="84.22085881233217" cy="182.9909402463171" r="3" style="fill: steelblue;"></circle><circle cx="214.17947798967361" cy="193.13701507118014" r="3" style="fill: steelblue;"></circle><circle cx="64.7851073741913" cy="119.7917636897829" r="3" style="fill: steelblue;"></circle><circle cx="240.5061189411208" cy="216.01465029848947" r="3" style="fill: steelblue;"></circle><circle cx="23.67501497268678" cy="235.19857244359122" r="3" style="fill: steelblue;"></circle><circle cx="61.50703668594362" cy="101.14933401346207" r="3" style="fill: steelblue;"></circle><circle cx="141.6626089811325" cy="205.92207395368155" r="3" style="fill: steelblue;"></circle><circle cx="118.76932919025423" cy="214.72016904089185" r="3" style="fill: steelblue;"></circle><circle cx="304.81064558029175" cy="143.04721020162106" r="3" style="fill: steelblue;"></circle><circle cx="93.89143824577333" cy="175.11690217587682" r="3" style="fill: steelblue;"></circle><circle cx="227.31791116297245" cy="83.979109260771" r="3" style="fill: steelblue;"></circle><circle cx="255.12919440865517" cy="173.8362069759104" r="3" style="fill: steelblue;"></circle><circle cx="98.09044539928438" cy="103.83276492357254" r="3" style="fill: steelblue;"></circle><circle cx="245.56850228458646" cy="311.5898761484358" r="3" style="fill: steelblue;"></circle><circle cx="225.0029144436121" cy="192.7617752717601" r="3" style="fill: steelblue;"></circle><circle cx="112.68416583538057" cy="167.469183045129" r="3" style="fill: steelblue;"></circle><circle cx="290.97359418869024" cy="159.9311569498645" r="3" style="fill: steelblue;"></circle><circle cx="130.57428538799286" cy="186.72499739461477" r="3" style="fill: steelblue;"></circle><circle cx="152.8427892923355" cy="210.08256011539038" r="3" style="fill: steelblue;"></circle><circle cx="121.04173243045808" cy="253.55697108639612" r="3" style="fill: steelblue;"></circle><circle cx="310.5566883087158" cy="94.15761811865701" r="3" style="fill: steelblue;"></circle><circle cx="400.1875841617584" cy="239.53404708041086" r="3" style="fill: steelblue;"></circle><circle cx="398.70357155799866" cy="74.77628125084772" r="3" style="fill: steelblue;"></circle><circle cx="323.1154704093933" cy="61.26826273070441" r="3" style="fill: steelblue;"></circle><circle cx="267.7845360338688" cy="114.97571542859077" r="3" style="fill: steelblue;"></circle><circle cx="339.2691904306412" cy="161.8305956530902" r="3" style="fill: steelblue;"></circle><circle cx="259.9170984327793" cy="69.83263807164298" r="3" style="fill: steelblue;"></circle><circle cx="229.4447386264801" cy="130.2563115126557" r="3" style="fill: steelblue;"></circle><circle cx="355.6119704246521" cy="124.9225153691239" r="3" style="fill: steelblue;"></circle><circle cx="133.9130812883377" cy="84.62785366508695" r="3" style="fill: steelblue;"></circle><circle cx="217.1585449576378" cy="113.78089479274222" r="3" style="fill: steelblue;"></circle><circle cx="357.32769906520844" cy="187.72579042447938" r="3" style="fill: steelblue;"></circle><circle cx="201.75182908773422" cy="139.8564361449745" r="3" style="fill: steelblue;"></circle><circle cx="102.82356083393097" cy="253.53234277831183" r="3" style="fill: steelblue;"></circle><circle cx="185.39983570575714" cy="83.15967039929495" r="3" style="fill: steelblue;"></circle><circle cx="236.34942999109626" cy="250.22742665476267" r="3" style="fill: steelblue;"></circle><circle cx="60.02990841865541" cy="214.00285363197327" r="3" style="fill: steelblue;"></circle><circle cx="201.3228589296341" cy="217.25588805145685" r="3" style="fill: steelblue;"></circle><circle cx="129.9245649576187" cy="279.242256614897" r="3" style="fill: steelblue;"></circle><circle cx="133.79741549491885" cy="222.33321948183908" r="3" style="fill: steelblue;"></circle><circle cx="188.05593341588977" cy="267.5677084260517" r="3" style="fill: steelblue;"></circle><circle cx="74.37307476997377" cy="224.81212533182565" r="3" style="fill: steelblue;"></circle><circle cx="205.86215570569038" cy="152.23135039624242" r="3" style="fill: steelblue;"></circle><circle cx="69.73460555076599" cy="133.98120258417396" r="3" style="fill: steelblue;"></circle><circle cx="173.70105922222137" cy="186.6812604169051" r="3" style="fill: steelblue;"></circle><circle cx="226.42694167792797" cy="155.9137898251518" r="3" style="fill: steelblue;"></circle><circle cx="246.6730219870806" cy="146.38528254710968" r="3" style="fill: steelblue;"></circle><circle cx="360.1653331518174" cy="161.1128941592243" r="3" style="fill: steelblue;"></circle><circle cx="166.06599032878879" cy="69.03323796060351" r="3" style="fill: steelblue;"></circle><circle cx="225.39346978068352" cy="45.534783932897774" r="3" style="fill: steelblue;"></circle><circle cx="228.35581205785275" cy="109.32886161737973" r="3" style="fill: steelblue;"></circle><circle cx="420.5454969406128" cy="142.6857216904561" r="3" style="fill: steelblue;"></circle><circle cx="357.62319803237915" cy="101.61402093039618" r="3" style="fill: steelblue;"></circle><circle cx="423.31514596939087" cy="176.71674547923936" r="3" style="fill: steelblue;"></circle><circle cx="428.91146779060364" cy="120.3208290040493" r="3" style="fill: steelblue;"></circle><circle cx="69.91624474525453" cy="213.76053426000806" r="3" style="fill: steelblue;"></circle><circle cx="146.23545348644257" cy="270.1578531000349" r="3" style="fill: steelblue;"></circle><circle cx="89.42463040351869" cy="225.9594741794798" r="3" style="fill: steelblue;"></circle><circle cx="143.11018824577332" cy="244.1956642601225" r="3" style="fill: steelblue;"></circle><circle cx="43.3406674861908" cy="148.98326699104575" r="3" style="fill: steelblue;"></circle><circle cx="89.20107722282411" cy="270.94943589634363" r="3" style="fill: steelblue;"></circle><circle cx="194.66231256723404" cy="203.0252459976408" r="3" style="fill: steelblue;"></circle><circle cx="149.95616912841797" cy="266.104010409779" r="3" style="fill: steelblue;"></circle><circle cx="184.3123072385788" cy="192.13392146759566" r="3" style="fill: steelblue;"></circle><circle cx="62.05873131752015" cy="190.0883289674918" r="3" style="fill: steelblue;"></circle><circle cx="378.63268196582794" cy="265.04812240600586" r="3" style="fill: steelblue;"></circle><circle cx="296.912961602211" cy="197.06052185760603" r="3" style="fill: steelblue;"></circle><circle cx="237.99204342998567" cy="136.31575033068657" r="3" style="fill: steelblue;"></circle><circle cx="305.010242164135" cy="149.5675725138022" r="3" style="fill: steelblue;"></circle><circle cx="299.37921702861786" cy="46.3213599390454" r="3" style="fill: steelblue;"></circle><circle cx="328.91983330249786" cy="97.40156034628552" r="3" style="fill: steelblue;"></circle><circle cx="438.29816222190857" cy="29.83853154712255" r="3" style="fill: steelblue;"></circle><circle cx="446.3426077365875" cy="93.59390222364003" r="3" style="fill: steelblue;"></circle><circle cx="469.04106974601746" cy="237.67649895615045" r="3" style="fill: steelblue;"></circle><circle cx="127.96179592609407" cy="251.81130501959058" r="3" style="fill: steelblue;"></circle><circle cx="80.15307426452637" cy="129.18454549378822" r="3" style="fill: steelblue;"></circle><circle cx="108.301722407341" cy="232.48024466964932" r="3" style="fill: steelblue;"></circle><circle cx="98.29438269138338" cy="242.48213089174692" r="3" style="fill: steelblue;"></circle><circle cx="166.65114998817444" cy="170.83830878966387" r="3" style="fill: steelblue;"></circle></g></svg>