<svg xmlns="http://www.w3.org/2000/svg"><g transform="translate(40,20)"><circle cx="280.73914736509323" cy="193.98484374396503" r="3" style="fill: steelblue;"></circle><circle cx="325.7203423976898" cy="66.89155492931604" r="3" style="fill: steelblue;"></circle><circle cx="288.39540123939514" cy="19.662470743060112" r="3" style="fill: steelblue;"></circle><circle cx="384.0794259309769" cy="101.01711302995682" r="3" style="fill: steelblue;"></circle><circle cx="157.85828769207" cy="249.2130558937788" r="3" style="fill: steelblue;"></circle><circle cx="370.39585053920746" cy="7.954848185181618" r="3" style="fill: steelblue;"></circle><circle cx="376.1918896436691" cy="127.18215836212039" r="3" style="fill: steelblue;"></circle><circle cx="471.47521018981934" cy="120.4800090752542" r="3" style="fill: steelblue;"></circle><circle cx="364.12584722042084" cy="91.02918598800898" r="3" style="fill: steelblue;"></circle><circle cx="277.9044994711876" cy="172.37603653920814" r="3" style="fill: steelblue;"></circle><circle cx="412.81184792518616" cy="280.02192191779613" r="3" style="fill: steelblue;"></circle><circle cx="464.4302988052368" cy="231.92556779831648" r="3" style="fill: steelblue;"></circle><circle cx="283.6656430363655" cy="53.60635668039322" r="3" style="fill: steelblue;"></circle><circle cx="357.7128195762634" cy="181.07307715108618" r="3" style="fill: steelblue;"></circle><circle cx="327.6007318496704" cy="92.57589299231768" r="3" style="fill: steelblue;"></circle><circle cx="480.19453525543213" cy="44.105855002999306" r="3" style="fill: steelblue;"></circle><circle cx="347.18499720096594" cy="294.5753701031208" r="3" style="fill: steelblue;"></circle><circle cx="289.28098171949387" cy="20.028279349207878" r="3" style="fill: steelblue;"></circle><circle cx="305.9966826438904" cy="107.12413229048252" r="3" style="fill: steelblue;"></circle><circle cx="333.19725036621094" cy="173.04240392404608" r="3" style="fill: steelblue;"></circle><circle cx="315.7950961589813" cy="53.304606303572655" r="3" style="fill: steelblue;"></circle><circle cx="177.51145899295807" cy="245.493851788342" r="3" style="fill: steelblue;"></circle><circle cx="243.85683076456192" cy="212.58255764842033" r="3" style="fill: steelblue;"></circle><circle cx="152.60022819042206" cy="113.21847159415483" r="3" style="fill: steelblue;"></circle><circle cx="329.51245844364166" cy="188.76611576415598" r="3" style="fill: steelblue;"></circle><circle cx="311.04959338903427" cy="288.0853835493326" r="3" style="fill: steelblue;"></circle><circle cx="73.1847667694092" cy="154.484299197793" r="3" style="fill: steelblue;"></circle><circle cx="293.54911834001547" cy="121.64617720991373" r="3" style="fill: steelblue;"></circle><circle cx="191.25918835401535" cy="78.30156031996012" r="3" style="fill: steelblue;"></circle><circle cx="188.58030080795288" cy="205.1846112124622" r="3" style="fill: steelblue;"></circle><circle cx="285.79347521066666" cy="167.3594230785966" r="3" style="fill: steelblue;"></circle><circle cx="205.46393260359764" cy="216.98804404586554" r="3" style="fill: steelblue;"></circle><circle cx="228.55915479362014" cy="246.06720097362995" r="3" style="fill: steelblue;"></circle><circle cx="206.1751113831997" cy="236.89283169806004" r="3" style="fill: steelblue;"></circle><circle cx="271.10907822847366" cy="186.06360624544322" r="3" style="fill: steelblue;"></circle><circle cx="254.58742395043373" cy="138.60267279669642" r="3" style="fill: steelblue;"></circle><circle cx="202.93140649795535" cy="215.96323950216174" r="3" style="fill: steelblue;"></circle><circle cx="138.1953710317612" cy="194.82243149541318" r="3" style="fill: steelblue;"></circle><circle cx="381.22965037822723" cy="211.72801982611418" r="3" style="fill: steelblue;"></circle><circle cx="42.527636289596565" cy="179.71827876754105" r="3" style="fill: steelblue;"></circle><circle cx="194.2748138308525" cy="310.32159477472305" r="3" style="fill: steelblue;"></circle><circle cx="85.99424600601198" cy="314.37104493379593" r="3" style="fill: steelblue;"></circle><circle cx="296.9583088159561" cy="171.5020774397999" r="3" style="fill: steelblue;"></circle><circle cx="168.76454740762713" cy="229.22593653202057" r="3" style="fill: steelblue;"></circle><circle cx="274.1983996331692" cy="144.54307286068797" r="3" style="fill: steelblue;"></circle><circle cx="31.473573446273814" cy="194.8210934177041" r="3" style="fill: steelblue;"></circle><circle cx="142.18151807785034" cy="138.01329927518964" r="3" style="fill: steelblue;"></circle><circle cx="173.0852374434471" cy="185.5108937714249" r="3" style="fill: steelblue;"></circle><circle cx="110.71467339992525" cy="147.93372428976" r="3" style="fill: steelblue;"></circle><circle cx="148.42984914779663" cy="227.77129774913192" r="3" style="fill: steelblue;"></circle><circle cx="130.58222472667697" cy="223.2637328095734" r="3" style="fill: steelblue;"></circle><circle cx="228.9275662600994" cy="91.6456013917923" r="3" style="fill: steelblue;"></circle><circle cx="79.87585902214052" cy="206.17431281134486" r="3" style="fill: steelblue;"></circle><circle cx="135.81981897354126" cy="252.15569250285625" r="3" style="fill: steelblue;"></circle><circle cx="98.0841511487961" cy="159.74122839979827" r="3" style="fill: steelblue;"></circle><circle cx="106.82412028312683" cy="273.84246718138456" r="3" style="fill: steelblue;"></circle><circle cx="104.14869725704193" cy="134.97490780428052" r="3" style="fill: steelblue;"></circle><circle cx="183.5532331466675" cy="191.87663793563843" r="3" style="fill: steelblue;"></circle><circle cx="64.48552250862123" cy="225.66147027537227" r="3" style="fill: steelblue;"></circle><circle cx="228.1574895232916" cy="195.21900448016822" r="3" style="fill: steelblue;"></circle><circle cx="199.704065322876" cy="85.99888738244772" r="3" style="fill: steelblue;"></circle><circle cx="404.57122564315796" cy="157.80493053607643" r="3" style="fill: steelblue;"></circle><circle cx="279.6971493959427" cy="61.58023066818714" r="3" style="fill: steelblue;"></circle><circle cx="373.3394855260849" cy="59.191861376166344" r="3" style="fill: steelblue;"></circle><circle cx="335.2031135559082" cy="71.0803933441639" r="3" style="fill: steelblue;"></circle><circle cx="388.7956076860428" cy="60.58164983987808" r="3" style="fill: steelblue;"></circle><circle cx="364.7229605913162" cy="247.4229197949171" r="3" style="fill: steelblue;"></circle><circle cx="189.8639926314354" cy="61.5987453609705" r="3" style="fill: steelblue;"></circle><circle cx="158.09021830558777" cy="191.93930104374886" r="3" style="fill: steelblue;"></circle><circle cx="330.6309932470322" cy="185.87502937298268" r="3" style="fill: steelblue;"></circle><circle cx="353.003146648407" cy="126.42189878970385" r="3" style="fill: steelblue;"></circle><circle cx="264.40629601478577" cy="301.6103535890579" r="3" style="fill: steelblue;"></circle><circle cx="110.36507427692415" cy="171.76672264467925" r="3" style="fill: steelblue;"></circle><circle cx="105.78404903411867" cy="225.21257046610117" r="3" style="fill: steelblue;"></circle><circle cx="171.40087723731995" cy="261.6726031526923" r="3" style="fill: steelblue;"></circle><circle cx="124.24167931079866" cy="213.4124657139182" r="3" style="fill: steelblue;"></circle><circle cx="156.62934422492984" cy="268.31854339689016" r="3" style="fill: steelblue;"></circle><circle cx="122.44428634643556" cy="234.1570120304823" r="3" style="fill: steelblue;"></circle><circle cx="164.64669942855835" cy="288.1880749017" r="3" style="fill: steelblue;"></circle><circle cx="306.42108857631683" cy="263.4941490367055" r="3" style="fill: steelblue;"></circle><circle cx="149.0152680873871" cy="154.74079614505172" r="3" style="fill: steelblue;"></circle><circle cx="33.38341355323793" cy="199.91243020631373" r="3" style="fill: steelblue;"></circle><circle cx="204.1522318124771" cy="260.75794473290443" r="3" style="fill: steelblue;"></circle><circle cx="219.82205897569656" cy="183.3922432968393" r="3" style="fill: steelblue;"></circle><circle cx="316.0879397392273" cy="180.97088370705023" r="3" style="fill: steelblue;"></circle><circle cx="256.21415354311466" cy="97.95258585363626" r="3" style="fill: steelblue;"></circle><circle cx="112.89674878120422" cy="116.72996561974287" r="3" style="fill: steelblue;"></circle><circle cx="324.0222090482712" cy="167.7100467029959" r="3" style="fill: steelblue;"></circle><circle cx="291.50590538978577" cy="112.00085021555424" r="3" style="fill: steelblue;"></circle><circle cx="420.64831495285034" cy="144.36619887128472" r="3" style="fill: steelblue;"></circle><circle cx="368.66511940956116" cy="142.4739157781005" r="3" style="fill: steelblue;"></circle><circle cx="448.39948654174805" cy="125.81352815032005" r="3" style="fill: steelblue;"></circle><circle cx="177.74475306272507" cy="279.8246491700411" r="3" style="fill: steelblue;"></circle><circle cx="344.58617806434637" cy="46.95800431072712" r="3" style="fill: steelblue;"></circle><circle cx="105.52476882934572" cy="286.20778508484364" r="3" style="fill: steelblue;"></circle><circle cx="7.37288832664491" cy="185.38631971459836" r="3" style="fill: steelblue;"></circle><circle cx="132.32507944107056" cy="105.87471649050713" r="3" style="fill: steelblue;"></circle><circle cx="206.62520840764046" cy="97.33635298907757" r="3" style="fill: steelblue;"></circle><circle cx="82.85790324211122" cy="188.78705073148012" r="3" style="fill: steelblue;"></circle><circle cx="11.965330839157117" cy="234.91550162434578" r="3" style="fill: steelblue;"></circle><circle cx="181.6810154914856" cy="157.2408827021718" r="3" style="fill: steelblue;"></circle><circle cx="71.00906610488893" cy="221.99824703857303" r="3" style="fill: steelblue;"></circle><circle cx="66.80768966674806" cy="316.28846302628517" r="3" style="fill: steelblue;"></circle><circle cx="341.5916705131531" cy="270.29641456902027" r="3" style="fill: steelblue;"></circle><circle cx="337.4797546863556" cy="138.89902848750353" r="3" style="fill: steelblue;"></circle><circle cx="184.68176811933517" cy="311.2788174301386" r="3" style="fill: steelblue;"></circle><circle cx="320.5165797472" cy="120.81200880929828" r="3" style="fill: steelblue;"></circle><circle cx="384.4419175386429" cy="16.32583625614643" r="3" style="fill: steelblue;"></circle><circle cx="400.55206060409546" cy="174.85659590674913" r="3" style="fill: steelblue;"></circle><circle cx="333.77979040145874" cy="142.7800014615059" r="3" style="fill: steelblue;"></circle><circle cx="466.1682629585266" cy="72.39442151039839" r="3" style="fill: steelblue;"></circle><circle cx="301.56173944473267" cy="162.19020967837423" r="3" style="fill: steelblue;"></circle><circle cx="243.19173065945506" cy="211.4124388433993" r="3" style="fill: steelblue;"></circle><circle cx="353.8651102781296" cy="147.65153983607888" r="3" style="fill: steelblue;"></circle><circle cx="220.86397647857666" cy="265.6403409317136" r="3" style="fill: steelblue;"></circle><circle cx="119.74095046520233" cy="330.5458065122366" r="3" style="fill: steelblue;"></circle><circle cx="213.69678765535357" cy="163.63562534097582" r="3" style="fill: steelblue;"></circle><circle cx="95.99518418312074" cy="196.00132685154676" r="3" style="fill: steelblue;"></circle></g></svg>