<svg xmlns="http://www.w3.org/2000/svg"><g transform="translate(40,20)"><circle cx="418.08858521282673" cy="136.55408173799512" r="3" style="fill: steelblue;"></circle><circle cx="230.71500135585666" cy="198.0944428825751" r="3" style="fill: steelblue;"></circle><circle cx="409.65156599879265" cy="42.64677762985223" r="3" style="fill: steelblue;"></circle><circle cx="353.1555990502238" cy="74.53782558441159" r="3" style="fill: steelblue;"></circle><circle cx="285.15971585176885" cy="57.13970661163326" r="3" style="fill: steelblue;"></circle><circle cx="332.42534033954144" cy="2.0858615636825064" r="3" style="fill: steelblue;"></circle><circle cx="431.771884560585" cy="122.90917038917539" r="3" style="fill: steelblue;"></circle><circle cx="307.0652007870376" cy="47.29523956775662" r="3" style="fill: steelblue;"></circle><circle cx="392.50859923660755" cy="89.00396227836605" r="3" style="fill: steelblue;"></circle><circle cx="428.82716104388237" cy="17.307874560356098" r="3" style="fill: steelblue;"></circle><circle cx="432.27149963378906" cy="89.4174769520759" r="3" style="fill: steelblue;"></circle><circle cx="273.63020153017715" cy="100.7107317447662" r="3" style="fill: steelblue;"></circle><circle cx="238.0252891033888" cy="145.45962661504745" r="3" style="fill: steelblue;"></circle><circle cx="383.4153474122286" cy="113.40244561433792" r="3" style="fill: steelblue;"></circle><circle cx="393.36948774755" cy="186.92352883517742" r="3" style="fill: steelblue;"></circle><circle cx="378.51687267422676" cy="203.4256854560226" r="3" style="fill: steelblue;"></circle><circle cx="355.84478683769703" cy="75.07849931716913" r="3" style="fill: steelblue;"></circle><circle cx="311.3392748683691" cy="175.1079361885786" r="3" style="fill: steelblue;"></circle><circle cx="190.98614070564508" cy="155.1459215581417" r="3" style="fill: steelblue;"></circle><circle cx="432.531516328454" cy="4.372221231460532" r="3" style="fill: steelblue;"></circle><circle cx="193.74821081757545" cy="213.35854548960924" r="3" style="fill: steelblue;"></circle><circle cx="201.60163331776857" cy="197.683733003214" r="3" style="fill: steelblue;"></circle><circle cx="227.32403453439474" cy="214.5034771412611" r="3" style="fill: steelblue;"></circle><circle cx="146.31132267415524" cy="99.67666566371913" r="3" style="fill: steelblue;"></circle><circle cx="266.88430388923734" cy="244.13898661732676" r="3" style="fill: steelblue;"></circle><circle cx="315.7578990608454" cy="280.3884193301201" r="3" style="fill: steelblue;"></circle><circle cx="346.70178674161434" cy="264.5393431186676" r="3" style="fill: steelblue;"></circle><circle cx="237.69705964252353" cy="14.153254032134955" r="3" style="fill: steelblue;"></circle><circle cx="451.8084888160229" cy="82.48985260725016" r="3" style="fill: steelblue;"></circle><circle cx="92.84710854291917" cy="253.65343019366264" r="3" style="fill: steelblue;"></circle><circle cx="265.7794095855206" cy="236.69713437557218" r="3" style="fill: steelblue;"></circle><circle cx="230.57553319260478" cy="186.2667340785265" r="3" style="fill: steelblue;"></circle><circle cx="192.96931240707636" cy="201.99320237152276" r="3" style="fill: steelblue;"></circle><circle cx="366.8302834779024" cy="275.205534696579" r="3" style="fill: steelblue;"></circle><circle cx="208.309764303267" cy="178.99646684527397" r="3" style="fill: steelblue;"></circle><circle cx="133.1618566811085" cy="102.54839509725569" r="3" style="fill: steelblue;"></circle><circle cx="205.9993664547801" cy="297.8895127773285" r="3" style="fill: steelblue;"></circle><circle cx="118.14563356339933" cy="309.87330228090286" r="3" style="fill: steelblue;"></circle><circle cx="184.41441513597965" cy="277.41953432559967" r="3" style="fill: steelblue;"></circle><circle cx="261.6206474415958" cy="291.2805125117302" r="3" style="fill: steelblue;"></circle><circle cx="194.01117961853743" cy="287.83983439207077" r="3" style="fill: steelblue;"></circle><circle cx="71.10761672258378" cy="207.84286856651306" r="3" style="fill: steelblue;"></circle><circle cx="196.07945948839188" cy="212.52969913184646" r="3" style="fill: steelblue;"></circle><circle cx="192.25674837827682" cy="222.2491640597582" r="3" style="fill: steelblue;"></circle><circle cx="63.41172203421594" cy="251.87920480966568" r="3" style="fill: steelblue;"></circle><circle cx="78.49952995777132" cy="265.69547206163406" r="3" style="fill: steelblue;"></circle><circle cx="162.71876737475395" cy="210.92036627233026" r="3" style="fill: steelblue;"></circle><circle cx="61.99072793126108" cy="266.61007553339005" r="3" style="fill: steelblue;"></circle><circle cx="288.68988052010536" cy="259.59169566631317" r="3" style="fill: steelblue;"></circle><circle cx="350.66583182662725" cy="268.60803067684174" r="3" style="fill: steelblue;"></circle><circle cx="250.15562589280307" cy="314.4648939371109" r="3" style="fill: steelblue;"></circle><circle cx="298.3038094639778" cy="164.77561816573143" r="3" style="fill: steelblue;"></circle><circle cx="115.45373506844045" cy="290.71819484233856" r="3" style="fill: steelblue;"></circle><circle cx="77.19973817467691" cy="246.2321229279041" r="3" style="fill: steelblue;"></circle><circle cx="263.80086155142635" cy="254.27292734384537" r="3" style="fill: steelblue;"></circle><circle cx="355.1963896304369" cy="263.9558508992195" r="3" style="fill: steelblue;"></circle><circle cx="114.92579586803915" cy="262.0352663099766" r="3" style="fill: steelblue;"></circle><circle cx="98.73001769185068" cy="279.5901417732239" r="3" style="fill: steelblue;"></circle><circle cx="282.7986280247569" cy="342.94135570526123" r="3" style="fill: steelblue;"></circle><circle cx="368.62488247454166" cy="288.8553336262703" r="3" style="fill: steelblue;"></circle><circle cx="257.95155650004745" cy="84.72190499305721" r="3" style="fill: steelblue;"></circle><circle cx="332.1240997686982" cy="42.8222835063934" r="3" style="fill: steelblue;"></circle><circle cx="414.66217048466206" cy="96.07720822095868" r="3" style="fill: steelblue;"></circle><circle cx="297.46447836980224" cy="157.61306583881378" r="3" style="fill: steelblue;"></circle><circle cx="335.24731758981943" cy="93.93767714500424" r="3" style="fill: steelblue;"></circle><circle cx="400.1453713327646" cy="122.24178463220595" r="3" style="fill: steelblue;"></circle><circle cx="306.8721622042358" cy="129.32596057653424" r="3" style="fill: steelblue;"></circle><circle cx="256.8997014127672" cy="253.1853623688221" r="3" style="fill: steelblue;"></circle><circle cx="258.2717720232904" cy="222.0568627119064" r="3" style="fill: steelblue;"></circle><circle cx="457.10749447345734" cy="168.92840787768364" r="3" style="fill: steelblue;"></circle><circle cx="400.15903048217297" cy="63.195970654487574" r="3" style="fill: steelblue;"></circle><circle cx="267.77331441873685" cy="181.79914988577363" r="3" style="fill: steelblue;"></circle><circle cx="371.48609206080437" cy="85.56845486164087" r="3" style="fill: steelblue;"></circle><circle cx="140.59241384267807" cy="309.8654121160507" r="3" style="fill: steelblue;"></circle><circle cx="167.20835275948048" cy="209.58358403295279" r="3" style="fill: steelblue;"></circle><circle cx="193.15226756036282" cy="186.12089361995456" r="3" style="fill: steelblue;"></circle><circle cx="194.65591058135033" cy="327.6120990514755" r="3" style="fill: steelblue;"></circle><circle cx="136.08134396374226" cy="349.46725964546204" r="3" style="fill: steelblue;"></circle><circle cx="68.99408966302873" cy="321.3524118065834" r="3" style="fill: steelblue;"></circle><circle cx="224.39456943422556" cy="308.6880713701248" r="3" style="fill: steelblue;"></circle><circle cx="380.24889908730984" cy="271.0557550191879" r="3" style="fill: steelblue;"></circle><circle cx="139.21651102602482" cy="282.4112296104431" r="3" style="fill: steelblue;"></circle><circle cx="285.5731829814613" cy="165.85967391729352" r="3" style="fill: steelblue;"></circle><circle cx="216.29897363483906" cy="193.1988068856299" r="3" style="fill: steelblue;"></circle><circle cx="332.1847612783313" cy="98.61915260553356" r="3" style="fill: steelblue;"></circle><circle cx="216.78959157317877" cy="153.0418328940868" r="3" style="fill: steelblue;"></circle><circle cx="378.67891162633896" cy="149.29857179522514" r="3" style="fill: steelblue;"></circle><circle cx="353.394468203187" cy="269.80903446674347" r="3" style="fill: steelblue;"></circle><circle cx="387.27092899382114" cy="182.80497081577775" r="3" style="fill: steelblue;"></circle><circle cx="242.78013406321406" cy="107.22811967134476" r="3" style="fill: steelblue;"></circle><circle cx="420.3760602325201" cy="66.02282524108884" r="3" style="fill: steelblue;"></circle><circle cx="290.7654023543" cy="267.8297281265259" r="3" style="fill: steelblue;"></circle><circle cx="314.3957559764385" cy="196.66108307428658" r="3" style="fill: steelblue;"></circle><circle cx="284.7608860395849" cy="180.77098466455934" r="3" style="fill: steelblue;"></circle><circle cx="434.42293636500835" cy="179.67818006873134" r="3" style="fill: steelblue;"></circle><circle cx="87.29688718914987" cy="173.51179085671902" r="3" style="fill: steelblue;"></circle><circle cx="182.1359322220087" cy="336.67812943458557" r="3" style="fill: steelblue;"></circle><circle cx="283.1181407254189" cy="195.63457118347287" r="3" style="fill: steelblue;"></circle><circle cx="359.7473908960819" cy="241.03483259677887" r="3" style="fill: steelblue;"></circle><circle cx="216.86303716152906" cy="279.63743060827255" r="3" style="fill: steelblue;"></circle><circle cx="131.90950982272628" cy="247.5422963500023" r="3" style="fill: steelblue;"></circle><circle cx="127.14087747037412" cy="266.1676600575447" r="3" style="fill: steelblue;"></circle><circle cx="165.21512277424335" cy="127.99307405948637" r="3" style="fill: steelblue;"></circle><circle cx="284.2600048799068" cy="346.35685086250305" r="3" style="fill: steelblue;"></circle><circle cx="161.90738573670387" cy="268.25272738933563" r="3" style="fill: steelblue;"></circle><circle cx="183.47964853048325" cy="319.11164969205856" r="3" style="fill: steelblue;"></circle><circle cx="270.7230034272652" cy="151.87838003039357" r="3" style="fill: steelblue;"></circle><circle cx="477.2179466485977" cy="39.58694338798519" r="3" style="fill: steelblue;"></circle><circle cx="531.3919839262962" cy="134.99369919300077" r="3" style="fill: steelblue;"></circle><circle cx="445.07680132985115" cy="81.18970394134516" r="3" style="fill: steelblue;"></circle><circle cx="414.1419258713722" cy="44.5568978786468" r="3" style="fill: steelblue;"></circle><circle cx="524.2206086218357" cy="157.35948532819745" r="3" style="fill: steelblue;"></circle><circle cx="332.3853234574199" cy="141.2377029657364" r="3" style="fill: steelblue;"></circle><circle cx="67.69912585616113" cy="157.92551711201668" r="3" style="fill: steelblue;"></circle><circle cx="224.95203472673893" cy="205.5250320583582" r="3" style="fill: steelblue;"></circle><circle cx="162.8698629140854" cy="253.4876063466072" r="3" style="fill: steelblue;"></circle><circle cx="390.4093147069216" cy="115.46469926834104" r="3" style="fill: steelblue;"></circle><circle cx="333.2802039384842" cy="201.86251755803826" r="3" style="fill: steelblue;"></circle></g></svg>