<svg xmlns="http://www.w3.org/2000/svg"><g transform="translate(40,20)"><circle cx="280.73914736509323" cy="170.77573057678012" r="3" style="fill: steelblue;"></circle><circle cx="325.7203423976898" cy="136.19120584593878" r="3" style="fill: steelblue;"></circle><circle cx="288.39540123939514" cy="247.0642386211289" r="3" style="fill: steelblue;"></circle><circle cx="384.0794259309769" cy="196.0672674079736" r="3" style="fill: steelblue;"></circle><circle cx="157.85828769207" cy="127.93587230973772" r="3" style="fill: steelblue;"></circle><circle cx="370.39585053920746" cy="132.44558788008158" r="3" style="fill: steelblue;"></circle><circle cx="376.1918896436691" cy="120.11376519997913" r="3" style="fill: steelblue;"></circle><circle cx="471.47521018981934" cy="211.0611798448695" r="3" style="fill: steelblue;"></circle><circle cx="364.12584722042084" cy="146.66716961397066" r="3" style="fill: steelblue;"></circle><circle cx="277.9044994711876" cy="38.18482988410528" r="3" style="fill: steelblue;"></circle><circle cx="412.81184792518616" cy="57.844652069939514" r="3" style="fill: steelblue;"></circle><circle cx="464.4302988052368" cy="193.19117648733987" r="3" style="fill: steelblue;"></circle><circle cx="283.6656430363655" cy="185.44275799973144" r="3" style="fill: steelblue;"></circle><circle cx="357.7128195762634" cy="75.33911863962811" r="3" style="fill: steelblue;"></circle><circle cx="327.6007318496704" cy="216.2575963884592" r="3" style="fill: steelblue;"></circle><circle cx="480.19453525543213" cy="105.48262049754459" r="3" style="fill: steelblue;"></circle><circle cx="347.18499720096594" cy="87.56806453069049" r="3" style="fill: steelblue;"></circle><circle cx="289.28098171949387" cy="114.5409991343816" r="3" style="fill: steelblue;"></circle><circle cx="305.9966826438904" cy="75.24693343374463" r="3" style="fill: steelblue;"></circle><circle cx="333.19725036621094" cy="95.44542597399817" r="3" style="fill: steelblue;"></circle><circle cx="315.7950961589813" cy="146.51228942804863" r="3" style="fill: steelblue;"></circle><circle cx="177.51145899295807" cy="166.34701896044942" r="3" style="fill: steelblue;"></circle><circle cx="243.85683076456192" cy="67.08652608924443" r="3" style="fill: steelblue;"></circle><circle cx="152.60022819042206" cy="244.69919668303595" r="3" style="fill: steelblue;"></circle><circle cx="329.51245844364166" cy="205.57497358984415" r="3" style="fill: steelblue;"></circle><circle cx="311.04959338903427" cy="185.55502179596158" r="3" style="fill: steelblue;"></circle><circle cx="73.1847667694092" cy="172.5659767786662" r="3" style="fill: steelblue;"></circle><circle cx="293.54911834001547" cy="202.82888102034724" r="3" style="fill: steelblue;"></circle><circle cx="191.25918835401535" cy="119.8093593120575" r="3" style="fill: steelblue;"></circle><circle cx="188.58030080795288" cy="177.6068699028757" r="3" style="fill: steelblue;"></circle><circle cx="285.79347521066666" cy="163.04017023907767" r="3" style="fill: steelblue;"></circle><circle cx="205.46393260359764" cy="257.2153550055292" r="3" style="fill: steelblue;"></circle><circle cx="228.55915479362014" cy="187.88268882781267" r="3" style="fill: steelblue;"></circle><circle cx="206.1751113831997" cy="133.25993882285223" r="3" style="fill: steelblue;"></circle><circle cx="271.10907822847366" cy="219.33407626218263" r="3" style="fill: steelblue;"></circle><circle cx="254.58742395043373" cy="206.0449737020665" r="3" style="fill: steelblue;"></circle><circle cx="202.93140649795535" cy="238.07767323321764" r="3" style="fill: steelblue;"></circle><circle cx="138.1953710317612" cy="125.68930122587415" r="3" style="fill: steelblue;"></circle><circle cx="381.22965037822723" cy="188.21196423636542" r="3" style="fill: steelblue;"></circle><circle cx="42.527636289596565" cy="295.41240632534027" r="3" style="fill: steelblue;"></circle><circle cx="194.2748138308525" cy="211.179967969656" r="3" style="fill: steelblue;"></circle><circle cx="85.99424600601198" cy="308.009652627839" r="3" style="fill: steelblue;"></circle><circle cx="296.9583088159561" cy="194.11640439001428" r="3" style="fill: steelblue;"></circle><circle cx="168.76454740762713" cy="334.65508288807337" r="3" style="fill: steelblue;"></circle><circle cx="274.1983996331692" cy="310.1343280739254" r="3" style="fill: steelblue;"></circle><circle cx="31.473573446273814" cy="258.18164232704373" r="3" style="fill: steelblue;"></circle><circle cx="142.18151807785034" cy="273.0198792285389" r="3" style="fill: steelblue;"></circle><circle cx="173.0852374434471" cy="152.43754453129236" r="3" style="fill: steelblue;"></circle><circle cx="110.71467339992525" cy="289.1444381740358" r="3" style="fill: steelblue;"></circle><circle cx="148.42984914779663" cy="202.66431683881416" r="3" style="fill: steelblue;"></circle><circle cx="130.58222472667697" cy="184.63848510550127" r="3" style="fill: steelblue;"></circle><circle cx="228.9275662600994" cy="286.4228594634268" r="3" style="fill: steelblue;"></circle><circle cx="79.87585902214052" cy="190.83523000073103" r="3" style="fill: steelblue;"></circle><circle cx="135.81981897354126" cy="204.1647776754366" r="3" style="fill: steelblue;"></circle><circle cx="98.0841511487961" cy="276.96396658817923" r="3" style="fill: steelblue;"></circle><circle cx="106.82412028312683" cy="161.40600376658966" r="3" style="fill: steelblue;"></circle><circle cx="104.14869725704193" cy="265.3685187300046" r="3" style="fill: steelblue;"></circle><circle cx="183.5532331466675" cy="250.9352291623751" r="3" style="fill: steelblue;"></circle><circle cx="64.48552250862123" cy="271.54702527655496" r="3" style="fill: steelblue;"></circle><circle cx="228.1574895232916" cy="148.7132575776842" r="3" style="fill: steelblue;"></circle><circle cx="199.704065322876" cy="90.61915841367511" r="3" style="fill: steelblue;"></circle><circle cx="404.57122564315796" cy="91.5810184346305" r="3" style="fill: steelblue;"></circle><circle cx="279.6971493959427" cy="140.57330621613397" r="3" style="fill: steelblue;"></circle><circle cx="373.3394855260849" cy="176.43594886693688" r="3" style="fill: steelblue;"></circle><circle cx="335.2031135559082" cy="130.10330249865848" r="3" style="fill: steelblue;"></circle><circle cx="388.7956076860428" cy="181.53521397875414" r="3" style="fill: steelblue;"></circle><circle cx="364.7229605913162" cy="201.28581755691107" r="3" style="fill: steelblue;"></circle><circle cx="189.8639926314354" cy="119.5107599099477" r="3" style="fill: steelblue;"></circle><circle cx="158.09021830558777" cy="263.20448435015146" r="3" style="fill: steelblue;"></circle><circle cx="330.6309932470322" cy="209.24909123116072" r="3" style="fill: steelblue;"></circle><circle cx="353.003146648407" cy="118.3987135688464" r="3" style="fill: steelblue;"></circle><circle cx="264.40629601478577" cy="219.2349255912834" r="3" style="fill: steelblue;"></circle><circle cx="110.36507427692415" cy="283.35509945948917" r="3" style="fill: steelblue;"></circle><circle cx="105.78404903411867" cy="229.83343982034262" r="3" style="fill: steelblue;"></circle><circle cx="171.40087723731995" cy="196.81055463540054" r="3" style="fill: steelblue;"></circle><circle cx="124.24167931079866" cy="311.09172602494556" r="3" style="fill: steelblue;"></circle><circle cx="156.62934422492984" cy="219.5129618048668" r="3" style="fill: steelblue;"></circle><circle cx="122.44428634643556" cy="265.78963382376566" r="3" style="fill: steelblue;"></circle><circle cx="164.64669942855835" cy="263.27945291996" r="3" style="fill: steelblue;"></circle><circle cx="306.42108857631683" cy="228.1118950082196" r="3" style="fill: steelblue;"></circle><circle cx="149.0152680873871" cy="301.79522931575775" r="3" style="fill: steelblue;"></circle><circle cx="33.38341355323793" cy="216.570825005571" r="3" style="fill: steelblue;"></circle><circle cx="204.1522318124771" cy="304.80164455042944" r="3" style="fill: steelblue;"></circle><circle cx="219.82205897569656" cy="237.4159801337454" r="3" style="fill: steelblue;"></circle><circle cx="316.0879397392273" cy="203.24179706060227" r="3" style="fill: steelblue;"></circle><circle cx="256.21415354311466" cy="190.11933760096628" r="3" style="fill: steelblue;"></circle><circle cx="112.89674878120422" cy="116.55950629048876" r="3" style="fill: steelblue;"></circle><circle cx="324.0222090482712" cy="242.36463589800726" r="3" style="fill: steelblue;"></circle><circle cx="291.50590538978577" cy="203.9116399569644" r="3" style="fill: steelblue;"></circle><circle cx="420.64831495285034" cy="201.99160329583617" r="3" style="fill: steelblue;"></circle><circle cx="368.66511940956116" cy="77.42421494589911" r="3" style="fill: steelblue;"></circle><circle cx="448.39948654174805" cy="118.207186460495" r="3" style="fill: steelblue;"></circle><circle cx="177.74475306272507" cy="75.62907205687628" r="3" style="fill: steelblue;"></circle><circle cx="344.58617806434637" cy="72.00182643201617" r="3" style="fill: steelblue;"></circle><circle cx="105.52476882934572" cy="304.68391544289057" r="3" style="fill: steelblue;"></circle><circle cx="7.37288832664491" cy="255.21776162915762" r="3" style="fill: steelblue;"></circle><circle cx="132.32507944107056" cy="292.03959140512677" r="3" style="fill: steelblue;"></circle><circle cx="206.62520840764046" cy="257.24339650736914" r="3" style="fill: steelblue;"></circle><circle cx="82.85790324211122" cy="321.90882662932074" r="3" style="fill: steelblue;"></circle><circle cx="11.965330839157117" cy="292.1844869852066" r="3" style="fill: steelblue;"></circle><circle cx="181.6810154914856" cy="223.82998259531126" r="3" style="fill: steelblue;"></circle><circle cx="71.00906610488893" cy="252.8061866760254" r="3" style="fill: steelblue;"></circle><circle cx="66.80768966674806" cy="230.53831938240262" r="3" style="fill: steelblue;"></circle><circle cx="341.5916705131531" cy="309.7767482201258" r="3" style="fill: steelblue;"></circle><circle cx="337.4797546863556" cy="104.5899283554819" r="3" style="fill: steelblue;"></circle><circle cx="184.68176811933517" cy="157.5564137763447" r="3" style="fill: steelblue;"></circle><circle cx="320.5165797472" cy="195.74589777686117" r="3" style="fill: steelblue;"></circle><circle cx="384.4419175386429" cy="152.30817637509767" r="3" style="fill: steelblue;"></circle><circle cx="400.55206060409546" cy="155.9579148888588" r="3" style="fill: steelblue;"></circle><circle cx="333.77979040145874" cy="136.81121915578842" r="3" style="fill: steelblue;"></circle><circle cx="466.1682629585266" cy="65.91785781913335" r="3" style="fill: steelblue;"></circle><circle cx="301.56173944473267" cy="60.703865355915475" r="3" style="fill: steelblue;"></circle><circle cx="243.19173065945506" cy="45.99189923869238" r="3" style="fill: steelblue;"></circle><circle cx="353.8651102781296" cy="267.06179893679086" r="3" style="fill: steelblue;"></circle><circle cx="220.86397647857666" cy="298.0489333470662" r="3" style="fill: steelblue;"></circle><circle cx="119.74095046520233" cy="279.80443918042715" r="3" style="fill: steelblue;"></circle><circle cx="213.69678765535357" cy="286.29067788521445" r="3" style="fill: steelblue;"></circle><circle cx="95.99518418312074" cy="241.98536574840546" r="3" style="fill: steelblue;"></circle></g></svg>