<svg xmlns="http://www.w3.org/2000/svg"><g transform="translate(40,20)"><circle cx="417.72736608982086" cy="79.20921053737402" r="3" style="fill: steelblue;"></circle><circle cx="329.9423038959503" cy="178.15300980582833" r="3" style="fill: steelblue;"></circle><circle cx="465.0030791759491" cy="125.46361349523067" r="3" style="fill: steelblue;"></circle><circle cx="427.63177156448364" cy="200.08052601478994" r="3" style="fill: steelblue;"></circle><circle cx="431.95421397686005" cy="69.25693079829216" r="3" style="fill: steelblue;"></circle><circle cx="473.13918471336365" cy="159.61655899882317" r="3" style="fill: steelblue;"></circle><circle cx="290.9536678344011" cy="138.0756233818829" r="3" style="fill: steelblue;"></circle><circle cx="377.66568660736084" cy="100.62323249876499" r="3" style="fill: steelblue;"></circle><circle cx="392.4568623304367" cy="89.61824905127287" r="3" style="fill: steelblue;"></circle><circle cx="495.0160324573517" cy="43.97231452167034" r="3" style="fill: steelblue;"></circle><circle cx="432.67385959625244" cy="34.422774985432625" r="3" style="fill: steelblue;"></circle><circle cx="322.43172079324717" cy="128.53657333180308" r="3" style="fill: steelblue;"></circle><circle cx="371.3753119111061" cy="157.87961515598" r="3" style="fill: steelblue;"></circle><circle cx="289.16010707616806" cy="91.42382927238941" r="3" style="fill: steelblue;"></circle><circle cx="405.05772829055786" cy="93.70744060724974" r="3" style="fill: steelblue;"></circle><circle cx="273.671755939722" cy="6.225315108895302" r="3" style="fill: steelblue;"></circle><circle cx="325.65192729234695" cy="79.8164077103138" r="3" style="fill: steelblue;"></circle><circle cx="318.64895671606064" cy="35.82807928323746" r="3" style="fill: steelblue;"></circle><circle cx="463.67765665054316" cy="201.9804138224572" r="3" style="fill: steelblue;"></circle><circle cx="472.14324474334717" cy="97.49284777790308" r="3" style="fill: steelblue;"></circle><circle cx="309.89646390080446" cy="220.58527935296297" r="3" style="fill: steelblue;"></circle><circle cx="469.2459762096405" cy="167.38060414791107" r="3" style="fill: steelblue;"></circle><circle cx="350.2136930823326" cy="111.11374218016863" r="3" style="fill: steelblue;"></circle><circle cx="459.5446586608887" cy="112.43280973285437" r="3" style="fill: steelblue;"></circle><circle cx="200.68800151348114" cy="179.38729603774846" r="3" style="fill: steelblue;"></circle><circle cx="305.8133002370596" cy="222.32936015352607" r="3" style="fill: steelblue;"></circle><circle cx="334.708122164011" cy="150.25392659008503" r="3" style="fill: steelblue;"></circle><circle cx="236.3959193229675" cy="242.03082844614983" r="3" style="fill: steelblue;"></circle><circle cx="200.75160562992096" cy="203.51559966802597" r="3" style="fill: steelblue;"></circle><circle cx="292.0863155275583" cy="268.49943324923515" r="3" style="fill: steelblue;"></circle><circle cx="317.31649450957775" cy="264.9091539904475" r="3" style="fill: steelblue;"></circle><circle cx="319.73259150981903" cy="167.8073751507327" r="3" style="fill: steelblue;"></circle><circle cx="341.57855808734894" cy="171.95981267723255" r="3" style="fill: steelblue;"></circle><circle cx="58.579015731811516" cy="105.69862481206656" r="3" style="fill: steelblue;"></circle><circle cx="323.1938995420933" cy="157.43298241868615" r="3" style="fill: steelblue;"></circle><circle cx="202.95799970626828" cy="206.1992783099413" r="3" style="fill: steelblue;"></circle><circle cx="188.8749361038208" cy="222.55287617444992" r="3" style="fill: steelblue;"></circle><circle cx="208.66400599479675" cy="316.2008833140135" r="3" style="fill: steelblue;"></circle><circle cx="192.36235320568085" cy="293.32436360418797" r="3" style="fill: steelblue;"></circle><circle cx="410.48823595046997" cy="280.1398226991296" r="3" style="fill: steelblue;"></circle><circle cx="405.5218040943146" cy="259.5203874632716" r="3" style="fill: steelblue;"></circle><circle cx="207.25050866603848" cy="184.83082922175527" r="3" style="fill: steelblue;"></circle><circle cx="198.20260405540463" cy="173.57446053647436" r="3" style="fill: steelblue;"></circle><circle cx="266.5011964738369" cy="145.46874882653356" r="3" style="fill: steelblue;"></circle><circle cx="147.4622905254364" cy="181.46925898035988" r="3" style="fill: steelblue;"></circle><circle cx="221.334707736969" cy="305.4241195321083" r="3" style="fill: steelblue;"></circle><circle cx="193.62610280513763" cy="203.85986538603902" r="3" style="fill: steelblue;"></circle><circle cx="291.08879026025534" cy="202.84572960808873" r="3" style="fill: steelblue;"></circle><circle cx="119.06064748764038" cy="200.76802903786302" r="3" style="fill: steelblue;"></circle><circle cx="260.13087183237076" cy="131.16572489961982" r="3" style="fill: steelblue;"></circle><circle cx="399.24330711364746" cy="182.59174197446555" r="3" style="fill: steelblue;"></circle><circle cx="237.19139099121094" cy="245.55871840566397" r="3" style="fill: steelblue;"></circle><circle cx="315.3746780008077" cy="197.6376100908965" r="3" style="fill: steelblue;"></circle><circle cx="186.08288168907166" cy="238.10628075152636" r="3" style="fill: steelblue;"></circle><circle cx="230.27590066194534" cy="229.23269048333168" r="3" style="fill: steelblue;"></circle><circle cx="448.11317324638367" cy="211.3994687795639" r="3" style="fill: steelblue;"></circle><circle cx="415.2603954076767" cy="238.46718687564135" r="3" style="fill: steelblue;"></circle><circle cx="270.72623893618584" cy="200.72741406038404" r="3" style="fill: steelblue;"></circle><circle cx="230.46255111694336" cy="133.8219542056322" r="3" style="fill: steelblue;"></circle><circle cx="266.98147505521774" cy="177.3364262888208" r="3" style="fill: steelblue;"></circle><circle cx="480.2382230758667" cy="159.17223407886922" r="3" style="fill: steelblue;"></circle><circle cx="271.8162976205349" cy="57.27096199989319" r="3" style="fill: steelblue;"></circle><circle cx="488.07728290557856" cy="119.26640029996634" r="3" style="fill: steelblue;"></circle><circle cx="375.202077627182" cy="94.19670440256596" r="3" style="fill: steelblue;"></circle><circle cx="426.5413910150528" cy="287.5643253326416" r="3" style="fill: steelblue;"></circle><circle cx="435.0666582584381" cy="165.21760560572147" r="3" style="fill: steelblue;"></circle><circle cx="450.35861134529114" cy="147.26121230050921" r="3" style="fill: steelblue;"></circle><circle cx="288.4808801114559" cy="155.13354721479118" r="3" style="fill: steelblue;"></circle><circle cx="422.00391590595245" cy="225.55656237527728" r="3" style="fill: steelblue;"></circle><circle cx="517.593777179718" cy="231.46181385964155" r="3" style="fill: steelblue;"></circle><circle cx="421.37148678302765" cy="101.44844017922878" r="3" style="fill: steelblue;"></circle><circle cx="368.65618228912354" cy="241.9471863657236" r="3" style="fill: steelblue;"></circle><circle cx="144.44283843040466" cy="201.6858753748238" r="3" style="fill: steelblue;"></circle><circle cx="367.6186010241508" cy="187.8908467013389" r="3" style="fill: steelblue;"></circle><circle cx="143.292635679245" cy="203.38472882285714" r="3" style="fill: steelblue;"></circle><circle cx="382.41190910339355" cy="233.14791563898325" r="3" style="fill: steelblue;"></circle><circle cx="262.5616393983364" cy="286.417418345809" r="3" style="fill: steelblue;"></circle><circle cx="179.0974259376526" cy="216.15703096613288" r="3" style="fill: steelblue;"></circle><circle cx="96.81884050369263" cy="243.15163884311914" r="3" style="fill: steelblue;"></circle><circle cx="90.50976634025574" cy="215.01862835139036" r="3" style="fill: steelblue;"></circle><circle cx="280.67779764533043" cy="274.550100043416" r="3" style="fill: steelblue;"></circle><circle cx="94.62609887123108" cy="304.3841674923897" r="3" style="fill: steelblue;"></circle><circle cx="194.70341205596924" cy="231.5435979515314" r="3" style="fill: steelblue;"></circle><circle cx="291.8673360720277" cy="166.09644151758403" r="3" style="fill: steelblue;"></circle><circle cx="384.89117324352264" cy="152.32171136885881" r="3" style="fill: steelblue;"></circle><circle cx="422.0234870910644" cy="152.8368240222335" r="3" style="fill: steelblue;"></circle><circle cx="408.2004636526108" cy="113.54736816138029" r="3" style="fill: steelblue;"></circle><circle cx="243.6743125319481" cy="133.4617456421256" r="3" style="fill: steelblue;"></circle><circle cx="289.81441855430603" cy="117.47030559927225" r="3" style="fill: steelblue;"></circle><circle cx="424.12129640579224" cy="66.87994413077831" r="3" style="fill: steelblue;"></circle><circle cx="378.51395308971405" cy="79.38069961965084" r="3" style="fill: steelblue;"></circle><circle cx="340.15941470861435" cy="5.184945836663246" r="3" style="fill: steelblue;"></circle><circle cx="282.62118324637413" cy="40.42804166674614" r="3" style="fill: steelblue;"></circle><circle cx="226.11631304025647" cy="69.32183001190424" r="3" style="fill: steelblue;"></circle><circle cx="375.56272745132446" cy="131.1877534724772" r="3" style="fill: steelblue;"></circle><circle cx="217.85218119621274" cy="179.9035120755434" r="3" style="fill: steelblue;"></circle><circle cx="298.0517691001296" cy="232.9136135056615" r="3" style="fill: steelblue;"></circle><circle cx="273.4004482626915" cy="224.20429550111294" r="3" style="fill: steelblue;"></circle><circle cx="209.01409685611725" cy="197.71205023862422" r="3" style="fill: steelblue;"></circle><circle cx="277.4747371673584" cy="196.3400397915393" r="3" style="fill: steelblue;"></circle><circle cx="353.6987766623497" cy="224.96308172121644" r="3" style="fill: steelblue;"></circle><circle cx="181.87218010425568" cy="209.55428080633283" r="3" style="fill: steelblue;"></circle><circle cx="221.64852619171143" cy="261.9776392355561" r="3" style="fill: steelblue;"></circle><circle cx="97.15213179588318" cy="192.36536878161132" r="3" style="fill: steelblue;"></circle><circle cx="207.27137625217438" cy="309.8540596663952" r="3" style="fill: steelblue;"></circle><circle cx="381.46813809871674" cy="280.5998606607318" r="3" style="fill: steelblue;"></circle><circle cx="507.36225843429565" cy="117.94361025094986" r="3" style="fill: steelblue;"></circle><circle cx="368.9957857131958" cy="77.47101988643408" r="3" style="fill: steelblue;"></circle><circle cx="404.9647629261017" cy="64.25294391810894" r="3" style="fill: steelblue;"></circle><circle cx="416.6475623846054" cy="15.940913185477257" r="3" style="fill: steelblue;"></circle><circle cx="517.1347618103027" cy="154.9910883884877" r="3" style="fill: steelblue;"></circle><circle cx="316.4160590618849" cy="78.63925136625767" r="3" style="fill: steelblue;"></circle><circle cx="364.8401990532875" cy="213.12647564336658" r="3" style="fill: steelblue;"></circle><circle cx="312.3966917395591" cy="298.4524641185999" r="3" style="fill: steelblue;"></circle><circle cx="143.9010500907898" cy="223.00222255289555" r="3" style="fill: steelblue;"></circle><circle cx="274.8260222375393" cy="340.78470543026924" r="3" style="fill: steelblue;"></circle><circle cx="240.37340730428693" cy="260.7193963602185" r="3" style="fill: steelblue;"></circle><circle cx="175.5110263824463" cy="211.83526813983917" r="3" style="fill: steelblue;"></circle></g></svg>