<svg xmlns="http://www.w3.org/2000/svg"><g transform="translate(40,20)"><circle cx="386.991650685668" cy="127.53649966584311" r="3" style="fill: steelblue;"></circle><circle cx="494.49186220765114" cy="187.11837319036323" r="3" style="fill: steelblue;"></circle><circle cx="342.7561080828309" cy="162.99389799435932" r="3" style="fill: steelblue;"></circle><circle cx="475.7091034948826" cy="186.86059593326513" r="3" style="fill: steelblue;"></circle><circle cx="454.6426919102669" cy="107.3760911822319" r="3" style="fill: steelblue;"></circle><circle cx="401.35393448174" cy="116.21228191587659" r="3" style="fill: steelblue;"></circle><circle cx="270.65021194168366" cy="119.0012204978201" r="3" style="fill: steelblue;"></circle><circle cx="478.8225647807121" cy="79.78464994165631" r="3" style="fill: steelblue;"></circle><circle cx="279.0972437057644" cy="63.92407748434278" r="3" style="fill: steelblue;"></circle><circle cx="136.50049276649952" cy="76.99633141358692" r="3" style="fill: steelblue;"></circle><circle cx="538.1612491607666" cy="130.20025110907022" r="3" style="fill: steelblue;"></circle><circle cx="292.70386749878526" cy="138.03518232372073" r="3" style="fill: steelblue;"></circle><circle cx="272.7722522383556" cy="149.01299277941388" r="3" style="fill: steelblue;"></circle><circle cx="225.88785242289305" cy="178.36424687670336" r="3" style="fill: steelblue;"></circle><circle cx="429.94357019662857" cy="225.91860509581034" r="3" style="fill: steelblue;"></circle><circle cx="484.2702117562294" cy="130.91793739133408" r="3" style="fill: steelblue;"></circle><circle cx="349.74720373749733" cy="148.5692399243514" r="3" style="fill: steelblue;"></circle><circle cx="228.14539147540927" cy="60.248606734805655" r="3" style="fill: steelblue;"></circle><circle cx="337.95233711600304" cy="140.02813978327646" r="3" style="fill: steelblue;"></circle><circle cx="354.96560230851173" cy="123.79697213570279" r="3" style="fill: steelblue;"></circle><circle cx="258.36963661015034" cy="195.19609085465265" r="3" style="fill: steelblue;"></circle><circle cx="417.9818567633629" cy="92.4431367052926" r="3" style="fill: steelblue;"></circle><circle cx="244.15131200104952" cy="291.49869001573984" r="3" style="fill: steelblue;"></circle><circle cx="249.86834370531142" cy="168.71269254220857" r="3" style="fill: steelblue;"></circle><circle cx="364.75250355899334" cy="189.83710733138855" r="3" style="fill: steelblue;"></circle><circle cx="337.29028578847647" cy="147.92516041133138" r="3" style="fill: steelblue;"></circle><circle cx="370.1686681061983" cy="243.02569735381337" r="3" style="fill: steelblue;"></circle><circle cx="347.5632033124566" cy="251.91875050465262" r="3" style="fill: steelblue;"></circle><circle cx="353.89583341777325" cy="256.0836697618166" r="3" style="fill: steelblue;"></circle><circle cx="116.37053757905962" cy="97.27121227317384" r="3" style="fill: steelblue;"></circle><circle cx="291.53685009106994" cy="245.43555991517172" r="3" style="fill: steelblue;"></circle><circle cx="214.26398668438196" cy="172.33635837005244" r="3" style="fill: steelblue;"></circle><circle cx="228.27251812443137" cy="257.21960845920773" r="3" style="fill: steelblue;"></circle><circle cx="378.4529221057892" cy="246.52818176481458" r="3" style="fill: steelblue;"></circle><circle cx="472.65810415148735" cy="118.86874337991077" r="3" style="fill: steelblue;"></circle><circle cx="198.16032227128744" cy="171.0159724785222" r="3" style="fill: steelblue;"></circle><circle cx="270.2085987282044" cy="245.0635623600748" r="3" style="fill: steelblue;"></circle><circle cx="266.0777326254174" cy="235.34452501270505" r="3" style="fill: steelblue;"></circle><circle cx="293.9262381568551" cy="234.65106139580405" r="3" style="fill: steelblue;"></circle><circle cx="182.86394074559212" cy="230.3525495032469" r="3" style="fill: steelblue;"></circle><circle cx="74.3202929198742" cy="186.64329457614156" r="3" style="fill: steelblue;"></circle><circle cx="151.4085491001606" cy="249.5725999275843" r="3" style="fill: steelblue;"></circle><circle cx="192.6984679698944" cy="229.13951550920802" r="3" style="fill: steelblue;"></circle><circle cx="199.41985074430704" cy="213.11726545294124" r="3" style="fill: steelblue;"></circle><circle cx="223.88676188886166" cy="211.55827326907053" r="3" style="fill: steelblue;"></circle><circle cx="250.24692619219422" cy="243.59995126724243" r="3" style="fill: steelblue;"></circle><circle cx="146.7713986337185" cy="236.8808823327223" r="3" style="fill: steelblue;"></circle><circle cx="218.1298729777336" cy="270.71069429318106" r="3" style="fill: steelblue;"></circle><circle cx="196.59268844872713" cy="206.3256944012311" r="3" style="fill: steelblue;"></circle><circle cx="193.7070020288229" cy="158.3137371473842" r="3" style="fill: steelblue;"></circle><circle cx="217.34758995473385" cy="201.08453618983424" r="3" style="fill: steelblue;"></circle><circle cx="169.5597381144762" cy="242.1693131327629" r="3" style="fill: steelblue;"></circle><circle cx="196.3265261426568" cy="217.83724592791663" r="3" style="fill: steelblue;"></circle><circle cx="151.79683908820152" cy="290.20079556438657" r="3" style="fill: steelblue;"></circle><circle cx="28.61195102334024" cy="120.64314633607864" r="3" style="fill: steelblue;"></circle><circle cx="170.62233544886112" cy="206.00805514388617" r="3" style="fill: steelblue;"></circle><circle cx="345.09551402181387" cy="246.8719176120228" r="3" style="fill: steelblue;"></circle><circle cx="286.30307491868734" cy="146.71292031804722" r="3" style="fill: steelblue;"></circle><circle cx="112.44681112468244" cy="315.0363696946038" r="3" style="fill: steelblue;"></circle><circle cx="206.50565519928932" cy="236.94796404904787" r="3" style="fill: steelblue;"></circle><circle cx="392.9131333529949" cy="137.1933635738161" r="3" style="fill: steelblue;"></circle><circle cx="376.244545429945" cy="223.80871242947046" r="3" style="fill: steelblue;"></circle><circle cx="412.3719897866249" cy="132.10264593362808" r="3" style="fill: steelblue;"></circle><circle cx="369.75328110158443" cy="86.38937109046513" r="3" style="fill: steelblue;"></circle><circle cx="147.9531665146351" cy="173.7407630102502" r="3" style="fill: steelblue;"></circle><circle cx="466.59609720110893" cy="128.7075090739462" r="3" style="fill: steelblue;"></circle><circle cx="293.26594199985266" cy="204.04512248933315" r="3" style="fill: steelblue;"></circle><circle cx="364.95997577905655" cy="67.4492402209176" r="3" style="fill: steelblue;"></circle><circle cx="421.7714962363243" cy="195.90964170897172" r="3" style="fill: steelblue;"></circle><circle cx="468.54820892214775" cy="21.164745092391968" r="3" style="fill: steelblue;"></circle><circle cx="116.81319259107114" cy="161.56497225165367" r="3" style="fill: steelblue;"></circle><circle cx="257.4484813772142" cy="268.63386150863437" r="3" style="fill: steelblue;"></circle><circle cx="119.29621070623399" cy="232.44578474097784" r="3" style="fill: steelblue;"></circle><circle cx="213.3423813432455" cy="208.1175305777126" r="3" style="fill: steelblue;"></circle><circle cx="317.85836040973663" cy="281.24124308427173" r="3" style="fill: steelblue;"></circle><circle cx="329.48246754705906" cy="260.2835496266683" r="3" style="fill: steelblue;"></circle><circle cx="110.82956984639169" cy="147.87760749459267" r="3" style="fill: steelblue;"></circle><circle cx="137.4173355102539" cy="215.8265169709921" r="3" style="fill: steelblue;"></circle><circle cx="107.26451173424722" cy="274.53917347722586" r="3" style="fill: steelblue;"></circle><circle cx="118.24513010680677" cy="177.04353212482397" r="3" style="fill: steelblue;"></circle><circle cx="174.88282330334187" cy="163.07798193560706" r="3" style="fill: steelblue;"></circle><circle cx="168.45718927681446" cy="239.40353964765865" r="3" style="fill: steelblue;"></circle><circle cx="364.5453029125929" cy="206.2515320463313" r="3" style="fill: steelblue;"></circle><circle cx="384.63628225028515" cy="182.47638622091876" r="3" style="fill: steelblue;"></circle><circle cx="243.91848787665367" cy="178.8280109564463" r="3" style="fill: steelblue;"></circle><circle cx="351.0668908059597" cy="205.91195186393128" r="3" style="fill: steelblue;"></circle><circle cx="201.03320952504873" cy="229.8394954866833" r="3" style="fill: steelblue;"></circle><circle cx="183.2802028208971" cy="205.24658987091647" r="3" style="fill: steelblue;"></circle><circle cx="482.0489001274109" cy="77.91841526826221" r="3" style="fill: steelblue;"></circle><circle cx="247.44977781549096" cy="69.95389858881634" r="3" style="fill: steelblue;"></circle><circle cx="315.18776033073664" cy="117.93851769632762" r="3" style="fill: steelblue;"></circle><circle cx="464.0711461007595" cy="171.58134136762885" r="3" style="fill: steelblue;"></circle><circle cx="476.52133002877235" cy="214.91688924531138" r="3" style="fill: steelblue;"></circle><circle cx="330.67148745059967" cy="134.22615660561456" r="3" style="fill: steelblue;"></circle><circle cx="202.76735823601484" cy="229.42755950821768" r="3" style="fill: steelblue;"></circle><circle cx="61.002883762121215" cy="285.6932762596342" r="3" style="fill: steelblue;"></circle><circle cx="125.5479269474745" cy="246.47051675452124" r="3" style="fill: steelblue;"></circle><circle cx="215.7348145544529" cy="255.45711980925665" r="3" style="fill: steelblue;"></circle><circle cx="152.8633289784193" cy="266.3622564739651" r="3" style="fill: steelblue;"></circle><circle cx="328.87507796287537" cy="133.4448829293251" r="3" style="fill: steelblue;"></circle><circle cx="306.3927969709039" cy="240.92022329568863" r="3" style="fill: steelblue;"></circle><circle cx="127.73684084415437" cy="205.5694974131054" r="3" style="fill: steelblue;"></circle><circle cx="102.55946785211565" cy="194.880900801056" r="3" style="fill: steelblue;"></circle><circle cx="221.1242240667343" cy="201.95564234422312" r="3" style="fill: steelblue;"></circle><circle cx="86.77458062767984" cy="299.29387403859033" r="3" style="fill: steelblue;"></circle><circle cx="67.40349277853967" cy="241.9003169569704" r="3" style="fill: steelblue;"></circle><circle cx="460.1053659617901" cy="160.5536701778571" r="3" style="fill: steelblue;"></circle><circle cx="430.2365981787443" cy="170.4289321270254" r="3" style="fill: steelblue;"></circle><circle cx="410.2901664376259" cy="221.02365063296423" r="3" style="fill: steelblue;"></circle><circle cx="415.58793492615223" cy="111.47863417863846" r="3" style="fill: steelblue;"></circle><circle cx="486.9662743806839" cy="108.0484381980366" r="3" style="fill: steelblue;"></circle><circle cx="495.3942511975765" cy="203.9780900296238" r="3" style="fill: steelblue;"></circle><circle cx="195.5635952576995" cy="306.5276543299357" r="3" style="fill: steelblue;"></circle><circle cx="153.13042670488358" cy="220.24989873170853" r="3" style="fill: steelblue;"></circle><circle cx="129.08589810132983" cy="258.8666280110677" r="3" style="fill: steelblue;"></circle><circle cx="163.42665933072567" cy="221.30316744248069" r="3" style="fill: steelblue;"></circle><circle cx="292.478886321187" cy="207.65119646158485" r="3" style="fill: steelblue;"></circle><circle cx="286.5634335950017" cy="224.1729593111409" r="3" style="fill: steelblue;"></circle></g></svg>