<svg xmlns="http://www.w3.org/2000/svg"><g transform="translate(40,20)"><circle cx="347.3830157518387" cy="79.20921053737402" r="3" style="fill: steelblue;"></circle><circle cx="253.45100663602352" cy="178.15300980582833" r="3" style="fill: steelblue;"></circle><circle cx="256.915624961257" cy="125.46361349523067" r="3" style="fill: steelblue;"></circle><circle cx="388.4267860651016" cy="200.08052601478994" r="3" style="fill: steelblue;"></circle><circle cx="355.3540223836899" cy="69.25693079829216" r="3" style="fill: steelblue;"></circle><circle cx="523.2969546318054" cy="159.61655899882317" r="3" style="fill: steelblue;"></circle><circle cx="386.1090713739395" cy="138.0756233818829" r="3" style="fill: steelblue;"></circle><circle cx="271.05764016509056" cy="100.62323249876499" r="3" style="fill: steelblue;"></circle><circle cx="449.7643554210663" cy="89.61824905127287" r="3" style="fill: steelblue;"></circle><circle cx="338.52166771888733" cy="43.97231452167034" r="3" style="fill: steelblue;"></circle><circle cx="253.2708515971899" cy="34.422774985432625" r="3" style="fill: steelblue;"></circle><circle cx="345.58155477046967" cy="128.53657333180308" r="3" style="fill: steelblue;"></circle><circle cx="373.45857560634613" cy="157.87961515598" r="3" style="fill: steelblue;"></circle><circle cx="239.04849850572646" cy="91.42382927238941" r="3" style="fill: steelblue;"></circle><circle cx="104.9342179298401" cy="93.70744060724974" r="3" style="fill: steelblue;"></circle><circle cx="243.27317090705037" cy="6.225315108895302" r="3" style="fill: steelblue;"></circle><circle cx="304.22749757766724" cy="79.8164077103138" r="3" style="fill: steelblue;"></circle><circle cx="232.57947485893965" cy="35.82807928323746" r="3" style="fill: steelblue;"></circle><circle cx="368.38831543922424" cy="201.9804138224572" r="3" style="fill: steelblue;"></circle><circle cx="356.11165702342987" cy="97.49284777790308" r="3" style="fill: steelblue;"></circle><circle cx="109.77142989635469" cy="220.58527935296297" r="3" style="fill: steelblue;"></circle><circle cx="363.20636808872223" cy="167.38060414791107" r="3" style="fill: steelblue;"></circle><circle cx="416.68004035949707" cy="111.11374218016863" r="3" style="fill: steelblue;"></circle><circle cx="324.1915547847748" cy="112.43280973285437" r="3" style="fill: steelblue;"></circle><circle cx="273.06962326169014" cy="179.38729603774846" r="3" style="fill: steelblue;"></circle><circle cx="312.26894348859787" cy="222.32936015352607" r="3" style="fill: steelblue;"></circle><circle cx="336.6232359409333" cy="150.25392659008503" r="3" style="fill: steelblue;"></circle><circle cx="347.8182667493821" cy="242.03082844614983" r="3" style="fill: steelblue;"></circle><circle cx="234.76793836802244" cy="203.51559966802597" r="3" style="fill: steelblue;"></circle><circle cx="121.27777576446533" cy="268.49943324923515" r="3" style="fill: steelblue;"></circle><circle cx="295.2156776189804" cy="264.9091539904475" r="3" style="fill: steelblue;"></circle><circle cx="276.3388292491436" cy="167.8073751507327" r="3" style="fill: steelblue;"></circle><circle cx="194.80076372623444" cy="171.95981267723255" r="3" style="fill: steelblue;"></circle><circle cx="325.2807730436325" cy="105.69862481206656" r="3" style="fill: steelblue;"></circle><circle cx="132.9894983768463" cy="157.43298241868615" r="3" style="fill: steelblue;"></circle><circle cx="135.95350027084353" cy="206.1992783099413" r="3" style="fill: steelblue;"></circle><circle cx="135.5342620611191" cy="222.55287617444992" r="3" style="fill: steelblue;"></circle><circle cx="190.5451664328575" cy="316.2008833140135" r="3" style="fill: steelblue;"></circle><circle cx="180.11087268590927" cy="293.32436360418797" r="3" style="fill: steelblue;"></circle><circle cx="230.79712685197592" cy="280.1398226991296" r="3" style="fill: steelblue;"></circle><circle cx="354.4332826137543" cy="259.5203874632716" r="3" style="fill: steelblue;"></circle><circle cx="176.7059826850891" cy="184.83082922175527" r="3" style="fill: steelblue;"></circle><circle cx="202.25114017724994" cy="173.57446053647436" r="3" style="fill: steelblue;"></circle><circle cx="191.10983401536942" cy="145.46874882653356" r="3" style="fill: steelblue;"></circle><circle cx="209.76011618971827" cy="181.46925898035988" r="3" style="fill: steelblue;"></circle><circle cx="265.356861948967" cy="305.4241195321083" r="3" style="fill: steelblue;"></circle><circle cx="259.574636220932" cy="203.85986538603902" r="3" style="fill: steelblue;"></circle><circle cx="173.15981179475787" cy="202.84572960808873" r="3" style="fill: steelblue;"></circle><circle cx="141.0873556137085" cy="200.76802903786302" r="3" style="fill: steelblue;"></circle><circle cx="329.470437169075" cy="131.16572489961982" r="3" style="fill: steelblue;"></circle><circle cx="187.4616140127182" cy="182.59174197446555" r="3" style="fill: steelblue;"></circle><circle cx="256.1286760121584" cy="245.55871840566397" r="3" style="fill: steelblue;"></circle><circle cx="190.18418580293658" cy="197.6376100908965" r="3" style="fill: steelblue;"></circle><circle cx="73.86272192001344" cy="238.10628075152636" r="3" style="fill: steelblue;"></circle><circle cx="82.4729347229004" cy="229.23269048333168" r="3" style="fill: steelblue;"></circle><circle cx="247.43480790406466" cy="211.3994687795639" r="3" style="fill: steelblue;"></circle><circle cx="140.28830766677856" cy="238.46718687564135" r="3" style="fill: steelblue;"></circle><circle cx="258.38047094643116" cy="200.72741406038404" r="3" style="fill: steelblue;"></circle><circle cx="79.55778479576111" cy="133.8219542056322" r="3" style="fill: steelblue;"></circle><circle cx="71.18639588356018" cy="177.3364262888208" r="3" style="fill: steelblue;"></circle><circle cx="313.0364665389061" cy="159.17223407886922" r="3" style="fill: steelblue;"></circle><circle cx="226.34998686611652" cy="57.27096199989319" r="3" style="fill: steelblue;"></circle><circle cx="405.2763783931732" cy="119.26640029996634" r="3" style="fill: steelblue;"></circle><circle cx="163.81081581115723" cy="94.19670440256596" r="3" style="fill: steelblue;"></circle><circle cx="410.6885755062103" cy="287.5643253326416" r="3" style="fill: steelblue;"></circle><circle cx="372.92208909988403" cy="165.21760560572147" r="3" style="fill: steelblue;"></circle><circle cx="271.5033115446568" cy="147.26121230050921" r="3" style="fill: steelblue;"></circle><circle cx="361.52388095855713" cy="155.13354721479118" r="3" style="fill: steelblue;"></circle><circle cx="342.7642250061035" cy="225.55656237527728" r="3" style="fill: steelblue;"></circle><circle cx="427.5688433647156" cy="231.46181385964155" r="3" style="fill: steelblue;"></circle><circle cx="226.64235770702365" cy="101.44844017922878" r="3" style="fill: steelblue;"></circle><circle cx="41.959347724914565" cy="241.9471863657236" r="3" style="fill: steelblue;"></circle><circle cx="279.7862568497658" cy="201.6858753748238" r="3" style="fill: steelblue;"></circle><circle cx="211.47734016180038" cy="187.8908467013389" r="3" style="fill: steelblue;"></circle><circle cx="321.1691612005234" cy="203.38472882285714" r="3" style="fill: steelblue;"></circle><circle cx="288.4062686562538" cy="233.14791563898325" r="3" style="fill: steelblue;"></circle><circle cx="185.73522806167603" cy="286.417418345809" r="3" style="fill: steelblue;"></circle><circle cx="154.18368816375735" cy="216.15703096613288" r="3" style="fill: steelblue;"></circle><circle cx="173.71925801038745" cy="243.15163884311914" r="3" style="fill: steelblue;"></circle><circle cx="48.781117200851455" cy="215.01862835139036" r="3" style="fill: steelblue;"></circle><circle cx="175.62219589948657" cy="274.550100043416" r="3" style="fill: steelblue;"></circle><circle cx="128.14254105091095" cy="304.3841674923897" r="3" style="fill: steelblue;"></circle><circle cx="263.5758751630783" cy="231.5435979515314" r="3" style="fill: steelblue;"></circle><circle cx="332.8852468729019" cy="166.09644151758403" r="3" style="fill: steelblue;"></circle><circle cx="190.42821764945984" cy="152.32171136885881" r="3" style="fill: steelblue;"></circle><circle cx="301.0093966126442" cy="152.8368240222335" r="3" style="fill: steelblue;"></circle><circle cx="302.44260370731354" cy="113.54736816138029" r="3" style="fill: steelblue;"></circle><circle cx="200.1184844970703" cy="133.4617456421256" r="3" style="fill: steelblue;"></circle><circle cx="358.5060739517212" cy="117.47030559927225" r="3" style="fill: steelblue;"></circle><circle cx="403.767009973526" cy="66.87994413077831" r="3" style="fill: steelblue;"></circle><circle cx="226.81190684437752" cy="79.38069961965084" r="3" style="fill: steelblue;"></circle><circle cx="419.4704496860504" cy="5.184945836663246" r="3" style="fill: steelblue;"></circle><circle cx="362.54247665405273" cy="40.42804166674614" r="3" style="fill: steelblue;"></circle><circle cx="243.821874037385" cy="69.32183001190424" r="3" style="fill: steelblue;"></circle><circle cx="188.37538450956347" cy="131.1877534724772" r="3" style="fill: steelblue;"></circle><circle cx="280.53494185209274" cy="179.9035120755434" r="3" style="fill: steelblue;"></circle><circle cx="173.29416811466217" cy="232.9136135056615" r="3" style="fill: steelblue;"></circle><circle cx="284.3415507674217" cy="224.20429550111294" r="3" style="fill: steelblue;"></circle><circle cx="131.87911748886108" cy="197.71205023862422" r="3" style="fill: steelblue;"></circle><circle cx="341.52817368507385" cy="196.3400397915393" r="3" style="fill: steelblue;"></circle><circle cx="219.27249222993854" cy="224.96308172121644" r="3" style="fill: steelblue;"></circle><circle cx="200.1133614778519" cy="209.55428080633283" r="3" style="fill: steelblue;"></circle><circle cx="244.19234605506063" cy="261.9776392355561" r="3" style="fill: steelblue;"></circle><circle cx="102.93116211891174" cy="192.36536878161132" r="3" style="fill: steelblue;"></circle><circle cx="322.20327794551855" cy="309.8540596663952" r="3" style="fill: steelblue;"></circle><circle cx="186.49271070957187" cy="280.5998606607318" r="3" style="fill: steelblue;"></circle><circle cx="295.78698366880417" cy="117.94361025094986" r="3" style="fill: steelblue;"></circle><circle cx="237.69207620993257" cy="77.47101988643408" r="3" style="fill: steelblue;"></circle><circle cx="304.97752368450165" cy="64.25294391810894" r="3" style="fill: steelblue;"></circle><circle cx="431.9131278991699" cy="15.940913185477257" r="3" style="fill: steelblue;"></circle><circle cx="472.1316719055176" cy="154.9910883884877" r="3" style="fill: steelblue;"></circle><circle cx="361.7515289783478" cy="78.63925136625767" r="3" style="fill: steelblue;"></circle><circle cx="328.9345943927765" cy="213.12647564336658" r="3" style="fill: steelblue;"></circle><circle cx="177.54417747259143" cy="298.4524641185999" r="3" style="fill: steelblue;"></circle><circle cx="139.06056225299835" cy="223.00222255289555" r="3" style="fill: steelblue;"></circle><circle cx="250.7898361980915" cy="340.78470543026924" r="3" style="fill: steelblue;"></circle><circle cx="216.30397975444794" cy="260.7193963602185" r="3" style="fill: steelblue;"></circle><circle cx="229.1198828816414" cy="211.83526813983917" r="3" style="fill: steelblue;"></circle></g></svg>