<svg xmlns="http://www.w3.org/2000/svg"><g transform="translate(40,20)"><circle cx="240.7090982235968" cy="55.70584461092949" r="3" style="fill: steelblue;"></circle><circle cx="436.7958866804838" cy="43.28046478331089" r="3" style="fill: steelblue;"></circle><circle cx="509.6636165678501" cy="92.46693011373281" r="3" style="fill: steelblue;"></circle><circle cx="384.14502561092377" cy="7.641180604696274" r="3" style="fill: steelblue;"></circle><circle cx="155.499856621027" cy="64.43956419825554" r="3" style="fill: steelblue;"></circle><circle cx="527.7268056571484" cy="181.4196547609754" r="3" style="fill: steelblue;"></circle><circle cx="343.77609852701426" cy="100.60705821961164" r="3" style="fill: steelblue;"></circle><circle cx="354.11655742675066" cy="104.74564619362354" r="3" style="fill: steelblue;"></circle><circle cx="399.554970189929" cy="76.09515655785799" r="3" style="fill: steelblue;"></circle><circle cx="274.04840076807886" cy="52.885013818740845" r="3" style="fill: steelblue;"></circle><circle cx="107.96617761254312" cy="7.397386431694031" r="3" style="fill: steelblue;"></circle><circle cx="182.17198111116886" cy="60.587647557258606" r="3" style="fill: steelblue;"></circle><circle cx="457.2930496931076" cy="76.36309806257486" r="3" style="fill: steelblue;"></circle><circle cx="260.6301095383242" cy="95.2266363427043" r="3" style="fill: steelblue;"></circle><circle cx="397.16862224042416" cy="99.63408503681421" r="3" style="fill: steelblue;"></circle><circle cx="471.95096656680107" cy="148.4192981850356" r="3" style="fill: steelblue;"></circle><circle cx="85.51228612661363" cy="52.610787749290466" r="3" style="fill: steelblue;"></circle><circle cx="509.0992261469364" cy="24.518978968262672" r="3" style="fill: steelblue;"></circle><circle cx="374.72276732325554" cy="114.4526844844222" r="3" style="fill: steelblue;"></circle><circle cx="273.0202910886146" cy="98.15506748855114" r="3" style="fill: steelblue;"></circle><circle cx="457.75860741734505" cy="81.27754293382168" r="3" style="fill: steelblue;"></circle><circle cx="161.23805724084377" cy="47.24692478775978" r="3" style="fill: steelblue;"></circle><circle cx="212.01548248529434" cy="153.28691685572267" r="3" style="fill: steelblue;"></circle><circle cx="365.3200723975897" cy="35.81737466156483" r="3" style="fill: steelblue;"></circle><circle cx="248.76084996387362" cy="238.19305207580328" r="3" style="fill: steelblue;"></circle><circle cx="95.52540823817255" cy="99.8795285820961" r="3" style="fill: steelblue;"></circle><circle cx="301.6527955234051" cy="126.65596948936582" r="3" style="fill: steelblue;"></circle><circle cx="352.3173265904188" cy="114.64332714676857" r="3" style="fill: steelblue;"></circle><circle cx="419.1918783634901" cy="281.4407667145133" r="3" style="fill: steelblue;"></circle><circle cx="223.4294569864869" cy="222.947411891073" r="3" style="fill: steelblue;"></circle><circle cx="281.7883186787367" cy="134.65374633669853" r="3" style="fill: steelblue;"></circle><circle cx="205.21844632923603" cy="156.44645243883133" r="3" style="fill: steelblue;"></circle><circle cx="160.35346135497093" cy="105.67801743745804" r="3" style="fill: steelblue;"></circle><circle cx="174.5082025229931" cy="201.60239953547716" r="3" style="fill: steelblue;"></circle><circle cx="252.93043607845902" cy="190.67476871423423" r="3" style="fill: steelblue;"></circle><circle cx="326.1558762565255" cy="248.36871419101954" r="3" style="fill: steelblue;"></circle><circle cx="206.79957333952188" cy="243.8610253855586" r="3" style="fill: steelblue;"></circle><circle cx="239.41681997850537" cy="217.64763975515962" r="3" style="fill: steelblue;"></circle><circle cx="213.33391226828098" cy="76.83409489691257" r="3" style="fill: steelblue;"></circle><circle cx="262.7203699015081" cy="315.47341234982014" r="3" style="fill: steelblue;"></circle><circle cx="61.21811091899873" cy="193.62204866483808" r="3" style="fill: steelblue;"></circle><circle cx="54.97038781642915" cy="198.46994983963668" r="3" style="fill: steelblue;"></circle><circle cx="275.39679480716586" cy="202.86296978592873" r="3" style="fill: steelblue;"></circle><circle cx="186.33712649345398" cy="179.4134504860267" r="3" style="fill: steelblue;"></circle><circle cx="316.99068758636713" cy="207.988544087857" r="3" style="fill: steelblue;"></circle><circle cx="239.41888444125652" cy="212.65682503581047" r="3" style="fill: steelblue;"></circle><circle cx="327.06519540399313" cy="80.39655648171902" r="3" style="fill: steelblue;"></circle><circle cx="253.78319246694446" cy="292.5365764647722" r="3" style="fill: steelblue;"></circle><circle cx="311.7593968100846" cy="245.4629048705101" r="3" style="fill: steelblue;"></circle><circle cx="188.58142632991076" cy="221.00311489775777" r="3" style="fill: steelblue;"></circle><circle cx="195.53595509380102" cy="87.60419599711895" r="3" style="fill: steelblue;"></circle><circle cx="398.60392928123474" cy="139.24733940511942" r="3" style="fill: steelblue;"></circle><circle cx="221.90248880535364" cy="185.14864875469357" r="3" style="fill: steelblue;"></circle><circle cx="150.95978870987892" cy="170.48843957018107" r="3" style="fill: steelblue;"></circle><circle cx="293.54210475459695" cy="331.2581919133663" r="3" style="fill: steelblue;"></circle><circle cx="117.50019349157812" cy="218.17366564646363" r="3" style="fill: steelblue;"></circle><circle cx="331.7529993876815" cy="181.70188973890617" r="3" style="fill: steelblue;"></circle><circle cx="243.96175861358643" cy="349.72812347114086" r="3" style="fill: steelblue;"></circle><circle cx="191.83658871799707" cy="269.0287774428725" r="3" style="fill: steelblue;"></circle><circle cx="238.80496451631188" cy="221.643755864352" r="3" style="fill: steelblue;"></circle><circle cx="407.3160023242235" cy="153.27618126757443" r="3" style="fill: steelblue;"></circle><circle cx="296.5295357443392" cy="221.6511780396104" r="3" style="fill: steelblue;"></circle><circle cx="444.990501254797" cy="186.86714961659163" r="3" style="fill: steelblue;"></circle><circle cx="448.6754138767719" cy="60.321687906980515" r="3" style="fill: steelblue;"></circle><circle cx="430.3331074118614" cy="45.797667652368546" r="3" style="fill: steelblue;"></circle><circle cx="446.5311688184738" cy="75.5116568878293" r="3" style="fill: steelblue;"></circle><circle cx="158.26178088784218" cy="241.97603408247232" r="3" style="fill: steelblue;"></circle><circle cx="444.9619357287884" cy="136.23756747692823" r="3" style="fill: steelblue;"></circle><circle cx="243.86507838964462" cy="134.29977670311928" r="3" style="fill: steelblue;"></circle><circle cx="253.22138325311244" cy="75.4359096288681" r="3" style="fill: steelblue;"></circle><circle cx="344.94907043874264" cy="95.22078856825829" r="3" style="fill: steelblue;"></circle><circle cx="74.6583116054535" cy="82.40813873708248" r="3" style="fill: steelblue;"></circle><circle cx="274.9884850624949" cy="90.86731281131506" r="3" style="fill: steelblue;"></circle><circle cx="192.5291769951582" cy="176.89129073987715" r="3" style="fill: steelblue;"></circle><circle cx="136.27655513584614" cy="243.29338055104017" r="3" style="fill: steelblue;"></circle><circle cx="210.7350528985262" cy="127.1454256027937" r="3" style="fill: steelblue;"></circle><circle cx="126.02281875908376" cy="216.68461496010423" r="3" style="fill: steelblue;"></circle><circle cx="178.72918143868446" cy="275.17855651676655" r="3" style="fill: steelblue;"></circle><circle cx="95.36697015166284" cy="194.3883841857314" r="3" style="fill: steelblue;"></circle><circle cx="133.4661700576544" cy="285.40625534951687" r="3" style="fill: steelblue;"></circle><circle cx="301.2570573762059" cy="164.3417115090415" r="3" style="fill: steelblue;"></circle><circle cx="231.56367911025882" cy="160.47505727037787" r="3" style="fill: steelblue;"></circle><circle cx="137.6877424120903" cy="221.77264159545302" r="3" style="fill: steelblue;"></circle><circle cx="257.0519674848765" cy="149.42770027555525" r="3" style="fill: steelblue;"></circle><circle cx="260.7877794234082" cy="58.058175444602966" r="3" style="fill: steelblue;"></circle><circle cx="388.87315325438976" cy="85.95869615674019" r="3" style="fill: steelblue;"></circle><circle cx="359.902338758111" cy="271.953590400517" r="3" style="fill: steelblue;"></circle><circle cx="281.24735651537776" cy="128.10072507709265" r="3" style="fill: steelblue;"></circle><circle cx="367.1986882388592" cy="187.79885589610785" r="3" style="fill: steelblue;"></circle><circle cx="317.26357888430357" cy="145.9359873086214" r="3" style="fill: steelblue;"></circle><circle cx="320.1831013709307" cy="133.34203902631998" r="3" style="fill: steelblue;"></circle><circle cx="345.8876994252205" cy="66.76472276449203" r="3" style="fill: steelblue;"></circle><circle cx="108.27054128050806" cy="79.87534180283546" r="3" style="fill: steelblue;"></circle><circle cx="467.55050763487816" cy="278.1641289591789" r="3" style="fill: steelblue;"></circle><circle cx="98.42227444052698" cy="246.66397385299206" r="3" style="fill: steelblue;"></circle><circle cx="253.97539244033396" cy="245.3476769849658" r="3" style="fill: steelblue;"></circle><circle cx="376.65043741464615" cy="128.10309482738376" r="3" style="fill: steelblue;"></circle><circle cx="389.82391253113747" cy="34.45168137550354" r="3" style="fill: steelblue;"></circle><circle cx="248.7285503000021" cy="182.66060571186244" r="3" style="fill: steelblue;"></circle><circle cx="177.55894035100937" cy="153.70033560320735" r="3" style="fill: steelblue;"></circle><circle cx="297.3997809737921" cy="275.1432677730918" r="3" style="fill: steelblue;"></circle><circle cx="197.48841885477304" cy="140.38498578593135" r="3" style="fill: steelblue;"></circle><circle cx="52.01208561658861" cy="240.63755869865417" r="3" style="fill: steelblue;"></circle><circle cx="122.9712460935116" cy="275.312820635736" r="3" style="fill: steelblue;"></circle><circle cx="325.6986417621374" cy="184.3218283727765" r="3" style="fill: steelblue;"></circle><circle cx="59.74125310778619" cy="291.3092479109764" r="3" style="fill: steelblue;"></circle><circle cx="353.6043292656541" cy="83.27557165175676" r="3" style="fill: steelblue;"></circle><circle cx="514.8115669190884" cy="152.96305152587593" r="3" style="fill: steelblue;"></circle><circle cx="270.22125202958705" cy="82.07722119987011" r="3" style="fill: steelblue;"></circle><circle cx="319.71085488796234" cy="64.55908827483654" r="3" style="fill: steelblue;"></circle><circle cx="428.30574966967106" cy="64.97415639460087" r="3" style="fill: steelblue;"></circle><circle cx="289.7636764962226" cy="157.80610237270594" r="3" style="fill: steelblue;"></circle><circle cx="213.82080864161253" cy="169.16054657194763" r="3" style="fill: steelblue;"></circle><circle cx="312.1947671100497" cy="333.87468308210373" r="3" style="fill: steelblue;"></circle><circle cx="130.15490256249907" cy="244.9564954265952" r="3" style="fill: steelblue;"></circle><circle cx="30.015041381120696" cy="245.52492257207632" r="3" style="fill: steelblue;"></circle><circle cx="287.53360661678016" cy="124.93461156263947" r="3" style="fill: steelblue;"></circle><circle cx="237.59795285761356" cy="229.6257789246738" r="3" style="fill: steelblue;"></circle></g></svg>