<svg xmlns="http://www.w3.org/2000/svg"><g transform="translate(40,20)"><circle cx="386.991650685668" cy="136.55408173799512" r="3" style="fill: steelblue;"></circle><circle cx="494.49186220765114" cy="198.0944428825751" r="3" style="fill: steelblue;"></circle><circle cx="342.7561080828309" cy="42.64677762985223" r="3" style="fill: steelblue;"></circle><circle cx="475.7091034948826" cy="74.53782558441159" r="3" style="fill: steelblue;"></circle><circle cx="454.6426919102669" cy="57.13970661163326" r="3" style="fill: steelblue;"></circle><circle cx="401.35393448174" cy="2.0858615636825064" r="3" style="fill: steelblue;"></circle><circle cx="270.65021194168366" cy="122.90917038917539" r="3" style="fill: steelblue;"></circle><circle cx="478.8225647807121" cy="47.29523956775662" r="3" style="fill: steelblue;"></circle><circle cx="279.0972437057644" cy="89.00396227836605" r="3" style="fill: steelblue;"></circle><circle cx="136.50049276649952" cy="17.307874560356098" r="3" style="fill: steelblue;"></circle><circle cx="538.1612491607666" cy="89.4174769520759" r="3" style="fill: steelblue;"></circle><circle cx="292.70386749878526" cy="100.7107317447662" r="3" style="fill: steelblue;"></circle><circle cx="272.7722522383556" cy="145.45962661504745" r="3" style="fill: steelblue;"></circle><circle cx="225.88785242289305" cy="113.40244561433792" r="3" style="fill: steelblue;"></circle><circle cx="429.94357019662857" cy="186.92352883517742" r="3" style="fill: steelblue;"></circle><circle cx="484.2702117562294" cy="203.4256854560226" r="3" style="fill: steelblue;"></circle><circle cx="349.74720373749733" cy="75.07849931716913" r="3" style="fill: steelblue;"></circle><circle cx="228.14539147540927" cy="175.1079361885786" r="3" style="fill: steelblue;"></circle><circle cx="337.95233711600304" cy="155.1459215581417" r="3" style="fill: steelblue;"></circle><circle cx="354.96560230851173" cy="4.372221231460532" r="3" style="fill: steelblue;"></circle><circle cx="258.36963661015034" cy="213.35854548960924" r="3" style="fill: steelblue;"></circle><circle cx="417.9818567633629" cy="197.683733003214" r="3" style="fill: steelblue;"></circle><circle cx="244.15131200104952" cy="214.5034771412611" r="3" style="fill: steelblue;"></circle><circle cx="249.86834370531142" cy="99.67666566371913" r="3" style="fill: steelblue;"></circle><circle cx="364.75250355899334" cy="244.13898661732676" r="3" style="fill: steelblue;"></circle><circle cx="337.29028578847647" cy="280.3884193301201" r="3" style="fill: steelblue;"></circle><circle cx="370.1686681061983" cy="264.5393431186676" r="3" style="fill: steelblue;"></circle><circle cx="347.5632033124566" cy="14.153254032134955" r="3" style="fill: steelblue;"></circle><circle cx="353.89583341777325" cy="82.48985260725016" r="3" style="fill: steelblue;"></circle><circle cx="116.37053757905962" cy="253.65343019366264" r="3" style="fill: steelblue;"></circle><circle cx="291.53685009106994" cy="236.69713437557218" r="3" style="fill: steelblue;"></circle><circle cx="214.26398668438196" cy="186.2667340785265" r="3" style="fill: steelblue;"></circle><circle cx="228.27251812443137" cy="201.99320237152276" r="3" style="fill: steelblue;"></circle><circle cx="378.4529221057892" cy="275.205534696579" r="3" style="fill: steelblue;"></circle><circle cx="472.65810415148735" cy="178.99646684527397" r="3" style="fill: steelblue;"></circle><circle cx="198.16032227128744" cy="102.54839509725569" r="3" style="fill: steelblue;"></circle><circle cx="270.2085987282044" cy="297.8895127773285" r="3" style="fill: steelblue;"></circle><circle cx="266.0777326254174" cy="309.87330228090286" r="3" style="fill: steelblue;"></circle><circle cx="293.9262381568551" cy="277.41953432559967" r="3" style="fill: steelblue;"></circle><circle cx="182.86394074559212" cy="291.2805125117302" r="3" style="fill: steelblue;"></circle><circle cx="74.3202929198742" cy="287.83983439207077" r="3" style="fill: steelblue;"></circle><circle cx="151.4085491001606" cy="207.84286856651306" r="3" style="fill: steelblue;"></circle><circle cx="192.6984679698944" cy="212.52969913184646" r="3" style="fill: steelblue;"></circle><circle cx="199.41985074430704" cy="222.2491640597582" r="3" style="fill: steelblue;"></circle><circle cx="223.88676188886166" cy="251.87920480966568" r="3" style="fill: steelblue;"></circle><circle cx="250.24692619219422" cy="265.69547206163406" r="3" style="fill: steelblue;"></circle><circle cx="146.7713986337185" cy="210.92036627233026" r="3" style="fill: steelblue;"></circle><circle cx="218.1298729777336" cy="266.61007553339005" r="3" style="fill: steelblue;"></circle><circle cx="196.59268844872713" cy="259.59169566631317" r="3" style="fill: steelblue;"></circle><circle cx="193.7070020288229" cy="268.60803067684174" r="3" style="fill: steelblue;"></circle><circle cx="217.34758995473385" cy="314.4648939371109" r="3" style="fill: steelblue;"></circle><circle cx="169.5597381144762" cy="164.77561816573143" r="3" style="fill: steelblue;"></circle><circle cx="196.3265261426568" cy="290.71819484233856" r="3" style="fill: steelblue;"></circle><circle cx="151.79683908820152" cy="246.2321229279041" r="3" style="fill: steelblue;"></circle><circle cx="28.61195102334024" cy="254.27292734384537" r="3" style="fill: steelblue;"></circle><circle cx="170.62233544886112" cy="263.9558508992195" r="3" style="fill: steelblue;"></circle><circle cx="345.09551402181387" cy="262.0352663099766" r="3" style="fill: steelblue;"></circle><circle cx="286.30307491868734" cy="279.5901417732239" r="3" style="fill: steelblue;"></circle><circle cx="112.44681112468244" cy="342.94135570526123" r="3" style="fill: steelblue;"></circle><circle cx="206.50565519928932" cy="288.8553336262703" r="3" style="fill: steelblue;"></circle><circle cx="392.9131333529949" cy="84.72190499305721" r="3" style="fill: steelblue;"></circle><circle cx="376.244545429945" cy="42.8222835063934" r="3" style="fill: steelblue;"></circle><circle cx="412.3719897866249" cy="96.07720822095868" r="3" style="fill: steelblue;"></circle><circle cx="369.75328110158443" cy="157.61306583881378" r="3" style="fill: steelblue;"></circle><circle cx="147.9531665146351" cy="93.93767714500424" r="3" style="fill: steelblue;"></circle><circle cx="466.59609720110893" cy="122.24178463220595" r="3" style="fill: steelblue;"></circle><circle cx="293.26594199985266" cy="129.32596057653424" r="3" style="fill: steelblue;"></circle><circle cx="364.95997577905655" cy="253.1853623688221" r="3" style="fill: steelblue;"></circle><circle cx="421.7714962363243" cy="222.0568627119064" r="3" style="fill: steelblue;"></circle><circle cx="468.54820892214775" cy="168.92840787768364" r="3" style="fill: steelblue;"></circle><circle cx="116.81319259107114" cy="63.195970654487574" r="3" style="fill: steelblue;"></circle><circle cx="257.4484813772142" cy="181.79914988577363" r="3" style="fill: steelblue;"></circle><circle cx="119.29621070623399" cy="85.56845486164087" r="3" style="fill: steelblue;"></circle><circle cx="213.3423813432455" cy="309.8654121160507" r="3" style="fill: steelblue;"></circle><circle cx="317.85836040973663" cy="209.58358403295279" r="3" style="fill: steelblue;"></circle><circle cx="329.48246754705906" cy="186.12089361995456" r="3" style="fill: steelblue;"></circle><circle cx="110.82956984639169" cy="327.6120990514755" r="3" style="fill: steelblue;"></circle><circle cx="137.4173355102539" cy="349.46725964546204" r="3" style="fill: steelblue;"></circle><circle cx="107.26451173424722" cy="321.3524118065834" r="3" style="fill: steelblue;"></circle><circle cx="118.24513010680677" cy="308.6880713701248" r="3" style="fill: steelblue;"></circle><circle cx="174.88282330334187" cy="271.0557550191879" r="3" style="fill: steelblue;"></circle><circle cx="168.45718927681446" cy="282.4112296104431" r="3" style="fill: steelblue;"></circle><circle cx="364.5453029125929" cy="165.85967391729352" r="3" style="fill: steelblue;"></circle><circle cx="384.63628225028515" cy="193.1988068856299" r="3" style="fill: steelblue;"></circle><circle cx="243.91848787665367" cy="98.61915260553356" r="3" style="fill: steelblue;"></circle><circle cx="351.0668908059597" cy="153.0418328940868" r="3" style="fill: steelblue;"></circle><circle cx="201.03320952504873" cy="149.29857179522514" r="3" style="fill: steelblue;"></circle><circle cx="183.2802028208971" cy="269.80903446674347" r="3" style="fill: steelblue;"></circle><circle cx="482.0489001274109" cy="182.80497081577775" r="3" style="fill: steelblue;"></circle><circle cx="247.44977781549096" cy="107.22811967134476" r="3" style="fill: steelblue;"></circle><circle cx="315.18776033073664" cy="66.02282524108884" r="3" style="fill: steelblue;"></circle><circle cx="464.0711461007595" cy="267.8297281265259" r="3" style="fill: steelblue;"></circle><circle cx="476.52133002877235" cy="196.66108307428658" r="3" style="fill: steelblue;"></circle><circle cx="330.67148745059967" cy="180.77098466455934" r="3" style="fill: steelblue;"></circle><circle cx="202.76735823601484" cy="179.67818006873134" r="3" style="fill: steelblue;"></circle><circle cx="61.002883762121215" cy="173.51179085671902" r="3" style="fill: steelblue;"></circle><circle cx="125.5479269474745" cy="336.67812943458557" r="3" style="fill: steelblue;"></circle><circle cx="215.7348145544529" cy="195.63457118347287" r="3" style="fill: steelblue;"></circle><circle cx="152.8633289784193" cy="241.03483259677887" r="3" style="fill: steelblue;"></circle><circle cx="328.87507796287537" cy="279.63743060827255" r="3" style="fill: steelblue;"></circle><circle cx="306.3927969709039" cy="247.5422963500023" r="3" style="fill: steelblue;"></circle><circle cx="127.73684084415437" cy="266.1676600575447" r="3" style="fill: steelblue;"></circle><circle cx="102.55946785211565" cy="127.99307405948637" r="3" style="fill: steelblue;"></circle><circle cx="221.1242240667343" cy="346.35685086250305" r="3" style="fill: steelblue;"></circle><circle cx="86.77458062767984" cy="268.25272738933563" r="3" style="fill: steelblue;"></circle><circle cx="67.40349277853967" cy="319.11164969205856" r="3" style="fill: steelblue;"></circle><circle cx="460.1053659617901" cy="151.87838003039357" r="3" style="fill: steelblue;"></circle><circle cx="430.2365981787443" cy="39.58694338798519" r="3" style="fill: steelblue;"></circle><circle cx="410.2901664376259" cy="134.99369919300077" r="3" style="fill: steelblue;"></circle><circle cx="415.58793492615223" cy="81.18970394134516" r="3" style="fill: steelblue;"></circle><circle cx="486.9662743806839" cy="44.5568978786468" r="3" style="fill: steelblue;"></circle><circle cx="495.3942511975765" cy="157.35948532819745" r="3" style="fill: steelblue;"></circle><circle cx="195.5635952576995" cy="141.2377029657364" r="3" style="fill: steelblue;"></circle><circle cx="153.13042670488358" cy="157.92551711201668" r="3" style="fill: steelblue;"></circle><circle cx="129.08589810132983" cy="205.5250320583582" r="3" style="fill: steelblue;"></circle><circle cx="163.42665933072567" cy="253.4876063466072" r="3" style="fill: steelblue;"></circle><circle cx="292.478886321187" cy="115.46469926834104" r="3" style="fill: steelblue;"></circle><circle cx="286.5634335950017" cy="201.86251755803826" r="3" style="fill: steelblue;"></circle></g></svg>