<svg xmlns="http://www.w3.org/2000/svg"><g transform="translate(40,20)"><circle cx="276.51744425296783" cy="55.70584461092949" r="3" style="fill: steelblue;"></circle><circle cx="329.87642526626587" cy="43.28046478331089" r="3" style="fill: steelblue;"></circle><circle cx="158.81517469882968" cy="92.46693011373281" r="3" style="fill: steelblue;"></circle><circle cx="237.49621599912646" cy="7.641180604696274" r="3" style="fill: steelblue;"></circle><circle cx="342.61322557926184" cy="64.43956419825554" r="3" style="fill: steelblue;"></circle><circle cx="335.6553786993027" cy="181.4196547609754" r="3" style="fill: steelblue;"></circle><circle cx="354.68161940574646" cy="100.60705821961164" r="3" style="fill: steelblue;"></circle><circle cx="214.36275109648705" cy="104.74564619362354" r="3" style="fill: steelblue;"></circle><circle cx="313.7135097384453" cy="76.09515655785799" r="3" style="fill: steelblue;"></circle><circle cx="481.0862624645233" cy="52.885013818740845" r="3" style="fill: steelblue;"></circle><circle cx="450.7539653778076" cy="7.397386431694031" r="3" style="fill: steelblue;"></circle><circle cx="241.93361341953278" cy="60.587647557258606" r="3" style="fill: steelblue;"></circle><circle cx="253.8883162289858" cy="76.36309806257486" r="3" style="fill: steelblue;"></circle><circle cx="423.7625026702881" cy="95.2266363427043" r="3" style="fill: steelblue;"></circle><circle cx="206.34542271494865" cy="99.63408503681421" r="3" style="fill: steelblue;"></circle><circle cx="377.25538551807404" cy="148.4192981850356" r="3" style="fill: steelblue;"></circle><circle cx="404.8949861526489" cy="52.610787749290466" r="3" style="fill: steelblue;"></circle><circle cx="363.2796013355255" cy="24.518978968262672" r="3" style="fill: steelblue;"></circle><circle cx="423.9047312736511" cy="114.4526844844222" r="3" style="fill: steelblue;"></circle><circle cx="392.74134278297424" cy="98.15506748855114" r="3" style="fill: steelblue;"></circle><circle cx="313.9524677395821" cy="81.27754293382168" r="3" style="fill: steelblue;"></circle><circle cx="283.350313603878" cy="47.24692478775978" r="3" style="fill: steelblue;"></circle><circle cx="436.4950740337372" cy="153.28691685572267" r="3" style="fill: steelblue;"></circle><circle cx="162.4640965461731" cy="35.81737466156483" r="3" style="fill: steelblue;"></circle><circle cx="222.82718360424042" cy="238.19305207580328" r="3" style="fill: steelblue;"></circle><circle cx="253.71510922908783" cy="99.8795285820961" r="3" style="fill: steelblue;"></circle><circle cx="273.75535011291504" cy="126.65596948936582" r="3" style="fill: steelblue;"></circle><circle cx="227.06401214003563" cy="114.64332714676857" r="3" style="fill: steelblue;"></circle><circle cx="355.15127420425415" cy="281.4407667145133" r="3" style="fill: steelblue;"></circle><circle cx="265.97797214984894" cy="222.947411891073" r="3" style="fill: steelblue;"></circle><circle cx="288.45230877399445" cy="134.65374633669853" r="3" style="fill: steelblue;"></circle><circle cx="143.15345227718356" cy="156.44645243883133" r="3" style="fill: steelblue;"></circle><circle cx="250.1238515228033" cy="105.67801743745804" r="3" style="fill: steelblue;"></circle><circle cx="334.39895153045654" cy="201.60239953547716" r="3" style="fill: steelblue;"></circle><circle cx="201.59885376691818" cy="190.67476871423423" r="3" style="fill: steelblue;"></circle><circle cx="222.10204057395458" cy="248.36871419101954" r="3" style="fill: steelblue;"></circle><circle cx="172.68016129732132" cy="243.8610253855586" r="3" style="fill: steelblue;"></circle><circle cx="346.079363822937" cy="217.64763975515962" r="3" style="fill: steelblue;"></circle><circle cx="249.6158266067505" cy="76.83409489691257" r="3" style="fill: steelblue;"></circle><circle cx="84.22085881233217" cy="315.47341234982014" r="3" style="fill: steelblue;"></circle><circle cx="214.17947798967361" cy="193.62204866483808" r="3" style="fill: steelblue;"></circle><circle cx="64.7851073741913" cy="198.46994983963668" r="3" style="fill: steelblue;"></circle><circle cx="240.5061189411208" cy="202.86296978592873" r="3" style="fill: steelblue;"></circle><circle cx="23.67501497268678" cy="179.4134504860267" r="3" style="fill: steelblue;"></circle><circle cx="61.50703668594362" cy="207.988544087857" r="3" style="fill: steelblue;"></circle><circle cx="141.6626089811325" cy="212.65682503581047" r="3" style="fill: steelblue;"></circle><circle cx="118.76932919025423" cy="80.39655648171902" r="3" style="fill: steelblue;"></circle><circle cx="304.81064558029175" cy="292.5365764647722" r="3" style="fill: steelblue;"></circle><circle cx="93.89143824577333" cy="245.4629048705101" r="3" style="fill: steelblue;"></circle><circle cx="227.31791116297245" cy="221.00311489775777" r="3" style="fill: steelblue;"></circle><circle cx="255.12919440865517" cy="87.60419599711895" r="3" style="fill: steelblue;"></circle><circle cx="98.09044539928438" cy="139.24733940511942" r="3" style="fill: steelblue;"></circle><circle cx="245.56850228458646" cy="185.14864875469357" r="3" style="fill: steelblue;"></circle><circle cx="225.0029144436121" cy="170.48843957018107" r="3" style="fill: steelblue;"></circle><circle cx="112.68416583538057" cy="331.2581919133663" r="3" style="fill: steelblue;"></circle><circle cx="290.97359418869024" cy="218.17366564646363" r="3" style="fill: steelblue;"></circle><circle cx="130.57428538799286" cy="181.70188973890617" r="3" style="fill: steelblue;"></circle><circle cx="152.8427892923355" cy="349.72812347114086" r="3" style="fill: steelblue;"></circle><circle cx="121.04173243045808" cy="269.0287774428725" r="3" style="fill: steelblue;"></circle><circle cx="310.5566883087158" cy="221.643755864352" r="3" style="fill: steelblue;"></circle><circle cx="400.1875841617584" cy="153.27618126757443" r="3" style="fill: steelblue;"></circle><circle cx="398.70357155799866" cy="221.6511780396104" r="3" style="fill: steelblue;"></circle><circle cx="323.1154704093933" cy="186.86714961659163" r="3" style="fill: steelblue;"></circle><circle cx="267.7845360338688" cy="60.321687906980515" r="3" style="fill: steelblue;"></circle><circle cx="339.2691904306412" cy="45.797667652368546" r="3" style="fill: steelblue;"></circle><circle cx="259.9170984327793" cy="75.5116568878293" r="3" style="fill: steelblue;"></circle><circle cx="229.4447386264801" cy="241.97603408247232" r="3" style="fill: steelblue;"></circle><circle cx="355.6119704246521" cy="136.23756747692823" r="3" style="fill: steelblue;"></circle><circle cx="133.9130812883377" cy="134.29977670311928" r="3" style="fill: steelblue;"></circle><circle cx="217.1585449576378" cy="75.4359096288681" r="3" style="fill: steelblue;"></circle><circle cx="357.32769906520844" cy="95.22078856825829" r="3" style="fill: steelblue;"></circle><circle cx="201.75182908773422" cy="82.40813873708248" r="3" style="fill: steelblue;"></circle><circle cx="102.82356083393097" cy="90.86731281131506" r="3" style="fill: steelblue;"></circle><circle cx="185.39983570575714" cy="176.89129073987715" r="3" style="fill: steelblue;"></circle><circle cx="236.34942999109626" cy="243.29338055104017" r="3" style="fill: steelblue;"></circle><circle cx="60.02990841865541" cy="127.1454256027937" r="3" style="fill: steelblue;"></circle><circle cx="201.3228589296341" cy="216.68461496010423" r="3" style="fill: steelblue;"></circle><circle cx="129.9245649576187" cy="275.17855651676655" r="3" style="fill: steelblue;"></circle><circle cx="133.79741549491885" cy="194.3883841857314" r="3" style="fill: steelblue;"></circle><circle cx="188.05593341588977" cy="285.40625534951687" r="3" style="fill: steelblue;"></circle><circle cx="74.37307476997377" cy="164.3417115090415" r="3" style="fill: steelblue;"></circle><circle cx="205.86215570569038" cy="160.47505727037787" r="3" style="fill: steelblue;"></circle><circle cx="69.73460555076599" cy="221.77264159545302" r="3" style="fill: steelblue;"></circle><circle cx="173.70105922222137" cy="149.42770027555525" r="3" style="fill: steelblue;"></circle><circle cx="226.42694167792797" cy="58.058175444602966" r="3" style="fill: steelblue;"></circle><circle cx="246.6730219870806" cy="85.95869615674019" r="3" style="fill: steelblue;"></circle><circle cx="360.1653331518174" cy="271.953590400517" r="3" style="fill: steelblue;"></circle><circle cx="166.06599032878879" cy="128.10072507709265" r="3" style="fill: steelblue;"></circle><circle cx="225.39346978068352" cy="187.79885589610785" r="3" style="fill: steelblue;"></circle><circle cx="228.35581205785275" cy="145.9359873086214" r="3" style="fill: steelblue;"></circle><circle cx="420.5454969406128" cy="133.34203902631998" r="3" style="fill: steelblue;"></circle><circle cx="357.62319803237915" cy="66.76472276449203" r="3" style="fill: steelblue;"></circle><circle cx="423.31514596939087" cy="79.87534180283546" r="3" style="fill: steelblue;"></circle><circle cx="428.91146779060364" cy="278.1641289591789" r="3" style="fill: steelblue;"></circle><circle cx="69.91624474525453" cy="246.66397385299206" r="3" style="fill: steelblue;"></circle><circle cx="146.23545348644257" cy="245.3476769849658" r="3" style="fill: steelblue;"></circle><circle cx="89.42463040351869" cy="128.10309482738376" r="3" style="fill: steelblue;"></circle><circle cx="143.11018824577332" cy="34.45168137550354" r="3" style="fill: steelblue;"></circle><circle cx="43.3406674861908" cy="182.66060571186244" r="3" style="fill: steelblue;"></circle><circle cx="89.20107722282411" cy="153.70033560320735" r="3" style="fill: steelblue;"></circle><circle cx="194.66231256723404" cy="275.1432677730918" r="3" style="fill: steelblue;"></circle><circle cx="149.95616912841797" cy="140.38498578593135" r="3" style="fill: steelblue;"></circle><circle cx="184.3123072385788" cy="240.63755869865417" r="3" style="fill: steelblue;"></circle><circle cx="62.05873131752015" cy="275.312820635736" r="3" style="fill: steelblue;"></circle><circle cx="378.63268196582794" cy="184.3218283727765" r="3" style="fill: steelblue;"></circle><circle cx="296.912961602211" cy="291.3092479109764" r="3" style="fill: steelblue;"></circle><circle cx="237.99204342998567" cy="83.27557165175676" r="3" style="fill: steelblue;"></circle><circle cx="305.010242164135" cy="152.96305152587593" r="3" style="fill: steelblue;"></circle><circle cx="299.37921702861786" cy="82.07722119987011" r="3" style="fill: steelblue;"></circle><circle cx="328.91983330249786" cy="64.55908827483654" r="3" style="fill: steelblue;"></circle><circle cx="438.29816222190857" cy="64.97415639460087" r="3" style="fill: steelblue;"></circle><circle cx="446.3426077365875" cy="157.80610237270594" r="3" style="fill: steelblue;"></circle><circle cx="469.04106974601746" cy="169.16054657194763" r="3" style="fill: steelblue;"></circle><circle cx="127.96179592609407" cy="333.87468308210373" r="3" style="fill: steelblue;"></circle><circle cx="80.15307426452637" cy="244.9564954265952" r="3" style="fill: steelblue;"></circle><circle cx="108.301722407341" cy="245.52492257207632" r="3" style="fill: steelblue;"></circle><circle cx="98.29438269138338" cy="124.93461156263947" r="3" style="fill: steelblue;"></circle><circle cx="166.65114998817444" cy="229.6257789246738" r="3" style="fill: steelblue;"></circle></g></svg>