<svg xmlns="http://www.w3.org/2000/svg"><g transform="translate(40,20)"><circle cx="430.94471141695976" cy="55.70584461092949" r="3" style="fill: steelblue;"></circle><circle cx="223.58364544808865" cy="43.28046478331089" r="3" style="fill: steelblue;"></circle><circle cx="266.9570743152872" cy="92.46693011373281" r="3" style="fill: steelblue;"></circle><circle cx="478.67796689271927" cy="7.641180604696274" r="3" style="fill: steelblue;"></circle><circle cx="402.8821901232004" cy="64.43956419825554" r="3" style="fill: steelblue;"></circle><circle cx="374.0583472698927" cy="181.4196547609754" r="3" style="fill: steelblue;"></circle><circle cx="323.22694927453995" cy="100.60705821961164" r="3" style="fill: steelblue;"></circle><circle cx="439.6928232908249" cy="104.74564619362354" r="3" style="fill: steelblue;"></circle><circle cx="384.8794010281563" cy="76.09515655785799" r="3" style="fill: steelblue;"></circle><circle cx="356.526607722044" cy="52.885013818740845" r="3" style="fill: steelblue;"></circle><circle cx="517.1600353717804" cy="7.397386431694031" r="3" style="fill: steelblue;"></circle><circle cx="407.51527704298496" cy="60.587647557258606" r="3" style="fill: steelblue;"></circle><circle cx="387.8529817610979" cy="76.36309806257486" r="3" style="fill: steelblue;"></circle><circle cx="325.1046447828412" cy="95.2266363427043" r="3" style="fill: steelblue;"></circle><circle cx="314.7851222008467" cy="99.63408503681421" r="3" style="fill: steelblue;"></circle><circle cx="290.7482466939837" cy="148.4192981850356" r="3" style="fill: steelblue;"></circle><circle cx="105.62315069139005" cy="52.610787749290466" r="3" style="fill: steelblue;"></circle><circle cx="312.3934534192085" cy="24.518978968262672" r="3" style="fill: steelblue;"></circle><circle cx="432.24529780447483" cy="114.4526844844222" r="3" style="fill: steelblue;"></circle><circle cx="162.8848497569561" cy="98.15506748855114" r="3" style="fill: steelblue;"></circle><circle cx="451.5317250788212" cy="81.27754293382168" r="3" style="fill: steelblue;"></circle><circle cx="102.98449069261552" cy="47.24692478775978" r="3" style="fill: steelblue;"></circle><circle cx="493.7201504409313" cy="153.28691685572267" r="3" style="fill: steelblue;"></circle><circle cx="485.28159230947495" cy="35.81737466156483" r="3" style="fill: steelblue;"></circle><circle cx="377.71712847054005" cy="238.19305207580328" r="3" style="fill: steelblue;"></circle><circle cx="142.73486852645874" cy="99.8795285820961" r="3" style="fill: steelblue;"></circle><circle cx="311.24586107209325" cy="126.65596948936582" r="3" style="fill: steelblue;"></circle><circle cx="381.80688701570034" cy="114.64332714676857" r="3" style="fill: steelblue;"></circle><circle cx="207.26089149713516" cy="281.4407667145133" r="3" style="fill: steelblue;"></circle><circle cx="257.27672612294555" cy="222.947411891073" r="3" style="fill: steelblue;"></circle><circle cx="271.89825731213205" cy="134.65374633669853" r="3" style="fill: steelblue;"></circle><circle cx="217.67035525292158" cy="156.44645243883133" r="3" style="fill: steelblue;"></circle><circle cx="334.72459863871336" cy="105.67801743745804" r="3" style="fill: steelblue;"></circle><circle cx="360.8523738384247" cy="201.60239953547716" r="3" style="fill: steelblue;"></circle><circle cx="287.32166977599263" cy="190.67476871423423" r="3" style="fill: steelblue;"></circle><circle cx="260.95971069764346" cy="248.36871419101954" r="3" style="fill: steelblue;"></circle><circle cx="170.55870674550533" cy="243.8610253855586" r="3" style="fill: steelblue;"></circle><circle cx="356.695234850049" cy="217.64763975515962" r="3" style="fill: steelblue;"></circle><circle cx="230.44636219739914" cy="76.83409489691257" r="3" style="fill: steelblue;"></circle><circle cx="285.75943725183606" cy="315.47341234982014" r="3" style="fill: steelblue;"></circle><circle cx="325.7965088635683" cy="193.62204866483808" r="3" style="fill: steelblue;"></circle><circle cx="324.46052234619856" cy="198.46994983963668" r="3" style="fill: steelblue;"></circle><circle cx="200.38968052715063" cy="202.86296978592873" r="3" style="fill: steelblue;"></circle><circle cx="225.63425794243813" cy="179.4134504860267" r="3" style="fill: steelblue;"></circle><circle cx="207.11674623191357" cy="207.988544087857" r="3" style="fill: steelblue;"></circle><circle cx="208.19026686251163" cy="212.65682503581047" r="3" style="fill: steelblue;"></circle><circle cx="25.122973769903197" cy="80.39655648171902" r="3" style="fill: steelblue;"></circle><circle cx="272.16984873404726" cy="292.5365764647722" r="3" style="fill: steelblue;"></circle><circle cx="116.3048066943884" cy="245.4629048705101" r="3" style="fill: steelblue;"></circle><circle cx="203.83129835128784" cy="221.00311489775777" r="3" style="fill: steelblue;"></circle><circle cx="239.8070260696113" cy="87.60419599711895" r="3" style="fill: steelblue;"></circle><circle cx="305.4322283528745" cy="139.24733940511942" r="3" style="fill: steelblue;"></circle><circle cx="247.8633115813136" cy="185.14864875469357" r="3" style="fill: steelblue;"></circle><circle cx="385.9077700227499" cy="170.48843957018107" r="3" style="fill: steelblue;"></circle><circle cx="35.84098041057588" cy="331.2581919133663" r="3" style="fill: steelblue;"></circle><circle cx="148.3295776695013" cy="218.17366564646363" r="3" style="fill: steelblue;"></circle><circle cx="206.70469354838133" cy="181.70188973890617" r="3" style="fill: steelblue;"></circle><circle cx="190.7656480371952" cy="349.72812347114086" r="3" style="fill: steelblue;"></circle><circle cx="178.37616585195065" cy="269.0287774428725" r="3" style="fill: steelblue;"></circle><circle cx="179.28947813808918" cy="221.643755864352" r="3" style="fill: steelblue;"></circle><circle cx="399.3556250631809" cy="153.27618126757443" r="3" style="fill: steelblue;"></circle><circle cx="321.90892182290554" cy="221.6511780396104" r="3" style="fill: steelblue;"></circle><circle cx="442.9997053742409" cy="186.86714961659163" r="3" style="fill: steelblue;"></circle><circle cx="400.5614322423935" cy="60.321687906980515" r="3" style="fill: steelblue;"></circle><circle cx="483.22887763381004" cy="45.797667652368546" r="3" style="fill: steelblue;"></circle><circle cx="445.95068514347076" cy="75.5116568878293" r="3" style="fill: steelblue;"></circle><circle cx="180.77511683106422" cy="241.97603408247232" r="3" style="fill: steelblue;"></circle><circle cx="462.86193922162056" cy="136.23756747692823" r="3" style="fill: steelblue;"></circle><circle cx="359.23791870474815" cy="134.29977670311928" r="3" style="fill: steelblue;"></circle><circle cx="485.15342965722084" cy="75.4359096288681" r="3" style="fill: steelblue;"></circle><circle cx="419.7638024389744" cy="95.22078856825829" r="3" style="fill: steelblue;"></circle><circle cx="295.76326048001647" cy="82.40813873708248" r="3" style="fill: steelblue;"></circle><circle cx="198.0259033665061" cy="90.86731281131506" r="3" style="fill: steelblue;"></circle><circle cx="130.25975011289123" cy="176.89129073987715" r="3" style="fill: steelblue;"></circle><circle cx="291.35722171515226" cy="243.29338055104017" r="3" style="fill: steelblue;"></circle><circle cx="147.66705863177776" cy="127.1454256027937" r="3" style="fill: steelblue;"></circle><circle cx="104.04446281492712" cy="216.68461496010423" r="3" style="fill: steelblue;"></circle><circle cx="5.957416892051712" cy="275.17855651676655" r="3" style="fill: steelblue;"></circle><circle cx="166.0275001823902" cy="194.3883841857314" r="3" style="fill: steelblue;"></circle><circle cx="41.362958103418364" cy="285.40625534951687" r="3" style="fill: steelblue;"></circle><circle cx="175.23734763264656" cy="164.3417115090415" r="3" style="fill: steelblue;"></circle><circle cx="245.22145304828882" cy="160.47505727037787" r="3" style="fill: steelblue;"></circle><circle cx="114.24717351794244" cy="221.77264159545302" r="3" style="fill: steelblue;"></circle><circle cx="307.0182713493705" cy="149.42770027555525" r="3" style="fill: steelblue;"></circle><circle cx="294.78557266294956" cy="58.058175444602966" r="3" style="fill: steelblue;"></circle><circle cx="408.94215524196625" cy="85.95869615674019" r="3" style="fill: steelblue;"></circle><circle cx="441.1099348962307" cy="271.953590400517" r="3" style="fill: steelblue;"></circle><circle cx="306.33679496124387" cy="128.10072507709265" r="3" style="fill: steelblue;"></circle><circle cx="379.40790586173534" cy="187.79885589610785" r="3" style="fill: steelblue;"></circle><circle cx="448.9278566837311" cy="145.9359873086214" r="3" style="fill: steelblue;"></circle><circle cx="359.0481188893318" cy="133.34203902631998" r="3" style="fill: steelblue;"></circle><circle cx="225.92851303517818" cy="66.76472276449203" r="3" style="fill: steelblue;"></circle><circle cx="480.3238843381405" cy="79.87534180283546" r="3" style="fill: steelblue;"></circle><circle cx="398.7511423230171" cy="278.1641289591789" r="3" style="fill: steelblue;"></circle><circle cx="148.33185084164143" cy="246.66397385299206" r="3" style="fill: steelblue;"></circle><circle cx="136.343754529953" cy="245.3476769849658" r="3" style="fill: steelblue;"></circle><circle cx="90.68620696663858" cy="128.10309482738376" r="3" style="fill: steelblue;"></circle><circle cx="222.0558826625347" cy="34.45168137550354" r="3" style="fill: steelblue;"></circle><circle cx="151.9093007594347" cy="182.66060571186244" r="3" style="fill: steelblue;"></circle><circle cx="425.5464506149292" cy="153.70033560320735" r="3" style="fill: steelblue;"></circle><circle cx="382.05791160464287" cy="275.1432677730918" r="3" style="fill: steelblue;"></circle><circle cx="207.76500765234232" cy="140.38498578593135" r="3" style="fill: steelblue;"></circle><circle cx="208.86218033730984" cy="240.63755869865417" r="3" style="fill: steelblue;"></circle><circle cx="120.16689598560335" cy="275.312820635736" r="3" style="fill: steelblue;"></circle><circle cx="212.97862350940704" cy="184.3218283727765" r="3" style="fill: steelblue;"></circle><circle cx="219.98209085315466" cy="291.3092479109764" r="3" style="fill: steelblue;"></circle><circle cx="419.5668411254883" cy="83.27557165175676" r="3" style="fill: steelblue;"></circle><circle cx="184.70134779810905" cy="152.96305152587593" r="3" style="fill: steelblue;"></circle><circle cx="426.77221342921257" cy="82.07722119987011" r="3" style="fill: steelblue;"></circle><circle cx="401.9947075098753" cy="64.55908827483654" r="3" style="fill: steelblue;"></circle><circle cx="325.11610619723797" cy="64.97415639460087" r="3" style="fill: steelblue;"></circle><circle cx="312.6005082204938" cy="157.80610237270594" r="3" style="fill: steelblue;"></circle><circle cx="109.53515924513341" cy="169.16054657194763" r="3" style="fill: steelblue;"></circle><circle cx="20.724546611309066" cy="333.87468308210373" r="3" style="fill: steelblue;"></circle><circle cx="158.2373694330454" cy="244.9564954265952" r="3" style="fill: steelblue;"></circle><circle cx="112.73457862436773" cy="245.52492257207632" r="3" style="fill: steelblue;"></circle><circle cx="139.84775885939598" cy="124.93461156263947" r="3" style="fill: steelblue;"></circle><circle cx="174.51532378792763" cy="229.6257789246738" r="3" style="fill: steelblue;"></circle></g></svg>