<svg xmlns="http://www.w3.org/2000/svg"><g transform="translate(40,20)"><circle cx="347.3830157518387" cy="136.55408173799512" r="3" style="fill: steelblue;"></circle><circle cx="253.45100663602352" cy="198.0944428825751" r="3" style="fill: steelblue;"></circle><circle cx="256.915624961257" cy="42.64677762985223" r="3" style="fill: steelblue;"></circle><circle cx="388.4267860651016" cy="74.53782558441159" r="3" style="fill: steelblue;"></circle><circle cx="355.3540223836899" cy="57.13970661163326" r="3" style="fill: steelblue;"></circle><circle cx="523.2969546318054" cy="2.0858615636825064" r="3" style="fill: steelblue;"></circle><circle cx="386.1090713739395" cy="122.90917038917539" r="3" style="fill: steelblue;"></circle><circle cx="271.05764016509056" cy="47.29523956775662" r="3" style="fill: steelblue;"></circle><circle cx="449.7643554210663" cy="89.00396227836605" r="3" style="fill: steelblue;"></circle><circle cx="338.52166771888733" cy="17.307874560356098" r="3" style="fill: steelblue;"></circle><circle cx="253.2708515971899" cy="89.4174769520759" r="3" style="fill: steelblue;"></circle><circle cx="345.58155477046967" cy="100.7107317447662" r="3" style="fill: steelblue;"></circle><circle cx="373.45857560634613" cy="145.45962661504745" r="3" style="fill: steelblue;"></circle><circle cx="239.04849850572646" cy="113.40244561433792" r="3" style="fill: steelblue;"></circle><circle cx="104.9342179298401" cy="186.92352883517742" r="3" style="fill: steelblue;"></circle><circle cx="243.27317090705037" cy="203.4256854560226" r="3" style="fill: steelblue;"></circle><circle cx="304.22749757766724" cy="75.07849931716913" r="3" style="fill: steelblue;"></circle><circle cx="232.57947485893965" cy="175.1079361885786" r="3" style="fill: steelblue;"></circle><circle cx="368.38831543922424" cy="155.1459215581417" r="3" style="fill: steelblue;"></circle><circle cx="356.11165702342987" cy="4.372221231460532" r="3" style="fill: steelblue;"></circle><circle cx="109.77142989635469" cy="213.35854548960924" r="3" style="fill: steelblue;"></circle><circle cx="363.20636808872223" cy="197.683733003214" r="3" style="fill: steelblue;"></circle><circle cx="416.68004035949707" cy="214.5034771412611" r="3" style="fill: steelblue;"></circle><circle cx="324.1915547847748" cy="99.67666566371913" r="3" style="fill: steelblue;"></circle><circle cx="273.06962326169014" cy="244.13898661732676" r="3" style="fill: steelblue;"></circle><circle cx="312.26894348859787" cy="280.3884193301201" r="3" style="fill: steelblue;"></circle><circle cx="336.6232359409333" cy="264.5393431186676" r="3" style="fill: steelblue;"></circle><circle cx="347.8182667493821" cy="14.153254032134955" r="3" style="fill: steelblue;"></circle><circle cx="234.76793836802244" cy="82.48985260725016" r="3" style="fill: steelblue;"></circle><circle cx="121.27777576446533" cy="253.65343019366264" r="3" style="fill: steelblue;"></circle><circle cx="295.2156776189804" cy="236.69713437557218" r="3" style="fill: steelblue;"></circle><circle cx="276.3388292491436" cy="186.2667340785265" r="3" style="fill: steelblue;"></circle><circle cx="194.80076372623444" cy="201.99320237152276" r="3" style="fill: steelblue;"></circle><circle cx="325.2807730436325" cy="275.205534696579" r="3" style="fill: steelblue;"></circle><circle cx="132.9894983768463" cy="178.99646684527397" r="3" style="fill: steelblue;"></circle><circle cx="135.95350027084353" cy="102.54839509725569" r="3" style="fill: steelblue;"></circle><circle cx="135.5342620611191" cy="297.8895127773285" r="3" style="fill: steelblue;"></circle><circle cx="190.5451664328575" cy="309.87330228090286" r="3" style="fill: steelblue;"></circle><circle cx="180.11087268590927" cy="277.41953432559967" r="3" style="fill: steelblue;"></circle><circle cx="230.79712685197592" cy="291.2805125117302" r="3" style="fill: steelblue;"></circle><circle cx="354.4332826137543" cy="287.83983439207077" r="3" style="fill: steelblue;"></circle><circle cx="176.7059826850891" cy="207.84286856651306" r="3" style="fill: steelblue;"></circle><circle cx="202.25114017724994" cy="212.52969913184646" r="3" style="fill: steelblue;"></circle><circle cx="191.10983401536942" cy="222.2491640597582" r="3" style="fill: steelblue;"></circle><circle cx="209.76011618971827" cy="251.87920480966568" r="3" style="fill: steelblue;"></circle><circle cx="265.356861948967" cy="265.69547206163406" r="3" style="fill: steelblue;"></circle><circle cx="259.574636220932" cy="210.92036627233026" r="3" style="fill: steelblue;"></circle><circle cx="173.15981179475787" cy="266.61007553339005" r="3" style="fill: steelblue;"></circle><circle cx="141.0873556137085" cy="259.59169566631317" r="3" style="fill: steelblue;"></circle><circle cx="329.470437169075" cy="268.60803067684174" r="3" style="fill: steelblue;"></circle><circle cx="187.4616140127182" cy="314.4648939371109" r="3" style="fill: steelblue;"></circle><circle cx="256.1286760121584" cy="164.77561816573143" r="3" style="fill: steelblue;"></circle><circle cx="190.18418580293658" cy="290.71819484233856" r="3" style="fill: steelblue;"></circle><circle cx="73.86272192001344" cy="246.2321229279041" r="3" style="fill: steelblue;"></circle><circle cx="82.4729347229004" cy="254.27292734384537" r="3" style="fill: steelblue;"></circle><circle cx="247.43480790406466" cy="263.9558508992195" r="3" style="fill: steelblue;"></circle><circle cx="140.28830766677856" cy="262.0352663099766" r="3" style="fill: steelblue;"></circle><circle cx="258.38047094643116" cy="279.5901417732239" r="3" style="fill: steelblue;"></circle><circle cx="79.55778479576111" cy="342.94135570526123" r="3" style="fill: steelblue;"></circle><circle cx="71.18639588356018" cy="288.8553336262703" r="3" style="fill: steelblue;"></circle><circle cx="313.0364665389061" cy="84.72190499305721" r="3" style="fill: steelblue;"></circle><circle cx="226.34998686611652" cy="42.8222835063934" r="3" style="fill: steelblue;"></circle><circle cx="405.2763783931732" cy="96.07720822095868" r="3" style="fill: steelblue;"></circle><circle cx="163.81081581115723" cy="157.61306583881378" r="3" style="fill: steelblue;"></circle><circle cx="410.6885755062103" cy="93.93767714500424" r="3" style="fill: steelblue;"></circle><circle cx="372.92208909988403" cy="122.24178463220595" r="3" style="fill: steelblue;"></circle><circle cx="271.5033115446568" cy="129.32596057653424" r="3" style="fill: steelblue;"></circle><circle cx="361.52388095855713" cy="253.1853623688221" r="3" style="fill: steelblue;"></circle><circle cx="342.7642250061035" cy="222.0568627119064" r="3" style="fill: steelblue;"></circle><circle cx="427.5688433647156" cy="168.92840787768364" r="3" style="fill: steelblue;"></circle><circle cx="226.64235770702365" cy="63.195970654487574" r="3" style="fill: steelblue;"></circle><circle cx="41.959347724914565" cy="181.79914988577363" r="3" style="fill: steelblue;"></circle><circle cx="279.7862568497658" cy="85.56845486164087" r="3" style="fill: steelblue;"></circle><circle cx="211.47734016180038" cy="309.8654121160507" r="3" style="fill: steelblue;"></circle><circle cx="321.1691612005234" cy="209.58358403295279" r="3" style="fill: steelblue;"></circle><circle cx="288.4062686562538" cy="186.12089361995456" r="3" style="fill: steelblue;"></circle><circle cx="185.73522806167603" cy="327.6120990514755" r="3" style="fill: steelblue;"></circle><circle cx="154.18368816375735" cy="349.46725964546204" r="3" style="fill: steelblue;"></circle><circle cx="173.71925801038745" cy="321.3524118065834" r="3" style="fill: steelblue;"></circle><circle cx="48.781117200851455" cy="308.6880713701248" r="3" style="fill: steelblue;"></circle><circle cx="175.62219589948657" cy="271.0557550191879" r="3" style="fill: steelblue;"></circle><circle cx="128.14254105091095" cy="282.4112296104431" r="3" style="fill: steelblue;"></circle><circle cx="263.5758751630783" cy="165.85967391729352" r="3" style="fill: steelblue;"></circle><circle cx="332.8852468729019" cy="193.1988068856299" r="3" style="fill: steelblue;"></circle><circle cx="190.42821764945984" cy="98.61915260553356" r="3" style="fill: steelblue;"></circle><circle cx="301.0093966126442" cy="153.0418328940868" r="3" style="fill: steelblue;"></circle><circle cx="302.44260370731354" cy="149.29857179522514" r="3" style="fill: steelblue;"></circle><circle cx="200.1184844970703" cy="269.80903446674347" r="3" style="fill: steelblue;"></circle><circle cx="358.5060739517212" cy="182.80497081577775" r="3" style="fill: steelblue;"></circle><circle cx="403.767009973526" cy="107.22811967134476" r="3" style="fill: steelblue;"></circle><circle cx="226.81190684437752" cy="66.02282524108884" r="3" style="fill: steelblue;"></circle><circle cx="419.4704496860504" cy="267.8297281265259" r="3" style="fill: steelblue;"></circle><circle cx="362.54247665405273" cy="196.66108307428658" r="3" style="fill: steelblue;"></circle><circle cx="243.821874037385" cy="180.77098466455934" r="3" style="fill: steelblue;"></circle><circle cx="188.37538450956347" cy="179.67818006873134" r="3" style="fill: steelblue;"></circle><circle cx="280.53494185209274" cy="173.51179085671902" r="3" style="fill: steelblue;"></circle><circle cx="173.29416811466217" cy="336.67812943458557" r="3" style="fill: steelblue;"></circle><circle cx="284.3415507674217" cy="195.63457118347287" r="3" style="fill: steelblue;"></circle><circle cx="131.87911748886108" cy="241.03483259677887" r="3" style="fill: steelblue;"></circle><circle cx="341.52817368507385" cy="279.63743060827255" r="3" style="fill: steelblue;"></circle><circle cx="219.27249222993854" cy="247.5422963500023" r="3" style="fill: steelblue;"></circle><circle cx="200.1133614778519" cy="266.1676600575447" r="3" style="fill: steelblue;"></circle><circle cx="244.19234605506063" cy="127.99307405948637" r="3" style="fill: steelblue;"></circle><circle cx="102.93116211891174" cy="346.35685086250305" r="3" style="fill: steelblue;"></circle><circle cx="322.20327794551855" cy="268.25272738933563" r="3" style="fill: steelblue;"></circle><circle cx="186.49271070957187" cy="319.11164969205856" r="3" style="fill: steelblue;"></circle><circle cx="295.78698366880417" cy="151.87838003039357" r="3" style="fill: steelblue;"></circle><circle cx="237.69207620993257" cy="39.58694338798519" r="3" style="fill: steelblue;"></circle><circle cx="304.97752368450165" cy="134.99369919300077" r="3" style="fill: steelblue;"></circle><circle cx="431.9131278991699" cy="81.18970394134516" r="3" style="fill: steelblue;"></circle><circle cx="472.1316719055176" cy="44.5568978786468" r="3" style="fill: steelblue;"></circle><circle cx="361.7515289783478" cy="157.35948532819745" r="3" style="fill: steelblue;"></circle><circle cx="328.9345943927765" cy="141.2377029657364" r="3" style="fill: steelblue;"></circle><circle cx="177.54417747259143" cy="157.92551711201668" r="3" style="fill: steelblue;"></circle><circle cx="139.06056225299835" cy="205.5250320583582" r="3" style="fill: steelblue;"></circle><circle cx="250.7898361980915" cy="253.4876063466072" r="3" style="fill: steelblue;"></circle><circle cx="216.30397975444794" cy="115.46469926834104" r="3" style="fill: steelblue;"></circle><circle cx="229.1198828816414" cy="201.86251755803826" r="3" style="fill: steelblue;"></circle></g></svg>