<svg xmlns="http://www.w3.org/2000/svg"><g transform="translate(40,20)"><circle cx="276.51744425296783" cy="193.98484374396503" r="3" style="fill: steelblue;"></circle><circle cx="329.87642526626587" cy="66.89155492931604" r="3" style="fill: steelblue;"></circle><circle cx="158.81517469882968" cy="19.662470743060112" r="3" style="fill: steelblue;"></circle><circle cx="237.49621599912646" cy="101.01711302995682" r="3" style="fill: steelblue;"></circle><circle cx="342.61322557926184" cy="249.2130558937788" r="3" style="fill: steelblue;"></circle><circle cx="335.6553786993027" cy="7.954848185181618" r="3" style="fill: steelblue;"></circle><circle cx="354.68161940574646" cy="127.18215836212039" r="3" style="fill: steelblue;"></circle><circle cx="214.36275109648705" cy="120.4800090752542" r="3" style="fill: steelblue;"></circle><circle cx="313.7135097384453" cy="91.02918598800898" r="3" style="fill: steelblue;"></circle><circle cx="481.0862624645233" cy="172.37603653920814" r="3" style="fill: steelblue;"></circle><circle cx="450.7539653778076" cy="280.02192191779613" r="3" style="fill: steelblue;"></circle><circle cx="241.93361341953278" cy="231.92556779831648" r="3" style="fill: steelblue;"></circle><circle cx="253.8883162289858" cy="53.60635668039322" r="3" style="fill: steelblue;"></circle><circle cx="423.7625026702881" cy="181.07307715108618" r="3" style="fill: steelblue;"></circle><circle cx="206.34542271494865" cy="92.57589299231768" r="3" style="fill: steelblue;"></circle><circle cx="377.25538551807404" cy="44.105855002999306" r="3" style="fill: steelblue;"></circle><circle cx="404.8949861526489" cy="294.5753701031208" r="3" style="fill: steelblue;"></circle><circle cx="363.2796013355255" cy="20.028279349207878" r="3" style="fill: steelblue;"></circle><circle cx="423.9047312736511" cy="107.12413229048252" r="3" style="fill: steelblue;"></circle><circle cx="392.74134278297424" cy="173.04240392404608" r="3" style="fill: steelblue;"></circle><circle cx="313.9524677395821" cy="53.304606303572655" r="3" style="fill: steelblue;"></circle><circle cx="283.350313603878" cy="245.493851788342" r="3" style="fill: steelblue;"></circle><circle cx="436.4950740337372" cy="212.58255764842033" r="3" style="fill: steelblue;"></circle><circle cx="162.4640965461731" cy="113.21847159415483" r="3" style="fill: steelblue;"></circle><circle cx="222.82718360424042" cy="188.76611576415598" r="3" style="fill: steelblue;"></circle><circle cx="253.71510922908783" cy="288.0853835493326" r="3" style="fill: steelblue;"></circle><circle cx="273.75535011291504" cy="154.484299197793" r="3" style="fill: steelblue;"></circle><circle cx="227.06401214003563" cy="121.64617720991373" r="3" style="fill: steelblue;"></circle><circle cx="355.15127420425415" cy="78.30156031996012" r="3" style="fill: steelblue;"></circle><circle cx="265.97797214984894" cy="205.1846112124622" r="3" style="fill: steelblue;"></circle><circle cx="288.45230877399445" cy="167.3594230785966" r="3" style="fill: steelblue;"></circle><circle cx="143.15345227718356" cy="216.98804404586554" r="3" style="fill: steelblue;"></circle><circle cx="250.1238515228033" cy="246.06720097362995" r="3" style="fill: steelblue;"></circle><circle cx="334.39895153045654" cy="236.89283169806004" r="3" style="fill: steelblue;"></circle><circle cx="201.59885376691818" cy="186.06360624544322" r="3" style="fill: steelblue;"></circle><circle cx="222.10204057395458" cy="138.60267279669642" r="3" style="fill: steelblue;"></circle><circle cx="172.68016129732132" cy="215.96323950216174" r="3" style="fill: steelblue;"></circle><circle cx="346.079363822937" cy="194.82243149541318" r="3" style="fill: steelblue;"></circle><circle cx="249.6158266067505" cy="211.72801982611418" r="3" style="fill: steelblue;"></circle><circle cx="84.22085881233217" cy="179.71827876754105" r="3" style="fill: steelblue;"></circle><circle cx="214.17947798967361" cy="310.32159477472305" r="3" style="fill: steelblue;"></circle><circle cx="64.7851073741913" cy="314.37104493379593" r="3" style="fill: steelblue;"></circle><circle cx="240.5061189411208" cy="171.5020774397999" r="3" style="fill: steelblue;"></circle><circle cx="23.67501497268678" cy="229.22593653202057" r="3" style="fill: steelblue;"></circle><circle cx="61.50703668594362" cy="144.54307286068797" r="3" style="fill: steelblue;"></circle><circle cx="141.6626089811325" cy="194.8210934177041" r="3" style="fill: steelblue;"></circle><circle cx="118.76932919025423" cy="138.01329927518964" r="3" style="fill: steelblue;"></circle><circle cx="304.81064558029175" cy="185.5108937714249" r="3" style="fill: steelblue;"></circle><circle cx="93.89143824577333" cy="147.93372428976" r="3" style="fill: steelblue;"></circle><circle cx="227.31791116297245" cy="227.77129774913192" r="3" style="fill: steelblue;"></circle><circle cx="255.12919440865517" cy="223.2637328095734" r="3" style="fill: steelblue;"></circle><circle cx="98.09044539928438" cy="91.6456013917923" r="3" style="fill: steelblue;"></circle><circle cx="245.56850228458646" cy="206.17431281134486" r="3" style="fill: steelblue;"></circle><circle cx="225.0029144436121" cy="252.15569250285625" r="3" style="fill: steelblue;"></circle><circle cx="112.68416583538057" cy="159.74122839979827" r="3" style="fill: steelblue;"></circle><circle cx="290.97359418869024" cy="273.84246718138456" r="3" style="fill: steelblue;"></circle><circle cx="130.57428538799286" cy="134.97490780428052" r="3" style="fill: steelblue;"></circle><circle cx="152.8427892923355" cy="191.87663793563843" r="3" style="fill: steelblue;"></circle><circle cx="121.04173243045808" cy="225.66147027537227" r="3" style="fill: steelblue;"></circle><circle cx="310.5566883087158" cy="195.21900448016822" r="3" style="fill: steelblue;"></circle><circle cx="400.1875841617584" cy="85.99888738244772" r="3" style="fill: steelblue;"></circle><circle cx="398.70357155799866" cy="157.80493053607643" r="3" style="fill: steelblue;"></circle><circle cx="323.1154704093933" cy="61.58023066818714" r="3" style="fill: steelblue;"></circle><circle cx="267.7845360338688" cy="59.191861376166344" r="3" style="fill: steelblue;"></circle><circle cx="339.2691904306412" cy="71.0803933441639" r="3" style="fill: steelblue;"></circle><circle cx="259.9170984327793" cy="60.58164983987808" r="3" style="fill: steelblue;"></circle><circle cx="229.4447386264801" cy="247.4229197949171" r="3" style="fill: steelblue;"></circle><circle cx="355.6119704246521" cy="61.5987453609705" r="3" style="fill: steelblue;"></circle><circle cx="133.9130812883377" cy="191.93930104374886" r="3" style="fill: steelblue;"></circle><circle cx="217.1585449576378" cy="185.87502937298268" r="3" style="fill: steelblue;"></circle><circle cx="357.32769906520844" cy="126.42189878970385" r="3" style="fill: steelblue;"></circle><circle cx="201.75182908773422" cy="301.6103535890579" r="3" style="fill: steelblue;"></circle><circle cx="102.82356083393097" cy="171.76672264467925" r="3" style="fill: steelblue;"></circle><circle cx="185.39983570575714" cy="225.21257046610117" r="3" style="fill: steelblue;"></circle><circle cx="236.34942999109626" cy="261.6726031526923" r="3" style="fill: steelblue;"></circle><circle cx="60.02990841865541" cy="213.4124657139182" r="3" style="fill: steelblue;"></circle><circle cx="201.3228589296341" cy="268.31854339689016" r="3" style="fill: steelblue;"></circle><circle cx="129.9245649576187" cy="234.1570120304823" r="3" style="fill: steelblue;"></circle><circle cx="133.79741549491885" cy="288.1880749017" r="3" style="fill: steelblue;"></circle><circle cx="188.05593341588977" cy="263.4941490367055" r="3" style="fill: steelblue;"></circle><circle cx="74.37307476997377" cy="154.74079614505172" r="3" style="fill: steelblue;"></circle><circle cx="205.86215570569038" cy="199.91243020631373" r="3" style="fill: steelblue;"></circle><circle cx="69.73460555076599" cy="260.75794473290443" r="3" style="fill: steelblue;"></circle><circle cx="173.70105922222137" cy="183.3922432968393" r="3" style="fill: steelblue;"></circle><circle cx="226.42694167792797" cy="180.97088370705023" r="3" style="fill: steelblue;"></circle><circle cx="246.6730219870806" cy="97.95258585363626" r="3" style="fill: steelblue;"></circle><circle cx="360.1653331518174" cy="116.72996561974287" r="3" style="fill: steelblue;"></circle><circle cx="166.06599032878879" cy="167.7100467029959" r="3" style="fill: steelblue;"></circle><circle cx="225.39346978068352" cy="112.00085021555424" r="3" style="fill: steelblue;"></circle><circle cx="228.35581205785275" cy="144.36619887128472" r="3" style="fill: steelblue;"></circle><circle cx="420.5454969406128" cy="142.4739157781005" r="3" style="fill: steelblue;"></circle><circle cx="357.62319803237915" cy="125.81352815032005" r="3" style="fill: steelblue;"></circle><circle cx="423.31514596939087" cy="279.8246491700411" r="3" style="fill: steelblue;"></circle><circle cx="428.91146779060364" cy="46.95800431072712" r="3" style="fill: steelblue;"></circle><circle cx="69.91624474525453" cy="286.20778508484364" r="3" style="fill: steelblue;"></circle><circle cx="146.23545348644257" cy="185.38631971459836" r="3" style="fill: steelblue;"></circle><circle cx="89.42463040351869" cy="105.87471649050713" r="3" style="fill: steelblue;"></circle><circle cx="143.11018824577332" cy="97.33635298907757" r="3" style="fill: steelblue;"></circle><circle cx="43.3406674861908" cy="188.78705073148012" r="3" style="fill: steelblue;"></circle><circle cx="89.20107722282411" cy="234.91550162434578" r="3" style="fill: steelblue;"></circle><circle cx="194.66231256723404" cy="157.2408827021718" r="3" style="fill: steelblue;"></circle><circle cx="149.95616912841797" cy="221.99824703857303" r="3" style="fill: steelblue;"></circle><circle cx="184.3123072385788" cy="316.28846302628517" r="3" style="fill: steelblue;"></circle><circle cx="62.05873131752015" cy="270.29641456902027" r="3" style="fill: steelblue;"></circle><circle cx="378.63268196582794" cy="138.89902848750353" r="3" style="fill: steelblue;"></circle><circle cx="296.912961602211" cy="311.2788174301386" r="3" style="fill: steelblue;"></circle><circle cx="237.99204342998567" cy="120.81200880929828" r="3" style="fill: steelblue;"></circle><circle cx="305.010242164135" cy="16.32583625614643" r="3" style="fill: steelblue;"></circle><circle cx="299.37921702861786" cy="174.85659590674913" r="3" style="fill: steelblue;"></circle><circle cx="328.91983330249786" cy="142.7800014615059" r="3" style="fill: steelblue;"></circle><circle cx="438.29816222190857" cy="72.39442151039839" r="3" style="fill: steelblue;"></circle><circle cx="446.3426077365875" cy="162.19020967837423" r="3" style="fill: steelblue;"></circle><circle cx="469.04106974601746" cy="211.4124388433993" r="3" style="fill: steelblue;"></circle><circle cx="127.96179592609407" cy="147.65153983607888" r="3" style="fill: steelblue;"></circle><circle cx="80.15307426452637" cy="265.6403409317136" r="3" style="fill: steelblue;"></circle><circle cx="108.301722407341" cy="330.5458065122366" r="3" style="fill: steelblue;"></circle><circle cx="98.29438269138338" cy="163.63562534097582" r="3" style="fill: steelblue;"></circle><circle cx="166.65114998817444" cy="196.00132685154676" r="3" style="fill: steelblue;"></circle></g></svg>