<svg xmlns="http://www.w3.org/2000/svg"><g transform="translate(40,20)"><circle cx="329.3165596042361" cy="99.17207825928926" r="3" style="fill: steelblue;"></circle><circle cx="234.36857383831273" cy="29.49601523578167" r="3" style="fill: steelblue;"></circle><circle cx="474.20211451394226" cy="127.84326327964664" r="3" style="fill: steelblue;"></circle><circle cx="424.9987833840507" cy="41.6700255125761" r="3" style="fill: steelblue;"></circle><circle cx="451.8415955134801" cy="55.32418116927147" r="3" style="fill: steelblue;"></circle><circle cx="536.7818135874613" cy="89.86319061368704" r="3" style="fill: steelblue;"></circle><circle cx="350.3687085424151" cy="174.57856633409392" r="3" style="fill: steelblue;"></circle><circle cx="467.0302018097469" cy="39.65204134583473" r="3" style="fill: steelblue;"></circle><circle cx="402.67960105623524" cy="169.1036383388564" r="3" style="fill: steelblue;"></circle><circle cx="513.2964221068792" cy="261.52745839208364" r="3" style="fill: steelblue;"></circle><circle cx="402.04160698822574" cy="1.1917829513549805" r="3" style="fill: steelblue;"></circle><circle cx="384.61772816521784" cy="160.2845303248614" r="3" style="fill: steelblue;"></circle><circle cx="315.5765760796411" cy="173.20316984551027" r="3" style="fill: steelblue;"></circle><circle cx="365.03622676645006" cy="203.5912067629397" r="3" style="fill: steelblue;"></circle><circle cx="251.60369836858342" cy="71.33287116885185" r="3" style="fill: steelblue;"></circle><circle cx="226.1432281535651" cy="36.12115904688835" r="3" style="fill: steelblue;"></circle><circle cx="424.16460105351047" cy="123.31199757754803" r="3" style="fill: steelblue;"></circle><circle cx="269.83346988047873" cy="202.12798700667918" r="3" style="fill: steelblue;"></circle><circle cx="300.63200673886706" cy="130.95681853592396" r="3" style="fill: steelblue;"></circle><circle cx="533.2542872428895" cy="119.9297022074461" r="3" style="fill: steelblue;"></circle><circle cx="210.81824410174573" cy="182.53819849342108" r="3" style="fill: steelblue;"></circle><circle cx="235.00224050932698" cy="79.08583357930183" r="3" style="fill: steelblue;"></circle><circle cx="209.05177812491144" cy="191.75377925857902" r="3" style="fill: steelblue;"></circle><circle cx="386.2131444045476" cy="188.04829574655741" r="3" style="fill: steelblue;"></circle><circle cx="163.32842064755303" cy="113.58634028583765" r="3" style="fill: steelblue;"></circle><circle cx="107.40072446210044" cy="131.38592587783933" r="3" style="fill: steelblue;"></circle><circle cx="131.85358490262715" cy="110.0758632645011" r="3" style="fill: steelblue;"></circle><circle cx="518.1635509218489" cy="124.72755340859294" r="3" style="fill: steelblue;"></circle><circle cx="412.7299416916712" cy="120.62307093292475" r="3" style="fill: steelblue;"></circle><circle cx="148.64899341549193" cy="274.57465156912804" r="3" style="fill: steelblue;"></circle><circle cx="174.81013553483146" cy="161.04093049652874" r="3" style="fill: steelblue;"></circle><circle cx="252.61703885027342" cy="211.12519381567836" r="3" style="fill: steelblue;"></circle><circle cx="228.3533449125077" cy="202.04559010453522" r="3" style="fill: steelblue;"></circle><circle cx="115.39717503956386" cy="104.70643937587738" r="3" style="fill: steelblue;"></circle><circle cx="263.8340225815773" cy="43.64752508699894" r="3" style="fill: steelblue;"></circle><circle cx="381.78247613566265" cy="221.5627540834248" r="3" style="fill: steelblue;"></circle><circle cx="80.39903742926461" cy="174.86479712060827" r="3" style="fill: steelblue;"></circle><circle cx="61.90976219517844" cy="177.5422103353776" r="3" style="fill: steelblue;"></circle><circle cx="111.98128989764622" cy="159.4922530464828" r="3" style="fill: steelblue;"></circle><circle cx="90.5957806961877" cy="231.47707544267178" r="3" style="fill: steelblue;"></circle><circle cx="95.90425550937653" cy="301.8294397741556" r="3" style="fill: steelblue;"></circle><circle cx="219.32814564023698" cy="251.86482928693295" r="3" style="fill: steelblue;"></circle><circle cx="212.09703562515122" cy="225.1028448343277" r="3" style="fill: steelblue;"></circle><circle cx="197.10128973637308" cy="220.7463930360973" r="3" style="fill: steelblue;"></circle><circle cx="151.38636972223009" cy="204.88820988684893" r="3" style="fill: steelblue;"></circle><circle cx="130.06984310490745" cy="187.802918208763" r="3" style="fill: steelblue;"></circle><circle cx="214.58000632269042" cy="254.87038977444172" r="3" style="fill: steelblue;"></circle><circle cx="128.6587406056268" cy="208.61952677369118" r="3" style="fill: steelblue;"></circle><circle cx="139.4870981148311" cy="222.57881304249167" r="3" style="fill: steelblue;"></circle><circle cx="125.57618124144417" cy="224.44916535168886" r="3" style="fill: steelblue;"></circle><circle cx="54.82559221131461" cy="209.1265620663762" r="3" style="fill: steelblue;"></circle><circle cx="285.7747605443001" cy="240.10016974061728" r="3" style="fill: steelblue;"></circle><circle cx="91.46335652896336" cy="222.751325648278" r="3" style="fill: steelblue;"></circle><circle cx="160.09901033980506" cy="251.61315985023975" r="3" style="fill: steelblue;"></circle><circle cx="147.69319781235285" cy="331.4552169293165" r="3" style="fill: steelblue;"></circle><circle cx="132.7538300412042" cy="239.41144924610853" r="3" style="fill: steelblue;"></circle><circle cx="135.717017693179" cy="126.32698165252805" r="3" style="fill: steelblue;"></circle><circle cx="108.6323526927403" cy="164.43319218233228" r="3" style="fill: steelblue;"></circle><circle cx="10.890479769025523" cy="277.1178076043725" r="3" style="fill: steelblue;"></circle><circle cx="94.33748526232583" cy="216.15374200046062" r="3" style="fill: steelblue;"></circle><circle cx="409.28620372499745" cy="95.33408023416996" r="3" style="fill: steelblue;"></circle><circle cx="473.93133401870733" cy="106.13779462873936" r="3" style="fill: steelblue;"></circle><circle cx="391.7665930305209" cy="82.721858471632" r="3" style="fill: steelblue;"></circle><circle cx="296.825555562973" cy="110.34509558230639" r="3" style="fill: steelblue;"></circle><circle cx="395.067583833422" cy="254.10442911088467" r="3" style="fill: steelblue;"></circle><circle cx="351.39838942459653" cy="47.576603665947914" r="3" style="fill: steelblue;"></circle><circle cx="340.46851796763286" cy="159.92022277787328" r="3" style="fill: steelblue;"></circle><circle cx="149.37115520238876" cy="113.4518675506115" r="3" style="fill: steelblue;"></circle><circle cx="197.39798324448722" cy="76.62958577275276" r="3" style="fill: steelblue;"></circle><circle cx="279.367599274431" cy="46.31134606897831" r="3" style="fill: steelblue;"></circle><circle cx="442.49764527593345" cy="274.28774554282427" r="3" style="fill: steelblue;"></circle><circle cx="259.50988303337783" cy="183.13524355180562" r="3" style="fill: steelblue;"></circle><circle cx="407.98009821346835" cy="272.67838194966316" r="3" style="fill: steelblue;"></circle><circle cx="61.92193559237889" cy="211.7225306108594" r="3" style="fill: steelblue;"></circle><circle cx="216.64247034915857" cy="143.98069232702255" r="3" style="fill: steelblue;"></circle><circle cx="252.84204984349864" cy="136.44654881209135" r="3" style="fill: steelblue;"></circle><circle cx="34.54133289200919" cy="278.1660195440054" r="3" style="fill: steelblue;"></circle><circle cx="0.8219422612871358" cy="260.9332084655762" r="3" style="fill: steelblue;"></circle><circle cx="44.199136069842744" cy="280.47670535743237" r="3" style="fill: steelblue;"></circle><circle cx="63.738404171807424" cy="273.35963789373636" r="3" style="fill: steelblue;"></circle><circle cx="121.79969225611005" cy="236.65002193301916" r="3" style="fill: steelblue;"></circle><circle cx="104.27981717245919" cy="240.81478472799063" r="3" style="fill: steelblue;"></circle><circle cx="284.1022173847471" cy="113.7206370010972" r="3" style="fill: steelblue;"></circle><circle cx="241.92184080502818" cy="100.69870594888926" r="3" style="fill: steelblue;"></circle><circle cx="387.84473598003393" cy="191.9046837836504" r="3" style="fill: steelblue;"></circle><circle cx="303.8783149634089" cy="122.45664484798908" r="3" style="fill: steelblue;"></circle><circle cx="309.65363208736693" cy="219.700697530061" r="3" style="fill: steelblue;"></circle><circle cx="123.72320396559579" cy="231.20727594941854" r="3" style="fill: steelblue;"></circle><circle cx="257.95804502708575" cy="37.56089806556702" r="3" style="fill: steelblue;"></circle><circle cx="374.56232964992523" cy="189.61588474921882" r="3" style="fill: steelblue;"></circle><circle cx="438.1362124851772" cy="145.7116368226707" r="3" style="fill: steelblue;"></circle><circle cx="126.77699089050293" cy="49.213146045804024" r="3" style="fill: steelblue;"></circle><circle cx="236.580043256815" cy="41.14358238875866" r="3" style="fill: steelblue;"></circle><circle cx="261.0961950889656" cy="135.6758877635002" r="3" style="fill: steelblue;"></circle><circle cx="262.78223646538595" cy="218.57671225443482" r="3" style="fill: steelblue;"></circle><circle cx="272.29609410677637" cy="310.4610938578844" r="3" style="fill: steelblue;"></circle><circle cx="20.55374315806797" cy="268.62634364515543" r="3" style="fill: steelblue;"></circle><circle cx="238.16380445978473" cy="210.1718794554472" r="3" style="fill: steelblue;"></circle><circle cx="168.11768685068404" cy="250.92191640287638" r="3" style="fill: steelblue;"></circle><circle cx="108.55939277580806" cy="136.84022724628448" r="3" style="fill: steelblue;"></circle><circle cx="158.07759991713934" cy="151.41207603737712" r="3" style="fill: steelblue;"></circle><circle cx="129.3413244826453" cy="267.2076031565666" r="3" style="fill: steelblue;"></circle><circle cx="342.52497145107816" cy="283.5262708365917" r="3" style="fill: steelblue;"></circle><circle cx="5.620858669280998" cy="206.67874366044998" r="3" style="fill: steelblue;"></circle><circle cx="126.1243634564536" cy="293.75721625983715" r="3" style="fill: steelblue;"></circle><circle cx="47.65631190368107" cy="306.31255097687244" r="3" style="fill: steelblue;"></circle><circle cx="305.6733565245356" cy="51.78355909883976" r="3" style="fill: steelblue;"></circle><circle cx="478.9230016299657" cy="71.14294562488794" r="3" style="fill: steelblue;"></circle><circle cx="331.72400695937023" cy="84.0711884200573" r="3" style="fill: steelblue;"></circle><circle cx="414.7358853476389" cy="80.63744958490133" r="3" style="fill: steelblue;"></circle><circle cx="471.2550718443735" cy="34.37371104955673" r="3" style="fill: steelblue;"></circle><circle cx="297.2167940650668" cy="28.911133483052254" r="3" style="fill: steelblue;"></circle><circle cx="322.09040113857816" cy="223.2458178885281" r="3" style="fill: steelblue;"></circle><circle cx="296.34348788431714" cy="250.74879750609398" r="3" style="fill: steelblue;"></circle><circle cx="222.9042362528188" cy="266.33321419358253" r="3" style="fill: steelblue;"></circle><circle cx="148.90483592237746" cy="244.07531339675188" r="3" style="fill: steelblue;"></circle><circle cx="361.8544639859881" cy="160.4303514584899" r="3" style="fill: steelblue;"></circle><circle cx="228.5549729104553" cy="164.26444118842483" r="3" style="fill: steelblue;"></circle></g></svg>