<svg xmlns="http://www.w3.org/2000/svg"><g transform="translate(40,20)"><circle cx="417.7915037423372" cy="99.17207825928926" r="3" style="fill: steelblue;"></circle><circle cx="265.13535629957914" cy="29.49601523578167" r="3" style="fill: steelblue;"></circle><circle cx="346.42756775021553" cy="127.84326327964664" r="3" style="fill: steelblue;"></circle><circle cx="231.30433129146695" cy="41.6700255125761" r="3" style="fill: steelblue;"></circle><circle cx="433.1464496254921" cy="55.32418116927147" r="3" style="fill: steelblue;"></circle><circle cx="293.7344518303871" cy="89.86319061368704" r="3" style="fill: steelblue;"></circle><circle cx="326.96903821080923" cy="174.57856633409392" r="3" style="fill: steelblue;"></circle><circle cx="384.75272700190544" cy="39.65204134583473" r="3" style="fill: steelblue;"></circle><circle cx="401.7318443208933" cy="169.1036383388564" r="3" style="fill: steelblue;"></circle><circle cx="472.15700045228004" cy="261.52745839208364" r="3" style="fill: steelblue;"></circle><circle cx="486.8905757367611" cy="1.1917829513549805" r="3" style="fill: steelblue;"></circle><circle cx="341.68642971664667" cy="160.2845303248614" r="3" style="fill: steelblue;"></circle><circle cx="296.41430804505944" cy="173.20316984551027" r="3" style="fill: steelblue;"></circle><circle cx="398.94609197974205" cy="203.5912067629397" r="3" style="fill: steelblue;"></circle><circle cx="395.42280592024326" cy="71.33287116885185" r="3" style="fill: steelblue;"></circle><circle cx="530.3952281177044" cy="36.12115904688835" r="3" style="fill: steelblue;"></circle><circle cx="416.8546852469444" cy="123.31199757754803" r="3" style="fill: steelblue;"></circle><circle cx="484.72239196300507" cy="202.12798700667918" r="3" style="fill: steelblue;"></circle><circle cx="228.37307581678033" cy="130.95681853592396" r="3" style="fill: steelblue;"></circle><circle cx="389.5824634283781" cy="119.9297022074461" r="3" style="fill: steelblue;"></circle><circle cx="199.66842614114285" cy="182.53819849342108" r="3" style="fill: steelblue;"></circle><circle cx="281.7556393146515" cy="79.08583357930183" r="3" style="fill: steelblue;"></circle><circle cx="368.56736920773983" cy="191.75377925857902" r="3" style="fill: steelblue;"></circle><circle cx="366.53223641216755" cy="188.04829574655741" r="3" style="fill: steelblue;"></circle><circle cx="263.23102897033095" cy="113.58634028583765" r="3" style="fill: steelblue;"></circle><circle cx="196.97755862027407" cy="131.38592587783933" r="3" style="fill: steelblue;"></circle><circle cx="308.1796561181545" cy="110.0758632645011" r="3" style="fill: steelblue;"></circle><circle cx="166.58100754022598" cy="124.72755340859294" r="3" style="fill: steelblue;"></circle><circle cx="226.00450336933136" cy="120.62307093292475" r="3" style="fill: steelblue;"></circle><circle cx="125.74373155832292" cy="274.57465156912804" r="3" style="fill: steelblue;"></circle><circle cx="131.28301955759528" cy="161.04093049652874" r="3" style="fill: steelblue;"></circle><circle cx="281.09719262458384" cy="211.12519381567836" r="3" style="fill: steelblue;"></circle><circle cx="274.6905747265555" cy="202.04559010453522" r="3" style="fill: steelblue;"></circle><circle cx="376.9221217185259" cy="104.70643937587738" r="3" style="fill: steelblue;"></circle><circle cx="297.1033985540271" cy="43.64752508699894" r="3" style="fill: steelblue;"></circle><circle cx="221.86397060751915" cy="221.5627540834248" r="3" style="fill: steelblue;"></circle><circle cx="196.6327053308487" cy="174.86479712060827" r="3" style="fill: steelblue;"></circle><circle cx="52.14720860123636" cy="177.5422103353776" r="3" style="fill: steelblue;"></circle><circle cx="87.44241043925287" cy="159.4922530464828" r="3" style="fill: steelblue;"></circle><circle cx="107.78427354991437" cy="231.47707544267178" r="3" style="fill: steelblue;"></circle><circle cx="139.59711648523808" cy="301.8294397741556" r="3" style="fill: steelblue;"></circle><circle cx="254.83243491500616" cy="251.86482928693295" r="3" style="fill: steelblue;"></circle><circle cx="272.19940374372527" cy="225.1028448343277" r="3" style="fill: steelblue;"></circle><circle cx="315.5625018104911" cy="220.7463930360973" r="3" style="fill: steelblue;"></circle><circle cx="260.01885757315904" cy="204.88820988684893" r="3" style="fill: steelblue;"></circle><circle cx="68.77421557903291" cy="187.802918208763" r="3" style="fill: steelblue;"></circle><circle cx="225.47335054725409" cy="254.87038977444172" r="3" style="fill: steelblue;"></circle><circle cx="227.03801717609167" cy="208.61952677369118" r="3" style="fill: steelblue;"></circle><circle cx="230.24361234158278" cy="222.57881304249167" r="3" style="fill: steelblue;"></circle><circle cx="337.63002444058657" cy="224.44916535168886" r="3" style="fill: steelblue;"></circle><circle cx="258.28702666796744" cy="209.1265620663762" r="3" style="fill: steelblue;"></circle><circle cx="161.1379773169756" cy="240.10016974061728" r="3" style="fill: steelblue;"></circle><circle cx="235.07340157404542" cy="222.751325648278" r="3" style="fill: steelblue;"></circle><circle cx="172.63602398335934" cy="251.61315985023975" r="3" style="fill: steelblue;"></circle><circle cx="186.32670611143112" cy="331.4552169293165" r="3" style="fill: steelblue;"></circle><circle cx="213.84081959724426" cy="239.41144924610853" r="3" style="fill: steelblue;"></circle><circle cx="172.07919739186764" cy="126.32698165252805" r="3" style="fill: steelblue;"></circle><circle cx="230.3062754496932" cy="164.43319218233228" r="3" style="fill: steelblue;"></circle><circle cx="333.5318420827389" cy="277.1178076043725" r="3" style="fill: steelblue;"></circle><circle cx="266.3952280115336" cy="216.15374200046062" r="3" style="fill: steelblue;"></circle><circle cx="294.4199817068875" cy="95.33408023416996" r="3" style="fill: steelblue;"></circle><circle cx="451.6390872001648" cy="106.13779462873936" r="3" style="fill: steelblue;"></circle><circle cx="355.98898239433765" cy="82.721858471632" r="3" style="fill: steelblue;"></circle><circle cx="394.66794177889824" cy="110.34509558230639" r="3" style="fill: steelblue;"></circle><circle cx="96.32932662963869" cy="254.10442911088467" r="3" style="fill: steelblue;"></circle><circle cx="285.0928370654583" cy="47.576603665947914" r="3" style="fill: steelblue;"></circle><circle cx="312.7969867363572" cy="159.92022277787328" r="3" style="fill: steelblue;"></circle><circle cx="300.6510985828936" cy="113.4518675506115" r="3" style="fill: steelblue;"></circle><circle cx="191.99844662100077" cy="76.62958577275276" r="3" style="fill: steelblue;"></circle><circle cx="182.8874871879816" cy="46.31134606897831" r="3" style="fill: steelblue;"></circle><circle cx="383.4795494377613" cy="274.28774554282427" r="3" style="fill: steelblue;"></circle><circle cx="166.710055321455" cy="183.13524355180562" r="3" style="fill: steelblue;"></circle><circle cx="228.82750656455755" cy="272.67838194966316" r="3" style="fill: steelblue;"></circle><circle cx="250.11126508936286" cy="211.7225306108594" r="3" style="fill: steelblue;"></circle><circle cx="226.20641838759184" cy="143.98069232702255" r="3" style="fill: steelblue;"></circle><circle cx="180.28607301414013" cy="136.44654881209135" r="3" style="fill: steelblue;"></circle><circle cx="98.09884026646615" cy="278.1660195440054" r="3" style="fill: steelblue;"></circle><circle cx="206.50058079510927" cy="260.9332084655762" r="3" style="fill: steelblue;"></circle><circle cx="164.85175721347332" cy="280.47670535743237" r="3" style="fill: steelblue;"></circle><circle cx="208.256973400712" cy="273.35963789373636" r="3" style="fill: steelblue;"></circle><circle cx="116.40841707587244" cy="236.65002193301916" r="3" style="fill: steelblue;"></circle><circle cx="70.37871301174165" cy="240.81478472799063" r="3" style="fill: steelblue;"></circle><circle cx="182.76130601763725" cy="113.7206370010972" r="3" style="fill: steelblue;"></circle><circle cx="283.7369188014418" cy="100.69870594888926" r="3" style="fill: steelblue;"></circle><circle cx="304.9893596023321" cy="191.9046837836504" r="3" style="fill: steelblue;"></circle><circle cx="304.1946143656969" cy="122.45664484798908" r="3" style="fill: steelblue;"></circle><circle cx="364.8126319795847" cy="219.700697530061" r="3" style="fill: steelblue;"></circle><circle cx="334.08759243786335" cy="231.20727594941854" r="3" style="fill: steelblue;"></circle><circle cx="358.7600999325514" cy="37.56089806556702" r="3" style="fill: steelblue;"></circle><circle cx="436.81380048394203" cy="189.61588474921882" r="3" style="fill: steelblue;"></circle><circle cx="417.5269205868244" cy="145.7116368226707" r="3" style="fill: steelblue;"></circle><circle cx="532.0003692805767" cy="49.213146045804024" r="3" style="fill: steelblue;"></circle><circle cx="477.6253071427345" cy="41.14358238875866" r="3" style="fill: steelblue;"></circle><circle cx="433.0463194102049" cy="135.6758877635002" r="3" style="fill: steelblue;"></circle><circle cx="337.5960374996066" cy="218.57671225443482" r="3" style="fill: steelblue;"></circle><circle cx="262.4345813691616" cy="310.4610938578844" r="3" style="fill: steelblue;"></circle><circle cx="180.64756773412228" cy="268.62634364515543" r="3" style="fill: steelblue;"></circle><circle cx="194.08480122685432" cy="210.1718794554472" r="3" style="fill: steelblue;"></circle><circle cx="234.95855106040835" cy="250.92191640287638" r="3" style="fill: steelblue;"></circle><circle cx="237.07536717876792" cy="136.84022724628448" r="3" style="fill: steelblue;"></circle><circle cx="192.91410248726606" cy="151.41207603737712" r="3" style="fill: steelblue;"></circle><circle cx="216.68768104165792" cy="267.2076031565666" r="3" style="fill: steelblue;"></circle><circle cx="135.80592803657055" cy="283.5262708365917" r="3" style="fill: steelblue;"></circle><circle cx="243.20771673694253" cy="206.67874366044998" r="3" style="fill: steelblue;"></circle><circle cx="61.93945080041887" cy="293.75721625983715" r="3" style="fill: steelblue;"></circle><circle cx="107.07450069487096" cy="306.31255097687244" r="3" style="fill: steelblue;"></circle><circle cx="358.0298584699631" cy="51.78355909883976" r="3" style="fill: steelblue;"></circle><circle cx="420.4732836037874" cy="71.14294562488794" r="3" style="fill: steelblue;"></circle><circle cx="440.8668865263462" cy="84.0711884200573" r="3" style="fill: steelblue;"></circle><circle cx="515.4054482281208" cy="80.63744958490133" r="3" style="fill: steelblue;"></circle><circle cx="300.870892200619" cy="34.37371104955673" r="3" style="fill: steelblue;"></circle><circle cx="418.670869320631" cy="28.911133483052254" r="3" style="fill: steelblue;"></circle><circle cx="211.176294721663" cy="223.2458178885281" r="3" style="fill: steelblue;"></circle><circle cx="79.53048393130304" cy="250.74879750609398" r="3" style="fill: steelblue;"></circle><circle cx="195.93942806124687" cy="266.33321419358253" r="3" style="fill: steelblue;"></circle><circle cx="14.217883050441756" cy="244.07531339675188" r="3" style="fill: steelblue;"></circle><circle cx="137.74721704423428" cy="160.4303514584899" r="3" style="fill: steelblue;"></circle><circle cx="213.168443441391" cy="164.26444118842483" r="3" style="fill: steelblue;"></circle></g></svg>