<svg xmlns="http://www.w3.org/2000/svg"><g transform="translate(40,20)"><circle cx="347.1727055311203" cy="79.01665773242712" r="3" style="fill: steelblue;"></circle><circle cx="61.64798185229303" cy="200.46249912120402" r="3" style="fill: steelblue;"></circle><circle cx="329.902099147439" cy="84.48509611189365" r="3" style="fill: steelblue;"></circle><circle cx="416.02401182055473" cy="121.10285246744752" r="3" style="fill: steelblue;"></circle><circle cx="465.0138285756111" cy="165.1742582442239" r="3" style="fill: steelblue;"></circle><circle cx="464.8269456624985" cy="134.53913126140833" r="3" style="fill: steelblue;"></circle><circle cx="393.9487040787935" cy="70.14785259962082" r="3" style="fill: steelblue;"></circle><circle cx="261.058528306894" cy="150.9762587491423" r="3" style="fill: steelblue;"></circle><circle cx="383.5574910789728" cy="95.59627827256918" r="3" style="fill: steelblue;"></circle><circle cx="154.25846323370934" cy="72.05646969377995" r="3" style="fill: steelblue;"></circle><circle cx="455.4861192405224" cy="69.82402801513672" r="3" style="fill: steelblue;"></circle><circle cx="298.7077199667692" cy="172.6470916008111" r="3" style="fill: steelblue;"></circle><circle cx="341.14794440567493" cy="195.72434965521097" r="3" style="fill: steelblue;"></circle><circle cx="271.39689146890305" cy="101.49005260318518" r="3" style="fill: steelblue;"></circle><circle cx="231.99628841131926" cy="95.03829497843981" r="3" style="fill: steelblue;"></circle><circle cx="412.32151731848717" cy="104.66498993337154" r="3" style="fill: steelblue;"></circle><circle cx="461.1041736602783" cy="119.35986038297415" r="3" style="fill: steelblue;"></circle><circle cx="433.55835646390915" cy="148.20602554827929" r="3" style="fill: steelblue;"></circle><circle cx="384.36290815472603" cy="226.21268657967448" r="3" style="fill: steelblue;"></circle><circle cx="309.733655937016" cy="69.65549867600203" r="3" style="fill: steelblue;"></circle><circle cx="443.24637472629547" cy="224.42245595157146" r="3" style="fill: steelblue;"></circle><circle cx="424.13267835974693" cy="219.3322747014463" r="3" style="fill: steelblue;"></circle><circle cx="360.3059273958206" cy="202.66034798696637" r="3" style="fill: steelblue;"></circle><circle cx="227.72417820990086" cy="255.16858715564013" r="3" style="fill: steelblue;"></circle><circle cx="229.6264511346817" cy="177.0194326643832" r="3" style="fill: steelblue;"></circle><circle cx="378.5890609771013" cy="145.34210246056318" r="3" style="fill: steelblue;"></circle><circle cx="95.6636291742325" cy="125.28587896376848" r="3" style="fill: steelblue;"></circle><circle cx="476.64911046624184" cy="195.93709097243845" r="3" style="fill: steelblue;"></circle><circle cx="345.3360377624631" cy="57.16116465628147" r="3" style="fill: steelblue;"></circle><circle cx="247.54241209477186" cy="289.82131853699684" r="3" style="fill: steelblue;"></circle><circle cx="386.9627331197262" cy="177.73556786123663" r="3" style="fill: steelblue;"></circle><circle cx="269.19005072442815" cy="200.55289515294135" r="3" style="fill: steelblue;"></circle><circle cx="112.70778335630895" cy="224.927297513932" r="3" style="fill: steelblue;"></circle><circle cx="401.7235663533211" cy="112.23963107913733" r="3" style="fill: steelblue;"></circle><circle cx="134.8287154734135" cy="214.98441202566028" r="3" style="fill: steelblue;"></circle><circle cx="118.51997271180154" cy="263.69138918817043" r="3" style="fill: steelblue;"></circle><circle cx="137.17635914683342" cy="216.48189211264253" r="3" style="fill: steelblue;"></circle><circle cx="267.3632946086582" cy="273.42412639409304" r="3" style="fill: steelblue;"></circle><circle cx="223.48613038659096" cy="230.47213833779097" r="3" style="fill: steelblue;"></circle><circle cx="373.02268601953983" cy="180.43106184341013" r="3" style="fill: steelblue;"></circle><circle cx="294.95688535273075" cy="224.25201321020722" r="3" style="fill: steelblue;"></circle><circle cx="129.57767777144912" cy="303.91172990202904" r="3" style="fill: steelblue;"></circle><circle cx="359.9477116763592" cy="222.91146144270897" r="3" style="fill: steelblue;"></circle><circle cx="142.41356670856476" cy="225.3891445696354" r="3" style="fill: steelblue;"></circle><circle cx="296.01417945697904" cy="308.8998097926378" r="3" style="fill: steelblue;"></circle><circle cx="265.35026913508773" cy="299.12067502737045" r="3" style="fill: steelblue;"></circle><circle cx="263.47751727327704" cy="244.53413225710392" r="3" style="fill: steelblue;"></circle><circle cx="237.02888030558825" cy="309.82082448899746" r="3" style="fill: steelblue;"></circle><circle cx="144.18146096169949" cy="162.88618855178356" r="3" style="fill: steelblue;"></circle><circle cx="267.60402124375105" cy="122.7165904827416" r="3" style="fill: steelblue;"></circle><circle cx="373.1999632716179" cy="187.86209432873875" r="3" style="fill: steelblue;"></circle><circle cx="121.06188207864763" cy="156.65493831038475" r="3" style="fill: steelblue;"></circle><circle cx="124.65158298611642" cy="275.1688754186034" r="3" style="fill: steelblue;"></circle><circle cx="278.6908594937995" cy="299.9631326645613" r="3" style="fill: steelblue;"></circle><circle cx="269.77134004438994" cy="179.017960105557" r="3" style="fill: steelblue;"></circle><circle cx="233.34184790030122" cy="119.78011783212423" r="3" style="fill: steelblue;"></circle><circle cx="117.38326594233514" cy="275.51105823367834" r="3" style="fill: steelblue;"></circle><circle cx="203.20631179958582" cy="286.0083218663931" r="3" style="fill: steelblue;"></circle><circle cx="82.52968311309816" cy="166.70459294691682" r="3" style="fill: steelblue;"></circle><circle cx="436.58383794128895" cy="111.07646506279707" r="3" style="fill: steelblue;"></circle><circle cx="349.21154983341694" cy="182.80917634256184" r="3" style="fill: steelblue;"></circle><circle cx="298.59435053542256" cy="134.73437977954745" r="3" style="fill: steelblue;"></circle><circle cx="313.9291924238205" cy="81.2374820932746" r="3" style="fill: steelblue;"></circle><circle cx="219.7784860432148" cy="157.1989492047578" r="3" style="fill: steelblue;"></circle><circle cx="406.83855570852757" cy="132.71007193252444" r="3" style="fill: steelblue;"></circle><circle cx="411.03494212031364" cy="90.64651858061552" r="3" style="fill: steelblue;"></circle><circle cx="182.86001801490784" cy="151.10137634910643" r="3" style="fill: steelblue;"></circle><circle cx="510.032534301281" cy="183.49093426950276" r="3" style="fill: steelblue;"></circle><circle cx="380.8320079743862" cy="182.60162924416363" r="3" style="fill: steelblue;"></circle><circle cx="416.69336043298244" cy="53.72662395238876" r="3" style="fill: steelblue;"></circle><circle cx="154.8556436598301" cy="90.63766542822123" r="3" style="fill: steelblue;"></circle><circle cx="160.97521416842937" cy="176.4432221360039" r="3" style="fill: steelblue;"></circle><circle cx="297.0603943616152" cy="109.22197736799717" r="3" style="fill: steelblue;"></circle><circle cx="165.80577537417412" cy="258.87528732419014" r="3" style="fill: steelblue;"></circle><circle cx="19.203895032405867" cy="241.62421580404043" r="3" style="fill: steelblue;"></circle><circle cx="219.69670716673136" cy="224.8087154701352" r="3" style="fill: steelblue;"></circle><circle cx="26.273158639669433" cy="223.83413203060627" r="3" style="fill: steelblue;"></circle><circle cx="277.0085800951347" cy="261.7991289123893" r="3" style="fill: steelblue;"></circle><circle cx="143.37931282818317" cy="305.28160855174065" r="3" style="fill: steelblue;"></circle><circle cx="197.17290557920933" cy="204.55907536670566" r="3" style="fill: steelblue;"></circle><circle cx="95.69794803857805" cy="103.54238022118807" r="3" style="fill: steelblue;"></circle><circle cx="174.95912544429302" cy="259.76707618683577" r="3" style="fill: steelblue;"></circle><circle cx="429.20524187386036" cy="164.9062702897936" r="3" style="fill: steelblue;"></circle><circle cx="134.09174501895907" cy="209.80622079223394" r="3" style="fill: steelblue;"></circle><circle cx="368.9611007273197" cy="134.6950621344149" r="3" style="fill: steelblue;"></circle><circle cx="429.93648916482925" cy="209.4882276840508" r="3" style="fill: steelblue;"></circle><circle cx="266.8655316741206" cy="104.55996468663216" r="3" style="fill: steelblue;"></circle><circle cx="283.8357263524085" cy="120.94802986830473" r="3" style="fill: steelblue;"></circle><circle cx="428.39068181812763" cy="98.99106454104185" r="3" style="fill: steelblue;"></circle><circle cx="367.9464713484049" cy="192.64250569976866" r="3" style="fill: steelblue;"></circle><circle cx="485.51299318671227" cy="77.53403503447771" r="3" style="fill: steelblue;"></circle><circle cx="426.23583532869816" cy="161.54094291850924" r="3" style="fill: steelblue;"></circle><circle cx="395.83823315799236" cy="146.2249729782343" r="3" style="fill: steelblue;"></circle><circle cx="517.02038615942" cy="165.4327590484172" r="3" style="fill: steelblue;"></circle><circle cx="352.75813590735197" cy="68.42957828193903" r="3" style="fill: steelblue;"></circle><circle cx="299.2975905351341" cy="293.4186842292547" r="3" style="fill: steelblue;"></circle><circle cx="60.350121259689345" cy="231.94893281906843" r="3" style="fill: steelblue;"></circle><circle cx="224.8344785347581" cy="166.49750138167292" r="3" style="fill: steelblue;"></circle><circle cx="249.56730932928622" cy="116.83039478957653" r="3" style="fill: steelblue;"></circle><circle cx="218.3959548175335" cy="209.4406240619719" r="3" style="fill: steelblue;"></circle><circle cx="375.7333532720804" cy="264.50309548527" r="3" style="fill: steelblue;"></circle><circle cx="187.0622231438756" cy="267.5938757136464" r="3" style="fill: steelblue;"></circle><circle cx="295.0659297220409" cy="242.91612412780523" r="3" style="fill: steelblue;"></circle><circle cx="201.82692881673574" cy="165.75740424450487" r="3" style="fill: steelblue;"></circle><circle cx="309.65510576963425" cy="245.0600277632475" r="3" style="fill: steelblue;"></circle><circle cx="219.75763019174337" cy="231.0780055820942" r="3" style="fill: steelblue;"></circle><circle cx="385.6417988240719" cy="174.5313866675133" r="3" style="fill: steelblue;"></circle><circle cx="237.07079065963626" cy="40.69207161664963" r="3" style="fill: steelblue;"></circle><circle cx="233.88697419315577" cy="5.579269677400589" r="3" style="fill: steelblue;"></circle><circle cx="463.33942607045174" cy="61.524295434355736" r="3" style="fill: steelblue;"></circle><circle cx="259.7824080660939" cy="81.57467767596245" r="3" style="fill: steelblue;"></circle><circle cx="441.4650325477123" cy="10.22738330066204" r="3" style="fill: steelblue;"></circle><circle cx="125.19359372556211" cy="134.56506812945008" r="3" style="fill: steelblue;"></circle><circle cx="82.06651926040651" cy="306.12093694508076" r="3" style="fill: steelblue;"></circle><circle cx="128.6347840726376" cy="204.19775526970625" r="3" style="fill: steelblue;"></circle><circle cx="204.33528374880552" cy="244.4361999630928" r="3" style="fill: steelblue;"></circle><circle cx="320.71462634950876" cy="96.9569256529212" r="3" style="fill: steelblue;"></circle><circle cx="152.1683418005705" cy="133.98505300283432" r="3" style="fill: steelblue;"></circle></g></svg>