<svg xmlns="http://www.w3.org/2000/svg"><g transform="translate(40,20)"><circle cx="276.51744425296783" cy="100.57273838255139" r="3" style="fill: steelblue;"></circle><circle cx="329.87642526626587" cy="217.52793755796222" r="3" style="fill: steelblue;"></circle><circle cx="158.81517469882968" cy="92.34864513079327" r="3" style="fill: steelblue;"></circle><circle cx="237.49621599912646" cy="114.65352442529468" r="3" style="fill: steelblue;"></circle><circle cx="342.61322557926184" cy="145.5971971154213" r="3" style="fill: steelblue;"></circle><circle cx="335.6553786993027" cy="173.80875017907886" r="3" style="fill: steelblue;"></circle><circle cx="354.68161940574646" cy="63.72426946957905" r="3" style="fill: steelblue;"></circle><circle cx="214.36275109648705" cy="128.52328353457978" r="3" style="fill: steelblue;"></circle><circle cx="313.7135097384453" cy="107.48927709129123" r="3" style="fill: steelblue;"></circle><circle cx="481.0862624645233" cy="59.019555648167916" r="3" style="fill: steelblue;"></circle><circle cx="450.7539653778076" cy="108.99385230408774" r="3" style="fill: steelblue;"></circle><circle cx="241.93361341953278" cy="133.23806309037735" r="3" style="fill: steelblue;"></circle><circle cx="253.8883162289858" cy="147.7335782514678" r="3" style="fill: steelblue;"></circle><circle cx="423.7625026702881" cy="149.6209179361661" r="3" style="fill: steelblue;"></circle><circle cx="206.34542271494865" cy="166.61081711451214" r="3" style="fill: steelblue;"></circle><circle cx="377.25538551807404" cy="166.21617890066568" r="3" style="fill: steelblue;"></circle><circle cx="404.8949861526489" cy="51.21135049396093" r="3" style="fill: steelblue;"></circle><circle cx="363.2796013355255" cy="71.60380979379016" r="3" style="fill: steelblue;"></circle><circle cx="423.9047312736511" cy="147.77584332558843" r="3" style="fill: steelblue;"></circle><circle cx="392.74134278297424" cy="112.13869601488113" r="3" style="fill: steelblue;"></circle><circle cx="313.9524677395821" cy="162.7905290159914" r="3" style="fill: steelblue;"></circle><circle cx="283.350313603878" cy="178.20035852491856" r="3" style="fill: steelblue;"></circle><circle cx="436.4950740337372" cy="174.39653082854215" r="3" style="fill: steelblue;"></circle><circle cx="162.4640965461731" cy="47.04527225759295" r="3" style="fill: steelblue;"></circle><circle cx="222.82718360424042" cy="206.48097008880643" r="3" style="fill: steelblue;"></circle><circle cx="253.71510922908783" cy="177.4975593305296" r="3" style="fill: steelblue;"></circle><circle cx="273.75535011291504" cy="195.74604554670964" r="3" style="fill: steelblue;"></circle><circle cx="227.06401214003563" cy="201.16986096319226" r="3" style="fill: steelblue;"></circle><circle cx="355.15127420425415" cy="193.57060898457553" r="3" style="fill: steelblue;"></circle><circle cx="265.97797214984894" cy="194.6873315804017" r="3" style="fill: steelblue;"></circle><circle cx="288.45230877399445" cy="243.25307458639145" r="3" style="fill: steelblue;"></circle><circle cx="143.15345227718356" cy="197.42711002214088" r="3" style="fill: steelblue;"></circle><circle cx="250.1238515228033" cy="217.13455683655206" r="3" style="fill: steelblue;"></circle><circle cx="334.39895153045654" cy="207.2813676463233" r="3" style="fill: steelblue;"></circle><circle cx="201.59885376691818" cy="189.68858161113326" r="3" style="fill: steelblue;"></circle><circle cx="222.10204057395458" cy="234.49025013380583" r="3" style="fill: steelblue;"></circle><circle cx="172.68016129732132" cy="293.20604602495825" r="3" style="fill: steelblue;"></circle><circle cx="346.079363822937" cy="161.07378527522087" r="3" style="fill: steelblue;"></circle><circle cx="249.6158266067505" cy="196.69756430408194" r="3" style="fill: steelblue;"></circle><circle cx="84.22085881233217" cy="155.86173989706566" r="3" style="fill: steelblue;"></circle><circle cx="214.17947798967361" cy="170.58752394384805" r="3" style="fill: steelblue;"></circle><circle cx="64.7851073741913" cy="183.06485936045647" r="3" style="fill: steelblue;"></circle><circle cx="240.5061189411208" cy="325.7101741102007" r="3" style="fill: steelblue;"></circle><circle cx="23.67501497268678" cy="138.83378853400546" r="3" style="fill: steelblue;"></circle><circle cx="61.50703668594362" cy="279.68243923452167" r="3" style="fill: steelblue;"></circle><circle cx="141.6626089811325" cy="263.07889156871374" r="3" style="fill: steelblue;"></circle><circle cx="118.76932919025423" cy="282.7793185909589" r="3" style="fill: steelblue;"></circle><circle cx="304.81064558029175" cy="195.9702932638013" r="3" style="fill: steelblue;"></circle><circle cx="93.89143824577333" cy="148.07419644461737" r="3" style="fill: steelblue;"></circle><circle cx="227.31791116297245" cy="203.48547895749408" r="3" style="fill: steelblue;"></circle><circle cx="255.12919440865517" cy="150.11168188518945" r="3" style="fill: steelblue;"></circle><circle cx="98.09044539928438" cy="129.09024457136792" r="3" style="fill: steelblue;"></circle><circle cx="245.56850228458646" cy="247.53954178757135" r="3" style="fill: steelblue;"></circle><circle cx="225.0029144436121" cy="243.36143334706622" r="3" style="fill: steelblue;"></circle><circle cx="112.68416583538057" cy="220.0701700316535" r="3" style="fill: steelblue;"></circle><circle cx="290.97359418869024" cy="250.03612207041846" r="3" style="fill: steelblue;"></circle><circle cx="130.57428538799286" cy="231.4250253968769" r="3" style="fill: steelblue;"></circle><circle cx="152.8427892923355" cy="237.3168642322222" r="3" style="fill: steelblue;"></circle><circle cx="121.04173243045808" cy="218.3120652205414" r="3" style="fill: steelblue;"></circle><circle cx="310.5566883087158" cy="234.9625370568699" r="3" style="fill: steelblue;"></circle><circle cx="400.1875841617584" cy="93.69528624746533" r="3" style="fill: steelblue;"></circle><circle cx="398.70357155799866" cy="167.96885679165524" r="3" style="fill: steelblue;"></circle><circle cx="323.1154704093933" cy="194.93720948877228" r="3" style="fill: steelblue;"></circle><circle cx="267.7845360338688" cy="84.09945997926923" r="3" style="fill: steelblue;"></circle><circle cx="339.2691904306412" cy="135.1750534441736" r="3" style="fill: steelblue;"></circle><circle cx="259.9170984327793" cy="153.43313374453118" r="3" style="fill: steelblue;"></circle><circle cx="229.4447386264801" cy="155.80684484706984" r="3" style="fill: steelblue;"></circle><circle cx="355.6119704246521" cy="82.83927871121301" r="3" style="fill: steelblue;"></circle><circle cx="133.9130812883377" cy="123.78569526804819" r="3" style="fill: steelblue;"></circle><circle cx="217.1585449576378" cy="112.27053569422827" r="3" style="fill: steelblue;"></circle><circle cx="357.32769906520844" cy="211.7414137141572" r="3" style="fill: steelblue;"></circle><circle cx="201.75182908773422" cy="169.90170379479724" r="3" style="fill: steelblue;"></circle><circle cx="102.82356083393097" cy="180.08553961084948" r="3" style="fill: steelblue;"></circle><circle cx="185.39983570575714" cy="276.0041000114547" r="3" style="fill: steelblue;"></circle><circle cx="236.34942999109626" cy="226.1620197031233" r="3" style="fill: steelblue;"></circle><circle cx="60.02990841865541" cy="204.92781771139965" r="3" style="fill: steelblue;"></circle><circle cx="201.3228589296341" cy="235.3046097689205" r="3" style="fill: steelblue;"></circle><circle cx="129.9245649576187" cy="270.0146229730712" r="3" style="fill: steelblue;"></circle><circle cx="133.79741549491885" cy="304.1523959901598" r="3" style="fill: steelblue;"></circle><circle cx="188.05593341588977" cy="120.46103593375949" r="3" style="fill: steelblue;"></circle><circle cx="74.37307476997377" cy="281.07166124714746" r="3" style="fill: steelblue;"></circle><circle cx="205.86215570569038" cy="204.36359910915291" r="3" style="fill: steelblue;"></circle><circle cx="69.73460555076599" cy="294.6212755309211" r="3" style="fill: steelblue;"></circle><circle cx="173.70105922222137" cy="172.76797381540138" r="3" style="fill: steelblue;"></circle><circle cx="226.42694167792797" cy="140.58945659134122" r="3" style="fill: steelblue;"></circle><circle cx="246.6730219870806" cy="230.9004192550977" r="3" style="fill: steelblue;"></circle><circle cx="360.1653331518174" cy="246.39991174141562" r="3" style="fill: steelblue;"></circle><circle cx="166.06599032878879" cy="188.9741679963966" r="3" style="fill: steelblue;"></circle><circle cx="225.39346978068352" cy="175.42522193657027" r="3" style="fill: steelblue;"></circle><circle cx="228.35581205785275" cy="280.6608842478858" r="3" style="fill: steelblue;"></circle><circle cx="420.5454969406128" cy="167.17675245470468" r="3" style="fill: steelblue;"></circle><circle cx="357.62319803237915" cy="115.14619489510852" r="3" style="fill: steelblue;"></circle><circle cx="423.31514596939087" cy="205.2722221447362" r="3" style="fill: steelblue;"></circle><circle cx="428.91146779060364" cy="122.61077430513171" r="3" style="fill: steelblue;"></circle><circle cx="69.91624474525453" cy="173.64737826089066" r="3" style="fill: steelblue;"></circle><circle cx="146.23545348644257" cy="220.12851304478113" r="3" style="fill: steelblue;"></circle><circle cx="89.42463040351869" cy="234.63439817229903" r="3" style="fill: steelblue;"></circle><circle cx="143.11018824577332" cy="196.55806105583906" r="3" style="fill: steelblue;"></circle><circle cx="43.3406674861908" cy="238.37213218212128" r="3" style="fill: steelblue;"></circle><circle cx="89.20107722282411" cy="229.358101884524" r="3" style="fill: steelblue;"></circle><circle cx="194.66231256723404" cy="136.51645017994775" r="3" style="fill: steelblue;"></circle><circle cx="149.95616912841797" cy="243.15997958183289" r="3" style="fill: steelblue;"></circle><circle cx="184.3123072385788" cy="148.06302967998715" r="3" style="fill: steelblue;"></circle><circle cx="62.05873131752015" cy="101.76606973012287" r="3" style="fill: steelblue;"></circle><circle cx="378.63268196582794" cy="191.28584039087093" r="3" style="fill: steelblue;"></circle><circle cx="296.912961602211" cy="324.15672474437287" r="3" style="fill: steelblue;"></circle><circle cx="237.99204342998567" cy="62.73159219159021" r="3" style="fill: steelblue;"></circle><circle cx="305.010242164135" cy="113.90452252493964" r="3" style="fill: steelblue;"></circle><circle cx="299.37921702861786" cy="127.18744989898471" r="3" style="fill: steelblue;"></circle><circle cx="328.91983330249786" cy="17.11835463841755" r="3" style="fill: steelblue;"></circle><circle cx="438.29816222190857" cy="152.215049498611" r="3" style="fill: steelblue;"></circle><circle cx="446.3426077365875" cy="84.75835124651593" r="3" style="fill: steelblue;"></circle><circle cx="469.04106974601746" cy="190.94006510244475" r="3" style="fill: steelblue;"></circle><circle cx="127.96179592609407" cy="273.93736773067053" r="3" style="fill: steelblue;"></circle><circle cx="80.15307426452637" cy="206.22110522041714" r="3" style="fill: steelblue;"></circle><circle cx="108.301722407341" cy="211.12256228095953" r="3" style="fill: steelblue;"></circle><circle cx="98.29438269138338" cy="278.2252488864793" r="3" style="fill: steelblue;"></circle><circle cx="166.65114998817444" cy="331.465525759591" r="3" style="fill: steelblue;"></circle></g></svg>