<svg xmlns="http://www.w3.org/2000/svg"><g transform="translate(40,20)"><circle cx="384.83063220977783" cy="193.98484374396503" r="3" style="fill: steelblue;"></circle><circle cx="204.38546776771548" cy="66.89155492931604" r="3" style="fill: steelblue;"></circle><circle cx="397.5192332267761" cy="19.662470743060112" r="3" style="fill: steelblue;"></circle><circle cx="363.10599088668823" cy="101.01711302995682" r="3" style="fill: steelblue;"></circle><circle cx="315.36432445049286" cy="249.2130558937788" r="3" style="fill: steelblue;"></circle><circle cx="271.8379282951355" cy="7.954848185181618" r="3" style="fill: steelblue;"></circle><circle cx="441.6825556755066" cy="127.18215836212039" r="3" style="fill: steelblue;"></circle><circle cx="341.7069339752198" cy="120.4800090752542" r="3" style="fill: steelblue;"></circle><circle cx="374.1594010591507" cy="91.02918598800898" r="3" style="fill: steelblue;"></circle><circle cx="448.9412569999695" cy="172.37603653920814" r="3" style="fill: steelblue;"></circle><circle cx="371.83805644512177" cy="280.02192191779613" r="3" style="fill: steelblue;"></circle><circle cx="334.43270266056066" cy="231.92556779831648" r="3" style="fill: steelblue;"></circle><circle cx="312.06819355487823" cy="53.60635668039322" r="3" style="fill: steelblue;"></circle><circle cx="309.1562980413437" cy="181.07307715108618" r="3" style="fill: steelblue;"></circle><circle cx="282.94331073760986" cy="92.57589299231768" r="3" style="fill: steelblue;"></circle><circle cx="283.5521811246872" cy="44.105855002999306" r="3" style="fill: steelblue;"></circle><circle cx="460.98820209503174" cy="294.5753701031208" r="3" style="fill: steelblue;"></circle><circle cx="429.5255506038666" cy="20.028279349207878" r="3" style="fill: steelblue;"></circle><circle cx="312.00298458337784" cy="107.12413229048252" r="3" style="fill: steelblue;"></circle><circle cx="366.9860118627548" cy="173.04240392404608" r="3" style="fill: steelblue;"></circle><circle cx="288.83746951818466" cy="53.304606303572655" r="3" style="fill: steelblue;"></circle><circle cx="265.06230399012566" cy="245.493851788342" r="3" style="fill: steelblue;"></circle><circle cx="270.9310667216778" cy="212.58255764842033" r="3" style="fill: steelblue;"></circle><circle cx="467.41586565971375" cy="113.21847159415483" r="3" style="fill: steelblue;"></circle><circle cx="221.42936043441298" cy="188.76611576415598" r="3" style="fill: steelblue;"></circle><circle cx="266.14662274718285" cy="288.0853835493326" r="3" style="fill: steelblue;"></circle><circle cx="237.99181544221938" cy="154.484299197793" r="3" style="fill: steelblue;"></circle><circle cx="229.62364308536056" cy="121.64617720991373" r="3" style="fill: steelblue;"></circle><circle cx="241.34820328094065" cy="78.30156031996012" r="3" style="fill: steelblue;"></circle><circle cx="239.62525984738025" cy="205.1846112124622" r="3" style="fill: steelblue;"></circle><circle cx="164.69525635242462" cy="167.3594230785966" r="3" style="fill: steelblue;"></circle><circle cx="235.39817310869694" cy="216.98804404586554" r="3" style="fill: steelblue;"></circle><circle cx="204.99239802360535" cy="246.06720097362995" r="3" style="fill: steelblue;"></circle><circle cx="220.1944613456726" cy="236.89283169806004" r="3" style="fill: steelblue;"></circle><circle cx="247.33761694282293" cy="186.06360624544322" r="3" style="fill: steelblue;"></circle><circle cx="178.21504265069962" cy="138.60267279669642" r="3" style="fill: steelblue;"></circle><circle cx="87.62495756149293" cy="215.96323950216174" r="3" style="fill: steelblue;"></circle><circle cx="291.4861598610878" cy="194.82243149541318" r="3" style="fill: steelblue;"></circle><circle cx="236.52375793084502" cy="211.72801982611418" r="3" style="fill: steelblue;"></circle><circle cx="299.52760130167013" cy="179.71827876754105" r="3" style="fill: steelblue;"></circle><circle cx="276.8078202009201" cy="310.32159477472305" r="3" style="fill: steelblue;"></circle><circle cx="257.55707412958145" cy="314.37104493379593" r="3" style="fill: steelblue;"></circle><circle cx="37.47573137283326" cy="171.5020774397999" r="3" style="fill: steelblue;"></circle><circle cx="325.79929769039154" cy="229.22593653202057" r="3" style="fill: steelblue;"></circle><circle cx="108.48995089530946" cy="144.54307286068797" r="3" style="fill: steelblue;"></circle><circle cx="134.10685300827026" cy="194.8210934177041" r="3" style="fill: steelblue;"></circle><circle cx="103.71190845966339" cy="138.01329927518964" r="3" style="fill: steelblue;"></circle><circle cx="237.64583325013518" cy="185.5108937714249" r="3" style="fill: steelblue;"></circle><circle cx="311.54266834259033" cy="147.93372428976" r="3" style="fill: steelblue;"></circle><circle cx="226.05097532272342" cy="227.77129774913192" r="3" style="fill: steelblue;"></circle><circle cx="308.39911937713623" cy="223.2637328095734" r="3" style="fill: steelblue;"></circle><circle cx="340.8321940898895" cy="91.6456013917923" r="3" style="fill: steelblue;"></circle><circle cx="158.0818498134613" cy="206.17431281134486" r="3" style="fill: steelblue;"></circle><circle cx="164.5280742645264" cy="252.15569250285625" r="3" style="fill: steelblue;"></circle><circle cx="200.46316623687744" cy="159.74122839979827" r="3" style="fill: steelblue;"></circle><circle cx="154.22998309135437" cy="273.84246718138456" r="3" style="fill: steelblue;"></circle><circle cx="182.94424653053284" cy="134.97490780428052" r="3" style="fill: steelblue;"></circle><circle cx="173.85398089885712" cy="191.87663793563843" r="3" style="fill: steelblue;"></circle><circle cx="203.17567080259323" cy="225.66147027537227" r="3" style="fill: steelblue;"></circle><circle cx="177.4863713979721" cy="195.21900448016822" r="3" style="fill: steelblue;"></circle><circle cx="395.44155836105347" cy="85.99888738244772" r="3" style="fill: steelblue;"></circle><circle cx="280.8480495214462" cy="157.80493053607643" r="3" style="fill: steelblue;"></circle><circle cx="239.23973393160853" cy="61.58023066818714" r="3" style="fill: steelblue;"></circle><circle cx="410.24654746055603" cy="59.191861376166344" r="3" style="fill: steelblue;"></circle><circle cx="331.44420325756073" cy="71.0803933441639" r="3" style="fill: steelblue;"></circle><circle cx="303.27459365129477" cy="60.58164983987808" r="3" style="fill: steelblue;"></circle><circle cx="299.61229652166367" cy="247.4229197949171" r="3" style="fill: steelblue;"></circle><circle cx="412.19082713127136" cy="61.5987453609705" r="3" style="fill: steelblue;"></circle><circle cx="349.01635587215424" cy="191.93930104374886" r="3" style="fill: steelblue;"></circle><circle cx="366.7826020717621" cy="185.87502937298268" r="3" style="fill: steelblue;"></circle><circle cx="213.31324741244316" cy="126.42189878970385" r="3" style="fill: steelblue;"></circle><circle cx="277.8659427165985" cy="301.6103535890579" r="3" style="fill: steelblue;"></circle><circle cx="262.15373888611794" cy="171.76672264467925" r="3" style="fill: steelblue;"></circle><circle cx="114.16510283946991" cy="225.21257046610117" r="3" style="fill: steelblue;"></circle><circle cx="191.06431245803833" cy="261.6726031526923" r="3" style="fill: steelblue;"></circle><circle cx="223.82565267384052" cy="213.4124657139182" r="3" style="fill: steelblue;"></circle><circle cx="176.9586020708084" cy="268.31854339689016" r="3" style="fill: steelblue;"></circle><circle cx="123.40601027011871" cy="234.1570120304823" r="3" style="fill: steelblue;"></circle><circle cx="70.73630332946779" cy="288.1880749017" r="3" style="fill: steelblue;"></circle><circle cx="354.14583027362823" cy="263.4941490367055" r="3" style="fill: steelblue;"></circle><circle cx="106.34657979011537" cy="154.74079614505172" r="3" style="fill: steelblue;"></circle><circle cx="224.69616137444973" cy="199.91243020631373" r="3" style="fill: steelblue;"></circle><circle cx="85.44146060943604" cy="260.75794473290443" r="3" style="fill: steelblue;"></circle><circle cx="273.44369754195213" cy="183.3922432968393" r="3" style="fill: steelblue;"></circle><circle cx="323.09055268764496" cy="180.97088370705023" r="3" style="fill: steelblue;"></circle><circle cx="183.75363886356357" cy="97.95258585363626" r="3" style="fill: steelblue;"></circle><circle cx="159.84013617038727" cy="116.72996561974287" r="3" style="fill: steelblue;"></circle><circle cx="248.4398550912738" cy="167.7100467029959" r="3" style="fill: steelblue;"></circle><circle cx="269.343943297863" cy="112.00085021555424" r="3" style="fill: steelblue;"></circle><circle cx="106.98035001754761" cy="144.36619887128472" r="3" style="fill: steelblue;"></circle><circle cx="282.07015335559845" cy="142.4739157781005" r="3" style="fill: steelblue;"></circle><circle cx="362.3458707332611" cy="125.81352815032005" r="3" style="fill: steelblue;"></circle><circle cx="223.2942858338356" cy="279.8246491700411" r="3" style="fill: steelblue;"></circle><circle cx="350.8290910720825" cy="46.95800431072712" r="3" style="fill: steelblue;"></circle><circle cx="272.0869021117687" cy="286.20778508484364" r="3" style="fill: steelblue;"></circle><circle cx="200.37315130233765" cy="185.38631971459836" r="3" style="fill: steelblue;"></circle><circle cx="177.99264281988144" cy="105.87471649050713" r="3" style="fill: steelblue;"></circle><circle cx="236.7389915138483" cy="97.33635298907757" r="3" style="fill: steelblue;"></circle><circle cx="172.22585320472717" cy="188.78705073148012" r="3" style="fill: steelblue;"></circle><circle cx="186.1332142353058" cy="234.91550162434578" r="3" style="fill: steelblue;"></circle><circle cx="329.37461972236633" cy="157.2408827021718" r="3" style="fill: steelblue;"></circle><circle cx="164.83888864517212" cy="221.99824703857303" r="3" style="fill: steelblue;"></circle><circle cx="311.55989706516266" cy="316.28846302628517" r="3" style="fill: steelblue;"></circle><circle cx="382.98949241638184" cy="270.29641456902027" r="3" style="fill: steelblue;"></circle><circle cx="244.87327482551336" cy="138.89902848750353" r="3" style="fill: steelblue;"></circle><circle cx="39.87248182296754" cy="311.2788174301386" r="3" style="fill: steelblue;"></circle><circle cx="443.2141149044037" cy="120.81200880929828" r="3" style="fill: steelblue;"></circle><circle cx="364.26159381866455" cy="16.32583625614643" r="3" style="fill: steelblue;"></circle><circle cx="343.76793444156647" cy="174.85659590674913" r="3" style="fill: steelblue;"></circle><circle cx="513.5888242721558" cy="142.7800014615059" r="3" style="fill: steelblue;"></circle><circle cx="305.1539236307145" cy="72.39442151039839" r="3" style="fill: steelblue;"></circle><circle cx="409.2299723625183" cy="162.19020967837423" r="3" style="fill: steelblue;"></circle><circle cx="245.40675669908524" cy="211.4124388433993" r="3" style="fill: steelblue;"></circle><circle cx="117.35377550125122" cy="147.65153983607888" r="3" style="fill: steelblue;"></circle><circle cx="221.83029480278492" cy="265.6403409317136" r="3" style="fill: steelblue;"></circle><circle cx="214.26804676651955" cy="330.5458065122366" r="3" style="fill: steelblue;"></circle><circle cx="110.73818743228914" cy="163.63562534097582" r="3" style="fill: steelblue;"></circle><circle cx="28.59604597091676" cy="196.00132685154676" r="3" style="fill: steelblue;"></circle></g></svg>