<svg xmlns="http://www.w3.org/2000/svg"><g transform="translate(40,20)"><circle cx="257.64186445623636" cy="156.47526495158672" r="3" style="fill: steelblue;"></circle><circle cx="347.97096613794565" cy="99.75470826029778" r="3" style="fill: steelblue;"></circle><circle cx="273.61870113993064" cy="81.86119645833969" r="3" style="fill: steelblue;"></circle><circle cx="318.0587465688586" cy="161.92405298352242" r="3" style="fill: steelblue;"></circle><circle cx="427.97615982592106" cy="138.30404840409756" r="3" style="fill: steelblue;"></circle><circle cx="478.85187461972237" cy="132.44999460875988" r="3" style="fill: steelblue;"></circle><circle cx="478.4525004029274" cy="112.57060468196869" r="3" style="fill: steelblue;"></circle><circle cx="355.03010608255863" cy="73.49352538585663" r="3" style="fill: steelblue;"></circle><circle cx="404.8558768630028" cy="71.5974435210228" r="3" style="fill: steelblue;"></circle><circle cx="438.61433386802673" cy="95.12451216578484" r="3" style="fill: steelblue;"></circle><circle cx="427.90563113987446" cy="129.83569651842117" r="3" style="fill: steelblue;"></circle><circle cx="250.2849892526865" cy="68.6019018292427" r="3" style="fill: steelblue;"></circle><circle cx="380.74176505208015" cy="234.1407373547554" r="3" style="fill: steelblue;"></circle><circle cx="418.77310171723366" cy="122.2244992852211" r="3" style="fill: steelblue;"></circle><circle cx="237.99273546785116" cy="166.80122269317508" r="3" style="fill: steelblue;"></circle><circle cx="398.34919318556786" cy="192.9009098559618" r="3" style="fill: steelblue;"></circle><circle cx="474.1762612760067" cy="181.76303328946233" r="3" style="fill: steelblue;"></circle><circle cx="404.7721315920353" cy="227.10238471627235" r="3" style="fill: steelblue;"></circle><circle cx="418.75485599040985" cy="105.76800927519798" r="3" style="fill: steelblue;"></circle><circle cx="223.62323485314846" cy="150.5058828741312" r="3" style="fill: steelblue;"></circle><circle cx="421.8289692699909" cy="202.80740223824978" r="3" style="fill: steelblue;"></circle><circle cx="456.61317005753517" cy="205.62192499637604" r="3" style="fill: steelblue;"></circle><circle cx="411.3368918001652" cy="173.87703930726275" r="3" style="fill: steelblue;"></circle><circle cx="478.07503312826157" cy="140.8002644777298" r="3" style="fill: steelblue;"></circle><circle cx="306.4693027921021" cy="93.87668967247009" r="3" style="fill: steelblue;"></circle><circle cx="348.3355738967657" cy="123.69115501642227" r="3" style="fill: steelblue;"></circle><circle cx="327.43974577635527" cy="241.6727177798748" r="3" style="fill: steelblue;"></circle><circle cx="310.68531543016434" cy="74.36216175556183" r="3" style="fill: steelblue;"></circle><circle cx="271.0014350322308" cy="187.47574891895056" r="3" style="fill: steelblue;"></circle><circle cx="184.2240721732378" cy="224.55556094646454" r="3" style="fill: steelblue;"></circle><circle cx="293.4648445621133" cy="216.82740300893784" r="3" style="fill: steelblue;"></circle><circle cx="340.2530287206173" cy="122.60991781949997" r="3" style="fill: steelblue;"></circle><circle cx="214.85262762755156" cy="203.92303243279457" r="3" style="fill: steelblue;"></circle><circle cx="259.59537553600967" cy="217.40197129547596" r="3" style="fill: steelblue;"></circle><circle cx="151.25154934823513" cy="142.81093403697014" r="3" style="fill: steelblue;"></circle><circle cx="454.67823788523674" cy="246.84790819883347" r="3" style="fill: steelblue;"></circle><circle cx="164.3979173898697" cy="231.23050928115845" r="3" style="fill: steelblue;"></circle><circle cx="255.0337464362383" cy="214.558195322752" r="3" style="fill: steelblue;"></circle><circle cx="373.30688282847404" cy="297.8746101260185" r="3" style="fill: steelblue;"></circle><circle cx="180.90688034892082" cy="125.89400708675385" r="3" style="fill: steelblue;"></circle><circle cx="336.9533533975482" cy="141.5440570563078" r="3" style="fill: steelblue;"></circle><circle cx="321.63787119090557" cy="222.46612310409546" r="3" style="fill: steelblue;"></circle><circle cx="248.66746885702014" cy="248.24314936995506" r="3" style="fill: steelblue;"></circle><circle cx="183.1572101265192" cy="222.19403013586998" r="3" style="fill: steelblue;"></circle><circle cx="244.46123287081718" cy="205.2126720547676" r="3" style="fill: steelblue;"></circle><circle cx="295.9659047238529" cy="288.1643369793892" r="3" style="fill: steelblue;"></circle><circle cx="56.70067414641382" cy="157.86169730126858" r="3" style="fill: steelblue;"></circle><circle cx="130.60585565865043" cy="253.66368293762207" r="3" style="fill: steelblue;"></circle><circle cx="269.6805037422746" cy="189.65745512396097" r="3" style="fill: steelblue;"></circle><circle cx="191.45739644765854" cy="212.93423771858215" r="3" style="fill: steelblue;"></circle><circle cx="303.52575609460473" cy="211.41509674489498" r="3" style="fill: steelblue;"></circle><circle cx="252.15690753422678" cy="185.55966075509787" r="3" style="fill: steelblue;"></circle><circle cx="157.50505596399307" cy="146.89830280840397" r="3" style="fill: steelblue;"></circle><circle cx="249.85542509704828" cy="270.29723078012466" r="3" style="fill: steelblue;"></circle><circle cx="255.0440762937069" cy="203.21330167353153" r="3" style="fill: steelblue;"></circle><circle cx="170.69616325199604" cy="195.77873460948467" r="3" style="fill: steelblue;"></circle><circle cx="167.95827828347683" cy="221.39597907662392" r="3" style="fill: steelblue;"></circle><circle cx="177.3184970766306" cy="324.6814340353012" r="3" style="fill: steelblue;"></circle><circle cx="86.64438620209695" cy="169.44054821506143" r="3" style="fill: steelblue;"></circle><circle cx="349.56679333001375" cy="187.18181904405355" r="3" style="fill: steelblue;"></circle><circle cx="294.2814942263067" cy="71.7078223824501" r="3" style="fill: steelblue;"></circle><circle cx="483.3044958114624" cy="128.67842391133308" r="3" style="fill: steelblue;"></circle><circle cx="280.9187548980117" cy="158.66084229201078" r="3" style="fill: steelblue;"></circle><circle cx="198.90759743750095" cy="95.58674842119217" r="3" style="fill: steelblue;"></circle><circle cx="469.86469745635986" cy="74.20593947172165" r="3" style="fill: steelblue;"></circle><circle cx="437.899551987648" cy="86.084945499897" r="3" style="fill: steelblue;"></circle><circle cx="383.2861487567425" cy="141.12004190683365" r="3" style="fill: steelblue;"></circle><circle cx="303.9367350563407" cy="127.01105326414108" r="3" style="fill: steelblue;"></circle><circle cx="480.4984760284424" cy="62.33144998550415" r="3" style="fill: steelblue;"></circle><circle cx="287.78615629300475" cy="123.62873703241348" r="3" style="fill: steelblue;"></circle><circle cx="372.5175992399454" cy="130.13008534908295" r="3" style="fill: steelblue;"></circle><circle cx="235.45728854835033" cy="253.65152582526207" r="3" style="fill: steelblue;"></circle><circle cx="388.4969834983349" cy="149.50540624558926" r="3" style="fill: steelblue;"></circle><circle cx="196.25078223645687" cy="213.5876003652811" r="3" style="fill: steelblue;"></circle><circle cx="276.6023857332766" cy="174.67206606233958" r="3" style="fill: steelblue;"></circle><circle cx="365.78707851469517" cy="246.76069617271423" r="3" style="fill: steelblue;"></circle><circle cx="390.34800946712494" cy="172.44758906308562" r="3" style="fill: steelblue;"></circle><circle cx="234.82739858329296" cy="184.0205630287528" r="3" style="fill: steelblue;"></circle><circle cx="310.6046982854605" cy="175.01476220786572" r="3" style="fill: steelblue;"></circle><circle cx="243.07953648269176" cy="161.84867341071367" r="3" style="fill: steelblue;"></circle><circle cx="234.60324469953775" cy="178.08012254536152" r="3" style="fill: steelblue;"></circle><circle cx="229.86482743173838" cy="209.10356864333153" r="3" style="fill: steelblue;"></circle><circle cx="142.15684913098812" cy="225.99498182535172" r="3" style="fill: steelblue;"></circle><circle cx="326.0079390183091" cy="214.22485783696175" r="3" style="fill: steelblue;"></circle><circle cx="380.8125854283571" cy="212.23343051970005" r="3" style="fill: steelblue;"></circle><circle cx="395.02473928034306" cy="78.66848111152649" r="3" style="fill: steelblue;"></circle><circle cx="268.3635703451" cy="125.69540441036224" r="3" style="fill: steelblue;"></circle><circle cx="215.26479598134756" cy="131.9915473461151" r="3" style="fill: steelblue;"></circle><circle cx="147.2272601723671" cy="116.96134582161903" r="3" style="fill: steelblue;"></circle><circle cx="221.02189611643553" cy="106.14504665136337" r="3" style="fill: steelblue;"></circle><circle cx="242.81877547502518" cy="163.5745583102107" r="3" style="fill: steelblue;"></circle><circle cx="389.5363663136959" cy="145.85131257772446" r="3" style="fill: steelblue;"></circle><circle cx="184.7511564195156" cy="154.28392849862576" r="3" style="fill: steelblue;"></circle><circle cx="272.1049300557934" cy="106.38980567455292" r="3" style="fill: steelblue;"></circle><circle cx="241.3198397308588" cy="232.81307220458984" r="3" style="fill: steelblue;"></circle><circle cx="208.1673088297248" cy="193.01024563610554" r="3" style="fill: steelblue;"></circle><circle cx="246.94509839639068" cy="225.38369968533516" r="3" style="fill: steelblue;"></circle><circle cx="185.14792554080486" cy="228.14892902970314" r="3" style="fill: steelblue;"></circle><circle cx="173.1676948070526" cy="202.33653709292412" r="3" style="fill: steelblue;"></circle><circle cx="270.4690074012615" cy="244.73178833723068" r="3" style="fill: steelblue;"></circle><circle cx="367.6227354258299" cy="204.96333129703999" r="3" style="fill: steelblue;"></circle><circle cx="183.52407597005367" cy="225.6507858633995" r="3" style="fill: steelblue;"></circle><circle cx="277.4731646804139" cy="154.62770462036133" r="3" style="fill: steelblue;"></circle><circle cx="360.3024673461914" cy="236.2605758011341" r="3" style="fill: steelblue;"></circle><circle cx="119.57586117088796" cy="122.9314997792244" r="3" style="fill: steelblue;"></circle><circle cx="163.8340701162815" cy="188.29511012881994" r="3" style="fill: steelblue;"></circle><circle cx="161.25818386673927" cy="169.78297159075737" r="3" style="fill: steelblue;"></circle><circle cx="511.39158949255943" cy="133.0752618610859" r="3" style="fill: steelblue;"></circle><circle cx="466.32396027445793" cy="54.62832599878311" r="3" style="fill: steelblue;"></circle><circle cx="422.46821343898773" cy="169.24666743725538" r="3" style="fill: steelblue;"></circle><circle cx="513.7328562140465" cy="66.28896296024323" r="3" style="fill: steelblue;"></circle><circle cx="519.8110570013523" cy="23.92885833978653" r="3" style="fill: steelblue;"></circle><circle cx="452.9936161637306" cy="292.5366625189781" r="3" style="fill: steelblue;"></circle><circle cx="90.31449303030969" cy="252.2064983844757" r="3" style="fill: steelblue;"></circle><circle cx="338.01219899207354" cy="136.4907741546631" r="3" style="fill: steelblue;"></circle><circle cx="93.44177439808847" cy="309.5369890332222" r="3" style="fill: steelblue;"></circle><circle cx="108.31381201744081" cy="266.4896607398987" r="3" style="fill: steelblue;"></circle><circle cx="251.80918511934578" cy="234.6432365477085" r="3" style="fill: steelblue;"></circle></g></svg>