<svg xmlns="http://www.w3.org/2000/svg"><g transform="translate(40,20)"><circle cx="417.7915037423372" cy="156.47526495158672" r="3" style="fill: steelblue;"></circle><circle cx="265.13535629957914" cy="99.75470826029778" r="3" style="fill: steelblue;"></circle><circle cx="346.42756775021553" cy="81.86119645833969" r="3" style="fill: steelblue;"></circle><circle cx="231.30433129146695" cy="161.92405298352242" r="3" style="fill: steelblue;"></circle><circle cx="433.1464496254921" cy="138.30404840409756" r="3" style="fill: steelblue;"></circle><circle cx="293.7344518303871" cy="132.44999460875988" r="3" style="fill: steelblue;"></circle><circle cx="326.96903821080923" cy="112.57060468196869" r="3" style="fill: steelblue;"></circle><circle cx="384.75272700190544" cy="73.49352538585663" r="3" style="fill: steelblue;"></circle><circle cx="401.7318443208933" cy="71.5974435210228" r="3" style="fill: steelblue;"></circle><circle cx="472.15700045228004" cy="95.12451216578484" r="3" style="fill: steelblue;"></circle><circle cx="486.8905757367611" cy="129.83569651842117" r="3" style="fill: steelblue;"></circle><circle cx="341.68642971664667" cy="68.6019018292427" r="3" style="fill: steelblue;"></circle><circle cx="296.41430804505944" cy="234.1407373547554" r="3" style="fill: steelblue;"></circle><circle cx="398.94609197974205" cy="122.2244992852211" r="3" style="fill: steelblue;"></circle><circle cx="395.42280592024326" cy="166.80122269317508" r="3" style="fill: steelblue;"></circle><circle cx="530.3952281177044" cy="192.9009098559618" r="3" style="fill: steelblue;"></circle><circle cx="416.8546852469444" cy="181.76303328946233" r="3" style="fill: steelblue;"></circle><circle cx="484.72239196300507" cy="227.10238471627235" r="3" style="fill: steelblue;"></circle><circle cx="228.37307581678033" cy="105.76800927519798" r="3" style="fill: steelblue;"></circle><circle cx="389.5824634283781" cy="150.5058828741312" r="3" style="fill: steelblue;"></circle><circle cx="199.66842614114285" cy="202.80740223824978" r="3" style="fill: steelblue;"></circle><circle cx="281.7556393146515" cy="205.62192499637604" r="3" style="fill: steelblue;"></circle><circle cx="368.56736920773983" cy="173.87703930726275" r="3" style="fill: steelblue;"></circle><circle cx="366.53223641216755" cy="140.8002644777298" r="3" style="fill: steelblue;"></circle><circle cx="263.23102897033095" cy="93.87668967247009" r="3" style="fill: steelblue;"></circle><circle cx="196.97755862027407" cy="123.69115501642227" r="3" style="fill: steelblue;"></circle><circle cx="308.1796561181545" cy="241.6727177798748" r="3" style="fill: steelblue;"></circle><circle cx="166.58100754022598" cy="74.36216175556183" r="3" style="fill: steelblue;"></circle><circle cx="226.00450336933136" cy="187.47574891895056" r="3" style="fill: steelblue;"></circle><circle cx="125.74373155832292" cy="224.55556094646454" r="3" style="fill: steelblue;"></circle><circle cx="131.28301955759528" cy="216.82740300893784" r="3" style="fill: steelblue;"></circle><circle cx="281.09719262458384" cy="122.60991781949997" r="3" style="fill: steelblue;"></circle><circle cx="274.6905747265555" cy="203.92303243279457" r="3" style="fill: steelblue;"></circle><circle cx="376.9221217185259" cy="217.40197129547596" r="3" style="fill: steelblue;"></circle><circle cx="297.1033985540271" cy="142.81093403697014" r="3" style="fill: steelblue;"></circle><circle cx="221.86397060751915" cy="246.84790819883347" r="3" style="fill: steelblue;"></circle><circle cx="196.6327053308487" cy="231.23050928115845" r="3" style="fill: steelblue;"></circle><circle cx="52.14720860123636" cy="214.558195322752" r="3" style="fill: steelblue;"></circle><circle cx="87.44241043925287" cy="297.8746101260185" r="3" style="fill: steelblue;"></circle><circle cx="107.78427354991437" cy="125.89400708675385" r="3" style="fill: steelblue;"></circle><circle cx="139.59711648523808" cy="141.5440570563078" r="3" style="fill: steelblue;"></circle><circle cx="254.83243491500616" cy="222.46612310409546" r="3" style="fill: steelblue;"></circle><circle cx="272.19940374372527" cy="248.24314936995506" r="3" style="fill: steelblue;"></circle><circle cx="315.5625018104911" cy="222.19403013586998" r="3" style="fill: steelblue;"></circle><circle cx="260.01885757315904" cy="205.2126720547676" r="3" style="fill: steelblue;"></circle><circle cx="68.77421557903291" cy="288.1643369793892" r="3" style="fill: steelblue;"></circle><circle cx="225.47335054725409" cy="157.86169730126858" r="3" style="fill: steelblue;"></circle><circle cx="227.03801717609167" cy="253.66368293762207" r="3" style="fill: steelblue;"></circle><circle cx="230.24361234158278" cy="189.65745512396097" r="3" style="fill: steelblue;"></circle><circle cx="337.63002444058657" cy="212.93423771858215" r="3" style="fill: steelblue;"></circle><circle cx="258.28702666796744" cy="211.41509674489498" r="3" style="fill: steelblue;"></circle><circle cx="161.1379773169756" cy="185.55966075509787" r="3" style="fill: steelblue;"></circle><circle cx="235.07340157404542" cy="146.89830280840397" r="3" style="fill: steelblue;"></circle><circle cx="172.63602398335934" cy="270.29723078012466" r="3" style="fill: steelblue;"></circle><circle cx="186.32670611143112" cy="203.21330167353153" r="3" style="fill: steelblue;"></circle><circle cx="213.84081959724426" cy="195.77873460948467" r="3" style="fill: steelblue;"></circle><circle cx="172.07919739186764" cy="221.39597907662392" r="3" style="fill: steelblue;"></circle><circle cx="230.3062754496932" cy="324.6814340353012" r="3" style="fill: steelblue;"></circle><circle cx="333.5318420827389" cy="169.44054821506143" r="3" style="fill: steelblue;"></circle><circle cx="266.3952280115336" cy="187.18181904405355" r="3" style="fill: steelblue;"></circle><circle cx="294.4199817068875" cy="71.7078223824501" r="3" style="fill: steelblue;"></circle><circle cx="451.6390872001648" cy="128.67842391133308" r="3" style="fill: steelblue;"></circle><circle cx="355.98898239433765" cy="158.66084229201078" r="3" style="fill: steelblue;"></circle><circle cx="394.66794177889824" cy="95.58674842119217" r="3" style="fill: steelblue;"></circle><circle cx="96.32932662963869" cy="74.20593947172165" r="3" style="fill: steelblue;"></circle><circle cx="285.0928370654583" cy="86.084945499897" r="3" style="fill: steelblue;"></circle><circle cx="312.7969867363572" cy="141.12004190683365" r="3" style="fill: steelblue;"></circle><circle cx="300.6510985828936" cy="127.01105326414108" r="3" style="fill: steelblue;"></circle><circle cx="191.99844662100077" cy="62.33144998550415" r="3" style="fill: steelblue;"></circle><circle cx="182.8874871879816" cy="123.62873703241348" r="3" style="fill: steelblue;"></circle><circle cx="383.4795494377613" cy="130.13008534908295" r="3" style="fill: steelblue;"></circle><circle cx="166.710055321455" cy="253.65152582526207" r="3" style="fill: steelblue;"></circle><circle cx="228.82750656455755" cy="149.50540624558926" r="3" style="fill: steelblue;"></circle><circle cx="250.11126508936286" cy="213.5876003652811" r="3" style="fill: steelblue;"></circle><circle cx="226.20641838759184" cy="174.67206606233958" r="3" style="fill: steelblue;"></circle><circle cx="180.28607301414013" cy="246.76069617271423" r="3" style="fill: steelblue;"></circle><circle cx="98.09884026646615" cy="172.44758906308562" r="3" style="fill: steelblue;"></circle><circle cx="206.50058079510927" cy="184.0205630287528" r="3" style="fill: steelblue;"></circle><circle cx="164.85175721347332" cy="175.01476220786572" r="3" style="fill: steelblue;"></circle><circle cx="208.256973400712" cy="161.84867341071367" r="3" style="fill: steelblue;"></circle><circle cx="116.40841707587244" cy="178.08012254536152" r="3" style="fill: steelblue;"></circle><circle cx="70.37871301174165" cy="209.10356864333153" r="3" style="fill: steelblue;"></circle><circle cx="182.76130601763725" cy="225.99498182535172" r="3" style="fill: steelblue;"></circle><circle cx="283.7369188014418" cy="214.22485783696175" r="3" style="fill: steelblue;"></circle><circle cx="304.9893596023321" cy="212.23343051970005" r="3" style="fill: steelblue;"></circle><circle cx="304.1946143656969" cy="78.66848111152649" r="3" style="fill: steelblue;"></circle><circle cx="364.8126319795847" cy="125.69540441036224" r="3" style="fill: steelblue;"></circle><circle cx="334.08759243786335" cy="131.9915473461151" r="3" style="fill: steelblue;"></circle><circle cx="358.7600999325514" cy="116.96134582161903" r="3" style="fill: steelblue;"></circle><circle cx="436.81380048394203" cy="106.14504665136337" r="3" style="fill: steelblue;"></circle><circle cx="417.5269205868244" cy="163.5745583102107" r="3" style="fill: steelblue;"></circle><circle cx="532.0003692805767" cy="145.85131257772446" r="3" style="fill: steelblue;"></circle><circle cx="477.6253071427345" cy="154.28392849862576" r="3" style="fill: steelblue;"></circle><circle cx="433.0463194102049" cy="106.38980567455292" r="3" style="fill: steelblue;"></circle><circle cx="337.5960374996066" cy="232.81307220458984" r="3" style="fill: steelblue;"></circle><circle cx="262.4345813691616" cy="193.01024563610554" r="3" style="fill: steelblue;"></circle><circle cx="180.64756773412228" cy="225.38369968533516" r="3" style="fill: steelblue;"></circle><circle cx="194.08480122685432" cy="228.14892902970314" r="3" style="fill: steelblue;"></circle><circle cx="234.95855106040835" cy="202.33653709292412" r="3" style="fill: steelblue;"></circle><circle cx="237.07536717876792" cy="244.73178833723068" r="3" style="fill: steelblue;"></circle><circle cx="192.91410248726606" cy="204.96333129703999" r="3" style="fill: steelblue;"></circle><circle cx="216.68768104165792" cy="225.6507858633995" r="3" style="fill: steelblue;"></circle><circle cx="135.80592803657055" cy="154.62770462036133" r="3" style="fill: steelblue;"></circle><circle cx="243.20771673694253" cy="236.2605758011341" r="3" style="fill: steelblue;"></circle><circle cx="61.93945080041887" cy="122.9314997792244" r="3" style="fill: steelblue;"></circle><circle cx="107.07450069487096" cy="188.29511012881994" r="3" style="fill: steelblue;"></circle><circle cx="358.0298584699631" cy="169.78297159075737" r="3" style="fill: steelblue;"></circle><circle cx="420.4732836037874" cy="133.0752618610859" r="3" style="fill: steelblue;"></circle><circle cx="440.8668865263462" cy="54.62832599878311" r="3" style="fill: steelblue;"></circle><circle cx="515.4054482281208" cy="169.24666743725538" r="3" style="fill: steelblue;"></circle><circle cx="300.870892200619" cy="66.28896296024323" r="3" style="fill: steelblue;"></circle><circle cx="418.670869320631" cy="23.92885833978653" r="3" style="fill: steelblue;"></circle><circle cx="211.176294721663" cy="292.5366625189781" r="3" style="fill: steelblue;"></circle><circle cx="79.53048393130304" cy="252.2064983844757" r="3" style="fill: steelblue;"></circle><circle cx="195.93942806124687" cy="136.4907741546631" r="3" style="fill: steelblue;"></circle><circle cx="14.217883050441756" cy="309.5369890332222" r="3" style="fill: steelblue;"></circle><circle cx="137.74721704423428" cy="266.4896607398987" r="3" style="fill: steelblue;"></circle><circle cx="213.168443441391" cy="234.6432365477085" r="3" style="fill: steelblue;"></circle></g></svg>