<svg xmlns="http://www.w3.org/2000/svg"><g transform="translate(40,20)"><circle cx="196.90952092409134" cy="79.25078123807907" r="3" style="fill: steelblue;"></circle><circle cx="383.47496330738073" cy="136.14850673410626" r="3" style="fill: steelblue;"></circle><circle cx="414.53951239585876" cy="48.609115348921875" r="3" style="fill: steelblue;"></circle><circle cx="338.3078062534332" cy="72.83125917116803" r="3" style="fill: steelblue;"></circle><circle cx="426.39296293258667" cy="70.02967612610922" r="3" style="fill: steelblue;"></circle><circle cx="389.37170147895813" cy="43.33571361170874" r="3" style="fill: steelblue;"></circle><circle cx="177.83899694681168" cy="161.41891899622152" r="3" style="fill: steelblue;"></circle><circle cx="259.2518837749958" cy="105.21668460634021" r="3" style="fill: steelblue;"></circle><circle cx="453.3317470550537" cy="95.62981145249472" r="3" style="fill: steelblue;"></circle><circle cx="392.78822779655457" cy="29.156275259123905" r="3" style="fill: steelblue;"></circle><circle cx="411.69304490089417" cy="69.56323915057713" r="3" style="fill: steelblue;"></circle><circle cx="281.9905185699463" cy="141.0164772636361" r="3" style="fill: steelblue;"></circle><circle cx="264.3066497147083" cy="109.29377931687566" r="3" style="fill: steelblue;"></circle><circle cx="470.3239345550537" cy="162.58141208026143" r="3" style="fill: steelblue;"></circle><circle cx="335.82231044769287" cy="87.46258351537915" r="3" style="fill: steelblue;"></circle><circle cx="433.07652711868286" cy="172.6201581872172" r="3" style="fill: steelblue;"></circle><circle cx="452.6941680908203" cy="138.92930638458995" r="3" style="fill: steelblue;"></circle><circle cx="351.4238530397415" cy="143.4682687951459" r="3" style="fill: steelblue;"></circle><circle cx="360.14544010162354" cy="49.46818550427757" r="3" style="fill: steelblue;"></circle><circle cx="363.7579196691513" cy="43.98123025894165" r="3" style="fill: steelblue;"></circle><circle cx="266.56703889369965" cy="149.14118080503414" r="3" style="fill: steelblue;"></circle><circle cx="267.6631124317646" cy="45.859089493751526" r="3" style="fill: steelblue;"></circle><circle cx="127.22881078720094" cy="123.00964337256221" r="3" style="fill: steelblue;"></circle><circle cx="400.56720614433294" cy="52.14698049757215" r="3" style="fill: steelblue;"></circle><circle cx="224.27225276827812" cy="219.9244434634844" r="3" style="fill: steelblue;"></circle><circle cx="244.5674893073738" cy="151.7876757722762" r="3" style="fill: steelblue;"></circle><circle cx="156.2189215421677" cy="133.05955044925213" r="3" style="fill: steelblue;"></circle><circle cx="173.43613743782046" cy="196.78042266103955" r="3" style="fill: steelblue;"></circle><circle cx="299.90418344736105" cy="219.88321857319937" r="3" style="fill: steelblue;"></circle><circle cx="293.5350412130356" cy="160.68479549139738" r="3" style="fill: steelblue;"></circle><circle cx="257.2448080033064" cy="144.33190170675516" r="3" style="fill: steelblue;"></circle><circle cx="254.84146267175674" cy="142.76591291030246" r="3" style="fill: steelblue;"></circle><circle cx="277.97870725393295" cy="128.60649012857016" r="3" style="fill: steelblue;"></circle><circle cx="303.3938446640969" cy="312.03211943308514" r="3" style="fill: steelblue;"></circle><circle cx="141.688688993454" cy="140.5224725190136" r="3" style="fill: steelblue;"></circle><circle cx="181.65298193693164" cy="218.4531483385298" r="3" style="fill: steelblue;"></circle><circle cx="164.9443084001541" cy="227.58105993270874" r="3" style="fill: steelblue;"></circle><circle cx="211.26755565404892" cy="214.7548109292984" r="3" style="fill: steelblue;"></circle><circle cx="129.43789601325992" cy="225.32069699631796" r="3" style="fill: steelblue;"></circle><circle cx="194.99997586011887" cy="83.94281003210278" r="3" style="fill: steelblue;"></circle><circle cx="236.47167641669512" cy="87.1617936425739" r="3" style="fill: steelblue;"></circle><circle cx="122.77165889739992" cy="215.67096660534543" r="3" style="fill: steelblue;"></circle><circle cx="117.06367671489716" cy="221.53534922334882" r="3" style="fill: steelblue;"></circle><circle cx="146.24244511127472" cy="177.26774302621686" r="3" style="fill: steelblue;"></circle><circle cx="279.61031287908554" cy="254.4225894742542" r="3" style="fill: steelblue;"></circle><circle cx="88.06074500083925" cy="206.54231905937195" r="3" style="fill: steelblue;"></circle><circle cx="137.5046306848526" cy="224.50160003370706" r="3" style="fill: steelblue;"></circle><circle cx="331.8892711400986" cy="161.3313396461308" r="3" style="fill: steelblue;"></circle><circle cx="321.2840133905411" cy="272.8310618135664" r="3" style="fill: steelblue;"></circle><circle cx="281.5710702538491" cy="181.3966571456856" r="3" style="fill: steelblue;"></circle><circle cx="255.56561551988125" cy="91.23118983374701" r="3" style="fill: steelblue;"></circle><circle cx="283.51443350315094" cy="196.26483917236328" r="3" style="fill: steelblue;"></circle><circle cx="52.220156192779555" cy="145.59048648095796" r="3" style="fill: steelblue;"></circle><circle cx="55.80566167831422" cy="229.39072483115729" r="3" style="fill: steelblue;"></circle><circle cx="205.82394540309906" cy="200.74710142281322" r="3" style="fill: steelblue;"></circle><circle cx="79.86403942108154" cy="59.556276599566154" r="3" style="fill: steelblue;"></circle><circle cx="145.72350919246676" cy="80.8497437172466" r="3" style="fill: steelblue;"></circle><circle cx="83.25544238090517" cy="174.52928957839805" r="3" style="fill: steelblue;"></circle><circle cx="146.8714410066605" cy="200.62612427605524" r="3" style="fill: steelblue;"></circle><circle cx="326.59509122371674" cy="176.95645135309962" r="3" style="fill: steelblue;"></circle><circle cx="407.9889142513275" cy="38.73448504341974" r="3" style="fill: steelblue;"></circle><circle cx="201.5855321288109" cy="173.8227700607644" r="3" style="fill: steelblue;"></circle><circle cx="349.8978102207184" cy="33.65361293156944" r="3" style="fill: steelblue;"></circle><circle cx="157.8186357021332" cy="106.81346820460425" r="3" style="fill: steelblue;"></circle><circle cx="290.3975495696068" cy="73.53798730505838" r="3" style="fill: steelblue;"></circle><circle cx="368.625950217247" cy="68.0123511287901" r="3" style="fill: steelblue;"></circle><circle cx="381.0219222307205" cy="58.100900053977966" r="3" style="fill: steelblue;"></circle><circle cx="156.25431776046753" cy="163.0216517796119" r="3" style="fill: steelblue;"></circle><circle cx="329.90893363952637" cy="76.47894339429007" r="3" style="fill: steelblue;"></circle><circle cx="256.01356118917465" cy="14.522551827960562" r="3" style="fill: steelblue;"></circle><circle cx="427.4471068382263" cy="76.88885115914876" r="3" style="fill: steelblue;"></circle><circle cx="301.3442748785019" cy="111.05617814593846" r="3" style="fill: steelblue;"></circle><circle cx="152.66624629497528" cy="256.37964175807105" r="3" style="fill: steelblue;"></circle><circle cx="279.27779495716095" cy="111.72868452138373" r="3" style="fill: steelblue;"></circle><circle cx="134.3941444158554" cy="257.1251435412301" r="3" style="fill: steelblue;"></circle><circle cx="190.8280947804451" cy="102.14042928483752" r="3" style="fill: steelblue;"></circle><circle cx="33.060564994812026" cy="179.8211596492264" r="3" style="fill: steelblue;"></circle><circle cx="154.25373852252963" cy="233.9183350404104" r="3" style="fill: steelblue;"></circle><circle cx="130.1482880115509" cy="287.2470478216807" r="3" style="fill: steelblue;"></circle><circle cx="130.3272181749344" cy="291.33626255724164" r="3" style="fill: steelblue;"></circle><circle cx="196.29976987838745" cy="168.07920522987843" r="3" style="fill: steelblue;"></circle><circle cx="117.4301826953888" cy="288.668269250128" r="3" style="fill: steelblue;"></circle><circle cx="129.1110062599182" cy="223.80334403779773" r="3" style="fill: steelblue;"></circle><circle cx="255.9438293427229" cy="160.82672661998208" r="3" style="fill: steelblue;"></circle><circle cx="346.0367614030838" cy="100.53349882364273" r="3" style="fill: steelblue;"></circle><circle cx="330.76678454875946" cy="76.4662583669027" r="3" style="fill: steelblue;"></circle><circle cx="264.4340389966965" cy="85.42562541034488" r="3" style="fill: steelblue;"></circle><circle cx="354.7678345441818" cy="192.06294558114473" r="3" style="fill: steelblue;"></circle><circle cx="348.93462002277374" cy="162.15732130739423" r="3" style="fill: steelblue;"></circle><circle cx="399.9106192588806" cy="75.10656714439392" r="3" style="fill: steelblue;"></circle><circle cx="356.35726690292364" cy="104.66688225666684" r="3" style="fill: steelblue;"></circle><circle cx="486.40708565711975" cy="129.5263052814537" r="3" style="fill: steelblue;"></circle><circle cx="411.3544428348541" cy="166.8196034514242" r="3" style="fill: steelblue;"></circle><circle cx="407.09291338920593" cy="203.44313043687077" r="3" style="fill: steelblue;"></circle><circle cx="277.2948311269284" cy="106.57971368895636" r="3" style="fill: steelblue;"></circle><circle cx="166.57988369464877" cy="208.7995121876399" r="3" style="fill: steelblue;"></circle><circle cx="213.65984916687015" cy="156.81829780547156" r="3" style="fill: steelblue;"></circle><circle cx="148.8647156953812" cy="172.79600575566292" r="3" style="fill: steelblue;"></circle><circle cx="170.77330738306048" cy="214.52790018584994" r="3" style="fill: steelblue;"></circle><circle cx="225.15726886689663" cy="170.15526294708252" r="3" style="fill: steelblue;"></circle><circle cx="269.59604635834694" cy="120.75079290403261" r="3" style="fill: steelblue;"></circle><circle cx="237.89557331241667" cy="232.11988326576022" r="3" style="fill: steelblue;"></circle><circle cx="339.9584019184113" cy="206.33891820907593" r="3" style="fill: steelblue;"></circle><circle cx="240.97154185641557" cy="287.0310256878535" r="3" style="fill: steelblue;"></circle><circle cx="129.0843629837036" cy="215.65744131803513" r="3" style="fill: steelblue;"></circle><circle cx="186.76923304796222" cy="102.75213271379471" r="3" style="fill: steelblue;"></circle><circle cx="454.3660068511963" cy="21.154091755549125" r="3" style="fill: steelblue;"></circle><circle cx="310.58197259902954" cy="110.83606481552124" r="3" style="fill: steelblue;"></circle><circle cx="149.04262661933902" cy="87.52283884419336" r="3" style="fill: steelblue;"></circle><circle cx="454.64547514915466" cy="79.950654009978" r="3" style="fill: steelblue;"></circle><circle cx="329.9905890226364" cy="14.820061789618594" r="3" style="fill: steelblue;"></circle><circle cx="430.55954217910767" cy="144.91551727470426" r="3" style="fill: steelblue;"></circle><circle cx="301.98978871107107" cy="113.52950061360997" r="3" style="fill: steelblue;"></circle><circle cx="72.38403797149658" cy="147.52066276139686" r="3" style="fill: steelblue;"></circle><circle cx="208.6226047575474" cy="256.7308008670807" r="3" style="fill: steelblue;"></circle><circle cx="279.47355598211294" cy="171.87202262381714" r="3" style="fill: steelblue;"></circle><circle cx="258.5512360185385" cy="194.20242119166585" r="3" style="fill: steelblue;"></circle><circle cx="127.4004900455475" cy="236.24285327063666" r="3" style="fill: steelblue;"></circle></g></svg>