<svg xmlns="http://www.w3.org/2000/svg"><g transform="translate(40,20)"><circle cx="329.3165596042361" cy="124.98065382242203" r="3" style="fill: steelblue;"></circle><circle cx="234.36857383831273" cy="310.04297472536564" r="3" style="fill: steelblue;"></circle><circle cx="474.20211451394226" cy="136.17456536740065" r="3" style="fill: steelblue;"></circle><circle cx="424.9987833840507" cy="80.35480715334415" r="3" style="fill: steelblue;"></circle><circle cx="451.8415955134801" cy="48.60214814543724" r="3" style="fill: steelblue;"></circle><circle cx="536.7818135874613" cy="48.72327595949173" r="3" style="fill: steelblue;"></circle><circle cx="350.3687085424151" cy="94.66287698596716" r="3" style="fill: steelblue;"></circle><circle cx="467.0302018097469" cy="180.79539831960574" r="3" style="fill: steelblue;"></circle><circle cx="402.67960105623524" cy="101.39792244881392" r="3" style="fill: steelblue;"></circle><circle cx="513.2964221068792" cy="250.0176627188921" r="3" style="fill: steelblue;"></circle><circle cx="402.04160698822574" cy="54.777515307068825" r="3" style="fill: steelblue;"></circle><circle cx="384.61772816521784" cy="156.3931444659829" r="3" style="fill: steelblue;"></circle><circle cx="315.5765760796411" cy="128.8855915889144" r="3" style="fill: steelblue;"></circle><circle cx="365.03622676645006" cy="174.09460738126654" r="3" style="fill: steelblue;"></circle><circle cx="251.60369836858342" cy="199.63203528895974" r="3" style="fill: steelblue;"></circle><circle cx="226.1432281535651" cy="82.75457210838795" r="3" style="fill: steelblue;"></circle><circle cx="424.16460105351047" cy="51.136183738708496" r="3" style="fill: steelblue;"></circle><circle cx="269.83346988047873" cy="68.98995414376259" r="3" style="fill: steelblue;"></circle><circle cx="300.63200673886706" cy="100.87589286267757" r="3" style="fill: steelblue;"></circle><circle cx="533.2542872428895" cy="149.2467044852674" r="3" style="fill: steelblue;"></circle><circle cx="210.81824410174573" cy="62.710683047771454" r="3" style="fill: steelblue;"></circle><circle cx="235.00224050932698" cy="75.09918995201588" r="3" style="fill: steelblue;"></circle><circle cx="209.05177812491144" cy="116.46838039159775" r="3" style="fill: steelblue;"></circle><circle cx="386.2131444045476" cy="202.4009956046939" r="3" style="fill: steelblue;"></circle><circle cx="163.32842064755303" cy="201.16804093122482" r="3" style="fill: steelblue;"></circle><circle cx="107.40072446210044" cy="104.61820121854544" r="3" style="fill: steelblue;"></circle><circle cx="131.85358490262715" cy="287.99579590559006" r="3" style="fill: steelblue;"></circle><circle cx="518.1635509218489" cy="41.060761734843254" r="3" style="fill: steelblue;"></circle><circle cx="412.7299416916712" cy="126.17108663544059" r="3" style="fill: steelblue;"></circle><circle cx="148.64899341549193" cy="189.55584401264787" r="3" style="fill: steelblue;"></circle><circle cx="174.81013553483146" cy="99.1908211261034" r="3" style="fill: steelblue;"></circle><circle cx="252.61703885027342" cy="175.52496712305583" r="3" style="fill: steelblue;"></circle><circle cx="228.3533449125077" cy="276.9486589357257" r="3" style="fill: steelblue;"></circle><circle cx="115.39717503956386" cy="89.62361440062523" r="3" style="fill: steelblue;"></circle><circle cx="263.8340225815773" cy="262.6110177487135" r="3" style="fill: steelblue;"></circle><circle cx="381.78247613566265" cy="273.1814991682768" r="3" style="fill: steelblue;"></circle><circle cx="80.39903742926461" cy="261.08939684927464" r="3" style="fill: steelblue;"></circle><circle cx="61.90976219517844" cy="176.70897571661044" r="3" style="fill: steelblue;"></circle><circle cx="111.98128989764622" cy="205.1478784531355" r="3" style="fill: steelblue;"></circle><circle cx="90.5957806961877" cy="108.22603683918715" r="3" style="fill: steelblue;"></circle><circle cx="95.90425550937653" cy="158.82424097508192" r="3" style="fill: steelblue;"></circle><circle cx="219.32814564023698" cy="266.0144681110978" r="3" style="fill: steelblue;"></circle><circle cx="212.09703562515122" cy="116.70055724680424" r="3" style="fill: steelblue;"></circle><circle cx="197.10128973637308" cy="257.694910466671" r="3" style="fill: steelblue;"></circle><circle cx="151.38636972223009" cy="158.13895775936544" r="3" style="fill: steelblue;"></circle><circle cx="130.06984310490745" cy="178.01371444948018" r="3" style="fill: steelblue;"></circle><circle cx="214.58000632269042" cy="179.22753510065377" r="3" style="fill: steelblue;"></circle><circle cx="128.6587406056268" cy="196.37017017230392" r="3" style="fill: steelblue;"></circle><circle cx="139.4870981148311" cy="256.54905308037996" r="3" style="fill: steelblue;"></circle><circle cx="125.57618124144417" cy="176.55294919386506" r="3" style="fill: steelblue;"></circle><circle cx="54.82559221131461" cy="108.11113491654396" r="3" style="fill: steelblue;"></circle><circle cx="285.7747605443001" cy="271.53396531939507" r="3" style="fill: steelblue;"></circle><circle cx="91.46335652896336" cy="269.20730732381344" r="3" style="fill: steelblue;"></circle><circle cx="160.09901033980506" cy="169.3670355132781" r="3" style="fill: steelblue;"></circle><circle cx="147.69319781235285" cy="175.1482055267843" r="3" style="fill: steelblue;"></circle><circle cx="132.7538300412042" cy="198.75991339795291" r="3" style="fill: steelblue;"></circle><circle cx="135.717017693179" cy="273.9182535558939" r="3" style="fill: steelblue;"></circle><circle cx="108.6323526927403" cy="218.29220531508327" r="3" style="fill: steelblue;"></circle><circle cx="10.890479769025523" cy="296.50853872299194" r="3" style="fill: steelblue;"></circle><circle cx="94.33748526232583" cy="67.02899392694235" r="3" style="fill: steelblue;"></circle><circle cx="409.28620372499745" cy="123.65918066352606" r="3" style="fill: steelblue;"></circle><circle cx="473.93133401870733" cy="156.46662465296686" r="3" style="fill: steelblue;"></circle><circle cx="391.7665930305209" cy="146.5273752808571" r="3" style="fill: steelblue;"></circle><circle cx="296.825555562973" cy="207.5509812682867" r="3" style="fill: steelblue;"></circle><circle cx="395.067583833422" cy="86.30834352225065" r="3" style="fill: steelblue;"></circle><circle cx="351.39838942459653" cy="83.58846344053745" r="3" style="fill: steelblue;"></circle><circle cx="340.46851796763286" cy="231.47961795330048" r="3" style="fill: steelblue;"></circle><circle cx="149.37115520238876" cy="19.423357397317886" r="3" style="fill: steelblue;"></circle><circle cx="197.39798324448722" cy="103.16443927586079" r="3" style="fill: steelblue;"></circle><circle cx="279.367599274431" cy="79.9209700897336" r="3" style="fill: steelblue;"></circle><circle cx="442.49764527593345" cy="249.6306013315916" r="3" style="fill: steelblue;"></circle><circle cx="259.50988303337783" cy="245.66421303898096" r="3" style="fill: steelblue;"></circle><circle cx="407.98009821346835" cy="157.46085550636053" r="3" style="fill: steelblue;"></circle><circle cx="61.92193559237889" cy="242.53329373896122" r="3" style="fill: steelblue;"></circle><circle cx="216.64247034915857" cy="337.5530309975147" r="3" style="fill: steelblue;"></circle><circle cx="252.84204984349864" cy="207.60398609563708" r="3" style="fill: steelblue;"></circle><circle cx="34.54133289200919" cy="332.97110088169575" r="3" style="fill: steelblue;"></circle><circle cx="0.8219422612871358" cy="170.4574017901905" r="3" style="fill: steelblue;"></circle><circle cx="44.199136069842744" cy="257.06896390765905" r="3" style="fill: steelblue;"></circle><circle cx="63.738404171807424" cy="222.2027463838458" r="3" style="fill: steelblue;"></circle><circle cx="121.79969225611005" cy="287.97355219721794" r="3" style="fill: steelblue;"></circle><circle cx="104.27981717245919" cy="236.60056684166193" r="3" style="fill: steelblue;"></circle><circle cx="284.1022173847471" cy="71.8114173039794" r="3" style="fill: steelblue;"></circle><circle cx="241.92184080502818" cy="263.088683784008" r="3" style="fill: steelblue;"></circle><circle cx="387.84473598003393" cy="110.85854582488537" r="3" style="fill: steelblue;"></circle><circle cx="303.8783149634089" cy="71.33746072649956" r="3" style="fill: steelblue;"></circle><circle cx="309.65363208736693" cy="177.03159984084778" r="3" style="fill: steelblue;"></circle><circle cx="123.72320396559579" cy="166.03239958640188" r="3" style="fill: steelblue;"></circle><circle cx="257.95804502708575" cy="72.33937289565802" r="3" style="fill: steelblue;"></circle><circle cx="374.56232964992523" cy="111.51617597788572" r="3" style="fill: steelblue;"></circle><circle cx="438.1362124851772" cy="35.315652564167976" r="3" style="fill: steelblue;"></circle><circle cx="126.77699089050293" cy="73.73603265732527" r="3" style="fill: steelblue;"></circle><circle cx="236.580043256815" cy="93.43818221241236" r="3" style="fill: steelblue;"></circle><circle cx="261.0961950889656" cy="14.894194155931473" r="3" style="fill: steelblue;"></circle><circle cx="262.78223646538595" cy="121.36046746745706" r="3" style="fill: steelblue;"></circle><circle cx="272.29609410677637" cy="156.01082094945014" r="3" style="fill: steelblue;"></circle><circle cx="20.55374315806797" cy="310.8841806650162" r="3" style="fill: steelblue;"></circle><circle cx="238.16380445978473" cy="204.27394909784198" r="3" style="fill: steelblue;"></circle><circle cx="168.11768685068404" cy="188.24341061990708" r="3" style="fill: steelblue;"></circle><circle cx="108.55939277580806" cy="208.44706632196903" r="3" style="fill: steelblue;"></circle><circle cx="158.07759991713934" cy="106.46912287920713" r="3" style="fill: steelblue;"></circle><circle cx="129.3413244826453" cy="228.75596648082137" r="3" style="fill: steelblue;"></circle><circle cx="342.52497145107816" cy="158.75356406904757" r="3" style="fill: steelblue;"></circle><circle cx="5.620858669280998" cy="219.1862498410046" r="3" style="fill: steelblue;"></circle><circle cx="126.1243634564536" cy="149.29761663079262" r="3" style="fill: steelblue;"></circle><circle cx="47.65631190368107" cy="207.56449894979596" r="3" style="fill: steelblue;"></circle><circle cx="305.6733565245356" cy="100.04698224365711" r="3" style="fill: steelblue;"></circle><circle cx="478.9230016299657" cy="196.34300605393946" r="3" style="fill: steelblue;"></circle><circle cx="331.72400695937023" cy="198.40659080073237" r="3" style="fill: steelblue;"></circle><circle cx="414.7358853476389" cy="49.68740902841091" r="3" style="fill: steelblue;"></circle><circle cx="471.2550718443735" cy="181.62251329049468" r="3" style="fill: steelblue;"></circle><circle cx="297.2167940650668" cy="63.86525668203831" r="3" style="fill: steelblue;"></circle><circle cx="322.09040113857816" cy="268.8560040667653" r="3" style="fill: steelblue;"></circle><circle cx="296.34348788431714" cy="296.8087375164032" r="3" style="fill: steelblue;"></circle><circle cx="222.9042362528188" cy="266.62560291588306" r="3" style="fill: steelblue;"></circle><circle cx="148.90483592237746" cy="217.5604642368853" r="3" style="fill: steelblue;"></circle><circle cx="361.8544639859881" cy="142.12940884754062" r="3" style="fill: steelblue;"></circle><circle cx="228.5549729104553" cy="251.3723710551858" r="3" style="fill: steelblue;"></circle></g></svg>