<svg xmlns="http://www.w3.org/2000/svg"><g transform="translate(40,20)"><circle cx="344.7242349386215" cy="79.25078123807907" r="3" style="fill: steelblue;"></circle><circle cx="350.63985586166376" cy="136.14850673410626" r="3" style="fill: steelblue;"></circle><circle cx="271.0120216012001" cy="48.609115348921875" r="3" style="fill: steelblue;"></circle><circle cx="246.1318954825401" cy="72.83125917116803" r="3" style="fill: steelblue;"></circle><circle cx="396.254763007164" cy="70.02967612610922" r="3" style="fill: steelblue;"></circle><circle cx="456.6295266151428" cy="43.33571361170874" r="3" style="fill: steelblue;"></circle><circle cx="223.75396192073822" cy="161.41891899622152" r="3" style="fill: steelblue;"></circle><circle cx="292.09812730550766" cy="105.21668460634021" r="3" style="fill: steelblue;"></circle><circle cx="473.9461362361908" cy="95.62981145249472" r="3" style="fill: steelblue;"></circle><circle cx="290.16219936311245" cy="29.156275259123905" r="3" style="fill: steelblue;"></circle><circle cx="418.5412734746933" cy="69.56323915057713" r="3" style="fill: steelblue;"></circle><circle cx="503.6541759967804" cy="141.0164772636361" r="3" style="fill: steelblue;"></circle><circle cx="412.5028610229492" cy="109.29377931687566" r="3" style="fill: steelblue;"></circle><circle cx="357.86396116018295" cy="162.58141208026143" r="3" style="fill: steelblue;"></circle><circle cx="303.20414789021015" cy="87.46258351537915" r="3" style="fill: steelblue;"></circle><circle cx="488.62754702568054" cy="172.6201581872172" r="3" style="fill: steelblue;"></circle><circle cx="333.9181512594223" cy="138.92930638458995" r="3" style="fill: steelblue;"></circle><circle cx="397.54908084869385" cy="143.4682687951459" r="3" style="fill: steelblue;"></circle><circle cx="252.02867835760117" cy="49.46818550427757" r="3" style="fill: steelblue;"></circle><circle cx="383.28127562999725" cy="43.98123025894165" r="3" style="fill: steelblue;"></circle><circle cx="368.99822652339935" cy="149.14118080503414" r="3" style="fill: steelblue;"></circle><circle cx="157.80534446239471" cy="45.859089493751526" r="3" style="fill: steelblue;"></circle><circle cx="454.38907742500305" cy="123.00964337256221" r="3" style="fill: steelblue;"></circle><circle cx="268.88806745409966" cy="52.14698049757215" r="3" style="fill: steelblue;"></circle><circle cx="316.24162048101425" cy="219.9244434634844" r="3" style="fill: steelblue;"></circle><circle cx="298.7839065492153" cy="151.7876757722762" r="3" style="fill: steelblue;"></circle><circle cx="406.58285915851593" cy="133.05955044925213" r="3" style="fill: steelblue;"></circle><circle cx="289.8651212453842" cy="196.78042266103955" r="3" style="fill: steelblue;"></circle><circle cx="446.30562365055084" cy="219.88321857319937" r="3" style="fill: steelblue;"></circle><circle cx="228.0906781554222" cy="160.68479549139738" r="3" style="fill: steelblue;"></circle><circle cx="302.90716644376516" cy="144.33190170675516" r="3" style="fill: steelblue;"></circle><circle cx="390.2590423822403" cy="142.76591291030246" r="3" style="fill: steelblue;"></circle><circle cx="324.6804244816303" cy="128.60649012857016" r="3" style="fill: steelblue;"></circle><circle cx="286.58297806978226" cy="312.03211943308514" r="3" style="fill: steelblue;"></circle><circle cx="441.159725189209" cy="140.5224725190136" r="3" style="fill: steelblue;"></circle><circle cx="187.54722476005554" cy="218.4531483385298" r="3" style="fill: steelblue;"></circle><circle cx="413.79447877407074" cy="227.58105993270874" r="3" style="fill: steelblue;"></circle><circle cx="261.6524577140808" cy="214.7548109292984" r="3" style="fill: steelblue;"></circle><circle cx="316.37625731527805" cy="225.32069699631796" r="3" style="fill: steelblue;"></circle><circle cx="257.671120762825" cy="83.94281003210278" r="3" style="fill: steelblue;"></circle><circle cx="242.01717674732208" cy="87.1617936425739" r="3" style="fill: steelblue;"></circle><circle cx="355.17842173576355" cy="215.67096660534543" r="3" style="fill: steelblue;"></circle><circle cx="206.72025382518768" cy="221.53534922334882" r="3" style="fill: steelblue;"></circle><circle cx="177.1222025156021" cy="177.26774302621686" r="3" style="fill: steelblue;"></circle><circle cx="383.9410275220871" cy="254.4225894742542" r="3" style="fill: steelblue;"></circle><circle cx="222.29165732860565" cy="206.54231905937195" r="3" style="fill: steelblue;"></circle><circle cx="208.71745347976682" cy="224.50160003370706" r="3" style="fill: steelblue;"></circle><circle cx="319.2985899746418" cy="161.3313396461308" r="3" style="fill: steelblue;"></circle><circle cx="269.8196366429329" cy="272.8310618135664" r="3" style="fill: steelblue;"></circle><circle cx="410.432231426239" cy="181.3966571456856" r="3" style="fill: steelblue;"></circle><circle cx="271.79556638002396" cy="91.23118983374701" r="3" style="fill: steelblue;"></circle><circle cx="379.8008769750595" cy="196.26483917236328" r="3" style="fill: steelblue;"></circle><circle cx="59.26133394241333" cy="145.59048648095796" r="3" style="fill: steelblue;"></circle><circle cx="242.59611815214157" cy="229.39072483115729" r="3" style="fill: steelblue;"></circle><circle cx="281.61897473037243" cy="200.74710142281322" r="3" style="fill: steelblue;"></circle><circle cx="293.2490721344948" cy="59.556276599566154" r="3" style="fill: steelblue;"></circle><circle cx="251.91000401973724" cy="80.8497437172466" r="3" style="fill: steelblue;"></circle><circle cx="215.87262153625488" cy="174.52928957839805" r="3" style="fill: steelblue;"></circle><circle cx="148.7978160381317" cy="200.62612427605524" r="3" style="fill: steelblue;"></circle><circle cx="394.7282463312149" cy="176.95645135309962" r="3" style="fill: steelblue;"></circle><circle cx="170.43318450450897" cy="38.73448504341974" r="3" style="fill: steelblue;"></circle><circle cx="424.63088035583496" cy="173.8227700607644" r="3" style="fill: steelblue;"></circle><circle cx="445.4718232154846" cy="33.65361293156944" r="3" style="fill: steelblue;"></circle><circle cx="362.6088961958885" cy="106.81346820460425" r="3" style="fill: steelblue;"></circle><circle cx="290.3185095638037" cy="73.53798730505838" r="3" style="fill: steelblue;"></circle><circle cx="432.25821554660797" cy="68.0123511287901" r="3" style="fill: steelblue;"></circle><circle cx="339.03311938047403" cy="58.100900053977966" r="3" style="fill: steelblue;"></circle><circle cx="347.26240485906595" cy="163.0216517796119" r="3" style="fill: steelblue;"></circle><circle cx="409.43131148815155" cy="76.47894339429007" r="3" style="fill: steelblue;"></circle><circle cx="364.45233374834055" cy="14.522551827960562" r="3" style="fill: steelblue;"></circle><circle cx="250.36592334508896" cy="76.88885115914876" r="3" style="fill: steelblue;"></circle><circle cx="324.2214985191822" cy="111.05617814593846" r="3" style="fill: steelblue;"></circle><circle cx="148.83581399917603" cy="256.37964175807105" r="3" style="fill: steelblue;"></circle><circle cx="411.69650852680206" cy="111.72868452138373" r="3" style="fill: steelblue;"></circle><circle cx="153.93482744693756" cy="257.1251435412301" r="3" style="fill: steelblue;"></circle><circle cx="209.8241686820984" cy="102.14042928483752" r="3" style="fill: steelblue;"></circle><circle cx="204.80520129203796" cy="179.8211596492264" r="3" style="fill: steelblue;"></circle><circle cx="109.16908979415894" cy="233.9183350404104" r="3" style="fill: steelblue;"></circle><circle cx="196.97160422801971" cy="287.2470478216807" r="3" style="fill: steelblue;"></circle><circle cx="127.18124985694885" cy="291.33626255724164" r="3" style="fill: steelblue;"></circle><circle cx="193.14700663089752" cy="168.07920522987843" r="3" style="fill: steelblue;"></circle><circle cx="305.12877367436886" cy="288.668269250128" r="3" style="fill: steelblue;"></circle><circle cx="333.28614458441734" cy="223.80334403779773" r="3" style="fill: steelblue;"></circle><circle cx="251.97748392820355" cy="160.82672661998208" r="3" style="fill: steelblue;"></circle><circle cx="299.4472956983372" cy="100.53349882364273" r="3" style="fill: steelblue;"></circle><circle cx="314.1484212130308" cy="76.4662583669027" r="3" style="fill: steelblue;"></circle><circle cx="291.42582044005394" cy="85.42562541034488" r="3" style="fill: steelblue;"></circle><circle cx="433.491575717926" cy="192.06294558114473" r="3" style="fill: steelblue;"></circle><circle cx="469.746333360672" cy="162.15732130739423" r="3" style="fill: steelblue;"></circle><circle cx="371.3211849331856" cy="75.10656714439392" r="3" style="fill: steelblue;"></circle><circle cx="319.8563151061535" cy="104.66688225666684" r="3" style="fill: steelblue;"></circle><circle cx="383.224081993103" cy="129.5263052814537" r="3" style="fill: steelblue;"></circle><circle cx="267.35130697488785" cy="166.8196034514242" r="3" style="fill: steelblue;"></circle><circle cx="354.36214953660965" cy="203.44313043687077" r="3" style="fill: steelblue;"></circle><circle cx="210.19803285598752" cy="106.57971368895636" r="3" style="fill: steelblue;"></circle><circle cx="123.1850266456604" cy="208.7995121876399" r="3" style="fill: steelblue;"></circle><circle cx="191.3768112659454" cy="156.81829780547156" r="3" style="fill: steelblue;"></circle><circle cx="163.24097514152524" cy="172.79600575566292" r="3" style="fill: steelblue;"></circle><circle cx="310.1401023566723" cy="214.52790018584994" r="3" style="fill: steelblue;"></circle><circle cx="121.96372747421265" cy="170.15526294708252" r="3" style="fill: steelblue;"></circle><circle cx="226.76104903221128" cy="120.75079290403261" r="3" style="fill: steelblue;"></circle><circle cx="129.43952679634094" cy="232.11988326576022" r="3" style="fill: steelblue;"></circle><circle cx="243.56480687856674" cy="206.33891820907593" r="3" style="fill: steelblue;"></circle><circle cx="246.72086387872693" cy="287.0310256878535" r="3" style="fill: steelblue;"></circle><circle cx="131.06861114501953" cy="215.65744131803513" r="3" style="fill: steelblue;"></circle><circle cx="235.9637662768364" cy="102.75213271379471" r="3" style="fill: steelblue;"></circle><circle cx="329.6842709183693" cy="21.154091755549125" r="3" style="fill: steelblue;"></circle><circle cx="309.23860240727663" cy="110.83606481552124" r="3" style="fill: steelblue;"></circle><circle cx="468.5327589511871" cy="87.52283884419336" r="3" style="fill: steelblue;"></circle><circle cx="389.72330689430237" cy="79.950654009978" r="3" style="fill: steelblue;"></circle><circle cx="493.9634084701538" cy="14.820061789618594" r="3" style="fill: steelblue;"></circle><circle cx="395.597979426384" cy="144.91551727470426" r="3" style="fill: steelblue;"></circle><circle cx="173.29911589622498" cy="113.52950061360997" r="3" style="fill: steelblue;"></circle><circle cx="151.49112939834592" cy="147.52066276139686" r="3" style="fill: steelblue;"></circle><circle cx="340.6867012381553" cy="256.7308008670807" r="3" style="fill: steelblue;"></circle><circle cx="181.31619393825528" cy="171.87202262381714" r="3" style="fill: steelblue;"></circle><circle cx="165.88471233844757" cy="194.20242119166585" r="3" style="fill: steelblue;"></circle><circle cx="276.4208950102329" cy="236.24285327063666" r="3" style="fill: steelblue;"></circle></g></svg>